<svg width="457" height="178" viewBox="0 0 457 178" fill="none" xmlns="http://www.w3.org/2000/svg">
<g clip-path="url(#clip0_176_109084)">
<path d="M91.3072 104.406L91.2187 133.211L91.2106 135.813L80.5324 142.051L64.7135 151.297L64.625 151.348L64.6706 138.432L64.7216 119.936L91.3072 104.406Z" fill="#E3BF94"/>
<path opacity="0.5" d="M91.2123 133.211L91.2043 135.814L80.5261 142.052L80.4804 157.951L80.4724 160.553L80.1102 160.761L73.1666 164.82L64.6562 169.791L64.6643 167.188L64.7072 151.297L64.7153 148.697L80.5368 139.455L91.2123 133.211Z" fill="white"/>
<path d="M87.8975 118.126L79.7734 122.837V116.486L87.8975 111.771V118.126Z" fill="#ACD3F2"/>
<path opacity="0.5" d="M82.2997 115.152L84.2448 114L82.8443 121.061L80.875 122.202L82.2997 115.152Z" fill="white"/>
<path opacity="0.5" d="M84.495 113.869L85.1308 113.467L83.7303 120.525L83.0703 120.921L84.495 113.869Z" fill="white"/>
<path d="M79.7734 116.633V122.839L87.4119 118.399V112.193L79.7734 116.633ZM87.0738 118.256L79.929 122.402V116.527L87.0738 112.382V118.256Z" fill="#453B36"/>
<path d="M79.7344 116.465V123.019L87.5526 118.48V111.926L79.7344 116.465ZM87.2172 118.337L80.0724 122.482V116.608L87.2172 112.462V118.337Z" fill="#856644"/>
<path d="M84.8407 113.683V119.557L84.7656 119.6L84.7737 119.934L85.1761 119.7V113.467L84.8407 113.683Z" fill="#453B36"/>
<path d="M84.5967 113.982L84.9723 113.763V119.637L84.763 119.759L84.7737 120.093L85.3103 119.78V113.227L84.5859 113.647L84.5967 113.982Z" fill="#856644"/>
<path d="M81.8251 115.427V121.304L81.75 121.347L81.7607 121.678L82.1632 121.446V115.098L81.8251 115.427Z" fill="#453B36"/>
<path d="M81.5862 115.727L81.9645 115.509V121.383L81.7552 121.507L81.7633 121.839L82.2998 121.528V114.975L81.5781 115.395L81.5862 115.727Z" fill="#856644"/>
<path d="M87.5469 111.928V118.479L87.791 118.622L87.8849 118.285L88.1157 111.928L87.8957 111.771L87.5469 111.928Z" fill="#CCA67C"/>
<path d="M87.7933 112.069V118.623L88.1313 118.426V111.535L82.5078 114.799L82.5159 115.133L87.7933 112.069Z" fill="white"/>
<path d="M79.6406 123.357L79.9787 123.16V116.609L82.5195 115.133L82.5114 114.799L79.6406 116.463V123.357Z" fill="white"/>
<path d="M88.3301 111.268L79.5353 117.045L78.9531 116.708V116.341L88.3301 110.898V111.268Z" fill="#5E4830"/>
<path d="M88.9056 111.606L79.5312 117.046V116.679L88.9056 111.236V111.606Z" fill="#5E4830"/>
<path d="M88.1349 118.793L79.6406 123.723V123.356L88.1349 118.426V118.793Z" fill="white"/>
<path d="M88.9096 111.236L79.5353 116.678L78.9531 116.341L88.3301 110.898L88.9096 111.236Z" fill="#CCA67C"/>
<path d="M87.7947 118.623L79.9766 123.16V122.877L87.5506 118.48L87.7947 118.623Z" fill="#CCA67C"/>
<path d="M75.7283 125.189L67.6016 129.904V123.55L75.7283 118.838V125.189Z" fill="#ACD3F2"/>
<path opacity="0.5" d="M70.1305 122.218L72.073 121.066L70.6724 128.127L68.7031 129.268L70.1305 122.218Z" fill="white"/>
<path opacity="0.5" d="M72.3258 120.935L72.9616 120.533L71.5584 127.591L70.8984 127.985L72.3258 120.935Z" fill="white"/>
<path d="M67.6016 123.699V129.905L75.24 125.466V119.26L67.6016 123.699ZM74.9019 125.323L67.7572 129.468V123.594L74.9019 119.449V125.323Z" fill="#453B36"/>
<path d="M67.5625 123.531V130.085L75.3807 125.546V118.992L67.5625 123.531ZM75.0453 125.403L67.9006 129.548V123.674L75.0453 119.529V125.403Z" fill="#856644"/>
<path d="M72.6689 120.749V126.623L72.5938 126.666L72.6018 127.001L73.0069 126.766V120.533L72.6689 120.749Z" fill="#453B36"/>
<path d="M72.4248 121.048L72.8031 120.83V126.704L72.5911 126.825L72.6019 127.157L73.1385 126.847V120.293L72.4141 120.714L72.4248 121.048Z" fill="#856644"/>
<path d="M69.6532 122.493V128.367L69.5781 128.413L69.5889 128.745L69.9913 128.513V122.164L69.6532 122.493Z" fill="#453B36"/>
<path d="M69.4143 122.793L69.7926 122.575V128.449L69.5833 128.571L69.5914 128.905L70.1306 128.592V122.041L69.4062 122.462L69.4143 122.793Z" fill="#856644"/>
<path d="M75.375 118.994V125.545L75.6165 125.688L75.7104 125.351L75.9411 118.994L75.7238 118.838L75.375 118.994Z" fill="#CCA67C"/>
<path d="M75.6265 119.136V125.689L75.9646 125.492V118.602L70.3438 121.865L70.3491 122.199L75.6265 119.136Z" fill="white"/>
<path d="M67.4688 130.423L67.8068 130.226V123.675L70.3476 122.2L70.3422 121.865L67.4688 123.529V130.423Z" fill="white"/>
<path d="M76.1582 118.332L67.3635 124.111L66.7812 123.774V123.407L76.1582 117.965V118.332Z" fill="#5E4830"/>
<path d="M76.7364 118.672L67.3594 124.112V123.745L76.7364 118.303V118.672Z" fill="#5E4830"/>
<path d="M75.963 125.859L67.4688 130.789V130.422L75.963 125.492V125.859Z" fill="white"/>
<path d="M76.7405 118.302L67.3635 123.745L66.7812 123.407L76.1582 117.965L76.7405 118.302Z" fill="#CCA67C"/>
<path d="M75.6229 125.69L67.8047 130.226V129.943L75.3814 125.547L75.6229 125.69Z" fill="#CCA67C"/>
<path d="M87.8975 130.947L79.7734 135.662V129.307L87.8975 124.596V130.947Z" fill="#ACD3F2"/>
<path opacity="0.5" d="M82.2997 127.976L84.2448 126.824L82.8443 133.882L80.875 135.026L82.2997 127.976Z" fill="white"/>
<path opacity="0.5" d="M84.495 126.692L85.1308 126.287L83.7303 133.348L83.0703 133.742L84.495 126.692Z" fill="white"/>
<path d="M79.7734 129.453V135.659L87.4119 131.22V125.014L79.7734 129.453ZM87.0738 131.079L79.929 135.225V129.351L87.0738 125.205V131.079Z" fill="#453B36"/>
<path d="M79.7344 129.289V135.843L87.5526 131.304V124.75L79.7344 129.289ZM87.2172 131.161L80.0724 135.306V129.432L87.2172 125.287V131.161Z" fill="#856644"/>
<path d="M84.8407 126.505V132.382L84.7656 132.425L84.7737 132.757L85.1761 132.525V126.289L84.8407 126.505Z" fill="#453B36"/>
<path d="M84.5967 126.803L84.9723 126.585V132.459L84.763 132.583L84.7737 132.915L85.3103 132.605V126.051L84.5859 126.472L84.5967 126.803Z" fill="#856644"/>
<path d="M81.8251 128.251V134.125L81.75 134.168L81.7607 134.503L82.1632 134.268V127.922L81.8251 128.251Z" fill="#453B36"/>
<path d="M81.5862 128.55L81.9645 128.332V134.206L81.7552 134.327L81.7633 134.662L82.2998 134.349V127.795L81.5781 128.216L81.5862 128.55Z" fill="#856644"/>
<path d="M87.5469 124.749V131.303L87.791 131.443L87.8849 131.106L88.1157 124.749L87.8957 124.596L87.5469 124.749Z" fill="#CCA67C"/>
<path d="M87.7933 124.894V131.445L88.1313 131.251V124.357L82.5078 127.621L82.5159 127.955L87.7933 124.894Z" fill="white"/>
<path d="M79.6406 136.177L79.9787 135.983V129.429L82.5195 127.954L82.5114 127.619L79.6406 129.286V136.177Z" fill="white"/>
<path d="M88.3301 124.089L79.5353 129.869L78.9531 129.532V129.165L88.3301 123.723V124.089Z" fill="#5E4830"/>
<path d="M88.9056 124.427L79.5312 129.87V129.503L88.9056 124.061V124.427Z" fill="#5E4830"/>
<path d="M88.1349 131.617L79.6406 136.544V136.177L88.1349 131.25V131.617Z" fill="white"/>
<path d="M88.9096 124.06L79.5353 129.502L78.9531 129.165L88.3301 123.723L88.9096 124.06Z" fill="#CCA67C"/>
<path d="M87.7947 131.445L79.9766 135.984V135.701L87.5506 131.305L87.7947 131.445Z" fill="#CCA67C"/>
<path d="M75.7283 138.014L67.6016 142.725V136.374L75.7283 131.662V138.014Z" fill="#ACD3F2"/>
<path opacity="0.5" d="M70.1305 135.042L72.073 133.891L70.6724 140.949L68.7031 142.092L70.1305 135.042Z" fill="white"/>
<path opacity="0.5" d="M72.3258 133.758L72.9616 133.354L71.5584 140.414L70.8984 140.808L72.3258 133.758Z" fill="white"/>
<path d="M67.6016 136.519V142.725L75.24 138.286V132.08L67.6016 136.519ZM74.9019 138.146L67.7572 142.291V136.417L74.9019 132.272V138.146Z" fill="#453B36"/>
<path d="M67.5625 136.356V142.909L75.3807 138.37V131.816L67.5625 136.356ZM75.0453 138.227L67.9006 142.373V136.498L75.0453 132.353V138.227Z" fill="#856644"/>
<path d="M72.6689 133.571V139.445L72.5938 139.491L72.6018 139.823L73.0069 139.591V133.355L72.6689 133.571Z" fill="#453B36"/>
<path d="M72.4248 133.87L72.8031 133.651V139.525L72.5911 139.647L72.6019 139.981L73.1385 139.668V133.117L72.4141 133.538L72.4248 133.87Z" fill="#856644"/>
<path d="M69.6532 135.317V141.191L69.5781 141.235L69.5889 141.569L69.9913 141.334V134.988L69.6532 135.317Z" fill="#453B36"/>
<path d="M69.4143 135.616L69.7926 135.398V141.272L69.5833 141.394L69.5914 141.728L70.1306 141.415V134.861L69.4062 135.282L69.4143 135.616Z" fill="#856644"/>
<path d="M75.375 131.816V138.37L75.6165 138.51L75.7104 138.173L75.9411 131.816L75.7238 131.662L75.375 131.816Z" fill="#CCA67C"/>
<path d="M75.6265 131.958V138.512L75.9646 138.317V131.424L70.3438 134.687L70.3491 135.022L75.6265 131.958Z" fill="white"/>
<path d="M67.4688 143.243L67.8068 143.049V136.495L70.3476 135.02L70.3422 134.686L67.4688 136.352V143.243Z" fill="white"/>
<path d="M76.1582 131.156L67.3635 136.936L66.7812 136.598V136.232L76.1582 130.789V131.156Z" fill="#5E4830"/>
<path d="M76.7364 131.494L67.3594 136.936V136.57L76.7364 131.127V131.494Z" fill="#5E4830"/>
<path d="M75.963 138.683L67.4688 143.611V143.244L75.963 138.316V138.683Z" fill="white"/>
<path d="M76.7405 131.126L67.3635 136.569L66.7812 136.232L76.1582 130.789L76.7405 131.126Z" fill="#CCA67C"/>
<path d="M75.6229 138.511L67.8047 143.05V142.767L75.3814 138.371L75.6229 138.511Z" fill="#CCA67C"/>
<path d="M80.5725 129.141L80.5349 139.454L80.5242 142.051L80.4786 157.95L80.4705 160.553L80.1083 160.761L73.1648 164.82L64.6544 169.79L61.526 171.619L61.4375 171.67L61.4455 168.965L61.5341 140.26L64.6624 138.432L80.5725 129.141Z" fill="#E8CFB0"/>
<path d="M73.3177 147.337L64.2036 152.658L61.4509 154.268L61.4455 156.261L61.4375 158.967L61.526 158.915L64.6544 157.087L73.1648 152.119L80.1083 148.06L80.4705 147.849L80.4786 145.247L80.4839 143.148L73.3177 147.337Z" fill="#70594D"/>
<path d="M61.5338 140.261L61.4452 168.965L61.4372 171.671L45.672 162.522L45.5781 162.466L45.5862 159.868L45.6801 131.059L61.5338 140.261Z" fill="#C69C6D"/>
<path d="M45.6876 131.059L45.5937 159.868L45.5856 162.466L19.0885 177.949L19 178L19.008 175.298L19.0993 146.591L45.6876 131.059Z" fill="#E8CFB0"/>
<path d="M19.0894 146.59L18.9982 175.297L18.9902 178L1.68229 167.95L1.59375 167.899L1.69302 136.492L19.0894 146.59Z" fill="#C69C6D"/>
<g opacity="0.2">
<path d="M1.69034 139.784L1.59375 135.236L73.9 95.625L91.2991 102.834V107.7L66.4064 122.239L80.4813 129.869L80.5698 132.431L61.5341 143.554L45.6777 134.352L19.0894 149.884L1.69034 139.784Z" fill="#8C5D46"/>
</g>
<path opacity="0.5" d="M80.4838 157.951L80.4757 160.554L80.1135 160.761L73.17 164.821L64.6596 169.791L61.5312 171.62L61.5393 169.017L64.6676 167.189L80.4838 157.951Z" fill="white"/>
<path opacity="0.5" d="M61.5336 169.017L61.5256 171.619L61.437 171.671L45.6719 162.522L45.6799 159.814L61.4451 168.965L61.5336 169.017Z" fill="white"/>
<path opacity="0.5" d="M45.685 159.814L45.6769 162.522L45.583 162.466L19.0859 177.949L19.0967 175.349L45.5911 159.868L45.685 159.814Z" fill="white"/>
<path opacity="0.5" d="M19.0946 175.348L19.0839 177.948L18.9954 178L1.6875 167.95L1.69823 165.248L19.0034 175.297L19.0946 175.348Z" fill="white"/>
<path d="M0 136.494V132.743L73.9053 93.3203L93 100.651V104.402L66.4117 119.935L82.2681 125.388V129.137L61.5394 141.247L45.683 132.044L19.0947 147.577L0 136.494Z" fill="#453B36"/>
<path d="M0 132.744L73.9053 89.5703L93 100.652L66.4117 116.185L82.2681 125.39L61.5394 137.497L45.683 128.294L19.0947 143.829L0 132.744Z" fill="white"/>
<path d="M1.69531 132.741V130.184L73.9076 90.5566L91.304 98.0975V100.654L64.7157 116.187L80.5721 122.832V125.389L61.5391 136.509L45.6827 127.306L19.0944 142.839L1.69531 132.741Z" fill="#453B36"/>
<path d="M1.69531 130.184L73.9076 88L91.304 98.0977L64.7157 113.63L80.5721 122.832L61.5391 133.952L45.6827 124.75L19.0944 140.282L1.69531 130.184Z" fill="#E8CFB0"/>
<path d="M85.8607 98.8107L60.4797 113.636L61.6871 114.337L76.3361 122.839L75.1288 123.545L61.5368 131.483L45.6804 122.28L19.0921 137.815L7.14484 130.881L5.9375 130.18L73.9134 90.4688L87.068 98.1041L85.8607 98.8107Z" fill="white"/>
<path d="M60.4755 115.04L75.1245 123.544L61.5326 131.481L45.6762 122.279L19.0879 137.814L7.14062 130.879L73.9092 91.875L85.8565 98.8091L60.4755 113.635V115.04Z" fill="#453B36"/>
<path d="M76.2092 152.65V163.045L71.3906 165.863V155.436L76.2092 152.65Z" fill="white"/>
<path d="M71.875 165.571L71.8777 165.28V155.719L75.4729 153.637L75.7251 153.494V163.344L71.875 165.571Z" fill="#453B36"/>
<path d="M71.875 165.28V155.719L75.4702 153.637L75.4729 163.198L71.875 165.28Z" fill="#ACD3F2"/>
<path opacity="0.5" d="M75.379 153.883L74.1341 154.622L71.9609 165.181L73.9302 164.037L75.379 156.909V153.883Z" fill="white"/>
<path opacity="0.5" d="M75.3824 157.939L74.1562 163.897L74.8163 163.503L75.3824 160.717V157.939Z" fill="white"/>
<path d="M71.7586 160.311C71.6942 160.276 71.7801 160.092 71.8579 160.138L72.1235 160.292C72.263 160.373 72.3676 160.572 72.3676 160.753V161.786C72.3676 161.899 72.3247 161.988 72.2496 162.031C72.1825 162.069 72.0993 162.067 72.0215 162.021L71.7559 161.867C71.6915 161.829 71.7854 161.654 71.8552 161.694L72.1208 161.848C72.1369 161.859 72.1476 161.859 72.1503 161.859C72.153 161.856 72.1691 161.837 72.1691 161.786V160.753C72.1691 160.645 72.102 160.508 72.0215 160.465L71.7586 160.311Z" fill="white"/>
<path d="M71.8733 155.178V165.572L67.0547 168.388V157.961L71.8733 155.178Z" fill="white"/>
<path d="M67.5391 168.097V167.808V158.245L71.1369 156.165L71.3864 156.02V165.869L67.5391 168.097Z" fill="#453B36"/>
<path d="M67.5391 167.807V158.243L71.1369 156.164V165.722L67.5391 167.807Z" fill="#ACD3F2"/>
<path opacity="0.5" d="M71.0536 156.27L69.8087 157.006L67.6328 167.567L69.6021 166.424L71.0536 159.296V156.27Z" fill="white"/>
<path opacity="0.5" d="M71.0569 160.326L69.8281 166.284L70.4881 165.89L71.0569 163.101V160.326Z" fill="white"/>
<path d="M70.8445 160.701C70.7801 160.666 70.866 160.483 70.9438 160.529L71.2094 160.683C71.3489 160.763 71.4536 160.963 71.4536 161.146V162.179C71.4536 162.293 71.4106 162.382 71.3355 162.425C71.2685 162.463 71.1853 162.46 71.1075 162.414L70.8418 162.26C70.7775 162.223 70.8714 162.047 70.9411 162.088L71.2067 162.241C71.2228 162.252 71.2336 162.252 71.2362 162.252C71.2389 162.249 71.255 162.231 71.255 162.179V161.146C71.255 161.039 71.188 160.901 71.1075 160.858L70.8445 160.701Z" fill="white"/>
<path d="M42.8064 144.291L34.6797 149.005V142.651L42.8064 137.939V144.291Z" fill="#ACD3F2"/>
<path opacity="0.5" d="M37.2086 141.32L39.1511 140.168L37.7506 147.226L35.7812 148.37L37.2086 141.32Z" fill="white"/>
<path opacity="0.5" d="M39.4039 140.037L40.0398 139.635L38.6366 146.693L37.9766 147.087L39.4039 140.037Z" fill="white"/>
<path d="M34.6797 142.801V149.007L42.3181 144.567V138.361L34.6797 142.801ZM41.9801 144.424L34.8353 148.57V142.695L41.9801 138.55V144.424Z" fill="#453B36"/>
<path d="M34.6406 142.633V149.187L42.4588 144.648V138.094L34.6406 142.633ZM42.1234 144.505L34.9787 148.65V142.776L42.1234 138.63V144.505Z" fill="#856644"/>
<path d="M39.747 139.851V145.725L39.6719 145.768L39.6799 146.102L40.0851 145.868V139.635L39.747 139.851Z" fill="#453B36"/>
<path d="M39.5029 140.15L39.8812 139.929V145.805L39.6719 145.927L39.68 146.258L40.2166 145.948V139.395L39.4922 139.815L39.5029 140.15Z" fill="#856644"/>
<path d="M36.7314 141.595V147.469L36.6562 147.515L36.667 147.846L37.0694 147.612V141.266L36.7314 141.595Z" fill="#453B36"/>
<path d="M36.4924 141.895L36.8707 141.677V147.551L36.6614 147.672L36.6722 148.007L37.2088 147.694V141.143L36.4844 141.563L36.4924 141.895Z" fill="#856644"/>
<path d="M42.4531 138.093V144.647L42.6946 144.787L42.7885 144.45L43.0192 138.093L42.8019 137.939L42.4531 138.093Z" fill="#CCA67C"/>
<path d="M42.7047 138.237V144.788L43.0427 144.594V137.703L37.4219 140.964L37.4272 141.301L42.7047 138.237Z" fill="white"/>
<path d="M34.5469 149.523L34.8822 149.326V142.773L37.423 141.3L37.4177 140.963L34.5469 142.63V149.523Z" fill="white"/>
<path d="M43.2364 137.433L34.4416 143.213L33.8594 142.876V142.509L43.2364 137.066V137.433Z" fill="#5E4830"/>
<path d="M43.8145 137.771L34.4375 143.214V142.847L43.8145 137.404V137.771Z" fill="#5E4830"/>
<path d="M43.0385 144.961L34.5469 149.891V149.524L43.0385 144.594V144.961Z" fill="white"/>
<path d="M43.8186 137.404L34.4416 142.846L33.8594 142.509L43.2364 137.066L43.8186 137.404Z" fill="#CCA67C"/>
<path d="M42.701 144.789L34.8828 149.328V149.045L42.4595 144.648L42.701 144.789Z" fill="#CCA67C"/>
<path d="M30.6345 151.357L22.5078 156.072V149.718L30.6345 145.006V151.357Z" fill="#ACD3F2"/>
<path opacity="0.5" d="M25.0367 148.386L26.9819 147.234L25.5787 154.293L23.6094 155.436L25.0367 148.386Z" fill="white"/>
<path opacity="0.5" d="M27.232 147.103L27.8679 146.701L26.4674 153.759L25.8047 154.153L27.232 147.103Z" fill="white"/>
<path d="M22.5078 149.867V156.073L30.1462 151.634V145.428L22.5078 149.867ZM29.8109 151.491L22.6661 155.636V149.762L29.8109 145.617V151.491Z" fill="#453B36"/>
<path d="M22.4688 149.699V156.253L30.2869 151.714V145.16L22.4688 149.699ZM29.9489 151.571L22.8041 155.716V149.842L29.9489 145.697V151.571Z" fill="#856644"/>
<path d="M27.5751 146.914V152.791L27.5 152.834L27.5107 153.169L27.9132 152.934V146.701L27.5751 146.914Z" fill="#453B36"/>
<path d="M27.3362 147.216L27.7145 146.995V152.872L27.5052 152.993L27.5133 153.325L28.0525 153.015V146.461L27.3281 146.882L27.3362 147.216Z" fill="#856644"/>
<path d="M24.5622 148.661V154.535L24.4844 154.578L24.4951 154.913L24.8976 154.678V148.332L24.5622 148.661Z" fill="#453B36"/>
<path d="M24.3232 148.961L24.6988 148.743V154.617L24.4896 154.738L24.5003 155.073L25.0369 154.76V148.209L24.3125 148.627L24.3232 148.961Z" fill="#856644"/>
<path d="M30.2812 145.16V151.713L30.5254 151.854L30.6193 151.516L30.8474 145.16L30.63 145.006L30.2812 145.16Z" fill="#CCA67C"/>
<path d="M30.5355 145.304V151.855L30.8708 151.66V144.77L25.25 148.03L25.2554 148.367L30.5355 145.304Z" fill="white"/>
<path d="M22.375 156.587L22.7104 156.393V149.839L25.2511 148.366L25.2458 148.029L22.375 149.696V156.587Z" fill="white"/>
<path d="M31.0645 144.5L22.2697 150.279L21.6875 149.942V149.575L31.0645 144.133V144.5Z" fill="#5E4830"/>
<path d="M31.6426 144.837L22.2656 150.28V149.913L31.6426 144.471V144.837Z" fill="#5E4830"/>
<path d="M30.8666 152.027L22.375 156.957V156.588L30.8666 151.66V152.027Z" fill="white"/>
<path d="M31.6467 144.47L22.2697 149.913L21.6875 149.575L31.0645 144.133L31.6467 144.47Z" fill="#CCA67C"/>
<path d="M30.5318 151.855L22.7109 156.394V156.111L30.2877 151.715L30.5318 151.855Z" fill="#CCA67C"/>
<path d="M42.8064 157.116L34.6797 161.828V155.476L42.8064 150.762V157.116Z" fill="#ACD3F2"/>
<path opacity="0.5" d="M37.2086 154.141L39.1511 152.992L37.7506 160.05L35.7812 161.194L37.2086 154.141Z" fill="white"/>
<path opacity="0.5" d="M39.4039 152.86L40.0398 152.455L38.6366 159.516L37.9766 159.91L39.4039 152.86Z" fill="white"/>
<path d="M34.6797 155.621V161.827L42.3181 157.388V151.182L34.6797 155.621ZM41.9801 157.247L34.8353 161.393V155.518L41.9801 151.373V157.247Z" fill="#453B36"/>
<path d="M34.6406 155.457V162.011L42.4588 157.472V150.918L34.6406 155.457ZM42.1234 157.326L34.9787 161.471V155.597L42.1234 151.452V157.326Z" fill="#856644"/>
<path d="M39.747 152.673V158.547L39.6719 158.593L39.6799 158.925L40.0851 158.69V152.457L39.747 152.673Z" fill="#453B36"/>
<path d="M39.5029 152.971L39.8812 152.753V158.627L39.6719 158.748L39.68 159.083L40.2166 158.77V152.219L39.4922 152.639L39.5029 152.971Z" fill="#856644"/>
<path d="M36.7314 154.419V160.293L36.6562 160.336L36.667 160.671L37.0694 160.436V154.09L36.7314 154.419Z" fill="#453B36"/>
<path d="M36.4924 154.718L36.8707 154.497V160.374L36.6614 160.495L36.6722 160.827L37.2088 160.517V153.963L36.4844 154.384L36.4924 154.718Z" fill="#856644"/>
<path d="M42.4531 150.918V157.472L42.6946 157.612L42.7885 157.275L43.0192 150.918L42.8019 150.762L42.4531 150.918Z" fill="#CCA67C"/>
<path d="M42.7047 151.059V157.613L43.0427 157.416V150.525L37.4219 153.789L37.4272 154.123L42.7047 151.059Z" fill="white"/>
<path d="M34.5469 162.345L34.8822 162.148V155.597L37.423 154.122L37.4177 153.787L34.5469 155.454V162.345Z" fill="white"/>
<path d="M43.2364 150.257L34.4416 156.037L33.8594 155.7V155.331L43.2364 149.891V150.257Z" fill="#5E4830"/>
<path d="M43.8145 150.595L34.4375 156.038V155.671L43.8145 150.229V150.595Z" fill="#5E4830"/>
<path d="M43.0385 157.786L34.5469 162.713V162.346L43.0385 157.416V157.786Z" fill="white"/>
<path d="M43.8186 150.228L34.4416 155.67L33.8594 155.331L43.2364 149.891L43.8186 150.228Z" fill="#CCA67C"/>
<path d="M42.701 157.613L34.8828 162.149V161.869L42.4595 157.473L42.701 157.613Z" fill="#CCA67C"/>
<path d="M30.6345 164.182L22.5078 168.894V162.543L30.6345 157.828V164.182Z" fill="#ACD3F2"/>
<path opacity="0.5" d="M25.0367 161.208L26.9819 160.057L25.5787 167.117L23.6094 168.261L25.0367 161.208Z" fill="white"/>
<path opacity="0.5" d="M27.232 159.926L27.8679 159.521L26.4674 166.58L25.8047 166.976L27.232 159.926Z" fill="white"/>
<path d="M22.5078 162.687V168.893L30.1462 164.454V158.248L22.5078 162.687ZM29.8109 164.311L22.6661 168.459V162.585L29.8109 158.44V164.311Z" fill="#453B36"/>
<path d="M22.4688 162.522V169.075L30.2869 164.536V157.982L22.4688 162.522ZM29.9489 164.393L22.8041 168.539V162.664L29.9489 158.519V164.393Z" fill="#856644"/>
<path d="M27.5751 159.739V165.613L27.5 165.656L27.5107 165.991L27.9132 165.756V159.523L27.5751 159.739Z" fill="#453B36"/>
<path d="M27.3362 160.038L27.7145 159.819V165.693L27.5052 165.815L27.5133 166.149L28.0525 165.836V159.285L27.3281 159.703L27.3362 160.038Z" fill="#856644"/>
<path d="M24.5622 161.483V167.359L24.4844 167.403L24.4951 167.737L24.8976 167.502V161.156L24.5622 161.483Z" fill="#453B36"/>
<path d="M24.3232 161.784L24.6988 161.563V167.44L24.4896 167.562L24.5003 167.893L25.0369 167.583V161.029L24.3125 161.45L24.3232 161.784Z" fill="#856644"/>
<path d="M30.2812 157.985V164.536L30.5254 164.679L30.6193 164.341L30.8474 157.985L30.63 157.828L30.2812 157.985Z" fill="#CCA67C"/>
<path d="M30.5355 158.126V164.68L30.8708 164.483V157.592L25.25 160.855L25.2554 161.19L30.5355 158.126Z" fill="white"/>
<path d="M22.375 169.411L22.7104 169.214V162.663L25.2511 161.188L25.2458 160.854L22.375 162.52V169.411Z" fill="white"/>
<path d="M31.0645 157.324L22.2697 163.104L21.6875 162.764V162.397L31.0645 156.957V157.324Z" fill="#5E4830"/>
<path d="M31.6426 157.662L22.2656 163.104V162.735L31.6426 157.295V157.662Z" fill="#5E4830"/>
<path d="M30.8666 164.849L22.375 169.779V169.413L30.8666 164.482V164.849Z" fill="white"/>
<path d="M31.6467 157.294L22.2697 162.734L21.6875 162.397L31.0645 156.957L31.6467 157.294Z" fill="#CCA67C"/>
<path d="M30.5318 164.678L22.7109 169.215V168.934L30.2877 164.535L30.5318 164.678Z" fill="#CCA67C"/>
<path d="M6.0625 151.357L14.1892 156.072V149.718L6.0625 145.006V151.357Z" fill="#ACD3F2"/>
<path opacity="0.5" d="M11.6561 148.386L9.71094 147.234L11.1141 154.293L13.0834 155.436L11.6561 148.386Z" fill="white"/>
<path opacity="0.5" d="M9.46399 147.103L8.82812 146.701L10.2313 153.759L10.8913 154.153L9.46399 147.103Z" fill="white"/>
<path d="M6.54688 145.428V151.634L14.1853 156.073V149.867L6.54688 145.428ZM6.88493 145.617L14.027 149.762V155.636L6.88225 151.491V145.617H6.88493Z" fill="#453B36"/>
<path d="M6.40625 145.16V151.714L14.2244 156.253V149.699L6.40625 145.16ZM6.74431 145.697L13.8891 149.842V155.716L6.74431 151.571V145.697Z" fill="#856644"/>
<path d="M9.11931 146.914V152.791L9.19443 152.834L9.1837 153.169L8.78125 152.934V146.701L9.11931 146.914Z" fill="#453B36"/>
<path d="M9.35698 147.216L8.97868 146.995V152.872L9.18795 152.993L9.1799 153.325L8.64062 153.015V146.461L9.36503 146.882L9.35698 147.216Z" fill="#856644"/>
<path d="M12.1244 148.661V154.535L12.2022 154.578L12.1915 154.913L11.7891 154.678V148.332L12.1244 148.661Z" fill="#453B36"/>
<path d="M12.3699 148.961L11.9943 148.743V154.617L12.2036 154.738L12.1928 155.073L11.6562 154.76V148.209L12.3807 148.627L12.3699 148.961Z" fill="#856644"/>
<path d="M6.40986 145.16V151.713L6.16571 151.854L6.0718 151.516L5.84375 145.16L6.06107 145.006L6.40986 145.16Z" fill="#CCA67C"/>
<path d="M6.1635 145.304V151.855L5.82812 151.66V144.77L11.449 148.03L11.4436 148.367L6.1635 145.304Z" fill="white"/>
<path d="M14.3137 156.587L13.9783 156.393V149.839L11.4375 148.366L11.4429 148.029L14.3137 149.696V156.587Z" fill="white"/>
<path d="M5.63281 144.5L14.4276 150.279L15.0098 149.942V149.575L5.63281 144.133V144.5Z" fill="#5E4830"/>
<path d="M5.04688 144.837L14.4239 150.28V149.913L5.04688 144.471V144.837Z" fill="#5E4830"/>
<path d="M5.82812 152.027L14.3197 156.957V156.588L5.82812 151.66V152.027Z" fill="white"/>
<path d="M5.04688 144.47L14.4239 149.913L15.0061 149.575L5.62908 144.133L5.04688 144.47Z" fill="#CCA67C"/>
<path d="M6.16406 151.855L13.9849 156.394V156.111L6.40821 151.715L6.16406 151.855Z" fill="#CCA67C"/>
<path d="M6.05469 164.182L14.1814 168.894V162.543L6.05469 157.828V164.182Z" fill="#ACD3F2"/>
<path opacity="0.5" d="M11.6561 161.208L9.71094 160.057L11.1141 167.117L13.0834 168.261L11.6561 161.208Z" fill="white"/>
<path opacity="0.5" d="M9.46399 159.926L8.82812 159.521L10.2313 166.58L10.8913 166.976L9.46399 159.926Z" fill="white"/>
<path d="M6.54688 158.248V164.454L14.1853 168.893V162.687L6.54688 158.248ZM6.88493 158.437L14.0297 162.582V168.456L6.88493 164.311V158.437Z" fill="#453B36"/>
<path d="M6.40625 157.984V164.538L14.2244 169.077V162.523L6.40625 157.984ZM6.74431 158.518L13.8891 162.664V168.538L6.74431 164.393V158.518Z" fill="#856644"/>
<path d="M9.11931 159.739V165.613L9.19443 165.656L9.1837 165.991L8.78125 165.756V159.523L9.11931 159.739Z" fill="#453B36"/>
<path d="M9.35698 160.038L8.97868 159.819V165.693L9.18795 165.815L9.1799 166.149L8.64062 165.836V159.285L9.36503 159.703L9.35698 160.038Z" fill="#856644"/>
<path d="M12.1244 161.483V167.359L12.2022 167.403L12.1915 167.737L11.7891 167.502V161.156L12.1244 161.483Z" fill="#453B36"/>
<path d="M12.3699 161.784L11.9943 161.563V167.44L12.2036 167.562L12.1928 167.893L11.6562 167.583V161.029L12.3807 161.45L12.3699 161.784Z" fill="#856644"/>
<path d="M6.40986 157.985V164.536L6.16571 164.679L6.0718 164.341L5.84375 157.985L6.06107 157.828L6.40986 157.985Z" fill="#CCA67C"/>
<path d="M6.1635 158.126V164.68L5.82812 164.483V157.592L11.449 160.855L11.4436 161.19L6.1635 158.126Z" fill="white"/>
<path d="M14.3137 169.411L13.9783 169.214V162.663L11.4375 161.188L11.4429 160.854L14.3137 162.52V169.411Z" fill="white"/>
<path d="M5.63281 157.324L14.4276 163.104L15.0098 162.764V162.397L5.63281 156.957V157.324Z" fill="#5E4830"/>
<path d="M5.04688 157.662L14.4239 163.104V162.735L5.04688 157.295V157.662Z" fill="#5E4830"/>
<path d="M5.82812 164.849L14.3197 169.779V169.413L5.82812 164.482V164.849Z" fill="white"/>
<path d="M5.04688 157.294L14.4239 162.734L15.0061 162.397L5.62908 156.957L5.04688 157.294Z" fill="#CCA67C"/>
<path d="M6.16406 164.678L13.9849 169.215V168.934L6.40821 164.535L6.16406 164.678Z" fill="#CCA67C"/>
<path d="M49.6328 144.684L57.7595 149.396V143.044L49.6328 138.33V144.684Z" fill="#ACD3F2"/>
<path opacity="0.5" d="M55.2315 141.71L53.2891 140.559L54.6896 147.619L56.6589 148.763L55.2315 141.71Z" fill="white"/>
<path opacity="0.5" d="M53.0394 140.425L52.4062 140.023L53.8068 147.082L54.4668 147.478L53.0394 140.425Z" fill="white"/>
<path d="M50.125 138.75V144.956L57.7634 149.395V143.189L50.125 138.75ZM50.4631 138.939L57.6078 143.084V148.958L50.4631 144.813V138.939Z" fill="#453B36"/>
<path d="M49.9844 138.486V145.04L57.8026 149.579V143.025L49.9844 138.486ZM50.3224 139.02L57.4672 143.166V149.04L50.3224 144.894V139.02Z" fill="#856644"/>
<path d="M52.7026 140.241V146.115L52.7777 146.158L52.7696 146.493L52.3672 146.258V140.025L52.7026 140.241Z" fill="#453B36"/>
<path d="M52.9402 140.54L52.5619 140.321V146.195L52.7739 146.317L52.7632 146.651L52.2266 146.338V139.787L52.951 140.205L52.9402 140.54Z" fill="#856644"/>
<path d="M55.7131 141.985V147.861L55.7882 147.905L55.7774 148.239L55.375 148.004V141.658L55.7131 141.985Z" fill="#453B36"/>
<path d="M55.9507 142.286L55.5724 142.065V147.942L55.7817 148.063L55.7737 148.395L55.2344 148.085V141.531L55.9588 141.952L55.9507 142.286Z" fill="#856644"/>
<path d="M49.988 138.487V145.038L49.7465 145.181L49.6526 144.843L49.4219 138.487L49.6392 138.33L49.988 138.487Z" fill="#CCA67C"/>
<path d="M49.7443 138.628V145.182L49.4062 144.985V138.094L55.0271 141.357L55.0217 141.692L49.7443 138.628Z" fill="white"/>
<path d="M57.8945 149.913L57.5564 149.716V143.165L55.0156 141.69L55.021 141.355L57.8945 143.022V149.913Z" fill="white"/>
<path d="M49.2109 137.826L58.0057 143.606L58.5879 143.266V142.899L49.2109 137.459V137.826Z" fill="#5E4830"/>
<path d="M48.625 138.164L58.002 143.606V143.237L48.625 137.797V138.164Z" fill="#5E4830"/>
<path d="M49.4062 145.351L57.9006 150.281V149.915L49.4062 144.984V145.351Z" fill="white"/>
<path d="M48.625 137.796L58.002 143.236L58.5842 142.899L49.2072 137.459L48.625 137.796Z" fill="#CCA67C"/>
<path d="M49.7422 145.18L57.5604 149.716V149.436L49.9837 145.037L49.7422 145.18Z" fill="#CCA67C"/>
<path d="M75.1424 143.837L67.0156 148.548V142.197L75.1424 137.482V143.837Z" fill="#ACD3F2"/>
<path opacity="0.5" d="M69.5445 140.862L71.487 139.713L70.0865 146.771L68.1172 147.915L69.5445 140.862Z" fill="white"/>
<path opacity="0.5" d="M71.7398 139.58L72.3757 139.176L70.9725 146.237L70.3125 146.63L71.7398 139.58Z" fill="white"/>
<path d="M67.0156 142.342V148.548L74.6541 144.108V137.902L67.0156 142.342ZM74.316 143.968L67.1712 148.113V142.239L74.316 138.091V143.968Z" fill="#453B36"/>
<path d="M66.9766 142.178V148.732L74.7948 144.192V137.639L66.9766 142.178ZM74.4567 144.047L67.3119 148.192V142.318L74.4567 138.173V144.047Z" fill="#856644"/>
<path d="M72.0751 139.393V145.268L72 145.313L72.0107 145.645L72.4132 145.411V139.178L72.0751 139.393Z" fill="#453B36"/>
<path d="M71.8362 139.692L72.2145 139.473V145.348L72.0052 145.469L72.0133 145.803L72.5498 145.491V138.939L71.8281 139.36L71.8362 139.692Z" fill="#856644"/>
<path d="M69.07 141.14V147.014L68.9922 147.057L69.0029 147.391L69.4054 147.157V140.811L69.07 141.14Z" fill="#453B36"/>
<path d="M68.831 141.439L69.2067 141.218V147.094L68.9974 147.216L69.0081 147.548L69.5447 147.237V140.684L68.8203 141.104L68.831 141.439Z" fill="#856644"/>
<path d="M74.7969 137.639V144.193L75.041 144.333L75.1349 143.996L75.363 137.639L75.1457 137.482L74.7969 137.639Z" fill="#CCA67C"/>
<path d="M75.0355 137.78V144.334L75.3708 144.137V137.246L69.75 140.51L69.7554 140.844L75.0355 137.78Z" fill="white"/>
<path d="M66.8828 149.065L67.2182 148.869V142.318L69.759 140.842L69.7536 140.508L66.8828 142.175V149.065Z" fill="white"/>
<path d="M75.5723 136.978L66.7775 142.758L66.1953 142.421V142.051L75.5723 136.611V136.978Z" fill="#5E4830"/>
<path d="M76.1583 137.316L66.7812 142.759V142.392L76.1583 136.949V137.316Z" fill="#5E4830"/>
<path d="M75.3744 144.506L66.8828 149.434V149.067L75.3744 144.137V144.506Z" fill="white"/>
<path d="M76.1545 136.948L66.7775 142.391L66.1953 142.051L75.5723 136.611L76.1545 136.948Z" fill="#CCA67C"/>
<path d="M75.0396 144.334L67.2188 148.87V148.59L74.7955 144.193L75.0396 144.334Z" fill="#CCA67C"/>
<path d="M49.6406 157.504L57.7674 162.218V155.864L49.6406 151.152V157.504Z" fill="#ACD3F2"/>
<path opacity="0.5" d="M55.2315 154.532L53.2891 153.381L54.6896 160.439L56.6589 161.583L55.2315 154.532Z" fill="white"/>
<path opacity="0.5" d="M53.0394 153.25L52.4062 152.848L53.8068 159.906L54.4668 160.3L53.0394 153.25Z" fill="white"/>
<path d="M50.125 151.574V157.78L57.7634 162.219V156.014L50.125 151.574ZM50.4631 151.763L57.6078 155.908V161.782L50.4631 157.637V151.763Z" fill="#453B36"/>
<path d="M49.9844 151.307V157.86L57.8026 162.4V155.846L49.9844 151.307ZM50.3224 151.843L57.4672 155.989V161.863L50.3224 157.717V151.843Z" fill="#856644"/>
<path d="M52.7026 153.061V158.938L52.7777 158.981L52.7696 159.315L52.3672 159.08V152.848L52.7026 153.061Z" fill="#453B36"/>
<path d="M52.9402 153.363L52.5619 153.141V159.018L52.7739 159.14L52.7632 159.471L52.2266 159.161V152.607L52.951 153.028L52.9402 153.363Z" fill="#856644"/>
<path d="M55.7131 154.808V160.682L55.7882 160.725L55.7774 161.059L55.375 160.825V154.479L55.7131 154.808Z" fill="#453B36"/>
<path d="M55.9507 155.108L55.5724 154.889V160.764L55.7817 160.885L55.7737 161.219L55.2344 160.907V154.355L55.9588 154.774L55.9507 155.108Z" fill="#856644"/>
<path d="M49.988 151.306V157.86L49.7465 158L49.6526 157.663L49.4219 151.306L49.6392 151.152L49.988 151.306Z" fill="#CCA67C"/>
<path d="M49.7443 151.451V158.002L49.4062 157.808V150.914L55.0271 154.177L55.0217 154.515L49.7443 151.451Z" fill="white"/>
<path d="M57.8945 162.733L57.5564 162.539V155.985L55.0156 154.513L55.021 154.176L57.8945 155.843V162.733Z" fill="white"/>
<path d="M49.2109 150.646L58.0057 156.426L58.5879 156.089V155.722L49.2109 150.279V150.646Z" fill="#5E4830"/>
<path d="M48.625 150.984L58.002 156.427V156.06L48.625 150.617V150.984Z" fill="#5E4830"/>
<path d="M49.4062 158.173L57.9006 163.104V162.734L49.4062 157.807V158.173Z" fill="white"/>
<path d="M48.625 150.616L58.002 156.059L58.5842 155.722L49.2072 150.279L48.625 150.616Z" fill="#CCA67C"/>
<path d="M49.7422 158.002L57.5604 162.541V162.257L49.9837 157.861L49.7422 158.002Z" fill="#CCA67C"/>
<path d="M75.6739 150.962L70.0906 158.606L66.2969 156.405V156.036L75.6739 150.596V150.962Z" fill="#5E4830"/>
<path d="M79.4708 153.166L70.0938 158.606V158.239L79.4708 152.797V153.166Z" fill="#5E4830"/>
<path d="M79.4676 152.796L70.0906 158.239L66.2969 156.036L75.6739 150.596L79.4676 152.796Z" fill="#CCA67C"/>
<path d="M17.7387 126.719L14.5781 128.555V130.573L20.2553 131.849L23.4185 132.035V130.015L17.7387 126.719Z" fill="white"/>
<path d="M14.5781 128.555V130.572L20.2553 133.868V131.848L14.5781 128.555Z" fill="#C69C6D"/>
<path d="M20.25 131.848V133.868L23.4132 132.034V130.014L20.25 131.848Z" fill="#E8CFB0"/>
<path d="M18.8368 127.94C19.4217 128.28 19.4217 128.83 18.8368 129.168C18.2519 129.507 17.3048 129.507 16.7199 129.168C16.135 128.828 16.135 128.278 16.7199 127.94C17.3048 127.601 18.2519 127.601 18.8368 127.94Z" fill="#453B36"/>
<path d="M31.973 118.455L28.8125 120.289V122.309L34.4897 123.585L37.6529 123.768V121.748L31.973 118.455Z" fill="white"/>
<path d="M28.8125 120.289V122.309L34.4897 125.605V123.585L28.8125 120.289Z" fill="#C69C6D"/>
<path d="M34.4844 123.585V125.605L37.6476 123.768V121.748L34.4844 123.585Z" fill="#E8CFB0"/>
<path d="M33.0712 119.675C33.656 120.015 33.656 120.565 33.0712 120.902C32.4863 121.242 31.5392 121.242 30.9543 120.902C30.3694 120.562 30.3694 120.012 30.9543 119.675C31.5392 119.338 32.4863 119.338 33.0712 119.675Z" fill="#453B36"/>
<path d="M62.0209 118.965L65.1842 120.802V122.822L59.507 124.097L56.3438 124.281V122.261L62.0209 118.965Z" fill="white"/>
<path d="M65.185 120.801V122.821L59.5078 126.114V124.097L65.185 120.801Z" fill="#C69C6D"/>
<path d="M59.507 124.096V126.114L56.3438 124.28V122.26L59.507 124.096Z" fill="#E8CFB0"/>
<path d="M60.923 120.187C60.3382 120.526 60.3382 121.077 60.923 121.414C61.5079 121.753 62.455 121.753 63.0399 121.414C63.6248 121.074 63.6248 120.524 63.0399 120.187C62.455 119.847 61.5079 119.847 60.923 120.187Z" fill="#453B36"/>
<path d="M58.8898 102.834L55.7266 104.671V106.691L61.4037 107.966L64.567 108.15V106.13L58.8898 102.834Z" fill="white"/>
<path d="M55.7266 104.67V106.69L61.4037 109.983V107.966L55.7266 104.67Z" fill="#C69C6D"/>
<path d="M61.4062 107.966V109.983L64.5695 108.149V106.129L61.4062 107.966Z" fill="#E8CFB0"/>
<path d="M59.993 104.056C60.5779 104.395 60.5779 104.946 59.993 105.283C59.4081 105.623 58.4611 105.623 57.8762 105.283C57.2913 104.943 57.2913 104.393 57.8762 104.056C58.4611 103.718 59.4081 103.718 59.993 104.056Z" fill="#453B36"/>
<path d="M73.132 94.5703L69.9688 96.4043V98.4244L75.6459 99.7001L78.8092 99.8835V97.8661L73.132 94.5703Z" fill="white"/>
<path d="M69.9688 96.4043V98.4244L75.6459 101.72V99.7001L69.9688 96.4043Z" fill="#C69C6D"/>
<path d="M75.6406 99.6992V101.719L78.8038 99.8826V97.8652L75.6406 99.6992Z" fill="#E8CFB0"/>
<path d="M74.2274 95.792C74.8123 96.1318 74.8123 96.682 74.2274 97.0191C73.6425 97.359 72.6954 97.359 72.1105 97.0191C71.5257 96.6793 71.5257 96.1291 72.1105 95.792C72.6954 95.4522 73.6425 95.4522 74.2274 95.792Z" fill="#453B36"/>
<path d="M78.4031 147.863L78.0006 147.629L77.3809 147.988L77.3755 146.051L76.9731 145.816L76.3909 146.154L76.3962 147.764C76.3479 147.464 76.2272 147.249 76.0367 147.146C76.0555 147.154 75.653 146.919 75.653 146.919C75.4465 146.798 75.1567 146.82 74.7918 147.033C74.1157 147.424 73.6569 148.222 73.5657 149.02C73.5013 148.891 73.4154 148.791 73.3028 148.732C73.3215 148.74 72.9191 148.505 72.9191 148.505C72.7152 148.387 72.4254 148.406 72.0605 148.619C71.3549 149.029 70.8881 149.875 70.8264 150.709L70.8237 149.857L70.4212 149.622L69.8417 149.959L69.8444 151.1L69.2917 151.421L69.289 150.749L68.8866 150.515L68.3044 150.854L68.3071 151.348L67.9556 151.143C67.8536 151.14 67.6229 151.202 67.3224 151.378C66.5443 151.831 65.9192 152.756 65.9219 153.77C65.9219 154.193 66.0399 154.501 66.268 154.633L66.6704 154.868C66.8958 155 67.2312 154.965 67.6739 154.709C67.9878 154.528 68.2266 154.32 68.3339 154.196L68.2453 153.724L67.8429 153.489C67.7302 153.608 67.5344 153.767 67.3573 153.867C67.2231 153.945 67.1051 153.986 67.0031 153.999C66.9602 153.899 66.9361 153.77 66.9361 153.611C66.9334 152.95 67.2929 152.421 67.7517 152.154C67.9583 152.036 68.1219 151.993 68.24 151.982L68.3071 151.639L68.3124 153.827L68.7149 154.061L69.2971 153.721L69.2944 152.481L69.8471 152.16L69.8498 152.931L70.2522 153.166L70.8317 152.829L70.8264 151.127C70.8639 151.464 70.9847 151.707 71.1805 151.823L71.583 152.057C71.5749 152.052 71.5696 152.047 71.5615 152.041C71.7681 152.176 72.0605 152.16 72.4281 151.947C73.1015 151.556 73.5764 150.801 73.6676 149.948C73.7293 150.075 73.8098 150.172 73.9118 150.234L74.3142 150.469C74.3062 150.463 74.3008 150.458 74.2928 150.453C74.4994 150.587 74.7918 150.571 75.1594 150.358C75.8221 149.973 76.297 149.236 76.3962 148.397L76.3989 149.12L76.8014 149.355L78.4058 148.424L78.4031 147.863ZM72.0471 151.162C71.9935 151.192 71.9452 151.21 71.8969 151.224C71.8513 151.108 71.8244 150.957 71.8218 150.771C71.8191 150.194 72.0471 149.63 72.4415 149.403C72.4925 149.374 72.5381 149.355 72.5837 149.341C72.6347 149.463 72.6615 149.617 72.6615 149.797C72.6642 150.372 72.4388 150.933 72.0471 151.162ZM74.7811 149.573C74.7274 149.606 74.6791 149.622 74.6308 149.635C74.5852 149.519 74.5584 149.368 74.5557 149.182C74.553 148.605 74.7811 148.041 75.1755 147.815C75.2264 147.785 75.2721 147.766 75.3177 147.753C75.3686 147.874 75.3955 148.028 75.3955 148.209C75.3982 148.786 75.1728 149.347 74.7811 149.573Z" fill="#453B36"/>
<path d="M65.8016 154.259C65.815 154.264 65.8284 154.267 65.8392 154.275L65.4367 154.04C65.3267 153.976 65.1684 153.962 64.9618 153.995C64.9404 153.997 64.9216 154 64.9028 154.003C64.9377 153.865 65.0531 153.706 65.2623 153.585C65.5119 153.439 65.697 153.417 65.8016 153.415L65.9304 152.797L65.528 152.562C65.375 152.573 65.1631 152.625 64.8706 152.794C64.2643 153.145 63.8994 153.746 63.8994 154.254C63.8994 154.469 63.9691 154.604 64.0926 154.677L64.495 154.912C64.4735 154.898 64.4548 154.882 64.436 154.866C64.5594 154.979 64.7579 155.001 65.0075 154.957C64.9967 155.127 64.8679 155.311 64.6292 155.448C64.3796 155.594 64.1409 155.64 63.9826 155.637L63.8672 156.26L64.2696 156.495C64.4145 156.503 64.7043 156.425 64.9967 156.255C65.7023 155.845 66.0324 155.23 66.0297 154.731C66.0324 154.48 65.9572 154.329 65.8016 154.259Z" fill="#453B36"/>
<path d="M77.3635 146.051L77.3715 148.457L78.3937 147.863V148.427L76.7893 149.36L76.7812 146.391L77.3635 146.051Z" fill="white"/>
<path d="M75.1824 147.271C75.9712 146.812 76.4059 147.244 76.4086 148.064C76.4113 149.037 75.9015 149.925 75.1503 150.362C74.3883 150.804 73.9402 150.397 73.9375 149.55C73.9322 148.662 74.4232 147.713 75.1824 147.271ZM75.1771 149.811C75.5715 149.582 75.7942 149.021 75.7915 148.444C75.7888 147.91 75.5661 147.581 75.1664 147.816C74.772 148.045 74.5466 148.609 74.5466 149.183C74.552 149.763 74.7881 150.038 75.1771 149.811Z" fill="white"/>
<path d="M72.4507 148.859C73.2395 148.4 73.6715 148.832 73.6742 149.652C73.6768 150.625 73.1698 151.513 72.4158 151.949C71.6539 152.392 71.2058 151.985 71.2031 151.138C71.2005 150.25 71.6914 149.298 72.4507 148.859ZM72.4454 151.397C72.8398 151.167 73.0624 150.606 73.0598 150.029C73.0571 149.495 72.8371 149.166 72.4346 149.401C72.0402 149.63 71.8149 150.194 71.8149 150.768C71.8202 151.351 72.0563 151.623 72.4454 151.397Z" fill="white"/>
<path d="M70.8071 149.859L70.8151 152.829L70.2356 153.163L70.2302 151.923L69.2751 152.478L69.2778 153.719L68.6955 154.059L68.6875 151.089L69.2697 150.749L69.2724 151.89L70.2302 151.335L70.2275 150.194L70.8071 149.859Z" fill="white"/>
<path d="M67.7104 151.61C68.0109 151.434 68.2416 151.375 68.3435 151.375L68.2255 151.976C68.1074 151.987 67.9438 152.03 67.7372 152.149C67.2757 152.416 66.9189 152.945 66.9216 153.605C66.9243 154.201 67.2301 154.398 67.7479 154.096C67.9223 153.994 68.1182 153.837 68.2335 153.719L68.3221 154.191C68.2174 154.315 67.976 154.522 67.6621 154.703C66.774 155.218 66.3152 154.843 66.3125 153.999C66.3072 152.991 66.9323 152.063 67.7104 151.61Z" fill="white"/>
<path d="M65.274 153.025C65.5637 152.855 65.7757 152.804 65.9313 152.793L65.8025 153.411C65.7005 153.413 65.5154 153.435 65.2659 153.581C65.0137 153.726 64.8903 153.928 64.893 154.082C64.893 154.271 65.0405 154.271 65.3705 154.225C65.824 154.155 66.0386 154.303 66.0413 154.724C66.044 155.22 65.714 155.838 65.0083 156.248C64.7132 156.418 64.4261 156.499 64.2812 156.488L64.3966 155.865C64.5549 155.868 64.7937 155.822 65.0432 155.676C65.3115 155.522 65.451 155.309 65.451 155.118C65.451 154.932 65.3276 154.897 65.0191 154.951C64.5925 155.023 64.3108 154.916 64.3108 154.484C64.3 153.977 64.6676 153.376 65.274 153.025Z" fill="white"/>
<path d="M75.4755 163.199L75.7251 163.345L71.875 165.581L71.8777 165.281L75.4755 163.199Z" fill="#736357"/>
<path d="M67.5469 167.807L71.1447 165.723L71.3943 165.868L67.5469 168.107V167.807Z" fill="#736357"/>
</g>
<path d="M122.6 123.006L148.5 78H192L125.498 125.63C123.75 126.882 121.528 124.87 122.6 123.006Z" fill="#006DB7"/>
<rect x="138" width="319" height="92" rx="16" fill="#006DB7"/>
<rect x="153.048" y="25.0476" width="41.9048" height="41.9048" rx="20.9524" fill="#81C995"/>
<rect x="153.048" y="25.0476" width="41.9048" height="41.9048" rx="20.9524" stroke="white" stroke-width="2.09524"/>
<g clip-path="url(#clip1_176_109084)">
<path d="M184.058 39.231L176.684 35.718C175.06 34.7484 173.04 34.7312 171.401 35.673L163.944 39.231C163.916 39.245 163.887 39.26 163.86 39.276C162.09 40.2878 161.476 42.5426 162.487 44.3123C162.83 44.9122 163.335 45.4037 163.944 45.731L166.001 46.711V51.611C166.002 53.802 167.427 55.7378 169.52 56.389C170.975 56.8102 172.485 57.0164 174.001 57.001C175.516 57.018 177.025 56.8135 178.482 56.394C180.574 55.7429 181.999 53.8071 182.001 51.616V46.709L184.001 45.753V54.0009C184.001 54.5532 184.448 55.0009 185.001 55.0009C185.553 55.0009 186.001 54.5532 186.001 54.0009V42.0009C186.007 40.8267 185.08 39.7419 184.058 39.231ZM180.001 51.616C180.001 52.9266 179.151 54.0858 177.901 54.479C176.633 54.8412 175.319 55.017 174.001 55.001C172.682 55.017 171.368 54.8412 170.101 54.479C168.85 54.0858 168 52.9266 168.001 51.616V47.664L171.318 49.244C172.136 49.73 173.071 49.9854 174.023 49.983C174.929 49.9894 175.819 49.7496 176.6 49.289L180.001 47.664V51.616ZM183.201 43.926L175.659 47.526C174.607 48.1383 173.304 48.1209 172.269 47.481L164.89 43.971C164.067 43.5274 163.76 42.5011 164.203 41.6786C164.353 41.4005 164.578 41.1699 164.853 41.013L172.348 37.433C173.399 36.822 174.702 36.8393 175.738 37.478L183.112 40.991C183.654 41.2921 183.993 41.8607 184.001 42.481C184.002 43.0685 183.699 43.6149 183.201 43.926Z" fill="#81C995"/>
<path d="M184.058 39.231L176.684 35.718C175.06 34.7484 173.04 34.7312 171.401 35.673L163.944 39.231C163.916 39.245 163.887 39.26 163.86 39.276C162.09 40.2878 161.476 42.5426 162.487 44.3123C162.83 44.9122 163.335 45.4037 163.944 45.731L166.001 46.711V51.611C166.002 53.802 167.427 55.7378 169.52 56.389C170.975 56.8102 172.485 57.0164 174.001 57.001C175.516 57.018 177.025 56.8135 178.482 56.394C180.574 55.7429 181.999 53.8071 182.001 51.616V46.709L184.001 45.753V54.0009C184.001 54.5532 184.448 55.0009 185.001 55.0009C185.553 55.0009 186.001 54.5532 186.001 54.0009V42.0009C186.007 40.8267 185.08 39.7419 184.058 39.231ZM180.001 51.616C180.001 52.9266 179.151 54.0858 177.901 54.479C176.633 54.8412 175.319 55.017 174.001 55.001C172.682 55.017 171.368 54.8412 170.101 54.479C168.85 54.0858 168 52.9266 168.001 51.616V47.664L171.318 49.244C172.136 49.73 173.071 49.9854 174.023 49.983C174.929 49.9894 175.819 49.7496 176.6 49.289L180.001 47.664V51.616ZM183.201 43.926L175.659 47.526C174.607 48.1383 173.304 48.1209 172.269 47.481L164.89 43.971C164.067 43.5274 163.76 42.5011 164.203 41.6786C164.353 41.4005 164.578 41.1699 164.853 41.013L172.348 37.433C173.399 36.822 174.702 36.8393 175.738 37.478L183.112 40.991C183.654 41.2921 183.993 41.8607 184.001 42.481C184.002 43.0685 183.699 43.6149 183.201 43.926Z" fill="black" fill-opacity="0.5"/>
</g>
<path d="M226.662 42.9347H223.474C223.384 42.4119 223.216 41.9489 222.972 41.5455C222.727 41.1364 222.423 40.7898 222.06 40.5057C221.696 40.2216 221.281 40.0085 220.815 39.8665C220.355 39.7188 219.858 39.6449 219.324 39.6449C218.375 39.6449 217.534 39.8835 216.801 40.3608C216.068 40.8324 215.494 41.5256 215.08 42.4403C214.665 43.3494 214.457 44.4602 214.457 45.7727C214.457 47.108 214.665 48.233 215.08 49.1477C215.5 50.0568 216.074 50.7443 216.801 51.2102C217.534 51.6705 218.372 51.9006 219.315 51.9006C219.838 51.9006 220.327 51.8324 220.781 51.696C221.241 51.554 221.653 51.3466 222.017 51.0739C222.386 50.8011 222.696 50.4659 222.946 50.0682C223.202 49.6705 223.378 49.2159 223.474 48.7045L226.662 48.7216C226.543 49.5511 226.284 50.3295 225.886 51.0568C225.494 51.7841 224.98 52.4261 224.344 52.983C223.707 53.5341 222.963 53.9659 222.111 54.2784C221.259 54.5852 220.313 54.7386 219.273 54.7386C217.739 54.7386 216.369 54.3835 215.165 53.6733C213.96 52.9631 213.011 51.9375 212.318 50.5966C211.625 49.2557 211.278 47.6477 211.278 45.7727C211.278 43.892 211.628 42.2841 212.327 40.9489C213.026 39.608 213.977 38.5824 215.182 37.8722C216.386 37.1619 217.75 36.8068 219.273 36.8068C220.244 36.8068 221.148 36.9432 221.983 37.2159C222.818 37.4886 223.563 37.8892 224.216 38.4176C224.869 38.9403 225.406 39.5824 225.827 40.3438C226.253 41.0994 226.531 41.9631 226.662 42.9347ZM235.131 54.7557C233.853 54.7557 232.745 54.4744 231.808 53.9119C230.87 53.3494 230.143 52.5625 229.626 51.5511C229.114 50.5398 228.859 49.358 228.859 48.0057C228.859 46.6534 229.114 45.4687 229.626 44.4517C230.143 43.4347 230.87 42.6449 231.808 42.0824C232.745 41.5199 233.853 41.2386 235.131 41.2386C236.41 41.2386 237.518 41.5199 238.455 42.0824C239.393 42.6449 240.117 43.4347 240.629 44.4517C241.146 45.4687 241.404 46.6534 241.404 48.0057C241.404 49.358 241.146 50.5398 240.629 51.5511C240.117 52.5625 239.393 53.3494 238.455 53.9119C237.518 54.4744 236.41 54.7557 235.131 54.7557ZM235.148 52.2841C235.842 52.2841 236.421 52.0937 236.887 51.7131C237.353 51.3267 237.7 50.8097 237.927 50.1619C238.16 49.5142 238.276 48.7926 238.276 47.9972C238.276 47.196 238.16 46.4716 237.927 45.8239C237.7 45.1705 237.353 44.6506 236.887 44.2642C236.421 43.8778 235.842 43.6847 235.148 43.6847C234.438 43.6847 233.847 43.8778 233.376 44.2642C232.91 44.6506 232.56 45.1705 232.327 45.8239C232.1 46.4716 231.987 47.196 231.987 47.9972C231.987 48.7926 232.1 49.5142 232.327 50.1619C232.56 50.8097 232.91 51.3267 233.376 51.7131C233.847 52.0937 234.438 52.2841 235.148 52.2841ZM247.108 37.0455V54.5H244.023V37.0455H247.108ZM256.076 54.7557C254.763 54.7557 253.63 54.483 252.675 53.9375C251.727 53.3864 250.996 52.608 250.485 51.6023C249.974 50.5909 249.718 49.4006 249.718 48.0312C249.718 46.6847 249.974 45.5028 250.485 44.4858C251.002 43.4631 251.724 42.6676 252.65 42.0994C253.576 41.5256 254.664 41.2386 255.914 41.2386C256.721 41.2386 257.482 41.3693 258.198 41.6307C258.92 41.8864 259.556 42.2841 260.107 42.8239C260.664 43.3636 261.102 44.0511 261.42 44.8864C261.738 45.7159 261.897 46.7045 261.897 47.8523V48.7983H251.167V46.7188H258.94C258.934 46.1278 258.806 45.6023 258.556 45.142C258.306 44.6761 257.957 44.3097 257.508 44.0426C257.065 43.7756 256.548 43.642 255.957 43.642C255.326 43.642 254.772 43.7955 254.295 44.1023C253.817 44.4034 253.445 44.8011 253.178 45.2955C252.917 45.7841 252.783 46.321 252.778 46.9062V48.7216C252.778 49.483 252.917 50.1364 253.195 50.6818C253.474 51.2216 253.863 51.6364 254.363 51.9261C254.863 52.2102 255.448 52.3523 256.119 52.3523C256.567 52.3523 256.974 52.2898 257.337 52.1648C257.701 52.0341 258.016 51.8438 258.283 51.5938C258.55 51.3438 258.752 51.0341 258.888 50.6648L261.769 50.9886C261.587 51.75 261.241 52.4148 260.729 52.983C260.224 53.5455 259.576 53.983 258.786 54.2955C257.996 54.6023 257.093 54.7557 256.076 54.7557ZM270.2 59.6818C269.092 59.6818 268.141 59.5313 267.345 59.2301C266.55 58.9347 265.911 58.5369 265.428 58.0369C264.945 57.5369 264.609 56.983 264.422 56.375L267.2 55.7017C267.325 55.9574 267.507 56.2102 267.746 56.4602C267.984 56.7159 268.305 56.9261 268.709 57.0909C269.118 57.2614 269.632 57.3466 270.251 57.3466C271.126 57.3466 271.851 57.1335 272.425 56.7074C272.999 56.2869 273.286 55.5938 273.286 54.6278V52.1477H273.132C272.973 52.4659 272.74 52.7926 272.433 53.1278C272.132 53.4631 271.732 53.7443 271.232 53.9716C270.737 54.1989 270.115 54.3125 269.365 54.3125C268.359 54.3125 267.447 54.0767 266.629 53.6051C265.817 53.1278 265.169 52.4176 264.686 51.4744C264.209 50.5256 263.97 49.3381 263.97 47.9119C263.97 46.4744 264.209 45.2614 264.686 44.2727C265.169 43.2784 265.82 42.5256 266.638 42.0142C267.456 41.4972 268.368 41.2386 269.374 41.2386C270.141 41.2386 270.771 41.3693 271.266 41.6307C271.766 41.8864 272.163 42.196 272.459 42.5597C272.754 42.9176 272.979 43.2557 273.132 43.5739H273.303V41.4091H276.345V54.7131C276.345 55.8324 276.078 56.7585 275.544 57.4915C275.01 58.2244 274.28 58.7727 273.354 59.1364C272.428 59.5 271.376 59.6818 270.2 59.6818ZM270.226 51.892C270.879 51.892 271.436 51.733 271.896 51.4148C272.357 51.0966 272.706 50.6392 272.945 50.0426C273.183 49.446 273.303 48.7301 273.303 47.8949C273.303 47.071 273.183 46.3494 272.945 45.7301C272.712 45.1108 272.365 44.6307 271.905 44.2898C271.45 43.9432 270.891 43.7699 270.226 43.7699C269.538 43.7699 268.964 43.9489 268.504 44.3068C268.044 44.6648 267.697 45.1562 267.464 45.7812C267.232 46.4006 267.115 47.1051 267.115 47.8949C267.115 48.696 267.232 49.3977 267.464 50C267.703 50.5966 268.053 51.0625 268.513 51.3977C268.979 51.7273 269.55 51.892 270.226 51.892ZM279.507 54.5V41.4091H282.592V54.5H279.507ZM281.058 39.5511C280.57 39.5511 280.149 39.3892 279.797 39.0653C279.445 38.7358 279.268 38.3409 279.268 37.8807C279.268 37.4148 279.445 37.0199 279.797 36.696C280.149 36.3665 280.57 36.2017 281.058 36.2017C281.553 36.2017 281.973 36.3665 282.32 36.696C282.672 37.0199 282.848 37.4148 282.848 37.8807C282.848 38.3409 282.672 38.7358 282.32 39.0653C281.973 39.3892 281.553 39.5511 281.058 39.5511ZM291.475 54.7557C290.197 54.7557 289.089 54.4744 288.151 53.9119C287.214 53.3494 286.487 52.5625 285.969 51.5511C285.458 50.5398 285.202 49.358 285.202 48.0057C285.202 46.6534 285.458 45.4687 285.969 44.4517C286.487 43.4347 287.214 42.6449 288.151 42.0824C289.089 41.5199 290.197 41.2386 291.475 41.2386C292.754 41.2386 293.862 41.5199 294.799 42.0824C295.737 42.6449 296.461 43.4347 296.972 44.4517C297.489 45.4687 297.748 46.6534 297.748 48.0057C297.748 49.358 297.489 50.5398 296.972 51.5511C296.461 52.5625 295.737 53.3494 294.799 53.9119C293.862 54.4744 292.754 54.7557 291.475 54.7557ZM291.492 52.2841C292.185 52.2841 292.765 52.0937 293.231 51.7131C293.697 51.3267 294.043 50.8097 294.271 50.1619C294.504 49.5142 294.62 48.7926 294.62 47.9972C294.62 47.196 294.504 46.4716 294.271 45.8239C294.043 45.1705 293.697 44.6506 293.231 44.2642C292.765 43.8778 292.185 43.6847 291.492 43.6847C290.782 43.6847 290.191 43.8778 289.719 44.2642C289.254 44.6506 288.904 45.1705 288.671 45.8239C288.444 46.4716 288.33 47.196 288.33 47.9972C288.33 48.7926 288.444 49.5142 288.671 50.1619C288.904 50.8097 289.254 51.3267 289.719 51.7131C290.191 52.0937 290.782 52.2841 291.492 52.2841ZM315.942 41.8438C315.862 41.0994 315.527 40.5199 314.936 40.1051C314.351 39.6903 313.589 39.483 312.652 39.483C311.993 39.483 311.428 39.5824 310.956 39.7812C310.484 39.9801 310.124 40.25 309.874 40.5909C309.624 40.9318 309.496 41.321 309.49 41.7585C309.49 42.1222 309.572 42.4375 309.737 42.7045C309.908 42.9716 310.138 43.1989 310.428 43.3864C310.717 43.5682 311.038 43.7216 311.391 43.8466C311.743 43.9716 312.098 44.0767 312.456 44.1619L314.092 44.571C314.751 44.7244 315.385 44.9318 315.993 45.1932C316.607 45.4545 317.155 45.7841 317.638 46.1818C318.126 46.5795 318.513 47.0597 318.797 47.6222C319.081 48.1847 319.223 48.8437 319.223 49.5994C319.223 50.6222 318.962 51.5227 318.439 52.3011C317.916 53.0739 317.161 53.679 316.172 54.1165C315.189 54.5483 313.999 54.7642 312.601 54.7642C311.243 54.7642 310.064 54.554 309.064 54.1335C308.07 53.7131 307.291 53.0994 306.729 52.2926C306.172 51.4858 305.871 50.5028 305.825 49.3438H308.936C308.982 49.9517 309.169 50.4574 309.499 50.8608C309.828 51.2642 310.257 51.5653 310.786 51.7642C311.32 51.9631 311.916 52.0625 312.575 52.0625C313.263 52.0625 313.865 51.9602 314.382 51.7557C314.905 51.5455 315.314 51.2557 315.609 50.8864C315.905 50.5114 316.055 50.0739 316.061 49.5739C316.055 49.1193 315.922 48.7443 315.661 48.4489C315.399 48.1477 315.033 47.8977 314.561 47.6989C314.095 47.4943 313.55 47.3125 312.925 47.1534L310.939 46.642C309.501 46.2727 308.365 45.7131 307.53 44.9631C306.7 44.2074 306.286 43.2045 306.286 41.9545C306.286 40.9261 306.564 40.0256 307.121 39.2528C307.683 38.4801 308.447 37.8807 309.413 37.4545C310.379 37.0227 311.473 36.8068 312.695 36.8068C313.933 36.8068 315.018 37.0227 315.95 37.4545C316.888 37.8807 317.624 38.4744 318.158 39.2358C318.692 39.9915 318.967 40.8608 318.984 41.8438H315.942ZM325.673 54.7642C324.843 54.7642 324.096 54.6165 323.431 54.321C322.772 54.0199 322.249 53.5767 321.863 52.9915C321.482 52.4062 321.292 51.6847 321.292 50.8267C321.292 50.0881 321.428 49.4773 321.701 48.9943C321.974 48.5114 322.346 48.125 322.817 47.8352C323.289 47.5455 323.82 47.3267 324.411 47.179C325.008 47.0256 325.624 46.9148 326.261 46.8466C327.028 46.767 327.65 46.696 328.127 46.6335C328.604 46.5653 328.951 46.4631 329.167 46.3267C329.388 46.1847 329.499 45.9659 329.499 45.6705V45.6193C329.499 44.9773 329.309 44.4801 328.928 44.1278C328.548 43.7756 327.999 43.5994 327.283 43.5994C326.528 43.5994 325.928 43.7642 325.485 44.0938C325.048 44.4233 324.752 44.8125 324.599 45.2614L321.718 44.8523C321.945 44.0568 322.32 43.392 322.843 42.858C323.366 42.3182 324.005 41.9148 324.761 41.6477C325.516 41.375 326.352 41.2386 327.266 41.2386C327.897 41.2386 328.525 41.3125 329.15 41.4602C329.775 41.608 330.346 41.8523 330.863 42.1932C331.38 42.5284 331.795 42.9858 332.107 43.5653C332.425 44.1449 332.585 44.8693 332.585 45.7386V54.5H329.619V52.7017H329.516C329.329 53.0653 329.065 53.4062 328.724 53.7244C328.388 54.0369 327.965 54.2898 327.454 54.483C326.948 54.6705 326.354 54.7642 325.673 54.7642ZM326.474 52.4972C327.093 52.4972 327.63 52.375 328.085 52.1307C328.539 51.8807 328.888 51.5511 329.133 51.142C329.383 50.733 329.508 50.2869 329.508 49.804V48.2614C329.411 48.3409 329.246 48.4148 329.013 48.483C328.786 48.5511 328.531 48.6108 328.246 48.6619C327.962 48.7131 327.681 48.7585 327.403 48.7983C327.124 48.8381 326.883 48.8722 326.678 48.9006C326.218 48.9631 325.806 49.0653 325.442 49.2074C325.079 49.3494 324.792 49.5483 324.582 49.804C324.371 50.054 324.266 50.3778 324.266 50.7756C324.266 51.3438 324.474 51.7727 324.888 52.0625C325.303 52.3523 325.832 52.4972 326.474 52.4972ZM338.772 46.8295V54.5H335.687V41.4091H338.636V43.6335H338.789C339.09 42.9006 339.57 42.3182 340.229 41.8864C340.894 41.4545 341.715 41.2386 342.692 41.2386C343.596 41.2386 344.383 41.4318 345.053 41.8182C345.729 42.2045 346.252 42.7642 346.621 43.4972C346.996 44.2301 347.181 45.1193 347.175 46.1648V54.5H344.09V46.642C344.09 45.767 343.863 45.0824 343.408 44.5881C342.96 44.0937 342.337 43.8466 341.542 43.8466C341.002 43.8466 340.522 43.9659 340.102 44.2045C339.687 44.4375 339.36 44.7756 339.121 45.2188C338.888 45.6619 338.772 46.1989 338.772 46.8295ZM356.849 41.4091V43.7955H349.323V41.4091H356.849ZM351.181 38.2727H354.266V50.5625C354.266 50.9773 354.329 51.2955 354.454 51.517C354.585 51.733 354.755 51.8807 354.965 51.9602C355.175 52.0398 355.408 52.0795 355.664 52.0795C355.857 52.0795 356.033 52.0653 356.192 52.0369C356.357 52.0085 356.482 51.983 356.567 51.9602L357.087 54.3722C356.923 54.429 356.687 54.4915 356.38 54.5597C356.079 54.6278 355.71 54.6676 355.272 54.679C354.499 54.7017 353.803 54.5852 353.184 54.3295C352.565 54.0682 352.073 53.6648 351.71 53.1193C351.352 52.5739 351.175 51.892 351.181 51.0739V38.2727ZM363.196 54.7642C362.366 54.7642 361.619 54.6165 360.955 54.321C360.295 54.0199 359.773 53.5767 359.386 52.9915C359.006 52.4062 358.815 51.6847 358.815 50.8267C358.815 50.0881 358.952 49.4773 359.224 48.9943C359.497 48.5114 359.869 48.125 360.341 47.8352C360.813 47.5455 361.344 47.3267 361.935 47.179C362.531 47.0256 363.148 46.9148 363.784 46.8466C364.551 46.767 365.173 46.696 365.651 46.6335C366.128 46.5653 366.474 46.4631 366.69 46.3267C366.912 46.1847 367.023 45.9659 367.023 45.6705V45.6193C367.023 44.9773 366.832 44.4801 366.452 44.1278C366.071 43.7756 365.523 43.5994 364.807 43.5994C364.051 43.5994 363.452 43.7642 363.009 44.0938C362.571 44.4233 362.276 44.8125 362.122 45.2614L359.241 44.8523C359.469 44.0568 359.844 43.392 360.366 42.858C360.889 42.3182 361.528 41.9148 362.284 41.6477C363.04 41.375 363.875 41.2386 364.79 41.2386C365.42 41.2386 366.048 41.3125 366.673 41.4602C367.298 41.608 367.869 41.8523 368.386 42.1932C368.903 42.5284 369.318 42.9858 369.631 43.5653C369.949 44.1449 370.108 44.8693 370.108 45.7386V54.5H367.142V52.7017H367.04C366.852 53.0653 366.588 53.4062 366.247 53.7244C365.912 54.0369 365.489 54.2898 364.977 54.483C364.472 54.6705 363.878 54.7642 363.196 54.7642ZM363.997 52.4972C364.616 52.4972 365.153 52.375 365.608 52.1307C366.063 51.8807 366.412 51.5511 366.656 51.142C366.906 50.733 367.031 50.2869 367.031 49.804V48.2614C366.935 48.3409 366.77 48.4148 366.537 48.483C366.31 48.5511 366.054 48.6108 365.77 48.6619C365.486 48.7131 365.205 48.7585 364.926 48.7983C364.648 48.8381 364.406 48.8722 364.202 48.9006C363.741 48.9631 363.33 49.0653 362.966 49.2074C362.602 49.3494 362.315 49.5483 362.105 49.804C361.895 50.054 361.79 50.3778 361.79 50.7756C361.79 51.3438 361.997 51.7727 362.412 52.0625C362.827 52.3523 363.355 52.4972 363.997 52.4972ZM379.3 37.0455H383.169L388.351 49.6932H388.555L393.737 37.0455H397.607V54.5H394.572V42.5085H394.411L389.587 54.4489H387.32L382.496 42.483H382.334V54.5H379.3V37.0455ZM404.68 54.7642C403.851 54.7642 403.104 54.6165 402.439 54.321C401.78 54.0199 401.257 53.5767 400.871 52.9915C400.49 52.4062 400.3 51.6847 400.3 50.8267C400.3 50.0881 400.436 49.4773 400.709 48.9943C400.982 48.5114 401.354 48.125 401.825 47.8352C402.297 47.5455 402.828 47.3267 403.419 47.179C404.016 47.0256 404.632 46.9148 405.268 46.8466C406.036 46.767 406.658 46.696 407.135 46.6335C407.612 46.5653 407.959 46.4631 408.175 46.3267C408.396 46.1847 408.507 45.9659 408.507 45.6705V45.6193C408.507 44.9773 408.317 44.4801 407.936 44.1278C407.555 43.7756 407.007 43.5994 406.291 43.5994C405.536 43.5994 404.936 43.7642 404.493 44.0938C404.055 44.4233 403.76 44.8125 403.607 45.2614L400.726 44.8523C400.953 44.0568 401.328 43.392 401.851 42.858C402.374 42.3182 403.013 41.9148 403.768 41.6477C404.524 41.375 405.359 41.2386 406.274 41.2386C406.905 41.2386 407.533 41.3125 408.158 41.4602C408.783 41.608 409.354 41.8523 409.871 42.1932C410.388 42.5284 410.803 42.9858 411.115 43.5653C411.433 44.1449 411.592 44.8693 411.592 45.7386V54.5H408.626V52.7017H408.524C408.337 53.0653 408.072 53.4062 407.732 53.7244C407.396 54.0369 406.973 54.2898 406.462 54.483C405.956 54.6705 405.362 54.7642 404.68 54.7642ZM405.482 52.4972C406.101 52.4972 406.638 52.375 407.092 52.1307C407.547 51.8807 407.896 51.5511 408.141 51.142C408.391 50.733 408.516 50.2869 408.516 49.804V48.2614C408.419 48.3409 408.254 48.4148 408.021 48.483C407.794 48.5511 407.538 48.6108 407.254 48.6619C406.97 48.7131 406.689 48.7585 406.411 48.7983C406.132 48.8381 405.891 48.8722 405.686 48.9006C405.226 48.9631 404.814 49.0653 404.45 49.2074C404.087 49.3494 403.8 49.5483 403.589 49.804C403.379 50.054 403.274 50.3778 403.274 50.7756C403.274 51.3438 403.482 51.7727 403.896 52.0625C404.311 52.3523 404.839 52.4972 405.482 52.4972ZM414.695 54.5V41.4091H417.686V43.5909H417.822C418.061 42.8352 418.47 42.2528 419.05 41.8438C419.635 41.429 420.303 41.2216 421.053 41.2216C421.223 41.2216 421.413 41.2301 421.624 41.2472C421.839 41.2585 422.018 41.2784 422.161 41.3068V44.1449C422.03 44.0994 421.822 44.0597 421.538 44.0256C421.26 43.9858 420.99 43.9659 420.729 43.9659C420.166 43.9659 419.661 44.0881 419.212 44.3324C418.768 44.571 418.419 44.9034 418.163 45.3295C417.908 45.7557 417.78 46.2472 417.78 46.804V54.5H414.695ZM424.21 54.5V41.4091H427.295V54.5H424.21ZM424.577 39.6875L426.486 35.7926H429.503L426.886 39.6875H424.577ZM434.235 54.7642C433.406 54.7642 432.658 54.6165 431.994 54.321C431.335 54.0199 430.812 53.5767 430.425 52.9915C430.045 52.4062 429.854 51.6847 429.854 50.8267C429.854 50.0881 429.991 49.4773 430.263 48.9943C430.536 48.5114 430.908 48.125 431.38 47.8352C431.852 47.5455 432.383 47.3267 432.974 47.179C433.57 47.0256 434.187 46.9148 434.823 46.8466C435.59 46.767 436.212 46.696 436.69 46.6335C437.167 46.5653 437.513 46.4631 437.729 46.3267C437.951 46.1847 438.062 45.9659 438.062 45.6705V45.6193C438.062 44.9773 437.871 44.4801 437.491 44.1278C437.11 43.7756 436.562 43.5994 435.846 43.5994C435.09 43.5994 434.491 43.7642 434.048 44.0938C433.61 44.4233 433.315 44.8125 433.161 45.2614L430.281 44.8523C430.508 44.0568 430.883 43.392 431.406 42.858C431.928 42.3182 432.567 41.9148 433.323 41.6477C434.079 41.375 434.914 41.2386 435.829 41.2386C436.46 41.2386 437.087 41.3125 437.712 41.4602C438.337 41.608 438.908 41.8523 439.425 42.1932C439.942 42.5284 440.357 42.9858 440.67 43.5653C440.988 44.1449 441.147 44.8693 441.147 45.7386V54.5H438.181V52.7017H438.079C437.891 53.0653 437.627 53.4062 437.286 53.7244C436.951 54.0369 436.528 54.2898 436.016 54.483C435.511 54.6705 434.917 54.7642 434.235 54.7642ZM435.036 52.4972C435.656 52.4972 436.192 52.375 436.647 52.1307C437.102 51.8807 437.451 51.5511 437.695 51.142C437.945 50.733 438.07 50.2869 438.07 49.804V48.2614C437.974 48.3409 437.809 48.4148 437.576 48.483C437.349 48.5511 437.093 48.6108 436.809 48.6619C436.525 48.7131 436.244 48.7585 435.965 48.7983C435.687 48.8381 435.445 48.8722 435.241 48.9006C434.781 48.9631 434.369 49.0653 434.005 49.2074C433.641 49.3494 433.354 49.5483 433.144 49.804C432.934 50.054 432.829 50.3778 432.829 50.7756C432.829 51.3438 433.036 51.7727 433.451 52.0625C433.866 52.3523 434.394 52.4972 435.036 52.4972Z" fill="white"/>
<defs>
<clipPath id="clip0_176_109084">
<rect width="93" height="90" fill="white" transform="translate(0 88)"/>
</clipPath>
<clipPath id="clip1_176_109084">
<rect width="24" height="24" fill="white" transform="translate(162 34)"/>
</clipPath>
</defs>
</svg>
