<svg width="512" height="130" viewBox="0 0 625 159" fill="none" xmlns="http://www.w3.org/2000/svg">
<path d="M3.03906 124.307L50.0886 97.8398L106.076 129.745L59.1548 156.803L3.03906 124.307Z" fill="#3B495C"/>
<path d="M106.076 129.746V131.944L59.1543 159.001V156.803L106.076 129.746Z" fill="#233143"/>
<path d="M3.03906 124.307V126.505L59.1548 159V156.802L3.03906 124.307Z" fill="#233143"/>
<path d="M50.6332 73.3633L10.4199 96.1934V123.15L50.6332 100.027V73.3633Z" fill="#C6C3C1"/>
<path d="M12.7361 96.6875L11.123 97.6014V124.563L12.7361 123.635V96.6875Z" fill="#FBAD32"/>
<path opacity="0.5" d="M23.3063 104.168L11.9277 110.712V113.609L25.8424 105.612L23.3063 104.168Z" fill="white"/>
<path opacity="0.5" d="M26.8843 106.201L11.9277 114.801V115.642L27.62 106.617L26.8843 106.201Z" fill="white"/>
<path opacity="0.5" d="M11.9277 97.7109V98.666L12.764 98.1862L11.9277 97.7109Z" fill="white"/>
<path opacity="0.5" d="M11.9277 124.096L30.1973 134.597V108.083L30.1105 108.033L11.9277 118.484V124.096Z" fill="white"/>
<path opacity="0.5" d="M28.141 106.914L11.9277 116.236V117.89L29.585 107.737L28.141 106.914Z" fill="white"/>
<path d="M41.8172 99.0491V98.4551L27.6191 106.617L28.1401 106.914L41.8172 99.0491Z" fill="white"/>
<path opacity="0.8" d="M27.62 106.617L11.9277 115.642V116.236L28.141 106.914L27.62 106.617Z" fill="white"/>
<path d="M41.9607 100.621L29.5859 107.736L30.1115 108.033L41.9607 101.215V100.621Z" fill="white"/>
<path opacity="0.8" d="M11.9277 117.89V118.484L30.1105 108.033L29.585 107.736L11.9277 117.89Z" fill="white"/>
<path d="M41.8174 97.6146V96.4219L25.8418 105.612L26.8837 106.201L41.8174 97.6146Z" fill="white"/>
<path opacity="0.8" d="M25.8424 105.611L11.9277 113.608V114.801L26.8843 106.201L25.8424 105.611Z" fill="white"/>
<path d="M35.6212 97.0848V85.0391L12.7637 98.1861L23.3059 104.168L35.6212 97.0848Z" fill="white"/>
<path opacity="0.8" d="M12.764 98.1855L11.9277 98.6654V110.711L23.3063 104.167L12.764 98.1855Z" fill="white"/>
<path d="M99.4047 102.445L59.1914 125.275V152.232L99.4047 129.109V102.445Z" fill="#FBAD32"/>
<path d="M40.5936 112.736L38.9805 113.655V140.611L40.5936 139.684V112.736Z" fill="#FBAD32"/>
<path d="M11.1511 97.999L9.69336 97.1719V123.767L11.1511 124.608V97.999Z" fill="#FBAD32"/>
<path d="M29.6621 108.51V135.252L38.9797 140.612V113.801L29.6621 108.51Z" fill="#FBAD32"/>
<path opacity="0.5" d="M53.5799 121.445L39.9531 129.282V130.119L54.3157 121.861L53.5799 121.445Z" fill="white"/>
<path opacity="0.5" d="M54.8366 122.158L39.9531 130.713V132.367L56.2852 122.976L54.8366 122.158Z" fill="white"/>
<path opacity="0.5" d="M50.0019 119.412L39.9531 125.188V128.09L52.538 120.852L50.0019 119.412Z" fill="white"/>
<path opacity="0.5" d="M39.9531 140.09L58.2182 150.591V124.078L56.8061 123.273L39.9531 132.966V140.09Z" fill="white"/>
<path opacity="0.8" d="M54.3157 121.861L39.9531 130.119V130.713L54.8366 122.158L54.3157 121.861Z" fill="white"/>
<path opacity="0.8" d="M39.9531 132.367V132.966L56.8061 123.274L56.2852 122.977L39.9531 132.367Z" fill="white"/>
<path opacity="0.8" d="M52.538 120.852L39.9531 128.09V129.283L53.5799 121.446L52.538 120.852Z" fill="white"/>
<path opacity="0.8" d="M39.9531 113.705V125.189L50.0019 119.413L39.9531 113.705Z" fill="white"/>
<path d="M49.1786 119.002L48.6074 118.678V145.059L49.1786 145.388V119.002Z" fill="#888D9A"/>
<path d="M57.2344 124.166V151.109L59.1902 152.233V125.276L57.2344 124.166Z" fill="#FBAD32"/>
<path d="M59.1906 125.889L56.1289 118.678L99.4038 93.8281V103.086L59.1906 125.889Z" fill="#BECCC6"/>
<path d="M99.4053 93.8271L53.4891 120.468L9.74805 95.687L55.5866 69L99.4053 93.8271Z" fill="white"/>
<path d="M93.9581 94.655L95.4707 93.7822L55.8241 70.8652L16.7441 93.5355L18.3618 94.4905L55.9292 72.6977L93.9581 94.655Z" fill="#7C8982"/>
<path d="M93.9569 94.6546L55.928 72.6973L23.4375 91.5427L61.4116 113.473L93.9569 94.6546Z" fill="#A2AAA6"/>
<path d="M56.3263 116.416L61.4123 113.473L23.4383 91.543L18.3613 94.4904L56.3263 116.416Z" fill="#8C9993"/>
<path d="M10.1502 88.498V89.1881L3.03516 93.2962V92.6062L10.1502 88.498Z" fill="#243954"/>
<path d="M10.1502 94.9648V95.6594L3.03516 99.7676V99.073L10.1502 94.9648Z" fill="#243954"/>
<path d="M8.7832 87.3145L58.2866 115.418V126.399L8.7832 97.9344V87.3145Z" fill="#243954"/>
<path d="M9.69257 86.8262L8.7832 87.3151L58.2866 115.419L59.1914 114.93L9.69257 86.8262Z" fill="#243954"/>
<path d="M58.2871 126.4L59.1919 125.911V114.93L58.2871 115.419V126.4Z" fill="#243954"/>
<path d="M31.8594 118.782L37.4572 122.012V120.152L31.8594 117.004V118.782Z" fill="white"/>
<path d="M54.2155 138.762L50.8613 136.842V130.879L54.2155 132.798V138.762Z" fill="#243954"/>
<path d="M53.8908 133.104L51.1855 131.555V131.92L53.8908 133.469V133.104Z" fill="white"/>
<path d="M53.8908 133.84L51.1855 132.291V132.661L53.8908 134.21V133.84Z" fill="white"/>
<path d="M51.3223 134.252C51.3223 133.731 51.5279 133.544 51.8112 133.708C52.0945 133.873 52.3002 134.298 52.3002 134.819C52.3002 135.344 52.0945 135.536 51.8112 135.372C51.5233 135.207 51.3223 134.778 51.3223 134.252ZM51.9894 134.641C51.9894 134.27 51.9072 134.097 51.8067 134.037C51.7061 133.978 51.6284 134.06 51.6284 134.43C51.6284 134.805 51.7107 134.983 51.8067 135.043C51.9072 135.097 51.9894 135.011 51.9894 134.641ZM51.8798 136.464L52.9399 134.362L53.1913 134.508L52.1357 136.615L51.8798 136.464ZM52.7663 136.139C52.7663 135.618 52.9765 135.431 53.2552 135.596C53.5386 135.76 53.7442 136.185 53.7442 136.706C53.7442 137.232 53.5386 137.423 53.2552 137.259C52.9719 137.094 52.7663 136.665 52.7663 136.139ZM53.438 136.528C53.438 136.153 53.3558 135.984 53.2598 135.925C53.1593 135.865 53.077 135.943 53.077 136.318C53.077 136.692 53.1593 136.871 53.2598 136.93C53.3558 136.985 53.438 136.903 53.438 136.528Z" fill="white"/>
<path d="M47.2188 130.316L45.2676 129.201V125.729L47.2188 126.844V130.316Z" fill="#243954"/>
<path d="M28.0859 127.395L21.1445 123.42V111.072L28.0859 115.048V127.395Z" fill="#243954"/>
<path d="M27.6697 117.278L21.7383 113.883V114.573L27.6697 117.968V117.278Z" fill="white"/>
<path d="M27.6697 116.04L21.7383 112.645V113.335L27.6697 116.73V116.04Z" fill="white"/>
<path d="M8.36203 87.2891L0.662109 91.6623V102.643L8.36203 98.2152V87.2891Z" fill="#243954"/>
<path d="M8.36203 92.123L0.662109 96.4962V97.1497L8.36203 92.7262V92.123Z" fill="white"/>
<path d="M8.36203 93.6035L0.662109 97.9721V98.6302L8.36203 94.2021V93.6035Z" fill="white"/>
<path d="M8.36203 95.0117L0.662109 99.3849V100.038L8.36203 95.6103V95.0117Z" fill="white"/>
<path d="M0 102.25L0.662605 102.643V91.6625L0 91.2695V102.25Z" fill="#243954"/>
<path d="M8.36253 87.2888L7.69992 86.9004L0 91.269L0.662605 91.662L8.36253 87.2888Z" fill="#243954"/>
<rect x="166" width="459" height="110" rx="18" fill="#006DB7"/>
<path d="M110 102L221.5 66.026L189.5 42L110 102Z" fill="#006DB7"/>
<rect x="191.048" y="34.0476" width="41.9048" height="41.9048" rx="20.9524" fill="#FFB600"/>
<rect x="191.048" y="34.0476" width="41.9048" height="41.9048" rx="20.9524" stroke="white" stroke-width="2.09524"/>
<g clip-path="url(#clip0_176_102667)">
<path d="M200.375 63.3886C200.375 63.4261 200.379 63.4599 200.39 63.4936C200.39 63.5049 200.398 63.5161 200.401 63.5274C200.413 63.5574 200.431 63.5874 200.454 63.6136C200.458 63.6211 200.461 63.6249 200.465 63.6324C200.465 63.6324 200.469 63.6324 200.472 63.6361C200.499 63.6661 200.529 63.6924 200.566 63.7111C202.205 64.5699 206.255 66.0661 206.424 66.1261C206.439 66.1299 206.45 66.1299 206.465 66.1336C206.472 66.1336 206.48 66.1411 206.491 66.1449C206.589 66.1599 206.713 66.1674 206.855 66.1674C209.938 66.1674 222.789 62.5411 223.359 62.3799C223.531 62.3311 223.644 62.1624 223.621 61.9824C223.014 57.2236 221.375 49.4574 221.36 49.3786C221.36 49.3749 221.356 49.3711 221.356 49.3674C221.345 49.3299 221.33 49.2961 221.311 49.2624C221.308 49.2549 221.304 49.2474 221.3 49.2436C221.278 49.2099 221.244 49.1799 221.21 49.1574C221.195 49.1461 221.176 49.1386 221.157 49.1311C221.142 49.1236 221.128 49.1124 221.109 49.1086L217.625 48.0849C216.267 45.0474 214.318 43.5849 211.989 43.8586C211.501 43.9149 211.051 44.0499 210.642 44.2561C210.436 44.2186 210.222 44.1961 210.001 44.1924C208.899 44.1811 207.961 44.6161 207.226 45.4824C206.341 46.5136 205.786 48.1674 205.561 50.3911C203.615 50.7361 202.186 50.9799 202.164 50.9836C202.149 50.9836 202.141 50.9949 202.126 50.9986C202.119 50.9986 202.107 50.9986 202.1 50.9986C202.089 50.9986 202.081 51.0099 202.074 51.0174C202.044 51.0324 202.018 51.0474 201.995 51.0661C201.98 51.0774 201.969 51.0886 201.957 51.1036C201.935 51.1261 201.92 51.1524 201.905 51.1824C201.901 51.1936 201.89 51.2011 201.886 51.2124C201.159 53.1249 200.409 62.9461 200.379 63.3624V63.3661V63.3849L200.375 63.3886ZM206.533 50.9574C206.574 50.9499 206.615 50.9424 206.66 50.9349C207.151 50.8449 207.661 50.7549 208.182 50.6574C208.197 51.0436 208.227 51.4411 208.273 51.8536C206.499 52.1986 205.344 52.3899 204.837 52.4199L203.281 51.5274C204.054 51.3924 205.213 51.1936 206.536 50.9536L206.533 50.9574ZM208.16 49.9224C207.995 49.9524 207.83 49.9824 207.665 50.0124C207.823 48.8986 208.081 48.0099 208.422 47.3911C208.246 48.1261 208.156 48.9736 208.156 49.9224H208.16ZM203.416 61.4686L205.674 65.0724C204.504 64.6261 202.584 63.8761 201.38 63.3061L203.42 61.4724L203.416 61.4686ZM203.859 60.8049V52.7011L204.406 53.0161C204.552 54.4261 205.201 60.4861 205.749 63.8236L203.859 60.8086V60.8049ZM202.438 51.8874L203.131 52.2849V60.7486L201.17 62.5149C201.361 60.1749 201.905 53.9724 202.434 51.8874H202.438ZM206.806 65.4511C206.405 64.1761 205.606 57.5086 205.145 53.1286C205.76 53.0611 206.803 52.8849 208.351 52.5811C208.475 53.4549 208.621 54.1336 208.707 54.5049C208.831 54.9849 209.262 55.3224 209.757 55.3224C209.847 55.3224 209.938 55.3111 210.024 55.2886C210.597 55.1424 210.954 54.5574 210.811 53.9761C210.688 53.4774 210.568 52.8174 210.477 52.1499C212.142 51.8049 214.108 51.3849 216.331 50.8899C216.519 51.5536 216.68 52.2474 216.796 52.9111C216.796 52.9261 216.8 52.9374 216.804 52.9486C216.845 53.2336 216.995 53.4849 217.227 53.6574C217.46 53.8299 217.741 53.9049 218.03 53.8599C218.319 53.8186 218.57 53.6649 218.743 53.4324C218.915 53.1999 218.986 52.9149 218.945 52.6299C218.93 52.5211 218.791 51.6099 218.454 50.4099C219.481 50.1774 220.287 49.9936 220.722 49.8924C221.045 51.4449 222.305 57.6174 222.856 61.7649C218.761 62.9161 208.955 65.5261 206.802 65.4399L206.806 65.4511ZM211.805 46.1161C211.839 46.1049 211.869 46.0899 211.903 46.0824C212.007 46.0524 212.12 46.0261 212.236 46.0111C212.263 46.0111 212.292 46.0111 212.319 46.0074C212.911 46.6636 213.395 47.6049 213.755 48.8161C213.736 48.8199 213.714 48.8236 213.695 48.8311C213.523 48.8686 213.342 48.9061 213.159 48.9474C212.773 47.6799 212.236 46.7724 211.565 46.2286C211.58 46.2211 211.591 46.2136 211.602 46.2061C211.666 46.1724 211.734 46.1461 211.805 46.1199V46.1161ZM210.403 51.4261C210.365 51.0286 210.339 50.6349 210.331 50.2524C211.318 50.0611 212.199 49.8849 212.971 49.7236H212.979C213.069 49.7049 213.155 49.6861 213.245 49.6674C213.372 49.6411 213.492 49.6149 213.612 49.5886C213.627 49.5886 213.642 49.5811 213.657 49.5774C213.815 49.5436 213.969 49.5099 214.115 49.4761C214.171 49.4649 214.231 49.4499 214.287 49.4386C214.842 49.3149 215.319 49.2024 215.709 49.1011C215.851 49.4349 215.99 49.7986 216.118 50.1886C213.95 50.6724 212.03 51.0849 210.399 51.4224L210.403 51.4261ZM214.464 48.6586C214.171 47.6649 213.8 46.8286 213.35 46.1574C214.111 46.4724 214.801 47.2374 215.401 48.4336C215.127 48.5011 214.813 48.5761 214.46 48.6586H214.464ZM211.003 46.7424C211.003 46.7424 211.014 46.7311 211.017 46.7236C211.599 47.1474 212.086 47.9574 212.443 49.0936C211.805 49.2249 211.1 49.3636 210.328 49.5136C210.369 48.2799 210.597 47.3236 211.003 46.7424ZM218.24 49.7236C218.154 49.4611 218.068 49.2024 217.974 48.9511L219.575 49.4236C219.193 49.5099 218.743 49.6149 218.244 49.7274L218.24 49.7236ZM212.071 44.5861C212.229 44.5674 212.382 44.5599 212.536 44.5599C214.378 44.5599 215.885 45.8949 217.029 48.5386C217.257 49.0786 217.468 49.6599 217.651 50.2599C218.052 51.5874 218.21 52.6299 218.225 52.7461C218.24 52.8399 218.214 52.9336 218.157 53.0124C218.101 53.0874 218.019 53.1399 217.921 53.1511C217.827 53.1661 217.737 53.1399 217.659 53.0836C217.584 53.0274 217.535 52.9449 217.52 52.8474C217.52 52.8361 217.513 52.8061 217.513 52.7949C217.374 51.9886 217.175 51.1486 216.935 50.3574C216.721 49.6674 216.5 49.0711 216.249 48.5274C215.266 46.3674 214.01 45.2724 212.517 45.2724C212.499 45.2724 212.484 45.2724 212.465 45.2724C212.364 45.2649 212.255 45.2799 212.15 45.2911C211.554 45.3624 211.055 45.5986 210.68 45.9924C210.68 45.9924 210.68 45.9924 210.676 45.9961C210.579 46.0936 210.489 46.2061 210.403 46.3261C209.859 47.1099 209.585 48.3324 209.589 49.9561C209.589 50.5824 209.634 51.2386 209.712 51.9061C209.806 52.7049 209.953 53.5449 210.106 54.1486C210.151 54.3399 210.035 54.5311 209.847 54.5799C209.671 54.6249 209.461 54.5086 209.413 54.3099C209.341 53.9986 209.158 53.1624 209.023 52.1011C208.94 51.4374 208.895 50.8036 208.884 50.2149C208.85 48.5386 209.094 47.2111 209.604 46.2699C209.682 46.1236 209.746 46.0186 209.818 45.9174C209.889 45.8124 209.968 45.7149 210.046 45.6211C210.286 45.3436 210.564 45.1186 210.868 44.9499C211.227 44.7549 211.629 44.6274 212.071 44.5786V44.5861ZM207.774 45.9586C208.299 45.3399 208.944 44.9986 209.698 44.9349C209.653 44.9799 209.611 45.0286 209.566 45.0774C209.536 45.1111 209.506 45.1411 209.476 45.1749C209.386 45.2799 209.3 45.3924 209.217 45.5086C209.18 45.5611 209.142 45.6211 209.105 45.6811C209.094 45.6999 209.083 45.7186 209.071 45.7374C209.056 45.7636 209.041 45.7861 209.026 45.8124C208.715 45.9474 208.434 46.1611 208.182 46.4499C207.549 47.1924 207.121 48.4374 206.908 50.1549C206.758 50.1811 206.611 50.2074 206.461 50.2374C206.405 50.2486 206.349 50.2561 206.293 50.2674C206.51 48.3211 207.016 46.8399 207.77 45.9624L207.774 45.9586Z" fill="white"/>
<path d="M216.514 57.3254C216.158 57.0217 215.64 56.8567 214.984 56.8267L213.975 56.7854C213.645 56.7704 213.552 56.7104 213.54 56.7029C213.529 56.6954 213.507 56.6804 213.507 56.5979C213.507 56.5154 213.518 56.3879 213.668 56.2417C213.799 56.1142 214.005 56.0204 214.275 55.9717C214.515 55.9267 214.714 55.9117 214.868 55.9304C215.033 55.9492 215.19 55.9792 215.322 56.0204C215.558 56.0954 215.775 56.0992 215.967 56.0279C216.15 55.9604 216.297 55.8442 216.402 55.6867C216.499 55.5442 216.555 55.3867 216.574 55.2142C216.593 55.0304 216.559 54.8579 216.473 54.6967C216.383 54.5242 216.24 54.3967 216.072 54.3254C215.82 54.1979 215.532 54.1154 215.213 54.0817C215.13 54.0742 215.052 54.0667 214.969 54.0629L214.958 53.8904C214.943 53.6467 214.842 53.4404 214.658 53.2942C214.474 53.1479 214.249 53.0954 214.009 53.1367C213.777 53.1779 213.578 53.2942 213.432 53.4779C213.285 53.6617 213.21 53.8754 213.222 54.1042L213.233 54.3854C212.978 54.4904 212.745 54.6217 212.543 54.7754C212.198 55.0342 211.924 55.3454 211.729 55.7054C211.527 56.0804 211.425 56.4892 211.425 56.9204C211.425 57.5129 211.605 57.9854 211.954 58.3192C212.299 58.6492 212.809 58.8292 213.469 58.8592L214.5 58.9042C214.718 58.9117 214.838 58.9379 214.902 58.9642C214.984 58.9942 215.003 59.0204 215.007 59.0242C215.025 59.0542 215.04 59.0954 215.044 59.1517C215.052 59.2342 215.033 59.3092 214.995 59.3842C214.954 59.4592 214.875 59.5379 214.759 59.6092C214.624 59.6954 214.433 59.7629 214.185 59.8117C213.837 59.8829 213.54 59.8979 213.304 59.8642C213.057 59.8267 212.865 59.7817 212.734 59.7292C212.415 59.6092 212.172 59.6692 212.022 59.7404C211.834 59.8304 211.68 59.9692 211.568 60.1567C211.463 60.3329 211.399 60.5242 211.38 60.7267C211.362 60.9367 211.392 61.1354 211.47 61.3229C211.564 61.5442 211.74 61.7054 211.969 61.7879C212.22 61.8892 212.524 61.9604 212.892 62.0092C213.079 62.0354 213.282 62.0392 213.503 62.0317L213.514 62.3242C213.525 62.6092 213.627 62.8529 213.814 63.0292C213.972 63.1792 214.17 63.2579 214.384 63.2579C214.448 63.2579 214.512 63.2504 214.575 63.2392C214.842 63.1829 215.063 63.0292 215.217 62.7892C215.359 62.5679 215.427 62.3204 215.408 62.0542L215.382 61.5967C215.674 61.4579 215.937 61.2854 216.162 61.0904C216.51 60.7904 216.777 60.4304 216.953 60.0217C217.129 59.6167 217.197 59.1742 217.155 58.7129C217.103 58.1167 216.885 57.6554 216.51 57.3367L216.514 57.3254ZM216.289 59.7179C216.154 60.0254 215.955 60.2954 215.689 60.5242C215.464 60.7192 215.187 60.8842 214.872 61.0117C214.725 61.0717 214.635 61.2142 214.647 61.3679L214.688 62.0767C214.695 62.1892 214.669 62.2867 214.609 62.3767C214.545 62.4742 214.478 62.4967 214.429 62.5079C214.358 62.5229 214.335 62.5042 214.317 62.4854C214.287 62.4592 214.249 62.4067 214.242 62.2829L214.219 61.6117C214.219 61.5104 214.17 61.4129 214.092 61.3492C214.024 61.2929 213.942 61.2629 213.855 61.2629C213.84 61.2629 213.825 61.2629 213.81 61.2629C213.495 61.3004 213.222 61.3042 212.989 61.2742C212.685 61.2329 212.434 61.1729 212.228 61.0942C212.164 61.0717 212.149 61.0454 212.138 61.0192C212.108 60.9479 212.097 60.8654 212.104 60.7754C212.112 60.6817 212.138 60.5992 212.187 60.5204C212.228 60.4529 212.273 60.4117 212.333 60.3817C212.363 60.3667 212.412 60.3704 212.464 60.3929C212.644 60.4642 212.884 60.5242 213.192 60.5692C213.51 60.6179 213.889 60.5992 214.32 60.5129C214.658 60.4454 214.928 60.3479 215.138 60.2129C215.363 60.0704 215.528 59.9017 215.629 59.7142C215.73 59.5192 215.775 59.3129 215.76 59.0954C215.749 58.9079 215.693 58.7392 215.595 58.6004C215.494 58.4504 215.337 58.3417 215.134 58.2704C214.969 58.2104 214.763 58.1804 214.515 58.1729L213.488 58.1279C213.012 58.1092 212.659 57.9929 212.445 57.7904C212.243 57.5954 212.142 57.3104 212.142 56.9167C212.142 56.6017 212.213 56.3167 212.359 56.0467C212.505 55.7767 212.708 55.5479 212.97 55.3492C213.18 55.1917 213.428 55.0642 213.713 54.9704C213.867 54.9179 213.968 54.7754 213.96 54.6142L213.942 54.0704C213.942 54.0179 213.957 53.9729 213.994 53.9279C214.032 53.8829 214.073 53.8567 214.129 53.8492C214.178 53.8417 214.189 53.8492 214.2 53.8567C214.212 53.8679 214.227 53.8754 214.227 53.9242L214.257 54.4454C214.268 54.6442 214.44 54.7979 214.639 54.7867C214.819 54.7754 214.973 54.7792 215.13 54.7979C215.359 54.8204 215.562 54.8804 215.753 54.9742C215.809 54.9967 215.82 55.0229 215.828 55.0342C215.847 55.0679 215.854 55.1017 215.847 55.1392C215.843 55.1917 215.824 55.2367 215.794 55.2817C215.779 55.3042 215.757 55.3267 215.708 55.3492C215.697 55.3529 215.652 55.3642 215.539 55.3304C215.355 55.2742 215.157 55.2367 214.943 55.2142C214.718 55.1917 214.455 55.2067 214.144 55.2629C213.728 55.3379 213.398 55.4954 213.162 55.7242C212.903 55.9754 212.772 56.2867 212.779 56.6204C212.79 56.9879 212.97 57.1942 213.117 57.2992C213.3 57.4304 213.559 57.4979 213.942 57.5167L214.95 57.5579C215.445 57.5804 215.813 57.6929 216.045 57.8879C216.27 58.0792 216.402 58.3679 216.435 58.7729C216.465 59.1179 216.417 59.4292 216.289 59.7254V59.7179Z" fill="white"/>
</g>
<path d="M262.141 35.2891C262.055 34.4827 261.692 33.8549 261.052 33.4055C260.418 32.9562 259.593 32.7315 258.577 32.7315C257.863 32.7315 257.251 32.8393 256.74 33.0547C256.229 33.2701 255.838 33.5625 255.567 33.9318C255.297 34.3011 255.158 34.7228 255.152 35.1967C255.152 35.5907 255.241 35.9323 255.42 36.2216C255.604 36.5109 255.854 36.7571 256.168 36.9602C256.482 37.1572 256.829 37.3234 257.211 37.4588C257.593 37.5942 257.977 37.7081 258.365 37.8004L260.138 38.2436C260.852 38.4098 261.538 38.6345 262.197 38.9176C262.862 39.2008 263.455 39.5578 263.979 39.9886C264.508 40.4195 264.927 40.9396 265.234 41.549C265.542 42.1584 265.696 42.8724 265.696 43.6911C265.696 44.799 265.413 45.7746 264.847 46.6179C264.28 47.455 263.462 48.1106 262.391 48.5845C261.326 49.0523 260.036 49.2862 258.522 49.2862C257.051 49.2862 255.774 49.0585 254.69 48.603C253.613 48.1475 252.77 47.4827 252.161 46.6087C251.557 45.7346 251.231 44.6697 251.182 43.4141H254.552C254.601 44.0727 254.804 44.6205 255.161 45.0575C255.518 45.4946 255.983 45.8208 256.555 46.0362C257.134 46.2517 257.78 46.3594 258.494 46.3594C259.239 46.3594 259.892 46.2486 260.452 46.027C261.018 45.7992 261.461 45.4853 261.781 45.0852C262.101 44.679 262.264 44.205 262.271 43.6634C262.264 43.1709 262.12 42.7647 261.837 42.4446C261.554 42.1184 261.156 41.8475 260.646 41.6321C260.141 41.4105 259.55 41.2135 258.873 41.0412L256.722 40.4872C255.164 40.0871 253.933 39.4808 253.028 38.6683C252.13 37.8497 251.68 36.7633 251.68 35.4091C251.68 34.295 251.982 33.3194 252.585 32.4822C253.195 31.6451 254.022 30.9957 255.069 30.5341C256.115 30.0663 257.3 29.8324 258.624 29.8324C259.965 29.8324 261.141 30.0663 262.151 30.5341C263.166 30.9957 263.963 31.639 264.542 32.4638C265.121 33.2824 265.419 34.2242 265.438 35.2891H262.141ZM272.683 49.2862C271.784 49.2862 270.975 49.1262 270.255 48.8061C269.541 48.4799 268.974 47.9998 268.556 47.3658C268.144 46.7318 267.937 45.95 267.937 45.0206C267.937 44.2204 268.085 43.5587 268.381 43.0355C268.676 42.5123 269.079 42.0938 269.59 41.7798C270.101 41.4659 270.676 41.2289 271.317 41.0689C271.963 40.9027 272.631 40.7827 273.32 40.7088C274.151 40.6226 274.825 40.5457 275.342 40.478C275.859 40.4041 276.235 40.2933 276.469 40.1456C276.709 39.9917 276.829 39.7547 276.829 39.4347V39.3793C276.829 38.6837 276.622 38.1451 276.21 37.7635C275.798 37.3819 275.204 37.1911 274.428 37.1911C273.609 37.1911 272.96 37.3696 272.48 37.7266C272.006 38.0836 271.686 38.5052 271.52 38.9915L268.399 38.5483C268.645 37.6866 269.051 36.9664 269.618 36.3878C270.184 35.803 270.876 35.366 271.695 35.0767C272.514 34.7812 273.419 34.6335 274.41 34.6335C275.093 34.6335 275.773 34.7135 276.45 34.8736C277.127 35.0336 277.746 35.2983 278.306 35.6676C278.866 36.0308 279.315 36.5263 279.654 37.1541C279.999 37.782 280.171 38.5668 280.171 39.5085V49H276.958V47.0518H276.847C276.644 47.4458 276.358 47.8151 275.988 48.1598C275.625 48.4983 275.167 48.7723 274.613 48.9815C274.065 49.1847 273.422 49.2862 272.683 49.2862ZM273.551 46.8303C274.222 46.8303 274.804 46.6979 275.296 46.4332C275.788 46.1624 276.167 45.8054 276.432 45.3622C276.702 44.919 276.838 44.4358 276.838 43.9126V42.2415C276.733 42.3277 276.555 42.4077 276.302 42.4815C276.056 42.5554 275.779 42.62 275.471 42.6754C275.164 42.7308 274.859 42.7801 274.557 42.8232C274.256 42.8662 273.994 42.9032 273.773 42.9339C273.274 43.0017 272.828 43.1125 272.434 43.2663C272.04 43.4202 271.729 43.6357 271.501 43.9126C271.273 44.1835 271.16 44.5343 271.16 44.9652C271.16 45.5807 271.384 46.0455 271.834 46.3594C272.283 46.6733 272.855 46.8303 273.551 46.8303ZM286.874 30.0909V49H283.532V30.0909H286.874ZM294.392 49.2862C293.493 49.2862 292.684 49.1262 291.964 48.8061C291.25 48.4799 290.683 47.9998 290.265 47.3658C289.853 46.7318 289.646 45.95 289.646 45.0206C289.646 44.2204 289.794 43.5587 290.089 43.0355C290.385 42.5123 290.788 42.0938 291.299 41.7798C291.81 41.4659 292.385 41.2289 293.026 41.0689C293.672 40.9027 294.34 40.7827 295.029 40.7088C295.86 40.6226 296.534 40.5457 297.051 40.478C297.568 40.4041 297.944 40.2933 298.178 40.1456C298.418 39.9917 298.538 39.7547 298.538 39.4347V39.3793C298.538 38.6837 298.331 38.1451 297.919 37.7635C297.507 37.3819 296.913 37.1911 296.137 37.1911C295.318 37.1911 294.669 37.3696 294.189 37.7266C293.715 38.0836 293.395 38.5052 293.229 38.9915L290.108 38.5483C290.354 37.6866 290.76 36.9664 291.327 36.3878C291.893 35.803 292.585 35.366 293.404 35.0767C294.223 34.7812 295.128 34.6335 296.119 34.6335C296.802 34.6335 297.482 34.7135 298.159 34.8736C298.836 35.0336 299.455 35.2983 300.015 35.6676C300.575 36.0308 301.024 36.5263 301.363 37.1541C301.708 37.782 301.88 38.5668 301.88 39.5085V49H298.667V47.0518H298.556C298.353 47.4458 298.067 47.8151 297.697 48.1598C297.334 48.4983 296.876 48.7723 296.322 48.9815C295.774 49.1847 295.131 49.2862 294.392 49.2862ZM295.26 46.8303C295.931 46.8303 296.513 46.6979 297.005 46.4332C297.497 46.1624 297.876 45.8054 298.141 45.3622C298.411 44.919 298.547 44.4358 298.547 43.9126V42.2415C298.442 42.3277 298.264 42.4077 298.011 42.4815C297.765 42.5554 297.488 42.62 297.18 42.6754C296.873 42.7308 296.568 42.7801 296.266 42.8232C295.965 42.8662 295.703 42.9032 295.482 42.9339C294.983 43.0017 294.537 43.1125 294.143 43.2663C293.749 43.4202 293.438 43.6357 293.21 43.9126C292.982 44.1835 292.869 44.5343 292.869 44.9652C292.869 45.5807 293.093 46.0455 293.543 46.3594C293.992 46.6733 294.564 46.8303 295.26 46.8303ZM316.953 49.2493C315.839 49.2493 314.842 48.9631 313.961 48.3906C313.081 47.8182 312.386 46.9872 311.875 45.8977C311.364 44.8082 311.108 43.4848 311.108 41.9276C311.108 40.3518 311.367 39.0223 311.884 37.9389C312.407 36.8494 313.112 36.0277 313.998 35.4737C314.885 34.9136 315.873 34.6335 316.962 34.6335C317.793 34.6335 318.476 34.7751 319.012 35.0582C319.547 35.3352 319.972 35.6707 320.286 36.0646C320.6 36.4524 320.843 36.8187 321.015 37.1634H321.154V30.0909H324.505V49H321.218V46.7656H321.015C320.843 47.1103 320.594 47.4766 320.267 47.8643C319.941 48.246 319.51 48.5722 318.975 48.843C318.439 49.1139 317.765 49.2493 316.953 49.2493ZM317.885 46.5071C318.593 46.5071 319.196 46.3163 319.695 45.9347C320.194 45.5469 320.572 45.0083 320.831 44.3189C321.089 43.6295 321.218 42.8262 321.218 41.9091C321.218 40.992 321.089 40.1948 320.831 39.5178C320.578 38.8407 320.203 38.3144 319.704 37.9389C319.212 37.5634 318.605 37.3757 317.885 37.3757C317.141 37.3757 316.519 37.5696 316.02 37.9574C315.522 38.3452 315.146 38.8807 314.894 39.5639C314.641 40.2472 314.515 41.0289 314.515 41.9091C314.515 42.7955 314.641 43.5864 314.894 44.282C315.152 44.9714 315.531 45.5161 316.029 45.9162C316.534 46.3101 317.153 46.5071 317.885 46.5071ZM334.345 49.277C332.923 49.277 331.695 48.9815 330.661 48.3906C329.633 47.7936 328.843 46.9503 328.289 45.8608C327.735 44.7652 327.458 43.4756 327.458 41.9922C327.458 40.5334 327.735 39.2531 328.289 38.1513C328.849 37.0433 329.63 36.1816 330.634 35.5661C331.637 34.9444 332.816 34.6335 334.17 34.6335C335.044 34.6335 335.869 34.7751 336.644 35.0582C337.426 35.3352 338.115 35.7661 338.713 36.3509C339.316 36.9356 339.79 37.6804 340.134 38.5852C340.479 39.4839 340.651 40.5549 340.651 41.7983V42.8232H329.027V40.5703H337.448C337.441 39.9302 337.303 39.3608 337.032 38.8622C336.761 38.3575 336.383 37.9605 335.896 37.6712C335.416 37.3819 334.856 37.2372 334.216 37.2372C333.533 37.2372 332.933 37.4034 332.416 37.7358C331.899 38.062 331.495 38.4929 331.206 39.0284C330.923 39.5578 330.778 40.1394 330.772 40.7734V42.7401C330.772 43.5649 330.923 44.2727 331.225 44.8636C331.526 45.4484 331.948 45.8977 332.49 46.2116C333.031 46.5194 333.665 46.6733 334.392 46.6733C334.878 46.6733 335.318 46.6056 335.712 46.4702C336.106 46.3286 336.447 46.1224 336.737 45.8516C337.026 45.5807 337.244 45.2453 337.392 44.8452L340.513 45.196C340.316 46.0208 339.941 46.741 339.387 47.3565C338.839 47.9659 338.137 48.4399 337.281 48.7784C336.426 49.1108 335.447 49.277 334.345 49.277ZM352.606 30.0909L357.527 44.9744H357.721L362.633 30.0909H366.4L359.734 49H355.505L348.848 30.0909H352.606ZM373.498 49.277C372.076 49.277 370.848 48.9815 369.814 48.3906C368.786 47.7936 367.995 46.9503 367.441 45.8608C366.887 44.7652 366.61 43.4756 366.61 41.9922C366.61 40.5334 366.887 39.2531 367.441 38.1513C368.001 37.0433 368.783 36.1816 369.786 35.5661C370.789 34.9444 371.968 34.6335 373.322 34.6335C374.196 34.6335 375.021 34.7751 375.797 35.0582C376.578 35.3352 377.268 35.7661 377.865 36.3509C378.468 36.9356 378.942 37.6804 379.287 38.5852C379.631 39.4839 379.804 40.5549 379.804 41.7983V42.8232H368.18V40.5703H376.6C376.594 39.9302 376.455 39.3608 376.184 38.8622C375.914 38.3575 375.535 37.9605 375.049 37.6712C374.569 37.3819 374.009 37.2372 373.368 37.2372C372.685 37.2372 372.085 37.4034 371.568 37.7358C371.051 38.062 370.648 38.4929 370.358 39.0284C370.075 39.5578 369.931 40.1394 369.925 40.7734V42.7401C369.925 43.5649 370.075 44.2727 370.377 44.8636C370.679 45.4484 371.1 45.8977 371.642 46.2116C372.184 46.5194 372.818 46.6733 373.544 46.6733C374.03 46.6733 374.47 46.6056 374.864 46.4702C375.258 46.3286 375.6 46.1224 375.889 45.8516C376.178 45.5807 376.397 45.2453 376.545 44.8452L379.665 45.196C379.468 46.0208 379.093 46.741 378.539 47.3565C377.991 47.9659 377.289 48.4399 376.434 48.7784C375.578 49.1108 374.599 49.277 373.498 49.277ZM385.974 40.6903V49H382.631V34.8182H385.826V37.228H385.992C386.318 36.4339 386.839 35.803 387.553 35.3352C388.273 34.8674 389.162 34.6335 390.221 34.6335C391.2 34.6335 392.052 34.8428 392.778 35.2614C393.511 35.6799 394.077 36.2862 394.477 37.0803C394.884 37.8743 395.084 38.8376 395.077 39.9702V49H391.735V40.4872C391.735 39.5393 391.489 38.7976 390.996 38.2621C390.51 37.7266 389.836 37.4588 388.974 37.4588C388.39 37.4588 387.87 37.5881 387.414 37.8466C386.965 38.099 386.611 38.4652 386.352 38.9453C386.1 39.4254 385.974 40.0071 385.974 40.6903ZM405.557 34.8182V37.4034H397.404V34.8182H405.557ZM399.417 31.4205H402.759V44.7344C402.759 45.1837 402.827 45.5284 402.962 45.7685C403.104 46.0024 403.289 46.1624 403.516 46.2486C403.744 46.3348 403.996 46.3778 404.273 46.3778C404.483 46.3778 404.674 46.3625 404.846 46.3317C405.024 46.3009 405.16 46.2732 405.252 46.2486L405.815 48.8615C405.637 48.9231 405.381 48.9908 405.049 49.0646C404.723 49.1385 404.323 49.1816 403.849 49.1939C403.012 49.2185 402.258 49.0923 401.587 48.8153C400.916 48.5322 400.383 48.0952 399.989 47.5043C399.602 46.9134 399.411 46.1747 399.417 45.2884V31.4205ZM412.433 49.2862C411.534 49.2862 410.725 49.1262 410.005 48.8061C409.291 48.4799 408.724 47.9998 408.306 47.3658C407.894 46.7318 407.687 45.95 407.687 45.0206C407.687 44.2204 407.835 43.5587 408.131 43.0355C408.426 42.5123 408.829 42.0938 409.34 41.7798C409.851 41.4659 410.426 41.2289 411.067 41.0689C411.713 40.9027 412.381 40.7827 413.07 40.7088C413.901 40.6226 414.575 40.5457 415.092 40.478C415.609 40.4041 415.985 40.2933 416.219 40.1456C416.459 39.9917 416.579 39.7547 416.579 39.4347V39.3793C416.579 38.6837 416.372 38.1451 415.96 37.7635C415.548 37.3819 414.954 37.1911 414.178 37.1911C413.359 37.1911 412.71 37.3696 412.23 37.7266C411.756 38.0836 411.436 38.5052 411.27 38.9915L408.149 38.5483C408.395 37.6866 408.801 36.9664 409.368 36.3878C409.934 35.803 410.626 35.366 411.445 35.0767C412.264 34.7812 413.169 34.6335 414.16 34.6335C414.843 34.6335 415.523 34.7135 416.2 34.8736C416.877 35.0336 417.496 35.2983 418.056 35.6676C418.616 36.0308 419.065 36.5263 419.404 37.1541C419.749 37.782 419.921 38.5668 419.921 39.5085V49H416.708V47.0518H416.597C416.394 47.4458 416.108 47.8151 415.738 48.1598C415.375 48.4983 414.917 48.7723 414.363 48.9815C413.815 49.1847 413.172 49.2862 412.433 49.2862ZM413.301 46.8303C413.972 46.8303 414.554 46.6979 415.046 46.4332C415.538 46.1624 415.917 45.8054 416.182 45.3622C416.452 44.919 416.588 44.4358 416.588 43.9126V42.2415C416.483 42.3277 416.305 42.4077 416.052 42.4815C415.806 42.5554 415.529 42.62 415.221 42.6754C414.914 42.7308 414.609 42.7801 414.307 42.8232C414.006 42.8662 413.744 42.9032 413.523 42.9339C413.024 43.0017 412.578 43.1125 412.184 43.2663C411.79 43.4202 411.479 43.6357 411.251 43.9126C411.023 44.1835 410.91 44.5343 410.91 44.9652C410.91 45.5807 411.134 46.0455 411.584 46.3594C412.033 46.6733 412.605 46.8303 413.301 46.8303ZM434.491 38.5668L431.444 38.8991C431.358 38.5914 431.207 38.3021 430.991 38.0312C430.782 37.7604 430.499 37.5419 430.142 37.3757C429.785 37.2095 429.348 37.1264 428.831 37.1264C428.135 37.1264 427.55 37.2772 427.077 37.5788C426.609 37.8804 426.378 38.2713 426.384 38.7514C426.378 39.1638 426.529 39.4993 426.836 39.7578C427.15 40.0163 427.667 40.2287 428.388 40.3949L430.807 40.9119C432.148 41.2012 433.146 41.6598 433.798 42.2876C434.457 42.9155 434.789 43.7372 434.795 44.7528C434.789 45.6454 434.528 46.4332 434.01 47.1165C433.5 47.7936 432.789 48.3229 431.878 48.7045C430.967 49.0862 429.92 49.277 428.738 49.277C427.003 49.277 425.605 48.9138 424.547 48.1875C423.488 47.455 422.857 46.4363 422.654 45.1314L425.913 44.8175C426.061 45.4576 426.375 45.9408 426.855 46.267C427.335 46.5933 427.96 46.7564 428.729 46.7564C429.523 46.7564 430.16 46.5933 430.64 46.267C431.127 45.9408 431.37 45.5376 431.37 45.0575C431.37 44.6513 431.213 44.3158 430.899 44.0511C430.591 43.7865 430.111 43.5833 429.459 43.4418L427.04 42.9339C425.679 42.6508 424.673 42.1738 424.02 41.5028C423.368 40.8258 423.045 39.9702 423.051 38.9361C423.045 38.062 423.282 37.3049 423.762 36.6648C424.248 36.0185 424.922 35.5199 425.784 35.169C426.652 34.812 427.652 34.6335 428.785 34.6335C430.447 34.6335 431.755 34.9875 432.709 35.6953C433.669 36.4032 434.263 37.3603 434.491 38.5668ZM254.293 80H250.637L257.294 61.0909H261.523L268.189 80H264.533L259.482 64.9688H259.335L254.293 80ZM254.413 72.5859H264.385V75.3374H254.413V72.5859ZM281.422 65.8182L276.372 80H272.678L267.628 65.8182H271.192L274.451 76.353H274.599L277.867 65.8182H281.422ZM284.905 80.2031C284.345 80.2031 283.865 80.0062 283.465 79.6122C283.065 79.2183 282.868 78.7382 282.874 78.1719C282.868 77.6179 283.065 77.1439 283.465 76.75C283.865 76.3561 284.345 76.1591 284.905 76.1591C285.447 76.1591 285.918 76.3561 286.318 76.75C286.724 77.1439 286.93 77.6179 286.936 78.1719C286.93 78.5473 286.832 78.889 286.641 79.1967C286.456 79.5045 286.21 79.7507 285.902 79.9354C285.601 80.1139 285.268 80.2031 284.905 80.2031ZM313.297 70.5455C313.297 72.5829 312.915 74.3279 312.152 75.7805C311.395 77.227 310.36 78.335 309.049 79.1044C307.744 79.8738 306.264 80.2585 304.608 80.2585C302.953 80.2585 301.469 79.8738 300.158 79.1044C298.853 78.3288 297.819 77.2178 297.056 75.7713C296.299 74.3187 295.92 72.5767 295.92 70.5455C295.92 68.508 296.299 66.7661 297.056 65.3196C297.819 63.867 298.853 62.7559 300.158 61.9865C301.469 61.2171 302.953 60.8324 304.608 60.8324C306.264 60.8324 307.744 61.2171 309.049 61.9865C310.36 62.7559 311.395 63.867 312.152 65.3196C312.915 66.7661 313.297 68.508 313.297 70.5455ZM309.853 70.5455C309.853 69.1113 309.628 67.9018 309.179 66.9169C308.735 65.9259 308.12 65.178 307.332 64.6733C306.544 64.1624 305.636 63.907 304.608 63.907C303.58 63.907 302.672 64.1624 301.885 64.6733C301.097 65.178 300.478 65.9259 300.029 66.9169C299.586 67.9018 299.364 69.1113 299.364 70.5455C299.364 71.9796 299.586 73.1922 300.029 74.1832C300.478 75.1681 301.097 75.916 301.885 76.4268C302.672 76.9316 303.58 77.1839 304.608 77.1839C305.636 77.1839 306.544 76.9316 307.332 76.4268C308.12 75.916 308.735 75.1681 309.179 74.1832C309.628 73.1922 309.853 71.9796 309.853 70.5455ZM327.596 69.5668L324.549 69.8991C324.463 69.5914 324.312 69.3021 324.097 69.0312C323.887 68.7604 323.604 68.5419 323.247 68.3757C322.89 68.2095 322.453 68.1264 321.936 68.1264C321.241 68.1264 320.656 68.2772 320.182 68.5788C319.714 68.8804 319.483 69.2713 319.49 69.7514C319.483 70.1638 319.634 70.4993 319.942 70.7578C320.256 71.0163 320.773 71.2287 321.493 71.3949L323.912 71.9119C325.254 72.2012 326.251 72.6598 326.904 73.2876C327.562 73.9155 327.895 74.7372 327.901 75.7528C327.895 76.6454 327.633 77.4332 327.116 78.1165C326.605 78.7936 325.894 79.3229 324.983 79.7045C324.072 80.0862 323.026 80.277 321.844 80.277C320.108 80.277 318.711 79.9138 317.652 79.1875C316.593 78.455 315.963 77.4363 315.759 76.1314L319.019 75.8175C319.166 76.4576 319.48 76.9408 319.96 77.267C320.441 77.5933 321.065 77.7564 321.835 77.7564C322.629 77.7564 323.266 77.5933 323.746 77.267C324.232 76.9408 324.475 76.5376 324.475 76.0575C324.475 75.6513 324.318 75.3158 324.004 75.0511C323.697 74.7865 323.217 74.5833 322.564 74.4418L320.145 73.9339C318.785 73.6508 317.778 73.1738 317.126 72.5028C316.473 71.8258 316.15 70.9702 316.156 69.9361C316.15 69.062 316.387 68.3049 316.867 67.6648C317.354 67.0185 318.028 66.5199 318.889 66.169C319.757 65.812 320.758 65.6335 321.89 65.6335C323.552 65.6335 324.86 65.9875 325.814 66.6953C326.774 67.4032 327.368 68.3603 327.596 69.5668ZM336.843 80.277C335.427 80.277 334.211 79.9661 333.196 79.3445C332.186 78.7228 331.408 77.8641 330.86 76.7685C330.318 75.6667 330.047 74.3987 330.047 72.9645C330.047 71.5241 330.324 70.2531 330.878 69.1513C331.432 68.0433 332.214 67.1816 333.224 66.5661C334.239 65.9444 335.439 65.6335 336.824 65.6335C337.975 65.6335 338.994 65.8459 339.881 66.2706C340.773 66.6892 341.484 67.2831 342.013 68.0526C342.543 68.8158 342.844 69.7083 342.918 70.7301H339.724C339.594 70.0469 339.287 69.4775 338.8 69.022C338.32 68.5604 337.677 68.3295 336.871 68.3295C336.187 68.3295 335.587 68.5142 335.07 68.8835C334.553 69.2467 334.15 69.7699 333.861 70.4531C333.577 71.1364 333.436 71.955 333.436 72.9091C333.436 73.8755 333.577 74.7064 333.861 75.402C334.144 76.0914 334.541 76.6238 335.052 76.9993C335.569 77.3686 336.175 77.5533 336.871 77.5533C337.363 77.5533 337.803 77.4609 338.191 77.2763C338.585 77.0855 338.914 76.8116 339.179 76.4545C339.443 76.0975 339.625 75.6636 339.724 75.1527H342.918C342.838 76.156 342.543 77.0455 342.032 77.821C341.521 78.5904 340.825 79.1937 339.945 79.6307C339.065 80.0616 338.031 80.277 336.843 80.277ZM349.744 80.2862C348.845 80.2862 348.036 80.1262 347.315 79.8061C346.601 79.4799 346.035 78.9998 345.616 78.3658C345.204 77.7318 344.998 76.95 344.998 76.0206C344.998 75.2204 345.146 74.5587 345.441 74.0355C345.737 73.5123 346.14 73.0938 346.651 72.7798C347.161 72.4659 347.737 72.2289 348.377 72.0689C349.023 71.9027 349.691 71.7827 350.381 71.7088C351.212 71.6226 351.886 71.5457 352.403 71.478C352.92 71.4041 353.295 71.2933 353.529 71.1456C353.769 70.9917 353.889 70.7547 353.889 70.4347V70.3793C353.889 69.6837 353.683 69.1451 353.271 68.7635C352.858 68.3819 352.264 68.1911 351.489 68.1911C350.67 68.1911 350.021 68.3696 349.54 68.7266C349.067 69.0836 348.746 69.5052 348.58 69.9915L345.46 69.5483C345.706 68.6866 346.112 67.9664 346.678 67.3878C347.245 66.803 347.937 66.366 348.756 66.0767C349.574 65.7812 350.479 65.6335 351.47 65.6335C352.153 65.6335 352.834 65.7135 353.511 65.8736C354.188 66.0336 354.806 66.2983 355.366 66.6676C355.927 67.0308 356.376 67.5263 356.714 68.1541C357.059 68.782 357.232 69.5668 357.232 70.5085V80H354.018V78.0518H353.908C353.705 78.4458 353.418 78.8151 353.049 79.1598C352.686 79.4983 352.227 79.7723 351.673 79.9815C351.125 80.1847 350.482 80.2862 349.744 80.2862ZM350.612 77.8303C351.282 77.8303 351.864 77.6979 352.357 77.4332C352.849 77.1624 353.228 76.8054 353.492 76.3622C353.763 75.919 353.898 75.4358 353.898 74.9126V73.2415C353.794 73.3277 353.615 73.4077 353.363 73.4815C353.117 73.5554 352.84 73.62 352.532 73.6754C352.224 73.7308 351.92 73.7801 351.618 73.8232C351.316 73.8662 351.055 73.9032 350.833 73.9339C350.335 74.0017 349.888 74.1125 349.494 74.2663C349.1 74.4202 348.79 74.6357 348.562 74.9126C348.334 75.1835 348.22 75.5343 348.22 75.9652C348.22 76.5807 348.445 77.0455 348.894 77.3594C349.344 77.6733 349.916 77.8303 350.612 77.8303ZM360.592 80V65.8182H363.833V68.1818H363.981C364.239 67.3632 364.683 66.7322 365.31 66.2891C365.944 65.8397 366.668 65.6151 367.48 65.6151C367.665 65.6151 367.871 65.6243 368.099 65.6428C368.333 65.6551 368.527 65.6766 368.68 65.7074V68.782C368.539 68.7327 368.314 68.6896 368.006 68.6527C367.705 68.6096 367.412 68.5881 367.129 68.5881C366.52 68.5881 365.972 68.7204 365.486 68.9851C365.006 69.2436 364.627 69.6037 364.35 70.0653C364.073 70.527 363.935 71.0594 363.935 71.6626V80H360.592ZM377.498 80V61.0909H384.589C386.041 61.0909 387.26 61.3433 388.245 61.848C389.236 62.3527 389.984 63.0606 390.489 63.9716C391 64.8764 391.255 65.9321 391.255 67.1385C391.255 68.3511 390.996 69.4036 390.479 70.2962C389.969 71.1825 389.214 71.8688 388.217 72.3551C387.22 72.8352 385.995 73.0753 384.543 73.0753H379.492V70.2315H384.081C384.93 70.2315 385.626 70.1146 386.168 69.8807C386.709 69.6406 387.109 69.2928 387.368 68.8374C387.633 68.3757 387.765 67.8094 387.765 67.1385C387.765 66.4676 387.633 65.8951 387.368 65.4212C387.103 64.9411 386.7 64.5779 386.158 64.3317C385.617 64.0793 384.918 63.9531 384.062 63.9531H380.923V80H377.498ZM387.266 71.4318L391.947 80H388.125L383.527 71.4318H387.266ZM396.319 80.2031C395.759 80.2031 395.279 80.0062 394.879 79.6122C394.479 79.2183 394.282 78.7382 394.288 78.1719C394.282 77.6179 394.479 77.1439 394.879 76.75C395.279 76.3561 395.759 76.1591 396.319 76.1591C396.861 76.1591 397.332 76.3561 397.732 76.75C398.138 77.1439 398.344 77.6179 398.35 78.1719C398.344 78.5473 398.246 78.889 398.055 79.1967C397.87 79.5045 397.624 79.7507 397.316 79.9354C397.015 80.1139 396.682 80.2031 396.319 80.2031ZM407.814 80V61.0909H415.053C416.419 61.0909 417.555 61.3063 418.46 61.7372C419.371 62.1619 420.051 62.7436 420.5 63.4822C420.956 64.2209 421.184 65.058 421.184 65.9936C421.184 66.763 421.036 67.4216 420.74 67.9695C420.445 68.5111 420.048 68.9512 419.549 69.2898C419.051 69.6283 418.494 69.8714 417.878 70.0192V70.2038C418.549 70.2408 419.192 70.447 419.808 70.8224C420.43 71.1918 420.937 71.715 421.331 72.392C421.725 73.0691 421.922 73.8878 421.922 74.848C421.922 75.8267 421.685 76.7069 421.211 77.4886C420.737 78.2642 420.023 78.8767 419.069 79.326C418.115 79.7753 416.915 80 415.468 80H407.814ZM411.24 77.1378H414.924C416.167 77.1378 417.063 76.9008 417.61 76.4268C418.164 75.9467 418.441 75.3312 418.441 74.5803C418.441 74.0201 418.303 73.5154 418.026 73.0661C417.749 72.6106 417.355 72.2536 416.844 71.995C416.333 71.7304 415.724 71.598 415.016 71.598H411.24V77.1378ZM411.24 69.1328H414.628C415.219 69.1328 415.752 69.0251 416.225 68.8097C416.699 68.5881 417.072 68.2772 417.343 67.8771C417.62 67.4709 417.758 66.9908 417.758 66.4368C417.758 65.7043 417.5 65.1011 416.983 64.6271C416.472 64.1532 415.712 63.9162 414.702 63.9162H411.24V69.1328ZM431.033 80.277C429.611 80.277 428.383 79.9815 427.349 79.3906C426.321 78.7936 425.53 77.9503 424.976 76.8608C424.422 75.7652 424.145 74.4756 424.145 72.9922C424.145 71.5334 424.422 70.2531 424.976 69.1513C425.536 68.0433 426.318 67.1816 427.321 66.5661C428.325 65.9444 429.503 65.6335 430.857 65.6335C431.731 65.6335 432.556 65.7751 433.332 66.0582C434.114 66.3352 434.803 66.7661 435.4 67.3509C436.003 67.9356 436.477 68.6804 436.822 69.5852C437.167 70.4839 437.339 71.5549 437.339 72.7983V73.8232H425.715V71.5703H434.135C434.129 70.9302 433.99 70.3608 433.72 69.8622C433.449 69.3575 433.07 68.9605 432.584 68.6712C432.104 68.3819 431.544 68.2372 430.904 68.2372C430.22 68.2372 429.62 68.4034 429.103 68.7358C428.586 69.062 428.183 69.4929 427.894 70.0284C427.61 70.5578 427.466 71.1394 427.46 71.7734V73.7401C427.46 74.5649 427.61 75.2727 427.912 75.8636C428.214 76.4484 428.635 76.8977 429.177 77.2116C429.719 77.5194 430.353 77.6733 431.079 77.6733C431.565 77.6733 432.005 77.6056 432.399 77.4702C432.793 77.3286 433.135 77.1224 433.424 76.8516C433.713 76.5807 433.932 76.2453 434.08 75.8452L437.2 76.196C437.003 77.0208 436.628 77.741 436.074 78.3565C435.526 78.9659 434.825 79.4399 433.969 79.7784C433.113 80.1108 432.135 80.277 431.033 80.277ZM443.509 71.6903V80H440.167V65.8182H443.361V68.228H443.527C443.854 67.4339 444.374 66.803 445.088 66.3352C445.808 65.8674 446.697 65.6335 447.756 65.6335C448.735 65.6335 449.587 65.8428 450.314 66.2614C451.046 66.6799 451.612 67.2862 452.012 68.0803C452.419 68.8743 452.619 69.8376 452.613 70.9702V80H449.27V71.4872C449.27 70.5393 449.024 69.7976 448.532 69.2621C448.045 68.7266 447.371 68.4588 446.51 68.4588C445.925 68.4588 445.405 68.5881 444.949 68.8466C444.5 69.099 444.146 69.4652 443.887 69.9453C443.635 70.4254 443.509 71.0071 443.509 71.6903ZM460.091 80.2862C459.193 80.2862 458.383 80.1262 457.663 79.8061C456.949 79.4799 456.383 78.9998 455.964 78.3658C455.552 77.7318 455.346 76.95 455.346 76.0206C455.346 75.2204 455.493 74.5587 455.789 74.0355C456.084 73.5123 456.487 73.0938 456.998 72.7798C457.509 72.4659 458.085 72.2289 458.725 72.0689C459.371 71.9027 460.039 71.7827 460.728 71.7088C461.559 71.6226 462.233 71.5457 462.75 71.478C463.267 71.4041 463.643 71.2933 463.877 71.1456C464.117 70.9917 464.237 70.7547 464.237 70.4347V70.3793C464.237 69.6837 464.031 69.1451 463.618 68.7635C463.206 68.3819 462.612 68.1911 461.836 68.1911C461.018 68.1911 460.368 68.3696 459.888 68.7266C459.414 69.0836 459.094 69.5052 458.928 69.9915L455.807 69.5483C456.053 68.6866 456.46 67.9664 457.026 67.3878C457.592 66.803 458.285 66.366 459.103 66.0767C459.922 65.7812 460.827 65.6335 461.818 65.6335C462.501 65.6335 463.181 65.7135 463.858 65.8736C464.535 66.0336 465.154 66.2983 465.714 66.6676C466.274 67.0308 466.724 67.5263 467.062 68.1541C467.407 68.782 467.579 69.5668 467.579 70.5085V80H464.366V78.0518H464.255C464.052 78.4458 463.766 78.8151 463.397 79.1598C463.033 79.4983 462.575 79.7723 462.021 79.9815C461.473 80.1847 460.83 80.2862 460.091 80.2862ZM460.959 77.8303C461.63 77.8303 462.212 77.6979 462.704 77.4332C463.197 77.1624 463.575 76.8054 463.84 76.3622C464.111 75.919 464.246 75.4358 464.246 74.9126V73.2415C464.141 73.3277 463.963 73.4077 463.711 73.4815C463.464 73.5554 463.187 73.62 462.88 73.6754C462.572 73.7308 462.267 73.7801 461.966 73.8232C461.664 73.8662 461.402 73.9032 461.181 73.9339C460.682 74.0017 460.236 74.1125 459.842 74.2663C459.448 74.4202 459.137 74.6357 458.909 74.9126C458.682 75.1835 458.568 75.5343 458.568 75.9652C458.568 76.5807 458.792 77.0455 459.242 77.3594C459.691 77.6733 460.264 77.8303 460.959 77.8303ZM483.1 65.8182L478.049 80H474.356L469.306 65.8182H472.87L476.129 76.353H476.277L479.545 65.8182H483.1ZM485.413 80V65.8182H488.755V80H485.413ZM487.093 63.8054C486.564 63.8054 486.108 63.63 485.727 63.2791C485.345 62.9221 485.154 62.4943 485.154 61.9957C485.154 61.491 485.345 61.0632 485.727 60.7124C486.108 60.3553 486.564 60.1768 487.093 60.1768C487.629 60.1768 488.084 60.3553 488.46 60.7124C488.841 61.0632 489.032 61.491 489.032 61.9957C489.032 62.4943 488.841 62.9221 488.46 63.2791C488.084 63.63 487.629 63.8054 487.093 63.8054ZM497.455 80.2493C496.341 80.2493 495.343 79.9631 494.463 79.3906C493.583 78.8182 492.887 77.9872 492.377 76.8977C491.866 75.8082 491.61 74.4848 491.61 72.9276C491.61 71.3518 491.869 70.0223 492.386 68.9389C492.909 67.8494 493.614 67.0277 494.5 66.4737C495.387 65.9136 496.374 65.6335 497.464 65.6335C498.295 65.6335 498.978 65.7751 499.514 66.0582C500.049 66.3352 500.474 66.6707 500.788 67.0646C501.102 67.4524 501.345 67.8187 501.517 68.1634H501.656V61.0909H505.007V80H501.72V77.7656H501.517C501.345 78.1103 501.096 78.4766 500.769 78.8643C500.443 79.246 500.012 79.5722 499.477 79.843C498.941 80.1139 498.267 80.2493 497.455 80.2493ZM498.387 77.5071C499.095 77.5071 499.698 77.3163 500.197 76.9347C500.695 76.5469 501.074 76.0083 501.333 75.3189C501.591 74.6295 501.72 73.8262 501.72 72.9091C501.72 71.992 501.591 71.1948 501.333 70.5178C501.08 69.8407 500.705 69.3144 500.206 68.9389C499.714 68.5634 499.107 68.3757 498.387 68.3757C497.642 68.3757 497.021 68.5696 496.522 68.9574C496.024 69.3452 495.648 69.8807 495.396 70.5639C495.143 71.2472 495.017 72.0289 495.017 72.9091C495.017 73.7955 495.143 74.5864 495.396 75.282C495.654 75.9714 496.033 76.5161 496.531 76.9162C497.036 77.3101 497.655 77.5071 498.387 77.5071ZM514.847 80.277C513.425 80.277 512.197 79.9815 511.163 79.3906C510.135 78.7936 509.344 77.9503 508.79 76.8608C508.237 75.7652 507.96 74.4756 507.96 72.9922C507.96 71.5334 508.237 70.2531 508.79 69.1513C509.351 68.0433 510.132 67.1816 511.136 66.5661C512.139 65.9444 513.318 65.6335 514.672 65.6335C515.546 65.6335 516.371 65.7751 517.146 66.0582C517.928 66.3352 518.617 66.7661 519.214 67.3509C519.818 67.9356 520.292 68.6804 520.636 69.5852C520.981 70.4839 521.153 71.5549 521.153 72.7983V73.8232H509.529V71.5703H517.95C517.943 70.9302 517.805 70.3608 517.534 69.8622C517.263 69.3575 516.885 68.9605 516.398 68.6712C515.918 68.3819 515.358 68.2372 514.718 68.2372C514.035 68.2372 513.435 68.4034 512.918 68.7358C512.401 69.062 511.997 69.4929 511.708 70.0284C511.425 70.5578 511.28 71.1394 511.274 71.7734V73.7401C511.274 74.5649 511.425 75.2727 511.727 75.8636C512.028 76.4484 512.45 76.8977 512.991 77.2116C513.533 77.5194 514.167 77.6733 514.893 77.6733C515.38 77.6733 515.82 77.6056 516.214 77.4702C516.608 77.3286 516.949 77.1224 517.239 76.8516C517.528 76.5807 517.746 76.2453 517.894 75.8452L521.015 76.196C520.818 77.0208 520.442 77.741 519.888 78.3565C519.341 78.9659 518.639 79.4399 517.783 79.7784C516.928 80.1108 515.949 80.277 514.847 80.277ZM535.19 69.5668L532.143 69.8991C532.057 69.5914 531.906 69.3021 531.691 69.0312C531.481 68.7604 531.198 68.5419 530.841 68.3757C530.484 68.2095 530.047 68.1264 529.53 68.1264C528.834 68.1264 528.25 68.2772 527.776 68.5788C527.308 68.8804 527.077 69.2713 527.083 69.7514C527.077 70.1638 527.228 70.4993 527.536 70.7578C527.85 71.0163 528.367 71.2287 529.087 71.3949L531.506 71.9119C532.848 72.2012 533.845 72.6598 534.497 73.2876C535.156 73.9155 535.488 74.7372 535.494 75.7528C535.488 76.6454 535.227 77.4332 534.71 78.1165C534.199 78.7936 533.488 79.3229 532.577 79.7045C531.666 80.0862 530.619 80.277 529.438 80.277C527.702 80.277 526.305 79.9138 525.246 79.1875C524.187 78.455 523.556 77.4363 523.353 76.1314L526.612 75.8175C526.76 76.4576 527.074 76.9408 527.554 77.267C528.034 77.5933 528.659 77.7564 529.428 77.7564C530.222 77.7564 530.86 77.5933 531.34 77.267C531.826 76.9408 532.069 76.5376 532.069 76.0575C532.069 75.6513 531.912 75.3158 531.598 75.0511C531.29 74.7865 530.81 74.5833 530.158 74.4418L527.739 73.9339C526.378 73.6508 525.372 73.1738 524.72 72.5028C524.067 71.8258 523.744 70.9702 523.75 69.9361C523.744 69.062 523.981 68.3049 524.461 67.6648C524.947 67.0185 525.621 66.5199 526.483 66.169C527.351 65.812 528.351 65.6335 529.484 65.6335C531.146 65.6335 532.454 65.9875 533.408 66.6953C534.368 67.4032 534.962 68.3603 535.19 69.5668ZM552.354 61.0909V80H548.928V64.424H548.818L544.395 67.2493V64.1101L549.095 61.0909H552.354ZM557.155 80V77.5256L563.72 71.0902C564.347 70.4562 564.871 69.893 565.289 69.4006C565.708 68.9081 566.022 68.4311 566.231 67.9695C566.44 67.5078 566.545 67.0154 566.545 66.4922C566.545 65.8951 566.41 65.3842 566.139 64.9595C565.868 64.5286 565.495 64.1963 565.021 63.9624C564.548 63.7285 564.009 63.6115 563.406 63.6115C562.784 63.6115 562.239 63.7408 561.771 63.9993C561.304 64.2517 560.941 64.6117 560.682 65.0795C560.43 65.5473 560.303 66.1044 560.303 66.7507H557.044C557.044 65.5504 557.318 64.5071 557.866 63.6207C558.414 62.7344 559.168 62.0481 560.128 61.5618C561.094 61.0755 562.202 60.8324 563.452 60.8324C564.72 60.8324 565.834 61.0694 566.794 61.5433C567.754 62.0173 568.499 62.6667 569.029 63.4915C569.564 64.3163 569.832 65.258 569.832 66.3168C569.832 67.0246 569.696 67.7202 569.426 68.4034C569.155 69.0866 568.678 69.8437 567.994 70.6747C567.317 71.5057 566.366 72.5121 565.142 73.6939L561.882 77.0085V77.1378H570.118V80H557.155ZM580.994 61.0909V80H577.569V64.424H577.458L573.036 67.2493V64.1101L577.735 61.0909H580.994ZM585.796 80V77.5256L592.36 71.0902C592.988 70.4562 593.511 69.893 593.93 69.4006C594.348 68.9081 594.662 68.4311 594.872 67.9695C595.081 67.5078 595.186 67.0154 595.186 66.4922C595.186 65.8951 595.05 65.3842 594.779 64.9595C594.508 64.5286 594.136 64.1963 593.662 63.9624C593.188 63.7285 592.65 63.6115 592.046 63.6115C591.425 63.6115 590.88 63.7408 590.412 63.9993C589.944 64.2517 589.581 64.6117 589.323 65.0795C589.07 65.5473 588.944 66.1044 588.944 66.7507H585.685C585.685 65.5504 585.959 64.5071 586.507 63.6207C587.054 62.7344 587.808 62.0481 588.769 61.5618C589.735 61.0755 590.843 60.8324 592.093 60.8324C593.36 60.8324 594.475 61.0694 595.435 61.5433C596.395 62.0173 597.14 62.6667 597.669 63.4915C598.205 64.3163 598.472 65.258 598.472 66.3168C598.472 67.0246 598.337 67.7202 598.066 68.4034C597.795 69.0866 597.318 69.8437 596.635 70.6747C595.958 71.5057 595.007 72.5121 593.782 73.6939L590.523 77.0085V77.1378H598.759V80H585.796Z" fill="white"/>
<defs>
<clipPath id="clip0_176_102667">
<rect width="24" height="24" fill="white" transform="translate(200 43)"/>
</clipPath>
</defs>
</svg>
