<svg width="417" height="147" viewBox="0 0 417 147" fill="none" xmlns="http://www.w3.org/2000/svg">
<g clip-path="url(#clip0_310_19276)">
<path d="M81 123.238L33.3904 147L0 130.341V128.261L81 121.158V123.238Z" fill="#6586C9"/>
<path opacity="0.5" d="M38.9073 123.686L0 128.261V130.34L33.3373 146.974L38.9073 123.686Z" fill="#1E283A"/>
<path d="M81 121.157L33.3904 144.923L0 128.26L48.1613 104.885L81 121.157Z" fill="#91AFF9"/>
<path d="M70.7734 95.7377L71.6275 96.1038L77.1364 57.782L76.2797 57.416L70.7734 60.575V95.7377Z" fill="#6586C9"/>
<path d="M71.627 96.103L77.1359 92.944V57.7812L71.627 60.9402V96.103Z" fill="#91AFF9"/>
<path d="M73.0605 62.9648V67.214" stroke="white" stroke-width="2.3488" stroke-miterlimit="10" stroke-linecap="round" stroke-linejoin="round"/>
<path d="M75.7969 65.5343V61.2852" stroke="white" stroke-width="2.3488" stroke-miterlimit="10" stroke-linecap="round" stroke-linejoin="round"/>
<path d="M73.1172 64.813L75.7191 63.4258" stroke="white" stroke-width="2.3488" stroke-miterlimit="10" stroke-linecap="round" stroke-linejoin="round"/>
<path d="M73.0605 82.7051V86.9542" stroke="white" stroke-width="2.3488" stroke-miterlimit="10" stroke-linecap="round" stroke-linejoin="round"/>
<path d="M73.1172 84.553L74.7882 83.6777" stroke="white" stroke-width="2.3488" stroke-miterlimit="10" stroke-linecap="round" stroke-linejoin="round"/>
<path d="M73.1172 82.6274L75.7191 81.2402" stroke="white" stroke-width="2.3488" stroke-miterlimit="10" stroke-linecap="round" stroke-linejoin="round"/>
<path d="M73.1172 87.0356L75.7191 85.6484" stroke="white" stroke-width="2.3488" stroke-miterlimit="10" stroke-linecap="round" stroke-linejoin="round"/>
<path d="M73.0605 88.5996V92.8487" stroke="white" stroke-width="2.3488" stroke-miterlimit="10" stroke-linecap="round" stroke-linejoin="round"/>
<path d="M73.1172 92.9302L75.7191 91.543" stroke="white" stroke-width="2.3488" stroke-miterlimit="10" stroke-linecap="round" stroke-linejoin="round"/>
<path d="M73.2157 70.81C73.1441 72.1892 73.656 73.3377 74.3615 73.3775C75.067 73.4146 75.6983 72.3272 75.7699 70.9453C75.8441 69.566 75.3296 68.4175 74.6241 68.3778C73.9185 68.3433 73.2873 69.4308 73.2157 70.81Z" stroke="white" stroke-width="2.3488" stroke-miterlimit="10" stroke-linecap="round" stroke-linejoin="round"/>
<path d="M72.9355 76.3789L74.458 75.5487L76.0812 74.6602" stroke="white" stroke-width="2.3488" stroke-miterlimit="10" stroke-linecap="round" stroke-linejoin="round"/>
<path d="M74.5586 80.3576V75.5488" stroke="white" stroke-width="2.3488" stroke-miterlimit="10" stroke-linecap="round" stroke-linejoin="round"/>
<path d="M39.8418 138.181L71.7681 122.139V53.7656L39.8418 69.8073V138.181Z" fill="#FBAD32"/>
<path d="M13.5898 56.6406V125.011L39.8348 138.196V69.8256L13.5898 56.6406Z" fill="#FFB94D"/>
<path d="M73.1089 53.0816L39.8352 69.8261L13.1738 56.3175L46.7101 40L73.1089 53.0816Z" fill="#FFE2C0"/>
<path d="M70.5396 53.0048L40.1596 68.3197L16.0312 56.2779L46.8091 41.2441L70.5396 53.0048Z" fill="white"/>
<path d="M70.5396 53.0048L40.1596 68.3197L16.0312 56.2779L46.8091 41.2441L70.5396 53.0048Z" fill="#FFF5EB"/>
<path d="M46.8091 42.7242L69.0596 53.7502L70.5396 53.0048L46.8091 41.2441L16.0312 56.2779L17.5272 57.0259L46.8091 42.7242Z" fill="#E2BF9C"/>
<path d="M46.8091 41.2441L46.7109 41.2919V42.7719L46.8091 42.7242L69.0596 53.7502L70.5396 53.0048L46.8091 41.2441Z" fill="#CCA989"/>
<path d="M39.9355 69.8266V72.3172L73.1084 55.5753V53.082L39.9355 69.8266Z" fill="#FFEDDC"/>
<path d="M13.1738 56.3184V58.8116L39.936 72.3176V69.827L13.1738 56.3184Z" fill="#F7D6B5"/>
<path d="M39.8356 93.3945L13.6861 80.0556L12.1875 80.7798L39.6499 94.6915L73.1092 77.8966L71.8573 77.2812L39.8356 93.3945Z" fill="#FFE2C0"/>
<path d="M39.6797 94.641V97.1316L73.1099 80.3897V77.8965L39.6797 94.641Z" fill="#FFEDDC"/>
<path d="M12.1875 80.7793V83.2699L39.6791 97.1313V94.6407L12.1875 80.7793Z" fill="#F7D6B5"/>
<path opacity="0.6" d="M39.8356 93.3935L13.6861 80.0547L12.1875 80.7788L39.5756 94.6402L39.6897 94.5818L39.8356 93.3935Z" fill="#E2BF9C"/>
<path d="M39.8356 115.201L13.6861 101.862L12.1875 102.584L39.5756 116.445L73.1092 99.7032L71.8573 99.0879L39.8356 115.201Z" fill="#FFE2C0"/>
<path d="M39.6797 116.445V118.938L73.1099 102.196V99.7031L39.6797 116.445Z" fill="#FFEDDC"/>
<path d="M12.1875 102.584V105.077L39.6791 118.939V116.445L12.1875 102.584Z" fill="#F7D6B5"/>
<path opacity="0.6" d="M39.931 115.15L39.8356 115.2L13.6861 101.861L12.1875 102.583L39.5756 116.444L39.6897 116.388L39.931 115.15Z" fill="#E2BF9C"/>
<path d="M41.8906 76.8833L47.3969 74.1328V88.6838L41.8906 91.437V76.8833Z" fill="#D2E1FF"/>
<path d="M47.1794 74.4808V88.5517L42.1055 91.09V77.0191L47.1794 74.4808ZM47.6117 73.7832L41.6758 76.7512V91.785L47.6117 88.8169V73.7832Z" fill="white"/>
<path d="M44.834 75.3164V89.9656" stroke="white" stroke-width="1.6246" stroke-miterlimit="10"/>
<path d="M52.2559 71.6438L57.7595 68.8906V83.4416L52.2559 86.1948V71.6438Z" fill="#D2E1FF"/>
<path d="M57.5453 69.2379V83.3088L52.4714 85.8472V71.7762L57.5453 69.2379ZM57.9777 68.543L52.0391 71.511V86.5447L57.975 83.5767V68.543H57.9777Z" fill="white"/>
<path d="M55.2012 70.0742V84.726" stroke="white" stroke-width="1.6246" stroke-miterlimit="10"/>
<path d="M62.4297 66.5559L67.936 63.8027V78.3537L62.4297 81.1069V66.5559Z" fill="#D2E1FF"/>
<path d="M67.7185 64.1507V78.2216L62.6445 80.76V66.689L67.7185 64.1507ZM68.1508 63.4531L62.2148 66.4211V81.4549L68.1508 78.4869V63.4531Z" fill="white"/>
<path d="M65.373 64.9863V79.6381" stroke="white" stroke-width="1.6246" stroke-miterlimit="10"/>
<path d="M68.152 78.4395L62.2188 81.4526L63.3619 82.0202L69.3085 79.0124L68.152 78.4395Z" fill="#FFE2C0"/>
<path opacity="0.2" d="M68.1504 63.4531L68.153 78.4391L68.8241 78.7813V63.7767L68.2618 63.4903L68.1504 63.4531Z" fill="#1E283A"/>
<path d="M68.1903 78.4395L69.9408 79.2829L64.172 82.1316L62.6973 81.4181" stroke="#1E283A" stroke-width="1.1744" stroke-miterlimit="10" stroke-linecap="round" stroke-linejoin="round"/>
<path d="M68.1903 72.9082L69.9408 73.7543L64.172 76.6003L62.6973 75.8895" stroke="#1E283A" stroke-width="1.1744" stroke-miterlimit="10" stroke-linecap="round" stroke-linejoin="round"/>
<path d="M62.9066 65.1367H61.4531V81.7778H62.9066V65.1367Z" fill="#FBAD32"/>
<path d="M69.9414 73.7559V79.2834" stroke="#1E283A" stroke-width="0.5872" stroke-miterlimit="10" stroke-linecap="round" stroke-linejoin="round"/>
<path d="M67.9434 74.793V80.3232" stroke="#1E283A" stroke-width="0.5872" stroke-miterlimit="10" stroke-linecap="round" stroke-linejoin="round"/>
<path d="M67.3457 75.1289V80.6591" stroke="#1E283A" stroke-width="0.5872" stroke-miterlimit="10" stroke-linecap="round" stroke-linejoin="round"/>
<path d="M66.7227 75.3379V80.8655" stroke="#1E283A" stroke-width="0.5872" stroke-miterlimit="10" stroke-linecap="round" stroke-linejoin="round"/>
<path d="M66.127 75.6758V81.2034" stroke="#1E283A" stroke-width="0.5872" stroke-miterlimit="10" stroke-linecap="round" stroke-linejoin="round"/>
<path d="M65.4512 75.9082V81.4358" stroke="#1E283A" stroke-width="0.5872" stroke-miterlimit="10" stroke-linecap="round" stroke-linejoin="round"/>
<path d="M64.8535 76.2461V81.7763" stroke="#1E283A" stroke-width="0.5872" stroke-miterlimit="10" stroke-linecap="round" stroke-linejoin="round"/>
<path d="M64.2305 76.6016V81.9833" stroke="#1E283A" stroke-width="0.5793" stroke-miterlimit="10" stroke-linecap="round" stroke-linejoin="round"/>
<path d="M63.6602 76.375V81.9052" stroke="#1E283A" stroke-width="0.5872" stroke-miterlimit="10" stroke-linecap="round" stroke-linejoin="round"/>
<path d="M63.1406 76.1152V81.6455" stroke="#1E283A" stroke-width="0.5872" stroke-miterlimit="10" stroke-linecap="round" stroke-linejoin="round"/>
<path d="M69.293 73.3926V79.623" stroke="#1E283A" stroke-width="0.6234" stroke-miterlimit="10" stroke-linecap="round" stroke-linejoin="round"/>
<path d="M68.6699 73.0781V79.8735" stroke="#1E283A" stroke-width="0.5872" stroke-miterlimit="10" stroke-linecap="round" stroke-linejoin="round"/>
<path d="M58.029 83.5391L52.0957 86.5522L53.2415 87.1198L59.1854 84.112L58.029 83.5391Z" fill="#FFE2C0"/>
<path opacity="0.2" d="M58.0273 68.5566L58.03 83.54L58.7037 83.8821V68.8802L58.1387 68.5911L58.0273 68.5566Z" fill="#1E283A"/>
<path d="M58.0672 83.5391L59.8178 84.3825L54.0489 87.2312L52.5742 86.5177" stroke="#1E283A" stroke-width="1.1744" stroke-miterlimit="10" stroke-linecap="round" stroke-linejoin="round"/>
<path d="M58.0672 78.0098L59.8178 78.8559L54.0489 81.7019L52.5742 80.991" stroke="#1E283A" stroke-width="1.1744" stroke-miterlimit="10" stroke-linecap="round" stroke-linejoin="round"/>
<path d="M52.7836 70.2383H51.3301V86.8794H52.7836V70.2383Z" fill="#FBAD32"/>
<path d="M59.8184 78.8555V84.383" stroke="#1E283A" stroke-width="0.5872" stroke-miterlimit="10" stroke-linecap="round" stroke-linejoin="round"/>
<path d="M57.8203 79.8926V85.4228" stroke="#1E283A" stroke-width="0.5872" stroke-miterlimit="10" stroke-linecap="round" stroke-linejoin="round"/>
<path d="M57.2227 80.2305V85.7607" stroke="#1E283A" stroke-width="0.5872" stroke-miterlimit="10" stroke-linecap="round" stroke-linejoin="round"/>
<path d="M56.5996 80.4395V85.967" stroke="#1E283A" stroke-width="0.5872" stroke-miterlimit="10" stroke-linecap="round" stroke-linejoin="round"/>
<path d="M56.0039 80.7754V86.303" stroke="#1E283A" stroke-width="0.5872" stroke-miterlimit="10" stroke-linecap="round" stroke-linejoin="round"/>
<path d="M55.3281 81.0098V86.5373" stroke="#1E283A" stroke-width="0.5872" stroke-miterlimit="10" stroke-linecap="round" stroke-linejoin="round"/>
<path d="M54.7305 81.3457V86.8759" stroke="#1E283A" stroke-width="0.5872" stroke-miterlimit="10" stroke-linecap="round" stroke-linejoin="round"/>
<path d="M54.1074 81.7012V87.0829" stroke="#1E283A" stroke-width="0.5793" stroke-miterlimit="10" stroke-linecap="round" stroke-linejoin="round"/>
<path d="M53.5371 81.4766V87.0068" stroke="#1E283A" stroke-width="0.5872" stroke-miterlimit="10" stroke-linecap="round" stroke-linejoin="round"/>
<path d="M53.0176 81.2168V86.747" stroke="#1E283A" stroke-width="0.5872" stroke-miterlimit="10" stroke-linecap="round" stroke-linejoin="round"/>
<path d="M59.1699 78.4922V84.7226" stroke="#1E283A" stroke-width="0.6234" stroke-miterlimit="10" stroke-linecap="round" stroke-linejoin="round"/>
<path d="M58.5469 78.1797V84.9751" stroke="#1E283A" stroke-width="0.5872" stroke-miterlimit="10" stroke-linecap="round" stroke-linejoin="round"/>
<path d="M47.6318 88.7559L41.7012 91.769L42.8443 92.3366L48.7882 89.3288L47.6318 88.7559Z" fill="#FFE2C0"/>
<path opacity="0.2" d="M47.6328 73.7734V88.7568L48.3065 89.0989V74.097L47.7442 73.8079L47.6328 73.7734Z" fill="#1E283A"/>
<path d="M47.6707 88.7559L49.4239 89.5993L43.6524 92.448L42.1777 91.7345" stroke="#1E283A" stroke-width="1.1744" stroke-miterlimit="10" stroke-linecap="round" stroke-linejoin="round"/>
<path d="M47.6707 83.2266L49.4239 84.0727L43.6524 86.9187L42.1777 86.2078" stroke="#1E283A" stroke-width="1.1744" stroke-miterlimit="10" stroke-linecap="round" stroke-linejoin="round"/>
<path d="M42.389 75.4551H40.9355V92.0962H42.389V75.4551Z" fill="#FBAD32"/>
<path d="M49.4238 84.0723V89.5998" stroke="#1E283A" stroke-width="0.5872" stroke-miterlimit="10" stroke-linecap="round" stroke-linejoin="round"/>
<path d="M47.4238 85.1094V90.6396" stroke="#1E283A" stroke-width="0.5872" stroke-miterlimit="10" stroke-linecap="round" stroke-linejoin="round"/>
<path d="M46.8262 85.4473V90.9775" stroke="#1E283A" stroke-width="0.5872" stroke-miterlimit="10" stroke-linecap="round" stroke-linejoin="round"/>
<path d="M46.2031 85.6562V91.1838" stroke="#1E283A" stroke-width="0.5872" stroke-miterlimit="10" stroke-linecap="round" stroke-linejoin="round"/>
<path d="M45.6055 85.9922V91.5198" stroke="#1E283A" stroke-width="0.5872" stroke-miterlimit="10" stroke-linecap="round" stroke-linejoin="round"/>
<path d="M44.9336 86.2266V91.7568" stroke="#1E283A" stroke-width="0.5872" stroke-miterlimit="10" stroke-linecap="round" stroke-linejoin="round"/>
<path d="M44.3359 86.5625V92.0927" stroke="#1E283A" stroke-width="0.5872" stroke-miterlimit="10" stroke-linecap="round" stroke-linejoin="round"/>
<path d="M43.7129 86.918V92.2997" stroke="#1E283A" stroke-width="0.5793" stroke-miterlimit="10" stroke-linecap="round" stroke-linejoin="round"/>
<path d="M43.1426 86.6934V92.2236" stroke="#1E283A" stroke-width="0.5872" stroke-miterlimit="10" stroke-linecap="round" stroke-linejoin="round"/>
<path d="M42.623 86.4336V91.9638" stroke="#1E283A" stroke-width="0.5872" stroke-miterlimit="10" stroke-linecap="round" stroke-linejoin="round"/>
<path d="M48.7734 83.709V89.9394" stroke="#1E283A" stroke-width="0.6234" stroke-miterlimit="10" stroke-linecap="round" stroke-linejoin="round"/>
<path d="M48.1504 83.3965V90.1919" stroke="#1E283A" stroke-width="0.5872" stroke-miterlimit="10" stroke-linecap="round" stroke-linejoin="round"/>
<path d="M41.8906 98.9986L47.3969 96.248V110.799L41.8906 113.552V98.9986Z" fill="#D2E1FF"/>
<path d="M47.1794 96.596V110.667L42.1055 113.205V99.1344L47.1794 96.596ZM47.6117 95.8984L41.6758 98.8665V113.9L47.6117 110.932V95.8984Z" fill="white"/>
<path d="M44.834 97.4316V112.081" stroke="white" stroke-width="1.6246" stroke-miterlimit="10"/>
<path d="M52.2559 93.759L57.7595 91.0059V105.557L52.2559 108.31V93.759Z" fill="#D2E1FF"/>
<path d="M57.5446 91.3558V105.427L52.4707 107.965V93.8941L57.5446 91.3558ZM57.977 90.6582L52.041 93.6262V108.66L57.977 105.692V90.6582Z" fill="white"/>
<path d="M55.1992 92.1895V106.841" stroke="white" stroke-width="1.6246" stroke-miterlimit="10"/>
<path d="M62.4297 88.6711L67.936 85.918V100.469L62.4297 103.222V88.6711Z" fill="#D2E1FF"/>
<path d="M67.7185 86.2652V100.336L62.6445 102.874V88.8036L67.7185 86.2652ZM68.1508 85.5703L62.2148 88.5383V103.572L68.1508 100.604V85.5703Z" fill="white"/>
<path d="M65.373 87.1016V101.753" stroke="white" stroke-width="1.6246" stroke-miterlimit="10"/>
<path d="M68.152 100.553L62.2188 103.566L63.3619 104.133L69.3085 101.126L68.152 100.553Z" fill="#FFE2C0"/>
<path opacity="0.2" d="M68.1504 85.5703L68.153 100.554L68.8241 100.896V85.8939L68.2618 85.6048L68.1504 85.5703Z" fill="#1E283A"/>
<path d="M68.1903 100.553L69.9408 101.396L64.172 104.245L62.6973 103.531" stroke="#1E283A" stroke-width="1.1744" stroke-miterlimit="10" stroke-linecap="round" stroke-linejoin="round"/>
<path d="M68.1903 95.0234L69.9408 95.8696L64.172 98.7156L62.6973 98.0047" stroke="#1E283A" stroke-width="1.1744" stroke-miterlimit="10" stroke-linecap="round" stroke-linejoin="round"/>
<path d="M62.9066 87.252H61.4531V103.893H62.9066V87.252Z" fill="#FBAD32"/>
<path d="M69.9414 95.8691V101.397" stroke="#1E283A" stroke-width="0.5872" stroke-miterlimit="10" stroke-linecap="round" stroke-linejoin="round"/>
<path d="M67.9434 96.9062V102.436" stroke="#1E283A" stroke-width="0.5872" stroke-miterlimit="10" stroke-linecap="round" stroke-linejoin="round"/>
<path d="M67.3457 97.2441V102.774" stroke="#1E283A" stroke-width="0.5872" stroke-miterlimit="10" stroke-linecap="round" stroke-linejoin="round"/>
<path d="M66.7227 97.4531V102.981" stroke="#1E283A" stroke-width="0.5872" stroke-miterlimit="10" stroke-linecap="round" stroke-linejoin="round"/>
<path d="M66.127 97.7891V103.317" stroke="#1E283A" stroke-width="0.5872" stroke-miterlimit="10" stroke-linecap="round" stroke-linejoin="round"/>
<path d="M65.4512 98.0234V103.554" stroke="#1E283A" stroke-width="0.5872" stroke-miterlimit="10" stroke-linecap="round" stroke-linejoin="round"/>
<path d="M64.8535 98.3594V103.89" stroke="#1E283A" stroke-width="0.5872" stroke-miterlimit="10" stroke-linecap="round" stroke-linejoin="round"/>
<path d="M64.2305 98.7148V104.097" stroke="#1E283A" stroke-width="0.5793" stroke-miterlimit="10" stroke-linecap="round" stroke-linejoin="round"/>
<path d="M63.6602 98.4902V104.02" stroke="#1E283A" stroke-width="0.5872" stroke-miterlimit="10" stroke-linecap="round" stroke-linejoin="round"/>
<path d="M63.1406 98.2305V103.761" stroke="#1E283A" stroke-width="0.5872" stroke-miterlimit="10" stroke-linecap="round" stroke-linejoin="round"/>
<path d="M69.293 95.5059V101.736" stroke="#1E283A" stroke-width="0.6234" stroke-miterlimit="10" stroke-linecap="round" stroke-linejoin="round"/>
<path d="M68.6699 95.1934V101.989" stroke="#1E283A" stroke-width="0.5872" stroke-miterlimit="10" stroke-linecap="round" stroke-linejoin="round"/>
<path d="M58.029 105.652L52.0957 108.665L53.2415 109.233L59.1854 106.225L58.029 105.652Z" fill="#FFE2C0"/>
<path opacity="0.2" d="M58.0273 90.6699L58.03 105.653L58.7037 105.995V90.9935L58.1387 90.7044L58.0273 90.6699Z" fill="#1E283A"/>
<path d="M58.0672 105.652L59.8178 106.496L54.0489 109.344L52.5742 108.631" stroke="#1E283A" stroke-width="1.1744" stroke-miterlimit="10" stroke-linecap="round" stroke-linejoin="round"/>
<path d="M58.0672 100.123L59.8178 100.969L54.0489 103.815L52.5742 103.104" stroke="#1E283A" stroke-width="1.1744" stroke-miterlimit="10" stroke-linecap="round" stroke-linejoin="round"/>
<path d="M52.7836 92.3516H51.3301V108.993H52.7836V92.3516Z" fill="#FBAD32"/>
<path d="M59.8184 100.969V106.496" stroke="#1E283A" stroke-width="0.5872" stroke-miterlimit="10" stroke-linecap="round" stroke-linejoin="round"/>
<path d="M57.8203 102.006V107.536" stroke="#1E283A" stroke-width="0.5872" stroke-miterlimit="10" stroke-linecap="round" stroke-linejoin="round"/>
<path d="M57.2227 102.344V107.874" stroke="#1E283A" stroke-width="0.5872" stroke-miterlimit="10" stroke-linecap="round" stroke-linejoin="round"/>
<path d="M56.5996 102.553V108.08" stroke="#1E283A" stroke-width="0.5872" stroke-miterlimit="10" stroke-linecap="round" stroke-linejoin="round"/>
<path d="M56.0039 102.889V108.416" stroke="#1E283A" stroke-width="0.5872" stroke-miterlimit="10" stroke-linecap="round" stroke-linejoin="round"/>
<path d="M55.3281 103.123V108.653" stroke="#1E283A" stroke-width="0.5872" stroke-miterlimit="10" stroke-linecap="round" stroke-linejoin="round"/>
<path d="M54.7305 103.459V108.989" stroke="#1E283A" stroke-width="0.5872" stroke-miterlimit="10" stroke-linecap="round" stroke-linejoin="round"/>
<path d="M54.1074 103.814V109.196" stroke="#1E283A" stroke-width="0.5793" stroke-miterlimit="10" stroke-linecap="round" stroke-linejoin="round"/>
<path d="M53.5371 103.59V109.12" stroke="#1E283A" stroke-width="0.5872" stroke-miterlimit="10" stroke-linecap="round" stroke-linejoin="round"/>
<path d="M53.0176 103.33V108.86" stroke="#1E283A" stroke-width="0.5872" stroke-miterlimit="10" stroke-linecap="round" stroke-linejoin="round"/>
<path d="M59.1699 100.605V106.839" stroke="#1E283A" stroke-width="0.6234" stroke-miterlimit="10" stroke-linecap="round" stroke-linejoin="round"/>
<path d="M58.5469 100.293V107.088" stroke="#1E283A" stroke-width="0.5872" stroke-miterlimit="10" stroke-linecap="round" stroke-linejoin="round"/>
<path d="M47.6318 110.871L41.7012 113.884L42.8443 114.454L48.7882 111.444L47.6318 110.871Z" fill="#FFE2C0"/>
<path opacity="0.2" d="M47.6328 95.8887V110.872L48.3065 111.214V96.2123L47.7442 95.9258L47.6328 95.8887Z" fill="#1E283A"/>
<path d="M47.6707 110.871L49.4239 111.715L43.6524 114.563L42.1777 113.85" stroke="#1E283A" stroke-width="1.1744" stroke-miterlimit="10" stroke-linecap="round" stroke-linejoin="round"/>
<path d="M47.6707 105.342L49.4239 106.188L43.6524 109.034L42.1777 108.323" stroke="#1E283A" stroke-width="1.1744" stroke-miterlimit="10" stroke-linecap="round" stroke-linejoin="round"/>
<path d="M42.389 97.5703H40.9355V114.211H42.389V97.5703Z" fill="#FBAD32"/>
<path d="M49.4238 106.188V111.715" stroke="#1E283A" stroke-width="0.5872" stroke-miterlimit="10" stroke-linecap="round" stroke-linejoin="round"/>
<path d="M47.4238 107.225V112.755" stroke="#1E283A" stroke-width="0.5872" stroke-miterlimit="10" stroke-linecap="round" stroke-linejoin="round"/>
<path d="M46.8262 107.564V113.092" stroke="#1E283A" stroke-width="0.5872" stroke-miterlimit="10" stroke-linecap="round" stroke-linejoin="round"/>
<path d="M46.2031 107.771V113.299" stroke="#1E283A" stroke-width="0.5872" stroke-miterlimit="10" stroke-linecap="round" stroke-linejoin="round"/>
<path d="M45.6055 108.107V113.638" stroke="#1E283A" stroke-width="0.5872" stroke-miterlimit="10" stroke-linecap="round" stroke-linejoin="round"/>
<path d="M44.9336 108.342V113.872" stroke="#1E283A" stroke-width="0.5872" stroke-miterlimit="10" stroke-linecap="round" stroke-linejoin="round"/>
<path d="M44.3359 108.678V114.208" stroke="#1E283A" stroke-width="0.5872" stroke-miterlimit="10" stroke-linecap="round" stroke-linejoin="round"/>
<path d="M43.7129 109.033V114.415" stroke="#1E283A" stroke-width="0.5793" stroke-miterlimit="10" stroke-linecap="round" stroke-linejoin="round"/>
<path d="M43.1426 108.809V114.339" stroke="#1E283A" stroke-width="0.5872" stroke-miterlimit="10" stroke-linecap="round" stroke-linejoin="round"/>
<path d="M42.623 108.549V114.079" stroke="#1E283A" stroke-width="0.5872" stroke-miterlimit="10" stroke-linecap="round" stroke-linejoin="round"/>
<path d="M48.7734 105.824V112.057" stroke="#1E283A" stroke-width="0.6234" stroke-miterlimit="10" stroke-linecap="round" stroke-linejoin="round"/>
<path d="M48.1504 105.512V112.307" stroke="#1E283A" stroke-width="0.5872" stroke-miterlimit="10" stroke-linecap="round" stroke-linejoin="round"/>
<path d="M23.3516 79.4022L23.3781 69.5645L28.8844 72.3176V82.1527L23.3516 79.4022Z" fill="#D2E1FF"/>
<path d="M23.5929 69.9117L28.6695 72.4501V81.805L23.5691 79.2693L23.5929 69.9117ZM23.1632 69.2168L23.1367 79.5346L29.0992 82.5V72.1848L23.1632 69.2168Z" fill="white"/>
<path d="M25.9395 70.748V80.6812" stroke="white" stroke-width="1.6246" stroke-miterlimit="10"/>
<path d="M23.1398 79.4707L29.0731 82.4838L28.4498 82.94L22.4688 79.8129L23.1398 79.4707Z" fill="#E5C8AE"/>
<path opacity="0.2" d="M23.1424 69.2031L23.1398 79.4705L22.4688 79.8127V69.5267L23.031 69.2403L23.1424 69.2031Z" fill="#1E283A"/>
<path d="M28.3867 82.8569L30.7102 83.8357L29.8402 70.8867H28.3867V82.8569Z" fill="#FFB94D"/>
<path d="M23.3516 101.722L23.3781 91.8848L28.8844 94.6379V104.473L23.3516 101.722Z" fill="#D2E1FF"/>
<path d="M23.5929 92.2347L28.6695 94.773V104.128L23.5691 101.592L23.5929 92.2347ZM23.1632 91.5371L23.1367 101.855L29.0992 104.82V94.5051L23.1632 91.5371Z" fill="white"/>
<path d="M25.9395 93.0703V103.004" stroke="white" stroke-width="1.6246" stroke-miterlimit="10"/>
<path d="M23.1398 101.793L29.0731 104.809L28.4498 105.265L22.4688 102.138L23.1398 101.793Z" fill="#E5C8AE"/>
<path opacity="0.2" d="M23.1424 91.5273L23.1398 101.792L22.4688 102.137V91.8509L23.031 91.5618L23.1424 91.5273Z" fill="#1E283A"/>
<path d="M28.3867 105.179L30.7102 106.161L29.8402 93.209H28.3867V105.179Z" fill="#FFB94D"/>
<path d="M23.3516 124.047L23.3781 114.209L28.8844 116.962V126.797L23.3516 124.047Z" fill="#D2E1FF"/>
<path d="M23.5929 114.557L28.6695 117.095V126.45L23.5691 123.915L23.5929 114.557ZM23.1632 113.859L23.1367 124.177L29.0992 127.143V116.827L23.1632 113.859Z" fill="white"/>
<path d="M25.9395 115.393V125.326" stroke="white" stroke-width="1.6246" stroke-miterlimit="10"/>
<path d="M23.1398 124.117L29.0731 127.13L28.4498 127.587L22.4688 124.459L23.1398 124.117Z" fill="#E5C8AE"/>
<path opacity="0.2" d="M23.1424 113.85L23.1398 124.117L22.4688 124.459V114.173L23.031 113.887L23.1424 113.85Z" fill="#1E283A"/>
<path d="M28.3867 127.501L30.7102 128.482L29.8402 115.533H28.3867V127.501Z" fill="#FFB94D"/>
<path d="M52.957 116.81L58.4633 114.057V128.608L52.957 131.361V116.81Z" fill="#D2E1FF"/>
<path d="M58.2458 114.405V128.476L53.1719 131.014V116.943L58.2458 114.405ZM58.6781 113.707L52.7422 116.675V131.709L58.6781 128.741V113.707Z" fill="white"/>
<path d="M55.9004 115.24V129.889" stroke="white" stroke-width="1.6246" stroke-miterlimit="10"/>
<path d="M58.5645 114.007L64.0681 111.254V125.805L58.5645 128.558V114.007Z" fill="#D2E1FF"/>
<path d="M63.8532 111.602V125.673L58.7793 128.211V114.14L63.8532 111.602ZM64.2856 110.904L58.3496 113.872V128.906L64.2856 125.938V110.904Z" fill="white"/>
<path d="M61.5078 112.438V127.087" stroke="white" stroke-width="1.6246" stroke-miterlimit="10"/>
<path opacity="0.2" d="M41.1836 118.108L47.3874 128.023L71.858 115.7V103L41.1836 118.108Z" fill="#1E283A"/>
<path d="M41.418 120.756L46.9455 123.326" stroke="#1E283A" stroke-width="1.1744" stroke-miterlimit="10" stroke-linecap="round"/>
<path d="M41.1836 118.108L71.7094 103L76.3802 108.14L46.4777 123.246L41.1836 118.108Z" fill="#91AFF9"/>
<path d="M46.4785 123.246V125.116L76.1477 110.554L76.3811 108.141L46.4785 123.246Z" fill="#6586C9"/>
<path d="M9.73242 122.838V129.336" stroke="#1E283A" stroke-width="3" stroke-miterlimit="10" stroke-linecap="round" stroke-linejoin="round"/>
<path d="M14.1086 117.023C14.1086 123.678 12.2095 125.091 9.86485 125.091C7.52017 125.091 5.62109 123.678 5.62109 117.023C5.62109 110.368 7.52017 102.053 9.86485 102.053C12.2069 102.053 14.1086 110.368 14.1086 117.023Z" fill="#91AFF9"/>
<path d="M12.252 121.909C9.90728 121.909 8.0082 121.556 8.0082 114.902C8.0082 110.687 8.76943 105.385 9.9232 102.059C9.90198 102.056 9.88341 102.051 9.86485 102.051C7.52017 102.051 5.62109 110.366 5.62109 117.021C5.62109 123.676 7.52017 125.089 9.86485 125.089C11.5066 125.089 12.931 124.392 13.6365 121.689C13.2015 121.848 12.7347 121.909 12.252 121.909Z" fill="#6586C9"/>
<path opacity="0.2" d="M9.59981 130.264C10.9914 130.264 12.1195 129.76 12.1195 129.137C12.1195 128.514 10.9914 128.01 9.59981 128.01C8.2082 128.01 7.08008 128.514 7.08008 129.137C7.08008 129.76 8.2082 130.264 9.59981 130.264Z" fill="#1E283A"/>
<path d="M20.4082 128.01V134.508" stroke="#1E283A" stroke-width="3" stroke-miterlimit="10" stroke-linecap="round" stroke-linejoin="round"/>
<path d="M24.7844 122.195C24.7844 128.85 22.8853 130.263 20.5406 130.263C18.196 130.263 16.2969 128.85 16.2969 122.195C16.2969 115.54 18.196 107.225 20.5406 107.225C22.8827 107.225 24.7844 115.54 24.7844 122.195Z" fill="#91AFF9"/>
<path d="M22.9277 127.081C20.5831 127.081 18.684 125.667 18.684 119.013C18.684 114.798 19.4452 110.557 20.599 107.231C20.5778 107.228 20.5592 107.223 20.5406 107.223C18.196 107.223 16.2969 115.538 16.2969 122.193C16.2969 128.848 18.196 130.261 20.5406 130.261C22.1824 130.261 23.6067 129.564 24.3123 126.861C23.8773 127.02 23.4105 127.081 22.9277 127.081Z" fill="#6586C9"/>
<path opacity="0.2" d="M20.2756 135.436C21.6672 135.436 22.7953 134.931 22.7953 134.309C22.7953 133.686 21.6672 133.182 20.2756 133.182C18.884 133.182 17.7559 133.686 17.7559 134.309C17.7559 134.931 18.884 135.436 20.2756 135.436Z" fill="#1E283A"/>
<path d="M31.7461 132.916V139.414" stroke="#1E283A" stroke-width="3" stroke-miterlimit="10" stroke-linecap="round" stroke-linejoin="round"/>
<path d="M36.1223 127.101C36.1223 133.756 34.2232 135.17 31.8785 135.17C29.5338 135.17 27.6348 133.756 27.6348 127.101C27.6348 120.446 29.5338 112.131 31.8785 112.131C34.2205 112.131 36.1223 120.446 36.1223 127.101Z" fill="#91AFF9"/>
<path d="M34.2656 131.987C31.921 131.987 30.0219 130.574 30.0219 123.919C30.0219 119.704 30.7831 115.463 31.9369 112.137C31.9157 112.134 31.8971 112.129 31.8785 112.129C29.5338 112.129 27.6348 120.444 27.6348 127.099C27.6348 133.754 29.5338 135.168 31.8785 135.168C33.5203 135.168 34.9446 134.47 35.6502 131.767C35.2152 131.926 34.7484 131.987 34.2656 131.987Z" fill="#6586C9"/>
<path opacity="0.2" d="M31.6135 140.342C33.0051 140.342 34.1332 139.838 34.1332 139.215C34.1332 138.593 33.0051 138.088 31.6135 138.088C30.2219 138.088 29.0938 138.593 29.0938 139.215C29.0938 139.838 30.2219 140.342 31.6135 140.342Z" fill="#1E283A"/>
</g>
<rect x="150" width="267" height="92" rx="18" fill="#006DB7"/>
<path d="M94 102L205.5 66.026L173.5 42L94 102Z" fill="#006DB7"/>
<rect x="175.048" y="25.0476" width="41.9048" height="41.9048" rx="20.9524" fill="#283036"/>
<rect x="175.048" y="25.0476" width="41.9048" height="41.9048" rx="20.9524" stroke="white" stroke-width="2.09524"/>
<g clip-path="url(#clip1_310_19276)">
<path d="M206.65 55.2985H205.86V49.1544C206.619 49.2919 206.921 49.8463 206.937 49.8783C206.999 50.0004 207.123 50.0709 207.252 50.0709C207.305 50.0709 207.358 50.0589 207.409 50.0336C207.583 49.9466 207.653 49.7351 207.566 49.561C207.547 49.522 207.147 48.7476 206.154 48.497C206.643 48.0912 207.382 48.0503 207.391 48.0498C207.585 48.0411 207.735 47.8771 207.727 47.683C207.719 47.4887 207.553 47.3367 207.36 47.346C207.315 47.3479 206.56 47.3862 205.918 47.7978C205.774 46.8369 205.076 46.3572 205.037 46.3314C204.875 46.2234 204.655 46.2664 204.547 46.4283C204.439 46.5902 204.482 46.8081 204.644 46.916C204.669 46.9333 205.107 47.2453 205.213 47.8784C204.549 47.3915 203.703 47.348 203.654 47.346C203.461 47.3368 203.297 47.4881 203.288 47.6822C203.279 47.8761 203.43 48.0406 203.624 48.0498C203.633 48.0503 204.371 48.0913 204.861 48.497C203.867 48.7477 203.468 49.522 203.448 49.5611C203.361 49.7351 203.431 49.948 203.605 50.035C203.656 50.0605 203.71 50.0725 203.763 50.0725C203.892 50.0725 204.016 50.0019 204.077 49.8788C204.091 49.8518 204.392 49.2928 205.155 49.1545V55.2986H202.875V44.9703C202.875 44.7757 202.717 44.618 202.523 44.618C202.328 44.618 202.171 44.7757 202.171 44.9703V55.2985H199.502V50.1693C199.502 49.9747 199.344 49.817 199.15 49.817H192.85C192.656 49.817 192.498 49.9747 192.498 50.1693V52.2055C192.498 52.4 192.656 52.5578 192.85 52.5578C193.045 52.5578 193.203 52.4 193.203 52.2055V50.5215H195.648V55.2985H193.203V53.6145C193.203 53.4199 193.045 53.2622 192.85 53.2622C192.656 53.2622 192.498 53.4199 192.498 53.6145V55.2985H189.829V40.2058C189.829 40.0113 189.672 39.8535 189.477 39.8535C189.283 39.8535 189.125 40.0113 189.125 40.2058V55.2985H186.845V49.1544C187.605 49.2921 187.906 49.847 187.923 49.8783C187.985 50.0004 188.109 50.0709 188.237 50.0709C188.29 50.0709 188.344 50.0589 188.394 50.0336C188.568 49.9466 188.639 49.7351 188.552 49.561C188.532 49.522 188.133 48.7476 187.139 48.497C187.629 48.0912 188.367 48.0503 188.376 48.0498C188.57 48.0411 188.721 47.8771 188.713 47.683C188.704 47.4887 188.54 47.3371 188.346 47.346C188.297 47.348 187.451 47.3915 186.787 47.8783C186.893 47.2479 187.328 46.9359 187.356 46.9162C187.516 46.8078 187.559 46.5902 187.452 46.429C187.344 46.2672 187.125 46.2235 186.963 46.3314C186.925 46.3572 186.226 46.8369 186.082 47.7978C185.44 47.3862 184.685 47.3479 184.64 47.346C184.446 47.3372 184.282 47.4881 184.273 47.6821C184.265 47.8761 184.415 48.0406 184.609 48.0498C184.618 48.0502 185.357 48.0912 185.846 48.497C184.853 48.7476 184.453 49.522 184.434 49.561C184.347 49.735 184.417 49.9466 184.591 50.0336C184.642 50.0589 184.696 50.0709 184.748 50.0709C184.878 50.0709 185.002 49.9995 185.064 49.876C185.067 49.8694 185.364 49.2947 186.141 49.1544V55.2985H185.35C184.606 55.2985 184 55.9042 184 56.6499C184 57.3943 184.606 58 185.35 58H206.65C207.394 58 208 57.3943 208 56.6486C208 55.9042 207.394 55.2985 206.65 55.2985ZM196.352 50.5215H198.797V55.2985H196.352V50.5215ZM206.65 57.2955H185.35C184.994 57.2955 184.704 57.0059 184.704 56.6486C184.704 56.2927 184.994 56.003 185.35 56.003H206.65C207.006 56.003 207.296 56.2927 207.296 56.6499C207.296 57.0058 207.006 57.2955 206.65 57.2955Z" fill="white"/>
<path d="M189.125 36.6954H189.125V38.7968C189.125 38.9913 189.283 39.1491 189.477 39.1491C189.672 39.1491 189.829 38.9913 189.829 38.7968V36.6954H202.17V43.5613C202.17 43.7558 202.328 43.9135 202.523 43.9135C202.717 43.9135 202.875 43.7559 202.875 43.5613V36.6954H202.875C203.328 36.6954 203.697 36.3267 203.697 35.8735V34.8219C203.697 34.3687 203.328 34 202.875 34H189.125C188.671 34 188.303 34.3687 188.303 34.8219V35.8735C188.303 36.3267 188.671 36.6954 189.125 36.6954ZM189.007 34.8219C189.007 34.7572 189.06 34.7045 189.125 34.7045H202.875C202.94 34.7045 202.993 34.7572 202.993 34.8219V35.8735C202.993 35.9382 202.94 35.9909 202.875 35.9909H189.125C189.06 35.9909 189.007 35.9382 189.007 35.8735V34.8219Z" fill="white"/>
<path d="M196.711 45.8418H195.29C194.966 45.8418 194.703 46.1051 194.703 46.4289V47.8497C194.703 48.1734 194.966 48.4368 195.29 48.4368H196.711C197.035 48.4368 197.298 48.1734 197.298 47.8497V46.4289C197.298 46.1051 197.035 45.8418 196.711 45.8418ZM196.594 47.7323H195.408V46.5463H196.594V47.7323Z" fill="white"/>
<path d="M193.213 45.8418H191.792C191.468 45.8418 191.205 46.1051 191.205 46.4289V47.8497C191.205 48.1734 191.468 48.4368 191.792 48.4368H193.213C193.537 48.4368 193.8 48.1734 193.8 47.8497V46.4289C193.8 46.1051 193.537 45.8418 193.213 45.8418ZM193.096 47.7323H191.91V46.5463H193.096V47.7323Z" fill="white"/>
<path d="M200.209 45.8418H198.788C198.465 45.8418 198.201 46.1051 198.201 46.4289V47.8497C198.201 48.1734 198.465 48.4368 198.788 48.4368H200.209C200.533 48.4368 200.796 48.1734 200.796 47.8497V46.4289C200.796 46.1051 200.533 45.8418 200.209 45.8418ZM200.092 47.7323H198.906V46.5463H200.092V47.7323Z" fill="white"/>
<path d="M197.298 42.6105C197.298 42.2868 197.035 42.0234 196.711 42.0234H195.29C194.966 42.0234 194.703 42.2868 194.703 42.6105V44.0313C194.703 44.355 194.966 44.6184 195.29 44.6184H196.711C197.035 44.6184 197.298 44.355 197.298 44.0313V42.6105ZM196.594 43.914H195.408V42.728H196.594V43.914Z" fill="white"/>
<path d="M193.8 42.6105C193.8 42.2868 193.537 42.0234 193.213 42.0234H191.792C191.468 42.0234 191.205 42.2868 191.205 42.6105V44.0313C191.205 44.355 191.468 44.6184 191.792 44.6184H193.213C193.537 44.6184 193.8 44.355 193.8 44.0313V42.6105ZM193.096 43.914H191.91V42.728H193.096V43.914Z" fill="white"/>
<path d="M200.796 42.6105C200.796 42.2868 200.533 42.0234 200.209 42.0234H198.788C198.465 42.0234 198.201 42.2868 198.201 42.6105V44.0313C198.201 44.355 198.465 44.6184 198.788 44.6184H200.209C200.533 44.6184 200.796 44.355 200.796 44.0313V42.6105ZM200.092 43.914H198.906V42.728H200.092V43.914Z" fill="white"/>
<path d="M197.298 38.7902C197.298 38.4665 197.035 38.2031 196.711 38.2031H195.29C194.966 38.2031 194.703 38.4665 194.703 38.7902V40.211C194.703 40.5347 194.966 40.7981 195.29 40.7981H196.711C197.035 40.7981 197.298 40.5347 197.298 40.211V38.7902ZM196.594 40.0936H195.408V38.9076H196.594V40.0936Z" fill="white"/>
<path d="M193.8 38.7902C193.8 38.4665 193.537 38.2031 193.213 38.2031H191.792C191.468 38.2031 191.205 38.4665 191.205 38.7902V40.211C191.205 40.5347 191.468 40.7981 191.792 40.7981H193.213C193.537 40.7981 193.8 40.5347 193.8 40.211V38.7902ZM193.096 40.0936H191.91V38.9076H193.096V40.0936Z" fill="white"/>
<path d="M200.796 38.7902C200.796 38.4665 200.533 38.2031 200.209 38.2031H198.788C198.465 38.2031 198.201 38.4665 198.201 38.7902V40.211C198.201 40.5347 198.465 40.7981 198.788 40.7981H200.209C200.533 40.7981 200.796 40.5347 200.796 40.211V38.7902ZM200.092 40.0936H198.906V38.9076H200.092V40.0936Z" fill="white"/>
</g>
<path d="M252.05 42.9709H248.597C248.499 42.4046 248.317 41.9029 248.053 41.4659C247.788 41.0227 247.459 40.6473 247.065 40.3395C246.671 40.0317 246.221 39.8009 245.717 39.647C245.218 39.487 244.679 39.407 244.101 39.407C243.073 39.407 242.162 39.6655 241.368 40.1825C240.574 40.6934 239.952 41.4444 239.503 42.4354C239.054 43.4202 238.829 44.6236 238.829 46.0455C238.829 47.492 239.054 48.7107 239.503 49.7017C239.958 50.6866 240.58 51.4313 241.368 51.9361C242.162 52.4347 243.07 52.6839 244.092 52.6839C244.658 52.6839 245.187 52.6101 245.68 52.4624C246.178 52.3085 246.625 52.0838 247.018 51.7884C247.419 51.4929 247.754 51.1297 248.025 50.6989C248.302 50.268 248.493 49.7756 248.597 49.2216L252.05 49.2401C251.921 50.1387 251.641 50.982 251.21 51.7699C250.786 52.5578 250.228 53.2533 249.539 53.8565C248.85 54.4536 248.043 54.9214 247.12 55.2599C246.197 55.5923 245.172 55.7585 244.045 55.7585C242.384 55.7585 240.9 55.3738 239.595 54.6044C238.29 53.835 237.262 52.724 236.511 51.2713C235.76 49.8187 235.385 48.0767 235.385 46.0455C235.385 44.008 235.763 42.2661 236.521 40.8196C237.278 39.367 238.309 38.2559 239.614 37.4865C240.919 36.7171 242.396 36.3324 244.045 36.3324C245.098 36.3324 246.077 36.4801 246.982 36.7756C247.886 37.071 248.693 37.505 249.401 38.0774C250.108 38.6437 250.69 39.3393 251.146 40.1641C251.607 40.9827 251.909 41.9183 252.05 42.9709ZM259.121 55.7862C258.222 55.7862 257.412 55.6262 256.692 55.3061C255.978 54.9799 255.412 54.4998 254.993 53.8658C254.581 53.2318 254.375 52.45 254.375 51.5206C254.375 50.7204 254.523 50.0587 254.818 49.5355C255.113 49.0123 255.517 48.5938 256.028 48.2798C256.538 47.9659 257.114 47.7289 257.754 47.5689C258.4 47.4027 259.068 47.2827 259.758 47.2088C260.589 47.1226 261.263 47.0457 261.78 46.978C262.297 46.9041 262.672 46.7933 262.906 46.6456C263.146 46.4917 263.266 46.2547 263.266 45.9347V45.8793C263.266 45.1837 263.06 44.6451 262.648 44.2635C262.235 43.8819 261.641 43.6911 260.866 43.6911C260.047 43.6911 259.398 43.8696 258.917 44.2266C258.443 44.5836 258.123 45.0052 257.957 45.4915L254.836 45.0483C255.083 44.1866 255.489 43.4664 256.055 42.8878C256.622 42.303 257.314 41.866 258.133 41.5767C258.951 41.2812 259.856 41.1335 260.847 41.1335C261.53 41.1335 262.211 41.2135 262.888 41.3736C263.565 41.5336 264.183 41.7983 264.743 42.1676C265.304 42.5308 265.753 43.0263 266.091 43.6541C266.436 44.282 266.608 45.0668 266.608 46.0085V55.5H263.395V53.5518H263.285C263.081 53.9458 262.795 54.3151 262.426 54.6598C262.063 54.9983 261.604 55.2723 261.05 55.4815C260.502 55.6847 259.859 55.7862 259.121 55.7862ZM259.988 53.3303C260.659 53.3303 261.241 53.1979 261.733 52.9332C262.226 52.6624 262.604 52.3054 262.869 51.8622C263.14 51.419 263.275 50.9358 263.275 50.4126V48.7415C263.171 48.8277 262.992 48.9077 262.74 48.9815C262.494 49.0554 262.217 49.12 261.909 49.1754C261.601 49.2308 261.296 49.2801 260.995 49.3232C260.693 49.3662 260.432 49.4032 260.21 49.4339C259.711 49.5017 259.265 49.6125 258.871 49.7663C258.477 49.9202 258.166 50.1357 257.939 50.4126C257.711 50.6835 257.597 51.0343 257.597 51.4652C257.597 52.0807 257.822 52.5455 258.271 52.8594C258.72 53.1733 259.293 53.3303 259.988 53.3303ZM281.178 45.0668L278.131 45.3991C278.045 45.0914 277.894 44.8021 277.679 44.5312C277.47 44.2604 277.186 44.0419 276.829 43.8757C276.472 43.7095 276.035 43.6264 275.518 43.6264C274.823 43.6264 274.238 43.7772 273.764 44.0788C273.296 44.3804 273.065 44.7713 273.072 45.2514C273.065 45.6638 273.216 45.9993 273.524 46.2578C273.838 46.5163 274.355 46.7287 275.075 46.8949L277.494 47.4119C278.836 47.7012 279.833 48.1598 280.486 48.7876C281.144 49.4155 281.477 50.2372 281.483 51.2528C281.477 52.1454 281.215 52.9332 280.698 53.6165C280.187 54.2936 279.476 54.8229 278.565 55.2045C277.654 55.5862 276.608 55.777 275.426 55.777C273.69 55.777 272.293 55.4138 271.234 54.6875C270.175 53.955 269.545 52.9363 269.341 51.6314L272.601 51.3175C272.748 51.9576 273.062 52.4408 273.542 52.767C274.023 53.0933 274.647 53.2564 275.417 53.2564C276.211 53.2564 276.848 53.0933 277.328 52.767C277.814 52.4408 278.057 52.0376 278.057 51.5575C278.057 51.1513 277.9 50.8158 277.586 50.5511C277.279 50.2865 276.799 50.0833 276.146 49.9418L273.727 49.4339C272.367 49.1508 271.36 48.6738 270.708 48.0028C270.055 47.3258 269.732 46.4702 269.738 45.4361C269.732 44.562 269.969 43.8049 270.449 43.1648C270.936 42.5185 271.61 42.0199 272.471 41.669C273.339 41.312 274.34 41.1335 275.472 41.1335C277.134 41.1335 278.442 41.4875 279.396 42.1953C280.356 42.9032 280.95 43.8603 281.178 45.0668ZM288.32 55.7862C287.421 55.7862 286.612 55.6262 285.892 55.3061C285.177 54.9799 284.611 54.4998 284.193 53.8658C283.78 53.2318 283.574 52.45 283.574 51.5206C283.574 50.7204 283.722 50.0587 284.017 49.5355C284.313 49.0123 284.716 48.5938 285.227 48.2798C285.738 47.9659 286.313 47.7289 286.953 47.5689C287.6 47.4027 288.267 47.2827 288.957 47.2088C289.788 47.1226 290.462 47.0457 290.979 46.978C291.496 46.9041 291.871 46.7933 292.105 46.6456C292.345 46.4917 292.465 46.2547 292.465 45.9347V45.8793C292.465 45.1837 292.259 44.6451 291.847 44.2635C291.434 43.8819 290.84 43.6911 290.065 43.6911C289.246 43.6911 288.597 43.8696 288.117 44.2266C287.643 44.5836 287.323 45.0052 287.156 45.4915L284.036 45.0483C284.282 44.1866 284.688 43.4664 285.254 42.8878C285.821 42.303 286.513 41.866 287.332 41.5767C288.151 41.2812 289.055 41.1335 290.046 41.1335C290.73 41.1335 291.41 41.2135 292.087 41.3736C292.764 41.5336 293.383 41.7983 293.943 42.1676C294.503 42.5308 294.952 43.0263 295.291 43.6541C295.635 44.282 295.808 45.0668 295.808 46.0085V55.5H292.595V53.5518H292.484C292.281 53.9458 291.994 54.3151 291.625 54.6598C291.262 54.9983 290.803 55.2723 290.249 55.4815C289.702 55.6847 289.058 55.7862 288.32 55.7862ZM289.188 53.3303C289.859 53.3303 290.44 53.1979 290.933 52.9332C291.425 52.6624 291.804 52.3054 292.068 51.8622C292.339 51.419 292.475 50.9358 292.475 50.4126V48.7415C292.37 48.8277 292.191 48.9077 291.939 48.9815C291.693 49.0554 291.416 49.12 291.108 49.1754C290.8 49.2308 290.496 49.2801 290.194 49.3232C289.892 49.3662 289.631 49.4032 289.409 49.4339C288.911 49.5017 288.464 49.6125 288.07 49.7663C287.677 49.9202 287.366 50.1357 287.138 50.4126C286.91 50.6835 286.796 51.0343 286.796 51.4652C286.796 52.0807 287.021 52.5455 287.47 52.8594C287.92 53.1733 288.492 53.3303 289.188 53.3303ZM308.194 55.5H304.537L311.194 36.5909H315.423L322.089 55.5H318.433L313.383 40.4688H313.235L308.194 55.5ZM308.314 48.0859H318.285V50.8374H308.314V48.0859ZM327.775 47.1903V55.5H324.432V41.3182H327.627V43.728H327.793C328.119 42.9339 328.639 42.303 329.353 41.8352C330.074 41.3674 330.963 41.1335 332.022 41.1335C333 41.1335 333.853 41.3428 334.579 41.7614C335.312 42.1799 335.878 42.7862 336.278 43.5803C336.684 44.3743 336.884 45.3376 336.878 46.4702V55.5H333.536V46.9872C333.536 46.0393 333.29 45.2976 332.797 44.7621C332.311 44.2266 331.637 43.9588 330.775 43.9588C330.19 43.9588 329.67 44.0881 329.215 44.3466C328.766 44.599 328.412 44.9652 328.153 45.4453C327.901 45.9254 327.775 46.5071 327.775 47.1903ZM345.539 55.7493C344.425 55.7493 343.427 55.4631 342.547 54.8906C341.667 54.3182 340.971 53.4872 340.461 52.3977C339.95 51.3082 339.694 49.9848 339.694 48.4276C339.694 46.8518 339.953 45.5223 340.47 44.4389C340.993 43.3494 341.698 42.5277 342.584 41.9737C343.471 41.4136 344.458 41.1335 345.548 41.1335C346.379 41.1335 347.062 41.2751 347.598 41.5582C348.133 41.8352 348.558 42.1707 348.872 42.5646C349.186 42.9524 349.429 43.3187 349.601 43.6634H349.74V36.5909H353.091V55.5H349.804V53.2656H349.601C349.429 53.6103 349.18 53.9766 348.853 54.3643C348.527 54.746 348.096 55.0722 347.561 55.343C347.025 55.6139 346.351 55.7493 345.539 55.7493ZM346.471 53.0071C347.179 53.0071 347.782 52.8163 348.281 52.4347C348.779 52.0469 349.158 51.5083 349.417 50.8189C349.675 50.1295 349.804 49.3262 349.804 48.4091C349.804 47.492 349.675 46.6948 349.417 46.0178C349.164 45.3407 348.789 44.8144 348.29 44.4389C347.798 44.0634 347.191 43.8757 346.471 43.8757C345.726 43.8757 345.105 44.0696 344.606 44.4574C344.108 44.8452 343.732 45.3807 343.48 46.0639C343.227 46.7472 343.101 47.5289 343.101 48.4091C343.101 49.2955 343.227 50.0864 343.48 50.782C343.738 51.4714 344.117 52.0161 344.615 52.4162C345.12 52.8101 345.739 53.0071 346.471 53.0071ZM356.653 55.5V41.3182H359.995V55.5H356.653ZM358.333 39.3054C357.804 39.3054 357.348 39.13 356.967 38.7791C356.585 38.4221 356.394 37.9943 356.394 37.4957C356.394 36.991 356.585 36.5632 356.967 36.2124C357.348 35.8553 357.804 35.6768 358.333 35.6768C358.869 35.6768 359.324 35.8553 359.7 36.2124C360.081 36.5632 360.272 36.991 360.272 37.4957C360.272 37.9943 360.081 38.4221 359.7 38.7791C359.324 39.13 358.869 39.3054 358.333 39.3054ZM366.775 47.1903V55.5H363.432V41.3182H366.627V43.728H366.793C367.119 42.9339 367.639 42.303 368.353 41.8352C369.074 41.3674 369.963 41.1335 371.022 41.1335C372 41.1335 372.853 41.3428 373.579 41.7614C374.312 42.1799 374.878 42.7862 375.278 43.5803C375.684 44.3743 375.884 45.3376 375.878 46.4702V55.5H372.536V46.9872C372.536 46.0393 372.29 45.2976 371.797 44.7621C371.311 44.2266 370.637 43.9588 369.775 43.9588C369.19 43.9588 368.67 44.0881 368.215 44.3466C367.766 44.599 367.412 44.9652 367.153 45.4453C366.901 45.9254 366.775 46.5071 366.775 47.1903ZM383.357 55.7862C382.458 55.7862 381.649 55.6262 380.929 55.3061C380.215 54.9799 379.648 54.4998 379.23 53.8658C378.817 53.2318 378.611 52.45 378.611 51.5206C378.611 50.7204 378.759 50.0587 379.054 49.5355C379.35 49.0123 379.753 48.5938 380.264 48.2798C380.775 47.9659 381.35 47.7289 381.99 47.5689C382.637 47.4027 383.305 47.2827 383.994 47.2088C384.825 47.1226 385.499 47.0457 386.016 46.978C386.533 46.9041 386.908 46.7933 387.142 46.6456C387.382 46.4917 387.502 46.2547 387.502 45.9347V45.8793C387.502 45.1837 387.296 44.6451 386.884 44.2635C386.471 43.8819 385.877 43.6911 385.102 43.6911C384.283 43.6911 383.634 43.8696 383.154 44.2266C382.68 44.5836 382.36 45.0052 382.194 45.4915L379.073 45.0483C379.319 44.1866 379.725 43.4664 380.292 42.8878C380.858 42.303 381.55 41.866 382.369 41.5767C383.188 41.2812 384.092 41.1335 385.083 41.1335C385.767 41.1335 386.447 41.2135 387.124 41.3736C387.801 41.5336 388.42 41.7983 388.98 42.1676C389.54 42.5308 389.989 43.0263 390.328 43.6541C390.672 44.282 390.845 45.0668 390.845 46.0085V55.5H387.632V53.5518H387.521C387.318 53.9458 387.032 54.3151 386.662 54.6598C386.299 54.9983 385.841 55.2723 385.287 55.4815C384.739 55.6847 384.096 55.7862 383.357 55.7862ZM384.225 53.3303C384.896 53.3303 385.477 53.1979 385.97 52.9332C386.462 52.6624 386.841 52.3054 387.105 51.8622C387.376 51.419 387.512 50.9358 387.512 50.4126V48.7415C387.407 48.8277 387.229 48.9077 386.976 48.9815C386.73 49.0554 386.453 49.12 386.145 49.1754C385.837 49.2308 385.533 49.2801 385.231 49.3232C384.93 49.3662 384.668 49.4032 384.446 49.4339C383.948 49.5017 383.502 49.6125 383.108 49.7663C382.714 49.9202 382.403 50.1357 382.175 50.4126C381.947 50.6835 381.833 51.0343 381.833 51.4652C381.833 52.0807 382.058 52.5455 382.507 52.8594C382.957 53.1733 383.529 53.3303 384.225 53.3303Z" fill="white"/>
<defs>
<clipPath id="clip0_310_19276">
<rect width="81" height="107" fill="white" transform="translate(0 40)"/>
</clipPath>
<clipPath id="clip1_310_19276">
<rect width="24" height="24" fill="white" transform="translate(184 34)"/>
</clipPath>
</defs>
</svg>
