<svg width="440" height="168" viewBox="0 0 440 168" fill="none" xmlns="http://www.w3.org/2000/svg">
<rect x="150" width="290" height="92" rx="18" fill="#006DB7"/>
<path d="M94 122L205.5 86.026L173.5 62L94 122Z" fill="#006DB7"/>
<rect x="162" y="24" width="44" height="44" rx="22" fill="#F15B5B"/>
<path d="M191 39H188V38C188 37.2044 187.684 36.4413 187.121 35.8787C186.559 35.3161 185.796 35 185 35H183C182.204 35 181.441 35.3161 180.879 35.8787C180.316 36.4413 180 37.2044 180 38V39H177C175.674 39.0016 174.404 39.5289 173.466 40.4662C172.529 41.4036 172.002 42.6744 172 44V52C172.002 53.3256 172.529 54.5964 173.466 55.5338C174.404 56.4711 175.674 56.9984 177 57H191C192.326 56.9984 193.596 56.4711 194.534 55.5338C195.471 54.5964 195.998 53.3256 196 52V44C195.998 42.6744 195.471 41.4036 194.534 40.4662C193.596 39.5289 192.326 39.0016 191 39ZM182 38C182 37.7348 182.105 37.4804 182.293 37.2929C182.48 37.1054 182.735 37 183 37H185C185.265 37 185.52 37.1054 185.707 37.2929C185.895 37.4804 186 37.7348 186 38V39H182V38ZM194 52C194 52.7956 193.684 53.5587 193.121 54.1213C192.559 54.6839 191.796 55 191 55H177C176.204 55 175.441 54.6839 174.879 54.1213C174.316 53.5587 174 52.7956 174 52V44C174 43.2044 174.316 42.4413 174.879 41.8787C175.441 41.3161 176.204 41 177 41H191C191.796 41 192.559 41.3161 193.121 41.8787C193.684 42.4413 194 43.2044 194 44V52ZM188 48C188 48.2652 187.895 48.5196 187.707 48.7071C187.52 48.8946 187.265 49 187 49H185V51C185 51.2652 184.895 51.5196 184.707 51.7071C184.52 51.8946 184.265 52 184 52C183.735 52 183.48 51.8946 183.293 51.7071C183.105 51.5196 183 51.2652 183 51V49H181C180.735 49 180.48 48.8946 180.293 48.7071C180.105 48.5196 180 48.2652 180 48C180 47.7348 180.105 47.4804 180.293 47.2929C180.48 47.1054 180.735 47 181 47H183V45C183 44.7348 183.105 44.4804 183.293 44.2929C183.48 44.1054 183.735 44 184 44C184.265 44 184.52 44.1054 184.707 44.2929C184.895 44.4804 185 44.7348 185 45V47H187C187.265 47 187.52 47.1054 187.707 47.2929C187.895 47.4804 188 47.7348 188 48Z" fill="white"/>
<path d="M223.865 55V36.0909H227.29V44.0959H236.053V36.0909H239.487V55H236.053V46.9673H227.29V55H223.865ZM249.251 55.277C247.866 55.277 246.666 54.9723 245.65 54.3629C244.635 53.7536 243.847 52.901 243.287 51.8054C242.733 50.7098 242.456 49.4295 242.456 47.9645C242.456 46.4995 242.733 45.2161 243.287 44.1143C243.847 43.0125 244.635 42.157 245.65 41.5476C246.666 40.9382 247.866 40.6335 249.251 40.6335C250.636 40.6335 251.836 40.9382 252.852 41.5476C253.868 42.157 254.652 43.0125 255.206 44.1143C255.766 45.2161 256.047 46.4995 256.047 47.9645C256.047 49.4295 255.766 50.7098 255.206 51.8054C254.652 52.901 253.868 53.7536 252.852 54.3629C251.836 54.9723 250.636 55.277 249.251 55.277ZM249.27 52.5994C250.02 52.5994 250.648 52.3932 251.153 51.9808C251.658 51.5623 252.033 51.0021 252.279 50.3004C252.532 49.5987 252.658 48.817 252.658 47.9553C252.658 47.0874 252.532 46.3026 252.279 45.6009C252.033 44.893 251.658 44.3298 251.153 43.9112C250.648 43.4927 250.02 43.2834 249.27 43.2834C248.5 43.2834 247.86 43.4927 247.349 43.9112C246.844 44.3298 246.466 44.893 246.213 45.6009C245.967 46.3026 245.844 47.0874 245.844 47.9553C245.844 48.817 245.967 49.5987 246.213 50.3004C246.466 51.0021 246.844 51.5623 247.349 51.9808C247.86 52.3932 248.5 52.5994 249.27 52.5994ZM270.092 44.5668L267.045 44.8991C266.959 44.5914 266.808 44.3021 266.593 44.0312C266.384 43.7604 266.1 43.5419 265.743 43.3757C265.386 43.2095 264.949 43.1264 264.432 43.1264C263.737 43.1264 263.152 43.2772 262.678 43.5788C262.21 43.8804 261.979 44.2713 261.986 44.7514C261.979 45.1638 262.13 45.4993 262.438 45.7578C262.752 46.0163 263.269 46.2287 263.989 46.3949L266.408 46.9119C267.75 47.2012 268.747 47.6598 269.4 48.2876C270.058 48.9155 270.391 49.7372 270.397 50.7528C270.391 51.6454 270.129 52.4332 269.612 53.1165C269.101 53.7936 268.39 54.3229 267.479 54.7045C266.568 55.0862 265.522 55.277 264.34 55.277C262.604 55.277 261.207 54.9138 260.148 54.1875C259.09 53.455 258.459 52.4363 258.256 51.1314L261.515 50.8175C261.662 51.4576 261.976 51.9408 262.456 52.267C262.937 52.5933 263.561 52.7564 264.331 52.7564C265.125 52.7564 265.762 52.5933 266.242 52.267C266.728 51.9408 266.971 51.5376 266.971 51.0575C266.971 50.6513 266.814 50.3158 266.501 50.0511C266.193 49.7865 265.713 49.5833 265.06 49.4418L262.641 48.9339C261.281 48.6508 260.274 48.1738 259.622 47.5028C258.97 46.8258 258.646 45.9702 258.653 44.9361C258.646 44.062 258.883 43.3049 259.363 42.6648C259.85 42.0185 260.524 41.5199 261.385 41.169C262.253 40.812 263.254 40.6335 264.386 40.6335C266.048 40.6335 267.356 40.9875 268.31 41.6953C269.27 42.4032 269.864 43.3603 270.092 44.5668ZM273.153 60.3182V40.8182H276.44V43.1634H276.634C276.806 42.8187 277.049 42.4524 277.363 42.0646C277.677 41.6707 278.102 41.3352 278.637 41.0582C279.173 40.7751 279.856 40.6335 280.687 40.6335C281.783 40.6335 282.771 40.9136 283.651 41.4737C284.537 42.0277 285.239 42.8494 285.756 43.9389C286.279 45.0223 286.541 46.3518 286.541 47.9276C286.541 49.4848 286.285 50.8082 285.774 51.8977C285.263 52.9872 284.568 53.8182 283.688 54.3906C282.807 54.9631 281.81 55.2493 280.696 55.2493C279.884 55.2493 279.21 55.1139 278.674 54.843C278.139 54.5722 277.708 54.246 277.382 53.8643C277.061 53.4766 276.812 53.1103 276.634 52.7656H276.495V60.3182H273.153ZM276.431 47.9091C276.431 48.8262 276.56 49.6295 276.818 50.3189C277.083 51.0083 277.462 51.5469 277.954 51.9347C278.453 52.3163 279.056 52.5071 279.764 52.5071C280.502 52.5071 281.121 52.3101 281.619 51.9162C282.118 51.5161 282.494 50.9714 282.746 50.282C283.004 49.5864 283.134 48.7955 283.134 47.9091C283.134 47.0289 283.008 46.2472 282.755 45.5639C282.503 44.8807 282.127 44.3452 281.629 43.9574C281.13 43.5696 280.508 43.3757 279.764 43.3757C279.05 43.3757 278.443 43.5634 277.945 43.9389C277.446 44.3144 277.068 44.8407 276.809 45.5178C276.557 46.1948 276.431 46.992 276.431 47.9091ZM289.403 55V40.8182H292.745V55H289.403ZM291.083 38.8054C290.554 38.8054 290.098 38.63 289.717 38.2791C289.335 37.9221 289.144 37.4943 289.144 36.9957C289.144 36.491 289.335 36.0632 289.717 35.7124C290.098 35.3553 290.554 35.1768 291.083 35.1768C291.619 35.1768 292.074 35.3553 292.45 35.7124C292.831 36.0632 293.022 36.491 293.022 36.9957C293.022 37.4943 292.831 37.9221 292.45 38.2791C292.074 38.63 291.619 38.8054 291.083 38.8054ZM303.264 40.8182V43.4034H295.111V40.8182H303.264ZM297.124 37.4205H300.466V50.7344C300.466 51.1837 300.534 51.5284 300.669 51.7685C300.811 52.0024 300.996 52.1624 301.223 52.2486C301.451 52.3348 301.703 52.3778 301.98 52.3778C302.19 52.3778 302.381 52.3625 302.553 52.3317C302.731 52.3009 302.867 52.2732 302.959 52.2486L303.522 54.8615C303.344 54.9231 303.088 54.9908 302.756 55.0646C302.43 55.1385 302.03 55.1816 301.556 55.1939C300.719 55.2185 299.965 55.0923 299.294 54.8153C298.623 54.5322 298.09 54.0952 297.696 53.5043C297.309 52.9134 297.118 52.1747 297.124 51.2884V37.4205ZM310.14 55.2862C309.241 55.2862 308.432 55.1262 307.712 54.8061C306.998 54.4799 306.432 53.9998 306.013 53.3658C305.601 52.7318 305.394 51.95 305.394 51.0206C305.394 50.2204 305.542 49.5587 305.838 49.0355C306.133 48.5123 306.536 48.0938 307.047 47.7798C307.558 47.4659 308.133 47.2289 308.774 47.0689C309.42 46.9027 310.088 46.7827 310.777 46.7088C311.608 46.6226 312.282 46.5457 312.799 46.478C313.316 46.4041 313.692 46.2933 313.926 46.1456C314.166 45.9917 314.286 45.7547 314.286 45.4347V45.3793C314.286 44.6837 314.079 44.1451 313.667 43.7635C313.255 43.3819 312.661 43.1911 311.885 43.1911C311.066 43.1911 310.417 43.3696 309.937 43.7266C309.463 44.0836 309.143 44.5052 308.977 44.9915L305.856 44.5483C306.102 43.6866 306.508 42.9664 307.075 42.3878C307.641 41.803 308.334 41.366 309.152 41.0767C309.971 40.7812 310.876 40.6335 311.867 40.6335C312.55 40.6335 313.23 40.7135 313.907 40.8736C314.584 41.0336 315.203 41.2983 315.763 41.6676C316.323 42.0308 316.772 42.5263 317.111 43.1541C317.456 43.782 317.628 44.5668 317.628 45.5085V55H314.415V53.0518H314.304C314.101 53.4458 313.815 53.8151 313.445 54.1598C313.082 54.4983 312.624 54.7723 312.07 54.9815C311.522 55.1847 310.879 55.2862 310.14 55.2862ZM311.008 52.8303C311.679 52.8303 312.261 52.6979 312.753 52.4332C313.245 52.1624 313.624 51.8054 313.889 51.3622C314.16 50.919 314.295 50.4358 314.295 49.9126V48.2415C314.19 48.3277 314.012 48.4077 313.759 48.4815C313.513 48.5554 313.236 48.62 312.928 48.6754C312.621 48.7308 312.316 48.7801 312.014 48.8232C311.713 48.8662 311.451 48.9032 311.23 48.9339C310.731 49.0017 310.285 49.1125 309.891 49.2663C309.497 49.4202 309.186 49.6357 308.958 49.9126C308.731 50.1835 308.617 50.5343 308.617 50.9652C308.617 51.5807 308.841 52.0455 309.291 52.3594C309.74 52.6733 310.312 52.8303 311.008 52.8303ZM324.331 36.0909V55H320.989V36.0909H324.331ZM334.365 55V36.0909H341.604C342.97 36.0909 344.106 36.3063 345.011 36.7372C345.922 37.1619 346.602 37.7436 347.051 38.4822C347.507 39.2209 347.734 40.058 347.734 40.9936C347.734 41.763 347.587 42.4216 347.291 42.9695C346.996 43.5111 346.599 43.9512 346.1 44.2898C345.602 44.6283 345.045 44.8714 344.429 45.0192V45.2038C345.1 45.2408 345.743 45.447 346.359 45.8224C346.98 46.1918 347.488 46.715 347.882 47.392C348.276 48.0691 348.473 48.8878 348.473 49.848C348.473 50.8267 348.236 51.7069 347.762 52.4886C347.288 53.2642 346.574 53.8767 345.62 54.326C344.666 54.7753 343.466 55 342.019 55H334.365ZM337.79 52.1378H341.474C342.718 52.1378 343.613 51.9008 344.161 51.4268C344.715 50.9467 344.992 50.3312 344.992 49.5803C344.992 49.0201 344.854 48.5154 344.577 48.0661C344.3 47.6106 343.906 47.2536 343.395 46.995C342.884 46.7304 342.275 46.598 341.567 46.598H337.79V52.1378ZM337.79 44.1328H341.179C341.77 44.1328 342.302 44.0251 342.776 43.8097C343.25 43.5881 343.623 43.2772 343.893 42.8771C344.17 42.4709 344.309 41.9908 344.309 41.4368C344.309 40.7043 344.05 40.1011 343.533 39.6271C343.022 39.1532 342.262 38.9162 341.253 38.9162H337.79V44.1328ZM357.584 55.277C356.162 55.277 354.934 54.9815 353.9 54.3906C352.872 53.7936 352.081 52.9503 351.527 51.8608C350.973 50.7652 350.696 49.4756 350.696 47.9922C350.696 46.5334 350.973 45.2531 351.527 44.1513C352.087 43.0433 352.869 42.1816 353.872 41.5661C354.875 40.9444 356.054 40.6335 357.408 40.6335C358.282 40.6335 359.107 40.7751 359.883 41.0582C360.664 41.3352 361.354 41.7661 361.951 42.3509C362.554 42.9356 363.028 43.6804 363.373 44.5852C363.717 45.4839 363.89 46.5549 363.89 47.7983V48.8232H352.265V46.5703H360.686C360.68 45.9302 360.541 45.3608 360.27 44.8622C360 44.3575 359.621 43.9605 359.135 43.6712C358.655 43.3819 358.095 43.2372 357.454 43.2372C356.771 43.2372 356.171 43.4034 355.654 43.7358C355.137 44.062 354.734 44.4929 354.444 45.0284C354.161 45.5578 354.017 46.1394 354.01 46.7734V48.7401C354.01 49.5649 354.161 50.2727 354.463 50.8636C354.765 51.4484 355.186 51.8977 355.728 52.2116C356.269 52.5194 356.903 52.6733 357.63 52.6733C358.116 52.6733 358.556 52.6056 358.95 52.4702C359.344 52.3286 359.686 52.1224 359.975 51.8516C360.264 51.5807 360.483 51.2453 360.631 50.8452L363.751 51.196C363.554 52.0208 363.179 52.741 362.625 53.3565C362.077 53.9659 361.375 54.4399 360.52 54.7784C359.664 55.1108 358.685 55.277 357.584 55.277ZM370.06 36.0909V55H366.717V36.0909H370.06ZM379.775 55.277C378.353 55.277 377.125 54.9815 376.091 54.3906C375.063 53.7936 374.272 52.9503 373.718 51.8608C373.164 50.7652 372.887 49.4756 372.887 47.9922C372.887 46.5334 373.164 45.2531 373.718 44.1513C374.278 43.0433 375.06 42.1816 376.063 41.5661C377.067 40.9444 378.245 40.6335 379.6 40.6335C380.474 40.6335 381.298 40.7751 382.074 41.0582C382.856 41.3352 383.545 41.7661 384.142 42.3509C384.745 42.9356 385.219 43.6804 385.564 44.5852C385.909 45.4839 386.081 46.5549 386.081 47.7983V48.8232H374.457V46.5703H382.877C382.871 45.9302 382.733 45.3608 382.462 44.8622C382.191 44.3575 381.812 43.9605 381.326 43.6712C380.846 43.3819 380.286 43.2372 379.646 43.2372C378.963 43.2372 378.362 43.4034 377.845 43.7358C377.328 44.062 376.925 44.4929 376.636 45.0284C376.353 45.5578 376.208 46.1394 376.202 46.7734V48.7401C376.202 49.5649 376.353 50.2727 376.654 50.8636C376.956 51.4484 377.378 51.8977 377.919 52.2116C378.461 52.5194 379.095 52.6733 379.821 52.6733C380.307 52.6733 380.748 52.6056 381.142 52.4702C381.535 52.3286 381.877 52.1224 382.166 51.8516C382.456 51.5807 382.674 51.2453 382.822 50.8452L385.943 51.196C385.746 52.0208 385.37 52.741 384.816 53.3565C384.268 53.9659 383.567 54.4399 382.711 54.7784C381.856 55.1108 380.877 55.277 379.775 55.277ZM378.224 38.9531L380.292 34.7337H383.561L380.726 38.9531H378.224ZM392.251 46.6903V55H388.909V40.8182H392.103V43.228H392.27C392.596 42.4339 393.116 41.803 393.83 41.3352C394.55 40.8674 395.44 40.6335 396.498 40.6335C397.477 40.6335 398.329 40.8428 399.056 41.2614C399.788 41.6799 400.355 42.2862 400.755 43.0803C401.161 43.8743 401.361 44.8376 401.355 45.9702V55H398.012V46.4872C398.012 45.5393 397.766 44.7976 397.274 44.2621C396.788 43.7266 396.114 43.4588 395.252 43.4588C394.667 43.4588 394.147 43.5881 393.691 43.8466C393.242 44.099 392.888 44.4652 392.63 44.9453C392.377 45.4254 392.251 46.0071 392.251 46.6903Z" fill="white"/>
<g clip-path="url(#clip0_171_158493)">
<path d="M87 138.988L49.8688 114.07L0 143.084L37.1326 168L87 138.988Z" fill="#C4C443"/>
<path d="M34.5528 157.603L27.1551 161.948L7.94922 149.144L15.2851 144.759L8.61905 140.316L44.7011 118.744L77.917 141.269L41.8362 162.459L34.5528 157.603Z" fill="#807E89"/>
<path d="M44.6789 119.424L76.8402 141.235L41.8543 161.782L34.5709 156.927L27.1732 161.272L9.02047 149.171L16.3563 144.786L9.6903 140.343L44.6789 119.424ZM44.7179 118.064L44.0871 118.441L9.09983 139.358L7.54227 140.289L9.05141 141.295L14.2083 144.732L8.42865 148.187L6.87109 149.118L8.38023 150.123L26.5316 162.223L27.1315 162.623L27.7542 162.256L34.5305 158.277L41.2141 162.733L41.8139 163.132L42.4367 162.766L77.4239 142.219L78.9882 141.3L77.4871 140.282L45.3258 118.476L44.7179 118.064Z" fill="#EAE3E1"/>
<path opacity="0.4" d="M44.0664 158.164L55.549 157.107L83.4398 140.936L72.892 134.346L56.079 140.298L48.7727 143.025L47.0174 145.792L44.1189 151.694L44.0664 158.164Z" fill="#382C36"/>
<path d="M44.0676 158.089L15.3281 139.088V96.6152L44.0676 115.616V158.089Z" fill="#F4F5F7"/>
<path d="M44.0676 158.11L15.3281 139.109V136.207L44.0676 155.209V158.11Z" fill="#CAE2EF"/>
<path opacity="0.1" d="M38.8242 154.642L38.9399 134.156L41.7483 140.651V144.721L39.5774 143.388L39.5922 155.157L38.8242 154.642Z" fill="#382C36"/>
<path d="M44.0676 117.029L15.3281 97.9899V96.6152L44.0676 115.616V117.029Z" fill="#BDCAD3"/>
<path d="M44.0664 158.093L73.0332 141.264V98.791L44.0664 115.62V158.093Z" fill="#BDCAD3"/>
<path d="M37.8594 155.385L38.9004 154.63V138.607L37.8594 139.134V155.385Z" fill="#CACAC8"/>
<path d="M73.0353 98.7917L44.2958 79.791L15.3438 96.6151L44.0833 115.616L73.0353 98.7917Z" fill="#F99770"/>
<path d="M44.0676 121.528L15.3281 102.528V99.627L44.0676 118.626V121.528Z" fill="#CAE2EF"/>
<path d="M44.0703 121.535L73.0371 104.705V101.805L44.0703 118.633V121.535Z" fill="#4B7CA4"/>
<path d="M44.0703 158.115L73.0371 141.286V138.385L44.0703 155.214V158.115Z" fill="#4B7CA4" stroke="#4B7CA4" stroke-width="0.172131" stroke-miterlimit="10"/>
<path d="M73.753 98.7912V97.43L44.3316 79.3613L14.625 95.2534V96.6146L44.0478 116.044L73.753 98.7912Z" fill="#EBF2FA"/>
<path d="M44.3316 79.3613L44.0478 115.055L44.0195 116.397L44.0478 116.044L73.753 98.7912V97.43L44.3316 79.3613Z" fill="#CACAC8"/>
<path d="M73.753 97.4299L44.3316 78L14.625 95.2533L44.0478 114.684L73.753 97.4299Z" fill="white"/>
<path d="M71.344 97.4309L44.2105 79.4414L17.0312 95.253L44.1648 113.243L71.344 97.4309Z" fill="#D4D4D4"/>
<path d="M44.2105 79.4414L17.0312 95.253L18.8202 96.3782L44.2105 81.5872V79.4414Z" fill="#C7C7C7"/>
<path d="M44.2109 81.5872L69.5556 98.4502L71.3445 97.4309L44.2109 79.4414V81.5872Z" fill="#F4F5F7"/>
<path opacity="0.1" d="M20.0781 142.198V121.713L22.8879 128.208V132.279L20.717 130.946L20.7305 142.715L20.0781 142.198Z" fill="#7466A4"/>
<path d="M21.793 143.064V127.355L35.7626 136.527V152.244L21.793 143.064Z" fill="#435A5E"/>
<path d="M22.0936 127.915L35.4565 136.69V151.682L22.0936 142.901V127.915ZM21.4883 126.793V127.915V142.9V143.225L21.7613 143.405L35.1243 152.187L36.0645 152.805V151.682V136.69V136.364L35.7915 136.185L22.4285 127.41L21.4883 126.793Z" fill="#EAE3E1"/>
<path opacity="0.6" d="M31.57 148.736L31.8283 141.855L25.5859 139.533V144.798L31.57 148.736Z" fill="#435A5E"/>
<path opacity="0.1" d="M45.0907 112.716L19.5833 95.827L17.0156 95.2383L44.1599 113.248L45.0907 112.716Z" fill="#382C36"/>
<g opacity="0.8">
<path d="M16.7566 112.943L42.1309 129.636V132.632L16.7566 116.064V112.943ZM16.2227 111.953V112.942L16.567 116.58L43.1248 133.844V122.989L42.7644 122.167L17.0499 112.498L16.2227 111.953Z" fill="#BDCAD3"/>
</g>
<path d="M16.4531 115.763V105.262L42.434 122.354V132.726L16.4531 115.763Z" fill="#435A5E"/>
<path d="M16.7551 105.823L42.1293 122.516V132.166L16.7551 115.598V105.823ZM16.1484 104.699V105.823V115.598V115.926L16.4228 116.105L41.797 132.672L42.7359 133.285V132.166V122.516V122.19L42.4628 122.01L17.0886 105.319L16.1484 104.699Z" fill="#EAE3E1"/>
<path d="M18.1054 116.862L16.4375 115.732V105.352L18.1054 106.483V116.862Z" fill="#EAE3E1"/>
<path d="M26.1809 122.142L24.5117 121.011V110.631L26.1809 111.763V122.142Z" fill="#EAE3E1"/>
<path d="M34.2551 127.419L32.5859 126.288V115.908L34.2551 117.04V127.419Z" fill="#EAE3E1"/>
<path d="M42.328 132.698L40.6602 131.568V121.188L42.328 122.319V132.698Z" fill="#EAE3E1"/>
<path d="M19.7747 115.598L18.1055 116.489V106.715L19.7747 107.821V115.598Z" fill="#BDCAD3"/>
<path d="M19.7747 115.598L18.1055 116.488L24.5119 120.683V118.614L19.7747 115.598Z" fill="white"/>
<path d="M27.8514 120.9L26.1836 121.79V112.018L27.8514 113.124V120.9Z" fill="#BDCAD3"/>
<path d="M27.8514 120.898L26.1836 121.789L32.5887 125.985L32.59 123.916L27.8514 120.898Z" fill="white"/>
<path d="M35.9179 126.21L34.25 127.101V117.328L35.9179 118.435V126.21Z" fill="#BDCAD3"/>
<path d="M35.9179 126.211L34.25 127.101L40.6551 131.298L40.6564 129.227L35.9179 126.211Z" fill="white"/>
<path d="M24.6379 145.313L24.0312 144.927V137.055H24.6379V145.313Z" fill="#EAE3E1"/>
<path d="M33.1183 150.56L32.5117 150.172V141.023H33.1183V150.56Z" fill="#EAE3E1"/>
<path d="M25.5871 144.796L24.9805 144.41V135.26H25.5871V144.796Z" fill="#EAE3E1"/>
<path d="M32.1144 149.068L31.5078 148.682V139.531H32.1144V149.068Z" fill="#EAE3E1"/>
<path d="M22.2472 117.171L21.6406 116.783V108.912H22.2472V117.171Z" fill="#EAE3E1"/>
<path d="M30.3215 122.525L29.7148 122.138V114.266H30.3215V122.525Z" fill="#EAE3E1"/>
<path d="M38.4959 127.883L37.8906 127.495V119.623H38.4959V127.883Z" fill="#EAE3E1"/>
<g opacity="0.8">
<path opacity="0.5" d="M71.3769 115.303V118.443L46.0027 132.822V129.826L71.3769 115.303ZM71.9109 114.354L71.0824 114.831L45.7082 129.355L45.4688 129.492V129.779V132.775V133.759L46.2946 133.294L71.6688 118.916L71.9096 118.778V118.488V115.349V114.354H71.9109Z" fill="#ADA17C"/>
</g>
<path d="M45.6953 122.515L71.6775 107.602V118.164L45.6953 132.888V122.515Z" fill="#303A3A"/>
<path d="M71.3754 108.142V117.975L46.0011 132.356V122.705L71.3754 108.142ZM71.982 107.062L71.0418 107.606L45.6676 122.17L45.3945 122.326V122.651V132.302V133.421L46.3334 132.892L71.7076 118.513L71.982 118.356V118.027V108.193V107.062Z" fill="#D1CAC8"/>
<path d="M70.0234 119.128L71.6913 118.136V107.695L70.0234 108.692V119.128Z" fill="#D1CAC8"/>
<path d="M61.9492 123.728L63.6184 122.738V112.316L61.9492 113.31V123.728Z" fill="#D1CAC8"/>
<path d="M53.875 128.309L55.5442 127.323V116.92L53.875 117.91V128.309Z" fill="#D1CAC8"/>
<path d="M45.8008 132.87L47.4686 131.889V121.504L45.8008 122.49V132.87Z" fill="#D1CAC8"/>
<path d="M68.3555 117.713L70.0247 118.752V108.926L68.3555 109.874V117.713Z" fill="#A4B1BA"/>
<path d="M68.3544 117.713L70.0236 118.752L63.6172 122.412V120.333L68.3544 117.713Z" fill="#E6E6E6"/>
<path d="M60.2816 122.335L61.9495 123.374V113.551L60.2695 114.52L60.2816 122.335Z" fill="#A4B1BA"/>
<path d="M60.2802 122.336L61.9481 123.375L55.543 127.019V124.946L60.2802 122.336Z" fill="#E6E6E6"/>
<path d="M52.2109 126.949L53.8788 127.988V118.184L52.2109 119.148V126.949Z" fill="#A4B1BA"/>
<path d="M52.2112 126.949L53.8791 127.989L47.474 131.618L47.4727 129.547L52.2112 126.949Z" fill="#E6E6E6"/>
<path d="M65.8867 119.079L66.492 118.743V110.834L65.8867 110.783V119.079Z" fill="#D1CAC8"/>
<path d="M57.8086 123.751L58.4152 123.416V115.521L57.8086 115.469V123.751Z" fill="#D1CAC8"/>
<path d="M49.6367 128.395L50.2433 128.062V120.181L49.6367 120.129V128.395Z" fill="#D1CAC8"/>
<path d="M37.857 155.385L37.3203 155.047V139.675L37.857 139.369V155.385Z" fill="#F4F5F7"/>
<g opacity="0.1">
<path d="M37.8572 142.93V139.133L38.2055 138.956L38.1248 138.604L37.1658 138.719C37.1658 138.719 35.7091 139.254 35.5168 139.292C35.3258 139.33 33.5234 140.171 33.5234 140.171L37.0891 141.853V142.58L37.8572 142.93Z" fill="#7466A4"/>
</g>
<g opacity="0.8">
<path opacity="0.5" d="M71.3769 130.872V134.012L46.0027 148.391V145.395L71.3769 130.872ZM71.9109 129.924L71.0824 130.401L45.7082 144.925L45.4688 145.062V145.349V148.345V149.33L46.2946 148.864L71.6688 134.486L71.9096 134.348V134.058V130.919V129.924H71.9109Z" fill="#ADA17C"/>
</g>
<path d="M45.6953 138.085L71.6775 123.172V133.734L45.6953 148.457V138.085Z" fill="#303A3A"/>
<path d="M71.3754 123.711V133.544L46.0011 147.926V138.274L71.3754 123.711ZM71.982 122.633L71.0418 123.176L45.6676 137.74L45.3945 137.896V138.222V147.872V148.991L46.3334 148.462L71.7076 134.082L71.982 133.925V133.596V123.762V122.633Z" fill="#D1CAC8"/>
<path d="M70.0234 134.698L71.6913 133.704V123.264L70.0234 124.261V134.698Z" fill="#D1CAC8"/>
<path d="M61.9492 139.298L63.6184 138.308V127.887L61.9492 128.88V139.298Z" fill="#D1CAC8"/>
<path d="M53.875 143.878L55.5442 142.893V132.488L53.875 133.478V143.878Z" fill="#D1CAC8"/>
<path d="M45.8008 148.44L47.4686 147.458V137.074L45.8008 138.059V148.44Z" fill="#D1CAC8"/>
<path d="M68.3555 133.283L70.0247 134.322V124.496L68.3555 125.467V133.283Z" fill="#A4B1BA"/>
<path d="M68.3544 133.283L70.0236 134.323L63.6172 137.981V135.904L68.3544 133.283Z" fill="#E6E6E6"/>
<path d="M60.2812 137.906L61.9491 138.946V129.137L60.2812 130.104V137.906Z" fill="#A4B1BA"/>
<path d="M60.2802 137.906L61.9481 138.946L55.543 142.589V140.515L60.2802 137.906Z" fill="#E6E6E6"/>
<path d="M52.2109 142.52L53.8788 143.559V133.768L52.2109 134.73V142.52Z" fill="#A4B1BA"/>
<path d="M52.2112 142.52L53.8791 143.559L47.474 147.188L47.4727 145.117L52.2112 142.52Z" fill="#E6E6E6"/>
<path d="M65.8867 134.649L66.492 134.312V126.404L65.8867 126.352V134.649Z" fill="#D1CAC8"/>
<path d="M57.8086 139.32L58.4152 138.986V131.091L57.8086 131.039V139.32Z" fill="#D1CAC8"/>
<path d="M49.6367 143.964L50.2433 143.631V135.75L49.6367 135.697V143.964Z" fill="#D1CAC8"/>
<path d="M19.1094 142.829L20.1504 142.302V126.281L19.1094 126.808V142.829Z" fill="#CACAC8"/>
<path d="M19.1109 142.829L18.5742 142.491V127.349L19.1109 127.043V142.829Z" fill="#F4F5F7"/>
<path d="M38.9437 138.77V135.133L11.8008 130.664L30.8641 143.34L38.9437 138.77Z" fill="#CACAC8"/>
<path d="M30.8789 138.088L11.8008 127.025V130.662L30.8641 143.339L30.8789 138.088Z" fill="#F4F5F7"/>
<path d="M38.9419 135.131L19.65 122.34L11.5703 126.91L30.8622 139.702L38.9419 135.131Z" fill="#DCDEE2"/>
<path d="M39.171 134.991V134.204L19.7553 122.787L11.5586 126.179V126.966L30.9743 139.744L39.171 134.991Z" fill="#EBF2FA"/>
<path d="M19.7539 122.9L30.9729 139.071L30.9433 139.84L30.9729 139.859L39.1696 135.106V134.319L19.7539 122.9Z" fill="#CACAC8"/>
<path d="M39.171 134.204L19.7553 121.426L11.5586 126.179L30.9743 138.957L39.171 134.204Z" fill="white"/>
<path d="M36.7606 134.205L19.6342 122.867L13.9648 126.178L31.0913 137.516L36.7606 134.205Z" fill="#D4D4D4"/>
<path d="M19.6342 122.867L13.9648 126.178L14.749 126.717L19.6342 123.865V122.867Z" fill="#C7C7C7"/>
<path d="M19.6367 123.865L35.8566 134.717L36.7631 134.205L19.6367 122.867V123.865Z" fill="#F4F5F7"/>
<path d="M15.0367 131.214L14.9372 131.683L14.6211 131.47L15.0461 129.666L15.4483 129.938L15.8518 132.297L15.5236 132.076L15.4241 131.472L15.0367 131.214ZM15.381 131.094L15.3003 130.597C15.2775 130.457 15.2546 130.287 15.2344 130.149L15.2304 130.146C15.2089 130.256 15.1887 130.4 15.1658 130.506L15.0824 130.893L15.381 131.094Z" fill="#00A200"/>
<path d="M17.3033 132.479C17.3006 132.227 17.2979 131.924 17.3006 131.623L17.2952 131.619C17.2495 131.854 17.1903 132.109 17.1365 132.317L16.963 133.011L16.7249 132.852L16.589 131.955C16.5473 131.682 16.5043 131.357 16.4747 131.066L16.4707 131.063C16.4599 131.336 16.4505 131.652 16.4384 131.902L16.4075 132.672L16.125 132.482L16.2299 130.469L16.6375 130.745L16.7625 131.524C16.8029 131.792 16.8419 132.078 16.8688 132.34L16.8742 132.344C16.9145 132.13 16.9643 131.889 17.01 131.689L17.162 131.102L17.5615 131.373L17.6113 133.482L17.3127 133.281L17.3033 132.479Z" fill="#00A200"/>
<path d="M17.993 131.693C18.0737 131.723 18.2364 131.815 18.3897 131.919C18.5767 132.046 18.691 132.151 18.7879 132.305C18.8807 132.444 18.9479 132.631 18.9452 132.816C18.9426 132.998 18.8699 133.12 18.7166 133.103V133.108C18.8699 133.276 18.9816 133.529 18.9775 133.794C18.9748 133.979 18.917 134.087 18.8309 134.134C18.7314 134.186 18.5659 134.144 18.2983 133.963C18.1476 133.862 18.036 133.771 17.9688 133.71L17.993 131.693ZM18.2727 133.595C18.3023 133.622 18.3386 133.646 18.3911 133.681C18.5296 133.773 18.652 133.777 18.6561 133.562C18.6588 133.355 18.5377 133.19 18.3857 133.087L18.2808 133.016L18.2727 133.595ZM18.2862 132.684L18.3871 132.753C18.5471 132.861 18.6345 132.82 18.6372 132.667C18.6399 132.511 18.5619 132.377 18.4234 132.283C18.3575 132.238 18.3185 132.219 18.2929 132.207L18.2862 132.684Z" fill="#00A200"/>
<path d="M19.6305 132.78L19.6117 133.954C19.6063 134.306 19.691 134.544 19.8471 134.649C20.0071 134.756 20.0986 134.648 20.104 134.287L20.1241 133.115L20.4295 133.321L20.4093 134.463C20.3985 135.09 20.182 135.248 19.8309 135.011C19.4906 134.782 19.2956 134.362 19.305 133.71L19.3225 132.57L19.6305 132.78Z" fill="#00A200"/>
<path d="M20.8189 133.584L21.1269 133.792L21.0946 135.435L21.6313 135.795L21.6232 136.18L20.7812 135.614L20.8189 133.584Z" fill="#00A200"/>
<path d="M22.2596 136.085L22.152 136.539L21.8359 136.327L22.2933 134.586L22.6954 134.858L23.0667 137.154L22.7385 136.934L22.6457 136.347L22.2596 136.085ZM22.6107 135.975L22.5367 135.491C22.5152 135.356 22.495 135.189 22.4775 135.057L22.4735 135.054C22.4506 135.16 22.4278 135.299 22.4022 135.401L22.3121 135.775L22.6107 135.975Z" fill="#00A200"/>
<path d="M23.3672 137.355L23.417 135.346L23.7747 135.588L24.037 136.512C24.1123 136.778 24.185 137.081 24.2388 137.348L24.2442 137.352C24.2307 137.074 24.2321 136.799 24.2401 136.5L24.2563 135.916L24.5374 136.106L24.4822 138.104L24.1621 137.89L23.8944 136.923C23.8205 136.655 23.7384 136.337 23.6779 136.056L23.6725 136.055C23.6739 136.325 23.6712 136.61 23.6618 136.938L23.647 137.542L23.3672 137.355Z" fill="#00A200"/>
<path d="M25.8591 138.974C25.8013 138.978 25.6748 138.938 25.5107 138.826C25.0453 138.514 24.8167 137.922 24.8328 137.354C24.8517 136.673 25.192 136.517 25.6022 136.795C25.7609 136.902 25.8793 137.031 25.9331 137.108L25.8604 137.424C25.7999 137.343 25.7138 137.249 25.6062 137.175C25.3628 137.011 25.1691 137.099 25.1556 137.543C25.1435 137.943 25.2969 138.301 25.5686 138.484C25.66 138.546 25.7636 138.585 25.8241 138.59L25.8591 138.974Z" fill="#00A200"/>
<path d="M27.0082 138.947L26.5119 138.612L26.4971 139.082L27.0513 139.455L27.0392 139.821L26.1797 139.243L26.2416 137.26L27.0768 137.826L27.0647 138.192L26.5375 137.835L26.524 138.247L27.0217 138.582L27.0082 138.947Z" fill="#00A200"/>
<path opacity="0.2" d="M27.4688 128.51V129.105L30.4588 131.106V130.489L27.4688 128.51Z" fill="#435A5E"/>
<g opacity="0.5">
<path d="M23.1762 117.756L22.4688 117.315L23.6188 110.348L24.3949 110.849L23.1762 117.756Z" fill="#BDCAD3"/>
</g>
<g opacity="0.5">
<path d="M31.9116 123.481L30.5195 122.589L31.6695 115.623L32.5949 116.243L32.5882 119.365L31.9116 123.481Z" fill="#BDCAD3"/>
</g>
<g opacity="0.5">
<path d="M39.9927 128.807L39.2422 128.324L40.3882 121.395L40.6854 121.555L40.6787 124.678L39.9927 128.807Z" fill="#BDCAD3"/>
</g>
<g opacity="0.4">
<path d="M32.0602 136.953L26.6558 133.48L27.3781 133.069L28.2363 133.599L30.6708 132.414L29.3123 131.539L30.3641 131.077L27.4884 129.089L25.5072 129.971L23.1708 128.109L20.7121 129.275L22.6772 130.484L22.7081 130.942L15.4705 126.289L13.9492 126.164L22.7081 131.97V132.64L23.6268 133.398L24.9301 133.413L31.0864 137.522L32.0602 136.953Z" fill="#C6BA95"/>
</g>
<path d="M27.6439 127.787L25.0533 126.083V122.963L22.3727 121.111L21.033 121.964L22.4695 124.42L19.9691 122.719L18.6133 123.548L19.7862 126.716L22.1413 128.266L23.6962 133.467L25.0533 132.638V129.669L26.2881 132.078L27.6439 131.249V127.787Z" fill="#008035"/>
<path d="M21.1887 131.526V128.609C21.1887 128.551 21.1605 128.498 21.1121 128.465L18.7852 126.918V123.871L20.9197 125.291C20.948 125.31 20.9816 125.321 21.0152 125.321C21.0435 125.321 21.0704 125.314 21.0959 125.3C21.1524 125.271 21.1874 125.212 21.1874 125.149V122.27L23.5224 123.883V126.912C23.5224 126.97 23.552 127.024 23.6004 127.056L26.1143 128.711V131.759L23.7914 130.23C23.7632 130.212 23.7295 130.202 23.6959 130.202C23.6677 130.202 23.6394 130.209 23.6139 130.222C23.5574 130.252 23.5237 130.311 23.5237 130.374V133.141L21.1887 131.526Z" fill="#00B535"/>
<path d="M21.3612 122.599L23.3519 123.973V126.913C23.3519 127.028 23.4097 127.137 23.5065 127.2L25.9424 128.804V131.439L23.8872 130.086C23.8294 130.048 23.7634 130.03 23.6975 130.03C23.641 130.03 23.5859 130.043 23.5334 130.071C23.4218 130.132 23.3519 130.248 23.3519 130.374V132.812L21.3612 131.438V128.611C21.3612 128.495 21.3034 128.388 21.2079 128.325L18.9576 126.828V124.194L20.8245 125.436C20.8824 125.475 20.9496 125.494 21.0155 125.494C21.0707 125.494 21.1272 125.481 21.1783 125.454C21.2899 125.393 21.3612 125.277 21.3612 125.151V122.599ZM21.0169 121.941V125.149L18.6133 123.551V127.011L21.0169 128.609V131.616L23.6975 133.468V130.373L26.2881 132.079V128.619L23.6975 126.913V123.793L21.0169 121.941Z" fill="white"/>
<path d="M26.2911 128.618L27.1627 128.151L24.5722 126.445L23.6992 126.912L26.2911 128.618Z" fill="#00B535"/>
<path d="M23.7172 123.784L25.0555 122.963L22.3748 121.111L21.0352 121.964L23.7172 123.784Z" fill="#00B535"/>
<path d="M21.0279 125.218L21.0225 123.43L19.9707 122.721L18.6055 123.554L21.0279 125.218Z" fill="#00B535"/>
<path opacity="0.4" d="M45.3926 122.338L71.9827 107.063L71.5174 106.746L45.3711 121.762L45.3926 122.338Z" fill="white"/>
<path opacity="0.4" d="M45.3756 137.904L71.9658 122.629L71.5004 122.312L45.3555 137.329L45.3756 137.904Z" fill="white"/>
<path opacity="0.3" d="M16.0536 150.431C16.0415 150.431 16.0307 150.431 16.0186 150.429L12.9398 150.256C12.6049 150.238 12.3493 149.952 12.3682 149.618C12.387 149.284 12.6775 149.028 13.0084 149.048L16.0872 149.221C16.4221 149.24 16.6777 149.525 16.6588 149.859C16.6414 150.183 16.3737 150.431 16.0536 150.431Z" fill="#382C36"/>
<path opacity="0.3" d="M29.538 159.425C29.5258 159.425 29.5151 159.425 29.503 159.423L26.4242 159.25C26.0893 159.232 25.8337 158.946 25.8525 158.612C25.8714 158.278 26.1565 158.022 26.4928 158.042L29.5716 158.215C29.9065 158.234 30.1621 158.52 30.1432 158.853C30.1257 159.175 29.8581 159.425 29.538 159.425Z" fill="#382C36"/>
<path d="M13.3702 143.305C13.5074 143.189 13.5962 143.018 13.5962 142.824C13.5962 142.474 13.3124 142.189 12.96 142.189C12.6089 142.189 12.3238 142.474 12.3238 142.824C12.3238 143.018 12.4125 143.189 12.5511 143.305C12.2794 143.451 12.0938 143.734 12.0938 144.063V149.511C12.0938 149.988 12.4825 150.232 12.9613 150.232C13.4401 150.232 13.8289 149.989 13.8289 149.511V144.063C13.8275 143.733 13.6405 143.451 13.3702 143.305Z" fill="#4C4949"/>
<path d="M26.9366 152.337C27.0738 152.22 27.1626 152.048 27.1626 151.855C27.1626 151.505 26.8774 151.221 26.5264 151.221C26.1753 151.221 25.8902 151.505 25.8902 151.855C25.8902 152.05 25.9789 152.22 26.1175 152.337C25.8458 152.483 25.6602 152.766 25.6602 153.094V158.542C25.6602 159.019 26.0489 159.262 26.5277 159.262C27.0065 159.262 27.3953 159.019 27.3953 158.542V153.094C27.3953 152.766 27.2083 152.483 26.9366 152.337Z" fill="#4C4949"/>
<path d="M47.217 97.2337L51.0665 99.767L47.79 101.7L43.9203 99.1515L39.3512 101.81L36.0599 99.6544L40.6384 96.9909L36.8373 94.4884L40.1125 92.5559L43.9351 95.0732L48.5136 92.4097L51.8063 94.5649L47.217 97.2337ZM43.9741 89.4258C37.1493 89.4258 31.6172 92.8872 31.6172 97.1572C31.6172 101.427 37.1493 104.889 43.9741 104.889C50.7988 104.889 56.331 101.427 56.331 97.1572C56.3323 92.8872 50.8002 89.4258 43.9741 89.4258Z" fill="#00B535"/>
<path opacity="0.95" d="M47.2171 97.2341L51.0666 99.7674L47.7901 101.7L43.9204 99.1519L39.3513 101.811L36.0586 99.6561L40.6385 96.9914L36.836 94.4889L40.1125 92.5577L43.9352 95.0736L48.5137 92.4102L51.8063 94.564L47.2171 97.2341Z" fill="white"/>
</g>
<defs>
<clipPath id="clip0_171_158493">
<rect width="87" height="90" fill="white" transform="translate(0 78)"/>
</clipPath>
</defs>
</svg>
