<svg width="454" height="168" viewBox="0 0 454 168" fill="none" xmlns="http://www.w3.org/2000/svg">
<g clip-path="url(#clip0_171_159293)">
<path d="M69.282 98.2813L69.2349 114.223C66.4924 112.645 62.0584 112.645 59.3301 114.223L59.3772 98.2813C62.1008 96.7031 66.5396 96.7031 69.282 98.2813Z" fill="#A3A3A3"/>
<path d="M104.184 118.37L104.141 134.312L69.2344 114.223L69.2815 98.2812L104.184 118.37Z" fill="#ADADAD"/>
<path d="M106.252 121.25L106.205 137.192C106.21 136.149 105.517 135.107 104.137 134.313L104.184 118.371C105.564 119.165 106.252 120.208 106.252 121.25Z" fill="#BABABA"/>
<path d="M59.3773 98.2812L59.3302 114.223L13.7832 140.611L13.8256 124.669L59.3773 98.2812Z" fill="#BFBFBF"/>
<path d="M118 121.949L117.953 131.508C117.949 133.001 116.964 134.495 114.994 135.636L115.041 126.078C117.011 124.941 117.996 123.448 118 121.949Z" fill="#BABABA"/>
<path d="M11.748 143.449L11.7952 127.507C11.7999 126.478 12.4737 125.454 13.8308 124.67L13.7837 140.612C12.4313 141.396 11.7528 142.42 11.748 143.449Z" fill="#BABABA"/>
<path d="M1.65144e-05 136.361L0.0471374 126.803C0.0424253 128.315 1.0461 129.832 3.05345 130.992L3.00633 140.551C0.998978 139.395 -0.00469557 137.878 1.65144e-05 136.361Z" fill="#A3A3A3"/>
<path d="M115.04 126.084L114.993 135.642L62.1094 166.277L62.1518 156.718L115.04 126.084Z" fill="#BFBFBF"/>
<path d="M47.7518 156.718L47.7047 166.276L3.00586 140.551L3.05298 130.992L47.7518 156.718Z" fill="#ADADAD"/>
<path d="M114.994 117.765C118.985 120.062 119.004 123.786 115.041 126.083L62.1528 156.717C58.1899 159.014 51.7438 159.014 47.7527 156.717L3.05383 130.992C-0.937303 128.695 -0.956151 124.97 3.002 122.678L55.8904 92.039C59.8533 89.7422 66.3041 89.7422 70.2953 92.039L114.994 117.765ZM58.6658 150.475L104.218 124.087C106.941 122.509 106.927 119.949 104.185 118.371L69.2822 98.2814C66.5397 96.7032 62.1057 96.7032 59.3774 98.2814L13.8257 124.669C11.1021 126.248 11.1162 128.807 13.8586 130.386L48.761 150.475C51.5082 152.053 55.9423 152.053 58.6658 150.475Z" fill="#D6D6D6"/>
<path d="M62.1523 156.717L62.1052 166.275C58.1423 168.572 51.6962 168.572 47.7051 166.275L47.7522 156.717C51.7433 159.014 58.1895 159.014 62.1523 156.717Z" fill="#A3A3A3"/>
<path d="M97.3709 115.383L54.1234 140.574L23.2168 122.786L66.4643 97.5957L97.3709 115.383Z" fill="#724017"/>
<path d="M90.2794 117.051L54.3827 137.85L27.75 122.523L63.6467 101.725L90.2794 117.051Z" fill="#72A848"/>
<path d="M90.2663 117.061L87.9432 118.409L61.3105 103.082L63.6336 101.734L90.2663 117.061Z" fill="#669E3A"/>
<path d="M85.4733 119.836L83.1503 121.184L56.5176 105.858L58.8406 104.51L85.4733 119.836Z" fill="#669E3A"/>
<path d="M80.6823 122.614L78.3593 123.962L51.7266 108.63L54.0496 107.287L80.6823 122.614Z" fill="#669E3A"/>
<path d="M75.8894 125.389L73.5663 126.737L46.9336 111.411L49.2567 110.062L75.8894 125.389Z" fill="#669E3A"/>
<path d="M71.0964 128.164L68.7733 129.508L42.1406 114.181L44.4684 112.838L71.0964 128.164Z" fill="#669E3A"/>
<path d="M56.7253 136.492L54.3975 137.836L27.7695 122.509L30.0926 121.166L56.7253 136.492Z" fill="#669E3A"/>
<path d="M66.3054 130.94L63.9823 132.283L37.3496 116.957L39.6774 115.613L66.3054 130.94Z" fill="#669E3A"/>
<path d="M61.5183 133.717L59.1905 135.06L32.5625 119.734L34.8856 118.391L61.5183 133.717Z" fill="#669E3A"/>
<path d="M70.412 113.186C70.5298 113.251 70.5298 113.364 70.412 113.43C70.2989 113.496 70.1105 113.496 69.9926 113.43C69.8748 113.364 69.8748 113.251 69.9926 113.186C70.1057 113.115 70.2989 113.115 70.412 113.186Z" fill="#FCFCFC"/>
<path d="M70.2711 107.732L79.8555 113.247L79.7613 113.303L75.8832 115.548L66.2988 110.034L70.1769 107.789L70.2711 107.732ZM75.8832 115.44L79.6623 113.251L70.2664 107.845L66.4873 110.034L75.8832 115.44Z" fill="#FCFCFC"/>
<path d="M65.1104 113.006L70.7366 116.242L70.6 116.252C70.5906 116.252 70.5811 116.252 70.567 116.252C69.0686 116.345 67.5937 116.045 66.524 115.43C65.4544 114.814 64.9361 113.964 65.0916 113.1C65.0916 113.095 65.0916 113.086 65.0963 113.081L65.1104 113.006ZM66.623 115.378C67.6361 115.96 69.0214 116.252 70.4445 116.181L65.2188 113.175C65.0963 113.997 65.6099 114.795 66.623 115.378Z" fill="#FCFCFC"/>
<path d="M47.8466 113.302L55.5461 117.736C55.532 117.745 55.5131 117.755 55.499 117.764C55.4848 117.774 55.466 117.783 55.4519 117.792L47.7523 113.358L47.6816 113.316L47.7759 113.26L47.8466 113.302Z" fill="#FCFCFC"/>
<path d="M62.5753 121.78C62.5612 121.79 62.5423 121.799 62.5282 121.808C62.514 121.818 62.4952 121.827 62.4811 121.837C60.5538 122.926 57.4438 122.917 55.526 121.808C53.6035 120.7 53.5752 118.906 55.4553 117.792C55.4695 117.783 55.4883 117.774 55.5025 117.764C55.5166 117.755 55.5355 117.745 55.5496 117.736C57.4815 116.646 60.5868 116.656 62.5093 117.764C64.4272 118.868 64.4554 120.662 62.5753 121.78ZM62.3868 121.78C62.401 121.771 62.4198 121.761 62.4339 121.752C62.4481 121.743 62.4669 121.733 62.4811 121.724C64.3046 120.634 64.2811 118.892 62.4104 117.816C60.5397 116.74 57.5192 116.731 55.6438 117.788C55.6297 117.797 55.6108 117.807 55.5967 117.816C55.5826 117.825 55.5637 117.835 55.5496 117.844C53.726 118.929 53.7496 120.676 55.6203 121.752C57.4863 122.828 60.5114 122.837 62.3868 121.78Z" fill="#FCFCFC"/>
<path d="M86.3722 116.999L54.2829 135.59L31.6602 122.569L63.7494 103.979L67.6558 106.228L67.5615 106.285L63.7494 104.091L47.8462 113.302L47.6812 113.316L31.8486 122.569L35.6607 124.763L35.5665 124.819L50.3718 133.34L50.4708 133.283L54.2782 135.477L70.1814 126.266L70.3511 126.252L86.179 116.999L82.3669 114.805L82.4611 114.749L86.3722 116.999Z" fill="#FCFCFC"/>
<path d="M70.2762 126.209L70.3469 126.252L70.2526 126.308L70.182 126.266L62.4824 121.832C62.4966 121.822 62.5154 121.813 62.5295 121.804C62.5437 121.794 62.5625 121.785 62.5767 121.775L70.2762 126.209Z" fill="#FCFCFC"/>
<path d="M55.645 117.787L62.4823 121.723C62.4681 121.733 62.4493 121.742 62.4351 121.751C62.421 121.761 62.4021 121.77 62.388 121.78L55.5508 117.843C55.5649 117.834 55.5838 117.825 55.5979 117.815C55.612 117.806 55.6262 117.797 55.645 117.787Z" fill="#FCFCFC"/>
<path d="M48.039 126.145C48.1568 126.211 48.1568 126.324 48.039 126.389C47.9259 126.455 47.7374 126.455 47.6196 126.389C47.5018 126.324 47.5018 126.211 47.6196 126.145C47.7327 126.079 47.9212 126.079 48.039 126.145Z" fill="#FCFCFC"/>
<path d="M42.1492 124.021L51.7336 129.536L47.8603 131.781L47.766 131.837L38.1816 126.323L38.2759 126.267L42.1492 124.021ZM47.7613 131.729L51.5404 129.541L42.1492 124.13L38.3701 126.318L47.7613 131.729Z" fill="#FCFCFC"/>
<path d="M52.9356 126.469L57.6005 129.155L50.4665 133.289L50.3722 133.345L47.7617 131.842L47.856 131.786L50.3722 133.232L57.4121 129.155L52.9167 126.567L52.9356 126.488C52.9356 126.478 52.9356 126.473 52.9356 126.469Z" fill="#FCFCFC"/>
<path d="M35.7588 124.819L38.2751 126.265L38.1808 126.322L35.5703 124.819L35.6646 124.762L42.7987 120.629L47.4636 123.316C47.4542 123.316 47.4448 123.316 47.4306 123.316L47.2893 123.325L42.7939 120.742L35.7588 124.819Z" fill="#FCFCFC"/>
<path d="M52.9361 126.488L52.9172 126.567L47.291 123.331L47.4324 123.322C47.4418 123.322 47.4512 123.322 47.4654 123.322C48.9638 123.228 50.434 123.524 51.5083 124.144C52.578 124.759 53.0963 125.609 52.9408 126.473C52.9361 126.473 52.9361 126.478 52.9361 126.488ZM47.5879 123.388L52.8136 126.394C52.9314 125.572 52.4225 124.773 51.4094 124.191C50.3963 123.608 49.0109 123.317 47.5879 123.388Z" fill="#FCFCFC"/>
<path d="M65.1115 113.006L65.0974 113.086C65.0974 113.091 65.0974 113.1 65.0927 113.105L60.4277 110.418L67.5618 106.285L67.6561 106.229L70.2666 107.732L70.1723 107.788L67.6561 106.341L60.6162 110.418L65.1115 113.006Z" fill="#FCFCFC"/>
<path d="M79.8512 113.25L82.4617 114.753L82.3674 114.809L75.2333 118.943L70.5684 116.256C70.5778 116.256 70.5872 116.256 70.6013 116.256L70.738 116.247L75.2333 118.835L82.2732 114.758L79.7569 113.311L79.8512 113.25Z" fill="#FCFCFC"/>
<path d="M69.0001 86.3043L68.9577 101.814C66.2906 100.278 61.9744 100.278 59.3262 101.814L59.3686 86.3043C62.0168 84.7684 66.333 84.7684 69.0001 86.3043Z" fill="#A3A3A3"/>
<path d="M59.3677 86.3047L59.3206 101.814L15.0176 127.479L15.06 111.974L59.3677 86.3047Z" fill="#BFBFBF"/>
<path d="M102.955 105.844L102.908 121.354L68.957 101.814L68.9994 86.3047L102.955 105.844Z" fill="#ADADAD"/>
<path d="M104.963 108.649L104.92 124.159C104.925 123.144 104.251 122.13 102.908 121.359L102.951 105.85C104.298 106.62 104.967 107.634 104.963 108.649Z" fill="#BABABA"/>
<path d="M13.0391 130.24L13.0815 114.731C13.0862 113.73 13.7412 112.734 15.0605 111.969L15.0181 127.478C13.6988 128.244 13.0391 129.24 13.0391 130.24Z" fill="#BABABA"/>
<path d="M116.394 109.33L116.352 118.63C116.347 120.086 115.39 121.538 113.473 122.646L113.515 113.346C115.428 112.238 116.389 110.786 116.394 109.33Z" fill="#BABABA"/>
<path d="M1.60742 123.345L1.64983 114.045C1.64512 115.52 2.62052 116.995 4.57603 118.117L4.53363 127.417C2.58282 126.295 1.60742 124.82 1.60742 123.345Z" fill="#A3A3A3"/>
<path d="M113.514 113.346L113.467 122.646L62.0254 152.444L62.0678 143.148L113.514 113.346Z" fill="#BFBFBF"/>
<path d="M48.0587 143.149L48.0163 152.444L4.5332 127.423L4.58032 118.123L48.0587 143.149Z" fill="#ADADAD"/>
<path d="M62.069 143.148L62.0266 152.449C58.1721 154.68 51.9003 154.68 48.0176 152.449L48.06 143.148C51.9427 145.38 58.2145 145.38 62.069 143.148Z" fill="#A3A3A3"/>
<path d="M15.0602 118.711L59.3679 93.046C62.0209 91.51 66.3324 91.51 68.9994 93.046L102.95 112.586C103.473 112.886 103.888 113.224 104.208 113.581C105.528 112.102 105.108 110.232 102.95 108.992L68.9994 89.4527C66.3324 87.9168 62.0161 87.9168 59.3679 89.4527L15.0602 115.117C12.9256 116.353 12.5251 118.203 13.8351 119.683C14.1461 119.331 14.556 119.002 15.0602 118.711Z" fill="#D6D6D6"/>
<path d="M99.2611 116.038C100.237 115.432 101.188 114.793 102.14 114.14L69.0048 95.0699C66.3378 93.534 62.0215 93.534 59.3733 95.0699L15.0609 120.73C14.6886 120.946 14.3682 121.181 14.0996 121.434C14.1326 121.481 14.1703 121.524 14.2033 121.571C14.7357 122.35 15.3295 123.097 15.9703 123.797L59.3639 98.6585C62.0168 97.1225 66.3283 97.1225 68.9954 98.6585L99.214 116.052C99.2328 116.047 99.247 116.042 99.2611 116.038Z" fill="#D6D6D6"/>
<path d="M113.468 105.257C117.351 107.493 117.37 111.115 113.515 113.346L62.0688 143.148C58.2143 145.379 51.9425 145.379 48.0597 143.148L4.58133 118.123C0.698572 115.887 0.679723 112.265 4.53421 110.034L55.976 80.2315C59.8352 77.9957 66.107 77.9957 69.9851 80.2315L113.468 105.257ZM58.676 137.075L102.984 111.41C105.637 109.875 105.623 107.385 102.951 105.849L69.0002 86.3095C66.3332 84.7736 62.0169 84.7736 59.3687 86.3095L15.061 111.974C12.4081 113.51 12.4269 115.999 15.094 117.535L49.0446 137.075C51.7163 138.611 56.0279 138.611 58.676 137.075Z" fill="#D6D6D6"/>
<path d="M115.04 126.084L114.993 135.642L62.1094 166.277L62.1518 156.718L115.04 126.084Z" fill="#BFBFBF"/>
<path d="M74.2139 152.632C73.1537 153.243 72.2961 154.722 72.3008 155.939L72.3149 160.368L76.16 158.142L76.1459 153.727C76.1412 152.51 75.2788 152.022 74.2139 152.632Z" fill="#4F4F4F"/>
<path d="M91.6299 143.181C90.5697 143.792 89.7121 145.271 89.7168 146.488L89.7262 150.278L93.5713 148.052L93.5619 144.275C93.5572 143.059 92.6901 142.57 91.6299 143.181Z" fill="#4F4F4F"/>
<path d="M109.046 133.281C107.986 133.891 107.128 135.371 107.133 136.587L107.142 140.19L110.987 137.964L110.978 134.375C110.968 133.158 110.106 132.67 109.046 133.281Z" fill="#4F4F4F"/>
<path d="M31.0722 150.372C30.012 149.762 29.145 150.25 29.1403 151.467L29.1309 155.586L32.9759 157.798L32.9853 153.679C32.9948 152.463 32.1325 150.983 31.0722 150.372Z" fill="#4F4F4F"/>
<path d="M13.6601 140.921C12.5999 140.311 11.7329 140.799 11.7282 142.016L11.7188 145.567L15.5638 147.779L15.5732 144.228C15.5779 143.011 14.7203 141.532 13.6601 140.921Z" fill="#4F4F4F"/>
<path d="M68.0947 143.476C67.5858 143.767 67.1711 144.481 67.1758 145.063L67.1805 146.796L69.0277 145.725L69.023 144.002C69.023 143.414 68.6036 143.18 68.0947 143.476Z" fill="#4F4F4F"/>
<path d="M73.538 140.306C73.0291 140.597 72.6145 141.311 72.6192 141.893L72.6239 143.626L74.471 142.556L74.4663 140.832C74.4663 140.245 74.0517 140.01 73.538 140.306Z" fill="#4F4F4F"/>
<path d="M78.9833 137.136C78.4744 137.427 78.0598 138.141 78.0645 138.723L78.0692 140.457L79.9163 139.386L79.9116 137.662C79.9069 137.075 79.4923 136.84 78.9833 137.136Z" fill="#4F4F4F"/>
<path d="M84.4267 133.964C83.9178 134.255 83.5031 134.969 83.5079 135.551L83.5126 137.285L85.3597 136.214L85.355 134.49C85.3503 133.903 84.9356 133.668 84.4267 133.964Z" fill="#4F4F4F"/>
<path d="M89.8701 130.794C89.3612 131.085 88.9465 131.799 88.9512 132.382L88.9559 134.115L90.8031 133.044L90.7983 131.32C90.7983 130.733 90.379 130.498 89.8701 130.794Z" fill="#4F4F4F"/>
<path d="M95.3115 127.624C94.8026 127.915 94.3879 128.629 94.3926 129.212L94.3973 130.945L96.2445 129.874L96.2398 128.15C96.2398 127.563 95.8251 127.328 95.3115 127.624Z" fill="#4F4F4F"/>
<path d="M100.755 124.454C100.246 124.745 99.8313 125.459 99.836 126.042L99.8407 127.775L101.688 126.704L101.683 124.98C101.683 124.393 101.268 124.158 100.755 124.454Z" fill="#4F4F4F"/>
<path d="M106.202 121.277C105.693 121.569 105.279 122.282 105.283 122.865L105.288 124.598L107.135 123.527L107.13 121.803C107.126 121.221 106.711 120.986 106.202 121.277Z" fill="#4F4F4F"/>
<path d="M111.644 118.107C111.135 118.399 110.72 119.113 110.725 119.695L110.729 121.428L112.577 120.357L112.572 118.633C112.567 118.051 112.152 117.816 111.644 118.107Z" fill="#4F4F4F"/>
<path d="M45.3588 145.389C45.8677 145.68 46.2823 146.394 46.2776 146.976L46.2729 148.709L44.4258 147.639L44.4305 145.915C44.4352 145.332 44.8499 145.097 45.3588 145.389Z" fill="#4F4F4F"/>
<path d="M39.9174 142.217C40.4263 142.508 40.8409 143.222 40.8362 143.804L40.8315 145.538L38.9844 144.467L38.9891 142.743C38.9938 142.16 39.4085 141.926 39.9174 142.217Z" fill="#4F4F4F"/>
<path d="M34.474 139.047C34.9829 139.338 35.3976 140.052 35.3929 140.634L35.3882 142.368L33.541 141.297L33.5457 139.573C33.5457 138.99 33.9651 138.756 34.474 139.047Z" fill="#4F4F4F"/>
<path d="M29.0326 135.877C29.5415 136.168 29.9562 136.882 29.9515 137.465L29.9467 139.198L28.0996 138.127L28.1043 136.403C28.1043 135.821 28.519 135.586 29.0326 135.877Z" fill="#4F4F4F"/>
<path d="M23.5892 132.705C24.0981 132.996 24.5128 133.71 24.5081 134.293L24.5034 136.026L22.6562 134.955L22.661 133.231C22.661 132.649 23.0756 132.414 23.5892 132.705Z" fill="#4F4F4F"/>
<path d="M18.142 129.536C18.6509 129.827 19.0655 130.541 19.0608 131.124L19.0561 132.857L17.209 131.786L17.2137 130.062C17.2184 129.475 17.6331 129.245 18.142 129.536Z" fill="#4F4F4F"/>
<path d="M12.7006 126.364C13.2095 126.655 13.6241 127.369 13.6194 127.952L13.6147 129.685L11.7676 128.614L11.7723 126.89C11.777 126.303 12.1917 126.068 12.7006 126.364Z" fill="#4F4F4F"/>
<path d="M7.25721 123.194C7.76612 123.486 8.18078 124.199 8.17607 124.782L8.17136 126.515L6.32422 125.444L6.32893 123.72C6.32893 123.133 6.74831 122.898 7.25721 123.194Z" fill="#4F4F4F"/>
<path d="M78.1736 78.3848L78.1406 88.6008L94.1099 97.7929L94.1381 87.5722L78.1736 78.3848Z" fill="#A6A6A6"/>
<path d="M79.5645 87.7891L79.5833 80.8281L92.7206 88.3904L92.7017 95.3467L79.5645 87.7891Z" fill="#CECECE"/>
<path d="M94.1094 97.7934L94.7738 97.4083L94.8021 87.1875L94.1376 87.5727L94.1094 97.7934Z" fill="#727272"/>
<path d="M94.1384 87.5726L94.8028 87.1874L78.8382 78L78.1738 78.3852L94.1384 87.5726Z" fill="#B8B8B8"/>
<path d="M19.2244 113.975L19.1914 124.195L35.1607 133.383L35.1889 123.167L19.2244 113.975Z" fill="#A6A6A6"/>
<path d="M35.1602 133.382L35.8246 132.997L35.8528 122.781L35.1884 123.166L35.1602 133.382Z" fill="#727272"/>
<path d="M35.1891 123.167L35.8536 122.782L19.889 113.59L19.2246 113.975L35.1891 123.167Z" fill="#B8B8B8"/>
<path d="M23.203 120.142L23.1794 128.066L22.2559 127.535L22.2794 119.611L23.203 120.142Z" fill="#818181"/>
<path d="M23.2032 120.142L24.0656 119.645L24.042 127.564L23.1797 128.066L23.2032 120.142Z" fill="#BAB9B9"/>
<path d="M22.2793 119.611L23.1463 119.113L24.0652 119.644L23.2029 120.142L22.2793 119.611Z" fill="#D0CFCF"/>
<path d="M28.6963 123.359L28.6775 131.283L27.7539 130.752L27.7775 122.828L28.6963 123.359Z" fill="#818181"/>
<path d="M28.6966 123.36L29.5636 122.857L29.54 130.781L28.6777 131.284L28.6966 123.36Z" fill="#BAB9B9"/>
<path d="M27.7773 122.829L28.6397 122.326L29.5632 122.857L28.6962 123.36L27.7773 122.829Z" fill="#D0CFCF"/>
</g>
<rect x="130" width="324" height="58" rx="16" fill="#006DB7"/>
<rect x="145.048" y="8.04762" width="41.9048" height="41.9048" rx="20.9524" fill="#81C995"/>
<rect x="145.048" y="8.04762" width="41.9048" height="41.9048" rx="20.9524" stroke="white" stroke-width="2.09524"/>
<g clip-path="url(#clip1_171_159293)">
<path d="M153.99 36.313C153.99 31.4378 153.99 26.562 153.99 21.6862C154.003 21.6505 154.021 21.6154 154.03 21.5778C154.287 20.4987 155.081 19.8586 156.177 19.8586C162.723 19.8574 169.269 19.8567 175.815 19.8586C177.077 19.8592 177.992 20.7686 177.993 22.0281C177.996 26.676 177.995 31.3232 177.991 35.971C177.991 36.1714 177.967 36.3781 177.916 36.5723C177.661 37.543 176.836 38.1418 175.768 38.1418C170.542 38.1424 165.317 38.1418 160.091 38.1418C158.763 38.1418 157.436 38.1462 156.107 38.1399C155.181 38.1355 154.38 37.5531 154.097 36.6938C154.056 36.5685 154.025 36.4401 153.99 36.313ZM166.708 21.264C166.708 22.7121 166.708 24.1307 166.708 25.5461C168.54 25.9983 169.434 27.462 169.503 28.8211C169.541 29.567 169.357 30.261 168.95 30.8904C168.417 31.7165 167.656 32.2232 166.71 32.4468C166.71 33.8829 166.71 35.3009 166.71 36.7245C166.754 36.7288 166.784 36.7345 166.814 36.7345C169.83 36.7351 172.845 36.7364 175.861 36.7332C176.287 36.7326 176.581 36.4345 176.586 36.0086C176.592 35.4931 176.587 34.9771 176.588 34.4616C176.588 34.2856 176.588 34.109 176.588 33.9205C175.844 33.9205 175.134 33.9317 174.424 33.918C173.313 33.8967 172.385 32.9898 172.375 31.8843C172.359 29.9628 172.362 28.0407 172.374 26.1192C172.38 25.2029 173.024 24.3987 173.914 24.1651C174.137 24.1062 174.375 24.0843 174.607 24.0805C175.261 24.0693 175.915 24.0768 176.589 24.0768C176.589 23.4129 176.589 22.7747 176.589 22.1359C176.589 21.5196 176.336 21.264 175.726 21.264C172.812 21.264 169.898 21.264 166.984 21.264C166.898 21.264 166.813 21.264 166.708 21.264ZM165.281 32.4524C163.508 32.0209 162.571 30.6073 162.484 29.2219C162.437 28.4841 162.607 27.7946 162.997 27.1657C163.53 26.3083 164.304 25.7816 165.273 25.5524C165.273 24.1144 165.273 22.6964 165.273 21.2747C165.228 21.2703 165.197 21.2653 165.167 21.2653C162.152 21.2647 159.136 21.2634 156.12 21.2665C155.696 21.2672 155.401 21.5672 155.398 21.9937C155.393 22.6419 155.396 23.2908 155.398 23.939C155.398 23.9828 155.411 24.0261 155.42 24.0793C156.142 24.0793 156.853 24.0686 157.563 24.0818C158.666 24.1025 159.596 24.9981 159.608 26.0941C159.628 28.0313 159.626 29.9691 159.608 31.9063C159.599 32.8789 158.85 33.7551 157.887 33.8691C157.186 33.9524 156.469 33.9092 155.759 33.9223C155.644 33.9242 155.53 33.9223 155.397 33.9223C155.397 34.5956 155.397 35.2426 155.397 35.8896C155.398 36.4702 155.661 36.7351 156.238 36.7351C159.168 36.7351 162.097 36.7351 165.027 36.7351C165.11 36.7351 165.192 36.7351 165.281 36.7351C165.281 35.2915 165.281 33.8791 165.281 32.4524ZM176.579 25.4835C175.878 25.4835 175.2 25.481 174.521 25.4847C174.068 25.4872 173.776 25.7797 173.775 26.235C173.773 28.0776 173.773 29.9202 173.775 31.7622C173.776 32.2269 174.07 32.5132 174.543 32.515C175.16 32.5175 175.776 32.5163 176.393 32.515C176.453 32.515 176.513 32.5063 176.579 32.5006C176.579 30.162 176.579 27.8384 176.579 25.4835ZM155.406 32.5157C156.11 32.5157 156.789 32.5188 157.467 32.5144C157.917 32.5113 158.208 32.215 158.208 31.7585C158.21 29.9159 158.211 28.0739 158.208 26.2313C158.208 25.7772 157.913 25.4866 157.459 25.4841C156.826 25.481 156.194 25.4829 155.562 25.4841C155.51 25.4841 155.459 25.496 155.406 25.5023C155.406 27.8409 155.406 30.1645 155.406 32.5157ZM166.001 26.8908C164.845 26.887 163.892 27.8271 163.883 28.9789C163.874 30.1457 164.82 31.1046 165.983 31.109C167.139 31.1127 168.092 30.1733 168.1 29.0209C168.11 27.8522 167.165 26.8945 166.001 26.8908Z" fill="#40654A"/>
</g>
<path d="M203.722 37.5V20.0455H215.074V22.696H206.884V27.4347H214.486V30.0852H206.884V34.8494H215.142V37.5H203.722ZM228.51 27.8693L225.697 28.1761C225.618 27.892 225.479 27.625 225.28 27.375C225.087 27.125 224.825 26.9233 224.496 26.7699C224.166 26.6165 223.763 26.5398 223.286 26.5398C222.643 26.5398 222.104 26.679 221.666 26.9574C221.234 27.2358 221.021 27.5966 221.027 28.0398C221.021 28.4205 221.161 28.7301 221.445 28.9688C221.734 29.2074 222.212 29.4034 222.876 29.5568L225.109 30.0341C226.348 30.3011 227.268 30.7244 227.871 31.304C228.479 31.8835 228.786 32.642 228.791 33.5795C228.786 34.4034 228.544 35.1307 228.067 35.7614C227.595 36.3864 226.939 36.875 226.098 37.2273C225.257 37.5795 224.291 37.7557 223.2 37.7557C221.598 37.7557 220.308 37.4205 219.331 36.75C218.354 36.0739 217.771 35.1335 217.584 33.929L220.592 33.6392C220.729 34.2301 221.018 34.6761 221.462 34.9773C221.905 35.2784 222.482 35.429 223.192 35.429C223.925 35.429 224.513 35.2784 224.956 34.9773C225.405 34.6761 225.629 34.304 225.629 33.8608C225.629 33.4858 225.484 33.1761 225.195 32.9318C224.911 32.6875 224.467 32.5 223.865 32.3693L221.632 31.9006C220.376 31.6392 219.447 31.1989 218.845 30.5795C218.243 29.9545 217.945 29.1648 217.95 28.2102C217.945 27.4034 218.163 26.7045 218.607 26.1136C219.055 25.517 219.678 25.0568 220.473 24.733C221.274 24.4034 222.197 24.2386 223.243 24.2386C224.777 24.2386 225.984 24.5653 226.865 25.2188C227.751 25.8722 228.3 26.7557 228.51 27.8693ZM237.872 24.4091V26.7955H230.347V24.4091H237.872ZM232.205 21.2727H235.29V33.5625C235.29 33.9773 235.352 34.2955 235.477 34.517C235.608 34.733 235.778 34.8807 235.989 34.9602C236.199 35.0398 236.432 35.0795 236.688 35.0795C236.881 35.0795 237.057 35.0653 237.216 35.0369C237.381 35.0085 237.506 34.983 237.591 34.9602L238.111 37.3722C237.946 37.429 237.71 37.4915 237.403 37.5597C237.102 37.6278 236.733 37.6676 236.295 37.679C235.523 37.7017 234.827 37.5852 234.207 37.3295C233.588 37.0682 233.097 36.6648 232.733 36.1193C232.375 35.5739 232.199 34.892 232.205 34.0739V21.2727ZM244.219 37.7642C243.39 37.7642 242.643 37.6165 241.978 37.321C241.319 37.0199 240.796 36.5767 240.41 35.9915C240.029 35.4062 239.839 34.6847 239.839 33.8267C239.839 33.0881 239.975 32.4773 240.248 31.9943C240.521 31.5114 240.893 31.125 241.364 30.8352C241.836 30.5455 242.367 30.3267 242.958 30.179C243.555 30.0256 244.171 29.9148 244.808 29.8466C245.575 29.767 246.197 29.696 246.674 29.6335C247.151 29.5653 247.498 29.4631 247.714 29.3267C247.935 29.1847 248.046 28.9659 248.046 28.6705V28.6193C248.046 27.9773 247.856 27.4801 247.475 27.1278C247.094 26.7756 246.546 26.5994 245.83 26.5994C245.075 26.5994 244.475 26.7642 244.032 27.0938C243.594 27.4233 243.299 27.8125 243.146 28.2614L240.265 27.8523C240.492 27.0568 240.867 26.392 241.39 25.858C241.913 25.3182 242.552 24.9148 243.308 24.6477C244.063 24.375 244.898 24.2386 245.813 24.2386C246.444 24.2386 247.072 24.3125 247.697 24.4602C248.322 24.608 248.893 24.8523 249.41 25.1932C249.927 25.5284 250.342 25.9858 250.654 26.5653C250.972 27.1449 251.131 27.8693 251.131 28.7386V37.5H248.165V35.7017H248.063C247.876 36.0653 247.612 36.4062 247.271 36.7244C246.935 37.0369 246.512 37.2898 246.001 37.483C245.495 37.6705 244.901 37.7642 244.219 37.7642ZM245.021 35.4972C245.64 35.4972 246.177 35.375 246.631 35.1307C247.086 34.8807 247.435 34.5511 247.68 34.142C247.93 33.733 248.055 33.2869 248.055 32.804V31.2614C247.958 31.3409 247.793 31.4148 247.56 31.483C247.333 31.5511 247.077 31.6108 246.793 31.6619C246.509 31.7131 246.228 31.7585 245.95 31.7983C245.671 31.8381 245.43 31.8722 245.225 31.9006C244.765 31.9631 244.353 32.0653 243.989 32.2074C243.626 32.3494 243.339 32.5483 243.129 32.804C242.918 33.054 242.813 33.3778 242.813 33.7756C242.813 34.3438 243.021 34.7727 243.435 35.0625C243.85 35.3523 244.379 35.4972 245.021 35.4972ZM259.092 37.7301C258.063 37.7301 257.143 37.4659 256.33 36.9375C255.518 36.4091 254.876 35.642 254.404 34.6364C253.933 33.6307 253.697 32.4091 253.697 30.9716C253.697 29.517 253.935 28.2898 254.413 27.2898C254.896 26.2841 255.546 25.5256 256.364 25.0142C257.183 24.4972 258.094 24.2386 259.1 24.2386C259.867 24.2386 260.498 24.3693 260.992 24.6307C261.487 24.8864 261.879 25.196 262.168 25.5597C262.458 25.9176 262.683 26.2557 262.842 26.5739H262.969V20.0455H266.063V37.5H263.029V35.4375H262.842C262.683 35.7557 262.452 36.0937 262.151 36.4517C261.85 36.804 261.452 37.1051 260.958 37.3551C260.464 37.6051 259.842 37.7301 259.092 37.7301ZM259.952 35.1989C260.606 35.1989 261.163 35.0227 261.623 34.6705C262.083 34.3125 262.433 33.8153 262.671 33.179C262.91 32.5426 263.029 31.8011 263.029 30.9545C263.029 30.108 262.91 29.3722 262.671 28.7472C262.438 28.1222 262.092 27.6364 261.631 27.2898C261.177 26.9432 260.617 26.7699 259.952 26.7699C259.265 26.7699 258.691 26.9489 258.231 27.3068C257.771 27.6648 257.424 28.1591 257.191 28.7898C256.958 29.4205 256.842 30.142 256.842 30.9545C256.842 31.7727 256.958 32.5028 257.191 33.1449C257.43 33.7812 257.779 34.2841 258.239 34.6534C258.705 35.017 259.276 35.1989 259.952 35.1989ZM269.351 37.5V24.4091H272.436V37.5H269.351ZM270.902 22.5511C270.413 22.5511 269.993 22.3892 269.641 22.0653C269.288 21.7358 269.112 21.3409 269.112 20.8807C269.112 20.4148 269.288 20.0199 269.641 19.696C269.993 19.3665 270.413 19.2017 270.902 19.2017C271.396 19.2017 271.817 19.3665 272.163 19.696C272.516 20.0199 272.692 20.4148 272.692 20.8807C272.692 21.3409 272.516 21.7358 272.163 22.0653C271.817 22.3892 271.396 22.5511 270.902 22.5511ZM281.319 37.7557C280.04 37.7557 278.933 37.4744 277.995 36.9119C277.058 36.3494 276.33 35.5625 275.813 34.5511C275.302 33.5398 275.046 32.358 275.046 31.0057C275.046 29.6534 275.302 28.4687 275.813 27.4517C276.33 26.4347 277.058 25.6449 277.995 25.0824C278.933 24.5199 280.04 24.2386 281.319 24.2386C282.597 24.2386 283.705 24.5199 284.643 25.0824C285.58 25.6449 286.305 26.4347 286.816 27.4517C287.333 28.4687 287.592 29.6534 287.592 31.0057C287.592 32.358 287.333 33.5398 286.816 34.5511C286.305 35.5625 285.58 36.3494 284.643 36.9119C283.705 37.4744 282.597 37.7557 281.319 37.7557ZM281.336 35.2841C282.029 35.2841 282.609 35.0937 283.075 34.7131C283.54 34.3267 283.887 33.8097 284.114 33.1619C284.347 32.5142 284.464 31.7926 284.464 30.9972C284.464 30.196 284.347 29.4716 284.114 28.8239C283.887 28.1705 283.54 27.6506 283.075 27.2642C282.609 26.8778 282.029 26.6847 281.336 26.6847C280.626 26.6847 280.035 26.8778 279.563 27.2642C279.097 27.6506 278.748 28.1705 278.515 28.8239C278.288 29.4716 278.174 30.196 278.174 30.9972C278.174 31.7926 278.288 32.5142 278.515 33.1619C278.748 33.8097 279.097 34.3267 279.563 34.7131C280.035 35.0937 280.626 35.2841 281.336 35.2841ZM296.3 20.0455H300.169L305.351 32.6932H305.555L310.737 20.0455H314.607V37.5H311.572V25.5085H311.411L306.587 37.4489H304.32L299.496 25.483H299.334V37.5H296.3V20.0455ZM323.624 37.7557C322.345 37.7557 321.237 37.4744 320.3 36.9119C319.362 36.3494 318.635 35.5625 318.118 34.5511C317.607 33.5398 317.351 32.358 317.351 31.0057C317.351 29.6534 317.607 28.4687 318.118 27.4517C318.635 26.4347 319.362 25.6449 320.3 25.0824C321.237 24.5199 322.345 24.2386 323.624 24.2386C324.902 24.2386 326.01 24.5199 326.947 25.0824C327.885 25.6449 328.609 26.4347 329.121 27.4517C329.638 28.4687 329.896 29.6534 329.896 31.0057C329.896 32.358 329.638 33.5398 329.121 34.5511C328.609 35.5625 327.885 36.3494 326.947 36.9119C326.01 37.4744 324.902 37.7557 323.624 37.7557ZM323.641 35.2841C324.334 35.2841 324.913 35.0937 325.379 34.7131C325.845 34.3267 326.192 33.8097 326.419 33.1619C326.652 32.5142 326.768 31.7926 326.768 30.9972C326.768 30.196 326.652 29.4716 326.419 28.8239C326.192 28.1705 325.845 27.6506 325.379 27.2642C324.913 26.8778 324.334 26.6847 323.641 26.6847C322.93 26.6847 322.339 26.8778 321.868 27.2642C321.402 27.6506 321.053 28.1705 320.82 28.8239C320.592 29.4716 320.479 30.196 320.479 30.9972C320.479 31.7926 320.592 32.5142 320.82 33.1619C321.053 33.8097 321.402 34.3267 321.868 34.7131C322.339 35.0937 322.93 35.2841 323.641 35.2841ZM335.6 29.8295V37.5H332.515V24.4091H335.464V26.6335H335.617C335.918 25.9006 336.398 25.3182 337.058 24.8864C337.722 24.4545 338.543 24.2386 339.521 24.2386C340.424 24.2386 341.211 24.4318 341.881 24.8182C342.558 25.2045 343.08 25.7642 343.45 26.4972C343.825 27.2301 344.009 28.1193 344.004 29.1648V37.5H340.918V29.642C340.918 28.767 340.691 28.0824 340.237 27.5881C339.788 27.0937 339.165 26.8466 338.37 26.8466C337.83 26.8466 337.35 26.9659 336.93 27.2045C336.515 27.4375 336.188 27.7756 335.95 28.2188C335.717 28.6619 335.6 29.1989 335.6 29.8295ZM355.484 31.9943V24.4091H358.569V37.5H355.577V35.1733H355.441C355.146 35.9062 354.66 36.5057 353.984 36.9716C353.313 37.4375 352.487 37.6705 351.504 37.6705C350.646 37.6705 349.887 37.4801 349.228 37.0994C348.575 36.7131 348.063 36.1534 347.694 35.4205C347.325 34.6818 347.14 33.7898 347.14 32.7443V24.4091H350.225V32.267C350.225 33.0966 350.452 33.7557 350.907 34.2443C351.362 34.733 351.958 34.9773 352.697 34.9773C353.151 34.9773 353.592 34.8665 354.018 34.6449C354.444 34.4233 354.793 34.0938 355.066 33.6562C355.344 33.2131 355.484 32.6591 355.484 31.9943ZM361.741 37.5V24.4091H364.69V26.6335H364.844C365.116 25.8835 365.568 25.2983 366.199 24.8778C366.83 24.4517 367.582 24.2386 368.457 24.2386C369.344 24.2386 370.091 24.4545 370.699 24.8864C371.313 25.3125 371.744 25.8949 371.994 26.6335H372.131C372.42 25.9062 372.909 25.3267 373.597 24.8949C374.29 24.4574 375.111 24.2386 376.06 24.2386C377.264 24.2386 378.247 24.6193 379.009 25.3807C379.77 26.142 380.151 27.2528 380.151 28.7131V37.5H377.057V29.1903C377.057 28.3778 376.841 27.7841 376.409 27.4091C375.977 27.0284 375.449 26.8381 374.824 26.8381C374.08 26.8381 373.497 27.071 373.077 27.5369C372.662 27.9972 372.455 28.5966 372.455 29.3352V37.5H369.429V29.0625C369.429 28.3864 369.224 27.8466 368.815 27.4432C368.412 27.0398 367.884 26.8381 367.23 26.8381C366.787 26.8381 366.384 26.9517 366.02 27.179C365.656 27.4006 365.366 27.7159 365.151 28.125C364.935 28.5284 364.827 29 364.827 29.5398V37.5H361.741ZM389.076 37.7557C387.763 37.7557 386.63 37.483 385.675 36.9375C384.727 36.3864 383.996 35.608 383.485 34.6023C382.974 33.5909 382.718 32.4006 382.718 31.0312C382.718 29.6847 382.974 28.5028 383.485 27.4858C384.002 26.4631 384.724 25.6676 385.65 25.0994C386.576 24.5256 387.664 24.2386 388.914 24.2386C389.721 24.2386 390.482 24.3693 391.198 24.6307C391.92 24.8864 392.556 25.2841 393.107 25.8239C393.664 26.3636 394.102 27.0511 394.42 27.8864C394.738 28.7159 394.897 29.7045 394.897 30.8523V31.7983H384.167V29.7188H391.94C391.934 29.1278 391.806 28.6023 391.556 28.142C391.306 27.6761 390.957 27.3097 390.508 27.0426C390.065 26.7756 389.548 26.642 388.957 26.642C388.326 26.642 387.772 26.7955 387.295 27.1023C386.817 27.4034 386.445 27.8011 386.178 28.2955C385.917 28.7841 385.783 29.321 385.778 29.9062V31.7216C385.778 32.483 385.917 33.1364 386.195 33.6818C386.474 34.2216 386.863 34.6364 387.363 34.9261C387.863 35.2102 388.448 35.3523 389.119 35.3523C389.567 35.3523 389.974 35.2898 390.337 35.1648C390.701 35.0341 391.016 34.8438 391.283 34.5938C391.55 34.3438 391.752 34.0341 391.888 33.6648L394.769 33.9886C394.587 34.75 394.241 35.4148 393.729 35.983C393.224 36.5455 392.576 36.983 391.786 37.2955C390.996 37.6023 390.093 37.7557 389.076 37.7557ZM400.592 29.8295V37.5H397.507V24.4091H400.456V26.6335H400.609C400.911 25.9006 401.391 25.3182 402.05 24.8864C402.714 24.4545 403.536 24.2386 404.513 24.2386C405.416 24.2386 406.203 24.4318 406.874 24.8182C407.55 25.2045 408.072 25.7642 408.442 26.4972C408.817 27.2301 409.001 28.1193 408.996 29.1648V37.5H405.911V29.642C405.911 28.767 405.683 28.0824 405.229 27.5881C404.78 27.0937 404.158 26.8466 403.362 26.8466C402.822 26.8466 402.342 26.9659 401.922 27.2045C401.507 27.4375 401.18 27.7756 400.942 28.2188C400.709 28.6619 400.592 29.1989 400.592 29.8295ZM418.669 24.4091V26.7955H411.143V24.4091H418.669ZM413.001 21.2727H416.087V33.5625C416.087 33.9773 416.149 34.2955 416.274 34.517C416.405 34.733 416.575 34.8807 416.786 34.9602C416.996 35.0398 417.229 35.0795 417.484 35.0795C417.678 35.0795 417.854 35.0653 418.013 35.0369C418.178 35.0085 418.303 34.983 418.388 34.9602L418.908 37.3722C418.743 37.429 418.507 37.4915 418.2 37.5597C417.899 37.6278 417.53 37.6676 417.092 37.679C416.32 37.7017 415.624 37.5852 415.004 37.3295C414.385 37.0682 413.893 36.6648 413.53 36.1193C413.172 35.5739 412.996 34.892 413.001 34.0739V21.2727ZM425.016 37.7642C424.187 37.7642 423.44 37.6165 422.775 37.321C422.116 37.0199 421.593 36.5767 421.207 35.9915C420.826 35.4062 420.636 34.6847 420.636 33.8267C420.636 33.0881 420.772 32.4773 421.045 31.9943C421.317 31.5114 421.69 31.125 422.161 30.8352C422.633 30.5455 423.164 30.3267 423.755 30.179C424.352 30.0256 424.968 29.9148 425.604 29.8466C426.371 29.767 426.994 29.696 427.471 29.6335C427.948 29.5653 428.295 29.4631 428.511 29.3267C428.732 29.1847 428.843 28.9659 428.843 28.6705V28.6193C428.843 27.9773 428.653 27.4801 428.272 27.1278C427.891 26.7756 427.343 26.5994 426.627 26.5994C425.871 26.5994 425.272 26.7642 424.829 27.0938C424.391 27.4233 424.096 27.8125 423.942 28.2614L421.062 27.8523C421.289 27.0568 421.664 26.392 422.187 25.858C422.71 25.3182 423.349 24.9148 424.104 24.6477C424.86 24.375 425.695 24.2386 426.61 24.2386C427.241 24.2386 427.869 24.3125 428.494 24.4602C429.119 24.608 429.69 24.8523 430.207 25.1932C430.724 25.5284 431.138 25.9858 431.451 26.5653C431.769 27.1449 431.928 27.8693 431.928 28.7386V37.5H428.962V35.7017H428.86C428.673 36.0653 428.408 36.4062 428.067 36.7244C427.732 37.0369 427.309 37.2898 426.798 37.483C426.292 37.6705 425.698 37.7642 425.016 37.7642ZM425.817 35.4972C426.437 35.4972 426.974 35.375 427.428 35.1307C427.883 34.8807 428.232 34.5511 428.477 34.142C428.727 33.733 428.852 33.2869 428.852 32.804V31.2614C428.755 31.3409 428.59 31.4148 428.357 31.483C428.13 31.5511 427.874 31.6108 427.59 31.6619C427.306 31.7131 427.025 31.7585 426.746 31.7983C426.468 31.8381 426.227 31.8722 426.022 31.9006C425.562 31.9631 425.15 32.0653 424.786 32.2074C424.423 32.3494 424.136 32.5483 423.925 32.804C423.715 33.054 423.61 33.3778 423.61 33.7756C423.61 34.3438 423.817 34.7727 424.232 35.0625C424.647 35.3523 425.175 35.4972 425.817 35.4972ZM438.116 20.0455V37.5H435.031V20.0455H438.116Z" fill="white"/>
<path d="M122.6 98.0061L148.5 53H192L125.498 100.63C123.75 101.882 121.528 99.8699 122.6 98.0061Z" fill="#006DB7"/>
<defs>
<clipPath id="clip0_171_159293">
<rect width="118" height="90" fill="white" transform="translate(0 78)"/>
</clipPath>
<clipPath id="clip1_171_159293">
<rect width="24.0039" height="18.2857" fill="white" transform="translate(153.998 19.8574)"/>
</clipPath>
</defs>
</svg>
