<svg width="462" height="108" viewBox="0 0 462 108" fill="none" xmlns="http://www.w3.org/2000/svg">
<rect x="156" y="6" width="306" height="92" rx="18" fill="#006DB7"/>
<path d="M100 108L211.5 72.026L179.5 48L100 108Z" fill="#006DB7"/>
<rect x="181.048" y="31.0476" width="41.9048" height="41.9048" rx="20.9524" fill="#FF9D26"/>
<rect x="181.048" y="31.0476" width="41.9048" height="41.9048" rx="20.9524" stroke="white" stroke-width="2.09524"/>
<path d="M212.538 62.875C212.538 62.8518 212.515 60.5553 210.571 59.4352C209.453 58.7898 208.318 58.894 207.677 59.0392C207.583 58.876 207.476 58.7204 207.354 58.573C207.099 58.2715 206.806 58.0282 206.478 57.8467C206.361 57.7844 206.237 57.7297 206.09 57.6689C205.189 57.3457 204.397 57.5347 203.953 57.7049L202.39 50.584C202.63 50.3598 202.814 50.0883 202.932 49.7898C203.034 49.8873 203.146 49.9758 203.268 50.0538C203.626 50.2829 204.033 50.4014 204.448 50.4014C204.607 50.4014 204.766 50.3842 204.925 50.3493C205.499 50.2233 205.989 49.8813 206.306 49.3863C206.385 49.2629 206.451 49.1335 206.503 49C206.907 49.3855 207.445 49.6188 208.021 49.6188C208.177 49.6188 208.335 49.6019 208.494 49.567C209.068 49.441 209.558 49.0987 209.875 48.6037C210.192 48.1087 210.297 47.5195 210.171 46.9454L210.035 46.3289C210.034 46.3225 210.029 46.3177 210.028 46.3117C210.021 46.2869 210.009 46.2652 209.997 46.2423C209.987 46.2217 209.978 46.201 209.964 46.183C209.949 46.1643 209.931 46.1497 209.913 46.1335C209.898 46.1208 209.888 46.1043 209.871 46.0938C209.866 46.09 209.859 46.0897 209.853 46.0863C209.847 46.0829 209.844 46.0777 209.838 46.0747L199.329 40.7898C199.323 40.7872 199.317 40.7872 199.311 40.7845C199.297 40.7782 199.282 40.7737 199.267 40.7692C199.258 40.7665 199.252 40.7609 199.243 40.759C199.236 40.7575 199.23 40.759 199.224 40.7583C199.212 40.756 199.2 40.7542 199.188 40.7534C199.172 40.7523 199.156 40.7534 199.141 40.7542C199.126 40.7549 199.112 40.7553 199.097 40.7575C199.086 40.7594 199.075 40.7617 199.064 40.7647C199.048 40.7688 199.035 40.7752 199.02 40.7812C199.006 40.7868 198.993 40.7917 198.979 40.7988C198.969 40.8048 198.958 40.8115 198.948 40.8187C198.943 40.8224 198.936 40.8235 198.931 40.8273C198.924 40.8329 198.919 40.8415 198.912 40.8475C198.901 40.8577 198.89 40.867 198.88 40.8787C198.876 40.8835 198.87 40.8858 198.866 40.891L191.542 50.0943C191.538 50.0995 191.538 50.1059 191.534 50.1112C191.518 50.1329 191.509 50.1565 191.498 50.1813C191.489 50.2023 191.478 50.2222 191.473 50.2439C191.468 50.266 191.469 50.2882 191.468 50.3114C191.467 50.338 191.465 50.3635 191.47 50.3898C191.471 50.3962 191.469 50.4025 191.47 50.4089L191.605 51.0254C191.831 52.0518 192.744 52.7538 193.754 52.7538C193.91 52.7538 194.068 52.7369 194.227 52.702C194.972 52.5382 195.546 52.0124 195.805 51.3498C196.208 51.7353 196.747 51.9685 197.322 51.9685C197.478 51.9685 197.636 51.9517 197.794 51.9168C198.536 51.7537 199.108 51.2317 199.369 50.5732C199.602 50.7967 199.884 50.9662 200.197 51.0682L201.499 56.9977C201.336 57.0127 201.175 57.0408 201.018 57.0828C200.731 57.1563 200.454 57.2763 200.192 57.4387C199.943 57.5932 199.711 57.7867 199.512 58.0042C199.297 57.9775 198.973 57.955 198.588 58.0113C198.102 58.0709 197.644 58.2288 197.227 58.4812C196.499 58.9278 196.096 59.542 195.885 59.989C195.449 59.9474 194.705 59.9707 193.979 60.4225C192.638 61.2715 192.577 62.7997 192.575 62.8642C192.572 62.9658 192.61 63.064 192.681 63.1368C192.751 63.2095 192.849 63.2508 192.95 63.2508H212.164C212.371 63.2508 212.539 63.0832 212.539 62.8758L212.538 62.875ZM202.741 47.5465L200.325 42.6419L205.294 46.9855L202.741 47.5465ZM206.206 46.7868L201.633 42.7885L208.556 46.2704L206.206 46.7868ZM195.138 49.2187L192.788 49.735L197.614 43.6713L195.138 49.2187ZM198.738 42.9903L198.601 48.4563L196.048 49.0173L198.738 42.9903ZM199.497 42.6569L201.987 47.7119L199.356 48.2902L199.497 42.6569ZM205.674 48.982C205.465 49.3087 205.141 49.534 204.763 49.6169C204.385 49.7002 203.997 49.6312 203.671 49.4219C203.344 49.213 203.119 48.8898 203.036 48.5114L202.981 48.2609L205.813 47.6388L205.869 47.8893C205.952 48.2677 205.882 48.6558 205.674 48.982ZM208.331 48.8347C207.954 48.9187 207.565 48.8485 207.238 48.6397C206.911 48.4308 206.686 48.1075 206.603 47.7288L206.548 47.4787L209.382 46.8562L209.437 47.1063C209.608 47.8874 209.112 48.6629 208.331 48.8347ZM194.066 51.9693C193.285 52.1414 192.51 51.6449 192.337 50.8638L192.283 50.6137L195.117 49.9912L195.172 50.2413C195.343 51.0224 194.847 51.7975 194.066 51.9693ZM197.633 51.184C196.852 51.3543 196.077 50.8597 195.906 50.0789L195.851 49.828L198.683 49.2059L198.738 49.4564C198.91 50.2372 198.414 51.0123 197.633 51.184ZM199.471 49.2952L199.416 49.0447L202.248 48.4225L202.303 48.673C202.426 49.2303 202.209 49.8085 201.746 50.1502C201.591 50.269 201.402 50.3557 201.198 50.4003C200.995 50.4453 200.788 50.446 200.589 50.401C200.032 50.2863 199.593 49.8524 199.471 49.2952ZM201.039 51.1762C201.134 51.1694 201.229 51.1578 201.323 51.1387C201.334 51.1364 201.346 51.1368 201.357 51.1342C201.366 51.1323 201.374 51.1282 201.383 51.1259C201.479 51.1038 201.573 51.0738 201.664 51.0393C201.681 51.0329 201.7 51.0299 201.717 51.0228L203.089 57.2703C203.077 57.265 203.062 57.2609 203.049 57.2553C202.959 57.217 202.863 57.1822 202.764 57.1492C202.731 57.1387 202.7 57.1282 202.667 57.1184C202.546 57.0828 202.422 57.0517 202.29 57.0292C202.284 57.028 202.279 57.0262 202.273 57.025L200.99 51.1822C201.006 51.1814 201.022 51.1773 201.039 51.1762ZM193.384 62.5C193.482 62.0962 193.732 61.465 194.376 61.057C195.09 60.613 195.829 60.7237 196.039 60.7679C196.22 60.8062 196.404 60.7053 196.469 60.5309C196.595 60.19 196.912 59.5533 197.616 59.1205C197.941 58.9248 198.298 58.801 198.686 58.7534C199.104 58.6923 199.435 58.7478 199.601 58.7752C199.735 58.7965 199.87 58.7444 199.954 58.6387C200.076 58.4849 200.285 58.2625 200.587 58.0747C200.787 57.9509 200.988 57.8639 201.207 57.8077C201.446 57.7439 201.685 57.7214 201.936 57.739C202.105 57.7518 202.265 57.7822 202.415 57.8234C202.548 57.8602 202.671 57.9067 202.785 57.9562C203.057 58.0747 203.275 58.2157 203.413 58.3184C203.414 58.3184 203.415 58.3188 203.415 58.3192C203.491 58.3754 203.544 58.4182 203.56 58.4335C203.676 58.5505 203.856 58.5779 204.002 58.5014C204.15 58.423 204.933 58.0503 205.819 58.3679C205.925 58.4122 206.028 58.4564 206.119 58.5052C206.363 58.6398 206.586 58.8254 206.778 59.0538C206.924 59.23 207.045 59.4239 207.139 59.6324C207.216 59.8053 207.411 59.8919 207.592 59.8368C208.018 59.7048 209.124 59.4659 210.196 60.0843C211.332 60.739 211.658 61.903 211.751 62.4993H193.384V62.5Z" fill="white"/>
<path d="M241.865 61.5V42.5909H248.956C250.409 42.5909 251.627 42.8617 252.612 43.4034C253.603 43.9451 254.351 44.6899 254.856 45.6378C255.367 46.5795 255.622 47.6506 255.622 48.8509C255.622 50.0634 255.367 51.1406 254.856 52.0824C254.345 53.0241 253.591 53.7659 252.594 54.3075C251.597 54.843 250.369 55.1108 248.91 55.1108H244.21V52.2947H248.448C249.298 52.2947 249.993 52.147 250.535 51.8516C251.076 51.5561 251.477 51.1499 251.735 50.6328C252 50.1158 252.132 49.5218 252.132 48.8509C252.132 48.1799 252 47.589 251.735 47.0781C251.477 46.5672 251.073 46.1702 250.526 45.8871C249.984 45.5978 249.285 45.4531 248.43 45.4531H245.29V61.5H241.865ZM261.792 42.5909V61.5H258.45V42.5909H261.792ZM269.31 61.7862C268.411 61.7862 267.602 61.6262 266.882 61.3061C266.168 60.9799 265.601 60.4998 265.183 59.8658C264.77 59.2318 264.564 58.45 264.564 57.5206C264.564 56.7204 264.712 56.0587 265.007 55.5355C265.303 55.0123 265.706 54.5938 266.217 54.2798C266.728 53.9659 267.303 53.7289 267.944 53.5689C268.59 53.4027 269.258 53.2827 269.947 53.2088C270.778 53.1226 271.452 53.0457 271.969 52.978C272.486 52.9041 272.862 52.7933 273.096 52.6456C273.336 52.4917 273.456 52.2547 273.456 51.9347V51.8793C273.456 51.1837 273.249 50.6451 272.837 50.2635C272.425 49.8819 271.831 49.6911 271.055 49.6911C270.236 49.6911 269.587 49.8696 269.107 50.2266C268.633 50.5836 268.313 51.0052 268.147 51.4915L265.026 51.0483C265.272 50.1866 265.678 49.4664 266.245 48.8878C266.811 48.303 267.503 47.866 268.322 47.5767C269.141 47.2812 270.046 47.1335 271.037 47.1335C271.72 47.1335 272.4 47.2135 273.077 47.3736C273.754 47.5336 274.373 47.7983 274.933 48.1676C275.493 48.5308 275.942 49.0263 276.281 49.6541C276.626 50.282 276.798 51.0668 276.798 52.0085V61.5H273.585V59.5518H273.474C273.271 59.9458 272.985 60.3151 272.615 60.6598C272.252 60.9983 271.794 61.2723 271.24 61.4815C270.692 61.6847 270.049 61.7862 269.31 61.7862ZM270.178 59.3303C270.849 59.3303 271.431 59.1979 271.923 58.9332C272.415 58.6624 272.794 58.3054 273.059 57.8622C273.329 57.419 273.465 56.9358 273.465 56.4126V54.7415C273.36 54.8277 273.182 54.9077 272.929 54.9815C272.683 55.0554 272.406 55.12 272.098 55.1754C271.791 55.2308 271.486 55.2801 271.184 55.3232C270.883 55.3662 270.621 55.4032 270.4 55.4339C269.901 55.5017 269.455 55.6125 269.061 55.7663C268.667 55.9202 268.356 56.1357 268.128 56.4126C267.9 56.6835 267.787 57.0343 267.787 57.4652C267.787 58.0807 268.011 58.5455 268.461 58.8594C268.91 59.1733 269.482 59.3303 270.178 59.3303ZM281.728 66.8182C281.273 66.8182 280.851 66.7813 280.463 66.7074C280.082 66.6397 279.777 66.5597 279.549 66.4673L280.325 63.8636C280.811 64.0052 281.245 64.0729 281.627 64.0668C282.008 64.0606 282.344 63.9406 282.633 63.7067C282.929 63.4789 283.178 63.0973 283.381 62.5618L283.667 61.7955L278.525 47.3182H282.07L285.338 58.0284H285.486L288.764 47.3182H292.319L286.64 63.2173C286.376 63.9683 286.025 64.6115 285.588 65.147C285.151 65.6887 284.615 66.1011 283.981 66.3842C283.353 66.6735 282.602 66.8182 281.728 66.8182ZM298.306 61.7862C297.407 61.7862 296.598 61.6262 295.878 61.3061C295.164 60.9799 294.598 60.4998 294.179 59.8658C293.767 59.2318 293.56 58.45 293.56 57.5206C293.56 56.7204 293.708 56.0587 294.004 55.5355C294.299 55.0123 294.702 54.5938 295.213 54.2798C295.724 53.9659 296.299 53.7289 296.94 53.5689C297.586 53.4027 298.254 53.2827 298.943 53.2088C299.774 53.1226 300.448 53.0457 300.965 52.978C301.482 52.9041 301.858 52.7933 302.092 52.6456C302.332 52.4917 302.452 52.2547 302.452 51.9347V51.8793C302.452 51.1837 302.246 50.6451 301.833 50.2635C301.421 49.8819 300.827 49.6911 300.051 49.6911C299.232 49.6911 298.583 49.8696 298.103 50.2266C297.629 50.5836 297.309 51.0052 297.143 51.4915L294.022 51.0483C294.268 50.1866 294.674 49.4664 295.241 48.8878C295.807 48.303 296.5 47.866 297.318 47.5767C298.137 47.2812 299.042 47.1335 300.033 47.1335C300.716 47.1335 301.396 47.2135 302.073 47.3736C302.75 47.5336 303.369 47.7983 303.929 48.1676C304.489 48.5308 304.938 49.0263 305.277 49.6541C305.622 50.282 305.794 51.0668 305.794 52.0085V61.5H302.581V59.5518H302.47C302.267 59.9458 301.981 60.3151 301.612 60.6598C301.248 60.9983 300.79 61.2723 300.236 61.4815C299.688 61.6847 299.045 61.7862 298.306 61.7862ZM299.174 59.3303C299.845 59.3303 300.427 59.1979 300.919 58.9332C301.411 58.6624 301.79 58.3054 302.055 57.8622C302.326 57.419 302.461 56.9358 302.461 56.4126V54.7415C302.356 54.8277 302.178 54.9077 301.925 54.9815C301.679 55.0554 301.402 55.12 301.094 55.1754C300.787 55.2308 300.482 55.2801 300.18 55.3232C299.879 55.3662 299.617 55.4032 299.396 55.4339C298.897 55.5017 298.451 55.6125 298.057 55.7663C297.663 55.9202 297.352 56.1357 297.124 56.4126C296.897 56.6835 296.783 57.0343 296.783 57.4652C296.783 58.0807 297.007 58.5455 297.457 58.8594C297.906 59.1733 298.478 59.3303 299.174 59.3303ZM315.752 61.5V42.5909H322.843C324.295 42.5909 325.514 42.8617 326.499 43.4034C327.49 43.9451 328.238 44.6899 328.743 45.6378C329.253 46.5795 329.509 47.6506 329.509 48.8509C329.509 50.0634 329.253 51.1406 328.743 52.0824C328.232 53.0241 327.478 53.7659 326.48 54.3075C325.483 54.843 324.255 55.1108 322.797 55.1108H318.097V52.2947H322.335C323.184 52.2947 323.88 52.147 324.422 51.8516C324.963 51.5561 325.363 51.1499 325.622 50.6328C325.886 50.1158 326.019 49.5218 326.019 48.8509C326.019 48.1799 325.886 47.589 325.622 47.0781C325.363 46.5672 324.96 46.1702 324.412 45.8871C323.871 45.5978 323.172 45.4531 322.316 45.4531H319.177V61.5H315.752ZM341.376 55.5355V47.3182H344.718V61.5H341.477V58.9794H341.329C341.009 59.7734 340.483 60.4228 339.751 60.9276C339.024 61.4323 338.129 61.6847 337.064 61.6847C336.134 61.6847 335.313 61.4785 334.599 61.0661C333.891 60.6475 333.337 60.0412 332.937 59.2472C332.537 58.447 332.336 57.4806 332.336 56.348V47.3182H335.679V55.831C335.679 56.7296 335.925 57.4437 336.417 57.973C336.91 58.5024 337.556 58.767 338.356 58.767C338.849 58.767 339.326 58.647 339.787 58.407C340.249 58.1669 340.628 57.8099 340.923 57.3359C341.225 56.8558 341.376 56.2557 341.376 55.5355ZM354.341 61.777C352.925 61.777 351.71 61.4661 350.694 60.8445C349.684 60.2228 348.906 59.3641 348.358 58.2685C347.816 57.1667 347.545 55.8987 347.545 54.4645C347.545 53.0241 347.822 51.7531 348.376 50.6513C348.93 49.5433 349.712 48.6816 350.722 48.0661C351.737 47.4444 352.938 47.1335 354.322 47.1335C355.473 47.1335 356.492 47.3459 357.379 47.7706C358.271 48.1892 358.982 48.7831 359.511 49.5526C360.041 50.3158 360.342 51.2083 360.416 52.2301H357.222C357.092 51.5469 356.785 50.9775 356.298 50.522C355.818 50.0604 355.175 49.8295 354.369 49.8295C353.685 49.8295 353.085 50.0142 352.568 50.3835C352.051 50.7467 351.648 51.2699 351.359 51.9531C351.076 52.6364 350.934 53.455 350.934 54.4091C350.934 55.3755 351.076 56.2064 351.359 56.902C351.642 57.5914 352.039 58.1238 352.55 58.4993C353.067 58.8686 353.673 59.0533 354.369 59.0533C354.861 59.0533 355.301 58.9609 355.689 58.7763C356.083 58.5855 356.412 58.3116 356.677 57.9545C356.942 57.5975 357.123 57.1636 357.222 56.6527H360.416C360.336 57.656 360.041 58.5455 359.53 59.321C359.019 60.0904 358.323 60.6937 357.443 61.1307C356.563 61.5616 355.529 61.777 354.341 61.777ZM372.2 55.5355V47.3182H375.542V61.5H372.301V58.9794H372.154C371.834 59.7734 371.307 60.4228 370.575 60.9276C369.848 61.4323 368.953 61.6847 367.888 61.6847C366.959 61.6847 366.137 61.4785 365.423 61.0661C364.715 60.6475 364.161 60.0412 363.761 59.2472C363.361 58.447 363.161 57.4806 363.161 56.348V47.3182H366.503V55.831C366.503 56.7296 366.749 57.4437 367.242 57.973C367.734 58.5024 368.38 58.767 369.181 58.767C369.673 58.767 370.15 58.647 370.612 58.407C371.073 58.1669 371.452 57.8099 371.747 57.3359C372.049 56.8558 372.2 56.2557 372.2 55.5355ZM390.188 51.0668L387.141 51.3991C387.055 51.0914 386.904 50.8021 386.689 50.5312C386.479 50.2604 386.196 50.0419 385.839 49.8757C385.482 49.7095 385.045 49.6264 384.528 49.6264C383.833 49.6264 383.248 49.7772 382.774 50.0788C382.306 50.3804 382.075 50.7713 382.081 51.2514C382.075 51.6638 382.226 51.9993 382.534 52.2578C382.848 52.5163 383.365 52.7287 384.085 52.8949L386.504 53.4119C387.846 53.7012 388.843 54.1598 389.495 54.7876C390.154 55.4155 390.486 56.2372 390.493 57.2528C390.486 58.1454 390.225 58.9332 389.708 59.6165C389.197 60.2936 388.486 60.8229 387.575 61.2045C386.664 61.5862 385.618 61.777 384.436 61.777C382.7 61.777 381.303 61.4138 380.244 60.6875C379.185 59.955 378.554 58.9363 378.351 57.6314L381.61 57.3175C381.758 57.9576 382.072 58.4408 382.552 58.767C383.032 59.0933 383.657 59.2564 384.426 59.2564C385.221 59.2564 385.858 59.0933 386.338 58.767C386.824 58.4408 387.067 58.0376 387.067 57.5575C387.067 57.1513 386.91 56.8158 386.596 56.5511C386.288 56.2865 385.808 56.0833 385.156 55.9418L382.737 55.4339C381.377 55.1508 380.37 54.6738 379.718 54.0028C379.065 53.3258 378.742 52.4702 378.748 51.4361C378.742 50.562 378.979 49.8049 379.459 49.1648C379.945 48.5185 380.619 48.0199 381.481 47.669C382.349 47.312 383.349 47.1335 384.482 47.1335C386.144 47.1335 387.452 47.4875 388.406 48.1953C389.366 48.9032 389.96 49.8603 390.188 51.0668ZM397.33 61.7862C396.431 61.7862 395.621 61.6262 394.901 61.3061C394.187 60.9799 393.621 60.4998 393.202 59.8658C392.79 59.2318 392.584 58.45 392.584 57.5206C392.584 56.7204 392.732 56.0587 393.027 55.5355C393.322 55.0123 393.726 54.5938 394.237 54.2798C394.747 53.9659 395.323 53.7289 395.963 53.5689C396.609 53.4027 397.277 53.2827 397.967 53.2088C398.798 53.1226 399.472 53.0457 399.989 52.978C400.506 52.9041 400.881 52.7933 401.115 52.6456C401.355 52.4917 401.475 52.2547 401.475 51.9347V51.8793C401.475 51.1837 401.269 50.6451 400.857 50.2635C400.444 49.8819 399.85 49.6911 399.075 49.6911C398.256 49.6911 397.607 49.8696 397.126 50.2266C396.652 50.5836 396.332 51.0052 396.166 51.4915L393.045 51.0483C393.292 50.1866 393.698 49.4664 394.264 48.8878C394.83 48.303 395.523 47.866 396.342 47.5767C397.16 47.2812 398.065 47.1335 399.056 47.1335C399.739 47.1335 400.42 47.2135 401.097 47.3736C401.774 47.5336 402.392 47.7983 402.952 48.1676C403.513 48.5308 403.962 49.0263 404.3 49.6541C404.645 50.282 404.817 51.0668 404.817 52.0085V61.5H401.604V59.5518H401.494C401.29 59.9458 401.004 60.3151 400.635 60.6598C400.272 60.9983 399.813 61.2723 399.259 61.4815C398.711 61.6847 398.068 61.7862 397.33 61.7862ZM398.197 59.3303C398.868 59.3303 399.45 59.1979 399.942 58.9332C400.435 58.6624 400.813 58.3054 401.078 57.8622C401.349 57.419 401.484 56.9358 401.484 56.4126V54.7415C401.38 54.8277 401.201 54.9077 400.949 54.9815C400.703 55.0554 400.426 55.12 400.118 55.1754C399.81 55.2308 399.505 55.2801 399.204 55.3232C398.902 55.3662 398.641 55.4032 398.419 55.4339C397.92 55.5017 397.474 55.6125 397.08 55.7663C396.686 55.9202 396.375 56.1357 396.148 56.4126C395.92 56.6835 395.806 57.0343 395.806 57.4652C395.806 58.0807 396.031 58.5455 396.48 58.8594C396.929 59.1733 397.502 59.3303 398.197 59.3303ZM411.521 53.1903V61.5H408.178V47.3182H411.373V49.728H411.539C411.865 48.9339 412.385 48.303 413.099 47.8352C413.82 47.3674 414.709 47.1335 415.768 47.1335C416.746 47.1335 417.599 47.3428 418.325 47.7614C419.058 48.1799 419.624 48.7862 420.024 49.5803C420.43 50.3743 420.63 51.3376 420.624 52.4702V61.5H417.282V52.9872C417.282 52.0393 417.036 51.2976 416.543 50.7621C416.057 50.2266 415.383 49.9588 414.521 49.9588C413.937 49.9588 413.416 50.0881 412.961 50.3466C412.512 50.599 412.158 50.9652 411.899 51.4453C411.647 51.9254 411.521 52.5071 411.521 53.1903ZM428.103 61.7862C427.204 61.7862 426.395 61.6262 425.675 61.3061C424.961 60.9799 424.394 60.4998 423.976 59.8658C423.563 59.2318 423.357 58.45 423.357 57.5206C423.357 56.7204 423.505 56.0587 423.8 55.5355C424.096 55.0123 424.499 54.5938 425.01 54.2798C425.521 53.9659 426.096 53.7289 426.737 53.5689C427.383 53.4027 428.051 53.2827 428.74 53.2088C429.571 53.1226 430.245 53.0457 430.762 52.978C431.279 52.9041 431.655 52.7933 431.888 52.6456C432.129 52.4917 432.249 52.2547 432.249 51.9347V51.8793C432.249 51.1837 432.042 50.6451 431.63 50.2635C431.218 49.8819 430.624 49.6911 429.848 49.6911C429.029 49.6911 428.38 49.8696 427.9 50.2266C427.426 50.5836 427.106 51.0052 426.94 51.4915L423.819 51.0483C424.065 50.1866 424.471 49.4664 425.038 48.8878C425.604 48.303 426.296 47.866 427.115 47.5767C427.934 47.2812 428.839 47.1335 429.83 47.1335C430.513 47.1335 431.193 47.2135 431.87 47.3736C432.547 47.5336 433.166 47.7983 433.726 48.1676C434.286 48.5308 434.735 49.0263 435.074 49.6541C435.419 50.282 435.591 51.0668 435.591 52.0085V61.5H432.378V59.5518H432.267C432.064 59.9458 431.778 60.3151 431.408 60.6598C431.045 60.9983 430.587 61.2723 430.033 61.4815C429.485 61.6847 428.842 61.7862 428.103 61.7862ZM428.971 59.3303C429.642 59.3303 430.223 59.1979 430.716 58.9332C431.208 58.6624 431.587 58.3054 431.852 57.8622C432.122 57.419 432.258 56.9358 432.258 56.4126V54.7415C432.153 54.8277 431.975 54.9077 431.722 54.9815C431.476 55.0554 431.199 55.12 430.891 55.1754C430.584 55.2308 430.279 55.2801 429.977 55.3232C429.676 55.3662 429.414 55.4032 429.192 55.4339C428.694 55.5017 428.248 55.6125 427.854 55.7663C427.46 55.9202 427.149 56.1357 426.921 56.4126C426.693 56.6835 426.58 57.0343 426.58 57.4652C426.58 58.0807 426.804 58.5455 427.254 58.8594C427.703 59.1733 428.275 59.3303 428.971 59.3303Z" fill="white"/>
<path d="M129.997 58.1652C130.001 58.1692 130.001 58.1692 129.997 58.1733V65.3327C130.021 66.0253 129.691 66.7259 129.006 67.1205L64.5192 104.351L60.7261 106.542L59.9813 106.973C59.6148 107.186 59.2241 107.331 58.8214 107.412C58.7811 107.42 58.7411 107.428 58.7007 107.436C58.6484 107.444 58.6001 107.448 58.5478 107.456C58.4552 107.468 58.3624 107.476 58.274 107.48C57.9478 107.5 57.6216 107.476 57.2995 107.416C57.227 107.399 57.1544 107.383 57.0781 107.363C56.7478 107.279 56.4297 107.146 56.1237 106.973L55.2781 106.481L54.7829 106.195L53.3978 105.394L51.7387 104.432L51.7185 104.42L51.7065 104.412L42.0344 98.8106H42.0305L41.0399 98.2347L1.2562 75.1941C0.676434 74.8598 0.314051 74.3324 0.164936 73.7646L0 73.8854V65.9609L0.0845268 66.0091L0.128741 66.0373L5.07758 68.9526L11.0089 65.5701L16.6744 62.3409L20.4716 60.1785L58.274 38.6278L70.0642 31.9073C71.256 31.2268 72.7136 31.2308 73.8974 31.9153L124.928 61.3301L129.856 58.2537L129.997 58.1652Z" fill="#FBB465"/>
<path d="M72.7223 92.251C67.8623 97.1151 67.5803 101.094 64.52 104.351L60.7269 106.541L59.9821 106.972C59.6156 107.186 59.2249 107.331 58.8222 107.411C58.774 107.444 58.7257 107.476 58.6773 107.512L58.5486 107.456C58.4559 107.468 58.3632 107.476 58.2747 107.48C57.9486 107.5 57.6224 107.476 57.3003 107.415C57.0103 107.113 56.7486 106.767 56.4707 106.53C56.2855 106.381 56.0923 106.276 55.8787 106.268C55.8507 106.268 55.8225 106.268 55.7942 106.272C55.6373 106.284 55.4641 106.348 55.2789 106.481L54.7837 106.195L53.3985 105.394L51.7395 104.432L51.7192 104.419L51.7072 104.411L42.0352 98.8104L51.796 96.7245L60.7954 94.7998L64.0047 94.1152V94.1112L64.8623 93.93L71.5467 92.5005L72.7223 92.251Z" fill="#FFF0C0"/>
<path d="M60.725 106.541L59.9802 106.972C59.6137 107.185 59.2231 107.33 58.8204 107.411C58.7721 107.443 58.7238 107.475 58.6755 107.512L58.5467 107.455C58.4541 107.467 58.3613 107.475 58.2729 107.479C57.9467 107.5 57.6205 107.475 57.2985 107.415C57.226 107.399 57.1533 107.383 57.0771 107.363C56.6381 106.92 56.1951 106.509 55.7924 106.271C55.3978 106.034 55.0434 105.965 54.7817 106.195L53.3966 105.394L51.7376 104.431L51.7173 104.419L51.7053 104.411L42.0332 98.81L51.794 96.7242L60.7934 94.7994L64.0027 94.1109L64.8604 93.9297C64.929 94.8438 64.7477 95.6531 64.8483 96.3658C65.388 100.127 62.6619 103.199 60.725 106.541Z" fill="#97EDFF"/>
<path d="M63.6207 97.0785C60.3268 101.419 62.646 104.612 58.8207 107.411C58.7725 107.443 58.7242 107.475 58.6758 107.512L58.5471 107.455L56.4692 106.529L55.8772 106.267L51.7379 104.431L51.7176 104.419L51.7056 104.411L42.0336 98.8099H42.0297L41.0391 98.234L50.4534 95.9469L63.7213 92.7256C63.8582 93.2168 63.9548 93.6759 64.0031 94.1107V94.1148C64.148 95.2787 64.1763 96.3498 63.6207 97.0785Z" fill="#50C9E4"/>
<path d="M58.7008 107.436C58.5599 107.456 58.415 107.472 58.274 107.48C57.5371 107.524 56.7881 107.355 56.1239 106.972L55.2783 106.481L54.783 106.195L53.3979 105.394L51.7388 104.432L51.7186 104.42L51.7066 104.412L1.2562 75.194C0.676434 74.8598 0.314051 74.3323 0.164936 73.7645L0 73.8853V65.9608L0.0845268 66.0091C0.0845268 65.9648 0.0884292 65.9205 0.0884292 65.8721C0.100675 65.9285 0.112595 65.9808 0.128741 66.0372C0.281757 66.5928 0.64403 67.1003 1.21188 67.4264L2.35148 68.0868L2.56084 68.2077L2.94327 68.4291C2.94327 68.4331 2.94739 68.4331 2.94739 68.4331L3.26946 68.6183L56.0792 99.2051C56.7557 99.5955 57.5208 99.7648 58.2738 99.7123C58.6324 99.6883 58.7008 104.089 58.7008 107.436Z" fill="#3DB2C8"/>
<path d="M129.997 58.1649C130 58.1689 130 58.1689 129.997 58.1729V58.2977C129.98 58.9461 129.646 59.5822 129.006 59.9527L59.9807 99.8046C59.7187 99.9536 59.4451 100.07 59.1631 100.155C59.131 100.167 59.0948 100.175 59.0586 100.187C59.0424 100.191 59.0264 100.195 59.0102 100.199C58.7686 100.26 58.523 100.3 58.2733 100.312C57.5364 100.356 56.7875 100.183 56.1232 99.8006L3.46225 69.3066L3.20054 69.1495L1.77507 68.328L1.70669 68.2877L1.25566 68.026C0.478445 67.5751 0.087994 66.7939 0.0839844 66.0086C0.0839844 65.9644 0.0878868 65.9201 0.0878868 65.8717C0.124082 65.1187 0.522767 64.3778 1.2717 63.9551L9.34121 59.3566L15.7839 55.6843L18.8643 53.9246L70.0635 24.7353C71.2554 24.0589 72.7129 24.0629 73.8967 24.7433L129.006 56.5098C129.517 56.8079 129.835 57.2749 129.948 57.7863C129.98 57.9113 129.997 58.036 129.997 58.1649Z" fill="white"/>
<path d="M129.949 57.7866C129.941 57.9476 129.909 58.1048 129.856 58.2537C129.715 58.6926 129.418 59.0913 128.962 59.353L72.6573 91.8603L64.7814 96.4064L63.1908 97.3286L59.9372 99.2051C59.4219 99.503 58.8541 99.6721 58.2742 99.7123C57.5212 99.7648 56.7562 99.5955 56.0797 99.2051L3.26991 68.6183L2.94784 68.4331C2.94784 68.4331 2.94372 68.4331 2.94372 68.4291L2.56129 68.2077L2.35193 68.0868L1.21233 67.4264C0.644483 67.1003 0.282099 66.5928 0.129192 66.0372C0.113045 65.9807 0.101126 65.9285 0.08888 65.872C-0.0721547 65.0789 0.173406 64.2172 0.821663 63.6413L0.829683 63.6333L0.837703 63.6293C0.954523 63.5286 1.08326 63.4359 1.22425 63.3554L11.1259 57.7141L15.2773 55.3464L17.9875 53.8001L70.02 24.1397C71.2079 23.4592 72.6696 23.4632 73.8534 24.1477L128.962 55.9141C129.675 56.3248 130.005 57.0699 129.949 57.7866Z" fill="#FED39D"/>
<path d="M72.6573 91.86L64.7814 96.4062L63.1908 97.3283L59.9372 99.2048C59.4219 99.5027 58.8541 99.6718 58.2742 99.712C57.5212 99.7645 56.7562 99.5952 56.0797 99.2048L3.26991 68.618L2.94784 68.4328C2.94784 68.4328 2.94372 68.4328 2.94372 68.4288L2.56129 68.2074L2.35193 68.0865L1.21233 67.4261C0.644483 67.1 0.282099 66.5925 0.129192 66.0369C0.113045 65.9805 0.101126 65.9282 0.08888 65.8718C-0.0721547 65.0786 0.173406 64.2169 0.821663 63.641L0.829683 63.633L0.837703 63.629L8.4642 59.24H8.46832L11.1259 57.7138L15.2572 55.334L17.931 53.7959C17.9511 53.7959 17.9672 53.7959 17.9875 53.7998C18.3134 53.8159 18.6034 53.8603 18.8651 53.9246C21.3334 54.5206 21.1724 57.0172 20.4719 60.1781C20.4477 60.2909 20.4236 60.4036 20.3954 60.5205C19.1993 65.7269 29.854 59.8037 31.513 65.4895C33.172 71.1751 52.3549 64.0679 53.539 72.3589C54.5134 79.176 54.6864 82.4699 58.2742 83.4242C59.0473 83.6296 59.9817 83.7262 61.117 83.7262C65.8523 83.7262 71.3731 87.4952 72.6573 91.86Z" fill="#FFF0C0"/>
<path d="M64.7814 96.4062L63.1908 97.3283L59.9372 99.2048C59.4219 99.5027 58.8541 99.6718 58.2742 99.7121C57.5212 99.7645 56.7562 99.5952 56.0797 99.2048L3.26991 68.6181L2.94784 68.4328C2.94784 68.4328 2.94372 68.4328 2.94372 68.4288L2.56129 68.2074L2.35193 68.0865L1.21233 67.4261C0.644483 67.1 0.282099 66.5926 0.129192 66.0369C0.113045 65.9805 0.101126 65.9283 0.08888 65.8718C-0.0721547 65.0786 0.173406 64.2169 0.821663 63.641L0.829683 63.633L0.837703 63.629L8.4642 59.24H8.46832L11.1259 57.7139L15.2572 55.334C15.2653 55.338 15.2695 55.342 15.2773 55.3461C15.4707 55.4388 15.6399 55.5515 15.7848 55.6844C16.5859 56.4133 16.6907 57.6375 16.5943 58.6199C16.4936 59.6306 16.3485 61.0721 16.6747 62.3405C17.1137 64.0397 18.4063 65.4249 21.8047 65.0142C27.7238 64.3054 25.3562 66.9107 30.5667 68.5697C35.7771 70.2246 31.9881 74.7265 36.0147 78.278C40.0374 81.8295 46.1981 76.8566 50.9336 78.278C55.2664 79.5786 54.4449 86.0414 58.2742 86.7582C58.6246 86.8266 59.0192 86.8427 59.458 86.8025C64.0202 86.3879 66.3236 88.361 64.7814 96.4062Z" fill="#97EDFF"/>
<path d="M63.1908 97.3285L59.9372 99.205C59.4219 99.5029 58.8541 99.6721 58.2742 99.7123C57.5212 99.7647 56.7562 99.5955 56.0797 99.205L3.26991 68.6183L2.94784 68.4331C2.94784 68.4331 2.94372 68.4331 2.94372 68.4291L2.56129 68.2077L2.35193 68.0867L1.21233 67.4263C0.644483 67.1003 0.282099 66.5928 0.129192 66.0372C0.113045 65.9807 0.101126 65.9285 0.08888 65.872C-0.0721547 65.0789 0.173406 64.2171 0.821663 63.6413L0.829683 63.6332L0.837703 63.6292L8.4642 59.2402H8.46832C8.79039 59.2563 9.08038 59.2966 9.34209 59.3569C11.8468 59.9327 11.7058 62.4092 11.0092 65.5701C10.9809 65.703 10.9528 65.8359 10.9206 65.9688C9.72474 71.1752 20.3833 65.252 22.0423 70.9377C23.6972 76.6193 23.9347 81.8298 34.827 82.5426C43.1824 83.0862 45.248 89.1705 51.6424 89.1705C53.8529 89.1705 56.2328 89.9919 58.2742 91.3127C60.6177 92.8227 62.5102 94.993 63.1908 97.3285Z" fill="#50C9E4"/>
<path d="M107.064 63.2187C112.946 63.2187 117.715 59.7789 117.715 55.5356C117.715 51.2924 112.946 47.8525 107.064 47.8525C101.181 47.8525 96.4121 51.2924 96.4121 55.5356C96.4121 59.7789 101.181 63.2187 107.064 63.2187Z" fill="#F7D5E6"/>
<path d="M107.528 46.7336C107.875 46.6239 108.248 46.6634 108.618 46.8255C108.928 46.9614 108.936 46.734 108.936 46.734C108.936 46.734 111.135 45.4242 111.228 45.3949C113.015 44.8307 115.249 46.8606 116.218 49.9288C116.276 50.1145 116.329 50.2997 116.375 50.4839C117.331 50.7742 118.302 51.9159 118.788 53.4564C119.007 54.1496 119.099 54.833 119.079 55.4469L119.18 55.5052C119.936 55.9388 120.403 56.7438 120.403 57.6154C120.403 58.5093 119.94 59.2435 119.281 59.6646C118.959 59.8699 117.038 61.0047 117.038 61.0047C117.038 61.0047 117.228 59.9942 116.76 59.7255L104.675 52.7944C103.919 52.3608 103.453 51.5559 103.453 50.6843C103.453 49.8904 102.643 49.7876 102.643 49.7876C102.643 49.7876 104.838 48.471 105.109 48.3789C105.272 48.3232 105.322 48.0428 105.322 48.0428C105.322 48.0428 107.454 46.7571 107.528 46.7336Z" fill="#44B790"/>
<path d="M104.114 49.6044C104.289 48.8132 104.693 48.2292 105.285 48.0423C105.923 47.8407 106.648 48.1432 107.28 48.7843C107.575 47.7318 108.16 46.9639 108.984 46.7035C110.771 46.1393 113.005 48.1692 113.974 51.2374C114.033 51.423 114.085 51.6081 114.132 51.7924C115.087 52.0827 116.058 53.2243 116.545 54.7648C116.763 55.4579 116.856 56.1414 116.835 56.7553L116.937 56.8136C117.693 57.2472 118.159 58.0522 118.159 58.9237C118.159 60.7932 116.138 61.964 114.516 61.0339L102.431 54.1028C101.675 53.6692 101.209 52.8642 101.209 51.9926C101.209 50.3997 102.677 49.3151 104.114 49.6044Z" fill="#50C5A2"/>
<path d="M98.1858 45.6926C98.45 45.6092 98.7337 45.6392 99.0148 45.7625C99.2505 45.8659 99.2571 45.6929 99.2571 45.6929C99.2571 45.6929 100.93 44.6964 101.001 44.6742C102.36 44.2449 104.059 45.7893 104.797 48.1235C104.841 48.2647 104.881 48.4056 104.917 48.5457C105.643 48.7666 106.382 49.6351 106.752 50.8071C106.919 51.3345 106.989 51.8544 106.973 52.3215L107.051 52.3658C107.626 52.6957 107.98 53.308 107.98 53.9711C107.98 54.6513 107.629 55.2098 107.127 55.5301C106.883 55.6863 105.42 56.5497 105.42 56.5497C105.42 56.5497 105.566 55.7809 105.209 55.5765L96.0149 50.3034C95.4397 49.9736 95.085 49.3612 95.085 48.6981C95.085 48.094 94.4688 48.016 94.4688 48.016C94.4688 48.016 96.1388 47.0143 96.345 46.9441C96.4695 46.9018 96.5074 46.6885 96.5074 46.6885C96.5074 46.6885 98.1292 45.7105 98.1858 45.6926Z" fill="#44B790"/>
<path d="M95.5871 47.8763C95.7199 47.2743 96.0274 46.83 96.4776 46.6878C96.9633 46.5345 97.5149 46.7646 97.9954 47.2523C98.2206 46.4517 98.6652 45.8674 99.2925 45.6693C100.652 45.24 102.351 46.7844 103.089 49.1186C103.133 49.2598 103.173 49.4007 103.209 49.5408C103.935 49.7617 104.674 50.6303 105.044 51.8023C105.211 52.3296 105.281 52.8495 105.265 53.3166L105.343 53.3609C105.918 53.6908 106.272 54.3032 106.272 54.9663C106.272 56.3886 104.735 57.2793 103.501 56.5716L94.3069 51.2986C93.7316 50.9687 93.377 50.3563 93.377 49.6932C93.377 48.4813 94.4935 47.6562 95.5871 47.8763Z" fill="#50C5A2"/>
<path d="M105.387 8.03125V57.5237H109.612V8.03125C109.612 7.04987 108.97 6.28512 108.146 6.01973C107.884 5.93596 107.604 5.90096 107.325 5.92198C107.052 5.94647 106.78 6.02677 106.515 6.16288C106.165 6.34451 105.886 6.61694 105.69 6.94161C105.495 7.26293 105.387 7.64004 105.387 8.03125Z" fill="#D27855"/>
<g opacity="0.17">
<path d="M105.387 8.03126V57.5237H107.325V5.92188C107.052 5.94637 106.78 6.02667 106.515 6.16278C106.165 6.3444 105.886 6.61684 105.69 6.94151C105.495 7.26293 105.387 7.64005 105.387 8.03126Z" fill="#D27855"/>
</g>
<path d="M107.261 9.64215C108.831 0.900755 97.7257 0 97.7257 0L100.669 3.6352C100.669 3.6352 94.2097 0.356314 87.1699 4.04982C92.5961 4.42954 93.826 7.27301 93.826 7.27301C89.325 7.90804 88.195 9.92975 88.195 9.92975C99.0553 7.70854 98.7909 12.0384 98.7909 12.0384L107.261 9.64215Z" fill="#4EC8A4"/>
<path d="M106.529 9.64215C104.959 0.900755 116.065 0 116.065 0L113.121 3.6352C113.121 3.6352 119.581 0.356314 126.62 4.04982C121.194 4.42954 119.964 7.27301 119.964 7.27301C124.465 7.90804 125.595 9.92975 125.595 9.92975C114.735 7.70854 114.999 12.0384 114.999 12.0384L106.529 9.64215Z" fill="#4EC8A4"/>
<path d="M109.621 8.06731C96.182 -0.240503 85.9595 10.7298 85.9595 10.7298L94.3689 10.4103C94.3689 10.4103 83.7997 14.6918 84.4765 24.8954C89.37 19.4891 95.1067 20.3647 95.1067 20.3647C92.642 25.573 95.1484 28.2996 95.1484 28.2996C99.9393 15.2076 106.998 18.7842 106.998 18.7842L109.621 8.06731Z" fill="#4AAA80"/>
<path d="M104.352 8.41691C117.791 0.109106 128.013 11.0794 128.013 11.0794L119.604 10.7599C119.604 10.7599 130.173 15.0414 129.496 25.245C124.603 19.8387 118.866 20.7143 118.866 20.7143C121.331 25.9226 118.824 28.6492 118.824 28.6492C114.033 15.5572 106.974 19.1339 106.974 19.1339L104.352 8.41691Z" fill="#4AAA80"/>
<path d="M109.595 12.6612C100.404 9.85147 95.8008 17.2357 95.8008 17.2357L100.79 15.9551C100.79 15.9551 95.0553 19.7012 96.8698 25.2315C99.0519 21.6114 102.606 21.34 102.606 21.34C101.851 24.532 103.727 25.7043 103.727 25.7043C104.786 17.8652 109.505 18.9076 109.505 18.9076L109.595 12.6612Z" fill="#4EC8A4"/>
<path d="M105.558 12.6396C114.828 9.92933 119.219 17.362 119.219 17.362L114.267 16.0278C114.267 16.0278 119.894 19.8352 117.921 25.345C115.843 21.702 112.297 21.3923 112.297 21.3923C112.961 24.5918 111.051 25.7438 111.051 25.7438C110.217 17.8945 105.469 18.8858 105.469 18.8858L105.558 12.6396Z" fill="#4EC8A4"/>
<path opacity="0.53" d="M109.612 47.7451H105.387V49.142H109.612V47.7451Z" fill="#F0B553"/>
<path opacity="0.53" d="M109.612 43.9033H105.387V45.3002H109.612V43.9033Z" fill="#F0B553"/>
<path opacity="0.53" d="M109.612 40.0625H105.387V41.4595H109.612V40.0625Z" fill="#F0B553"/>
<path opacity="0.53" d="M109.612 36.2207H105.387V37.6177H109.612V36.2207Z" fill="#F0B553"/>
<path opacity="0.53" d="M109.612 32.3789H105.387V33.7758H109.612V32.3789Z" fill="#F0B553"/>
<path opacity="0.53" d="M109.612 28.5371H105.387V29.934H109.612V28.5371Z" fill="#F0B553"/>
<path opacity="0.53" d="M109.612 24.6963H105.387V26.0932H109.612V24.6963Z" fill="#F0B553"/>
<path opacity="0.53" d="M109.612 20.8545H105.387V22.2515H109.612V20.8545Z" fill="#F0B553"/>
<path d="M107.77 51.9535C107.944 51.8987 108.13 51.9184 108.315 51.9995C108.47 52.0673 108.474 51.9537 108.474 51.9537C108.474 51.9537 109.573 51.2991 109.62 51.2844C110.513 51.0024 111.629 52.0169 112.114 53.5505C112.143 53.6433 112.169 53.7359 112.192 53.828C112.67 53.9731 113.155 54.5437 113.398 55.3137C113.508 55.6601 113.554 56.0017 113.544 56.3086L113.594 56.3378C113.972 56.5545 114.205 56.9569 114.205 57.3925C114.205 57.8393 113.974 58.2062 113.645 58.4168C113.484 58.5193 112.523 59.0866 112.523 59.0866C112.523 59.0866 112.619 58.5815 112.385 58.4473L106.344 54.9828C105.966 54.7661 105.733 54.3637 105.733 53.9281C105.733 53.5313 105.328 53.48 105.328 53.48C105.328 53.48 106.425 52.8219 106.561 52.7758C106.643 52.748 106.667 52.6078 106.667 52.6078C106.667 52.6078 107.733 51.9652 107.77 51.9535Z" fill="#44B790"/>
<path d="M106.065 53.3886C106.153 52.9931 106.355 52.7012 106.65 52.6078C106.97 52.507 107.332 52.6582 107.648 52.9787C107.796 52.4526 108.088 52.0687 108.5 51.9386C109.393 51.6567 110.509 52.6712 110.994 54.2048C111.023 54.2976 111.049 54.3902 111.073 54.4823C111.55 54.6274 112.035 55.198 112.279 55.968C112.388 56.3144 112.434 56.6561 112.424 56.9629L112.475 56.9921C112.852 57.2088 113.086 57.6112 113.086 58.0468C113.086 58.9813 112.075 59.5665 111.265 59.1016L105.224 55.6371C104.846 55.4204 104.613 55.018 104.613 54.5824C104.613 53.7861 105.347 53.244 106.065 53.3886Z" fill="#50C5A2"/>
<path d="M102.873 53.5068C103.085 53.44 103.312 53.4641 103.537 53.5627C103.725 53.6454 103.731 53.507 103.731 53.507C103.731 53.507 105.069 52.7098 105.125 52.6921C106.213 52.3487 107.572 53.584 108.162 55.4512C108.197 55.5641 108.229 55.6768 108.258 55.789C108.839 55.9657 109.43 56.6605 109.726 57.598C109.859 58.0198 109.915 58.4358 109.903 58.8093L109.965 58.8449C110.425 59.1088 110.708 59.5987 110.708 60.129C110.708 60.673 110.427 61.1198 110.026 61.3761C109.83 61.501 108.661 62.1916 108.661 62.1916C108.661 62.1916 108.777 61.5766 108.492 61.4132L101.137 57.1952C100.677 56.9313 100.393 56.4414 100.393 55.911C100.393 55.4279 99.9004 55.3654 99.9004 55.3654C99.9004 55.3654 101.236 54.5641 101.401 54.508C101.501 54.4741 101.531 54.3035 101.531 54.3035C101.531 54.3035 102.828 53.5211 102.873 53.5068Z" fill="#44B790"/>
<path d="M100.797 55.2544C100.904 54.7729 101.15 54.4174 101.51 54.3037C101.898 54.181 102.339 54.3651 102.724 54.7552C102.904 54.1148 103.259 53.6474 103.761 53.4889C104.849 53.1455 106.208 54.3809 106.798 56.2481C106.833 56.3611 106.865 56.4737 106.894 56.5859C107.475 56.7625 108.066 57.4574 108.362 58.3949C108.495 58.8166 108.551 59.2327 108.539 59.6062L108.601 59.6416C109.061 59.9055 109.345 60.3954 109.345 60.9258C109.345 62.0636 108.115 62.776 107.128 62.21L99.7731 57.992C99.313 57.7281 99.0293 57.2382 99.0293 56.7078C99.0293 55.7383 99.9225 55.0783 100.797 55.2544Z" fill="#50C5A2"/>
<path d="M54.8522 41.2427C54.8522 41.2911 54.8496 41.3391 54.8446 41.3868C54.8358 41.4708 54.8196 41.5536 54.796 41.6349C54.4755 42.7422 52.8212 43.5858 50.8285 43.5858C48.8339 43.5858 47.1781 42.7406 46.86 41.6318C46.836 41.5484 46.8195 41.4634 46.8113 41.3774C46.807 41.3328 46.8047 41.288 46.8047 41.2428C46.8047 41.1976 46.807 41.1527 46.8113 41.1082C46.8195 41.022 46.836 40.9371 46.86 40.8536C46.8962 40.7276 46.9495 40.6048 47.0188 40.4864C47.028 40.4705 47.0376 40.4548 47.0474 40.4391C47.6104 39.5407 49.0908 38.8994 50.8285 38.8994C52.5661 38.8994 54.0464 39.5407 54.6095 40.4391C54.6192 40.4548 54.6288 40.4705 54.6381 40.4864C54.7069 40.6038 54.76 40.7254 54.7961 40.8504C54.8197 40.9316 54.8361 41.0143 54.8447 41.0984C54.8495 41.1461 54.8522 41.1942 54.8522 41.2427Z" fill="#F7D5E6"/>
<path d="M54.0514 41.2286C54.0514 41.2674 54.0494 41.3058 54.0453 41.344C54.0383 41.4113 54.0253 41.4775 54.0063 41.5427C53.7497 42.4293 52.425 43.1048 50.8294 43.1048C49.2323 43.1048 47.9065 42.428 47.6517 41.5402C47.6326 41.4734 47.6193 41.4054 47.6127 41.3364C47.6093 41.3008 47.6074 41.2648 47.6074 41.2287C47.6074 41.1926 47.6092 41.1567 47.6127 41.121C47.6193 41.0521 47.6325 40.984 47.6517 40.9172C47.6807 40.8162 47.7235 40.7179 47.779 40.6232C47.7863 40.6105 47.794 40.5979 47.8018 40.5853C48.2526 39.866 49.438 39.3525 50.8294 39.3525C52.2208 39.3525 53.4061 39.8661 53.8569 40.5853C53.8647 40.5979 53.8724 40.6105 53.8798 40.6232C53.9348 40.7172 53.9774 40.8145 54.0062 40.9147C54.0252 40.9798 54.0382 41.046 54.0452 41.1132C54.0494 41.1512 54.0514 41.1898 54.0514 41.2286Z" fill="#429CD0"/>
<path d="M54.0514 40.5871C54.0514 40.6259 54.0494 40.6643 54.0453 40.7025C54.0383 40.7698 54.0253 40.836 54.0063 40.9012C53.7497 41.7878 52.425 42.4633 50.8294 42.4633C49.2323 42.4633 47.9065 41.7865 47.6517 40.8987C47.6326 40.8319 47.6193 40.7639 47.6127 40.6948C47.6093 40.6592 47.6074 40.6232 47.6074 40.5871C47.6074 40.551 47.6092 40.515 47.6127 40.4794C47.6193 40.4105 47.6325 40.3424 47.6517 40.2757C47.6807 40.1747 47.7235 40.0764 47.779 39.9817C47.7863 39.969 47.794 39.9564 47.8018 39.9438C48.2526 39.2245 49.438 38.7109 50.8294 38.7109C52.2208 38.7109 53.4061 39.2245 53.8569 39.9438C53.8647 39.9564 53.8724 39.969 53.8798 39.9817C53.9348 40.0757 53.9774 40.173 54.0062 40.2732C54.0252 40.3383 54.0382 40.4045 54.0452 40.4718C54.0494 40.5098 54.0514 40.5483 54.0514 40.5871Z" fill="#4182CE"/>
<path d="M51.5149 22.1406H50.2402V40.6226H51.5149V22.1406Z" fill="#429CD0"/>
<path d="M50.8588 26.0713L39.5527 23.5588L34.8867 16.9187L39.5527 9.91963L50.8588 7.40723V26.0713Z" fill="#E2CCD6"/>
<path d="M50.791 26.0713L62.0971 23.5588L66.7631 16.9187L62.0971 9.91963L50.791 7.40723V26.0713Z" fill="#795FB2"/>
<path d="M50.8588 25.5098L39.5527 22.9974L34.8867 16.3573L39.5527 9.35822L50.8588 6.8457V25.5098Z" fill="#50B3FF"/>
<path d="M50.8589 6.8457L39.5527 22.9974L50.8589 25.5098V6.8457Z" fill="white"/>
<path d="M50.8588 6.8457L34.8867 16.3552L39.5527 9.35822L50.8588 6.8457Z" fill="white"/>
<path d="M50.791 25.5098L62.0971 22.9974L66.7631 16.3573L62.0971 9.35822L50.791 6.8457V25.5098Z" fill="white"/>
<path d="M50.791 6.8457L62.0971 22.9974L50.791 25.5098V6.8457Z" fill="#9874D4"/>
<path d="M50.791 6.8457L66.7631 16.3552L62.0971 9.35822L50.791 6.8457Z" fill="#FF4C91"/>
<path d="M39.5267 22.8726V23.5137L34.8789 16.9429V16.3018L39.5267 22.8726Z" fill="#36A3C0"/>
<path d="M66.7707 16.3018V16.9429L62.123 23.5137V22.8726L66.7707 16.3018Z" fill="#E2CCD6"/>
<path d="M88.7412 35.5067L80.6756 49.363L56.4789 63.2192L40.3477 53.9128L64.5445 40.0566L72.4032 26.2002L88.7412 35.5067Z" fill="#F7D5E6"/>
<path d="M76.0635 24.0723C75.9013 26.9353 80.0766 32.7521 76.8088 38.7792C73.541 44.8063 60.0535 52.2244 56.6815 52.2244C53.3096 52.2244 50.9493 49.864 51.9609 47.1665C52.9724 44.4691 64.6753 37.2099 64.8932 37.1304C65.1112 37.0508 68.4831 30.6443 68.8202 30.3071C69.1575 29.9699 72.1921 25.2493 72.1921 25.2493L76.0635 24.0723Z" fill="#F7D5E6"/>
<path d="M70.8229 26.1816L67.1326 31.2431L67.0144 31.4865L65.1817 35.2521L61.7668 37.0992C61.7562 37.1063 61.7491 37.1099 61.7381 37.1171L60.915 37.5609C60.915 37.5609 60.7575 39.2218 60.2849 38.4809C59.655 39.4007 58.2626 39.9413 57.9941 39.2432C57.7257 38.5488 58.8032 37.5144 58.8032 37.5144L63.4781 33.6736C63.4781 33.6736 67.5012 26.0814 70.8229 26.1816Z" fill="#FF9F8F"/>
<path d="M67.0152 31.4863L65.1825 35.252L61.7676 37.099C64.291 35.6387 65.2541 33.2618 67.0152 31.4863Z" fill="#F4CAAB"/>
<path d="M46.1643 43.5393C45.3484 44.0404 45.8027 45.691 49.315 47.5619C49.315 47.5619 50.7603 47.036 52.7093 46.2489C54.5527 45.5044 58.4375 43.9154 59.6056 43.3379C61.9105 43.3545 64.006 42.8532 65.611 42.2987C67.479 41.6532 68.6341 39.7844 68.3651 37.8264L68.1647 36.3632C64.6543 35.641 61.189 38.0541 57.9273 40.0539C54.747 41.4297 49.34 44.9283 49.34 44.9283C49.34 44.9283 46.9799 43.0402 46.1643 43.5393Z" fill="#FF9F8F"/>
<path d="M59.5064 42.1339L52.709 46.2495C54.5524 45.505 58.4372 43.916 59.6053 43.3385C61.9102 43.3551 64.0057 42.8538 65.6107 42.2993C66.3813 42.033 67.0307 41.5585 67.5087 40.9555C68.1893 40.0968 68.5228 38.9774 68.3648 37.8271C62.5896 42.2818 59.5064 42.1339 59.5064 42.1339Z" fill="#F4CAAB"/>
<path d="M48.3127 47.1191C47.4968 47.6202 47.9511 49.2709 51.4634 51.1418C51.4634 51.1418 54.6985 49.9001 56.6475 49.113C58.491 48.3685 60.586 47.4954 61.7541 46.918C64.0589 46.9345 66.1544 46.4333 67.7595 45.8787C69.6274 45.2333 70.7825 43.3645 70.5135 41.4065L70.3132 39.9433C66.8027 39.221 63.3373 41.6342 60.0758 43.634C56.8955 45.0097 51.4885 48.5084 51.4885 48.5084C51.4885 48.5084 49.1283 46.6201 48.3127 47.1191Z" fill="#FF9F8F"/>
<path d="M61.656 45.7129L56.6484 49.1126C58.4919 48.3681 60.5869 47.495 61.755 46.9176C64.0598 46.9341 66.1553 46.4329 67.7604 45.8784C68.531 45.6121 69.1803 45.1377 69.6583 44.5346C70.339 43.6759 70.6724 42.5565 70.5144 41.4062C64.7394 45.8608 61.656 45.7129 61.656 45.7129Z" fill="#F4CAAB"/>
<path d="M73.0264 25.2787L78.3243 23.2734C78.0969 27.1943 74.3092 28.3917 76.4199 32.6205C78.5306 36.8494 65.0968 34.5384 73.0264 25.2787Z" fill="#8E4539"/>
<path d="M63.0332 37.473C64.2947 40.3239 68.4641 41.8221 70.4714 42.3916C70.7216 42.4642 71.2489 39.3018 72.293 37.4677C72.36 37.3493 72.4285 37.2315 72.4996 37.1151C72.5945 36.9542 72.692 36.7946 72.7916 36.6378C73.2525 35.9085 73.7402 35.2248 74.2043 34.6095C74.439 34.2963 74.6691 34.0031 74.8843 33.7296C75.8012 32.5734 76.4927 32.8615 76.4597 32.68C76.3938 32.3069 76.246 30.8739 76.0211 30.5533L75.4897 29.7952L75.2278 29.4223L72.5979 25.6738C71.2618 25.545 69.1454 27.0332 67.8612 28.5256C67.0286 29.497 66.5457 30.4709 66.8596 31.004L66.861 31.0047C66.861 31.0047 66.861 31.0047 66.8616 31.0067C66.8719 31.0237 66.885 31.0422 66.8953 31.0592C66.7882 31.3382 66.6782 31.6296 66.5662 31.9218C66.268 32.694 65.957 33.4649 65.6537 34.0167C64.8677 35.4488 64.0777 36.024 63.1226 37.3505L63.0332 37.473Z" fill="#FF9F8F"/>
<path d="M66.5981 29.7773C66.3369 30.4094 66.2425 31.0865 66.4892 31.738C66.5121 31.7987 66.5377 31.8606 66.5672 31.9213C66.5948 31.9792 66.6264 32.0391 66.6609 32.097L66.6623 32.0976C66.6623 32.0976 66.6623 32.0976 66.6629 32.0997C66.674 32.112 66.7488 32.2051 66.8866 32.3363C67.1829 32.6189 67.7655 33.0736 68.587 33.2514C68.6985 33.4462 68.8354 33.6449 68.9865 33.8456C68.9872 33.8477 68.9893 33.8504 68.992 33.8518C69.295 34.2484 69.6635 34.6501 70.0545 35.0341C70.0943 35.0742 70.1355 35.1149 70.1773 35.1544C71.0279 35.9766 71.9551 36.7054 72.5005 37.1146C72.5954 36.9537 72.693 36.7942 72.7925 36.6374C72.0539 36.0852 71.806 35.3529 71.806 35.3529L71.808 35.3523C71.8115 35.3489 71.8196 35.3393 71.8339 35.3275C71.9549 35.2137 72.4415 34.7184 72.7035 33.9504C72.8772 33.4369 72.9513 32.8007 72.7479 32.0753C72.7465 32.0747 72.7465 32.0747 72.7465 32.0747C72.7458 32.0726 72.7465 32.0713 72.7465 32.0713L75.5356 29.8733L75.4908 29.7949L75.2602 29.3966L75.2289 29.422L72.3358 31.8684C71.5822 31.3257 69.7399 31.6076 69.7399 31.6076C69.7399 31.6076 69.742 31.6001 69.7452 31.583C69.7459 31.5817 69.7459 31.5817 69.7465 31.5803C69.7465 31.5769 69.748 31.5741 69.7485 31.5693C69.7886 31.3883 69.9418 30.5784 69.6973 29.836C69.556 29.4052 69.2796 28.996 68.7705 28.7445C68.7705 28.7445 68.7705 28.7445 68.7724 28.7439C68.8356 28.6883 70.9004 26.9497 72.1224 26.4518C72.2675 26.3924 72.3998 26.3521 72.5145 26.3372L71.8301 25.999C71.7551 26.0301 71.6781 26.0653 71.6019 26.1025C70.138 26.8079 68.36 28.5417 68.36 28.5417C68.347 28.5335 68.334 28.5254 68.321 28.5173C68.3004 28.5037 68.2798 28.4902 68.2599 28.4786C68.1867 28.4339 68.0387 28.4578 67.8621 28.5255C67.4873 28.6706 66.9884 29.0117 66.8374 29.2828C66.8165 29.3218 66.7955 29.3608 66.7765 29.3992C66.7103 29.5227 66.6514 29.6486 66.5981 29.7773Z" fill="#FEDF43"/>
<path d="M66.4883 31.7382C66.5339 31.8596 66.5905 31.9795 66.6599 32.0973L66.6613 32.0979C66.6613 32.0979 66.6613 32.0979 66.662 32.1C66.673 32.1122 66.7478 32.2054 66.8857 32.3365C67.1819 32.6192 67.7645 33.0739 68.5861 33.2517C68.5861 33.2517 69.2685 32.591 69.7478 31.5693C69.7879 31.3882 69.9411 30.5784 69.6966 29.8359C69.7207 32.2064 68.0789 33.5647 66.4883 31.7382Z" fill="#F4CAAB"/>
<path d="M68.7246 33.3198C68.7246 33.3198 68.8097 33.544 68.9872 33.8463C68.9879 33.8484 68.99 33.8511 68.9927 33.8525C69.2088 34.2215 69.56 34.7033 70.0553 35.0348C70.5135 35.3413 71.0954 35.5181 71.8067 35.3536L71.8088 35.353C71.8122 35.3496 71.8204 35.34 71.8347 35.3283C71.9556 35.2144 72.4423 34.7191 72.7042 33.9511C72.8779 33.4376 72.952 32.8015 72.7486 32.076C72.7493 32.0746 72.7472 32.0754 72.7472 32.0754C72.7504 32.1656 72.7975 34.3311 71.4622 34.6727C70.0982 35.0203 68.7246 33.3198 68.7246 33.3198Z" fill="#F4CAAB"/>
<path d="M71.5996 27.6155C71.5996 27.6155 73.1091 29.034 74.3011 28.5655L76.5242 24.0664L73.5268 25.0972L73.053 25.2599L71.9038 27.1239L71.5996 27.6155Z" fill="#FF9F8F"/>
<path d="M71.9043 27.1242C72.595 27.2186 73.7597 27.0329 75.173 25.4374L73.5272 25.0977L73.0534 25.2603L71.9043 27.1242Z" fill="#F4CAAB"/>
<path d="M74.0941 20.1074C74.0941 20.1074 69.2359 24.6589 71.5661 25.926C73.8962 27.1932 76.4716 25.3358 76.4716 25.3358L76.6666 22.3972L74.0941 20.1074Z" fill="#FF9F8F"/>
<path d="M77.8754 22.0081C79.6401 25.2136 75.8299 25.7186 75.8299 25.7186L75.3763 25.2692C74.9792 24.607 75.348 23.8998 75.348 23.8998C73.0819 23.7887 73.488 21.8987 72.2383 22.145C72.8352 19.4707 76.1106 18.8026 77.8754 22.0081Z" fill="#8E4539"/>
<path d="M75.4825 24.7278C74.9837 24.8856 74.6736 25.3119 74.7901 25.6798C74.9065 26.0478 75.4053 26.2182 75.9042 26.0604C76.403 25.9025 76.713 25.4763 76.5965 25.1083C76.4801 24.7404 75.9814 24.57 75.4825 24.7278Z" fill="#FF9F8F"/>
<path d="M63.5997 36.7275C65.5394 38.4729 65.6739 40.1626 70.7969 41.6444C70.5507 44.558 69.27 44.9585 69.27 44.9585C69.27 44.9585 70.1928 43.4842 69.8348 42.4104C69.4769 41.3365 64.8236 40.9786 64.8236 40.9786C64.8236 40.9786 64.3555 40.6431 64.4106 40.4529C64.4656 39.1889 63.3809 37.0056 63.3809 37.0056L63.5997 36.7275Z" fill="#FEDF43"/>
<path d="M76.3099 31.4443C76.6356 35.2512 75.2037 39.9046 75.2037 39.9046L72.698 45.9898L70.9082 45.2739L72.34 39.1887L72.6979 34.1775" fill="#FF9F8F"/>
<path d="M72.6989 44.916H71.6251C69.1194 45.6319 70.5513 46.3478 70.5513 46.3478C70.5513 46.3478 69.4775 47.0637 70.1933 48.4955C70.9091 49.9274 73.4148 48.1376 72.6989 44.916Z" fill="#FF9F8F"/>
<path d="M56.9925 57.3476L81.1297 43.6144L89.2795 29.4044L88.2031 28.7871L80.2217 42.7032L56.3789 56.269L56.9925 57.3476Z" fill="#FAB433"/>
<path d="M46.3435 52.3007L46.8403 45.0968C47.0328 42.3067 48.6055 39.8268 51.0472 38.4632L56.9247 35.1808C60.1305 33.391 64.182 33.9537 66.7783 36.5497L69.2757 39.0472L70.1531 38.1698L67.6556 35.6724C64.6692 32.6858 60.0075 32.038 56.3197 34.0975L50.4422 37.3797C47.633 38.9483 45.8238 41.8015 45.6023 45.0115L45.1055 52.2154L46.3435 52.3007Z" fill="#FAB433"/>
<path d="M88.7412 29.0955L80.6756 42.9517L56.4789 56.8081L40.3477 47.5016L64.5445 33.6453L72.4032 19.7891L88.7412 29.0955Z" fill="#FC4D91"/>
<path d="M66.4057 34.6795L74.2645 20.8232L76.229 21.9422L68.3305 35.8684L44.202 49.6856L42.209 48.5357L66.4057 34.6795Z" fill="#FFE6F1"/>
<path d="M77.7802 22.8223L79.7447 23.9412L71.8462 37.8673L47.7176 51.6846L45.7246 50.5348L69.9213 36.6785L77.7802 22.8223Z" fill="#FFE6F1"/>
<path d="M81.2958 24.8213L83.2603 25.9402L75.3618 39.8663L51.2331 53.6836L49.2402 52.5338L73.4369 38.6775L81.2958 24.8213Z" fill="#FFE6F1"/>
<path d="M84.8114 26.8203L86.7759 27.9392L78.8774 41.8654L54.7487 55.6826L52.7559 54.5328L76.9526 40.6766L84.8114 26.8203Z" fill="#FFE6F1"/>
<path d="M61.2341 61.1941L61.731 53.9903C61.9234 51.2002 63.4962 48.7203 65.9378 47.3567L71.8154 44.0743C75.0209 42.2845 79.0729 42.8472 81.6689 45.4432L84.1664 47.9407L85.0437 47.0633L82.5463 44.5659C79.5596 41.5791 74.8983 40.9318 71.2103 42.991L65.3328 46.2733C62.5237 47.842 60.7145 50.6951 60.493 53.9052L59.9961 61.1089L61.2341 61.1941Z" fill="#FAB433"/>
<path d="M69.0586 58.9952L79.8697 53.0352L90.5423 58.9952L79.8697 65.2324L69.0586 58.9952Z" fill="#F7D5E6"/>
<path d="M69.8071 49.8633V59.3438L69.0586 58.8448V49.8633H69.8071Z" fill="#61BAE3"/>
<path d="M69.8086 49.8633V59.3438L70.5571 58.8448V49.8633H69.8086Z" fill="#36A3C0"/>
<path d="M79.805 55.1943V64.6749L79.0566 64.176V55.1943H79.805Z" fill="#61BAE3"/>
<path d="M79.8047 55.1943V64.6749L80.5532 64.176V55.1943H79.8047Z" fill="#36A3C0"/>
<path d="M89.7954 49.4189V58.8995L89.0469 58.4005V49.4189H89.7954Z" fill="#36A3C0"/>
<path d="M69.0586 50.167V48.6424L79.8697 44.207L90.5423 48.6424V50.167L79.8697 56.4044L69.0586 50.167Z" fill="#36A3C0"/>
<path d="M69.0586 48.6426L79.8697 42.6826L90.5423 48.6426L79.8697 54.8799L69.0586 48.6426Z" fill="#61BAE3"/>
<path d="M89.7949 49.4189V58.8995L90.5434 58.4005V49.4189H89.7949Z" fill="#61BAE3"/>
<path d="M78.8731 50.5022C80.271 50.5022 81.4043 49.7842 81.4043 48.8985C81.4043 48.0129 80.271 47.2949 78.8731 47.2949C77.4751 47.2949 76.3418 48.0129 76.3418 48.8985C76.3418 49.7842 77.4751 50.5022 78.8731 50.5022Z" fill="#F7D5E6"/>
<path d="M80.4727 48.839C80.4727 49.1977 80.1792 49.513 79.7365 49.6936C79.4864 49.7958 79.1885 49.8554 78.8688 49.8554C77.9836 49.8554 77.2656 49.4002 77.2656 48.839C77.2656 48.834 77.2656 48.8284 77.2663 48.8233C77.2794 48.269 77.9917 47.8232 78.8688 47.8232C79.1541 47.8232 79.4218 47.8703 79.6538 47.9531C80.136 48.1248 80.4632 48.4496 80.472 48.8234C80.4727 48.8284 80.4727 48.834 80.4727 48.839Z" fill="#4AAA80"/>
<path d="M79.3786 46.3976V47.155C79.3786 47.1869 79.3755 47.2176 79.3692 47.2477C79.3517 47.3286 79.3121 47.4019 79.2569 47.4602C79.1761 47.5462 79.0607 47.5994 78.9335 47.5994C78.7128 47.5994 78.529 47.4389 78.4946 47.2276C78.4901 47.2037 78.4883 47.1799 78.4883 47.1548V46.3975H79.3786V46.3976Z" fill="#4AAA80"/>
<path d="M80.4727 48.6022V48.8229H77.2656V48.6022C77.2656 47.8905 77.8036 47.3043 78.4952 47.2279C78.5453 47.2229 78.5961 47.2197 78.6482 47.2197H79.0902C79.1861 47.2197 79.2795 47.2298 79.3699 47.2479C79.9993 47.3777 80.4727 47.9344 80.4727 48.6022Z" fill="#4AAA80"/>
<g opacity="0.17">
<path d="M80.4716 48.8232H80.471C80.4716 48.8282 80.4716 48.8338 80.4716 48.8389C80.4716 49.1976 80.1782 49.513 79.7355 49.6935C79.7405 49.5512 79.7499 49.1882 79.7418 48.8232C79.7348 48.4689 79.7116 48.1128 79.6527 47.9529C79.5856 47.773 79.4144 47.5955 79.2564 47.4607C79.0871 47.3159 78.9329 47.2199 78.9329 47.2199C78.9329 47.2199 78.941 47.1427 78.9329 46.9991C78.9266 46.892 78.6827 46.8223 78.5586 46.7935C78.9379 46.8574 79.3781 46.7559 79.3781 46.7559V47.1552C79.3781 47.1872 79.3749 47.2178 79.3686 47.248C79.9982 47.3778 80.4715 47.9346 80.4715 48.6022V48.8232H80.4716Z" fill="#15A0FF"/>
</g>
<path d="M81.4058 42.1631V44.2689C81.4058 44.8232 81.2279 45.3364 80.9267 45.7539C80.8267 45.8922 80.7131 46.0199 80.5887 46.1351C80.2556 46.4422 79.8398 46.6618 79.3785 46.7559C79.2347 46.7851 79.087 46.8024 78.935 46.8062C78.9129 46.8068 78.8907 46.8073 78.8679 46.8073C78.7387 46.8073 78.6122 46.7975 78.4878 46.7792C77.2672 46.5959 76.3301 45.5415 76.3301 44.269V42.1632L81.4058 42.1631Z" fill="#4AAA80"/>
<g opacity="0.09">
<path d="M81.4063 42.1631V44.2689C81.4063 44.8232 81.2284 45.3364 80.9272 45.7539C80.8272 45.8922 80.7136 46.0199 80.5892 46.1351C80.2561 46.4422 79.8403 46.6618 79.379 46.7559C79.2352 46.7851 79.0875 46.8024 78.9355 46.8062C80.0257 46.4163 79.6662 45.5954 79.7192 43.5892C79.7192 43.5892 80.4849 42.8414 81.2193 42.1632L81.4063 42.1631Z" fill="#15A0FF"/>
</g>
<path d="M78.8701 43.8849C80.2719 43.8849 81.4082 43.165 81.4082 42.2769C81.4082 41.3889 80.2719 40.6689 78.8701 40.6689C77.4684 40.6689 76.332 41.3889 76.332 42.2769C76.332 43.165 77.4684 43.8849 78.8701 43.8849Z" fill="#FFECC7"/>
<path d="M78.8694 43.8443C80.2535 43.8443 81.3755 43.1335 81.3755 42.2566C81.3755 41.3798 80.2535 40.6689 78.8694 40.6689C77.4853 40.6689 76.3633 41.3798 76.3633 42.2566C76.3633 43.1335 77.4853 43.8443 78.8694 43.8443Z" fill="#4EC8A4"/>
<path d="M78.8724 43.6156C80.0963 43.6156 81.0885 42.987 81.0885 42.2116C81.0885 41.4362 80.0963 40.8076 78.8724 40.8076C77.6484 40.8076 76.6562 41.4362 76.6562 42.2116C76.6562 42.987 77.6484 43.6156 78.8724 43.6156Z" fill="#FEDF43"/>
<path d="M81.0885 42.2121C81.0885 42.4008 81.0295 42.5807 80.9236 42.745C80.5925 42.2341 79.7987 41.8735 78.8727 41.8735C77.9466 41.8735 77.1529 42.2341 76.8218 42.745C76.7153 42.5807 76.6562 42.4008 76.6562 42.2121C76.6562 41.4365 77.6488 40.8076 78.8727 40.8076C80.0965 40.8075 81.0885 41.4365 81.0885 42.2121Z" fill="#4AAA80"/>
<path d="M82.0232 44.6825C82.0232 44.6827 82.0228 44.6828 82.0228 44.6828L82.023 44.683L81.8562 44.7725L81.8319 44.7856L81.6364 44.8907L81.621 44.8989C81.549 44.9209 81.4733 44.9313 81.3947 44.9308H81.3903C81.3655 44.9304 81.3403 44.929 81.315 44.9265C81.3041 44.9256 81.2937 44.924 81.2829 44.9226L81.1441 44.6642L81.0702 44.5264L81.0652 44.5172L80.9457 44.2944L80.9374 44.2794L80.689 43.8165L80.644 43.7327L80.6355 43.7169V42.9738L80.332 43.1514L80.331 43.1496L80.3109 43.112L80.0172 42.5648L79.9736 42.4836L79.9078 42.3612L79.8863 42.3211L79.7803 42.1231L79.7618 42.0884L79.6792 41.9346L79.5625 41.7174L79.5469 41.6887C79.6136 41.5623 79.705 41.4604 79.8203 41.3911L79.8776 41.3605L80.0423 41.272L80.1463 41.2162C80.1504 41.2139 80.1547 41.2116 80.1586 41.2093C80.717 40.9095 81.5874 41.4441 82.1021 42.403C82.617 43.3624 82.5817 44.3828 82.0232 44.6825Z" fill="#4AAA80"/>
<path d="M81.8507 44.7713C81.8447 44.7762 81.8385 44.7812 81.8323 44.7859C81.8028 44.8087 81.7713 44.8291 81.7381 44.8469C81.7052 44.8646 81.6715 44.8793 81.6368 44.891C81.629 44.894 81.6212 44.8963 81.6132 44.8988C81.5435 44.9202 81.4709 44.9307 81.3951 44.931H81.3907C81.3622 44.931 81.3332 44.9296 81.3041 44.9267C81.2931 44.9257 81.2827 44.9242 81.2718 44.9228C81.0672 44.8959 80.8491 44.8019 80.636 44.6519V42.9739L80.3324 43.1515L79.8539 43.4319L79.8522 43.4292L79.8508 43.43L79.71 43.5122C79.3766 42.8237 79.3214 42.1216 79.5347 41.6864C79.5393 41.6765 79.5442 41.6671 79.5494 41.6574C79.6168 41.5299 79.7091 41.4271 79.8254 41.3568C79.8354 41.3511 79.8451 41.3453 79.8554 41.3399C79.8644 41.3351 79.8739 41.3303 79.8834 41.3259C79.9343 41.3015 79.9877 41.2837 80.043 41.2721C80.6002 41.1553 81.3528 41.6784 81.818 42.5452C82.3008 43.4448 82.3041 44.3975 81.8507 44.7713Z" fill="#4EC8A4"/>
<path d="M81.6919 42.6129C81.6522 42.5392 81.6104 42.4684 81.5664 42.4007L81.5648 42.398C81.5615 42.393 81.5584 42.3884 81.5551 42.3836C81.3056 42.0046 80.9935 41.7249 80.6893 41.5878C80.6817 41.5843 80.6743 41.5809 80.6668 41.5779C80.4216 41.473 80.183 41.4614 79.9877 41.5662C79.8466 41.6419 79.7439 41.7704 79.6796 41.9346C79.6757 41.9445 79.672 41.9544 79.6686 41.9644C79.664 41.977 79.6599 41.9899 79.656 42.0028C79.6312 42.0825 79.6145 42.1691 79.606 42.2616C79.6048 42.2745 79.6038 42.2877 79.603 42.3008C79.5821 42.6231 79.6578 43.0079 79.8328 43.3915C79.8359 43.3984 79.839 43.4051 79.8423 43.4119C79.845 43.4179 79.8476 43.4238 79.8507 43.4298L79.8521 43.4289L79.8538 43.4316L80.3323 43.1513L80.6359 42.9737V44.4204C80.6388 44.4227 80.6414 44.4247 80.6443 44.4266C80.6517 44.4321 80.6593 44.4374 80.6667 44.4426C80.8027 44.5383 80.9407 44.6075 81.0751 44.6468C81.088 44.6502 81.101 44.6537 81.1139 44.6571C81.1242 44.6598 81.1342 44.6619 81.1444 44.6642C81.2752 44.6926 81.4014 44.6909 81.5161 44.6554C81.5233 44.6534 81.5305 44.6509 81.5375 44.6484C81.5666 44.6383 81.595 44.6258 81.6223 44.611C81.8721 44.4771 82.0025 44.1789 82.0105 43.8071C82.0107 43.7985 82.0109 43.7897 82.0107 43.7808C82.0129 43.4292 81.9076 43.0149 81.6919 42.6129Z" fill="#FEDF43"/>
<path d="M82.0228 43.7885L82.0109 43.8074L81.9988 43.8265L80.7385 43.0238L81.558 44.6383L81.5379 44.6486L81.518 44.6587L81.5165 44.6555L80.6897 43.027V44.4428H80.6447V42.969L80.6363 42.974L80.3328 43.1516L79.8543 43.432L79.8526 43.4293L79.8428 43.4122L79.8314 43.3932L79.8333 43.3919L80.3116 43.1122L80.6061 42.9397L80.0179 42.565L79.6035 42.3011L79.5879 42.2913L79.6065 42.2619L79.6121 42.2534L79.9744 42.484L80.6242 42.8977L79.9602 41.5897L80.0002 41.5693L80.6447 42.8392V41.5782H80.6897V42.8908L81.5555 42.3839L81.5566 42.3833L81.5653 42.3984L81.5669 42.401L81.5793 42.4219L80.6956 42.9392L80.6988 42.9452L82.0111 43.7811L82.0228 43.7885Z" fill="#D27855"/>
</svg>
