<svg width="512" height="132" viewBox="0 0 554 143" fill="none" xmlns="http://www.w3.org/2000/svg">
<rect x="166" width="388" height="110" rx="18" fill="#006DB7"/>
<path d="M110 102L221.5 66.026L189.5 42L110 102Z" fill="#006DB7"/>
<rect x="191.048" y="34.0476" width="41.9048" height="41.9048" rx="20.9524" fill="#FFB600"/>
<rect x="191.048" y="34.0476" width="41.9048" height="41.9048" rx="20.9524" stroke="white" stroke-width="2.09524"/>
<g clip-path="url(#clip0_146_630)">
<path d="M200.375 63.3886C200.375 63.4261 200.379 63.4599 200.39 63.4936C200.39 63.5049 200.398 63.5161 200.401 63.5274C200.413 63.5574 200.431 63.5874 200.454 63.6136C200.458 63.6211 200.461 63.6249 200.465 63.6324C200.465 63.6324 200.469 63.6324 200.472 63.6361C200.499 63.6661 200.529 63.6924 200.566 63.7111C202.205 64.5699 206.255 66.0661 206.424 66.1261C206.439 66.1299 206.45 66.1299 206.465 66.1336C206.472 66.1336 206.48 66.1411 206.491 66.1449C206.589 66.1599 206.713 66.1674 206.855 66.1674C209.938 66.1674 222.789 62.5411 223.359 62.3799C223.531 62.3311 223.644 62.1624 223.621 61.9824C223.014 57.2236 221.375 49.4574 221.36 49.3786C221.36 49.3749 221.356 49.3711 221.356 49.3674C221.345 49.3299 221.33 49.2961 221.311 49.2624C221.308 49.2549 221.304 49.2474 221.3 49.2436C221.278 49.2099 221.244 49.1799 221.21 49.1574C221.195 49.1461 221.176 49.1386 221.157 49.1311C221.142 49.1236 221.128 49.1124 221.109 49.1086L217.625 48.0849C216.267 45.0474 214.318 43.5849 211.989 43.8586C211.501 43.9149 211.051 44.0499 210.642 44.2561C210.436 44.2186 210.222 44.1961 210.001 44.1924C208.899 44.1811 207.961 44.6161 207.226 45.4824C206.341 46.5136 205.786 48.1674 205.561 50.3911C203.615 50.7361 202.186 50.9799 202.164 50.9836C202.149 50.9836 202.141 50.9949 202.126 50.9986C202.119 50.9986 202.107 50.9986 202.1 50.9986C202.089 50.9986 202.081 51.0099 202.074 51.0174C202.044 51.0324 202.018 51.0474 201.995 51.0661C201.98 51.0774 201.969 51.0886 201.957 51.1036C201.935 51.1261 201.92 51.1524 201.905 51.1824C201.901 51.1936 201.89 51.2011 201.886 51.2124C201.159 53.1249 200.409 62.9461 200.379 63.3624V63.3661V63.3849L200.375 63.3886ZM206.533 50.9574C206.574 50.9499 206.615 50.9424 206.66 50.9349C207.151 50.8449 207.661 50.7549 208.182 50.6574C208.197 51.0436 208.227 51.4411 208.273 51.8536C206.499 52.1986 205.344 52.3899 204.837 52.4199L203.281 51.5274C204.054 51.3924 205.213 51.1936 206.536 50.9536L206.533 50.9574ZM208.16 49.9224C207.995 49.9524 207.83 49.9824 207.665 50.0124C207.823 48.8986 208.081 48.0099 208.422 47.3911C208.246 48.1261 208.156 48.9736 208.156 49.9224H208.16ZM203.416 61.4686L205.674 65.0724C204.504 64.6261 202.584 63.8761 201.38 63.3061L203.42 61.4724L203.416 61.4686ZM203.859 60.8049V52.7011L204.406 53.0161C204.552 54.4261 205.201 60.4861 205.749 63.8236L203.859 60.8086V60.8049ZM202.438 51.8874L203.131 52.2849V60.7486L201.17 62.5149C201.361 60.1749 201.905 53.9724 202.434 51.8874H202.438ZM206.806 65.4511C206.405 64.1761 205.606 57.5086 205.145 53.1286C205.76 53.0611 206.803 52.8849 208.351 52.5811C208.475 53.4549 208.621 54.1336 208.707 54.5049C208.831 54.9849 209.262 55.3224 209.757 55.3224C209.847 55.3224 209.938 55.3111 210.024 55.2886C210.597 55.1424 210.954 54.5574 210.811 53.9761C210.688 53.4774 210.568 52.8174 210.477 52.1499C212.142 51.8049 214.108 51.3849 216.331 50.8899C216.519 51.5536 216.68 52.2474 216.796 52.9111C216.796 52.9261 216.8 52.9374 216.804 52.9486C216.845 53.2336 216.995 53.4849 217.227 53.6574C217.46 53.8299 217.741 53.9049 218.03 53.8599C218.319 53.8186 218.57 53.6649 218.743 53.4324C218.915 53.1999 218.986 52.9149 218.945 52.6299C218.93 52.5211 218.791 51.6099 218.454 50.4099C219.481 50.1774 220.287 49.9936 220.722 49.8924C221.045 51.4449 222.305 57.6174 222.856 61.7649C218.761 62.9161 208.955 65.5261 206.802 65.4399L206.806 65.4511ZM211.805 46.1161C211.839 46.1049 211.869 46.0899 211.903 46.0824C212.007 46.0524 212.12 46.0261 212.236 46.0111C212.263 46.0111 212.292 46.0111 212.319 46.0074C212.911 46.6636 213.395 47.6049 213.755 48.8161C213.736 48.8199 213.714 48.8236 213.695 48.8311C213.523 48.8686 213.342 48.9061 213.159 48.9474C212.773 47.6799 212.236 46.7724 211.565 46.2286C211.58 46.2211 211.591 46.2136 211.602 46.2061C211.666 46.1724 211.734 46.1461 211.805 46.1199V46.1161ZM210.403 51.4261C210.365 51.0286 210.339 50.6349 210.331 50.2524C211.318 50.0611 212.199 49.8849 212.971 49.7236H212.979C213.069 49.7049 213.155 49.6861 213.245 49.6674C213.372 49.6411 213.492 49.6149 213.612 49.5886C213.627 49.5886 213.642 49.5811 213.657 49.5774C213.815 49.5436 213.969 49.5099 214.115 49.4761C214.171 49.4649 214.231 49.4499 214.287 49.4386C214.842 49.3149 215.319 49.2024 215.709 49.1011C215.851 49.4349 215.99 49.7986 216.118 50.1886C213.95 50.6724 212.03 51.0849 210.399 51.4224L210.403 51.4261ZM214.464 48.6586C214.171 47.6649 213.8 46.8286 213.35 46.1574C214.111 46.4724 214.801 47.2374 215.401 48.4336C215.127 48.5011 214.813 48.5761 214.46 48.6586H214.464ZM211.003 46.7424C211.003 46.7424 211.014 46.7311 211.017 46.7236C211.599 47.1474 212.086 47.9574 212.443 49.0936C211.805 49.2249 211.1 49.3636 210.328 49.5136C210.369 48.2799 210.597 47.3236 211.003 46.7424ZM218.24 49.7236C218.154 49.4611 218.068 49.2024 217.974 48.9511L219.575 49.4236C219.193 49.5099 218.743 49.6149 218.244 49.7274L218.24 49.7236ZM212.071 44.5861C212.229 44.5674 212.382 44.5599 212.536 44.5599C214.378 44.5599 215.885 45.8949 217.029 48.5386C217.257 49.0786 217.468 49.6599 217.651 50.2599C218.052 51.5874 218.21 52.6299 218.225 52.7461C218.24 52.8399 218.214 52.9336 218.157 53.0124C218.101 53.0874 218.019 53.1399 217.921 53.1511C217.827 53.1661 217.737 53.1399 217.659 53.0836C217.584 53.0274 217.535 52.9449 217.52 52.8474C217.52 52.8361 217.513 52.8061 217.513 52.7949C217.374 51.9886 217.175 51.1486 216.935 50.3574C216.721 49.6674 216.5 49.0711 216.249 48.5274C215.266 46.3674 214.01 45.2724 212.517 45.2724C212.499 45.2724 212.484 45.2724 212.465 45.2724C212.364 45.2649 212.255 45.2799 212.15 45.2911C211.554 45.3624 211.055 45.5986 210.68 45.9924C210.68 45.9924 210.68 45.9924 210.676 45.9961C210.579 46.0936 210.489 46.2061 210.403 46.3261C209.859 47.1099 209.585 48.3324 209.589 49.9561C209.589 50.5824 209.634 51.2386 209.712 51.9061C209.806 52.7049 209.953 53.5449 210.106 54.1486C210.151 54.3399 210.035 54.5311 209.847 54.5799C209.671 54.6249 209.461 54.5086 209.413 54.3099C209.341 53.9986 209.158 53.1624 209.023 52.1011C208.94 51.4374 208.895 50.8036 208.884 50.2149C208.85 48.5386 209.094 47.2111 209.604 46.2699C209.682 46.1236 209.746 46.0186 209.818 45.9174C209.889 45.8124 209.968 45.7149 210.046 45.6211C210.286 45.3436 210.564 45.1186 210.868 44.9499C211.227 44.7549 211.629 44.6274 212.071 44.5786V44.5861ZM207.774 45.9586C208.299 45.3399 208.944 44.9986 209.698 44.9349C209.653 44.9799 209.611 45.0286 209.566 45.0774C209.536 45.1111 209.506 45.1411 209.476 45.1749C209.386 45.2799 209.3 45.3924 209.217 45.5086C209.18 45.5611 209.142 45.6211 209.105 45.6811C209.094 45.6999 209.083 45.7186 209.071 45.7374C209.056 45.7636 209.041 45.7861 209.026 45.8124C208.715 45.9474 208.434 46.1611 208.182 46.4499C207.549 47.1924 207.121 48.4374 206.908 50.1549C206.758 50.1811 206.611 50.2074 206.461 50.2374C206.405 50.2486 206.349 50.2561 206.293 50.2674C206.51 48.3211 207.016 46.8399 207.77 45.9624L207.774 45.9586Z" fill="white"/>
<path d="M216.514 57.3254C216.158 57.0217 215.64 56.8567 214.984 56.8267L213.975 56.7854C213.645 56.7704 213.552 56.7104 213.54 56.7029C213.529 56.6954 213.507 56.6804 213.507 56.5979C213.507 56.5154 213.518 56.3879 213.668 56.2417C213.799 56.1142 214.005 56.0204 214.275 55.9717C214.515 55.9267 214.714 55.9117 214.868 55.9304C215.033 55.9492 215.19 55.9792 215.322 56.0204C215.558 56.0954 215.775 56.0992 215.967 56.0279C216.15 55.9604 216.297 55.8442 216.402 55.6867C216.499 55.5442 216.555 55.3867 216.574 55.2142C216.593 55.0304 216.559 54.8579 216.473 54.6967C216.383 54.5242 216.24 54.3967 216.072 54.3254C215.82 54.1979 215.532 54.1154 215.213 54.0817C215.13 54.0742 215.052 54.0667 214.969 54.0629L214.958 53.8904C214.943 53.6467 214.842 53.4404 214.658 53.2942C214.474 53.1479 214.249 53.0954 214.009 53.1367C213.777 53.1779 213.578 53.2942 213.432 53.4779C213.285 53.6617 213.21 53.8754 213.222 54.1042L213.233 54.3854C212.978 54.4904 212.745 54.6217 212.543 54.7754C212.198 55.0342 211.924 55.3454 211.729 55.7054C211.527 56.0804 211.425 56.4892 211.425 56.9204C211.425 57.5129 211.605 57.9854 211.954 58.3192C212.299 58.6492 212.809 58.8292 213.469 58.8592L214.5 58.9042C214.718 58.9117 214.838 58.9379 214.902 58.9642C214.984 58.9942 215.003 59.0204 215.007 59.0242C215.025 59.0542 215.04 59.0954 215.044 59.1517C215.052 59.2342 215.033 59.3092 214.995 59.3842C214.954 59.4592 214.875 59.5379 214.759 59.6092C214.624 59.6954 214.433 59.7629 214.185 59.8117C213.837 59.8829 213.54 59.8979 213.304 59.8642C213.057 59.8267 212.865 59.7817 212.734 59.7292C212.415 59.6092 212.172 59.6692 212.022 59.7404C211.834 59.8304 211.68 59.9692 211.568 60.1567C211.463 60.3329 211.399 60.5242 211.38 60.7267C211.362 60.9367 211.392 61.1354 211.47 61.3229C211.564 61.5442 211.74 61.7054 211.969 61.7879C212.22 61.8892 212.524 61.9604 212.892 62.0092C213.079 62.0354 213.282 62.0392 213.503 62.0317L213.514 62.3242C213.525 62.6092 213.627 62.8529 213.814 63.0292C213.972 63.1792 214.17 63.2579 214.384 63.2579C214.448 63.2579 214.512 63.2504 214.575 63.2392C214.842 63.1829 215.063 63.0292 215.217 62.7892C215.359 62.5679 215.427 62.3204 215.408 62.0542L215.382 61.5967C215.674 61.4579 215.937 61.2854 216.162 61.0904C216.51 60.7904 216.777 60.4304 216.953 60.0217C217.129 59.6167 217.197 59.1742 217.155 58.7129C217.103 58.1167 216.885 57.6554 216.51 57.3367L216.514 57.3254ZM216.289 59.7179C216.154 60.0254 215.955 60.2954 215.689 60.5242C215.464 60.7192 215.187 60.8842 214.872 61.0117C214.725 61.0717 214.635 61.2142 214.647 61.3679L214.688 62.0767C214.695 62.1892 214.669 62.2867 214.609 62.3767C214.545 62.4742 214.478 62.4967 214.429 62.5079C214.358 62.5229 214.335 62.5042 214.317 62.4854C214.287 62.4592 214.249 62.4067 214.242 62.2829L214.219 61.6117C214.219 61.5104 214.17 61.4129 214.092 61.3492C214.024 61.2929 213.942 61.2629 213.855 61.2629C213.84 61.2629 213.825 61.2629 213.81 61.2629C213.495 61.3004 213.222 61.3042 212.989 61.2742C212.685 61.2329 212.434 61.1729 212.228 61.0942C212.164 61.0717 212.149 61.0454 212.138 61.0192C212.108 60.9479 212.097 60.8654 212.104 60.7754C212.112 60.6817 212.138 60.5992 212.187 60.5204C212.228 60.4529 212.273 60.4117 212.333 60.3817C212.363 60.3667 212.412 60.3704 212.464 60.3929C212.644 60.4642 212.884 60.5242 213.192 60.5692C213.51 60.6179 213.889 60.5992 214.32 60.5129C214.658 60.4454 214.928 60.3479 215.138 60.2129C215.363 60.0704 215.528 59.9017 215.629 59.7142C215.73 59.5192 215.775 59.3129 215.76 59.0954C215.749 58.9079 215.693 58.7392 215.595 58.6004C215.494 58.4504 215.337 58.3417 215.134 58.2704C214.969 58.2104 214.763 58.1804 214.515 58.1729L213.488 58.1279C213.012 58.1092 212.659 57.9929 212.445 57.7904C212.243 57.5954 212.142 57.3104 212.142 56.9167C212.142 56.6017 212.213 56.3167 212.359 56.0467C212.505 55.7767 212.708 55.5479 212.97 55.3492C213.18 55.1917 213.428 55.0642 213.713 54.9704C213.867 54.9179 213.968 54.7754 213.96 54.6142L213.942 54.0704C213.942 54.0179 213.957 53.9729 213.994 53.9279C214.032 53.8829 214.073 53.8567 214.129 53.8492C214.178 53.8417 214.189 53.8492 214.2 53.8567C214.212 53.8679 214.227 53.8754 214.227 53.9242L214.257 54.4454C214.268 54.6442 214.44 54.7979 214.639 54.7867C214.819 54.7754 214.973 54.7792 215.13 54.7979C215.359 54.8204 215.562 54.8804 215.753 54.9742C215.809 54.9967 215.82 55.0229 215.828 55.0342C215.847 55.0679 215.854 55.1017 215.847 55.1392C215.843 55.1917 215.824 55.2367 215.794 55.2817C215.779 55.3042 215.757 55.3267 215.708 55.3492C215.697 55.3529 215.652 55.3642 215.539 55.3304C215.355 55.2742 215.157 55.2367 214.943 55.2142C214.718 55.1917 214.455 55.2067 214.144 55.2629C213.728 55.3379 213.398 55.4954 213.162 55.7242C212.903 55.9754 212.772 56.2867 212.779 56.6204C212.79 56.9879 212.97 57.1942 213.117 57.2992C213.3 57.4304 213.559 57.4979 213.942 57.5167L214.95 57.5579C215.445 57.5804 215.813 57.6929 216.045 57.8879C216.27 58.0792 216.402 58.3679 216.435 58.7729C216.465 59.1179 216.417 59.4292 216.289 59.7254V59.7179Z" fill="white"/>
</g>
<path d="M306 35.2891C305.914 34.4827 305.55 33.8549 304.91 33.4055C304.276 32.9562 303.451 32.7315 302.436 32.7315C301.722 32.7315 301.109 32.8393 300.598 33.0547C300.088 33.2701 299.697 33.5625 299.426 33.9318C299.155 34.3011 299.017 34.7228 299.01 35.1967C299.01 35.5907 299.1 35.9323 299.278 36.2216C299.463 36.5109 299.712 36.7571 300.026 36.9602C300.34 37.1572 300.688 37.3234 301.069 37.4588C301.451 37.5942 301.836 37.7081 302.223 37.8004L303.996 38.2436C304.71 38.4098 305.397 38.6345 306.055 38.9176C306.72 39.2008 307.314 39.5578 307.837 39.9886C308.366 40.4195 308.785 40.9396 309.093 41.549C309.401 42.1584 309.554 42.8724 309.554 43.6911C309.554 44.799 309.271 45.7746 308.705 46.6179C308.139 47.455 307.32 48.1106 306.249 48.5845C305.184 49.0523 303.895 49.2862 302.38 49.2862C300.909 49.2862 299.632 49.0585 298.549 48.603C297.472 48.1475 296.628 47.4827 296.019 46.6087C295.416 45.7346 295.089 44.6697 295.04 43.4141H298.41C298.459 44.0727 298.663 44.6205 299.02 45.0575C299.377 45.4946 299.841 45.8208 300.414 46.0362C300.992 46.2517 301.639 46.3594 302.353 46.3594C303.098 46.3594 303.75 46.2486 304.31 46.027C304.876 45.7992 305.32 45.4853 305.64 45.0852C305.96 44.679 306.123 44.205 306.129 43.6634C306.123 43.1709 305.978 42.7647 305.695 42.4446C305.412 42.1184 305.015 41.8475 304.504 41.6321C303.999 41.4105 303.408 41.2135 302.731 41.0412L300.58 40.4872C299.023 40.0871 297.792 39.4808 296.887 38.6683C295.988 37.8497 295.539 36.7633 295.539 35.4091C295.539 34.295 295.84 33.3194 296.444 32.4822C297.053 31.6451 297.881 30.9957 298.927 30.5341C299.974 30.0663 301.159 29.8324 302.482 29.8324C303.824 29.8324 304.999 30.0663 306.009 30.5341C307.025 30.9957 307.822 31.639 308.4 32.4638C308.979 33.2824 309.277 34.2242 309.296 35.2891H306ZM316.541 49.2862C315.643 49.2862 314.833 49.1262 314.113 48.8061C313.399 48.4799 312.833 47.9998 312.414 47.3658C312.002 46.7318 311.796 45.95 311.796 45.0206C311.796 44.2204 311.943 43.5587 312.239 43.0355C312.534 42.5123 312.938 42.0938 313.448 41.7798C313.959 41.4659 314.535 41.2289 315.175 41.0689C315.821 40.9027 316.489 40.7827 317.179 40.7088C318.009 40.6226 318.684 40.5457 319.201 40.478C319.718 40.4041 320.093 40.2933 320.327 40.1456C320.567 39.9917 320.687 39.7547 320.687 39.4347V39.3793C320.687 38.6837 320.481 38.1451 320.068 37.7635C319.656 37.3819 319.062 37.1911 318.286 37.1911C317.468 37.1911 316.818 37.3696 316.338 37.7266C315.864 38.0836 315.544 38.5052 315.378 38.9915L312.257 38.5483C312.504 37.6866 312.91 36.9664 313.476 36.3878C314.042 35.803 314.735 35.366 315.554 35.0767C316.372 34.7812 317.277 34.6335 318.268 34.6335C318.951 34.6335 319.631 34.7135 320.309 34.8736C320.986 35.0336 321.604 35.2983 322.164 35.6676C322.724 36.0308 323.174 36.5263 323.512 37.1541C323.857 37.782 324.029 38.5668 324.029 39.5085V49H320.816V47.0518H320.706C320.502 47.4458 320.216 47.8151 319.847 48.1598C319.484 48.4983 319.025 48.7723 318.471 48.9815C317.923 49.1847 317.28 49.2862 316.541 49.2862ZM317.409 46.8303C318.08 46.8303 318.662 46.6979 319.154 46.4332C319.647 46.1624 320.025 45.8054 320.29 45.3622C320.561 44.919 320.696 44.4358 320.696 43.9126V42.2415C320.592 42.3277 320.413 42.4077 320.161 42.4815C319.915 42.5554 319.638 42.62 319.33 42.6754C319.022 42.7308 318.717 42.7801 318.416 42.8232C318.114 42.8662 317.853 42.9032 317.631 42.9339C317.132 43.0017 316.686 43.1125 316.292 43.2663C315.898 43.4202 315.587 43.6357 315.36 43.9126C315.132 44.1835 315.018 44.5343 315.018 44.9652C315.018 45.5807 315.243 46.0455 315.692 46.3594C316.141 46.6733 316.714 46.8303 317.409 46.8303ZM330.733 30.0909V49H327.39V30.0909H330.733ZM338.25 49.2862C337.352 49.2862 336.542 49.1262 335.822 48.8061C335.108 48.4799 334.542 47.9998 334.123 47.3658C333.711 46.7318 333.505 45.95 333.505 45.0206C333.505 44.2204 333.652 43.5587 333.948 43.0355C334.243 42.5123 334.647 42.0938 335.157 41.7798C335.668 41.4659 336.244 41.2289 336.884 41.0689C337.53 40.9027 338.198 40.7827 338.888 40.7088C339.718 40.6226 340.392 40.5457 340.91 40.478C341.427 40.4041 341.802 40.2933 342.036 40.1456C342.276 39.9917 342.396 39.7547 342.396 39.4347V39.3793C342.396 38.6837 342.19 38.1451 341.777 37.7635C341.365 37.3819 340.771 37.1911 339.995 37.1911C339.177 37.1911 338.527 37.3696 338.047 37.7266C337.573 38.0836 337.253 38.5052 337.087 38.9915L333.966 38.5483C334.213 37.6866 334.619 36.9664 335.185 36.3878C335.751 35.803 336.444 35.366 337.263 35.0767C338.081 34.7812 338.986 34.6335 339.977 34.6335C340.66 34.6335 341.34 34.7135 342.017 34.8736C342.695 35.0336 343.313 35.2983 343.873 35.6676C344.433 36.0308 344.883 36.5263 345.221 37.1541C345.566 37.782 345.738 38.5668 345.738 39.5085V49H342.525V47.0518H342.415C342.211 47.4458 341.925 47.8151 341.556 48.1598C341.193 48.4983 340.734 48.7723 340.18 48.9815C339.632 49.1847 338.989 49.2862 338.25 49.2862ZM339.118 46.8303C339.789 46.8303 340.371 46.6979 340.863 46.4332C341.356 46.1624 341.734 45.8054 341.999 45.3622C342.27 44.919 342.405 44.4358 342.405 43.9126V42.2415C342.301 42.3277 342.122 42.4077 341.87 42.4815C341.624 42.5554 341.347 42.62 341.039 42.6754C340.731 42.7308 340.426 42.7801 340.125 42.8232C339.823 42.8662 339.562 42.9032 339.34 42.9339C338.841 43.0017 338.395 43.1125 338.001 43.2663C337.607 43.4202 337.296 43.6357 337.069 43.9126C336.841 44.1835 336.727 44.5343 336.727 44.9652C336.727 45.5807 336.952 46.0455 337.401 46.3594C337.85 46.6733 338.423 46.8303 339.118 46.8303ZM360.811 49.2493C359.697 49.2493 358.7 48.9631 357.82 48.3906C356.939 47.8182 356.244 46.9872 355.733 45.8977C355.222 44.8082 354.967 43.4848 354.967 41.9276C354.967 40.3518 355.225 39.0223 355.742 37.9389C356.265 36.8494 356.97 36.0277 357.857 35.4737C358.743 34.9136 359.731 34.6335 360.82 34.6335C361.651 34.6335 362.335 34.7751 362.87 35.0582C363.406 35.3352 363.83 35.6707 364.144 36.0646C364.458 36.4524 364.701 36.8187 364.874 37.1634H365.012V30.0909H368.364V49H365.077V46.7656H364.874C364.701 47.1103 364.452 47.4766 364.126 47.8643C363.8 48.246 363.369 48.5722 362.833 48.843C362.298 49.1139 361.624 49.2493 360.811 49.2493ZM361.744 46.5071C362.452 46.5071 363.055 46.3163 363.553 45.9347C364.052 45.5469 364.43 45.0083 364.689 44.3189C364.948 43.6295 365.077 42.8262 365.077 41.9091C365.077 40.992 364.948 40.1948 364.689 39.5178C364.437 38.8407 364.061 38.3144 363.563 37.9389C363.07 37.5634 362.464 37.3757 361.744 37.3757C360.999 37.3757 360.377 37.5696 359.879 37.9574C359.38 38.3452 359.005 38.8807 358.752 39.5639C358.5 40.2472 358.374 41.0289 358.374 41.9091C358.374 42.7955 358.5 43.5864 358.752 44.282C359.011 44.9714 359.389 45.5161 359.888 45.9162C360.393 46.3101 361.011 46.5071 361.744 46.5071ZM378.204 49.277C376.782 49.277 375.554 48.9815 374.52 48.3906C373.492 47.7936 372.701 46.9503 372.147 45.8608C371.593 44.7652 371.316 43.4756 371.316 41.9922C371.316 40.5334 371.593 39.2531 372.147 38.1513C372.707 37.0433 373.489 36.1816 374.492 35.5661C375.495 34.9444 376.674 34.6335 378.028 34.6335C378.902 34.6335 379.727 34.7751 380.503 35.0582C381.284 35.3352 381.974 35.7661 382.571 36.3509C383.174 36.9356 383.648 37.6804 383.993 38.5852C384.338 39.4839 384.51 40.5549 384.51 41.7983V42.8232H372.886V40.5703H381.306C381.3 39.9302 381.161 39.3608 380.891 38.8622C380.62 38.3575 380.241 37.9605 379.755 37.6712C379.275 37.3819 378.715 37.2372 378.074 37.2372C377.391 37.2372 376.791 37.4034 376.274 37.7358C375.757 38.062 375.354 38.4929 375.065 39.0284C374.781 39.5578 374.637 40.1394 374.631 40.7734V42.7401C374.631 43.5649 374.781 44.2727 375.083 44.8636C375.385 45.4484 375.806 45.8977 376.348 46.2116C376.89 46.5194 377.524 46.6733 378.25 46.6733C378.736 46.6733 379.176 46.6056 379.57 46.4702C379.964 46.3286 380.306 46.1224 380.595 45.8516C380.884 45.5807 381.103 45.2453 381.251 44.8452L384.371 45.196C384.174 46.0208 383.799 46.741 383.245 47.3565C382.697 47.9659 381.995 48.4399 381.14 48.7784C380.284 49.1108 379.306 49.277 378.204 49.277ZM396.464 30.0909L401.385 44.9744H401.579L406.491 30.0909H410.258L403.592 49H399.363L392.706 30.0909H396.464ZM417.356 49.277C415.934 49.277 414.706 48.9815 413.672 48.3906C412.644 47.7936 411.853 46.9503 411.299 45.8608C410.745 44.7652 410.468 43.4756 410.468 41.9922C410.468 40.5334 410.745 39.2531 411.299 38.1513C411.859 37.0433 412.641 36.1816 413.644 35.5661C414.648 34.9444 415.826 34.6335 417.181 34.6335C418.055 34.6335 418.88 34.7751 419.655 35.0582C420.437 35.3352 421.126 35.7661 421.723 36.3509C422.326 36.9356 422.8 37.6804 423.145 38.5852C423.49 39.4839 423.662 40.5549 423.662 41.7983V42.8232H412.038V40.5703H420.458C420.452 39.9302 420.314 39.3608 420.043 38.8622C419.772 38.3575 419.393 37.9605 418.907 37.6712C418.427 37.3819 417.867 37.2372 417.227 37.2372C416.544 37.2372 415.943 37.4034 415.426 37.7358C414.909 38.062 414.506 38.4929 414.217 39.0284C413.934 39.5578 413.789 40.1394 413.783 40.7734V42.7401C413.783 43.5649 413.934 44.2727 414.235 44.8636C414.537 45.4484 414.959 45.8977 415.5 46.2116C416.042 46.5194 416.676 46.6733 417.402 46.6733C417.889 46.6733 418.329 46.6056 418.723 46.4702C419.117 46.3286 419.458 46.1224 419.747 45.8516C420.037 45.5807 420.255 45.2453 420.403 44.8452L423.524 45.196C423.327 46.0208 422.951 46.741 422.397 47.3565C421.849 47.9659 421.148 48.4399 420.292 48.7784C419.437 49.1108 418.458 49.277 417.356 49.277ZM429.832 40.6903V49H426.49V34.8182H429.684V37.228H429.851C430.177 36.4339 430.697 35.803 431.411 35.3352C432.131 34.8674 433.021 34.6335 434.079 34.6335C435.058 34.6335 435.91 34.8428 436.637 35.2614C437.369 35.6799 437.936 36.2862 438.336 37.0803C438.742 37.8743 438.942 38.8376 438.936 39.9702V49H435.593V40.4872C435.593 39.5393 435.347 38.7976 434.855 38.2621C434.369 37.7266 433.695 37.4588 432.833 37.4588C432.248 37.4588 431.728 37.5881 431.272 37.8466C430.823 38.099 430.469 38.4652 430.211 38.9453C429.958 39.4254 429.832 40.0071 429.832 40.6903ZM449.415 34.8182V37.4034H441.263V34.8182H449.415ZM443.275 31.4205H446.618V44.7344C446.618 45.1837 446.685 45.5284 446.821 45.7685C446.962 46.0024 447.147 46.1624 447.375 46.2486C447.602 46.3348 447.855 46.3778 448.132 46.3778C448.341 46.3778 448.532 46.3625 448.704 46.3317C448.883 46.3009 449.018 46.2732 449.111 46.2486L449.674 48.8615C449.495 48.9231 449.24 48.9908 448.907 49.0646C448.581 49.1385 448.181 49.1816 447.707 49.1939C446.87 49.2185 446.116 49.0923 445.445 48.8153C444.774 48.5322 444.242 48.0952 443.848 47.5043C443.46 46.9134 443.269 46.1747 443.275 45.2884V31.4205ZM456.291 49.2862C455.393 49.2862 454.583 49.1262 453.863 48.8061C453.149 48.4799 452.583 47.9998 452.164 47.3658C451.752 46.7318 451.546 45.95 451.546 45.0206C451.546 44.2204 451.693 43.5587 451.989 43.0355C452.284 42.5123 452.688 42.0938 453.198 41.7798C453.709 41.4659 454.285 41.2289 454.925 41.0689C455.571 40.9027 456.239 40.7827 456.929 40.7088C457.759 40.6226 458.434 40.5457 458.951 40.478C459.468 40.4041 459.843 40.2933 460.077 40.1456C460.317 39.9917 460.437 39.7547 460.437 39.4347V39.3793C460.437 38.6837 460.231 38.1451 459.818 37.7635C459.406 37.3819 458.812 37.1911 458.036 37.1911C457.218 37.1911 456.568 37.3696 456.088 37.7266C455.614 38.0836 455.294 38.5052 455.128 38.9915L452.007 38.5483C452.254 37.6866 452.66 36.9664 453.226 36.3878C453.792 35.803 454.485 35.366 455.304 35.0767C456.122 34.7812 457.027 34.6335 458.018 34.6335C458.701 34.6335 459.381 34.7135 460.059 34.8736C460.736 35.0336 461.354 35.2983 461.914 35.6676C462.474 36.0308 462.924 36.5263 463.262 37.1541C463.607 37.782 463.779 38.5668 463.779 39.5085V49H460.566V47.0518H460.456C460.252 47.4458 459.966 47.8151 459.597 48.1598C459.234 48.4983 458.775 48.7723 458.221 48.9815C457.673 49.1847 457.03 49.2862 456.291 49.2862ZM457.159 46.8303C457.83 46.8303 458.412 46.6979 458.904 46.4332C459.397 46.1624 459.775 45.8054 460.04 45.3622C460.311 44.919 460.446 44.4358 460.446 43.9126V42.2415C460.342 42.3277 460.163 42.4077 459.911 42.4815C459.665 42.5554 459.388 42.62 459.08 42.6754C458.772 42.7308 458.467 42.7801 458.166 42.8232C457.864 42.8662 457.603 42.9032 457.381 42.9339C456.882 43.0017 456.436 43.1125 456.042 43.2663C455.648 43.4202 455.337 43.6357 455.11 43.9126C454.882 44.1835 454.768 44.5343 454.768 44.9652C454.768 45.5807 454.993 46.0455 455.442 46.3594C455.891 46.6733 456.464 46.8303 457.159 46.8303ZM478.349 38.5668L475.302 38.8991C475.216 38.5914 475.065 38.3021 474.85 38.0312C474.64 37.7604 474.357 37.5419 474 37.3757C473.643 37.2095 473.206 37.1264 472.689 37.1264C471.994 37.1264 471.409 37.2772 470.935 37.5788C470.467 37.8804 470.236 38.2713 470.242 38.7514C470.236 39.1638 470.387 39.4993 470.695 39.7578C471.009 40.0163 471.526 40.2287 472.246 40.3949L474.665 40.9119C476.007 41.2012 477.004 41.6598 477.657 42.2876C478.315 42.9155 478.648 43.7372 478.654 44.7528C478.648 45.6454 478.386 46.4332 477.869 47.1165C477.358 47.7936 476.647 48.3229 475.736 48.7045C474.825 49.0862 473.779 49.277 472.597 49.277C470.861 49.277 469.464 48.9138 468.405 48.1875C467.346 47.455 466.715 46.4363 466.512 45.1314L469.772 44.8175C469.919 45.4576 470.233 45.9408 470.713 46.267C471.193 46.5933 471.818 46.7564 472.588 46.7564C473.382 46.7564 474.019 46.5933 474.499 46.267C474.985 45.9408 475.228 45.5376 475.228 45.0575C475.228 44.6513 475.071 44.3158 474.757 44.0511C474.45 43.7865 473.969 43.5833 473.317 43.4418L470.898 42.9339C469.538 42.6508 468.531 42.1738 467.879 41.5028C467.226 40.8258 466.903 39.9702 466.909 38.9361C466.903 38.062 467.14 37.3049 467.62 36.6648C468.107 36.0185 468.781 35.5199 469.642 35.169C470.51 34.812 471.51 34.6335 472.643 34.6335C474.305 34.6335 475.613 34.9875 476.567 35.6953C477.527 36.4032 478.121 37.3603 478.349 38.5668ZM252.305 80V61.0909H255.731V69.7791H255.962L263.339 61.0909H267.521L260.209 69.576L267.586 80H263.468L257.827 71.8935L255.731 74.3679V80H252.305ZM269.901 61.0909H274.093L279.707 74.7926H279.928L285.542 61.0909H289.734V80H286.447V67.0092H286.271L281.045 79.9446H278.589L273.364 66.9815H273.188V80H269.901V61.0909ZM295.375 80.2031C294.815 80.2031 294.335 80.0062 293.935 79.6122C293.534 79.2183 293.338 78.7382 293.344 78.1719C293.338 77.6179 293.534 77.1439 293.935 76.75C294.335 76.3561 294.815 76.1591 295.375 76.1591C295.917 76.1591 296.387 76.3561 296.788 76.75C297.194 77.1439 297.4 77.6179 297.406 78.1719C297.4 78.5473 297.302 78.889 297.111 79.1967C296.926 79.5045 296.68 79.7507 296.372 79.9354C296.07 80.1139 295.738 80.2031 295.375 80.2031ZM313.61 80.2585C312.705 80.2524 311.822 80.0954 310.96 79.7876C310.098 79.4737 309.323 78.9659 308.633 78.2642C307.944 77.5563 307.396 76.6177 306.99 75.4482C306.584 74.2725 306.384 72.8168 306.39 71.081C306.39 69.4621 306.562 68.0187 306.907 66.7507C307.252 65.4827 307.747 64.4117 308.393 63.5376C309.04 62.6574 309.818 61.9865 310.729 61.5249C311.646 61.0632 312.671 60.8324 313.804 60.8324C314.992 60.8324 316.044 61.0663 316.962 61.5341C317.885 62.0019 318.63 62.642 319.196 63.4545C319.762 64.2609 320.113 65.1719 320.248 66.1875H316.878C316.706 65.4612 316.352 64.8826 315.817 64.4517C315.287 64.0147 314.616 63.7962 313.804 63.7962C312.493 63.7962 311.483 64.3655 310.775 65.5043C310.074 66.643 309.72 68.2064 309.714 70.1946H309.843C310.145 69.6529 310.535 69.1882 311.016 68.8004C311.496 68.4126 312.037 68.1141 312.641 67.9048C313.25 67.6894 313.893 67.5817 314.57 67.5817C315.678 67.5817 316.672 67.8464 317.552 68.3757C318.439 68.9051 319.141 69.6345 319.658 70.5639C320.175 71.4872 320.43 72.5459 320.424 73.7401C320.43 74.9834 320.147 76.1006 319.574 77.0916C319.002 78.0765 318.205 78.852 317.183 79.4183C316.161 79.9846 314.97 80.2647 313.61 80.2585ZM313.592 77.4886C314.262 77.4886 314.863 77.3255 315.392 76.9993C315.921 76.6731 316.34 76.233 316.648 75.679C316.955 75.125 317.106 74.5033 317.1 73.8139C317.106 73.1368 316.958 72.5244 316.657 71.9766C316.361 71.4287 315.952 70.9948 315.429 70.6747C314.906 70.3546 314.309 70.1946 313.638 70.1946C313.139 70.1946 312.674 70.29 312.244 70.4808C311.813 70.6716 311.437 70.9363 311.117 71.2749C310.797 71.6072 310.545 71.995 310.36 72.4382C310.181 72.8752 310.089 73.343 310.083 73.8416C310.089 74.5002 310.243 75.1065 310.545 75.6605C310.846 76.2145 311.262 76.6577 311.791 76.9901C312.32 77.3224 312.921 77.4886 313.592 77.4886ZM331.236 61.0909V80H327.81V64.424H327.699L323.277 67.2493V64.1101L327.976 61.0909H331.236ZM337.092 80.2031C336.532 80.2031 336.051 80.0062 335.651 79.6122C335.251 79.2183 335.054 78.7382 335.06 78.1719C335.054 77.6179 335.251 77.1439 335.651 76.75C336.051 76.3561 336.532 76.1591 337.092 76.1591C337.633 76.1591 338.104 76.3561 338.504 76.75C338.911 77.1439 339.117 77.6179 339.123 78.1719C339.117 78.5473 339.018 78.889 338.828 79.1967C338.643 79.5045 338.397 79.7507 338.089 79.9354C337.787 80.1139 337.455 80.2031 337.092 80.2031ZM348.882 80.2585C347.651 80.2585 346.549 80.0277 345.577 79.5661C344.604 79.0982 343.832 78.4581 343.259 77.6456C342.693 76.8331 342.391 75.9036 342.354 74.8572H345.678C345.74 75.6328 346.075 76.2668 346.685 76.7592C347.294 77.2455 348.027 77.4886 348.882 77.4886C349.553 77.4886 350.15 77.3348 350.673 77.027C351.197 76.7192 351.609 76.2914 351.911 75.7436C352.212 75.1958 352.36 74.571 352.354 73.8693C352.36 73.1553 352.209 72.5213 351.901 71.9673C351.594 71.4134 351.172 70.9794 350.636 70.6655C350.101 70.3454 349.485 70.1854 348.79 70.1854C348.224 70.1792 347.667 70.2839 347.119 70.4993C346.571 70.7147 346.137 70.9979 345.817 71.3487L342.724 70.8409L343.712 61.0909H354.68V63.9531H346.546L346.002 68.9666H346.112C346.463 68.5542 346.959 68.2126 347.599 67.9418C348.239 67.6648 348.941 67.5263 349.704 67.5263C350.849 67.5263 351.871 67.7971 352.769 68.3388C353.668 68.8743 354.376 69.6129 354.893 70.5547C355.41 71.4964 355.668 72.5736 355.668 73.7862C355.668 75.0357 355.379 76.1499 354.801 77.1286C354.228 78.1011 353.431 78.8674 352.409 79.4276C351.394 79.9815 350.218 80.2585 348.882 80.2585ZM365.395 80V61.0909H372.486C373.939 61.0909 375.158 61.3617 376.142 61.9034C377.133 62.4451 377.881 63.1899 378.386 64.1378C378.897 65.0795 379.152 66.1506 379.152 67.3509C379.152 68.5634 378.897 69.6406 378.386 70.5824C377.875 71.5241 377.121 72.2659 376.124 72.8075C375.127 73.343 373.899 73.6108 372.44 73.6108H367.741V70.7947H371.978C372.828 70.7947 373.523 70.647 374.065 70.3516C374.607 70.0561 375.007 69.6499 375.265 69.1328C375.53 68.6158 375.662 68.0218 375.662 67.3509C375.662 66.6799 375.53 66.089 375.265 65.5781C375.007 65.0672 374.604 64.6702 374.056 64.3871C373.514 64.0978 372.816 63.9531 371.96 63.9531H368.821V80H365.395ZM385.807 80.2862C384.908 80.2862 384.099 80.1262 383.379 79.8061C382.665 79.4799 382.099 78.9998 381.68 78.3658C381.268 77.7318 381.061 76.95 381.061 76.0206C381.061 75.2204 381.209 74.5587 381.505 74.0355C381.8 73.5123 382.203 73.0938 382.714 72.7798C383.225 72.4659 383.8 72.2289 384.441 72.0689C385.087 71.9027 385.755 71.7827 386.444 71.7088C387.275 71.6226 387.949 71.5457 388.466 71.478C388.983 71.4041 389.359 71.2933 389.593 71.1456C389.833 70.9917 389.953 70.7547 389.953 70.4347V70.3793C389.953 69.6837 389.746 69.1451 389.334 68.7635C388.922 68.3819 388.328 68.1911 387.552 68.1911C386.733 68.1911 386.084 68.3696 385.604 68.7266C385.13 69.0836 384.81 69.5052 384.644 69.9915L381.523 69.5483C381.769 68.6866 382.175 67.9664 382.742 67.3878C383.308 66.803 384.001 66.366 384.819 66.0767C385.638 65.7812 386.543 65.6335 387.534 65.6335C388.217 65.6335 388.897 65.7135 389.574 65.8736C390.251 66.0336 390.87 66.2983 391.43 66.6676C391.99 67.0308 392.439 67.5263 392.778 68.1541C393.123 68.782 393.295 69.5668 393.295 70.5085V80H390.082V78.0518H389.971C389.768 78.4458 389.482 78.8151 389.112 79.1598C388.749 79.4983 388.291 79.7723 387.737 79.9815C387.189 80.1847 386.546 80.2862 385.807 80.2862ZM386.675 77.8303C387.346 77.8303 387.928 77.6979 388.42 77.4332C388.912 77.1624 389.291 76.8054 389.556 76.3622C389.826 75.919 389.962 75.4358 389.962 74.9126V73.2415C389.857 73.3277 389.679 73.4077 389.426 73.4815C389.18 73.5554 388.903 73.62 388.595 73.6754C388.288 73.7308 387.983 73.7801 387.681 73.8232C387.38 73.8662 387.118 73.9032 386.897 73.9339C386.398 74.0017 385.952 74.1125 385.558 74.2663C385.164 74.4202 384.853 74.6357 384.625 74.9126C384.398 75.1835 384.284 75.5343 384.284 75.9652C384.284 76.5807 384.508 77.0455 384.958 77.3594C385.407 77.6733 385.979 77.8303 386.675 77.8303ZM399.998 71.6903V80H396.656V65.8182H399.85V68.228H400.017C400.343 67.4339 400.863 66.803 401.577 66.3352C402.297 65.8674 403.187 65.6335 404.245 65.6335C405.224 65.6335 406.076 65.8428 406.803 66.2614C407.535 66.6799 408.102 67.2862 408.502 68.0803C408.908 68.8743 409.108 69.8376 409.102 70.9702V80H405.759V71.4872C405.759 70.5393 405.513 69.7976 405.021 69.2621C404.535 68.7266 403.861 68.4588 402.999 68.4588C402.414 68.4588 401.894 68.5881 401.438 68.8466C400.989 69.099 400.635 69.4652 400.377 69.9453C400.124 70.4254 399.998 71.0071 399.998 71.6903ZM416.581 80.2862C415.682 80.2862 414.872 80.1262 414.152 79.8061C413.438 79.4799 412.872 78.9998 412.453 78.3658C412.041 77.7318 411.835 76.95 411.835 76.0206C411.835 75.2204 411.983 74.5587 412.278 74.0355C412.573 73.5123 412.977 73.0938 413.487 72.7798C413.998 72.4659 414.574 72.2289 415.214 72.0689C415.86 71.9027 416.528 71.7827 417.218 71.7088C418.049 71.6226 418.723 71.5457 419.24 71.478C419.757 71.4041 420.132 71.2933 420.366 71.1456C420.606 70.9917 420.726 70.7547 420.726 70.4347V70.3793C420.726 69.6837 420.52 69.1451 420.108 68.7635C419.695 68.3819 419.101 68.1911 418.326 68.1911C417.507 68.1911 416.858 68.3696 416.377 68.7266C415.903 69.0836 415.583 69.5052 415.417 69.9915L412.296 69.5483C412.543 68.6866 412.949 67.9664 413.515 67.3878C414.081 66.803 414.774 66.366 415.593 66.0767C416.411 65.7812 417.316 65.6335 418.307 65.6335C418.99 65.6335 419.67 65.7135 420.348 65.8736C421.025 66.0336 421.643 66.2983 422.203 66.6676C422.764 67.0308 423.213 67.5263 423.551 68.1541C423.896 68.782 424.068 69.5668 424.068 70.5085V80H420.855V78.0518H420.745C420.541 78.4458 420.255 78.8151 419.886 79.1598C419.523 79.4983 419.064 79.7723 418.51 79.9815C417.962 80.1847 417.319 80.2862 416.581 80.2862ZM417.448 77.8303C418.119 77.8303 418.701 77.6979 419.193 77.4332C419.686 77.1624 420.064 76.8054 420.329 76.3622C420.6 75.919 420.735 75.4358 420.735 74.9126V73.2415C420.631 73.3277 420.452 73.4077 420.2 73.4815C419.954 73.5554 419.677 73.62 419.369 73.6754C419.061 73.7308 418.756 73.7801 418.455 73.8232C418.153 73.8662 417.892 73.9032 417.67 73.9339C417.171 74.0017 416.725 74.1125 416.331 74.2663C415.937 74.4202 415.626 74.6357 415.399 74.9126C415.171 75.1835 415.057 75.5343 415.057 75.9652C415.057 76.5807 415.282 77.0455 415.731 77.3594C416.18 77.6733 416.753 77.8303 417.448 77.8303ZM427.429 80V65.8182H430.624V68.228H430.79C431.085 67.4155 431.575 66.7815 432.258 66.326C432.941 65.8643 433.757 65.6335 434.705 65.6335C435.665 65.6335 436.474 65.8674 437.133 66.3352C437.798 66.7969 438.266 67.4278 438.536 68.228H438.684C438.998 67.4401 439.527 66.8123 440.272 66.3445C441.023 65.8705 441.913 65.6335 442.941 65.6335C444.246 65.6335 445.31 66.0459 446.135 66.8707C446.96 67.6955 447.372 68.8989 447.372 70.4808V80H444.021V70.9979C444.021 70.1177 443.787 69.4744 443.319 69.0682C442.851 68.6558 442.279 68.4496 441.602 68.4496C440.795 68.4496 440.165 68.7019 439.709 69.2067C439.26 69.7053 439.035 70.3546 439.035 71.1548V80H435.757V70.8594C435.757 70.1269 435.536 69.5421 435.093 69.1051C434.656 68.6681 434.083 68.4496 433.375 68.4496C432.895 68.4496 432.458 68.5727 432.064 68.8189C431.67 69.0589 431.356 69.4006 431.122 69.8438C430.889 70.2808 430.772 70.7917 430.772 71.3764V80H427.429ZM457.042 80.277C455.62 80.277 454.392 79.9815 453.358 79.3906C452.33 78.7936 451.539 77.9503 450.985 76.8608C450.431 75.7652 450.154 74.4756 450.154 72.9922C450.154 71.5334 450.431 70.2531 450.985 69.1513C451.545 68.0433 452.327 67.1816 453.33 66.5661C454.333 65.9444 455.512 65.6335 456.866 65.6335C457.74 65.6335 458.565 65.7751 459.341 66.0582C460.122 66.3352 460.812 66.7661 461.409 67.3509C462.012 67.9356 462.486 68.6804 462.831 69.5852C463.175 70.4839 463.348 71.5549 463.348 72.7983V73.8232H451.723V71.5703H460.144C460.138 70.9302 459.999 70.3608 459.728 69.8622C459.458 69.3575 459.079 68.9605 458.593 68.6712C458.113 68.3819 457.553 68.2372 456.912 68.2372C456.229 68.2372 455.629 68.4034 455.112 68.7358C454.595 69.062 454.192 69.4929 453.902 70.0284C453.619 70.5578 453.475 71.1394 453.468 71.7734V73.7401C453.468 74.5649 453.619 75.2727 453.921 75.8636C454.223 76.4484 454.644 76.8977 455.186 77.2116C455.727 77.5194 456.361 77.6733 457.088 77.6733C457.574 77.6733 458.014 77.6056 458.408 77.4702C458.802 77.3286 459.144 77.1224 459.433 76.8516C459.722 76.5807 459.941 76.2453 460.089 75.8452L463.209 76.196C463.012 77.0208 462.637 77.741 462.083 78.3565C461.535 78.9659 460.833 79.4399 459.978 79.7784C459.122 80.1108 458.143 80.277 457.042 80.277ZM466.175 80V65.8182H469.416V68.1818H469.564C469.822 67.3632 470.266 66.7322 470.893 66.2891C471.527 65.8397 472.251 65.6151 473.063 65.6151C473.248 65.6151 473.454 65.6243 473.682 65.6428C473.916 65.6551 474.11 65.6766 474.263 65.7074V68.782C474.122 68.7327 473.897 68.6896 473.589 68.6527C473.288 68.6096 472.995 68.5881 472.712 68.5881C472.103 68.5881 471.555 68.7204 471.069 68.9851C470.589 69.2436 470.21 69.6037 469.933 70.0653C469.656 70.527 469.518 71.0594 469.518 71.6626V80H466.175ZM476.918 80.2031C476.358 80.2031 475.878 80.0062 475.478 79.6122C475.077 79.2183 474.88 78.7382 474.887 78.1719C474.88 77.6179 475.077 77.1439 475.478 76.75C475.878 76.3561 476.358 76.1591 476.918 76.1591C477.46 76.1591 477.93 76.3561 478.331 76.75C478.737 77.1439 478.943 77.6179 478.949 78.1719C478.943 78.5473 478.844 78.889 478.654 79.1967C478.469 79.5045 478.223 79.7507 477.915 79.9354C477.613 80.1139 477.281 80.2031 476.918 80.2031ZM498.689 66.2891C498.603 65.4827 498.24 64.8549 497.6 64.4055C496.966 63.9562 496.141 63.7315 495.125 63.7315C494.411 63.7315 493.799 63.8393 493.288 64.0547C492.777 64.2701 492.386 64.5625 492.115 64.9318C491.844 65.3011 491.706 65.7228 491.7 66.1967C491.7 66.5907 491.789 66.9323 491.968 67.2216C492.152 67.5109 492.402 67.7571 492.715 67.9602C493.029 68.1572 493.377 68.3234 493.759 68.4588C494.14 68.5942 494.525 68.7081 494.913 68.8004L496.686 69.2436C497.4 69.4098 498.086 69.6345 498.745 69.9176C499.409 70.2008 500.003 70.5578 500.527 70.9886C501.056 71.4195 501.474 71.9396 501.782 72.549C502.09 73.1584 502.244 73.8724 502.244 74.6911C502.244 75.799 501.961 76.7746 501.394 77.6179C500.828 78.455 500.009 79.1106 498.938 79.5845C497.874 80.0523 496.584 80.2862 495.07 80.2862C493.599 80.2862 492.322 80.0585 491.238 79.603C490.161 79.1475 489.318 78.4827 488.708 77.6087C488.105 76.7346 487.779 75.6697 487.73 74.4141H491.1C491.149 75.0727 491.352 75.6205 491.709 76.0575C492.066 76.4946 492.531 76.8208 493.103 77.0362C493.682 77.2517 494.328 77.3594 495.042 77.3594C495.787 77.3594 496.439 77.2486 497 77.027C497.566 76.7992 498.009 76.4853 498.329 76.0852C498.649 75.679 498.812 75.205 498.818 74.6634C498.812 74.1709 498.668 73.7647 498.384 73.4446C498.101 73.1184 497.704 72.8475 497.193 72.6321C496.689 72.4105 496.098 72.2135 495.421 72.0412L493.269 71.4872C491.712 71.0871 490.481 70.4808 489.576 69.6683C488.678 68.8497 488.228 67.7633 488.228 66.4091C488.228 65.295 488.53 64.3194 489.133 63.4822C489.742 62.6451 490.57 61.9957 491.617 61.5341C492.663 61.0663 493.848 60.8324 495.171 60.8324C496.513 60.8324 497.689 61.0663 498.698 61.5341C499.714 61.9957 500.511 62.639 501.09 63.4638C501.668 64.2824 501.967 65.2242 501.985 66.2891H498.689ZM514.189 74.0355V65.8182H517.531V80H514.291V77.4794H514.143C513.823 78.2734 513.296 78.9228 512.564 79.4276C511.838 79.9323 510.942 80.1847 509.877 80.1847C508.948 80.1847 508.126 79.9785 507.412 79.5661C506.704 79.1475 506.15 78.5412 505.75 77.7472C505.35 76.947 505.15 75.9806 505.15 74.848V65.8182H508.492V74.331C508.492 75.2296 508.738 75.9437 509.231 76.473C509.723 77.0024 510.37 77.267 511.17 77.267C511.662 77.267 512.139 77.147 512.601 76.907C513.063 76.6669 513.441 76.3099 513.737 75.8359C514.038 75.3558 514.189 74.7557 514.189 74.0355ZM520.968 80V65.8182H524.209V68.1818H524.357C524.615 67.3632 525.059 66.7322 525.686 66.2891C526.32 65.8397 527.044 65.6151 527.856 65.6151C528.041 65.6151 528.247 65.6243 528.475 65.6428C528.709 65.6551 528.902 65.6766 529.056 65.7074V68.782C528.915 68.7327 528.69 68.6896 528.382 68.6527C528.081 68.6096 527.788 68.5881 527.505 68.5881C526.896 68.5881 526.348 68.7204 525.862 68.9851C525.382 69.2436 525.003 69.6037 524.726 70.0653C524.449 70.527 524.311 71.0594 524.311 71.6626V80H520.968Z" fill="white"/>
<path d="M3.03906 108.306L50.0886 81.8389L106.076 113.744L59.1548 140.802L3.03906 108.306Z" fill="#3B495C"/>
<path d="M106.076 113.744V115.942L59.1543 142.999V140.801L106.076 113.744Z" fill="#233143"/>
<path d="M3.03906 108.307V110.505L59.1548 143V140.802L3.03906 108.307Z" fill="#233143"/>
<path d="M50.6332 57.3643L10.4199 80.1944V107.151L50.6332 84.0284V57.3643Z" fill="#C6C3C1"/>
<path d="M12.7361 80.6875L11.123 81.6014V108.563L12.7361 107.635V80.6875Z" fill="#FBAD32"/>
<path opacity="0.5" d="M23.3063 88.1689L11.9277 94.7127V97.6099L25.8424 89.613L23.3063 88.1689Z" fill="white"/>
<path opacity="0.5" d="M26.8843 90.2021L11.9277 98.8023V99.6431L27.62 90.618L26.8843 90.2021Z" fill="white"/>
<path opacity="0.5" d="M11.9277 81.7119V82.667L12.764 82.1872L11.9277 81.7119Z" fill="white"/>
<path opacity="0.5" d="M11.9277 108.098L30.1973 118.599V92.0854L30.1105 92.0352L11.9277 102.486V108.098Z" fill="white"/>
<path opacity="0.5" d="M28.141 90.915L11.9277 100.237V101.891L29.585 91.7376L28.141 90.915Z" fill="white"/>
<path d="M41.8172 83.0511V82.457L27.6191 90.6185L28.1401 90.9155L41.8172 83.0511Z" fill="white"/>
<path opacity="0.8" d="M27.62 90.6182L11.9277 99.6433V100.237L28.141 90.9152L27.62 90.6182Z" fill="white"/>
<path d="M41.9607 84.623L29.5859 91.738L30.1115 92.0351L41.9607 85.2171V84.623Z" fill="white"/>
<path opacity="0.8" d="M11.9277 101.891V102.485L30.1105 92.0343L29.585 91.7373L11.9277 101.891Z" fill="white"/>
<path d="M41.8174 81.6155V80.4229L25.8418 89.6125L26.8837 90.202L41.8174 81.6155Z" fill="white"/>
<path opacity="0.8" d="M25.8424 89.6133L11.9277 97.6102V98.8029L26.8843 90.2028L25.8424 89.6133Z" fill="white"/>
<path d="M35.6212 81.0857V69.04L12.7637 82.187L23.3059 88.1687L35.6212 81.0857Z" fill="white"/>
<path opacity="0.8" d="M12.764 82.1875L11.9277 82.6673V94.713L23.3063 88.1692L12.764 82.1875Z" fill="white"/>
<path d="M99.4047 86.4453L59.1914 109.275V136.232L99.4047 113.109V86.4453Z" fill="#FBAD32"/>
<path d="M40.5936 96.7363L38.9805 97.6548V124.611L40.5936 123.684V96.7363Z" fill="#FBAD32"/>
<path d="M11.1511 81.999L9.69336 81.1719V107.767L11.1511 108.608V81.999Z" fill="#FBAD32"/>
<path d="M29.6621 92.5098V119.252L38.9797 124.612V97.8015L29.6621 92.5098Z" fill="#FBAD32"/>
<path opacity="0.5" d="M53.5799 105.446L39.9531 113.283V114.12L54.3157 105.862L53.5799 105.446Z" fill="white"/>
<path opacity="0.5" d="M54.8366 106.159L39.9531 114.714V116.368L56.2852 106.977L54.8366 106.159Z" fill="white"/>
<path opacity="0.5" d="M50.0019 103.413L39.9531 109.189V112.091L52.538 104.853L50.0019 103.413Z" fill="white"/>
<path opacity="0.5" d="M39.9531 124.091L58.2182 134.592V108.079L56.8061 107.274L39.9531 116.967V124.091Z" fill="white"/>
<path opacity="0.8" d="M54.3157 105.862L39.9531 114.12V114.714L54.8366 106.159L54.3157 105.862Z" fill="white"/>
<path opacity="0.8" d="M39.9531 116.367V116.966L56.8061 107.274L56.2852 106.977L39.9531 116.367Z" fill="white"/>
<path opacity="0.8" d="M52.538 104.853L39.9531 112.091V113.284L53.5799 105.447L52.538 104.853Z" fill="white"/>
<path opacity="0.8" d="M39.9531 97.7051V109.189L50.0019 103.413L39.9531 97.7051Z" fill="white"/>
<path d="M49.1786 103.001L48.6074 102.677V129.058L49.1786 129.387V103.001Z" fill="#888D9A"/>
<path d="M57.2344 108.165V135.108L59.1902 136.232V109.275L57.2344 108.165Z" fill="#FBAD32"/>
<path d="M59.1906 109.888L56.1289 102.677L99.4038 77.8271V87.0853L59.1906 109.888Z" fill="#BECCC6"/>
<path d="M99.4053 77.8271L53.4891 104.468L9.74805 79.687L55.5866 53L99.4053 77.8271Z" fill="white"/>
<path d="M93.9581 78.654L95.4707 77.7812L55.8241 54.8643L16.7441 77.5345L18.3618 78.4895L55.9292 56.6967L93.9581 78.654Z" fill="#7C8982"/>
<path d="M93.9569 78.6546L55.928 56.6973L23.4375 75.5427L61.4116 97.4726L93.9569 78.6546Z" fill="#A2AAA6"/>
<path d="M56.3263 100.416L61.4123 97.4729L23.4383 75.543L18.3613 78.4904L56.3263 100.416Z" fill="#8C9993"/>
<path d="M10.1502 72.499V73.189L3.03516 77.2972V76.6072L10.1502 72.499Z" fill="#243954"/>
<path d="M10.1502 78.9648V79.6594L3.03516 83.7676V83.073L10.1502 78.9648Z" fill="#243954"/>
<path d="M8.7832 71.3154L58.2866 99.419V110.4L8.7832 81.9354V71.3154Z" fill="#243954"/>
<path d="M9.69257 70.8262L8.7832 71.3151L58.2866 99.4187L59.1914 98.9297L9.69257 70.8262Z" fill="#243954"/>
<path d="M58.2871 110.4L59.1919 109.911V98.9297L58.2871 99.4186V110.4Z" fill="#243954"/>
<path d="M31.8594 102.782L37.4572 106.013V104.153L31.8594 101.005V102.782Z" fill="white"/>
<path d="M54.2155 122.761L50.8613 120.841V114.878L54.2155 116.797V122.761Z" fill="#243954"/>
<path d="M53.8908 117.104L51.1855 115.555V115.92L53.8908 117.469V117.104Z" fill="white"/>
<path d="M53.8908 117.839L51.1855 116.29V116.66L53.8908 118.209V117.839Z" fill="white"/>
<path d="M51.3223 118.25C51.3223 117.729 51.5279 117.542 51.8112 117.706C52.0945 117.871 52.3002 118.296 52.3002 118.817C52.3002 119.342 52.0945 119.534 51.8112 119.37C51.5233 119.205 51.3223 118.776 51.3223 118.25ZM51.9894 118.639C51.9894 118.268 51.9072 118.095 51.8067 118.035C51.7061 117.976 51.6284 118.058 51.6284 118.428C51.6284 118.803 51.7107 118.981 51.8067 119.041C51.9072 119.096 51.9894 119.009 51.9894 118.639ZM51.8798 120.462L52.9399 118.36L53.1913 118.506L52.1357 120.613L51.8798 120.462ZM52.7663 120.137C52.7663 119.616 52.9765 119.429 53.2552 119.594C53.5386 119.758 53.7442 120.183 53.7442 120.704C53.7442 121.23 53.5386 121.422 53.2552 121.257C52.9719 121.092 52.7663 120.663 52.7663 120.137ZM53.438 120.526C53.438 120.151 53.3558 119.982 53.2598 119.923C53.1593 119.863 53.077 119.941 53.077 120.316C53.077 120.69 53.1593 120.869 53.2598 120.928C53.3558 120.983 53.438 120.901 53.438 120.526Z" fill="white"/>
<path d="M47.2188 114.316L45.2676 113.201V109.729L47.2188 110.844V114.316Z" fill="#243954"/>
<path d="M28.0859 111.396L21.1445 107.421V95.0732L28.0859 99.0489V111.396Z" fill="#243954"/>
<path d="M27.6697 101.279L21.7383 97.8838V98.5738L27.6697 101.969V101.279Z" fill="white"/>
<path d="M27.6697 100.041L21.7383 96.6455V97.3355L27.6697 100.731V100.041Z" fill="white"/>
<path d="M8.36203 71.2881L0.662109 75.6613V86.6422L8.36203 82.2142V71.2881Z" fill="#243954"/>
<path d="M8.36203 76.1221L0.662109 80.4953V81.1487L8.36203 76.7253V76.1221Z" fill="white"/>
<path d="M8.36203 77.6035L0.662109 81.9721V82.6302L8.36203 78.2021V77.6035Z" fill="white"/>
<path d="M8.36203 79.0107L0.662109 83.3839V84.0374L8.36203 79.6094V79.0107Z" fill="white"/>
<path d="M0 86.2485L0.662605 86.6415V75.6606L0 75.2676V86.2485Z" fill="#243954"/>
<path d="M8.36253 71.2878L7.69992 70.8994L0 75.268L0.662605 75.661L8.36253 71.2878Z" fill="#243954"/>
<defs>
<clipPath id="clip0_146_630">
<rect width="24" height="24" fill="white" transform="translate(200 43)"/>
</clipPath>
</defs>
</svg>
