<svg width="447" height="169" viewBox="0 0 447 169" fill="none" xmlns="http://www.w3.org/2000/svg">
<rect x="157" width="290" height="92" rx="18" fill="#006DB7"/>
<path d="M101 122L212.5 86.026L180.5 62L101 122Z" fill="#006DB7"/>
<rect x="170.048" y="25.0476" width="41.9048" height="41.9048" rx="20.9524" fill="#FBBC05"/>
<rect x="170.048" y="25.0476" width="41.9048" height="41.9048" rx="20.9524" stroke="white" stroke-width="2.09524"/>
<path d="M201.566 41.094C201.531 40.923 201.452 40.764 201.337 40.633L197.906 36.74C197.541 36.326 196.909 36.287 196.495 36.651C196.081 37.016 196.041 37.648 196.406 38.063L196.724 38.424V41.974C196.724 43.189 197.711 44.177 198.925 44.177H199.905C199.959 44.996 199.998 45.996 199.998 47.172C199.998 48.535 199.75 51.145 199.644 52.26C199.613 52.585 199.592 52.81 199.587 52.889C199.554 53.426 199.193 53.97 198.568 53.97C198.007 53.97 197.551 53.513 197.551 52.951V52.456C197.551 50.915 196.391 49.641 194.9 49.46C194.971 48.412 195.018 47.249 195.018 46.007C195.018 41.05 194.28 37.41 194.248 37.258C194.17 36.877 193.877 36.576 193.499 36.487C193.386 36.46 190.689 35.832 187.507 35.832C184.325 35.832 181.629 36.46 181.516 36.487C181.136 36.576 180.843 36.878 180.766 37.26C180.734 37.414 179.996 41.092 179.996 46.007C179.996 50.963 180.734 54.603 180.766 54.756C180.845 55.138 181.139 55.44 181.519 55.528C181.632 55.554 184.327 56.172 187.507 56.172C190.687 56.172 193.381 55.554 193.494 55.528C193.876 55.44 194.17 55.137 194.248 54.754C194.266 54.666 194.516 53.423 194.726 51.456C195.195 51.546 195.551 51.96 195.551 52.457V52.952C195.551 54.617 196.905 55.971 198.568 55.971C200.183 55.971 201.479 54.7 201.583 53.015C201.587 52.945 201.607 52.743 201.635 52.451C201.752 51.211 201.997 48.632 201.997 47.174C201.997 43.258 201.582 41.183 201.564 41.097L201.566 41.094ZM187.51 37.829C189.579 37.829 191.464 38.124 192.407 38.301C192.537 39.084 192.749 40.537 192.886 42.405H182.134C182.272 40.545 182.483 39.087 182.613 38.301C183.556 38.124 185.439 37.829 187.51 37.829ZM187.51 54.17C185.441 54.17 183.557 53.88 182.612 53.706C182.407 52.472 182 49.577 182 46.005C182 45.455 182.01 44.921 182.027 44.405H192.994C193.011 44.92 193.021 45.455 193.021 46.005C193.021 49.542 192.613 52.462 192.407 53.706C191.463 53.88 189.582 54.17 187.511 54.17H187.51Z" fill="#243954"/>
<path d="M243.533 42.1293C243.379 41.6307 243.166 41.1844 242.896 40.7905C242.631 40.3904 242.311 40.0488 241.935 39.7656C241.566 39.4825 241.141 39.2701 240.661 39.1286C240.181 38.9808 239.658 38.907 239.092 38.907C238.076 38.907 237.171 39.1624 236.377 39.6733C235.583 40.1842 234.958 40.9351 234.503 41.9261C234.054 42.911 233.829 44.1113 233.829 45.527C233.829 46.955 234.054 48.1645 234.503 49.1555C234.952 50.1465 235.577 50.9006 236.377 51.4176C237.177 51.9285 238.107 52.1839 239.165 52.1839C240.126 52.1839 240.957 51.9993 241.658 51.63C242.366 51.2607 242.911 50.7375 243.293 50.0604C243.674 49.3771 243.865 48.5769 243.865 47.6598L244.641 47.7798H239.507V45.1023H247.18V47.3736C247.18 48.9924 246.835 50.3928 246.146 51.5746C245.456 52.7564 244.508 53.6674 243.302 54.3075C242.095 54.9415 240.71 55.2585 239.147 55.2585C237.405 55.2585 235.875 54.8677 234.558 54.0859C233.247 53.2981 232.222 52.1809 231.484 50.7344C230.751 49.2817 230.385 47.5582 230.385 45.5639C230.385 44.0374 230.6 42.674 231.031 41.4737C231.468 40.2734 232.078 39.2547 232.859 38.4176C233.641 37.5743 234.558 36.9342 235.611 36.4972C236.663 36.054 237.808 35.8324 239.045 35.8324C240.092 35.8324 241.067 35.9863 241.972 36.294C242.877 36.5956 243.68 37.0265 244.382 37.5866C245.09 38.1468 245.672 38.8116 246.127 39.581C246.583 40.3504 246.881 41.1998 247.023 42.1293H243.533ZM250.344 55V40.8182H253.585V43.1818H253.733C253.991 42.3632 254.434 41.7322 255.062 41.2891C255.696 40.8397 256.42 40.6151 257.232 40.6151C257.417 40.6151 257.623 40.6243 257.851 40.6428C258.085 40.6551 258.278 40.6766 258.432 40.7074V43.782C258.291 43.7327 258.066 43.6896 257.758 43.6527C257.457 43.6096 257.164 43.5881 256.881 43.5881C256.272 43.5881 255.724 43.7204 255.238 43.9851C254.758 44.2436 254.379 44.6037 254.102 45.0653C253.825 45.527 253.687 46.0594 253.687 46.6626V55H250.344ZM260.653 55V40.8182H263.995V55H260.653ZM262.333 38.8054C261.804 38.8054 261.348 38.63 260.967 38.2791C260.585 37.9221 260.394 37.4943 260.394 36.9957C260.394 36.491 260.585 36.0632 260.967 35.7124C261.348 35.3553 261.804 35.1768 262.333 35.1768C262.869 35.1768 263.324 35.3553 263.7 35.7124C264.081 36.0632 264.272 36.491 264.272 36.9957C264.272 37.4943 264.081 37.9221 263.7 38.2791C263.324 38.63 262.869 38.8054 262.333 38.8054ZM274.615 40.8182V43.4034H266.232V40.8182H274.615ZM268.328 55V39.4794C268.328 38.5253 268.525 37.7313 268.919 37.0973C269.319 36.4633 269.854 35.9893 270.525 35.6754C271.196 35.3615 271.941 35.2045 272.76 35.2045C273.338 35.2045 273.852 35.2507 274.301 35.343C274.751 35.4354 275.083 35.5185 275.299 35.5923L274.634 38.1776C274.492 38.1345 274.314 38.0914 274.098 38.0483C273.883 37.9991 273.643 37.9744 273.378 37.9744C272.757 37.9744 272.316 38.1252 272.058 38.4268C271.806 38.7223 271.679 39.147 271.679 39.701V55H268.328ZM282.886 55.277C281.501 55.277 280.301 54.9723 279.285 54.3629C278.269 53.7536 277.481 52.901 276.921 51.8054C276.367 50.7098 276.09 49.4295 276.09 47.9645C276.09 46.4995 276.367 45.2161 276.921 44.1143C277.481 43.0125 278.269 42.157 279.285 41.5476C280.301 40.9382 281.501 40.6335 282.886 40.6335C284.271 40.6335 285.471 40.9382 286.487 41.5476C287.502 42.157 288.287 43.0125 288.841 44.1143C289.401 45.2161 289.681 46.4995 289.681 47.9645C289.681 49.4295 289.401 50.7098 288.841 51.8054C288.287 52.901 287.502 53.7536 286.487 54.3629C285.471 54.9723 284.271 55.277 282.886 55.277ZM282.904 52.5994C283.655 52.5994 284.283 52.3932 284.788 51.9808C285.293 51.5623 285.668 51.0021 285.914 50.3004C286.167 49.5987 286.293 48.817 286.293 47.9553C286.293 47.0874 286.167 46.3026 285.914 45.6009C285.668 44.893 285.293 44.3298 284.788 43.9112C284.283 43.4927 283.655 43.2834 282.904 43.2834C282.135 43.2834 281.495 43.4927 280.984 43.9112C280.479 44.3298 280.101 44.893 279.848 45.6009C279.602 46.3026 279.479 47.0874 279.479 47.9553C279.479 48.817 279.602 49.5987 279.848 50.3004C280.101 51.0021 280.479 51.5623 280.984 51.9808C281.495 52.3932 282.135 52.5994 282.904 52.5994ZM299.115 55V36.0909H306.206C307.659 36.0909 308.877 36.3617 309.862 36.9034C310.853 37.4451 311.601 38.1899 312.106 39.1378C312.617 40.0795 312.872 41.1506 312.872 42.3509C312.872 43.5634 312.617 44.6406 312.106 45.5824C311.595 46.5241 310.841 47.2659 309.844 47.8075C308.847 48.343 307.619 48.6108 306.16 48.6108H301.46V45.7947H305.698C306.548 45.7947 307.243 45.647 307.785 45.3516C308.326 45.0561 308.727 44.6499 308.985 44.1328C309.25 43.6158 309.382 43.0218 309.382 42.3509C309.382 41.6799 309.25 41.089 308.985 40.5781C308.727 40.0672 308.323 39.6702 307.776 39.3871C307.234 39.0978 306.535 38.9531 305.68 38.9531H302.54V55H299.115ZM315.847 55V36.0909H322.938C324.391 36.0909 325.61 36.3433 326.595 36.848C327.586 37.3527 328.334 38.0606 328.838 38.9716C329.349 39.8764 329.605 40.9321 329.605 42.1385C329.605 43.3511 329.346 44.4036 328.829 45.2962C328.318 46.1825 327.564 46.8688 326.567 47.3551C325.57 47.8352 324.345 48.0753 322.892 48.0753H317.842V45.2315H322.431C323.28 45.2315 323.976 45.1146 324.517 44.8807C325.059 44.6406 325.459 44.2928 325.718 43.8374C325.982 43.3757 326.115 42.8094 326.115 42.1385C326.115 41.4676 325.982 40.8951 325.718 40.4212C325.453 39.9411 325.05 39.5779 324.508 39.3317C323.966 39.0793 323.268 38.9531 322.412 38.9531H319.273V55H315.847ZM325.616 46.4318L330.297 55H326.475L321.877 46.4318H325.616ZM336.183 36.0909V55H332.758V36.0909H336.183ZM339.892 36.0909H344.084L349.698 49.7926H349.919L355.533 36.0909H359.725V55H356.438V42.0092H356.262L351.037 54.9446H348.581L343.355 41.9815H343.179V55H339.892V36.0909ZM365.883 55H362.227L368.884 36.0909H373.113L379.779 55H376.123L371.072 39.9688H370.924L365.883 55ZM366.003 47.5859H375.975V50.3374H366.003V47.5859ZM385.132 36.0909L389.296 43.0156H389.443L393.626 36.0909H397.531L391.705 45.5455L397.624 55H393.654L389.443 48.1214H389.296L385.085 55H381.134L387.107 45.5455L381.208 36.0909H385.132Z" fill="white"/>
<g clip-path="url(#clip0_210_9644)">
<path opacity="0.1" d="M0.0859375 142.129L46.1352 168.632C46.9782 169.123 48.3629 169.129 49.2306 168.632L93.9998 142.785L46.4059 115.387L0.0859375 142.129Z" fill="#1177D3"/>
<path d="M5.53125 139.459C5.53125 140.115 5.53125 140.766 5.53125 141.422C5.53125 141.661 5.58048 141.895 5.67894 142.128C5.98663 142.852 6.47279 143.293 7.16817 143.692L8.60817 144.52C9.19279 144.858 9.82663 145.097 10.5036 145.244C12.4482 145.655 14.7743 145.508 16.4851 144.52V142.447C14.7682 143.434 12.4482 143.582 10.5036 143.171C9.82048 143.023 9.19279 142.784 8.60817 142.447L7.16817 141.618C6.49125 141.232 5.75894 140.557 5.58048 139.796C5.54971 139.686 5.5374 139.569 5.53125 139.459Z" fill="#0C51B5"/>
<path d="M5.53125 139.349C5.53125 139.386 5.53125 139.423 5.53125 139.46C5.53125 139.57 5.54971 139.687 5.57433 139.797C5.75279 140.558 6.4851 141.227 7.16202 141.619L8.60202 142.447C9.18663 142.785 9.82048 143.024 10.4974 143.171C12.442 143.582 14.762 143.435 16.4789 142.447L50.3989 122.92C50.8174 122.681 51.2174 122.386 51.5189 122C51.8082 121.619 52.0112 121.153 52.0359 120.687C52.0359 120.674 52.0359 120.662 52.0359 120.65C52.042 120.503 52.0297 120.349 51.9928 120.202C51.8143 119.441 51.082 118.773 50.4051 118.38L48.9651 117.552C48.3805 117.214 47.7466 116.975 47.0636 116.828C45.1189 116.417 42.7989 116.564 41.082 117.552L7.16817 137.079C6.74971 137.319 6.34971 137.613 6.04817 138C5.74663 138.386 5.54971 138.871 5.53125 139.349Z" fill="#1177D3"/>
<path d="M16.4922 142.447V144.52L50.4122 124.993C50.6214 124.87 50.8245 124.735 51.0214 124.582C51.5814 124.146 52.043 123.416 52.043 122.723C52.043 122.042 52.043 121.361 52.043 120.68C52.0183 121.146 51.8214 121.612 51.526 121.993C51.2245 122.379 50.8245 122.674 50.406 122.913L16.4922 142.447Z" fill="#1D3089"/>
<path d="M14.8603 110.172C14.5157 110.368 14.1465 110.509 13.7403 110.595C12.5895 110.841 11.2234 110.748 10.2203 110.172L8.78031 109.344C8.38031 109.117 7.94954 108.718 7.84493 108.27C7.82647 108.196 7.82031 108.117 7.82031 108.043C7.82031 118.472 7.82031 128.902 7.82031 139.331C7.82031 139.472 7.85108 139.614 7.90647 139.748C8.08493 140.178 8.38031 140.436 8.78031 140.669L10.2203 141.497C10.5649 141.693 10.9342 141.834 11.3403 141.92C12.4911 142.166 13.8572 142.074 14.8665 141.497V110.172H14.8603Z" fill="#D9E3FF"/>
<path d="M14.8594 110.171V141.496L17.3517 140.061V115.828L40.2071 102.674L46.2871 99.1773V123.41L48.7794 121.975C48.9025 121.901 49.0194 121.821 49.1363 121.736C49.4686 121.478 49.7394 121.048 49.7394 120.644C49.7394 110.202 49.7394 99.7601 49.7394 89.3184C49.7332 89.6006 49.6101 89.8828 49.4378 90.1098C49.2594 90.3368 49.0255 90.5085 48.7794 90.6496L14.8594 110.171Z" fill="#BDCFFF"/>
<path d="M40.207 102.675V119.908L46.287 123.411V99.1719L40.207 102.675Z" fill="#FBAD32"/>
<path d="M17.7109 120.722L20.6525 122.415C20.8679 122.538 21.2125 122.538 21.4279 122.415L23.3479 121.311L20.0186 119.396L17.7109 120.722Z" fill="#DA8500"/>
<path d="M21.4279 122.416C21.2125 122.539 20.8679 122.539 20.6525 122.416L17.7109 120.723V134.477L20.6525 136.171C20.8679 136.293 21.2125 136.293 21.4279 136.171V122.416Z" fill="#FBAD32"/>
<path d="M21.4297 122.415V136.17L23.3497 135.059V121.305L21.4297 122.415Z" fill="#E59514"/>
<path d="M23.3477 121.305V135.059L27.9692 132.403V127.071C27.9692 126.949 27.9261 126.863 27.8584 126.826C27.7846 126.783 27.6923 126.789 27.5877 126.851L23.8092 129.029V125.194V123.323L24.48 122.936L27.9753 120.924V119.096C27.9753 118.973 27.9323 118.887 27.8646 118.844C27.8584 118.838 27.8523 118.838 27.8523 118.838C27.7846 118.808 27.6923 118.814 27.5938 118.875L23.3477 121.305Z" fill="#BDCFFF"/>
<path d="M27.8411 118.833C26.7334 118.195 25.6318 117.557 24.5241 116.925L24.4995 116.913C24.4318 116.888 24.3457 116.9 24.2534 116.949L20.0195 119.385L23.3488 121.299L27.5826 118.864C27.6811 118.815 27.7734 118.802 27.8411 118.833Z" fill="#D9E3FF"/>
<path d="M27.8584 126.826C26.7507 126.188 25.6369 125.55 24.5292 124.912L24.523 124.906C24.4492 124.869 24.3569 124.875 24.2523 124.936L23.803 125.2H23.7969V129.028L27.5815 126.85C27.6861 126.789 27.7846 126.783 27.8584 126.826Z" fill="#D9E3FF"/>
<path d="M30.9883 113.065L33.9298 114.759C34.1452 114.881 34.4898 114.881 34.7052 114.759L36.6252 113.654L33.296 111.74L30.9883 113.065Z" fill="#DA8500"/>
<path d="M34.7052 114.76C34.4898 114.882 34.1452 114.882 33.9298 114.76L30.9883 113.066V126.821L33.9298 128.514C34.1452 128.637 34.4898 128.637 34.7052 128.514V114.76Z" fill="#FBAD32"/>
<path d="M34.707 114.759V128.513L36.627 127.409V113.654L34.707 114.759Z" fill="#E59514"/>
<path d="M36.625 113.654V127.409L41.2465 124.752V119.421C41.2465 119.298 41.2035 119.212 41.1358 119.176C41.0619 119.133 40.9696 119.139 40.865 119.2L37.0865 121.378V117.55V117.544V115.673L37.7573 115.286L41.2527 113.274V111.446C41.2527 111.323 41.2096 111.237 41.1419 111.194C41.1358 111.188 41.1296 111.188 41.1296 111.188C41.0619 111.157 40.9696 111.163 40.8712 111.225L36.625 113.654Z" fill="#BDCFFF"/>
<path d="M41.1184 111.183C40.0107 110.544 38.9092 109.906 37.8015 109.275L37.7769 109.262C37.7092 109.238 37.623 109.25 37.5307 109.299L33.2969 111.735L36.6261 113.649L40.86 111.213C40.9584 111.158 41.0507 111.152 41.1184 111.183Z" fill="#D9E3FF"/>
<path d="M41.1279 119.17C40.0202 118.532 38.9064 117.894 37.7987 117.255L37.7926 117.249C37.7187 117.213 37.6264 117.219 37.5218 117.28L37.0726 117.544H37.0664V121.372L40.8449 119.194C40.9618 119.139 41.0602 119.133 41.1279 119.17Z" fill="#D9E3FF"/>
<path d="M39.9453 159.27C39.9453 159.926 39.9453 160.576 39.9453 161.233C39.9453 161.472 39.9945 161.705 40.093 161.938C40.4007 162.662 40.8868 163.104 41.5822 163.503L43.0222 164.331C43.6069 164.668 44.2407 164.908 44.9176 165.055C46.8622 165.466 49.1884 165.319 50.8992 164.331V162.257C49.1822 163.245 46.8622 163.392 44.9176 162.981C44.2345 162.834 43.6069 162.595 43.0222 162.257L41.5822 161.429C40.9053 161.043 40.173 160.368 39.9945 159.607C39.9638 159.497 39.9453 159.386 39.9453 159.27Z" fill="#0C51B5"/>
<path d="M39.9453 159.166C39.9453 159.203 39.9453 159.239 39.9453 159.276C39.9453 159.387 39.9638 159.503 39.9884 159.614C40.1669 160.374 40.8992 161.043 41.5761 161.436L43.0161 162.264C43.6007 162.601 44.2345 162.841 44.9115 162.988C46.8561 163.399 49.1761 163.252 50.893 162.264L84.813 142.736C85.2315 142.497 85.6315 142.203 85.933 141.816C86.2222 141.436 86.4253 140.969 86.4499 140.503C86.4499 140.491 86.4499 140.479 86.4499 140.466C86.4561 140.319 86.4438 140.166 86.4069 140.018C86.2284 139.258 85.4961 138.589 84.8192 138.196L83.3792 137.368C82.7945 137.031 82.1607 136.791 81.4776 136.644C79.533 136.233 77.213 136.38 75.4961 137.368L41.5761 156.896C41.1576 157.135 40.7576 157.43 40.4561 157.816C40.1607 158.203 39.9638 158.687 39.9453 159.166Z" fill="#1177D3"/>
<path d="M50.8984 162.257V164.331L84.8184 144.803C85.0277 144.68 85.2307 144.545 85.4277 144.392C85.9877 143.956 86.4492 143.226 86.4492 142.533C86.4492 141.852 86.4492 141.171 86.4492 140.49C86.4246 140.956 86.2277 141.423 85.9323 141.803C85.6307 142.19 85.2307 142.484 84.8123 142.723L50.8984 162.257Z" fill="#1D3089"/>
<path d="M49.2744 129.988C48.9298 130.185 48.5605 130.326 48.1544 130.412C47.0036 130.657 45.6375 130.565 44.6344 129.988L43.1944 129.16C42.7944 128.933 42.3636 128.534 42.259 128.086C42.2405 128.013 42.2344 127.933 42.2344 127.859C42.2344 138.289 42.2344 148.718 42.2344 159.148C42.2344 159.289 42.2651 159.43 42.3205 159.565C42.499 159.994 42.7944 160.252 43.1944 160.485L44.6344 161.313C44.979 161.51 45.3482 161.651 45.7544 161.737C46.9051 161.982 48.2713 161.89 49.2805 161.313V129.988H49.2744Z" fill="#D9E3FF"/>
<path d="M49.2734 129.988V161.313L51.7657 159.877V135.644L74.6211 122.491L80.7011 118.994V143.227L83.1934 141.791C83.3165 141.718 83.4334 141.638 83.5504 141.552C83.8827 141.294 84.1534 140.865 84.1534 140.46C84.1534 130.018 84.1534 119.576 84.1534 109.135C84.1473 109.417 84.0242 109.699 83.8519 109.926C83.6734 110.153 83.4396 110.325 83.1934 110.466L49.2734 129.988Z" fill="#BDCFFF"/>
<path d="M74.6211 122.485V139.724L80.7011 143.221V118.988L74.6211 122.485Z" fill="#D9E3FF"/>
<path d="M52.125 140.532L55.0665 142.225C55.2819 142.348 55.6265 142.348 55.8419 142.225L57.7619 141.121L54.4327 139.207L52.125 140.532Z" fill="#DA8500"/>
<path d="M55.8419 142.226C55.6265 142.349 55.2819 142.349 55.0665 142.226L52.125 140.533V154.288L55.0665 155.981C55.2819 156.104 55.6265 156.104 55.8419 155.981V142.226Z" fill="#FBAD32"/>
<path d="M55.8438 142.225V155.98L57.7638 154.876V141.121L55.8438 142.225Z" fill="#E59514"/>
<path d="M57.7617 141.121V154.876L62.3833 152.219V146.888C62.3833 146.765 62.3402 146.679 62.2725 146.642C62.1986 146.6 62.1063 146.606 62.0017 146.667L58.2233 148.845V145.017V145.011V143.139L58.894 142.753L62.3894 140.741V138.912C62.3894 138.79 62.3463 138.704 62.2786 138.661C62.2725 138.655 62.2663 138.655 62.2663 138.655C62.1986 138.624 62.1063 138.63 62.0079 138.692L57.7617 141.121Z" fill="#BDCFFF"/>
<path d="M62.2551 138.649C61.1474 138.011 60.0459 137.373 58.9382 136.741L58.9136 136.729C58.8459 136.705 58.7598 136.717 58.6674 136.766L54.4336 139.201L57.7628 141.116L61.9967 138.68C62.0951 138.625 62.1874 138.619 62.2551 138.649Z" fill="white"/>
<path d="M62.2663 146.636C61.1586 145.998 60.0448 145.36 58.9371 144.722L58.9309 144.716C58.8571 144.679 58.7648 144.685 58.6602 144.747L58.2109 145.011H58.2171V148.839L61.9956 146.661C62.1002 146.606 62.1986 146.6 62.2663 146.636Z" fill="white"/>
<path d="M65.4023 132.882L68.3439 134.575C68.5593 134.698 68.9039 134.698 69.1193 134.575L71.0393 133.471L67.71 131.557L65.4023 132.882Z" fill="#DA8500"/>
<path d="M69.1193 134.576C68.9039 134.699 68.5593 134.699 68.3439 134.576L65.4023 132.883V146.637L68.3439 148.331C68.5593 148.453 68.9039 148.453 69.1193 148.331V134.576Z" fill="#FBAD32"/>
<path d="M69.1211 134.575V148.33L71.0411 147.219V133.465L69.1211 134.575Z" fill="#E59514"/>
<path d="M71.0391 133.465V147.219L75.6606 144.563V139.232C75.6606 139.109 75.6175 139.023 75.5498 138.986C75.476 138.943 75.3837 138.949 75.2791 139.011L71.5006 141.189V137.36V137.354V135.483L72.1714 135.097L75.6668 133.084V131.256C75.6668 131.133 75.6237 131.048 75.556 131.005C75.5498 130.998 75.5437 130.998 75.5437 130.998C75.476 130.968 75.3837 130.974 75.2852 131.035L71.0391 133.465Z" fill="#BDCFFF"/>
<path d="M75.5325 130.999C74.4248 130.361 73.3232 129.723 72.2156 129.091L72.1909 129.079C72.1232 129.054 72.0371 129.066 71.9448 129.115L67.7109 131.551L71.0402 133.465L75.274 131.03C75.3725 130.974 75.4648 130.962 75.5325 130.999Z" fill="white"/>
<path d="M75.542 138.986C74.4343 138.348 73.3205 137.71 72.2128 137.072L72.2066 137.066C72.1328 137.029 72.0405 137.035 71.9359 137.096L71.4866 137.36H71.4805V141.188L75.2589 139.011C75.3759 138.949 75.4682 138.943 75.542 138.986Z" fill="white"/>
<path d="M0 103.846V107.649L46.0492 134.152C46.9108 134.649 48.2892 134.643 49.1446 134.152V130.349C48.2769 130.846 46.8985 130.84 46.0492 130.349L0 103.846Z" fill="#0C51B5"/>
<path d="M49.1445 130.349V134.153L91.9507 109.515V107.49C91.9507 107.3 91.9322 107.11 91.8584 106.932C91.7845 106.754 91.6615 106.594 91.5015 106.49C91.4522 106.459 91.3968 106.435 91.3414 106.417C91.0461 106.325 90.6768 106.447 90.4061 106.594L49.1445 130.349Z" fill="#1D3089"/>
<path d="M91.4954 106.49C75.6308 97.3613 59.7661 88.2263 43.9015 79.0975C43.8215 79.0484 43.7292 79.0177 43.6308 79.0116C43.3846 78.9809 43.1385 79.0177 42.8061 79.2079L0 103.846L46.0492 130.349C46.8923 130.84 48.2769 130.846 49.1446 130.349L90.4062 106.601C90.6708 106.447 91.0461 106.331 91.3415 106.423C91.3908 106.435 91.4461 106.459 91.4954 106.49Z" fill="#1177D3"/>
<path d="M51.4965 122.569L51.0657 123.268C50.7827 123.207 50.5427 123.238 50.1796 123.44C49.5827 123.784 49.0719 124.526 49.0719 125.655C49.0719 126.802 49.4103 127.035 50.0688 126.661C50.3088 126.526 50.5365 126.342 50.7396 126.109V125.017L50.1057 125.379L50.0196 124.833L51.5334 123.962V126.017C51.115 126.514 50.6103 126.962 50.0811 127.262C48.8811 127.955 48.2227 127.581 48.2227 126.139C48.2227 124.716 49.1027 123.446 50.155 122.845C50.7396 122.508 51.1396 122.471 51.4965 122.569Z" fill="white"/>
<path d="M54.3087 123.771L52.9118 124.575L52.6472 125.697L51.8164 126.176L53.1272 121.225L54.1179 120.654L55.4226 124.102L54.5672 124.593L54.3087 123.771ZM54.1487 123.256L53.6133 121.562L53.0779 123.875L54.1487 123.256Z" fill="white"/>
<path d="M58.498 118.557L58.1041 119.238C57.8026 119.165 57.5072 119.226 57.1626 119.422C56.7872 119.637 56.5103 119.968 56.5103 120.294C56.5103 120.594 56.6765 120.637 57.378 120.453C58.1165 120.257 58.6272 120.269 58.6272 121.06C58.6272 121.815 58.0365 122.686 57.0334 123.269C56.3626 123.656 55.8641 123.705 55.5195 123.564L55.9318 122.864C56.2395 122.944 56.578 122.913 57.0149 122.662C57.4641 122.404 57.7903 121.999 57.7903 121.588C57.7903 121.238 57.6118 121.177 56.9534 121.355C56.0672 121.588 55.6857 121.459 55.6857 120.821C55.6857 120.122 56.2888 119.312 57.1195 118.84C57.7226 118.49 58.1288 118.435 58.498 118.557Z" fill="white"/>
<path d="M63.4355 115.716L63.0416 116.397C62.7401 116.323 62.4447 116.384 62.1001 116.581C61.7247 116.795 61.4478 117.127 61.4478 117.452C61.4478 117.752 61.614 117.795 62.3155 117.611C63.054 117.415 63.5647 117.427 63.5647 118.219C63.5647 118.973 62.974 119.844 61.9709 120.427C61.3001 120.814 60.8016 120.863 60.457 120.722L60.8693 120.022C61.177 120.102 61.5155 120.071 61.9524 119.82C62.4016 119.562 62.7278 119.157 62.7278 118.746C62.7278 118.397 62.5493 118.335 61.8909 118.513C61.0047 118.746 60.6232 118.617 60.6232 117.979C60.6232 117.28 61.2263 116.47 62.057 115.998C62.6601 115.648 63.0663 115.593 63.4355 115.716Z" fill="white"/>
<path d="M66.7392 114.029L65.6438 114.661V118.219L64.8315 118.685V115.127L63.6992 115.777V115.139L66.8254 113.342L66.7392 114.029Z" fill="white"/>
<path d="M69.0102 115.306L67.6133 116.11L67.3486 117.232L66.5117 117.711L67.8225 112.76L68.8133 112.189L70.1179 115.637L69.2625 116.128L69.0102 115.306ZM68.844 114.797L68.3086 113.097L67.7733 115.41L68.844 114.797Z" fill="white"/>
<path d="M72.9111 110.476L71.8157 111.108V114.666L71.0034 115.133V111.574L69.8711 112.225V111.587L72.9972 109.789L72.9111 110.476Z" fill="white"/>
<path d="M74.3257 113.22L73.5195 113.68V109.484L74.3257 109.023V113.22Z" fill="white"/>
<path d="M78.7721 108.563C78.7721 109.95 78.0582 111.164 76.9321 111.815C75.8059 112.465 75.0859 112.091 75.0859 110.692C75.0859 109.312 75.8059 108.085 76.9321 107.434C78.0582 106.784 78.7721 107.158 78.7721 108.563ZM75.929 110.201C75.929 111.33 76.3106 111.551 76.9259 111.201C77.5536 110.839 77.9167 110.189 77.9167 109.048C77.9167 107.925 77.5598 107.68 76.9259 108.048C76.3044 108.41 75.929 109.072 75.929 110.201Z" fill="white"/>
<path d="M82.635 108.44L81.595 109.041L80.1489 106.477C80.192 106.821 80.2597 107.317 80.2597 108.097V109.808L79.5273 110.232V106.035L80.5427 105.452L82.0135 108.011C81.9766 107.802 81.9027 107.238 81.9027 106.643V104.673L82.635 104.25V108.44Z" fill="white"/>
</g>
<defs>
<clipPath id="clip0_210_9644">
<rect width="94" height="90" fill="white" transform="translate(0 79)"/>
</clipPath>
</defs>
</svg>
