<svg width="489" height="159" viewBox="0 0 489 159" fill="none" xmlns="http://www.w3.org/2000/svg">
<path d="M3.03906 124.306L50.0886 97.8389L106.076 129.744L59.1548 156.802L3.03906 124.306Z" fill="#3B495C"/>
<path d="M106.076 129.744V131.942L59.1543 158.999V156.801L106.076 129.744Z" fill="#233143"/>
<path d="M3.03906 124.307V126.505L59.1548 159V156.802L3.03906 124.307Z" fill="#233143"/>
<path d="M50.6332 73.3643L10.4199 96.1944V123.151L50.6332 100.028V73.3643Z" fill="#C6C3C1"/>
<path d="M12.7361 96.6875L11.123 97.6014V124.563L12.7361 123.635V96.6875Z" fill="#FBAD32"/>
<path opacity="0.5" d="M23.3063 104.169L11.9277 110.713V113.61L25.8424 105.613L23.3063 104.169Z" fill="white"/>
<path opacity="0.5" d="M26.8843 106.202L11.9277 114.802V115.643L27.62 106.618L26.8843 106.202Z" fill="white"/>
<path opacity="0.5" d="M11.9277 97.7119V98.667L12.764 98.1872L11.9277 97.7119Z" fill="white"/>
<path opacity="0.5" d="M11.9277 124.098L30.1973 134.599V108.085L30.1105 108.035L11.9277 118.486V124.098Z" fill="white"/>
<path opacity="0.5" d="M28.141 106.915L11.9277 116.237V117.891L29.585 107.738L28.141 106.915Z" fill="white"/>
<path d="M41.8172 99.0511V98.457L27.6191 106.618L28.1401 106.916L41.8172 99.0511Z" fill="white"/>
<path opacity="0.8" d="M27.62 106.618L11.9277 115.643V116.237L28.141 106.915L27.62 106.618Z" fill="white"/>
<path d="M41.9607 100.623L29.5859 107.738L30.1115 108.035L41.9607 101.217V100.623Z" fill="white"/>
<path opacity="0.8" d="M11.9277 117.891V118.485L30.1105 108.034L29.585 107.737L11.9277 117.891Z" fill="white"/>
<path d="M41.8174 97.6155V96.4229L25.8418 105.612L26.8837 106.202L41.8174 97.6155Z" fill="white"/>
<path opacity="0.8" d="M25.8424 105.613L11.9277 113.61V114.803L26.8843 106.203L25.8424 105.613Z" fill="white"/>
<path d="M35.6212 97.0857V85.04L12.7637 98.187L23.3059 104.169L35.6212 97.0857Z" fill="white"/>
<path opacity="0.8" d="M12.764 98.1875L11.9277 98.6673V110.713L23.3063 104.169L12.764 98.1875Z" fill="white"/>
<path d="M99.4047 102.445L59.1914 125.275V152.232L99.4047 129.109V102.445Z" fill="#FBAD32"/>
<path d="M40.5936 112.736L38.9805 113.655V140.611L40.5936 139.684V112.736Z" fill="#FBAD32"/>
<path d="M11.1511 97.999L9.69336 97.1719V123.767L11.1511 124.608V97.999Z" fill="#FBAD32"/>
<path d="M29.6621 108.51V135.252L38.9797 140.612V113.801L29.6621 108.51Z" fill="#FBAD32"/>
<path opacity="0.5" d="M53.5799 121.446L39.9531 129.283V130.12L54.3157 121.862L53.5799 121.446Z" fill="white"/>
<path opacity="0.5" d="M54.8366 122.159L39.9531 130.714V132.368L56.2852 122.977L54.8366 122.159Z" fill="white"/>
<path opacity="0.5" d="M50.0019 119.412L39.9531 125.188V128.09L52.538 120.852L50.0019 119.412Z" fill="white"/>
<path opacity="0.5" d="M39.9531 140.09L58.2182 150.591V124.078L56.8061 123.273L39.9531 132.966V140.09Z" fill="white"/>
<path opacity="0.8" d="M54.3157 121.862L39.9531 130.12V130.714L54.8366 122.159L54.3157 121.862Z" fill="white"/>
<path opacity="0.8" d="M39.9531 132.367V132.966L56.8061 123.274L56.2852 122.977L39.9531 132.367Z" fill="white"/>
<path opacity="0.8" d="M52.538 120.852L39.9531 128.09V129.283L53.5799 121.446L52.538 120.852Z" fill="white"/>
<path opacity="0.8" d="M39.9531 113.705V125.189L50.0019 119.413L39.9531 113.705Z" fill="white"/>
<path d="M49.1786 119.001L48.6074 118.677V145.058L49.1786 145.387V119.001Z" fill="#888D9A"/>
<path d="M57.2344 124.165V151.108L59.1902 152.232V125.275L57.2344 124.165Z" fill="#FBAD32"/>
<path d="M59.1906 125.888L56.1289 118.677L99.4038 93.8271V103.085L59.1906 125.888Z" fill="#BECCC6"/>
<path d="M99.4053 93.8271L53.4891 120.468L9.74805 95.687L55.5866 69L99.4053 93.8271Z" fill="white"/>
<path d="M93.9581 94.654L95.4707 93.7812L55.8241 70.8643L16.7441 93.5345L18.3618 94.4895L55.9292 72.6967L93.9581 94.654Z" fill="#7C8982"/>
<path d="M93.9569 94.6546L55.928 72.6973L23.4375 91.5427L61.4116 113.473L93.9569 94.6546Z" fill="#A2AAA6"/>
<path d="M56.3263 116.416L61.4123 113.473L23.4383 91.543L18.3613 94.4904L56.3263 116.416Z" fill="#8C9993"/>
<path d="M10.1502 88.499V89.189L3.03516 93.2972V92.6072L10.1502 88.499Z" fill="#243954"/>
<path d="M10.1502 94.9648V95.6594L3.03516 99.7676V99.073L10.1502 94.9648Z" fill="#243954"/>
<path d="M8.7832 87.3154L58.2866 115.419V126.4L8.7832 97.9354V87.3154Z" fill="#243954"/>
<path d="M9.69257 86.8262L8.7832 87.3151L58.2866 115.419L59.1914 114.93L9.69257 86.8262Z" fill="#243954"/>
<path d="M58.2871 126.4L59.1919 125.911V114.93L58.2871 115.419V126.4Z" fill="#243954"/>
<path d="M31.8594 118.782L37.4572 122.013V120.153L31.8594 117.005V118.782Z" fill="white"/>
<path d="M54.2155 138.761L50.8613 136.841V130.878L54.2155 132.797V138.761Z" fill="#243954"/>
<path d="M53.8908 133.104L51.1855 131.555V131.92L53.8908 133.469V133.104Z" fill="white"/>
<path d="M53.8908 133.839L51.1855 132.29V132.66L53.8908 134.209V133.839Z" fill="white"/>
<path d="M51.3223 134.25C51.3223 133.729 51.5279 133.542 51.8112 133.706C52.0945 133.871 52.3002 134.296 52.3002 134.817C52.3002 135.342 52.0945 135.534 51.8112 135.37C51.5233 135.205 51.3223 134.776 51.3223 134.25ZM51.9894 134.639C51.9894 134.268 51.9072 134.095 51.8067 134.035C51.7061 133.976 51.6284 134.058 51.6284 134.428C51.6284 134.803 51.7107 134.981 51.8067 135.041C51.9072 135.096 51.9894 135.009 51.9894 134.639ZM51.8798 136.462L52.9399 134.36L53.1913 134.506L52.1357 136.613L51.8798 136.462ZM52.7663 136.137C52.7663 135.616 52.9765 135.429 53.2552 135.594C53.5386 135.758 53.7442 136.183 53.7442 136.704C53.7442 137.23 53.5386 137.422 53.2552 137.257C52.9719 137.092 52.7663 136.663 52.7663 136.137ZM53.438 136.526C53.438 136.151 53.3558 135.982 53.2598 135.923C53.1593 135.863 53.077 135.941 53.077 136.316C53.077 136.69 53.1593 136.869 53.2598 136.928C53.3558 136.983 53.438 136.901 53.438 136.526Z" fill="white"/>
<path d="M47.2188 130.316L45.2676 129.201V125.729L47.2188 126.844V130.316Z" fill="#243954"/>
<path d="M28.0859 127.396L21.1445 123.421V111.073L28.0859 115.049V127.396Z" fill="#243954"/>
<path d="M27.6697 117.279L21.7383 113.884V114.574L27.6697 117.969V117.279Z" fill="white"/>
<path d="M27.6697 116.041L21.7383 112.646V113.336L27.6697 116.731V116.041Z" fill="white"/>
<path d="M8.36203 87.2881L0.662109 91.6613V102.642L8.36203 98.2142V87.2881Z" fill="#243954"/>
<path d="M8.36203 92.1221L0.662109 96.4953V97.1487L8.36203 92.7253V92.1221Z" fill="white"/>
<path d="M8.36203 93.6035L0.662109 97.9721V98.6302L8.36203 94.2021V93.6035Z" fill="white"/>
<path d="M8.36203 95.0107L0.662109 99.3839V100.037L8.36203 95.6094V95.0107Z" fill="white"/>
<path d="M0 102.249L0.662605 102.642V91.6606L0 91.2676V102.249Z" fill="#243954"/>
<path d="M8.36253 87.2878L7.69992 86.8994L0 91.268L0.662605 91.661L8.36253 87.2878Z" fill="#243954"/>
<rect x="166" width="323" height="141" rx="18" fill="#006DB7"/>
<path d="M110 102L221.5 66.026L189.5 42L110 102Z" fill="#006DB7"/>
<rect x="191.048" y="49.5476" width="41.9048" height="41.9048" rx="20.9524" fill="#FFB600"/>
<rect x="191.048" y="49.5476" width="41.9048" height="41.9048" rx="20.9524" stroke="white" stroke-width="2.09524"/>
<path d="M200.375 78.8886C200.375 78.9261 200.379 78.9599 200.39 78.9936C200.39 79.0049 200.398 79.0161 200.401 79.0274C200.413 79.0574 200.431 79.0874 200.454 79.1136C200.458 79.1211 200.461 79.1249 200.465 79.1324C200.465 79.1324 200.469 79.1324 200.472 79.1361C200.499 79.1661 200.529 79.1924 200.566 79.2111C202.205 80.0699 206.255 81.5661 206.424 81.6261C206.439 81.6299 206.45 81.6299 206.465 81.6336C206.472 81.6336 206.48 81.6411 206.491 81.6449C206.589 81.6599 206.713 81.6674 206.855 81.6674C209.938 81.6674 222.789 78.0411 223.359 77.8799C223.531 77.8311 223.644 77.6624 223.621 77.4824C223.014 72.7236 221.375 64.9574 221.36 64.8786C221.36 64.8749 221.356 64.8711 221.356 64.8674C221.345 64.8299 221.33 64.7961 221.311 64.7624C221.308 64.7549 221.304 64.7474 221.3 64.7436C221.278 64.7099 221.244 64.6799 221.21 64.6574C221.195 64.6461 221.176 64.6386 221.157 64.6311C221.142 64.6236 221.128 64.6124 221.109 64.6086L217.625 63.5849C216.267 60.5474 214.318 59.0849 211.989 59.3586C211.501 59.4149 211.051 59.5499 210.642 59.7561C210.436 59.7186 210.222 59.6961 210.001 59.6924C208.899 59.6811 207.961 60.1161 207.226 60.9824C206.341 62.0136 205.786 63.6674 205.561 65.8911C203.615 66.2361 202.186 66.4799 202.164 66.4836C202.149 66.4836 202.141 66.4949 202.126 66.4986C202.119 66.4986 202.107 66.4986 202.1 66.4986C202.089 66.4986 202.081 66.5099 202.074 66.5174C202.044 66.5324 202.018 66.5474 201.995 66.5661C201.98 66.5774 201.969 66.5886 201.957 66.6036C201.935 66.6261 201.92 66.6524 201.905 66.6824C201.901 66.6936 201.89 66.7011 201.886 66.7124C201.159 68.6249 200.409 78.4461 200.379 78.8624V78.8661V78.8849L200.375 78.8886ZM206.533 66.4574C206.574 66.4499 206.615 66.4424 206.66 66.4349C207.151 66.3449 207.661 66.2549 208.182 66.1574C208.197 66.5436 208.227 66.9411 208.273 67.3536C206.499 67.6986 205.344 67.8899 204.837 67.9199L203.281 67.0274C204.054 66.8924 205.213 66.6936 206.536 66.4536L206.533 66.4574ZM208.16 65.4224C207.995 65.4524 207.83 65.4824 207.665 65.5124C207.823 64.3986 208.081 63.5099 208.422 62.8911C208.246 63.6261 208.156 64.4736 208.156 65.4224H208.16ZM203.416 76.9686L205.674 80.5724C204.504 80.1261 202.584 79.3761 201.38 78.8061L203.42 76.9724L203.416 76.9686ZM203.859 76.3049V68.2011L204.406 68.5161C204.552 69.9261 205.201 75.9861 205.749 79.3236L203.859 76.3086V76.3049ZM202.438 67.3874L203.131 67.7849V76.2486L201.17 78.0149C201.361 75.6749 201.905 69.4724 202.434 67.3874H202.438ZM206.806 80.9511C206.405 79.6761 205.606 73.0086 205.145 68.6286C205.76 68.5611 206.803 68.3849 208.351 68.0811C208.475 68.9549 208.621 69.6336 208.707 70.0049C208.831 70.4849 209.262 70.8224 209.757 70.8224C209.847 70.8224 209.938 70.8111 210.024 70.7886C210.597 70.6424 210.954 70.0574 210.811 69.4761C210.688 68.9774 210.568 68.3174 210.477 67.6499C212.142 67.3049 214.108 66.8849 216.331 66.3899C216.519 67.0536 216.68 67.7474 216.796 68.4111C216.796 68.4261 216.8 68.4374 216.804 68.4486C216.845 68.7336 216.995 68.9849 217.227 69.1574C217.46 69.3299 217.741 69.4049 218.03 69.3599C218.319 69.3186 218.57 69.1649 218.743 68.9324C218.915 68.6999 218.986 68.4149 218.945 68.1299C218.93 68.0211 218.791 67.1099 218.454 65.9099C219.481 65.6774 220.287 65.4936 220.722 65.3924C221.045 66.9449 222.305 73.1174 222.856 77.2649C218.761 78.4161 208.955 81.0261 206.802 80.9399L206.806 80.9511ZM211.805 61.6161C211.839 61.6049 211.869 61.5899 211.903 61.5824C212.007 61.5524 212.12 61.5261 212.236 61.5111C212.263 61.5111 212.292 61.5111 212.319 61.5074C212.911 62.1636 213.395 63.1049 213.755 64.3161C213.736 64.3199 213.714 64.3236 213.695 64.3311C213.523 64.3686 213.342 64.4061 213.159 64.4474C212.773 63.1799 212.236 62.2724 211.565 61.7286C211.58 61.7211 211.591 61.7136 211.602 61.7061C211.666 61.6724 211.734 61.6461 211.805 61.6199V61.6161ZM210.403 66.9261C210.365 66.5286 210.339 66.1349 210.331 65.7524C211.318 65.5611 212.199 65.3849 212.971 65.2236H212.979C213.069 65.2049 213.155 65.1861 213.245 65.1674C213.372 65.1411 213.492 65.1149 213.612 65.0886C213.627 65.0886 213.642 65.0811 213.657 65.0774C213.815 65.0436 213.969 65.0099 214.115 64.9761C214.171 64.9649 214.231 64.9499 214.287 64.9386C214.842 64.8149 215.319 64.7024 215.709 64.6011C215.851 64.9349 215.99 65.2986 216.118 65.6886C213.95 66.1724 212.03 66.5849 210.399 66.9224L210.403 66.9261ZM214.464 64.1586C214.171 63.1649 213.8 62.3286 213.35 61.6574C214.111 61.9724 214.801 62.7374 215.401 63.9336C215.127 64.0011 214.813 64.0761 214.46 64.1586H214.464ZM211.003 62.2424C211.003 62.2424 211.014 62.2311 211.017 62.2236C211.599 62.6474 212.086 63.4574 212.443 64.5936C211.805 64.7249 211.1 64.8636 210.328 65.0136C210.369 63.7799 210.597 62.8236 211.003 62.2424ZM218.24 65.2236C218.154 64.9611 218.068 64.7024 217.974 64.4511L219.575 64.9236C219.193 65.0099 218.743 65.1149 218.244 65.2274L218.24 65.2236ZM212.071 60.0861C212.229 60.0674 212.382 60.0599 212.536 60.0599C214.378 60.0599 215.885 61.3949 217.029 64.0386C217.257 64.5786 217.468 65.1599 217.651 65.7599C218.052 67.0874 218.21 68.1299 218.225 68.2461C218.24 68.3399 218.214 68.4336 218.157 68.5124C218.101 68.5874 218.019 68.6399 217.921 68.6511C217.827 68.6661 217.737 68.6399 217.659 68.5836C217.584 68.5274 217.535 68.4449 217.52 68.3474C217.52 68.3361 217.513 68.3061 217.513 68.2949C217.374 67.4886 217.175 66.6486 216.935 65.8574C216.721 65.1674 216.5 64.5711 216.249 64.0274C215.266 61.8674 214.01 60.7724 212.517 60.7724C212.499 60.7724 212.484 60.7724 212.465 60.7724C212.364 60.7649 212.255 60.7799 212.15 60.7911C211.554 60.8624 211.055 61.0986 210.68 61.4924C210.68 61.4924 210.68 61.4924 210.676 61.4961C210.579 61.5936 210.489 61.7061 210.403 61.8261C209.859 62.6099 209.585 63.8324 209.589 65.4561C209.589 66.0824 209.634 66.7386 209.712 67.4061C209.806 68.2049 209.953 69.0449 210.106 69.6486C210.151 69.8399 210.035 70.0311 209.847 70.0799C209.671 70.1249 209.461 70.0086 209.413 69.8099C209.341 69.4986 209.158 68.6624 209.023 67.6011C208.94 66.9374 208.895 66.3036 208.884 65.7149C208.85 64.0386 209.094 62.7111 209.604 61.7699C209.682 61.6236 209.746 61.5186 209.818 61.4174C209.889 61.3124 209.968 61.2149 210.046 61.1211C210.286 60.8436 210.564 60.6186 210.868 60.4499C211.227 60.2549 211.629 60.1274 212.071 60.0786V60.0861ZM207.774 61.4586C208.299 60.8399 208.944 60.4986 209.698 60.4349C209.653 60.4799 209.611 60.5286 209.566 60.5774C209.536 60.6111 209.506 60.6411 209.476 60.6749C209.386 60.7799 209.3 60.8924 209.217 61.0086C209.18 61.0611 209.142 61.1211 209.105 61.1811C209.094 61.1999 209.083 61.2186 209.071 61.2374C209.056 61.2636 209.041 61.2861 209.026 61.3124C208.715 61.4474 208.434 61.6611 208.182 61.9499C207.549 62.6924 207.121 63.9374 206.908 65.6549C206.758 65.6811 206.611 65.7074 206.461 65.7374C206.405 65.7486 206.349 65.7561 206.293 65.7674C206.51 63.8211 207.016 62.3399 207.77 61.4624L207.774 61.4586Z" fill="white"/>
<path d="M216.514 72.8254C216.158 72.5217 215.64 72.3567 214.984 72.3267L213.975 72.2854C213.645 72.2704 213.552 72.2104 213.54 72.2029C213.529 72.1954 213.507 72.1804 213.507 72.0979C213.507 72.0154 213.518 71.8879 213.668 71.7417C213.799 71.6142 214.005 71.5204 214.275 71.4717C214.515 71.4267 214.714 71.4117 214.868 71.4304C215.033 71.4492 215.19 71.4792 215.322 71.5204C215.558 71.5954 215.775 71.5992 215.967 71.5279C216.15 71.4604 216.297 71.3442 216.402 71.1867C216.499 71.0442 216.555 70.8867 216.574 70.7142C216.593 70.5304 216.559 70.3579 216.473 70.1967C216.383 70.0242 216.24 69.8967 216.072 69.8254C215.82 69.6979 215.532 69.6154 215.213 69.5817C215.13 69.5742 215.052 69.5667 214.969 69.5629L214.958 69.3904C214.943 69.1467 214.842 68.9404 214.658 68.7942C214.474 68.6479 214.249 68.5954 214.009 68.6367C213.777 68.6779 213.578 68.7942 213.432 68.9779C213.285 69.1617 213.21 69.3754 213.222 69.6042L213.233 69.8854C212.978 69.9904 212.745 70.1217 212.543 70.2754C212.198 70.5342 211.924 70.8454 211.729 71.2054C211.527 71.5804 211.425 71.9892 211.425 72.4204C211.425 73.0129 211.605 73.4854 211.954 73.8192C212.299 74.1492 212.809 74.3292 213.469 74.3592L214.5 74.4042C214.718 74.4117 214.838 74.4379 214.902 74.4642C214.984 74.4942 215.003 74.5204 215.007 74.5242C215.025 74.5542 215.04 74.5954 215.044 74.6517C215.052 74.7342 215.033 74.8092 214.995 74.8842C214.954 74.9592 214.875 75.0379 214.759 75.1092C214.624 75.1954 214.433 75.2629 214.185 75.3117C213.837 75.3829 213.54 75.3979 213.304 75.3642C213.057 75.3267 212.865 75.2817 212.734 75.2292C212.415 75.1092 212.172 75.1692 212.022 75.2404C211.834 75.3304 211.68 75.4692 211.568 75.6567C211.463 75.8329 211.399 76.0242 211.38 76.2267C211.362 76.4367 211.392 76.6354 211.47 76.8229C211.564 77.0442 211.74 77.2054 211.969 77.2879C212.22 77.3892 212.524 77.4604 212.892 77.5092C213.079 77.5354 213.282 77.5392 213.503 77.5317L213.514 77.8242C213.525 78.1092 213.627 78.3529 213.814 78.5292C213.972 78.6792 214.17 78.7579 214.384 78.7579C214.448 78.7579 214.512 78.7504 214.575 78.7392C214.842 78.6829 215.063 78.5292 215.217 78.2892C215.359 78.0679 215.427 77.8204 215.408 77.5542L215.382 77.0967C215.674 76.9579 215.937 76.7854 216.162 76.5904C216.51 76.2904 216.777 75.9304 216.953 75.5217C217.129 75.1167 217.197 74.6742 217.155 74.2129C217.103 73.6167 216.885 73.1554 216.51 72.8367L216.514 72.8254ZM216.289 75.2179C216.154 75.5254 215.955 75.7954 215.689 76.0242C215.464 76.2192 215.187 76.3842 214.872 76.5117C214.725 76.5717 214.635 76.7142 214.647 76.8679L214.688 77.5767C214.695 77.6892 214.669 77.7867 214.609 77.8767C214.545 77.9742 214.478 77.9967 214.429 78.0079C214.358 78.0229 214.335 78.0042 214.317 77.9854C214.287 77.9592 214.249 77.9067 214.242 77.7829L214.219 77.1117C214.219 77.0104 214.17 76.9129 214.092 76.8492C214.024 76.7929 213.942 76.7629 213.855 76.7629C213.84 76.7629 213.825 76.7629 213.81 76.7629C213.495 76.8004 213.222 76.8042 212.989 76.7742C212.685 76.7329 212.434 76.6729 212.228 76.5942C212.164 76.5717 212.149 76.5454 212.138 76.5192C212.108 76.4479 212.097 76.3654 212.104 76.2754C212.112 76.1817 212.138 76.0992 212.187 76.0204C212.228 75.9529 212.273 75.9117 212.333 75.8817C212.363 75.8667 212.412 75.8704 212.464 75.8929C212.644 75.9642 212.884 76.0242 213.192 76.0692C213.51 76.1179 213.889 76.0992 214.32 76.0129C214.658 75.9454 214.928 75.8479 215.138 75.7129C215.363 75.5704 215.528 75.4017 215.629 75.2142C215.73 75.0192 215.775 74.8129 215.76 74.5954C215.749 74.4079 215.693 74.2392 215.595 74.1004C215.494 73.9504 215.337 73.8417 215.134 73.7704C214.969 73.7104 214.763 73.6804 214.515 73.6729L213.488 73.6279C213.012 73.6092 212.659 73.4929 212.445 73.2904C212.243 73.0954 212.142 72.8104 212.142 72.4167C212.142 72.1017 212.213 71.8167 212.359 71.5467C212.505 71.2767 212.708 71.0479 212.97 70.8492C213.18 70.6917 213.428 70.5642 213.713 70.4704C213.867 70.4179 213.968 70.2754 213.96 70.1142L213.942 69.5704C213.942 69.5179 213.957 69.4729 213.994 69.4279C214.032 69.3829 214.073 69.3567 214.129 69.3492C214.178 69.3417 214.189 69.3492 214.2 69.3567C214.212 69.3679 214.227 69.3754 214.227 69.4242L214.257 69.9454C214.268 70.1442 214.44 70.2979 214.639 70.2867C214.819 70.2754 214.973 70.2792 215.13 70.2979C215.359 70.3204 215.562 70.3804 215.753 70.4742C215.809 70.4967 215.82 70.5229 215.828 70.5342C215.847 70.5679 215.854 70.6017 215.847 70.6392C215.843 70.6917 215.824 70.7367 215.794 70.7817C215.779 70.8042 215.757 70.8267 215.708 70.8492C215.697 70.8529 215.652 70.8642 215.539 70.8304C215.355 70.7742 215.157 70.7367 214.943 70.7142C214.718 70.6917 214.455 70.7067 214.144 70.7629C213.728 70.8379 213.398 70.9954 213.162 71.2242C212.903 71.4754 212.772 71.7867 212.779 72.1204C212.79 72.4879 212.97 72.6942 213.117 72.7992C213.3 72.9304 213.559 72.9979 213.942 73.0167L214.95 73.0579C215.445 73.0804 215.813 73.1929 216.045 73.3879C216.27 73.5792 216.402 73.8679 216.435 74.2729C216.465 74.6179 216.417 74.9292 216.289 75.2254V75.2179Z" fill="white"/>
<path d="M262.141 35.2891C262.055 34.4827 261.692 33.8549 261.052 33.4055C260.418 32.9562 259.593 32.7315 258.577 32.7315C257.863 32.7315 257.251 32.8393 256.74 33.0547C256.229 33.2701 255.838 33.5625 255.567 33.9318C255.297 34.3011 255.158 34.7228 255.152 35.1967C255.152 35.5907 255.241 35.9323 255.42 36.2216C255.604 36.5109 255.854 36.7571 256.168 36.9602C256.482 37.1572 256.829 37.3234 257.211 37.4588C257.593 37.5942 257.977 37.7081 258.365 37.8004L260.138 38.2436C260.852 38.4098 261.538 38.6345 262.197 38.9176C262.862 39.2008 263.455 39.5578 263.979 39.9886C264.508 40.4195 264.927 40.9396 265.234 41.549C265.542 42.1584 265.696 42.8724 265.696 43.6911C265.696 44.799 265.413 45.7746 264.847 46.6179C264.28 47.455 263.462 48.1106 262.391 48.5845C261.326 49.0523 260.036 49.2862 258.522 49.2862C257.051 49.2862 255.774 49.0585 254.69 48.603C253.613 48.1475 252.77 47.4827 252.161 46.6087C251.557 45.7346 251.231 44.6697 251.182 43.4141H254.552C254.601 44.0727 254.804 44.6205 255.161 45.0575C255.518 45.4946 255.983 45.8208 256.555 46.0362C257.134 46.2517 257.78 46.3594 258.494 46.3594C259.239 46.3594 259.892 46.2486 260.452 46.027C261.018 45.7992 261.461 45.4853 261.781 45.0852C262.101 44.679 262.264 44.205 262.271 43.6634C262.264 43.1709 262.12 42.7647 261.837 42.4446C261.554 42.1184 261.156 41.8475 260.646 41.6321C260.141 41.4105 259.55 41.2135 258.873 41.0412L256.722 40.4872C255.164 40.0871 253.933 39.4808 253.028 38.6683C252.13 37.8497 251.68 36.7633 251.68 35.4091C251.68 34.295 251.982 33.3194 252.585 32.4822C253.195 31.6451 254.022 30.9957 255.069 30.5341C256.115 30.0663 257.3 29.8324 258.624 29.8324C259.965 29.8324 261.141 30.0663 262.151 30.5341C263.166 30.9957 263.963 31.639 264.542 32.4638C265.121 33.2824 265.419 34.2242 265.438 35.2891H262.141ZM272.683 49.2862C271.784 49.2862 270.975 49.1262 270.255 48.8061C269.541 48.4799 268.974 47.9998 268.556 47.3658C268.144 46.7318 267.937 45.95 267.937 45.0206C267.937 44.2204 268.085 43.5587 268.381 43.0355C268.676 42.5123 269.079 42.0938 269.59 41.7798C270.101 41.4659 270.676 41.2289 271.317 41.0689C271.963 40.9027 272.631 40.7827 273.32 40.7088C274.151 40.6226 274.825 40.5457 275.342 40.478C275.859 40.4041 276.235 40.2933 276.469 40.1456C276.709 39.9917 276.829 39.7547 276.829 39.4347V39.3793C276.829 38.6837 276.622 38.1451 276.21 37.7635C275.798 37.3819 275.204 37.1911 274.428 37.1911C273.609 37.1911 272.96 37.3696 272.48 37.7266C272.006 38.0836 271.686 38.5052 271.52 38.9915L268.399 38.5483C268.645 37.6866 269.051 36.9664 269.618 36.3878C270.184 35.803 270.876 35.366 271.695 35.0767C272.514 34.7812 273.419 34.6335 274.41 34.6335C275.093 34.6335 275.773 34.7135 276.45 34.8736C277.127 35.0336 277.746 35.2983 278.306 35.6676C278.866 36.0308 279.315 36.5263 279.654 37.1541C279.999 37.782 280.171 38.5668 280.171 39.5085V49H276.958V47.0518H276.847C276.644 47.4458 276.358 47.8151 275.988 48.1598C275.625 48.4983 275.167 48.7723 274.613 48.9815C274.065 49.1847 273.422 49.2862 272.683 49.2862ZM273.551 46.8303C274.222 46.8303 274.804 46.6979 275.296 46.4332C275.788 46.1624 276.167 45.8054 276.432 45.3622C276.702 44.919 276.838 44.4358 276.838 43.9126V42.2415C276.733 42.3277 276.555 42.4077 276.302 42.4815C276.056 42.5554 275.779 42.62 275.471 42.6754C275.164 42.7308 274.859 42.7801 274.557 42.8232C274.256 42.8662 273.994 42.9032 273.773 42.9339C273.274 43.0017 272.828 43.1125 272.434 43.2663C272.04 43.4202 271.729 43.6357 271.501 43.9126C271.273 44.1835 271.16 44.5343 271.16 44.9652C271.16 45.5807 271.384 46.0455 271.834 46.3594C272.283 46.6733 272.855 46.8303 273.551 46.8303ZM286.874 30.0909V49H283.532V30.0909H286.874ZM294.392 49.2862C293.493 49.2862 292.684 49.1262 291.964 48.8061C291.25 48.4799 290.683 47.9998 290.265 47.3658C289.853 46.7318 289.646 45.95 289.646 45.0206C289.646 44.2204 289.794 43.5587 290.089 43.0355C290.385 42.5123 290.788 42.0938 291.299 41.7798C291.81 41.4659 292.385 41.2289 293.026 41.0689C293.672 40.9027 294.34 40.7827 295.029 40.7088C295.86 40.6226 296.534 40.5457 297.051 40.478C297.568 40.4041 297.944 40.2933 298.178 40.1456C298.418 39.9917 298.538 39.7547 298.538 39.4347V39.3793C298.538 38.6837 298.331 38.1451 297.919 37.7635C297.507 37.3819 296.913 37.1911 296.137 37.1911C295.318 37.1911 294.669 37.3696 294.189 37.7266C293.715 38.0836 293.395 38.5052 293.229 38.9915L290.108 38.5483C290.354 37.6866 290.76 36.9664 291.327 36.3878C291.893 35.803 292.585 35.366 293.404 35.0767C294.223 34.7812 295.128 34.6335 296.119 34.6335C296.802 34.6335 297.482 34.7135 298.159 34.8736C298.836 35.0336 299.455 35.2983 300.015 35.6676C300.575 36.0308 301.024 36.5263 301.363 37.1541C301.708 37.782 301.88 38.5668 301.88 39.5085V49H298.667V47.0518H298.556C298.353 47.4458 298.067 47.8151 297.697 48.1598C297.334 48.4983 296.876 48.7723 296.322 48.9815C295.774 49.1847 295.131 49.2862 294.392 49.2862ZM295.26 46.8303C295.931 46.8303 296.513 46.6979 297.005 46.4332C297.497 46.1624 297.876 45.8054 298.141 45.3622C298.411 44.919 298.547 44.4358 298.547 43.9126V42.2415C298.442 42.3277 298.264 42.4077 298.011 42.4815C297.765 42.5554 297.488 42.62 297.18 42.6754C296.873 42.7308 296.568 42.7801 296.266 42.8232C295.965 42.8662 295.703 42.9032 295.482 42.9339C294.983 43.0017 294.537 43.1125 294.143 43.2663C293.749 43.4202 293.438 43.6357 293.21 43.9126C292.982 44.1835 292.869 44.5343 292.869 44.9652C292.869 45.5807 293.093 46.0455 293.543 46.3594C293.992 46.6733 294.564 46.8303 295.26 46.8303ZM316.953 49.2493C315.839 49.2493 314.842 48.9631 313.961 48.3906C313.081 47.8182 312.386 46.9872 311.875 45.8977C311.364 44.8082 311.108 43.4848 311.108 41.9276C311.108 40.3518 311.367 39.0223 311.884 37.9389C312.407 36.8494 313.112 36.0277 313.998 35.4737C314.885 34.9136 315.873 34.6335 316.962 34.6335C317.793 34.6335 318.476 34.7751 319.012 35.0582C319.547 35.3352 319.972 35.6707 320.286 36.0646C320.6 36.4524 320.843 36.8187 321.015 37.1634H321.154V30.0909H324.505V49H321.218V46.7656H321.015C320.843 47.1103 320.594 47.4766 320.267 47.8643C319.941 48.246 319.51 48.5722 318.975 48.843C318.439 49.1139 317.765 49.2493 316.953 49.2493ZM317.885 46.5071C318.593 46.5071 319.196 46.3163 319.695 45.9347C320.194 45.5469 320.572 45.0083 320.831 44.3189C321.089 43.6295 321.218 42.8262 321.218 41.9091C321.218 40.992 321.089 40.1948 320.831 39.5178C320.578 38.8407 320.203 38.3144 319.704 37.9389C319.212 37.5634 318.605 37.3757 317.885 37.3757C317.141 37.3757 316.519 37.5696 316.02 37.9574C315.522 38.3452 315.146 38.8807 314.894 39.5639C314.641 40.2472 314.515 41.0289 314.515 41.9091C314.515 42.7955 314.641 43.5864 314.894 44.282C315.152 44.9714 315.531 45.5161 316.029 45.9162C316.534 46.3101 317.153 46.5071 317.885 46.5071ZM334.345 49.277C332.923 49.277 331.695 48.9815 330.661 48.3906C329.633 47.7936 328.843 46.9503 328.289 45.8608C327.735 44.7652 327.458 43.4756 327.458 41.9922C327.458 40.5334 327.735 39.2531 328.289 38.1513C328.849 37.0433 329.63 36.1816 330.634 35.5661C331.637 34.9444 332.816 34.6335 334.17 34.6335C335.044 34.6335 335.869 34.7751 336.644 35.0582C337.426 35.3352 338.115 35.7661 338.713 36.3509C339.316 36.9356 339.79 37.6804 340.134 38.5852C340.479 39.4839 340.651 40.5549 340.651 41.7983V42.8232H329.027V40.5703H337.448C337.441 39.9302 337.303 39.3608 337.032 38.8622C336.761 38.3575 336.383 37.9605 335.896 37.6712C335.416 37.3819 334.856 37.2372 334.216 37.2372C333.533 37.2372 332.933 37.4034 332.416 37.7358C331.899 38.062 331.495 38.4929 331.206 39.0284C330.923 39.5578 330.778 40.1394 330.772 40.7734V42.7401C330.772 43.5649 330.923 44.2727 331.225 44.8636C331.526 45.4484 331.948 45.8977 332.49 46.2116C333.031 46.5194 333.665 46.6733 334.392 46.6733C334.878 46.6733 335.318 46.6056 335.712 46.4702C336.106 46.3286 336.447 46.1224 336.737 45.8516C337.026 45.5807 337.244 45.2453 337.392 44.8452L340.513 45.196C340.316 46.0208 339.941 46.741 339.387 47.3565C338.839 47.9659 338.137 48.4399 337.281 48.7784C336.426 49.1108 335.447 49.277 334.345 49.277ZM352.606 30.0909L357.527 44.9744H357.721L362.633 30.0909H366.4L359.734 49H355.505L348.848 30.0909H352.606ZM373.498 49.277C372.076 49.277 370.848 48.9815 369.814 48.3906C368.786 47.7936 367.995 46.9503 367.441 45.8608C366.887 44.7652 366.61 43.4756 366.61 41.9922C366.61 40.5334 366.887 39.2531 367.441 38.1513C368.001 37.0433 368.783 36.1816 369.786 35.5661C370.789 34.9444 371.968 34.6335 373.322 34.6335C374.196 34.6335 375.021 34.7751 375.797 35.0582C376.578 35.3352 377.268 35.7661 377.865 36.3509C378.468 36.9356 378.942 37.6804 379.287 38.5852C379.631 39.4839 379.804 40.5549 379.804 41.7983V42.8232H368.18V40.5703H376.6C376.594 39.9302 376.455 39.3608 376.184 38.8622C375.914 38.3575 375.535 37.9605 375.049 37.6712C374.569 37.3819 374.009 37.2372 373.368 37.2372C372.685 37.2372 372.085 37.4034 371.568 37.7358C371.051 38.062 370.648 38.4929 370.358 39.0284C370.075 39.5578 369.931 40.1394 369.925 40.7734V42.7401C369.925 43.5649 370.075 44.2727 370.377 44.8636C370.679 45.4484 371.1 45.8977 371.642 46.2116C372.184 46.5194 372.818 46.6733 373.544 46.6733C374.03 46.6733 374.47 46.6056 374.864 46.4702C375.258 46.3286 375.6 46.1224 375.889 45.8516C376.178 45.5807 376.397 45.2453 376.545 44.8452L379.665 45.196C379.468 46.0208 379.093 46.741 378.539 47.3565C377.991 47.9659 377.289 48.4399 376.434 48.7784C375.578 49.1108 374.599 49.277 373.498 49.277ZM385.974 40.6903V49H382.631V34.8182H385.826V37.228H385.992C386.318 36.4339 386.839 35.803 387.553 35.3352C388.273 34.8674 389.162 34.6335 390.221 34.6335C391.2 34.6335 392.052 34.8428 392.778 35.2614C393.511 35.6799 394.077 36.2862 394.477 37.0803C394.884 37.8743 395.084 38.8376 395.077 39.9702V49H391.735V40.4872C391.735 39.5393 391.489 38.7976 390.996 38.2621C390.51 37.7266 389.836 37.4588 388.974 37.4588C388.39 37.4588 387.87 37.5881 387.414 37.8466C386.965 38.099 386.611 38.4652 386.352 38.9453C386.1 39.4254 385.974 40.0071 385.974 40.6903ZM405.557 34.8182V37.4034H397.404V34.8182H405.557ZM399.417 31.4205H402.759V44.7344C402.759 45.1837 402.827 45.5284 402.962 45.7685C403.104 46.0024 403.289 46.1624 403.516 46.2486C403.744 46.3348 403.996 46.3778 404.273 46.3778C404.483 46.3778 404.674 46.3625 404.846 46.3317C405.024 46.3009 405.16 46.2732 405.252 46.2486L405.815 48.8615C405.637 48.9231 405.381 48.9908 405.049 49.0646C404.723 49.1385 404.323 49.1816 403.849 49.1939C403.012 49.2185 402.258 49.0923 401.587 48.8153C400.916 48.5322 400.383 48.0952 399.989 47.5043C399.602 46.9134 399.411 46.1747 399.417 45.2884V31.4205ZM412.433 49.2862C411.534 49.2862 410.725 49.1262 410.005 48.8061C409.291 48.4799 408.724 47.9998 408.306 47.3658C407.894 46.7318 407.687 45.95 407.687 45.0206C407.687 44.2204 407.835 43.5587 408.131 43.0355C408.426 42.5123 408.829 42.0938 409.34 41.7798C409.851 41.4659 410.426 41.2289 411.067 41.0689C411.713 40.9027 412.381 40.7827 413.07 40.7088C413.901 40.6226 414.575 40.5457 415.092 40.478C415.609 40.4041 415.985 40.2933 416.219 40.1456C416.459 39.9917 416.579 39.7547 416.579 39.4347V39.3793C416.579 38.6837 416.372 38.1451 415.96 37.7635C415.548 37.3819 414.954 37.1911 414.178 37.1911C413.359 37.1911 412.71 37.3696 412.23 37.7266C411.756 38.0836 411.436 38.5052 411.27 38.9915L408.149 38.5483C408.395 37.6866 408.801 36.9664 409.368 36.3878C409.934 35.803 410.626 35.366 411.445 35.0767C412.264 34.7812 413.169 34.6335 414.16 34.6335C414.843 34.6335 415.523 34.7135 416.2 34.8736C416.877 35.0336 417.496 35.2983 418.056 35.6676C418.616 36.0308 419.065 36.5263 419.404 37.1541C419.749 37.782 419.921 38.5668 419.921 39.5085V49H416.708V47.0518H416.597C416.394 47.4458 416.108 47.8151 415.738 48.1598C415.375 48.4983 414.917 48.7723 414.363 48.9815C413.815 49.1847 413.172 49.2862 412.433 49.2862ZM413.301 46.8303C413.972 46.8303 414.554 46.6979 415.046 46.4332C415.538 46.1624 415.917 45.8054 416.182 45.3622C416.452 44.919 416.588 44.4358 416.588 43.9126V42.2415C416.483 42.3277 416.305 42.4077 416.052 42.4815C415.806 42.5554 415.529 42.62 415.221 42.6754C414.914 42.7308 414.609 42.7801 414.307 42.8232C414.006 42.8662 413.744 42.9032 413.523 42.9339C413.024 43.0017 412.578 43.1125 412.184 43.2663C411.79 43.4202 411.479 43.6357 411.251 43.9126C411.023 44.1835 410.91 44.5343 410.91 44.9652C410.91 45.5807 411.134 46.0455 411.584 46.3594C412.033 46.6733 412.605 46.8303 413.301 46.8303ZM434.491 38.5668L431.444 38.8991C431.358 38.5914 431.207 38.3021 430.991 38.0312C430.782 37.7604 430.499 37.5419 430.142 37.3757C429.785 37.2095 429.348 37.1264 428.831 37.1264C428.135 37.1264 427.55 37.2772 427.077 37.5788C426.609 37.8804 426.378 38.2713 426.384 38.7514C426.378 39.1638 426.529 39.4993 426.836 39.7578C427.15 40.0163 427.667 40.2287 428.388 40.3949L430.807 40.9119C432.148 41.2012 433.146 41.6598 433.798 42.2876C434.457 42.9155 434.789 43.7372 434.795 44.7528C434.789 45.6454 434.528 46.4332 434.01 47.1165C433.5 47.7936 432.789 48.3229 431.878 48.7045C430.967 49.0862 429.92 49.277 428.738 49.277C427.003 49.277 425.605 48.9138 424.547 48.1875C423.488 47.455 422.857 46.4363 422.654 45.1314L425.913 44.8175C426.061 45.4576 426.375 45.9408 426.855 46.267C427.335 46.5933 427.96 46.7564 428.729 46.7564C429.523 46.7564 430.16 46.5933 430.64 46.267C431.127 45.9408 431.37 45.5376 431.37 45.0575C431.37 44.6513 431.213 44.3158 430.899 44.0511C430.591 43.7865 430.111 43.5833 429.459 43.4418L427.04 42.9339C425.679 42.6508 424.673 42.1738 424.02 41.5028C423.368 40.8258 423.045 39.9702 423.051 38.9361C423.045 38.062 423.282 37.3049 423.762 36.6648C424.248 36.0185 424.922 35.5199 425.784 35.169C426.652 34.812 427.652 34.6335 428.785 34.6335C430.447 34.6335 431.755 34.9875 432.709 35.6953C433.669 36.4032 434.263 37.3603 434.491 38.5668ZM268.05 67.4709H264.597C264.499 66.9046 264.317 66.4029 264.053 65.9659C263.788 65.5227 263.459 65.1473 263.065 64.8395C262.671 64.5317 262.221 64.3009 261.717 64.147C261.218 63.987 260.679 63.907 260.101 63.907C259.073 63.907 258.162 64.1655 257.368 64.6825C256.574 65.1934 255.952 65.9444 255.503 66.9354C255.054 67.9202 254.829 69.1236 254.829 70.5455C254.829 71.992 255.054 73.2107 255.503 74.2017C255.958 75.1866 256.58 75.9313 257.368 76.4361C258.162 76.9347 259.07 77.1839 260.092 77.1839C260.658 77.1839 261.187 77.1101 261.68 76.9624C262.178 76.8085 262.625 76.5838 263.018 76.2884C263.419 75.9929 263.754 75.6297 264.025 75.1989C264.302 74.768 264.493 74.2756 264.597 73.7216L268.05 73.7401C267.921 74.6387 267.641 75.482 267.21 76.2699C266.786 77.0578 266.228 77.7533 265.539 78.3565C264.85 78.9536 264.043 79.4214 263.12 79.7599C262.197 80.0923 261.172 80.2585 260.045 80.2585C258.384 80.2585 256.9 79.8738 255.595 79.1044C254.29 78.335 253.262 77.224 252.511 75.7713C251.76 74.3187 251.385 72.5767 251.385 70.5455C251.385 68.508 251.763 66.7661 252.521 65.3196C253.278 63.867 254.309 62.7559 255.614 61.9865C256.919 61.2171 258.396 60.8324 260.045 60.8324C261.098 60.8324 262.077 60.9801 262.982 61.2756C263.886 61.571 264.693 62.005 265.401 62.5774C266.108 63.1437 266.69 63.8393 267.146 64.6641C267.607 65.4827 267.909 66.4183 268.05 67.4709ZM275.121 80.2862C274.222 80.2862 273.412 80.1262 272.692 79.8061C271.978 79.4799 271.412 78.9998 270.993 78.3658C270.581 77.7318 270.375 76.95 270.375 76.0206C270.375 75.2204 270.523 74.5587 270.818 74.0355C271.113 73.5123 271.517 73.0938 272.028 72.7798C272.538 72.4659 273.114 72.2289 273.754 72.0689C274.4 71.9027 275.068 71.7827 275.758 71.7088C276.589 71.6226 277.263 71.5457 277.78 71.478C278.297 71.4041 278.672 71.2933 278.906 71.1456C279.146 70.9917 279.266 70.7547 279.266 70.4347V70.3793C279.266 69.6837 279.06 69.1451 278.648 68.7635C278.235 68.3819 277.641 68.1911 276.866 68.1911C276.047 68.1911 275.398 68.3696 274.917 68.7266C274.443 69.0836 274.123 69.5052 273.957 69.9915L270.836 69.5483C271.083 68.6866 271.489 67.9664 272.055 67.3878C272.622 66.803 273.314 66.366 274.133 66.0767C274.951 65.7812 275.856 65.6335 276.847 65.6335C277.53 65.6335 278.211 65.7135 278.888 65.8736C279.565 66.0336 280.183 66.2983 280.743 66.6676C281.304 67.0308 281.753 67.5263 282.091 68.1541C282.436 68.782 282.608 69.5668 282.608 70.5085V80H279.395V78.0518H279.285C279.081 78.4458 278.795 78.8151 278.426 79.1598C278.063 79.4983 277.604 79.7723 277.05 79.9815C276.502 80.1847 275.859 80.2862 275.121 80.2862ZM275.988 77.8303C276.659 77.8303 277.241 77.6979 277.733 77.4332C278.226 77.1624 278.604 76.8054 278.869 76.3622C279.14 75.919 279.275 75.4358 279.275 74.9126V73.2415C279.171 73.3277 278.992 73.4077 278.74 73.4815C278.494 73.5554 278.217 73.62 277.909 73.6754C277.601 73.7308 277.296 73.7801 276.995 73.8232C276.693 73.8662 276.432 73.9032 276.21 73.9339C275.711 74.0017 275.265 74.1125 274.871 74.2663C274.477 74.4202 274.166 74.6357 273.939 74.9126C273.711 75.1835 273.597 75.5343 273.597 75.9652C273.597 76.5807 273.822 77.0455 274.271 77.3594C274.72 77.6733 275.293 77.8303 275.988 77.8303ZM288.028 80.2031C287.468 80.2031 286.988 80.0062 286.588 79.6122C286.188 79.2183 285.991 78.7382 285.997 78.1719C285.991 77.6179 286.188 77.1439 286.588 76.75C286.988 76.3561 287.468 76.1591 288.028 76.1591C288.57 76.1591 289.041 76.3561 289.441 76.75C289.847 77.1439 290.053 77.6179 290.059 78.1719C290.053 78.5473 289.955 78.889 289.764 79.1967C289.579 79.5045 289.333 79.7507 289.025 79.9354C288.724 80.1139 288.391 80.2031 288.028 80.2031ZM306.983 61.0909H310.381V74.3864C310.375 75.6051 310.117 76.6546 309.606 77.5348C309.095 78.4089 308.381 79.0829 307.464 79.5568C306.553 80.0246 305.491 80.2585 304.278 80.2585C303.17 80.2585 302.173 80.0616 301.287 79.6676C300.407 79.2675 299.708 78.6766 299.191 77.8949C298.674 77.1132 298.415 76.1406 298.415 74.9773H301.822C301.828 75.4882 301.939 75.9283 302.155 76.2976C302.376 76.6669 302.681 76.95 303.069 77.147C303.456 77.344 303.903 77.4425 304.407 77.4425C304.955 77.4425 305.42 77.3286 305.802 77.1009C306.183 76.867 306.473 76.5223 306.67 76.0668C306.873 75.6113 306.977 75.0511 306.983 74.3864V61.0909ZM322.989 74.0355V65.8182H326.331V80H323.09V77.4794H322.943C322.623 78.2734 322.096 78.9228 321.364 79.4276C320.637 79.9323 319.742 80.1847 318.677 80.1847C317.748 80.1847 316.926 79.9785 316.212 79.5661C315.504 79.1475 314.95 78.5412 314.55 77.7472C314.15 76.947 313.95 75.9806 313.95 74.848V65.8182H317.292V74.331C317.292 75.2296 317.538 75.9437 318.031 76.473C318.523 77.0024 319.169 77.267 319.97 77.267C320.462 77.267 320.939 77.147 321.401 76.907C321.862 76.6669 322.241 76.3099 322.536 75.8359C322.838 75.3558 322.989 74.7557 322.989 74.0355ZM333.849 80.2862C332.95 80.2862 332.141 80.1262 331.421 79.8061C330.707 79.4799 330.141 78.9998 329.722 78.3658C329.31 77.7318 329.103 76.95 329.103 76.0206C329.103 75.2204 329.251 74.5587 329.547 74.0355C329.842 73.5123 330.245 73.0938 330.756 72.7798C331.267 72.4659 331.842 72.2289 332.483 72.0689C333.129 71.9027 333.797 71.7827 334.486 71.7088C335.317 71.6226 335.991 71.5457 336.508 71.478C337.025 71.4041 337.401 71.2933 337.635 71.1456C337.875 70.9917 337.995 70.7547 337.995 70.4347V70.3793C337.995 69.6837 337.788 69.1451 337.376 68.7635C336.964 68.3819 336.37 68.1911 335.594 68.1911C334.775 68.1911 334.126 68.3696 333.646 68.7266C333.172 69.0836 332.852 69.5052 332.686 69.9915L329.565 69.5483C329.811 68.6866 330.217 67.9664 330.784 67.3878C331.35 66.803 332.042 66.366 332.861 66.0767C333.68 65.7812 334.585 65.6335 335.576 65.6335C336.259 65.6335 336.939 65.7135 337.616 65.8736C338.293 66.0336 338.912 66.2983 339.472 66.6676C340.032 67.0308 340.481 67.5263 340.82 68.1541C341.165 68.782 341.337 69.5668 341.337 70.5085V80H338.124V78.0518H338.013C337.81 78.4458 337.524 78.8151 337.154 79.1598C336.791 79.4983 336.333 79.7723 335.779 79.9815C335.231 80.1847 334.588 80.2862 333.849 80.2862ZM334.717 77.8303C335.388 77.8303 335.97 77.6979 336.462 77.4332C336.954 77.1624 337.333 76.8054 337.598 76.3622C337.868 75.919 338.004 75.4358 338.004 74.9126V73.2415C337.899 73.3277 337.721 73.4077 337.468 73.4815C337.222 73.5554 336.945 73.62 336.637 73.6754C336.33 73.7308 336.025 73.7801 335.723 73.8232C335.422 73.8662 335.16 73.9032 334.939 73.9339C334.44 74.0017 333.994 74.1125 333.6 74.2663C333.206 74.4202 332.895 74.6357 332.667 74.9126C332.44 75.1835 332.326 75.5343 332.326 75.9652C332.326 76.5807 332.55 77.0455 333 77.3594C333.449 77.6733 334.021 77.8303 334.717 77.8303ZM348.04 71.6903V80H344.698V65.8182H347.892V68.228H348.059C348.385 67.4339 348.905 66.803 349.619 66.3352C350.339 65.8674 351.229 65.6335 352.287 65.6335C353.266 65.6335 354.118 65.8428 354.845 66.2614C355.577 66.6799 356.144 67.2862 356.544 68.0803C356.95 68.8743 357.15 69.8376 357.144 70.9702V80H353.801V71.4872C353.801 70.5393 353.555 69.7976 353.063 69.2621C352.577 68.7266 351.903 68.4588 351.041 68.4588C350.456 68.4588 349.936 68.5881 349.48 68.8466C349.031 69.099 348.677 69.4652 348.419 69.9453C348.166 70.4254 348.04 71.0071 348.04 71.6903ZM369.668 61.0909L374.589 75.9744H374.783L379.695 61.0909H383.462L376.796 80H372.567L365.911 61.0909H369.668ZM390.56 80.277C389.138 80.277 387.91 79.9815 386.876 79.3906C385.848 78.7936 385.057 77.9503 384.503 76.8608C383.949 75.7652 383.672 74.4756 383.672 72.9922C383.672 71.5334 383.949 70.2531 384.503 69.1513C385.064 68.0433 385.845 67.1816 386.849 66.5661C387.852 65.9444 389.031 65.6335 390.385 65.6335C391.259 65.6335 392.084 65.7751 392.859 66.0582C393.641 66.3352 394.33 66.7661 394.927 67.3509C395.531 67.9356 396.005 68.6804 396.349 69.5852C396.694 70.4839 396.866 71.5549 396.866 72.7983V73.8232H385.242V71.5703H393.662C393.656 70.9302 393.518 70.3608 393.247 69.8622C392.976 69.3575 392.598 68.9605 392.111 68.6712C391.631 68.3819 391.071 68.2372 390.431 68.2372C389.748 68.2372 389.148 68.4034 388.631 68.7358C388.113 69.062 387.71 69.4929 387.421 70.0284C387.138 70.5578 386.993 71.1394 386.987 71.7734V73.7401C386.987 74.5649 387.138 75.2727 387.439 75.8636C387.741 76.4484 388.163 76.8977 388.704 77.2116C389.246 77.5194 389.88 77.6733 390.606 77.6733C391.093 77.6733 391.533 77.6056 391.927 77.4702C392.321 77.3286 392.662 77.1224 392.952 76.8516C393.241 76.5807 393.459 76.2453 393.607 75.8452L396.728 76.196C396.531 77.0208 396.155 77.741 395.601 78.3565C395.054 78.9659 394.352 79.4399 393.496 79.7784C392.641 80.1108 391.662 80.277 390.56 80.277ZM403.036 61.0909V80H399.694V61.0909H403.036ZM410.554 80.2862C409.655 80.2862 408.846 80.1262 408.126 79.8061C407.412 79.4799 406.846 78.9998 406.427 78.3658C406.015 77.7318 405.808 76.95 405.808 76.0206C405.808 75.2204 405.956 74.5587 406.252 74.0355C406.547 73.5123 406.95 73.0938 407.461 72.7798C407.972 72.4659 408.548 72.2289 409.188 72.0689C409.834 71.9027 410.502 71.7827 411.191 71.7088C412.022 71.6226 412.696 71.5457 413.213 71.478C413.73 71.4041 414.106 71.2933 414.34 71.1456C414.58 70.9917 414.7 70.7547 414.7 70.4347V70.3793C414.7 69.6837 414.494 69.1451 414.081 68.7635C413.669 68.3819 413.075 68.1911 412.299 68.1911C411.481 68.1911 410.831 68.3696 410.351 68.7266C409.877 69.0836 409.557 69.5052 409.391 69.9915L406.27 69.5483C406.516 68.6866 406.923 67.9664 407.489 67.3878C408.055 66.803 408.748 66.366 409.566 66.0767C410.385 65.7812 411.29 65.6335 412.281 65.6335C412.964 65.6335 413.644 65.7135 414.321 65.8736C414.998 66.0336 415.617 66.2983 416.177 66.6676C416.737 67.0308 417.186 67.5263 417.525 68.1541C417.87 68.782 418.042 69.5668 418.042 70.5085V80H414.829V78.0518H414.718C414.515 78.4458 414.229 78.8151 413.86 79.1598C413.496 79.4983 413.038 79.7723 412.484 79.9815C411.936 80.1847 411.293 80.2862 410.554 80.2862ZM411.422 77.8303C412.093 77.8303 412.675 77.6979 413.167 77.4332C413.66 77.1624 414.038 76.8054 414.303 76.3622C414.574 75.919 414.709 75.4358 414.709 74.9126V73.2415C414.604 73.3277 414.426 73.4077 414.173 73.4815C413.927 73.5554 413.65 73.62 413.343 73.6754C413.035 73.7308 412.73 73.7801 412.428 73.8232C412.127 73.8662 411.865 73.9032 411.644 73.9339C411.145 74.0017 410.699 74.1125 410.305 74.2663C409.911 74.4202 409.6 74.6357 409.372 74.9126C409.145 75.1835 409.031 75.5343 409.031 75.9652C409.031 76.5807 409.255 77.0455 409.705 77.3594C410.154 77.6733 410.727 77.8303 411.422 77.8303ZM432.612 69.5668L429.565 69.8991C429.479 69.5914 429.328 69.3021 429.112 69.0312C428.903 68.7604 428.62 68.5419 428.263 68.3757C427.906 68.2095 427.469 68.1264 426.952 68.1264C426.256 68.1264 425.672 68.2772 425.198 68.5788C424.73 68.8804 424.499 69.2713 424.505 69.7514C424.499 70.1638 424.65 70.4993 424.958 70.7578C425.271 71.0163 425.789 71.2287 426.509 71.3949L428.928 71.9119C430.27 72.2012 431.267 72.6598 431.919 73.2876C432.578 73.9155 432.91 74.7372 432.916 75.7528C432.91 76.6454 432.649 77.4332 432.132 78.1165C431.621 78.7936 430.91 79.3229 429.999 79.7045C429.088 80.0862 428.041 80.277 426.86 80.277C425.124 80.277 423.727 79.9138 422.668 79.1875C421.609 78.455 420.978 77.4363 420.775 76.1314L424.034 75.8175C424.182 76.4576 424.496 76.9408 424.976 77.267C425.456 77.5933 426.081 77.7564 426.85 77.7564C427.644 77.7564 428.281 77.5933 428.762 77.267C429.248 76.9408 429.491 76.5376 429.491 76.0575C429.491 75.6513 429.334 75.3158 429.02 75.0511C428.712 74.7865 428.232 74.5833 427.58 74.4418L425.161 73.9339C423.8 73.6508 422.794 73.1738 422.142 72.5028C421.489 71.8258 421.166 70.9702 421.172 69.9361C421.166 69.062 421.403 68.3049 421.883 67.6648C422.369 67.0185 423.043 66.5199 423.905 66.169C424.773 65.812 425.773 65.6335 426.906 65.6335C428.568 65.6335 429.876 65.9875 430.83 66.6953C431.79 67.4032 432.384 68.3603 432.612 69.5668ZM441.858 80.277C440.443 80.277 439.227 79.9661 438.211 79.3445C437.202 78.7228 436.423 77.8641 435.876 76.7685C435.334 75.6667 435.063 74.3987 435.063 72.9645C435.063 71.5241 435.34 70.2531 435.894 69.1513C436.448 68.0433 437.23 67.1816 438.239 66.5661C439.255 65.9444 440.455 65.6335 441.84 65.6335C442.991 65.6335 444.01 65.8459 444.896 66.2706C445.789 66.6892 446.5 67.2831 447.029 68.0526C447.558 68.8158 447.86 69.7083 447.934 70.7301H444.739C444.61 70.0469 444.302 69.4775 443.816 69.022C443.336 68.5604 442.693 68.3295 441.886 68.3295C441.203 68.3295 440.603 68.5142 440.086 68.8835C439.569 69.2467 439.166 69.7699 438.876 70.4531C438.593 71.1364 438.452 71.955 438.452 72.9091C438.452 73.8755 438.593 74.7064 438.876 75.402C439.159 76.0914 439.556 76.6238 440.067 76.9993C440.584 77.3686 441.191 77.5533 441.886 77.5533C442.379 77.5533 442.819 77.4609 443.206 77.2763C443.6 77.0855 443.93 76.8116 444.194 76.4545C444.459 76.0975 444.641 75.6636 444.739 75.1527H447.934C447.854 76.156 447.558 77.0455 447.047 77.821C446.537 78.5904 445.841 79.1937 444.961 79.6307C444.081 80.0616 443.046 80.277 441.858 80.277ZM456.864 80.277C455.479 80.277 454.279 79.9723 453.263 79.3629C452.248 78.7536 451.46 77.901 450.9 76.8054C450.346 75.7098 450.069 74.4295 450.069 72.9645C450.069 71.4995 450.346 70.2161 450.9 69.1143C451.46 68.0125 452.248 67.157 453.263 66.5476C454.279 65.9382 455.479 65.6335 456.864 65.6335C458.249 65.6335 459.45 65.9382 460.465 66.5476C461.481 67.157 462.266 68.0125 462.82 69.1143C463.38 70.2161 463.66 71.4995 463.66 72.9645C463.66 74.4295 463.38 75.7098 462.82 76.8054C462.266 77.901 461.481 78.7536 460.465 79.3629C459.45 79.9723 458.249 80.277 456.864 80.277ZM456.883 77.5994C457.634 77.5994 458.262 77.3932 458.766 76.9808C459.271 76.5623 459.647 76.0021 459.893 75.3004C460.145 74.5987 460.271 73.817 460.271 72.9553C460.271 72.0874 460.145 71.3026 459.893 70.6009C459.647 69.893 459.271 69.3298 458.766 68.9112C458.262 68.4927 457.634 68.2834 456.883 68.2834C456.113 68.2834 455.473 68.4927 454.962 68.9112C454.458 69.3298 454.079 69.893 453.827 70.6009C453.58 71.3026 453.457 72.0874 453.457 72.9553C453.457 73.817 453.58 74.5987 453.827 75.3004C454.079 76.0021 454.458 76.5623 454.962 76.9808C455.473 77.3932 456.113 77.5994 456.883 77.5994ZM254.293 111H250.637L257.294 92.0909H261.523L268.189 111H264.533L259.482 95.9688H259.335L254.293 111ZM254.413 103.586H264.385V106.337H254.413V103.586ZM273.874 92.0909V111H270.532V92.0909H273.874ZM289.979 96.8182L284.928 111H281.235L276.185 96.8182H279.749L283.008 107.353H283.156L286.424 96.8182H289.979ZM295.966 111.286C295.068 111.286 294.258 111.126 293.538 110.806C292.824 110.48 292.258 110 291.839 109.366C291.427 108.732 291.221 107.95 291.221 107.021C291.221 106.22 291.368 105.559 291.664 105.036C291.959 104.512 292.362 104.094 292.873 103.78C293.384 103.466 293.96 103.229 294.6 103.069C295.246 102.903 295.914 102.783 296.603 102.709C297.434 102.623 298.108 102.546 298.625 102.478C299.142 102.404 299.518 102.293 299.752 102.146C299.992 101.992 300.112 101.755 300.112 101.435V101.379C300.112 100.684 299.906 100.145 299.493 99.7635C299.081 99.3819 298.487 99.1911 297.711 99.1911C296.893 99.1911 296.243 99.3696 295.763 99.7266C295.289 100.084 294.969 100.505 294.803 100.991L291.682 100.548C291.928 99.6866 292.335 98.9664 292.901 98.3878C293.467 97.803 294.16 97.366 294.978 97.0767C295.797 96.7812 296.702 96.6335 297.693 96.6335C298.376 96.6335 299.056 96.7135 299.733 96.8736C300.41 97.0336 301.029 97.2983 301.589 97.6676C302.149 98.0308 302.599 98.5263 302.937 99.1541C303.282 99.782 303.454 100.567 303.454 101.509V111H300.241V109.052H300.13C299.927 109.446 299.641 109.815 299.272 110.16C298.908 110.498 298.45 110.772 297.896 110.982C297.348 111.185 296.705 111.286 295.966 111.286ZM296.834 108.83C297.505 108.83 298.087 108.698 298.579 108.433C299.072 108.162 299.45 107.805 299.715 107.362C299.986 106.919 300.121 106.436 300.121 105.913V104.241C300.016 104.328 299.838 104.408 299.586 104.482C299.339 104.555 299.062 104.62 298.755 104.675C298.447 104.731 298.142 104.78 297.841 104.823C297.539 104.866 297.277 104.903 297.056 104.934C296.557 105.002 296.111 105.112 295.717 105.266C295.323 105.42 295.012 105.636 294.784 105.913C294.557 106.183 294.443 106.534 294.443 106.965C294.443 107.581 294.667 108.045 295.117 108.359C295.566 108.673 296.139 108.83 296.834 108.83ZM306.815 111V96.8182H310.056V99.1818H310.203C310.462 98.3632 310.905 97.7322 311.533 97.2891C312.167 96.8397 312.89 96.6151 313.703 96.6151C313.887 96.6151 314.094 96.6243 314.321 96.6428C314.555 96.6551 314.749 96.6766 314.903 96.7074V99.782C314.761 99.7327 314.537 99.6896 314.229 99.6527C313.927 99.6096 313.635 99.5881 313.352 99.5881C312.743 99.5881 312.195 99.7204 311.708 99.9851C311.228 100.244 310.85 100.604 310.573 101.065C310.296 101.527 310.157 102.059 310.157 102.663V111H306.815ZM320.951 111.286C320.052 111.286 319.243 111.126 318.522 110.806C317.808 110.48 317.242 110 316.824 109.366C316.411 108.732 316.205 107.95 316.205 107.021C316.205 106.22 316.353 105.559 316.648 105.036C316.944 104.512 317.347 104.094 317.858 103.78C318.368 103.466 318.944 103.229 319.584 103.069C320.23 102.903 320.898 102.783 321.588 102.709C322.419 102.623 323.093 102.546 323.61 102.478C324.127 102.404 324.502 102.293 324.736 102.146C324.976 101.992 325.096 101.755 325.096 101.435V101.379C325.096 100.684 324.89 100.145 324.478 99.7635C324.065 99.3819 323.471 99.1911 322.696 99.1911C321.877 99.1911 321.228 99.3696 320.748 99.7266C320.274 100.084 319.953 100.505 319.787 100.991L316.667 100.548C316.913 99.6866 317.319 98.9664 317.885 98.3878C318.452 97.803 319.144 97.366 319.963 97.0767C320.781 96.7812 321.686 96.6335 322.677 96.6335C323.36 96.6335 324.041 96.7135 324.718 96.8736C325.395 97.0336 326.013 97.2983 326.574 97.6676C327.134 98.0308 327.583 98.5263 327.922 99.1541C328.266 99.782 328.439 100.567 328.439 101.509V111H325.225V109.052H325.115C324.912 109.446 324.625 109.815 324.256 110.16C323.893 110.498 323.434 110.772 322.88 110.982C322.333 111.185 321.689 111.286 320.951 111.286ZM321.819 108.83C322.489 108.83 323.071 108.698 323.564 108.433C324.056 108.162 324.435 107.805 324.699 107.362C324.97 106.919 325.105 106.436 325.105 105.913V104.241C325.001 104.328 324.822 104.408 324.57 104.482C324.324 104.555 324.047 104.62 323.739 104.675C323.431 104.731 323.127 104.78 322.825 104.823C322.523 104.866 322.262 104.903 322.04 104.934C321.542 105.002 321.095 105.112 320.701 105.266C320.307 105.42 319.997 105.636 319.769 105.913C319.541 106.183 319.427 106.534 319.427 106.965C319.427 107.581 319.652 108.045 320.101 108.359C320.551 108.673 321.123 108.83 321.819 108.83ZM337.062 111.249C335.948 111.249 334.951 110.963 334.071 110.391C333.19 109.818 332.495 108.987 331.984 107.898C331.473 106.808 331.218 105.485 331.218 103.928C331.218 102.352 331.476 101.022 331.993 99.9389C332.516 98.8494 333.221 98.0277 334.108 97.4737C334.994 96.9136 335.982 96.6335 337.071 96.6335C337.902 96.6335 338.586 96.7751 339.121 97.0582C339.657 97.3352 340.081 97.6707 340.395 98.0646C340.709 98.4524 340.952 98.8187 341.125 99.1634H341.263V92.0909H344.615V111H341.328V108.766H341.125C340.952 109.11 340.703 109.477 340.377 109.864C340.051 110.246 339.62 110.572 339.084 110.843C338.549 111.114 337.875 111.249 337.062 111.249ZM337.995 108.507C338.703 108.507 339.306 108.316 339.804 107.935C340.303 107.547 340.681 107.008 340.94 106.319C341.199 105.629 341.328 104.826 341.328 103.909C341.328 102.992 341.199 102.195 340.94 101.518C340.688 100.841 340.312 100.314 339.814 99.9389C339.321 99.5634 338.715 99.3757 337.995 99.3757C337.25 99.3757 336.628 99.5696 336.13 99.9574C335.631 100.345 335.256 100.881 335.003 101.564C334.751 102.247 334.625 103.029 334.625 103.909C334.625 104.795 334.751 105.586 335.003 106.282C335.262 106.971 335.64 107.516 336.139 107.916C336.644 108.31 337.262 108.507 337.995 108.507ZM354.362 111.277C352.977 111.277 351.777 110.972 350.762 110.363C349.746 109.754 348.958 108.901 348.398 107.805C347.844 106.71 347.567 105.429 347.567 103.964C347.567 102.5 347.844 101.216 348.398 100.114C348.958 99.0125 349.746 98.157 350.762 97.5476C351.777 96.9382 352.977 96.6335 354.362 96.6335C355.747 96.6335 356.948 96.9382 357.963 97.5476C358.979 98.157 359.764 99.0125 360.318 100.114C360.878 101.216 361.158 102.5 361.158 103.964C361.158 105.429 360.878 106.71 360.318 107.805C359.764 108.901 358.979 109.754 357.963 110.363C356.948 110.972 355.747 111.277 354.362 111.277ZM354.381 108.599C355.132 108.599 355.76 108.393 356.264 107.981C356.769 107.562 357.145 107.002 357.391 106.3C357.643 105.599 357.769 104.817 357.769 103.955C357.769 103.087 357.643 102.303 357.391 101.601C357.145 100.893 356.769 100.33 356.264 99.9112C355.76 99.4927 355.132 99.2834 354.381 99.2834C353.611 99.2834 352.971 99.4927 352.46 99.9112C351.956 100.33 351.577 100.893 351.325 101.601C351.079 102.303 350.955 103.087 350.955 103.955C350.955 104.817 351.079 105.599 351.325 106.3C351.577 107.002 351.956 107.562 352.46 107.981C352.971 108.393 353.611 108.599 354.381 108.599ZM386.131 92.0909V111H383.084L374.174 98.12H374.017V111H370.592V92.0909H373.657L382.558 104.98H382.724V92.0909H386.131ZM393.953 100.835C393.135 100.835 392.39 100.638 391.719 100.244C391.048 99.8435 390.512 99.308 390.112 98.6371C389.712 97.96 389.512 97.2121 389.512 96.3935C389.512 95.581 389.712 94.8393 390.112 94.1683C390.512 93.4912 391.048 92.9557 391.719 92.5618C392.39 92.1617 393.135 91.9616 393.953 91.9616C394.772 91.9616 395.517 92.1617 396.188 92.5618C396.859 92.9557 397.394 93.4912 397.794 94.1683C398.194 94.8393 398.394 95.581 398.394 96.3935C398.394 97.2121 398.194 97.96 397.794 98.6371C397.394 99.308 396.859 99.8435 396.188 100.244C395.517 100.638 394.772 100.835 393.953 100.835ZM393.953 98.4709C394.335 98.4709 394.683 98.3786 394.997 98.1939C395.311 98.0092 395.56 97.7599 395.744 97.446C395.935 97.1321 396.031 96.7812 396.031 96.3935C396.031 96.0118 395.935 95.6641 395.744 95.3501C395.56 95.0362 395.311 94.7869 394.997 94.6023C394.683 94.4176 394.335 94.3253 393.953 94.3253C393.572 94.3253 393.224 94.4176 392.91 94.6023C392.596 94.7869 392.344 95.0362 392.153 95.3501C391.968 95.6641 391.876 96.0118 391.876 96.3935C391.876 96.7751 391.968 97.1259 392.153 97.446C392.338 97.7599 392.587 98.0092 392.901 98.1939C393.221 98.3786 393.572 98.4709 393.953 98.4709ZM407.694 107.491V104.768L415.718 92.0909H417.989V95.9688H416.604L411.203 104.528V104.675H422.402V107.491H407.694ZM416.715 111V106.661L416.752 105.442V92.0909H419.983V111H416.715ZM426.045 111L434.087 95.0824V94.9531H424.752V92.0909H437.632V95.0178L429.599 111H426.045ZM440.612 111V108.526L447.177 102.09C447.805 101.456 448.328 100.893 448.746 100.401C449.165 99.9081 449.479 99.4311 449.688 98.9695C449.897 98.5078 450.002 98.0154 450.002 97.4922C450.002 96.8951 449.867 96.3842 449.596 95.9595C449.325 95.5286 448.952 95.1963 448.479 94.9624C448.005 94.7285 447.466 94.6115 446.863 94.6115C446.241 94.6115 445.696 94.7408 445.229 94.9993C444.761 95.2517 444.398 95.6117 444.139 96.0795C443.887 96.5473 443.76 97.1044 443.76 97.7507H440.501C440.501 96.5504 440.775 95.5071 441.323 94.6207C441.871 93.7344 442.625 93.0481 443.585 92.5618C444.551 92.0755 445.659 91.8324 446.909 91.8324C448.177 91.8324 449.291 92.0694 450.251 92.5433C451.211 93.0173 451.956 93.6667 452.486 94.4915C453.021 95.3163 453.289 96.258 453.289 97.3168C453.289 98.0246 453.153 98.7202 452.883 99.4034C452.612 100.087 452.135 100.844 451.452 101.675C450.774 102.506 449.823 103.512 448.599 104.694L445.339 108.009V108.138H453.575V111H440.612Z" fill="white"/>
</svg>
