<svg width="390" height="179" viewBox="0 0 390 179" fill="none" xmlns="http://www.w3.org/2000/svg">
<rect x="132" width="258" height="92" rx="18" fill="#006DB7"/>
<path d="M76 102L187.5 66.026L155.5 42L76 102Z" fill="#006DB7"/>
<rect x="157.048" y="25.0476" width="41.9048" height="41.9048" rx="20.9524" fill="#0F7338"/>
<rect x="157.048" y="25.0476" width="41.9048" height="41.9048" rx="20.9524" stroke="white" stroke-width="2.09524"/>
<g clip-path="url(#clip0_146_70596)">
<path d="M168.769 46.6547C168.557 46.6311 168.346 46.7052 168.194 46.8563L166.206 48.845C165.855 49.196 165.969 49.7924 166.426 49.9883L169.782 51.4264L170.68 52.3251L169.189 53.8165C168.914 54.0912 168.914 54.5363 169.189 54.8108C169.463 55.0854 169.909 55.0854 170.183 54.8108L171.675 53.3194L172.573 54.2179L174.011 57.5736C174.207 58.0314 174.804 58.1447 175.155 57.7937L177.143 55.8052C177.294 55.6541 177.369 55.4427 177.345 55.2304L176.904 51.2583L179.071 49.2147L183.994 57.6511C184.226 58.0482 184.772 58.1202 185.098 57.7937L187.087 55.8052C187.256 55.6364 187.327 55.3936 187.277 55.1601L186.653 52.2612L188.081 50.8335C188.356 50.5591 188.356 50.1137 188.081 49.8393C187.806 49.5646 187.361 49.5646 187.087 49.8393L186.301 50.6246L185.589 47.3139C185.757 47.2262 185.704 47.2295 187.087 45.8619C187.361 45.5874 187.361 45.1423 187.087 44.8676C186.812 44.5931 186.367 44.5931 186.092 44.8676L185.245 45.7148L184.83 43.7838L188.918 39.9291C190.328 38.6041 190.367 36.3774 188.994 35.0052C187.626 33.6365 185.398 33.6691 184.072 35.0812L180.216 39.1699L178.285 38.7545L179.132 37.9074C179.407 37.6328 179.407 37.1876 179.132 36.9132C178.858 36.6385 178.412 36.6385 178.138 36.9132C176.776 38.2903 176.774 38.2425 176.686 38.4106L173.375 37.6985L174.161 36.9132C174.435 36.6385 174.435 36.1934 174.161 35.9187C173.886 35.6442 173.441 35.6442 173.166 35.9187L171.739 37.3464L168.84 36.7229C168.606 36.6727 168.363 36.7443 168.194 36.9132L166.206 38.9017C166.052 39.0559 165.978 39.2728 166.006 39.4891C166.034 39.7051 166.16 39.8963 166.349 40.0062L174.785 44.9289L172.741 47.096L168.769 46.6547ZM168.95 48.0895L171.534 48.3766L170.009 49.9938L167.934 49.1048L168.95 48.0895ZM175.91 55.0497L174.895 56.0652L174.006 53.991L175.623 52.4659L175.91 55.0497ZM185.822 55.0816L184.748 56.1546L180.121 48.2243L183.634 44.9114L185.822 55.0816ZM185.096 36.0449C185.877 35.2134 187.19 35.1898 188 35.9995C188.805 36.8042 188.792 38.1178 187.954 38.905L173.181 52.8365L172.669 52.3249L174.16 50.8335C174.435 50.5589 174.435 50.1137 174.16 49.8393C173.886 49.5646 173.441 49.5646 173.166 49.8393L171.675 51.3307L171.163 50.8193L185.096 36.0449ZM167.845 39.2512L168.918 38.1781L179.088 40.3656L175.775 43.8787L167.845 39.2512Z" fill="white"/>
</g>
<path d="M226.743 55.5H223.086L229.743 36.5909H233.972L240.638 55.5H236.982L231.931 40.4688H231.784L226.743 55.5ZM226.863 48.0859H236.834V50.8374H226.863V48.0859ZM248.828 55.777C247.406 55.777 246.178 55.4815 245.144 54.8906C244.116 54.2936 243.325 53.4503 242.771 52.3608C242.217 51.2652 241.94 49.9756 241.94 48.4922C241.94 47.0334 242.217 45.7531 242.771 44.6513C243.331 43.5433 244.113 42.6816 245.116 42.0661C246.119 41.4444 247.298 41.1335 248.652 41.1335C249.526 41.1335 250.351 41.2751 251.127 41.5582C251.908 41.8352 252.598 42.2661 253.195 42.8509C253.798 43.4356 254.272 44.1804 254.617 45.0852C254.962 45.9839 255.134 47.0549 255.134 48.2983V49.3232H243.51V47.0703H251.93C251.924 46.4302 251.785 45.8608 251.515 45.3622C251.244 44.8575 250.865 44.4605 250.379 44.1712C249.899 43.8819 249.339 43.7372 248.699 43.7372C248.015 43.7372 247.415 43.9034 246.898 44.2358C246.381 44.562 245.978 44.9929 245.689 45.5284C245.405 46.0578 245.261 46.6394 245.255 47.2734V49.2401C245.255 50.0649 245.405 50.7727 245.707 51.3636C246.009 51.9484 246.43 52.3977 246.972 52.7116C247.514 53.0194 248.148 53.1733 248.874 53.1733C249.36 53.1733 249.8 53.1056 250.194 52.9702C250.588 52.8286 250.93 52.6224 251.219 52.3516C251.508 52.0807 251.727 51.7453 251.875 51.3452L254.995 51.696C254.798 52.5208 254.423 53.241 253.869 53.8565C253.321 54.4659 252.619 54.9399 251.764 55.2784C250.908 55.6108 249.93 55.777 248.828 55.777ZM257.961 55.5V41.3182H261.202V43.6818H261.35C261.608 42.8632 262.052 42.2322 262.68 41.7891C263.314 41.3397 264.037 41.1151 264.849 41.1151C265.034 41.1151 265.24 41.1243 265.468 41.1428C265.702 41.1551 265.896 41.1766 266.05 41.2074V44.282C265.908 44.2327 265.683 44.1896 265.376 44.1527C265.074 44.1096 264.782 44.0881 264.498 44.0881C263.889 44.0881 263.341 44.2204 262.855 44.4851C262.375 44.7436 261.996 45.1037 261.719 45.5653C261.442 46.027 261.304 46.5594 261.304 47.1626V55.5H257.961ZM273.872 55.777C272.487 55.777 271.287 55.4723 270.271 54.8629C269.256 54.2536 268.468 53.401 267.908 52.3054C267.354 51.2098 267.077 49.9295 267.077 48.4645C267.077 46.9995 267.354 45.7161 267.908 44.6143C268.468 43.5125 269.256 42.657 270.271 42.0476C271.287 41.4382 272.487 41.1335 273.872 41.1335C275.257 41.1335 276.457 41.4382 277.473 42.0476C278.489 42.657 279.273 43.5125 279.827 44.6143C280.388 45.7161 280.668 46.9995 280.668 48.4645C280.668 49.9295 280.388 51.2098 279.827 52.3054C279.273 53.401 278.489 54.2536 277.473 54.8629C276.457 55.4723 275.257 55.777 273.872 55.777ZM273.891 53.0994C274.642 53.0994 275.269 52.8932 275.774 52.4808C276.279 52.0623 276.654 51.5021 276.901 50.8004C277.153 50.0987 277.279 49.317 277.279 48.4553C277.279 47.5874 277.153 46.8026 276.901 46.1009C276.654 45.393 276.279 44.8298 275.774 44.4112C275.269 43.9927 274.642 43.7834 273.891 43.7834C273.121 43.7834 272.481 43.9927 271.97 44.4112C271.465 44.8298 271.087 45.393 270.835 46.1009C270.588 46.8026 270.465 47.5874 270.465 48.4553C270.465 49.317 270.588 50.0987 270.835 50.8004C271.087 51.5021 271.465 52.0623 271.97 52.4808C272.481 52.8932 273.121 53.0994 273.891 53.0994ZM283.504 60.8182V41.3182H286.791V43.6634H286.985C287.158 43.3187 287.401 42.9524 287.715 42.5646C288.029 42.1707 288.453 41.8352 288.989 41.5582C289.524 41.2751 290.208 41.1335 291.039 41.1335C292.134 41.1335 293.122 41.4136 294.002 41.9737C294.889 42.5277 295.59 43.3494 296.107 44.4389C296.631 45.5223 296.892 46.8518 296.892 48.4276C296.892 49.9848 296.637 51.3082 296.126 52.3977C295.615 53.4872 294.919 54.3182 294.039 54.8906C293.159 55.4631 292.162 55.7493 291.048 55.7493C290.235 55.7493 289.561 55.6139 289.026 55.343C288.49 55.0722 288.059 54.746 287.733 54.3643C287.413 53.9766 287.164 53.6103 286.985 53.2656H286.847V60.8182H283.504ZM286.782 48.4091C286.782 49.3262 286.911 50.1295 287.17 50.8189C287.435 51.5083 287.813 52.0469 288.306 52.4347C288.804 52.8163 289.407 53.0071 290.115 53.0071C290.854 53.0071 291.472 52.8101 291.971 52.4162C292.47 52.0161 292.845 51.4714 293.097 50.782C293.356 50.0864 293.485 49.2955 293.485 48.4091C293.485 47.5289 293.359 46.7472 293.107 46.0639C292.854 45.3807 292.479 44.8452 291.98 44.4574C291.482 44.0696 290.86 43.8757 290.115 43.8757C289.401 43.8757 288.795 44.0634 288.296 44.4389C287.798 44.8144 287.419 45.3407 287.161 46.0178C286.908 46.6948 286.782 47.492 286.782 48.4091ZM308.794 49.5355V41.3182H312.136V55.5H308.895V52.9794H308.747C308.427 53.7734 307.901 54.4228 307.169 54.9276C306.442 55.4323 305.547 55.6847 304.482 55.6847C303.552 55.6847 302.731 55.4785 302.017 55.0661C301.309 54.6475 300.755 54.0412 300.355 53.2472C299.954 52.447 299.754 51.4806 299.754 50.348V41.3182H303.097V49.831C303.097 50.7296 303.343 51.4437 303.835 51.973C304.328 52.5024 304.974 52.767 305.774 52.767C306.267 52.767 306.744 52.647 307.205 52.407C307.667 52.1669 308.046 51.8099 308.341 51.3359C308.643 50.8558 308.794 50.2557 308.794 49.5355ZM321.851 55.777C320.429 55.777 319.201 55.4815 318.167 54.8906C317.139 54.2936 316.348 53.4503 315.794 52.3608C315.24 51.2652 314.963 49.9756 314.963 48.4922C314.963 47.0334 315.24 45.7531 315.794 44.6513C316.355 43.5433 317.136 42.6816 318.14 42.0661C319.143 41.4444 320.322 41.1335 321.676 41.1335C322.55 41.1335 323.375 41.2751 324.15 41.5582C324.932 41.8352 325.621 42.2661 326.218 42.8509C326.822 43.4356 327.296 44.1804 327.64 45.0852C327.985 45.9839 328.157 47.0549 328.157 48.2983V49.3232H316.533V47.0703H324.953C324.947 46.4302 324.809 45.8608 324.538 45.3622C324.267 44.8575 323.889 44.4605 323.402 44.1712C322.922 43.8819 322.362 43.7372 321.722 43.7372C321.039 43.7372 320.439 43.9034 319.922 44.2358C319.404 44.562 319.001 44.9929 318.712 45.5284C318.429 46.0578 318.284 46.6394 318.278 47.2734V49.2401C318.278 50.0649 318.429 50.7727 318.73 51.3636C319.032 51.9484 319.454 52.3977 319.995 52.7116C320.537 53.0194 321.171 53.1733 321.897 53.1733C322.384 53.1733 322.824 53.1056 323.218 52.9702C323.612 52.8286 323.953 52.6224 324.243 52.3516C324.532 52.0807 324.75 51.7453 324.898 51.3452L328.019 51.696C327.822 52.5208 327.446 53.241 326.892 53.8565C326.345 54.4659 325.643 54.9399 324.787 55.2784C323.932 55.6108 322.953 55.777 321.851 55.777ZM330.985 55.5V41.3182H334.226V43.6818H334.373C334.632 42.8632 335.075 42.2322 335.703 41.7891C336.337 41.3397 337.06 41.1151 337.873 41.1151C338.057 41.1151 338.264 41.1243 338.491 41.1428C338.725 41.1551 338.919 41.1766 339.073 41.2074V44.282C338.931 44.2327 338.707 44.1896 338.399 44.1527C338.097 44.1096 337.805 44.0881 337.522 44.0881C336.912 44.0881 336.365 44.2204 335.878 44.4851C335.398 44.7436 335.02 45.1037 334.743 45.5653C334.466 46.027 334.327 46.5594 334.327 47.1626V55.5H330.985ZM349.137 41.3182V43.9034H340.984V41.3182H349.137ZM342.997 37.9205H346.339V51.2344C346.339 51.6837 346.407 52.0284 346.542 52.2685C346.684 52.5024 346.869 52.6624 347.096 52.7486C347.324 52.8348 347.577 52.8778 347.854 52.8778C348.063 52.8778 348.254 52.8625 348.426 52.8317C348.604 52.8009 348.74 52.7732 348.832 52.7486L349.395 55.3615C349.217 55.4231 348.961 55.4908 348.629 55.5646C348.303 55.6385 347.903 55.6816 347.429 55.6939C346.592 55.7185 345.838 55.5923 345.167 55.3153C344.496 55.0322 343.963 54.5952 343.569 54.0043C343.182 53.4134 342.991 52.6747 342.997 51.7884V37.9205ZM357.966 55.777C356.581 55.777 355.381 55.4723 354.365 54.8629C353.349 54.2536 352.562 53.401 352.001 52.3054C351.447 51.2098 351.17 49.9295 351.17 48.4645C351.17 46.9995 351.447 45.7161 352.001 44.6143C352.562 43.5125 353.349 42.657 354.365 42.0476C355.381 41.4382 356.581 41.1335 357.966 41.1335C359.351 41.1335 360.551 41.4382 361.567 42.0476C362.582 42.657 363.367 43.5125 363.921 44.6143C364.481 45.7161 364.761 46.9995 364.761 48.4645C364.761 49.9295 364.481 51.2098 363.921 52.3054C363.367 53.401 362.582 54.2536 361.567 54.8629C360.551 55.4723 359.351 55.777 357.966 55.777ZM357.984 53.0994C358.735 53.0994 359.363 52.8932 359.868 52.4808C360.373 52.0623 360.748 51.5021 360.994 50.8004C361.247 50.0987 361.373 49.317 361.373 48.4553C361.373 47.5874 361.247 46.8026 360.994 46.1009C360.748 45.393 360.373 44.8298 359.868 44.4112C359.363 43.9927 358.735 43.7834 357.984 43.7834C357.215 43.7834 356.575 43.9927 356.064 44.4112C355.559 44.8298 355.181 45.393 354.928 46.1009C354.682 46.8026 354.559 47.5874 354.559 48.4553C354.559 49.317 354.682 50.0987 354.928 50.8004C355.181 51.5021 355.559 52.0623 356.064 52.4808C356.575 52.8932 357.215 53.0994 357.984 53.0994Z" fill="white"/>
<g clip-path="url(#clip1_146_70596)">
<path d="M4.07031 151.611L60.5203 119.021L88.9903 135.461L71.5003 145.551L64.4703 141.491L25.5103 163.991L4.07031 151.611Z" fill="#F7F7F6"/>
<path d="M4.07031 139.391L60.5203 106.801L88.9903 123.231L71.5003 133.331L64.4703 129.271L25.5103 151.771L4.07031 139.391Z" fill="#F7F7F6"/>
<path d="M88.99 123.23V135.46L71.5 145.55V133.33L88.99 123.23Z" fill="#D2ECFD"/>
<path d="M64.4698 129.271V141.491L25.5098 163.991V151.771L64.4698 129.271Z" fill="#D2ECFD"/>
<path d="M4.07031 139.391V151.611L25.5103 163.991V151.771L4.07031 139.391Z" fill="#BAD1E0"/>
<path d="M71.5007 145.551L64.4707 141.491V129.271L71.5007 133.331V145.551Z" fill="#BAD1E0"/>
<path d="M70.691 133.801L65.291 130.681V141.021L70.691 144.141V133.801Z" fill="#1B9AD1"/>
<path d="M41.5701 143.44V153.78L36.8301 156.51V146.17L41.5701 143.44Z" fill="#93DAF8"/>
<path d="M36.0201 146.641V156.981L31.0801 159.831V149.491L36.0201 146.641Z" fill="#93DAF8"/>
<path d="M47.3209 140.11V150.45L42.3809 153.31V142.97L47.3209 140.11Z" fill="#93DAF8"/>
<path d="M63.6614 130.681V141.021L59.4414 143.461V133.121L63.6614 130.681Z" fill="#93DAF8"/>
<path d="M52.8706 136.911V147.251L48.1406 149.981V139.641L52.8706 136.911Z" fill="#93DAF8"/>
<path d="M58.6197 133.591V143.931L53.6797 146.781V136.441L58.6197 133.591Z" fill="#93DAF8"/>
<path d="M30.2601 160.301L26.3301 162.581V152.241L30.2601 149.961V160.301Z" fill="#93DAF8"/>
<path d="M4.89062 140.801L8.40062 142.831V153.171L4.89062 151.141V140.801Z" fill="#1B9AD1"/>
<path d="M13.9509 146.031V156.371L9.21094 153.641V143.301L13.9509 146.031Z" fill="#1B9AD1"/>
<path d="M24.7015 152.24V162.58L20.5215 160.16V149.82L24.7015 152.24Z" fill="#1B9AD1"/>
<path d="M19.6998 149.35V159.69L14.7598 156.84V146.5L19.6998 149.35Z" fill="#1B9AD1"/>
<path d="M63.6595 131.57V134.94L59.4395 142.21V139.07L63.6595 131.57Z" fill="#CAEBFD"/>
<path d="M58.6193 143.621L58.3493 144.091L55.7793 145.571L58.6193 140.521V143.621Z" fill="#CAEBFD"/>
<path d="M63.6595 137.27L60.3895 142.91L59.4395 143.46V143.34L63.6595 135.84V137.27Z" fill="#CAEBFD"/>
<path d="M52.8706 144.07L50.0906 148.86L48.1406 149.98V149.26L52.8706 140.85V144.07Z" fill="#CAEBFD"/>
<path d="M53.6797 139.4L56.1497 135.02L58.6197 133.59V134.14L53.6797 142.66V139.4Z" fill="#CAEBFD"/>
<path d="M59.4395 133.441L59.7095 132.961L61.1395 132.141L59.4395 135.071V133.441Z" fill="#CAEBFD"/>
<path d="M52.8698 146.4L52.1298 147.68L51.0898 148.28L52.8698 145.12V146.4Z" fill="#CAEBFD"/>
<path d="M58.6197 134.891V136.481L53.6797 145.001V143.671L58.6197 134.891Z" fill="#CAEBFD"/>
<path d="M41.5698 153.781L39.0898 155.211L41.5698 150.811V153.781Z" fill="#CAEBFD"/>
<path d="M47.3209 140.58V143.95L42.3809 152.47V149.36L47.3209 140.58Z" fill="#CAEBFD"/>
<path d="M48.1406 139.64L50.6706 138.18L48.1406 142.55V139.64Z" fill="#CAEBFD"/>
<path d="M47.3204 146.29L43.6904 152.55L42.6504 153.15L47.3204 144.85V146.29Z" fill="#CAEBFD"/>
<path d="M51.2506 137.87L52.6906 137.03L48.1406 144.88V143.4L51.2506 137.87Z" fill="#CAEBFD"/>
<path d="M36.8301 152.72V149.47L39.4701 144.78L41.5701 143.58V144.56L36.8301 152.72Z" fill="#CAEBFD"/>
<path d="M36.0201 154.13L33.5301 158.42L31.0801 159.83V159.7L36.0201 150.91V154.13Z" fill="#CAEBFD"/>
<path d="M42.3809 143.16V143.11L42.4209 143.09L42.3809 143.16Z" fill="#CAEBFD"/>
<path d="M41.5701 145.32V146.9L36.8301 155.06V153.74L41.5701 145.32Z" fill="#CAEBFD"/>
<path d="M36.0195 156.46L35.5695 157.24L34.5195 157.84L36.0195 155.18V156.46Z" fill="#CAEBFD"/>
<path d="M43.0009 142.78L44.4409 141.94L42.3809 145.49V143.87L43.0009 142.78Z" fill="#CAEBFD"/>
<path d="M34.1701 147.771L31.0801 153.111V149.721L31.2201 149.471L34.1701 147.771Z" fill="#CAEBFD"/>
<path d="M26.3301 161.3V158.16L30.2601 151.17V154.51L26.3301 161.3Z" fill="#CAEBFD"/>
<path d="M34.7501 147.47L36.0201 146.73V146.92L31.0801 155.44V153.99L34.7501 147.47Z" fill="#CAEBFD"/>
<path d="M30.2601 156.85L27.2501 162.04L26.3301 162.58V162.44L30.2601 155.44V156.85Z" fill="#CAEBFD"/>
<path d="M72.3203 133.8L77.4803 130.82V134.05L72.3203 137.03V133.8Z" fill="#63CAF6"/>
<path d="M72.3203 137.03V135.66L73.8703 132.9L76.6803 131.28L73.8603 136.14L72.3203 137.03Z" fill="#B1E3FA"/>
<path d="M77.4805 130.82V132.23L75.9005 134.96L74.7305 135.64L77.4305 130.85L77.4805 130.82Z" fill="#B1E3FA"/>
<path d="M77.4803 141.16L72.3203 144.14V137.97L77.4803 134.99V141.16Z" fill="#93DAF8"/>
<path d="M72.3203 141.281V139.881L73.9203 137.051L75.1303 136.351L72.3203 141.281Z" fill="#CAEBFD"/>
<path d="M84.0508 127.021L88.1708 124.641V127.881L84.0508 130.261V127.021Z" fill="#63CAF6"/>
<path d="M88.1708 134.98L84.0508 137.36V131.2L88.1708 128.82V134.98Z" fill="#93DAF8"/>
<path d="M78.3008 130.35L83.2408 127.49V130.73L78.3008 133.58V130.35Z" fill="#63CAF6"/>
<path d="M83.2408 137.83L78.3008 140.69V134.52L83.2408 131.67V137.83Z" fill="#93DAF8"/>
<path d="M87.3404 125.131L88.1704 124.641V127.081L87.4804 128.281L84.6504 129.911L87.3404 125.131Z" fill="#B1E3FA"/>
<path d="M84.0508 131.2L86.6608 129.69L84.0508 134.19V131.2Z" fill="#CAEBFD"/>
<path d="M83.2407 135.59L81.2807 138.96L78.7207 140.44L83.2407 132.42V135.59Z" fill="#CAEBFD"/>
<path d="M87.4208 129.25L88.1708 128.82V129.42L84.0508 136.52V135.24L87.4208 129.25Z" fill="#CAEBFD"/>
<path d="M83.2412 137.83L82.2812 138.39L83.2412 136.69V137.83Z" fill="#CAEBFD"/>
<path d="M77.4803 137.74L74.5003 142.88L72.3203 144.14V143.7L77.0803 135.22L77.4803 134.99V137.74Z" fill="#CAEBFD"/>
<path d="M78.3008 133.58V133.06L80.5608 129.04L83.2408 127.49V127.82L80.7008 132.19L78.3008 133.58Z" fill="#B1E3FA"/>
<path d="M78.3008 134.521L79.8808 133.611L78.3008 136.341V134.521Z" fill="#CAEBFD"/>
<path d="M77.48 140.081L76.54 141.701L75.5 142.301L77.48 138.781V140.081Z" fill="#CAEBFD"/>
<path d="M84.0508 127.1L84.1208 126.99L85.5508 126.16L84.0508 128.75V127.1Z" fill="#B1E3FA"/>
<path d="M82.7399 131.021L81.4199 131.771L83.2399 128.551V130.151L82.7399 131.021Z" fill="#B1E3FA"/>
<path d="M80.6408 133.171L81.9108 132.431L78.3008 138.671V137.331L80.6408 133.171Z" fill="#CAEBFD"/>
<path d="M71.5007 131.611V134.561L64.4707 130.501V127.551L71.5007 131.611Z" fill="#B3B3B3"/>
<path d="M93.06 119.16V122.11L71.5 134.56V131.61L93.06 119.16Z" fill="#EDEDEC"/>
<path d="M25.51 150.041V152.991L0 138.261V135.311L25.51 150.041Z" fill="#B3B3B3"/>
<path d="M25.51 150.04L64.47 127.55L38.96 112.82L0 135.31L25.51 150.04Z" fill="#F7F7F6"/>
<path d="M64.4698 127.55V130.5L25.5098 152.99V150.04L64.4698 127.55Z" fill="#EDEDEC"/>
<path d="M71.5009 131.61L93.0609 119.16L60.5209 100.37L38.9609 112.82L71.5009 131.61Z" fill="#F7F7F6"/>
<path d="M88.9908 119.161L60.5208 102.721L43.3008 112.581L71.7608 129.021L88.9908 119.161Z" fill="#355059"/>
<path d="M82.3205 117.82V119.39L78.5605 117.22V115.65L82.3205 117.82Z" fill="#B3B3B3"/>
<path d="M84.0103 116.84V118.41L82.3203 119.39V117.82L84.0103 116.84Z" fill="#EDEDEC"/>
<path d="M82.3205 117.82L84.0106 116.84L80.2505 114.67L78.5605 115.65L82.3205 117.82Z" fill="#F7F7F6"/>
<path d="M70.5705 124.541V126.111L66.8105 123.941V122.371L70.5705 124.541Z" fill="#B3B3B3"/>
<path d="M72.2603 123.561V125.131L70.5703 126.111V124.541L72.2603 123.561Z" fill="#EDEDEC"/>
<path d="M70.5705 124.541L72.2606 123.561L68.5005 121.391L66.8105 122.371L70.5705 124.541Z" fill="#F7F7F6"/>
<path d="M73.1799 112.501V114.081L69.4199 111.911V110.331L73.1799 112.501Z" fill="#B3B3B3"/>
<path d="M74.8597 111.521V113.101L73.1797 114.081V112.501L74.8597 111.521Z" fill="#EDEDEC"/>
<path d="M73.1799 112.501L74.8599 111.521L71.1099 109.351L69.4199 110.331L73.1799 112.501Z" fill="#F7F7F6"/>
<path d="M61.4299 119.221V120.801L57.6699 118.631V117.051L61.4299 119.221Z" fill="#B3B3B3"/>
<path d="M63.1197 118.24V119.82L61.4297 120.8V119.22L63.1197 118.24Z" fill="#EDEDEC"/>
<path d="M61.4299 119.22L63.1199 118.24L59.3599 116.07L57.6699 117.05L61.4299 119.22Z" fill="#F7F7F6"/>
<path d="M64.0295 107.191V108.771L60.2695 106.601V105.021L64.0295 107.191Z" fill="#B3B3B3"/>
<path d="M65.7193 106.21V107.79L64.0293 108.77V107.19L65.7193 106.21Z" fill="#EDEDEC"/>
<path d="M64.0295 107.19L65.7195 106.21L61.9595 104.04L60.2695 105.02L64.0295 107.19Z" fill="#F7F7F6"/>
<path d="M52.2793 113.91V115.49L48.5293 113.32V111.74L52.2793 113.91Z" fill="#B3B3B3"/>
<path d="M53.9693 112.93V114.51L52.2793 115.49V113.91L53.9693 112.93Z" fill="#EDEDEC"/>
<path d="M52.2793 113.91L53.9693 112.93L50.2093 110.76L48.5293 111.74L52.2793 113.91Z" fill="#F7F7F6"/>
<path d="M64.4698 112.71V124.93L25.5098 147.43V135.21L64.4698 112.71Z" fill="#D2ECFD"/>
<path d="M4.07031 122.83V135.05L25.5103 147.43V135.21L4.07031 122.83Z" fill="#BAD1E0"/>
<path d="M41.5701 126.88V137.22L36.8301 139.95V129.61L41.5701 126.88Z" fill="#63CAF6"/>
<path d="M36.0201 130.08V140.42L31.0801 143.28V132.94L36.0201 130.08Z" fill="#63CAF6"/>
<path d="M47.3209 123.56V133.9L42.3809 136.75V126.41L47.3209 123.56Z" fill="#63CAF6"/>
<path d="M63.6614 114.13V124.47L59.4414 126.9V116.56L63.6614 114.13Z" fill="#63CAF6"/>
<path d="M52.8706 120.36V130.7L48.1406 133.43V123.09L52.8706 120.36Z" fill="#63CAF6"/>
<path d="M58.6197 117.029V127.369L53.6797 130.229V119.889L58.6197 117.029Z" fill="#63CAF6"/>
<path d="M30.2601 143.75L26.3301 146.02V135.68L30.2601 133.41V143.75Z" fill="#63CAF6"/>
<path d="M4.89062 124.24L8.40062 126.27V136.61L4.89062 134.58V124.24Z" fill="#1B9AD1"/>
<path d="M13.9509 129.47V139.81L9.21094 137.08V126.74L13.9509 129.47Z" fill="#1B9AD1"/>
<path d="M24.7015 135.68V146.02L20.5215 143.61V133.27L24.7015 135.68Z" fill="#1B9AD1"/>
<path d="M19.6998 132.799V143.139L14.7598 140.279V129.939L19.6998 132.799Z" fill="#1B9AD1"/>
<path d="M63.6595 115.01V118.38L59.4395 125.66V122.51L63.6595 115.01Z" fill="#B1E3FA"/>
<path d="M58.6193 127.06L58.3493 127.53L55.7793 129.01L58.6193 123.96V127.06Z" fill="#B1E3FA"/>
<path d="M63.6595 120.709L60.3895 126.349L59.4395 126.899V126.779L63.6595 119.279V120.709Z" fill="#B1E3FA"/>
<path d="M52.8706 127.51L50.0906 132.3L48.1406 133.43V132.71L52.8706 124.3V127.51Z" fill="#B1E3FA"/>
<path d="M53.6797 122.849L56.1497 118.459L58.6197 117.029V117.589L53.6797 126.109V122.849Z" fill="#B1E3FA"/>
<path d="M59.4395 116.89L59.7095 116.41L61.1395 115.58L59.4395 118.52V116.89Z" fill="#B1E3FA"/>
<path d="M52.8698 129.849L52.1298 131.119L51.0898 131.719L52.8698 128.569V129.849Z" fill="#B1E3FA"/>
<path d="M58.6197 118.34V119.92L53.6797 128.44V127.12L58.6197 118.34Z" fill="#B1E3FA"/>
<path d="M41.5698 137.22L39.0898 138.65L41.5698 134.25V137.22Z" fill="#B1E3FA"/>
<path d="M47.3209 124.02V127.4L42.3809 135.92V132.8L47.3209 124.02Z" fill="#B1E3FA"/>
<path d="M48.1406 123.09L50.6706 121.63L48.1406 125.99V123.09Z" fill="#B1E3FA"/>
<path d="M47.3204 129.729L43.6904 135.999L42.6504 136.589L47.3204 128.289V129.729Z" fill="#B1E3FA"/>
<path d="M51.2506 121.31L52.6906 120.47L48.1406 128.33V126.84L51.2506 121.31Z" fill="#B1E3FA"/>
<path d="M36.8301 136.17V132.91L39.4701 128.22L41.5701 127.02V128.01L36.8301 136.17Z" fill="#B1E3FA"/>
<path d="M36.0201 137.569L33.5301 141.859L31.0801 143.279V143.139L36.0201 134.359V137.569Z" fill="#B1E3FA"/>
<path d="M42.3809 126.599V126.549L42.4209 126.529L42.3809 126.599Z" fill="#B1E3FA"/>
<path d="M41.5701 128.77V130.34L36.8301 138.5V137.18L41.5701 128.77Z" fill="#B1E3FA"/>
<path d="M36.0195 139.91L35.5695 140.68L34.5195 141.29L36.0195 138.63V139.91Z" fill="#B1E3FA"/>
<path d="M43.0009 126.22L44.4409 125.39L42.3809 128.94V127.32L43.0009 126.22Z" fill="#B1E3FA"/>
<path d="M34.1701 131.22L31.0801 136.55V133.16L31.2201 132.91L34.1701 131.22Z" fill="#B1E3FA"/>
<path d="M26.3301 144.749V141.609L30.2601 134.609V137.959L26.3301 144.749Z" fill="#B1E3FA"/>
<path d="M34.7501 130.91L36.0201 130.17V130.37L31.0801 138.89V137.43L34.7501 130.91Z" fill="#B1E3FA"/>
<path d="M30.2601 140.29L27.2501 145.49L26.3301 146.02V145.88L30.2601 138.88V140.29Z" fill="#B1E3FA"/>
<path d="M67.7105 110.69L43.1905 96.3301L0.810547 120.79L25.5105 135.05L67.7105 110.69Z" fill="#F7F7F6"/>
<path d="M63.6606 110.67L43.1906 98.6797L4.89062 120.79L25.5106 132.7L63.6606 110.67Z" fill="#355059"/>
<path d="M25.5105 135.05V137.09L0.810547 122.83V120.79L25.5105 135.05Z" fill="#B3B3B3"/>
<path d="M67.7098 110.689V112.719L25.5098 137.089V135.049L67.7098 110.689Z" fill="#EDEDEC"/>
<path d="M3.94141 121.81L15.3614 115.22L30.9514 117.63L35.1314 126.63L23.7214 133.22L8.12141 130.81L3.94141 121.81Z" fill="#F7F7F6"/>
<path d="M35.1307 171.87V126.63L23.7207 133.22V178.46L35.1307 171.87Z" fill="#EDEDEC"/>
<path d="M35.1307 129.38V126.63L23.7207 133.22V135.97L35.1307 129.38Z" fill="#C9C9C9"/>
<path d="M8.12109 130.81V176.05L23.7211 178.46V133.22L8.12109 130.81Z" fill="#E0E0DF"/>
<path d="M8.12109 130.81V133.56L23.7211 135.97V133.22L8.12109 130.81Z" fill="#959595"/>
<path d="M3.94141 121.81V167.05L8.12141 176.05V130.81L3.94141 121.81Z" fill="#B3B3B3"/>
<path d="M32.9523 159.359V167.559L32.0723 167.049V159.869L32.9523 159.359Z" fill="#E0E0DF"/>
<path d="M32.0723 167.05L32.9523 167.56L25.9023 171.63V170.61L32.0723 167.05Z" fill="#F7F7F6"/>
<path d="M32.0723 159.869V167.049L25.9023 170.609V163.439L32.0723 159.869Z" fill="#D2ECFD"/>
<path d="M31.6625 166.809V160.579L26.3125 163.669V169.909L31.6625 166.809Z" fill="#93DAF8"/>
<path d="M30.1625 161.439L31.6625 160.579V162.099L27.5525 169.189L26.3125 169.909V168.189L30.1625 161.439Z" fill="#CAEBFD"/>
<path d="M31.6624 164.429L29.5924 168.009L28.4824 168.649L31.6624 163.089V164.429Z" fill="#CAEBFD"/>
<path d="M11.2723 162.729V170.259L10.5723 170.899V162.619L11.2723 162.729Z" fill="#EDEDEC"/>
<path d="M11.2723 170.259L21.2723 171.809V172.549L10.5723 170.899L11.2723 170.259Z" fill="#F7F7F6"/>
<path d="M11.2715 162.729L21.2715 164.269V171.809L11.2715 170.259V162.729Z" fill="#D2ECFD"/>
<path d="M20.8716 164.619L11.6816 163.199V169.909L20.8716 171.339V164.619Z" fill="#23AAE1"/>
<path d="M5.47172 155.989V163.809H4.76172V154.449L5.47172 155.989Z" fill="#D4D4D3"/>
<path d="M5.47172 163.81L7.31172 167.77V169.3L4.76172 163.81H5.47172Z" fill="#DEDEDD"/>
<path d="M5.47266 155.989L7.31266 159.949V167.769L5.47266 163.809V155.989Z" fill="#BAD1E0"/>
<path d="M7.10187 159.989L5.67188 156.909V163.759L7.10187 166.849V159.989Z" fill="#1B9AD1"/>
<path d="M32.9523 148.41V156.6L32.0723 156.09V148.92L32.9523 148.41Z" fill="#E0E0DF"/>
<path d="M32.0723 156.09L32.9523 156.6L25.9023 160.67V159.66L32.0723 156.09Z" fill="#F7F7F6"/>
<path d="M32.0723 148.92V156.09L25.9023 159.66V152.48L32.0723 148.92Z" fill="#D2ECFD"/>
<path d="M31.6625 155.86V149.62L26.3125 152.72V158.95L31.6625 155.86Z" fill="#93DAF8"/>
<path d="M30.5825 150.25L31.6625 149.62V151.63L27.9825 157.98L26.3125 158.95V157.73L30.5825 150.25Z" fill="#CAEBFD"/>
<path d="M31.6623 153.97L30.0223 156.81L28.9023 157.45L31.6623 152.62V153.97Z" fill="#CAEBFD"/>
<path d="M11.2723 151.77V159.31L10.5723 159.94V151.66L11.2723 151.77Z" fill="#EDEDEC"/>
<path d="M11.2723 159.311L21.2723 160.861V161.601L10.5723 159.941L11.2723 159.311Z" fill="#F7F7F6"/>
<path d="M11.2715 151.77L21.2715 153.32V160.86L11.2715 159.31V151.77Z" fill="#D2ECFD"/>
<path d="M20.8716 153.67L11.6816 152.25V158.96L20.8716 160.38V153.67Z" fill="#23AAE1"/>
<path d="M5.47172 145.03V152.85H4.76172V143.5L5.47172 145.03Z" fill="#D4D4D3"/>
<path d="M5.47172 152.85L7.31172 156.82V158.35L4.76172 152.85H5.47172Z" fill="#DEDEDD"/>
<path d="M5.47266 145.029L7.31266 148.989V156.819L5.47266 152.849V145.029Z" fill="#BAD1E0"/>
<path d="M7.10187 149.04L5.67188 145.95V152.81L7.10187 155.89V149.04Z" fill="#1B9AD1"/>
<path d="M32.9523 137.449V145.649L32.0723 145.139V137.959L32.9523 137.449Z" fill="#E0E0DF"/>
<path d="M32.0723 145.14L32.9523 145.65L25.9023 149.72V148.7L32.0723 145.14Z" fill="#F7F7F6"/>
<path d="M32.0723 137.959V145.139L25.9023 148.699V141.529L32.0723 137.959Z" fill="#D2ECFD"/>
<path d="M31.6625 144.899V138.669L26.3125 141.759V147.999L31.6625 144.899Z" fill="#93DAF8"/>
<path d="M31.6625 144.899V138.669L26.3125 141.759V147.999L31.6625 144.899Z" fill="#93DAF8"/>
<path d="M29.9925 139.629L31.6625 138.669V139.979L27.3725 147.379L26.3125 147.999V146.079L29.9925 139.629Z" fill="#CAEBFD"/>
<path d="M31.6625 142.319L29.4125 146.209L28.3125 146.839L31.6625 140.969V142.319Z" fill="#CAEBFD"/>
<path d="M11.2723 140.819V148.349L10.5723 148.989V140.709L11.2723 140.819Z" fill="#EDEDEC"/>
<path d="M11.2723 148.349L21.2723 149.899V150.639L10.5723 148.989L11.2723 148.349Z" fill="#F7F7F6"/>
<path d="M11.2715 140.818L21.2715 142.358V149.898L11.2715 148.348V140.818Z" fill="#D2ECFD"/>
<path d="M20.8716 142.709L11.6816 141.289V147.999L20.8716 149.429V142.709Z" fill="#23AAE1"/>
<path d="M5.47172 134.079V141.899H4.76172V132.539L5.47172 134.079Z" fill="#D4D4D3"/>
<path d="M5.47172 141.899L7.31172 145.859V147.389L4.76172 141.899H5.47172Z" fill="#DEDEDD"/>
<path d="M5.47266 134.079L7.31266 138.039V145.859L5.47266 141.899V134.079Z" fill="#BAD1E0"/>
<path d="M7.10187 138.079L5.67188 134.999V141.849L7.10187 144.939V138.079Z" fill="#1B9AD1"/>
<path d="M3.94141 121.81V124.56L8.12141 133.56V130.81L3.94141 121.81Z" fill="#858585"/>
<path d="M0.470703 115.65L14.4307 107.59L33.4907 110.54L38.6007 121.55L24.6507 129.6L5.5807 126.65L0.470703 115.65Z" fill="#F7F7F6"/>
<path d="M2.41016 115.949L14.9502 108.699L32.0802 111.359L36.6702 121.249L24.1302 128.489L7.00016 125.839L2.41016 115.949Z" fill="#355059"/>
<path d="M0.470703 115.649V119.939L5.5807 130.949V126.649L0.470703 115.649Z" fill="#B3B3B3"/>
<path d="M5.58008 130.95V126.65L24.6501 129.6V133.9L5.58008 130.95Z" fill="#E0E0DF"/>
<path d="M38.6004 121.55V125.84L24.6504 133.9V129.6L38.6004 121.55Z" fill="#EDEDEC"/>
<path d="M8.12078 124.49L6.30078 117.4L24.3808 120.2L23.7208 126.91L8.12078 124.49Z" fill="#D2ECFD"/>
<path d="M23.9416 120.54L6.85156 117.9L8.45156 124.13L23.3516 126.44L23.9416 120.54Z" fill="#21A2D6"/>
<path d="M1.46094 106.96L3.94094 115.49L8.12094 124.49L6.30094 117.4L1.46094 106.96Z" fill="#BAD1E0"/>
<path d="M6.10016 117.45L2.41016 109.48L4.14016 115.43L7.38016 122.4L6.10016 117.45Z" fill="#1A92C6"/>
<path d="M37.6207 112.55L35.1307 120.32L23.7207 126.91L24.3807 120.2L37.6207 112.55Z" fill="#D2ECFD"/>
<path d="M34.7912 120.04L36.9112 113.43L24.7712 120.44L24.2012 126.16L34.7912 120.04Z" fill="#63CAF6"/>
<path d="M28.5601 123.64L25.8301 125.22L30.4301 117.18L33.2601 115.54L28.5601 123.64Z" fill="#B1E3FA"/>
<path d="M30.6007 122.47L29.4707 123.11L34.0707 115.07L35.2907 114.37L30.6007 122.47Z" fill="#B1E3FA"/>
<path d="M0.470703 102.62L14.4307 94.5596L33.4907 97.5096L38.6007 108.52L24.6507 116.58L5.5807 113.63L0.470703 102.62Z" fill="#F7F7F6"/>
<path d="M1.58984 102.789L14.7298 95.209L32.6798 97.979L37.4898 108.349L24.3498 115.939L6.39984 113.159L1.58984 102.789Z" fill="#355059"/>
<path d="M0.470703 102.619V106.919L5.5807 117.919V113.629L0.470703 102.619Z" fill="#B3B3B3"/>
<path d="M5.58008 117.919V113.629L24.6501 116.579V120.869L5.58008 117.919Z" fill="#E0E0DF"/>
<path d="M38.6004 108.52V112.82L24.6504 120.87V116.58L38.6004 108.52Z" fill="#EDEDEC"/>
<path d="M23.922 106.969V115.119L7.58203 112.589V104.439L23.922 106.969Z" fill="#D2ECFD"/>
<path d="M23.5105 107.32L7.98047 104.92V112.24L23.5105 114.64V107.32Z" fill="#23AAE1"/>
<path d="M35.8819 100.06V108.21L23.9219 115.12V106.97L35.8819 100.06Z" fill="#D2ECFD"/>
<path d="M35.4703 107.98V100.77L24.3203 107.2V114.41L35.4703 107.98Z" fill="#93DAF8"/>
<path d="M27.6416 112.499L24.9316 114.059L31.0716 103.309L33.9216 101.659L27.6416 112.499Z" fill="#CAEBFD"/>
<path d="M34.7225 101.21L35.3425 100.85V101.56L29.6725 111.32L28.5625 111.96L34.7225 101.21Z" fill="#CAEBFD"/>
<path d="M7.58117 112.59V104.44L3.20117 95.0098V103.15L7.58117 112.59Z" fill="#BAD1E0"/>
<path d="M7.37039 104.49L3.40039 95.9297V103.11L7.37039 111.67V104.49Z" fill="#1B9AD1"/>
<path d="M1.46094 90.6595L14.6909 83.0195L32.7809 85.8195L37.6209 96.2595L24.3809 103.9L6.30094 101.1L1.46094 90.6595Z" fill="#F7F7F6"/>
<path d="M5.58008 91.2994L15.8001 85.3994L29.7601 87.5594L33.4901 95.6194L23.2801 101.519L9.32008 99.3594L5.58008 91.2994Z" fill="#355059"/>
<path d="M1.46094 90.6592V94.7392L6.30094 105.179V101.099L1.46094 90.6592Z" fill="#B3B3B3"/>
<path d="M6.30078 105.18V101.1L24.3808 103.9V107.97L6.30078 105.18Z" fill="#E0E0DF"/>
<path d="M37.6209 96.2598V100.33L24.3809 107.97V103.9L37.6209 96.2598Z" fill="#EDEDEC"/>
<path d="M22.0202 88.0703V93.3703C22.0202 93.8203 21.7202 94.2603 21.1402 94.6003C19.9602 95.2803 18.0502 95.2803 16.8702 94.6003C16.2802 94.2603 15.9902 93.8103 15.9902 93.3703V88.0703H22.0202Z" fill="url(#paint0_linear_146_70596)"/>
<path d="M19.0005 89.8101C20.6684 89.8101 22.0205 89.0311 22.0205 88.0701C22.0205 87.1091 20.6684 86.3301 19.0005 86.3301C17.3326 86.3301 15.9805 87.1091 15.9805 88.0701C15.9805 89.0311 17.3326 89.8101 19.0005 89.8101Z" fill="#F7F7F6"/>
<path d="M21.2709 83.8896V87.8796C21.2709 88.2196 21.0509 88.5496 20.6009 88.8096C19.7109 89.3196 18.2709 89.3196 17.3809 88.8096C16.9409 88.5496 16.7109 88.2196 16.7109 87.8796V83.8896H21.2709Z" fill="url(#paint1_linear_146_70596)"/>
<path d="M19.0007 85.2001C20.2599 85.2001 21.2807 84.6136 21.2807 83.8901C21.2807 83.1666 20.2599 82.5801 19.0007 82.5801C17.7415 82.5801 16.7207 83.1666 16.7207 83.8901C16.7207 84.6136 17.7415 85.2001 19.0007 85.2001Z" fill="#F7F7F6"/>
<path d="M20.0105 76.5293V83.9293C20.0105 84.0793 19.9105 84.2293 19.7105 84.3393C19.3205 84.5693 18.6805 84.5693 18.2805 84.3393C18.0805 84.2293 17.9805 84.0793 17.9805 83.9293V76.5293H20.0105Z" fill="url(#paint2_linear_146_70596)"/>
<path d="M18.2808 76.1198C17.8908 76.3498 17.8908 76.7198 18.2808 76.9398C18.6708 77.1698 19.3108 77.1698 19.7108 76.9398C20.1008 76.7098 20.1008 76.3398 19.7108 76.1198C19.3208 75.8898 18.6808 75.8898 18.2808 76.1198Z" fill="#F7F7F6"/>
<path d="M11.541 82.63L12.051 82.92C12.051 82.92 18.361 72.43 27.541 71.29L27.031 71C16.021 71.45 11.541 78.14 11.541 78.14V82.63Z" fill="#355059"/>
<path d="M12.0508 82.92C12.0508 82.92 16.5908 76.21 27.5408 74.85V71.29C16.5308 71.75 12.0508 78.44 12.0508 78.44V82.92Z" fill="url(#paint3_linear_146_70596)"/>
</g>
<defs>
<linearGradient id="paint0_linear_146_70596" x1="22.0181" y1="91.5925" x2="15.9782" y2="91.5925" gradientUnits="userSpaceOnUse">
<stop stop-color="#EDEDEC"/>
<stop offset="1" stop-color="#B3B3B3"/>
</linearGradient>
<linearGradient id="paint1_linear_146_70596" x1="21.2748" y1="86.5379" x2="16.7229" y2="86.5379" gradientUnits="userSpaceOnUse">
<stop stop-color="#EDEDEC"/>
<stop offset="1" stop-color="#B3B3B3"/>
</linearGradient>
<linearGradient id="paint2_linear_146_70596" x1="20.0068" y1="80.5168" x2="17.9901" y2="80.5168" gradientUnits="userSpaceOnUse">
<stop stop-color="#EDEDEC"/>
<stop offset="1" stop-color="#B3B3B3"/>
</linearGradient>
<linearGradient id="paint3_linear_146_70596" x1="27.5395" y1="77.109" x2="12.0479" y2="77.109" gradientUnits="userSpaceOnUse">
<stop stop-color="#B3B3B3"/>
<stop offset="0.1874" stop-color="#C6C6C5"/>
<stop offset="0.4734" stop-color="#DBDBDB"/>
<stop offset="0.7488" stop-color="#E9E9E8"/>
<stop offset="1" stop-color="#EDEDEC"/>
</linearGradient>
<clipPath id="clip0_146_70596">
<rect width="24" height="24" fill="white" transform="translate(166 34)"/>
</clipPath>
<clipPath id="clip1_146_70596">
<rect width="93.06" height="107.46" fill="white" transform="translate(0 71)"/>
</clipPath>
</defs>
</svg>
