<svg width="346" height="122" viewBox="0 0 346 122" fill="none" xmlns="http://www.w3.org/2000/svg">
<rect x="56" width="290" height="92" rx="18" fill="#006DB7"/>
<path d="M0 122L111.5 86.026L79.5 62L0 122Z" fill="#006DB7"/>
<rect x="68" y="24" width="44" height="44" rx="22" fill="#81C995"/>
<g clip-path="url(#clip0_229_2746)">
<path d="M100.058 39.231L92.6835 35.718C91.0603 34.7484 89.04 34.7312 87.4005 35.673L79.9436 39.231C79.9156 39.245 79.8866 39.26 79.8596 39.276C78.0899 40.2878 77.4756 42.5426 78.4874 44.3123C78.8304 44.9122 79.3349 45.4037 79.9436 45.731L82.0006 46.711V51.611C82.0018 53.802 83.4275 55.7378 85.5196 56.389C86.9755 56.8102 88.4851 57.0164 90.0006 57.001C91.5159 57.018 93.0255 56.8135 94.4816 56.394C96.5737 55.7429 97.9994 53.8071 98.0006 51.616V46.709L100.001 45.753V54.0009C100.001 54.5532 100.448 55.0009 101.001 55.0009C101.553 55.0009 102.001 54.5532 102.001 54.0009V42.0009C102.007 40.8267 101.08 39.7419 100.058 39.231ZM96.0005 51.616C96.0011 52.9266 95.1507 54.0858 93.9005 54.479C92.6328 54.8412 91.319 55.017 90.0005 55.001C88.6821 55.017 87.3683 54.8412 86.1005 54.479C84.8503 54.0858 84 52.9266 84.0005 51.616V47.664L87.3176 49.244C88.136 49.73 89.0707 49.9854 90.0226 49.983C90.9286 49.9894 91.8193 49.7496 92.5996 49.289L96.0005 47.664V51.616ZM99.2006 43.926L91.6586 47.526C90.607 48.1383 89.3035 48.1209 88.2686 47.481L80.8895 43.971C80.067 43.5274 79.7598 42.5011 80.2033 41.6786C80.3533 41.4005 80.5782 41.1699 80.8526 41.013L88.3475 37.433C89.3995 36.822 90.7022 36.8393 91.7375 37.478L99.1115 40.991C99.6538 41.2921 99.9931 41.8607 100.001 42.481C100.002 43.0685 99.699 43.6149 99.2006 43.926Z" fill="#81C995"/>
<path d="M100.058 39.231L92.6835 35.718C91.0603 34.7484 89.04 34.7312 87.4005 35.673L79.9436 39.231C79.9156 39.245 79.8866 39.26 79.8596 39.276C78.0899 40.2878 77.4756 42.5426 78.4874 44.3123C78.8304 44.9122 79.3349 45.4037 79.9436 45.731L82.0006 46.711V51.611C82.0018 53.802 83.4275 55.7378 85.5196 56.389C86.9755 56.8102 88.4851 57.0164 90.0006 57.001C91.5159 57.018 93.0255 56.8135 94.4816 56.394C96.5737 55.7429 97.9994 53.8071 98.0006 51.616V46.709L100.001 45.753V54.0009C100.001 54.5532 100.448 55.0009 101.001 55.0009C101.553 55.0009 102.001 54.5532 102.001 54.0009V42.0009C102.007 40.8267 101.08 39.7419 100.058 39.231ZM96.0005 51.616C96.0011 52.9266 95.1507 54.0858 93.9005 54.479C92.6328 54.8412 91.319 55.017 90.0005 55.001C88.6821 55.017 87.3683 54.8412 86.1005 54.479C84.8503 54.0858 84 52.9266 84.0005 51.616V47.664L87.3176 49.244C88.136 49.73 89.0707 49.9854 90.0226 49.983C90.9286 49.9894 91.8193 49.7496 92.5996 49.289L96.0005 47.664V51.616ZM99.2006 43.926L91.6586 47.526C90.607 48.1383 89.3035 48.1209 88.2686 47.481L80.8895 43.971C80.067 43.5274 79.7598 42.5011 80.2033 41.6786C80.3533 41.4005 80.5782 41.1699 80.8526 41.013L88.3475 37.433C89.3995 36.822 90.7022 36.8393 91.7375 37.478L99.1115 40.991C99.6538 41.2921 99.9931 41.8607 100.001 42.481C100.002 43.0685 99.699 43.6149 99.2006 43.926Z" fill="black" fill-opacity="0.5"/>
</g>
<path d="M146.05 36.4709H142.597C142.499 35.9046 142.317 35.4029 142.053 34.9659C141.788 34.5227 141.459 34.1473 141.065 33.8395C140.671 33.5317 140.221 33.3009 139.717 33.147C139.218 32.987 138.679 32.907 138.101 32.907C137.073 32.907 136.162 33.1655 135.368 33.6825C134.574 34.1934 133.952 34.9444 133.503 35.9354C133.054 36.9202 132.829 38.1236 132.829 39.5455C132.829 40.992 133.054 42.2107 133.503 43.2017C133.958 44.1866 134.58 44.9313 135.368 45.4361C136.162 45.9347 137.07 46.1839 138.092 46.1839C138.658 46.1839 139.187 46.1101 139.68 45.9624C140.178 45.8085 140.625 45.5838 141.018 45.2884C141.419 44.9929 141.754 44.6297 142.025 44.1989C142.302 43.768 142.493 43.2756 142.597 42.7216L146.05 42.7401C145.921 43.6387 145.641 44.482 145.21 45.2699C144.786 46.0578 144.228 46.7533 143.539 47.3565C142.85 47.9536 142.043 48.4214 141.12 48.7599C140.197 49.0923 139.172 49.2585 138.045 49.2585C136.384 49.2585 134.9 48.8738 133.595 48.1044C132.29 47.335 131.262 46.224 130.511 44.7713C129.76 43.3187 129.385 41.5767 129.385 39.5455C129.385 37.508 129.763 35.7661 130.521 34.3196C131.278 32.867 132.309 31.7559 133.614 30.9865C134.919 30.2171 136.396 29.8324 138.045 29.8324C139.098 29.8324 140.077 29.9801 140.982 30.2756C141.886 30.571 142.693 31.005 143.401 31.5774C144.108 32.1437 144.69 32.8393 145.146 33.6641C145.607 34.4827 145.909 35.4183 146.05 36.4709ZM155.226 49.277C153.841 49.277 152.64 48.9723 151.625 48.3629C150.609 47.7536 149.821 46.901 149.261 45.8054C148.707 44.7098 148.43 43.4295 148.43 41.9645C148.43 40.4995 148.707 39.2161 149.261 38.1143C149.821 37.0125 150.609 36.157 151.625 35.5476C152.64 34.9382 153.841 34.6335 155.226 34.6335C156.611 34.6335 157.811 34.9382 158.827 35.5476C159.842 36.157 160.627 37.0125 161.181 38.1143C161.741 39.2161 162.021 40.4995 162.021 41.9645C162.021 43.4295 161.741 44.7098 161.181 45.8054C160.627 46.901 159.842 47.7536 158.827 48.3629C157.811 48.9723 156.611 49.277 155.226 49.277ZM155.244 46.5994C155.995 46.5994 156.623 46.3932 157.128 45.9808C157.632 45.5623 158.008 45.0021 158.254 44.3004C158.506 43.5987 158.633 42.817 158.633 41.9553C158.633 41.0874 158.506 40.3026 158.254 39.6009C158.008 38.893 157.632 38.3298 157.128 37.9112C156.623 37.4927 155.995 37.2834 155.244 37.2834C154.475 37.2834 153.835 37.4927 153.324 37.9112C152.819 38.3298 152.44 38.893 152.188 39.6009C151.942 40.3026 151.819 41.0874 151.819 41.9553C151.819 42.817 151.942 43.5987 152.188 44.3004C152.44 45.0021 152.819 45.5623 153.324 45.9808C153.835 46.3932 154.475 46.5994 155.244 46.5994ZM168.2 30.0909V49H164.858V30.0909H168.2ZM177.916 49.277C176.494 49.277 175.266 48.9815 174.232 48.3906C173.204 47.7936 172.413 46.9503 171.859 45.8608C171.305 44.7652 171.028 43.4756 171.028 41.9922C171.028 40.5334 171.305 39.2531 171.859 38.1513C172.419 37.0433 173.201 36.1816 174.204 35.5661C175.207 34.9444 176.386 34.6335 177.74 34.6335C178.614 34.6335 179.439 34.7751 180.215 35.0582C180.996 35.3352 181.686 35.7661 182.283 36.3509C182.886 36.9356 183.36 37.6804 183.705 38.5852C184.049 39.4839 184.222 40.5549 184.222 41.7983V42.8232H172.597V40.5703H181.018C181.012 39.9302 180.873 39.3608 180.602 38.8622C180.332 38.3575 179.953 37.9605 179.467 37.6712C178.987 37.3819 178.427 37.2372 177.786 37.2372C177.103 37.2372 176.503 37.4034 175.986 37.7358C175.469 38.062 175.066 38.4929 174.776 39.0284C174.493 39.5578 174.349 40.1394 174.343 40.7734V42.7401C174.343 43.5649 174.493 44.2727 174.795 44.8636C175.097 45.4484 175.518 45.8977 176.06 46.2116C176.602 46.5194 177.235 46.6733 177.962 46.6733C178.448 46.6733 178.888 46.6056 179.282 46.4702C179.676 46.3286 180.018 46.1224 180.307 45.8516C180.596 45.5807 180.815 45.2453 180.963 44.8452L184.083 45.196C183.886 46.0208 183.511 46.741 182.957 47.3565C182.409 47.9659 181.707 48.4399 180.852 48.7784C179.996 49.1108 179.017 49.277 177.916 49.277ZM193.217 54.6136C192.017 54.6136 190.986 54.4505 190.124 54.1243C189.262 53.8042 188.57 53.3733 188.047 52.8317C187.523 52.29 187.16 51.6899 186.957 51.0312L189.967 50.3018C190.102 50.5788 190.299 50.8527 190.558 51.1236C190.816 51.4006 191.164 51.6283 191.601 51.8068C192.044 51.9915 192.601 52.0838 193.272 52.0838C194.22 52.0838 195.005 51.853 195.627 51.3913C196.248 50.9358 196.559 50.1849 196.559 49.1385V46.4517H196.393C196.221 46.7964 195.968 47.1503 195.636 47.5135C195.31 47.8767 194.876 48.1813 194.334 48.4276C193.799 48.6738 193.125 48.7969 192.312 48.7969C191.223 48.7969 190.235 48.5414 189.348 48.0305C188.468 47.5135 187.766 46.7441 187.243 45.7223C186.726 44.6944 186.468 43.4079 186.468 41.8629C186.468 40.3056 186.726 38.9915 187.243 37.9205C187.766 36.8433 188.471 36.0277 189.358 35.4737C190.244 34.9136 191.232 34.6335 192.321 34.6335C193.152 34.6335 193.836 34.7751 194.371 35.0582C194.913 35.3352 195.344 35.6707 195.664 36.0646C195.984 36.4524 196.227 36.8187 196.393 37.1634H196.578V34.8182H199.874V49.2308C199.874 50.4434 199.585 51.4467 199.006 52.2408C198.427 53.0348 197.636 53.6288 196.633 54.0227C195.63 54.4167 194.491 54.6136 193.217 54.6136ZM193.245 46.1747C193.953 46.1747 194.556 46.0024 195.054 45.6577C195.553 45.313 195.931 44.8175 196.19 44.1712C196.449 43.5249 196.578 42.7493 196.578 41.8445C196.578 40.9519 196.449 40.1702 196.19 39.4993C195.938 38.8284 195.562 38.3082 195.064 37.9389C194.571 37.5634 193.965 37.3757 193.245 37.3757C192.5 37.3757 191.878 37.5696 191.38 37.9574C190.881 38.3452 190.506 38.8776 190.253 39.5547C190.001 40.2256 189.875 40.9889 189.875 41.8445C189.875 42.7124 190.001 43.4725 190.253 44.125C190.512 44.7713 190.89 45.276 191.389 45.6392C191.894 45.9962 192.512 46.1747 193.245 46.1747ZM203.299 49V34.8182H206.642V49H203.299ZM204.98 32.8054C204.45 32.8054 203.995 32.63 203.613 32.2791C203.232 31.9221 203.041 31.4943 203.041 30.9957C203.041 30.491 203.232 30.0632 203.613 29.7124C203.995 29.3553 204.45 29.1768 204.98 29.1768C205.515 29.1768 205.971 29.3553 206.346 29.7124C206.728 30.0632 206.919 30.491 206.919 30.9957C206.919 31.4943 206.728 31.9221 206.346 32.2791C205.971 32.63 205.515 32.8054 204.98 32.8054ZM216.265 49.277C214.88 49.277 213.68 48.9723 212.664 48.3629C211.648 47.7536 210.86 46.901 210.3 45.8054C209.746 44.7098 209.469 43.4295 209.469 41.9645C209.469 40.4995 209.746 39.2161 210.3 38.1143C210.86 37.0125 211.648 36.157 212.664 35.5476C213.68 34.9382 214.88 34.6335 216.265 34.6335C217.65 34.6335 218.85 34.9382 219.866 35.5476C220.881 36.157 221.666 37.0125 222.22 38.1143C222.78 39.2161 223.06 40.4995 223.06 41.9645C223.06 43.4295 222.78 44.7098 222.22 45.8054C221.666 46.901 220.881 47.7536 219.866 48.3629C218.85 48.9723 217.65 49.277 216.265 49.277ZM216.283 46.5994C217.034 46.5994 217.662 46.3932 218.167 45.9808C218.671 45.5623 219.047 45.0021 219.293 44.3004C219.546 43.5987 219.672 42.817 219.672 41.9553C219.672 41.0874 219.546 40.3026 219.293 39.6009C219.047 38.893 218.671 38.3298 218.167 37.9112C217.662 37.4927 217.034 37.2834 216.283 37.2834C215.514 37.2834 214.874 37.4927 214.363 37.9112C213.858 38.3298 213.479 38.893 213.227 39.6009C212.981 40.3026 212.858 41.0874 212.858 41.9553C212.858 42.817 212.981 43.5987 213.227 44.3004C213.479 45.0021 213.858 45.5623 214.363 45.9808C214.874 46.3932 215.514 46.5994 216.283 46.5994ZM231.663 32.9624V30.0909H246.75V32.9624H240.905V49H237.507V32.9624H231.663ZM256.62 43.0355V34.8182H259.962V49H256.721V46.4794H256.574C256.253 47.2734 255.727 47.9228 254.995 48.4276C254.268 48.9323 253.373 49.1847 252.308 49.1847C251.378 49.1847 250.557 48.9785 249.843 48.5661C249.135 48.1475 248.581 47.5412 248.181 46.7472C247.781 45.947 247.581 44.9806 247.581 43.848V34.8182H250.923V43.331C250.923 44.2296 251.169 44.9437 251.662 45.473C252.154 46.0024 252.8 46.267 253.6 46.267C254.093 46.267 254.57 46.147 255.032 45.907C255.493 45.6669 255.872 45.3099 256.167 44.8359C256.469 44.3558 256.62 43.7557 256.62 43.0355ZM263.399 49V34.8182H266.64V37.1818H266.787C267.046 36.3632 267.489 35.7322 268.117 35.2891C268.751 34.8397 269.474 34.6151 270.287 34.6151C270.471 34.6151 270.678 34.6243 270.905 34.6428C271.139 34.6551 271.333 34.6766 271.487 34.7074V37.782C271.345 37.7327 271.121 37.6896 270.813 37.6527C270.511 37.6096 270.219 37.5881 269.936 37.5881C269.327 37.5881 268.779 37.7204 268.292 37.9851C267.812 38.2436 267.434 38.6037 267.157 39.0653C266.88 39.527 266.741 40.0594 266.741 40.6626V49H263.399ZM273.708 49V34.8182H277.05V49H273.708ZM275.388 32.8054C274.859 32.8054 274.403 32.63 274.021 32.2791C273.64 31.9221 273.449 31.4943 273.449 30.9957C273.449 30.491 273.64 30.0632 274.021 29.7124C274.403 29.3553 274.859 29.1768 275.388 29.1768C275.923 29.1768 276.379 29.3553 276.754 29.7124C277.136 30.0632 277.327 30.491 277.327 30.9957C277.327 31.4943 277.136 31.9221 276.754 32.2791C276.379 32.63 275.923 32.8054 275.388 32.8054ZM286.673 49.277C285.257 49.277 284.042 48.9661 283.026 48.3445C282.016 47.7228 281.238 46.8641 280.69 45.7685C280.148 44.6667 279.877 43.3987 279.877 41.9645C279.877 40.5241 280.154 39.2531 280.708 38.1513C281.262 37.0433 282.044 36.1816 283.054 35.5661C284.069 34.9444 285.27 34.6335 286.654 34.6335C287.806 34.6335 288.824 34.8459 289.711 35.2706C290.603 35.6892 291.314 36.2831 291.843 37.0526C292.373 37.8158 292.674 38.7083 292.748 39.7301H289.554C289.424 39.0469 289.117 38.4775 288.63 38.022C288.15 37.5604 287.507 37.3295 286.701 37.3295C286.017 37.3295 285.417 37.5142 284.9 37.8835C284.383 38.2467 283.98 38.7699 283.691 39.4531C283.408 40.1364 283.266 40.955 283.266 41.9091C283.266 42.8755 283.408 43.7064 283.691 44.402C283.974 45.0914 284.371 45.6238 284.882 45.9993C285.399 46.3686 286.005 46.5533 286.701 46.5533C287.193 46.5533 287.633 46.4609 288.021 46.2763C288.415 46.0855 288.744 45.8116 289.009 45.4545C289.274 45.0975 289.455 44.6636 289.554 44.1527H292.748C292.668 45.156 292.373 46.0455 291.862 46.821C291.351 47.5904 290.655 48.1937 289.775 48.6307C288.895 49.0616 287.861 49.277 286.673 49.277ZM299.574 49.2862C298.675 49.2862 297.866 49.1262 297.145 48.8061C296.431 48.4799 295.865 47.9998 295.447 47.3658C295.034 46.7318 294.828 45.95 294.828 45.0206C294.828 44.2204 294.976 43.5587 295.271 43.0355C295.567 42.5123 295.97 42.0938 296.481 41.7798C296.992 41.4659 297.567 41.2289 298.207 41.0689C298.854 40.9027 299.521 40.7827 300.211 40.7088C301.042 40.6226 301.716 40.5457 302.233 40.478C302.75 40.4041 303.125 40.2933 303.359 40.1456C303.599 39.9917 303.719 39.7547 303.719 39.4347V39.3793C303.719 38.6837 303.513 38.1451 303.101 37.7635C302.688 37.3819 302.094 37.1911 301.319 37.1911C300.5 37.1911 299.851 37.3696 299.371 37.7266C298.897 38.0836 298.577 38.5052 298.41 38.9915L295.29 38.5483C295.536 37.6866 295.942 36.9664 296.508 36.3878C297.075 35.803 297.767 35.366 298.586 35.0767C299.404 34.7812 300.309 34.6335 301.3 34.6335C301.983 34.6335 302.664 34.7135 303.341 34.8736C304.018 35.0336 304.636 35.2983 305.197 35.6676C305.757 36.0308 306.206 36.5263 306.545 37.1541C306.889 37.782 307.062 38.5668 307.062 39.5085V49H303.849V47.0518H303.738C303.535 47.4458 303.248 47.8151 302.879 48.1598C302.516 48.4983 302.057 48.7723 301.503 48.9815C300.956 49.1847 300.312 49.2862 299.574 49.2862ZM300.442 46.8303C301.113 46.8303 301.694 46.6979 302.187 46.4332C302.679 46.1624 303.058 45.8054 303.322 45.3622C303.593 44.919 303.729 44.4358 303.729 43.9126V42.2415C303.624 42.3277 303.445 42.4077 303.193 42.4815C302.947 42.5554 302.67 42.62 302.362 42.6754C302.054 42.7308 301.75 42.7801 301.448 42.8232C301.146 42.8662 300.885 42.9032 300.663 42.9339C300.165 43.0017 299.718 43.1125 299.324 43.2663C298.93 43.4202 298.62 43.6357 298.392 43.9126C298.164 44.1835 298.05 44.5343 298.05 44.9652C298.05 45.5807 298.275 46.0455 298.724 46.3594C299.174 46.6733 299.746 46.8303 300.442 46.8303ZM310.422 49V34.8182H313.663V37.1818H313.811C314.069 36.3632 314.513 35.7322 315.14 35.2891C315.774 34.8397 316.498 34.6151 317.31 34.6151C317.495 34.6151 317.701 34.6243 317.929 34.6428C318.163 34.6551 318.357 34.6766 318.51 34.7074V37.782C318.369 37.7327 318.144 37.6896 317.836 37.6527C317.535 37.6096 317.242 37.5881 316.959 37.5881C316.35 37.5881 315.802 37.7204 315.316 37.9851C314.836 38.2436 314.457 38.6037 314.18 39.0653C313.903 39.527 313.765 40.0594 313.765 40.6626V49H310.422ZM324.558 49.2862C323.659 49.2862 322.85 49.1262 322.13 48.8061C321.416 48.4799 320.849 47.9998 320.431 47.3658C320.019 46.7318 319.812 45.95 319.812 45.0206C319.812 44.2204 319.96 43.5587 320.256 43.0355C320.551 42.5123 320.954 42.0938 321.465 41.7798C321.976 41.4659 322.551 41.2289 323.192 41.0689C323.838 40.9027 324.506 40.7827 325.195 40.7088C326.026 40.6226 326.7 40.5457 327.217 40.478C327.734 40.4041 328.11 40.2933 328.344 40.1456C328.584 39.9917 328.704 39.7547 328.704 39.4347V39.3793C328.704 38.6837 328.497 38.1451 328.085 37.7635C327.673 37.3819 327.079 37.1911 326.303 37.1911C325.484 37.1911 324.835 37.3696 324.355 37.7266C323.881 38.0836 323.561 38.5052 323.395 38.9915L320.274 38.5483C320.52 37.6866 320.926 36.9664 321.493 36.3878C322.059 35.803 322.751 35.366 323.57 35.0767C324.389 34.7812 325.294 34.6335 326.285 34.6335C326.968 34.6335 327.648 34.7135 328.325 34.8736C329.002 35.0336 329.621 35.2983 330.181 35.6676C330.741 36.0308 331.19 36.5263 331.529 37.1541C331.874 37.782 332.046 38.5668 332.046 39.5085V49H328.833V47.0518H328.722C328.519 47.4458 328.233 47.8151 327.863 48.1598C327.5 48.4983 327.042 48.7723 326.488 48.9815C325.94 49.1847 325.297 49.2862 324.558 49.2862ZM325.426 46.8303C326.097 46.8303 326.679 46.6979 327.171 46.4332C327.663 46.1624 328.042 45.8054 328.307 45.3622C328.577 44.919 328.713 44.4358 328.713 43.9126V42.2415C328.608 42.3277 328.43 42.4077 328.177 42.4815C327.931 42.5554 327.654 42.62 327.346 42.6754C327.039 42.7308 326.734 42.7801 326.432 42.8232C326.131 42.8662 325.869 42.9032 325.648 42.9339C325.149 43.0017 324.703 43.1125 324.309 43.2663C323.915 43.4202 323.604 43.6357 323.376 43.9126C323.148 44.1835 323.035 44.5343 323.035 44.9652C323.035 45.5807 323.259 46.0455 323.709 46.3594C324.158 46.6733 324.73 46.8303 325.426 46.8303ZM325.149 32.9531L327.217 28.7337H330.486L327.651 32.9531H325.149Z" fill="white"/>
<defs>
<clipPath id="clip0_229_2746">
<rect width="24" height="24" fill="white" transform="translate(78 34)"/>
</clipPath>
</defs>
</svg>
