<svg width="512" height="120" viewBox="0 0 678 159" fill="none" xmlns="http://www.w3.org/2000/svg">
<path d="M3.03906 124.306L50.0886 97.8389L106.076 129.744L59.1548 156.802L3.03906 124.306Z" fill="#3B495C"/>
<path d="M106.076 129.744V131.942L59.1543 158.999V156.801L106.076 129.744Z" fill="#233143"/>
<path d="M3.03906 124.307V126.505L59.1548 159V156.802L3.03906 124.307Z" fill="#233143"/>
<path d="M50.6332 73.3643L10.4199 96.1944V123.151L50.6332 100.028V73.3643Z" fill="#C6C3C1"/>
<path d="M12.7361 96.6875L11.123 97.6014V124.563L12.7361 123.635V96.6875Z" fill="#FBAD32"/>
<path opacity="0.5" d="M23.3063 104.169L11.9277 110.713V113.61L25.8424 105.613L23.3063 104.169Z" fill="white"/>
<path opacity="0.5" d="M26.8843 106.202L11.9277 114.802V115.643L27.62 106.618L26.8843 106.202Z" fill="white"/>
<path opacity="0.5" d="M11.9277 97.7119V98.667L12.764 98.1872L11.9277 97.7119Z" fill="white"/>
<path opacity="0.5" d="M11.9277 124.098L30.1973 134.599V108.085L30.1105 108.035L11.9277 118.486V124.098Z" fill="white"/>
<path opacity="0.5" d="M28.141 106.915L11.9277 116.237V117.891L29.585 107.738L28.141 106.915Z" fill="white"/>
<path d="M41.8172 99.0511V98.457L27.6191 106.618L28.1401 106.916L41.8172 99.0511Z" fill="white"/>
<path opacity="0.8" d="M27.62 106.618L11.9277 115.643V116.237L28.141 106.915L27.62 106.618Z" fill="white"/>
<path d="M41.9607 100.623L29.5859 107.738L30.1115 108.035L41.9607 101.217V100.623Z" fill="white"/>
<path opacity="0.8" d="M11.9277 117.891V118.485L30.1105 108.034L29.585 107.737L11.9277 117.891Z" fill="white"/>
<path d="M41.8174 97.6155V96.4229L25.8418 105.612L26.8837 106.202L41.8174 97.6155Z" fill="white"/>
<path opacity="0.8" d="M25.8424 105.613L11.9277 113.61V114.803L26.8843 106.203L25.8424 105.613Z" fill="white"/>
<path d="M35.6212 97.0857V85.04L12.7637 98.187L23.3059 104.169L35.6212 97.0857Z" fill="white"/>
<path opacity="0.8" d="M12.764 98.1875L11.9277 98.6673V110.713L23.3063 104.169L12.764 98.1875Z" fill="white"/>
<path d="M99.4047 102.445L59.1914 125.275V152.232L99.4047 129.109V102.445Z" fill="#FBAD32"/>
<path d="M40.5936 112.736L38.9805 113.655V140.611L40.5936 139.684V112.736Z" fill="#FBAD32"/>
<path d="M11.1511 97.999L9.69336 97.1719V123.767L11.1511 124.608V97.999Z" fill="#FBAD32"/>
<path d="M29.6621 108.51V135.252L38.9797 140.612V113.801L29.6621 108.51Z" fill="#FBAD32"/>
<path opacity="0.5" d="M53.5799 121.446L39.9531 129.283V130.12L54.3157 121.862L53.5799 121.446Z" fill="white"/>
<path opacity="0.5" d="M54.8366 122.159L39.9531 130.714V132.368L56.2852 122.977L54.8366 122.159Z" fill="white"/>
<path opacity="0.5" d="M50.0019 119.412L39.9531 125.188V128.09L52.538 120.852L50.0019 119.412Z" fill="white"/>
<path opacity="0.5" d="M39.9531 140.09L58.2182 150.591V124.078L56.8061 123.273L39.9531 132.966V140.09Z" fill="white"/>
<path opacity="0.8" d="M54.3157 121.862L39.9531 130.12V130.714L54.8366 122.159L54.3157 121.862Z" fill="white"/>
<path opacity="0.8" d="M39.9531 132.367V132.966L56.8061 123.274L56.2852 122.977L39.9531 132.367Z" fill="white"/>
<path opacity="0.8" d="M52.538 120.852L39.9531 128.09V129.283L53.5799 121.446L52.538 120.852Z" fill="white"/>
<path opacity="0.8" d="M39.9531 113.705V125.189L50.0019 119.413L39.9531 113.705Z" fill="white"/>
<path d="M49.1786 119.001L48.6074 118.677V145.058L49.1786 145.387V119.001Z" fill="#888D9A"/>
<path d="M57.2344 124.165V151.108L59.1902 152.232V125.275L57.2344 124.165Z" fill="#FBAD32"/>
<path d="M59.1906 125.888L56.1289 118.677L99.4038 93.8271V103.085L59.1906 125.888Z" fill="#BECCC6"/>
<path d="M99.4053 93.8271L53.4891 120.468L9.74805 95.687L55.5866 69L99.4053 93.8271Z" fill="white"/>
<path d="M93.9581 94.654L95.4707 93.7812L55.8241 70.8643L16.7441 93.5345L18.3618 94.4895L55.9292 72.6967L93.9581 94.654Z" fill="#7C8982"/>
<path d="M93.9569 94.6546L55.928 72.6973L23.4375 91.5427L61.4116 113.473L93.9569 94.6546Z" fill="#A2AAA6"/>
<path d="M56.3263 116.416L61.4123 113.473L23.4383 91.543L18.3613 94.4904L56.3263 116.416Z" fill="#8C9993"/>
<path d="M10.1502 88.499V89.189L3.03516 93.2972V92.6072L10.1502 88.499Z" fill="#243954"/>
<path d="M10.1502 94.9648V95.6594L3.03516 99.7676V99.073L10.1502 94.9648Z" fill="#243954"/>
<path d="M8.7832 87.3154L58.2866 115.419V126.4L8.7832 97.9354V87.3154Z" fill="#243954"/>
<path d="M9.69257 86.8262L8.7832 87.3151L58.2866 115.419L59.1914 114.93L9.69257 86.8262Z" fill="#243954"/>
<path d="M58.2871 126.4L59.1919 125.911V114.93L58.2871 115.419V126.4Z" fill="#243954"/>
<path d="M31.8594 118.782L37.4572 122.013V120.153L31.8594 117.005V118.782Z" fill="white"/>
<path d="M54.2155 138.761L50.8613 136.841V130.878L54.2155 132.797V138.761Z" fill="#243954"/>
<path d="M53.8908 133.104L51.1855 131.555V131.92L53.8908 133.469V133.104Z" fill="white"/>
<path d="M53.8908 133.839L51.1855 132.29V132.66L53.8908 134.209V133.839Z" fill="white"/>
<path d="M51.3223 134.25C51.3223 133.729 51.5279 133.542 51.8112 133.706C52.0945 133.871 52.3002 134.296 52.3002 134.817C52.3002 135.342 52.0945 135.534 51.8112 135.37C51.5233 135.205 51.3223 134.776 51.3223 134.25ZM51.9894 134.639C51.9894 134.268 51.9072 134.095 51.8067 134.035C51.7061 133.976 51.6284 134.058 51.6284 134.428C51.6284 134.803 51.7107 134.981 51.8067 135.041C51.9072 135.096 51.9894 135.009 51.9894 134.639ZM51.8798 136.462L52.9399 134.36L53.1913 134.506L52.1357 136.613L51.8798 136.462ZM52.7663 136.137C52.7663 135.616 52.9765 135.429 53.2552 135.594C53.5386 135.758 53.7442 136.183 53.7442 136.704C53.7442 137.23 53.5386 137.422 53.2552 137.257C52.9719 137.092 52.7663 136.663 52.7663 136.137ZM53.438 136.526C53.438 136.151 53.3558 135.982 53.2598 135.923C53.1593 135.863 53.077 135.941 53.077 136.316C53.077 136.69 53.1593 136.869 53.2598 136.928C53.3558 136.983 53.438 136.901 53.438 136.526Z" fill="white"/>
<path d="M47.2188 130.316L45.2676 129.201V125.729L47.2188 126.844V130.316Z" fill="#243954"/>
<path d="M28.0859 127.396L21.1445 123.421V111.073L28.0859 115.049V127.396Z" fill="#243954"/>
<path d="M27.6697 117.279L21.7383 113.884V114.574L27.6697 117.969V117.279Z" fill="white"/>
<path d="M27.6697 116.041L21.7383 112.646V113.336L27.6697 116.731V116.041Z" fill="white"/>
<path d="M8.36203 87.2881L0.662109 91.6613V102.642L8.36203 98.2142V87.2881Z" fill="#243954"/>
<path d="M8.36203 92.1221L0.662109 96.4953V97.1487L8.36203 92.7253V92.1221Z" fill="white"/>
<path d="M8.36203 93.6035L0.662109 97.9721V98.6302L8.36203 94.2021V93.6035Z" fill="white"/>
<path d="M8.36203 95.0107L0.662109 99.3839V100.037L8.36203 95.6094V95.0107Z" fill="white"/>
<path d="M0 102.249L0.662605 102.642V91.6606L0 91.2676V102.249Z" fill="#243954"/>
<path d="M8.36253 87.2878L7.69992 86.8994L0 91.268L0.662605 91.661L8.36253 87.2878Z" fill="#243954"/>
<rect x="166" width="512" height="141" rx="18" fill="#006DB7"/>
<path d="M110 102L221.5 66.026L189.5 42L110 102Z" fill="#006DB7"/>
<rect x="191.048" y="49.5476" width="41.9048" height="41.9048" rx="20.9524" fill="#FFB600"/>
<rect x="191.048" y="49.5476" width="41.9048" height="41.9048" rx="20.9524" stroke="white" stroke-width="2.09524"/>
<path d="M200.375 78.8886C200.375 78.9261 200.379 78.9599 200.39 78.9936C200.39 79.0049 200.398 79.0161 200.401 79.0274C200.413 79.0574 200.431 79.0874 200.454 79.1136C200.458 79.1211 200.461 79.1249 200.465 79.1324C200.465 79.1324 200.469 79.1324 200.472 79.1361C200.499 79.1661 200.529 79.1924 200.566 79.2111C202.205 80.0699 206.255 81.5661 206.424 81.6261C206.439 81.6299 206.45 81.6299 206.465 81.6336C206.472 81.6336 206.48 81.6411 206.491 81.6449C206.589 81.6599 206.713 81.6674 206.855 81.6674C209.938 81.6674 222.789 78.0411 223.359 77.8799C223.531 77.8311 223.644 77.6624 223.621 77.4824C223.014 72.7236 221.375 64.9574 221.36 64.8786C221.36 64.8749 221.356 64.8711 221.356 64.8674C221.345 64.8299 221.33 64.7961 221.311 64.7624C221.308 64.7549 221.304 64.7474 221.3 64.7436C221.278 64.7099 221.244 64.6799 221.21 64.6574C221.195 64.6461 221.176 64.6386 221.157 64.6311C221.142 64.6236 221.128 64.6124 221.109 64.6086L217.625 63.5849C216.267 60.5474 214.318 59.0849 211.989 59.3586C211.501 59.4149 211.051 59.5499 210.642 59.7561C210.436 59.7186 210.222 59.6961 210.001 59.6924C208.899 59.6811 207.961 60.1161 207.226 60.9824C206.341 62.0136 205.786 63.6674 205.561 65.8911C203.615 66.2361 202.186 66.4799 202.164 66.4836C202.149 66.4836 202.141 66.4949 202.126 66.4986C202.119 66.4986 202.107 66.4986 202.1 66.4986C202.089 66.4986 202.081 66.5099 202.074 66.5174C202.044 66.5324 202.018 66.5474 201.995 66.5661C201.98 66.5774 201.969 66.5886 201.957 66.6036C201.935 66.6261 201.92 66.6524 201.905 66.6824C201.901 66.6936 201.89 66.7011 201.886 66.7124C201.159 68.6249 200.409 78.4461 200.379 78.8624V78.8661V78.8849L200.375 78.8886ZM206.533 66.4574C206.574 66.4499 206.615 66.4424 206.66 66.4349C207.151 66.3449 207.661 66.2549 208.182 66.1574C208.197 66.5436 208.227 66.9411 208.273 67.3536C206.499 67.6986 205.344 67.8899 204.837 67.9199L203.281 67.0274C204.054 66.8924 205.213 66.6936 206.536 66.4536L206.533 66.4574ZM208.16 65.4224C207.995 65.4524 207.83 65.4824 207.665 65.5124C207.823 64.3986 208.081 63.5099 208.422 62.8911C208.246 63.6261 208.156 64.4736 208.156 65.4224H208.16ZM203.416 76.9686L205.674 80.5724C204.504 80.1261 202.584 79.3761 201.38 78.8061L203.42 76.9724L203.416 76.9686ZM203.859 76.3049V68.2011L204.406 68.5161C204.552 69.9261 205.201 75.9861 205.749 79.3236L203.859 76.3086V76.3049ZM202.438 67.3874L203.131 67.7849V76.2486L201.17 78.0149C201.361 75.6749 201.905 69.4724 202.434 67.3874H202.438ZM206.806 80.9511C206.405 79.6761 205.606 73.0086 205.145 68.6286C205.76 68.5611 206.803 68.3849 208.351 68.0811C208.475 68.9549 208.621 69.6336 208.707 70.0049C208.831 70.4849 209.262 70.8224 209.757 70.8224C209.847 70.8224 209.938 70.8111 210.024 70.7886C210.597 70.6424 210.954 70.0574 210.811 69.4761C210.688 68.9774 210.568 68.3174 210.477 67.6499C212.142 67.3049 214.108 66.8849 216.331 66.3899C216.519 67.0536 216.68 67.7474 216.796 68.4111C216.796 68.4261 216.8 68.4374 216.804 68.4486C216.845 68.7336 216.995 68.9849 217.227 69.1574C217.46 69.3299 217.741 69.4049 218.03 69.3599C218.319 69.3186 218.57 69.1649 218.743 68.9324C218.915 68.6999 218.986 68.4149 218.945 68.1299C218.93 68.0211 218.791 67.1099 218.454 65.9099C219.481 65.6774 220.287 65.4936 220.722 65.3924C221.045 66.9449 222.305 73.1174 222.856 77.2649C218.761 78.4161 208.955 81.0261 206.802 80.9399L206.806 80.9511ZM211.805 61.6161C211.839 61.6049 211.869 61.5899 211.903 61.5824C212.007 61.5524 212.12 61.5261 212.236 61.5111C212.263 61.5111 212.292 61.5111 212.319 61.5074C212.911 62.1636 213.395 63.1049 213.755 64.3161C213.736 64.3199 213.714 64.3236 213.695 64.3311C213.523 64.3686 213.342 64.4061 213.159 64.4474C212.773 63.1799 212.236 62.2724 211.565 61.7286C211.58 61.7211 211.591 61.7136 211.602 61.7061C211.666 61.6724 211.734 61.6461 211.805 61.6199V61.6161ZM210.403 66.9261C210.365 66.5286 210.339 66.1349 210.331 65.7524C211.318 65.5611 212.199 65.3849 212.971 65.2236H212.979C213.069 65.2049 213.155 65.1861 213.245 65.1674C213.372 65.1411 213.492 65.1149 213.612 65.0886C213.627 65.0886 213.642 65.0811 213.657 65.0774C213.815 65.0436 213.969 65.0099 214.115 64.9761C214.171 64.9649 214.231 64.9499 214.287 64.9386C214.842 64.8149 215.319 64.7024 215.709 64.6011C215.851 64.9349 215.99 65.2986 216.118 65.6886C213.95 66.1724 212.03 66.5849 210.399 66.9224L210.403 66.9261ZM214.464 64.1586C214.171 63.1649 213.8 62.3286 213.35 61.6574C214.111 61.9724 214.801 62.7374 215.401 63.9336C215.127 64.0011 214.813 64.0761 214.46 64.1586H214.464ZM211.003 62.2424C211.003 62.2424 211.014 62.2311 211.017 62.2236C211.599 62.6474 212.086 63.4574 212.443 64.5936C211.805 64.7249 211.1 64.8636 210.328 65.0136C210.369 63.7799 210.597 62.8236 211.003 62.2424ZM218.24 65.2236C218.154 64.9611 218.068 64.7024 217.974 64.4511L219.575 64.9236C219.193 65.0099 218.743 65.1149 218.244 65.2274L218.24 65.2236ZM212.071 60.0861C212.229 60.0674 212.382 60.0599 212.536 60.0599C214.378 60.0599 215.885 61.3949 217.029 64.0386C217.257 64.5786 217.468 65.1599 217.651 65.7599C218.052 67.0874 218.21 68.1299 218.225 68.2461C218.24 68.3399 218.214 68.4336 218.157 68.5124C218.101 68.5874 218.019 68.6399 217.921 68.6511C217.827 68.6661 217.737 68.6399 217.659 68.5836C217.584 68.5274 217.535 68.4449 217.52 68.3474C217.52 68.3361 217.513 68.3061 217.513 68.2949C217.374 67.4886 217.175 66.6486 216.935 65.8574C216.721 65.1674 216.5 64.5711 216.249 64.0274C215.266 61.8674 214.01 60.7724 212.517 60.7724C212.499 60.7724 212.484 60.7724 212.465 60.7724C212.364 60.7649 212.255 60.7799 212.15 60.7911C211.554 60.8624 211.055 61.0986 210.68 61.4924C210.68 61.4924 210.68 61.4924 210.676 61.4961C210.579 61.5936 210.489 61.7061 210.403 61.8261C209.859 62.6099 209.585 63.8324 209.589 65.4561C209.589 66.0824 209.634 66.7386 209.712 67.4061C209.806 68.2049 209.953 69.0449 210.106 69.6486C210.151 69.8399 210.035 70.0311 209.847 70.0799C209.671 70.1249 209.461 70.0086 209.413 69.8099C209.341 69.4986 209.158 68.6624 209.023 67.6011C208.94 66.9374 208.895 66.3036 208.884 65.7149C208.85 64.0386 209.094 62.7111 209.604 61.7699C209.682 61.6236 209.746 61.5186 209.818 61.4174C209.889 61.3124 209.968 61.2149 210.046 61.1211C210.286 60.8436 210.564 60.6186 210.868 60.4499C211.227 60.2549 211.629 60.1274 212.071 60.0786V60.0861ZM207.774 61.4586C208.299 60.8399 208.944 60.4986 209.698 60.4349C209.653 60.4799 209.611 60.5286 209.566 60.5774C209.536 60.6111 209.506 60.6411 209.476 60.6749C209.386 60.7799 209.3 60.8924 209.217 61.0086C209.18 61.0611 209.142 61.1211 209.105 61.1811C209.094 61.1999 209.083 61.2186 209.071 61.2374C209.056 61.2636 209.041 61.2861 209.026 61.3124C208.715 61.4474 208.434 61.6611 208.182 61.9499C207.549 62.6924 207.121 63.9374 206.908 65.6549C206.758 65.6811 206.611 65.7074 206.461 65.7374C206.405 65.7486 206.349 65.7561 206.293 65.7674C206.51 63.8211 207.016 62.3399 207.77 61.4624L207.774 61.4586Z" fill="white"/>
<path d="M216.514 72.8254C216.158 72.5217 215.64 72.3567 214.984 72.3267L213.975 72.2854C213.645 72.2704 213.552 72.2104 213.54 72.2029C213.529 72.1954 213.507 72.1804 213.507 72.0979C213.507 72.0154 213.518 71.8879 213.668 71.7417C213.799 71.6142 214.005 71.5204 214.275 71.4717C214.515 71.4267 214.714 71.4117 214.868 71.4304C215.033 71.4492 215.19 71.4792 215.322 71.5204C215.558 71.5954 215.775 71.5992 215.967 71.5279C216.15 71.4604 216.297 71.3442 216.402 71.1867C216.499 71.0442 216.555 70.8867 216.574 70.7142C216.593 70.5304 216.559 70.3579 216.473 70.1967C216.383 70.0242 216.24 69.8967 216.072 69.8254C215.82 69.6979 215.532 69.6154 215.213 69.5817C215.13 69.5742 215.052 69.5667 214.969 69.5629L214.958 69.3904C214.943 69.1467 214.842 68.9404 214.658 68.7942C214.474 68.6479 214.249 68.5954 214.009 68.6367C213.777 68.6779 213.578 68.7942 213.432 68.9779C213.285 69.1617 213.21 69.3754 213.222 69.6042L213.233 69.8854C212.978 69.9904 212.745 70.1217 212.543 70.2754C212.198 70.5342 211.924 70.8454 211.729 71.2054C211.527 71.5804 211.425 71.9892 211.425 72.4204C211.425 73.0129 211.605 73.4854 211.954 73.8192C212.299 74.1492 212.809 74.3292 213.469 74.3592L214.5 74.4042C214.718 74.4117 214.838 74.4379 214.902 74.4642C214.984 74.4942 215.003 74.5204 215.007 74.5242C215.025 74.5542 215.04 74.5954 215.044 74.6517C215.052 74.7342 215.033 74.8092 214.995 74.8842C214.954 74.9592 214.875 75.0379 214.759 75.1092C214.624 75.1954 214.433 75.2629 214.185 75.3117C213.837 75.3829 213.54 75.3979 213.304 75.3642C213.057 75.3267 212.865 75.2817 212.734 75.2292C212.415 75.1092 212.172 75.1692 212.022 75.2404C211.834 75.3304 211.68 75.4692 211.568 75.6567C211.463 75.8329 211.399 76.0242 211.38 76.2267C211.362 76.4367 211.392 76.6354 211.47 76.8229C211.564 77.0442 211.74 77.2054 211.969 77.2879C212.22 77.3892 212.524 77.4604 212.892 77.5092C213.079 77.5354 213.282 77.5392 213.503 77.5317L213.514 77.8242C213.525 78.1092 213.627 78.3529 213.814 78.5292C213.972 78.6792 214.17 78.7579 214.384 78.7579C214.448 78.7579 214.512 78.7504 214.575 78.7392C214.842 78.6829 215.063 78.5292 215.217 78.2892C215.359 78.0679 215.427 77.8204 215.408 77.5542L215.382 77.0967C215.674 76.9579 215.937 76.7854 216.162 76.5904C216.51 76.2904 216.777 75.9304 216.953 75.5217C217.129 75.1167 217.197 74.6742 217.155 74.2129C217.103 73.6167 216.885 73.1554 216.51 72.8367L216.514 72.8254ZM216.289 75.2179C216.154 75.5254 215.955 75.7954 215.689 76.0242C215.464 76.2192 215.187 76.3842 214.872 76.5117C214.725 76.5717 214.635 76.7142 214.647 76.8679L214.688 77.5767C214.695 77.6892 214.669 77.7867 214.609 77.8767C214.545 77.9742 214.478 77.9967 214.429 78.0079C214.358 78.0229 214.335 78.0042 214.317 77.9854C214.287 77.9592 214.249 77.9067 214.242 77.7829L214.219 77.1117C214.219 77.0104 214.17 76.9129 214.092 76.8492C214.024 76.7929 213.942 76.7629 213.855 76.7629C213.84 76.7629 213.825 76.7629 213.81 76.7629C213.495 76.8004 213.222 76.8042 212.989 76.7742C212.685 76.7329 212.434 76.6729 212.228 76.5942C212.164 76.5717 212.149 76.5454 212.138 76.5192C212.108 76.4479 212.097 76.3654 212.104 76.2754C212.112 76.1817 212.138 76.0992 212.187 76.0204C212.228 75.9529 212.273 75.9117 212.333 75.8817C212.363 75.8667 212.412 75.8704 212.464 75.8929C212.644 75.9642 212.884 76.0242 213.192 76.0692C213.51 76.1179 213.889 76.0992 214.32 76.0129C214.658 75.9454 214.928 75.8479 215.138 75.7129C215.363 75.5704 215.528 75.4017 215.629 75.2142C215.73 75.0192 215.775 74.8129 215.76 74.5954C215.749 74.4079 215.693 74.2392 215.595 74.1004C215.494 73.9504 215.337 73.8417 215.134 73.7704C214.969 73.7104 214.763 73.6804 214.515 73.6729L213.488 73.6279C213.012 73.6092 212.659 73.4929 212.445 73.2904C212.243 73.0954 212.142 72.8104 212.142 72.4167C212.142 72.1017 212.213 71.8167 212.359 71.5467C212.505 71.2767 212.708 71.0479 212.97 70.8492C213.18 70.6917 213.428 70.5642 213.713 70.4704C213.867 70.4179 213.968 70.2754 213.96 70.1142L213.942 69.5704C213.942 69.5179 213.957 69.4729 213.994 69.4279C214.032 69.3829 214.073 69.3567 214.129 69.3492C214.178 69.3417 214.189 69.3492 214.2 69.3567C214.212 69.3679 214.227 69.3754 214.227 69.4242L214.257 69.9454C214.268 70.1442 214.44 70.2979 214.639 70.2867C214.819 70.2754 214.973 70.2792 215.13 70.2979C215.359 70.3204 215.562 70.3804 215.753 70.4742C215.809 70.4967 215.82 70.5229 215.828 70.5342C215.847 70.5679 215.854 70.6017 215.847 70.6392C215.843 70.6917 215.824 70.7367 215.794 70.7817C215.779 70.8042 215.757 70.8267 215.708 70.8492C215.697 70.8529 215.652 70.8642 215.539 70.8304C215.355 70.7742 215.157 70.7367 214.943 70.7142C214.718 70.6917 214.455 70.7067 214.144 70.7629C213.728 70.8379 213.398 70.9954 213.162 71.2242C212.903 71.4754 212.772 71.7867 212.779 72.1204C212.79 72.4879 212.97 72.6942 213.117 72.7992C213.3 72.9304 213.559 72.9979 213.942 73.0167L214.95 73.0579C215.445 73.0804 215.813 73.1929 216.045 73.3879C216.27 73.5792 216.402 73.8679 216.435 74.2729C216.465 74.6179 216.417 74.9292 216.289 75.2254V75.2179Z" fill="white"/>
<path d="M262.141 35.2891C262.055 34.4827 261.692 33.8549 261.052 33.4055C260.418 32.9562 259.593 32.7315 258.577 32.7315C257.863 32.7315 257.251 32.8393 256.74 33.0547C256.229 33.2701 255.838 33.5625 255.567 33.9318C255.297 34.3011 255.158 34.7228 255.152 35.1967C255.152 35.5907 255.241 35.9323 255.42 36.2216C255.604 36.5109 255.854 36.7571 256.168 36.9602C256.482 37.1572 256.829 37.3234 257.211 37.4588C257.593 37.5942 257.977 37.7081 258.365 37.8004L260.138 38.2436C260.852 38.4098 261.538 38.6345 262.197 38.9176C262.862 39.2008 263.455 39.5578 263.979 39.9886C264.508 40.4195 264.927 40.9396 265.234 41.549C265.542 42.1584 265.696 42.8724 265.696 43.6911C265.696 44.799 265.413 45.7746 264.847 46.6179C264.28 47.455 263.462 48.1106 262.391 48.5845C261.326 49.0523 260.036 49.2862 258.522 49.2862C257.051 49.2862 255.774 49.0585 254.69 48.603C253.613 48.1475 252.77 47.4827 252.161 46.6087C251.557 45.7346 251.231 44.6697 251.182 43.4141H254.552C254.601 44.0727 254.804 44.6205 255.161 45.0575C255.518 45.4946 255.983 45.8208 256.555 46.0362C257.134 46.2517 257.78 46.3594 258.494 46.3594C259.239 46.3594 259.892 46.2486 260.452 46.027C261.018 45.7992 261.461 45.4853 261.781 45.0852C262.101 44.679 262.264 44.205 262.271 43.6634C262.264 43.1709 262.12 42.7647 261.837 42.4446C261.554 42.1184 261.156 41.8475 260.646 41.6321C260.141 41.4105 259.55 41.2135 258.873 41.0412L256.722 40.4872C255.164 40.0871 253.933 39.4808 253.028 38.6683C252.13 37.8497 251.68 36.7633 251.68 35.4091C251.68 34.295 251.982 33.3194 252.585 32.4822C253.195 31.6451 254.022 30.9957 255.069 30.5341C256.115 30.0663 257.3 29.8324 258.624 29.8324C259.965 29.8324 261.141 30.0663 262.151 30.5341C263.166 30.9957 263.963 31.639 264.542 32.4638C265.121 33.2824 265.419 34.2242 265.438 35.2891H262.141ZM272.683 49.2862C271.784 49.2862 270.975 49.1262 270.255 48.8061C269.541 48.4799 268.974 47.9998 268.556 47.3658C268.144 46.7318 267.937 45.95 267.937 45.0206C267.937 44.2204 268.085 43.5587 268.381 43.0355C268.676 42.5123 269.079 42.0938 269.59 41.7798C270.101 41.4659 270.676 41.2289 271.317 41.0689C271.963 40.9027 272.631 40.7827 273.32 40.7088C274.151 40.6226 274.825 40.5457 275.342 40.478C275.859 40.4041 276.235 40.2933 276.469 40.1456C276.709 39.9917 276.829 39.7547 276.829 39.4347V39.3793C276.829 38.6837 276.622 38.1451 276.21 37.7635C275.798 37.3819 275.204 37.1911 274.428 37.1911C273.609 37.1911 272.96 37.3696 272.48 37.7266C272.006 38.0836 271.686 38.5052 271.52 38.9915L268.399 38.5483C268.645 37.6866 269.051 36.9664 269.618 36.3878C270.184 35.803 270.876 35.366 271.695 35.0767C272.514 34.7812 273.419 34.6335 274.41 34.6335C275.093 34.6335 275.773 34.7135 276.45 34.8736C277.127 35.0336 277.746 35.2983 278.306 35.6676C278.866 36.0308 279.315 36.5263 279.654 37.1541C279.999 37.782 280.171 38.5668 280.171 39.5085V49H276.958V47.0518H276.847C276.644 47.4458 276.358 47.8151 275.988 48.1598C275.625 48.4983 275.167 48.7723 274.613 48.9815C274.065 49.1847 273.422 49.2862 272.683 49.2862ZM273.551 46.8303C274.222 46.8303 274.804 46.6979 275.296 46.4332C275.788 46.1624 276.167 45.8054 276.432 45.3622C276.702 44.919 276.838 44.4358 276.838 43.9126V42.2415C276.733 42.3277 276.555 42.4077 276.302 42.4815C276.056 42.5554 275.779 42.62 275.471 42.6754C275.164 42.7308 274.859 42.7801 274.557 42.8232C274.256 42.8662 273.994 42.9032 273.773 42.9339C273.274 43.0017 272.828 43.1125 272.434 43.2663C272.04 43.4202 271.729 43.6357 271.501 43.9126C271.273 44.1835 271.16 44.5343 271.16 44.9652C271.16 45.5807 271.384 46.0455 271.834 46.3594C272.283 46.6733 272.855 46.8303 273.551 46.8303ZM286.874 30.0909V49H283.532V30.0909H286.874ZM294.392 49.2862C293.493 49.2862 292.684 49.1262 291.964 48.8061C291.25 48.4799 290.683 47.9998 290.265 47.3658C289.853 46.7318 289.646 45.95 289.646 45.0206C289.646 44.2204 289.794 43.5587 290.089 43.0355C290.385 42.5123 290.788 42.0938 291.299 41.7798C291.81 41.4659 292.385 41.2289 293.026 41.0689C293.672 40.9027 294.34 40.7827 295.029 40.7088C295.86 40.6226 296.534 40.5457 297.051 40.478C297.568 40.4041 297.944 40.2933 298.178 40.1456C298.418 39.9917 298.538 39.7547 298.538 39.4347V39.3793C298.538 38.6837 298.331 38.1451 297.919 37.7635C297.507 37.3819 296.913 37.1911 296.137 37.1911C295.318 37.1911 294.669 37.3696 294.189 37.7266C293.715 38.0836 293.395 38.5052 293.229 38.9915L290.108 38.5483C290.354 37.6866 290.76 36.9664 291.327 36.3878C291.893 35.803 292.585 35.366 293.404 35.0767C294.223 34.7812 295.128 34.6335 296.119 34.6335C296.802 34.6335 297.482 34.7135 298.159 34.8736C298.836 35.0336 299.455 35.2983 300.015 35.6676C300.575 36.0308 301.024 36.5263 301.363 37.1541C301.708 37.782 301.88 38.5668 301.88 39.5085V49H298.667V47.0518H298.556C298.353 47.4458 298.067 47.8151 297.697 48.1598C297.334 48.4983 296.876 48.7723 296.322 48.9815C295.774 49.1847 295.131 49.2862 294.392 49.2862ZM295.26 46.8303C295.931 46.8303 296.513 46.6979 297.005 46.4332C297.497 46.1624 297.876 45.8054 298.141 45.3622C298.411 44.919 298.547 44.4358 298.547 43.9126V42.2415C298.442 42.3277 298.264 42.4077 298.011 42.4815C297.765 42.5554 297.488 42.62 297.18 42.6754C296.873 42.7308 296.568 42.7801 296.266 42.8232C295.965 42.8662 295.703 42.9032 295.482 42.9339C294.983 43.0017 294.537 43.1125 294.143 43.2663C293.749 43.4202 293.438 43.6357 293.21 43.9126C292.982 44.1835 292.869 44.5343 292.869 44.9652C292.869 45.5807 293.093 46.0455 293.543 46.3594C293.992 46.6733 294.564 46.8303 295.26 46.8303ZM316.953 49.2493C315.839 49.2493 314.842 48.9631 313.961 48.3906C313.081 47.8182 312.386 46.9872 311.875 45.8977C311.364 44.8082 311.108 43.4848 311.108 41.9276C311.108 40.3518 311.367 39.0223 311.884 37.9389C312.407 36.8494 313.112 36.0277 313.998 35.4737C314.885 34.9136 315.873 34.6335 316.962 34.6335C317.793 34.6335 318.476 34.7751 319.012 35.0582C319.547 35.3352 319.972 35.6707 320.286 36.0646C320.6 36.4524 320.843 36.8187 321.015 37.1634H321.154V30.0909H324.505V49H321.218V46.7656H321.015C320.843 47.1103 320.594 47.4766 320.267 47.8643C319.941 48.246 319.51 48.5722 318.975 48.843C318.439 49.1139 317.765 49.2493 316.953 49.2493ZM317.885 46.5071C318.593 46.5071 319.196 46.3163 319.695 45.9347C320.194 45.5469 320.572 45.0083 320.831 44.3189C321.089 43.6295 321.218 42.8262 321.218 41.9091C321.218 40.992 321.089 40.1948 320.831 39.5178C320.578 38.8407 320.203 38.3144 319.704 37.9389C319.212 37.5634 318.605 37.3757 317.885 37.3757C317.141 37.3757 316.519 37.5696 316.02 37.9574C315.522 38.3452 315.146 38.8807 314.894 39.5639C314.641 40.2472 314.515 41.0289 314.515 41.9091C314.515 42.7955 314.641 43.5864 314.894 44.282C315.152 44.9714 315.531 45.5161 316.029 45.9162C316.534 46.3101 317.153 46.5071 317.885 46.5071ZM334.345 49.277C332.923 49.277 331.695 48.9815 330.661 48.3906C329.633 47.7936 328.843 46.9503 328.289 45.8608C327.735 44.7652 327.458 43.4756 327.458 41.9922C327.458 40.5334 327.735 39.2531 328.289 38.1513C328.849 37.0433 329.63 36.1816 330.634 35.5661C331.637 34.9444 332.816 34.6335 334.17 34.6335C335.044 34.6335 335.869 34.7751 336.644 35.0582C337.426 35.3352 338.115 35.7661 338.713 36.3509C339.316 36.9356 339.79 37.6804 340.134 38.5852C340.479 39.4839 340.651 40.5549 340.651 41.7983V42.8232H329.027V40.5703H337.448C337.441 39.9302 337.303 39.3608 337.032 38.8622C336.761 38.3575 336.383 37.9605 335.896 37.6712C335.416 37.3819 334.856 37.2372 334.216 37.2372C333.533 37.2372 332.933 37.4034 332.416 37.7358C331.899 38.062 331.495 38.4929 331.206 39.0284C330.923 39.5578 330.778 40.1394 330.772 40.7734V42.7401C330.772 43.5649 330.923 44.2727 331.225 44.8636C331.526 45.4484 331.948 45.8977 332.49 46.2116C333.031 46.5194 333.665 46.6733 334.392 46.6733C334.878 46.6733 335.318 46.6056 335.712 46.4702C336.106 46.3286 336.447 46.1224 336.737 45.8516C337.026 45.5807 337.244 45.2453 337.392 44.8452L340.513 45.196C340.316 46.0208 339.941 46.741 339.387 47.3565C338.839 47.9659 338.137 48.4399 337.281 48.7784C336.426 49.1108 335.447 49.277 334.345 49.277ZM352.606 30.0909L357.527 44.9744H357.721L362.633 30.0909H366.4L359.734 49H355.505L348.848 30.0909H352.606ZM373.498 49.277C372.076 49.277 370.848 48.9815 369.814 48.3906C368.786 47.7936 367.995 46.9503 367.441 45.8608C366.887 44.7652 366.61 43.4756 366.61 41.9922C366.61 40.5334 366.887 39.2531 367.441 38.1513C368.001 37.0433 368.783 36.1816 369.786 35.5661C370.789 34.9444 371.968 34.6335 373.322 34.6335C374.196 34.6335 375.021 34.7751 375.797 35.0582C376.578 35.3352 377.268 35.7661 377.865 36.3509C378.468 36.9356 378.942 37.6804 379.287 38.5852C379.631 39.4839 379.804 40.5549 379.804 41.7983V42.8232H368.18V40.5703H376.6C376.594 39.9302 376.455 39.3608 376.184 38.8622C375.914 38.3575 375.535 37.9605 375.049 37.6712C374.569 37.3819 374.009 37.2372 373.368 37.2372C372.685 37.2372 372.085 37.4034 371.568 37.7358C371.051 38.062 370.648 38.4929 370.358 39.0284C370.075 39.5578 369.931 40.1394 369.925 40.7734V42.7401C369.925 43.5649 370.075 44.2727 370.377 44.8636C370.679 45.4484 371.1 45.8977 371.642 46.2116C372.184 46.5194 372.818 46.6733 373.544 46.6733C374.03 46.6733 374.47 46.6056 374.864 46.4702C375.258 46.3286 375.6 46.1224 375.889 45.8516C376.178 45.5807 376.397 45.2453 376.545 44.8452L379.665 45.196C379.468 46.0208 379.093 46.741 378.539 47.3565C377.991 47.9659 377.289 48.4399 376.434 48.7784C375.578 49.1108 374.599 49.277 373.498 49.277ZM385.974 40.6903V49H382.631V34.8182H385.826V37.228H385.992C386.318 36.4339 386.839 35.803 387.553 35.3352C388.273 34.8674 389.162 34.6335 390.221 34.6335C391.2 34.6335 392.052 34.8428 392.778 35.2614C393.511 35.6799 394.077 36.2862 394.477 37.0803C394.884 37.8743 395.084 38.8376 395.077 39.9702V49H391.735V40.4872C391.735 39.5393 391.489 38.7976 390.996 38.2621C390.51 37.7266 389.836 37.4588 388.974 37.4588C388.39 37.4588 387.87 37.5881 387.414 37.8466C386.965 38.099 386.611 38.4652 386.352 38.9453C386.1 39.4254 385.974 40.0071 385.974 40.6903ZM405.557 34.8182V37.4034H397.404V34.8182H405.557ZM399.417 31.4205H402.759V44.7344C402.759 45.1837 402.827 45.5284 402.962 45.7685C403.104 46.0024 403.289 46.1624 403.516 46.2486C403.744 46.3348 403.996 46.3778 404.273 46.3778C404.483 46.3778 404.674 46.3625 404.846 46.3317C405.024 46.3009 405.16 46.2732 405.252 46.2486L405.815 48.8615C405.637 48.9231 405.381 48.9908 405.049 49.0646C404.723 49.1385 404.323 49.1816 403.849 49.1939C403.012 49.2185 402.258 49.0923 401.587 48.8153C400.916 48.5322 400.383 48.0952 399.989 47.5043C399.602 46.9134 399.411 46.1747 399.417 45.2884V31.4205ZM412.433 49.2862C411.534 49.2862 410.725 49.1262 410.005 48.8061C409.291 48.4799 408.724 47.9998 408.306 47.3658C407.894 46.7318 407.687 45.95 407.687 45.0206C407.687 44.2204 407.835 43.5587 408.131 43.0355C408.426 42.5123 408.829 42.0938 409.34 41.7798C409.851 41.4659 410.426 41.2289 411.067 41.0689C411.713 40.9027 412.381 40.7827 413.07 40.7088C413.901 40.6226 414.575 40.5457 415.092 40.478C415.609 40.4041 415.985 40.2933 416.219 40.1456C416.459 39.9917 416.579 39.7547 416.579 39.4347V39.3793C416.579 38.6837 416.372 38.1451 415.96 37.7635C415.548 37.3819 414.954 37.1911 414.178 37.1911C413.359 37.1911 412.71 37.3696 412.23 37.7266C411.756 38.0836 411.436 38.5052 411.27 38.9915L408.149 38.5483C408.395 37.6866 408.801 36.9664 409.368 36.3878C409.934 35.803 410.626 35.366 411.445 35.0767C412.264 34.7812 413.169 34.6335 414.16 34.6335C414.843 34.6335 415.523 34.7135 416.2 34.8736C416.877 35.0336 417.496 35.2983 418.056 35.6676C418.616 36.0308 419.065 36.5263 419.404 37.1541C419.749 37.782 419.921 38.5668 419.921 39.5085V49H416.708V47.0518H416.597C416.394 47.4458 416.108 47.8151 415.738 48.1598C415.375 48.4983 414.917 48.7723 414.363 48.9815C413.815 49.1847 413.172 49.2862 412.433 49.2862ZM413.301 46.8303C413.972 46.8303 414.554 46.6979 415.046 46.4332C415.538 46.1624 415.917 45.8054 416.182 45.3622C416.452 44.919 416.588 44.4358 416.588 43.9126V42.2415C416.483 42.3277 416.305 42.4077 416.052 42.4815C415.806 42.5554 415.529 42.62 415.221 42.6754C414.914 42.7308 414.609 42.7801 414.307 42.8232C414.006 42.8662 413.744 42.9032 413.523 42.9339C413.024 43.0017 412.578 43.1125 412.184 43.2663C411.79 43.4202 411.479 43.6357 411.251 43.9126C411.023 44.1835 410.91 44.5343 410.91 44.9652C410.91 45.5807 411.134 46.0455 411.584 46.3594C412.033 46.6733 412.605 46.8303 413.301 46.8303ZM434.491 38.5668L431.444 38.8991C431.358 38.5914 431.207 38.3021 430.991 38.0312C430.782 37.7604 430.499 37.5419 430.142 37.3757C429.785 37.2095 429.348 37.1264 428.831 37.1264C428.135 37.1264 427.55 37.2772 427.077 37.5788C426.609 37.8804 426.378 38.2713 426.384 38.7514C426.378 39.1638 426.529 39.4993 426.836 39.7578C427.15 40.0163 427.667 40.2287 428.388 40.3949L430.807 40.9119C432.148 41.2012 433.146 41.6598 433.798 42.2876C434.457 42.9155 434.789 43.7372 434.795 44.7528C434.789 45.6454 434.528 46.4332 434.01 47.1165C433.5 47.7936 432.789 48.3229 431.878 48.7045C430.967 49.0862 429.92 49.277 428.738 49.277C427.003 49.277 425.605 48.9138 424.547 48.1875C423.488 47.455 422.857 46.4363 422.654 45.1314L425.913 44.8175C426.061 45.4576 426.375 45.9408 426.855 46.267C427.335 46.5933 427.96 46.7564 428.729 46.7564C429.523 46.7564 430.16 46.5933 430.64 46.267C431.127 45.9408 431.37 45.5376 431.37 45.0575C431.37 44.6513 431.213 44.3158 430.899 44.0511C430.591 43.7865 430.111 43.5833 429.459 43.4418L427.04 42.9339C425.679 42.6508 424.673 42.1738 424.02 41.5028C423.368 40.8258 423.045 39.9702 423.051 38.9361C423.045 38.062 423.282 37.3049 423.762 36.6648C424.248 36.0185 424.922 35.5199 425.784 35.169C426.652 34.812 427.652 34.6335 428.785 34.6335C430.447 34.6335 431.755 34.9875 432.709 35.6953C433.669 36.4032 434.263 37.3603 434.491 38.5668ZM254.293 80H250.637L257.294 61.0909H261.523L268.189 80H264.533L259.482 64.9688H259.335L254.293 80ZM254.413 72.5859H264.385V75.3374H254.413V72.5859ZM281.422 65.8182L276.372 80H272.678L267.628 65.8182H271.192L274.451 76.353H274.599L277.867 65.8182H281.422ZM284.905 80.2031C284.345 80.2031 283.865 80.0062 283.465 79.6122C283.065 79.2183 282.868 78.7382 282.874 78.1719C282.868 77.6179 283.065 77.1439 283.465 76.75C283.865 76.3561 284.345 76.1591 284.905 76.1591C285.447 76.1591 285.918 76.3561 286.318 76.75C286.724 77.1439 286.93 77.6179 286.936 78.1719C286.93 78.5473 286.832 78.889 286.641 79.1967C286.456 79.5045 286.21 79.7507 285.902 79.9354C285.601 80.1139 285.268 80.2031 284.905 80.2031ZM298.828 80H295.172L301.829 61.0909H306.058L312.724 80H309.068L304.017 64.9688H303.87L298.828 80ZM298.949 72.5859H308.92V75.3374H298.949V72.5859ZM318.409 71.6903V80H315.067V65.8182H318.262V68.228H318.428C318.754 67.4339 319.274 66.803 319.988 66.3352C320.708 65.8674 321.598 65.6335 322.656 65.6335C323.635 65.6335 324.488 65.8428 325.214 66.2614C325.946 66.6799 326.513 67.2862 326.913 68.0803C327.319 68.8743 327.519 69.8376 327.513 70.9702V80H324.171V71.4872C324.171 70.5393 323.924 69.7976 323.432 69.2621C322.946 68.7266 322.272 68.4588 321.41 68.4588C320.825 68.4588 320.305 68.5881 319.85 68.8466C319.4 69.099 319.046 69.4652 318.788 69.9453C318.535 70.4254 318.409 71.0071 318.409 71.6903ZM336.173 80.2493C335.059 80.2493 334.062 79.9631 333.182 79.3906C332.302 78.8182 331.606 77.9872 331.095 76.8977C330.584 75.8082 330.329 74.4848 330.329 72.9276C330.329 71.3518 330.588 70.0223 331.105 68.9389C331.628 67.8494 332.333 67.0277 333.219 66.4737C334.105 65.9136 335.093 65.6335 336.183 65.6335C337.014 65.6335 337.697 65.7751 338.232 66.0582C338.768 66.3352 339.193 66.6707 339.507 67.0646C339.82 67.4524 340.064 67.8187 340.236 68.1634H340.374V61.0909H343.726V80H340.439V77.7656H340.236C340.064 78.1103 339.814 78.4766 339.488 78.8643C339.162 79.246 338.731 79.5722 338.195 79.843C337.66 80.1139 336.986 80.2493 336.173 80.2493ZM337.106 77.5071C337.814 77.5071 338.417 77.3163 338.916 76.9347C339.414 76.5469 339.793 76.0083 340.051 75.3189C340.31 74.6295 340.439 73.8262 340.439 72.9091C340.439 71.992 340.31 71.1948 340.051 70.5178C339.799 69.8407 339.423 69.3144 338.925 68.9389C338.432 68.5634 337.826 68.3757 337.106 68.3757C336.361 68.3757 335.74 68.5696 335.241 68.9574C334.742 69.3452 334.367 69.8807 334.115 70.5639C333.862 71.2472 333.736 72.0289 333.736 72.9091C333.736 73.7955 333.862 74.5864 334.115 75.282C334.373 75.9714 334.752 76.5161 335.25 76.9162C335.755 77.3101 336.374 77.5071 337.106 77.5071ZM347.288 80V65.8182H350.528V68.1818H350.676C350.935 67.3632 351.378 66.7322 352.006 66.2891C352.64 65.8397 353.363 65.6151 354.175 65.6151C354.36 65.6151 354.566 65.6243 354.794 65.6428C355.028 65.6551 355.222 65.6766 355.376 65.7074V68.782C355.234 68.7327 355.009 68.6896 354.702 68.6527C354.4 68.6096 354.108 68.5881 353.825 68.5881C353.215 68.5881 352.667 68.7204 352.181 68.9851C351.701 69.2436 351.322 69.6037 351.045 70.0653C350.768 70.527 350.63 71.0594 350.63 71.6626V80H347.288ZM363.291 80.277C361.869 80.277 360.641 79.9815 359.607 79.3906C358.579 78.7936 357.788 77.9503 357.234 76.8608C356.68 75.7652 356.403 74.4756 356.403 72.9922C356.403 71.5334 356.68 70.2531 357.234 69.1513C357.794 68.0433 358.576 67.1816 359.579 66.5661C360.582 65.9444 361.761 65.6335 363.115 65.6335C363.989 65.6335 364.814 65.7751 365.59 66.0582C366.371 66.3352 367.061 66.7661 367.658 67.3509C368.261 67.9356 368.735 68.6804 369.08 69.5852C369.424 70.4839 369.597 71.5549 369.597 72.7983V73.8232H357.972V71.5703H366.393C366.387 70.9302 366.248 70.3608 365.977 69.8622C365.707 69.3575 365.328 68.9605 364.842 68.6712C364.362 68.3819 363.802 68.2372 363.161 68.2372C362.478 68.2372 361.878 68.4034 361.361 68.7358C360.844 69.062 360.441 69.4929 360.151 70.0284C359.868 70.5578 359.724 71.1394 359.718 71.7734V73.7401C359.718 74.5649 359.868 75.2727 360.17 75.8636C360.472 76.4484 360.893 76.8977 361.435 77.2116C361.977 77.5194 362.61 77.6733 363.337 77.6733C363.823 77.6733 364.263 77.6056 364.657 77.4702C365.051 77.3286 365.393 77.1224 365.682 76.8516C365.971 76.5807 366.19 76.2453 366.338 75.8452L369.458 76.196C369.261 77.0208 368.886 77.741 368.332 78.3565C367.784 78.9659 367.082 79.4399 366.227 79.7784C365.371 80.1108 364.392 80.277 363.291 80.277ZM361.74 63.9531L363.808 59.7337H367.076L364.242 63.9531H361.74ZM383.633 69.5668L380.586 69.8991C380.5 69.5914 380.349 69.3021 380.134 69.0312C379.925 68.7604 379.641 68.5419 379.284 68.3757C378.927 68.2095 378.49 68.1264 377.973 68.1264C377.278 68.1264 376.693 68.2772 376.219 68.5788C375.751 68.8804 375.52 69.2713 375.527 69.7514C375.52 70.1638 375.671 70.4993 375.979 70.7578C376.293 71.0163 376.81 71.2287 377.53 71.3949L379.949 71.9119C381.291 72.2012 382.288 72.6598 382.941 73.2876C383.599 73.9155 383.932 74.7372 383.938 75.7528C383.932 76.6454 383.67 77.4332 383.153 78.1165C382.642 78.7936 381.931 79.3229 381.02 79.7045C380.109 80.0862 379.063 80.277 377.881 80.277C376.145 80.277 374.748 79.9138 373.689 79.1875C372.631 78.455 372 77.4363 371.797 76.1314L375.056 75.8175C375.203 76.4576 375.517 76.9408 375.998 77.267C376.478 77.5933 377.102 77.7564 377.872 77.7564C378.666 77.7564 379.303 77.5933 379.783 77.267C380.269 76.9408 380.512 76.5376 380.512 76.0575C380.512 75.6513 380.355 75.3158 380.042 75.0511C379.734 74.7865 379.254 74.5833 378.601 74.4418L376.182 73.9339C374.822 73.6508 373.815 73.1738 373.163 72.5028C372.511 71.8258 372.187 70.9702 372.194 69.9361C372.187 69.062 372.424 68.3049 372.904 67.6648C373.391 67.0185 374.065 66.5199 374.926 66.169C375.794 65.812 376.795 65.6335 377.927 65.6335C379.589 65.6335 380.897 65.9875 381.851 66.6953C382.811 67.4032 383.405 68.3603 383.633 69.5668ZM395.719 80H392.063L398.72 61.0909H402.949L409.615 80H405.958L400.908 64.9688H400.76L395.719 80ZM395.839 72.5859H405.811V75.3374H395.839V72.5859ZM422.848 65.8182L417.797 80H414.104L409.054 65.8182H412.618L415.877 76.353H416.025L419.293 65.8182H422.848ZM430.957 80.277C429.535 80.277 428.307 79.9815 427.273 79.3906C426.245 78.7936 425.454 77.9503 424.9 76.8608C424.346 75.7652 424.069 74.4756 424.069 72.9922C424.069 71.5334 424.346 70.2531 424.9 69.1513C425.46 68.0433 426.242 67.1816 427.245 66.5661C428.248 65.9444 429.427 65.6335 430.781 65.6335C431.655 65.6335 432.48 65.7751 433.256 66.0582C434.037 66.3352 434.727 66.7661 435.324 67.3509C435.927 67.9356 436.401 68.6804 436.746 69.5852C437.09 70.4839 437.263 71.5549 437.263 72.7983V73.8232H425.638V71.5703H434.059C434.053 70.9302 433.914 70.3608 433.643 69.8622C433.373 69.3575 432.994 68.9605 432.508 68.6712C432.028 68.3819 431.468 68.2372 430.827 68.2372C430.144 68.2372 429.544 68.4034 429.027 68.7358C428.51 69.062 428.107 69.4929 427.817 70.0284C427.534 70.5578 427.39 71.1394 427.384 71.7734V73.7401C427.384 74.5649 427.534 75.2727 427.836 75.8636C428.138 76.4484 428.559 76.8977 429.101 77.2116C429.643 77.5194 430.277 77.6733 431.003 77.6733C431.489 77.6733 431.929 77.6056 432.323 77.4702C432.717 77.3286 433.059 77.1224 433.348 76.8516C433.637 76.5807 433.856 76.2453 434.004 75.8452L437.124 76.196C436.927 77.0208 436.552 77.741 435.998 78.3565C435.45 78.9659 434.748 79.4399 433.893 79.7784C433.037 80.1108 432.058 80.277 430.957 80.277ZM443.433 61.0909V80H440.09V61.0909H443.433ZM446.87 80V65.8182H450.212V80H446.87ZM448.55 63.8054C448.021 63.8054 447.565 63.63 447.184 63.2791C446.802 62.9221 446.611 62.4943 446.611 61.9957C446.611 61.491 446.802 61.0632 447.184 60.7124C447.565 60.3553 448.021 60.1768 448.55 60.1768C449.086 60.1768 449.541 60.3553 449.917 60.7124C450.298 61.0632 450.489 61.491 450.489 61.9957C450.489 62.4943 450.298 62.9221 449.917 63.2791C449.541 63.63 449.086 63.8054 448.55 63.8054ZM456.991 71.6903V80H453.649V65.8182H456.844V68.228H457.01C457.336 67.4339 457.856 66.803 458.57 66.3352C459.29 65.8674 460.18 65.6335 461.238 65.6335C462.217 65.6335 463.07 65.8428 463.796 66.2614C464.528 66.6799 465.095 67.2862 465.495 68.0803C465.901 68.8743 466.101 69.8376 466.095 70.9702V80H462.753V71.4872C462.753 70.5393 462.506 69.7976 462.014 69.2621C461.528 68.7266 460.854 68.4588 459.992 68.4588C459.407 68.4588 458.887 68.5881 458.432 68.8466C457.982 69.099 457.628 69.4652 457.37 69.9453C457.117 70.4254 456.991 71.0071 456.991 71.6903ZM475.679 80.277C474.294 80.277 473.094 79.9723 472.078 79.3629C471.062 78.7536 470.274 77.901 469.714 76.8054C469.16 75.7098 468.883 74.4295 468.883 72.9645C468.883 71.4995 469.16 70.2161 469.714 69.1143C470.274 68.0125 471.062 67.157 472.078 66.5476C473.094 65.9382 474.294 65.6335 475.679 65.6335C477.064 65.6335 478.264 65.9382 479.28 66.5476C480.295 67.157 481.08 68.0125 481.634 69.1143C482.194 70.2161 482.474 71.4995 482.474 72.9645C482.474 74.4295 482.194 75.7098 481.634 76.8054C481.08 77.901 480.295 78.7536 479.28 79.3629C478.264 79.9723 477.064 80.277 475.679 80.277ZM475.697 77.5994C476.448 77.5994 477.076 77.3932 477.581 76.9808C478.086 76.5623 478.461 76.0021 478.707 75.3004C478.96 74.5987 479.086 73.817 479.086 72.9553C479.086 72.0874 478.96 71.3026 478.707 70.6009C478.461 69.893 478.086 69.3298 477.581 68.9112C477.076 68.4927 476.448 68.2834 475.697 68.2834C474.928 68.2834 474.288 68.4927 473.777 68.9112C473.272 69.3298 472.894 69.893 472.641 70.6009C472.395 71.3026 472.272 72.0874 472.272 72.9553C472.272 73.817 472.395 74.5987 472.641 75.3004C472.894 76.0021 473.272 76.5623 473.777 76.9808C474.288 77.3932 474.928 77.5994 475.697 77.5994ZM508.093 67.4709H504.64C504.542 66.9046 504.36 66.4029 504.096 65.9659C503.831 65.5227 503.502 65.1473 503.108 64.8395C502.714 64.5317 502.264 64.3009 501.76 64.147C501.261 63.987 500.722 63.907 500.144 63.907C499.116 63.907 498.205 64.1655 497.411 64.6825C496.617 65.1934 495.995 65.9444 495.546 66.9354C495.096 67.9202 494.872 69.1236 494.872 70.5455C494.872 71.992 495.096 73.2107 495.546 74.2017C496.001 75.1866 496.623 75.9313 497.411 76.4361C498.205 76.9347 499.113 77.1839 500.135 77.1839C500.701 77.1839 501.23 77.1101 501.723 76.9624C502.221 76.8085 502.667 76.5838 503.061 76.2884C503.462 75.9929 503.797 75.6297 504.068 75.1989C504.345 74.768 504.536 74.2756 504.64 73.7216L508.093 73.7401C507.964 74.6387 507.684 75.482 507.253 76.2699C506.828 77.0578 506.271 77.7533 505.582 78.3565C504.893 78.9536 504.086 79.4214 503.163 79.7599C502.24 80.0923 501.215 80.2585 500.088 80.2585C498.426 80.2585 496.943 79.8738 495.638 79.1044C494.333 78.335 493.305 77.224 492.554 75.7713C491.803 74.3187 491.428 72.5767 491.428 70.5455C491.428 68.508 491.806 66.7661 492.564 65.3196C493.321 63.867 494.352 62.7559 495.657 61.9865C496.962 61.2171 498.439 60.8324 500.088 60.8324C501.141 60.8324 502.12 60.9801 503.025 61.2756C503.929 61.571 504.736 62.005 505.444 62.5774C506.151 63.1437 506.733 63.8393 507.189 64.6641C507.65 65.4827 507.952 66.4183 508.093 67.4709ZM515.164 80.2862C514.265 80.2862 513.455 80.1262 512.735 79.8061C512.021 79.4799 511.455 78.9998 511.036 78.3658C510.624 77.7318 510.418 76.95 510.418 76.0206C510.418 75.2204 510.566 74.5587 510.861 74.0355C511.156 73.5123 511.56 73.0938 512.07 72.7798C512.581 72.4659 513.157 72.2289 513.797 72.0689C514.443 71.9027 515.111 71.7827 515.801 71.7088C516.632 71.6226 517.306 71.5457 517.823 71.478C518.34 71.4041 518.715 71.2933 518.949 71.1456C519.189 70.9917 519.309 70.7547 519.309 70.4347V70.3793C519.309 69.6837 519.103 69.1451 518.691 68.7635C518.278 68.3819 517.684 68.1911 516.909 68.1911C516.09 68.1911 515.441 68.3696 514.96 68.7266C514.486 69.0836 514.166 69.5052 514 69.9915L510.879 69.5483C511.126 68.6866 511.532 67.9664 512.098 67.3878C512.664 66.803 513.357 66.366 514.176 66.0767C514.994 65.7812 515.899 65.6335 516.89 65.6335C517.573 65.6335 518.253 65.7135 518.931 65.8736C519.608 66.0336 520.226 66.2983 520.786 66.6676C521.347 67.0308 521.796 67.5263 522.134 68.1541C522.479 68.782 522.651 69.5668 522.651 70.5085V80H519.438V78.0518H519.328C519.124 78.4458 518.838 78.8151 518.469 79.1598C518.106 79.4983 517.647 79.7723 517.093 79.9815C516.545 80.1847 515.902 80.2862 515.164 80.2862ZM516.031 77.8303C516.702 77.8303 517.284 77.6979 517.776 77.4332C518.269 77.1624 518.647 76.8054 518.912 76.3622C519.183 75.919 519.318 75.4358 519.318 74.9126V73.2415C519.214 73.3277 519.035 73.4077 518.783 73.4815C518.537 73.5554 518.26 73.62 517.952 73.6754C517.644 73.7308 517.339 73.7801 517.038 73.8232C516.736 73.8662 516.475 73.9032 516.253 73.9339C515.754 74.0017 515.308 74.1125 514.914 74.2663C514.52 74.4202 514.209 74.6357 513.982 74.9126C513.754 75.1835 513.64 75.5343 513.64 75.9652C513.64 76.5807 513.865 77.0455 514.314 77.3594C514.763 77.6733 515.336 77.8303 516.031 77.8303ZM532.198 80.277C530.783 80.277 529.567 79.9661 528.551 79.3445C527.542 78.7228 526.763 77.8641 526.215 76.7685C525.674 75.6667 525.403 74.3987 525.403 72.9645C525.403 71.5241 525.68 70.2531 526.234 69.1513C526.788 68.0433 527.57 67.1816 528.579 66.5661C529.595 65.9444 530.795 65.6335 532.18 65.6335C533.331 65.6335 534.35 65.8459 535.236 66.2706C536.128 66.6892 536.839 67.2831 537.369 68.0526C537.898 68.8158 538.2 69.7083 538.274 70.7301H535.079C534.95 70.0469 534.642 69.4775 534.156 69.022C533.676 68.5604 533.032 68.3295 532.226 68.3295C531.543 68.3295 530.943 68.5142 530.426 68.8835C529.909 69.2467 529.505 69.7699 529.216 70.4531C528.933 71.1364 528.791 71.955 528.791 72.9091C528.791 73.8755 528.933 74.7064 529.216 75.402C529.499 76.0914 529.896 76.6238 530.407 76.9993C530.924 77.3686 531.53 77.5533 532.226 77.5533C532.718 77.5533 533.159 77.4609 533.546 77.2763C533.94 77.0855 534.27 76.8116 534.534 76.4545C534.799 76.0975 534.981 75.6636 535.079 75.1527H538.274C538.194 76.156 537.898 77.0455 537.387 77.821C536.876 78.5904 536.181 79.1937 535.301 79.6307C534.42 80.0616 533.386 80.277 532.198 80.277ZM547.297 80.277C545.875 80.277 544.647 79.9815 543.613 79.3906C542.585 78.7936 541.794 77.9503 541.24 76.8608C540.686 75.7652 540.409 74.4756 540.409 72.9922C540.409 71.5334 540.686 70.2531 541.24 69.1513C541.8 68.0433 542.582 67.1816 543.585 66.5661C544.588 65.9444 545.767 65.6335 547.121 65.6335C547.995 65.6335 548.82 65.7751 549.596 66.0582C550.377 66.3352 551.067 66.7661 551.664 67.3509C552.267 67.9356 552.741 68.6804 553.086 69.5852C553.43 70.4839 553.603 71.5549 553.603 72.7983V73.8232H541.978V71.5703H550.399C550.393 70.9302 550.254 70.3608 549.983 69.8622C549.712 69.3575 549.334 68.9605 548.848 68.6712C548.368 68.3819 547.807 68.2372 547.167 68.2372C546.484 68.2372 545.884 68.4034 545.367 68.7358C544.85 69.062 544.447 69.4929 544.157 70.0284C543.874 70.5578 543.73 71.1394 543.723 71.7734V73.7401C543.723 74.5649 543.874 75.2727 544.176 75.8636C544.477 76.4484 544.899 76.8977 545.441 77.2116C545.982 77.5194 546.616 77.6733 547.343 77.6733C547.829 77.6733 548.269 77.6056 548.663 77.4702C549.057 77.3286 549.399 77.1224 549.688 76.8516C549.977 76.5807 550.196 76.2453 550.343 75.8452L553.464 76.196C553.267 77.0208 552.892 77.741 552.338 78.3565C551.79 78.9659 551.088 79.4399 550.233 79.7784C549.377 80.1108 548.398 80.277 547.297 80.277ZM556.43 80V65.8182H559.671V68.1818H559.819C560.077 67.3632 560.52 66.7322 561.148 66.2891C561.782 65.8397 562.506 65.6151 563.318 65.6151C563.503 65.6151 563.709 65.6243 563.937 65.6428C564.171 65.6551 564.364 65.6766 564.518 65.7074V68.782C564.377 68.7327 564.152 68.6896 563.844 68.6527C563.543 68.6096 563.25 68.5881 562.967 68.5881C562.358 68.5881 561.81 68.7204 561.324 68.9851C560.844 69.2436 560.465 69.6037 560.188 70.0653C559.911 70.527 559.773 71.0594 559.773 71.6626V80H556.43ZM572.433 80.277C571.011 80.277 569.783 79.9815 568.749 79.3906C567.721 78.7936 566.93 77.9503 566.376 76.8608C565.822 75.7652 565.545 74.4756 565.545 72.9922C565.545 71.5334 565.822 70.2531 566.376 69.1513C566.937 68.0433 567.718 67.1816 568.722 66.5661C569.725 65.9444 570.904 65.6335 572.258 65.6335C573.132 65.6335 573.957 65.7751 574.732 66.0582C575.514 66.3352 576.203 66.7661 576.8 67.3509C577.404 67.9356 577.878 68.6804 578.222 69.5852C578.567 70.4839 578.739 71.5549 578.739 72.7983V73.8232H567.115V71.5703H575.536C575.529 70.9302 575.391 70.3608 575.12 69.8622C574.849 69.3575 574.471 68.9605 573.984 68.6712C573.504 68.3819 572.944 68.2372 572.304 68.2372C571.621 68.2372 571.021 68.4034 570.504 68.7358C569.987 69.062 569.583 69.4929 569.294 70.0284C569.011 70.5578 568.866 71.1394 568.86 71.7734V73.7401C568.86 74.5649 569.011 75.2727 569.312 75.8636C569.614 76.4484 570.036 76.8977 570.577 77.2116C571.119 77.5194 571.753 77.6733 572.479 77.6733C572.966 77.6733 573.406 77.6056 573.8 77.4702C574.194 77.3286 574.535 77.1224 574.825 76.8516C575.114 76.5807 575.332 76.2453 575.48 75.8452L578.601 76.196C578.404 77.0208 578.028 77.741 577.474 78.3565C576.927 78.9659 576.225 79.4399 575.369 79.7784C574.514 80.1108 573.535 80.277 572.433 80.277ZM592.776 69.5668L589.729 69.8991C589.643 69.5914 589.492 69.3021 589.276 69.0312C589.067 68.7604 588.784 68.5419 588.427 68.3757C588.07 68.2095 587.633 68.1264 587.116 68.1264C586.42 68.1264 585.836 68.2772 585.362 68.5788C584.894 68.8804 584.663 69.2713 584.669 69.7514C584.663 70.1638 584.814 70.4993 585.122 70.7578C585.436 71.0163 585.953 71.2287 586.673 71.3949L589.092 71.9119C590.434 72.2012 591.431 72.6598 592.083 73.2876C592.742 73.9155 593.074 74.7372 593.08 75.7528C593.074 76.6454 592.813 77.4332 592.296 78.1165C591.785 78.7936 591.074 79.3229 590.163 79.7045C589.252 80.0862 588.205 80.277 587.024 80.277C585.288 80.277 583.891 79.9138 582.832 79.1875C581.773 78.455 581.142 77.4363 580.939 76.1314L584.198 75.8175C584.346 76.4576 584.66 76.9408 585.14 77.267C585.62 77.5933 586.245 77.7564 587.014 77.7564C587.808 77.7564 588.445 77.5933 588.926 77.267C589.412 76.9408 589.655 76.5376 589.655 76.0575C589.655 75.6513 589.498 75.3158 589.184 75.0511C588.876 74.7865 588.396 74.5833 587.744 74.4418L585.325 73.9339C583.964 73.6508 582.958 73.1738 582.306 72.5028C581.653 71.8258 581.33 70.9702 581.336 69.9361C581.33 69.062 581.567 68.3049 582.047 67.6648C582.533 67.0185 583.207 66.5199 584.069 66.169C584.937 65.812 585.937 65.6335 587.07 65.6335C588.732 65.6335 590.04 65.9875 590.994 66.6953C591.954 67.4032 592.548 68.3603 592.776 69.5668ZM608.472 80.277C607.056 80.277 605.84 79.9661 604.825 79.3445C603.815 78.7228 603.037 77.8641 602.489 76.7685C601.947 75.6667 601.676 74.3987 601.676 72.9645C601.676 71.5241 601.953 70.2531 602.507 69.1513C603.061 68.0433 603.843 67.1816 604.852 66.5661C605.868 65.9444 607.068 65.6335 608.453 65.6335C609.604 65.6335 610.623 65.8459 611.509 66.2706C612.402 66.6892 613.113 67.2831 613.642 68.0526C614.172 68.8158 614.473 69.7083 614.547 70.7301H611.352C611.223 70.0469 610.915 69.4775 610.429 69.022C609.949 68.5604 609.306 68.3295 608.499 68.3295C607.816 68.3295 607.216 68.5142 606.699 68.8835C606.182 69.2467 605.779 69.7699 605.49 70.4531C605.206 71.1364 605.065 71.955 605.065 72.9091C605.065 73.8755 605.206 74.7064 605.49 75.402C605.773 76.0914 606.17 76.6238 606.681 76.9993C607.198 77.3686 607.804 77.5533 608.499 77.5533C608.992 77.5533 609.432 77.4609 609.82 77.2763C610.214 77.0855 610.543 76.8116 610.808 76.4545C611.072 76.0975 611.254 75.6636 611.352 75.1527H614.547C614.467 76.156 614.172 77.0455 613.661 77.821C613.15 78.5904 612.454 79.1937 611.574 79.6307C610.694 80.0616 609.66 80.277 608.472 80.277ZM623.478 80.277C622.093 80.277 620.892 79.9723 619.877 79.3629C618.861 78.7536 618.073 77.901 617.513 76.8054C616.959 75.7098 616.682 74.4295 616.682 72.9645C616.682 71.4995 616.959 70.2161 617.513 69.1143C618.073 68.0125 618.861 67.157 619.877 66.5476C620.892 65.9382 622.093 65.6335 623.478 65.6335C624.863 65.6335 626.063 65.9382 627.078 66.5476C628.094 67.157 628.879 68.0125 629.433 69.1143C629.993 70.2161 630.273 71.4995 630.273 72.9645C630.273 74.4295 629.993 75.7098 629.433 76.8054C628.879 77.901 628.094 78.7536 627.078 79.3629C626.063 79.9723 624.863 80.277 623.478 80.277ZM623.496 77.5994C624.247 77.5994 624.875 77.3932 625.38 76.9808C625.884 76.5623 626.26 76.0021 626.506 75.3004C626.758 74.5987 626.885 73.817 626.885 72.9553C626.885 72.0874 626.758 71.3026 626.506 70.6009C626.26 69.893 625.884 69.3298 625.38 68.9112C624.875 68.4927 624.247 68.2834 623.496 68.2834C622.727 68.2834 622.087 68.4927 621.576 68.9112C621.071 69.3298 620.692 69.893 620.44 70.6009C620.194 71.3026 620.071 72.0874 620.071 72.9553C620.071 73.817 620.194 74.5987 620.44 75.3004C620.692 76.0021 621.071 76.5623 621.576 76.9808C622.087 77.3932 622.727 77.5994 623.496 77.5994ZM636.452 71.6903V80H633.11V65.8182H636.305V68.228H636.471C636.797 67.4339 637.317 66.803 638.031 66.3352C638.751 65.8674 639.641 65.6335 640.699 65.6335C641.678 65.6335 642.531 65.8428 643.257 66.2614C643.989 66.6799 644.556 67.2862 644.956 68.0803C645.362 68.8743 645.562 69.8376 645.556 70.9702V80H642.214V71.4872C642.214 70.5393 641.967 69.7976 641.475 69.2621C640.989 68.7266 640.315 68.4588 639.453 68.4588C638.868 68.4588 638.348 68.5881 637.893 68.8466C637.443 69.099 637.089 69.4652 636.831 69.9453C636.578 70.4254 636.452 71.0071 636.452 71.6903ZM263.785 92.0909H267.21V104.445C267.21 105.799 266.89 106.99 266.25 108.018C265.616 109.046 264.723 109.849 263.572 110.428C262.421 111 261.076 111.286 259.538 111.286C257.993 111.286 256.645 111 255.494 110.428C254.343 109.849 253.45 109.046 252.816 108.018C252.182 106.99 251.865 105.799 251.865 104.445V92.0909H255.29V104.158C255.29 104.946 255.463 105.648 255.808 106.263C256.158 106.879 256.651 107.362 257.285 107.713C257.919 108.058 258.67 108.23 259.538 108.23C260.406 108.23 261.156 108.058 261.79 107.713C262.431 107.362 262.923 106.879 263.268 106.263C263.612 105.648 263.785 104.946 263.785 104.158V92.0909ZM274.128 102.69V111H270.786V96.8182H273.98V99.228H274.146C274.473 98.4339 274.993 97.803 275.707 97.3352C276.427 96.8674 277.316 96.6335 278.375 96.6335C279.354 96.6335 280.206 96.8428 280.933 97.2614C281.665 97.6799 282.231 98.2862 282.632 99.0803C283.038 99.8743 283.238 100.838 283.232 101.97V111H279.889V102.487C279.889 101.539 279.643 100.798 279.151 100.262C278.664 99.7266 277.99 99.4588 277.129 99.4588C276.544 99.4588 276.024 99.5881 275.568 99.8466C275.119 100.099 274.765 100.465 274.507 100.945C274.254 101.425 274.128 102.007 274.128 102.69ZM286.629 111V96.8182H289.972V111H286.629ZM288.31 94.8054C287.78 94.8054 287.325 94.63 286.943 94.2791C286.562 93.9221 286.371 93.4943 286.371 92.9957C286.371 92.491 286.562 92.0632 286.943 91.7124C287.325 91.3553 287.78 91.1768 288.31 91.1768C288.845 91.1768 289.301 91.3553 289.676 91.7124C290.058 92.0632 290.249 92.491 290.249 92.9957C290.249 93.4943 290.058 93.9221 289.676 94.2791C289.301 94.63 288.845 94.8054 288.31 94.8054ZM306.076 96.8182L301.026 111H297.333L292.282 96.8182H295.846L299.105 107.353H299.253L302.522 96.8182H306.076ZM314.185 111.277C312.763 111.277 311.535 110.982 310.501 110.391C309.473 109.794 308.682 108.95 308.128 107.861C307.574 106.765 307.297 105.476 307.297 103.992C307.297 102.533 307.574 101.253 308.128 100.151C308.689 99.0433 309.47 98.1816 310.474 97.5661C311.477 96.9444 312.656 96.6335 314.01 96.6335C314.884 96.6335 315.709 96.7751 316.484 97.0582C317.266 97.3352 317.955 97.7661 318.552 98.3509C319.156 98.9356 319.63 99.6804 319.974 100.585C320.319 101.484 320.491 102.555 320.491 103.798V104.823H308.867V102.57H317.287C317.281 101.93 317.143 101.361 316.872 100.862C316.601 100.357 316.223 99.9605 315.736 99.6712C315.256 99.3819 314.696 99.2372 314.056 99.2372C313.373 99.2372 312.773 99.4034 312.256 99.7358C311.738 100.062 311.335 100.493 311.046 101.028C310.763 101.558 310.618 102.139 310.612 102.773V104.74C310.612 105.565 310.763 106.273 311.064 106.864C311.366 107.448 311.788 107.898 312.329 108.212C312.871 108.519 313.505 108.673 314.231 108.673C314.718 108.673 315.158 108.606 315.552 108.47C315.946 108.329 316.287 108.122 316.577 107.852C316.866 107.581 317.084 107.245 317.232 106.845L320.353 107.196C320.156 108.021 319.78 108.741 319.226 109.357C318.679 109.966 317.977 110.44 317.121 110.778C316.266 111.111 315.287 111.277 314.185 111.277ZM323.319 111V96.8182H326.56V99.1818H326.707C326.966 98.3632 327.409 97.7322 328.037 97.2891C328.671 96.8397 329.394 96.6151 330.207 96.6151C330.391 96.6151 330.598 96.6243 330.825 96.6428C331.059 96.6551 331.253 96.6766 331.407 96.7074V99.782C331.265 99.7327 331.041 99.6896 330.733 99.6527C330.431 99.6096 330.139 99.5881 329.856 99.5881C329.246 99.5881 328.699 99.7204 328.212 99.9851C327.732 100.244 327.354 100.604 327.077 101.065C326.8 101.527 326.661 102.059 326.661 102.663V111H323.319ZM344.836 100.567L341.789 100.899C341.703 100.591 341.552 100.302 341.337 100.031C341.128 99.7604 340.845 99.5419 340.488 99.3757C340.131 99.2095 339.694 99.1264 339.176 99.1264C338.481 99.1264 337.896 99.2772 337.422 99.5788C336.954 99.8804 336.724 100.271 336.73 100.751C336.724 101.164 336.874 101.499 337.182 101.758C337.496 102.016 338.013 102.229 338.733 102.395L341.152 102.912C342.494 103.201 343.491 103.66 344.144 104.288C344.802 104.915 345.135 105.737 345.141 106.753C345.135 107.645 344.873 108.433 344.356 109.116C343.845 109.794 343.134 110.323 342.223 110.705C341.312 111.086 340.266 111.277 339.084 111.277C337.348 111.277 335.951 110.914 334.892 110.188C333.834 109.455 333.203 108.436 333 107.131L336.259 106.817C336.407 107.458 336.721 107.941 337.201 108.267C337.681 108.593 338.306 108.756 339.075 108.756C339.869 108.756 340.506 108.593 340.986 108.267C341.472 107.941 341.716 107.538 341.716 107.058C341.716 106.651 341.559 106.316 341.245 106.051C340.937 105.786 340.457 105.583 339.804 105.442L337.385 104.934C336.025 104.651 335.019 104.174 334.366 103.503C333.714 102.826 333.391 101.97 333.397 100.936C333.391 100.062 333.627 99.3049 334.108 98.6648C334.594 98.0185 335.268 97.5199 336.13 97.169C336.998 96.812 337.998 96.6335 339.13 96.6335C340.792 96.6335 342.1 96.9875 343.054 97.6953C344.015 98.4032 344.609 99.3603 344.836 100.567ZM347.897 111V96.8182H351.239V111H347.897ZM349.577 94.8054C349.048 94.8054 348.593 94.63 348.211 94.2791C347.829 93.9221 347.638 93.4943 347.638 92.9957C347.638 92.491 347.829 92.0632 348.211 91.7124C348.593 91.3553 349.048 91.1768 349.577 91.1768C350.113 91.1768 350.568 91.3553 350.944 91.7124C351.326 92.0632 351.516 92.491 351.516 92.9957C351.516 93.4943 351.326 93.9221 350.944 94.2791C350.568 94.63 350.113 94.8054 349.577 94.8054ZM359.939 111.249C358.825 111.249 357.828 110.963 356.948 110.391C356.067 109.818 355.372 108.987 354.861 107.898C354.35 106.808 354.095 105.485 354.095 103.928C354.095 102.352 354.353 101.022 354.87 99.9389C355.393 98.8494 356.098 98.0277 356.985 97.4737C357.871 96.9136 358.859 96.6335 359.948 96.6335C360.779 96.6335 361.463 96.7751 361.998 97.0582C362.534 97.3352 362.958 97.6707 363.272 98.0646C363.586 98.4524 363.829 98.8187 364.002 99.1634H364.14V92.0909H367.492V111H364.205V108.766H364.002C363.829 109.11 363.58 109.477 363.254 109.864C362.927 110.246 362.497 110.572 361.961 110.843C361.426 111.114 360.752 111.249 359.939 111.249ZM360.872 108.507C361.579 108.507 362.183 108.316 362.681 107.935C363.18 107.547 363.558 107.008 363.817 106.319C364.075 105.629 364.205 104.826 364.205 103.909C364.205 102.992 364.075 102.195 363.817 101.518C363.565 100.841 363.189 100.314 362.691 99.9389C362.198 99.5634 361.592 99.3757 360.872 99.3757C360.127 99.3757 359.505 99.5696 359.007 99.9574C358.508 100.345 358.133 100.881 357.88 101.564C357.628 102.247 357.502 103.029 357.502 103.909C357.502 104.795 357.628 105.586 357.88 106.282C358.139 106.971 358.517 107.516 359.016 107.916C359.521 108.31 360.139 108.507 360.872 108.507ZM375.134 111.286C374.236 111.286 373.426 111.126 372.706 110.806C371.992 110.48 371.426 110 371.007 109.366C370.595 108.732 370.388 107.95 370.388 107.021C370.388 106.22 370.536 105.559 370.832 105.036C371.127 104.512 371.53 104.094 372.041 103.78C372.552 103.466 373.128 103.229 373.768 103.069C374.414 102.903 375.082 102.783 375.771 102.709C376.602 102.623 377.276 102.546 377.793 102.478C378.31 102.404 378.686 102.293 378.92 102.146C379.16 101.992 379.28 101.755 379.28 101.435V101.379C379.28 100.684 379.074 100.145 378.661 99.7635C378.249 99.3819 377.655 99.1911 376.879 99.1911C376.061 99.1911 375.411 99.3696 374.931 99.7266C374.457 100.084 374.137 100.505 373.971 100.991L370.85 100.548C371.096 99.6866 371.503 98.9664 372.069 98.3878C372.635 97.803 373.328 97.366 374.146 97.0767C374.965 96.7812 375.87 96.6335 376.861 96.6335C377.544 96.6335 378.224 96.7135 378.901 96.8736C379.578 97.0336 380.197 97.2983 380.757 97.6676C381.317 98.0308 381.767 98.5263 382.105 99.1541C382.45 99.782 382.622 100.567 382.622 101.509V111H379.409V109.052H379.298C379.095 109.446 378.809 109.815 378.44 110.16C378.076 110.498 377.618 110.772 377.064 110.982C376.516 111.185 375.873 111.286 375.134 111.286ZM376.002 108.83C376.673 108.83 377.255 108.698 377.747 108.433C378.24 108.162 378.618 107.805 378.883 107.362C379.154 106.919 379.289 106.436 379.289 105.913V104.241C379.184 104.328 379.006 104.408 378.754 104.482C378.507 104.555 378.23 104.62 377.923 104.675C377.615 104.731 377.31 104.78 377.009 104.823C376.707 104.866 376.445 104.903 376.224 104.934C375.725 105.002 375.279 105.112 374.885 105.266C374.491 105.42 374.18 105.636 373.952 105.913C373.725 106.183 373.611 106.534 373.611 106.965C373.611 107.581 373.835 108.045 374.285 108.359C374.734 108.673 375.307 108.83 376.002 108.83ZM391.246 111.249C390.132 111.249 389.134 110.963 388.254 110.391C387.374 109.818 386.679 108.987 386.168 107.898C385.657 106.808 385.401 105.485 385.401 103.928C385.401 102.352 385.66 101.022 386.177 99.9389C386.7 98.8494 387.405 98.0277 388.291 97.4737C389.178 96.9136 390.165 96.6335 391.255 96.6335C392.086 96.6335 392.769 96.7751 393.305 97.0582C393.84 97.3352 394.265 97.6707 394.579 98.0646C394.893 98.4524 395.136 98.8187 395.308 99.1634H395.447V92.0909H398.798V111H395.511V108.766H395.308C395.136 109.11 394.887 109.477 394.56 109.864C394.234 110.246 393.803 110.572 393.268 110.843C392.732 111.114 392.058 111.249 391.246 111.249ZM392.178 108.507C392.886 108.507 393.489 108.316 393.988 107.935C394.487 107.547 394.865 107.008 395.124 106.319C395.382 105.629 395.511 104.826 395.511 103.909C395.511 102.992 395.382 102.195 395.124 101.518C394.871 100.841 394.496 100.314 393.997 99.9389C393.505 99.5634 392.898 99.3757 392.178 99.3757C391.433 99.3757 390.812 99.5696 390.313 99.9574C389.815 100.345 389.439 100.881 389.187 101.564C388.934 102.247 388.808 103.029 388.808 103.909C388.808 104.795 388.934 105.586 389.187 106.282C389.445 106.971 389.824 107.516 390.322 107.916C390.827 108.31 391.446 108.507 392.178 108.507ZM424.496 92.0909V111H421.449L412.539 98.12H412.382V111H408.957V92.0909H412.022L420.923 104.98H421.089V92.0909H424.496ZM432.162 111.286C431.263 111.286 430.453 111.126 429.733 110.806C429.019 110.48 428.453 110 428.034 109.366C427.622 108.732 427.416 107.95 427.416 107.021C427.416 106.22 427.564 105.559 427.859 105.036C428.154 104.512 428.558 104.094 429.069 103.78C429.579 103.466 430.155 103.229 430.795 103.069C431.441 102.903 432.109 102.783 432.799 102.709C433.63 102.623 434.304 102.546 434.821 102.478C435.338 102.404 435.713 102.293 435.947 102.146C436.187 101.992 436.307 101.755 436.307 101.435V101.379C436.307 100.684 436.101 100.145 435.689 99.7635C435.276 99.3819 434.682 99.1911 433.907 99.1911C433.088 99.1911 432.439 99.3696 431.958 99.7266C431.484 100.084 431.164 100.505 430.998 100.991L427.877 100.548C428.124 99.6866 428.53 98.9664 429.096 98.3878C429.663 97.803 430.355 97.366 431.174 97.0767C431.992 96.7812 432.897 96.6335 433.888 96.6335C434.571 96.6335 435.252 96.7135 435.929 96.8736C436.606 97.0336 437.224 97.2983 437.784 97.6676C438.345 98.0308 438.794 98.5263 439.132 99.1541C439.477 99.782 439.65 100.567 439.65 101.509V111H436.436V109.052H436.326C436.123 109.446 435.836 109.815 435.467 110.16C435.104 110.498 434.645 110.772 434.091 110.982C433.543 111.185 432.9 111.286 432.162 111.286ZM433.029 108.83C433.7 108.83 434.282 108.698 434.775 108.433C435.267 108.162 435.645 107.805 435.91 107.362C436.181 106.919 436.316 106.436 436.316 105.913V104.241C436.212 104.328 436.033 104.408 435.781 104.482C435.535 104.555 435.258 104.62 434.95 104.675C434.642 104.731 434.337 104.78 434.036 104.823C433.734 104.866 433.473 104.903 433.251 104.934C432.752 105.002 432.306 105.112 431.912 105.266C431.518 105.42 431.208 105.636 430.98 105.913C430.752 106.183 430.638 106.534 430.638 106.965C430.638 107.581 430.863 108.045 431.312 108.359C431.761 108.673 432.334 108.83 433.029 108.83ZM449.196 111.277C447.781 111.277 446.565 110.966 445.549 110.344C444.54 109.723 443.761 108.864 443.213 107.768C442.672 106.667 442.401 105.399 442.401 103.964C442.401 102.524 442.678 101.253 443.232 100.151C443.786 99.0433 444.568 98.1816 445.577 97.5661C446.593 96.9444 447.793 96.6335 449.178 96.6335C450.329 96.6335 451.348 96.8459 452.234 97.2706C453.127 97.6892 453.837 98.2831 454.367 99.0526C454.896 99.8158 455.198 100.708 455.272 101.73H452.077C451.948 101.047 451.64 100.478 451.154 100.022C450.674 99.5604 450.03 99.3295 449.224 99.3295C448.541 99.3295 447.941 99.5142 447.424 99.8835C446.907 100.247 446.503 100.77 446.214 101.453C445.931 102.136 445.789 102.955 445.789 103.909C445.789 104.875 445.931 105.706 446.214 106.402C446.497 107.091 446.894 107.624 447.405 107.999C447.922 108.369 448.529 108.553 449.224 108.553C449.717 108.553 450.157 108.461 450.544 108.276C450.938 108.085 451.268 107.812 451.532 107.455C451.797 107.098 451.979 106.664 452.077 106.153H455.272C455.192 107.156 454.896 108.045 454.385 108.821C453.874 109.59 453.179 110.194 452.299 110.631C451.418 111.062 450.384 111.277 449.196 111.277ZM458.016 111V96.8182H461.358V111H458.016ZM459.697 94.8054C459.167 94.8054 458.712 94.63 458.33 94.2791C457.948 93.9221 457.758 93.4943 457.758 92.9957C457.758 92.491 457.948 92.0632 458.33 91.7124C458.712 91.3553 459.167 91.1768 459.697 91.1768C460.232 91.1768 460.688 91.3553 461.063 91.7124C461.445 92.0632 461.635 92.491 461.635 92.9957C461.635 93.4943 461.445 93.9221 461.063 94.2791C460.688 94.63 460.232 94.8054 459.697 94.8054ZM470.982 111.277C469.597 111.277 468.396 110.972 467.381 110.363C466.365 109.754 465.577 108.901 465.017 107.805C464.463 106.71 464.186 105.429 464.186 103.964C464.186 102.5 464.463 101.216 465.017 100.114C465.577 99.0125 466.365 98.157 467.381 97.5476C468.396 96.9382 469.597 96.6335 470.982 96.6335C472.366 96.6335 473.567 96.9382 474.582 97.5476C475.598 98.157 476.383 99.0125 476.937 100.114C477.497 101.216 477.777 102.5 477.777 103.964C477.777 105.429 477.497 106.71 476.937 107.805C476.383 108.901 475.598 109.754 474.582 110.363C473.567 110.972 472.366 111.277 470.982 111.277ZM471 108.599C471.751 108.599 472.379 108.393 472.884 107.981C473.388 107.562 473.764 107.002 474.01 106.3C474.262 105.599 474.388 104.817 474.388 103.955C474.388 103.087 474.262 102.303 474.01 101.601C473.764 100.893 473.388 100.33 472.884 99.9112C472.379 99.4927 471.751 99.2834 471 99.2834C470.231 99.2834 469.59 99.4927 469.08 99.9112C468.575 100.33 468.196 100.893 467.944 101.601C467.698 102.303 467.575 103.087 467.575 103.955C467.575 104.817 467.698 105.599 467.944 106.3C468.196 107.002 468.575 107.562 469.08 107.981C469.59 108.393 470.231 108.599 471 108.599ZM483.956 102.69V111H480.614V96.8182H483.808V99.228H483.975C484.301 98.4339 484.821 97.803 485.535 97.3352C486.255 96.8674 487.145 96.6335 488.203 96.6335C489.182 96.6335 490.035 96.8428 490.761 97.2614C491.493 97.6799 492.06 98.2862 492.46 99.0803C492.866 99.8743 493.066 100.838 493.06 101.97V111H489.718V102.487C489.718 101.539 489.471 100.798 488.979 100.262C488.493 99.7266 487.819 99.4588 486.957 99.4588C486.372 99.4588 485.852 99.5881 485.396 99.8466C484.947 100.099 484.593 100.465 484.335 100.945C484.082 101.425 483.956 102.007 483.956 102.69ZM500.539 111.286C499.64 111.286 498.83 111.126 498.11 110.806C497.396 110.48 496.83 110 496.411 109.366C495.999 108.732 495.793 107.95 495.793 107.021C495.793 106.22 495.941 105.559 496.236 105.036C496.531 104.512 496.935 104.094 497.445 103.78C497.956 103.466 498.532 103.229 499.172 103.069C499.818 102.903 500.486 102.783 501.176 102.709C502.007 102.623 502.681 102.546 503.198 102.478C503.715 102.404 504.09 102.293 504.324 102.146C504.564 101.992 504.684 101.755 504.684 101.435V101.379C504.684 100.684 504.478 100.145 504.066 99.7635C503.653 99.3819 503.059 99.1911 502.284 99.1911C501.465 99.1911 500.816 99.3696 500.335 99.7266C499.861 100.084 499.541 100.505 499.375 100.991L496.254 100.548C496.501 99.6866 496.907 98.9664 497.473 98.3878C498.039 97.803 498.732 97.366 499.551 97.0767C500.369 96.7812 501.274 96.6335 502.265 96.6335C502.948 96.6335 503.628 96.7135 504.306 96.8736C504.983 97.0336 505.601 97.2983 506.161 97.6676C506.722 98.0308 507.171 98.5263 507.509 99.1541C507.854 99.782 508.026 100.567 508.026 101.509V111H504.813V109.052H504.703C504.499 109.446 504.213 109.815 503.844 110.16C503.481 110.498 503.022 110.772 502.468 110.982C501.92 111.185 501.277 111.286 500.539 111.286ZM501.406 108.83C502.077 108.83 502.659 108.698 503.151 108.433C503.644 108.162 504.022 107.805 504.287 107.362C504.558 106.919 504.693 106.436 504.693 105.913V104.241C504.589 104.328 504.41 104.408 504.158 104.482C503.912 104.555 503.635 104.62 503.327 104.675C503.019 104.731 502.714 104.78 502.413 104.823C502.111 104.866 501.85 104.903 501.628 104.934C501.129 105.002 500.683 105.112 500.289 105.266C499.895 105.42 499.584 105.636 499.357 105.913C499.129 106.183 499.015 106.534 499.015 106.965C499.015 107.581 499.24 108.045 499.689 108.359C500.138 108.673 500.711 108.83 501.406 108.83ZM514.73 92.0909V111H511.387V92.0909H514.73ZM529.879 111.249C528.764 111.249 527.767 110.963 526.887 110.391C526.007 109.818 525.311 108.987 524.8 107.898C524.29 106.808 524.034 105.485 524.034 103.928C524.034 102.352 524.293 101.022 524.81 99.9389C525.333 98.8494 526.038 98.0277 526.924 97.4737C527.81 96.9136 528.798 96.6335 529.888 96.6335C530.719 96.6335 531.402 96.7751 531.938 97.0582C532.473 97.3352 532.898 97.6707 533.212 98.0646C533.526 98.4524 533.769 98.8187 533.941 99.1634H534.08V92.0909H537.431V111H534.144V108.766H533.941C533.769 109.11 533.519 109.477 533.193 109.864C532.867 110.246 532.436 110.572 531.901 110.843C531.365 111.114 530.691 111.249 529.879 111.249ZM530.811 108.507C531.519 108.507 532.122 108.316 532.621 107.935C533.119 107.547 533.498 107.008 533.756 106.319C534.015 105.629 534.144 104.826 534.144 103.909C534.144 102.992 534.015 102.195 533.756 101.518C533.504 100.841 533.129 100.314 532.63 99.9389C532.138 99.5634 531.531 99.3757 530.811 99.3757C530.066 99.3757 529.445 99.5696 528.946 99.9574C528.447 100.345 528.072 100.881 527.82 101.564C527.567 102.247 527.441 103.029 527.441 103.909C527.441 104.795 527.567 105.586 527.82 106.282C528.078 106.971 528.457 107.516 528.955 107.916C529.46 108.31 530.079 108.507 530.811 108.507ZM547.271 111.277C545.849 111.277 544.621 110.982 543.587 110.391C542.559 109.794 541.768 108.95 541.214 107.861C540.66 106.765 540.383 105.476 540.383 103.992C540.383 102.533 540.66 101.253 541.214 100.151C541.774 99.0433 542.556 98.1816 543.559 97.5661C544.563 96.9444 545.742 96.6335 547.096 96.6335C547.97 96.6335 548.795 96.7751 549.57 97.0582C550.352 97.3352 551.041 97.7661 551.638 98.3509C552.242 98.9356 552.715 99.6804 553.06 100.585C553.405 101.484 553.577 102.555 553.577 103.798V104.823H541.953V102.57H550.373C550.367 101.93 550.229 101.361 549.958 100.862C549.687 100.357 549.309 99.9605 548.822 99.6712C548.342 99.3819 547.782 99.2372 547.142 99.2372C546.459 99.2372 545.858 99.4034 545.341 99.7358C544.824 100.062 544.421 100.493 544.132 101.028C543.849 101.558 543.704 102.139 543.698 102.773V104.74C543.698 105.565 543.849 106.273 544.15 106.864C544.452 107.448 544.874 107.898 545.415 108.212C545.957 108.519 546.591 108.673 547.317 108.673C547.804 108.673 548.244 108.606 548.638 108.47C549.032 108.329 549.373 108.122 549.662 107.852C549.952 107.581 550.17 107.245 550.318 106.845L553.439 107.196C553.242 108.021 552.866 108.741 552.312 109.357C551.765 109.966 551.063 110.44 550.207 110.778C549.352 111.111 548.373 111.277 547.271 111.277ZM563.002 111V92.0909H570.093C571.545 92.0909 572.764 92.3617 573.749 92.9034C574.74 93.4451 575.488 94.1899 575.993 95.1378C576.503 96.0795 576.759 97.1506 576.759 98.3509C576.759 99.5634 576.503 100.641 575.993 101.582C575.482 102.524 574.728 103.266 573.73 103.808C572.733 104.343 571.505 104.611 570.047 104.611H565.347V101.795H569.585C570.434 101.795 571.13 101.647 571.672 101.352C572.213 101.056 572.613 100.65 572.872 100.133C573.136 99.6158 573.269 99.0218 573.269 98.3509C573.269 97.6799 573.136 97.089 572.872 96.5781C572.613 96.0672 572.21 95.6702 571.662 95.3871C571.121 95.0978 570.422 94.9531 569.566 94.9531H566.427V111H563.002ZM579.586 111V96.8182H582.929V111H579.586ZM581.267 94.8054C580.738 94.8054 580.282 94.63 579.9 94.2791C579.519 93.9221 579.328 93.4943 579.328 92.9957C579.328 92.491 579.519 92.0632 579.9 91.7124C580.282 91.3553 580.738 91.1768 581.267 91.1768C581.802 91.1768 582.258 91.3553 582.633 91.7124C583.015 92.0632 583.206 92.491 583.206 92.9957C583.206 93.4943 583.015 93.9221 582.633 94.2791C582.258 94.63 581.802 94.8054 581.267 94.8054ZM595.405 105.036V96.8182H598.747V111H595.506V108.479H595.359C595.039 109.273 594.512 109.923 593.78 110.428C593.054 110.932 592.158 111.185 591.093 111.185C590.164 111.185 589.342 110.978 588.628 110.566C587.92 110.147 587.366 109.541 586.966 108.747C586.566 107.947 586.366 106.981 586.366 105.848V96.8182H589.708V105.331C589.708 106.23 589.954 106.944 590.447 107.473C590.939 108.002 591.585 108.267 592.386 108.267C592.878 108.267 593.355 108.147 593.817 107.907C594.278 107.667 594.657 107.31 594.952 106.836C595.254 106.356 595.405 105.756 595.405 105.036ZM602.184 111V96.8182H605.425V99.1818H605.573C605.831 98.3632 606.274 97.7322 606.902 97.2891C607.536 96.8397 608.259 96.6151 609.072 96.6151C609.257 96.6151 609.463 96.6243 609.691 96.6428C609.924 96.6551 610.118 96.6766 610.272 96.7074V99.782C610.131 99.7327 609.906 99.6896 609.598 99.6527C609.297 99.6096 609.004 99.5881 608.721 99.5881C608.112 99.5881 607.564 99.7204 607.078 99.9851C606.597 100.244 606.219 100.604 605.942 101.065C605.665 101.527 605.526 102.059 605.526 102.663V111H602.184ZM616.32 111.286C615.421 111.286 614.612 111.126 613.892 110.806C613.177 110.48 612.611 110 612.193 109.366C611.78 108.732 611.574 107.95 611.574 107.021C611.574 106.22 611.722 105.559 612.017 105.036C612.313 104.512 612.716 104.094 613.227 103.78C613.738 103.466 614.313 103.229 614.953 103.069C615.6 102.903 616.267 102.783 616.957 102.709C617.788 102.623 618.462 102.546 618.979 102.478C619.496 102.404 619.871 102.293 620.105 102.146C620.345 101.992 620.465 101.755 620.465 101.435V101.379C620.465 100.684 620.259 100.145 619.847 99.7635C619.434 99.3819 618.84 99.1911 618.065 99.1911C617.246 99.1911 616.597 99.3696 616.117 99.7266C615.643 100.084 615.323 100.505 615.156 100.991L612.036 100.548C612.282 99.6866 612.688 98.9664 613.254 98.3878C613.821 97.803 614.513 97.366 615.332 97.0767C616.151 96.7812 617.055 96.6335 618.046 96.6335C618.73 96.6335 619.41 96.7135 620.087 96.8736C620.764 97.0336 621.383 97.2983 621.943 97.6676C622.503 98.0308 622.952 98.5263 623.291 99.1541C623.635 99.782 623.808 100.567 623.808 101.509V111H620.595V109.052H620.484C620.281 109.446 619.994 109.815 619.625 110.16C619.262 110.498 618.803 110.772 618.249 110.982C617.702 111.185 617.058 111.286 616.32 111.286ZM617.188 108.83C617.859 108.83 618.44 108.698 618.933 108.433C619.425 108.162 619.804 107.805 620.068 107.362C620.339 106.919 620.475 106.436 620.475 105.913V104.241C620.37 104.328 620.191 104.408 619.939 104.482C619.693 104.555 619.416 104.62 619.108 104.675C618.8 104.731 618.496 104.78 618.194 104.823C617.892 104.866 617.631 104.903 617.409 104.934C616.911 105.002 616.464 105.112 616.07 105.266C615.677 105.42 615.366 105.636 615.138 105.913C614.91 106.183 614.796 106.534 614.796 106.965C614.796 107.581 615.021 108.045 615.47 108.359C615.92 108.673 616.492 108.83 617.188 108.83Z" fill="white"/>
</svg>
