<svg width="512" height="124.52" viewBox="0 0 584 142" fill="none" xmlns="http://www.w3.org/2000/svg">
<rect x="211" width="373" height="92" rx="18" fill="#006DB7"/>
<path d="M155 102L266.5 66.026L234.5 42L155 102Z" fill="#006DB7"/>
<rect x="236.048" y="25.0476" width="41.9048" height="41.9048" rx="20.9524" fill="#34A853"/>
<rect x="236.048" y="25.0476" width="41.9048" height="41.9048" rx="20.9524" stroke="white" stroke-width="2.09524"/>
<g clip-path="url(#clip0_146_59656)">
<path d="M263.483 39.157C263.168 39.09 262.892 38.786 262.78 38.385C262.06 35.803 259.683 34 257 34C254.317 34 251.94 35.803 251.22 38.385C251.108 38.786 250.832 39.09 250.517 39.157C247.221 39.869 244.902 42.837 245.003 46.215C245.115 49.956 248.367 53 252.251 53H256V57C256 57.553 256.448 58 257 58C257.552 58 258 57.553 258 57V53H260.784C265.425 53 268.879 50.146 268.997 46.215C269.099 42.837 266.78 39.869 263.483 39.157ZM266.998 46.154C266.912 49.008 264.357 51 260.784 51H258V49.414L261.707 45.707C262.098 45.316 262.098 44.684 261.707 44.293C261.316 43.902 260.684 43.902 260.293 44.293L258 46.586V43C258 42.447 257.552 42 257 42C256.448 42 256 42.447 256 43V46.586L253.707 44.293C253.316 43.902 252.684 43.902 252.293 44.293C251.902 44.684 251.902 45.316 252.293 45.707L256 49.414V51H252.251C249.437 51 247.082 48.826 247.002 46.154C246.93 43.741 248.585 41.62 250.938 41.112C251.986 40.886 252.833 40.048 253.146 38.922C253.626 37.201 255.21 36 256.999 36C258.788 36 260.372 37.201 260.852 38.922C261.166 40.048 262.012 40.887 263.06 41.112C265.414 41.62 267.07 43.741 266.998 46.154Z" fill="white"/>
</g>
<path d="M308.785 21.0909H312.21V33.4446C312.21 34.7988 311.89 35.9898 311.25 37.0178C310.616 38.0457 309.723 38.849 308.572 39.4276C307.421 40 306.076 40.2862 304.538 40.2862C302.993 40.2862 301.645 40 300.494 39.4276C299.343 38.849 298.45 38.0457 297.816 37.0178C297.182 35.9898 296.865 34.7988 296.865 33.4446V21.0909H300.29V33.1584C300.29 33.9463 300.463 34.648 300.808 35.2635C301.158 35.879 301.651 36.3622 302.285 36.7131C302.919 37.0578 303.67 37.2301 304.538 37.2301C305.406 37.2301 306.156 37.0578 306.79 36.7131C307.431 36.3622 307.923 35.879 308.268 35.2635C308.612 34.648 308.785 33.9463 308.785 33.1584V21.0909ZM315.786 40V25.8182H319.026V28.1818H319.174C319.433 27.3632 319.876 26.7322 320.504 26.2891C321.138 25.8397 321.861 25.6151 322.673 25.6151C322.858 25.6151 323.064 25.6243 323.292 25.6428C323.526 25.6551 323.72 25.6766 323.874 25.7074V28.782C323.732 28.7327 323.508 28.6896 323.2 28.6527C322.898 28.6096 322.606 28.5881 322.323 28.5881C321.713 28.5881 321.165 28.7204 320.679 28.9851C320.199 29.2436 319.82 29.6037 319.544 30.0653C319.267 30.527 319.128 31.0594 319.128 31.6626V40H315.786ZM326.242 40V21.0909H329.584V28.1634H329.723C329.895 27.8187 330.138 27.4524 330.452 27.0646C330.766 26.6707 331.191 26.3352 331.726 26.0582C332.262 25.7751 332.945 25.6335 333.776 25.6335C334.872 25.6335 335.86 25.9136 336.74 26.4737C337.626 27.0277 338.328 27.8494 338.845 28.9389C339.368 30.0223 339.63 31.3518 339.63 32.9276C339.63 34.4848 339.374 35.8082 338.863 36.8977C338.353 37.9872 337.657 38.8182 336.777 39.3906C335.897 39.9631 334.899 40.2493 333.785 40.2493C332.973 40.2493 332.299 40.1139 331.763 39.843C331.228 39.5722 330.797 39.246 330.471 38.8643C330.151 38.4766 329.901 38.1103 329.723 37.7656H329.529V40H326.242ZM329.52 32.9091C329.52 33.8262 329.649 34.6295 329.907 35.3189C330.172 36.0083 330.551 36.5469 331.043 36.9347C331.542 37.3163 332.145 37.5071 332.853 37.5071C333.591 37.5071 334.21 37.3101 334.709 36.9162C335.207 36.5161 335.583 35.9714 335.835 35.282C336.094 34.5864 336.223 33.7955 336.223 32.9091C336.223 32.0289 336.097 31.2472 335.844 30.5639C335.592 29.8807 335.216 29.3452 334.718 28.9574C334.219 28.5696 333.598 28.3757 332.853 28.3757C332.139 28.3757 331.532 28.5634 331.034 28.9389C330.535 29.3144 330.157 29.8407 329.898 30.5178C329.646 31.1948 329.52 31.992 329.52 32.9091ZM344.53 40.2031C343.97 40.2031 343.49 40.0062 343.09 39.6122C342.69 39.2183 342.493 38.7382 342.499 38.1719C342.493 37.6179 342.69 37.1439 343.09 36.75C343.49 36.3561 343.97 36.1591 344.53 36.1591C345.072 36.1591 345.543 36.3561 345.943 36.75C346.349 37.1439 346.555 37.6179 346.561 38.1719C346.555 38.5473 346.457 38.889 346.266 39.1967C346.081 39.5045 345.835 39.7507 345.527 39.9354C345.226 40.1139 344.893 40.2031 344.53 40.2031ZM356.025 21.0909H360.217L365.831 34.7926H366.052L371.666 21.0909H375.858V40H372.571V27.0092H372.395L367.169 39.9446H364.713L359.488 26.9815H359.312V40H356.025V21.0909ZM379.44 40V25.8182H382.782V40H379.44ZM381.12 23.8054C380.591 23.8054 380.136 23.63 379.754 23.2791C379.372 22.9221 379.181 22.4943 379.181 21.9957C379.181 21.491 379.372 21.0632 379.754 20.7124C380.136 20.3553 380.591 20.1768 381.12 20.1768C381.656 20.1768 382.111 20.3553 382.487 20.7124C382.868 21.0632 383.059 21.491 383.059 21.9957C383.059 22.4943 382.868 22.9221 382.487 23.2791C382.111 23.63 381.656 23.8054 381.12 23.8054ZM386.219 40V25.8182H389.46V28.1818H389.608C389.866 27.3632 390.309 26.7322 390.937 26.2891C391.571 25.8397 392.295 25.6151 393.107 25.6151C393.292 25.6151 393.498 25.6243 393.726 25.6428C393.96 25.6551 394.153 25.6766 394.307 25.7074V28.782C394.166 28.7327 393.941 28.6896 393.633 28.6527C393.332 28.6096 393.039 28.5881 392.756 28.5881C392.147 28.5881 391.599 28.7204 391.113 28.9851C390.633 29.2436 390.254 29.6037 389.977 30.0653C389.7 30.527 389.562 31.0594 389.562 31.6626V40H386.219ZM400.355 40.2862C399.456 40.2862 398.647 40.1262 397.927 39.8061C397.213 39.4799 396.646 38.9998 396.228 38.3658C395.815 37.7318 395.609 36.95 395.609 36.0206C395.609 35.2204 395.757 34.5587 396.052 34.0355C396.348 33.5123 396.751 33.0938 397.262 32.7798C397.773 32.4659 398.348 32.2289 398.988 32.0689C399.635 31.9027 400.303 31.7827 400.992 31.7088C401.823 31.6226 402.497 31.5457 403.014 31.478C403.531 31.4041 403.907 31.2933 404.14 31.1456C404.381 30.9917 404.501 30.7547 404.501 30.4347V30.3793C404.501 29.6837 404.294 29.1451 403.882 28.7635C403.47 28.3819 402.876 28.1911 402.1 28.1911C401.281 28.1911 400.632 28.3696 400.152 28.7266C399.678 29.0836 399.358 29.5052 399.192 29.9915L396.071 29.5483C396.317 28.6866 396.723 27.9664 397.29 27.3878C397.856 26.803 398.548 26.366 399.367 26.0767C400.186 25.7812 401.09 25.6335 402.081 25.6335C402.765 25.6335 403.445 25.7135 404.122 25.8736C404.799 26.0336 405.418 26.2983 405.978 26.6676C406.538 27.0308 406.987 27.5263 407.326 28.1541C407.671 28.782 407.843 29.5668 407.843 30.5085V40H404.63V38.0518H404.519C404.316 38.4458 404.03 38.8151 403.66 39.1598C403.297 39.4983 402.839 39.7723 402.285 39.9815C401.737 40.1847 401.094 40.2862 400.355 40.2862ZM401.223 37.8303C401.894 37.8303 402.475 37.6979 402.968 37.4332C403.46 37.1624 403.839 36.8054 404.104 36.3622C404.374 35.919 404.51 35.4358 404.51 34.9126V33.2415C404.405 33.3277 404.227 33.4077 403.974 33.4815C403.728 33.5554 403.451 33.62 403.143 33.6754C402.836 33.7308 402.531 33.7801 402.229 33.8232C401.928 33.8662 401.666 33.9032 401.444 33.9339C400.946 34.0017 400.5 34.1125 400.106 34.2663C399.712 34.4202 399.401 34.6357 399.173 34.9126C398.945 35.1835 398.831 35.5343 398.831 35.9652C398.831 36.5807 399.056 37.0455 399.506 37.3594C399.955 37.6733 400.527 37.8303 401.223 37.8303ZM418.387 25.8182V28.4034H410.003V25.8182H418.387ZM412.099 40V24.4794C412.099 23.5253 412.296 22.7313 412.69 22.0973C413.09 21.4633 413.626 20.9893 414.297 20.6754C414.968 20.3615 415.712 20.2045 416.531 20.2045C417.11 20.2045 417.624 20.2507 418.073 20.343C418.522 20.4354 418.855 20.5185 419.07 20.5923L418.405 23.1776C418.264 23.1345 418.085 23.0914 417.87 23.0483C417.654 22.9991 417.414 22.9744 417.15 22.9744C416.528 22.9744 416.088 23.1252 415.829 23.4268C415.577 23.7223 415.451 24.147 415.451 24.701V40H412.099ZM424.347 21.0909V40H421.004V21.0909H424.347ZM433.97 40.277C432.585 40.277 431.385 39.9723 430.369 39.3629C429.353 38.7536 428.565 37.901 428.005 36.8054C427.451 35.7098 427.174 34.4295 427.174 32.9645C427.174 31.4995 427.451 30.2161 428.005 29.1143C428.565 28.0125 429.353 27.157 430.369 26.5476C431.385 25.9382 432.585 25.6335 433.97 25.6335C435.355 25.6335 436.555 25.9382 437.571 26.5476C438.586 27.157 439.371 28.0125 439.925 29.1143C440.485 30.2161 440.765 31.4995 440.765 32.9645C440.765 34.4295 440.485 35.7098 439.925 36.8054C439.371 37.901 438.586 38.7536 437.571 39.3629C436.555 39.9723 435.355 40.277 433.97 40.277ZM433.988 37.5994C434.739 37.5994 435.367 37.3932 435.872 36.9808C436.377 36.5623 436.752 36.0021 436.998 35.3004C437.251 34.5987 437.377 33.817 437.377 32.9553C437.377 32.0874 437.251 31.3026 436.998 30.6009C436.752 29.893 436.377 29.3298 435.872 28.9112C435.367 28.4927 434.739 28.2834 433.988 28.2834C433.219 28.2834 432.579 28.4927 432.068 28.9112C431.563 29.3298 431.185 29.893 430.932 30.6009C430.686 31.3026 430.563 32.0874 430.563 32.9553C430.563 33.817 430.686 34.5987 430.932 35.3004C431.185 36.0021 431.563 36.5623 432.068 36.9808C432.579 37.3932 433.219 37.5994 433.988 37.5994ZM443.602 40V25.8182H446.843V28.1818H446.991C447.249 27.3632 447.692 26.7322 448.32 26.2891C448.954 25.8397 449.677 25.6151 450.49 25.6151C450.675 25.6151 450.881 25.6243 451.108 25.6428C451.342 25.6551 451.536 25.6766 451.69 25.7074V28.782C451.549 28.7327 451.324 28.6896 451.016 28.6527C450.715 28.6096 450.422 28.5881 450.139 28.5881C449.53 28.5881 448.982 28.7204 448.496 28.9851C448.015 29.2436 447.637 29.6037 447.36 30.0653C447.083 30.527 446.944 31.0594 446.944 31.6626V40H443.602ZM459.605 40.277C458.183 40.277 456.955 39.9815 455.921 39.3906C454.893 38.7936 454.102 37.9503 453.548 36.8608C452.994 35.7652 452.717 34.4756 452.717 32.9922C452.717 31.5334 452.994 30.2531 453.548 29.1513C454.108 28.0433 454.89 27.1816 455.893 26.5661C456.897 25.9444 458.076 25.6335 459.43 25.6335C460.304 25.6335 461.129 25.7751 461.904 26.0582C462.686 26.3352 463.375 26.7661 463.972 27.3509C464.576 27.9356 465.049 28.6804 465.394 29.5852C465.739 30.4839 465.911 31.5549 465.911 32.7983V33.8232H454.287V31.5703H462.707C462.701 30.9302 462.563 30.3608 462.292 29.8622C462.021 29.3575 461.643 28.9605 461.156 28.6712C460.676 28.3819 460.116 28.2372 459.476 28.2372C458.793 28.2372 458.192 28.4034 457.675 28.7358C457.158 29.062 456.755 29.4929 456.466 30.0284C456.183 30.5578 456.038 31.1394 456.032 31.7734V33.7401C456.032 34.5649 456.183 35.2727 456.484 35.8636C456.786 36.4484 457.208 36.8977 457.749 37.2116C458.291 37.5194 458.925 37.6733 459.651 37.6733C460.138 37.6733 460.578 37.6056 460.972 37.4702C461.366 37.3286 461.707 37.1224 461.996 36.8516C462.286 36.5807 462.504 36.2453 462.652 35.8452L465.773 36.196C465.576 37.0208 465.2 37.741 464.646 38.3565C464.098 38.9659 463.397 39.4399 462.541 39.7784C461.686 40.1108 460.707 40.277 459.605 40.277ZM479.948 29.5668L476.901 29.8991C476.815 29.5914 476.664 29.3021 476.448 29.0312C476.239 28.7604 475.956 28.5419 475.599 28.3757C475.242 28.2095 474.805 28.1264 474.288 28.1264C473.592 28.1264 473.008 28.2772 472.534 28.5788C472.066 28.8804 471.835 29.2713 471.841 29.7514C471.835 30.1638 471.986 30.4993 472.294 30.7578C472.607 31.0163 473.124 31.2287 473.845 31.3949L476.264 31.9119C477.606 32.2012 478.603 32.6598 479.255 33.2876C479.914 33.9155 480.246 34.7372 480.252 35.7528C480.246 36.6454 479.985 37.4332 479.468 38.1165C478.957 38.7936 478.246 39.3229 477.335 39.7045C476.424 40.0862 475.377 40.277 474.195 40.277C472.46 40.277 471.062 39.9138 470.004 39.1875C468.945 38.455 468.314 37.4363 468.111 36.1314L471.37 35.8175C471.518 36.4576 471.832 36.9408 472.312 37.267C472.792 37.5933 473.417 37.7564 474.186 37.7564C474.98 37.7564 475.617 37.5933 476.097 37.267C476.584 36.9408 476.827 36.5376 476.827 36.0575C476.827 35.6513 476.67 35.3158 476.356 35.0511C476.048 34.7865 475.568 34.5833 474.916 34.4418L472.497 33.9339C471.136 33.6508 470.13 33.1738 469.477 32.5028C468.825 31.8258 468.502 30.9702 468.508 29.9361C468.502 29.062 468.739 28.3049 469.219 27.6648C469.705 27.0185 470.379 26.5199 471.241 26.169C472.109 25.812 473.109 25.6335 474.242 25.6335C475.904 25.6335 477.212 25.9875 478.166 26.6953C479.126 27.4032 479.72 28.3603 479.948 29.5668ZM296.865 71V52.0909H304.104C305.47 52.0909 306.606 52.3063 307.511 52.7372C308.422 53.1619 309.102 53.7436 309.551 54.4822C310.007 55.2209 310.234 56.058 310.234 56.9936C310.234 57.763 310.087 58.4216 309.791 58.9695C309.496 59.5111 309.099 59.9512 308.6 60.2898C308.102 60.6283 307.545 60.8714 306.929 61.0192V61.2038C307.6 61.2408 308.243 61.447 308.859 61.8224C309.48 62.1918 309.988 62.715 310.382 63.392C310.776 64.0691 310.973 64.8878 310.973 65.848C310.973 66.8267 310.736 67.7069 310.262 68.4886C309.788 69.2642 309.074 69.8767 308.12 70.326C307.166 70.7753 305.966 71 304.519 71H296.865ZM300.29 68.1378H303.974C305.218 68.1378 306.113 67.9008 306.661 67.4268C307.215 66.9467 307.492 66.3312 307.492 65.5803C307.492 65.0201 307.354 64.5154 307.077 64.0661C306.8 63.6106 306.406 63.2536 305.895 62.995C305.384 62.7304 304.775 62.598 304.067 62.598H300.29V68.1378ZM300.29 60.1328H303.679C304.27 60.1328 304.802 60.0251 305.276 59.8097C305.75 59.5881 306.123 59.2772 306.393 58.8771C306.67 58.4709 306.809 57.9908 306.809 57.4368C306.809 56.7043 306.55 56.1011 306.033 55.6271C305.522 55.1532 304.762 54.9162 303.753 54.9162H300.29V60.1328ZM319.991 71.277C318.606 71.277 317.406 70.9723 316.39 70.3629C315.375 69.7536 314.587 68.901 314.027 67.8054C313.473 66.7098 313.196 65.4295 313.196 63.9645C313.196 62.4995 313.473 61.2161 314.027 60.1143C314.587 59.0125 315.375 58.157 316.39 57.5476C317.406 56.9382 318.606 56.6335 319.991 56.6335C321.376 56.6335 322.577 56.9382 323.592 57.5476C324.608 58.157 325.393 59.0125 325.947 60.1143C326.507 61.2161 326.787 62.4995 326.787 63.9645C326.787 65.4295 326.507 66.7098 325.947 67.8054C325.393 68.901 324.608 69.7536 323.592 70.3629C322.577 70.9723 321.376 71.277 319.991 71.277ZM320.01 68.5994C320.761 68.5994 321.389 68.3932 321.893 67.9808C322.398 67.5623 322.773 67.0021 323.02 66.3004C323.272 65.5987 323.398 64.817 323.398 63.9553C323.398 63.0874 323.272 62.3026 323.02 61.6009C322.773 60.893 322.398 60.3298 321.893 59.9112C321.389 59.4927 320.761 59.2834 320.01 59.2834C319.24 59.2834 318.6 59.4927 318.089 59.9112C317.585 60.3298 317.206 60.893 316.954 61.6009C316.707 62.3026 316.584 63.0874 316.584 63.9553C316.584 64.817 316.707 65.5987 316.954 66.3004C317.206 67.0021 317.585 67.5623 318.089 67.9808C318.6 68.3932 319.24 68.5994 320.01 68.5994ZM338.663 65.0355V56.8182H342.005V71H338.764V68.4794H338.616C338.296 69.2734 337.77 69.9228 337.038 70.4276C336.311 70.9323 335.416 71.1847 334.351 71.1847C333.421 71.1847 332.6 70.9785 331.886 70.5661C331.178 70.1475 330.624 69.5412 330.224 68.7472C329.824 67.947 329.624 66.9806 329.624 65.848V56.8182H332.966V65.331C332.966 66.2296 333.212 66.9437 333.705 67.473C334.197 68.0024 334.843 68.267 335.643 68.267C336.136 68.267 336.613 68.147 337.075 67.907C337.536 67.6669 337.915 67.3099 338.21 66.8359C338.512 66.3558 338.663 65.7557 338.663 65.0355ZM348.784 52.0909V71H345.442V52.0909H348.784ZM358.5 71.277C357.078 71.277 355.85 70.9815 354.816 70.3906C353.788 69.7936 352.997 68.9503 352.443 67.8608C351.889 66.7652 351.612 65.4756 351.612 63.9922C351.612 62.5334 351.889 61.2531 352.443 60.1513C353.003 59.0433 353.785 58.1816 354.788 57.5661C355.791 56.9444 356.97 56.6335 358.324 56.6335C359.198 56.6335 360.023 56.7751 360.799 57.0582C361.58 57.3352 362.27 57.7661 362.867 58.3509C363.47 58.9356 363.944 59.6804 364.289 60.5852C364.633 61.4839 364.806 62.5549 364.806 63.7983V64.8232H353.181V62.5703H361.602C361.596 61.9302 361.457 61.3608 361.186 60.8622C360.916 60.3575 360.537 59.9605 360.051 59.6712C359.571 59.3819 359.011 59.2372 358.37 59.2372C357.687 59.2372 357.087 59.4034 356.57 59.7358C356.053 60.062 355.65 60.4929 355.36 61.0284C355.077 61.5578 354.933 62.1394 354.926 62.7734V64.7401C354.926 65.5649 355.077 66.2727 355.379 66.8636C355.681 67.4484 356.102 67.8977 356.644 68.2116C357.185 68.5194 357.819 68.6733 358.546 68.6733C359.032 68.6733 359.472 68.6056 359.866 68.4702C360.26 68.3286 360.602 68.1224 360.891 67.8516C361.18 67.5807 361.399 67.2453 361.547 66.8452L364.667 67.196C364.47 68.0208 364.095 68.741 363.541 69.3565C362.993 69.9659 362.291 70.4399 361.436 70.7784C360.58 71.1108 359.601 71.277 358.5 71.277ZM379.895 56.8182L374.844 71H371.151L366.101 56.8182H369.665L372.924 67.353H373.072L376.34 56.8182H379.895ZM385.882 71.2862C384.984 71.2862 384.174 71.1262 383.454 70.8061C382.74 70.4799 382.174 69.9998 381.755 69.3658C381.343 68.7318 381.137 67.95 381.137 67.0206C381.137 66.2204 381.284 65.5587 381.58 65.0355C381.875 64.5123 382.278 64.0938 382.789 63.7798C383.3 63.4659 383.876 63.2289 384.516 63.0689C385.162 62.9027 385.83 62.7827 386.519 62.7088C387.35 62.6226 388.024 62.5457 388.541 62.478C389.058 62.4041 389.434 62.2933 389.668 62.1456C389.908 61.9917 390.028 61.7547 390.028 61.4347V61.3793C390.028 60.6837 389.822 60.1451 389.409 59.7635C388.997 59.3819 388.403 59.1911 387.627 59.1911C386.809 59.1911 386.159 59.3696 385.679 59.7266C385.205 60.0836 384.885 60.5052 384.719 60.9915L381.598 60.5483C381.844 59.6866 382.251 58.9664 382.817 58.3878C383.383 57.803 384.076 57.366 384.894 57.0767C385.713 56.7812 386.618 56.6335 387.609 56.6335C388.292 56.6335 388.972 56.7135 389.649 56.8736C390.326 57.0336 390.945 57.2983 391.505 57.6676C392.065 58.0308 392.515 58.5263 392.853 59.1541C393.198 59.782 393.37 60.5668 393.37 61.5085V71H390.157V69.0518H390.046C389.843 69.4458 389.557 69.8151 389.188 70.1598C388.825 70.4983 388.366 70.7723 387.812 70.9815C387.264 71.1847 386.621 71.2862 385.882 71.2862ZM386.75 68.8303C387.421 68.8303 388.003 68.6979 388.495 68.4332C388.988 68.1624 389.366 67.8054 389.631 67.3622C389.902 66.919 390.037 66.4358 390.037 65.9126V64.2415C389.932 64.3277 389.754 64.4077 389.502 64.4815C389.255 64.5554 388.978 64.62 388.671 64.6754C388.363 64.7308 388.058 64.7801 387.757 64.8232C387.455 64.8662 387.193 64.9032 386.972 64.9339C386.473 65.0017 386.027 65.1125 385.633 65.2663C385.239 65.4202 384.928 65.6357 384.7 65.9126C384.473 66.1835 384.359 66.5343 384.359 66.9652C384.359 67.5807 384.584 68.0455 385.033 68.3594C385.482 68.6733 386.055 68.8303 386.75 68.8303ZM396.731 71V56.8182H399.972V59.1818H400.119C400.378 58.3632 400.821 57.7322 401.449 57.2891C402.083 56.8397 402.806 56.6151 403.619 56.6151C403.803 56.6151 404.01 56.6243 404.237 56.6428C404.471 56.6551 404.665 56.6766 404.819 56.7074V59.782C404.677 59.7327 404.453 59.6896 404.145 59.6527C403.843 59.6096 403.551 59.5881 403.268 59.5881C402.659 59.5881 402.111 59.7204 401.624 59.9851C401.144 60.2436 400.766 60.6037 400.489 61.0653C400.212 61.527 400.073 62.0594 400.073 62.6626V71H396.731ZM411.718 71.2493C410.604 71.2493 409.607 70.9631 408.727 70.3906C407.847 69.8182 407.151 68.9872 406.64 67.8977C406.129 66.8082 405.874 65.4848 405.874 63.9276C405.874 62.3518 406.132 61.0223 406.65 59.9389C407.173 58.8494 407.877 58.0277 408.764 57.4737C409.65 56.9136 410.638 56.6335 411.728 56.6335C412.559 56.6335 413.242 56.7751 413.777 57.0582C414.313 57.3352 414.738 57.6707 415.051 58.0646C415.365 58.4524 415.609 58.8187 415.781 59.1634H415.919V52.0909H419.271V71H415.984V68.7656H415.781C415.609 69.1103 415.359 69.4766 415.033 69.8643C414.707 70.246 414.276 70.5722 413.74 70.843C413.205 71.1139 412.531 71.2493 411.718 71.2493ZM412.651 68.5071C413.359 68.5071 413.962 68.3163 414.461 67.9347C414.959 67.5469 415.338 67.0083 415.596 66.3189C415.855 65.6295 415.984 64.8262 415.984 63.9091C415.984 62.992 415.855 62.1948 415.596 61.5178C415.344 60.8407 414.968 60.3144 414.47 59.9389C413.977 59.5634 413.371 59.3757 412.651 59.3757C411.906 59.3757 411.284 59.5696 410.786 59.9574C410.287 60.3452 409.912 60.8807 409.659 61.5639C409.407 62.2472 409.281 63.0289 409.281 63.9091C409.281 64.7955 409.407 65.5864 409.659 66.282C409.918 66.9714 410.297 67.5161 410.795 67.9162C411.3 68.3101 411.918 68.5071 412.651 68.5071ZM429.43 71V52.0909H436.52C437.973 52.0909 439.192 52.3617 440.177 52.9034C441.168 53.4451 441.916 54.1899 442.42 55.1378C442.931 56.0795 443.187 57.1506 443.187 58.3509C443.187 59.5634 442.931 60.6406 442.42 61.5824C441.909 62.5241 441.155 63.2659 440.158 63.8075C439.161 64.343 437.933 64.6108 436.474 64.6108H431.775V61.7947H436.013C436.862 61.7947 437.558 61.647 438.099 61.3516C438.641 61.0561 439.041 60.6499 439.3 60.1328C439.564 59.6158 439.697 59.0218 439.697 58.3509C439.697 57.6799 439.564 57.089 439.3 56.5781C439.041 56.0672 438.638 55.6702 438.09 55.3871C437.548 55.0978 436.85 54.9531 435.994 54.9531H432.855V71H429.43ZM449.841 71.2862C448.943 71.2862 448.133 71.1262 447.413 70.8061C446.699 70.4799 446.133 69.9998 445.714 69.3658C445.302 68.7318 445.096 67.95 445.096 67.0206C445.096 66.2204 445.243 65.5587 445.539 65.0355C445.834 64.5123 446.237 64.0938 446.748 63.7798C447.259 63.4659 447.835 63.2289 448.475 63.0689C449.121 62.9027 449.789 62.7827 450.478 62.7088C451.309 62.6226 451.983 62.5457 452.5 62.478C453.017 62.4041 453.393 62.2933 453.627 62.1456C453.867 61.9917 453.987 61.7547 453.987 61.4347V61.3793C453.987 60.6837 453.781 60.1451 453.368 59.7635C452.956 59.3819 452.362 59.1911 451.586 59.1911C450.768 59.1911 450.118 59.3696 449.638 59.7266C449.164 60.0836 448.844 60.5052 448.678 60.9915L445.557 60.5483C445.803 59.6866 446.21 58.9664 446.776 58.3878C447.342 57.803 448.035 57.366 448.853 57.0767C449.672 56.7812 450.577 56.6335 451.568 56.6335C452.251 56.6335 452.931 56.7135 453.608 56.8736C454.285 57.0336 454.904 57.2983 455.464 57.6676C456.024 58.0308 456.474 58.5263 456.812 59.1541C457.157 59.782 457.329 60.5668 457.329 61.5085V71H454.116V69.0518H454.005C453.802 69.4458 453.516 69.8151 453.147 70.1598C452.783 70.4983 452.325 70.7723 451.771 70.9815C451.223 71.1847 450.58 71.2862 449.841 71.2862ZM450.709 68.8303C451.38 68.8303 451.962 68.6979 452.454 68.4332C452.947 68.1624 453.325 67.8054 453.59 67.3622C453.861 66.919 453.996 66.4358 453.996 65.9126V64.2415C453.891 64.3277 453.713 64.4077 453.461 64.4815C453.214 64.5554 452.937 64.62 452.63 64.6754C452.322 64.7308 452.017 64.7801 451.716 64.8232C451.414 64.8662 451.152 64.9032 450.931 64.9339C450.432 65.0017 449.986 65.1125 449.592 65.2663C449.198 65.4202 448.887 65.6357 448.659 65.9126C448.432 66.1835 448.318 66.5343 448.318 66.9652C448.318 67.5807 448.542 68.0455 448.992 68.3594C449.441 68.6733 450.014 68.8303 450.709 68.8303ZM460.69 71V56.8182H463.931V59.1818H464.078C464.337 58.3632 464.78 57.7322 465.408 57.2891C466.042 56.8397 466.765 56.6151 467.578 56.6151C467.762 56.6151 467.969 56.6243 468.196 56.6428C468.43 56.6551 468.624 56.6766 468.778 56.7074V59.782C468.636 59.7327 468.412 59.6896 468.104 59.6527C467.802 59.6096 467.51 59.5881 467.227 59.5881C466.618 59.5881 466.07 59.7204 465.583 59.9851C465.103 60.2436 464.725 60.6037 464.448 61.0653C464.171 61.527 464.032 62.0594 464.032 62.6626V71H460.69ZM474.045 66.5497L474.036 62.5149H474.572L479.668 56.8182H483.574L477.305 63.7983H476.612L474.045 66.5497ZM470.999 71V52.0909H474.341V71H470.999ZM479.899 71L475.283 64.5462L477.536 62.1918L483.897 71H479.899ZM492.251 76.3182V56.8182H495.537V59.1634H495.731C495.904 58.8187 496.147 58.4524 496.461 58.0646C496.775 57.6707 497.199 57.3352 497.735 57.0582C498.27 56.7751 498.954 56.6335 499.785 56.6335C500.88 56.6335 501.868 56.9136 502.748 57.4737C503.635 58.0277 504.336 58.8494 504.854 59.9389C505.377 61.0223 505.638 62.3518 505.638 63.9276C505.638 65.4848 505.383 66.8082 504.872 67.8977C504.361 68.9872 503.666 69.8182 502.785 70.3906C501.905 70.9631 500.908 71.2493 499.794 71.2493C498.981 71.2493 498.307 71.1139 497.772 70.843C497.236 70.5722 496.805 70.246 496.479 69.8643C496.159 69.4766 495.91 69.1103 495.731 68.7656H495.593V76.3182H492.251ZM495.528 63.9091C495.528 64.8262 495.657 65.6295 495.916 66.3189C496.181 67.0083 496.559 67.5469 497.052 67.9347C497.55 68.3163 498.153 68.5071 498.861 68.5071C499.6 68.5071 500.219 68.3101 500.717 67.9162C501.216 67.5161 501.591 66.9714 501.844 66.282C502.102 65.5864 502.231 64.7955 502.231 63.9091C502.231 63.0289 502.105 62.2472 501.853 61.5639C501.6 60.8807 501.225 60.3452 500.726 59.9574C500.228 59.5696 499.606 59.3757 498.861 59.3757C498.147 59.3757 497.541 59.5634 497.042 59.9389C496.544 60.3144 496.165 60.8407 495.907 61.5178C495.654 62.1948 495.528 62.992 495.528 63.9091ZM511.843 52.0909V71H508.501V52.0909H511.843ZM519.361 71.2862C518.462 71.2862 517.653 71.1262 516.933 70.8061C516.219 70.4799 515.652 69.9998 515.234 69.3658C514.821 68.7318 514.615 67.95 514.615 67.0206C514.615 66.2204 514.763 65.5587 515.058 65.0355C515.354 64.5123 515.757 64.0938 516.268 63.7798C516.779 63.4659 517.354 63.2289 517.994 63.0689C518.641 62.9027 519.308 62.7827 519.998 62.7088C520.829 62.6226 521.503 62.5457 522.02 62.478C522.537 62.4041 522.912 62.2933 523.146 62.1456C523.386 61.9917 523.506 61.7547 523.506 61.4347V61.3793C523.506 60.6837 523.3 60.1451 522.888 59.7635C522.475 59.3819 521.881 59.1911 521.106 59.1911C520.287 59.1911 519.638 59.3696 519.158 59.7266C518.684 60.0836 518.364 60.5052 518.197 60.9915L515.077 60.5483C515.323 59.6866 515.729 58.9664 516.295 58.3878C516.862 57.803 517.554 57.366 518.373 57.0767C519.192 56.7812 520.096 56.6335 521.087 56.6335C521.771 56.6335 522.451 56.7135 523.128 56.8736C523.805 57.0336 524.424 57.2983 524.984 57.6676C525.544 58.0308 525.993 58.5263 526.332 59.1541C526.676 59.782 526.849 60.5668 526.849 61.5085V71H523.636V69.0518H523.525C523.322 69.4458 523.036 69.8151 522.666 70.1598C522.303 70.4983 521.844 70.7723 521.29 70.9815C520.743 71.1847 520.099 71.2862 519.361 71.2862ZM520.229 68.8303C520.9 68.8303 521.481 68.6979 521.974 68.4332C522.466 68.1624 522.845 67.8054 523.109 67.3622C523.38 66.919 523.516 66.4358 523.516 65.9126V64.2415C523.411 64.3277 523.232 64.4077 522.98 64.4815C522.734 64.5554 522.457 64.62 522.149 64.6754C521.841 64.7308 521.537 64.7801 521.235 64.8232C520.933 64.8662 520.672 64.9032 520.45 64.9339C519.952 65.0017 519.505 65.1125 519.112 65.2663C518.718 65.4202 518.407 65.6357 518.179 65.9126C517.951 66.1835 517.837 66.5343 517.837 66.9652C517.837 67.5807 518.062 68.0455 518.511 68.3594C518.961 68.6733 519.533 68.8303 520.229 68.8303ZM530.025 71V68.8764L537.337 59.7081V59.5881H530.265V56.8182H541.428V59.0987L534.466 68.1101V68.2301H541.668V71H530.025ZM548.89 71.2862C547.991 71.2862 547.182 71.1262 546.462 70.8061C545.748 70.4799 545.182 69.9998 544.763 69.3658C544.351 68.7318 544.144 67.95 544.144 67.0206C544.144 66.2204 544.292 65.5587 544.588 65.0355C544.883 64.5123 545.286 64.0938 545.797 63.7798C546.308 63.4659 546.883 63.2289 547.524 63.0689C548.17 62.9027 548.838 62.7827 549.527 62.7088C550.358 62.6226 551.032 62.5457 551.549 62.478C552.066 62.4041 552.442 62.2933 552.676 62.1456C552.916 61.9917 553.036 61.7547 553.036 61.4347V61.3793C553.036 60.6837 552.829 60.1451 552.417 59.7635C552.005 59.3819 551.411 59.1911 550.635 59.1911C549.816 59.1911 549.167 59.3696 548.687 59.7266C548.213 60.0836 547.893 60.5052 547.727 60.9915L544.606 60.5483C544.852 59.6866 545.258 58.9664 545.825 58.3878C546.391 57.803 547.084 57.366 547.902 57.0767C548.721 56.7812 549.626 56.6335 550.617 56.6335C551.3 56.6335 551.98 56.7135 552.657 56.8736C553.334 57.0336 553.953 57.2983 554.513 57.6676C555.073 58.0308 555.522 58.5263 555.861 59.1541C556.206 59.782 556.378 60.5668 556.378 61.5085V71H553.165V69.0518H553.054C552.851 69.4458 552.565 69.8151 552.195 70.1598C551.832 70.4983 551.374 70.7723 550.82 70.9815C550.272 71.1847 549.629 71.2862 548.89 71.2862ZM549.758 68.8303C550.429 68.8303 551.011 68.6979 551.503 68.4332C551.995 68.1624 552.374 67.8054 552.639 67.3622C552.91 66.919 553.045 66.4358 553.045 65.9126V64.2415C552.94 64.3277 552.762 64.4077 552.509 64.4815C552.263 64.5554 551.986 64.62 551.678 64.6754C551.371 64.7308 551.066 64.7801 550.764 64.8232C550.463 64.8662 550.201 64.9032 549.98 64.9339C549.481 65.0017 549.035 65.1125 548.641 65.2663C548.247 65.4202 547.936 65.6357 547.708 65.9126C547.481 66.1835 547.367 66.5343 547.367 66.9652C547.367 67.5807 547.591 68.0455 548.041 68.3594C548.49 68.6733 549.062 68.8303 549.758 68.8303Z" fill="white"/>
<g clip-path="url(#clip1_146_59656)">
<path d="M132.999 97.8961L66.7272 136.278L0.0195312 97.8991L66.2943 59.5176L132.999 97.8961Z" fill="#74B03E"/>
<path d="M66.7282 136.278L66.7077 142L0 103.622L0.0204759 97.8994L66.7282 136.278Z" fill="#757575"/>
<path d="M132.999 97.8965L132.979 103.621L66.707 142L66.7275 136.278L132.999 97.8965Z" fill="#A9A9A9"/>
<path d="M112.102 109.999V115.71L132.978 103.621L132.999 97.8965L131.144 98.9721L112.102 109.999Z" fill="#71A058"/>
<path d="M84.4121 131.745L112.101 115.709V109.999L84.4121 126.037V131.745Z" fill="#BA6A22"/>
<path d="M132.999 97.8968L66.7272 136.278L0.0195312 97.8968L17.6084 87.7119L66.7272 115.97L115.41 87.776L132.999 97.8968Z" fill="#888888"/>
<path d="M55.5195 113.27L56.7364 112.57L62.4755 115.893L61.2586 116.593L55.5195 113.27Z" fill="white"/>
<path d="M52.6094 114.943L53.8262 114.243L59.5653 117.566L58.3514 118.266L52.6094 114.943Z" fill="white"/>
<path d="M49.7051 116.617L50.919 115.917L56.6581 119.243L55.4442 119.94L49.7051 116.617Z" fill="white"/>
<path d="M46.7949 118.289L48.0118 117.59L53.7509 120.913L52.534 121.613L46.7949 118.289Z" fill="white"/>
<path d="M43.8867 119.962L45.1036 119.263L50.8427 122.589L49.6258 123.288L43.8867 119.962Z" fill="white"/>
<path d="M42.8008 112.005L43.5467 111.576L47.0715 113.617L46.3256 114.045L42.8008 112.005Z" fill="white"/>
<path d="M36.752 108.53L37.4979 108.099L41.0227 110.142L40.2767 110.571L36.752 108.53Z" fill="white"/>
<path d="M30.6992 105.055L31.4451 104.624L34.9699 106.667L34.224 107.096L30.6992 105.055Z" fill="white"/>
<path d="M24.6504 101.578L25.3963 101.149L28.9182 103.19L28.1723 103.621L24.6504 101.578Z" fill="white"/>
<path d="M18.5977 98.1033L19.3436 97.6748L22.8684 99.7153L22.1224 100.147L18.5977 98.1033Z" fill="white"/>
<path d="M12.5488 94.6287L13.2918 94.2002L16.8166 96.2407L16.0707 96.6721L12.5488 94.6287Z" fill="white"/>
<path d="M112.103 109.999L84.4138 126.037L66.6875 116.001L94.5377 99.9453L112.103 109.999Z" fill="#A5580C"/>
<path d="M115.369 86.0292L66.6862 114.22L17.5703 85.9622L66.2562 57.7686L115.369 86.0292Z" fill="#74B03E"/>
<path d="M17.5703 85.9619V87.74L66.6862 115.998V114.22L17.5703 85.9619Z" fill="#3A6024"/>
<path d="M66.6855 115.998V114.22L115.369 86.0293V87.8074L66.6855 115.998Z" fill="#659350"/>
<path d="M132.999 95.7041L112.166 107.842V110.034L132.999 97.8962V95.7041Z" fill="#659350"/>
<path d="M133 95.7041L115.37 86.0293L94.5371 97.8641L112.167 107.842L133 95.7041Z" fill="#74B03E"/>
<path d="M112.167 110.034L94.5371 99.9455V97.8643L112.167 107.956V110.034Z" fill="#3A6024"/>
<path d="M39.5098 83.2744L34.5137 86.169L34.8618 84.7785L39.1617 82.3037L39.5098 83.2744Z" fill="#A9A9A9"/>
<path d="M34.8621 84.7788L34.514 86.1692L34.5023 86.213L34.473 86.1925L30.3223 83.7906L30.6791 82.3564L34.8621 84.7788Z" fill="#757575"/>
<path d="M34.8626 84.779L30.6797 82.3567L34.9826 79.8818L39.1626 82.3042L34.8626 84.779Z" fill="#CACECF"/>
<path d="M33.7832 78.631L33.7949 83.5631L36.448 82.0386L36.4363 77.1064L33.7832 78.631Z" fill="#A9A9A9"/>
<path d="M33.7832 78.631L33.7949 81.6101L36.448 80.0856L36.4363 77.1064L33.7832 78.631Z" fill="#757575"/>
<path d="M33.7841 78.6308L33.0879 78.2256L33.0996 83.1606L33.7958 83.5629L33.7841 78.6308Z" fill="#757575"/>
<path d="M36.4372 77.1064L35.7381 76.7012L33.0879 78.2257L33.7841 78.6309L36.4372 77.1064Z" fill="#5D6060"/>
<path d="M32.8008 73.2151L32.8242 81.4207L38.1304 78.3687L38.107 70.1602L32.8008 73.2151Z" fill="#494949"/>
<path d="M37.8081 78.182L37.7847 70.7168L33.125 73.3986L33.1455 80.8638L37.8081 78.182Z" fill="#63ABE5"/>
<path d="M32.8006 73.2147L31.4023 72.4043L31.4257 80.6129L32.824 81.4203L32.8006 73.2147Z" fill="#757575"/>
<path d="M38.1068 70.16L36.7115 69.3496L31.4023 72.4045L32.8006 73.2149L38.1068 70.16Z" fill="#CACECF"/>
<path d="M33.125 73.3984L37.8081 78.1819L33.1455 80.8637L33.125 73.3984Z" fill="#4F97C9"/>
<path d="M47.3477 80.1617L50.1675 78.5293V78.8237L47.3477 80.459V80.1617Z" fill="#A9A9A9"/>
<path d="M43.651 72.1604L43.6363 77.4132C43.6363 77.7513 43.8733 78.1652 44.1687 78.3343L47.3483 80.1649V80.4593L44.1687 78.6287C43.7299 78.378 43.376 77.7659 43.3789 77.2645L43.3936 72.0117L43.651 72.1604Z" fill="#757575"/>
<path d="M46.9889 76.6983C46.6935 76.5293 46.4536 76.1153 46.4566 75.7772L46.4712 70.5244L43.6513 72.1568L43.6367 77.4096C43.6367 77.7477 43.8737 78.1616 44.1691 78.3307L47.3487 80.1613L50.1685 78.5289L46.9889 76.6983Z" fill="#A9A9A9"/>
<path d="M43.3926 72.0113L46.2124 70.376L46.4698 70.5246L43.65 72.1599L43.3926 72.0113Z" fill="#929292"/>
<path d="M49.4631 64.0098L49.4807 69.9592L41.4717 74.5678L41.457 68.6154L49.4631 64.0098Z" fill="#494949"/>
<path d="M46.4673 71.6934L46.4644 72.3959L43.6445 74.0195L43.6475 73.317L46.4673 71.6934Z" fill="#757575"/>
<path d="M41.8809 68.8601L49.0416 64.7412L49.0562 69.7171L41.8955 73.8359L41.8809 68.8601Z" fill="#63ABE5"/>
<path d="M41.8809 68.8604L49.0562 69.7174L41.8955 73.8362L41.8809 68.8604Z" fill="#4F97C9"/>
<path d="M41.4719 74.5674L40.3867 73.9377L40.3691 67.9854L41.4573 68.615L41.4719 74.5674Z" fill="#757575"/>
<path d="M41.4573 68.6152L40.3691 67.9855L48.3782 63.377L49.4634 64.0095L41.4573 68.6152Z" fill="#CACECF"/>
<path d="M81.1535 69.1574L66.5307 77.6254L51.7793 69.1399L66.402 60.6719L81.1535 69.1574Z" fill="#A5580C"/>
<path d="M81.1545 69.1603L79.9493 69.8599L66.4001 62.0652L52.9854 69.8336L51.7773 69.1399L66.4001 60.6719L81.1545 69.1603Z" fill="#BF7028"/>
<path d="M96.1601 73.7139L96.1309 85.021C96.1309 85.2018 96.2508 85.3854 96.4906 85.5224C96.9704 85.7993 97.7426 85.7993 98.2194 85.5224C98.4563 85.3854 98.5733 85.2047 98.5763 85.0269L98.6055 73.7109H96.1601V73.7139Z" fill="#BA8649"/>
<path d="M97.0815 73.7139H96.1601L96.1309 85.0211C96.1309 85.2018 96.2508 85.3854 96.4906 85.5224C96.6603 85.6186 96.8651 85.6798 97.0815 85.709V73.7139Z" fill="#A5580C"/>
<path d="M104.862 76.4533C104.862 77.3453 101.487 78.4705 97.3271 78.4705C93.1647 78.4705 89.7891 77.3453 89.7891 76.4533L97.3242 65.6621L104.862 76.4533Z" fill="#649835"/>
<path d="M104.862 76.4533L97.3242 65.6621L100.416 78.2577C103.037 77.8875 104.862 77.1063 104.862 76.4533Z" fill="#75AA3D"/>
<path d="M91.3248 77.5756L97.3242 65.6592L89.7891 76.4504C89.7891 76.8177 90.3624 77.2258 91.3248 77.5756Z" fill="#4E7A37"/>
<path d="M102.649 68.9154C102.649 69.5333 100.309 70.3145 97.4245 70.3145C94.5374 70.3145 92.1973 69.5333 92.1973 68.9154L97.4216 61.4326L102.649 68.9154Z" fill="#649835"/>
<path d="M102.649 68.9154L97.4219 61.4326L99.566 70.1659C101.383 69.9094 102.649 69.3672 102.649 68.9154Z" fill="#75AA3D"/>
<path d="M93.262 69.6937L97.4216 61.4326L92.1973 68.9154C92.1973 69.169 92.5922 69.4517 93.262 69.6937Z" fill="#4E7A37"/>
<path d="M101.554 63.6713C101.554 64.1581 99.7049 64.7761 97.4233 64.7761C95.1417 64.7761 93.293 64.1581 93.293 63.6713L97.4233 57.7568L101.554 63.6713Z" fill="#649835"/>
<path d="M101.554 63.6713L97.4238 57.7568L99.1175 64.6595C100.554 64.4584 101.554 64.0299 101.554 63.6713Z" fill="#75AA3D"/>
<path d="M94.1335 64.2893L97.4213 57.7598L93.291 63.6743C93.291 63.8725 93.604 64.0969 94.1335 64.2893Z" fill="#4E7A37"/>
<path d="M101.842 76.6084L101.812 87.9156C101.812 88.0963 101.932 88.2799 102.172 88.417C102.652 88.6939 103.424 88.6939 103.901 88.417C104.138 88.2799 104.255 88.0992 104.258 87.9214L104.287 76.6055H101.842V76.6084Z" fill="#BA8649"/>
<path d="M102.763 76.6084H101.842L101.812 87.9156C101.812 88.0963 101.932 88.28 102.172 88.417C102.342 88.5132 102.547 88.5744 102.763 88.6035V76.6084Z" fill="#A5580C"/>
<path d="M108.485 76.2397C109.255 73.2473 107.445 70.1994 104.443 69.432C101.44 68.6646 98.3812 70.4683 97.6111 73.4607C96.8411 76.4531 98.6511 79.501 101.654 80.2684C104.657 81.0358 107.715 79.2321 108.485 76.2397Z" fill="#A7BC58"/>
<path d="M108.485 76.2397C109.255 73.2473 107.445 70.1994 104.443 69.432C101.44 68.6646 98.3812 70.4683 97.6111 73.4607C96.8411 76.4531 98.6511 79.501 101.654 80.2684C104.657 81.0358 107.715 79.2321 108.485 76.2397Z" fill="#649835"/>
<path d="M107.314 76.3064C108.573 74.9497 108.278 72.6367 106.654 71.1402C105.031 69.6437 102.694 69.5304 101.434 70.8872C100.175 72.2439 100.47 74.5569 102.094 76.0534C103.718 77.5498 106.055 77.6631 107.314 76.3064Z" fill="#75AA3D"/>
<path d="M107.818 77.798C106.829 79.3838 105.065 80.439 103.053 80.439C99.9521 80.439 97.4395 77.935 97.4395 74.8452C97.4395 72.8397 98.4984 71.079 100.093 70.0938C99.5573 70.9508 99.2472 71.9622 99.2472 73.0437C99.2472 76.1336 101.76 78.6375 104.861 78.6375C105.946 78.6405 106.961 78.3315 107.818 77.798Z" fill="#4E7A37"/>
<path d="M116.092 85.8174L116.062 97.1246C116.062 97.3053 116.182 97.4889 116.422 97.6259C116.902 97.9029 117.674 97.9029 118.151 97.6259C118.388 97.4889 118.505 97.3111 118.508 97.1304L118.537 85.8145H116.092V85.8174Z" fill="#BA8649"/>
<path d="M117.013 85.8174H116.092L116.062 97.1246C116.062 97.3053 116.182 97.4889 116.422 97.6259C116.592 97.7221 116.797 97.7834 117.013 97.8125V85.8174Z" fill="#A5580C"/>
<path d="M124.798 88.5569C124.798 89.4459 121.422 90.574 117.263 90.574C113.1 90.574 109.725 89.4488 109.725 88.5569L117.26 77.7656L124.798 88.5569Z" fill="#649835"/>
<path d="M124.798 88.5569L117.26 77.7656L120.352 90.3612C122.973 89.9939 124.798 89.2098 124.798 88.5569Z" fill="#75AA3D"/>
<path d="M111.26 89.682L117.26 77.7656L109.725 88.5569C109.722 88.9241 110.295 89.3293 111.26 89.682Z" fill="#4E7A37"/>
<path d="M122.584 81.0189C122.584 81.6368 120.244 82.4181 117.36 82.4181C114.473 82.4181 112.133 81.6368 112.133 81.0189L117.357 73.5361L122.584 81.0189Z" fill="#649835"/>
<path d="M122.585 81.0189L117.357 73.5361L119.502 82.2694C121.318 82.0158 122.585 81.4736 122.585 81.0189Z" fill="#75AA3D"/>
<path d="M113.198 81.8001L117.357 73.5391L112.133 81.0218C112.13 81.2725 112.528 81.5552 113.198 81.8001Z" fill="#4E7A37"/>
<path d="M121.487 75.7778C121.487 76.2646 119.638 76.8825 117.357 76.8825C115.075 76.8825 113.227 76.2646 113.227 75.7778L117.357 69.8633L121.487 75.7778Z" fill="#649835"/>
<path d="M121.488 75.7778L117.357 69.8633L119.051 76.7659C120.487 76.5648 121.488 76.1363 121.488 75.7778Z" fill="#75AA3D"/>
<path d="M114.069 76.3928L117.357 69.8633L113.227 75.7778C113.227 75.9789 113.54 76.2004 114.069 76.3928Z" fill="#4E7A37"/>
<path d="M107.307 83.8076L107.277 95.1148C107.277 95.2955 107.397 95.4792 107.637 95.6162C108.117 95.8931 108.889 95.8931 109.366 95.6162C109.603 95.4792 109.72 95.2984 109.723 95.1206L109.752 83.8047H107.307V83.8076Z" fill="#BA8649"/>
<path d="M108.23 83.8076H107.309L107.279 95.1148C107.279 95.2955 107.399 95.4792 107.639 95.6162C107.809 95.7124 108.014 95.7736 108.23 95.8027V83.8076Z" fill="#A5580C"/>
<path d="M114.001 83.2451C114.661 80.2267 112.741 77.2462 109.713 76.5879C106.684 75.9295 103.693 77.8427 103.032 80.861C102.371 83.8793 104.291 86.8599 107.32 87.5182C110.349 88.1766 113.34 86.2634 114.001 83.2451Z" fill="#A7BC58"/>
<path d="M114.001 83.2451C114.661 80.2267 112.741 77.2462 109.713 76.5879C106.684 75.9295 103.693 77.8427 103.032 80.861C102.371 83.8793 104.291 86.8599 107.32 87.5182C110.349 88.1766 113.34 86.2634 114.001 83.2451Z" fill="#649835"/>
<path d="M112.787 83.5113C114.046 82.1546 113.751 79.8414 112.128 78.3447C110.504 76.848 108.167 76.7345 106.907 78.0913C105.648 79.448 105.943 81.7612 107.567 83.2579C109.19 84.7546 111.527 84.868 112.787 83.5113Z" fill="#75AA3D"/>
<path d="M113.285 85.0002C112.296 86.5859 110.532 87.6411 108.52 87.6411C105.419 87.6411 102.906 85.1372 102.906 82.0473C102.906 80.0418 103.965 78.2812 105.559 77.2959C105.024 78.1529 104.714 79.1644 104.714 80.2459C104.714 83.3357 107.227 85.8397 110.327 85.8397C111.413 85.8397 112.428 85.5336 113.285 85.0002Z" fill="#4E7A37"/>
<path d="M121.908 87.3389L121.879 98.646C121.879 98.8268 121.999 99.0104 122.239 99.1474C122.718 99.4243 123.491 99.4243 123.967 99.1474C124.204 99.0104 124.321 98.8326 124.324 98.6519L124.354 87.3359H121.908V87.3389Z" fill="#BA8649"/>
<path d="M122.83 87.3389H121.908L121.879 98.6461C121.879 98.8268 121.999 99.0104 122.239 99.1474C122.408 99.2436 122.613 99.3048 122.83 99.334V87.3389Z" fill="#A5580C"/>
<path d="M127.087 89.5335C129.279 87.349 129.279 83.8072 127.087 81.6227C124.895 79.4382 121.341 79.4382 119.149 81.6227C116.957 83.8072 116.957 87.349 119.149 89.5335C121.341 91.718 124.895 91.718 127.087 89.5335Z" fill="#A7BC58"/>
<path d="M127.087 89.5335C129.279 87.349 129.279 83.8072 127.087 81.6227C124.895 79.4382 121.341 79.4382 119.149 81.6227C116.957 83.8072 116.957 87.349 119.149 89.5335C121.341 91.718 124.895 91.718 127.087 89.5335Z" fill="#649835"/>
<path d="M127.378 87.0359C128.638 85.6792 128.342 83.3662 126.719 81.8697C125.095 80.3732 122.758 80.2599 121.499 81.6167C120.24 82.9734 120.535 85.2864 122.158 86.7829C123.782 88.2793 126.119 88.3926 127.378 87.0359Z" fill="#75AA3D"/>
<path d="M127.884 88.5314C126.896 90.1172 125.132 91.1724 123.119 91.1724C120.019 91.1724 117.506 88.6684 117.506 85.5786C117.506 83.5731 118.565 81.8124 120.159 80.8271C119.624 81.6842 119.314 82.6956 119.314 83.7771C119.314 86.867 121.826 89.3709 124.927 89.3709C126.012 89.3709 127.027 89.062 127.884 88.5314Z" fill="#4E7A37"/>
<path d="M113.103 95.6632C113.103 94.2786 111.839 92.2061 110.28 92.2061C108.721 92.2061 107.457 94.2786 107.457 95.6632C107.457 97.0478 108.721 97.4938 110.28 97.4938C111.839 97.4938 113.103 97.0478 113.103 95.6632Z" fill="#649835"/>
<path d="M111.134 96.6366C109.788 96.6366 108.697 95.5493 108.697 94.2084C108.697 93.4592 109.037 92.7917 109.572 92.3486C108.355 92.8383 107.457 94.4941 107.457 95.663C107.457 97.0476 108.721 97.4936 110.28 97.4936C111.839 97.4936 113.103 97.0476 113.103 95.663C113.103 95.6542 113.103 95.6455 113.103 95.6367C112.658 96.243 111.944 96.6366 111.134 96.6366Z" fill="#4E7A37"/>
<path d="M121.552 97.214C121.552 95.8294 120.288 93.7568 118.729 93.7568C117.17 93.7568 115.906 95.8294 115.906 97.214C115.906 98.5986 117.17 99.0446 118.729 99.0446C120.288 99.0446 121.552 98.5986 121.552 97.214Z" fill="#649835"/>
<path d="M119.586 98.1874C118.241 98.1874 117.152 97.1001 117.152 95.7621C117.152 95.0129 117.492 94.3454 118.027 93.9023C116.81 94.3921 115.912 96.0478 115.912 97.2167C115.912 98.6013 117.176 99.0473 118.735 99.0473C120.294 99.0473 121.558 98.6013 121.558 97.2167C121.558 97.2079 121.558 97.1992 121.558 97.1904C121.11 97.7938 120.393 98.1874 119.586 98.1874Z" fill="#4E7A37"/>
<path d="M55.5537 72.1778C55.5537 70.7844 54.2812 68.7002 52.7134 68.7002C51.1455 68.7002 49.873 70.7844 49.873 72.1778C49.873 73.5711 51.1455 74.02 52.7134 74.02C54.2812 74.02 55.5537 73.5711 55.5537 72.1778Z" fill="#649835"/>
<path d="M53.5733 73.1599C52.219 73.1599 51.1221 72.0668 51.1221 70.7171C51.1221 69.9651 51.4643 69.2917 51.9996 68.8457C50.7769 69.3383 49.873 71.0057 49.873 72.1804C49.873 73.5738 51.1455 74.0227 52.7134 74.0227C54.2812 74.0227 55.5537 73.5738 55.5537 72.1804C55.5537 72.1717 55.5537 72.1629 55.5537 72.1542C55.1061 72.7605 54.3865 73.1599 53.5733 73.1599Z" fill="#4E7A37"/>
<path d="M61.0888 75.46C61.0888 74.0666 59.8164 71.9824 58.2485 71.9824C56.6806 71.9824 55.4082 74.0666 55.4082 75.46C55.4082 76.8533 56.6806 77.3022 58.2485 77.3022C59.8164 77.2993 61.0888 76.8533 61.0888 75.46Z" fill="#649835"/>
<path d="M59.1085 76.4392C57.7542 76.4392 56.6572 75.346 56.6572 73.9964C56.6572 73.2443 56.9995 72.571 57.5348 72.125C56.3121 72.6176 55.4082 74.285 55.4082 75.4597C55.4082 76.8531 56.6806 77.302 58.2485 77.302C59.8164 77.302 61.0888 76.8531 61.0888 75.4597C61.0888 75.451 61.0888 75.4422 61.0888 75.4335C60.6413 76.0398 59.9217 76.4392 59.1085 76.4392Z" fill="#4E7A37"/>
<path d="M66.9306 78.795C66.9306 77.4016 65.6582 75.3174 64.0903 75.3174C62.5224 75.3174 61.25 77.4016 61.25 78.795C61.25 80.1883 62.5224 80.6372 64.0903 80.6372C65.6582 80.6372 66.9306 80.1883 66.9306 78.795Z" fill="#649835"/>
<path d="M64.9523 79.7741C63.5979 79.7741 62.501 78.681 62.501 77.3314C62.501 76.5793 62.8432 75.906 63.3785 75.46C62.1558 75.9526 61.252 77.62 61.252 78.7947C61.252 80.1881 62.5244 80.637 64.0923 80.637C65.6601 80.637 66.9326 80.1881 66.9326 78.7947C66.9326 78.7859 66.9326 78.7772 66.9326 78.7685C66.485 79.3777 65.7654 79.7741 64.9523 79.7741Z" fill="#4E7A37"/>
<path d="M105.253 89.3061C105.253 87.9477 104.013 85.9131 102.483 85.9131C100.953 85.9131 99.7129 87.9477 99.7129 89.3061C99.7129 90.6645 100.953 91.1017 102.483 91.1017C104.013 91.1017 105.253 90.6645 105.253 89.3061Z" fill="#649835"/>
<path d="M103.319 90.262C101.999 90.262 100.929 89.1951 100.929 87.8804C100.929 87.1459 101.262 86.49 101.786 86.0527C100.592 86.5337 99.709 88.1603 99.709 89.3058C99.709 90.6642 100.949 91.1015 102.479 91.1015C104.009 91.1015 105.249 90.6642 105.249 89.3058C105.249 89.2971 105.249 89.2884 105.249 89.2796C104.816 89.8743 104.114 90.262 103.319 90.262Z" fill="#4E7A37"/>
<path d="M92.3547 82.2251C92.3547 80.8667 91.1144 78.832 89.5846 78.832C88.0547 78.832 86.8145 80.8667 86.8145 82.2251C86.8145 83.5834 88.0547 84.0207 89.5846 84.0207C91.1144 84.0236 92.3547 83.5864 92.3547 82.2251Z" fill="#649835"/>
<path d="M90.4241 83.1809C89.1048 83.1809 88.0342 82.114 88.0342 80.7994C88.0342 80.0648 88.3677 79.4089 88.8913 78.9717C87.6978 79.4527 86.8145 81.0792 86.8145 82.2248C86.8145 83.5832 88.0547 84.0204 89.5846 84.0204C91.1144 84.0204 92.3547 83.5832 92.3547 82.2248C92.3547 82.216 92.3547 82.2073 92.3547 82.1986C91.9217 82.7932 91.2197 83.1809 90.4241 83.1809Z" fill="#4E7A37"/>
<path d="M85.2492 76.5327C85.2492 75.1743 84.0089 73.1396 82.4791 73.1396C80.9492 73.1396 79.709 75.1743 79.709 76.5327C79.709 77.8911 80.9492 78.3283 82.4791 78.3283C84.0089 78.3283 85.2492 77.894 85.2492 76.5327Z" fill="#649835"/>
<path d="M83.3186 77.4915C81.9994 77.4915 80.9288 76.4246 80.9288 75.1099C80.9288 74.3753 81.2622 73.7195 81.7858 73.2822C80.5924 73.7632 79.709 75.3898 79.709 76.5353C79.709 77.8937 80.9492 78.331 82.4791 78.331C84.0089 78.331 85.2492 77.8937 85.2492 76.5353C85.2492 76.5266 85.2492 76.5178 85.2492 76.5091C84.8133 77.1038 84.1113 77.4915 83.3186 77.4915Z" fill="#4E7A37"/>
<path d="M100.288 85.1401C100.288 83.7817 99.048 81.7471 97.5181 81.7471C95.9883 81.7471 94.748 83.7817 94.748 85.1401C94.748 86.4985 95.9883 86.9357 97.5181 86.9357C99.048 86.9357 100.288 86.5014 100.288 85.1401Z" fill="#649835"/>
<path d="M98.3577 86.0959C97.0384 86.0959 95.9678 85.0291 95.9678 83.7144C95.9678 82.9798 96.3013 82.324 96.8249 81.8867C95.6314 82.3677 94.748 83.9942 94.748 85.1398C94.748 86.4982 95.9883 86.9355 97.5181 86.9355C99.048 86.9355 100.288 86.4982 100.288 85.1398C100.288 85.1311 100.288 85.1223 100.288 85.1136C99.8524 85.7082 99.1504 86.0959 98.3577 86.0959Z" fill="#4E7A37"/>
<path d="M84.5546 67.4492L84.5254 78.7564C84.5254 78.9371 84.6453 79.1208 84.8852 79.2578C85.3649 79.5347 86.1371 79.5347 86.6139 79.2578C86.8509 79.1208 86.9679 78.943 86.9708 78.7622L87.0001 67.4463H84.5546V67.4492Z" fill="#BA8649"/>
<path d="M85.4761 67.4492H84.5546L84.5254 78.7564C84.5254 78.9371 84.6453 79.1208 84.8852 79.2578C85.0548 79.354 85.2596 79.4152 85.4761 79.4443V67.4492Z" fill="#A5580C"/>
<path d="M89.7337 69.6439C91.9259 67.4594 91.9259 63.9176 89.7337 61.7331C87.5416 59.5486 83.9875 59.5486 81.7954 61.7331C79.6032 63.9176 79.6032 67.4594 81.7954 69.6439C83.9875 71.8284 87.5416 71.8284 89.7337 69.6439Z" fill="#A7BC58"/>
<path d="M89.7337 69.6439C91.9259 67.4594 91.9259 63.9176 89.7337 61.7331C87.5416 59.5486 83.9875 59.5486 81.7954 61.7331C79.6032 63.9176 79.6032 67.4594 81.7954 69.6439C83.9875 71.8284 87.5416 71.8284 89.7337 69.6439Z" fill="#649835"/>
<path d="M90.0267 67.1482C91.286 65.7915 90.9907 63.4785 89.3671 61.982C87.7436 60.4855 85.4066 60.3722 84.1473 61.729C82.888 63.0857 83.1833 65.3987 84.8069 66.8952C86.4305 68.3916 88.7675 68.5049 90.0267 67.1482Z" fill="#75AA3D"/>
<path d="M90.5307 68.6418C89.542 70.2275 87.7782 71.2827 85.7657 71.2827C82.665 71.2827 80.1523 68.7788 80.1523 65.6889C80.1523 63.6834 81.2112 61.9228 82.8054 60.9375C82.2701 61.7945 81.9601 62.806 81.9601 63.8875C81.9601 66.9773 84.4728 69.4813 87.5734 69.4813C88.6586 69.4813 89.6736 69.1723 90.5307 68.6418Z" fill="#4E7A37"/>
<path d="M93.2197 91.0869L93.2168 96.3863L94.1821 96.9402L94.185 91.6408L93.2197 91.0869Z" fill="#A9A9A9"/>
<path d="M93.2188 91.0869V91.2939L94.184 91.8331V91.6437L93.2188 91.0869Z" fill="#757575"/>
<path d="M94.1816 96.9402L95.1323 96.3893L95.1352 91.0928L94.1846 91.6408L94.1816 96.9402Z" fill="#757575"/>
<path d="M94.184 91.6409L95.1347 91.0929L94.1694 90.5361L93.2188 91.0871L94.184 91.6409Z" fill="#5593C5"/>
<path d="M93.0156 90.2686L93.0098 91.006L94.1827 91.6794L94.1886 90.9448L93.0156 90.2686Z" fill="#A9A9A9"/>
<path d="M94.1836 91.6794L95.339 91.0119L95.3449 90.2744L94.1894 90.9449L94.1836 91.6794Z" fill="#757575"/>
<path d="M94.1886 90.9444L95.344 90.2739L94.1711 89.6006L93.0156 90.2681L94.1886 90.9444Z" fill="#CACECF"/>
<path d="M93.8618 92.2832V92.8866L86.0137 97.4019V96.7985L93.8618 92.2832Z" fill="#757575"/>
<path d="M86.0139 97.4018L85.54 97.1278L85.5371 96.5244L86.0139 96.7984V97.4018Z" fill="#A9A9A9"/>
<path d="M86.0139 96.7981L85.5371 96.5241L93.3852 92.0088L93.862 92.2828L86.0139 96.7981Z" fill="#CACECF"/>
<path d="M93.8618 93.8652V94.4686L86.0137 98.9839V98.3805L93.8618 93.8652Z" fill="#757575"/>
<path d="M86.0139 98.9839L85.54 98.7098L85.5371 98.1064L86.0139 98.3804V98.9839Z" fill="#A9A9A9"/>
<path d="M86.0139 98.3801L85.5371 98.1061L93.3852 93.5908L93.862 93.8648L86.0139 98.3801Z" fill="#CACECF"/>
<path d="M93.8618 95.4072V96.0106L86.0137 100.526V99.9225L93.8618 95.4072Z" fill="#757575"/>
<path d="M86.0139 100.526L85.54 100.252L85.5371 99.6514L86.0139 99.9225V100.526Z" fill="#A9A9A9"/>
<path d="M86.0139 99.9221L85.5371 99.651L93.3852 95.1357L93.862 95.4068L86.0139 99.9221Z" fill="#CACECF"/>
<path d="M84.2256 96.2578L84.2227 101.557L85.188 102.114L85.1909 96.8146L84.2256 96.2578Z" fill="#A9A9A9"/>
<path d="M84.2246 96.2578V96.4677L85.1899 97.004V96.8146L84.2246 96.2578Z" fill="#757575"/>
<path d="M85.1875 102.114L86.1352 101.563L86.1411 96.2637L85.1904 96.8146L85.1875 102.114Z" fill="#757575"/>
<path d="M85.1899 96.8147L86.1406 96.2638L85.1753 95.71L84.2246 96.258L85.1899 96.8147Z" fill="#5593C5"/>
<path d="M84.0186 95.4424L84.0156 96.177L85.1886 96.8532L85.1915 96.1157L84.0186 95.4424Z" fill="#A9A9A9"/>
<path d="M85.1895 96.8533L86.3449 96.1828L86.3478 95.4482L85.1924 96.1158L85.1895 96.8533Z" fill="#757575"/>
<path d="M85.1906 96.1153L86.346 95.4478L85.173 94.7715L84.0176 95.4419L85.1906 96.1153Z" fill="#CACECF"/>
<path d="M84.854 97.4717V98.0751L77.0059 102.59V101.987L84.854 97.4717Z" fill="#757575"/>
<path d="M77.0061 102.59L76.5322 102.316L76.5293 101.713L77.0061 101.987V102.59Z" fill="#A9A9A9"/>
<path d="M77.0061 101.987L76.5293 101.713L84.3774 97.1973L84.8542 97.4713L77.0061 101.987Z" fill="#CACECF"/>
<path d="M84.854 99.0547V99.6581L77.0059 104.173V103.57L84.854 99.0547Z" fill="#757575"/>
<path d="M77.0061 104.173L76.5322 103.902L76.5293 103.299L77.0061 103.57V104.173Z" fill="#A9A9A9"/>
<path d="M77.0061 103.57L76.5293 103.299L84.3774 98.7832L84.8542 99.0543L77.0061 103.57Z" fill="#CACECF"/>
<path d="M84.854 100.6V101.203L77.0059 105.718V105.115L84.854 100.6Z" fill="#757575"/>
<path d="M77.0061 105.718L76.5322 105.444L76.5293 104.841L77.0061 105.115V105.718Z" fill="#A9A9A9"/>
<path d="M77.0061 105.114L76.5293 104.84L84.3774 100.325L84.8542 100.599L77.0061 105.114Z" fill="#CACECF"/>
<path d="M75.2197 101.45L75.2168 106.747L76.1821 107.303L76.185 102.004L75.2197 101.45Z" fill="#A9A9A9"/>
<path d="M75.2188 101.45V101.657L76.184 102.194V102.004L75.2188 101.45Z" fill="#757575"/>
<path d="M76.1816 107.303L77.1294 106.753L77.1352 101.453L76.1846 102.004L76.1816 107.303Z" fill="#757575"/>
<path d="M76.184 102.004L77.1347 101.453L76.1694 100.899L75.2188 101.45L76.184 102.004Z" fill="#5593C5"/>
<path d="M75.0127 100.631L75.0098 101.365L76.1827 102.042L76.1857 101.304L75.0127 100.631Z" fill="#A9A9A9"/>
<path d="M76.1836 102.042L77.339 101.371L77.3419 100.637L76.1865 101.304L76.1836 102.042Z" fill="#757575"/>
<path d="M76.1847 101.304L77.3401 100.636L76.1672 99.96L75.0117 100.63L76.1847 101.304Z" fill="#CACECF"/>
<path d="M75.8169 102.651L75.8198 103.252L67.9717 107.77L67.9688 107.167L75.8169 102.651Z" fill="#757575"/>
<path d="M67.9709 107.77L67.4941 107.496V106.893L67.968 107.167L67.9709 107.77Z" fill="#A9A9A9"/>
<path d="M67.968 107.166L67.4941 106.892L75.3423 102.377L75.8161 102.651L67.968 107.166Z" fill="#CACECF"/>
<path d="M75.8169 104.234L75.8198 104.838L67.9717 109.353L67.9688 108.75L75.8169 104.234Z" fill="#757575"/>
<path d="M67.9709 109.353L67.4941 109.079V108.476L67.968 108.75L67.9709 109.353Z" fill="#A9A9A9"/>
<path d="M67.968 108.749L67.4941 108.475L75.3423 103.96L75.8161 104.234L67.968 108.749Z" fill="#CACECF"/>
<path d="M75.8169 105.776L75.8198 106.38L67.9717 110.895L67.9688 110.292L75.8169 105.776Z" fill="#757575"/>
<path d="M67.9709 110.895L67.4941 110.621V110.018L67.968 110.292L67.9709 110.895Z" fill="#A9A9A9"/>
<path d="M67.968 110.291L67.4941 110.017L75.3423 105.502L75.8161 105.776L67.968 110.291Z" fill="#CACECF"/>
<path d="M22.9262 80.543L22.9292 85.8424L21.9639 86.3962L21.9609 81.0997L22.9262 80.543Z" fill="#A9A9A9"/>
<path d="M22.9262 80.543V80.7528L21.9609 81.2892V81.0997L22.9262 80.543Z" fill="#757575"/>
<path d="M21.9634 86.3963L21.0127 85.8483L21.0098 80.5488L21.9604 81.0998L21.9634 86.3963Z" fill="#757575"/>
<path d="M21.9604 81.0999L21.0098 80.5489L21.9751 79.9922L22.9257 80.5431L21.9604 81.0999Z" fill="#5593C5"/>
<path d="M23.132 79.7246L23.1378 80.4621L21.9648 81.1355L21.959 80.4009L23.132 79.7246Z" fill="#A9A9A9"/>
<path d="M21.964 81.1355L20.8086 80.468L20.8027 79.7305L21.9582 80.4009L21.964 81.1355Z" fill="#757575"/>
<path d="M21.9582 80.4004L20.8027 79.73L21.9757 79.0566L23.1311 79.7242L21.9582 80.4004Z" fill="#CACECF"/>
<path d="M22.3154 81.7822L22.3125 82.3856L30.1606 86.9009L30.1636 86.2975L22.3154 81.7822Z" fill="#757575"/>
<path d="M30.1602 86.9008L30.637 86.6268V86.0234L30.1631 86.2974L30.1602 86.9008Z" fill="#A9A9A9"/>
<path d="M30.1626 86.2971L30.6365 86.0231L22.7883 81.5078L22.3145 81.7818L30.1626 86.2971Z" fill="#CACECF"/>
<path d="M22.3154 83.3652L22.3125 83.9686L30.1606 88.4839L30.1636 87.8805L22.3154 83.3652Z" fill="#757575"/>
<path d="M30.1602 88.4839L30.637 88.2099V87.6094L30.1631 87.8805L30.1602 88.4839Z" fill="#A9A9A9"/>
<path d="M30.1626 87.8801L30.6365 87.609L22.7883 83.0908L22.3145 83.3648L30.1626 87.8801Z" fill="#CACECF"/>
<path d="M22.3154 84.9072L22.3125 85.5106L30.1606 90.0259L30.1636 89.4254L22.3154 84.9072Z" fill="#757575"/>
<path d="M30.1602 90.0259L30.637 89.7548V89.1514L30.1631 89.4254L30.1602 90.0259Z" fill="#A9A9A9"/>
<path d="M30.1626 89.425L30.6365 89.151L22.7883 84.6357L22.3145 84.9068L30.1626 89.425Z" fill="#CACECF"/>
<path d="M32.0395 85.8691L32.0424 91.1686L31.0771 91.7224L31.0742 86.4259L32.0395 85.8691Z" fill="#A9A9A9"/>
<path d="M32.0366 85.8691V86.079L31.0742 86.6154V86.4259L32.0366 85.8691Z" fill="#757575"/>
<path d="M31.0766 91.7224L30.126 91.1744L30.123 85.875L31.0737 86.4259L31.0766 91.7224Z" fill="#757575"/>
<path d="M31.0737 86.4261L30.123 85.8751L31.0883 85.3184L32.039 85.8693L31.0737 86.4261Z" fill="#5593C5"/>
<path d="M32.2433 85.0498L32.2462 85.7873L31.0732 86.4607L31.0703 85.7261L32.2433 85.0498Z" fill="#A9A9A9"/>
<path d="M31.0724 86.4607L29.917 85.7932L29.9141 85.0557L31.0695 85.7261L31.0724 86.4607Z" fill="#757575"/>
<path d="M31.0695 85.7256L29.9141 85.0552L31.087 84.3818L32.2425 85.0494L31.0695 85.7256Z" fill="#CACECF"/>
<path d="M31.4238 87.1084V87.7118L39.272 92.2271L39.2749 91.6237L31.4238 87.1084Z" fill="#757575"/>
<path d="M39.2715 92.227L39.7454 91.953L39.7483 91.3496L39.2744 91.6236L39.2715 92.227Z" fill="#A9A9A9"/>
<path d="M39.2749 91.6233L39.7488 91.3493L31.9006 86.834L31.4238 87.108L39.2749 91.6233Z" fill="#CACECF"/>
<path d="M31.4238 88.6914V89.2948L39.272 93.8101L39.2749 93.2067L31.4238 88.6914Z" fill="#757575"/>
<path d="M39.2715 93.81L39.7454 93.536L39.7483 92.9355L39.2744 93.2066L39.2715 93.81Z" fill="#A9A9A9"/>
<path d="M39.2749 93.2063L39.7488 92.9352L31.9006 88.417L31.4238 88.691L39.2749 93.2063Z" fill="#CACECF"/>
<path d="M31.4238 90.2334V90.8368L39.272 95.3521L39.2749 94.7516L31.4238 90.2334Z" fill="#757575"/>
<path d="M39.2715 95.352L39.7454 95.0809L39.7483 94.4775L39.2744 94.7515L39.2715 95.352Z" fill="#A9A9A9"/>
<path d="M39.2749 94.7512L39.7488 94.4772L31.9006 89.9619L31.4238 90.233L39.2749 94.7512Z" fill="#CACECF"/>
<path d="M41.06 91.0869L41.063 96.3834L40.1006 96.9402L40.0977 91.6408L41.06 91.0869Z" fill="#A9A9A9"/>
<path d="M41.06 91.0869V91.2939L40.0977 91.8302V91.6408L41.06 91.0869Z" fill="#757575"/>
<path d="M40.1001 96.9402L39.1494 96.3893L39.1465 91.0898L40.0972 91.6408L40.1001 96.9402Z" fill="#757575"/>
<path d="M40.0972 91.6409L39.1465 91.09L40.1118 90.5361L41.0595 91.0871L40.0972 91.6409Z" fill="#5593C5"/>
<path d="M41.2687 90.2686L41.2716 91.0031L40.0986 91.6794L40.0957 90.9419L41.2687 90.2686Z" fill="#A9A9A9"/>
<path d="M40.0978 91.6794L38.9424 91.009L38.9395 90.2744L40.0949 90.9419L40.0978 91.6794Z" fill="#757575"/>
<path d="M40.0949 90.9415L38.9395 90.2739L40.1124 89.5977L41.2679 90.2681L40.0949 90.9415Z" fill="#CACECF"/>
<path d="M40.4209 92.2793L40.418 92.8827L48.2661 97.398L48.269 96.7946L40.4209 92.2793Z" fill="#757575"/>
<path d="M48.2656 97.3979L48.7424 97.1268V96.5234L48.2686 96.7945L48.2656 97.3979Z" fill="#A9A9A9"/>
<path d="M48.2681 96.7942L48.7419 96.5231L40.8938 92.0078L40.4199 92.2789L48.2681 96.7942Z" fill="#CACECF"/>
<path d="M40.4209 93.8652L40.418 94.4686L48.2661 98.9839L48.269 98.3805L40.4209 93.8652Z" fill="#757575"/>
<path d="M48.2656 98.9839L48.7424 98.7098V98.1064L48.2686 98.3804L48.2656 98.9839Z" fill="#A9A9A9"/>
<path d="M48.2681 98.3801L48.7419 98.1061L40.8938 93.5908L40.4199 93.8648L48.2681 98.3801Z" fill="#CACECF"/>
<path d="M40.4209 95.4072L40.418 96.0106L48.2661 100.526L48.269 99.9225L40.4209 95.4072Z" fill="#757575"/>
<path d="M48.2656 100.526L48.7424 100.252V99.6484L48.2686 99.9224L48.2656 100.526Z" fill="#A9A9A9"/>
<path d="M48.2681 99.9221L48.7419 99.6481L40.8938 95.1328L40.4199 95.4068L48.2681 99.9221Z" fill="#CACECF"/>
<path d="M50.0571 96.2578L50.06 101.557L49.0947 102.111L49.0918 96.8117L50.0571 96.2578Z" fill="#A9A9A9"/>
<path d="M50.0571 96.2578V96.4677L49.0918 97.004V96.8146L50.0571 96.2578Z" fill="#757575"/>
<path d="M49.0942 102.111L48.1435 101.56L48.1406 96.2637L49.0913 96.8117L49.0942 102.111Z" fill="#757575"/>
<path d="M49.0913 96.8118L48.1406 96.2638L49.1059 95.707L50.0566 96.258L49.0913 96.8118Z" fill="#5593C5"/>
<path d="M50.2628 95.4395L50.2687 96.1769L49.0957 96.8503L49.0898 96.1157L50.2628 95.4395Z" fill="#A9A9A9"/>
<path d="M49.0949 96.8503L47.9394 96.1828L47.9336 95.4453L49.089 96.1158L49.0949 96.8503Z" fill="#757575"/>
<path d="M49.089 96.1153L47.9336 95.4448L49.1066 94.7715L50.262 95.439L49.089 96.1153Z" fill="#CACECF"/>
<path d="M49.4287 97.4707L49.4258 98.0741L57.2739 102.589L57.2768 101.986L49.4287 97.4707Z" fill="#757575"/>
<path d="M57.2734 102.589L57.7502 102.315L57.7532 101.712L57.2764 101.986L57.2734 102.589Z" fill="#A9A9A9"/>
<path d="M57.2759 101.986L57.7527 101.712L49.9016 97.1963L49.4277 97.4703L57.2759 101.986Z" fill="#CACECF"/>
<path d="M49.4287 99.0537L49.4258 99.6571L57.2739 104.172L57.2768 103.569L49.4287 99.0537Z" fill="#757575"/>
<path d="M57.2734 104.172L57.7502 103.898L57.7532 103.295L57.2764 103.569L57.2734 104.172Z" fill="#A9A9A9"/>
<path d="M57.2759 103.569L57.7527 103.295L49.9016 98.7793L49.4277 99.0533L57.2759 103.569Z" fill="#CACECF"/>
<path d="M49.4287 100.596L49.4258 101.199L57.2739 105.714L57.2768 105.111L49.4287 100.596Z" fill="#757575"/>
<path d="M57.2734 105.714L57.7502 105.44L57.7532 104.84L57.2764 105.111L57.2734 105.714Z" fill="#A9A9A9"/>
<path d="M57.2759 105.111L57.7527 104.84L49.9016 100.324L49.4277 100.595L57.2759 105.111Z" fill="#CACECF"/>
<path d="M59.0649 101.446L59.0678 106.746L58.1025 107.302L58.0996 102.003L59.0649 101.446Z" fill="#A9A9A9"/>
<path d="M59.0649 101.446V101.656L58.0996 102.193V102.003L59.0649 101.446Z" fill="#757575"/>
<path d="M58.102 107.303L57.1514 106.752L57.1484 101.452L58.0991 102.003L58.102 107.303Z" fill="#757575"/>
<path d="M58.0991 102.003L57.1484 101.452L58.1137 100.898L59.0644 101.446L58.0991 102.003Z" fill="#5593C5"/>
<path d="M59.2687 100.628L59.2745 101.365L58.1016 102.042L58.0957 101.304L59.2687 100.628Z" fill="#A9A9A9"/>
<path d="M58.1007 102.042L56.9453 101.371L56.9395 100.634L58.0949 101.304L58.1007 102.042Z" fill="#757575"/>
<path d="M58.0949 101.304L56.9395 100.633L58.1124 99.96L59.2679 100.627L58.0949 101.304Z" fill="#CACECF"/>
<path d="M94.4756 92.2705L94.4727 92.8739L102.321 97.3892L102.324 96.7887L94.4756 92.2705Z" fill="#757575"/>
<path d="M102.32 97.3891L102.797 97.1181V96.5146L102.323 96.7887L102.32 97.3891Z" fill="#A9A9A9"/>
<path d="M102.323 96.7883L102.797 96.5143L94.9485 91.999L94.4746 92.2701L102.323 96.7883Z" fill="#CACECF"/>
<path d="M94.4756 93.8564L94.4727 94.4598L102.321 98.9751L102.324 98.3717L94.4756 93.8564Z" fill="#757575"/>
<path d="M102.32 98.9751L102.797 98.7011V98.0977L102.323 98.3717L102.32 98.9751Z" fill="#A9A9A9"/>
<path d="M102.323 98.3713L102.797 98.0973L94.9485 93.582L94.4746 93.856L102.323 98.3713Z" fill="#CACECF"/>
<path d="M94.4756 95.3984L94.4727 96.0018L102.321 100.517L102.324 99.9137L94.4756 95.3984Z" fill="#757575"/>
<path d="M102.32 100.517L102.797 100.243V99.6396L102.323 99.9137L102.32 100.517Z" fill="#A9A9A9"/>
<path d="M102.323 99.9133L102.797 99.6393L94.9485 95.124L94.4746 95.398L102.323 99.9133Z" fill="#CACECF"/>
<path d="M104.2 96.3594L104.203 101.659L103.237 102.213L103.234 96.9132L104.2 96.3594Z" fill="#A9A9A9"/>
<path d="M104.197 96.3594V96.5663L103.234 97.1056V96.9161L104.197 96.3594Z" fill="#757575"/>
<path d="M103.237 102.213L102.286 101.662L102.283 96.3652L103.234 96.9132L103.237 102.213Z" fill="#757575"/>
<path d="M103.234 96.9134L102.283 96.3654L103.248 95.8086L104.199 96.3595L103.234 96.9134Z" fill="#5593C5"/>
<path d="M104.403 95.541L104.406 96.2785L103.233 96.9519L103.23 96.2173L104.403 95.541Z" fill="#A9A9A9"/>
<path d="M103.233 96.9519L102.077 96.2844L102.074 95.5469L103.23 96.2173L103.233 96.9519Z" fill="#757575"/>
<path d="M103.23 96.2168L102.074 95.5464L103.247 94.8701L104.403 95.5406L103.23 96.2168Z" fill="#CACECF"/>
<path d="M103.587 97.5996L103.584 98.2001L111.432 102.715L111.435 102.115L103.587 97.5996Z" fill="#757575"/>
<path d="M111.432 102.715L111.906 102.444L111.908 101.841L111.435 102.115L111.432 102.715Z" fill="#A9A9A9"/>
<path d="M111.436 102.115L111.91 101.84L104.062 97.3252L103.588 97.5992L111.436 102.115Z" fill="#CACECF"/>
<path d="M103.587 99.1816L103.584 99.785L111.432 104.3L111.435 103.697L103.587 99.1816Z" fill="#757575"/>
<path d="M111.432 104.3L111.906 104.026L111.908 103.423L111.435 103.697L111.432 104.3Z" fill="#A9A9A9"/>
<path d="M111.436 103.697L111.91 103.423L104.062 98.9072L103.588 99.1812L111.436 103.697Z" fill="#CACECF"/>
<path d="M103.587 100.724L103.584 101.327L111.432 105.842L111.435 105.239L103.587 100.724Z" fill="#757575"/>
<path d="M111.432 105.842L111.906 105.568L111.908 104.965L111.435 105.239L111.432 105.842Z" fill="#A9A9A9"/>
<path d="M111.436 105.239L111.91 104.965L104.062 100.449L103.588 100.723L111.436 105.239Z" fill="#CACECF"/>
<path d="M113.22 101.574L113.226 106.874L112.261 107.427L112.258 102.131L113.22 101.574Z" fill="#A9A9A9"/>
<path d="M113.22 101.574V101.784L112.258 102.32V102.131L113.22 101.574Z" fill="#757575"/>
<path d="M112.26 107.428L111.31 106.88L111.307 101.58L112.257 102.131L112.26 107.428Z" fill="#757575"/>
<path d="M112.257 102.131L111.307 101.58L112.272 101.023L113.22 101.574L112.257 102.131Z" fill="#5593C5"/>
<path d="M113.429 100.756L113.432 101.493L112.259 102.167L112.256 101.432L113.429 100.756Z" fill="#A9A9A9"/>
<path d="M112.258 102.167L111.103 101.499L111.1 100.762L112.255 101.432L112.258 102.167Z" fill="#757575"/>
<path d="M112.255 101.432L111.1 100.761L112.273 100.088L113.428 100.755L112.255 101.432Z" fill="#CACECF"/>
<path d="M68.1001 106.626L68.103 111.925L67.1377 112.479L67.1348 107.18L68.1001 106.626Z" fill="#A9A9A9"/>
<path d="M68.1001 106.626V106.833L67.1348 107.372V107.183L68.1001 106.626Z" fill="#757575"/>
<path d="M67.1372 112.479L66.1894 111.928L66.1836 106.632L67.1343 107.18L67.1372 112.479Z" fill="#757575"/>
<path d="M67.1343 107.18L66.1836 106.632L67.1489 106.075L68.0996 106.626L67.1343 107.18Z" fill="#5593C5"/>
<path d="M68.3077 105.808L68.3107 106.545L67.1377 107.218L67.1348 106.484L68.3077 105.808Z" fill="#A9A9A9"/>
<path d="M67.1369 107.218L65.9814 106.551L65.9785 105.813L67.1339 106.484L67.1369 107.218Z" fill="#757575"/>
<path d="M67.1339 106.483L65.9785 105.813L67.1515 105.137L68.3069 105.807L67.1339 106.483Z" fill="#CACECF"/>
<path d="M97.7514 112.062L90.3771 116.333L82.9531 112.062L90.3274 107.792L97.7514 112.062Z" fill="#CACECF"/>
<path d="M97.7522 112.062L97.7405 113.89L90.3633 118.161L90.3779 116.333L97.7522 112.062Z" fill="#A9A9A9"/>
<path d="M90.3781 116.333L90.3634 118.161L82.9395 113.89L82.9541 112.062L90.3781 116.333Z" fill="#757575"/>
<path d="M88.8202 68.417L102.437 76.2495L92.0701 82.2544L88.8202 80.383L85.9624 82.0387L75.5957 76.0746L88.8202 68.417Z" fill="#292C30"/>
<path d="M102.437 76.2495L101.916 76.5527L88.8202 69.0175L76.1164 76.3749L75.5957 76.0746L88.8202 68.417L102.437 76.2495Z" fill="#494949"/>
<path d="M102.438 76.2529V76.25H102.44L102.438 76.2529Z" fill="#494949"/>
<path d="M88.7184 76.9811C89.2098 76.9111 89.6076 77.2842 89.6076 77.8148C89.6076 78.3453 89.2069 78.8292 88.7154 78.8991C88.224 78.9691 87.8233 78.596 87.8262 78.0655C87.8233 77.5349 88.224 77.051 88.7184 76.9811Z" fill="#292C30"/>
<path d="M88.7171 76.9811C88.7669 76.9753 88.8166 76.9724 88.8634 76.9753C88.878 76.9753 88.8926 76.9782 88.9073 76.9782C88.9394 76.9811 88.9716 76.987 89.0038 76.9928C89.0184 76.9957 89.036 77.0015 89.0506 77.0045C89.0828 77.0132 89.112 77.0249 89.1413 77.0365C89.1588 77.0453 89.1793 77.0511 89.1939 77.0598L84.034 74.2615C84.0252 74.2556 84.0164 74.2527 84.0077 74.2469C83.9989 74.244 83.9901 74.2411 83.9813 74.2381C83.9521 74.2265 83.9228 74.2148 83.8907 74.2061C83.8819 74.2032 83.876 74.2002 83.8673 74.1973C83.8585 74.1944 83.8526 74.1944 83.8439 74.1944C83.8117 74.1886 83.7824 74.1828 83.7473 74.1798C83.7327 74.1798 83.7181 74.1769 83.7035 74.1769C83.6567 74.174 83.6069 74.1769 83.5572 74.1828C83.0658 74.2527 82.665 74.7366 82.6621 75.2671C82.6621 75.6082 82.8259 75.8851 83.0746 76.0192L88.2345 78.8176C87.9859 78.6835 87.8191 78.4066 87.822 78.0655C87.822 77.535 88.2228 77.0511 88.7171 76.9811Z" fill="#B0B4B5"/>
<path d="M88.2355 78.8173L83.0755 76.0189C82.824 75.8849 82.6602 75.6079 82.6602 75.2669C82.6602 75.1532 82.6806 75.0424 82.7157 74.9346L87.8757 77.7329C87.8406 77.8379 87.823 77.9516 87.823 78.0653C87.823 78.4063 87.9868 78.6832 88.2355 78.8173Z" fill="#757575"/>
<path d="M91.4888 76.9811C90.9974 76.9111 90.5996 77.2842 90.5996 77.8148C90.5996 78.3453 91.0003 78.8292 91.4918 78.8991C91.9832 78.9691 92.3839 78.596 92.381 78.0655C92.381 77.5349 91.9803 77.051 91.4888 76.9811Z" fill="#292C30"/>
<path d="M91.4885 76.9811C91.4388 76.9753 91.3891 76.9724 91.3423 76.9753C91.3276 76.9753 91.313 76.9782 91.2984 76.9782C91.2662 76.9811 91.234 76.987 91.2019 76.9928C91.1872 76.9957 91.1697 77.0015 91.155 77.0045C91.1229 77.0132 91.0936 77.0249 91.0644 77.0365C91.0468 77.0453 91.0263 77.0511 91.0117 77.0598L96.1717 74.2615C96.1804 74.2556 96.1892 74.2527 96.198 74.2469C96.2068 74.244 96.2155 74.2411 96.2243 74.2381C96.2536 74.2265 96.2828 74.2148 96.315 74.2061C96.3238 74.2032 96.3296 74.2002 96.3384 74.1973C96.3472 74.1944 96.353 74.1944 96.3618 74.1944C96.394 74.1886 96.4232 74.1828 96.4583 74.1798C96.4729 74.1798 96.4876 74.1769 96.5022 74.1769C96.549 74.174 96.5987 74.1769 96.6484 74.1828C97.1399 74.2527 97.5406 74.7366 97.5435 75.2671C97.5435 75.6082 97.3797 75.8851 97.1311 76.0192L91.9712 78.8176C92.2198 78.6835 92.3865 78.4066 92.3836 78.0655C92.3807 77.535 91.9799 77.0511 91.4885 76.9811Z" fill="#B0B4B5"/>
<path d="M97.5441 75.2672C97.5441 75.6083 97.3802 75.8852 97.1287 76.0193L91.9688 78.8177C92.2203 78.6836 92.3841 78.4066 92.3841 78.0656C92.3841 77.9082 92.3461 77.7508 92.2817 77.6109L97.4446 74.8096C97.506 74.9524 97.5441 75.1069 97.5441 75.2672Z" fill="#757575"/>
<path d="M92.8642 73.9032L92.7881 112.089C92.7881 112.457 92.5453 112.827 92.0598 113.107C91.0828 113.672 89.4944 113.672 88.5116 113.107C88.0172 112.821 87.7686 112.448 87.7715 112.075L87.8476 73.8887C87.8476 74.2618 88.0933 74.6349 88.5876 74.9206C89.5705 75.4861 91.1588 75.4861 92.1358 74.9206C92.6185 74.6407 92.8612 74.2734 92.8642 73.9032Z" fill="#A9A9A9"/>
<path d="M89.9273 75.3228C89.4359 75.2733 88.9649 75.1392 88.5876 74.9206C88.0933 74.6349 87.8446 74.2618 87.8475 73.8887L87.7715 112.075C87.7715 112.448 88.0172 112.821 88.5115 113.107C88.9123 113.337 89.4096 113.471 89.9273 113.515V75.3228Z" fill="#757575"/>
<path d="M92.1249 72.8714C93.1078 73.4369 93.1136 74.3551 92.1367 74.9206C91.1597 75.4861 89.5713 75.4861 88.5885 74.9206C87.6056 74.3551 87.5998 73.4369 88.5768 72.8714C89.5508 72.3059 91.1421 72.3059 92.1249 72.8714Z" fill="#CACECF"/>
<path d="M96.9996 81.2018C97.491 81.1318 97.8888 81.5049 97.8888 82.0355C97.8888 82.566 97.4881 83.0499 96.9967 83.1198C96.5053 83.1898 96.1045 82.8167 96.1074 82.2862C96.1074 81.7556 96.5082 81.2717 96.9996 81.2018Z" fill="#292C30"/>
<path d="M97.0003 81.2018C97.0501 81.196 97.0998 81.1931 97.1466 81.196C97.1612 81.196 97.1759 81.1989 97.1905 81.1989C97.2227 81.2018 97.2548 81.2077 97.287 81.2135C97.3016 81.2164 97.3192 81.2222 97.3338 81.2252C97.366 81.2339 97.3952 81.2456 97.4245 81.2572C97.442 81.266 97.4625 81.2718 97.4771 81.2805L92.3172 78.4822C92.3084 78.4763 92.2997 78.4734 92.2909 78.4676C92.2821 78.4647 92.2733 78.4618 92.2646 78.4588C92.2353 78.4472 92.206 78.4355 92.1739 78.4268C92.1651 78.4239 92.1592 78.4209 92.1505 78.418C92.1417 78.4151 92.1358 78.4151 92.1271 78.4151C92.0949 78.4093 92.0656 78.4035 92.0305 78.4005C92.0159 78.4005 92.0013 78.3976 91.9867 78.3976C91.9399 78.3947 91.8901 78.3976 91.8404 78.4035C91.349 78.4734 90.9482 78.9573 90.9453 79.4878C90.9453 79.8289 91.1091 80.1058 91.3578 80.2399L96.5177 83.0383C96.2691 82.9042 96.1023 82.6273 96.1052 82.2862C96.1082 81.7557 96.5089 81.2718 97.0003 81.2018Z" fill="#B0B4B5"/>
<path d="M96.5206 83.0387L91.3607 80.2404C91.112 80.1034 90.9453 79.8294 90.9453 79.4883C90.9453 79.3571 90.9716 79.2289 91.0184 79.1064C91.0916 79.2755 91.2086 79.4067 91.3607 79.4883L96.1287 82.0739C96.117 82.1439 96.1082 82.2109 96.1082 82.2838C96.1052 82.6277 96.272 82.9017 96.5206 83.0387Z" fill="#757575"/>
<path d="M97.4764 81.2834C97.4588 81.2746 97.4384 81.2688 97.4208 81.26C97.3916 81.2455 97.3623 81.2367 97.3301 81.2251C97.3155 81.2192 97.3009 81.2163 97.2863 81.2134C97.2541 81.2046 97.2219 81.2046 97.1897 81.1988C97.1751 81.1988 97.1634 81.1959 97.1488 81.1959C97.099 81.193 97.0522 81.1959 97.0025 81.2017C96.6339 81.2542 96.3151 81.5399 96.1806 81.9042C96.1337 81.7964 96.1074 81.671 96.1074 81.5399C96.1103 81.2309 96.2449 80.9365 96.4584 80.7324L97.4764 81.2834Z" fill="#757575"/>
<path d="M96.5199 82.2891L96.125 82.0763C96.1367 82.018 96.1542 81.9597 96.1777 81.9043C96.2479 82.0734 96.3678 82.2075 96.5199 82.2891Z" fill="#757575"/>
<path d="M82.8834 81.2018C82.392 81.1318 81.9941 81.5049 81.9941 82.0355C81.9941 82.566 82.3949 83.0499 82.8863 83.1198C83.3777 83.1898 83.7785 82.8167 83.7755 82.2862C83.7755 81.7556 83.3748 81.2717 82.8834 81.2018Z" fill="#292C30"/>
<path d="M82.883 81.2018C82.8333 81.196 82.7836 81.1931 82.7368 81.196C82.7222 81.196 82.7075 81.1989 82.6929 81.1989C82.6607 81.2018 82.6286 81.2077 82.5964 81.2135C82.5818 81.2164 82.5642 81.2222 82.5496 81.2252C82.5174 81.2339 82.4882 81.2456 82.4589 81.2572C82.4413 81.266 82.4209 81.2718 82.4062 81.2805L87.5662 78.4822C87.575 78.4763 87.5837 78.4734 87.5925 78.4676C87.6013 78.4647 87.6101 78.4618 87.6188 78.4588C87.6481 78.4472 87.6773 78.4355 87.7095 78.4268C87.7183 78.4239 87.7241 78.4209 87.7329 78.418C87.7417 78.4151 87.7475 78.4151 87.7563 78.4151C87.7885 78.4093 87.8177 78.4035 87.8528 78.4005C87.8675 78.4005 87.8821 78.3976 87.8967 78.3976C87.9435 78.3947 87.9933 78.3976 88.043 78.4035C88.5344 78.4734 88.9351 78.9573 88.9381 79.4878C88.9381 79.8289 88.7743 80.1058 88.5256 80.2399L83.3657 83.0383C83.6143 82.9042 83.7811 82.6273 83.7781 82.2862C83.7752 81.7557 83.3745 81.2718 82.883 81.2018Z" fill="#B0B4B5"/>
<path d="M82.883 81.2019C82.9708 81.2136 83.0556 81.2456 83.1375 81.2806C83.1024 81.1699 83.0586 81.062 82.9971 80.9629L82.4062 81.2835C82.4238 81.2748 82.4413 81.269 82.4589 81.2602C82.4882 81.2486 82.5174 81.2369 82.5496 81.2282C82.5642 81.2223 82.5788 81.2194 82.5964 81.2165C82.6286 81.2107 82.6578 81.2048 82.6929 81.2019C82.7075 81.2019 82.7222 81.199 82.7368 81.199C82.7836 81.1932 82.8333 81.1961 82.883 81.2019Z" fill="#757575"/>
<path d="M83.7319 82.0005C83.7582 82.0938 83.7757 82.1871 83.7757 82.2862C83.7757 82.6272 83.6119 82.9042 83.3633 83.0383L88.5232 80.2399C88.7719 80.1058 88.9386 79.8289 88.9357 79.4878C88.9357 79.3916 88.9181 79.2954 88.8918 79.2021L83.7319 82.0005Z" fill="#757575"/>
<path d="M89.216 83.9068L89.1517 94.9399L75.5352 87.1074L75.5966 76.0742L89.216 83.9068Z" fill="#494949"/>
<path d="M76.0586 86.8068L76.1142 76.9688L88.6922 84.2066L88.6367 94.0447L76.0586 86.8068Z" fill="#63ABE5"/>
<path d="M76.1142 76.9688L88.6367 94.0447L76.0586 86.8068L76.1142 76.9688Z" fill="#4F97C9"/>
<path d="M102.438 76.249L102.377 87.2822L89.1523 94.9398L89.2167 83.9067L102.438 76.249Z" fill="#494949"/>
<path d="M93.0652 92.6777L93.0623 94.1556L89.1543 96.4176L89.1601 94.9339L93.0652 92.6777Z" fill="#757575"/>
<path d="M89.7353 84.2066L101.913 77.1553L101.857 86.9846L89.6797 94.0359L89.7353 84.2066Z" fill="#4F97C9"/>
<path d="M101.911 77.1553L89.6777 94.0359L101.855 86.9846L101.911 77.1553Z" fill="#63ABE5"/>
<path d="M58.7449 98.7032L57.4315 99.464L56.1094 98.7032L57.4228 97.9424L58.7449 98.7032Z" fill="#CACECF"/>
<path d="M58.746 98.7031L58.7196 99.0675L57.4062 99.8283L57.4326 99.4639L58.746 98.7031Z" fill="#A9A9A9"/>
<path d="M57.4325 99.4639L57.4061 99.8283L56.084 99.0675L56.1103 98.7031L57.4325 99.4639Z" fill="#757575"/>
<path d="M54.5689 90.6669L44.2461 84.6882L44.6615 84.4492L54.9843 90.4249L54.5689 90.6669Z" fill="#CACECF"/>
<path d="M58.1188 93.7274L57.3934 94.1471L56.6621 93.7274L57.3875 93.3076L58.1188 93.7274Z" fill="#CACECF"/>
<path d="M58.119 93.7275L58.1043 98.7763L57.3789 99.196L57.3935 94.1473L58.119 93.7275Z" fill="#A9A9A9"/>
<path d="M57.3943 94.1473L57.3797 99.196L56.6484 98.7763L56.6631 93.7275L57.3943 94.1473Z" fill="#757575"/>
<path d="M47.6326 92.4571L46.3163 93.2179L44.9941 92.4571L46.3075 91.6963L47.6326 92.4571Z" fill="#CACECF"/>
<path d="M47.6327 92.457L47.6064 92.8243L46.293 93.5822L46.3164 93.2178L47.6327 92.457Z" fill="#A9A9A9"/>
<path d="M46.3172 93.2178L46.2938 93.5822L44.9688 92.8214L44.9951 92.457L46.3172 93.2178Z" fill="#757575"/>
<path d="M47.0036 87.4813L46.2782 87.904L45.5469 87.4813L46.2723 87.0615L47.0036 87.4813Z" fill="#CACECF"/>
<path d="M47.0037 87.4814L46.9891 92.5302L46.2637 92.9529L46.2783 87.9041L47.0037 87.4814Z" fill="#A9A9A9"/>
<path d="M46.2791 87.9041L46.2645 92.9529L45.5332 92.5302L45.5478 87.4814L46.2791 87.9041Z" fill="#757575"/>
<path d="M49.9491 87.1748L45.3742 89.807C45.1812 89.9178 45.0057 89.9295 44.877 89.8566L55.1998 95.8352C55.3255 95.9081 55.504 95.8993 55.697 95.7856L60.2719 93.1534L49.9491 87.1748Z" fill="#CACECF"/>
<path d="M54.9837 90.4248L54.9984 95.3861C54.9984 95.8263 55.3143 96.007 55.7004 95.7854L60.2753 93.1532V93.6284L55.7004 96.2606C55.0861 96.6133 54.583 96.3276 54.583 95.6251L54.5684 90.6638L54.9837 90.4248Z" fill="#A9A9A9"/>
<path d="M54.5835 95.6284L54.5689 90.6671L44.2461 84.6885L44.2607 89.6498C44.2607 89.9996 44.3865 90.2444 44.5854 90.361L54.9082 96.3396C54.7064 96.223 54.5835 95.9782 54.5835 95.6284Z" fill="#757575"/>
<path d="M71.874 69.2452L66.5561 72.3263L61.2031 69.2452L66.521 66.167L71.874 69.2452Z" fill="#CACECF"/>
<path d="M71.8755 69.2451L71.8638 70.5627L66.5488 73.6409L66.5576 72.3262L71.8755 69.2451Z" fill="#A9A9A9"/>
<path d="M66.5571 72.3262L66.5483 73.6409L61.1953 70.5627L61.2041 69.2451L66.5571 72.3262Z" fill="#757575"/>
<path d="M67.2899 58.1856L67.1993 70.615L64.0898 68.8777L64.1805 56.4512L67.2899 58.1856Z" fill="#757575"/>
<path d="M67.2899 58.186L69.5803 56.915L69.4896 69.3445L67.1992 70.6154L67.2899 58.186Z" fill="#A9A9A9"/>
<path d="M64.1797 56.4516L66.4701 55.1777L69.5795 56.9151L67.2891 58.186L64.1797 56.4516Z" fill="#888888"/>
<path d="M74.7512 47.2891L74.6605 62.619L54.1699 50.8308L54.2606 35.498L74.7512 47.2891Z" fill="#494949"/>
<path d="M54.9824 50.3646L55.0643 36.8945L73.9373 47.7528L73.8554 61.2258L54.9824 50.3646Z" fill="#4F97C9"/>
<path d="M55.0645 36.8945L73.8555 61.2258L73.9374 47.7528L55.0645 36.8945Z" fill="#63ABE5"/>
<path d="M74.7508 47.2895L75.6839 46.7881L75.5933 62.1209L74.6602 62.6193L74.7508 47.2895Z" fill="#A9A9A9"/>
<path d="M54.2598 35.4985L55.1929 35L75.6834 46.7882L74.7503 47.2895L54.2598 35.4985Z" fill="#888888"/>
</g>
<defs>
<clipPath id="clip0_146_59656">
<rect width="24" height="24" fill="white" transform="translate(245 34)"/>
</clipPath>
<clipPath id="clip1_146_59656">
<rect width="133" height="107" fill="white" transform="translate(0 35)"/>
</clipPath>
</defs>
</svg>
