<svg width="512" height="166" viewBox="0 0 552 179" fill="none" xmlns="http://www.w3.org/2000/svg">
<rect x="132" width="420" height="92" rx="18" fill="#006DB7"/>
<path d="M76 102L187.5 66.026L155.5 42L76 102Z" fill="#006DB7"/>
<rect x="157.048" y="25.0476" width="41.9048" height="41.9048" rx="20.9524" fill="#0F7338"/>
<rect x="157.048" y="25.0476" width="41.9048" height="41.9048" rx="20.9524" stroke="white" stroke-width="2.09524"/>
<g clip-path="url(#clip0_176_121690)">
<path d="M168.769 46.6547C168.557 46.6311 168.346 46.7052 168.194 46.8563L166.206 48.845C165.855 49.196 165.969 49.7924 166.426 49.9883L169.782 51.4264L170.68 52.3251L169.189 53.8165C168.914 54.0912 168.914 54.5363 169.189 54.8108C169.463 55.0854 169.909 55.0854 170.183 54.8108L171.675 53.3194L172.573 54.2179L174.011 57.5736C174.207 58.0314 174.804 58.1447 175.155 57.7937L177.143 55.8052C177.294 55.6541 177.369 55.4427 177.345 55.2304L176.904 51.2583L179.071 49.2147L183.994 57.6511C184.226 58.0482 184.772 58.1202 185.098 57.7937L187.087 55.8052C187.256 55.6364 187.327 55.3936 187.277 55.1601L186.653 52.2612L188.081 50.8335C188.356 50.5591 188.356 50.1137 188.081 49.8393C187.806 49.5646 187.361 49.5646 187.087 49.8393L186.301 50.6246L185.589 47.3139C185.757 47.2262 185.704 47.2295 187.087 45.8619C187.361 45.5874 187.361 45.1423 187.087 44.8676C186.812 44.5931 186.367 44.5931 186.092 44.8676L185.245 45.7148L184.83 43.7838L188.918 39.9291C190.328 38.6041 190.367 36.3774 188.994 35.0052C187.626 33.6365 185.398 33.6691 184.072 35.0812L180.216 39.1699L178.285 38.7545L179.132 37.9074C179.407 37.6328 179.407 37.1876 179.132 36.9132C178.858 36.6385 178.412 36.6385 178.138 36.9132C176.776 38.2903 176.774 38.2425 176.686 38.4106L173.375 37.6985L174.161 36.9132C174.435 36.6385 174.435 36.1934 174.161 35.9187C173.886 35.6442 173.441 35.6442 173.166 35.9187L171.739 37.3464L168.84 36.7229C168.606 36.6727 168.363 36.7443 168.194 36.9132L166.206 38.9017C166.052 39.0559 165.978 39.2728 166.006 39.4891C166.034 39.7051 166.16 39.8963 166.349 40.0062L174.785 44.9289L172.741 47.096L168.769 46.6547ZM168.95 48.0895L171.534 48.3766L170.009 49.9938L167.934 49.1048L168.95 48.0895ZM175.91 55.0497L174.895 56.0652L174.006 53.991L175.623 52.4659L175.91 55.0497ZM185.822 55.0816L184.748 56.1546L180.121 48.2243L183.634 44.9114L185.822 55.0816ZM185.096 36.0449C185.877 35.2134 187.19 35.1898 188 35.9995C188.805 36.8042 188.792 38.1178 187.954 38.905L173.181 52.8365L172.669 52.3249L174.16 50.8335C174.435 50.5589 174.435 50.1137 174.16 49.8393C173.886 49.5646 173.441 49.5646 173.166 49.8393L171.675 51.3307L171.163 50.8193L185.096 36.0449ZM167.845 39.2512L168.918 38.1781L179.088 40.3656L175.775 43.8787L167.845 39.2512Z" fill="white"/>
</g>
<path d="M220.293 55.5H216.637L223.294 36.5909H227.523L234.189 55.5H230.533L225.482 40.4688H225.335L220.293 55.5ZM220.413 48.0859H230.385V50.8374H220.413V48.0859ZM242.379 55.777C240.957 55.777 239.729 55.4815 238.695 54.8906C237.667 54.2936 236.876 53.4503 236.322 52.3608C235.768 51.2652 235.491 49.9756 235.491 48.4922C235.491 47.0334 235.768 45.7531 236.322 44.6513C236.882 43.5433 237.664 42.6816 238.667 42.0661C239.67 41.4444 240.849 41.1335 242.203 41.1335C243.077 41.1335 243.902 41.2751 244.678 41.5582C245.459 41.8352 246.149 42.2661 246.746 42.8509C247.349 43.4356 247.823 44.1804 248.168 45.0852C248.512 45.9839 248.685 47.0549 248.685 48.2983V49.3232H237.06V47.0703H245.481C245.475 46.4302 245.336 45.8608 245.065 45.3622C244.795 44.8575 244.416 44.4605 243.93 44.1712C243.45 43.8819 242.889 43.7372 242.249 43.7372C241.566 43.7372 240.966 43.9034 240.449 44.2358C239.932 44.562 239.529 44.9929 239.239 45.5284C238.956 46.0578 238.812 46.6394 238.805 47.2734V49.2401C238.805 50.0649 238.956 50.7727 239.258 51.3636C239.559 51.9484 239.981 52.3977 240.523 52.7116C241.064 53.0194 241.698 53.1733 242.425 53.1733C242.911 53.1733 243.351 53.1056 243.745 52.9702C244.139 52.8286 244.481 52.6224 244.77 52.3516C245.059 52.0807 245.278 51.7453 245.425 51.3452L248.546 51.696C248.349 52.5208 247.974 53.241 247.42 53.8565C246.872 54.4659 246.17 54.9399 245.315 55.2784C244.459 55.6108 243.48 55.777 242.379 55.777ZM251.512 55.5V41.3182H254.753V43.6818H254.901C255.159 42.8632 255.602 42.2322 256.23 41.7891C256.864 41.3397 257.588 41.1151 258.4 41.1151C258.585 41.1151 258.791 41.1243 259.019 41.1428C259.253 41.1551 259.446 41.1766 259.6 41.2074V44.282C259.459 44.2327 259.234 44.1896 258.926 44.1527C258.625 44.1096 258.332 44.0881 258.049 44.0881C257.44 44.0881 256.892 44.2204 256.406 44.4851C255.926 44.7436 255.547 45.1037 255.27 45.5653C254.993 46.027 254.855 46.5594 254.855 47.1626V55.5H251.512ZM267.423 55.777C266.038 55.777 264.838 55.4723 263.822 54.8629C262.806 54.2536 262.019 53.401 261.458 52.3054C260.904 51.2098 260.627 49.9295 260.627 48.4645C260.627 46.9995 260.904 45.7161 261.458 44.6143C262.019 43.5125 262.806 42.657 263.822 42.0476C264.838 41.4382 266.038 41.1335 267.423 41.1335C268.808 41.1335 270.008 41.4382 271.024 42.0476C272.039 42.657 272.824 43.5125 273.378 44.6143C273.938 45.7161 274.218 46.9995 274.218 48.4645C274.218 49.9295 273.938 51.2098 273.378 52.3054C272.824 53.401 272.039 54.2536 271.024 54.8629C270.008 55.4723 268.808 55.777 267.423 55.777ZM267.441 53.0994C268.192 53.0994 268.82 52.8932 269.325 52.4808C269.83 52.0623 270.205 51.5021 270.451 50.8004C270.704 50.0987 270.83 49.317 270.83 48.4553C270.83 47.5874 270.704 46.8026 270.451 46.1009C270.205 45.393 269.83 44.8298 269.325 44.4112C268.82 43.9927 268.192 43.7834 267.441 43.7834C266.672 43.7834 266.032 43.9927 265.521 44.4112C265.016 44.8298 264.638 45.393 264.385 46.1009C264.139 46.8026 264.016 47.5874 264.016 48.4553C264.016 49.317 264.139 50.0987 264.385 50.8004C264.638 51.5021 265.016 52.0623 265.521 52.4808C266.032 52.8932 266.672 53.0994 267.441 53.0994ZM277.055 60.8182V41.3182H280.342V43.6634H280.536C280.708 43.3187 280.952 42.9524 281.265 42.5646C281.579 42.1707 282.004 41.8352 282.54 41.5582C283.075 41.2751 283.758 41.1335 284.589 41.1335C285.685 41.1335 286.673 41.4136 287.553 41.9737C288.439 42.5277 289.141 43.3494 289.658 44.4389C290.181 45.5223 290.443 46.8518 290.443 48.4276C290.443 49.9848 290.188 51.3082 289.677 52.3977C289.166 53.4872 288.47 54.3182 287.59 54.8906C286.71 55.4631 285.713 55.7493 284.599 55.7493C283.786 55.7493 283.112 55.6139 282.577 55.343C282.041 55.0722 281.61 54.746 281.284 54.3643C280.964 53.9766 280.715 53.6103 280.536 53.2656H280.398V60.8182H277.055ZM280.333 48.4091C280.333 49.3262 280.462 50.1295 280.721 50.8189C280.985 51.5083 281.364 52.0469 281.856 52.4347C282.355 52.8163 282.958 53.0071 283.666 53.0071C284.405 53.0071 285.023 52.8101 285.522 52.4162C286.02 52.0161 286.396 51.4714 286.648 50.782C286.907 50.0864 287.036 49.2955 287.036 48.4091C287.036 47.5289 286.91 46.7472 286.657 46.0639C286.405 45.3807 286.03 44.8452 285.531 44.4574C285.032 44.0696 284.411 43.8757 283.666 43.8757C282.952 43.8757 282.346 44.0634 281.847 44.4389C281.349 44.8144 280.97 45.3407 280.711 46.0178C280.459 46.6948 280.333 47.492 280.333 48.4091ZM302.344 49.5355V41.3182H305.687V55.5H302.446V52.9794H302.298C301.978 53.7734 301.452 54.4228 300.719 54.9276C299.993 55.4323 299.097 55.6847 298.032 55.6847C297.103 55.6847 296.281 55.4785 295.567 55.0661C294.859 54.6475 294.305 54.0412 293.905 53.2472C293.505 52.447 293.305 51.4806 293.305 50.348V41.3182H296.648V49.831C296.648 50.7296 296.894 51.4437 297.386 51.973C297.879 52.5024 298.525 52.767 299.325 52.767C299.818 52.767 300.295 52.647 300.756 52.407C301.218 52.1669 301.596 51.8099 301.892 51.3359C302.193 50.8558 302.344 50.2557 302.344 49.5355ZM315.402 55.777C313.98 55.777 312.752 55.4815 311.718 54.8906C310.69 54.2936 309.899 53.4503 309.345 52.3608C308.791 51.2652 308.514 49.9756 308.514 48.4922C308.514 47.0334 308.791 45.7531 309.345 44.6513C309.905 43.5433 310.687 42.6816 311.69 42.0661C312.694 41.4444 313.872 41.1335 315.227 41.1335C316.101 41.1335 316.925 41.2751 317.701 41.5582C318.483 41.8352 319.172 42.2661 319.769 42.8509C320.372 43.4356 320.846 44.1804 321.191 45.0852C321.536 45.9839 321.708 47.0549 321.708 48.2983V49.3232H310.084V47.0703H318.504C318.498 46.4302 318.36 45.8608 318.089 45.3622C317.818 44.8575 317.439 44.4605 316.953 44.1712C316.473 43.8819 315.913 43.7372 315.273 43.7372C314.589 43.7372 313.989 43.9034 313.472 44.2358C312.955 44.562 312.552 44.9929 312.263 45.5284C311.98 46.0578 311.835 46.6394 311.829 47.2734V49.2401C311.829 50.0649 311.98 50.7727 312.281 51.3636C312.583 51.9484 313.004 52.3977 313.546 52.7116C314.088 53.0194 314.722 53.1733 315.448 53.1733C315.934 53.1733 316.375 53.1056 316.768 52.9702C317.162 52.8286 317.504 52.6224 317.793 52.3516C318.083 52.0807 318.301 51.7453 318.449 51.3452L321.57 51.696C321.373 52.5208 320.997 53.241 320.443 53.8565C319.895 54.4659 319.194 54.9399 318.338 55.2784C317.482 55.6108 316.504 55.777 315.402 55.777ZM324.536 55.5V41.3182H327.776V43.6818H327.924C328.183 42.8632 328.626 42.2322 329.254 41.7891C329.888 41.3397 330.611 41.1151 331.423 41.1151C331.608 41.1151 331.814 41.1243 332.042 41.1428C332.276 41.1551 332.47 41.1766 332.624 41.2074V44.282C332.482 44.2327 332.258 44.1896 331.95 44.1527C331.648 44.1096 331.356 44.0881 331.073 44.0881C330.463 44.0881 329.915 44.2204 329.429 44.4851C328.949 44.7436 328.57 45.1037 328.294 45.5653C328.017 46.027 327.878 46.5594 327.878 47.1626V55.5H324.536ZM342.688 41.3182V43.9034H334.535V41.3182H342.688ZM336.548 37.9205H339.89V51.2344C339.89 51.6837 339.958 52.0284 340.093 52.2685C340.235 52.5024 340.419 52.6624 340.647 52.7486C340.875 52.8348 341.127 52.8778 341.404 52.8778C341.614 52.8778 341.804 52.8625 341.977 52.8317C342.155 52.8009 342.291 52.7732 342.383 52.7486L342.946 55.3615C342.768 55.4231 342.512 55.4908 342.18 55.5646C341.854 55.6385 341.454 55.6816 340.98 55.6939C340.142 55.7185 339.388 55.5923 338.718 55.3153C338.047 55.0322 337.514 54.5952 337.12 54.0043C336.732 53.4134 336.542 52.6747 336.548 51.7884V37.9205ZM351.517 55.777C350.132 55.777 348.931 55.4723 347.916 54.8629C346.9 54.2536 346.112 53.401 345.552 52.3054C344.998 51.2098 344.721 49.9295 344.721 48.4645C344.721 46.9995 344.998 45.7161 345.552 44.6143C346.112 43.5125 346.9 42.657 347.916 42.0476C348.931 41.4382 350.132 41.1335 351.517 41.1335C352.902 41.1335 354.102 41.4382 355.118 42.0476C356.133 42.657 356.918 43.5125 357.472 44.6143C358.032 45.7161 358.312 46.9995 358.312 48.4645C358.312 49.9295 358.032 51.2098 357.472 52.3054C356.918 53.401 356.133 54.2536 355.118 54.8629C354.102 55.4723 352.902 55.777 351.517 55.777ZM351.535 53.0994C352.286 53.0994 352.914 52.8932 353.419 52.4808C353.923 52.0623 354.299 51.5021 354.545 50.8004C354.797 50.0987 354.924 49.317 354.924 48.4553C354.924 47.5874 354.797 46.8026 354.545 46.1009C354.299 45.393 353.923 44.8298 353.419 44.4112C352.914 43.9927 352.286 43.7834 351.535 43.7834C350.766 43.7834 350.126 43.9927 349.615 44.4112C349.11 44.8298 348.731 45.393 348.479 46.1009C348.233 46.8026 348.11 47.5874 348.11 48.4553C348.11 49.317 348.233 50.0987 348.479 50.8004C348.731 51.5021 349.11 52.0623 349.615 52.4808C350.126 52.8932 350.766 53.0994 351.535 53.0994Z" fill="white"/>
<g clip-path="url(#clip1_176_121690)">
<path d="M4.07031 151.61L60.5203 119.02L88.9903 135.46L71.5003 145.55L64.4703 141.49L25.5103 163.99L4.07031 151.61Z" fill="#F7F7F6"/>
<path d="M4.07031 139.389L60.5203 106.799L88.9903 123.229L71.5003 133.329L64.4703 129.269L25.5103 151.769L4.07031 139.389Z" fill="#F7F7F6"/>
<path d="M88.99 123.229V135.459L71.5 145.549V133.329L88.99 123.229Z" fill="#D2ECFD"/>
<path d="M64.4698 129.27V141.49L25.5098 163.99V151.77L64.4698 129.27Z" fill="#D2ECFD"/>
<path d="M4.07031 139.389V151.609L25.5103 163.989V151.769L4.07031 139.389Z" fill="#BAD1E0"/>
<path d="M71.5007 145.55L64.4707 141.49V129.27L71.5007 133.33V145.55Z" fill="#BAD1E0"/>
<path d="M70.691 133.8L65.291 130.68V141.02L70.691 144.14V133.8Z" fill="#1B9AD1"/>
<path d="M41.5701 143.439V153.779L36.8301 156.509V146.169L41.5701 143.439Z" fill="#93DAF8"/>
<path d="M36.0201 146.641V156.981L31.0801 159.831V149.491L36.0201 146.641Z" fill="#93DAF8"/>
<path d="M47.3209 140.109V150.449L42.3809 153.309V142.969L47.3209 140.109Z" fill="#93DAF8"/>
<path d="M63.6614 130.68V141.02L59.4414 143.46V133.12L63.6614 130.68Z" fill="#93DAF8"/>
<path d="M52.8706 136.91V147.25L48.1406 149.98V139.64L52.8706 136.91Z" fill="#93DAF8"/>
<path d="M58.6197 133.59V143.93L53.6797 146.78V136.44L58.6197 133.59Z" fill="#93DAF8"/>
<path d="M30.2601 160.299L26.3301 162.579V152.239L30.2601 149.959V160.299Z" fill="#93DAF8"/>
<path d="M4.89062 140.799L8.40062 142.829V153.169L4.89062 151.139V140.799Z" fill="#1B9AD1"/>
<path d="M13.9509 146.029V156.369L9.21094 153.639V143.299L13.9509 146.029Z" fill="#1B9AD1"/>
<path d="M24.7015 152.24V162.58L20.5215 160.16V149.82L24.7015 152.24Z" fill="#1B9AD1"/>
<path d="M19.6998 149.35V159.69L14.7598 156.84V146.5L19.6998 149.35Z" fill="#1B9AD1"/>
<path d="M63.6595 131.57V134.94L59.4395 142.21V139.07L63.6595 131.57Z" fill="#CAEBFD"/>
<path d="M58.6193 143.62L58.3493 144.09L55.7793 145.57L58.6193 140.52V143.62Z" fill="#CAEBFD"/>
<path d="M63.6595 137.27L60.3895 142.91L59.4395 143.46V143.34L63.6595 135.84V137.27Z" fill="#CAEBFD"/>
<path d="M52.8706 144.07L50.0906 148.86L48.1406 149.98V149.26L52.8706 140.85V144.07Z" fill="#CAEBFD"/>
<path d="M53.6797 139.4L56.1497 135.02L58.6197 133.59V134.14L53.6797 142.66V139.4Z" fill="#CAEBFD"/>
<path d="M59.4395 133.441L59.7095 132.961L61.1395 132.141L59.4395 135.071V133.441Z" fill="#CAEBFD"/>
<path d="M52.8698 146.401L52.1298 147.681L51.0898 148.281L52.8698 145.121V146.401Z" fill="#CAEBFD"/>
<path d="M58.6197 134.891V136.481L53.6797 145.001V143.671L58.6197 134.891Z" fill="#CAEBFD"/>
<path d="M41.5698 153.781L39.0898 155.211L41.5698 150.811V153.781Z" fill="#CAEBFD"/>
<path d="M47.3209 140.58V143.95L42.3809 152.47V149.36L47.3209 140.58Z" fill="#CAEBFD"/>
<path d="M48.1406 139.64L50.6706 138.18L48.1406 142.55V139.64Z" fill="#CAEBFD"/>
<path d="M47.3204 146.29L43.6904 152.55L42.6504 153.15L47.3204 144.85V146.29Z" fill="#CAEBFD"/>
<path d="M51.2506 137.871L52.6906 137.031L48.1406 144.881V143.401L51.2506 137.871Z" fill="#CAEBFD"/>
<path d="M36.8301 152.72V149.47L39.4701 144.78L41.5701 143.58V144.56L36.8301 152.72Z" fill="#CAEBFD"/>
<path d="M36.0201 154.13L33.5301 158.42L31.0801 159.83V159.7L36.0201 150.91V154.13Z" fill="#CAEBFD"/>
<path d="M42.3809 143.16V143.11L42.4209 143.09L42.3809 143.16Z" fill="#CAEBFD"/>
<path d="M41.5701 145.32V146.9L36.8301 155.06V153.74L41.5701 145.32Z" fill="#CAEBFD"/>
<path d="M36.0195 156.46L35.5695 157.24L34.5195 157.84L36.0195 155.18V156.46Z" fill="#CAEBFD"/>
<path d="M43.0009 142.779L44.4409 141.939L42.3809 145.489V143.869L43.0009 142.779Z" fill="#CAEBFD"/>
<path d="M34.1701 147.77L31.0801 153.11V149.72L31.2201 149.47L34.1701 147.77Z" fill="#CAEBFD"/>
<path d="M26.3301 161.3V158.16L30.2601 151.17V154.51L26.3301 161.3Z" fill="#CAEBFD"/>
<path d="M34.7501 147.47L36.0201 146.73V146.92L31.0801 155.44V153.99L34.7501 147.47Z" fill="#CAEBFD"/>
<path d="M30.2601 156.849L27.2501 162.039L26.3301 162.579V162.439L30.2601 155.439V156.849Z" fill="#CAEBFD"/>
<path d="M72.3203 133.798L77.4803 130.818V134.048L72.3203 137.028V133.798Z" fill="#63CAF6"/>
<path d="M72.3203 137.029V135.659L73.8703 132.899L76.6803 131.279L73.8603 136.139L72.3203 137.029Z" fill="#B1E3FA"/>
<path d="M77.4805 130.818V132.228L75.9005 134.958L74.7305 135.638L77.4305 130.848L77.4805 130.818Z" fill="#B1E3FA"/>
<path d="M77.4803 141.158L72.3203 144.138V137.968L77.4803 134.988V141.158Z" fill="#93DAF8"/>
<path d="M72.3203 141.28V139.88L73.9203 137.05L75.1303 136.35L72.3203 141.28Z" fill="#CAEBFD"/>
<path d="M84.0508 127.019L88.1708 124.639V127.879L84.0508 130.259V127.019Z" fill="#63CAF6"/>
<path d="M88.1708 134.978L84.0508 137.358V131.198L88.1708 128.818V134.978Z" fill="#93DAF8"/>
<path d="M78.3008 130.348L83.2408 127.488V130.728L78.3008 133.578V130.348Z" fill="#63CAF6"/>
<path d="M83.2408 137.828L78.3008 140.688V134.518L83.2408 131.668V137.828Z" fill="#93DAF8"/>
<path d="M87.3404 125.129L88.1704 124.639V127.079L87.4804 128.279L84.6504 129.909L87.3404 125.129Z" fill="#B1E3FA"/>
<path d="M84.0508 131.199L86.6608 129.689L84.0508 134.189V131.199Z" fill="#CAEBFD"/>
<path d="M83.2407 135.588L81.2807 138.958L78.7207 140.438L83.2407 132.418V135.588Z" fill="#CAEBFD"/>
<path d="M87.4208 129.248L88.1708 128.818V129.418L84.0508 136.518V135.238L87.4208 129.248Z" fill="#CAEBFD"/>
<path d="M83.2412 137.829L82.2812 138.389L83.2412 136.689V137.829Z" fill="#CAEBFD"/>
<path d="M77.4803 137.738L74.5003 142.878L72.3203 144.138V143.698L77.0803 135.218L77.4803 134.988V137.738Z" fill="#CAEBFD"/>
<path d="M78.3008 133.578V133.058L80.5608 129.038L83.2408 127.488V127.818L80.7008 132.188L78.3008 133.578Z" fill="#B1E3FA"/>
<path d="M78.3008 134.519L79.8808 133.609L78.3008 136.339V134.519Z" fill="#CAEBFD"/>
<path d="M77.48 140.079L76.54 141.699L75.5 142.299L77.48 138.779V140.079Z" fill="#CAEBFD"/>
<path d="M84.0508 127.098L84.1208 126.988L85.5508 126.158L84.0508 128.748V127.098Z" fill="#B1E3FA"/>
<path d="M82.7399 131.019L81.4199 131.769L83.2399 128.549V130.149L82.7399 131.019Z" fill="#B1E3FA"/>
<path d="M80.6408 133.168L81.9108 132.428L78.3008 138.668V137.328L80.6408 133.168Z" fill="#CAEBFD"/>
<path d="M71.5007 131.609V134.559L64.4707 130.499V127.549L71.5007 131.609Z" fill="#B3B3B3"/>
<path d="M93.06 119.158V122.108L71.5 134.558V131.608L93.06 119.158Z" fill="#EDEDEC"/>
<path d="M25.51 150.039V152.989L0 138.259V135.309L25.51 150.039Z" fill="#B3B3B3"/>
<path d="M25.51 150.038L64.47 127.548L38.96 112.818L0 135.308L25.51 150.038Z" fill="#F7F7F6"/>
<path d="M64.4698 127.549V130.499L25.5098 152.989V150.039L64.4698 127.549Z" fill="#EDEDEC"/>
<path d="M71.5009 131.609L93.0609 119.159L60.5209 100.369L38.9609 112.819L71.5009 131.609Z" fill="#F7F7F6"/>
<path d="M88.9908 119.159L60.5208 102.719L43.3008 112.579L71.7608 129.019L88.9908 119.159Z" fill="#355059"/>
<path d="M82.3205 117.82V119.39L78.5605 117.22V115.65L82.3205 117.82Z" fill="#B3B3B3"/>
<path d="M84.0103 116.84V118.41L82.3203 119.39V117.82L84.0103 116.84Z" fill="#EDEDEC"/>
<path d="M82.3205 117.82L84.0106 116.84L80.2505 114.67L78.5605 115.65L82.3205 117.82Z" fill="#F7F7F6"/>
<path d="M70.5705 124.539V126.109L66.8105 123.939V122.369L70.5705 124.539Z" fill="#B3B3B3"/>
<path d="M72.2603 123.559V125.129L70.5703 126.109V124.539L72.2603 123.559Z" fill="#EDEDEC"/>
<path d="M70.5705 124.539L72.2606 123.559L68.5005 121.389L66.8105 122.369L70.5705 124.539Z" fill="#F7F7F6"/>
<path d="M73.1799 112.5V114.08L69.4199 111.91V110.33L73.1799 112.5Z" fill="#B3B3B3"/>
<path d="M74.8597 111.52V113.1L73.1797 114.08V112.5L74.8597 111.52Z" fill="#EDEDEC"/>
<path d="M73.1799 112.5L74.8599 111.52L71.1099 109.35L69.4199 110.33L73.1799 112.5Z" fill="#F7F7F6"/>
<path d="M61.4299 119.219V120.799L57.6699 118.629V117.049L61.4299 119.219Z" fill="#B3B3B3"/>
<path d="M63.1197 118.238V119.818L61.4297 120.798V119.218L63.1197 118.238Z" fill="#EDEDEC"/>
<path d="M61.4299 119.218L63.1199 118.238L59.3599 116.068L57.6699 117.048L61.4299 119.218Z" fill="#F7F7F6"/>
<path d="M64.0295 107.19V108.77L60.2695 106.6V105.02L64.0295 107.19Z" fill="#B3B3B3"/>
<path d="M65.7193 106.209V107.789L64.0293 108.769V107.189L65.7193 106.209Z" fill="#EDEDEC"/>
<path d="M64.0295 107.189L65.7195 106.209L61.9595 104.039L60.2695 105.019L64.0295 107.189Z" fill="#F7F7F6"/>
<path d="M52.2793 113.91V115.49L48.5293 113.32V111.74L52.2793 113.91Z" fill="#B3B3B3"/>
<path d="M53.9693 112.93V114.51L52.2793 115.49V113.91L53.9693 112.93Z" fill="#EDEDEC"/>
<path d="M52.2793 113.91L53.9693 112.93L50.2093 110.76L48.5293 111.74L52.2793 113.91Z" fill="#F7F7F6"/>
<path d="M64.4698 112.711V124.931L25.5098 147.431V135.211L64.4698 112.711Z" fill="#D2ECFD"/>
<path d="M4.07031 122.83V135.05L25.5103 147.43V135.21L4.07031 122.83Z" fill="#BAD1E0"/>
<path d="M41.5701 126.881V137.221L36.8301 139.951V129.611L41.5701 126.881Z" fill="#63CAF6"/>
<path d="M36.0201 130.08V140.42L31.0801 143.28V132.94L36.0201 130.08Z" fill="#63CAF6"/>
<path d="M47.3209 123.561V133.901L42.3809 136.751V126.411L47.3209 123.561Z" fill="#63CAF6"/>
<path d="M63.6614 114.131V124.471L59.4414 126.901V116.561L63.6614 114.131Z" fill="#63CAF6"/>
<path d="M52.8706 120.361V130.701L48.1406 133.431V123.091L52.8706 120.361Z" fill="#63CAF6"/>
<path d="M58.6197 117.031V127.371L53.6797 130.231V119.891L58.6197 117.031Z" fill="#63CAF6"/>
<path d="M30.2601 143.75L26.3301 146.02V135.68L30.2601 133.41V143.75Z" fill="#63CAF6"/>
<path d="M4.89062 124.24L8.40062 126.27V136.61L4.89062 134.58V124.24Z" fill="#1B9AD1"/>
<path d="M13.9509 129.47V139.81L9.21094 137.08V126.74L13.9509 129.47Z" fill="#1B9AD1"/>
<path d="M24.7015 135.681V146.021L20.5215 143.611V133.271L24.7015 135.681Z" fill="#1B9AD1"/>
<path d="M19.6998 132.801V143.141L14.7598 140.281V129.941L19.6998 132.801Z" fill="#1B9AD1"/>
<path d="M63.6595 115.012V118.382L59.4395 125.662V122.512L63.6595 115.012Z" fill="#B1E3FA"/>
<path d="M58.6193 127.061L58.3493 127.531L55.7793 129.011L58.6193 123.961V127.061Z" fill="#B1E3FA"/>
<path d="M63.6595 120.711L60.3895 126.351L59.4395 126.901V126.781L63.6595 119.281V120.711Z" fill="#B1E3FA"/>
<path d="M52.8706 127.511L50.0906 132.301L48.1406 133.431V132.711L52.8706 124.301V127.511Z" fill="#B1E3FA"/>
<path d="M53.6797 122.851L56.1497 118.461L58.6197 117.031V117.591L53.6797 126.111V122.851Z" fill="#B1E3FA"/>
<path d="M59.4395 116.892L59.7095 116.412L61.1395 115.582L59.4395 118.522V116.892Z" fill="#B1E3FA"/>
<path d="M52.8698 129.852L52.1298 131.122L51.0898 131.722L52.8698 128.572V129.852Z" fill="#B1E3FA"/>
<path d="M58.6197 118.342V119.922L53.6797 128.442V127.122L58.6197 118.342Z" fill="#B1E3FA"/>
<path d="M41.5698 137.222L39.0898 138.652L41.5698 134.252V137.222Z" fill="#B1E3FA"/>
<path d="M47.3209 124.021V127.401L42.3809 135.921V132.801L47.3209 124.021Z" fill="#B1E3FA"/>
<path d="M48.1406 123.091L50.6706 121.631L48.1406 125.991V123.091Z" fill="#B1E3FA"/>
<path d="M47.3204 129.731L43.6904 136.001L42.6504 136.591L47.3204 128.291V129.731Z" fill="#B1E3FA"/>
<path d="M51.2506 121.313L52.6906 120.473L48.1406 128.333V126.843L51.2506 121.313Z" fill="#B1E3FA"/>
<path d="M36.8301 136.171V132.911L39.4701 128.221L41.5701 127.021V128.011L36.8301 136.171Z" fill="#B1E3FA"/>
<path d="M36.0201 137.571L33.5301 141.861L31.0801 143.281V143.141L36.0201 134.361V137.571Z" fill="#B1E3FA"/>
<path d="M42.3809 126.601V126.551L42.4209 126.531L42.3809 126.601Z" fill="#B1E3FA"/>
<path d="M41.5701 128.771V130.341L36.8301 138.501V137.181L41.5701 128.771Z" fill="#B1E3FA"/>
<path d="M36.0195 139.911L35.5695 140.681L34.5195 141.291L36.0195 138.631V139.911Z" fill="#B1E3FA"/>
<path d="M43.0009 126.223L44.4409 125.393L42.3809 128.943V127.323L43.0009 126.223Z" fill="#B1E3FA"/>
<path d="M34.1701 131.223L31.0801 136.553V133.163L31.2201 132.913L34.1701 131.223Z" fill="#B1E3FA"/>
<path d="M26.3301 144.751V141.611L30.2601 134.611V137.961L26.3301 144.751Z" fill="#B1E3FA"/>
<path d="M34.7501 130.912L36.0201 130.172V130.372L31.0801 138.892V137.432L34.7501 130.912Z" fill="#B1E3FA"/>
<path d="M30.2601 140.291L27.2501 145.491L26.3301 146.021V145.881L30.2601 138.881V140.291Z" fill="#B1E3FA"/>
<path d="M67.7105 110.69L43.1905 96.3301L0.810547 120.79L25.5105 135.05L67.7105 110.69Z" fill="#F7F7F6"/>
<path d="M63.6606 110.67L43.1906 98.6797L4.89062 120.79L25.5106 132.7L63.6606 110.67Z" fill="#355059"/>
<path d="M25.5105 135.051V137.091L0.810547 122.831V120.791L25.5105 135.051Z" fill="#B3B3B3"/>
<path d="M67.7098 110.689V112.719L25.5098 137.089V135.049L67.7098 110.689Z" fill="#EDEDEC"/>
<path d="M3.94141 121.809L15.3614 115.219L30.9514 117.629L35.1314 126.629L23.7214 133.219L8.12141 130.809L3.94141 121.809Z" fill="#F7F7F6"/>
<path d="M35.1307 171.869V126.629L23.7207 133.219V178.459L35.1307 171.869Z" fill="#EDEDEC"/>
<path d="M35.1307 129.379V126.629L23.7207 133.219V135.969L35.1307 129.379Z" fill="#C9C9C9"/>
<path d="M8.12109 130.809V176.049L23.7211 178.459V133.219L8.12109 130.809Z" fill="#E0E0DF"/>
<path d="M8.12109 130.809V133.559L23.7211 135.969V133.219L8.12109 130.809Z" fill="#959595"/>
<path d="M3.94141 121.809V167.049L8.12141 176.049V130.809L3.94141 121.809Z" fill="#B3B3B3"/>
<path d="M32.9523 159.359V167.559L32.0723 167.049V159.869L32.9523 159.359Z" fill="#E0E0DF"/>
<path d="M32.0723 167.049L32.9523 167.559L25.9023 171.629V170.609L32.0723 167.049Z" fill="#F7F7F6"/>
<path d="M32.0723 159.869V167.049L25.9023 170.609V163.439L32.0723 159.869Z" fill="#D2ECFD"/>
<path d="M31.6625 166.81V160.58L26.3125 163.67V169.91L31.6625 166.81Z" fill="#93DAF8"/>
<path d="M30.1625 161.44L31.6625 160.58V162.1L27.5525 169.19L26.3125 169.91V168.19L30.1625 161.44Z" fill="#CAEBFD"/>
<path d="M31.6624 164.43L29.5924 168.01L28.4824 168.65L31.6624 163.09V164.43Z" fill="#CAEBFD"/>
<path d="M11.2723 162.729V170.259L10.5723 170.899V162.619L11.2723 162.729Z" fill="#EDEDEC"/>
<path d="M11.2723 170.26L21.2723 171.81V172.55L10.5723 170.9L11.2723 170.26Z" fill="#F7F7F6"/>
<path d="M11.2715 162.729L21.2715 164.269V171.809L11.2715 170.259V162.729Z" fill="#D2ECFD"/>
<path d="M20.8716 164.619L11.6816 163.199V169.909L20.8716 171.339V164.619Z" fill="#23AAE1"/>
<path d="M5.47172 155.989V163.809H4.76172V154.449L5.47172 155.989Z" fill="#D4D4D3"/>
<path d="M5.47172 163.809L7.31172 167.769V169.299L4.76172 163.809H5.47172Z" fill="#DEDEDD"/>
<path d="M5.47266 155.988L7.31266 159.948V167.768L5.47266 163.808V155.988Z" fill="#BAD1E0"/>
<path d="M7.10187 159.99L5.67188 156.91V163.76L7.10187 166.85V159.99Z" fill="#1B9AD1"/>
<path d="M32.9523 148.408V156.598L32.0723 156.088V148.918L32.9523 148.408Z" fill="#E0E0DF"/>
<path d="M32.0723 156.088L32.9523 156.598L25.9023 160.668V159.658L32.0723 156.088Z" fill="#F7F7F6"/>
<path d="M32.0723 148.918V156.088L25.9023 159.658V152.478L32.0723 148.918Z" fill="#D2ECFD"/>
<path d="M31.6625 155.859V149.619L26.3125 152.719V158.949L31.6625 155.859Z" fill="#93DAF8"/>
<path d="M30.5825 150.249L31.6625 149.619V151.629L27.9825 157.979L26.3125 158.949V157.729L30.5825 150.249Z" fill="#CAEBFD"/>
<path d="M31.6623 153.969L30.0223 156.809L28.9023 157.449L31.6623 152.619V153.969Z" fill="#CAEBFD"/>
<path d="M11.2723 151.768V159.308L10.5723 159.938V151.658L11.2723 151.768Z" fill="#EDEDEC"/>
<path d="M11.2723 159.309L21.2723 160.859V161.599L10.5723 159.939L11.2723 159.309Z" fill="#F7F7F6"/>
<path d="M11.2715 151.768L21.2715 153.318V160.858L11.2715 159.308V151.768Z" fill="#D2ECFD"/>
<path d="M20.8716 153.668L11.6816 152.248V158.958L20.8716 160.378V153.668Z" fill="#23AAE1"/>
<path d="M5.47172 145.028V152.848H4.76172V143.498L5.47172 145.028Z" fill="#D4D4D3"/>
<path d="M5.47172 152.848L7.31172 156.818V158.348L4.76172 152.848H5.47172Z" fill="#DEDEDD"/>
<path d="M5.47266 145.027L7.31266 148.987V156.817L5.47266 152.847V145.027Z" fill="#BAD1E0"/>
<path d="M7.10187 149.037L5.67188 145.947V152.807L7.10187 155.887V149.037Z" fill="#1B9AD1"/>
<path d="M32.9523 137.449V145.649L32.0723 145.139V137.959L32.9523 137.449Z" fill="#E0E0DF"/>
<path d="M32.0723 145.139L32.9523 145.649L25.9023 149.719V148.699L32.0723 145.139Z" fill="#F7F7F6"/>
<path d="M32.0723 137.959V145.139L25.9023 148.699V141.529L32.0723 137.959Z" fill="#D2ECFD"/>
<path d="M31.6625 144.9V138.67L26.3125 141.76V148L31.6625 144.9Z" fill="#93DAF8"/>
<path d="M31.6625 144.9V138.67L26.3125 141.76V148L31.6625 144.9Z" fill="#93DAF8"/>
<path d="M29.9925 139.63L31.6625 138.67V139.98L27.3725 147.38L26.3125 148V146.08L29.9925 139.63Z" fill="#CAEBFD"/>
<path d="M31.6625 142.321L29.4125 146.211L28.3125 146.841L31.6625 140.971V142.321Z" fill="#CAEBFD"/>
<path d="M11.2723 140.819V148.349L10.5723 148.989V140.709L11.2723 140.819Z" fill="#EDEDEC"/>
<path d="M11.2723 148.35L21.2723 149.9V150.64L10.5723 148.99L11.2723 148.35Z" fill="#F7F7F6"/>
<path d="M11.2715 140.818L21.2715 142.358V149.898L11.2715 148.348V140.818Z" fill="#D2ECFD"/>
<path d="M20.8716 142.709L11.6816 141.289V147.999L20.8716 149.429V142.709Z" fill="#23AAE1"/>
<path d="M5.47172 134.079V141.899H4.76172V132.539L5.47172 134.079Z" fill="#D4D4D3"/>
<path d="M5.47172 141.898L7.31172 145.858V147.388L4.76172 141.898H5.47172Z" fill="#DEDEDD"/>
<path d="M5.47266 134.078L7.31266 138.038V145.858L5.47266 141.898V134.078Z" fill="#BAD1E0"/>
<path d="M7.10187 138.08L5.67188 135V141.85L7.10187 144.94V138.08Z" fill="#1B9AD1"/>
<path d="M3.94141 121.809V124.559L8.12141 133.559V130.809L3.94141 121.809Z" fill="#858585"/>
<path d="M0.470703 115.65L14.4307 107.59L33.4907 110.54L38.6007 121.55L24.6507 129.6L5.5807 126.65L0.470703 115.65Z" fill="#F7F7F6"/>
<path d="M2.41016 115.949L14.9502 108.699L32.0802 111.359L36.6702 121.249L24.1302 128.489L7.00016 125.839L2.41016 115.949Z" fill="#355059"/>
<path d="M0.470703 115.65V119.94L5.5807 130.95V126.65L0.470703 115.65Z" fill="#B3B3B3"/>
<path d="M5.58008 130.95V126.65L24.6501 129.6V133.9L5.58008 130.95Z" fill="#E0E0DF"/>
<path d="M38.6004 121.551V125.841L24.6504 133.901V129.601L38.6004 121.551Z" fill="#EDEDEC"/>
<path d="M8.12078 124.488L6.30078 117.398L24.3808 120.198L23.7208 126.908L8.12078 124.488Z" fill="#D2ECFD"/>
<path d="M23.9416 120.538L6.85156 117.898L8.45156 124.128L23.3516 126.438L23.9416 120.538Z" fill="#21A2D6"/>
<path d="M1.46094 106.959L3.94094 115.489L8.12094 124.489L6.30094 117.399L1.46094 106.959Z" fill="#BAD1E0"/>
<path d="M6.10016 117.449L2.41016 109.479L4.14016 115.429L7.38016 122.399L6.10016 117.449Z" fill="#1A92C6"/>
<path d="M37.6207 112.549L35.1307 120.319L23.7207 126.909L24.3807 120.199L37.6207 112.549Z" fill="#D2ECFD"/>
<path d="M34.7912 120.04L36.9112 113.43L24.7712 120.44L24.2012 126.16L34.7912 120.04Z" fill="#63CAF6"/>
<path d="M28.5601 123.639L25.8301 125.219L30.4301 117.179L33.2601 115.539L28.5601 123.639Z" fill="#B1E3FA"/>
<path d="M30.6007 122.469L29.4707 123.109L34.0707 115.069L35.2907 114.369L30.6007 122.469Z" fill="#B1E3FA"/>
<path d="M0.470703 102.619L14.4307 94.5586L33.4907 97.5086L38.6007 108.519L24.6507 116.579L5.5807 113.629L0.470703 102.619Z" fill="#F7F7F6"/>
<path d="M1.58984 102.789L14.7298 95.209L32.6798 97.979L37.4898 108.349L24.3498 115.939L6.39984 113.159L1.58984 102.789Z" fill="#355059"/>
<path d="M0.470703 102.619V106.919L5.5807 117.919V113.629L0.470703 102.619Z" fill="#B3B3B3"/>
<path d="M5.58008 117.919V113.629L24.6501 116.579V120.869L5.58008 117.919Z" fill="#E0E0DF"/>
<path d="M38.6004 108.52V112.82L24.6504 120.87V116.58L38.6004 108.52Z" fill="#EDEDEC"/>
<path d="M23.922 106.969V115.119L7.58203 112.589V104.439L23.922 106.969Z" fill="#D2ECFD"/>
<path d="M23.5105 107.32L7.98047 104.92V112.24L23.5105 114.64V107.32Z" fill="#23AAE1"/>
<path d="M35.8819 100.061V108.211L23.9219 115.121V106.971L35.8819 100.061Z" fill="#D2ECFD"/>
<path d="M35.4703 107.98V100.77L24.3203 107.2V114.41L35.4703 107.98Z" fill="#93DAF8"/>
<path d="M27.6416 112.5L24.9316 114.06L31.0716 103.31L33.9216 101.66L27.6416 112.5Z" fill="#CAEBFD"/>
<path d="M34.7225 101.21L35.3425 100.85V101.56L29.6725 111.32L28.5625 111.96L34.7225 101.21Z" fill="#CAEBFD"/>
<path d="M7.58117 112.59V104.44L3.20117 95.0098V103.15L7.58117 112.59Z" fill="#BAD1E0"/>
<path d="M7.37039 104.49L3.40039 95.9297V103.11L7.37039 111.67V104.49Z" fill="#1B9AD1"/>
<path d="M1.46094 90.6595L14.6909 83.0195L32.7809 85.8195L37.6209 96.2595L24.3809 103.9L6.30094 101.1L1.46094 90.6595Z" fill="#F7F7F6"/>
<path d="M5.58008 91.3004L15.8001 85.4004L29.7601 87.5604L33.4901 95.6204L23.2801 101.52L9.32008 99.3604L5.58008 91.3004Z" fill="#355059"/>
<path d="M1.46094 90.6602V94.7402L6.30094 105.18V101.1L1.46094 90.6602Z" fill="#B3B3B3"/>
<path d="M6.30078 105.18V101.1L24.3808 103.9V107.97L6.30078 105.18Z" fill="#E0E0DF"/>
<path d="M37.6209 96.2598V100.33L24.3809 107.97V103.9L37.6209 96.2598Z" fill="#EDEDEC"/>
<path d="M22.0202 88.0703V93.3703C22.0202 93.8203 21.7202 94.2603 21.1402 94.6003C19.9602 95.2803 18.0502 95.2803 16.8702 94.6003C16.2802 94.2603 15.9902 93.8103 15.9902 93.3703V88.0703H22.0202Z" fill="url(#paint0_linear_176_121690)"/>
<path d="M19.0005 89.8101C20.6684 89.8101 22.0205 89.0311 22.0205 88.0701C22.0205 87.1091 20.6684 86.3301 19.0005 86.3301C17.3326 86.3301 15.9805 87.1091 15.9805 88.0701C15.9805 89.0311 17.3326 89.8101 19.0005 89.8101Z" fill="#F7F7F6"/>
<path d="M21.2709 83.8906V87.8806C21.2709 88.2206 21.0509 88.5506 20.6009 88.8106C19.7109 89.3206 18.2709 89.3206 17.3809 88.8106C16.9409 88.5506 16.7109 88.2206 16.7109 87.8806V83.8906H21.2709Z" fill="url(#paint1_linear_176_121690)"/>
<path d="M19.0007 85.2001C20.2599 85.2001 21.2807 84.6136 21.2807 83.8901C21.2807 83.1666 20.2599 82.5801 19.0007 82.5801C17.7415 82.5801 16.7207 83.1666 16.7207 83.8901C16.7207 84.6136 17.7415 85.2001 19.0007 85.2001Z" fill="#F7F7F6"/>
<path d="M20.0105 76.5293V83.9293C20.0105 84.0793 19.9105 84.2293 19.7105 84.3393C19.3205 84.5693 18.6805 84.5693 18.2805 84.3393C18.0805 84.2293 17.9805 84.0793 17.9805 83.9293V76.5293H20.0105Z" fill="url(#paint2_linear_176_121690)"/>
<path d="M18.2808 76.1198C17.8908 76.3498 17.8908 76.7198 18.2808 76.9398C18.6708 77.1698 19.3108 77.1698 19.7108 76.9398C20.1008 76.7098 20.1008 76.3398 19.7108 76.1198C19.3208 75.8898 18.6808 75.8898 18.2808 76.1198Z" fill="#F7F7F6"/>
<path d="M11.541 82.63L12.051 82.92C12.051 82.92 18.361 72.43 27.541 71.29L27.031 71C16.021 71.45 11.541 78.14 11.541 78.14V82.63Z" fill="#355059"/>
<path d="M12.0508 82.9191C12.0508 82.9191 16.5908 76.2091 27.5408 74.8491V71.2891C16.5308 71.7491 12.0508 78.4391 12.0508 78.4391V82.9191Z" fill="url(#paint3_linear_176_121690)"/>
</g>
<defs>
<linearGradient id="paint0_linear_176_121690" x1="22.0181" y1="91.5925" x2="15.9782" y2="91.5925" gradientUnits="userSpaceOnUse">
<stop stop-color="#EDEDEC"/>
<stop offset="1" stop-color="#B3B3B3"/>
</linearGradient>
<linearGradient id="paint1_linear_176_121690" x1="21.2748" y1="86.5389" x2="16.7229" y2="86.5389" gradientUnits="userSpaceOnUse">
<stop stop-color="#EDEDEC"/>
<stop offset="1" stop-color="#B3B3B3"/>
</linearGradient>
<linearGradient id="paint2_linear_176_121690" x1="20.0068" y1="80.5168" x2="17.9901" y2="80.5168" gradientUnits="userSpaceOnUse">
<stop stop-color="#EDEDEC"/>
<stop offset="1" stop-color="#B3B3B3"/>
</linearGradient>
<linearGradient id="paint3_linear_176_121690" x1="27.5395" y1="77.1081" x2="12.0479" y2="77.1081" gradientUnits="userSpaceOnUse">
<stop stop-color="#B3B3B3"/>
<stop offset="0.1874" stop-color="#C6C6C5"/>
<stop offset="0.4734" stop-color="#DBDBDB"/>
<stop offset="0.7488" stop-color="#E9E9E8"/>
<stop offset="1" stop-color="#EDEDEC"/>
</linearGradient>
<clipPath id="clip0_176_121690">
<rect width="24" height="24" fill="white" transform="translate(166 34)"/>
</clipPath>
<clipPath id="clip1_176_121690">
<rect width="93.06" height="107.46" fill="white" transform="translate(0 71)"/>
</clipPath>
</defs>
</svg>
