<svg width="499" height="168" viewBox="0 0 499 168" fill="none" xmlns="http://www.w3.org/2000/svg">
<g clip-path="url(#clip0_176_122862)">
<path d="M91.3072 94.4062L91.2187 123.211L91.2106 125.813L80.5324 132.051L64.7135 141.297L64.625 141.348L64.6706 128.432L64.7216 109.936L91.3072 94.4062Z" fill="#E3BF94"/>
<path opacity="0.5" d="M91.2123 123.211L91.2043 125.814L80.5261 132.052L80.4804 147.951L80.4724 150.553L80.1102 150.761L73.1666 154.82L64.6562 159.791L64.6643 157.188L64.7072 141.297L64.7153 138.697L80.5368 129.455L91.2123 123.211Z" fill="white"/>
<path d="M87.8975 108.126L79.7734 112.837V106.486L87.8975 101.771V108.126Z" fill="#ACD3F2"/>
<path opacity="0.5" d="M82.2997 105.152L84.2448 104L82.8443 111.061L80.875 112.202L82.2997 105.152Z" fill="white"/>
<path opacity="0.5" d="M84.495 103.869L85.1308 103.467L83.7303 110.525L83.0703 110.921L84.495 103.869Z" fill="white"/>
<path d="M79.7734 106.633V112.839L87.4119 108.399V102.193L79.7734 106.633ZM87.0738 108.256L79.929 112.402V106.527L87.0738 102.382V108.256Z" fill="#453B36"/>
<path d="M79.7344 106.465V113.019L87.5526 108.48V101.926L79.7344 106.465ZM87.2172 108.337L80.0724 112.482V106.608L87.2172 102.462V108.337Z" fill="#856644"/>
<path d="M84.8407 103.683V109.557L84.7656 109.6L84.7737 109.934L85.1761 109.7V103.467L84.8407 103.683Z" fill="#453B36"/>
<path d="M84.5967 103.982L84.9723 103.763V109.637L84.763 109.759L84.7737 110.093L85.3103 109.78V103.227L84.5859 103.647L84.5967 103.982Z" fill="#856644"/>
<path d="M81.8251 105.427V111.304L81.75 111.347L81.7607 111.678L82.1632 111.446V105.098L81.8251 105.427Z" fill="#453B36"/>
<path d="M81.5862 105.727L81.9645 105.509V111.383L81.7552 111.507L81.7633 111.839L82.2998 111.528V104.975L81.5781 105.395L81.5862 105.727Z" fill="#856644"/>
<path d="M87.5469 101.928V108.479L87.791 108.622L87.8849 108.285L88.1157 101.928L87.8957 101.771L87.5469 101.928Z" fill="#CCA67C"/>
<path d="M87.7933 102.069V108.623L88.1313 108.426V101.535L82.5078 104.799L82.5159 105.133L87.7933 102.069Z" fill="white"/>
<path d="M79.6406 113.357L79.9787 113.16V106.609L82.5195 105.133L82.5114 104.799L79.6406 106.463V113.357Z" fill="white"/>
<path d="M88.3301 101.268L79.5353 107.045L78.9531 106.708V106.341L88.3301 100.898V101.268Z" fill="#5E4830"/>
<path d="M88.9056 101.606L79.5312 107.046V106.679L88.9056 101.236V101.606Z" fill="#5E4830"/>
<path d="M88.1349 108.793L79.6406 113.723V113.356L88.1349 108.426V108.793Z" fill="white"/>
<path d="M88.9096 101.236L79.5353 106.678L78.9531 106.341L88.3301 100.898L88.9096 101.236Z" fill="#CCA67C"/>
<path d="M87.7947 108.623L79.9766 113.16V112.877L87.5506 108.48L87.7947 108.623Z" fill="#CCA67C"/>
<path d="M75.7283 115.189L67.6016 119.904V113.55L75.7283 108.838V115.189Z" fill="#ACD3F2"/>
<path opacity="0.5" d="M70.1305 112.218L72.073 111.066L70.6724 118.127L68.7031 119.268L70.1305 112.218Z" fill="white"/>
<path opacity="0.5" d="M72.3258 110.935L72.9616 110.533L71.5584 117.591L70.8984 117.985L72.3258 110.935Z" fill="white"/>
<path d="M67.6016 113.699V119.905L75.24 115.466V109.26L67.6016 113.699ZM74.9019 115.323L67.7572 119.468V113.594L74.9019 109.449V115.323Z" fill="#453B36"/>
<path d="M67.5625 113.531V120.085L75.3807 115.546V108.992L67.5625 113.531ZM75.0453 115.403L67.9006 119.548V113.674L75.0453 109.529V115.403Z" fill="#856644"/>
<path d="M72.6689 110.749V116.623L72.5938 116.666L72.6018 117.001L73.0069 116.766V110.533L72.6689 110.749Z" fill="#453B36"/>
<path d="M72.4248 111.048L72.8031 110.83V116.704L72.5911 116.825L72.6019 117.157L73.1385 116.847V110.293L72.4141 110.714L72.4248 111.048Z" fill="#856644"/>
<path d="M69.6532 112.493V118.367L69.5781 118.413L69.5889 118.745L69.9913 118.513V112.164L69.6532 112.493Z" fill="#453B36"/>
<path d="M69.4143 112.793L69.7926 112.575V118.449L69.5833 118.571L69.5914 118.905L70.1306 118.592V112.041L69.4062 112.462L69.4143 112.793Z" fill="#856644"/>
<path d="M75.375 108.994V115.545L75.6165 115.688L75.7104 115.351L75.9411 108.994L75.7238 108.838L75.375 108.994Z" fill="#CCA67C"/>
<path d="M75.6265 109.136V115.689L75.9646 115.492V108.602L70.3438 111.865L70.3491 112.199L75.6265 109.136Z" fill="white"/>
<path d="M67.4688 120.423L67.8068 120.226V113.675L70.3476 112.2L70.3422 111.865L67.4688 113.529V120.423Z" fill="white"/>
<path d="M76.1582 108.332L67.3635 114.111L66.7812 113.774V113.407L76.1582 107.965V108.332Z" fill="#5E4830"/>
<path d="M76.7364 108.672L67.3594 114.112V113.745L76.7364 108.303V108.672Z" fill="#5E4830"/>
<path d="M75.963 115.859L67.4688 120.789V120.422L75.963 115.492V115.859Z" fill="white"/>
<path d="M76.7405 108.302L67.3635 113.745L66.7812 113.407L76.1582 107.965L76.7405 108.302Z" fill="#CCA67C"/>
<path d="M75.6229 115.69L67.8047 120.226V119.943L75.3814 115.547L75.6229 115.69Z" fill="#CCA67C"/>
<path d="M87.8975 120.947L79.7734 125.662V119.307L87.8975 114.596V120.947Z" fill="#ACD3F2"/>
<path opacity="0.5" d="M82.2997 117.976L84.2448 116.824L82.8443 123.882L80.875 125.026L82.2997 117.976Z" fill="white"/>
<path opacity="0.5" d="M84.495 116.692L85.1308 116.287L83.7303 123.348L83.0703 123.742L84.495 116.692Z" fill="white"/>
<path d="M79.7734 119.453V125.659L87.4119 121.22V115.014L79.7734 119.453ZM87.0738 121.079L79.929 125.225V119.351L87.0738 115.205V121.079Z" fill="#453B36"/>
<path d="M79.7344 119.289V125.843L87.5526 121.304V114.75L79.7344 119.289ZM87.2172 121.161L80.0724 125.306V119.432L87.2172 115.287V121.161Z" fill="#856644"/>
<path d="M84.8407 116.505V122.382L84.7656 122.425L84.7737 122.757L85.1761 122.525V116.289L84.8407 116.505Z" fill="#453B36"/>
<path d="M84.5967 116.803L84.9723 116.585V122.459L84.763 122.583L84.7737 122.915L85.3103 122.605V116.051L84.5859 116.472L84.5967 116.803Z" fill="#856644"/>
<path d="M81.8251 118.251V124.125L81.75 124.168L81.7607 124.503L82.1632 124.268V117.922L81.8251 118.251Z" fill="#453B36"/>
<path d="M81.5862 118.55L81.9645 118.332V124.206L81.7552 124.327L81.7633 124.662L82.2998 124.349V117.795L81.5781 118.216L81.5862 118.55Z" fill="#856644"/>
<path d="M87.5469 114.749V121.303L87.791 121.443L87.8849 121.106L88.1157 114.749L87.8957 114.596L87.5469 114.749Z" fill="#CCA67C"/>
<path d="M87.7933 114.894V121.445L88.1313 121.251V114.357L82.5078 117.621L82.5159 117.955L87.7933 114.894Z" fill="white"/>
<path d="M79.6406 126.177L79.9787 125.983V119.429L82.5195 117.954L82.5114 117.619L79.6406 119.286V126.177Z" fill="white"/>
<path d="M88.3301 114.089L79.5353 119.869L78.9531 119.532V119.165L88.3301 113.723V114.089Z" fill="#5E4830"/>
<path d="M88.9056 114.427L79.5312 119.87V119.503L88.9056 114.061V114.427Z" fill="#5E4830"/>
<path d="M88.1349 121.617L79.6406 126.544V126.177L88.1349 121.25V121.617Z" fill="white"/>
<path d="M88.9096 114.06L79.5353 119.502L78.9531 119.165L88.3301 113.723L88.9096 114.06Z" fill="#CCA67C"/>
<path d="M87.7947 121.445L79.9766 125.984V125.701L87.5506 121.305L87.7947 121.445Z" fill="#CCA67C"/>
<path d="M75.7283 128.014L67.6016 132.725V126.374L75.7283 121.662V128.014Z" fill="#ACD3F2"/>
<path opacity="0.5" d="M70.1305 125.042L72.073 123.891L70.6724 130.949L68.7031 132.092L70.1305 125.042Z" fill="white"/>
<path opacity="0.5" d="M72.3258 123.758L72.9616 123.354L71.5584 130.414L70.8984 130.808L72.3258 123.758Z" fill="white"/>
<path d="M67.6016 126.519V132.725L75.24 128.286V122.08L67.6016 126.519ZM74.9019 128.146L67.7572 132.291V126.417L74.9019 122.272V128.146Z" fill="#453B36"/>
<path d="M67.5625 126.356V132.909L75.3807 128.37V121.816L67.5625 126.356ZM75.0453 128.227L67.9006 132.373V126.498L75.0453 122.353V128.227Z" fill="#856644"/>
<path d="M72.6689 123.571V129.445L72.5938 129.491L72.6018 129.823L73.0069 129.591V123.355L72.6689 123.571Z" fill="#453B36"/>
<path d="M72.4248 123.87L72.8031 123.651V129.525L72.5911 129.647L72.6019 129.981L73.1385 129.668V123.117L72.4141 123.538L72.4248 123.87Z" fill="#856644"/>
<path d="M69.6532 125.317V131.191L69.5781 131.235L69.5889 131.569L69.9913 131.334V124.988L69.6532 125.317Z" fill="#453B36"/>
<path d="M69.4143 125.616L69.7926 125.398V131.272L69.5833 131.394L69.5914 131.728L70.1306 131.415V124.861L69.4062 125.282L69.4143 125.616Z" fill="#856644"/>
<path d="M75.375 121.816V128.37L75.6165 128.51L75.7104 128.173L75.9411 121.816L75.7238 121.662L75.375 121.816Z" fill="#CCA67C"/>
<path d="M75.6265 121.958V128.512L75.9646 128.317V121.424L70.3438 124.687L70.3491 125.022L75.6265 121.958Z" fill="white"/>
<path d="M67.4688 133.243L67.8068 133.049V126.495L70.3476 125.02L70.3422 124.686L67.4688 126.352V133.243Z" fill="white"/>
<path d="M76.1582 121.156L67.3635 126.936L66.7812 126.598V126.232L76.1582 120.789V121.156Z" fill="#5E4830"/>
<path d="M76.7364 121.494L67.3594 126.936V126.57L76.7364 121.127V121.494Z" fill="#5E4830"/>
<path d="M75.963 128.683L67.4688 133.611V133.244L75.963 128.316V128.683Z" fill="white"/>
<path d="M76.7405 121.126L67.3635 126.569L66.7812 126.232L76.1582 120.789L76.7405 121.126Z" fill="#CCA67C"/>
<path d="M75.6229 128.511L67.8047 133.05V132.767L75.3814 128.371L75.6229 128.511Z" fill="#CCA67C"/>
<path d="M80.5725 119.141L80.5349 129.454L80.5242 132.051L80.4786 147.95L80.4705 150.553L80.1083 150.761L73.1648 154.82L64.6544 159.79L61.526 161.619L61.4375 161.67L61.4455 158.965L61.5341 130.26L64.6624 128.432L80.5725 119.141Z" fill="#E8CFB0"/>
<path d="M73.3177 137.337L64.2036 142.658L61.4509 144.268L61.4455 146.261L61.4375 148.967L61.526 148.915L64.6544 147.087L73.1648 142.119L80.1083 138.06L80.4705 137.849L80.4786 135.247L80.4839 133.148L73.3177 137.337Z" fill="#70594D"/>
<path d="M61.5338 130.261L61.4452 158.965L61.4372 161.671L45.672 152.522L45.5781 152.466L45.5862 149.868L45.6801 121.059L61.5338 130.261Z" fill="#C69C6D"/>
<path d="M45.6876 121.059L45.5937 149.868L45.5856 152.466L19.0885 167.949L19 168L19.008 165.298L19.0993 136.591L45.6876 121.059Z" fill="#E8CFB0"/>
<path d="M19.0894 136.59L18.9982 165.297L18.9902 168L1.68229 157.95L1.59375 157.899L1.69302 126.492L19.0894 136.59Z" fill="#C69C6D"/>
<g opacity="0.2">
<path d="M1.69034 129.784L1.59375 125.236L73.9 85.625L91.2991 92.8342V97.6996L66.4064 112.239L80.4813 119.869L80.5698 122.431L61.5341 133.554L45.6777 124.352L19.0894 139.884L1.69034 129.784Z" fill="#8C5D46"/>
</g>
<path opacity="0.5" d="M80.4838 147.951L80.4757 150.554L80.1135 150.761L73.17 154.821L64.6596 159.791L61.5312 161.62L61.5393 159.017L64.6676 157.189L80.4838 147.951Z" fill="white"/>
<path opacity="0.5" d="M61.5336 159.017L61.5256 161.619L61.437 161.671L45.6719 152.522L45.6799 149.814L61.4451 158.965L61.5336 159.017Z" fill="white"/>
<path opacity="0.5" d="M45.685 149.814L45.6769 152.522L45.583 152.466L19.0859 167.949L19.0967 165.349L45.5911 149.868L45.685 149.814Z" fill="white"/>
<path opacity="0.5" d="M19.0946 165.348L19.0839 167.948L18.9954 168L1.6875 157.95L1.69823 155.248L19.0034 165.297L19.0946 165.348Z" fill="white"/>
<path d="M0 126.494V122.743L73.9053 83.3203L93 90.6508V94.4024L66.4117 109.935L82.2681 115.388V119.137L61.5394 131.247L45.683 122.044L19.0947 137.577L0 126.494Z" fill="#453B36"/>
<path d="M0 122.744L73.9053 79.5703L93 90.6524L66.4117 106.185L82.2681 115.39L61.5394 127.497L45.683 118.294L19.0947 133.829L0 122.744Z" fill="white"/>
<path d="M1.69531 122.741V120.184L73.9076 80.5566L91.304 88.0975V90.6543L64.7157 106.187L80.5721 112.832V115.389L61.5391 126.509L45.6827 117.306L19.0944 132.839L1.69531 122.741Z" fill="#453B36"/>
<path d="M1.69531 120.184L73.9076 78L91.304 88.0977L64.7157 103.63L80.5721 112.832L61.5391 123.952L45.6827 114.75L19.0944 130.282L1.69531 120.184Z" fill="#E8CFB0"/>
<path d="M85.8607 88.8107L60.4797 103.636L61.6871 104.337L76.3361 112.839L75.1288 113.545L61.5368 121.483L45.6804 112.28L19.0921 127.815L7.14484 120.881L5.9375 120.18L73.9134 80.4688L87.068 88.1041L85.8607 88.8107Z" fill="white"/>
<path d="M60.4755 105.04L75.1245 113.544L61.5326 121.481L45.6762 112.279L19.0879 127.814L7.14062 120.879L73.9092 81.875L85.8565 88.8091L60.4755 103.635V105.04Z" fill="#453B36"/>
<path d="M76.2092 142.65V153.045L71.3906 155.863V145.436L76.2092 142.65Z" fill="white"/>
<path d="M71.875 155.571L71.8777 155.28V145.719L75.4729 143.637L75.7251 143.494V153.344L71.875 155.571Z" fill="#453B36"/>
<path d="M71.875 155.28V145.719L75.4702 143.637L75.4729 153.198L71.875 155.28Z" fill="#ACD3F2"/>
<path opacity="0.5" d="M75.379 143.883L74.1341 144.622L71.9609 155.181L73.9302 154.037L75.379 146.909V143.883Z" fill="white"/>
<path opacity="0.5" d="M75.3824 147.939L74.1562 153.897L74.8163 153.503L75.3824 150.717V147.939Z" fill="white"/>
<path d="M71.7586 150.311C71.6942 150.276 71.7801 150.092 71.8579 150.138L72.1235 150.292C72.263 150.373 72.3676 150.572 72.3676 150.753V151.786C72.3676 151.899 72.3247 151.988 72.2496 152.031C72.1825 152.069 72.0993 152.067 72.0215 152.021L71.7559 151.867C71.6915 151.829 71.7854 151.654 71.8552 151.694L72.1208 151.848C72.1369 151.859 72.1476 151.859 72.1503 151.859C72.153 151.856 72.1691 151.837 72.1691 151.786V150.753C72.1691 150.645 72.102 150.508 72.0215 150.465L71.7586 150.311Z" fill="white"/>
<path d="M71.8733 145.178V155.572L67.0547 158.388V147.961L71.8733 145.178Z" fill="white"/>
<path d="M67.5391 158.097V157.808V148.245L71.1369 146.165L71.3864 146.02V155.869L67.5391 158.097Z" fill="#453B36"/>
<path d="M67.5391 157.807V148.243L71.1369 146.164V155.722L67.5391 157.807Z" fill="#ACD3F2"/>
<path opacity="0.5" d="M71.0536 146.27L69.8087 147.006L67.6328 157.567L69.6021 156.424L71.0536 149.296V146.27Z" fill="white"/>
<path opacity="0.5" d="M71.0569 150.326L69.8281 156.284L70.4881 155.89L71.0569 153.101V150.326Z" fill="white"/>
<path d="M70.8445 150.701C70.7801 150.666 70.866 150.483 70.9438 150.529L71.2094 150.683C71.3489 150.763 71.4536 150.963 71.4536 151.146V152.179C71.4536 152.293 71.4106 152.382 71.3355 152.425C71.2685 152.463 71.1853 152.46 71.1075 152.414L70.8418 152.26C70.7775 152.223 70.8714 152.047 70.9411 152.088L71.2067 152.241C71.2228 152.252 71.2336 152.252 71.2362 152.252C71.2389 152.249 71.255 152.231 71.255 152.179V151.146C71.255 151.039 71.188 150.901 71.1075 150.858L70.8445 150.701Z" fill="white"/>
<path d="M42.8064 134.291L34.6797 139.005V132.651L42.8064 127.939V134.291Z" fill="#ACD3F2"/>
<path opacity="0.5" d="M37.2086 131.32L39.1511 130.168L37.7506 137.226L35.7812 138.37L37.2086 131.32Z" fill="white"/>
<path opacity="0.5" d="M39.4039 130.037L40.0398 129.635L38.6366 136.693L37.9766 137.087L39.4039 130.037Z" fill="white"/>
<path d="M34.6797 132.801V139.007L42.3181 134.567V128.361L34.6797 132.801ZM41.9801 134.424L34.8353 138.57V132.695L41.9801 128.55V134.424Z" fill="#453B36"/>
<path d="M34.6406 132.633V139.187L42.4588 134.648V128.094L34.6406 132.633ZM42.1234 134.505L34.9787 138.65V132.776L42.1234 128.63V134.505Z" fill="#856644"/>
<path d="M39.747 129.851V135.725L39.6719 135.768L39.6799 136.102L40.0851 135.868V129.635L39.747 129.851Z" fill="#453B36"/>
<path d="M39.5029 130.15L39.8812 129.929V135.805L39.6719 135.927L39.68 136.258L40.2166 135.948V129.395L39.4922 129.815L39.5029 130.15Z" fill="#856644"/>
<path d="M36.7314 131.595V137.469L36.6562 137.515L36.667 137.846L37.0694 137.612V131.266L36.7314 131.595Z" fill="#453B36"/>
<path d="M36.4924 131.895L36.8707 131.677V137.551L36.6614 137.672L36.6722 138.007L37.2088 137.694V131.143L36.4844 131.563L36.4924 131.895Z" fill="#856644"/>
<path d="M42.4531 128.093V134.647L42.6946 134.787L42.7885 134.45L43.0192 128.093L42.8019 127.939L42.4531 128.093Z" fill="#CCA67C"/>
<path d="M42.7047 128.237V134.788L43.0427 134.594V127.703L37.4219 130.964L37.4272 131.301L42.7047 128.237Z" fill="white"/>
<path d="M34.5469 139.523L34.8822 139.326V132.773L37.423 131.3L37.4177 130.963L34.5469 132.63V139.523Z" fill="white"/>
<path d="M43.2364 127.433L34.4416 133.213L33.8594 132.876V132.509L43.2364 127.066V127.433Z" fill="#5E4830"/>
<path d="M43.8145 127.771L34.4375 133.214V132.847L43.8145 127.404V127.771Z" fill="#5E4830"/>
<path d="M43.0385 134.961L34.5469 139.891V139.524L43.0385 134.594V134.961Z" fill="white"/>
<path d="M43.8186 127.404L34.4416 132.846L33.8594 132.509L43.2364 127.066L43.8186 127.404Z" fill="#CCA67C"/>
<path d="M42.701 134.789L34.8828 139.328V139.045L42.4595 134.648L42.701 134.789Z" fill="#CCA67C"/>
<path d="M30.6345 141.357L22.5078 146.072V139.718L30.6345 135.006V141.357Z" fill="#ACD3F2"/>
<path opacity="0.5" d="M25.0367 138.386L26.9819 137.234L25.5787 144.293L23.6094 145.436L25.0367 138.386Z" fill="white"/>
<path opacity="0.5" d="M27.232 137.103L27.8679 136.701L26.4674 143.759L25.8047 144.153L27.232 137.103Z" fill="white"/>
<path d="M22.5078 139.867V146.073L30.1462 141.634V135.428L22.5078 139.867ZM29.8109 141.491L22.6661 145.636V139.762L29.8109 135.617V141.491Z" fill="#453B36"/>
<path d="M22.4688 139.699V146.253L30.2869 141.714V135.16L22.4688 139.699ZM29.9489 141.571L22.8041 145.716V139.842L29.9489 135.697V141.571Z" fill="#856644"/>
<path d="M27.5751 136.914V142.791L27.5 142.834L27.5107 143.169L27.9132 142.934V136.701L27.5751 136.914Z" fill="#453B36"/>
<path d="M27.3362 137.216L27.7145 136.995V142.872L27.5052 142.993L27.5133 143.325L28.0525 143.015V136.461L27.3281 136.882L27.3362 137.216Z" fill="#856644"/>
<path d="M24.5622 138.661V144.535L24.4844 144.578L24.4951 144.913L24.8976 144.678V138.332L24.5622 138.661Z" fill="#453B36"/>
<path d="M24.3232 138.961L24.6988 138.743V144.617L24.4896 144.738L24.5003 145.073L25.0369 144.76V138.209L24.3125 138.627L24.3232 138.961Z" fill="#856644"/>
<path d="M30.2812 135.16V141.713L30.5254 141.854L30.6193 141.516L30.8474 135.16L30.63 135.006L30.2812 135.16Z" fill="#CCA67C"/>
<path d="M30.5355 135.304V141.855L30.8708 141.66V134.77L25.25 138.03L25.2554 138.367L30.5355 135.304Z" fill="white"/>
<path d="M22.375 146.587L22.7104 146.393V139.839L25.2511 138.366L25.2458 138.029L22.375 139.696V146.587Z" fill="white"/>
<path d="M31.0645 134.5L22.2697 140.279L21.6875 139.942V139.575L31.0645 134.133V134.5Z" fill="#5E4830"/>
<path d="M31.6426 134.837L22.2656 140.28V139.913L31.6426 134.471V134.837Z" fill="#5E4830"/>
<path d="M30.8666 142.027L22.375 146.957V146.588L30.8666 141.66V142.027Z" fill="white"/>
<path d="M31.6467 134.47L22.2697 139.913L21.6875 139.575L31.0645 134.133L31.6467 134.47Z" fill="#CCA67C"/>
<path d="M30.5318 141.855L22.7109 146.394V146.111L30.2877 141.715L30.5318 141.855Z" fill="#CCA67C"/>
<path d="M42.8064 147.116L34.6797 151.828V145.476L42.8064 140.762V147.116Z" fill="#ACD3F2"/>
<path opacity="0.5" d="M37.2086 144.141L39.1511 142.992L37.7506 150.05L35.7812 151.194L37.2086 144.141Z" fill="white"/>
<path opacity="0.5" d="M39.4039 142.86L40.0398 142.455L38.6366 149.516L37.9766 149.91L39.4039 142.86Z" fill="white"/>
<path d="M34.6797 145.621V151.827L42.3181 147.388V141.182L34.6797 145.621ZM41.9801 147.247L34.8353 151.393V145.518L41.9801 141.373V147.247Z" fill="#453B36"/>
<path d="M34.6406 145.457V152.011L42.4588 147.472V140.918L34.6406 145.457ZM42.1234 147.326L34.9787 151.471V145.597L42.1234 141.452V147.326Z" fill="#856644"/>
<path d="M39.747 142.673V148.547L39.6719 148.593L39.6799 148.925L40.0851 148.69V142.457L39.747 142.673Z" fill="#453B36"/>
<path d="M39.5029 142.971L39.8812 142.753V148.627L39.6719 148.748L39.68 149.083L40.2166 148.77V142.219L39.4922 142.639L39.5029 142.971Z" fill="#856644"/>
<path d="M36.7314 144.419V150.293L36.6562 150.336L36.667 150.671L37.0694 150.436V144.09L36.7314 144.419Z" fill="#453B36"/>
<path d="M36.4924 144.718L36.8707 144.497V150.374L36.6614 150.495L36.6722 150.827L37.2088 150.517V143.963L36.4844 144.384L36.4924 144.718Z" fill="#856644"/>
<path d="M42.4531 140.918V147.472L42.6946 147.612L42.7885 147.275L43.0192 140.918L42.8019 140.762L42.4531 140.918Z" fill="#CCA67C"/>
<path d="M42.7047 141.059V147.613L43.0427 147.416V140.525L37.4219 143.789L37.4272 144.123L42.7047 141.059Z" fill="white"/>
<path d="M34.5469 152.345L34.8822 152.148V145.597L37.423 144.122L37.4177 143.787L34.5469 145.454V152.345Z" fill="white"/>
<path d="M43.2364 140.257L34.4416 146.037L33.8594 145.7V145.331L43.2364 139.891V140.257Z" fill="#5E4830"/>
<path d="M43.8145 140.595L34.4375 146.038V145.671L43.8145 140.229V140.595Z" fill="#5E4830"/>
<path d="M43.0385 147.786L34.5469 152.713V152.346L43.0385 147.416V147.786Z" fill="white"/>
<path d="M43.8186 140.228L34.4416 145.67L33.8594 145.331L43.2364 139.891L43.8186 140.228Z" fill="#CCA67C"/>
<path d="M42.701 147.613L34.8828 152.149V151.869L42.4595 147.473L42.701 147.613Z" fill="#CCA67C"/>
<path d="M30.6345 154.182L22.5078 158.894V152.543L30.6345 147.828V154.182Z" fill="#ACD3F2"/>
<path opacity="0.5" d="M25.0367 151.208L26.9819 150.057L25.5787 157.117L23.6094 158.261L25.0367 151.208Z" fill="white"/>
<path opacity="0.5" d="M27.232 149.926L27.8679 149.521L26.4674 156.58L25.8047 156.976L27.232 149.926Z" fill="white"/>
<path d="M22.5078 152.687V158.893L30.1462 154.454V148.248L22.5078 152.687ZM29.8109 154.311L22.6661 158.459V152.585L29.8109 148.44V154.311Z" fill="#453B36"/>
<path d="M22.4688 152.522V159.075L30.2869 154.536V147.982L22.4688 152.522ZM29.9489 154.393L22.8041 158.539V152.664L29.9489 148.519V154.393Z" fill="#856644"/>
<path d="M27.5751 149.739V155.613L27.5 155.656L27.5107 155.991L27.9132 155.756V149.523L27.5751 149.739Z" fill="#453B36"/>
<path d="M27.3362 150.038L27.7145 149.819V155.693L27.5052 155.815L27.5133 156.149L28.0525 155.836V149.285L27.3281 149.703L27.3362 150.038Z" fill="#856644"/>
<path d="M24.5622 151.483V157.359L24.4844 157.403L24.4951 157.737L24.8976 157.502V151.156L24.5622 151.483Z" fill="#453B36"/>
<path d="M24.3232 151.784L24.6988 151.563V157.44L24.4896 157.562L24.5003 157.893L25.0369 157.583V151.029L24.3125 151.45L24.3232 151.784Z" fill="#856644"/>
<path d="M30.2812 147.985V154.536L30.5254 154.679L30.6193 154.341L30.8474 147.985L30.63 147.828L30.2812 147.985Z" fill="#CCA67C"/>
<path d="M30.5355 148.126V154.68L30.8708 154.483V147.592L25.25 150.855L25.2554 151.19L30.5355 148.126Z" fill="white"/>
<path d="M22.375 159.411L22.7104 159.214V152.663L25.2511 151.188L25.2458 150.854L22.375 152.52V159.411Z" fill="white"/>
<path d="M31.0645 147.324L22.2697 153.104L21.6875 152.764V152.397L31.0645 146.957V147.324Z" fill="#5E4830"/>
<path d="M31.6426 147.662L22.2656 153.104V152.735L31.6426 147.295V147.662Z" fill="#5E4830"/>
<path d="M30.8666 154.849L22.375 159.779V159.413L30.8666 154.482V154.849Z" fill="white"/>
<path d="M31.6467 147.294L22.2697 152.734L21.6875 152.397L31.0645 146.957L31.6467 147.294Z" fill="#CCA67C"/>
<path d="M30.5318 154.678L22.7109 159.215V158.934L30.2877 154.535L30.5318 154.678Z" fill="#CCA67C"/>
<path d="M6.0625 141.357L14.1892 146.072V139.718L6.0625 135.006V141.357Z" fill="#ACD3F2"/>
<path opacity="0.5" d="M11.6561 138.386L9.71094 137.234L11.1141 144.293L13.0834 145.436L11.6561 138.386Z" fill="white"/>
<path opacity="0.5" d="M9.46399 137.103L8.82812 136.701L10.2313 143.759L10.8913 144.153L9.46399 137.103Z" fill="white"/>
<path d="M6.54688 135.428V141.634L14.1853 146.073V139.867L6.54688 135.428ZM6.88493 135.617L14.027 139.762V145.636L6.88225 141.491V135.617H6.88493Z" fill="#453B36"/>
<path d="M6.40625 135.16V141.714L14.2244 146.253V139.699L6.40625 135.16ZM6.74431 135.697L13.8891 139.842V145.716L6.74431 141.571V135.697Z" fill="#856644"/>
<path d="M9.11931 136.914V142.791L9.19443 142.834L9.1837 143.169L8.78125 142.934V136.701L9.11931 136.914Z" fill="#453B36"/>
<path d="M9.35698 137.216L8.97868 136.995V142.872L9.18795 142.993L9.1799 143.325L8.64062 143.015V136.461L9.36503 136.882L9.35698 137.216Z" fill="#856644"/>
<path d="M12.1244 138.661V144.535L12.2022 144.578L12.1915 144.913L11.7891 144.678V138.332L12.1244 138.661Z" fill="#453B36"/>
<path d="M12.3699 138.961L11.9943 138.743V144.617L12.2036 144.738L12.1928 145.073L11.6562 144.76V138.209L12.3807 138.627L12.3699 138.961Z" fill="#856644"/>
<path d="M6.40986 135.16V141.713L6.16571 141.854L6.0718 141.516L5.84375 135.16L6.06107 135.006L6.40986 135.16Z" fill="#CCA67C"/>
<path d="M6.1635 135.304V141.855L5.82812 141.66V134.77L11.449 138.03L11.4436 138.367L6.1635 135.304Z" fill="white"/>
<path d="M14.3137 146.587L13.9783 146.393V139.839L11.4375 138.366L11.4429 138.029L14.3137 139.696V146.587Z" fill="white"/>
<path d="M5.63281 134.5L14.4276 140.279L15.0098 139.942V139.575L5.63281 134.133V134.5Z" fill="#5E4830"/>
<path d="M5.04688 134.837L14.4239 140.28V139.913L5.04688 134.471V134.837Z" fill="#5E4830"/>
<path d="M5.82812 142.027L14.3197 146.957V146.588L5.82812 141.66V142.027Z" fill="white"/>
<path d="M5.04688 134.47L14.4239 139.913L15.0061 139.575L5.62908 134.133L5.04688 134.47Z" fill="#CCA67C"/>
<path d="M6.16406 141.855L13.9849 146.394V146.111L6.40821 141.715L6.16406 141.855Z" fill="#CCA67C"/>
<path d="M6.05469 154.182L14.1814 158.894V152.543L6.05469 147.828V154.182Z" fill="#ACD3F2"/>
<path opacity="0.5" d="M11.6561 151.208L9.71094 150.057L11.1141 157.117L13.0834 158.261L11.6561 151.208Z" fill="white"/>
<path opacity="0.5" d="M9.46399 149.926L8.82812 149.521L10.2313 156.58L10.8913 156.976L9.46399 149.926Z" fill="white"/>
<path d="M6.54688 148.248V154.454L14.1853 158.893V152.687L6.54688 148.248ZM6.88493 148.437L14.0297 152.582V158.456L6.88493 154.311V148.437Z" fill="#453B36"/>
<path d="M6.40625 147.984V154.538L14.2244 159.077V152.523L6.40625 147.984ZM6.74431 148.518L13.8891 152.664V158.538L6.74431 154.393V148.518Z" fill="#856644"/>
<path d="M9.11931 149.739V155.613L9.19443 155.656L9.1837 155.991L8.78125 155.756V149.523L9.11931 149.739Z" fill="#453B36"/>
<path d="M9.35698 150.038L8.97868 149.819V155.693L9.18795 155.815L9.1799 156.149L8.64062 155.836V149.285L9.36503 149.703L9.35698 150.038Z" fill="#856644"/>
<path d="M12.1244 151.483V157.359L12.2022 157.403L12.1915 157.737L11.7891 157.502V151.156L12.1244 151.483Z" fill="#453B36"/>
<path d="M12.3699 151.784L11.9943 151.563V157.44L12.2036 157.562L12.1928 157.893L11.6562 157.583V151.029L12.3807 151.45L12.3699 151.784Z" fill="#856644"/>
<path d="M6.40986 147.985V154.536L6.16571 154.679L6.0718 154.341L5.84375 147.985L6.06107 147.828L6.40986 147.985Z" fill="#CCA67C"/>
<path d="M6.1635 148.126V154.68L5.82812 154.483V147.592L11.449 150.855L11.4436 151.19L6.1635 148.126Z" fill="white"/>
<path d="M14.3137 159.411L13.9783 159.214V152.663L11.4375 151.188L11.4429 150.854L14.3137 152.52V159.411Z" fill="white"/>
<path d="M5.63281 147.324L14.4276 153.104L15.0098 152.764V152.397L5.63281 146.957V147.324Z" fill="#5E4830"/>
<path d="M5.04688 147.662L14.4239 153.104V152.735L5.04688 147.295V147.662Z" fill="#5E4830"/>
<path d="M5.82812 154.849L14.3197 159.779V159.413L5.82812 154.482V154.849Z" fill="white"/>
<path d="M5.04688 147.294L14.4239 152.734L15.0061 152.397L5.62908 146.957L5.04688 147.294Z" fill="#CCA67C"/>
<path d="M6.16406 154.678L13.9849 159.215V158.934L6.40821 154.535L6.16406 154.678Z" fill="#CCA67C"/>
<path d="M49.6328 134.684L57.7595 139.396V133.044L49.6328 128.33V134.684Z" fill="#ACD3F2"/>
<path opacity="0.5" d="M55.2315 131.71L53.2891 130.559L54.6896 137.619L56.6589 138.763L55.2315 131.71Z" fill="white"/>
<path opacity="0.5" d="M53.0394 130.425L52.4062 130.023L53.8068 137.082L54.4668 137.478L53.0394 130.425Z" fill="white"/>
<path d="M50.125 128.75V134.956L57.7634 139.395V133.189L50.125 128.75ZM50.4631 128.939L57.6078 133.084V138.958L50.4631 134.813V128.939Z" fill="#453B36"/>
<path d="M49.9844 128.486V135.04L57.8026 139.579V133.025L49.9844 128.486ZM50.3224 129.02L57.4672 133.166V139.04L50.3224 134.894V129.02Z" fill="#856644"/>
<path d="M52.7026 130.241V136.115L52.7777 136.158L52.7696 136.493L52.3672 136.258V130.025L52.7026 130.241Z" fill="#453B36"/>
<path d="M52.9402 130.54L52.5619 130.321V136.195L52.7739 136.317L52.7632 136.651L52.2266 136.338V129.787L52.951 130.205L52.9402 130.54Z" fill="#856644"/>
<path d="M55.7131 131.985V137.861L55.7882 137.905L55.7774 138.239L55.375 138.004V131.658L55.7131 131.985Z" fill="#453B36"/>
<path d="M55.9507 132.286L55.5724 132.065V137.942L55.7817 138.063L55.7737 138.395L55.2344 138.085V131.531L55.9588 131.952L55.9507 132.286Z" fill="#856644"/>
<path d="M49.988 128.487V135.038L49.7465 135.181L49.6526 134.843L49.4219 128.487L49.6392 128.33L49.988 128.487Z" fill="#CCA67C"/>
<path d="M49.7443 128.628V135.182L49.4062 134.985V128.094L55.0271 131.357L55.0217 131.692L49.7443 128.628Z" fill="white"/>
<path d="M57.8945 139.913L57.5564 139.716V133.165L55.0156 131.69L55.021 131.355L57.8945 133.022V139.913Z" fill="white"/>
<path d="M49.2109 127.826L58.0057 133.606L58.5879 133.266V132.899L49.2109 127.459V127.826Z" fill="#5E4830"/>
<path d="M48.625 128.164L58.002 133.606V133.237L48.625 127.797V128.164Z" fill="#5E4830"/>
<path d="M49.4062 135.351L57.9006 140.281V139.915L49.4062 134.984V135.351Z" fill="white"/>
<path d="M48.625 127.796L58.002 133.236L58.5842 132.899L49.2072 127.459L48.625 127.796Z" fill="#CCA67C"/>
<path d="M49.7422 135.18L57.5604 139.716V139.436L49.9837 135.037L49.7422 135.18Z" fill="#CCA67C"/>
<path d="M75.1424 133.837L67.0156 138.548V132.197L75.1424 127.482V133.837Z" fill="#ACD3F2"/>
<path opacity="0.5" d="M69.5445 130.862L71.487 129.713L70.0865 136.771L68.1172 137.915L69.5445 130.862Z" fill="white"/>
<path opacity="0.5" d="M71.7398 129.58L72.3757 129.176L70.9725 136.237L70.3125 136.63L71.7398 129.58Z" fill="white"/>
<path d="M67.0156 132.342V138.548L74.6541 134.108V127.902L67.0156 132.342ZM74.316 133.968L67.1712 138.113V132.239L74.316 128.091V133.968Z" fill="#453B36"/>
<path d="M66.9766 132.178V138.732L74.7948 134.192V127.639L66.9766 132.178ZM74.4567 134.047L67.3119 138.192V132.318L74.4567 128.173V134.047Z" fill="#856644"/>
<path d="M72.0751 129.393V135.268L72 135.313L72.0107 135.645L72.4132 135.411V129.178L72.0751 129.393Z" fill="#453B36"/>
<path d="M71.8362 129.692L72.2145 129.473V135.348L72.0052 135.469L72.0133 135.803L72.5498 135.491V128.939L71.8281 129.36L71.8362 129.692Z" fill="#856644"/>
<path d="M69.07 131.14V137.014L68.9922 137.057L69.0029 137.391L69.4054 137.157V130.811L69.07 131.14Z" fill="#453B36"/>
<path d="M68.831 131.439L69.2067 131.218V137.094L68.9974 137.216L69.0081 137.548L69.5447 137.237V130.684L68.8203 131.104L68.831 131.439Z" fill="#856644"/>
<path d="M74.7969 127.639V134.193L75.041 134.333L75.1349 133.996L75.363 127.639L75.1457 127.482L74.7969 127.639Z" fill="#CCA67C"/>
<path d="M75.0355 127.78V134.334L75.3708 134.137V127.246L69.75 130.51L69.7554 130.844L75.0355 127.78Z" fill="white"/>
<path d="M66.8828 139.065L67.2182 138.869V132.318L69.759 130.842L69.7536 130.508L66.8828 132.175V139.065Z" fill="white"/>
<path d="M75.5723 126.978L66.7775 132.758L66.1953 132.421V132.051L75.5723 126.611V126.978Z" fill="#5E4830"/>
<path d="M76.1583 127.316L66.7812 132.759V132.392L76.1583 126.949V127.316Z" fill="#5E4830"/>
<path d="M75.3744 134.506L66.8828 139.434V139.067L75.3744 134.137V134.506Z" fill="white"/>
<path d="M76.1545 126.948L66.7775 132.391L66.1953 132.051L75.5723 126.611L76.1545 126.948Z" fill="#CCA67C"/>
<path d="M75.0396 134.334L67.2188 138.87V138.59L74.7955 134.193L75.0396 134.334Z" fill="#CCA67C"/>
<path d="M49.6406 147.504L57.7674 152.218V145.864L49.6406 141.152V147.504Z" fill="#ACD3F2"/>
<path opacity="0.5" d="M55.2315 144.532L53.2891 143.381L54.6896 150.439L56.6589 151.583L55.2315 144.532Z" fill="white"/>
<path opacity="0.5" d="M53.0394 143.25L52.4062 142.848L53.8068 149.906L54.4668 150.3L53.0394 143.25Z" fill="white"/>
<path d="M50.125 141.574V147.78L57.7634 152.219V146.014L50.125 141.574ZM50.4631 141.763L57.6078 145.908V151.782L50.4631 147.637V141.763Z" fill="#453B36"/>
<path d="M49.9844 141.307V147.86L57.8026 152.4V145.846L49.9844 141.307ZM50.3224 141.843L57.4672 145.989V151.863L50.3224 147.717V141.843Z" fill="#856644"/>
<path d="M52.7026 143.061V148.938L52.7777 148.981L52.7696 149.315L52.3672 149.08V142.848L52.7026 143.061Z" fill="#453B36"/>
<path d="M52.9402 143.363L52.5619 143.141V149.018L52.7739 149.14L52.7632 149.471L52.2266 149.161V142.607L52.951 143.028L52.9402 143.363Z" fill="#856644"/>
<path d="M55.7131 144.808V150.682L55.7882 150.725L55.7774 151.059L55.375 150.825V144.479L55.7131 144.808Z" fill="#453B36"/>
<path d="M55.9507 145.108L55.5724 144.889V150.764L55.7817 150.885L55.7737 151.219L55.2344 150.907V144.355L55.9588 144.774L55.9507 145.108Z" fill="#856644"/>
<path d="M49.988 141.306V147.86L49.7465 148L49.6526 147.663L49.4219 141.306L49.6392 141.152L49.988 141.306Z" fill="#CCA67C"/>
<path d="M49.7443 141.451V148.002L49.4062 147.808V140.914L55.0271 144.177L55.0217 144.515L49.7443 141.451Z" fill="white"/>
<path d="M57.8945 152.733L57.5564 152.539V145.985L55.0156 144.513L55.021 144.176L57.8945 145.843V152.733Z" fill="white"/>
<path d="M49.2109 140.646L58.0057 146.426L58.5879 146.089V145.722L49.2109 140.279V140.646Z" fill="#5E4830"/>
<path d="M48.625 140.984L58.002 146.427V146.06L48.625 140.617V140.984Z" fill="#5E4830"/>
<path d="M49.4062 148.173L57.9006 153.104V152.734L49.4062 147.807V148.173Z" fill="white"/>
<path d="M48.625 140.616L58.002 146.059L58.5842 145.722L49.2072 140.279L48.625 140.616Z" fill="#CCA67C"/>
<path d="M49.7422 148.002L57.5604 152.541V152.257L49.9837 147.861L49.7422 148.002Z" fill="#CCA67C"/>
<path d="M75.6739 140.962L70.0906 148.606L66.2969 146.405V146.036L75.6739 140.596V140.962Z" fill="#5E4830"/>
<path d="M79.4708 143.166L70.0938 148.606V148.239L79.4708 142.797V143.166Z" fill="#5E4830"/>
<path d="M79.4676 142.796L70.0906 148.239L66.2969 146.036L75.6739 140.596L79.4676 142.796Z" fill="#CCA67C"/>
<path d="M17.7387 116.719L14.5781 118.555V120.573L20.2553 121.849L23.4185 122.035V120.015L17.7387 116.719Z" fill="white"/>
<path d="M14.5781 118.555V120.572L20.2553 123.868V121.848L14.5781 118.555Z" fill="#C69C6D"/>
<path d="M20.25 121.848V123.868L23.4132 122.034V120.014L20.25 121.848Z" fill="#E8CFB0"/>
<path d="M18.8368 117.94C19.4217 118.28 19.4217 118.83 18.8368 119.168C18.2519 119.507 17.3048 119.507 16.7199 119.168C16.135 118.828 16.135 118.278 16.7199 117.94C17.3048 117.601 18.2519 117.601 18.8368 117.94Z" fill="#453B36"/>
<path d="M31.973 108.455L28.8125 110.289V112.309L34.4897 113.585L37.6529 113.768V111.748L31.973 108.455Z" fill="white"/>
<path d="M28.8125 110.289V112.309L34.4897 115.605V113.585L28.8125 110.289Z" fill="#C69C6D"/>
<path d="M34.4844 113.585V115.605L37.6476 113.768V111.748L34.4844 113.585Z" fill="#E8CFB0"/>
<path d="M33.0712 109.675C33.656 110.015 33.656 110.565 33.0712 110.902C32.4863 111.242 31.5392 111.242 30.9543 110.902C30.3694 110.562 30.3694 110.012 30.9543 109.675C31.5392 109.338 32.4863 109.338 33.0712 109.675Z" fill="#453B36"/>
<path d="M62.0209 108.965L65.1842 110.802V112.822L59.507 114.097L56.3438 114.281V112.261L62.0209 108.965Z" fill="white"/>
<path d="M65.185 110.801V112.821L59.5078 116.114V114.097L65.185 110.801Z" fill="#C69C6D"/>
<path d="M59.507 114.096V116.114L56.3438 114.28V112.26L59.507 114.096Z" fill="#E8CFB0"/>
<path d="M60.923 110.187C60.3382 110.526 60.3382 111.077 60.923 111.414C61.5079 111.753 62.455 111.753 63.0399 111.414C63.6248 111.074 63.6248 110.524 63.0399 110.187C62.455 109.847 61.5079 109.847 60.923 110.187Z" fill="#453B36"/>
<path d="M58.8898 92.834L55.7266 94.6707V96.6907L61.4037 97.9664L64.567 98.1498V96.1298L58.8898 92.834Z" fill="white"/>
<path d="M55.7266 94.6699V96.69L61.4037 99.9831V97.9657L55.7266 94.6699Z" fill="#C69C6D"/>
<path d="M61.4062 97.9656V99.983L64.5695 98.149V96.1289L61.4062 97.9656Z" fill="#E8CFB0"/>
<path d="M59.993 94.0556C60.5779 94.3954 60.5779 94.9456 59.993 95.2827C59.4081 95.6226 58.4611 95.6226 57.8762 95.2827C57.2913 94.9429 57.2913 94.3927 57.8762 94.0556C58.4611 93.7185 59.4081 93.7185 59.993 94.0556Z" fill="#453B36"/>
<path d="M73.132 84.5703L69.9688 86.4043V88.4244L75.6459 89.7001L78.8092 89.8835V87.8661L73.132 84.5703Z" fill="white"/>
<path d="M69.9688 86.4043V88.4244L75.6459 91.7201V89.7001L69.9688 86.4043Z" fill="#C69C6D"/>
<path d="M75.6406 89.6992V91.7193L78.8038 89.8826V87.8652L75.6406 89.6992Z" fill="#E8CFB0"/>
<path d="M74.2274 85.792C74.8123 86.1318 74.8123 86.682 74.2274 87.0191C73.6425 87.359 72.6954 87.359 72.1105 87.0191C71.5257 86.6793 71.5257 86.1291 72.1105 85.792C72.6954 85.4522 73.6425 85.4522 74.2274 85.792Z" fill="#453B36"/>
<path d="M78.4031 137.863L78.0006 137.629L77.3809 137.988L77.3755 136.051L76.9731 135.816L76.3909 136.154L76.3962 137.764C76.3479 137.464 76.2272 137.249 76.0367 137.146C76.0555 137.154 75.653 136.919 75.653 136.919C75.4465 136.798 75.1567 136.82 74.7918 137.033C74.1157 137.424 73.6569 138.222 73.5657 139.02C73.5013 138.891 73.4154 138.791 73.3028 138.732C73.3215 138.74 72.9191 138.505 72.9191 138.505C72.7152 138.387 72.4254 138.406 72.0605 138.619C71.3549 139.029 70.8881 139.875 70.8264 140.709L70.8237 139.857L70.4212 139.622L69.8417 139.959L69.8444 141.1L69.2917 141.421L69.289 140.749L68.8866 140.515L68.3044 140.854L68.3071 141.348L67.9556 141.143C67.8536 141.14 67.6229 141.202 67.3224 141.378C66.5443 141.831 65.9192 142.756 65.9219 143.77C65.9219 144.193 66.0399 144.501 66.268 144.633L66.6704 144.868C66.8958 145 67.2312 144.965 67.6739 144.709C67.9878 144.528 68.2266 144.32 68.3339 144.196L68.2453 143.724L67.8429 143.489C67.7302 143.608 67.5344 143.767 67.3573 143.867C67.2231 143.945 67.1051 143.986 67.0031 143.999C66.9602 143.899 66.9361 143.77 66.9361 143.611C66.9334 142.95 67.2929 142.421 67.7517 142.154C67.9583 142.036 68.1219 141.993 68.24 141.982L68.3071 141.639L68.3124 143.827L68.7149 144.061L69.2971 143.721L69.2944 142.481L69.8471 142.16L69.8498 142.931L70.2522 143.166L70.8317 142.829L70.8264 141.127C70.8639 141.464 70.9847 141.707 71.1805 141.823L71.583 142.057C71.5749 142.052 71.5696 142.047 71.5615 142.041C71.7681 142.176 72.0605 142.16 72.4281 141.947C73.1015 141.556 73.5764 140.801 73.6676 139.948C73.7293 140.075 73.8098 140.172 73.9118 140.234L74.3142 140.469C74.3062 140.463 74.3008 140.458 74.2928 140.453C74.4994 140.587 74.7918 140.571 75.1594 140.358C75.8221 139.973 76.297 139.236 76.3962 138.397L76.3989 139.12L76.8014 139.355L78.4058 138.424L78.4031 137.863ZM72.0471 141.162C71.9935 141.192 71.9452 141.21 71.8969 141.224C71.8513 141.108 71.8244 140.957 71.8218 140.771C71.8191 140.194 72.0471 139.63 72.4415 139.403C72.4925 139.374 72.5381 139.355 72.5837 139.341C72.6347 139.463 72.6615 139.617 72.6615 139.797C72.6642 140.372 72.4388 140.933 72.0471 141.162ZM74.7811 139.573C74.7274 139.606 74.6791 139.622 74.6308 139.635C74.5852 139.519 74.5584 139.368 74.5557 139.182C74.553 138.605 74.7811 138.041 75.1755 137.815C75.2264 137.785 75.2721 137.766 75.3177 137.753C75.3686 137.874 75.3955 138.028 75.3955 138.209C75.3982 138.786 75.1728 139.347 74.7811 139.573Z" fill="#453B36"/>
<path d="M65.8016 144.259C65.815 144.264 65.8284 144.267 65.8392 144.275L65.4367 144.04C65.3267 143.976 65.1684 143.962 64.9618 143.995C64.9404 143.997 64.9216 144 64.9028 144.003C64.9377 143.865 65.0531 143.706 65.2623 143.585C65.5119 143.439 65.697 143.417 65.8016 143.415L65.9304 142.797L65.528 142.562C65.375 142.573 65.1631 142.625 64.8706 142.794C64.2643 143.145 63.8994 143.746 63.8994 144.254C63.8994 144.469 63.9691 144.604 64.0926 144.677L64.495 144.912C64.4735 144.898 64.4548 144.882 64.436 144.866C64.5594 144.979 64.7579 145.001 65.0075 144.957C64.9967 145.127 64.8679 145.311 64.6292 145.448C64.3796 145.594 64.1409 145.64 63.9826 145.637L63.8672 146.26L64.2696 146.495C64.4145 146.503 64.7043 146.425 64.9967 146.255C65.7023 145.845 66.0324 145.23 66.0297 144.731C66.0324 144.48 65.9572 144.329 65.8016 144.259Z" fill="#453B36"/>
<path d="M77.3635 136.051L77.3715 138.457L78.3937 137.863V138.427L76.7893 139.36L76.7812 136.391L77.3635 136.051Z" fill="white"/>
<path d="M75.1824 137.271C75.9712 136.812 76.4059 137.244 76.4086 138.064C76.4113 139.037 75.9015 139.925 75.1503 140.362C74.3883 140.804 73.9402 140.397 73.9375 139.55C73.9322 138.662 74.4232 137.713 75.1824 137.271ZM75.1771 139.811C75.5715 139.582 75.7942 139.021 75.7915 138.444C75.7888 137.91 75.5661 137.581 75.1664 137.816C74.772 138.045 74.5466 138.609 74.5466 139.183C74.552 139.763 74.7881 140.038 75.1771 139.811Z" fill="white"/>
<path d="M72.4507 138.859C73.2395 138.4 73.6715 138.832 73.6742 139.652C73.6768 140.625 73.1698 141.513 72.4158 141.949C71.6539 142.392 71.2058 141.985 71.2031 141.138C71.2005 140.25 71.6914 139.298 72.4507 138.859ZM72.4454 141.397C72.8398 141.167 73.0624 140.606 73.0598 140.029C73.0571 139.495 72.8371 139.166 72.4346 139.401C72.0402 139.63 71.8149 140.194 71.8149 140.768C71.8202 141.351 72.0563 141.623 72.4454 141.397Z" fill="white"/>
<path d="M70.8071 139.859L70.8151 142.829L70.2356 143.163L70.2302 141.923L69.2751 142.478L69.2778 143.719L68.6955 144.059L68.6875 141.089L69.2697 140.749L69.2724 141.89L70.2302 141.335L70.2275 140.194L70.8071 139.859Z" fill="white"/>
<path d="M67.7104 141.61C68.0109 141.434 68.2416 141.375 68.3435 141.375L68.2255 141.976C68.1074 141.987 67.9438 142.03 67.7372 142.149C67.2757 142.416 66.9189 142.945 66.9216 143.605C66.9243 144.201 67.2301 144.398 67.7479 144.096C67.9223 143.994 68.1182 143.837 68.2335 143.719L68.3221 144.191C68.2174 144.315 67.976 144.522 67.6621 144.703C66.774 145.218 66.3152 144.843 66.3125 143.999C66.3072 142.991 66.9323 142.063 67.7104 141.61Z" fill="white"/>
<path d="M65.274 143.025C65.5637 142.855 65.7757 142.804 65.9313 142.793L65.8025 143.411C65.7005 143.413 65.5154 143.435 65.2659 143.581C65.0137 143.726 64.8903 143.928 64.893 144.082C64.893 144.271 65.0405 144.271 65.3705 144.225C65.824 144.155 66.0386 144.303 66.0413 144.724C66.044 145.22 65.714 145.838 65.0083 146.248C64.7132 146.418 64.4261 146.499 64.2812 146.488L64.3966 145.865C64.5549 145.868 64.7937 145.822 65.0432 145.676C65.3115 145.522 65.451 145.309 65.451 145.118C65.451 144.932 65.3276 144.897 65.0191 144.951C64.5925 145.023 64.3108 144.916 64.3108 144.484C64.3 143.977 64.6676 143.376 65.274 143.025Z" fill="white"/>
<path d="M75.4755 153.199L75.7251 153.345L71.875 155.581L71.8777 155.281L75.4755 153.199Z" fill="#736357"/>
<path d="M67.5469 157.807L71.1447 155.723L71.3943 155.868L67.5469 158.107V157.807Z" fill="#736357"/>
</g>
<rect x="153" width="346" height="99" rx="18" fill="#006DB7"/>
<path d="M97 122L208.5 86.026L176.5 62L97 122Z" fill="#006DB7"/>
<rect x="166.048" y="28.5476" width="41.9048" height="41.9048" rx="20.9524" fill="#81C995"/>
<rect x="166.048" y="28.5476" width="41.9048" height="41.9048" rx="20.9524" stroke="white" stroke-width="2.09524"/>
<g clip-path="url(#clip1_176_122862)">
<path d="M197.058 42.731L189.684 39.218C188.06 38.2484 186.04 38.2312 184.401 39.173L176.944 42.731C176.916 42.745 176.887 42.76 176.86 42.776C175.09 43.7878 174.476 46.0426 175.487 47.8123C175.83 48.4122 176.335 48.9037 176.944 49.231L179.001 50.211V55.111C179.002 57.302 180.427 59.2378 182.52 59.889C183.975 60.3102 185.485 60.5164 187.001 60.501C188.516 60.518 190.025 60.3135 191.482 59.894C193.574 59.2429 194.999 57.3071 195.001 55.116V50.209L197.001 49.253V57.5009C197.001 58.0532 197.448 58.5009 198.001 58.5009C198.553 58.5009 199.001 58.0532 199.001 57.5009V45.5009C199.007 44.3267 198.08 43.2419 197.058 42.731ZM193.001 55.116C193.001 56.4266 192.151 57.5858 190.901 57.979C189.633 58.3412 188.319 58.517 187.001 58.501C185.682 58.517 184.368 58.3412 183.101 57.979C181.85 57.5858 181 56.4266 181.001 55.116V51.164L184.318 52.744C185.136 53.23 186.071 53.4854 187.023 53.483C187.929 53.4894 188.819 53.2496 189.6 52.789L193.001 51.164V55.116ZM196.201 47.426L188.659 51.026C187.607 51.6383 186.304 51.6209 185.269 50.981L177.89 47.471C177.067 47.0274 176.76 46.0011 177.203 45.1786C177.353 44.9005 177.578 44.6699 177.853 44.513L185.348 40.933C186.399 40.322 187.702 40.3393 188.738 40.978L196.112 44.491C196.654 44.7921 196.993 45.3607 197.001 45.981C197.002 46.5685 196.699 47.1149 196.201 47.426Z" fill="#81C995"/>
<path d="M197.058 42.731L189.684 39.218C188.06 38.2484 186.04 38.2312 184.401 39.173L176.944 42.731C176.916 42.745 176.887 42.76 176.86 42.776C175.09 43.7878 174.476 46.0426 175.487 47.8123C175.83 48.4122 176.335 48.9037 176.944 49.231L179.001 50.211V55.111C179.002 57.302 180.427 59.2378 182.52 59.889C183.975 60.3102 185.485 60.5164 187.001 60.501C188.516 60.518 190.025 60.3135 191.482 59.894C193.574 59.2429 194.999 57.3071 195.001 55.116V50.209L197.001 49.253V57.5009C197.001 58.0532 197.448 58.5009 198.001 58.5009C198.553 58.5009 199.001 58.0532 199.001 57.5009V45.5009C199.007 44.3267 198.08 43.2419 197.058 42.731ZM193.001 55.116C193.001 56.4266 192.151 57.5858 190.901 57.979C189.633 58.3412 188.319 58.517 187.001 58.501C185.682 58.517 184.368 58.3412 183.101 57.979C181.85 57.5858 181 56.4266 181.001 55.116V51.164L184.318 52.744C185.136 53.23 186.071 53.4854 187.023 53.483C187.929 53.4894 188.819 53.2496 189.6 52.789L193.001 51.164V55.116ZM196.201 47.426L188.659 51.026C187.607 51.6383 186.304 51.6209 185.269 50.981L177.89 47.471C177.067 47.0274 176.76 46.0011 177.203 45.1786C177.353 44.9005 177.578 44.6699 177.853 44.513L185.348 40.933C186.399 40.322 187.702 40.3393 188.738 40.978L196.112 44.491C196.654 44.7921 196.993 45.3607 197.001 45.981C197.002 46.5685 196.699 47.1149 196.201 47.426Z" fill="black" fill-opacity="0.5"/>
</g>
<path d="M243.05 30.9709H239.597C239.499 30.4046 239.317 29.9029 239.053 29.4659C238.788 29.0227 238.459 28.6473 238.065 28.3395C237.671 28.0317 237.221 27.8009 236.717 27.647C236.218 27.487 235.679 27.407 235.101 27.407C234.073 27.407 233.162 27.6655 232.368 28.1825C231.574 28.6934 230.952 29.4444 230.503 30.4354C230.054 31.4202 229.829 32.6236 229.829 34.0455C229.829 35.492 230.054 36.7107 230.503 37.7017C230.958 38.6866 231.58 39.4313 232.368 39.9361C233.162 40.4347 234.07 40.6839 235.092 40.6839C235.658 40.6839 236.187 40.6101 236.68 40.4624C237.178 40.3085 237.625 40.0838 238.018 39.7884C238.419 39.4929 238.754 39.1297 239.025 38.6989C239.302 38.268 239.493 37.7756 239.597 37.2216L243.05 37.2401C242.921 38.1387 242.641 38.982 242.21 39.7699C241.786 40.5578 241.228 41.2533 240.539 41.8565C239.85 42.4536 239.043 42.9214 238.12 43.2599C237.197 43.5923 236.172 43.7585 235.045 43.7585C233.384 43.7585 231.9 43.3738 230.595 42.6044C229.29 41.835 228.262 40.724 227.511 39.2713C226.76 37.8187 226.385 36.0767 226.385 34.0455C226.385 32.008 226.763 30.2661 227.521 28.8196C228.278 27.367 229.309 26.2559 230.614 25.4865C231.919 24.7171 233.396 24.3324 235.045 24.3324C236.098 24.3324 237.077 24.4801 237.982 24.7756C238.886 25.071 239.693 25.505 240.401 26.0774C241.108 26.6437 241.69 27.3393 242.146 28.1641C242.607 28.9827 242.909 29.9183 243.05 30.9709ZM252.226 43.777C250.841 43.777 249.64 43.4723 248.625 42.8629C247.609 42.2536 246.821 41.401 246.261 40.3054C245.707 39.2098 245.43 37.9295 245.43 36.4645C245.43 34.9995 245.707 33.7161 246.261 32.6143C246.821 31.5125 247.609 30.657 248.625 30.0476C249.64 29.4382 250.841 29.1335 252.226 29.1335C253.611 29.1335 254.811 29.4382 255.827 30.0476C256.842 30.657 257.627 31.5125 258.181 32.6143C258.741 33.7161 259.021 34.9995 259.021 36.4645C259.021 37.9295 258.741 39.2098 258.181 40.3054C257.627 41.401 256.842 42.2536 255.827 42.8629C254.811 43.4723 253.611 43.777 252.226 43.777ZM252.244 41.0994C252.995 41.0994 253.623 40.8932 254.128 40.4808C254.632 40.0623 255.008 39.5021 255.254 38.8004C255.506 38.0987 255.633 37.317 255.633 36.4553C255.633 35.5874 255.506 34.8026 255.254 34.1009C255.008 33.393 254.632 32.8298 254.128 32.4112C253.623 31.9927 252.995 31.7834 252.244 31.7834C251.475 31.7834 250.835 31.9927 250.324 32.4112C249.819 32.8298 249.44 33.393 249.188 34.1009C248.942 34.8026 248.819 35.5874 248.819 36.4553C248.819 37.317 248.942 38.0987 249.188 38.8004C249.44 39.5021 249.819 40.0623 250.324 40.4808C250.835 40.8932 251.475 41.0994 252.244 41.0994ZM265.2 24.5909V43.5H261.858V24.5909H265.2ZM274.916 43.777C273.494 43.777 272.266 43.4815 271.232 42.8906C270.204 42.2936 269.413 41.4503 268.859 40.3608C268.305 39.2652 268.028 37.9756 268.028 36.4922C268.028 35.0334 268.305 33.7531 268.859 32.6513C269.419 31.5433 270.201 30.6816 271.204 30.0661C272.207 29.4444 273.386 29.1335 274.74 29.1335C275.614 29.1335 276.439 29.2751 277.215 29.5582C277.996 29.8352 278.686 30.2661 279.283 30.8509C279.886 31.4356 280.36 32.1804 280.705 33.0852C281.049 33.9839 281.222 35.0549 281.222 36.2983V37.3232H269.597V35.0703H278.018C278.012 34.4302 277.873 33.8608 277.602 33.3622C277.332 32.8575 276.953 32.4605 276.467 32.1712C275.987 31.8819 275.427 31.7372 274.786 31.7372C274.103 31.7372 273.503 31.9034 272.986 32.2358C272.469 32.562 272.066 32.9929 271.776 33.5284C271.493 34.0578 271.349 34.6394 271.343 35.2734V37.2401C271.343 38.0649 271.493 38.7727 271.795 39.3636C272.097 39.9484 272.518 40.3977 273.06 40.7116C273.602 41.0194 274.235 41.1733 274.962 41.1733C275.448 41.1733 275.888 41.1056 276.282 40.9702C276.676 40.8286 277.018 40.6224 277.307 40.3516C277.596 40.0807 277.815 39.7453 277.963 39.3452L281.083 39.696C280.886 40.5208 280.511 41.241 279.957 41.8565C279.409 42.4659 278.707 42.9399 277.852 43.2784C276.996 43.6108 276.017 43.777 274.916 43.777ZM290.217 49.1136C289.017 49.1136 287.986 48.9505 287.124 48.6243C286.262 48.3042 285.57 47.8733 285.047 47.3317C284.523 46.79 284.16 46.1899 283.957 45.5312L286.967 44.8018C287.102 45.0788 287.299 45.3527 287.558 45.6236C287.816 45.9006 288.164 46.1283 288.601 46.3068C289.044 46.4915 289.601 46.5838 290.272 46.5838C291.22 46.5838 292.005 46.353 292.627 45.8913C293.248 45.4358 293.559 44.6849 293.559 43.6385V40.9517H293.393C293.221 41.2964 292.968 41.6503 292.636 42.0135C292.31 42.3767 291.876 42.6813 291.334 42.9276C290.799 43.1738 290.125 43.2969 289.312 43.2969C288.223 43.2969 287.235 43.0414 286.348 42.5305C285.468 42.0135 284.766 41.2441 284.243 40.2223C283.726 39.1944 283.468 37.9079 283.468 36.3629C283.468 34.8056 283.726 33.4915 284.243 32.4205C284.766 31.3433 285.471 30.5277 286.358 29.9737C287.244 29.4136 288.232 29.1335 289.321 29.1335C290.152 29.1335 290.836 29.2751 291.371 29.5582C291.913 29.8352 292.344 30.1707 292.664 30.5646C292.984 30.9524 293.227 31.3187 293.393 31.6634H293.578V29.3182H296.874V43.7308C296.874 44.9434 296.585 45.9467 296.006 46.7408C295.427 47.5348 294.636 48.1288 293.633 48.5227C292.63 48.9167 291.491 49.1136 290.217 49.1136ZM290.245 40.6747C290.953 40.6747 291.556 40.5024 292.054 40.1577C292.553 39.813 292.931 39.3175 293.19 38.6712C293.449 38.0249 293.578 37.2493 293.578 36.3445C293.578 35.4519 293.449 34.6702 293.19 33.9993C292.938 33.3284 292.562 32.8082 292.064 32.4389C291.571 32.0634 290.965 31.8757 290.245 31.8757C289.5 31.8757 288.878 32.0696 288.38 32.4574C287.881 32.8452 287.506 33.3776 287.253 34.0547C287.001 34.7256 286.875 35.4889 286.875 36.3445C286.875 37.2124 287.001 37.9725 287.253 38.625C287.512 39.2713 287.89 39.776 288.389 40.1392C288.894 40.4962 289.512 40.6747 290.245 40.6747ZM300.299 43.5V29.3182H303.642V43.5H300.299ZM301.98 27.3054C301.45 27.3054 300.995 27.13 300.613 26.7791C300.232 26.4221 300.041 25.9943 300.041 25.4957C300.041 24.991 300.232 24.5632 300.613 24.2124C300.995 23.8553 301.45 23.6768 301.98 23.6768C302.515 23.6768 302.971 23.8553 303.346 24.2124C303.728 24.5632 303.919 24.991 303.919 25.4957C303.919 25.9943 303.728 26.4221 303.346 26.7791C302.971 27.13 302.515 27.3054 301.98 27.3054ZM313.265 43.777C311.88 43.777 310.68 43.4723 309.664 42.8629C308.648 42.2536 307.86 41.401 307.3 40.3054C306.746 39.2098 306.469 37.9295 306.469 36.4645C306.469 34.9995 306.746 33.7161 307.3 32.6143C307.86 31.5125 308.648 30.657 309.664 30.0476C310.68 29.4382 311.88 29.1335 313.265 29.1335C314.65 29.1335 315.85 29.4382 316.866 30.0476C317.881 30.657 318.666 31.5125 319.22 32.6143C319.78 33.7161 320.06 34.9995 320.06 36.4645C320.06 37.9295 319.78 39.2098 319.22 40.3054C318.666 41.401 317.881 42.2536 316.866 42.8629C315.85 43.4723 314.65 43.777 313.265 43.777ZM313.283 41.0994C314.034 41.0994 314.662 40.8932 315.167 40.4808C315.671 40.0623 316.047 39.5021 316.293 38.8004C316.546 38.0987 316.672 37.317 316.672 36.4553C316.672 35.5874 316.546 34.8026 316.293 34.1009C316.047 33.393 315.671 32.8298 315.167 32.4112C314.662 31.9927 314.034 31.7834 313.283 31.7834C312.514 31.7834 311.874 31.9927 311.363 32.4112C310.858 32.8298 310.479 33.393 310.227 34.1009C309.981 34.8026 309.858 35.5874 309.858 36.4553C309.858 37.317 309.981 38.0987 310.227 38.8004C310.479 39.5021 310.858 40.0623 311.363 40.4808C311.874 40.8932 312.514 41.0994 313.283 41.0994ZM329.494 24.5909H333.686L339.299 38.2926H339.521L345.135 24.5909H349.326V43.5H346.039V30.5092H345.864L340.638 43.4446H338.182L332.956 30.4815H332.781V43.5H329.494V24.5909ZM352.909 43.5V29.3182H356.251V43.5H352.909ZM354.589 27.3054C354.06 27.3054 353.604 27.13 353.223 26.7791C352.841 26.4221 352.65 25.9943 352.65 25.4957C352.65 24.991 352.841 24.5632 353.223 24.2124C353.604 23.8553 354.06 23.6768 354.589 23.6768C355.125 23.6768 355.58 23.8553 355.956 24.2124C356.337 24.5632 356.528 24.991 356.528 25.4957C356.528 25.9943 356.337 26.4221 355.956 26.7791C355.58 27.13 355.125 27.3054 354.589 27.3054ZM363.03 24.5909V43.5H359.688V24.5909H363.03ZM366.467 43.5V29.3182H369.81V43.5H366.467ZM368.148 27.3054C367.618 27.3054 367.163 27.13 366.781 26.7791C366.4 26.4221 366.209 25.9943 366.209 25.4957C366.209 24.991 366.4 24.5632 366.781 24.2124C367.163 23.8553 367.618 23.6768 368.148 23.6768C368.683 23.6768 369.139 23.8553 369.514 24.2124C369.896 24.5632 370.087 24.991 370.087 25.4957C370.087 25.9943 369.896 26.4221 369.514 26.7791C369.139 27.13 368.683 27.3054 368.148 27.3054ZM380.328 29.3182V31.9034H372.176V29.3182H380.328ZM374.188 25.9205H377.531V39.2344C377.531 39.6837 377.598 40.0284 377.734 40.2685C377.875 40.5024 378.06 40.6624 378.288 40.7486C378.516 40.8348 378.768 40.8778 379.045 40.8778C379.254 40.8778 379.445 40.8625 379.617 40.8317C379.796 40.8009 379.931 40.7732 380.024 40.7486L380.587 43.3615C380.408 43.4231 380.153 43.4908 379.82 43.5646C379.494 43.6385 379.094 43.6816 378.62 43.6939C377.783 43.7185 377.029 43.5923 376.358 43.3153C375.687 43.0322 375.155 42.5952 374.761 42.0043C374.373 41.4134 374.182 40.6747 374.188 39.7884V25.9205ZM387.205 43.7862C386.306 43.7862 385.496 43.6262 384.776 43.3061C384.062 42.9799 383.496 42.4998 383.077 41.8658C382.665 41.2318 382.459 40.45 382.459 39.5206C382.459 38.7204 382.607 38.0587 382.902 37.5355C383.197 37.0123 383.601 36.5938 384.112 36.2798C384.622 35.9659 385.198 35.7289 385.838 35.5689C386.484 35.4027 387.152 35.2827 387.842 35.2088C388.673 35.1226 389.347 35.0457 389.864 34.978C390.381 34.9041 390.756 34.7933 390.99 34.6456C391.23 34.4917 391.35 34.2547 391.35 33.9347V33.8793C391.35 33.1837 391.144 32.6451 390.732 32.2635C390.319 31.8819 389.725 31.6911 388.95 31.6911C388.131 31.6911 387.482 31.8696 387.001 32.2266C386.527 32.5836 386.207 33.0052 386.041 33.4915L382.92 33.0483C383.167 32.1866 383.573 31.4664 384.139 30.8878C384.705 30.303 385.398 29.866 386.217 29.5767C387.035 29.2812 387.94 29.1335 388.931 29.1335C389.614 29.1335 390.295 29.2135 390.972 29.3736C391.649 29.5336 392.267 29.7983 392.827 30.1676C393.388 30.5308 393.837 31.0263 394.175 31.6541C394.52 32.282 394.692 33.0668 394.692 34.0085V43.5H391.479V41.5518H391.369C391.165 41.9458 390.879 42.3151 390.51 42.6598C390.147 42.9983 389.688 43.2723 389.134 43.4815C388.586 43.6847 387.943 43.7862 387.205 43.7862ZM388.072 41.3303C388.743 41.3303 389.325 41.1979 389.817 40.9332C390.31 40.6624 390.688 40.3054 390.953 39.8622C391.224 39.419 391.359 38.9358 391.359 38.4126V36.7415C391.255 36.8277 391.076 36.9077 390.824 36.9815C390.578 37.0554 390.301 37.12 389.993 37.1754C389.685 37.2308 389.38 37.2801 389.079 37.3232C388.777 37.3662 388.516 37.4032 388.294 37.4339C387.795 37.5017 387.349 37.6125 386.955 37.7663C386.561 37.9202 386.25 38.1357 386.023 38.4126C385.795 38.6835 385.681 39.0343 385.681 39.4652C385.681 40.0807 385.906 40.5455 386.355 40.8594C386.804 41.1733 387.377 41.3303 388.072 41.3303ZM398.053 43.5V29.3182H401.294V31.6818H401.442C401.7 30.8632 402.143 30.2322 402.771 29.7891C403.405 29.3397 404.129 29.1151 404.941 29.1151C405.126 29.1151 405.332 29.1243 405.56 29.1428C405.794 29.1551 405.987 29.1766 406.141 29.2074V32.282C406 32.2327 405.775 32.1896 405.467 32.1527C405.166 32.1096 404.873 32.0881 404.59 32.0881C403.981 32.0881 403.433 32.2204 402.947 32.4851C402.467 32.7436 402.088 33.1037 401.811 33.5653C401.534 34.027 401.396 34.5594 401.396 35.1626V43.5H398.053ZM414.959 43.5V24.5909H422.05C423.502 24.5909 424.721 24.8617 425.706 25.4034C426.697 25.9451 427.445 26.6899 427.95 27.6378C428.46 28.5795 428.716 29.6506 428.716 30.8509C428.716 32.0634 428.46 33.1406 427.95 34.0824C427.439 35.0241 426.685 35.7659 425.688 36.3075C424.69 36.843 423.462 37.1108 422.004 37.1108H417.304V34.2947H421.542C422.391 34.2947 423.087 34.147 423.629 33.8516C424.17 33.5561 424.57 33.1499 424.829 32.6328C425.094 32.1158 425.226 31.5218 425.226 30.8509C425.226 30.1799 425.094 29.589 424.829 29.0781C424.57 28.5672 424.167 28.1702 423.619 27.8871C423.078 27.5978 422.379 27.4531 421.523 27.4531H418.384V43.5H414.959ZM437.619 43.777C436.197 43.777 434.969 43.4815 433.935 42.8906C432.907 42.2936 432.116 41.4503 431.562 40.3608C431.008 39.2652 430.731 37.9756 430.731 36.4922C430.731 35.0334 431.008 33.7531 431.562 32.6513C432.122 31.5433 432.904 30.6816 433.907 30.0661C434.91 29.4444 436.089 29.1335 437.443 29.1335C438.317 29.1335 439.142 29.2751 439.918 29.5582C440.7 29.8352 441.389 30.2661 441.986 30.8509C442.589 31.4356 443.063 32.1804 443.408 33.0852C443.753 33.9839 443.925 35.0549 443.925 36.2983V37.3232H432.301V35.0703H440.721C440.715 34.4302 440.576 33.8608 440.306 33.3622C440.035 32.8575 439.656 32.4605 439.17 32.1712C438.69 31.8819 438.13 31.7372 437.49 31.7372C436.806 31.7372 436.206 31.9034 435.689 32.2358C435.172 32.562 434.769 32.9929 434.48 33.5284C434.196 34.0578 434.052 34.6394 434.046 35.2734V37.2401C434.046 38.0649 434.196 38.7727 434.498 39.3636C434.8 39.9484 435.221 40.3977 435.763 40.7116C436.305 41.0194 436.939 41.1733 437.665 41.1733C438.151 41.1733 438.591 41.1056 438.985 40.9702C439.379 40.8286 439.721 40.6224 440.01 40.3516C440.299 40.0807 440.518 39.7453 440.666 39.3452L443.786 39.696C443.589 40.5208 443.214 41.241 442.66 41.8565C442.112 42.4659 441.41 42.9399 440.555 43.2784C439.699 43.6108 438.721 43.777 437.619 43.777ZM452.015 43.7493C450.901 43.7493 449.904 43.4631 449.024 42.8906C448.144 42.3182 447.448 41.4872 446.937 40.3977C446.426 39.3082 446.171 37.9848 446.171 36.4276C446.171 34.8518 446.429 33.5223 446.946 32.4389C447.47 31.3494 448.174 30.5277 449.061 29.9737C449.947 29.4136 450.935 29.1335 452.025 29.1335C452.855 29.1335 453.539 29.2751 454.074 29.5582C454.61 29.8352 455.034 30.1707 455.348 30.5646C455.662 30.9524 455.905 31.3187 456.078 31.6634H456.216V24.5909H459.568V43.5H456.281V41.2656H456.078C455.905 41.6103 455.656 41.9766 455.33 42.3643C455.004 42.746 454.573 43.0722 454.037 43.343C453.502 43.6139 452.828 43.7493 452.015 43.7493ZM452.948 41.0071C453.656 41.0071 454.259 40.8163 454.757 40.4347C455.256 40.0469 455.635 39.5083 455.893 38.8189C456.152 38.1295 456.281 37.3262 456.281 36.4091C456.281 35.492 456.152 34.6948 455.893 34.0178C455.641 33.3407 455.265 32.8144 454.767 32.4389C454.274 32.0634 453.668 31.8757 452.948 31.8757C452.203 31.8757 451.581 32.0696 451.083 32.4574C450.584 32.8452 450.209 33.3807 449.956 34.0639C449.704 34.7472 449.578 35.5289 449.578 36.4091C449.578 37.2955 449.704 38.0864 449.956 38.782C450.215 39.4714 450.593 40.0161 451.092 40.4162C451.597 40.8101 452.215 41.0071 452.948 41.0071ZM463.129 43.5V29.3182H466.37V31.6818H466.518C466.776 30.8632 467.22 30.2322 467.847 29.7891C468.481 29.3397 469.205 29.1151 470.017 29.1151C470.202 29.1151 470.408 29.1243 470.636 29.1428C470.87 29.1551 471.064 29.1766 471.218 29.2074V32.282C471.076 32.2327 470.851 32.1896 470.544 32.1527C470.242 32.1096 469.95 32.0881 469.666 32.0881C469.057 32.0881 468.509 32.2204 468.023 32.4851C467.543 32.7436 467.164 33.1037 466.887 33.5653C466.61 34.027 466.472 34.5594 466.472 35.1626V43.5H463.129ZM479.04 43.777C477.655 43.777 476.455 43.4723 475.439 42.8629C474.424 42.2536 473.636 41.401 473.076 40.3054C472.522 39.2098 472.245 37.9295 472.245 36.4645C472.245 34.9995 472.522 33.7161 473.076 32.6143C473.636 31.5125 474.424 30.657 475.439 30.0476C476.455 29.4382 477.655 29.1335 479.04 29.1335C480.425 29.1335 481.625 29.4382 482.641 30.0476C483.657 30.657 484.441 31.5125 484.995 32.6143C485.556 33.7161 485.836 34.9995 485.836 36.4645C485.836 37.9295 485.556 39.2098 484.995 40.3054C484.441 41.401 483.657 42.2536 482.641 42.8629C481.625 43.4723 480.425 43.777 479.04 43.777ZM479.059 41.0994C479.81 41.0994 480.437 40.8932 480.942 40.4808C481.447 40.0623 481.822 39.5021 482.069 38.8004C482.321 38.0987 482.447 37.317 482.447 36.4553C482.447 35.5874 482.321 34.8026 482.069 34.1009C481.822 33.393 481.447 32.8298 480.942 32.4112C480.437 31.9927 479.81 31.7834 479.059 31.7834C478.289 31.7834 477.649 31.9927 477.138 32.4112C476.633 32.8298 476.255 33.393 476.002 34.1009C475.756 34.8026 475.633 35.5874 475.633 36.4553C475.633 37.317 475.756 38.0987 476.002 38.8004C476.255 39.5021 476.633 40.0623 477.138 40.4808C477.649 40.8932 478.289 41.0994 479.059 41.0994ZM226.865 74.5V55.5909H233.956C235.409 55.5909 236.627 55.8433 237.612 56.348C238.603 56.8527 239.351 57.5606 239.856 58.4716C240.367 59.3764 240.622 60.4321 240.622 61.6385C240.622 62.8511 240.364 63.9036 239.847 64.7962C239.336 65.6825 238.582 66.3688 237.585 66.8551C236.587 67.3352 235.362 67.5753 233.91 67.5753H228.859V64.7315H233.448C234.298 64.7315 234.993 64.6146 235.535 64.3807C236.076 64.1406 236.477 63.7928 236.735 63.3374C237 62.8757 237.132 62.3094 237.132 61.6385C237.132 60.9676 237 60.3951 236.735 59.9212C236.47 59.4411 236.067 59.0779 235.526 58.8317C234.984 58.5793 234.285 58.4531 233.43 58.4531H230.29V74.5H226.865ZM236.634 65.9318L241.315 74.5H237.492L232.894 65.9318H236.634ZM252.667 68.5355V60.3182H256.009V74.5H252.768V71.9794H252.62C252.3 72.7734 251.774 73.4228 251.042 73.9276C250.315 74.4323 249.42 74.6847 248.355 74.6847C247.425 74.6847 246.604 74.4785 245.89 74.0661C245.182 73.6475 244.628 73.0412 244.228 72.2472C243.828 71.447 243.627 70.4806 243.627 69.348V60.3182H246.97V68.831C246.97 69.7296 247.216 70.4437 247.708 70.973C248.201 71.5024 248.847 71.767 249.647 71.767C250.14 71.767 250.617 71.647 251.078 71.407C251.54 71.1669 251.919 70.8099 252.214 70.3359C252.516 69.8558 252.667 69.2557 252.667 68.5355ZM259.446 74.5V60.3182H262.788V74.5H259.446ZM261.126 58.3054C260.597 58.3054 260.141 58.13 259.76 57.7791C259.378 57.4221 259.187 56.9943 259.187 56.4957C259.187 55.991 259.378 55.5632 259.76 55.2124C260.141 54.8553 260.597 54.6768 261.126 54.6768C261.662 54.6768 262.117 54.8553 262.493 55.2124C262.874 55.5632 263.065 55.991 263.065 56.4957C263.065 56.9943 262.874 57.4221 262.493 57.7791C262.117 58.13 261.662 58.3054 261.126 58.3054ZM266.04 74.5V72.3764L273.353 63.2081V63.0881H266.281V60.3182H277.443V62.5987L270.482 71.6101V71.7301H277.683V74.5H266.04ZM303.607 61.9709H300.154C300.055 61.4046 299.874 60.9029 299.609 60.4659C299.345 60.0227 299.015 59.6473 298.621 59.3395C298.227 59.0317 297.778 58.8009 297.273 58.647C296.775 58.487 296.236 58.407 295.657 58.407C294.63 58.407 293.719 58.6655 292.925 59.1825C292.131 59.6934 291.509 60.4444 291.059 61.4354C290.61 62.4202 290.385 63.6236 290.385 65.0455C290.385 66.492 290.61 67.7107 291.059 68.7017C291.515 69.6866 292.137 70.4313 292.925 70.9361C293.719 71.4347 294.626 71.6839 295.648 71.6839C296.215 71.6839 296.744 71.6101 297.236 71.4624C297.735 71.3085 298.181 71.0838 298.575 70.7884C298.975 70.4929 299.311 70.1297 299.581 69.6989C299.858 69.268 300.049 68.7756 300.154 68.2216L303.607 68.2401C303.478 69.1387 303.198 69.982 302.767 70.7699C302.342 71.5578 301.785 72.2533 301.096 72.8565C300.406 73.4536 299.6 73.9214 298.677 74.2599C297.753 74.5923 296.729 74.7585 295.602 74.7585C293.94 74.7585 292.457 74.3738 291.152 73.6044C289.847 72.835 288.819 71.724 288.068 70.2713C287.317 68.8187 286.942 67.0767 286.942 65.0455C286.942 63.008 287.32 61.2661 288.077 59.8196C288.834 58.367 289.865 57.2559 291.17 56.4865C292.475 55.7171 293.952 55.3324 295.602 55.3324C296.655 55.3324 297.633 55.4801 298.538 55.7756C299.443 56.071 300.249 56.505 300.957 57.0774C301.665 57.6437 302.247 58.3393 302.702 59.1641C303.164 59.9827 303.465 60.9183 303.607 61.9709ZM310.677 74.7862C309.779 74.7862 308.969 74.6262 308.249 74.3061C307.535 73.9799 306.969 73.4998 306.55 72.8658C306.138 72.2318 305.931 71.45 305.931 70.5206C305.931 69.7204 306.079 69.0587 306.375 68.5355C306.67 68.0123 307.073 67.5938 307.584 67.2798C308.095 66.9659 308.671 66.7289 309.311 66.5689C309.957 66.4027 310.625 66.2827 311.314 66.2088C312.145 66.1226 312.819 66.0457 313.336 65.978C313.853 65.9041 314.229 65.7933 314.463 65.6456C314.703 65.4917 314.823 65.2547 314.823 64.9347V64.8793C314.823 64.1837 314.617 63.6451 314.204 63.2635C313.792 62.8819 313.198 62.6911 312.422 62.6911C311.604 62.6911 310.954 62.8696 310.474 63.2266C310 63.5836 309.68 64.0052 309.514 64.4915L306.393 64.0483C306.639 63.1866 307.046 62.4664 307.612 61.8878C308.178 61.303 308.871 60.866 309.689 60.5767C310.508 60.2812 311.413 60.1335 312.404 60.1335C313.087 60.1335 313.767 60.2135 314.444 60.3736C315.121 60.5336 315.74 60.7983 316.3 61.1676C316.86 61.5308 317.31 62.0263 317.648 62.6541C317.993 63.282 318.165 64.0668 318.165 65.0085V74.5H314.952V72.5518H314.841C314.638 72.9458 314.352 73.3151 313.983 73.6598C313.619 73.9983 313.161 74.2723 312.607 74.4815C312.059 74.6847 311.416 74.7862 310.677 74.7862ZM311.545 72.3303C312.216 72.3303 312.798 72.1979 313.29 71.9332C313.783 71.6624 314.161 71.3054 314.426 70.8622C314.697 70.419 314.832 69.9358 314.832 69.4126V67.7415C314.727 67.8277 314.549 67.9077 314.297 67.9815C314.05 68.0554 313.773 68.12 313.466 68.1754C313.158 68.2308 312.853 68.2801 312.551 68.3232C312.25 68.3662 311.988 68.4032 311.767 68.4339C311.268 68.5017 310.822 68.6125 310.428 68.7663C310.034 68.9202 309.723 69.1357 309.495 69.4126C309.268 69.6835 309.154 70.0343 309.154 70.4652C309.154 71.0807 309.378 71.5455 309.828 71.8594C310.277 72.1733 310.85 72.3303 311.545 72.3303ZM324.868 55.5909V74.5H321.526V55.5909H324.868ZM331.648 55.5909V74.5H328.305V55.5909H331.648ZM339.165 74.7862C338.267 74.7862 337.457 74.6262 336.737 74.3061C336.023 73.9799 335.457 73.4998 335.038 72.8658C334.626 72.2318 334.42 71.45 334.42 70.5206C334.42 69.7204 334.567 69.0587 334.863 68.5355C335.158 68.0123 335.562 67.5938 336.072 67.2798C336.583 66.9659 337.159 66.7289 337.799 66.5689C338.445 66.4027 339.113 66.2827 339.803 66.2088C340.634 66.1226 341.308 66.0457 341.825 65.978C342.342 65.9041 342.717 65.7933 342.951 65.6456C343.191 65.4917 343.311 65.2547 343.311 64.9347V64.8793C343.311 64.1837 343.105 63.6451 342.692 63.2635C342.28 62.8819 341.686 62.6911 340.911 62.6911C340.092 62.6911 339.442 62.8696 338.962 63.2266C338.488 63.5836 338.168 64.0052 338.002 64.4915L334.881 64.0483C335.128 63.1866 335.534 62.4664 336.1 61.8878C336.666 61.303 337.359 60.866 338.178 60.5767C338.996 60.2812 339.901 60.1335 340.892 60.1335C341.575 60.1335 342.255 60.2135 342.933 60.3736C343.61 60.5336 344.228 60.7983 344.788 61.1676C345.348 61.5308 345.798 62.0263 346.136 62.6541C346.481 63.282 346.653 64.0668 346.653 65.0085V74.5H343.44V72.5518H343.33C343.126 72.9458 342.84 73.3151 342.471 73.6598C342.108 73.9983 341.649 74.2723 341.095 74.4815C340.547 74.6847 339.904 74.7862 339.165 74.7862ZM340.033 72.3303C340.704 72.3303 341.286 72.1979 341.778 71.9332C342.271 71.6624 342.649 71.3054 342.914 70.8622C343.185 70.419 343.32 69.9358 343.32 69.4126V67.7415C343.216 67.8277 343.037 67.9077 342.785 67.9815C342.539 68.0554 342.262 68.12 341.954 68.1754C341.646 68.2308 341.341 68.2801 341.04 68.3232C340.738 68.3662 340.477 68.4032 340.255 68.4339C339.756 68.5017 339.31 68.6125 338.916 68.7663C338.522 68.9202 338.211 69.1357 337.984 69.4126C337.756 69.6835 337.642 70.0343 337.642 70.4652C337.642 71.0807 337.867 71.5455 338.316 71.8594C338.765 72.1733 339.338 72.3303 340.033 72.3303ZM356.2 74.777C354.815 74.777 353.615 74.4723 352.599 73.8629C351.584 73.2536 350.796 72.401 350.236 71.3054C349.682 70.2098 349.405 68.9295 349.405 67.4645C349.405 65.9995 349.682 64.7161 350.236 63.6143C350.796 62.5125 351.584 61.657 352.599 61.0476C353.615 60.4382 354.815 60.1335 356.2 60.1335C357.585 60.1335 358.786 60.4382 359.801 61.0476C360.817 61.657 361.602 62.5125 362.156 63.6143C362.716 64.7161 362.996 65.9995 362.996 67.4645C362.996 68.9295 362.716 70.2098 362.156 71.3054C361.602 72.401 360.817 73.2536 359.801 73.8629C358.786 74.4723 357.585 74.777 356.2 74.777ZM356.219 72.0994C356.97 72.0994 357.598 71.8932 358.102 71.4808C358.607 71.0623 358.982 70.5021 359.229 69.8004C359.481 69.0987 359.607 68.317 359.607 67.4553C359.607 66.5874 359.481 65.8026 359.229 65.1009C358.982 64.393 358.607 63.8298 358.102 63.4112C357.598 62.9927 356.97 62.7834 356.219 62.7834C355.449 62.7834 354.809 62.9927 354.298 63.4112C353.794 63.8298 353.415 64.393 353.163 65.1009C352.916 65.8026 352.793 66.5874 352.793 67.4553C352.793 68.317 352.916 69.0987 353.163 69.8004C353.415 70.5021 353.794 71.0623 354.298 71.4808C354.809 71.8932 355.449 72.0994 356.219 72.0994Z" fill="white"/>
<defs>
<clipPath id="clip0_176_122862">
<rect width="93" height="90" fill="white" transform="translate(0 78)"/>
</clipPath>
<clipPath id="clip1_176_122862">
<rect width="24" height="24" fill="white" transform="translate(175 37.5)"/>
</clipPath>
</defs>
</svg>
