<svg width="375" height="198" viewBox="0 0 375 198" fill="none" xmlns="http://www.w3.org/2000/svg">
<g clip-path="url(#clip0_176_122684)">
<path d="M69.282 128.281L69.2349 144.223C66.4924 142.645 62.0584 142.645 59.3301 144.223L59.3772 128.281C62.1008 126.703 66.5396 126.703 69.282 128.281Z" fill="#A3A3A3"/>
<path d="M104.184 148.37L104.141 164.312L69.2344 144.223L69.2815 128.281L104.184 148.37Z" fill="#ADADAD"/>
<path d="M106.252 151.25L106.205 167.192C106.21 166.149 105.517 165.107 104.137 164.313L104.184 148.371C105.564 149.165 106.252 150.208 106.252 151.25Z" fill="#BABABA"/>
<path d="M59.3773 128.281L59.3302 144.223L13.7832 170.611L13.8256 154.669L59.3773 128.281Z" fill="#BFBFBF"/>
<path d="M118 151.949L117.953 161.508C117.949 163.001 116.964 164.495 114.994 165.636L115.041 156.078C117.011 154.941 117.996 153.448 118 151.949Z" fill="#BABABA"/>
<path d="M11.748 173.449L11.7952 157.507C11.7999 156.478 12.4737 155.454 13.8308 154.67L13.7837 170.612C12.4313 171.396 11.7528 172.42 11.748 173.449Z" fill="#BABABA"/>
<path d="M1.65144e-05 166.361L0.0471374 156.803C0.0424253 158.315 1.0461 159.832 3.05345 160.992L3.00633 170.551C0.998978 169.395 -0.00469557 167.878 1.65144e-05 166.361Z" fill="#A3A3A3"/>
<path d="M115.04 156.084L114.993 165.642L62.1094 196.277L62.1518 186.718L115.04 156.084Z" fill="#BFBFBF"/>
<path d="M47.7518 186.718L47.7047 196.276L3.00586 170.551L3.05298 160.992L47.7518 186.718Z" fill="#ADADAD"/>
<path d="M114.994 147.765C118.985 150.062 119.004 153.786 115.041 156.083L62.1528 186.717C58.1899 189.014 51.7438 189.014 47.7527 186.717L3.05383 160.992C-0.937303 158.695 -0.956151 154.97 3.002 152.678L55.8904 122.039C59.8533 119.742 66.3041 119.742 70.2953 122.039L114.994 147.765ZM58.6658 180.475L104.218 154.087C106.941 152.509 106.927 149.949 104.185 148.371L69.2822 128.281C66.5397 126.703 62.1057 126.703 59.3774 128.281L13.8257 154.669C11.1021 156.248 11.1162 158.807 13.8586 160.386L48.761 180.475C51.5082 182.053 55.9423 182.053 58.6658 180.475Z" fill="#D6D6D6"/>
<path d="M62.1523 186.717L62.1052 196.275C58.1423 198.572 51.6962 198.572 47.7051 196.275L47.7522 186.717C51.7433 189.014 58.1895 189.014 62.1523 186.717Z" fill="#A3A3A3"/>
<path d="M97.3709 145.383L54.1234 170.574L23.2168 152.786L66.4643 127.596L97.3709 145.383Z" fill="#724017"/>
<path d="M90.2794 147.051L54.3827 167.85L27.75 152.523L63.6467 131.725L90.2794 147.051Z" fill="#72A848"/>
<path d="M90.2663 147.061L87.9432 148.409L61.3105 133.082L63.6336 131.734L90.2663 147.061Z" fill="#669E3A"/>
<path d="M85.4733 149.836L83.1503 151.184L56.5176 135.858L58.8406 134.51L85.4733 149.836Z" fill="#669E3A"/>
<path d="M80.6823 152.614L78.3593 153.962L51.7266 138.63L54.0496 137.287L80.6823 152.614Z" fill="#669E3A"/>
<path d="M75.8894 155.389L73.5663 156.737L46.9336 141.411L49.2567 140.062L75.8894 155.389Z" fill="#669E3A"/>
<path d="M71.0964 158.164L68.7733 159.508L42.1406 144.181L44.4684 142.838L71.0964 158.164Z" fill="#669E3A"/>
<path d="M56.7253 166.492L54.3975 167.836L27.7695 152.509L30.0926 151.166L56.7253 166.492Z" fill="#669E3A"/>
<path d="M66.3054 160.94L63.9823 162.283L37.3496 146.957L39.6774 145.613L66.3054 160.94Z" fill="#669E3A"/>
<path d="M61.5183 163.717L59.1905 165.06L32.5625 149.734L34.8856 148.391L61.5183 163.717Z" fill="#669E3A"/>
<path d="M70.412 143.186C70.5298 143.251 70.5298 143.364 70.412 143.43C70.2989 143.496 70.1105 143.496 69.9926 143.43C69.8748 143.364 69.8748 143.251 69.9926 143.186C70.1057 143.115 70.2989 143.115 70.412 143.186Z" fill="#FCFCFC"/>
<path d="M70.2711 137.732L79.8555 143.247L79.7613 143.303L75.8832 145.548L66.2988 140.034L70.1769 137.789L70.2711 137.732ZM75.8832 145.44L79.6623 143.251L70.2664 137.845L66.4873 140.034L75.8832 145.44Z" fill="#FCFCFC"/>
<path d="M65.1104 143.006L70.7366 146.242L70.6 146.252C70.5906 146.252 70.5811 146.252 70.567 146.252C69.0686 146.345 67.5937 146.045 66.524 145.43C65.4544 144.814 64.9361 143.964 65.0916 143.1C65.0916 143.095 65.0916 143.086 65.0963 143.081L65.1104 143.006ZM66.623 145.378C67.6361 145.96 69.0214 146.252 70.4445 146.181L65.2188 143.175C65.0963 143.997 65.6099 144.795 66.623 145.378Z" fill="#FCFCFC"/>
<path d="M47.8466 143.302L55.5461 147.736C55.532 147.745 55.5131 147.755 55.499 147.764C55.4848 147.774 55.466 147.783 55.4519 147.792L47.7523 143.358L47.6816 143.316L47.7759 143.26L47.8466 143.302Z" fill="#FCFCFC"/>
<path d="M62.5753 151.78C62.5612 151.79 62.5423 151.799 62.5282 151.808C62.514 151.818 62.4952 151.827 62.4811 151.837C60.5538 152.926 57.4438 152.917 55.526 151.808C53.6035 150.7 53.5752 148.906 55.4553 147.792C55.4695 147.783 55.4883 147.774 55.5025 147.764C55.5166 147.755 55.5355 147.745 55.5496 147.736C57.4815 146.646 60.5868 146.656 62.5093 147.764C64.4272 148.868 64.4554 150.662 62.5753 151.78ZM62.3868 151.78C62.401 151.771 62.4198 151.761 62.4339 151.752C62.4481 151.743 62.4669 151.733 62.4811 151.724C64.3046 150.634 64.2811 148.892 62.4104 147.816C60.5397 146.74 57.5192 146.731 55.6438 147.788C55.6297 147.797 55.6108 147.807 55.5967 147.816C55.5826 147.825 55.5637 147.835 55.5496 147.844C53.726 148.929 53.7496 150.676 55.6203 151.752C57.4863 152.828 60.5114 152.837 62.3868 151.78Z" fill="#FCFCFC"/>
<path d="M86.3722 146.999L54.2829 165.59L31.6602 152.569L63.7494 133.979L67.6558 136.228L67.5615 136.285L63.7494 134.091L47.8462 143.302L47.6812 143.316L31.8486 152.569L35.6607 154.763L35.5665 154.819L50.3718 163.34L50.4708 163.283L54.2782 165.477L70.1814 156.266L70.3511 156.252L86.179 146.999L82.3669 144.805L82.4611 144.749L86.3722 146.999Z" fill="#FCFCFC"/>
<path d="M70.2762 156.209L70.3469 156.252L70.2526 156.308L70.182 156.266L62.4824 151.832C62.4966 151.822 62.5154 151.813 62.5295 151.804C62.5437 151.794 62.5625 151.785 62.5767 151.775L70.2762 156.209Z" fill="#FCFCFC"/>
<path d="M55.645 147.787L62.4823 151.723C62.4681 151.733 62.4493 151.742 62.4351 151.751C62.421 151.761 62.4021 151.77 62.388 151.78L55.5508 147.843C55.5649 147.834 55.5838 147.825 55.5979 147.815C55.612 147.806 55.6262 147.797 55.645 147.787Z" fill="#FCFCFC"/>
<path d="M48.039 156.145C48.1568 156.211 48.1568 156.324 48.039 156.389C47.9259 156.455 47.7374 156.455 47.6196 156.389C47.5018 156.324 47.5018 156.211 47.6196 156.145C47.7327 156.079 47.9212 156.079 48.039 156.145Z" fill="#FCFCFC"/>
<path d="M42.1492 154.021L51.7336 159.536L47.8603 161.781L47.766 161.837L38.1816 156.323L38.2759 156.267L42.1492 154.021ZM47.7613 161.729L51.5404 159.541L42.1492 154.13L38.3701 156.318L47.7613 161.729Z" fill="#FCFCFC"/>
<path d="M52.9356 156.469L57.6005 159.155L50.4665 163.289L50.3722 163.345L47.7617 161.842L47.856 161.786L50.3722 163.232L57.4121 159.155L52.9167 156.567L52.9356 156.488C52.9356 156.478 52.9356 156.473 52.9356 156.469Z" fill="#FCFCFC"/>
<path d="M35.7588 154.819L38.2751 156.265L38.1808 156.322L35.5703 154.819L35.6646 154.762L42.7987 150.629L47.4636 153.316C47.4542 153.316 47.4448 153.316 47.4306 153.316L47.2893 153.325L42.7939 150.742L35.7588 154.819Z" fill="#FCFCFC"/>
<path d="M52.9361 156.488L52.9172 156.567L47.291 153.331L47.4324 153.322C47.4418 153.322 47.4512 153.322 47.4654 153.322C48.9638 153.228 50.434 153.524 51.5083 154.144C52.578 154.759 53.0963 155.609 52.9408 156.473C52.9361 156.473 52.9361 156.478 52.9361 156.488ZM47.5879 153.388L52.8136 156.394C52.9314 155.572 52.4225 154.773 51.4094 154.191C50.3963 153.608 49.0109 153.317 47.5879 153.388Z" fill="#FCFCFC"/>
<path d="M65.1115 143.006L65.0974 143.086C65.0974 143.091 65.0974 143.1 65.0927 143.105L60.4277 140.418L67.5618 136.285L67.6561 136.229L70.2666 137.732L70.1723 137.788L67.6561 136.341L60.6162 140.418L65.1115 143.006Z" fill="#FCFCFC"/>
<path d="M79.8512 143.25L82.4617 144.753L82.3674 144.809L75.2333 148.943L70.5684 146.256C70.5778 146.256 70.5872 146.256 70.6013 146.256L70.738 146.247L75.2333 148.835L82.2732 144.758L79.7569 143.311L79.8512 143.25Z" fill="#FCFCFC"/>
<path d="M69.0001 116.304L68.9577 131.814C66.2906 130.278 61.9744 130.278 59.3262 131.814L59.3686 116.304C62.0168 114.768 66.333 114.768 69.0001 116.304Z" fill="#A3A3A3"/>
<path d="M59.3677 116.305L59.3206 131.814L15.0176 157.479L15.06 141.974L59.3677 116.305Z" fill="#BFBFBF"/>
<path d="M102.955 135.844L102.908 151.354L68.957 131.814L68.9994 116.305L102.955 135.844Z" fill="#ADADAD"/>
<path d="M104.963 138.649L104.92 154.159C104.925 153.144 104.251 152.13 102.908 151.359L102.951 135.85C104.298 136.62 104.967 137.634 104.963 138.649Z" fill="#BABABA"/>
<path d="M13.0391 160.24L13.0815 144.731C13.0862 143.73 13.7412 142.734 15.0605 141.969L15.0181 157.478C13.6988 158.244 13.0391 159.24 13.0391 160.24Z" fill="#BABABA"/>
<path d="M116.394 139.33L116.352 148.63C116.347 150.086 115.39 151.538 113.473 152.646L113.515 143.346C115.428 142.238 116.389 140.786 116.394 139.33Z" fill="#BABABA"/>
<path d="M1.60742 153.345L1.64983 144.045C1.64512 145.52 2.62052 146.995 4.57603 148.117L4.53363 157.417C2.58282 156.295 1.60742 154.82 1.60742 153.345Z" fill="#A3A3A3"/>
<path d="M113.514 143.346L113.467 152.646L62.0254 182.444L62.0678 173.148L113.514 143.346Z" fill="#BFBFBF"/>
<path d="M48.0587 173.149L48.0163 182.444L4.5332 157.423L4.58032 148.123L48.0587 173.149Z" fill="#ADADAD"/>
<path d="M62.069 173.148L62.0266 182.449C58.1721 184.68 51.9003 184.68 48.0176 182.449L48.06 173.148C51.9427 175.38 58.2145 175.38 62.069 173.148Z" fill="#A3A3A3"/>
<path d="M15.0602 148.711L59.3679 123.046C62.0209 121.51 66.3324 121.51 68.9994 123.046L102.95 142.586C103.473 142.886 103.888 143.224 104.208 143.581C105.528 142.102 105.108 140.232 102.95 138.992L68.9994 119.453C66.3324 117.917 62.0161 117.917 59.3679 119.453L15.0602 145.117C12.9256 146.353 12.5251 148.203 13.8351 149.683C14.1461 149.331 14.556 149.002 15.0602 148.711Z" fill="#D6D6D6"/>
<path d="M99.2611 146.038C100.237 145.432 101.188 144.793 102.14 144.14L69.0048 125.07C66.3378 123.534 62.0215 123.534 59.3733 125.07L15.0609 150.73C14.6886 150.946 14.3682 151.181 14.0996 151.434C14.1326 151.481 14.1703 151.524 14.2033 151.571C14.7357 152.35 15.3295 153.097 15.9703 153.797L59.3639 128.658C62.0168 127.123 66.3283 127.123 68.9954 128.658L99.214 146.052C99.2328 146.047 99.247 146.042 99.2611 146.038Z" fill="#D6D6D6"/>
<path d="M113.468 135.257C117.351 137.493 117.37 141.115 113.515 143.346L62.0688 173.148C58.2143 175.379 51.9425 175.379 48.0597 173.148L4.58133 148.123C0.698572 145.887 0.679723 142.265 4.53421 140.034L55.976 110.232C59.8352 107.996 66.107 107.996 69.9851 110.232L113.468 135.257ZM58.676 167.075L102.984 141.41C105.637 139.875 105.623 137.385 102.951 135.849L69.0002 116.31C66.3332 114.774 62.0169 114.774 59.3687 116.31L15.061 141.974C12.4081 143.51 12.4269 145.999 15.094 147.535L49.0446 167.075C51.7163 168.611 56.0279 168.611 58.676 167.075Z" fill="#D6D6D6"/>
<path d="M115.04 156.084L114.993 165.642L62.1094 196.277L62.1518 186.718L115.04 156.084Z" fill="#BFBFBF"/>
<path d="M74.2139 182.632C73.1537 183.243 72.2961 184.722 72.3008 185.939L72.3149 190.368L76.16 188.142L76.1459 183.727C76.1412 182.51 75.2788 182.022 74.2139 182.632Z" fill="#4F4F4F"/>
<path d="M91.6299 173.181C90.5697 173.792 89.7121 175.271 89.7168 176.488L89.7262 180.278L93.5713 178.052L93.5619 174.275C93.5572 173.059 92.6901 172.57 91.6299 173.181Z" fill="#4F4F4F"/>
<path d="M109.046 163.281C107.986 163.891 107.128 165.371 107.133 166.587L107.142 170.19L110.987 167.964L110.978 164.375C110.968 163.158 110.106 162.67 109.046 163.281Z" fill="#4F4F4F"/>
<path d="M31.0722 180.372C30.012 179.762 29.145 180.25 29.1403 181.467L29.1309 185.586L32.9759 187.798L32.9853 183.679C32.9948 182.463 32.1325 180.983 31.0722 180.372Z" fill="#4F4F4F"/>
<path d="M13.6601 170.921C12.5999 170.311 11.7329 170.799 11.7282 172.016L11.7188 175.567L15.5638 177.779L15.5732 174.228C15.5779 173.011 14.7203 171.532 13.6601 170.921Z" fill="#4F4F4F"/>
<path d="M68.0947 173.476C67.5858 173.767 67.1711 174.481 67.1758 175.063L67.1805 176.796L69.0277 175.725L69.023 174.002C69.023 173.414 68.6036 173.18 68.0947 173.476Z" fill="#4F4F4F"/>
<path d="M73.538 170.306C73.0291 170.597 72.6145 171.311 72.6192 171.893L72.6239 173.626L74.471 172.556L74.4663 170.832C74.4663 170.245 74.0517 170.01 73.538 170.306Z" fill="#4F4F4F"/>
<path d="M78.9833 167.136C78.4744 167.427 78.0598 168.141 78.0645 168.723L78.0692 170.457L79.9163 169.386L79.9116 167.662C79.9069 167.075 79.4923 166.84 78.9833 167.136Z" fill="#4F4F4F"/>
<path d="M84.4267 163.964C83.9178 164.255 83.5031 164.969 83.5079 165.551L83.5126 167.285L85.3597 166.214L85.355 164.49C85.3503 163.903 84.9356 163.668 84.4267 163.964Z" fill="#4F4F4F"/>
<path d="M89.8701 160.794C89.3612 161.085 88.9465 161.799 88.9512 162.382L88.9559 164.115L90.8031 163.044L90.7983 161.32C90.7983 160.733 90.379 160.498 89.8701 160.794Z" fill="#4F4F4F"/>
<path d="M95.3115 157.624C94.8026 157.915 94.3879 158.629 94.3926 159.212L94.3973 160.945L96.2445 159.874L96.2398 158.15C96.2398 157.563 95.8251 157.328 95.3115 157.624Z" fill="#4F4F4F"/>
<path d="M100.755 154.454C100.246 154.745 99.8313 155.459 99.836 156.042L99.8407 157.775L101.688 156.704L101.683 154.98C101.683 154.393 101.268 154.158 100.755 154.454Z" fill="#4F4F4F"/>
<path d="M106.202 151.277C105.693 151.569 105.279 152.282 105.283 152.865L105.288 154.598L107.135 153.527L107.13 151.803C107.126 151.221 106.711 150.986 106.202 151.277Z" fill="#4F4F4F"/>
<path d="M111.644 148.107C111.135 148.399 110.72 149.113 110.725 149.695L110.729 151.428L112.577 150.357L112.572 148.633C112.567 148.051 112.152 147.816 111.644 148.107Z" fill="#4F4F4F"/>
<path d="M45.3588 175.389C45.8677 175.68 46.2823 176.394 46.2776 176.976L46.2729 178.709L44.4258 177.639L44.4305 175.915C44.4352 175.332 44.8499 175.097 45.3588 175.389Z" fill="#4F4F4F"/>
<path d="M39.9174 172.217C40.4263 172.508 40.8409 173.222 40.8362 173.804L40.8315 175.538L38.9844 174.467L38.9891 172.743C38.9938 172.16 39.4085 171.926 39.9174 172.217Z" fill="#4F4F4F"/>
<path d="M34.474 169.047C34.9829 169.338 35.3976 170.052 35.3929 170.634L35.3882 172.368L33.541 171.297L33.5457 169.573C33.5457 168.99 33.9651 168.756 34.474 169.047Z" fill="#4F4F4F"/>
<path d="M29.0326 165.877C29.5415 166.168 29.9562 166.882 29.9515 167.465L29.9467 169.198L28.0996 168.127L28.1043 166.403C28.1043 165.821 28.519 165.586 29.0326 165.877Z" fill="#4F4F4F"/>
<path d="M23.5892 162.705C24.0981 162.996 24.5128 163.71 24.5081 164.293L24.5034 166.026L22.6562 164.955L22.661 163.231C22.661 162.649 23.0756 162.414 23.5892 162.705Z" fill="#4F4F4F"/>
<path d="M18.142 159.536C18.6509 159.827 19.0655 160.541 19.0608 161.124L19.0561 162.857L17.209 161.786L17.2137 160.062C17.2184 159.475 17.6331 159.245 18.142 159.536Z" fill="#4F4F4F"/>
<path d="M12.7006 156.364C13.2095 156.655 13.6241 157.369 13.6194 157.952L13.6147 159.685L11.7676 158.614L11.7723 156.89C11.777 156.303 12.1917 156.068 12.7006 156.364Z" fill="#4F4F4F"/>
<path d="M7.25721 153.194C7.76612 153.486 8.18078 154.199 8.17607 154.782L8.17136 156.515L6.32422 155.444L6.32893 153.72C6.32893 153.133 6.74831 152.898 7.25721 153.194Z" fill="#4F4F4F"/>
<path d="M78.1736 108.385L78.1406 118.601L94.1099 127.793L94.1381 117.572L78.1736 108.385Z" fill="#A6A6A6"/>
<path d="M79.5645 117.789L79.5833 110.828L92.7206 118.39L92.7017 125.347L79.5645 117.789Z" fill="#CECECE"/>
<path d="M94.1094 127.793L94.7738 127.408L94.8021 117.188L94.1376 117.573L94.1094 127.793Z" fill="#727272"/>
<path d="M94.1384 117.573L94.8028 117.187L78.8382 108L78.1738 108.385L94.1384 117.573Z" fill="#B8B8B8"/>
<path d="M19.2244 143.975L19.1914 154.195L35.1607 163.383L35.1889 153.167L19.2244 143.975Z" fill="#A6A6A6"/>
<path d="M35.1602 163.382L35.8246 162.997L35.8528 152.781L35.1884 153.166L35.1602 163.382Z" fill="#727272"/>
<path d="M35.1891 153.167L35.8536 152.782L19.889 143.59L19.2246 143.975L35.1891 153.167Z" fill="#B8B8B8"/>
<path d="M23.203 150.142L23.1794 158.066L22.2559 157.535L22.2794 149.611L23.203 150.142Z" fill="#818181"/>
<path d="M23.2032 150.142L24.0656 149.645L24.042 157.564L23.1797 158.066L23.2032 150.142Z" fill="#BAB9B9"/>
<path d="M22.2793 149.611L23.1463 149.113L24.0652 149.644L23.2029 150.142L22.2793 149.611Z" fill="#D0CFCF"/>
<path d="M28.6963 153.359L28.6775 161.283L27.7539 160.752L27.7775 152.828L28.6963 153.359Z" fill="#818181"/>
<path d="M28.6966 153.36L29.5636 152.857L29.54 160.781L28.6777 161.284L28.6966 153.36Z" fill="#BAB9B9"/>
<path d="M27.7773 152.829L28.6397 152.326L29.5632 152.857L28.6962 153.36L27.7773 152.829Z" fill="#D0CFCF"/>
</g>
<path d="M122.6 128.006L148.5 83H192L125.498 130.63C123.75 131.882 121.528 129.87 122.6 128.006Z" fill="#006DB7"/>
<rect x="140" width="235" height="96" rx="16" fill="#006DB7"/>
<rect x="155.048" y="27.0476" width="41.9048" height="41.9048" rx="20.9524" fill="#81C995"/>
<rect x="155.048" y="27.0476" width="41.9048" height="41.9048" rx="20.9524" stroke="white" stroke-width="2.09524"/>
<g clip-path="url(#clip1_176_122684)">
<path d="M163.99 55.313C163.99 50.4378 163.99 45.562 163.99 40.6862C164.003 40.6505 164.021 40.6154 164.03 40.5778C164.287 39.4987 165.081 38.8586 166.177 38.8586C172.723 38.8574 179.269 38.8567 185.815 38.8586C187.077 38.8592 187.992 39.7686 187.993 41.0281C187.996 45.676 187.995 50.3232 187.991 54.971C187.991 55.1714 187.967 55.3781 187.916 55.5723C187.661 56.543 186.836 57.1418 185.768 57.1418C180.542 57.1424 175.317 57.1418 170.091 57.1418C168.763 57.1418 167.436 57.1462 166.107 57.1399C165.181 57.1355 164.38 56.5531 164.097 55.6938C164.056 55.5685 164.025 55.4401 163.99 55.313ZM176.708 40.264C176.708 41.7121 176.708 43.1307 176.708 44.5461C178.54 44.9983 179.434 46.462 179.503 47.8211C179.541 48.567 179.357 49.261 178.95 49.8904C178.417 50.7165 177.656 51.2232 176.71 51.4468C176.71 52.8829 176.71 54.3009 176.71 55.7245C176.754 55.7288 176.784 55.7345 176.814 55.7345C179.83 55.7351 182.845 55.7364 185.861 55.7332C186.287 55.7326 186.581 55.4345 186.586 55.0086C186.592 54.4931 186.587 53.9771 186.588 53.4616C186.588 53.2856 186.588 53.109 186.588 52.9205C185.844 52.9205 185.134 52.9317 184.424 52.918C183.313 52.8967 182.385 51.9898 182.375 50.8843C182.359 48.9628 182.362 47.0407 182.374 45.1192C182.38 44.2029 183.024 43.3987 183.914 43.1651C184.137 43.1062 184.375 43.0843 184.607 43.0805C185.261 43.0693 185.915 43.0768 186.589 43.0768C186.589 42.4129 186.589 41.7747 186.589 41.1359C186.589 40.5196 186.336 40.264 185.726 40.264C182.812 40.264 179.898 40.264 176.984 40.264C176.898 40.264 176.813 40.264 176.708 40.264ZM175.281 51.4524C173.508 51.0209 172.571 49.6073 172.484 48.2219C172.437 47.4841 172.607 46.7946 172.997 46.1657C173.53 45.3083 174.304 44.7816 175.273 44.5524C175.273 43.1144 175.273 41.6964 175.273 40.2747C175.228 40.2703 175.197 40.2653 175.167 40.2653C172.152 40.2647 169.136 40.2634 166.12 40.2665C165.696 40.2672 165.401 40.5672 165.398 40.9937C165.393 41.6419 165.396 42.2908 165.398 42.939C165.398 42.9828 165.411 43.0261 165.42 43.0793C166.142 43.0793 166.853 43.0686 167.563 43.0818C168.666 43.1025 169.596 43.9981 169.608 45.0941C169.628 47.0313 169.626 48.9691 169.608 50.9063C169.599 51.8789 168.85 52.7551 167.887 52.8691C167.186 52.9524 166.469 52.9092 165.759 52.9223C165.644 52.9242 165.53 52.9223 165.397 52.9223C165.397 53.5956 165.397 54.2426 165.397 54.8896C165.398 55.4702 165.661 55.7351 166.238 55.7351C169.168 55.7351 172.097 55.7351 175.027 55.7351C175.11 55.7351 175.192 55.7351 175.281 55.7351C175.281 54.2915 175.281 52.8791 175.281 51.4524ZM186.579 44.4835C185.878 44.4835 185.2 44.481 184.521 44.4847C184.068 44.4872 183.776 44.7797 183.775 45.235C183.773 47.0776 183.773 48.9202 183.775 50.7622C183.776 51.2269 184.07 51.5132 184.543 51.515C185.16 51.5175 185.776 51.5163 186.393 51.515C186.453 51.515 186.513 51.5063 186.579 51.5006C186.579 49.162 186.579 46.8384 186.579 44.4835ZM165.406 51.5157C166.11 51.5157 166.789 51.5188 167.467 51.5144C167.917 51.5113 168.208 51.215 168.208 50.7585C168.21 48.9159 168.211 47.0739 168.208 45.2313C168.208 44.7772 167.913 44.4866 167.459 44.4841C166.826 44.481 166.194 44.4829 165.562 44.4841C165.51 44.4841 165.459 44.496 165.406 44.5023C165.406 46.8409 165.406 49.1645 165.406 51.5157ZM176.001 45.8908C174.845 45.887 173.892 46.8271 173.883 47.9789C173.874 49.1457 174.82 50.1046 175.983 50.109C177.139 50.1127 178.092 49.1733 178.1 48.0209C178.11 46.8522 177.165 45.8945 176.001 45.8908Z" fill="#40654A"/>
</g>
<path d="M215.963 56.5H212.588L218.733 39.0455H222.636L228.79 56.5H225.415L220.753 42.625H220.616L215.963 56.5ZM216.074 49.6562H225.278V52.196H216.074V49.6562ZM236.669 43.4091V45.7955H229.143V43.4091H236.669ZM231.001 40.2727H234.087V52.5625C234.087 52.9773 234.149 53.2955 234.274 53.517C234.405 53.733 234.575 53.8807 234.786 53.9602C234.996 54.0398 235.229 54.0795 235.484 54.0795C235.678 54.0795 235.854 54.0653 236.013 54.0369C236.178 54.0085 236.303 53.983 236.388 53.9602L236.908 56.3722C236.743 56.429 236.507 56.4915 236.2 56.5597C235.899 56.6278 235.53 56.6676 235.092 56.679C234.32 56.7017 233.624 56.5852 233.004 56.3295C232.385 56.0682 231.893 55.6648 231.53 55.1193C231.172 54.5739 230.996 53.892 231.001 53.0739V40.2727ZM242.616 39.0455V56.5H239.531V39.0455H242.616ZM249.555 56.7642C248.726 56.7642 247.979 56.6165 247.314 56.321C246.655 56.0199 246.132 55.5767 245.746 54.9915C245.365 54.4062 245.175 53.6847 245.175 52.8267C245.175 52.0881 245.311 51.4773 245.584 50.9943C245.857 50.5114 246.229 50.125 246.7 49.8352C247.172 49.5455 247.703 49.3267 248.294 49.179C248.891 49.0256 249.507 48.9148 250.143 48.8466C250.911 48.767 251.533 48.696 252.01 48.6335C252.487 48.5653 252.834 48.4631 253.05 48.3267C253.271 48.1847 253.382 47.9659 253.382 47.6705V47.6193C253.382 46.9773 253.192 46.4801 252.811 46.1278C252.43 45.7756 251.882 45.5994 251.166 45.5994C250.411 45.5994 249.811 45.7642 249.368 46.0938C248.93 46.4233 248.635 46.8125 248.482 47.2614L245.601 46.8523C245.828 46.0568 246.203 45.392 246.726 44.858C247.249 44.3182 247.888 43.9148 248.643 43.6477C249.399 43.375 250.234 43.2386 251.149 43.2386C251.78 43.2386 252.408 43.3125 253.033 43.4602C253.658 43.608 254.229 43.8523 254.746 44.1932C255.263 44.5284 255.678 44.9858 255.99 45.5653C256.308 46.1449 256.467 46.8693 256.467 47.7386V56.5H253.501V54.7017H253.399C253.212 55.0653 252.947 55.4062 252.607 55.7244C252.271 56.0369 251.848 56.2898 251.337 56.483C250.831 56.6705 250.237 56.7642 249.555 56.7642ZM250.357 54.4972C250.976 54.4972 251.513 54.375 251.967 54.1307C252.422 53.8807 252.771 53.5511 253.016 53.142C253.266 52.733 253.391 52.2869 253.391 51.804V50.2614C253.294 50.3409 253.129 50.4148 252.896 50.483C252.669 50.5511 252.413 50.6108 252.129 50.6619C251.845 50.7131 251.564 50.7585 251.286 50.7983C251.007 50.8381 250.766 50.8722 250.561 50.9006C250.101 50.9631 249.689 51.0653 249.325 51.2074C248.962 51.3494 248.675 51.5483 248.464 51.804C248.254 52.054 248.149 52.3778 248.149 52.7756C248.149 53.3438 248.357 53.7727 248.771 54.0625C249.186 54.3523 249.714 54.4972 250.357 54.4972ZM262.655 48.8295V56.5H259.57V43.4091H262.518V45.6335H262.672C262.973 44.9006 263.453 44.3182 264.112 43.8864C264.777 43.4545 265.598 43.2386 266.575 43.2386C267.479 43.2386 268.266 43.4318 268.936 43.8182C269.612 44.2045 270.135 44.7642 270.504 45.4972C270.879 46.2301 271.064 47.1193 271.058 48.1648V56.5H267.973V48.642C267.973 47.767 267.746 47.0824 267.291 46.5881C266.842 46.0937 266.22 45.8466 265.425 45.8466C264.885 45.8466 264.405 45.9659 263.984 46.2045C263.57 46.4375 263.243 46.7756 263.004 47.2188C262.771 47.6619 262.655 48.1989 262.655 48.8295ZM280.732 43.4091V45.7955H273.206V43.4091H280.732ZM275.064 40.2727H278.149V52.5625C278.149 52.9773 278.212 53.2955 278.337 53.517C278.467 53.733 278.638 53.8807 278.848 53.9602C279.058 54.0398 279.291 54.0795 279.547 54.0795C279.74 54.0795 279.916 54.0653 280.075 54.0369C280.24 54.0085 280.365 53.983 280.45 53.9602L280.97 56.3722C280.805 56.429 280.57 56.4915 280.263 56.5597C279.962 56.6278 279.592 56.6676 279.155 56.679C278.382 56.7017 277.686 56.5852 277.067 56.3295C276.447 56.0682 275.956 55.6648 275.592 55.1193C275.234 54.5739 275.058 53.892 275.064 53.0739V40.2727ZM283.312 56.5V43.4091H286.397V56.5H283.312ZM284.863 41.5511C284.374 41.5511 283.954 41.3892 283.602 41.0653C283.249 40.7358 283.073 40.3409 283.073 39.8807C283.073 39.4148 283.249 39.0199 283.602 38.696C283.954 38.3665 284.374 38.2017 284.863 38.2017C285.357 38.2017 285.778 38.3665 286.124 38.696C286.477 39.0199 286.653 39.4148 286.653 39.8807C286.653 40.3409 286.477 40.7358 286.124 41.0653C285.778 41.3892 285.357 41.5511 284.863 41.5511ZM299.916 46.8693L297.104 47.1761C297.024 46.892 296.885 46.625 296.686 46.375C296.493 46.125 296.232 45.9233 295.902 45.7699C295.572 45.6165 295.169 45.5398 294.692 45.5398C294.05 45.5398 293.51 45.679 293.072 45.9574C292.641 46.2358 292.428 46.5966 292.433 47.0398C292.428 47.4205 292.567 47.7301 292.851 47.9688C293.141 48.2074 293.618 48.4034 294.283 48.5568L296.516 49.0341C297.754 49.3011 298.675 49.7244 299.277 50.304C299.885 50.8835 300.192 51.642 300.197 52.5795C300.192 53.4034 299.95 54.1307 299.473 54.7614C299.001 55.3864 298.345 55.875 297.504 56.2273C296.663 56.5795 295.697 56.7557 294.607 56.7557C293.004 56.7557 291.714 56.4205 290.737 55.75C289.76 55.0739 289.178 54.1335 288.99 52.929L291.999 52.6392C292.135 53.2301 292.425 53.6761 292.868 53.9773C293.311 54.2784 293.888 54.429 294.598 54.429C295.331 54.429 295.919 54.2784 296.362 53.9773C296.811 53.6761 297.036 53.304 297.036 52.8608C297.036 52.4858 296.891 52.1761 296.601 51.9318C296.317 51.6875 295.874 51.5 295.271 51.3693L293.038 50.9006C291.783 50.6392 290.854 50.1989 290.251 49.5795C289.649 48.9545 289.351 48.1648 289.357 47.2102C289.351 46.4034 289.57 45.7045 290.013 45.1136C290.462 44.517 291.084 44.0568 291.879 43.733C292.68 43.4034 293.604 43.2386 294.649 43.2386C296.183 43.2386 297.391 43.5653 298.271 44.2188C299.158 44.8722 299.706 45.7557 299.916 46.8693ZM323.771 44.9347H320.584C320.493 44.4119 320.325 43.9489 320.081 43.5455C319.837 43.1364 319.533 42.7898 319.169 42.5057C318.805 42.2216 318.391 42.0085 317.925 41.8665C317.464 41.7188 316.967 41.6449 316.433 41.6449C315.484 41.6449 314.643 41.8835 313.911 42.3608C313.178 42.8324 312.604 43.5256 312.189 44.4403C311.774 45.3494 311.567 46.4602 311.567 47.7727C311.567 49.108 311.774 50.233 312.189 51.1477C312.609 52.0568 313.183 52.7443 313.911 53.2102C314.643 53.6705 315.482 53.9006 316.425 53.9006C316.947 53.9006 317.436 53.8324 317.891 53.696C318.351 53.554 318.763 53.3466 319.126 53.0739C319.496 52.8011 319.805 52.4659 320.055 52.0682C320.311 51.6705 320.487 51.2159 320.584 50.7045L323.771 50.7216C323.652 51.5511 323.393 52.3295 322.996 53.0568C322.604 53.7841 322.089 54.4261 321.453 54.983C320.817 55.5341 320.072 55.9659 319.22 56.2784C318.368 56.5852 317.422 56.7386 316.382 56.7386C314.848 56.7386 313.479 56.3835 312.274 55.6733C311.07 54.9631 310.121 53.9375 309.428 52.5966C308.734 51.2557 308.388 49.6477 308.388 47.7727C308.388 45.892 308.737 44.2841 309.436 42.9489C310.135 41.608 311.087 40.5824 312.291 39.8722C313.496 39.1619 314.859 38.8068 316.382 38.8068C317.354 38.8068 318.257 38.9432 319.092 39.2159C319.928 39.4886 320.672 39.8892 321.325 40.4176C321.979 40.9403 322.516 41.5824 322.936 42.3438C323.362 43.0994 323.641 43.9631 323.771 44.9347ZM329.616 39.0455V56.5H326.531V39.0455H329.616ZM341.132 50.9943V43.4091H344.217V56.5H341.226V54.1733H341.089C340.794 54.9062 340.308 55.5057 339.632 55.9716C338.962 56.4375 338.135 56.6705 337.152 56.6705C336.294 56.6705 335.536 56.4801 334.876 56.0994C334.223 55.7131 333.712 55.1534 333.342 54.4205C332.973 53.6818 332.788 52.7898 332.788 51.7443V43.4091H335.874V51.267C335.874 52.0966 336.101 52.7557 336.555 53.2443C337.01 53.733 337.607 53.9773 338.345 53.9773C338.8 53.9773 339.24 53.8665 339.666 53.6449C340.092 53.4233 340.442 53.0938 340.714 52.6562C340.993 52.2131 341.132 51.6591 341.132 50.9943ZM347.526 56.5V39.0455H350.612V45.5739H350.739C350.898 45.2557 351.123 44.9176 351.413 44.5597C351.702 44.196 352.094 43.8864 352.589 43.6307C353.083 43.3693 353.714 43.2386 354.481 43.2386C355.492 43.2386 356.404 43.4972 357.217 44.0142C358.035 44.5256 358.683 45.2841 359.16 46.2898C359.643 47.2898 359.884 48.517 359.884 49.9716C359.884 51.4091 359.648 52.6307 359.177 53.6364C358.705 54.642 358.063 55.4091 357.251 55.9375C356.438 56.4659 355.518 56.7301 354.489 56.7301C353.739 56.7301 353.117 56.6051 352.623 56.3551C352.129 56.1051 351.731 55.804 351.43 55.4517C351.134 55.0937 350.904 54.7557 350.739 54.4375H350.56V56.5H347.526ZM350.552 49.9545C350.552 50.8011 350.671 51.5426 350.91 52.179C351.154 52.8153 351.504 53.3125 351.958 53.6705C352.418 54.0227 352.975 54.1989 353.629 54.1989C354.31 54.1989 354.881 54.017 355.342 53.6534C355.802 53.2841 356.148 52.7812 356.381 52.1449C356.62 51.5028 356.739 50.7727 356.739 49.9545C356.739 49.142 356.623 48.4205 356.39 47.7898C356.157 47.1591 355.81 46.6648 355.35 46.3068C354.89 45.9489 354.316 45.7699 353.629 45.7699C352.969 45.7699 352.41 45.9432 351.95 46.2898C351.489 46.6364 351.14 47.1222 350.901 47.7472C350.668 48.3722 350.552 49.108 350.552 49.9545Z" fill="white"/>
<defs>
<clipPath id="clip0_176_122684">
<rect width="118" height="90" fill="white" transform="translate(0 108)"/>
</clipPath>
<clipPath id="clip1_176_122684">
<rect width="24.0039" height="18.2857" fill="white" transform="translate(163.998 38.8574)"/>
</clipPath>
</defs>
</svg>
