<svg width="395" height="201" viewBox="0 0 395 201" fill="none" xmlns="http://www.w3.org/2000/svg">
<g clip-path="url(#clip0_176_122313)">
<path d="M23.1287 176.949C23.1869 176.265 22.7679 175.569 21.8658 175.043C20.178 174.066 17.4484 174.066 15.7722 175.043C14.9341 175.528 14.5209 176.172 14.5209 176.809C14.5209 176.803 14.4336 198.48 14.4336 198.48C14.4336 199.123 14.8585 199.772 15.7024 200.264C17.3902 201.24 20.1198 201.24 21.7959 200.264C22.6282 199.778 23.0472 199.141 23.0472 198.503L23.1345 176.826C23.1404 176.867 23.1346 176.908 23.1287 176.949Z" fill="#738185"/>
<path d="M14.4802 171.4L14.4395 181.967C14.4395 182.61 14.8643 183.259 15.7082 183.75C17.396 184.727 20.1256 184.727 21.8018 183.75C22.6341 183.265 23.0531 182.628 23.0531 181.99L23.0938 171.395H14.4802V171.4Z" fill="#9D9D9C"/>
<path d="M85.5018 140.711C85.56 140.027 85.1409 139.331 84.2388 138.805C82.551 137.828 79.8214 137.828 78.1453 138.805C77.3072 139.29 76.8939 139.933 76.8939 140.571C76.8939 140.565 76.8066 162.242 76.8066 162.242C76.8066 162.885 77.2315 163.534 78.0754 164.025C79.7632 165.002 82.4928 165.002 84.169 164.025C85.0012 163.54 85.4203 162.903 85.4203 162.265L85.5076 140.588C85.5076 140.629 85.5018 140.67 85.5018 140.711Z" fill="#738185"/>
<path d="M76.8474 135.168L76.8066 145.74C76.8066 146.384 77.2315 147.033 78.0754 147.524C79.7632 148.5 82.487 148.5 84.169 147.524C85.0012 147.039 85.4203 146.401 85.4203 145.764L85.461 140.928L76.8474 135.168Z" fill="#9D9D9C"/>
<path d="M1.50187 169.4C1.44367 168.716 1.86272 168.02 2.76482 167.494C4.45263 166.518 7.18223 166.518 8.8584 167.494C9.69649 167.979 10.1097 168.623 10.1097 169.26C10.1097 169.254 10.197 190.931 10.197 190.931C10.197 191.574 9.77215 192.224 8.92824 192.715C7.24043 193.691 4.51665 193.691 2.83466 192.715C2.0024 192.229 1.58336 191.592 1.58336 190.955L1.49023 169.278C1.49023 169.319 1.49605 169.36 1.50187 169.4Z" fill="#738185"/>
<path d="M10.1508 167.494L10.1915 174.424C10.1915 175.067 9.76664 175.716 8.92274 176.207C7.23492 177.184 4.51115 177.184 2.82916 176.207C1.99689 175.722 1.57785 175.084 1.57785 174.447L1.53711 170.395L10.1508 167.494Z" fill="#9D9D9C"/>
<path d="M54.2596 158.943C54.3178 158.259 53.8987 157.563 52.9966 157.037C51.3088 156.061 48.5792 156.061 46.9031 157.037C46.065 157.522 45.6518 158.166 45.6518 158.803C45.6518 158.797 45.5645 180.474 45.5645 180.474C45.5645 181.117 45.9893 181.766 46.8332 182.258C48.521 183.234 51.2506 183.234 52.9268 182.258C53.7591 181.772 54.1781 181.135 54.1781 180.498L54.2654 158.821C54.2712 158.862 54.2654 158.902 54.2596 158.943Z" fill="#738185"/>
<path d="M45.6111 153.395L45.5703 163.967C45.5703 164.61 45.9952 165.259 46.8391 165.75C48.5269 166.727 51.2565 166.727 52.9327 165.75C53.7649 165.265 54.184 164.628 54.184 163.99L54.2247 153.395H45.6111Z" fill="#9D9D9C"/>
<path d="M32.6332 151.395C32.575 150.71 32.9941 150.015 33.8962 149.488C35.584 148.512 38.3136 148.512 39.9898 149.488C40.8278 149.974 41.2411 150.617 41.2411 151.254C41.2411 151.248 41.3284 172.925 41.3284 172.925C41.3284 173.569 40.9035 174.218 40.0596 174.709C38.3718 175.685 35.6422 175.685 33.966 174.709C33.1338 174.223 32.7147 173.586 32.7147 172.949L32.6274 151.272C32.6216 151.313 32.6274 151.354 32.6332 151.395Z" fill="#738185"/>
<path d="M41.2816 149.482L41.3224 156.412C41.3224 157.055 40.8975 157.704 40.0536 158.195C38.3658 159.172 35.6362 159.172 33.96 158.195C33.1278 157.71 32.7087 157.073 32.7087 156.435L32.668 152.383L41.2816 149.482Z" fill="#9D9D9C"/>
<path d="M63.7641 133.385C63.7059 132.701 64.1249 132.005 65.027 131.479C66.7148 130.502 69.4444 130.502 71.1206 131.479C71.9587 131.964 72.3719 132.607 72.3719 133.244C72.3719 133.239 72.4592 154.916 72.4592 154.916C72.4592 155.559 72.0344 156.208 71.1905 156.699C69.5026 157.676 66.773 157.676 65.0969 156.699C64.2646 156.214 63.8456 155.576 63.8456 154.939L63.7583 133.262C63.7525 133.309 63.7583 133.35 63.7641 133.385Z" fill="#738185"/>
<path d="M72.4125 131.479L72.4532 138.408C72.4532 139.051 72.0284 139.7 71.1845 140.191C69.4966 141.168 66.7729 141.168 65.0909 140.191C64.2586 139.706 63.8396 139.069 63.8396 138.431L63.7988 134.379L72.4125 131.479Z" fill="#9D9D9C"/>
<path d="M88.1386 141.443L79.8043 136.607L77.2377 135.122L68.8976 130.28L68.0479 129.789L0.00582004 169.517L0 170.588L0.855545 171.085L9.18984 175.921L11.7565 177.406L20.0966 182.242L20.9463 182.739L88.9884 143.01L88.9942 141.94L88.1386 141.443Z" fill="#1D1D1B"/>
<path d="M0.0117188 167.342L68.0538 127.613L68.9035 128.11L0.861444 167.839L0.0117188 167.342Z" fill="#C9E0E7"/>
<path d="M0.861328 167.838L68.9034 128.109V129.215L0.861328 168.943V167.838Z" fill="#99ABB0"/>
<path d="M0.861328 168.943L68.9034 129.215L77.2377 134.051L9.19562 173.779L0.861328 168.943Z" fill="#1D1D1B"/>
<path d="M11.7675 174.166L79.8096 134.438V135.543L11.7617 175.271L11.7675 174.166Z" fill="#99ABB0"/>
<path d="M9.20117 172.674L77.2432 132.945L79.8099 134.436L11.7678 174.165L9.20117 172.674Z" fill="#C9E0E7"/>
<path d="M11.7617 175.271L79.8096 135.543L88.1439 140.379L20.1018 180.107L11.7617 175.271Z" fill="#1D1D1B"/>
<path d="M20.958 179.493L20.9522 180.598V181.668L20.0966 181.171L11.7623 176.341L9.1957 174.85L0.855585 170.014L0.00585938 169.517V168.447L0.0116794 167.342L0.861405 167.839V168.944L9.1957 173.78L9.20152 172.675L11.7682 174.166L11.7623 175.271L20.1024 180.107V179.002L20.958 179.493Z" fill="#738185"/>
<path d="M20.9589 179.492L20.9531 180.597V181.667L88.9952 141.939V140.869L89.001 139.764L20.9589 179.492Z" fill="#99ABB0"/>
<path d="M20.1016 179.002L88.1436 139.273L88.9992 139.765L20.9571 179.493L20.1016 179.002Z" fill="#C9E0E7"/>
<path d="M82.377 138.676L82.6156 138.816L84.0822 137.968L83.8378 137.828L82.377 138.676Z" fill="white"/>
<path d="M22.6742 173.305L19.834 174.954L20.0726 175.094L22.9128 173.445L22.6742 173.305Z" fill="white"/>
<path d="M28.5983 170.148L28.3597 170.008L25.5137 171.657L25.7581 171.797L28.5983 170.148Z" fill="white"/>
<path d="M34.2858 166.849L34.0472 166.709L31.2012 168.358L31.4456 168.498L34.2858 166.849Z" fill="white"/>
<path d="M39.9713 163.552L39.7327 163.412L36.8867 165.061L37.1312 165.201L39.9713 163.552Z" fill="white"/>
<path d="M45.6569 160.254L45.4183 160.113L42.5723 161.762L42.8167 161.903L45.6569 160.254Z" fill="white"/>
<path d="M51.3444 156.955L51.0999 156.814L48.2598 158.463L48.5042 158.604L51.3444 156.955Z" fill="white"/>
<path d="M57.0299 153.658L56.7913 153.518L53.9453 155.167L54.1898 155.307L57.0299 153.658Z" fill="white"/>
<path d="M62.7155 150.359L62.471 150.219L59.6309 151.868L59.8753 152.008L62.7155 150.359Z" fill="white"/>
<path d="M68.403 147.062L68.1585 146.922L65.3184 148.571L65.557 148.711L68.403 147.062Z" fill="white"/>
<path d="M74.0885 143.763L73.8441 143.623L71.0039 145.272L71.2425 145.412L74.0885 143.763Z" fill="white"/>
<path d="M79.7741 140.465L79.5296 140.324L76.6895 141.973L76.9281 142.114L79.7741 140.465Z" fill="white"/>
<path d="M15.5273 177.451L15.766 177.592L17.2326 176.744L16.9882 176.604L15.5273 177.451Z" fill="white"/>
<path d="M71.5176 132.367L71.7562 132.514L73.217 131.66L72.9784 131.52L71.5176 132.367Z" fill="white"/>
<path d="M11.8147 167.002L8.96875 168.651L9.21319 168.791L12.0534 167.142L11.8147 167.002Z" fill="white"/>
<path d="M17.7389 163.845L17.5003 163.705L14.6543 165.354L14.8987 165.494L17.7389 163.845Z" fill="white"/>
<path d="M23.4264 160.547L23.182 160.406L20.3418 162.055L20.5862 162.196L23.4264 160.547Z" fill="white"/>
<path d="M29.112 157.25L28.8675 157.109L26.0273 158.758L26.266 158.899L29.112 157.25Z" fill="white"/>
<path d="M34.7975 153.951L34.5589 153.811L31.7129 155.46L31.9573 155.6L34.7975 153.951Z" fill="white"/>
<path d="M40.485 150.652L40.2406 150.512L37.4004 152.155L37.6448 152.301L40.485 150.652Z" fill="white"/>
<path d="M46.1706 147.355L45.9261 147.215L43.0859 148.864L43.3246 149.004L46.1706 147.355Z" fill="white"/>
<path d="M51.8561 144.056L51.6117 143.916L48.7715 145.559L49.0101 145.705L51.8561 144.056Z" fill="white"/>
<path d="M57.5436 140.759L57.2992 140.613L54.459 142.268L54.6976 142.408L57.5436 140.759Z" fill="white"/>
<path d="M63.2292 137.455L62.9847 137.314L60.1445 138.963L60.3832 139.11L63.2292 137.455Z" fill="white"/>
<path d="M68.9147 134.162L68.6702 134.016L65.8242 135.67L66.0687 135.811L68.9147 134.162Z" fill="white"/>
<path d="M4.66797 171.149L4.90659 171.289L6.36742 170.441L6.1288 170.301L4.66797 171.149Z" fill="white"/>
<path d="M28.5182 172.139C28.5938 172.092 28.6637 172.104 28.7044 172.156C28.7219 172.18 28.7335 172.215 28.7335 172.261V172.384L28.7393 173.402V173.647V174.296C28.7393 174.431 28.6462 174.595 28.5298 174.665C28.4134 174.735 28.3145 174.677 28.3145 174.542V173.893V173.647V172.63V172.507C28.3145 172.46 28.3261 172.414 28.3436 172.373C28.3668 172.273 28.4367 172.185 28.5182 172.139Z" fill="#797979"/>
<path d="M28.3327 172.371C28.3153 172.418 28.3036 172.465 28.3036 172.506V172.628L24.9978 174.546V174.424C24.9978 174.377 24.9862 174.342 24.9688 174.318L28.3327 172.371Z" fill="#999999"/>
<path d="M24.7818 174.301C24.8574 174.254 24.9273 174.266 24.968 174.318C24.9855 174.342 24.9971 174.377 24.9971 174.424V174.546V175.564V175.809V176.459C24.9971 176.593 24.904 176.757 24.7876 176.827C24.6712 176.897 24.5723 176.839 24.5723 176.704V176.055V175.809V174.792V174.669C24.5723 174.622 24.5839 174.576 24.6014 174.535C24.6363 174.441 24.7061 174.348 24.7818 174.301Z" fill="#797979"/>
<path d="M24.6023 174.535C24.5848 174.582 24.5732 174.629 24.5732 174.67V174.792L21.2674 176.71V176.588C21.2674 176.547 21.2557 176.506 21.2383 176.482L24.6023 174.535Z" fill="#999999"/>
<path d="M21.0513 176.471C21.1328 176.424 21.1968 176.436 21.2376 176.488C21.255 176.512 21.2667 176.547 21.2667 176.594V176.716V177.734V177.979V178.628C21.2667 178.763 21.1735 178.927 21.0571 178.997C20.9407 179.061 20.8476 179.009 20.8476 178.874L20.8418 176.839C20.8418 176.705 20.9349 176.535 21.0513 176.471Z" fill="#797979"/>
<path d="M24.5734 175.811L24.5792 176.056L21.2676 177.974V177.729L24.5734 175.811Z" fill="#999999"/>
<path d="M28.3096 173.646V173.892L24.998 175.81V175.564L28.3096 173.646Z" fill="#999999"/>
<path d="M32.0402 171.477V171.722L28.7344 173.64V173.4L32.0402 171.477Z" fill="#999999"/>
<path d="M47.1783 161.314C47.2539 161.268 47.3238 161.279 47.3587 161.332C47.3762 161.355 47.3878 161.39 47.3878 161.437V161.56V162.578V162.823V163.472C47.3878 163.607 47.2947 163.77 47.1783 163.841C47.0619 163.911 46.9688 163.852 46.9688 163.718V163.069V162.823V161.806V161.683C46.9688 161.642 46.9804 161.589 46.9979 161.548C47.0328 161.449 47.0968 161.361 47.1783 161.314Z" fill="#797979"/>
<path d="M46.9909 161.541C46.9734 161.588 46.9618 161.635 46.9618 161.676V161.798L43.6502 163.716V163.594C43.6502 163.553 43.6386 163.512 43.6211 163.488L46.9909 161.541Z" fill="#999999"/>
<path d="M43.4459 163.477C43.5215 163.43 43.5914 163.441 43.6321 163.494C43.6496 163.518 43.6612 163.553 43.6612 163.599V163.722V164.74V164.985V165.634C43.6612 165.769 43.5681 165.933 43.4517 166.003C43.3353 166.067 43.2422 166.014 43.2422 165.88V165.231V164.985V163.968V163.845C43.2422 163.798 43.2538 163.751 43.2713 163.71C43.2946 163.611 43.3644 163.523 43.4459 163.477Z" fill="#797979"/>
<path d="M43.2374 164.986V165.226L39.9258 167.15V166.904L43.2374 164.986Z" fill="#999999"/>
<path d="M43.2604 163.711C43.243 163.758 43.2313 163.805 43.2313 163.845V163.968L39.9197 165.886V165.763C39.9197 165.717 39.9081 165.682 39.8906 165.658L43.2604 163.711Z" fill="#999999"/>
<path d="M39.7096 165.646C39.7852 165.6 39.8551 165.611 39.89 165.664C39.9074 165.687 39.9191 165.723 39.9191 165.769V165.892L39.9249 166.91V167.155V167.804C39.9249 167.939 39.8318 168.102 39.7154 168.173C39.599 168.243 39.5059 168.184 39.5059 168.05V167.401V167.155V166.138V166.015C39.5059 165.968 39.5175 165.921 39.535 165.88C39.5641 165.781 39.6339 165.687 39.7096 165.646Z" fill="#797979"/>
<path d="M39.5069 167.15V167.396L36.1953 169.314V169.068L39.5069 167.15Z" fill="#999999"/>
<path d="M39.53 165.875C39.5125 165.922 39.5009 165.969 39.5009 166.009V166.132L36.1893 168.05V167.927C36.1893 167.881 36.1776 167.846 36.1602 167.822L39.53 165.875Z" fill="#999999"/>
<path d="M35.9791 167.811C36.0548 167.764 36.1246 167.775 36.1653 167.828C36.1828 167.851 36.1944 167.887 36.1944 167.933V168.056V169.074V169.319V169.968C36.1944 170.103 36.1013 170.267 35.9849 170.337C35.8685 170.407 35.7754 170.348 35.7754 170.214V169.565V169.319V168.302V168.179C35.7754 168.138 35.787 168.085 35.8045 168.044C35.8336 167.945 35.8976 167.857 35.9791 167.811Z" fill="#797979"/>
<path d="M35.7706 169.312L35.7764 169.558L32.4648 171.476V171.236L35.7706 169.312Z" fill="#999999"/>
<path d="M35.7995 168.039C35.782 168.086 35.7704 168.133 35.7704 168.174V168.296L32.4588 170.214V170.092C32.4588 170.051 32.4471 170.01 32.4297 169.986L35.7995 168.039Z" fill="#999999"/>
<path d="M32.2486 169.975C32.3243 169.928 32.3941 169.94 32.4349 169.992C32.4523 170.016 32.464 170.051 32.464 170.097V170.22V171.238V171.483V172.132C32.464 172.267 32.3708 172.431 32.2544 172.501C32.138 172.571 32.0449 172.512 32.0449 172.378V171.729V171.483V170.466V170.343C32.0449 170.302 32.0566 170.249 32.074 170.209C32.1031 170.109 32.1671 170.021 32.2486 169.975Z" fill="#797979"/>
<path d="M32.0632 170.203C32.0457 170.25 32.0341 170.297 32.0341 170.338V170.46L28.7225 172.378V172.256C28.7225 172.215 28.7108 172.174 28.6934 172.15L32.0632 170.203Z" fill="#999999"/>
<path d="M46.9678 162.822V163.062L43.6621 164.986L43.6562 164.74L46.9678 162.822Z" fill="#999999"/>
<path d="M54.4366 158.49V158.736L51.125 160.654V160.414L54.4366 158.49Z" fill="#999999"/>
<path d="M54.4596 157.215C54.4422 157.262 54.4305 157.308 54.4305 157.349V157.472L51.1189 159.39V159.267C51.1189 159.226 51.1073 159.185 51.0898 159.162L54.4596 157.215Z" fill="#999999"/>
<path d="M50.9088 159.15C50.9844 159.104 51.0543 159.115 51.095 159.168C51.1125 159.191 51.1241 159.226 51.1241 159.273V159.396V160.413V160.659V161.308C51.1241 161.443 51.031 161.606 50.9146 161.677C50.7982 161.741 50.7051 161.688 50.7051 161.554V160.905V160.659V159.642V159.519C50.7051 159.478 50.7167 159.425 50.7342 159.384C50.7633 159.285 50.8331 159.197 50.9088 159.15Z" fill="#797979"/>
<path d="M50.6984 160.652L50.7042 160.898L47.3926 162.816V162.576L50.6984 160.652Z" fill="#999999"/>
<path d="M50.7272 159.379C50.7098 159.426 50.6981 159.472 50.6981 159.513V159.636L47.3865 161.554V161.431C47.3865 161.39 47.3749 161.35 47.3574 161.326L50.7272 159.379Z" fill="#999999"/>
<path d="M54.6393 156.986C54.7208 156.94 54.7848 156.951 54.8255 157.004C54.843 157.027 54.8546 157.062 54.8546 157.109V157.232L54.8604 158.249V158.495V159.144C54.8604 159.279 54.7673 159.442 54.6509 159.512C54.5345 159.583 54.4414 159.524 54.4414 159.39V158.741V158.495V157.478V157.355C54.4414 157.314 54.453 157.261 54.4705 157.22C54.4938 157.121 54.5636 157.027 54.6393 156.986Z" fill="#797979"/>
<path d="M58.1651 156.326V156.572L54.8535 158.49V158.244L58.1651 156.326Z" fill="#999999"/>
<path d="M61.9206 152.881C61.9031 152.928 61.8915 152.974 61.8915 153.015V153.138L58.5799 155.056V154.933C58.5799 154.892 58.5682 154.851 58.5508 154.828L61.9206 152.881Z" fill="#999999"/>
<path d="M58.3697 154.822C58.4512 154.775 58.5152 154.787 58.556 154.84C58.5734 154.863 58.5851 154.898 58.5851 154.945V155.068V156.085V156.331V156.98C58.5851 157.115 58.4919 157.278 58.3755 157.348C58.2591 157.419 58.166 157.36 58.166 157.226V156.577V156.331V155.313V155.191C58.166 155.15 58.1777 155.097 58.1951 155.056C58.2242 154.957 58.2941 154.863 58.3697 154.822Z" fill="#797979"/>
<path d="M58.1882 155.051C58.1707 155.098 58.1591 155.144 58.1591 155.185V155.308L54.8475 157.226V157.103C54.8475 157.062 54.8358 157.021 54.8184 156.998L58.1882 155.051Z" fill="#999999"/>
<path d="M61.8956 154.162V154.402L58.5898 156.326L58.584 156.08L61.8956 154.162Z" fill="#999999"/>
<path d="M69.3643 149.83V150.076L66.0527 151.994V151.748L69.3643 149.83Z" fill="#999999"/>
<path d="M65.8365 150.49C65.918 150.443 65.982 150.455 66.0227 150.508C66.0402 150.531 66.0518 150.566 66.0518 150.613V150.736V151.753V151.999V152.648C66.0518 152.782 65.9587 152.946 65.8423 153.016C65.7259 153.081 65.6328 153.028 65.6328 152.894V152.245V151.999L65.627 150.981V150.859C65.627 150.818 65.6386 150.765 65.6561 150.724C65.691 150.625 65.7608 150.537 65.8365 150.49Z" fill="#797979"/>
<path d="M65.6261 151.998V152.238L62.3203 154.162V153.916L65.6261 151.998Z" fill="#999999"/>
<path d="M65.6569 150.719C65.6395 150.766 65.6278 150.812 65.6278 150.853V150.976L62.3162 152.894V152.771C62.3162 152.73 62.3046 152.689 62.2871 152.666L65.6569 150.719Z" fill="#999999"/>
<path d="M69.3874 148.555C69.37 148.601 69.3583 148.648 69.3583 148.689V148.812L66.0525 150.73V150.607C66.0525 150.56 66.0409 150.525 66.0234 150.502L69.3874 148.555Z" fill="#999999"/>
<path d="M76.8542 144.221C76.8367 144.267 76.8251 144.314 76.8251 144.355V144.478L73.5135 146.396V146.273C73.5135 146.232 73.5018 146.191 73.4844 146.168L76.8542 144.221Z" fill="#999999"/>
<path d="M76.8253 145.502L76.8311 145.742L73.5195 147.666V147.42L76.8253 145.502Z" fill="#999999"/>
<path d="M73.3033 146.156C73.3789 146.109 73.4488 146.121 73.4837 146.174C73.5012 146.197 73.5128 146.232 73.5128 146.279V146.402L73.5186 147.419V147.665V148.314C73.5186 148.449 73.4255 148.612 73.3091 148.682C73.1927 148.753 73.0938 148.694 73.0938 148.56V147.911V147.665V146.647V146.525C73.0938 146.478 73.1054 146.431 73.1229 146.39C73.152 146.297 73.2218 146.203 73.3033 146.156Z" fill="#797979"/>
<path d="M73.0948 147.664V147.91L69.789 149.828L69.7832 149.582L73.0948 147.664Z" fill="#999999"/>
<path d="M73.1179 146.391C73.1004 146.437 73.0888 146.484 73.0888 146.525V146.648L69.783 148.566V148.443C69.783 148.396 69.7714 148.361 69.7539 148.338L73.1179 146.391Z" fill="#999999"/>
<path d="M69.567 148.326C69.6485 148.279 69.7125 148.291 69.7532 148.344C69.7707 148.367 69.7823 148.402 69.7823 148.449V148.572V149.589V149.835V150.484C69.7823 150.618 69.6892 150.782 69.5728 150.852C69.4564 150.917 69.3633 150.864 69.3633 150.73V150.08V149.835V148.817V148.695C69.3633 148.648 69.3749 148.601 69.3924 148.56C69.4215 148.461 69.4913 148.373 69.567 148.326Z" fill="#797979"/>
<path d="M84.2921 141.17V141.416L80.9805 143.334V143.094L84.2921 141.17Z" fill="#999999"/>
<path d="M84.3151 139.895C84.2976 139.941 84.286 139.988 84.286 140.029V140.152L80.9744 142.07V141.947C80.9744 141.9 80.9628 141.865 80.9453 141.842L84.3151 139.895Z" fill="#999999"/>
<path d="M80.7643 141.83C80.8399 141.783 80.9097 141.795 80.9505 141.848C80.9679 141.871 80.9796 141.906 80.9796 141.953V142.076V143.093V143.339V143.988C80.9796 144.122 80.8865 144.286 80.7701 144.356C80.6537 144.426 80.5605 144.368 80.5605 144.233V143.584V143.339V142.321V142.198C80.5605 142.152 80.5722 142.105 80.5896 142.064C80.6187 141.965 80.6886 141.877 80.7643 141.83Z" fill="#797979"/>
<path d="M80.5616 143.332V143.578L77.25 145.496V145.256L80.5616 143.332Z" fill="#999999"/>
<path d="M80.5846 142.059C80.5672 142.105 80.5555 142.152 80.5555 142.193V142.316L77.2439 144.234V144.111C77.2439 144.07 77.2323 144.029 77.2148 144.006L80.5846 142.059Z" fill="#999999"/>
<path d="M77.0338 143.994C77.1094 143.947 77.1793 143.959 77.22 144.012C77.2375 144.035 77.2491 144.07 77.2491 144.117V144.24V145.257V145.503V146.152C77.2491 146.286 77.156 146.45 77.0396 146.52C76.9232 146.59 76.8301 146.532 76.8301 146.398V145.748V145.503V144.485V144.363C76.8301 144.322 76.8417 144.269 76.8592 144.228C76.8883 144.129 76.9523 144.041 77.0338 143.994Z" fill="#797979"/>
<path d="M88.0225 139.006V139.251L84.7168 141.169L84.7109 140.924L88.0225 139.006Z" fill="#999999"/>
<path d="M88.0456 137.73C88.0281 137.777 88.0165 137.824 88.0165 137.865V137.988L84.7049 139.906V139.783C84.7049 139.736 84.6932 139.701 84.6758 139.678L88.0456 137.73Z" fill="#999999"/>
<path d="M84.4947 139.666C84.5704 139.619 84.6402 139.631 84.681 139.684C84.6984 139.707 84.7101 139.742 84.7101 139.789V139.912V140.929V141.175V141.824C84.7101 141.958 84.6169 142.122 84.5005 142.192C84.3841 142.262 84.291 142.204 84.291 142.069V141.42V141.175V140.157V140.034C84.291 139.993 84.3027 139.941 84.3201 139.9C84.3492 139.801 84.4191 139.713 84.4947 139.666Z" fill="#797979"/>
<path d="M62.106 152.654C62.1875 152.608 62.2515 152.619 62.2923 152.672C62.3097 152.695 62.3214 152.73 62.3214 152.777V152.9V153.917V154.163V154.812C62.3214 154.947 62.2283 155.11 62.1119 155.18C61.9955 155.245 61.9023 155.192 61.9023 155.058V154.409V154.163V153.146V153.023C61.9023 152.982 61.914 152.929 61.9314 152.888C61.9605 152.789 62.0246 152.701 62.106 152.654Z" fill="#797979"/>
<path d="M88.233 137.503C88.3494 137.432 88.4425 137.491 88.4425 137.625L88.4483 139.66C88.4483 139.795 88.3552 139.959 88.2388 140.029C88.1224 140.093 88.0293 140.04 88.0293 139.906V139.257V139.011L88.0234 137.994V137.871C88.0234 137.824 88.0351 137.777 88.0525 137.736C88.0875 137.637 88.1515 137.543 88.233 137.503Z" fill="#797979"/>
<path d="M8.32866 160.436C8.40432 160.389 8.47416 160.4 8.5149 160.453C8.53236 160.476 8.544 160.512 8.544 160.558V160.681V161.699V161.944V162.593C8.544 162.728 8.45088 162.892 8.33448 162.962C8.21808 163.032 8.11914 162.973 8.11914 162.839V162.19V161.944V160.927V160.804C8.11914 160.757 8.13078 160.71 8.14824 160.669C8.18316 160.576 8.253 160.482 8.32866 160.436Z" fill="#797979"/>
<path d="M8.14328 160.67C8.12582 160.717 8.11418 160.763 8.11418 160.804V160.927L4.8084 162.845V162.722C4.8084 162.676 4.79676 162.641 4.7793 162.617L8.14328 160.67Z" fill="#999999"/>
<path d="M4.59815 162.605C4.67381 162.559 4.74365 162.57 4.7844 162.623C4.80186 162.646 4.8135 162.681 4.8135 162.728V162.851V163.869V164.114V164.763C4.8135 164.898 4.72037 165.061 4.60397 165.132C4.48757 165.202 4.38863 165.143 4.38863 165.009V164.36V164.114L4.38281 163.097V162.974C4.38281 162.933 4.39445 162.88 4.41191 162.839C4.44683 162.74 4.51667 162.652 4.59815 162.605Z" fill="#797979"/>
<path d="M4.41281 162.834C4.39535 162.881 4.38371 162.928 4.38371 162.968V163.091L1.07793 165.009V164.886C1.07793 164.846 1.06629 164.805 1.04883 164.781L4.41281 162.834Z" fill="#999999"/>
<path d="M0.861865 164.77C0.943346 164.723 1.00737 164.734 1.04811 164.787C1.06557 164.81 1.07721 164.846 1.07721 164.892V165.015V166.033V166.278V166.927C1.07721 167.062 0.984086 167.226 0.867685 167.296C0.751284 167.36 0.658164 167.307 0.658164 167.173L0.652344 165.138C0.652344 165.003 0.745464 164.84 0.861865 164.77Z" fill="#797979"/>
<path d="M4.38977 164.107V164.353L1.08398 166.271V166.025L4.38977 164.107Z" fill="#999999"/>
<path d="M8.12023 161.945V162.191L4.81445 164.109V163.863L8.12023 161.945Z" fill="#999999"/>
<path d="M11.8565 159.781V160.021L8.54492 161.945V161.699L11.8565 159.781Z" fill="#999999"/>
<path d="M26.9888 149.611C27.0645 149.565 27.1343 149.576 27.1751 149.629C27.1925 149.652 27.2042 149.687 27.2042 149.734V149.857V150.874V151.12V151.769C27.2042 151.904 27.111 152.067 26.9946 152.137C26.8782 152.208 26.7851 152.149 26.7851 152.015V151.366V151.12L26.7793 150.103V149.98C26.7793 149.939 26.7909 149.886 26.8084 149.845C26.8433 149.746 26.9132 149.658 26.9888 149.611Z" fill="#797979"/>
<path d="M26.8073 149.846C26.7898 149.892 26.7782 149.939 26.7782 149.98V150.103L23.4666 152.021V151.898C23.4666 151.851 23.455 151.816 23.4375 151.793L26.8073 149.846Z" fill="#999999"/>
<path d="M23.2564 151.781C23.3321 151.734 23.4019 151.746 23.4369 151.799C23.4543 151.822 23.466 151.857 23.466 151.904V152.027L23.4718 153.044V153.29V153.939C23.4718 154.074 23.3787 154.237 23.2623 154.307C23.1459 154.372 23.0527 154.319 23.0527 154.185V153.536V153.29V152.272V152.15C23.0527 152.103 23.0644 152.056 23.0818 152.015C23.1109 151.916 23.1808 151.822 23.2564 151.781Z" fill="#797979"/>
<path d="M23.048 153.285L23.0538 153.531L19.7422 155.449V155.203L23.048 153.285Z" fill="#999999"/>
<path d="M23.0768 152.01C23.0594 152.057 23.0477 152.103 23.0477 152.144V152.267L19.7361 154.185V154.062C19.7361 154.015 19.7245 153.98 19.707 153.957L23.0768 152.01Z" fill="#999999"/>
<path d="M19.5259 153.945C19.6016 153.899 19.6714 153.91 19.7063 153.963C19.7238 153.986 19.7354 154.021 19.7354 154.068V154.191V155.208V155.454V156.103C19.7354 156.238 19.6423 156.401 19.5259 156.471C19.4095 156.542 19.3164 156.483 19.3164 156.349V155.7V155.454V154.437V154.314C19.3164 154.267 19.328 154.22 19.3455 154.179C19.3804 154.08 19.4444 153.992 19.5259 153.945Z" fill="#797979"/>
<path d="M19.3175 155.447V155.693L16.0117 157.611V157.371L19.3175 155.447Z" fill="#999999"/>
<path d="M19.3405 154.174C19.323 154.221 19.3114 154.267 19.3114 154.308V154.431L15.9998 156.349V156.226C15.9998 156.185 15.9882 156.144 15.9707 156.121L19.3405 154.174Z" fill="#999999"/>
<path d="M15.7955 156.109C15.8712 156.063 15.941 156.074 15.9817 156.127C15.9992 156.15 16.0108 156.185 16.0108 156.232V156.355V157.372V157.618V158.267C16.0108 158.402 15.9177 158.565 15.8013 158.636C15.6849 158.706 15.5918 158.647 15.5918 158.513V157.864V157.618V156.601V156.478C15.5918 156.437 15.6034 156.384 15.6209 156.343C15.6442 156.244 15.714 156.156 15.7955 156.109Z" fill="#797979"/>
<path d="M15.587 157.611V157.857L12.2754 159.775V159.535L15.587 157.611Z" fill="#999999"/>
<path d="M15.61 156.338C15.5926 156.385 15.5809 156.431 15.5809 156.472V156.595L12.2693 158.513V158.39C12.2693 158.349 12.2577 158.309 12.2402 158.285L15.61 156.338Z" fill="#999999"/>
<path d="M12.0592 158.271C12.1348 158.225 12.2047 158.236 12.2454 158.289C12.2629 158.312 12.2745 158.348 12.2745 158.394V158.517V159.535V159.78V160.429C12.2745 160.564 12.1814 160.727 12.065 160.798C11.9486 160.868 11.8555 160.809 11.8555 160.675V160.026V159.78V158.763V158.64C11.8555 158.599 11.8671 158.546 11.8846 158.505C11.9137 158.406 11.9835 158.318 12.0592 158.271Z" fill="#797979"/>
<path d="M11.8796 158.5C11.8621 158.547 11.8505 158.594 11.8505 158.634V158.757L8.53887 160.675V160.552C8.53887 160.512 8.52723 160.471 8.50977 160.447L11.8796 158.5Z" fill="#999999"/>
<path d="M26.7843 151.121V151.361L23.4727 153.285V153.039L26.7843 151.121Z" fill="#999999"/>
<path d="M34.2471 146.789V147.035L30.9414 148.953L30.9355 148.713L34.2471 146.789Z" fill="#999999"/>
<path d="M34.2702 145.514C34.2527 145.56 34.2411 145.607 34.2411 145.648V145.771L30.9295 147.689V147.566C30.9295 147.525 30.9179 147.484 30.9004 147.461L34.2702 145.514Z" fill="#999999"/>
<path d="M30.7252 147.449C30.8008 147.402 30.8707 147.414 30.9114 147.467C30.9289 147.49 30.9405 147.525 30.9405 147.572V147.695V148.712V148.958V149.607C30.9405 149.741 30.8474 149.905 30.731 149.975C30.6146 150.046 30.5215 149.987 30.5215 149.853V149.204V148.958V147.94V147.818C30.5215 147.777 30.5331 147.724 30.5506 147.683C30.5739 147.584 30.6437 147.496 30.7252 147.449Z" fill="#797979"/>
<path d="M30.5147 148.957V149.197L27.2031 151.121V150.875L30.5147 148.957Z" fill="#999999"/>
<path d="M30.5378 147.676C30.5203 147.723 30.5087 147.769 30.5087 147.81V147.933L27.1971 149.851V149.728C27.1971 149.687 27.1854 149.646 27.168 149.623L30.5378 147.676Z" fill="#999999"/>
<path d="M34.4557 145.285C34.5371 145.238 34.6012 145.25 34.6419 145.303C34.6594 145.326 34.671 145.361 34.671 145.408V145.531V146.548V146.794V147.443C34.671 147.577 34.5779 147.741 34.4615 147.811C34.3451 147.881 34.252 147.823 34.252 147.689V147.039V146.794V145.776V145.654C34.252 145.613 34.2636 145.56 34.2811 145.519C34.3102 145.42 34.3742 145.332 34.4557 145.285Z" fill="#797979"/>
<path d="M37.9757 144.625L37.9815 144.871L34.6699 146.789V146.543L37.9757 144.625Z" fill="#999999"/>
<path d="M41.735 141.186C41.7176 141.232 41.7059 141.279 41.7059 141.32V141.443L38.3943 143.361V143.238C38.3943 143.191 38.3827 143.156 38.3652 143.133L41.735 141.186Z" fill="#999999"/>
<path d="M38.1861 143.121C38.2676 143.074 38.3316 143.086 38.3723 143.139C38.3898 143.162 38.4014 143.197 38.4014 143.244V143.367V144.384V144.63V145.279C38.4014 145.413 38.3083 145.577 38.1919 145.647C38.0755 145.717 37.9824 145.659 37.9824 145.524V144.875V144.63L37.9766 143.612V143.49C37.9766 143.443 37.9882 143.396 38.0057 143.355C38.0406 143.256 38.1104 143.162 38.1861 143.121Z" fill="#797979"/>
<path d="M38.0046 143.35C37.9871 143.396 37.9755 143.443 37.9755 143.484V143.607L34.6639 145.525V145.402C34.6639 145.361 34.6522 145.32 34.6348 145.297L38.0046 143.35Z" fill="#999999"/>
<path d="M41.712 142.461V142.707L38.4004 144.625V144.379L41.712 142.461Z" fill="#999999"/>
<path d="M49.1749 138.127V138.373L45.8691 140.291V140.051L49.1749 138.127Z" fill="#999999"/>
<path d="M45.6471 138.789C45.7286 138.742 45.7926 138.754 45.8333 138.807C45.8508 138.83 45.8624 138.865 45.8624 138.912V139.035L45.8683 140.052V140.298V140.947C45.8683 141.081 45.7751 141.245 45.6587 141.315C45.5423 141.385 45.4492 141.327 45.4492 141.192V140.543V140.298V139.28V139.157C45.4492 139.111 45.4609 139.064 45.4783 139.023C45.5016 138.924 45.5714 138.836 45.6471 138.789Z" fill="#797979"/>
<path d="M45.4425 140.297V140.537L42.1309 142.46V142.215L45.4425 140.297Z" fill="#999999"/>
<path d="M45.4675 139.016C45.45 139.062 45.4384 139.109 45.4384 139.15V139.273L42.1268 141.191V141.068C42.1268 141.027 42.1151 140.986 42.0977 140.963L45.4675 139.016Z" fill="#999999"/>
<path d="M49.198 136.854C49.1805 136.9 49.1689 136.947 49.1689 136.988V137.111L45.8631 139.029V138.906C45.8631 138.859 45.8514 138.824 45.834 138.801L49.198 136.854Z" fill="#999999"/>
<path d="M56.6647 132.525C56.6473 132.572 56.6356 132.619 56.6356 132.66V132.783L53.324 134.701V134.578C53.324 134.531 53.3124 134.496 53.2949 134.473L56.6647 132.525Z" fill="#999999"/>
<path d="M56.6417 133.801V134.041L53.3301 135.964V135.719L56.6417 133.801Z" fill="#999999"/>
<path d="M53.1138 134.461C53.1894 134.414 53.2593 134.426 53.3 134.478C53.3175 134.502 53.3291 134.537 53.3291 134.584V134.707V135.724V135.97V136.619C53.3291 136.753 53.236 136.917 53.1196 136.987C53.0032 137.057 52.9043 136.999 52.9043 136.864V136.215V135.97L52.8984 134.952V134.829C52.8984 134.783 52.9101 134.736 52.9275 134.695C52.9683 134.595 53.0381 134.502 53.1138 134.461Z" fill="#797979"/>
<path d="M52.9054 135.963V136.208L49.5996 138.126V137.881L52.9054 135.963Z" fill="#999999"/>
<path d="M52.9343 134.689C52.9168 134.736 52.9052 134.783 52.9052 134.824V134.947L49.5994 136.865V136.742C49.5994 136.701 49.5878 136.66 49.5703 136.637L52.9343 134.689Z" fill="#999999"/>
<path d="M49.3833 136.625C49.4648 136.578 49.5289 136.59 49.5696 136.643C49.5871 136.666 49.5987 136.701 49.5987 136.748V136.871V137.888V138.134V138.783C49.5987 138.917 49.5056 139.081 49.3892 139.151C49.2728 139.215 49.1796 139.163 49.1796 139.028V138.379V138.134L49.1738 137.116V136.993C49.1738 136.947 49.1855 136.9 49.2029 136.859C49.2379 136.76 49.3019 136.672 49.3833 136.625Z" fill="#797979"/>
<path d="M64.1027 129.469L64.1085 129.714L60.7969 131.632V131.393L64.1027 129.469Z" fill="#999999"/>
<path d="M64.1315 128.193C64.1141 128.24 64.1024 128.287 64.1024 128.328V128.451L60.7908 130.369V130.246C60.7908 130.199 60.7792 130.164 60.7617 130.141L64.1315 128.193Z" fill="#999999"/>
<path d="M60.5807 130.129C60.6563 130.082 60.7262 130.094 60.7669 130.146C60.7844 130.17 60.796 130.205 60.796 130.252V130.375V131.392V131.638V132.287C60.796 132.421 60.7029 132.585 60.5865 132.655C60.4701 132.725 60.377 132.667 60.377 132.532V131.883V131.638V130.62V130.497C60.377 130.451 60.3886 130.404 60.4061 130.363C60.4293 130.263 60.4992 130.176 60.5807 130.129Z" fill="#797979"/>
<path d="M60.3721 131.637V131.876L57.0664 133.8L57.0605 133.555L60.3721 131.637Z" fill="#999999"/>
<path d="M60.3952 130.357C60.3777 130.404 60.3661 130.451 60.3661 130.492V130.615L57.0545 132.533V132.41C57.0545 132.369 57.0429 132.328 57.0254 132.305L60.3952 130.357Z" fill="#999999"/>
<path d="M56.8501 132.293C56.9258 132.246 56.9956 132.258 57.0306 132.311C57.048 132.334 57.0597 132.369 57.0597 132.416V132.539V133.556V133.802V134.451C57.0597 134.585 56.9665 134.749 56.8501 134.819C56.7337 134.889 56.6406 134.831 56.6406 134.696V134.047V133.802V132.784V132.661C56.6406 132.615 56.6523 132.568 56.6697 132.527C56.6988 132.433 56.7687 132.34 56.8501 132.293Z" fill="#797979"/>
<path d="M67.8389 127.305V127.55L64.5273 129.468V129.229L67.8389 127.305Z" fill="#999999"/>
<path d="M67.862 126.029C67.8445 126.076 67.8329 126.123 67.8329 126.164V126.287L64.5213 128.205V128.082C64.5213 128.035 64.5096 128 64.4922 127.977L67.862 126.029Z" fill="#999999"/>
<path d="M64.3111 127.965C64.3868 127.918 64.4566 127.93 64.4974 127.982C64.5148 128.006 64.5265 128.041 64.5265 128.088V128.21V129.228V129.474V130.123C64.5265 130.257 64.4333 130.421 64.3169 130.491C64.2005 130.561 64.1074 130.503 64.1074 130.368V129.719V129.474V128.456V128.333C64.1074 128.292 64.1191 128.24 64.1365 128.199C64.1656 128.099 64.2296 128.012 64.3111 127.965Z" fill="#797979"/>
<path d="M41.9166 140.951C41.9981 140.904 42.0621 140.916 42.1028 140.969C42.1203 140.992 42.1319 141.027 42.1319 141.074V141.197V142.214V142.46V143.109C42.1319 143.243 42.0388 143.407 41.9224 143.477C41.806 143.542 41.7129 143.489 41.7129 143.355V142.705V142.46V141.442V141.32C41.7129 141.273 41.7245 141.226 41.742 141.185C41.7711 141.092 41.8409 140.998 41.9166 140.951Z" fill="#797979"/>
<path d="M68.0416 125.801C68.158 125.736 68.2511 125.789 68.2511 125.924L68.2569 127.959C68.2569 128.093 68.1638 128.257 68.0474 128.327C67.931 128.391 67.8379 128.339 67.8379 128.204V127.555V127.309V126.292V126.169C67.8379 126.128 67.8495 126.076 67.867 126.035C67.8961 125.935 67.9659 125.842 68.0416 125.801Z" fill="#797979"/>
<path d="M7.99081 150.641C7.99663 150.472 7.82203 150.255 7.51356 150.074C7.05378 149.805 6.46014 149.717 6.1866 149.875C6.09347 149.928 6.05273 150.01 6.05273 150.097C6.05273 150.086 6.05273 150.419 6.05273 150.419C6.05273 150.589 6.22152 150.799 6.52998 150.98C6.98976 151.249 7.5834 151.337 7.85695 151.179C7.94425 151.127 7.99081 151.056 7.99081 150.969V150.635C7.99081 150.635 7.99081 150.635 7.99081 150.641Z" fill="#B2B2B2"/>
<path d="M11.4185 168.207C11.1741 168.066 10.7783 168.066 10.5339 168.207C10.4116 168.277 10.3534 168.371 10.3534 168.464L10.3418 173.037C10.3418 173.13 10.4058 173.224 10.528 173.294C10.7725 173.435 11.1682 173.435 11.4127 173.294C11.5349 173.224 11.5931 173.13 11.5931 173.037L11.6047 168.458C11.6047 168.47 11.5989 168.482 11.5989 168.499C11.6164 168.4 11.5582 168.289 11.4185 168.207ZM10.3825 168.575C10.3884 168.587 10.3884 168.593 10.3942 168.604C10.3942 168.593 10.3884 168.587 10.3825 168.575ZM11.5698 168.575C11.5756 168.564 11.5873 168.546 11.5931 168.534C11.5873 168.552 11.5756 168.564 11.5698 168.575ZM11.5174 168.645C11.5291 168.634 11.5465 168.616 11.5524 168.604C11.5465 168.616 11.5349 168.634 11.5174 168.645Z" fill="#9D9D9C"/>
<path d="M10.9718 168.576C10.8961 168.576 10.8379 168.517 10.8379 168.441V155.161C10.8379 154.501 11.0649 154.003 11.4839 153.758C11.903 153.518 12.4442 153.565 13.0146 153.898L14.3998 154.699C14.4638 154.734 14.4871 154.822 14.4521 154.886C14.4172 154.951 14.3299 154.974 14.2659 154.939L12.8807 154.138C12.3977 153.857 11.9495 153.811 11.6178 153.998C11.286 154.191 11.1056 154.6 11.1056 155.161V168.441C11.1056 168.511 11.0474 168.576 10.9718 168.576Z" fill="#575756"/>
<path d="M10.9712 168.576C10.8956 168.576 10.8374 168.518 10.8374 168.442V155.162C10.8374 153.94 9.98181 152.454 8.92838 151.846L7.54321 151.045C7.47919 151.01 7.45591 150.922 7.49083 150.858C7.52575 150.794 7.61305 150.77 7.67707 150.805L9.06224 151.606C10.1855 152.261 11.1051 153.852 11.1051 155.162V168.442C11.1051 168.512 11.0469 168.576 10.9712 168.576Z" fill="#575756"/>
<path d="M16.0338 155.296C16.0396 155.126 15.865 154.91 15.5565 154.728C15.0967 154.459 14.5031 154.372 14.2296 154.53C14.1364 154.582 14.0957 154.664 14.0957 154.752C14.0957 154.74 14.0957 155.073 14.0957 155.073C14.0957 155.243 14.2645 155.453 14.5729 155.635C15.0327 155.904 15.6264 155.991 15.8999 155.834C15.9872 155.781 16.0338 155.711 16.0338 155.623V155.29C16.0338 155.29 16.0338 155.29 16.0338 155.296Z" fill="#B2B2B2"/>
<path d="M30.2467 137.706C30.2525 137.536 30.0779 137.32 29.7694 137.139C29.3096 136.87 28.716 136.782 28.4425 136.94C28.3493 136.992 28.3086 137.074 28.3086 137.162C28.3086 137.15 28.3086 137.484 28.3086 137.484C28.3086 137.653 28.4774 137.864 28.7858 138.045C29.2456 138.314 29.8393 138.402 30.1128 138.244C30.2001 138.191 30.2467 138.121 30.2467 138.033V137.7C30.2467 137.706 30.2467 137.706 30.2467 137.706Z" fill="#B2B2B2"/>
<path d="M33.6744 155.277C33.4299 155.137 33.0342 155.137 32.7897 155.277C32.6675 155.347 32.6093 155.441 32.6093 155.534L32.5977 160.107C32.5977 160.201 32.6617 160.294 32.7839 160.365C33.0283 160.505 33.4241 160.505 33.6685 160.365C33.7908 160.294 33.849 160.201 33.849 160.107L33.8606 155.529C33.8606 155.54 33.8548 155.552 33.8548 155.57C33.8722 155.47 33.814 155.359 33.6744 155.277ZM32.6151 155.575C32.6151 155.587 32.6151 155.593 32.6209 155.605C32.6209 155.593 32.6209 155.581 32.6151 155.575ZM33.6802 155.792C33.7093 155.774 33.7384 155.757 33.7617 155.733C33.7326 155.757 33.7093 155.774 33.6802 155.792ZM33.8257 155.646C33.8315 155.634 33.8431 155.616 33.849 155.605C33.8431 155.616 33.8373 155.634 33.8257 155.646ZM33.7791 155.71C33.7908 155.698 33.8082 155.681 33.814 155.669C33.8024 155.686 33.7908 155.698 33.7791 155.71Z" fill="#9D9D9C"/>
<path d="M33.2276 155.64C33.152 155.64 33.0938 155.582 33.0938 155.506V142.226C33.0938 141.565 33.3207 141.068 33.7398 140.822C34.1588 140.583 34.7001 140.629 35.2704 140.963L36.6556 141.764C36.7196 141.799 36.7429 141.887 36.708 141.951C36.6731 142.015 36.5858 142.039 36.5218 142.004L35.1366 141.202C34.6535 140.922 34.2054 140.875 33.8736 141.062C33.5419 141.255 33.3615 141.664 33.3615 142.226V155.506C33.3673 155.582 33.3033 155.64 33.2276 155.64Z" fill="#575756"/>
<path d="M33.2271 155.641C33.1514 155.641 33.0932 155.582 33.0932 155.506V142.226C33.0932 141.004 32.2377 139.519 31.1842 138.911L29.7991 138.11C29.735 138.074 29.7118 137.987 29.7467 137.922C29.7816 137.858 29.8689 137.835 29.9329 137.87L31.3181 138.671C32.4414 139.326 33.3609 140.916 33.3609 142.226V155.506C33.3668 155.582 33.3027 155.641 33.2271 155.641Z" fill="#575756"/>
<path d="M38.2955 142.36C38.3013 142.19 38.1267 141.974 37.8183 141.793C37.3585 141.524 36.7648 141.436 36.4913 141.594C36.3982 141.647 36.3574 141.729 36.3574 141.816C36.3574 141.805 36.3574 142.138 36.3574 142.138C36.3574 142.307 36.5262 142.518 36.8347 142.699C37.2944 142.968 37.8881 143.056 38.1616 142.898C38.2489 142.845 38.2955 142.775 38.2955 142.688V142.36Z" fill="#B2B2B2"/>
<path d="M52.5084 124.778C52.5142 124.608 52.3396 124.392 52.0311 124.211C51.5714 123.942 50.9777 123.854 50.7042 124.012C50.6111 124.065 50.5703 124.146 50.5703 124.234C50.5703 124.223 50.5703 124.556 50.5703 124.556C50.5703 124.725 50.7391 124.936 51.0476 125.117C51.5073 125.386 52.101 125.474 52.3745 125.316C52.4618 125.263 52.5084 125.193 52.5084 125.105V124.772C52.5084 124.772 52.5084 124.772 52.5084 124.778Z" fill="#B2B2B2"/>
<path d="M55.9361 142.344C55.6916 142.203 55.2959 142.203 55.0514 142.344C54.9292 142.414 54.871 142.507 54.871 142.601L54.8594 147.174C54.8594 147.267 54.9234 147.361 55.0456 147.431C55.2901 147.571 55.6858 147.571 55.9303 147.431C56.0525 147.361 56.1107 147.267 56.1107 147.174L56.1223 142.595C56.1223 142.607 56.1165 142.618 56.1165 142.636C56.134 142.537 56.0758 142.425 55.9361 142.344ZM54.9001 142.712C54.9059 142.718 54.9059 142.729 54.9118 142.741C54.9118 142.729 54.9059 142.724 54.9001 142.712ZM56.0874 142.712C56.0932 142.7 56.1049 142.683 56.1107 142.671C56.1049 142.689 56.0932 142.7 56.0874 142.712Z" fill="#9D9D9C"/>
<path d="M55.4893 142.712C55.4137 142.712 55.3555 142.654 55.3555 142.578V129.298C55.3555 128.637 55.5825 128.14 56.0015 127.895C56.4205 127.655 56.9618 127.702 57.5322 128.035L58.9173 128.836C58.9814 128.871 59.0046 128.959 58.9697 129.023C58.9348 129.088 58.8475 129.111 58.7835 129.076L57.3983 128.275C56.9152 127.994 56.4671 127.947 56.1354 128.134C55.8036 128.327 55.6232 128.737 55.6232 129.298V142.578C55.6232 142.648 55.565 142.712 55.4893 142.712Z" fill="#575756"/>
<path d="M55.4888 142.713C55.4131 142.713 55.3549 142.654 55.3549 142.578V129.299C55.3549 128.076 54.4994 126.591 53.446 125.983L52.0608 125.182C51.9968 125.147 51.9735 125.059 52.0084 124.995C52.0433 124.93 52.1306 124.907 52.1946 124.942L53.5798 125.743C54.7031 126.398 55.6227 127.989 55.6227 129.299V142.578C55.6227 142.649 55.5644 142.713 55.4888 142.713Z" fill="#575756"/>
<path d="M60.5514 129.426C60.5572 129.257 60.3826 129.041 60.0741 128.859C59.6143 128.59 59.0207 128.503 58.7471 128.66C58.654 128.713 58.6133 128.795 58.6133 128.883C58.6133 128.871 58.6133 129.204 58.6133 129.204C58.6133 129.374 58.7821 129.584 59.0905 129.766C59.5503 130.035 60.1439 130.122 60.4175 129.964C60.5048 129.912 60.5514 129.842 60.5514 129.754V129.421C60.5514 129.426 60.5514 129.426 60.5514 129.426Z" fill="#B2B2B2"/>
<path d="M74.7642 111.842C74.7701 111.673 74.5955 111.457 74.287 111.275C73.8272 111.006 73.2336 110.919 72.96 111.076C72.8669 111.129 72.8262 111.211 72.8262 111.299C72.8262 111.287 72.8262 111.62 72.8262 111.62C72.8262 111.79 72.995 112 73.3034 112.182C73.7632 112.451 74.3568 112.538 74.6304 112.38C74.7177 112.328 74.7642 112.258 74.7642 112.17V111.837V111.842Z" fill="#B2B2B2"/>
<path d="M78.1919 129.414C77.9475 129.274 77.5517 129.274 77.3073 129.414C77.1851 129.484 77.1269 129.578 77.1269 129.671L77.1152 134.244C77.1152 134.338 77.1793 134.431 77.3015 134.501C77.5459 134.642 77.9417 134.642 78.1861 134.501C78.3083 134.431 78.3665 134.338 78.3665 134.244L78.3782 129.665C78.3782 129.677 78.3724 129.689 78.3724 129.706C78.3898 129.607 78.3316 129.496 78.1919 129.414ZM77.1327 129.706C77.1327 129.718 77.1327 129.724 77.1385 129.735C77.1385 129.73 77.1385 129.718 77.1327 129.706ZM78.1978 129.928C78.2269 129.911 78.256 129.893 78.2792 129.87C78.2501 129.888 78.2269 129.911 78.1978 129.928ZM78.3433 129.782C78.3491 129.771 78.3607 129.753 78.3665 129.741C78.3607 129.753 78.3549 129.765 78.3433 129.782ZM78.2967 129.847C78.3083 129.835 78.3258 129.817 78.3316 129.806C78.32 129.823 78.3083 129.835 78.2967 129.847Z" fill="#9D9D9C"/>
<path d="M77.7452 129.777C77.6695 129.777 77.6113 129.718 77.6113 129.642V116.362C77.6113 115.702 77.8383 115.205 78.2574 114.959C78.6764 114.719 79.2177 114.766 79.788 115.099L81.1732 115.901C81.2372 115.936 81.2605 116.023 81.2256 116.088C81.1906 116.152 81.1033 116.175 81.0393 116.14L79.6542 115.339C79.1711 115.058 78.723 115.012 78.3912 115.199C78.0595 115.392 77.879 115.801 77.879 116.362V129.642C77.8849 129.718 77.8208 129.777 77.7452 129.777Z" fill="#575756"/>
<path d="M77.7447 129.777C77.669 129.777 77.6108 129.719 77.6108 129.643V116.363C77.6108 115.141 76.7552 113.656 75.7018 113.047L74.3166 112.246C74.2526 112.211 74.2293 112.123 74.2643 112.059C74.2992 111.995 74.3865 111.971 74.4505 112.007L75.8357 112.808C76.9589 113.463 77.8785 115.053 77.8785 116.363V129.643C77.8843 129.719 77.8203 129.777 77.7447 129.777Z" fill="#575756"/>
<path d="M82.8131 116.497C82.8189 116.327 82.6443 116.111 82.3358 115.93C81.876 115.661 81.2824 115.573 81.0089 115.731C80.9157 115.783 80.875 115.865 80.875 115.953C80.875 115.941 80.875 116.275 80.875 116.275C80.875 116.444 81.0438 116.655 81.3522 116.836C81.812 117.105 82.4057 117.193 82.6792 117.035C82.7665 116.982 82.8131 116.912 82.8131 116.824V116.491V116.497Z" fill="#B2B2B2"/>
</g>
<path d="M102.6 138.006L128.5 93H172L105.498 140.63C103.75 141.882 101.528 139.87 102.6 138.006Z" fill="#006DB7"/>
<rect x="120" width="275" height="106" rx="16" fill="#006DB7"/>
<rect x="135.048" y="32.0476" width="41.9048" height="41.9048" rx="20.9524" fill="#6D4C41"/>
<rect x="135.048" y="32.0476" width="41.9048" height="41.9048" rx="20.9524" stroke="white" stroke-width="2.09524"/>
<g clip-path="url(#clip1_176_122313)">
<path d="M160.048 54.6817C157.336 54.6817 154.66 54.6817 151.948 54.6817C151.948 54.7986 151.948 54.904 151.948 55.0093C151.948 57.1339 151.948 59.2575 151.948 61.3821C151.948 62.049 151.701 62.2936 151.03 62.2936C149.879 62.2936 148.728 62.2945 147.575 62.2936C146.97 62.2926 146.707 62.0297 146.706 61.4217C146.706 59.2875 146.706 57.1532 146.706 55.019C146.706 54.9127 146.706 54.8064 146.706 54.6701C146.573 54.6701 146.467 54.6701 146.36 54.6701C144.861 54.6701 143.363 54.671 141.864 54.6701C141.111 54.6691 140.798 54.1742 141.13 53.5073C142.676 50.4132 144.224 47.3211 145.766 44.2251C145.948 43.8627 146.212 43.707 146.619 43.707C152.872 43.7128 159.125 43.7128 165.379 43.707C165.786 43.707 166.05 43.8617 166.231 44.2242C167.773 47.3201 169.323 50.4132 170.868 53.5082C171.201 54.1742 170.885 54.6691 170.131 54.6691C168.533 54.6701 166.935 54.6691 165.29 54.6691C165.29 54.7928 165.29 54.9069 165.29 55.0209C165.29 57.1455 165.29 59.2691 165.29 61.3937C165.29 62.0413 165.038 62.2926 164.389 62.2926C163.228 62.2936 162.067 62.2936 160.906 62.2926C160.321 62.2916 160.05 62.0219 160.05 61.4381C160.049 59.3039 160.049 57.1697 160.049 55.0354C160.048 54.9282 160.048 54.8209 160.048 54.6817ZM151.234 52.358C152.451 49.9241 153.636 47.556 154.834 45.1608C152.418 45.1608 150.047 45.1608 147.635 45.1608C148.833 47.557 150.015 49.9212 151.234 52.358ZM157.161 45.155C158.364 47.5579 159.55 49.9309 160.765 52.357C161.985 49.9154 163.169 47.5454 164.365 45.155C161.945 45.155 159.577 45.155 157.161 45.155ZM146.47 46.022C145.251 48.4597 144.067 50.8279 142.869 53.2241C145.285 53.2241 147.656 53.2241 150.07 53.2241C148.871 50.825 147.688 48.4578 146.47 46.022ZM155.998 46.023C154.777 48.4646 153.592 50.8347 152.398 53.226C154.818 53.226 157.185 53.226 159.601 53.226C158.4 50.8269 157.216 48.4578 155.998 46.023ZM165.528 46.022C164.309 48.4588 163.126 50.8269 161.927 53.2241C164.343 53.2241 166.714 53.2241 169.128 53.2241C167.93 50.826 166.746 48.4588 165.528 46.022ZM148.157 54.6836C148.157 56.754 148.157 58.8003 148.157 60.8398C148.955 60.8398 149.732 60.8398 150.504 60.8398C150.504 58.7761 150.504 56.7366 150.504 54.6836C149.718 54.6836 148.949 54.6836 148.157 54.6836ZM161.499 54.6836C161.499 56.754 161.499 58.8003 161.499 60.8398C162.297 60.8398 163.074 60.8398 163.845 60.8398C163.845 58.7761 163.845 56.7366 163.845 54.6836C163.06 54.6836 162.29 54.6836 161.499 54.6836Z" fill="white"/>
</g>
<path d="M193.722 47V29.5455H200.267C201.608 29.5455 202.733 29.7955 203.642 30.2955C204.557 30.7955 205.247 31.483 205.713 32.358C206.185 33.2273 206.42 34.2159 206.42 35.3239C206.42 36.4432 206.185 37.4375 205.713 38.3068C205.241 39.1761 204.545 39.8608 203.625 40.3608C202.705 40.8551 201.571 41.1023 200.224 41.1023H195.886V38.5028H199.798C200.582 38.5028 201.224 38.3665 201.724 38.0938C202.224 37.821 202.594 37.446 202.832 36.9688C203.077 36.4915 203.199 35.9432 203.199 35.3239C203.199 34.7045 203.077 34.1591 202.832 33.6875C202.594 33.2159 202.222 32.8494 201.716 32.5881C201.216 32.321 200.571 32.1875 199.781 32.1875H196.884V47H193.722ZM217.374 41.4943V33.9091H220.46V47H217.468V44.6733H217.332C217.036 45.4062 216.55 46.0057 215.874 46.4716C215.204 46.9375 214.377 47.1705 213.394 47.1705C212.536 47.1705 211.778 46.9801 211.119 46.5994C210.465 46.2131 209.954 45.6534 209.585 44.9205C209.215 44.1818 209.031 43.2898 209.031 42.2443V33.9091H212.116V41.767C212.116 42.5966 212.343 43.2557 212.798 43.7443C213.252 44.233 213.849 44.4773 214.587 44.4773C215.042 44.4773 215.482 44.3665 215.908 44.1449C216.335 43.9233 216.684 43.5938 216.957 43.1562C217.235 42.7131 217.374 42.1591 217.374 41.4943ZM229.428 47.2557C228.115 47.2557 226.982 46.983 226.027 46.4375C225.078 45.8864 224.348 45.108 223.837 44.1023C223.325 43.0909 223.07 41.9006 223.07 40.5312C223.07 39.1847 223.325 38.0028 223.837 36.9858C224.354 35.9631 225.075 35.1676 226.001 34.5994C226.928 34.0256 228.016 33.7386 229.266 33.7386C230.072 33.7386 230.834 33.8693 231.55 34.1307C232.271 34.3864 232.908 34.7841 233.459 35.3239C234.016 35.8636 234.453 36.5511 234.771 37.3864C235.089 38.2159 235.249 39.2045 235.249 40.3523V41.2983H224.518V39.2188H232.291C232.286 38.6278 232.158 38.1023 231.908 37.642C231.658 37.1761 231.308 36.8097 230.859 36.5426C230.416 36.2756 229.899 36.142 229.308 36.142C228.678 36.142 228.124 36.2955 227.646 36.6023C227.169 36.9034 226.797 37.3011 226.53 37.7955C226.268 38.2841 226.135 38.821 226.129 39.4062V41.2216C226.129 41.983 226.268 42.6364 226.547 43.1818C226.825 43.7216 227.214 44.1364 227.714 44.4261C228.214 44.7102 228.8 44.8523 229.47 44.8523C229.919 44.8523 230.325 44.7898 230.689 44.6648C231.053 44.5341 231.368 44.3438 231.635 44.0938C231.902 43.8438 232.104 43.5341 232.24 43.1648L235.121 43.4886C234.939 44.25 234.592 44.9148 234.081 45.483C233.575 46.0455 232.928 46.483 232.138 46.7955C231.348 47.1023 230.445 47.2557 229.428 47.2557ZM240.944 39.3295V47H237.859V33.9091H240.808V36.1335H240.961C241.262 35.4006 241.742 34.8182 242.401 34.3864C243.066 33.9545 243.887 33.7386 244.864 33.7386C245.768 33.7386 246.555 33.9318 247.225 34.3182C247.901 34.7045 248.424 35.2642 248.793 35.9972C249.168 36.7301 249.353 37.6193 249.347 38.6648V47H246.262V39.142C246.262 38.267 246.035 37.5824 245.58 37.0881C245.131 36.5937 244.509 36.3466 243.714 36.3466C243.174 36.3466 242.694 36.4659 242.273 36.7045C241.859 36.9375 241.532 37.2756 241.293 37.7188C241.06 38.1619 240.944 38.6989 240.944 39.3295ZM259.021 33.9091V36.2955H251.495V33.9091H259.021ZM253.353 30.7727H256.438V43.0625C256.438 43.4773 256.501 43.7955 256.626 44.017C256.756 44.233 256.927 44.3807 257.137 44.4602C257.347 44.5398 257.58 44.5795 257.836 44.5795C258.029 44.5795 258.205 44.5653 258.364 44.5369C258.529 44.5085 258.654 44.483 258.739 44.4602L259.259 46.8722C259.094 46.929 258.859 46.9915 258.552 47.0597C258.251 47.1278 257.881 47.1676 257.444 47.179C256.671 47.2017 255.975 47.0852 255.356 46.8295C254.737 46.5682 254.245 46.1648 253.881 45.6193C253.523 45.0739 253.347 44.392 253.353 43.5739V30.7727ZM267.256 47.2557C265.943 47.2557 264.81 46.983 263.855 46.4375C262.906 45.8864 262.176 45.108 261.665 44.1023C261.153 43.0909 260.898 41.9006 260.898 40.5312C260.898 39.1847 261.153 38.0028 261.665 36.9858C262.182 35.9631 262.903 35.1676 263.83 34.5994C264.756 34.0256 265.844 33.7386 267.094 33.7386C267.901 33.7386 268.662 33.8693 269.378 34.1307C270.099 34.3864 270.736 34.7841 271.287 35.3239C271.844 35.8636 272.281 36.5511 272.599 37.3864C272.918 38.2159 273.077 39.2045 273.077 40.3523V41.2983H262.347V39.2188H270.119C270.114 38.6278 269.986 38.1023 269.736 37.642C269.486 37.1761 269.136 36.8097 268.688 36.5426C268.244 36.2756 267.727 36.142 267.136 36.142C266.506 36.142 265.952 36.2955 265.474 36.6023C264.997 36.9034 264.625 37.3011 264.358 37.7955C264.097 38.2841 263.963 38.821 263.957 39.4062V41.2216C263.957 41.983 264.097 42.6364 264.375 43.1818C264.653 43.7216 265.043 44.1364 265.543 44.4261C266.043 44.7102 266.628 44.8523 267.298 44.8523C267.747 44.8523 268.153 44.7898 268.517 44.6648C268.881 44.5341 269.196 44.3438 269.463 44.0938C269.73 43.8438 269.932 43.5341 270.068 43.1648L272.949 43.4886C272.767 44.25 272.42 44.9148 271.909 45.483C271.403 46.0455 270.756 46.483 269.966 46.7955C269.176 47.1023 268.273 47.2557 267.256 47.2557ZM291.262 34.3438C291.183 33.5994 290.847 33.0199 290.256 32.6051C289.671 32.1903 288.91 31.983 287.972 31.983C287.313 31.983 286.748 32.0824 286.276 32.2812C285.805 32.4801 285.444 32.75 285.194 33.0909C284.944 33.4318 284.816 33.821 284.81 34.2585C284.81 34.6222 284.893 34.9375 285.058 35.2045C285.228 35.4716 285.458 35.6989 285.748 35.8864C286.038 36.0682 286.359 36.2216 286.711 36.3466C287.063 36.4716 287.418 36.5767 287.776 36.6619L289.413 37.071C290.072 37.2244 290.705 37.4318 291.313 37.6932C291.927 37.9545 292.475 38.2841 292.958 38.6818C293.447 39.0795 293.833 39.5597 294.117 40.1222C294.401 40.6847 294.543 41.3437 294.543 42.0994C294.543 43.1222 294.282 44.0227 293.759 44.8011C293.237 45.5739 292.481 46.179 291.492 46.6165C290.509 47.0483 289.319 47.2642 287.921 47.2642C286.563 47.2642 285.384 47.054 284.384 46.6335C283.39 46.2131 282.612 45.5994 282.049 44.7926C281.492 43.9858 281.191 43.0028 281.146 41.8438H284.256C284.302 42.4517 284.489 42.9574 284.819 43.3608C285.148 43.7642 285.577 44.0653 286.106 44.2642C286.64 44.4631 287.237 44.5625 287.896 44.5625C288.583 44.5625 289.185 44.4602 289.702 44.2557C290.225 44.0455 290.634 43.7557 290.93 43.3864C291.225 43.0114 291.376 42.5739 291.381 42.0739C291.376 41.6193 291.242 41.2443 290.981 40.9489C290.719 40.6477 290.353 40.3977 289.881 40.1989C289.415 39.9943 288.87 39.8125 288.245 39.6534L286.259 39.142C284.822 38.7727 283.685 38.2131 282.85 37.4631C282.021 36.7074 281.606 35.7045 281.606 34.4545C281.606 33.4261 281.884 32.5256 282.441 31.7528C283.004 30.9801 283.768 30.3807 284.734 29.9545C285.7 29.5227 286.793 29.3068 288.015 29.3068C289.254 29.3068 290.339 29.5227 291.271 29.9545C292.208 30.3807 292.944 30.9744 293.478 31.7358C294.012 32.4915 294.288 33.3608 294.305 34.3438H291.262ZM300.993 47.2642C300.163 47.2642 299.416 47.1165 298.751 46.821C298.092 46.5199 297.57 46.0767 297.183 45.4915C296.803 44.9062 296.612 44.1847 296.612 43.3267C296.612 42.5881 296.749 41.9773 297.021 41.4943C297.294 41.0114 297.666 40.625 298.138 40.3352C298.609 40.0455 299.141 39.8267 299.732 39.679C300.328 39.5256 300.945 39.4148 301.581 39.3466C302.348 39.267 302.97 39.196 303.447 39.1335C303.925 39.0653 304.271 38.9631 304.487 38.8267C304.709 38.6847 304.82 38.4659 304.82 38.1705V38.1193C304.82 37.4773 304.629 36.9801 304.249 36.6278C303.868 36.2756 303.32 36.0994 302.604 36.0994C301.848 36.0994 301.249 36.2642 300.805 36.5938C300.368 36.9233 300.072 37.3125 299.919 37.7614L297.038 37.3523C297.266 36.5568 297.641 35.892 298.163 35.358C298.686 34.8182 299.325 34.4148 300.081 34.1477C300.837 33.875 301.672 33.7386 302.587 33.7386C303.217 33.7386 303.845 33.8125 304.47 33.9602C305.095 34.108 305.666 34.3523 306.183 34.6932C306.7 35.0284 307.115 35.4858 307.428 36.0653C307.746 36.6449 307.905 37.3693 307.905 38.2386V47H304.939V45.2017H304.837C304.649 45.5653 304.385 45.9062 304.044 46.2244C303.709 46.5369 303.286 46.7898 302.774 46.983C302.268 47.1705 301.675 47.2642 300.993 47.2642ZM301.794 44.9972C302.413 44.9972 302.95 44.875 303.405 44.6307C303.859 44.3807 304.209 44.0511 304.453 43.642C304.703 43.233 304.828 42.7869 304.828 42.304V40.7614C304.732 40.8409 304.567 40.9148 304.334 40.983C304.107 41.0511 303.851 41.1108 303.567 41.1619C303.283 41.2131 303.001 41.2585 302.723 41.2983C302.445 41.3381 302.203 41.3722 301.999 41.4006C301.538 41.4631 301.126 41.5653 300.763 41.7074C300.399 41.8494 300.112 42.0483 299.902 42.304C299.692 42.554 299.587 42.8778 299.587 43.2756C299.587 43.8438 299.794 44.2727 300.209 44.5625C300.624 44.8523 301.152 44.9972 301.794 44.9972ZM301.538 32.1875L303.447 28.2926H306.464L303.848 32.1875H301.538ZM314.092 39.3295V47H311.007V33.9091H313.956V36.1335H314.109C314.411 35.4006 314.891 34.8182 315.55 34.3864C316.214 33.9545 317.036 33.7386 318.013 33.7386C318.916 33.7386 319.703 33.9318 320.374 34.3182C321.05 34.7045 321.572 35.2642 321.942 35.9972C322.317 36.7301 322.501 37.6193 322.496 38.6648V47H319.411V39.142C319.411 38.267 319.183 37.5824 318.729 37.0881C318.28 36.5937 317.658 36.3466 316.862 36.3466C316.322 36.3466 315.842 36.4659 315.422 36.7045C315.007 36.9375 314.68 37.2756 314.442 37.7188C314.209 38.1619 314.092 38.6989 314.092 39.3295ZM331.342 47.2557C330.036 47.2557 328.913 46.9688 327.976 46.3949C327.044 45.821 326.325 45.0284 325.82 44.017C325.32 43 325.07 41.8295 325.07 40.5057C325.07 39.1761 325.325 38.0028 325.837 36.9858C326.348 35.9631 327.07 35.1676 328.001 34.5994C328.939 34.0256 330.047 33.7386 331.325 33.7386C332.388 33.7386 333.328 33.9347 334.146 34.3267C334.97 34.7131 335.626 35.2614 336.115 35.9716C336.604 36.6761 336.882 37.5 336.95 38.4432H334.001C333.882 37.8125 333.598 37.2869 333.149 36.8665C332.706 36.4403 332.112 36.2273 331.368 36.2273C330.737 36.2273 330.183 36.3977 329.706 36.7386C329.229 37.0739 328.857 37.5568 328.589 38.1875C328.328 38.8182 328.197 39.5739 328.197 40.4545C328.197 41.3466 328.328 42.1136 328.589 42.7557C328.851 43.392 329.217 43.8835 329.689 44.2301C330.166 44.571 330.726 44.7415 331.368 44.7415C331.822 44.7415 332.229 44.6562 332.587 44.4858C332.95 44.3097 333.254 44.0568 333.499 43.7273C333.743 43.3977 333.911 42.9972 334.001 42.5256H336.95C336.876 43.4517 336.604 44.2727 336.132 44.9886C335.661 45.6989 335.018 46.2557 334.206 46.6591C333.393 47.0568 332.439 47.2557 331.342 47.2557ZM342.569 39.3295V47H339.484V29.5455H342.501V36.1335H342.654C342.961 35.3949 343.435 34.8125 344.077 34.3864C344.725 33.9545 345.549 33.7386 346.549 33.7386C347.458 33.7386 348.251 33.929 348.927 34.3097C349.603 34.6903 350.126 35.2472 350.495 35.9801C350.87 36.7131 351.058 37.608 351.058 38.6648V47H347.972V39.142C347.972 38.2614 347.745 37.5767 347.29 37.0881C346.842 36.5937 346.211 36.3466 345.398 36.3466C344.853 36.3466 344.364 36.4659 343.933 36.7045C343.506 36.9375 343.171 37.2756 342.927 37.7188C342.688 38.1619 342.569 38.6989 342.569 39.3295ZM359.998 47.2557C358.685 47.2557 357.552 46.983 356.597 46.4375C355.648 45.8864 354.918 45.108 354.407 44.1023C353.896 43.0909 353.64 41.9006 353.64 40.5312C353.64 39.1847 353.896 38.0028 354.407 36.9858C354.924 35.9631 355.646 35.1676 356.572 34.5994C357.498 34.0256 358.586 33.7386 359.836 33.7386C360.643 33.7386 361.404 33.8693 362.12 34.1307C362.842 34.3864 363.478 34.7841 364.029 35.3239C364.586 35.8636 365.023 36.5511 365.342 37.3864C365.66 38.2159 365.819 39.2045 365.819 40.3523V41.2983H355.089V39.2188H362.862C362.856 38.6278 362.728 38.1023 362.478 37.642C362.228 37.1761 361.879 36.8097 361.43 36.5426C360.987 36.2756 360.469 36.142 359.879 36.142C359.248 36.142 358.694 36.2955 358.217 36.6023C357.739 36.9034 357.367 37.3011 357.1 37.7955C356.839 38.2841 356.705 38.821 356.7 39.4062V41.2216C356.7 41.983 356.839 42.6364 357.117 43.1818C357.396 43.7216 357.785 44.1364 358.285 44.4261C358.785 44.7102 359.37 44.8523 360.04 44.8523C360.489 44.8523 360.896 44.7898 361.259 44.6648C361.623 44.5341 361.938 44.3438 362.205 44.0938C362.472 43.8438 362.674 43.5341 362.81 43.1648L365.691 43.4886C365.509 44.25 365.163 44.9148 364.651 45.483C364.146 46.0455 363.498 46.483 362.708 46.7955C361.918 47.1023 361.015 47.2557 359.998 47.2557ZM368.259 47V45.0398L375.009 36.5767V36.4659H368.48V33.9091H378.784V36.0142L372.358 44.3324V44.4432H379.006V47H368.259ZM208.662 64.4347H205.474C205.384 63.9119 205.216 63.4489 204.972 63.0455C204.727 62.6364 204.423 62.2898 204.06 62.0057C203.696 61.7216 203.281 61.5085 202.815 61.3665C202.355 61.2188 201.858 61.1449 201.324 61.1449C200.375 61.1449 199.534 61.3835 198.801 61.8608C198.068 62.3324 197.494 63.0256 197.08 63.9403C196.665 64.8494 196.457 65.9602 196.457 67.2727C196.457 68.608 196.665 69.733 197.08 70.6477C197.5 71.5568 198.074 72.2443 198.801 72.7102C199.534 73.1705 200.372 73.4006 201.315 73.4006C201.838 73.4006 202.327 73.3324 202.781 73.196C203.241 73.054 203.653 72.8466 204.017 72.5739C204.386 72.3011 204.696 71.9659 204.946 71.5682C205.202 71.1705 205.378 70.7159 205.474 70.2045L208.662 70.2216C208.543 71.0511 208.284 71.8295 207.886 72.5568C207.494 73.2841 206.98 73.9261 206.344 74.483C205.707 75.0341 204.963 75.4659 204.111 75.7784C203.259 76.0852 202.313 76.2386 201.273 76.2386C199.739 76.2386 198.369 75.8835 197.165 75.1733C195.96 74.4631 195.011 73.4375 194.318 72.0966C193.625 70.7557 193.278 69.1477 193.278 67.2727C193.278 65.392 193.628 63.7841 194.327 62.4489C195.026 61.108 195.977 60.0824 197.182 59.3722C198.386 58.6619 199.75 58.3068 201.273 58.3068C202.244 58.3068 203.148 58.4432 203.983 58.7159C204.818 58.9886 205.563 59.3892 206.216 59.9176C206.869 60.4403 207.406 61.0824 207.827 61.8438C208.253 62.5994 208.531 63.4631 208.662 64.4347ZM217.217 76.2557C215.904 76.2557 214.771 75.983 213.816 75.4375C212.867 74.8864 212.137 74.108 211.626 73.1023C211.114 72.0909 210.859 70.9006 210.859 69.5312C210.859 68.1847 211.114 67.0028 211.626 65.9858C212.143 64.9631 212.864 64.1676 213.79 63.5994C214.717 63.0256 215.805 62.7386 217.055 62.7386C217.862 62.7386 218.623 62.8693 219.339 63.1307C220.06 63.3864 220.697 63.7841 221.248 64.3239C221.805 64.8636 222.242 65.5511 222.56 66.3864C222.879 67.2159 223.038 68.2045 223.038 69.3523V70.2983H212.308V68.2188H220.08C220.075 67.6278 219.947 67.1023 219.697 66.642C219.447 66.1761 219.097 65.8097 218.648 65.5426C218.205 65.2756 217.688 65.142 217.097 65.142C216.467 65.142 215.913 65.2955 215.435 65.6023C214.958 65.9034 214.586 66.3011 214.319 66.7955C214.058 67.2841 213.924 67.821 213.918 68.4062V70.2216C213.918 70.983 214.058 71.6364 214.336 72.1818C214.614 72.7216 215.004 73.1364 215.504 73.4261C216.004 73.7102 216.589 73.8523 217.259 73.8523C217.708 73.8523 218.114 73.7898 218.478 73.6648C218.842 73.5341 219.157 73.3438 219.424 73.0938C219.691 72.8438 219.893 72.5341 220.029 72.1648L222.91 72.4886C222.728 73.25 222.381 73.9148 221.87 74.483C221.364 75.0455 220.717 75.483 219.927 75.7955C219.137 76.1023 218.234 76.2557 217.217 76.2557ZM225.648 76V62.9091H228.639V65.0909H228.776C229.014 64.3352 229.423 63.7528 230.003 63.3438C230.588 62.929 231.256 62.7216 232.006 62.7216C232.176 62.7216 232.366 62.7301 232.577 62.7472C232.793 62.7585 232.972 62.7784 233.114 62.8068V65.6449C232.983 65.5994 232.776 65.5597 232.491 65.5256C232.213 65.4858 231.943 65.4659 231.682 65.4659C231.119 65.4659 230.614 65.5881 230.165 65.8324C229.722 66.071 229.372 66.4034 229.116 66.8295C228.861 67.2557 228.733 67.7472 228.733 68.304V76H225.648ZM235.163 76V62.9091H238.155V65.0909H238.291C238.53 64.3352 238.939 63.7528 239.518 63.3438C240.104 62.929 240.771 62.7216 241.521 62.7216C241.692 62.7216 241.882 62.7301 242.092 62.7472C242.308 62.7585 242.487 62.7784 242.629 62.8068V65.6449C242.499 65.5994 242.291 65.5597 242.007 65.5256C241.729 65.4858 241.459 65.4659 241.197 65.4659C240.635 65.4659 240.129 65.5881 239.68 65.8324C239.237 66.071 238.888 66.4034 238.632 66.8295C238.376 67.2557 238.249 67.7472 238.249 68.304V76H235.163ZM249.85 76.2557C248.572 76.2557 247.464 75.9744 246.526 75.4119C245.589 74.8494 244.862 74.0625 244.344 73.0511C243.833 72.0398 243.577 70.858 243.577 69.5057C243.577 68.1534 243.833 66.9687 244.344 65.9517C244.862 64.9347 245.589 64.1449 246.526 63.5824C247.464 63.0199 248.572 62.7386 249.85 62.7386C251.129 62.7386 252.237 63.0199 253.174 63.5824C254.112 64.1449 254.836 64.9347 255.347 65.9517C255.864 66.9687 256.123 68.1534 256.123 69.5057C256.123 70.858 255.864 72.0398 255.347 73.0511C254.836 74.0625 254.112 74.8494 253.174 75.4119C252.237 75.9744 251.129 76.2557 249.85 76.2557ZM249.867 73.7841C250.56 73.7841 251.14 73.5937 251.606 73.2131C252.072 72.8267 252.418 72.3097 252.646 71.6619C252.879 71.0142 252.995 70.2926 252.995 69.4972C252.995 68.696 252.879 67.9716 252.646 67.3239C252.418 66.6705 252.072 66.1506 251.606 65.7642C251.14 65.3778 250.56 65.1847 249.867 65.1847C249.157 65.1847 248.566 65.3778 248.094 65.7642C247.629 66.1506 247.279 66.6705 247.046 67.3239C246.819 67.9716 246.705 68.696 246.705 69.4972C246.705 70.2926 246.819 71.0142 247.046 71.6619C247.279 72.3097 247.629 72.8267 248.094 73.2131C248.566 73.5937 249.157 73.7841 249.867 73.7841Z" fill="white"/>
<defs>
<clipPath id="clip0_176_122313">
<rect width="89" height="90" fill="white" transform="translate(0 111)"/>
</clipPath>
<clipPath id="clip1_176_122313">
<rect width="30" height="18.5875" fill="white" transform="translate(141 43.707)"/>
</clipPath>
</defs>
</svg>
