<svg width="440" height="168" viewBox="0 0 440 168" fill="none" xmlns="http://www.w3.org/2000/svg">
<rect x="150" width="290" height="92" rx="18" fill="#006DB7"/>
<path d="M94 122L205.5 86.026L173.5 62L94 122Z" fill="#006DB7"/>
<rect x="162" y="24" width="44" height="44" rx="22" fill="#F15B5B"/>
<path d="M191 39H188V38C188 37.2044 187.684 36.4413 187.121 35.8787C186.559 35.3161 185.796 35 185 35H183C182.204 35 181.441 35.3161 180.879 35.8787C180.316 36.4413 180 37.2044 180 38V39H177C175.674 39.0016 174.404 39.5289 173.466 40.4662C172.529 41.4036 172.002 42.6744 172 44V52C172.002 53.3256 172.529 54.5964 173.466 55.5338C174.404 56.4711 175.674 56.9984 177 57H191C192.326 56.9984 193.596 56.4711 194.534 55.5338C195.471 54.5964 195.998 53.3256 196 52V44C195.998 42.6744 195.471 41.4036 194.534 40.4662C193.596 39.5289 192.326 39.0016 191 39ZM182 38C182 37.7348 182.105 37.4804 182.293 37.2929C182.48 37.1054 182.735 37 183 37H185C185.265 37 185.52 37.1054 185.707 37.2929C185.895 37.4804 186 37.7348 186 38V39H182V38ZM194 52C194 52.7956 193.684 53.5587 193.121 54.1213C192.559 54.6839 191.796 55 191 55H177C176.204 55 175.441 54.6839 174.879 54.1213C174.316 53.5587 174 52.7956 174 52V44C174 43.2044 174.316 42.4413 174.879 41.8787C175.441 41.3161 176.204 41 177 41H191C191.796 41 192.559 41.3161 193.121 41.8787C193.684 42.4413 194 43.2044 194 44V52ZM188 48C188 48.2652 187.895 48.5196 187.707 48.7071C187.52 48.8946 187.265 49 187 49H185V51C185 51.2652 184.895 51.5196 184.707 51.7071C184.52 51.8946 184.265 52 184 52C183.735 52 183.48 51.8946 183.293 51.7071C183.105 51.5196 183 51.2652 183 51V49H181C180.735 49 180.48 48.8946 180.293 48.7071C180.105 48.5196 180 48.2652 180 48C180 47.7348 180.105 47.4804 180.293 47.2929C180.48 47.1054 180.735 47 181 47H183V45C183 44.7348 183.105 44.4804 183.293 44.2929C183.48 44.1054 183.735 44 184 44C184.265 44 184.52 44.1054 184.707 44.2929C184.895 44.4804 185 44.7348 185 45V47H187C187.265 47 187.52 47.1054 187.707 47.2929C187.895 47.4804 188 47.7348 188 48Z" fill="white"/>
<path d="M240.05 42.4709H236.597C236.499 41.9046 236.317 41.4029 236.053 40.9659C235.788 40.5227 235.459 40.1473 235.065 39.8395C234.671 39.5317 234.221 39.3009 233.717 39.147C233.218 38.987 232.679 38.907 232.101 38.907C231.073 38.907 230.162 39.1655 229.368 39.6825C228.574 40.1934 227.952 40.9444 227.503 41.9354C227.054 42.9202 226.829 44.1236 226.829 45.5455C226.829 46.992 227.054 48.2107 227.503 49.2017C227.958 50.1866 228.58 50.9313 229.368 51.4361C230.162 51.9347 231.07 52.1839 232.092 52.1839C232.658 52.1839 233.187 52.1101 233.68 51.9624C234.178 51.8085 234.625 51.5838 235.018 51.2884C235.419 50.9929 235.754 50.6297 236.025 50.1989C236.302 49.768 236.493 49.2756 236.597 48.7216L240.05 48.7401C239.921 49.6387 239.641 50.482 239.21 51.2699C238.786 52.0578 238.228 52.7533 237.539 53.3565C236.85 53.9536 236.043 54.4214 235.12 54.7599C234.197 55.0923 233.172 55.2585 232.045 55.2585C230.384 55.2585 228.9 54.8738 227.595 54.1044C226.29 53.335 225.262 52.224 224.511 50.7713C223.76 49.3187 223.385 47.5767 223.385 45.5455C223.385 43.508 223.763 41.7661 224.521 40.3196C225.278 38.867 226.309 37.7559 227.614 36.9865C228.919 36.2171 230.396 35.8324 232.045 35.8324C233.098 35.8324 234.077 35.9801 234.982 36.2756C235.886 36.571 236.693 37.005 237.401 37.5774C238.108 38.1437 238.69 38.8393 239.146 39.6641C239.607 40.4827 239.909 41.4183 240.05 42.4709ZM249.318 55.277C247.896 55.277 246.668 54.9815 245.634 54.3906C244.606 53.7936 243.815 52.9503 243.261 51.8608C242.707 50.7652 242.43 49.4756 242.43 47.9922C242.43 46.5334 242.707 45.2531 243.261 44.1513C243.821 43.0433 244.603 42.1816 245.606 41.5661C246.61 40.9444 247.788 40.6335 249.143 40.6335C250.017 40.6335 250.841 40.7751 251.617 41.0582C252.399 41.3352 253.088 41.7661 253.685 42.3509C254.288 42.9356 254.762 43.6804 255.107 44.5852C255.452 45.4839 255.624 46.5549 255.624 47.7983V48.8232H244V46.5703H252.42C252.414 45.9302 252.276 45.3608 252.005 44.8622C251.734 44.3575 251.355 43.9605 250.869 43.6712C250.389 43.3819 249.829 43.2372 249.189 43.2372C248.506 43.2372 247.905 43.4034 247.388 43.7358C246.871 44.062 246.468 44.4929 246.179 45.0284C245.896 45.5578 245.751 46.1394 245.745 46.7734V48.7401C245.745 49.5649 245.896 50.2727 246.197 50.8636C246.499 51.4484 246.921 51.8977 247.462 52.2116C248.004 52.5194 248.638 52.6733 249.364 52.6733C249.85 52.6733 250.291 52.6056 250.684 52.4702C251.078 52.3286 251.42 52.1224 251.709 51.8516C251.999 51.5807 252.217 51.2453 252.365 50.8452L255.486 51.196C255.289 52.0208 254.913 52.741 254.359 53.3565C253.811 53.9659 253.11 54.4399 252.254 54.7784C251.398 55.1108 250.42 55.277 249.318 55.277ZM261.794 46.6903V55H258.452V40.8182H261.646V43.228H261.812C262.139 42.4339 262.659 41.803 263.373 41.3352C264.093 40.8674 264.982 40.6335 266.041 40.6335C267.02 40.6335 267.872 40.8428 268.599 41.2614C269.331 41.6799 269.897 42.2862 270.298 43.0803C270.704 43.8743 270.904 44.8376 270.898 45.9702V55H267.555V46.4872C267.555 45.5393 267.309 44.7976 266.817 44.2621C266.33 43.7266 265.656 43.4588 264.795 43.4588C264.21 43.4588 263.69 43.5881 263.234 43.8466C262.785 44.099 262.431 44.4652 262.173 44.9453C261.92 45.4254 261.794 46.0071 261.794 46.6903ZM281.377 40.8182V43.4034H273.224V40.8182H281.377ZM275.237 37.4205H278.58V50.7344C278.58 51.1837 278.647 51.5284 278.783 51.7685C278.924 52.0024 279.109 52.1624 279.337 52.2486C279.564 52.3348 279.817 52.3778 280.094 52.3778C280.303 52.3778 280.494 52.3625 280.666 52.3317C280.845 52.3009 280.98 52.2732 281.072 52.2486L281.636 54.8615C281.457 54.9231 281.202 54.9908 280.869 55.0646C280.543 55.1385 280.143 55.1816 279.669 55.1939C278.832 55.2185 278.078 55.0923 277.407 54.8153C276.736 54.5322 276.204 54.0952 275.81 53.5043C275.422 52.9134 275.231 52.1747 275.237 51.2884V37.4205ZM284.172 55V40.8182H287.413V43.1818H287.561C287.819 42.3632 288.263 41.7322 288.89 41.2891C289.524 40.8397 290.248 40.6151 291.06 40.6151C291.245 40.6151 291.451 40.6243 291.679 40.6428C291.913 40.6551 292.107 40.6766 292.26 40.7074V43.782C292.119 43.7327 291.894 43.6896 291.586 43.6527C291.285 43.6096 290.992 43.5881 290.709 43.5881C290.1 43.5881 289.552 43.7204 289.066 43.9851C288.586 44.2436 288.207 44.6037 287.93 45.0653C287.653 45.527 287.515 46.0594 287.515 46.6626V55H284.172ZM300.083 55.277C298.698 55.277 297.498 54.9723 296.482 54.3629C295.467 53.7536 294.679 52.901 294.119 51.8054C293.565 50.7098 293.288 49.4295 293.288 47.9645C293.288 46.4995 293.565 45.2161 294.119 44.1143C294.679 43.0125 295.467 42.157 296.482 41.5476C297.498 40.9382 298.698 40.6335 300.083 40.6335C301.468 40.6335 302.668 40.9382 303.684 41.5476C304.7 42.157 305.484 43.0125 306.038 44.1143C306.598 45.2161 306.879 46.4995 306.879 47.9645C306.879 49.4295 306.598 50.7098 306.038 51.8054C305.484 52.901 304.7 53.7536 303.684 54.3629C302.668 54.9723 301.468 55.277 300.083 55.277ZM300.102 52.5994C300.853 52.5994 301.48 52.3932 301.985 51.9808C302.49 51.5623 302.865 51.0021 303.112 50.3004C303.364 49.5987 303.49 48.817 303.49 47.9553C303.49 47.0874 303.364 46.3026 303.112 45.6009C302.865 44.893 302.49 44.3298 301.985 43.9112C301.48 43.4927 300.853 43.2834 300.102 43.2834C299.332 43.2834 298.692 43.4927 298.181 43.9112C297.676 44.3298 297.298 44.893 297.045 45.6009C296.799 46.3026 296.676 47.0874 296.676 47.9553C296.676 48.817 296.799 49.5987 297.045 50.3004C297.298 51.0021 297.676 51.5623 298.181 51.9808C298.692 52.3932 299.332 52.5994 300.102 52.5994ZM321.427 55.2493C320.313 55.2493 319.316 54.9631 318.436 54.3906C317.556 53.8182 316.86 52.9872 316.349 51.8977C315.838 50.8082 315.583 49.4848 315.583 47.9276C315.583 46.3518 315.841 45.0223 316.358 43.9389C316.882 42.8494 317.586 42.0277 318.473 41.4737C319.359 40.9136 320.347 40.6335 321.437 40.6335C322.268 40.6335 322.951 40.7751 323.486 41.0582C324.022 41.3352 324.447 41.6707 324.76 42.0646C325.074 42.4524 325.318 42.8187 325.49 43.1634H325.628V36.0909H328.98V55H325.693V52.7656H325.49C325.318 53.1103 325.068 53.4766 324.742 53.8643C324.416 54.246 323.985 54.5722 323.449 54.843C322.914 55.1139 322.24 55.2493 321.427 55.2493ZM322.36 52.5071C323.068 52.5071 323.671 52.3163 324.17 51.9347C324.668 51.5469 325.047 51.0083 325.305 50.3189C325.564 49.6295 325.693 48.8262 325.693 47.9091C325.693 46.992 325.564 46.1948 325.305 45.5178C325.053 44.8407 324.677 44.3144 324.179 43.9389C323.686 43.5634 323.08 43.3757 322.36 43.3757C321.615 43.3757 320.993 43.5696 320.495 43.9574C319.996 44.3452 319.621 44.8807 319.368 45.5639C319.116 46.2472 318.99 47.0289 318.99 47.9091C318.99 48.7955 319.116 49.5864 319.368 50.282C319.627 50.9714 320.006 51.5161 320.504 51.9162C321.009 52.3101 321.627 52.5071 322.36 52.5071ZM338.82 55.277C337.398 55.277 336.17 54.9815 335.136 54.3906C334.108 53.7936 333.317 52.9503 332.763 51.8608C332.209 50.7652 331.932 49.4756 331.932 47.9922C331.932 46.5334 332.209 45.2531 332.763 44.1513C333.323 43.0433 334.105 42.1816 335.108 41.5661C336.112 40.9444 337.29 40.6335 338.645 40.6335C339.519 40.6335 340.343 40.7751 341.119 41.0582C341.901 41.3352 342.59 41.7661 343.187 42.3509C343.79 42.9356 344.264 43.6804 344.609 44.5852C344.954 45.4839 345.126 46.5549 345.126 47.7983V48.8232H333.502V46.5703H341.922C341.916 45.9302 341.778 45.3608 341.507 44.8622C341.236 44.3575 340.857 43.9605 340.371 43.6712C339.891 43.3819 339.331 43.2372 338.691 43.2372C338.007 43.2372 337.407 43.4034 336.89 43.7358C336.373 44.062 335.97 44.4929 335.681 45.0284C335.398 45.5578 335.253 46.1394 335.247 46.7734V48.7401C335.247 49.5649 335.398 50.2727 335.699 50.8636C336.001 51.4484 336.422 51.8977 336.964 52.2116C337.506 52.5194 338.14 52.6733 338.866 52.6733C339.352 52.6733 339.792 52.6056 340.186 52.4702C340.58 52.3286 340.922 52.1224 341.211 51.8516C341.501 51.5807 341.719 51.2453 341.867 50.8452L344.988 51.196C344.791 52.0208 344.415 52.741 343.861 53.3565C343.313 53.9659 342.612 54.4399 341.756 54.7784C340.9 55.1108 339.922 55.277 338.82 55.277ZM364.827 41.2891C364.741 40.4827 364.378 39.8549 363.737 39.4055C363.103 38.9562 362.279 38.7315 361.263 38.7315C360.549 38.7315 359.936 38.8393 359.426 39.0547C358.915 39.2701 358.524 39.5625 358.253 39.9318C357.982 40.3011 357.844 40.7228 357.838 41.1967C357.838 41.5907 357.927 41.9323 358.105 42.2216C358.29 42.5109 358.539 42.7571 358.853 42.9602C359.167 43.1572 359.515 43.3234 359.896 43.4588C360.278 43.5942 360.663 43.7081 361.051 43.8004L362.823 44.2436C363.537 44.4098 364.224 44.6345 364.882 44.9176C365.547 45.2008 366.141 45.5578 366.664 45.9886C367.194 46.4195 367.612 46.9396 367.92 47.549C368.228 48.1584 368.382 48.8724 368.382 49.6911C368.382 50.799 368.098 51.7746 367.532 52.6179C366.966 53.455 366.147 54.1106 365.076 54.5845C364.011 55.0523 362.722 55.2862 361.208 55.2862C359.736 55.2862 358.459 55.0585 357.376 54.603C356.299 54.1475 355.455 53.4827 354.846 52.6087C354.243 51.7346 353.917 50.6697 353.867 49.4141H357.237C357.287 50.0727 357.49 50.6205 357.847 51.0575C358.204 51.4946 358.669 51.8208 359.241 52.0362C359.82 52.2517 360.466 52.3594 361.18 52.3594C361.925 52.3594 362.577 52.2486 363.137 52.027C363.704 51.7992 364.147 51.4853 364.467 51.0852C364.787 50.679 364.95 50.205 364.956 49.6634C364.95 49.1709 364.805 48.7647 364.522 48.4446C364.239 48.1184 363.842 47.8475 363.331 47.6321C362.826 47.4105 362.235 47.2135 361.558 47.0412L359.407 46.4872C357.85 46.0871 356.619 45.4808 355.714 44.6683C354.815 43.8497 354.366 42.7633 354.366 41.4091C354.366 40.295 354.668 39.3194 355.271 38.4822C355.88 37.6451 356.708 36.9957 357.754 36.5341C358.801 36.0663 359.986 35.8324 361.309 35.8324C362.651 35.8324 363.827 36.0663 364.836 36.5341C365.852 36.9957 366.649 37.639 367.227 38.4638C367.806 39.2824 368.105 40.2242 368.123 41.2891H364.827ZM375.369 55.2862C374.47 55.2862 373.661 55.1262 372.94 54.8061C372.226 54.4799 371.66 53.9998 371.241 53.3658C370.829 52.7318 370.623 51.95 370.623 51.0206C370.623 50.2204 370.771 49.5587 371.066 49.0355C371.362 48.5123 371.765 48.0938 372.276 47.7798C372.786 47.4659 373.362 47.2289 374.002 47.0689C374.648 46.9027 375.316 46.7827 376.006 46.7088C376.837 46.6226 377.511 46.5457 378.028 46.478C378.545 46.4041 378.92 46.2933 379.154 46.1456C379.394 45.9917 379.514 45.7547 379.514 45.4347V45.3793C379.514 44.6837 379.308 44.1451 378.896 43.7635C378.483 43.3819 377.889 43.1911 377.114 43.1911C376.295 43.1911 375.646 43.3696 375.165 43.7266C374.692 44.0836 374.371 44.5052 374.205 44.9915L371.085 44.5483C371.331 43.6866 371.737 42.9664 372.303 42.3878C372.87 41.803 373.562 41.366 374.381 41.0767C375.199 40.7812 376.104 40.6335 377.095 40.6335C377.778 40.6335 378.459 40.7135 379.136 40.8736C379.813 41.0336 380.431 41.2983 380.991 41.6676C381.552 42.0308 382.001 42.5263 382.339 43.1541C382.684 43.782 382.857 44.5668 382.857 45.5085V55H379.643V53.0518H379.533C379.33 53.4458 379.043 53.8151 378.674 54.1598C378.311 54.4983 377.852 54.7723 377.298 54.9815C376.75 55.1847 376.107 55.2862 375.369 55.2862ZM376.237 52.8303C376.907 52.8303 377.489 52.6979 377.982 52.4332C378.474 52.1624 378.853 51.8054 379.117 51.3622C379.388 50.919 379.523 50.4358 379.523 49.9126V48.2415C379.419 48.3277 379.24 48.4077 378.988 48.4815C378.742 48.5554 378.465 48.62 378.157 48.6754C377.849 48.7308 377.545 48.7801 377.243 48.8232C376.941 48.8662 376.68 48.9032 376.458 48.9339C375.96 49.0017 375.513 49.1125 375.119 49.2663C374.725 49.4202 374.415 49.6357 374.187 49.9126C373.959 50.1835 373.845 50.5343 373.845 50.9652C373.845 51.5807 374.07 52.0455 374.519 52.3594C374.969 52.6733 375.541 52.8303 376.237 52.8303ZM389.56 36.0909V55H386.217V36.0909H389.56ZM402.036 49.0355V40.8182H405.378V55H402.137V52.4794H401.99C401.669 53.2734 401.143 53.9228 400.411 54.4276C399.684 54.9323 398.789 55.1847 397.724 55.1847C396.794 55.1847 395.973 54.9785 395.259 54.5661C394.551 54.1475 393.997 53.5412 393.597 52.7472C393.197 51.947 392.997 50.9806 392.997 49.848V40.8182H396.339V49.331C396.339 50.2296 396.585 50.9437 397.078 51.473C397.57 52.0024 398.216 52.267 399.017 52.267C399.509 52.267 399.986 52.147 400.448 51.907C400.909 51.6669 401.288 51.3099 401.583 50.8359C401.885 50.3558 402.036 49.7557 402.036 49.0355ZM414.078 55.2493C412.964 55.2493 411.967 54.9631 411.086 54.3906C410.206 53.8182 409.511 52.9872 409 51.8977C408.489 50.8082 408.233 49.4848 408.233 47.9276C408.233 46.3518 408.492 45.0223 409.009 43.9389C409.532 42.8494 410.237 42.0277 411.123 41.4737C412.01 40.9136 412.998 40.6335 414.087 40.6335C414.918 40.6335 415.601 40.7751 416.137 41.0582C416.672 41.3352 417.097 41.6707 417.411 42.0646C417.725 42.4524 417.968 42.8187 418.14 43.1634H418.279V36.0909H421.63V55H418.343V52.7656H418.14C417.968 53.1103 417.719 53.4766 417.392 53.8643C417.066 54.246 416.635 54.5722 416.1 54.843C415.564 55.1139 414.89 55.2493 414.078 55.2493ZM415.01 52.5071C415.718 52.5071 416.321 52.3163 416.82 51.9347C417.319 51.5469 417.697 51.0083 417.956 50.3189C418.214 49.6295 418.343 48.8262 418.343 47.9091C418.343 46.992 418.214 46.1948 417.956 45.5178C417.703 44.8407 417.328 44.3144 416.829 43.9389C416.337 43.5634 415.73 43.3757 415.01 43.3757C414.266 43.3757 413.644 43.5696 413.145 43.9574C412.647 44.3452 412.271 44.8807 412.019 45.5639C411.766 46.2472 411.64 47.0289 411.64 47.9091C411.64 48.7955 411.766 49.5864 412.019 50.282C412.277 50.9714 412.656 51.5161 413.154 51.9162C413.659 52.3101 414.278 52.5071 415.01 52.5071Z" fill="white"/>
<g clip-path="url(#clip0_176_85173)">
<path d="M87 138.988L49.8688 114.07L0 143.084L37.1326 168L87 138.988Z" fill="#C4C443"/>
<path d="M34.5528 157.603L27.1551 161.948L7.94922 149.144L15.2851 144.759L8.61905 140.316L44.7011 118.744L77.917 141.269L41.8362 162.459L34.5528 157.603Z" fill="#807E89"/>
<path d="M44.6789 119.424L76.8402 141.235L41.8543 161.782L34.5709 156.927L27.1732 161.272L9.02047 149.171L16.3563 144.786L9.6903 140.343L44.6789 119.424ZM44.7179 118.064L44.0871 118.441L9.09983 139.358L7.54227 140.289L9.05141 141.295L14.2083 144.732L8.42865 148.187L6.87109 149.118L8.38023 150.123L26.5316 162.223L27.1315 162.623L27.7542 162.256L34.5305 158.277L41.2141 162.733L41.8139 163.132L42.4367 162.766L77.4239 142.219L78.9882 141.3L77.4871 140.282L45.3258 118.476L44.7179 118.064Z" fill="#EAE3E1"/>
<path opacity="0.4" d="M44.0664 158.164L55.549 157.107L83.4398 140.936L72.892 134.346L56.079 140.298L48.7727 143.025L47.0174 145.792L44.1189 151.694L44.0664 158.164Z" fill="#382C36"/>
<path d="M44.0676 158.089L15.3281 139.088V96.6152L44.0676 115.616V158.089Z" fill="#F4F5F7"/>
<path d="M44.0676 158.11L15.3281 139.109V136.207L44.0676 155.209V158.11Z" fill="#CAE2EF"/>
<path opacity="0.1" d="M38.8242 154.642L38.9399 134.156L41.7483 140.651V144.721L39.5774 143.388L39.5922 155.157L38.8242 154.642Z" fill="#382C36"/>
<path d="M44.0676 117.029L15.3281 97.9899V96.6152L44.0676 115.616V117.029Z" fill="#BDCAD3"/>
<path d="M44.0664 158.093L73.0332 141.264V98.791L44.0664 115.62V158.093Z" fill="#BDCAD3"/>
<path d="M37.8594 155.385L38.9004 154.63V138.607L37.8594 139.134V155.385Z" fill="#CACAC8"/>
<path d="M73.0353 98.7917L44.2958 79.791L15.3438 96.6151L44.0833 115.616L73.0353 98.7917Z" fill="#F99770"/>
<path d="M44.0676 121.528L15.3281 102.528V99.627L44.0676 118.626V121.528Z" fill="#CAE2EF"/>
<path d="M44.0703 121.535L73.0371 104.705V101.805L44.0703 118.633V121.535Z" fill="#4B7CA4"/>
<path d="M44.0703 158.115L73.0371 141.286V138.385L44.0703 155.214V158.115Z" fill="#4B7CA4" stroke="#4B7CA4" stroke-width="0.172131" stroke-miterlimit="10"/>
<path d="M73.753 98.7912V97.43L44.3316 79.3613L14.625 95.2534V96.6146L44.0478 116.044L73.753 98.7912Z" fill="#EBF2FA"/>
<path d="M44.3316 79.3613L44.0478 115.055L44.0195 116.397L44.0478 116.044L73.753 98.7912V97.43L44.3316 79.3613Z" fill="#CACAC8"/>
<path d="M73.753 97.4299L44.3316 78L14.625 95.2533L44.0478 114.684L73.753 97.4299Z" fill="white"/>
<path d="M71.344 97.4309L44.2105 79.4414L17.0312 95.253L44.1648 113.243L71.344 97.4309Z" fill="#D4D4D4"/>
<path d="M44.2105 79.4414L17.0312 95.253L18.8202 96.3782L44.2105 81.5872V79.4414Z" fill="#C7C7C7"/>
<path d="M44.2109 81.5872L69.5556 98.4502L71.3445 97.4309L44.2109 79.4414V81.5872Z" fill="#F4F5F7"/>
<path opacity="0.1" d="M20.0781 142.198V121.713L22.8879 128.208V132.279L20.717 130.946L20.7305 142.715L20.0781 142.198Z" fill="#7466A4"/>
<path d="M21.793 143.064V127.355L35.7626 136.527V152.244L21.793 143.064Z" fill="#435A5E"/>
<path d="M22.0936 127.915L35.4565 136.69V151.682L22.0936 142.901V127.915ZM21.4883 126.793V127.915V142.9V143.225L21.7613 143.405L35.1243 152.187L36.0645 152.805V151.682V136.69V136.364L35.7915 136.185L22.4285 127.41L21.4883 126.793Z" fill="#EAE3E1"/>
<path opacity="0.6" d="M31.57 148.736L31.8283 141.855L25.5859 139.533V144.798L31.57 148.736Z" fill="#435A5E"/>
<path opacity="0.1" d="M45.0907 112.716L19.5833 95.827L17.0156 95.2383L44.1599 113.248L45.0907 112.716Z" fill="#382C36"/>
<g opacity="0.8">
<path d="M16.7566 112.943L42.1309 129.636V132.632L16.7566 116.064V112.943ZM16.2227 111.953V112.942L16.567 116.58L43.1248 133.844V122.989L42.7644 122.167L17.0499 112.498L16.2227 111.953Z" fill="#BDCAD3"/>
</g>
<path d="M16.4531 115.763V105.262L42.434 122.354V132.726L16.4531 115.763Z" fill="#435A5E"/>
<path d="M16.7551 105.823L42.1293 122.516V132.166L16.7551 115.598V105.823ZM16.1484 104.699V105.823V115.598V115.926L16.4228 116.105L41.797 132.672L42.7359 133.285V132.166V122.516V122.19L42.4628 122.01L17.0886 105.319L16.1484 104.699Z" fill="#EAE3E1"/>
<path d="M18.1054 116.862L16.4375 115.732V105.352L18.1054 106.483V116.862Z" fill="#EAE3E1"/>
<path d="M26.1809 122.142L24.5117 121.011V110.631L26.1809 111.763V122.142Z" fill="#EAE3E1"/>
<path d="M34.2551 127.419L32.5859 126.288V115.908L34.2551 117.04V127.419Z" fill="#EAE3E1"/>
<path d="M42.328 132.698L40.6602 131.568V121.188L42.328 122.319V132.698Z" fill="#EAE3E1"/>
<path d="M19.7747 115.598L18.1055 116.489V106.715L19.7747 107.821V115.598Z" fill="#BDCAD3"/>
<path d="M19.7747 115.598L18.1055 116.488L24.5119 120.683V118.614L19.7747 115.598Z" fill="white"/>
<path d="M27.8514 120.9L26.1836 121.79V112.018L27.8514 113.124V120.9Z" fill="#BDCAD3"/>
<path d="M27.8514 120.898L26.1836 121.789L32.5887 125.985L32.59 123.916L27.8514 120.898Z" fill="white"/>
<path d="M35.9179 126.21L34.25 127.101V117.328L35.9179 118.435V126.21Z" fill="#BDCAD3"/>
<path d="M35.9179 126.211L34.25 127.101L40.6551 131.298L40.6564 129.227L35.9179 126.211Z" fill="white"/>
<path d="M24.6379 145.313L24.0312 144.927V137.055H24.6379V145.313Z" fill="#EAE3E1"/>
<path d="M33.1183 150.56L32.5117 150.172V141.023H33.1183V150.56Z" fill="#EAE3E1"/>
<path d="M25.5871 144.796L24.9805 144.41V135.26H25.5871V144.796Z" fill="#EAE3E1"/>
<path d="M32.1144 149.068L31.5078 148.682V139.531H32.1144V149.068Z" fill="#EAE3E1"/>
<path d="M22.2472 117.171L21.6406 116.783V108.912H22.2472V117.171Z" fill="#EAE3E1"/>
<path d="M30.3215 122.525L29.7148 122.138V114.266H30.3215V122.525Z" fill="#EAE3E1"/>
<path d="M38.4959 127.883L37.8906 127.495V119.623H38.4959V127.883Z" fill="#EAE3E1"/>
<g opacity="0.8">
<path opacity="0.5" d="M71.3769 115.303V118.443L46.0027 132.822V129.826L71.3769 115.303ZM71.9109 114.354L71.0824 114.831L45.7082 129.355L45.4688 129.492V129.779V132.775V133.759L46.2946 133.294L71.6688 118.916L71.9096 118.778V118.488V115.349V114.354H71.9109Z" fill="#ADA17C"/>
</g>
<path d="M45.6953 122.515L71.6775 107.602V118.164L45.6953 132.888V122.515Z" fill="#303A3A"/>
<path d="M71.3754 108.142V117.975L46.0011 132.356V122.705L71.3754 108.142ZM71.982 107.062L71.0418 107.606L45.6676 122.17L45.3945 122.326V122.651V132.302V133.421L46.3334 132.892L71.7076 118.513L71.982 118.356V118.027V108.193V107.062Z" fill="#D1CAC8"/>
<path d="M70.0234 119.128L71.6913 118.136V107.695L70.0234 108.692V119.128Z" fill="#D1CAC8"/>
<path d="M61.9492 123.728L63.6184 122.738V112.316L61.9492 113.31V123.728Z" fill="#D1CAC8"/>
<path d="M53.875 128.309L55.5442 127.323V116.92L53.875 117.91V128.309Z" fill="#D1CAC8"/>
<path d="M45.8008 132.87L47.4686 131.889V121.504L45.8008 122.49V132.87Z" fill="#D1CAC8"/>
<path d="M68.3555 117.713L70.0247 118.752V108.926L68.3555 109.874V117.713Z" fill="#A4B1BA"/>
<path d="M68.3544 117.713L70.0236 118.752L63.6172 122.412V120.333L68.3544 117.713Z" fill="#E6E6E6"/>
<path d="M60.2816 122.335L61.9495 123.374V113.551L60.2695 114.52L60.2816 122.335Z" fill="#A4B1BA"/>
<path d="M60.2802 122.336L61.9481 123.375L55.543 127.019V124.946L60.2802 122.336Z" fill="#E6E6E6"/>
<path d="M52.2109 126.949L53.8788 127.988V118.184L52.2109 119.148V126.949Z" fill="#A4B1BA"/>
<path d="M52.2112 126.949L53.8791 127.989L47.474 131.618L47.4727 129.547L52.2112 126.949Z" fill="#E6E6E6"/>
<path d="M65.8867 119.079L66.492 118.743V110.834L65.8867 110.783V119.079Z" fill="#D1CAC8"/>
<path d="M57.8086 123.751L58.4152 123.416V115.521L57.8086 115.469V123.751Z" fill="#D1CAC8"/>
<path d="M49.6367 128.395L50.2433 128.062V120.181L49.6367 120.129V128.395Z" fill="#D1CAC8"/>
<path d="M37.857 155.385L37.3203 155.047V139.675L37.857 139.369V155.385Z" fill="#F4F5F7"/>
<g opacity="0.1">
<path d="M37.8572 142.93V139.133L38.2055 138.956L38.1248 138.604L37.1658 138.719C37.1658 138.719 35.7091 139.254 35.5168 139.292C35.3258 139.33 33.5234 140.171 33.5234 140.171L37.0891 141.853V142.58L37.8572 142.93Z" fill="#7466A4"/>
</g>
<g opacity="0.8">
<path opacity="0.5" d="M71.3769 130.872V134.012L46.0027 148.391V145.395L71.3769 130.872ZM71.9109 129.924L71.0824 130.401L45.7082 144.925L45.4688 145.062V145.349V148.345V149.33L46.2946 148.864L71.6688 134.486L71.9096 134.348V134.058V130.919V129.924H71.9109Z" fill="#ADA17C"/>
</g>
<path d="M45.6953 138.085L71.6775 123.172V133.734L45.6953 148.457V138.085Z" fill="#303A3A"/>
<path d="M71.3754 123.711V133.544L46.0011 147.926V138.274L71.3754 123.711ZM71.982 122.633L71.0418 123.176L45.6676 137.74L45.3945 137.896V138.222V147.872V148.991L46.3334 148.462L71.7076 134.082L71.982 133.925V133.596V123.762V122.633Z" fill="#D1CAC8"/>
<path d="M70.0234 134.698L71.6913 133.704V123.264L70.0234 124.261V134.698Z" fill="#D1CAC8"/>
<path d="M61.9492 139.298L63.6184 138.308V127.887L61.9492 128.88V139.298Z" fill="#D1CAC8"/>
<path d="M53.875 143.878L55.5442 142.893V132.488L53.875 133.478V143.878Z" fill="#D1CAC8"/>
<path d="M45.8008 148.44L47.4686 147.458V137.074L45.8008 138.059V148.44Z" fill="#D1CAC8"/>
<path d="M68.3555 133.283L70.0247 134.322V124.496L68.3555 125.467V133.283Z" fill="#A4B1BA"/>
<path d="M68.3544 133.283L70.0236 134.323L63.6172 137.981V135.904L68.3544 133.283Z" fill="#E6E6E6"/>
<path d="M60.2812 137.906L61.9491 138.946V129.137L60.2812 130.104V137.906Z" fill="#A4B1BA"/>
<path d="M60.2802 137.906L61.9481 138.946L55.543 142.589V140.515L60.2802 137.906Z" fill="#E6E6E6"/>
<path d="M52.2109 142.52L53.8788 143.559V133.768L52.2109 134.73V142.52Z" fill="#A4B1BA"/>
<path d="M52.2112 142.52L53.8791 143.559L47.474 147.188L47.4727 145.117L52.2112 142.52Z" fill="#E6E6E6"/>
<path d="M65.8867 134.649L66.492 134.312V126.404L65.8867 126.352V134.649Z" fill="#D1CAC8"/>
<path d="M57.8086 139.32L58.4152 138.986V131.091L57.8086 131.039V139.32Z" fill="#D1CAC8"/>
<path d="M49.6367 143.964L50.2433 143.631V135.75L49.6367 135.697V143.964Z" fill="#D1CAC8"/>
<path d="M19.1094 142.829L20.1504 142.302V126.281L19.1094 126.808V142.829Z" fill="#CACAC8"/>
<path d="M19.1109 142.829L18.5742 142.491V127.349L19.1109 127.043V142.829Z" fill="#F4F5F7"/>
<path d="M38.9437 138.77V135.133L11.8008 130.664L30.8641 143.34L38.9437 138.77Z" fill="#CACAC8"/>
<path d="M30.8789 138.088L11.8008 127.025V130.662L30.8641 143.339L30.8789 138.088Z" fill="#F4F5F7"/>
<path d="M38.9419 135.131L19.65 122.34L11.5703 126.91L30.8622 139.702L38.9419 135.131Z" fill="#DCDEE2"/>
<path d="M39.171 134.991V134.204L19.7553 122.787L11.5586 126.179V126.966L30.9743 139.744L39.171 134.991Z" fill="#EBF2FA"/>
<path d="M19.7539 122.9L30.9729 139.071L30.9433 139.84L30.9729 139.859L39.1696 135.106V134.319L19.7539 122.9Z" fill="#CACAC8"/>
<path d="M39.171 134.204L19.7553 121.426L11.5586 126.179L30.9743 138.957L39.171 134.204Z" fill="white"/>
<path d="M36.7606 134.205L19.6342 122.867L13.9648 126.178L31.0913 137.516L36.7606 134.205Z" fill="#D4D4D4"/>
<path d="M19.6342 122.867L13.9648 126.178L14.749 126.717L19.6342 123.865V122.867Z" fill="#C7C7C7"/>
<path d="M19.6367 123.865L35.8566 134.717L36.7631 134.205L19.6367 122.867V123.865Z" fill="#F4F5F7"/>
<path d="M15.0367 131.214L14.9372 131.683L14.6211 131.47L15.0461 129.666L15.4483 129.938L15.8518 132.297L15.5236 132.076L15.4241 131.472L15.0367 131.214ZM15.381 131.094L15.3003 130.597C15.2775 130.457 15.2546 130.287 15.2344 130.149L15.2304 130.146C15.2089 130.256 15.1887 130.4 15.1658 130.506L15.0824 130.893L15.381 131.094Z" fill="#00A200"/>
<path d="M17.3033 132.479C17.3006 132.227 17.2979 131.924 17.3006 131.623L17.2952 131.619C17.2495 131.854 17.1903 132.109 17.1365 132.317L16.963 133.011L16.7249 132.852L16.589 131.955C16.5473 131.682 16.5043 131.357 16.4747 131.066L16.4707 131.063C16.4599 131.336 16.4505 131.652 16.4384 131.902L16.4075 132.672L16.125 132.482L16.2299 130.469L16.6375 130.745L16.7625 131.524C16.8029 131.792 16.8419 132.078 16.8688 132.34L16.8742 132.344C16.9145 132.13 16.9643 131.889 17.01 131.689L17.162 131.102L17.5615 131.373L17.6113 133.482L17.3127 133.281L17.3033 132.479Z" fill="#00A200"/>
<path d="M17.993 131.693C18.0737 131.723 18.2364 131.815 18.3897 131.919C18.5767 132.046 18.691 132.151 18.7879 132.305C18.8807 132.444 18.9479 132.631 18.9452 132.816C18.9426 132.998 18.8699 133.12 18.7166 133.103V133.108C18.8699 133.276 18.9816 133.529 18.9775 133.794C18.9748 133.979 18.917 134.087 18.8309 134.134C18.7314 134.186 18.5659 134.144 18.2983 133.963C18.1476 133.862 18.036 133.771 17.9688 133.71L17.993 131.693ZM18.2727 133.595C18.3023 133.622 18.3386 133.646 18.3911 133.681C18.5296 133.773 18.652 133.777 18.6561 133.562C18.6588 133.355 18.5377 133.19 18.3857 133.087L18.2808 133.016L18.2727 133.595ZM18.2862 132.684L18.3871 132.753C18.5471 132.861 18.6345 132.82 18.6372 132.667C18.6399 132.511 18.5619 132.377 18.4234 132.283C18.3575 132.238 18.3185 132.219 18.2929 132.207L18.2862 132.684Z" fill="#00A200"/>
<path d="M19.6305 132.78L19.6117 133.954C19.6063 134.306 19.691 134.544 19.8471 134.649C20.0071 134.756 20.0986 134.648 20.104 134.287L20.1241 133.115L20.4295 133.321L20.4093 134.463C20.3985 135.09 20.182 135.248 19.8309 135.011C19.4906 134.782 19.2956 134.362 19.305 133.71L19.3225 132.57L19.6305 132.78Z" fill="#00A200"/>
<path d="M20.8189 133.584L21.1269 133.792L21.0946 135.435L21.6313 135.795L21.6232 136.18L20.7812 135.614L20.8189 133.584Z" fill="#00A200"/>
<path d="M22.2596 136.085L22.152 136.539L21.8359 136.327L22.2933 134.586L22.6954 134.858L23.0667 137.154L22.7385 136.934L22.6457 136.347L22.2596 136.085ZM22.6107 135.975L22.5367 135.491C22.5152 135.356 22.495 135.189 22.4775 135.057L22.4735 135.054C22.4506 135.16 22.4278 135.299 22.4022 135.401L22.3121 135.775L22.6107 135.975Z" fill="#00A200"/>
<path d="M23.3672 137.355L23.417 135.346L23.7747 135.588L24.037 136.512C24.1123 136.778 24.185 137.081 24.2388 137.348L24.2442 137.352C24.2307 137.074 24.2321 136.799 24.2401 136.5L24.2563 135.916L24.5374 136.106L24.4822 138.104L24.1621 137.89L23.8944 136.923C23.8205 136.655 23.7384 136.337 23.6779 136.056L23.6725 136.055C23.6739 136.325 23.6712 136.61 23.6618 136.938L23.647 137.542L23.3672 137.355Z" fill="#00A200"/>
<path d="M25.8591 138.974C25.8013 138.978 25.6748 138.938 25.5107 138.826C25.0453 138.514 24.8167 137.922 24.8328 137.354C24.8517 136.673 25.192 136.517 25.6022 136.795C25.7609 136.902 25.8793 137.031 25.9331 137.108L25.8604 137.424C25.7999 137.343 25.7138 137.249 25.6062 137.175C25.3628 137.011 25.1691 137.099 25.1556 137.543C25.1435 137.943 25.2969 138.301 25.5686 138.484C25.66 138.546 25.7636 138.585 25.8241 138.59L25.8591 138.974Z" fill="#00A200"/>
<path d="M27.0082 138.947L26.5119 138.612L26.4971 139.082L27.0513 139.455L27.0392 139.821L26.1797 139.243L26.2416 137.26L27.0768 137.826L27.0647 138.192L26.5375 137.835L26.524 138.247L27.0217 138.582L27.0082 138.947Z" fill="#00A200"/>
<path opacity="0.2" d="M27.4688 128.51V129.105L30.4588 131.106V130.489L27.4688 128.51Z" fill="#435A5E"/>
<g opacity="0.5">
<path d="M23.1762 117.756L22.4688 117.315L23.6188 110.348L24.3949 110.849L23.1762 117.756Z" fill="#BDCAD3"/>
</g>
<g opacity="0.5">
<path d="M31.9116 123.481L30.5195 122.589L31.6695 115.623L32.5949 116.243L32.5882 119.365L31.9116 123.481Z" fill="#BDCAD3"/>
</g>
<g opacity="0.5">
<path d="M39.9927 128.807L39.2422 128.324L40.3882 121.395L40.6854 121.555L40.6787 124.678L39.9927 128.807Z" fill="#BDCAD3"/>
</g>
<g opacity="0.4">
<path d="M32.0602 136.953L26.6558 133.48L27.3781 133.069L28.2363 133.599L30.6708 132.414L29.3123 131.539L30.3641 131.077L27.4884 129.089L25.5072 129.971L23.1708 128.109L20.7121 129.275L22.6772 130.484L22.7081 130.942L15.4705 126.289L13.9492 126.164L22.7081 131.97V132.64L23.6268 133.398L24.9301 133.413L31.0864 137.522L32.0602 136.953Z" fill="#C6BA95"/>
</g>
<path d="M27.6439 127.787L25.0533 126.083V122.963L22.3727 121.111L21.033 121.964L22.4695 124.42L19.9691 122.719L18.6133 123.548L19.7862 126.716L22.1413 128.266L23.6962 133.467L25.0533 132.638V129.669L26.2881 132.078L27.6439 131.249V127.787Z" fill="#008035"/>
<path d="M21.1887 131.526V128.609C21.1887 128.551 21.1605 128.498 21.1121 128.465L18.7852 126.918V123.871L20.9197 125.291C20.948 125.31 20.9816 125.321 21.0152 125.321C21.0435 125.321 21.0704 125.314 21.0959 125.3C21.1524 125.271 21.1874 125.212 21.1874 125.149V122.27L23.5224 123.883V126.912C23.5224 126.97 23.552 127.024 23.6004 127.056L26.1143 128.711V131.759L23.7914 130.23C23.7632 130.212 23.7295 130.202 23.6959 130.202C23.6677 130.202 23.6394 130.209 23.6139 130.222C23.5574 130.252 23.5237 130.311 23.5237 130.374V133.141L21.1887 131.526Z" fill="#00B535"/>
<path d="M21.3612 122.599L23.3519 123.973V126.913C23.3519 127.028 23.4097 127.137 23.5065 127.2L25.9424 128.804V131.439L23.8872 130.086C23.8294 130.048 23.7634 130.03 23.6975 130.03C23.641 130.03 23.5859 130.043 23.5334 130.071C23.4218 130.132 23.3519 130.248 23.3519 130.374V132.812L21.3612 131.438V128.611C21.3612 128.495 21.3034 128.388 21.2079 128.325L18.9576 126.828V124.194L20.8245 125.436C20.8824 125.475 20.9496 125.494 21.0155 125.494C21.0707 125.494 21.1272 125.481 21.1783 125.454C21.2899 125.393 21.3612 125.277 21.3612 125.151V122.599ZM21.0169 121.941V125.149L18.6133 123.551V127.011L21.0169 128.609V131.616L23.6975 133.468V130.373L26.2881 132.079V128.619L23.6975 126.913V123.793L21.0169 121.941Z" fill="white"/>
<path d="M26.2911 128.618L27.1627 128.151L24.5722 126.445L23.6992 126.912L26.2911 128.618Z" fill="#00B535"/>
<path d="M23.7172 123.784L25.0555 122.963L22.3748 121.111L21.0352 121.964L23.7172 123.784Z" fill="#00B535"/>
<path d="M21.0279 125.218L21.0225 123.43L19.9707 122.721L18.6055 123.554L21.0279 125.218Z" fill="#00B535"/>
<path opacity="0.4" d="M45.3926 122.338L71.9827 107.063L71.5174 106.746L45.3711 121.762L45.3926 122.338Z" fill="white"/>
<path opacity="0.4" d="M45.3756 137.904L71.9658 122.629L71.5004 122.312L45.3555 137.329L45.3756 137.904Z" fill="white"/>
<path opacity="0.3" d="M16.0536 150.431C16.0415 150.431 16.0307 150.431 16.0186 150.429L12.9398 150.256C12.6049 150.238 12.3493 149.952 12.3682 149.618C12.387 149.284 12.6775 149.028 13.0084 149.048L16.0872 149.221C16.4221 149.24 16.6777 149.525 16.6588 149.859C16.6414 150.183 16.3737 150.431 16.0536 150.431Z" fill="#382C36"/>
<path opacity="0.3" d="M29.538 159.425C29.5258 159.425 29.5151 159.425 29.503 159.423L26.4242 159.25C26.0893 159.232 25.8337 158.946 25.8525 158.612C25.8714 158.278 26.1565 158.022 26.4928 158.042L29.5716 158.215C29.9065 158.234 30.1621 158.52 30.1432 158.853C30.1257 159.175 29.8581 159.425 29.538 159.425Z" fill="#382C36"/>
<path d="M13.3702 143.305C13.5074 143.189 13.5962 143.018 13.5962 142.824C13.5962 142.474 13.3124 142.189 12.96 142.189C12.6089 142.189 12.3238 142.474 12.3238 142.824C12.3238 143.018 12.4125 143.189 12.5511 143.305C12.2794 143.451 12.0938 143.734 12.0938 144.063V149.511C12.0938 149.988 12.4825 150.232 12.9613 150.232C13.4401 150.232 13.8289 149.989 13.8289 149.511V144.063C13.8275 143.733 13.6405 143.451 13.3702 143.305Z" fill="#4C4949"/>
<path d="M26.9366 152.337C27.0738 152.22 27.1626 152.048 27.1626 151.855C27.1626 151.505 26.8774 151.221 26.5264 151.221C26.1753 151.221 25.8902 151.505 25.8902 151.855C25.8902 152.05 25.9789 152.22 26.1175 152.337C25.8458 152.483 25.6602 152.766 25.6602 153.094V158.542C25.6602 159.019 26.0489 159.262 26.5277 159.262C27.0065 159.262 27.3953 159.019 27.3953 158.542V153.094C27.3953 152.766 27.2083 152.483 26.9366 152.337Z" fill="#4C4949"/>
<path d="M47.217 97.2337L51.0665 99.767L47.79 101.7L43.9203 99.1515L39.3512 101.81L36.0599 99.6544L40.6384 96.9909L36.8373 94.4884L40.1125 92.5559L43.9351 95.0732L48.5136 92.4097L51.8063 94.5649L47.217 97.2337ZM43.9741 89.4258C37.1493 89.4258 31.6172 92.8872 31.6172 97.1572C31.6172 101.427 37.1493 104.889 43.9741 104.889C50.7988 104.889 56.331 101.427 56.331 97.1572C56.3323 92.8872 50.8002 89.4258 43.9741 89.4258Z" fill="#00B535"/>
<path opacity="0.95" d="M47.2171 97.2341L51.0666 99.7674L47.7901 101.7L43.9204 99.1519L39.3513 101.811L36.0586 99.6561L40.6385 96.9914L36.836 94.4889L40.1125 92.5577L43.9352 95.0736L48.5137 92.4102L51.8063 94.564L47.2171 97.2341Z" fill="white"/>
</g>
<defs>
<clipPath id="clip0_176_85173">
<rect width="87" height="90" fill="white" transform="translate(0 78)"/>
</clipPath>
</defs>
</svg>
