<svg width="458" height="138" viewBox="0 0 458 138" fill="none" xmlns="http://www.w3.org/2000/svg">
<rect x="124" width="334" height="110" rx="18" fill="#006DB7"/>
<path d="M68 102L179.5 66.026L147.5 42L68 102Z" fill="#006DB7"/>
<rect x="149.048" y="34.0476" width="41.9048" height="41.9048" rx="20.9524" fill="#407C1D"/>
<rect x="149.048" y="34.0476" width="41.9048" height="41.9048" rx="20.9524" stroke="white" stroke-width="2.09524"/>
<g clip-path="url(#clip0_176_85902)">
<path d="M177 63H163V64C163 64.2652 162.895 64.5196 162.707 64.7071C162.52 64.8946 162.265 65 162 65H161C160.735 65 160.48 64.8946 160.293 64.7071C160.105 64.5196 160 64.2652 160 64V54L162.48 48.212C162.634 47.852 162.891 47.5452 163.218 47.3298C163.545 47.1143 163.928 46.9997 164.32 47H175.68C176.071 47 176.454 47.1149 176.781 47.3303C177.107 47.5458 177.364 47.8523 177.518 48.212L180 54V64C180 64.2652 179.895 64.5196 179.707 64.7071C179.52 64.8946 179.265 65 179 65H178C177.735 65 177.48 64.8946 177.293 64.7071C177.105 64.5196 177 64.2652 177 64V63ZM178 56H162V61H178V56ZM162.176 54H177.824L175.681 49H164.32L162.177 54H162.176ZM164.5 60C164.102 60 163.721 59.842 163.439 59.5607C163.158 59.2794 163 58.8978 163 58.5C163 58.1022 163.158 57.7206 163.439 57.4393C163.721 57.158 164.102 57 164.5 57C164.898 57 165.279 57.158 165.561 57.4393C165.842 57.7206 166 58.1022 166 58.5C166 58.8978 165.842 59.2794 165.561 59.5607C165.279 59.842 164.898 60 164.5 60ZM175.5 60C175.102 60 174.721 59.842 174.439 59.5607C174.158 59.2794 174 58.8978 174 58.5C174 58.1022 174.158 57.7206 174.439 57.4393C174.721 57.158 175.102 57 175.5 57C175.898 57 176.279 57.158 176.561 57.4393C176.842 57.7206 177 58.1022 177 58.5C177 58.8978 176.842 59.2794 176.561 59.5607C176.279 59.842 175.898 60 175.5 60Z" fill="white"/>
</g>
<path d="M212.293 49H208.637L215.294 30.0909H219.523L226.189 49H222.533L217.482 33.9688H217.335L212.293 49ZM212.413 41.5859H222.385V44.3374H212.413V41.5859ZM241.518 49.2585C240.287 49.2585 239.185 49.0277 238.213 48.5661C237.24 48.0982 236.468 47.4581 235.895 46.6456C235.329 45.8331 235.027 44.9036 234.99 43.8572H238.314C238.376 44.6328 238.711 45.2668 239.32 45.7592C239.93 46.2455 240.662 46.4886 241.518 46.4886C242.189 46.4886 242.786 46.3348 243.309 46.027C243.832 45.7192 244.245 45.2914 244.546 44.7436C244.848 44.1958 244.996 43.571 244.99 42.8693C244.996 42.1553 244.845 41.5213 244.537 40.9673C244.229 40.4134 243.808 39.9794 243.272 39.6655C242.737 39.3454 242.121 39.1854 241.426 39.1854C240.859 39.1792 240.302 39.2839 239.754 39.4993C239.207 39.7147 238.773 39.9979 238.453 40.3487L235.36 39.8409L236.347 30.0909H247.316V32.9531H239.182L238.637 37.9666H238.748C239.099 37.5542 239.594 37.2126 240.235 36.9418C240.875 36.6648 241.576 36.5263 242.34 36.5263C243.485 36.5263 244.506 36.7971 245.405 37.3388C246.304 37.8743 247.012 38.6129 247.529 39.5547C248.046 40.4964 248.304 41.5736 248.304 42.7862C248.304 44.0357 248.015 45.1499 247.436 46.1286C246.864 47.1011 246.067 47.8674 245.045 48.4276C244.029 48.9815 242.854 49.2585 241.518 49.2585ZM251.434 49V34.8182H254.629V37.228H254.795C255.09 36.4155 255.58 35.7815 256.263 35.326C256.946 34.8643 257.762 34.6335 258.71 34.6335C259.67 34.6335 260.479 34.8674 261.138 35.3352C261.803 35.7969 262.271 36.4278 262.541 37.228H262.689C263.003 36.4401 263.532 35.8123 264.277 35.3445C265.028 34.8705 265.918 34.6335 266.945 34.6335C268.25 34.6335 269.315 35.0459 270.14 35.8707C270.965 36.6955 271.377 37.8989 271.377 39.4808V49H268.026V39.9979C268.026 39.1177 267.792 38.4744 267.324 38.0682C266.856 37.6558 266.284 37.4496 265.607 37.4496C264.8 37.4496 264.169 37.7019 263.714 38.2067C263.265 38.7053 263.04 39.3546 263.04 40.1548V49H259.762V39.8594C259.762 39.1269 259.541 38.5421 259.097 38.1051C258.66 37.6681 258.088 37.4496 257.38 37.4496C256.9 37.4496 256.463 37.5727 256.069 37.8189C255.675 38.0589 255.361 38.4006 255.127 38.8438C254.893 39.2808 254.776 39.7917 254.776 40.3764V49H251.434ZM274.768 49V34.8182H278.11V49H274.768ZM276.449 32.8054C275.919 32.8054 275.464 32.63 275.082 32.2791C274.7 31.9221 274.51 31.4943 274.51 30.9957C274.51 30.491 274.7 30.0632 275.082 29.7124C275.464 29.3553 275.919 29.1768 276.449 29.1768C276.984 29.1768 277.44 29.3553 277.815 29.7124C278.197 30.0632 278.387 30.491 278.387 30.9957C278.387 31.4943 278.197 31.9221 277.815 32.2791C277.44 32.63 276.984 32.8054 276.449 32.8054ZM284.89 40.6903V49H281.547V34.8182H284.742V37.228H284.908C285.234 36.4339 285.755 35.803 286.469 35.3352C287.189 34.8674 288.078 34.6335 289.137 34.6335C290.116 34.6335 290.968 34.8428 291.694 35.2614C292.427 35.6799 292.993 36.2862 293.393 37.0803C293.8 37.8743 294 38.8376 293.993 39.9702V49H290.651V40.4872C290.651 39.5393 290.405 38.7976 289.912 38.2621C289.426 37.7266 288.752 37.4588 287.89 37.4588C287.306 37.4588 286.786 37.5881 286.33 37.8466C285.881 38.099 285.527 38.4652 285.268 38.9453C285.016 39.4254 284.89 40.0071 284.89 40.6903ZM299.45 49.2031C298.89 49.2031 298.41 49.0062 298.01 48.6122C297.61 48.2183 297.413 47.7382 297.419 47.1719C297.413 46.6179 297.61 46.1439 298.01 45.75C298.41 45.3561 298.89 45.1591 299.45 45.1591C299.992 45.1591 300.463 45.3561 300.863 45.75C301.269 46.1439 301.475 46.6179 301.481 47.1719C301.475 47.5473 301.377 47.889 301.186 48.1967C301.001 48.5045 300.755 48.7507 300.447 48.9354C300.146 49.1139 299.813 49.2031 299.45 49.2031ZM316.06 49.2493C314.946 49.2493 313.949 48.9631 313.069 48.3906C312.189 47.8182 311.493 46.9872 310.982 45.8977C310.471 44.8082 310.216 43.4848 310.216 41.9276C310.216 40.3518 310.474 39.0223 310.991 37.9389C311.515 36.8494 312.219 36.0277 313.106 35.4737C313.992 34.9136 314.98 34.6335 316.069 34.6335C316.9 34.6335 317.584 34.7751 318.119 35.0582C318.655 35.3352 319.079 35.6707 319.393 36.0646C319.707 36.4524 319.95 36.8187 320.123 37.1634H320.261V30.0909H323.613V49H320.326V46.7656H320.123C319.95 47.1103 319.701 47.4766 319.375 47.8643C319.049 48.246 318.618 48.5722 318.082 48.843C317.547 49.1139 316.873 49.2493 316.06 49.2493ZM316.993 46.5071C317.701 46.5071 318.304 46.3163 318.802 45.9347C319.301 45.5469 319.68 45.0083 319.938 44.3189C320.197 43.6295 320.326 42.8262 320.326 41.9091C320.326 40.992 320.197 40.1948 319.938 39.5178C319.686 38.8407 319.31 38.3144 318.812 37.9389C318.319 37.5634 317.713 37.3757 316.993 37.3757C316.248 37.3757 315.626 37.5696 315.128 37.9574C314.629 38.3452 314.254 38.8807 314.001 39.5639C313.749 40.2472 313.623 41.0289 313.623 41.9091C313.623 42.7955 313.749 43.5864 314.001 44.282C314.26 44.9714 314.638 45.5161 315.137 45.9162C315.642 46.3101 316.26 46.5071 316.993 46.5071ZM333.453 49.277C332.031 49.277 330.803 48.9815 329.769 48.3906C328.741 47.7936 327.95 46.9503 327.396 45.8608C326.842 44.7652 326.565 43.4756 326.565 41.9922C326.565 40.5334 326.842 39.2531 327.396 38.1513C327.956 37.0433 328.738 36.1816 329.741 35.5661C330.744 34.9444 331.923 34.6335 333.277 34.6335C334.151 34.6335 334.976 34.7751 335.752 35.0582C336.533 35.3352 337.223 35.7661 337.82 36.3509C338.423 36.9356 338.897 37.6804 339.242 38.5852C339.587 39.4839 339.759 40.5549 339.759 41.7983V42.8232H328.135V40.5703H336.555C336.549 39.9302 336.41 39.3608 336.14 38.8622C335.869 38.3575 335.49 37.9605 335.004 37.6712C334.524 37.3819 333.964 37.2372 333.324 37.2372C332.64 37.2372 332.04 37.4034 331.523 37.7358C331.006 38.062 330.603 38.4929 330.314 39.0284C330.03 39.5578 329.886 40.1394 329.88 40.7734V42.7401C329.88 43.5649 330.03 44.2727 330.332 44.8636C330.634 45.4484 331.055 45.8977 331.597 46.2116C332.139 46.5194 332.773 46.6733 333.499 46.6733C333.985 46.6733 334.425 46.6056 334.819 46.4702C335.213 46.3286 335.555 46.1224 335.844 45.8516C336.133 45.5807 336.352 45.2453 336.5 44.8452L339.62 45.196C339.423 46.0208 339.048 46.741 338.494 47.3565C337.946 47.9659 337.244 48.4399 336.389 48.7784C335.533 49.1108 334.555 49.277 333.453 49.277ZM345.929 30.0909V49H342.586V30.0909H345.929ZM209.865 80V61.0909H217.104C218.47 61.0909 219.606 61.3063 220.511 61.7372C221.422 62.1619 222.102 62.7436 222.551 63.4822C223.007 64.2209 223.234 65.058 223.234 65.9936C223.234 66.763 223.087 67.4216 222.791 67.9695C222.496 68.5111 222.099 68.9512 221.6 69.2898C221.102 69.6283 220.545 69.8714 219.929 70.0192V70.2038C220.6 70.2408 221.243 70.447 221.859 70.8224C222.48 71.1918 222.988 71.715 223.382 72.392C223.776 73.0691 223.973 73.8878 223.973 74.848C223.973 75.8267 223.736 76.7069 223.262 77.4886C222.788 78.2642 222.074 78.8767 221.12 79.326C220.166 79.7753 218.966 80 217.519 80H209.865ZM213.29 77.1378H216.974C218.218 77.1378 219.113 76.9008 219.661 76.4268C220.215 75.9467 220.492 75.3312 220.492 74.5803C220.492 74.0201 220.354 73.5154 220.077 73.0661C219.8 72.6106 219.406 72.2536 218.895 71.995C218.384 71.7304 217.775 71.598 217.067 71.598H213.29V77.1378ZM213.29 69.1328H216.679C217.27 69.1328 217.802 69.0251 218.276 68.8097C218.75 68.5881 219.123 68.2772 219.393 67.8771C219.67 67.4709 219.809 66.9908 219.809 66.4368C219.809 65.7043 219.55 65.1011 219.033 64.6271C218.522 64.1532 217.762 63.9162 216.753 63.9162H213.29V69.1328ZM232.991 80.277C231.606 80.277 230.406 79.9723 229.39 79.3629C228.375 78.7536 227.587 77.901 227.027 76.8054C226.473 75.7098 226.196 74.4295 226.196 72.9645C226.196 71.4995 226.473 70.2161 227.027 69.1143C227.587 68.0125 228.375 67.157 229.39 66.5476C230.406 65.9382 231.606 65.6335 232.991 65.6335C234.376 65.6335 235.577 65.9382 236.592 66.5476C237.608 67.157 238.393 68.0125 238.947 69.1143C239.507 70.2161 239.787 71.4995 239.787 72.9645C239.787 74.4295 239.507 75.7098 238.947 76.8054C238.393 77.901 237.608 78.7536 236.592 79.3629C235.577 79.9723 234.376 80.277 232.991 80.277ZM233.01 77.5994C233.761 77.5994 234.389 77.3932 234.893 76.9808C235.398 76.5623 235.773 76.0021 236.02 75.3004C236.272 74.5987 236.398 73.817 236.398 72.9553C236.398 72.0874 236.272 71.3026 236.02 70.6009C235.773 69.893 235.398 69.3298 234.893 68.9112C234.389 68.4927 233.761 68.2834 233.01 68.2834C232.24 68.2834 231.6 68.4927 231.089 68.9112C230.585 69.3298 230.206 69.893 229.954 70.6009C229.707 71.3026 229.584 72.0874 229.584 72.9553C229.584 73.817 229.707 74.5987 229.954 75.3004C230.206 76.0021 230.585 76.5623 231.089 76.9808C231.6 77.3932 232.24 77.5994 233.01 77.5994ZM251.663 74.0355V65.8182H255.005V80H251.764V77.4794H251.616C251.296 78.2734 250.77 78.9228 250.038 79.4276C249.311 79.9323 248.416 80.1847 247.351 80.1847C246.421 80.1847 245.6 79.9785 244.886 79.5661C244.178 79.1475 243.624 78.5412 243.224 77.7472C242.824 76.947 242.624 75.9806 242.624 74.848V65.8182H245.966V74.331C245.966 75.2296 246.212 75.9437 246.705 76.473C247.197 77.0024 247.843 77.267 248.643 77.267C249.136 77.267 249.613 77.147 250.075 76.907C250.536 76.6669 250.915 76.3099 251.21 75.8359C251.512 75.3558 251.663 74.7557 251.663 74.0355ZM261.784 61.0909V80H258.442V61.0909H261.784ZM271.5 80.277C270.078 80.277 268.85 79.9815 267.816 79.3906C266.788 78.7936 265.997 77.9503 265.443 76.8608C264.889 75.7652 264.612 74.4756 264.612 72.9922C264.612 71.5334 264.889 70.2531 265.443 69.1513C266.003 68.0433 266.785 67.1816 267.788 66.5661C268.791 65.9444 269.97 65.6335 271.324 65.6335C272.198 65.6335 273.023 65.7751 273.799 66.0582C274.58 66.3352 275.27 66.7661 275.867 67.3509C276.47 67.9356 276.944 68.6804 277.289 69.5852C277.633 70.4839 277.806 71.5549 277.806 72.7983V73.8232H266.181V71.5703H274.602C274.596 70.9302 274.457 70.3608 274.186 69.8622C273.916 69.3575 273.537 68.9605 273.051 68.6712C272.571 68.3819 272.011 68.2372 271.37 68.2372C270.687 68.2372 270.087 68.4034 269.57 68.7358C269.053 69.062 268.65 69.4929 268.36 70.0284C268.077 70.5578 267.933 71.1394 267.926 71.7734V73.7401C267.926 74.5649 268.077 75.2727 268.379 75.8636C268.681 76.4484 269.102 76.8977 269.644 77.2116C270.185 77.5194 270.819 77.6733 271.546 77.6733C272.032 77.6733 272.472 77.6056 272.866 77.4702C273.26 77.3286 273.602 77.1224 273.891 76.8516C274.18 76.5807 274.399 76.2453 274.547 75.8452L277.667 76.196C277.47 77.0208 277.095 77.741 276.541 78.3565C275.993 78.9659 275.291 79.4399 274.436 79.7784C273.58 80.1108 272.601 80.277 271.5 80.277ZM292.895 65.8182L287.844 80H284.151L279.101 65.8182H282.665L285.924 76.353H286.072L289.34 65.8182H292.895ZM298.882 80.2862C297.984 80.2862 297.174 80.1262 296.454 79.8061C295.74 79.4799 295.174 78.9998 294.755 78.3658C294.343 77.7318 294.137 76.95 294.137 76.0206C294.137 75.2204 294.284 74.5587 294.58 74.0355C294.875 73.5123 295.278 73.0938 295.789 72.7798C296.3 72.4659 296.876 72.2289 297.516 72.0689C298.162 71.9027 298.83 71.7827 299.519 71.7088C300.35 71.6226 301.024 71.5457 301.541 71.478C302.058 71.4041 302.434 71.2933 302.668 71.1456C302.908 70.9917 303.028 70.7547 303.028 70.4347V70.3793C303.028 69.6837 302.822 69.1451 302.409 68.7635C301.997 68.3819 301.403 68.1911 300.627 68.1911C299.809 68.1911 299.159 68.3696 298.679 68.7266C298.205 69.0836 297.885 69.5052 297.719 69.9915L294.598 69.5483C294.844 68.6866 295.251 67.9664 295.817 67.3878C296.383 66.803 297.076 66.366 297.894 66.0767C298.713 65.7812 299.618 65.6335 300.609 65.6335C301.292 65.6335 301.972 65.7135 302.649 65.8736C303.326 66.0336 303.945 66.2983 304.505 66.6676C305.065 67.0308 305.515 67.5263 305.853 68.1541C306.198 68.782 306.37 69.5668 306.37 70.5085V80H303.157V78.0518H303.046C302.843 78.4458 302.557 78.8151 302.188 79.1598C301.825 79.4983 301.366 79.7723 300.812 79.9815C300.264 80.1847 299.621 80.2862 298.882 80.2862ZM299.75 77.8303C300.421 77.8303 301.003 77.6979 301.495 77.4332C301.988 77.1624 302.366 76.8054 302.631 76.3622C302.902 75.919 303.037 75.4358 303.037 74.9126V73.2415C302.932 73.3277 302.754 73.4077 302.502 73.4815C302.255 73.5554 301.978 73.62 301.671 73.6754C301.363 73.7308 301.058 73.7801 300.757 73.8232C300.455 73.8662 300.193 73.9032 299.972 73.9339C299.473 74.0017 299.027 74.1125 298.633 74.2663C298.239 74.4202 297.928 74.6357 297.7 74.9126C297.473 75.1835 297.359 75.5343 297.359 75.9652C297.359 76.5807 297.584 77.0455 298.033 77.3594C298.482 77.6733 299.055 77.8303 299.75 77.8303ZM309.731 80V65.8182H312.972V68.1818H313.119C313.378 67.3632 313.821 66.7322 314.449 66.2891C315.083 65.8397 315.806 65.6151 316.619 65.6151C316.803 65.6151 317.01 65.6243 317.237 65.6428C317.471 65.6551 317.665 65.6766 317.819 65.7074V68.782C317.677 68.7327 317.453 68.6896 317.145 68.6527C316.843 68.6096 316.551 68.5881 316.268 68.5881C315.659 68.5881 315.111 68.7204 314.624 68.9851C314.144 69.2436 313.766 69.6037 313.489 70.0653C313.212 70.527 313.073 71.0594 313.073 71.6626V80H309.731ZM324.718 80.2493C323.604 80.2493 322.607 79.9631 321.727 79.3906C320.847 78.8182 320.151 77.9872 319.64 76.8977C319.129 75.8082 318.874 74.4848 318.874 72.9276C318.874 71.3518 319.132 70.0223 319.65 68.9389C320.173 67.8494 320.877 67.0277 321.764 66.4737C322.65 65.9136 323.638 65.6335 324.728 65.6335C325.559 65.6335 326.242 65.7751 326.777 66.0582C327.313 66.3352 327.738 66.6707 328.051 67.0646C328.365 67.4524 328.609 67.8187 328.781 68.1634H328.919V61.0909H332.271V80H328.984V77.7656H328.781C328.609 78.1103 328.359 78.4766 328.033 78.8643C327.707 79.246 327.276 79.5722 326.74 79.843C326.205 80.1139 325.531 80.2493 324.718 80.2493ZM325.651 77.5071C326.359 77.5071 326.962 77.3163 327.461 76.9347C327.959 76.5469 328.338 76.0083 328.596 75.3189C328.855 74.6295 328.984 73.8262 328.984 72.9091C328.984 71.992 328.855 71.1948 328.596 70.5178C328.344 69.8407 327.968 69.3144 327.47 68.9389C326.977 68.5634 326.371 68.3757 325.651 68.3757C324.906 68.3757 324.284 68.5696 323.786 68.9574C323.287 69.3452 322.912 69.8807 322.659 70.5639C322.407 71.2472 322.281 72.0289 322.281 72.9091C322.281 73.7955 322.407 74.5864 322.659 75.282C322.918 75.9714 323.297 76.5161 323.795 76.9162C324.3 77.3101 324.918 77.5071 325.651 77.5071ZM347.545 80.2493C346.43 80.2493 345.433 79.9631 344.553 79.3906C343.673 78.8182 342.977 77.9872 342.466 76.8977C341.956 75.8082 341.7 74.4848 341.7 72.9276C341.7 71.3518 341.959 70.0223 342.476 68.9389C342.999 67.8494 343.704 67.0277 344.59 66.4737C345.476 65.9136 346.464 65.6335 347.554 65.6335C348.385 65.6335 349.068 65.7751 349.604 66.0582C350.139 66.3352 350.564 66.6707 350.878 67.0646C351.192 67.4524 351.435 67.8187 351.607 68.1634H351.746V61.0909H355.097V80H351.81V77.7656H351.607C351.435 78.1103 351.185 78.4766 350.859 78.8643C350.533 79.246 350.102 79.5722 349.567 79.843C349.031 80.1139 348.357 80.2493 347.545 80.2493ZM348.477 77.5071C349.185 77.5071 349.788 77.3163 350.287 76.9347C350.785 76.5469 351.164 76.0083 351.422 75.3189C351.681 74.6295 351.81 73.8262 351.81 72.9091C351.81 71.992 351.681 71.1948 351.422 70.5178C351.17 69.8407 350.795 69.3144 350.296 68.9389C349.804 68.5634 349.197 68.3757 348.477 68.3757C347.732 68.3757 347.111 68.5696 346.612 68.9574C346.113 69.3452 345.738 69.8807 345.486 70.5639C345.233 71.2472 345.107 72.0289 345.107 72.9091C345.107 73.7955 345.233 74.5864 345.486 75.282C345.744 75.9714 346.123 76.5161 346.621 76.9162C347.126 77.3101 347.745 77.5071 348.477 77.5071ZM364.937 80.277C363.515 80.277 362.287 79.9815 361.253 79.3906C360.225 78.7936 359.434 77.9503 358.88 76.8608C358.326 75.7652 358.049 74.4756 358.049 72.9922C358.049 71.5334 358.326 70.2531 358.88 69.1513C359.44 68.0433 360.222 67.1816 361.225 66.5661C362.229 65.9444 363.408 65.6335 364.762 65.6335C365.636 65.6335 366.461 65.7751 367.236 66.0582C368.018 66.3352 368.707 66.7661 369.304 67.3509C369.908 67.9356 370.382 68.6804 370.726 69.5852C371.071 70.4839 371.243 71.5549 371.243 72.7983V73.8232H359.619V71.5703H368.039C368.033 70.9302 367.895 70.3608 367.624 69.8622C367.353 69.3575 366.975 68.9605 366.488 68.6712C366.008 68.3819 365.448 68.2372 364.808 68.2372C364.125 68.2372 363.525 68.4034 363.007 68.7358C362.49 69.062 362.087 69.4929 361.798 70.0284C361.515 70.5578 361.37 71.1394 361.364 71.7734V73.7401C361.364 74.5649 361.515 75.2727 361.816 75.8636C362.118 76.4484 362.54 76.8977 363.081 77.2116C363.623 77.5194 364.257 77.6733 364.983 77.6733C365.47 77.6733 365.91 77.6056 366.304 77.4702C366.698 77.3286 367.039 77.1224 367.328 76.8516C367.618 76.5807 367.836 76.2453 367.984 75.8452L371.105 76.196C370.908 77.0208 370.532 77.741 369.978 78.3565C369.431 78.9659 368.729 79.4399 367.873 79.7784C367.018 80.1108 366.039 80.277 364.937 80.277ZM383.096 80H379.44L386.097 61.0909H390.325L396.992 80H393.335L388.285 64.9688H388.137L383.096 80ZM383.216 72.5859H393.188V75.3374H383.216V72.5859ZM410.315 69.5668L407.268 69.8991C407.182 69.5914 407.031 69.3021 406.816 69.0312C406.606 68.7604 406.323 68.5419 405.966 68.3757C405.609 68.2095 405.172 68.1264 404.655 68.1264C403.959 68.1264 403.375 68.2772 402.901 68.5788C402.433 68.8804 402.202 69.2713 402.208 69.7514C402.202 70.1638 402.353 70.4993 402.661 70.7578C402.975 71.0163 403.492 71.2287 404.212 71.3949L406.631 71.9119C407.973 72.2012 408.97 72.6598 409.622 73.2876C410.281 73.9155 410.613 74.7372 410.619 75.7528C410.613 76.6454 410.352 77.4332 409.835 78.1165C409.324 78.7936 408.613 79.3229 407.702 79.7045C406.791 80.0862 405.744 80.277 404.563 80.277C402.827 80.277 401.43 79.9138 400.371 79.1875C399.312 78.455 398.681 77.4363 398.478 76.1314L401.737 75.8175C401.885 76.4576 402.199 76.9408 402.679 77.267C403.159 77.5933 403.784 77.7564 404.553 77.7564C405.347 77.7564 405.985 77.5933 406.465 77.267C406.951 76.9408 407.194 76.5376 407.194 76.0575C407.194 75.6513 407.037 75.3158 406.723 75.0511C406.415 74.7865 405.935 74.5833 405.283 74.4418L402.864 73.9339C401.503 73.6508 400.497 73.1738 399.845 72.5028C399.192 71.8258 398.869 70.9702 398.875 69.9361C398.869 69.062 399.106 68.3049 399.586 67.6648C400.072 67.0185 400.746 66.5199 401.608 66.169C402.476 65.812 403.476 65.6335 404.609 65.6335C406.271 65.6335 407.579 65.9875 408.533 66.6953C409.493 67.4032 410.087 68.3603 410.315 69.5668ZM413.376 80V65.8182H416.718V80H413.376ZM415.056 63.8054C414.527 63.8054 414.071 63.63 413.689 63.2791C413.308 62.9221 413.117 62.4943 413.117 61.9957C413.117 61.491 413.308 61.0632 413.689 60.7124C414.071 60.3553 414.527 60.1768 415.056 60.1768C415.591 60.1768 416.047 60.3553 416.422 60.7124C416.804 61.0632 416.995 61.491 416.995 61.9957C416.995 62.4943 416.804 62.9221 416.422 63.2791C416.047 63.63 415.591 63.8054 415.056 63.8054ZM424.236 80.2862C423.337 80.2862 422.528 80.1262 421.808 79.8061C421.094 79.4799 420.527 78.9998 420.109 78.3658C419.696 77.7318 419.49 76.95 419.49 76.0206C419.49 75.2204 419.638 74.5587 419.933 74.0355C420.229 73.5123 420.632 73.0938 421.143 72.7798C421.654 72.4659 422.229 72.2289 422.869 72.0689C423.516 71.9027 424.183 71.7827 424.873 71.7088C425.704 71.6226 426.378 71.5457 426.895 71.478C427.412 71.4041 427.787 71.2933 428.021 71.1456C428.261 70.9917 428.381 70.7547 428.381 70.4347V70.3793C428.381 69.6837 428.175 69.1451 427.763 68.7635C427.35 68.3819 426.756 68.1911 425.981 68.1911C425.162 68.1911 424.513 68.3696 424.033 68.7266C423.559 69.0836 423.239 69.5052 423.072 69.9915L419.952 69.5483C420.198 68.6866 420.604 67.9664 421.17 67.3878C421.737 66.803 422.429 66.366 423.248 66.0767C424.067 65.7812 424.971 65.6335 425.962 65.6335C426.646 65.6335 427.326 65.7135 428.003 65.8736C428.68 66.0336 429.299 66.2983 429.859 66.6676C430.419 67.0308 430.868 67.5263 431.207 68.1541C431.551 68.782 431.724 69.5668 431.724 70.5085V80H428.511V78.0518H428.4C428.197 78.4458 427.911 78.8151 427.541 79.1598C427.178 79.4983 426.719 79.7723 426.165 79.9815C425.618 80.1847 424.974 80.2862 424.236 80.2862ZM425.104 77.8303C425.775 77.8303 426.356 77.6979 426.849 77.4332C427.341 77.1624 427.72 76.8054 427.984 76.3622C428.255 75.919 428.391 75.4358 428.391 74.9126V73.2415C428.286 73.3277 428.107 73.4077 427.855 73.4815C427.609 73.5554 427.332 73.62 427.024 73.6754C426.716 73.7308 426.412 73.7801 426.11 73.8232C425.808 73.8662 425.547 73.9032 425.325 73.9339C424.827 74.0017 424.38 74.1125 423.987 74.2663C423.593 74.4202 423.282 74.6357 423.054 74.9126C422.826 75.1835 422.712 75.5343 422.712 75.9652C422.712 76.5807 422.937 77.0455 423.386 77.3594C423.836 77.6733 424.408 77.8303 425.104 77.8303Z" fill="white"/>
<path d="M65.1996 19.532L62.5605 18L68.6876 20.576L71.3266 22.111L65.1996 19.532Z" fill="#98D343"/>
<path d="M38.4044 46.6213L35.7644 45.0873L35.7324 33.4883L38.3714 35.0233L38.4044 46.6213Z" fill="#705E2C"/>
<path d="M38.3714 35.023L35.7324 33.488L62.5614 18L65.2004 19.532L38.3714 35.023Z" fill="#8DC63F"/>
<path d="M65.2001 19.5312L71.3271 22.1103L65.2341 31.1302L38.4041 46.6202L38.3711 35.0222L65.2001 19.5312Z" fill="#518524"/>
<path d="M8.24905 21.1932L10.8881 19.6582L4.76105 22.2372L2.12305 23.7712L8.24905 21.1932Z" fill="#98D343"/>
<path d="M35.0469 48.2804L37.6849 46.7464L37.7179 35.1484L35.0799 36.6824L35.0469 48.2804Z" fill="#705E2C"/>
<path d="M35.08 36.6832L37.718 35.1492L10.889 19.6582L8.25 21.1932L35.08 36.6832Z" fill="#8DC63F"/>
<path d="M8.24905 21.1934L2.12305 23.7713L8.21506 32.7914L35.0461 48.2813L35.079 36.6833L8.24905 21.1934Z" fill="#217F1C"/>
<path d="M30.3105 131.741C30.3105 131.741 30.3106 131.813 30.3456 131.888C30.3456 131.888 30.3456 131.965 30.3456 132.035C30.3876 132.113 30.4196 132.185 30.4606 132.223C30.4606 132.261 30.4606 132.336 30.4966 132.371C30.5356 132.407 30.5356 132.521 30.6066 132.556C30.6066 132.594 30.6456 132.671 30.6456 132.707C30.7196 132.743 30.7576 132.857 30.7576 132.928C30.8296 132.968 30.9036 133.005 30.9036 133.041C30.9436 133.075 31.0926 133.231 31.1666 133.302C31.2006 133.335 31.2376 133.335 31.2786 133.448C31.3156 133.488 31.3886 133.524 31.4636 133.598C31.5336 133.671 31.5706 133.671 31.6096 133.747C31.7226 133.747 31.7606 133.817 31.8726 133.895C31.9056 133.935 32.0196 133.935 32.0556 133.971C32.2406 134.117 32.4666 134.229 32.6526 134.303C32.7276 134.343 32.7636 134.374 32.7966 134.374C32.9486 134.454 33.1386 134.528 33.3216 134.563C33.3536 134.599 33.4326 134.599 33.5096 134.635C33.5816 134.635 33.6946 134.717 33.7666 134.717C33.8416 134.746 33.9546 134.746 34.0276 134.79C34.1746 134.79 34.2506 134.79 34.3606 134.862C34.4386 134.862 34.5086 134.862 34.5856 134.934C34.8426 134.934 35.0676 135.012 35.2916 135.012C35.3586 135.012 35.4766 135.012 35.5496 135.012C35.6656 135.012 35.8096 135.012 35.8876 135.046C36.0366 135.046 36.1076 135.046 36.1826 135.046C36.2936 135.046 36.3706 135.046 36.5156 135.046C36.6306 135.046 36.7425 135.046 36.8495 135.046C36.8905 135.012 37.0025 135.012 37.1125 135.012C37.1865 135.012 37.2976 135.012 37.4456 135.012C37.4866 135.012 37.5965 135.012 37.6725 135.012C37.7795 134.934 37.8556 134.934 37.9676 134.934C38.1156 134.934 38.1916 134.934 38.3016 134.862C38.3766 134.862 38.4876 134.862 38.5256 134.79C38.6716 134.79 38.7856 134.746 38.9726 134.746C39.0096 134.717 39.0836 134.717 39.1576 134.717C39.3816 134.599 39.6016 134.563 39.7886 134.454C39.9006 134.414 40.0136 134.374 40.1276 134.343C40.1606 134.303 40.1966 134.265 40.2746 134.265C40.4216 134.117 40.5686 134.117 40.7166 133.971C41.9076 133.301 42.5016 132.37 42.5016 131.479V133.447C42.5016 134.375 41.9436 135.307 40.7166 135.977C40.5686 136.049 40.4216 136.125 40.2746 136.233C40.1966 136.271 40.1605 136.271 40.0865 136.311C40.0125 136.385 39.9006 136.385 39.8616 136.421C39.8236 136.421 39.8235 136.421 39.8235 136.421C39.6005 136.496 39.3806 136.564 39.1566 136.643C39.1196 136.643 39.1196 136.643 39.1196 136.643C39.0416 136.717 39.0096 136.717 38.9726 136.717C38.7846 136.717 38.6716 136.793 38.5626 136.793C38.5256 136.793 38.4875 136.793 38.4525 136.793C38.4525 136.793 38.3776 136.868 38.3026 136.868C38.1926 136.868 38.1166 136.904 37.9686 136.904C37.9316 136.904 37.8926 136.938 37.8566 136.938C37.8196 136.938 37.7486 136.938 37.7486 136.938C37.5996 136.938 37.4886 136.938 37.4476 137.014C37.2996 137.014 37.2996 137.014 37.2626 137.014H37.1516C37.0046 137.014 36.8926 137.014 36.8516 137.014C36.7436 137.014 36.7046 137.014 36.6656 137.014C36.5946 137.014 36.5586 137.014 36.5586 137.014C36.3726 137.014 36.2956 137.014 36.1846 137.014C36.1446 137.014 36.0756 137.014 36.0756 137.014C36.0016 137.014 35.9626 137.014 35.8896 137.014C35.8116 137.014 35.6285 137.014 35.4785 137.014C35.4435 137.014 35.4036 137.014 35.3326 137.014L35.2935 136.938C35.0695 136.938 34.8446 136.938 34.5876 136.868C34.4736 136.868 34.4415 136.868 34.3625 136.793C34.2525 136.793 34.1766 136.793 34.0296 136.793C33.9576 136.717 33.8436 136.717 33.7686 136.717C33.6976 136.643 33.5836 136.643 33.5116 136.565C33.4736 136.565 33.4355 136.565 33.4355 136.565C33.3565 136.565 33.3566 136.565 33.3246 136.565C33.1736 136.497 32.9516 136.422 32.7996 136.385C32.7666 136.349 32.7305 136.311 32.6555 136.311C32.4695 136.195 32.2826 136.125 32.0986 135.977C32.0586 135.977 32.0236 135.977 32.0236 135.977C31.9466 135.899 31.9096 135.899 31.8766 135.827C31.7996 135.789 31.7276 135.756 31.6136 135.678C31.5746 135.642 31.5376 135.606 31.4676 135.53C31.3936 135.494 31.3196 135.452 31.2826 135.385C31.2826 135.385 31.2415 135.385 31.2415 135.343C31.2415 135.343 31.2046 135.309 31.1706 135.309C31.0976 135.197 31.0196 135.086 30.9476 135.015C30.9076 135.015 30.9076 135.015 30.8716 134.937C30.8346 134.937 30.8346 134.937 30.8346 134.865C30.7626 134.793 30.7626 134.749 30.6846 134.719C30.6506 134.637 30.6506 134.637 30.6506 134.601C30.6116 134.565 30.6116 134.565 30.6116 134.565C30.5406 134.457 30.5406 134.417 30.5016 134.376C30.5016 134.305 30.4655 134.267 30.4655 134.267C30.4655 134.231 30.4655 134.231 30.4655 134.195C30.4245 134.119 30.3925 134.119 30.3925 133.973C30.3505 133.937 30.3506 133.937 30.3506 133.897C30.3506 133.787 30.3156 133.749 30.3156 133.672C30.3156 133.637 30.3156 133.599 30.3156 133.525C30.3156 133.489 30.3156 133.489 30.3156 133.489V131.521C30.3106 131.594 30.3105 131.594 30.3105 131.741Z" fill="#2B2B2B"/>
<path d="M32.1313 128.993C29.7163 130.365 29.7163 132.593 32.0563 133.971C34.4393 135.45 38.3003 135.45 40.7153 133.971C43.0943 132.593 43.1343 130.364 40.7523 128.993C38.3763 127.542 34.4713 127.542 32.1313 128.993Z" fill="#979797"/>
<path d="M31.7246 99.4799C31.7246 99.5579 31.7246 99.5959 31.7246 99.6339C31.7246 99.7049 31.7246 99.7049 31.7246 99.7809C31.7246 99.7809 31.7626 99.8509 31.7626 99.8909C31.7966 99.9269 31.7966 99.9269 31.8366 100.005C31.8736 100.076 31.8736 100.076 31.8736 100.153C31.9066 100.189 31.9066 100.223 31.9436 100.299C32.0206 100.339 32.0206 100.372 32.0556 100.445C32.0956 100.445 32.1306 100.525 32.1306 100.525C32.1676 100.599 32.2786 100.67 32.3146 100.749C32.3556 100.749 32.4266 100.749 32.4266 100.815C32.4666 100.859 32.5006 100.893 32.6116 100.969C32.6116 100.969 32.6526 101.005 32.7276 101.045C32.7636 101.12 32.7966 101.149 32.8746 101.191C32.9126 101.191 32.9486 101.265 33.0206 101.307C33.2436 101.417 33.4706 101.487 33.6946 101.597C33.7276 101.641 33.8416 101.641 33.8416 101.641C34.0996 101.749 34.3236 101.785 34.5496 101.899C34.5846 101.899 34.5846 101.899 34.6546 101.899C34.8806 101.933 35.1026 101.933 35.3296 102.045C35.3996 102.045 35.4756 102.045 35.4756 102.045C35.7726 102.045 36.0366 102.078 36.2926 102.078H36.3686C36.6626 102.078 36.8886 102.045 37.1846 102.045C37.2586 102.045 37.2586 102.045 37.2956 102.045C37.5586 101.933 37.8156 101.933 37.9996 101.899C38.1126 101.899 38.1496 101.861 38.1886 101.861C38.4496 101.785 38.5946 101.75 38.8566 101.641C38.8566 101.641 38.8946 101.641 38.9696 101.641C39.1936 101.487 39.4496 101.417 39.6766 101.307C40.5656 100.748 41.0126 100.005 41.0126 99.2949L41.1626 130.918C41.1626 131.594 40.6766 132.37 39.7496 132.857C39.5646 133.004 39.3036 133.075 39.0806 133.191C39.0806 133.231 39.0386 133.231 39.0386 133.231C39.0066 133.231 38.9696 133.231 38.8936 133.231C38.7816 133.301 38.6676 133.335 38.5216 133.375C38.4486 133.447 38.3736 133.447 38.2616 133.447C38.1876 133.447 38.1876 133.487 38.1496 133.487C38.1126 133.487 38.0406 133.487 37.9996 133.487C37.8526 133.523 37.7436 133.597 37.5586 133.597C37.4846 133.635 37.4436 133.635 37.4436 133.635C37.2956 133.67 37.2956 133.67 37.2586 133.67C37.1846 133.67 37.1476 133.67 37.1106 133.67C36.9626 133.67 36.8476 133.67 36.6626 133.67C36.5916 133.67 36.5556 133.67 36.4746 133.67C36.4446 133.67 36.3686 133.67 36.3686 133.67C36.2926 133.67 36.1806 133.67 36.1406 133.67C35.9966 133.67 35.8476 133.67 35.6246 133.67C35.5866 133.67 35.5866 133.67 35.5866 133.67C35.5476 133.67 35.4746 133.635 35.4396 133.635C35.2896 133.597 35.1416 133.597 35.0276 133.523C34.9196 133.523 34.8406 133.487 34.7336 133.487C34.7336 133.487 34.6956 133.487 34.6546 133.487C34.4696 133.447 34.3236 133.335 34.1746 133.301C34.0996 133.301 34.0276 133.231 33.9886 133.231C33.8806 133.231 33.8416 133.231 33.7656 133.191C33.5406 133.075 33.3536 133.005 33.1376 132.857C33.0976 132.857 33.0976 132.857 33.0976 132.857C33.0206 132.815 33.0206 132.783 32.9486 132.743C32.8746 132.707 32.8366 132.707 32.7626 132.634C32.7266 132.594 32.7266 132.556 32.6516 132.556C32.6106 132.522 32.6106 132.482 32.5006 132.407H32.4666C32.4666 132.371 32.4666 132.371 32.4266 132.371C32.3556 132.262 32.2796 132.223 32.2406 132.113C32.1676 132.113 32.1676 132.113 32.1676 132.113V132.035C32.1306 131.965 32.0956 131.93 32.0206 131.888C32.0206 131.888 32.0206 131.814 32.0206 131.778C32.0206 131.778 31.9836 131.778 31.9836 131.742C31.9436 131.742 31.9066 131.664 31.9066 131.595L31.8736 131.52C31.8736 131.52 31.8736 131.52 31.8736 131.48C31.8736 131.44 31.8736 131.44 31.8366 131.37C31.8366 131.294 31.7966 131.294 31.7966 131.294C31.7966 131.256 31.7966 131.221 31.7966 131.221C31.7966 131.185 31.7966 131.147 31.7966 131.073C31.7626 131.073 31.7626 130.999 31.7626 130.999V130.961L31.7246 99.3369C31.7246 99.4089 31.7246 99.4459 31.7246 99.4799Z" fill="#3B3B3B"/>
<path d="M33.0609 97.406C31.2389 98.442 31.2389 100.188 33.0219 101.306C34.8809 102.306 37.8539 102.306 39.6779 101.306C41.5329 100.188 41.5329 98.442 39.7129 97.406C37.8539 96.323 34.8809 96.323 33.0609 97.406Z" fill="#979797"/>
<path d="M38.1907 101.861C38.4517 101.785 38.5967 101.75 38.8587 101.641C38.8587 101.641 38.8967 101.641 38.9717 101.641C39.1957 101.487 39.4517 101.417 39.6787 101.307C40.5677 100.748 41.0147 100.005 41.0147 99.2949L41.1647 130.918C41.1647 131.594 40.6787 132.37 39.7517 132.857C39.5667 133.004 39.3057 133.075 39.0827 133.191C39.0827 133.231 39.0407 133.231 39.0407 133.231C39.0087 133.231 38.9717 133.231 38.8957 133.231C38.7837 133.301 38.6697 133.335 38.5237 133.375C38.4507 133.447 38.3757 133.447 38.2637 133.447C38.1897 133.447 38.1897 133.487 38.1517 133.487C38.1147 133.487 38.0427 133.487 38.0017 133.487C38.0017 133.523 37.9667 133.523 37.9297 133.523V101.933C37.9667 101.899 38.0017 101.899 38.0017 101.899C38.1157 101.899 38.1527 101.861 38.1907 101.861Z" fill="#2B2B2B"/>
<path d="M34.1747 28.1303C34.1747 28.2373 34.2147 28.2763 34.2497 28.3163C34.2497 28.3943 34.2497 28.3943 34.2497 28.4263C34.3237 28.4643 34.4387 28.5373 34.4387 28.5753C34.4707 28.6453 34.5497 28.6453 34.5847 28.7233C34.6547 28.7233 34.6957 28.7573 34.7337 28.7573C34.8807 28.8683 35.0277 28.9463 35.1417 29.0233C35.2137 29.0233 35.2897 29.0233 35.2897 29.0233C35.3987 29.0233 35.4747 29.0593 35.5867 29.0973C35.5867 29.0973 35.7347 29.0973 35.8077 29.0973C35.8477 29.0973 35.8477 29.0973 35.8857 29.1693C35.9967 29.1693 36.1057 29.1693 36.1807 29.1693C36.2567 29.1693 36.2567 29.1693 36.2917 29.1693C36.3677 29.1693 36.5137 29.1693 36.6617 29.1693L36.7007 29.0973C36.8477 29.0973 36.9237 29.0973 37.0007 29.0593C37.0727 29.0593 37.0727 29.0593 37.1097 29.0233C37.1837 29.0233 37.2947 29.0233 37.4427 28.9473C37.5577 28.9093 37.6697 28.8693 37.7767 28.7583C38.1877 28.5373 38.4487 28.2373 38.4487 27.9043L38.5947 99.0003C38.5947 99.2953 38.4487 99.6333 37.9647 99.8913C37.8527 99.9273 37.7767 100.005 37.6697 100.077C37.6697 100.077 37.6697 100.077 37.5947 100.077C37.5587 100.077 37.4847 100.077 37.4437 100.113C37.3717 100.113 37.2957 100.153 37.2957 100.153C37.2587 100.153 37.2587 100.153 37.2587 100.189H37.1847C37.1107 100.189 37.0007 100.223 36.9617 100.223H36.8887C36.8887 100.223 36.8887 100.223 36.8477 100.223C36.8477 100.223 36.8477 100.223 36.7397 100.223C36.7007 100.223 36.6287 100.265 36.5547 100.265C36.5137 100.265 36.4747 100.265 36.4747 100.265C36.4747 100.265 36.4447 100.265 36.3687 100.265C36.3687 100.265 36.3687 100.265 36.3297 100.265C36.2577 100.265 36.1417 100.223 36.0717 100.223H36.0357C35.9587 100.223 35.8867 100.223 35.8477 100.189C35.8077 100.189 35.7717 100.189 35.7717 100.189C35.6647 100.153 35.5867 100.153 35.5127 100.113C35.4747 100.077 35.4397 100.077 35.3997 100.077C35.3997 100.077 35.3577 100.077 35.3297 100.077C35.2147 100.006 35.0667 99.9283 34.9197 99.8913C34.9197 99.8513 34.8807 99.8513 34.8807 99.8513L34.8417 99.7813C34.7347 99.7813 34.6957 99.7053 34.6557 99.7053C34.5857 99.6343 34.5507 99.5963 34.4707 99.5583C34.4707 99.4803 34.4707 99.4803 34.4707 99.4803V99.4463C34.4387 99.4463 34.4387 99.4103 34.4387 99.4103C34.4387 99.3363 34.3607 99.2973 34.3607 99.2633L34.3247 99.1873C34.3247 99.1113 34.3247 99.0413 34.3247 99.0023L34.1367 27.9443V27.9063C34.1367 27.9823 34.1367 28.0903 34.1747 28.1303Z" fill="#3B3B3B"/>
<path d="M34.7355 27.0158C33.8825 27.4937 33.8825 28.3177 34.7355 28.7597C35.5895 29.2427 36.9255 29.2427 37.7795 28.7597C38.5965 28.3177 38.5965 27.4928 37.7795 27.0158C36.9635 26.4947 35.5885 26.4947 34.7355 27.0158Z" fill="#434351"/>
<path d="M36.6637 29.1713L36.7026 29.0992C36.8496 29.0992 36.9257 29.0992 37.0027 29.0612C37.0747 29.0612 37.0747 29.0612 37.1117 29.0252C37.1857 29.0252 37.2966 29.0252 37.4446 28.9492C37.5596 28.9112 37.6717 28.8713 37.7787 28.7603C38.1897 28.5393 38.4507 28.2393 38.4507 27.9062L38.5966 99.0023C38.5966 99.2973 38.4506 99.6352 37.9666 99.8932C37.8546 99.9293 37.7787 100.007 37.6717 100.079C37.6717 100.079 37.6716 100.079 37.5966 100.079C37.5606 100.079 37.4866 100.079 37.4456 100.115C37.3736 100.115 37.2976 100.155 37.2976 100.155C37.2606 100.155 37.2607 100.155 37.2607 100.191H37.1866C37.1126 100.191 37.0027 100.225 36.9637 100.225H36.8907C36.8907 100.225 36.8906 100.225 36.8496 100.225C36.8496 100.225 36.8496 100.225 36.7416 100.225C36.7026 100.225 36.6306 100.267 36.5566 100.267V29.1732C36.5916 29.1712 36.5917 29.1713 36.6637 29.1713Z" fill="#2B2B2B"/>
<path d="M33.1402 25.7479C33.1402 25.7879 33.1402 25.8319 33.1402 25.8979C33.1402 25.8979 33.1722 25.8979 33.1722 25.9759V26.0469C33.2092 26.0849 33.2092 26.1209 33.2092 26.1209C33.2092 26.1209 33.2452 26.1909 33.2452 26.2309C33.2842 26.2689 33.3232 26.2689 33.3232 26.3449C33.3232 26.3449 33.3552 26.3449 33.3552 26.3809C33.3552 26.3809 33.3962 26.4179 33.4342 26.4179C33.4722 26.4919 33.5102 26.5629 33.5422 26.6029C33.5822 26.6029 33.5822 26.6029 33.6192 26.6409C33.6542 26.7189 33.6542 26.7189 33.6952 26.7189C33.7282 26.7499 33.7282 26.7499 33.7662 26.7879C33.8412 26.8279 33.8412 26.8659 33.8802 26.9039C33.9542 26.9039 33.9882 26.9039 34.0272 26.9339C34.1742 27.0499 34.3242 27.0879 34.4702 27.1599C34.5082 27.1999 34.5492 27.1999 34.5842 27.1999C34.6952 27.2379 34.7702 27.3099 34.8802 27.3099C34.9972 27.3459 35.1032 27.3839 35.2142 27.3839C35.2902 27.4589 35.4752 27.4589 35.5872 27.4589C35.5872 27.4589 35.6252 27.4589 35.6642 27.4889C35.8482 27.4889 36.0712 27.4889 36.1812 27.4889C36.1812 27.4889 36.2572 27.4889 36.2922 27.4889C36.4752 27.4889 36.6622 27.4889 36.8482 27.4889C36.8482 27.4589 36.8892 27.4589 36.8892 27.4589C37.0742 27.4589 37.2592 27.4589 37.4442 27.3839C37.4442 27.3839 37.4442 27.3839 37.4852 27.3839C37.6712 27.3099 37.7782 27.3099 37.9282 27.1989C37.9652 27.1989 37.9652 27.1989 37.9652 27.1989C38.1512 27.0879 38.2992 27.0499 38.4852 26.9329C39.0822 26.5609 39.4152 26.1189 39.4152 25.6699V27.6059C39.4152 28.0859 39.1182 28.5719 38.4852 28.9439C38.3752 29.0199 38.1892 29.0939 38.0012 29.1669C37.9662 29.2019 37.9662 29.2019 37.9292 29.2019C37.8542 29.2019 37.7452 29.2379 37.6712 29.2379C37.5962 29.3119 37.5602 29.3119 37.4852 29.3539H37.4442C37.3722 29.3539 37.2962 29.3539 37.2962 29.3539C37.2592 29.3879 37.1112 29.3879 37.0012 29.3879C36.9622 29.3879 36.9242 29.3879 36.8892 29.3879H36.8482C36.7792 29.3879 36.7402 29.3879 36.7012 29.4639C36.5912 29.4639 36.4742 29.4639 36.3682 29.4639C36.3682 29.4639 36.3292 29.4639 36.2922 29.4639H36.1812C36.1412 29.4639 36.1062 29.4639 36.0722 29.4639C35.9592 29.4639 35.8482 29.4639 35.7362 29.3879C35.7362 29.3879 35.7362 29.3879 35.7012 29.3879C35.6652 29.3879 35.5882 29.3879 35.5882 29.3879C35.4762 29.3879 35.4002 29.3879 35.2912 29.3879C35.2912 29.3879 35.2152 29.3879 35.2152 29.3539C35.1042 29.3539 34.9982 29.3119 34.8812 29.2379C34.8422 29.2379 34.7722 29.2379 34.7342 29.2379C34.6962 29.2019 34.6552 29.2019 34.5852 29.2019C34.5502 29.2019 34.5092 29.1669 34.4712 29.1669C34.3252 29.0949 34.1752 29.0209 34.0282 28.9439V28.9059L33.9562 28.8659C33.8432 28.7949 33.8432 28.7949 33.7682 28.7549C33.7302 28.7549 33.7302 28.7209 33.6972 28.7209C33.6972 28.6429 33.6562 28.6429 33.6212 28.6429C33.6212 28.6429 33.5842 28.6429 33.5842 28.6069V28.5729C33.5122 28.5349 33.4742 28.4619 33.4362 28.4239H33.3982C33.3982 28.3919 33.3572 28.3919 33.3572 28.3919C33.3572 28.3139 33.3252 28.2739 33.3252 28.2739C33.3252 28.2359 33.3252 28.2359 33.2862 28.2019L33.2472 28.1679C33.2472 28.1679 33.2472 28.0889 33.2112 28.0889V28.0529L33.1742 27.9809C33.1742 27.9809 33.1742 27.9809 33.1742 27.9029C33.1422 27.8329 33.1422 27.8329 33.1422 27.8329C33.1422 27.8329 33.1422 27.7599 33.1422 27.6819C33.1422 27.6819 33.1422 27.6819 33.1422 27.6479C33.1022 27.6479 33.1022 27.6479 33.1022 27.6479V25.6729C33.1002 25.6739 33.1002 25.7479 33.1402 25.7479Z" fill="#2B2B2B"/>
<path d="M34.0287 24.3441C32.7977 25.0481 32.7977 26.2711 34.0287 26.9371C35.2927 27.6831 37.2607 27.6831 38.4867 26.9371C39.7147 26.2711 39.7147 25.0481 38.4867 24.3441C37.2607 23.6301 35.2917 23.6301 34.0287 24.3441Z" fill="#3B3B3B"/>
<path d="M8.73383 52.1753L6.0918 50.6433L32.9218 35.1523L35.5598 36.6863L8.73383 52.1753Z" fill="#8DC63F"/>
<path d="M2.638 61.8096L0 60.2776L6.09198 50.6426L8.73401 52.1746L2.638 61.8096Z" fill="#98D343"/>
<path d="M35.5607 36.6855L35.5937 48.2856L8.76566 63.7776L2.63867 61.8095L8.73468 52.1745L35.5607 36.6855Z" fill="#518524"/>
<path d="M62.409 52.316L65.05 50.781L38.221 35.291L35.584 36.825L62.409 52.316Z" fill="#8DC63F"/>
<path d="M68.5032 61.9503L71.1422 60.4163L65.0492 50.7812L62.4082 52.3163L68.5032 61.9503Z" fill="#98D343"/>
<path d="M35.5838 36.8242L35.5488 48.4272L62.3778 63.9152L68.5038 61.9492L62.4088 52.3152L35.5838 36.8242Z" fill="#217F1C"/>
<defs>
<clipPath id="clip0_176_85902">
<rect width="24" height="24" fill="white" transform="translate(158 43)"/>
</clipPath>
</defs>
</svg>
