<svg width="356" height="170" viewBox="0 0 356 170" fill="none" xmlns="http://www.w3.org/2000/svg">
<path d="M65.1996 51.532L62.5605 50L68.6876 52.576L71.3266 54.111L65.1996 51.532Z" fill="#98D343"/>
<path d="M38.4044 78.6213L35.7644 77.0873L35.7324 65.4883L38.3714 67.0233L38.4044 78.6213Z" fill="#705E2C"/>
<path d="M38.3714 67.023L35.7324 65.488L62.5614 50L65.2004 51.532L38.3714 67.023Z" fill="#8DC63F"/>
<path d="M65.2001 51.5322L71.3271 54.1112L65.2341 63.1312L38.4041 78.6212L38.3711 67.0232L65.2001 51.5322Z" fill="#518524"/>
<path d="M8.24905 53.1932L10.8881 51.6582L4.76105 54.2372L2.12305 55.7712L8.24905 53.1932Z" fill="#98D343"/>
<path d="M35.0469 80.2814L37.6849 78.7474L37.7179 67.1494L35.0799 68.6834L35.0469 80.2814Z" fill="#705E2C"/>
<path d="M35.08 68.6832L37.718 67.1492L10.889 51.6582L8.25 53.1932L35.08 68.6832Z" fill="#8DC63F"/>
<path d="M8.24905 53.1934L2.12305 55.7713L8.21506 64.7914L35.0461 80.2813L35.079 68.6833L8.24905 53.1934Z" fill="#217F1C"/>
<path d="M30.3105 163.741C30.3105 163.741 30.3106 163.813 30.3456 163.888C30.3456 163.888 30.3456 163.965 30.3456 164.035C30.3876 164.113 30.4196 164.186 30.4606 164.224C30.4606 164.262 30.4606 164.336 30.4966 164.371C30.5356 164.407 30.5356 164.521 30.6066 164.556C30.6066 164.594 30.6456 164.671 30.6456 164.707C30.7196 164.743 30.7576 164.857 30.7576 164.928C30.8296 164.968 30.9036 165.006 30.9036 165.042C30.9436 165.076 31.0926 165.231 31.1666 165.302C31.2006 165.335 31.2376 165.335 31.2786 165.448C31.3156 165.488 31.3886 165.525 31.4636 165.599C31.5336 165.672 31.5706 165.671 31.6096 165.747C31.7226 165.747 31.7606 165.818 31.8726 165.896C31.9056 165.936 32.0196 165.935 32.0556 165.971C32.2406 166.117 32.4666 166.229 32.6526 166.303C32.7276 166.343 32.7636 166.375 32.7966 166.375C32.9486 166.455 33.1386 166.529 33.3216 166.564C33.3536 166.6 33.4326 166.599 33.5096 166.635C33.5816 166.635 33.6946 166.717 33.7666 166.717C33.8416 166.746 33.9546 166.746 34.0276 166.79C34.1746 166.79 34.2506 166.79 34.3606 166.862C34.4386 166.862 34.5086 166.863 34.5856 166.935C34.8426 166.935 35.0676 167.013 35.2916 167.013C35.3586 167.013 35.4766 167.013 35.5496 167.013C35.6656 167.013 35.8096 167.013 35.8876 167.047C36.0366 167.047 36.1076 167.047 36.1826 167.047C36.2936 167.047 36.3706 167.047 36.5156 167.047C36.6306 167.047 36.7425 167.047 36.8495 167.047C36.8905 167.013 37.0025 167.013 37.1125 167.013C37.1865 167.013 37.2976 167.013 37.4456 167.013C37.4866 167.013 37.5965 167.013 37.6725 167.013C37.7795 166.935 37.8556 166.935 37.9676 166.935C38.1156 166.935 38.1916 166.934 38.3016 166.862C38.3766 166.862 38.4876 166.862 38.5256 166.79C38.6716 166.79 38.7856 166.746 38.9726 166.746C39.0096 166.717 39.0836 166.717 39.1576 166.717C39.3816 166.599 39.6016 166.563 39.7886 166.454C39.9006 166.414 40.0136 166.375 40.1276 166.344C40.1606 166.304 40.1966 166.266 40.2746 166.266C40.4216 166.118 40.5686 166.117 40.7166 165.971C41.9076 165.301 42.5016 164.37 42.5016 163.479V165.448C42.5016 166.376 41.9436 167.308 40.7166 167.978C40.5686 168.05 40.4216 168.125 40.2746 168.233C40.1966 168.271 40.1605 168.271 40.0865 168.311C40.0125 168.385 39.9006 168.386 39.8616 168.422C39.8236 168.422 39.8235 168.422 39.8235 168.422C39.6005 168.497 39.3806 168.564 39.1566 168.643C39.1196 168.643 39.1196 168.643 39.1196 168.643C39.0416 168.717 39.0096 168.717 38.9726 168.717C38.7846 168.717 38.6716 168.793 38.5626 168.793C38.5256 168.793 38.4875 168.793 38.4525 168.793C38.4525 168.793 38.3776 168.868 38.3026 168.868C38.1926 168.868 38.1166 168.905 37.9686 168.905C37.9316 168.905 37.8926 168.939 37.8566 168.939C37.8196 168.939 37.7486 168.939 37.7486 168.939C37.5996 168.939 37.4886 168.938 37.4476 169.014C37.2996 169.014 37.2996 169.014 37.2626 169.014H37.1516C37.0046 169.014 36.8926 169.014 36.8516 169.014C36.7436 169.014 36.7046 169.014 36.6656 169.014C36.5946 169.014 36.5586 169.014 36.5586 169.014C36.3726 169.014 36.2956 169.014 36.1846 169.014C36.1446 169.014 36.0756 169.014 36.0756 169.014C36.0016 169.014 35.9626 169.014 35.8896 169.014C35.8116 169.014 35.6285 169.014 35.4785 169.014C35.4435 169.014 35.4036 169.014 35.3326 169.014L35.2935 168.939C35.0695 168.939 34.8446 168.938 34.5876 168.868C34.4736 168.868 34.4415 168.868 34.3625 168.793C34.2525 168.793 34.1766 168.793 34.0296 168.793C33.9576 168.717 33.8436 168.717 33.7686 168.717C33.6976 168.643 33.5836 168.643 33.5116 168.565C33.4736 168.565 33.4355 168.565 33.4355 168.565C33.3565 168.565 33.3566 168.565 33.3246 168.565C33.1736 168.497 32.9516 168.422 32.7996 168.385C32.7666 168.349 32.7305 168.311 32.6555 168.311C32.4695 168.195 32.2826 168.126 32.0986 167.978C32.0586 167.978 32.0236 167.978 32.0236 167.978C31.9466 167.9 31.9096 167.899 31.8766 167.827C31.7996 167.789 31.7276 167.756 31.6136 167.678C31.5746 167.642 31.5376 167.606 31.4676 167.53C31.3936 167.494 31.3196 167.452 31.2826 167.385C31.2826 167.385 31.2415 167.386 31.2415 167.344C31.2415 167.344 31.2046 167.31 31.1706 167.31C31.0976 167.198 31.0196 167.087 30.9476 167.016C30.9076 167.016 30.9076 167.016 30.8716 166.938C30.8346 166.938 30.8346 166.938 30.8346 166.866C30.7626 166.794 30.7626 166.749 30.6846 166.719C30.6506 166.637 30.6506 166.638 30.6506 166.602C30.6116 166.566 30.6116 166.565 30.6116 166.565C30.5406 166.457 30.5406 166.417 30.5016 166.376C30.5016 166.305 30.4655 166.267 30.4655 166.267C30.4655 166.231 30.4655 166.231 30.4655 166.195C30.4245 166.119 30.3925 166.12 30.3925 165.974C30.3505 165.938 30.3506 165.937 30.3506 165.897C30.3506 165.787 30.3156 165.749 30.3156 165.672C30.3156 165.637 30.3156 165.599 30.3156 165.525C30.3156 165.489 30.3156 165.49 30.3156 165.49V163.521C30.3106 163.594 30.3105 163.594 30.3105 163.741Z" fill="#2B2B2B"/>
<path d="M32.1313 160.994C29.7163 162.366 29.7163 164.594 32.0563 165.972C34.4393 167.451 38.3003 167.451 40.7153 165.972C43.0943 164.594 43.1343 162.365 40.7523 160.994C38.3763 159.543 34.4713 159.543 32.1313 160.994Z" fill="#979797"/>
<path d="M31.7246 131.479C31.7246 131.557 31.7246 131.595 31.7246 131.633C31.7246 131.704 31.7246 131.704 31.7246 131.78C31.7246 131.78 31.7626 131.85 31.7626 131.89C31.7966 131.926 31.7966 131.926 31.8366 132.004C31.8736 132.075 31.8736 132.075 31.8736 132.152C31.9066 132.188 31.9066 132.222 31.9436 132.298C32.0206 132.338 32.0206 132.371 32.0556 132.444C32.0956 132.444 32.1306 132.524 32.1306 132.524C32.1676 132.598 32.2786 132.669 32.3146 132.748C32.3556 132.748 32.4266 132.748 32.4266 132.814C32.4666 132.858 32.5006 132.892 32.6116 132.968C32.6116 132.968 32.6526 133.004 32.7276 133.044C32.7636 133.119 32.7966 133.148 32.8746 133.19C32.9126 133.19 32.9486 133.264 33.0206 133.306C33.2436 133.416 33.4706 133.486 33.6946 133.596C33.7276 133.64 33.8416 133.64 33.8416 133.64C34.0996 133.748 34.3236 133.784 34.5496 133.898C34.5846 133.898 34.5846 133.898 34.6546 133.898C34.8806 133.932 35.1026 133.932 35.3296 134.044C35.3996 134.044 35.4756 134.044 35.4756 134.044C35.7726 134.044 36.0366 134.077 36.2926 134.077H36.3686C36.6626 134.077 36.8886 134.044 37.1846 134.044C37.2586 134.044 37.2586 134.044 37.2956 134.044C37.5586 133.932 37.8156 133.932 37.9996 133.898C38.1126 133.898 38.1496 133.86 38.1886 133.86C38.4496 133.784 38.5946 133.749 38.8566 133.64C38.8566 133.64 38.8946 133.64 38.9696 133.64C39.1936 133.486 39.4496 133.416 39.6766 133.306C40.5656 132.747 41.0126 132.004 41.0126 131.294L41.1626 162.917C41.1626 163.593 40.6766 164.369 39.7496 164.856C39.5646 165.003 39.3036 165.074 39.0806 165.19C39.0806 165.23 39.0386 165.23 39.0386 165.23C39.0066 165.23 38.9696 165.23 38.8936 165.23C38.7816 165.3 38.6676 165.334 38.5216 165.374C38.4486 165.446 38.3736 165.446 38.2616 165.446C38.1876 165.446 38.1876 165.486 38.1496 165.486C38.1126 165.486 38.0406 165.486 37.9996 165.486C37.8526 165.522 37.7436 165.596 37.5586 165.596C37.4846 165.634 37.4436 165.634 37.4436 165.634C37.2956 165.669 37.2956 165.669 37.2586 165.669C37.1846 165.669 37.1476 165.669 37.1106 165.669C36.9626 165.669 36.8476 165.669 36.6626 165.669C36.5916 165.669 36.5556 165.669 36.4746 165.669C36.4446 165.669 36.3686 165.669 36.3686 165.669C36.2926 165.669 36.1806 165.669 36.1406 165.669C35.9966 165.669 35.8476 165.669 35.6246 165.669C35.5866 165.669 35.5866 165.669 35.5866 165.669C35.5476 165.669 35.4746 165.634 35.4396 165.634C35.2896 165.596 35.1416 165.596 35.0276 165.522C34.9196 165.522 34.8406 165.486 34.7336 165.486C34.7336 165.486 34.6956 165.486 34.6546 165.486C34.4696 165.446 34.3236 165.334 34.1746 165.3C34.0996 165.3 34.0276 165.23 33.9886 165.23C33.8806 165.23 33.8416 165.23 33.7656 165.19C33.5406 165.074 33.3536 165.004 33.1376 164.856C33.0976 164.856 33.0976 164.856 33.0976 164.856C33.0206 164.814 33.0206 164.782 32.9486 164.742C32.8746 164.706 32.8366 164.706 32.7626 164.633C32.7266 164.593 32.7266 164.555 32.6516 164.555C32.6106 164.521 32.6106 164.481 32.5006 164.406H32.4666C32.4666 164.37 32.4666 164.37 32.4266 164.37C32.3556 164.261 32.2796 164.222 32.2406 164.112C32.1676 164.112 32.1676 164.112 32.1676 164.112V164.034C32.1306 163.964 32.0956 163.929 32.0206 163.887C32.0206 163.887 32.0206 163.813 32.0206 163.777C32.0206 163.777 31.9836 163.777 31.9836 163.741C31.9436 163.741 31.9066 163.663 31.9066 163.594L31.8736 163.519C31.8736 163.519 31.8736 163.519 31.8736 163.479C31.8736 163.439 31.8736 163.439 31.8366 163.369C31.8366 163.293 31.7966 163.293 31.7966 163.293C31.7966 163.255 31.7966 163.22 31.7966 163.22C31.7966 163.184 31.7966 163.146 31.7966 163.072C31.7626 163.072 31.7626 162.998 31.7626 162.998V162.96L31.7246 131.336C31.7246 131.408 31.7246 131.445 31.7246 131.479Z" fill="#3B3B3B"/>
<path d="M33.0609 129.406C31.2389 130.442 31.2389 132.188 33.0219 133.306C34.8809 134.306 37.8539 134.306 39.6779 133.306C41.5329 132.188 41.5329 130.442 39.7129 129.406C37.8539 128.323 34.8809 128.323 33.0609 129.406Z" fill="#979797"/>
<path d="M38.1907 133.861C38.4517 133.785 38.5967 133.75 38.8587 133.641C38.8587 133.641 38.8967 133.641 38.9717 133.641C39.1957 133.487 39.4517 133.417 39.6787 133.307C40.5677 132.748 41.0147 132.005 41.0147 131.295L41.1647 162.918C41.1647 163.594 40.6787 164.37 39.7517 164.857C39.5667 165.004 39.3057 165.075 39.0827 165.191C39.0827 165.231 39.0407 165.231 39.0407 165.231C39.0087 165.231 38.9717 165.231 38.8957 165.231C38.7837 165.301 38.6697 165.335 38.5237 165.375C38.4507 165.447 38.3757 165.447 38.2637 165.447C38.1897 165.447 38.1897 165.487 38.1517 165.487C38.1147 165.487 38.0427 165.487 38.0017 165.487C38.0017 165.523 37.9667 165.523 37.9297 165.523V133.933C37.9667 133.899 38.0017 133.899 38.0017 133.899C38.1157 133.899 38.1527 133.861 38.1907 133.861Z" fill="#2B2B2B"/>
<path d="M34.1747 60.1313C34.1747 60.2383 34.2147 60.2773 34.2497 60.3173C34.2497 60.3953 34.2497 60.3953 34.2497 60.4273C34.3237 60.4653 34.4387 60.5383 34.4387 60.5763C34.4707 60.6463 34.5497 60.6463 34.5847 60.7243C34.6547 60.7243 34.6957 60.7583 34.7337 60.7583C34.8807 60.8693 35.0277 60.9473 35.1417 61.0243C35.2137 61.0243 35.2897 61.0243 35.2897 61.0243C35.3987 61.0243 35.4747 61.0603 35.5867 61.0983C35.5867 61.0983 35.7347 61.0983 35.8077 61.0983C35.8477 61.0983 35.8477 61.0983 35.8857 61.1703C35.9967 61.1703 36.1057 61.1703 36.1807 61.1703C36.2567 61.1703 36.2567 61.1703 36.2917 61.1703C36.3677 61.1703 36.5137 61.1703 36.6617 61.1703L36.7007 61.0983C36.8477 61.0983 36.9237 61.0983 37.0007 61.0603C37.0727 61.0603 37.0727 61.0603 37.1097 61.0243C37.1837 61.0243 37.2947 61.0243 37.4427 60.9483C37.5577 60.9103 37.6697 60.8703 37.7767 60.7593C38.1877 60.5383 38.4487 60.2383 38.4487 59.9053L38.5947 131.001C38.5947 131.296 38.4487 131.634 37.9647 131.892C37.8527 131.928 37.7767 132.006 37.6697 132.078C37.6697 132.078 37.6697 132.078 37.5947 132.078C37.5587 132.078 37.4847 132.078 37.4437 132.114C37.3717 132.114 37.2957 132.154 37.2957 132.154C37.2587 132.154 37.2587 132.154 37.2587 132.19H37.1847C37.1107 132.19 37.0007 132.224 36.9617 132.224H36.8887C36.8887 132.224 36.8887 132.224 36.8477 132.224C36.8477 132.224 36.8477 132.224 36.7397 132.224C36.7007 132.224 36.6287 132.266 36.5547 132.266C36.5137 132.266 36.4747 132.266 36.4747 132.266C36.4747 132.266 36.4447 132.266 36.3687 132.266C36.3687 132.266 36.3687 132.266 36.3297 132.266C36.2577 132.266 36.1417 132.224 36.0717 132.224H36.0357C35.9587 132.224 35.8867 132.224 35.8477 132.19C35.8077 132.19 35.7717 132.19 35.7717 132.19C35.6647 132.154 35.5867 132.154 35.5127 132.114C35.4747 132.078 35.4397 132.078 35.3997 132.078C35.3997 132.078 35.3577 132.078 35.3297 132.078C35.2147 132.007 35.0667 131.929 34.9197 131.892C34.9197 131.852 34.8807 131.852 34.8807 131.852L34.8417 131.782C34.7347 131.782 34.6957 131.706 34.6557 131.706C34.5857 131.635 34.5507 131.597 34.4707 131.559C34.4707 131.481 34.4707 131.481 34.4707 131.481V131.447C34.4387 131.447 34.4387 131.411 34.4387 131.411C34.4387 131.337 34.3607 131.298 34.3607 131.264L34.3247 131.188C34.3247 131.112 34.3247 131.042 34.3247 131.003L34.1367 59.9453V59.9073C34.1367 59.9833 34.1367 60.0913 34.1747 60.1313Z" fill="#3B3B3B"/>
<path d="M34.7355 59.0148C33.8825 59.4928 33.8825 60.3168 34.7355 60.7588C35.5895 61.2418 36.9255 61.2418 37.7795 60.7588C38.5965 60.3168 38.5965 59.4918 37.7795 59.0148C36.9635 58.4938 35.5885 58.4938 34.7355 59.0148Z" fill="#434351"/>
<path d="M36.6637 61.1713L36.7026 61.0992C36.8496 61.0992 36.9257 61.0992 37.0027 61.0612C37.0747 61.0612 37.0747 61.0612 37.1117 61.0252C37.1857 61.0252 37.2966 61.0252 37.4446 60.9492C37.5596 60.9112 37.6717 60.8713 37.7787 60.7603C38.1897 60.5393 38.4507 60.2393 38.4507 59.9062L38.5966 131.002C38.5966 131.297 38.4506 131.635 37.9666 131.893C37.8546 131.929 37.7787 132.007 37.6717 132.079C37.6717 132.079 37.6716 132.079 37.5966 132.079C37.5606 132.079 37.4866 132.079 37.4456 132.115C37.3736 132.115 37.2976 132.155 37.2976 132.155C37.2606 132.155 37.2607 132.155 37.2607 132.191H37.1866C37.1126 132.191 37.0027 132.225 36.9637 132.225H36.8907C36.8907 132.225 36.8906 132.225 36.8496 132.225C36.8496 132.225 36.8496 132.225 36.7416 132.225C36.7026 132.225 36.6306 132.267 36.5566 132.267V61.1732C36.5916 61.1712 36.5917 61.1713 36.6637 61.1713Z" fill="#2B2B2B"/>
<path d="M33.1402 57.7479C33.1402 57.7879 33.1402 57.8319 33.1402 57.8979C33.1402 57.8979 33.1722 57.8979 33.1722 57.9759V58.0469C33.2092 58.0849 33.2092 58.1209 33.2092 58.1209C33.2092 58.1209 33.2452 58.1909 33.2452 58.2309C33.2842 58.2689 33.3232 58.2689 33.3232 58.3449C33.3232 58.3449 33.3552 58.3449 33.3552 58.3809C33.3552 58.3809 33.3962 58.4179 33.4342 58.4179C33.4722 58.4919 33.5102 58.5629 33.5422 58.6029C33.5822 58.6029 33.5822 58.6029 33.6192 58.6409C33.6542 58.7189 33.6542 58.7189 33.6952 58.7189C33.7282 58.7499 33.7282 58.7499 33.7662 58.7879C33.8412 58.8279 33.8412 58.8659 33.8802 58.9039C33.9542 58.9039 33.9882 58.9039 34.0272 58.9339C34.1742 59.0499 34.3242 59.0879 34.4702 59.1599C34.5082 59.1999 34.5492 59.1999 34.5842 59.1999C34.6952 59.2379 34.7702 59.3099 34.8802 59.3099C34.9972 59.3459 35.1032 59.3839 35.2142 59.3839C35.2902 59.4589 35.4752 59.4589 35.5872 59.4589C35.5872 59.4589 35.6252 59.4589 35.6642 59.4889C35.8482 59.4889 36.0712 59.4889 36.1812 59.4889C36.1812 59.4889 36.2572 59.4889 36.2922 59.4889C36.4752 59.4889 36.6622 59.4889 36.8482 59.4889C36.8482 59.4589 36.8892 59.4589 36.8892 59.4589C37.0742 59.4589 37.2592 59.4589 37.4442 59.3839C37.4442 59.3839 37.4442 59.3839 37.4852 59.3839C37.6712 59.3099 37.7782 59.3099 37.9282 59.1989C37.9652 59.1989 37.9652 59.1989 37.9652 59.1989C38.1512 59.0879 38.2992 59.0499 38.4852 58.9329C39.0822 58.5609 39.4152 58.1189 39.4152 57.6699V59.6059C39.4152 60.0859 39.1182 60.5719 38.4852 60.9439C38.3752 61.0199 38.1892 61.0939 38.0012 61.1669C37.9662 61.2019 37.9662 61.2019 37.9292 61.2019C37.8542 61.2019 37.7452 61.2379 37.6712 61.2379C37.5962 61.3119 37.5602 61.3119 37.4852 61.3539H37.4442C37.3722 61.3539 37.2962 61.3539 37.2962 61.3539C37.2592 61.3879 37.1112 61.3879 37.0012 61.3879C36.9622 61.3879 36.9242 61.3879 36.8892 61.3879H36.8482C36.7792 61.3879 36.7402 61.3879 36.7012 61.4639C36.5912 61.4639 36.4742 61.4639 36.3682 61.4639C36.3682 61.4639 36.3292 61.4639 36.2922 61.4639H36.1812C36.1412 61.4639 36.1062 61.4639 36.0722 61.4639C35.9592 61.4639 35.8482 61.4639 35.7362 61.3879C35.7362 61.3879 35.7362 61.3879 35.7012 61.3879C35.6652 61.3879 35.5882 61.3879 35.5882 61.3879C35.4762 61.3879 35.4002 61.3879 35.2912 61.3879C35.2912 61.3879 35.2152 61.3879 35.2152 61.3539C35.1042 61.3539 34.9982 61.3119 34.8812 61.2379C34.8422 61.2379 34.7722 61.2379 34.7342 61.2379C34.6962 61.2019 34.6552 61.2019 34.5852 61.2019C34.5502 61.2019 34.5092 61.1669 34.4712 61.1669C34.3252 61.0949 34.1752 61.0209 34.0282 60.9439V60.9059L33.9562 60.8659C33.8432 60.7949 33.8432 60.7949 33.7682 60.7549C33.7302 60.7549 33.7302 60.7209 33.6972 60.7209C33.6972 60.6429 33.6562 60.6429 33.6212 60.6429C33.6212 60.6429 33.5842 60.6429 33.5842 60.6069V60.5729C33.5122 60.5349 33.4742 60.4619 33.4362 60.4239H33.3982C33.3982 60.3919 33.3572 60.3919 33.3572 60.3919C33.3572 60.3139 33.3252 60.2739 33.3252 60.2739C33.3252 60.2359 33.3252 60.2359 33.2862 60.2019L33.2472 60.1679C33.2472 60.1679 33.2472 60.0889 33.2112 60.0889V60.0529L33.1742 59.9809C33.1742 59.9809 33.1742 59.9809 33.1742 59.9029C33.1422 59.8329 33.1422 59.8329 33.1422 59.8329C33.1422 59.8329 33.1422 59.7599 33.1422 59.6819C33.1422 59.6819 33.1422 59.6819 33.1422 59.6479C33.1022 59.6479 33.1022 59.6479 33.1022 59.6479V57.6729C33.1002 57.6739 33.1002 57.7479 33.1402 57.7479Z" fill="#2B2B2B"/>
<path d="M34.0287 56.3441C32.7977 57.0481 32.7977 58.2711 34.0287 58.9371C35.2927 59.6831 37.2607 59.6831 38.4867 58.9371C39.7147 58.2711 39.7147 57.0481 38.4867 56.3441C37.2607 55.6301 35.2917 55.6301 34.0287 56.3441Z" fill="#3B3B3B"/>
<path d="M8.73383 84.1763L6.0918 82.6443L32.9218 67.1533L35.5598 68.6873L8.73383 84.1763Z" fill="#8DC63F"/>
<path d="M2.638 93.8115L0 92.2795L6.09198 82.6445L8.73401 84.1765L2.638 93.8115Z" fill="#98D343"/>
<path d="M35.5607 68.6875L35.5937 80.2875L8.76566 95.7795L2.63867 93.8115L8.73468 84.1765L35.5607 68.6875Z" fill="#518524"/>
<path d="M62.409 84.316L65.05 82.781L38.221 67.291L35.584 68.825L62.409 84.316Z" fill="#8DC63F"/>
<path d="M68.5032 93.9503L71.1422 92.4163L65.0492 82.7812L62.4082 84.3163L68.5032 93.9503Z" fill="#98D343"/>
<path d="M35.5838 68.8252L35.5488 80.4282L62.3778 95.9162L68.5038 93.9502L62.4088 84.3162L35.5838 68.8252Z" fill="#217F1C"/>
<rect x="83" width="273" height="72" rx="16" fill="#006DB7"/>
<rect x="98.0476" y="15.0476" width="41.9048" height="41.9048" rx="20.9524" fill="#407C1D"/>
<rect x="98.0476" y="15.0476" width="41.9048" height="41.9048" rx="20.9524" stroke="white" stroke-width="2.09524"/>
<g clip-path="url(#clip0_210_6122)">
<path d="M126 44H112V45C112 45.2652 111.895 45.5196 111.707 45.7071C111.52 45.8946 111.265 46 111 46H110C109.735 46 109.48 45.8946 109.293 45.7071C109.105 45.5196 109 45.2652 109 45V35L111.48 29.212C111.634 28.852 111.891 28.5452 112.218 28.3298C112.545 28.1143 112.928 27.9997 113.32 28H124.68C125.071 28 125.454 28.1149 125.781 28.3303C126.107 28.5458 126.364 28.8523 126.518 29.212L129 35V45C129 45.2652 128.895 45.5196 128.707 45.7071C128.52 45.8946 128.265 46 128 46H127C126.735 46 126.48 45.8946 126.293 45.7071C126.105 45.5196 126 45.2652 126 45V44ZM127 37H111V42H127V37ZM111.176 35H126.824L124.681 30H113.32L111.177 35H111.176ZM113.5 41C113.102 41 112.721 40.842 112.439 40.5607C112.158 40.2794 112 39.8978 112 39.5C112 39.1022 112.158 38.7206 112.439 38.4393C112.721 38.158 113.102 38 113.5 38C113.898 38 114.279 38.158 114.561 38.4393C114.842 38.7206 115 39.1022 115 39.5C115 39.8978 114.842 40.2794 114.561 40.5607C114.279 40.842 113.898 41 113.5 41ZM124.5 41C124.102 41 123.721 40.842 123.439 40.5607C123.158 40.2794 123 39.8978 123 39.5C123 39.1022 123.158 38.7206 123.439 38.4393C123.721 38.158 124.102 38 124.5 38C124.898 38 125.279 38.158 125.561 38.4393C125.842 38.7206 126 39.1022 126 39.5C126 39.8978 125.842 40.2794 125.561 40.5607C125.279 40.842 124.898 41 124.5 41Z" fill="white"/>
</g>
<path d="M156.722 12.5455H160.591L165.773 25.1932H165.977L171.159 12.5455H175.028V30H171.994V18.0085H171.832L167.009 29.9489H164.741L159.918 17.983H159.756V30H156.722V12.5455ZM178.335 30V16.9091H181.42V30H178.335ZM179.886 15.0511C179.398 15.0511 178.977 14.8892 178.625 14.5653C178.273 14.2358 178.097 13.8409 178.097 13.3807C178.097 12.9148 178.273 12.5199 178.625 12.196C178.977 11.8665 179.398 11.7017 179.886 11.7017C180.381 11.7017 180.801 11.8665 181.148 12.196C181.5 12.5199 181.676 12.9148 181.676 13.3807C181.676 13.8409 181.5 14.2358 181.148 14.5653C180.801 14.8892 180.381 15.0511 179.886 15.0511ZM184.593 30V16.9091H187.585V19.0909H187.721C187.96 18.3352 188.369 17.7528 188.948 17.3438C189.533 16.929 190.201 16.7216 190.951 16.7216C191.121 16.7216 191.312 16.7301 191.522 16.7472C191.738 16.7585 191.917 16.7784 192.059 16.8068V19.6449C191.928 19.5994 191.721 19.5597 191.437 19.5256C191.158 19.4858 190.888 19.4659 190.627 19.4659C190.065 19.4659 189.559 19.5881 189.11 19.8324C188.667 20.071 188.317 20.4034 188.062 20.8295C187.806 21.2557 187.678 21.7472 187.678 22.304V30H184.593ZM197.641 30.2642C196.812 30.2642 196.065 30.1165 195.4 29.821C194.741 29.5199 194.218 29.0767 193.832 28.4915C193.451 27.9062 193.261 27.1847 193.261 26.3267C193.261 25.5881 193.397 24.9773 193.67 24.4943C193.942 24.0114 194.315 23.625 194.786 23.3352C195.258 23.0455 195.789 22.8267 196.38 22.679C196.977 22.5256 197.593 22.4148 198.229 22.3466C198.996 22.267 199.619 22.196 200.096 22.1335C200.573 22.0653 200.92 21.9631 201.136 21.8267C201.357 21.6847 201.468 21.4659 201.468 21.1705V21.1193C201.468 20.4773 201.278 19.9801 200.897 19.6278C200.516 19.2756 199.968 19.0994 199.252 19.0994C198.496 19.0994 197.897 19.2642 197.454 19.5938C197.016 19.9233 196.721 20.3125 196.567 20.7614L193.687 20.3523C193.914 19.5568 194.289 18.892 194.812 18.358C195.335 17.8182 195.974 17.4148 196.729 17.1477C197.485 16.875 198.32 16.7386 199.235 16.7386C199.866 16.7386 200.494 16.8125 201.119 16.9602C201.744 17.108 202.315 17.3523 202.832 17.6932C203.349 18.0284 203.763 18.4858 204.076 19.0653C204.394 19.6449 204.553 20.3693 204.553 21.2386V30H201.587V28.2017H201.485C201.298 28.5653 201.033 28.9062 200.692 29.2244C200.357 29.5369 199.934 29.7898 199.423 29.983C198.917 30.1705 198.323 30.2642 197.641 30.2642ZM198.442 27.9972C199.062 27.9972 199.599 27.875 200.053 27.6307C200.508 27.3807 200.857 27.0511 201.102 26.642C201.352 26.233 201.477 25.7869 201.477 25.304V23.7614C201.38 23.8409 201.215 23.9148 200.982 23.983C200.755 24.0511 200.499 24.1108 200.215 24.1619C199.931 24.2131 199.65 24.2585 199.371 24.2983C199.093 24.3381 198.852 24.3722 198.647 24.4006C198.187 24.4631 197.775 24.5653 197.411 24.7074C197.048 24.8494 196.761 25.0483 196.55 25.304C196.34 25.554 196.235 25.8778 196.235 26.2756C196.235 26.8438 196.442 27.2727 196.857 27.5625C197.272 27.8523 197.8 27.9972 198.442 27.9972ZM207.656 30V16.9091H210.604V19.1335H210.758C211.031 18.3835 211.482 17.7983 212.113 17.3778C212.744 16.9517 213.496 16.7386 214.371 16.7386C215.258 16.7386 216.005 16.9545 216.613 17.3864C217.227 17.8125 217.658 18.3949 217.908 19.1335H218.045C218.335 18.4062 218.823 17.8267 219.511 17.3949C220.204 16.9574 221.025 16.7386 221.974 16.7386C223.178 16.7386 224.161 17.1193 224.923 17.8807C225.684 18.642 226.065 19.7528 226.065 21.2131V30H222.971V21.6903C222.971 20.8778 222.755 20.2841 222.323 19.9091C221.891 19.5284 221.363 19.3381 220.738 19.3381C219.994 19.3381 219.411 19.571 218.991 20.0369C218.576 20.4972 218.369 21.0966 218.369 21.8352V30H215.343V21.5625C215.343 20.8864 215.138 20.3466 214.729 19.9432C214.326 19.5398 213.798 19.3381 213.144 19.3381C212.701 19.3381 212.298 19.4517 211.934 19.679C211.57 19.9006 211.281 20.2159 211.065 20.625C210.849 21.0284 210.741 21.5 210.741 22.0398V30H207.656ZM232.962 30.2642C232.132 30.2642 231.385 30.1165 230.72 29.821C230.061 29.5199 229.538 29.0767 229.152 28.4915C228.771 27.9062 228.581 27.1847 228.581 26.3267C228.581 25.5881 228.717 24.9773 228.99 24.4943C229.263 24.0114 229.635 23.625 230.107 23.3352C230.578 23.0455 231.109 22.8267 231.7 22.679C232.297 22.5256 232.913 22.4148 233.55 22.3466C234.317 22.267 234.939 22.196 235.416 22.1335C235.893 22.0653 236.24 21.9631 236.456 21.8267C236.678 21.6847 236.788 21.4659 236.788 21.1705V21.1193C236.788 20.4773 236.598 19.9801 236.217 19.6278C235.837 19.2756 235.288 19.0994 234.572 19.0994C233.817 19.0994 233.217 19.2642 232.774 19.5938C232.337 19.9233 232.041 20.3125 231.888 20.7614L229.007 20.3523C229.234 19.5568 229.609 18.892 230.132 18.358C230.655 17.8182 231.294 17.4148 232.05 17.1477C232.805 16.875 233.641 16.7386 234.555 16.7386C235.186 16.7386 235.814 16.8125 236.439 16.9602C237.064 17.108 237.635 17.3523 238.152 17.6932C238.669 18.0284 239.084 18.4858 239.396 19.0653C239.714 19.6449 239.874 20.3693 239.874 21.2386V30H236.908V28.2017H236.805C236.618 28.5653 236.354 28.9062 236.013 29.2244C235.678 29.5369 235.254 29.7898 234.743 29.983C234.237 30.1705 233.643 30.2642 232.962 30.2642ZM233.763 27.9972C234.382 27.9972 234.919 27.875 235.374 27.6307C235.828 27.3807 236.178 27.0511 236.422 26.642C236.672 26.233 236.797 25.7869 236.797 25.304V23.7614C236.7 23.8409 236.536 23.9148 236.303 23.983C236.075 24.0511 235.82 24.1108 235.536 24.1619C235.251 24.2131 234.97 24.2585 234.692 24.2983C234.413 24.3381 234.172 24.3722 233.967 24.4006C233.507 24.4631 233.095 24.5653 232.732 24.7074C232.368 24.8494 232.081 25.0483 231.871 25.304C231.661 25.554 231.555 25.8778 231.555 26.2756C231.555 26.8438 231.763 27.2727 232.178 27.5625C232.592 27.8523 233.121 27.9972 233.763 27.9972ZM242.976 30V16.9091H245.967V19.0909H246.104C246.342 18.3352 246.751 17.7528 247.331 17.3438C247.916 16.929 248.584 16.7216 249.334 16.7216C249.504 16.7216 249.695 16.7301 249.905 16.7472C250.121 16.7585 250.3 16.7784 250.442 16.8068V19.6449C250.311 19.5994 250.104 19.5597 249.82 19.5256C249.541 19.4858 249.271 19.4659 249.01 19.4659C248.447 19.4659 247.942 19.5881 247.493 19.8324C247.05 20.071 246.7 20.4034 246.445 20.8295C246.189 21.2557 246.061 21.7472 246.061 22.304V30H242.976ZM265.57 11.7273L259.945 32.625H257.243L262.868 11.7273H265.57ZM288.568 18.4347H285.381C285.29 17.9119 285.122 17.4489 284.878 17.0455C284.634 16.6364 284.33 16.2898 283.966 16.0057C283.602 15.7216 283.188 15.5085 282.722 15.3665C282.261 15.2188 281.764 15.1449 281.23 15.1449C280.281 15.1449 279.44 15.3835 278.707 15.8608C277.974 16.3324 277.401 17.0256 276.986 17.9403C276.571 18.8494 276.364 19.9602 276.364 21.2727C276.364 22.608 276.571 23.733 276.986 24.6477C277.406 25.5568 277.98 26.2443 278.707 26.7102C279.44 27.1705 280.278 27.4006 281.222 27.4006C281.744 27.4006 282.233 27.3324 282.688 27.196C283.148 27.054 283.56 26.8466 283.923 26.5739C284.293 26.3011 284.602 25.9659 284.852 25.5682C285.108 25.1705 285.284 24.7159 285.381 24.2045L288.568 24.2216C288.449 25.0511 288.19 25.8295 287.793 26.5568C287.401 27.2841 286.886 27.9261 286.25 28.483C285.614 29.0341 284.869 29.4659 284.017 29.7784C283.165 30.0852 282.219 30.2386 281.179 30.2386C279.645 30.2386 278.276 29.8835 277.071 29.1733C275.866 28.4631 274.918 27.4375 274.224 26.0966C273.531 24.7557 273.185 23.1477 273.185 21.2727C273.185 19.392 273.534 17.7841 274.233 16.4489C274.932 15.108 275.884 14.0824 277.088 13.3722C278.293 12.6619 279.656 12.3068 281.179 12.3068C282.151 12.3068 283.054 12.4432 283.889 12.7159C284.724 12.9886 285.469 13.3892 286.122 13.9176C286.776 14.4403 287.313 15.0824 287.733 15.8438C288.159 16.5994 288.438 17.4631 288.568 18.4347ZM291.327 30V16.9091H294.319V19.0909H294.455C294.694 18.3352 295.103 17.7528 295.683 17.3438C296.268 16.929 296.935 16.7216 297.685 16.7216C297.856 16.7216 298.046 16.7301 298.256 16.7472C298.472 16.7585 298.651 16.7784 298.793 16.8068V19.6449C298.663 19.5994 298.455 19.5597 298.171 19.5256C297.893 19.4858 297.623 19.4659 297.362 19.4659C296.799 19.4659 296.293 19.5881 295.844 19.8324C295.401 20.071 295.052 20.4034 294.796 20.8295C294.54 21.2557 294.413 21.7472 294.413 22.304V30H291.327ZM309.187 24.4943V16.9091H312.272V30H309.281V27.6733H309.144C308.849 28.4062 308.363 29.0057 307.687 29.4716C307.016 29.9375 306.19 30.1705 305.207 30.1705C304.349 30.1705 303.59 29.9801 302.931 29.5994C302.278 29.2131 301.766 28.6534 301.397 27.9205C301.028 27.1818 300.843 26.2898 300.843 25.2443V16.9091H303.928V24.767C303.928 25.5966 304.156 26.2557 304.61 26.7443C305.065 27.233 305.661 27.4773 306.4 27.4773C306.854 27.4773 307.295 27.3665 307.721 27.1449C308.147 26.9233 308.496 26.5938 308.769 26.1562C309.048 25.7131 309.187 25.1591 309.187 24.4943ZM321.155 30.2557C319.848 30.2557 318.726 29.9688 317.788 29.3949C316.857 28.821 316.138 28.0284 315.632 27.017C315.132 26 314.882 24.8295 314.882 23.5057C314.882 22.1761 315.138 21.0028 315.649 19.9858C316.161 18.9631 316.882 18.1676 317.814 17.5994C318.751 17.0256 319.859 16.7386 321.138 16.7386C322.2 16.7386 323.141 16.9347 323.959 17.3267C324.783 17.7131 325.439 18.2614 325.928 18.9716C326.416 19.6761 326.695 20.5 326.763 21.4432H323.814C323.695 20.8125 323.411 20.2869 322.962 19.8665C322.518 19.4403 321.925 19.2273 321.18 19.2273C320.55 19.2273 319.996 19.3977 319.518 19.7386C319.041 20.0739 318.669 20.5568 318.402 21.1875C318.141 21.8182 318.01 22.5739 318.01 23.4545C318.01 24.3466 318.141 25.1136 318.402 25.7557C318.663 26.392 319.03 26.8835 319.501 27.2301C319.979 27.571 320.538 27.7415 321.18 27.7415C321.635 27.7415 322.041 27.6562 322.399 27.4858C322.763 27.3097 323.067 27.0568 323.311 26.7273C323.555 26.3977 323.723 25.9972 323.814 25.5256H326.763C326.689 26.4517 326.416 27.2727 325.945 27.9886C325.473 28.6989 324.831 29.2557 324.018 29.6591C323.206 30.0568 322.251 30.2557 321.155 30.2557ZM335.092 30.2557C333.779 30.2557 332.646 29.983 331.691 29.4375C330.742 28.8864 330.012 28.108 329.501 27.1023C328.989 26.0909 328.734 24.9006 328.734 23.5312C328.734 22.1847 328.989 21.0028 329.501 19.9858C330.018 18.9631 330.739 18.1676 331.665 17.5994C332.592 17.0256 333.68 16.7386 334.93 16.7386C335.737 16.7386 336.498 16.8693 337.214 17.1307C337.935 17.3864 338.572 17.7841 339.123 18.3239C339.68 18.8636 340.117 19.5511 340.435 20.3864C340.754 21.2159 340.913 22.2045 340.913 23.3523V24.2983H330.183V22.2188H337.955C337.95 21.6278 337.822 21.1023 337.572 20.642C337.322 20.1761 336.972 19.8097 336.523 19.5426C336.08 19.2756 335.563 19.142 334.972 19.142C334.342 19.142 333.788 19.2955 333.31 19.6023C332.833 19.9034 332.461 20.3011 332.194 20.7955C331.933 21.2841 331.799 21.821 331.793 22.4062V24.2216C331.793 24.983 331.933 25.6364 332.211 26.1818C332.489 26.7216 332.879 27.1364 333.379 27.4261C333.879 27.7102 334.464 27.8523 335.134 27.8523C335.583 27.8523 335.989 27.7898 336.353 27.6648C336.717 27.5341 337.032 27.3438 337.299 27.0938C337.566 26.8438 337.768 26.5341 337.904 26.1648L340.785 26.4886C340.603 27.25 340.256 27.9148 339.745 28.483C339.239 29.0455 338.592 29.483 337.802 29.7955C337.012 30.1023 336.109 30.2557 335.092 30.2557ZM159.67 51.3295V59H156.585V41.5455H159.602V48.1335H159.756C160.063 47.3949 160.537 46.8125 161.179 46.3864C161.827 45.9545 162.651 45.7386 163.651 45.7386C164.56 45.7386 165.352 45.929 166.028 46.3097C166.705 46.6903 167.227 47.2472 167.597 47.9801C167.972 48.7131 168.159 49.608 168.159 50.6648V59H165.074V51.142C165.074 50.2614 164.847 49.5767 164.392 49.0881C163.943 48.5937 163.312 48.3466 162.5 48.3466C161.955 48.3466 161.466 48.4659 161.034 48.7045C160.608 48.9375 160.273 49.2756 160.028 49.7188C159.79 50.1619 159.67 50.6989 159.67 51.3295ZM175.071 59.2642C174.241 59.2642 173.494 59.1165 172.83 58.821C172.17 58.5199 171.648 58.0767 171.261 57.4915C170.881 56.9062 170.69 56.1847 170.69 55.3267C170.69 54.5881 170.827 53.9773 171.099 53.4943C171.372 53.0114 171.744 52.625 172.216 52.3352C172.688 52.0455 173.219 51.8267 173.81 51.679C174.406 51.5256 175.023 51.4148 175.659 51.3466C176.426 51.267 177.048 51.196 177.526 51.1335C178.003 51.0653 178.349 50.9631 178.565 50.8267C178.787 50.6847 178.898 50.4659 178.898 50.1705V50.1193C178.898 49.4773 178.707 48.9801 178.327 48.6278C177.946 48.2756 177.398 48.0994 176.682 48.0994C175.926 48.0994 175.327 48.2642 174.884 48.5938C174.446 48.9233 174.151 49.3125 173.997 49.7614L171.116 49.3523C171.344 48.5568 171.719 47.892 172.241 47.358C172.764 46.8182 173.403 46.4148 174.159 46.1477C174.915 45.875 175.75 45.7386 176.665 45.7386C177.295 45.7386 177.923 45.8125 178.548 45.9602C179.173 46.108 179.744 46.3523 180.261 46.6932C180.778 47.0284 181.193 47.4858 181.506 48.0653C181.824 48.6449 181.983 49.3693 181.983 50.2386V59H179.017V57.2017H178.915C178.727 57.5653 178.463 57.9062 178.122 58.2244C177.787 58.5369 177.364 58.7898 176.852 58.983C176.347 59.1705 175.753 59.2642 175.071 59.2642ZM175.872 56.9972C176.491 56.9972 177.028 56.875 177.483 56.6307C177.938 56.3807 178.287 56.0511 178.531 55.642C178.781 55.233 178.906 54.7869 178.906 54.304V52.7614C178.81 52.8409 178.645 52.9148 178.412 52.983C178.185 53.0511 177.929 53.1108 177.645 53.1619C177.361 53.2131 177.08 53.2585 176.801 53.2983C176.523 53.3381 176.281 53.3722 176.077 53.4006C175.616 53.4631 175.205 53.5653 174.841 53.7074C174.477 53.8494 174.19 54.0483 173.98 54.304C173.77 54.554 173.665 54.8778 173.665 55.2756C173.665 55.8438 173.872 56.2727 174.287 56.5625C174.702 56.8523 175.23 56.9972 175.872 56.9972ZM190.795 59.2557C189.489 59.2557 188.366 58.9688 187.429 58.3949C186.497 57.821 185.778 57.0284 185.273 56.017C184.773 55 184.523 53.8295 184.523 52.5057C184.523 51.1761 184.778 50.0028 185.29 48.9858C185.801 47.9631 186.523 47.1676 187.455 46.5994C188.392 46.0256 189.5 45.7386 190.778 45.7386C191.841 45.7386 192.781 45.9347 193.599 46.3267C194.423 46.7131 195.08 47.2614 195.568 47.9716C196.057 48.6761 196.335 49.5 196.403 50.4432H193.455C193.335 49.8125 193.051 49.2869 192.602 48.8665C192.159 48.4403 191.565 48.2273 190.821 48.2273C190.19 48.2273 189.636 48.3977 189.159 48.7386C188.682 49.0739 188.31 49.5568 188.043 50.1875C187.781 50.8182 187.651 51.5739 187.651 52.4545C187.651 53.3466 187.781 54.1136 188.043 54.7557C188.304 55.392 188.67 55.8835 189.142 56.2301C189.619 56.571 190.179 56.7415 190.821 56.7415C191.276 56.7415 191.682 56.6562 192.04 56.4858C192.403 56.3097 192.707 56.0568 192.952 55.7273C193.196 55.3977 193.364 54.9972 193.455 54.5256H196.403C196.33 55.4517 196.057 56.2727 195.585 56.9886C195.114 57.6989 194.472 58.2557 193.659 58.6591C192.847 59.0568 191.892 59.2557 190.795 59.2557ZM198.937 59V45.9091H202.022V59H198.937ZM200.488 44.0511C199.999 44.0511 199.579 43.8892 199.227 43.5653C198.874 43.2358 198.698 42.8409 198.698 42.3807C198.698 41.9148 198.874 41.5199 199.227 41.196C199.579 40.8665 199.999 40.7017 200.488 40.7017C200.982 40.7017 201.403 40.8665 201.749 41.196C202.102 41.5199 202.278 41.9148 202.278 42.3807C202.278 42.8409 202.102 43.2358 201.749 43.5653C201.403 43.8892 200.982 44.0511 200.488 44.0511ZM208.962 59.2642C208.132 59.2642 207.385 59.1165 206.72 58.821C206.061 58.5199 205.538 58.0767 205.152 57.4915C204.771 56.9062 204.581 56.1847 204.581 55.3267C204.581 54.5881 204.717 53.9773 204.99 53.4943C205.263 53.0114 205.635 52.625 206.107 52.3352C206.578 52.0455 207.109 51.8267 207.7 51.679C208.297 51.5256 208.913 51.4148 209.55 51.3466C210.317 51.267 210.939 51.196 211.416 51.1335C211.893 51.0653 212.24 50.9631 212.456 50.8267C212.678 50.6847 212.788 50.4659 212.788 50.1705V50.1193C212.788 49.4773 212.598 48.9801 212.217 48.6278C211.837 48.2756 211.288 48.0994 210.572 48.0994C209.817 48.0994 209.217 48.2642 208.774 48.5938C208.337 48.9233 208.041 49.3125 207.888 49.7614L205.007 49.3523C205.234 48.5568 205.609 47.892 206.132 47.358C206.655 46.8182 207.294 46.4148 208.05 46.1477C208.805 45.875 209.641 45.7386 210.555 45.7386C211.186 45.7386 211.814 45.8125 212.439 45.9602C213.064 46.108 213.635 46.3523 214.152 46.6932C214.669 47.0284 215.084 47.4858 215.396 48.0653C215.714 48.6449 215.874 49.3693 215.874 50.2386V59H212.908V57.2017H212.805C212.618 57.5653 212.354 57.9062 212.013 58.2244C211.678 58.5369 211.254 58.7898 210.743 58.983C210.237 59.1705 209.643 59.2642 208.962 59.2642ZM209.763 56.9972C210.382 56.9972 210.919 56.875 211.374 56.6307C211.828 56.3807 212.178 56.0511 212.422 55.642C212.672 55.233 212.797 54.7869 212.797 54.304V52.7614C212.7 52.8409 212.536 52.9148 212.303 52.983C212.075 53.0511 211.82 53.1108 211.536 53.1619C211.251 53.2131 210.97 53.2585 210.692 53.2983C210.413 53.3381 210.172 53.3722 209.967 53.4006C209.507 53.4631 209.095 53.5653 208.732 53.7074C208.368 53.8494 208.081 54.0483 207.871 54.304C207.661 54.554 207.555 54.8778 207.555 55.2756C207.555 55.8438 207.763 56.2727 208.178 56.5625C208.592 56.8523 209.121 56.9972 209.763 56.9972ZM234.551 46.3438C234.472 45.5994 234.136 45.0199 233.545 44.6051C232.96 44.1903 232.199 43.983 231.261 43.983C230.602 43.983 230.037 44.0824 229.565 44.2812C229.094 44.4801 228.733 44.75 228.483 45.0909C228.233 45.4318 228.105 45.821 228.099 46.2585C228.099 46.6222 228.182 46.9375 228.347 47.2045C228.517 47.4716 228.747 47.6989 229.037 47.8864C229.327 48.0682 229.648 48.2216 230 48.3466C230.352 48.4716 230.707 48.5767 231.065 48.6619L232.702 49.071C233.361 49.2244 233.994 49.4318 234.602 49.6932C235.216 49.9545 235.764 50.2841 236.247 50.6818C236.736 51.0795 237.122 51.5597 237.406 52.1222C237.69 52.6847 237.832 53.3437 237.832 54.0994C237.832 55.1222 237.571 56.0227 237.048 56.8011C236.526 57.5739 235.77 58.179 234.781 58.6165C233.798 59.0483 232.608 59.2642 231.21 59.2642C229.852 59.2642 228.673 59.054 227.673 58.6335C226.679 58.2131 225.901 57.5994 225.338 56.7926C224.781 55.9858 224.48 55.0028 224.435 53.8438H227.545C227.591 54.4517 227.778 54.9574 228.108 55.3608C228.438 55.7642 228.866 56.0653 229.395 56.2642C229.929 56.4631 230.526 56.5625 231.185 56.5625C231.872 56.5625 232.474 56.4602 232.991 56.2557C233.514 56.0455 233.923 55.7557 234.219 55.3864C234.514 55.0114 234.665 54.5739 234.67 54.0739C234.665 53.6193 234.531 53.2443 234.27 52.9489C234.009 52.6477 233.642 52.3977 233.17 52.1989C232.705 51.9943 232.159 51.8125 231.534 51.6534L229.548 51.142C228.111 50.7727 226.974 50.2131 226.139 49.4631C225.31 48.7074 224.895 47.7045 224.895 46.4545C224.895 45.4261 225.173 44.5256 225.73 43.7528C226.293 42.9801 227.057 42.3807 228.023 41.9545C228.989 41.5227 230.082 41.3068 231.304 41.3068C232.543 41.3068 233.628 41.5227 234.56 41.9545C235.497 42.3807 236.233 42.9744 236.767 43.7358C237.301 44.4915 237.577 45.3608 237.594 46.3438H234.551ZM244.282 59.2642C243.452 59.2642 242.705 59.1165 242.04 58.821C241.381 58.5199 240.859 58.0767 240.472 57.4915C240.092 56.9062 239.901 56.1847 239.901 55.3267C239.901 54.5881 240.038 53.9773 240.31 53.4943C240.583 53.0114 240.955 52.625 241.427 52.3352C241.898 52.0455 242.43 51.8267 243.021 51.679C243.617 51.5256 244.234 51.4148 244.87 51.3466C245.637 51.267 246.259 51.196 246.737 51.1335C247.214 51.0653 247.56 50.9631 247.776 50.8267C247.998 50.6847 248.109 50.4659 248.109 50.1705V50.1193C248.109 49.4773 247.918 48.9801 247.538 48.6278C247.157 48.2756 246.609 48.0994 245.893 48.0994C245.137 48.0994 244.538 48.2642 244.094 48.5938C243.657 48.9233 243.362 49.3125 243.208 49.7614L240.327 49.3523C240.555 48.5568 240.93 47.892 241.452 47.358C241.975 46.8182 242.614 46.4148 243.37 46.1477C244.126 45.875 244.961 45.7386 245.876 45.7386C246.506 45.7386 247.134 45.8125 247.759 45.9602C248.384 46.108 248.955 46.3523 249.472 46.6932C249.989 47.0284 250.404 47.4858 250.717 48.0653C251.035 48.6449 251.194 49.3693 251.194 50.2386V59H248.228V57.2017H248.126C247.938 57.5653 247.674 57.9062 247.333 58.2244C246.998 58.5369 246.575 58.7898 246.063 58.983C245.558 59.1705 244.964 59.2642 244.282 59.2642ZM245.083 56.9972C245.702 56.9972 246.239 56.875 246.694 56.6307C247.148 56.3807 247.498 56.0511 247.742 55.642C247.992 55.233 248.117 54.7869 248.117 54.304V52.7614C248.021 52.8409 247.856 52.9148 247.623 52.983C247.396 53.0511 247.14 53.1108 246.856 53.1619C246.572 53.2131 246.29 53.2585 246.012 53.2983C245.734 53.3381 245.492 53.3722 245.288 53.4006C244.827 53.4631 244.415 53.5653 244.052 53.7074C243.688 53.8494 243.401 54.0483 243.191 54.304C242.981 54.554 242.876 54.8778 242.876 55.2756C242.876 55.8438 243.083 56.2727 243.498 56.5625C243.913 56.8523 244.441 56.9972 245.083 56.9972ZM257.381 41.5455V59H254.296V41.5455H257.381ZM264.321 59.2642C263.491 59.2642 262.744 59.1165 262.08 58.821C261.42 58.5199 260.898 58.0767 260.511 57.4915C260.131 56.9062 259.94 56.1847 259.94 55.3267C259.94 54.5881 260.077 53.9773 260.349 53.4943C260.622 53.0114 260.994 52.625 261.466 52.3352C261.938 52.0455 262.469 51.8267 263.06 51.679C263.656 51.5256 264.273 51.4148 264.909 51.3466C265.676 51.267 266.298 51.196 266.776 51.1335C267.253 51.0653 267.599 50.9631 267.815 50.8267C268.037 50.6847 268.148 50.4659 268.148 50.1705V50.1193C268.148 49.4773 267.957 48.9801 267.577 48.6278C267.196 48.2756 266.648 48.0994 265.932 48.0994C265.176 48.0994 264.577 48.2642 264.134 48.5938C263.696 48.9233 263.401 49.3125 263.247 49.7614L260.366 49.3523C260.594 48.5568 260.969 47.892 261.491 47.358C262.014 46.8182 262.653 46.4148 263.409 46.1477C264.165 45.875 265 45.7386 265.915 45.7386C266.545 45.7386 267.173 45.8125 267.798 45.9602C268.423 46.108 268.994 46.3523 269.511 46.6932C270.028 47.0284 270.443 47.4858 270.756 48.0653C271.074 48.6449 271.233 49.3693 271.233 50.2386V59H268.267V57.2017H268.165C267.977 57.5653 267.713 57.9062 267.372 58.2244C267.037 58.5369 266.614 58.7898 266.102 58.983C265.597 59.1705 265.003 59.2642 264.321 59.2642ZM265.122 56.9972C265.741 56.9972 266.278 56.875 266.733 56.6307C267.188 56.3807 267.537 56.0511 267.781 55.642C268.031 55.233 268.156 54.7869 268.156 54.304V52.7614C268.06 52.8409 267.895 52.9148 267.662 52.983C267.435 53.0511 267.179 53.1108 266.895 53.1619C266.611 53.2131 266.33 53.2585 266.051 53.2983C265.773 53.3381 265.531 53.3722 265.327 53.4006C264.866 53.4631 264.455 53.5653 264.091 53.7074C263.727 53.8494 263.44 54.0483 263.23 54.304C263.02 54.554 262.915 54.8778 262.915 55.2756C262.915 55.8438 263.122 56.2727 263.537 56.5625C263.952 56.8523 264.48 56.9972 265.122 56.9972ZM285.56 45.9091L280.898 59H277.489L272.827 45.9091H276.116L279.125 55.6335H279.261L282.278 45.9091H285.56ZM293.045 59.2557C291.732 59.2557 290.599 58.983 289.644 58.4375C288.695 57.8864 287.965 57.108 287.454 56.1023C286.942 55.0909 286.687 53.9006 286.687 52.5312C286.687 51.1847 286.942 50.0028 287.454 48.9858C287.971 47.9631 288.692 47.1676 289.619 46.5994C290.545 46.0256 291.633 45.7386 292.883 45.7386C293.69 45.7386 294.451 45.8693 295.167 46.1307C295.888 46.3864 296.525 46.7841 297.076 47.3239C297.633 47.8636 298.07 48.5511 298.388 49.3864C298.707 50.2159 298.866 51.2045 298.866 52.3523V53.2983H288.136V51.2188H295.908C295.903 50.6278 295.775 50.1023 295.525 49.642C295.275 49.1761 294.925 48.8097 294.477 48.5426C294.033 48.2756 293.516 48.142 292.925 48.142C292.295 48.142 291.741 48.2955 291.263 48.6023C290.786 48.9034 290.414 49.3011 290.147 49.7955C289.886 50.2841 289.752 50.821 289.746 51.4062V53.2216C289.746 53.983 289.886 54.6364 290.164 55.1818C290.442 55.7216 290.832 56.1364 291.332 56.4261C291.832 56.7102 292.417 56.8523 293.087 56.8523C293.536 56.8523 293.942 56.7898 294.306 56.6648C294.67 56.5341 294.985 56.3438 295.252 56.0938C295.519 55.8438 295.721 55.5341 295.857 55.1648L298.738 55.4886C298.556 56.25 298.21 56.9148 297.698 57.483C297.192 58.0455 296.545 58.483 295.755 58.7955C294.965 59.1023 294.062 59.2557 293.045 59.2557ZM301.476 59V45.9091H304.467V48.0909H304.604C304.842 47.3352 305.251 46.7528 305.831 46.3438C306.416 45.929 307.084 45.7216 307.834 45.7216C308.004 45.7216 308.195 45.7301 308.405 45.7472C308.621 45.7585 308.8 45.7784 308.942 45.8068V48.6449C308.811 48.5994 308.604 48.5597 308.32 48.5256C308.041 48.4858 307.771 48.4659 307.51 48.4659C306.947 48.4659 306.442 48.5881 305.993 48.8324C305.55 49.071 305.2 49.4034 304.945 49.8295C304.689 50.2557 304.561 50.7472 304.561 51.304V59H301.476ZM310.991 59V45.9091H313.983V48.0909H314.119C314.358 47.3352 314.767 46.7528 315.347 46.3438C315.932 45.929 316.599 45.7216 317.349 45.7216C317.52 45.7216 317.71 45.7301 317.92 45.7472C318.136 45.7585 318.315 45.7784 318.457 45.8068V48.6449C318.327 48.5994 318.119 48.5597 317.835 48.5256C317.557 48.4858 317.287 48.4659 317.026 48.4659C316.463 48.4659 315.957 48.5881 315.509 48.8324C315.065 49.071 314.716 49.4034 314.46 49.8295C314.205 50.2557 314.077 50.7472 314.077 51.304V59H310.991ZM322.823 63.9091C322.403 63.9091 322.013 63.875 321.656 63.8068C321.303 63.7443 321.022 63.6705 320.812 63.5852L321.528 61.1818C321.977 61.3125 322.377 61.375 322.729 61.3693C323.082 61.3636 323.391 61.2528 323.658 61.0369C323.931 60.8267 324.161 60.4744 324.349 59.9801L324.613 59.2727L319.866 45.9091H323.138L326.156 55.7955H326.292L329.317 45.9091H332.599L327.357 60.5852C327.113 61.2784 326.789 61.8722 326.386 62.3665C325.982 62.8665 325.488 63.2472 324.903 63.5085C324.323 63.7756 323.63 63.9091 322.823 63.9091Z" fill="white"/>
<path d="M75.6003 111.006L101.5 66H145L78.4983 113.63C76.7501 114.882 74.5277 112.87 75.6003 111.006Z" fill="#006DB7"/>
<defs>
<clipPath id="clip0_210_6122">
<rect width="24" height="24" fill="white" transform="translate(107 24)"/>
</clipPath>
</defs>
</svg>
