<svg width="355" height="170" viewBox="0 0 355 170" fill="none" xmlns="http://www.w3.org/2000/svg">
<path d="M65.1996 51.532L62.5605 50L68.6876 52.576L71.3266 54.111L65.1996 51.532Z" fill="#98D343"/>
<path d="M38.4044 78.6213L35.7644 77.0873L35.7324 65.4883L38.3714 67.0233L38.4044 78.6213Z" fill="#705E2C"/>
<path d="M38.3714 67.023L35.7324 65.488L62.5614 50L65.2004 51.532L38.3714 67.023Z" fill="#8DC63F"/>
<path d="M65.2001 51.5322L71.3271 54.1112L65.2341 63.1312L38.4041 78.6212L38.3711 67.0232L65.2001 51.5322Z" fill="#518524"/>
<path d="M8.24905 53.1932L10.8881 51.6582L4.76105 54.2372L2.12305 55.7712L8.24905 53.1932Z" fill="#98D343"/>
<path d="M35.0469 80.2814L37.6849 78.7474L37.7179 67.1494L35.0799 68.6834L35.0469 80.2814Z" fill="#705E2C"/>
<path d="M35.08 68.6832L37.718 67.1492L10.889 51.6582L8.25 53.1932L35.08 68.6832Z" fill="#8DC63F"/>
<path d="M8.24905 53.1934L2.12305 55.7713L8.21506 64.7914L35.0461 80.2813L35.079 68.6833L8.24905 53.1934Z" fill="#217F1C"/>
<path d="M30.3105 163.741C30.3105 163.741 30.3106 163.813 30.3456 163.888C30.3456 163.888 30.3456 163.965 30.3456 164.035C30.3876 164.113 30.4196 164.186 30.4606 164.224C30.4606 164.262 30.4606 164.336 30.4966 164.371C30.5356 164.407 30.5356 164.521 30.6066 164.556C30.6066 164.594 30.6456 164.671 30.6456 164.707C30.7196 164.743 30.7576 164.857 30.7576 164.928C30.8296 164.968 30.9036 165.006 30.9036 165.042C30.9436 165.076 31.0926 165.231 31.1666 165.302C31.2006 165.335 31.2376 165.335 31.2786 165.448C31.3156 165.488 31.3886 165.525 31.4636 165.599C31.5336 165.672 31.5706 165.671 31.6096 165.747C31.7226 165.747 31.7606 165.818 31.8726 165.896C31.9056 165.936 32.0196 165.935 32.0556 165.971C32.2406 166.117 32.4666 166.229 32.6526 166.303C32.7276 166.343 32.7636 166.375 32.7966 166.375C32.9486 166.455 33.1386 166.529 33.3216 166.564C33.3536 166.6 33.4326 166.599 33.5096 166.635C33.5816 166.635 33.6946 166.717 33.7666 166.717C33.8416 166.746 33.9546 166.746 34.0276 166.79C34.1746 166.79 34.2506 166.79 34.3606 166.862C34.4386 166.862 34.5086 166.863 34.5856 166.935C34.8426 166.935 35.0676 167.013 35.2916 167.013C35.3586 167.013 35.4766 167.013 35.5496 167.013C35.6656 167.013 35.8096 167.013 35.8876 167.047C36.0366 167.047 36.1076 167.047 36.1826 167.047C36.2936 167.047 36.3706 167.047 36.5156 167.047C36.6306 167.047 36.7425 167.047 36.8495 167.047C36.8905 167.013 37.0025 167.013 37.1125 167.013C37.1865 167.013 37.2976 167.013 37.4456 167.013C37.4866 167.013 37.5965 167.013 37.6725 167.013C37.7795 166.935 37.8556 166.935 37.9676 166.935C38.1156 166.935 38.1916 166.934 38.3016 166.862C38.3766 166.862 38.4876 166.862 38.5256 166.79C38.6716 166.79 38.7856 166.746 38.9726 166.746C39.0096 166.717 39.0836 166.717 39.1576 166.717C39.3816 166.599 39.6016 166.563 39.7886 166.454C39.9006 166.414 40.0136 166.375 40.1276 166.344C40.1606 166.304 40.1966 166.266 40.2746 166.266C40.4216 166.118 40.5686 166.117 40.7166 165.971C41.9076 165.301 42.5016 164.37 42.5016 163.479V165.448C42.5016 166.376 41.9436 167.308 40.7166 167.978C40.5686 168.05 40.4216 168.125 40.2746 168.233C40.1966 168.271 40.1605 168.271 40.0865 168.311C40.0125 168.385 39.9006 168.386 39.8616 168.422C39.8236 168.422 39.8235 168.422 39.8235 168.422C39.6005 168.497 39.3806 168.564 39.1566 168.643C39.1196 168.643 39.1196 168.643 39.1196 168.643C39.0416 168.717 39.0096 168.717 38.9726 168.717C38.7846 168.717 38.6716 168.793 38.5626 168.793C38.5256 168.793 38.4875 168.793 38.4525 168.793C38.4525 168.793 38.3776 168.868 38.3026 168.868C38.1926 168.868 38.1166 168.905 37.9686 168.905C37.9316 168.905 37.8926 168.939 37.8566 168.939C37.8196 168.939 37.7486 168.939 37.7486 168.939C37.5996 168.939 37.4886 168.938 37.4476 169.014C37.2996 169.014 37.2996 169.014 37.2626 169.014H37.1516C37.0046 169.014 36.8926 169.014 36.8516 169.014C36.7436 169.014 36.7046 169.014 36.6656 169.014C36.5946 169.014 36.5586 169.014 36.5586 169.014C36.3726 169.014 36.2956 169.014 36.1846 169.014C36.1446 169.014 36.0756 169.014 36.0756 169.014C36.0016 169.014 35.9626 169.014 35.8896 169.014C35.8116 169.014 35.6285 169.014 35.4785 169.014C35.4435 169.014 35.4036 169.014 35.3326 169.014L35.2935 168.939C35.0695 168.939 34.8446 168.938 34.5876 168.868C34.4736 168.868 34.4415 168.868 34.3625 168.793C34.2525 168.793 34.1766 168.793 34.0296 168.793C33.9576 168.717 33.8436 168.717 33.7686 168.717C33.6976 168.643 33.5836 168.643 33.5116 168.565C33.4736 168.565 33.4355 168.565 33.4355 168.565C33.3565 168.565 33.3566 168.565 33.3246 168.565C33.1736 168.497 32.9516 168.422 32.7996 168.385C32.7666 168.349 32.7305 168.311 32.6555 168.311C32.4695 168.195 32.2826 168.126 32.0986 167.978C32.0586 167.978 32.0236 167.978 32.0236 167.978C31.9466 167.9 31.9096 167.899 31.8766 167.827C31.7996 167.789 31.7276 167.756 31.6136 167.678C31.5746 167.642 31.5376 167.606 31.4676 167.53C31.3936 167.494 31.3196 167.452 31.2826 167.385C31.2826 167.385 31.2415 167.386 31.2415 167.344C31.2415 167.344 31.2046 167.31 31.1706 167.31C31.0976 167.198 31.0196 167.087 30.9476 167.016C30.9076 167.016 30.9076 167.016 30.8716 166.938C30.8346 166.938 30.8346 166.938 30.8346 166.866C30.7626 166.794 30.7626 166.749 30.6846 166.719C30.6506 166.637 30.6506 166.638 30.6506 166.602C30.6116 166.566 30.6116 166.565 30.6116 166.565C30.5406 166.457 30.5406 166.417 30.5016 166.376C30.5016 166.305 30.4655 166.267 30.4655 166.267C30.4655 166.231 30.4655 166.231 30.4655 166.195C30.4245 166.119 30.3925 166.12 30.3925 165.974C30.3505 165.938 30.3506 165.937 30.3506 165.897C30.3506 165.787 30.3156 165.749 30.3156 165.672C30.3156 165.637 30.3156 165.599 30.3156 165.525C30.3156 165.489 30.3156 165.49 30.3156 165.49V163.521C30.3106 163.594 30.3105 163.594 30.3105 163.741Z" fill="#2B2B2B"/>
<path d="M32.1313 160.994C29.7163 162.366 29.7163 164.594 32.0563 165.972C34.4393 167.451 38.3003 167.451 40.7153 165.972C43.0943 164.594 43.1343 162.365 40.7523 160.994C38.3763 159.543 34.4713 159.543 32.1313 160.994Z" fill="#979797"/>
<path d="M31.7246 131.479C31.7246 131.557 31.7246 131.595 31.7246 131.633C31.7246 131.704 31.7246 131.704 31.7246 131.78C31.7246 131.78 31.7626 131.85 31.7626 131.89C31.7966 131.926 31.7966 131.926 31.8366 132.004C31.8736 132.075 31.8736 132.075 31.8736 132.152C31.9066 132.188 31.9066 132.222 31.9436 132.298C32.0206 132.338 32.0206 132.371 32.0556 132.444C32.0956 132.444 32.1306 132.524 32.1306 132.524C32.1676 132.598 32.2786 132.669 32.3146 132.748C32.3556 132.748 32.4266 132.748 32.4266 132.814C32.4666 132.858 32.5006 132.892 32.6116 132.968C32.6116 132.968 32.6526 133.004 32.7276 133.044C32.7636 133.119 32.7966 133.148 32.8746 133.19C32.9126 133.19 32.9486 133.264 33.0206 133.306C33.2436 133.416 33.4706 133.486 33.6946 133.596C33.7276 133.64 33.8416 133.64 33.8416 133.64C34.0996 133.748 34.3236 133.784 34.5496 133.898C34.5846 133.898 34.5846 133.898 34.6546 133.898C34.8806 133.932 35.1026 133.932 35.3296 134.044C35.3996 134.044 35.4756 134.044 35.4756 134.044C35.7726 134.044 36.0366 134.077 36.2926 134.077H36.3686C36.6626 134.077 36.8886 134.044 37.1846 134.044C37.2586 134.044 37.2586 134.044 37.2956 134.044C37.5586 133.932 37.8156 133.932 37.9996 133.898C38.1126 133.898 38.1496 133.86 38.1886 133.86C38.4496 133.784 38.5946 133.749 38.8566 133.64C38.8566 133.64 38.8946 133.64 38.9696 133.64C39.1936 133.486 39.4496 133.416 39.6766 133.306C40.5656 132.747 41.0126 132.004 41.0126 131.294L41.1626 162.917C41.1626 163.593 40.6766 164.369 39.7496 164.856C39.5646 165.003 39.3036 165.074 39.0806 165.19C39.0806 165.23 39.0386 165.23 39.0386 165.23C39.0066 165.23 38.9696 165.23 38.8936 165.23C38.7816 165.3 38.6676 165.334 38.5216 165.374C38.4486 165.446 38.3736 165.446 38.2616 165.446C38.1876 165.446 38.1876 165.486 38.1496 165.486C38.1126 165.486 38.0406 165.486 37.9996 165.486C37.8526 165.522 37.7436 165.596 37.5586 165.596C37.4846 165.634 37.4436 165.634 37.4436 165.634C37.2956 165.669 37.2956 165.669 37.2586 165.669C37.1846 165.669 37.1476 165.669 37.1106 165.669C36.9626 165.669 36.8476 165.669 36.6626 165.669C36.5916 165.669 36.5556 165.669 36.4746 165.669C36.4446 165.669 36.3686 165.669 36.3686 165.669C36.2926 165.669 36.1806 165.669 36.1406 165.669C35.9966 165.669 35.8476 165.669 35.6246 165.669C35.5866 165.669 35.5866 165.669 35.5866 165.669C35.5476 165.669 35.4746 165.634 35.4396 165.634C35.2896 165.596 35.1416 165.596 35.0276 165.522C34.9196 165.522 34.8406 165.486 34.7336 165.486C34.7336 165.486 34.6956 165.486 34.6546 165.486C34.4696 165.446 34.3236 165.334 34.1746 165.3C34.0996 165.3 34.0276 165.23 33.9886 165.23C33.8806 165.23 33.8416 165.23 33.7656 165.19C33.5406 165.074 33.3536 165.004 33.1376 164.856C33.0976 164.856 33.0976 164.856 33.0976 164.856C33.0206 164.814 33.0206 164.782 32.9486 164.742C32.8746 164.706 32.8366 164.706 32.7626 164.633C32.7266 164.593 32.7266 164.555 32.6516 164.555C32.6106 164.521 32.6106 164.481 32.5006 164.406H32.4666C32.4666 164.37 32.4666 164.37 32.4266 164.37C32.3556 164.261 32.2796 164.222 32.2406 164.112C32.1676 164.112 32.1676 164.112 32.1676 164.112V164.034C32.1306 163.964 32.0956 163.929 32.0206 163.887C32.0206 163.887 32.0206 163.813 32.0206 163.777C32.0206 163.777 31.9836 163.777 31.9836 163.741C31.9436 163.741 31.9066 163.663 31.9066 163.594L31.8736 163.519C31.8736 163.519 31.8736 163.519 31.8736 163.479C31.8736 163.439 31.8736 163.439 31.8366 163.369C31.8366 163.293 31.7966 163.293 31.7966 163.293C31.7966 163.255 31.7966 163.22 31.7966 163.22C31.7966 163.184 31.7966 163.146 31.7966 163.072C31.7626 163.072 31.7626 162.998 31.7626 162.998V162.96L31.7246 131.336C31.7246 131.408 31.7246 131.445 31.7246 131.479Z" fill="#3B3B3B"/>
<path d="M33.0609 129.406C31.2389 130.442 31.2389 132.188 33.0219 133.306C34.8809 134.306 37.8539 134.306 39.6779 133.306C41.5329 132.188 41.5329 130.442 39.7129 129.406C37.8539 128.323 34.8809 128.323 33.0609 129.406Z" fill="#979797"/>
<path d="M38.1907 133.861C38.4517 133.785 38.5967 133.75 38.8587 133.641C38.8587 133.641 38.8967 133.641 38.9717 133.641C39.1957 133.487 39.4517 133.417 39.6787 133.307C40.5677 132.748 41.0147 132.005 41.0147 131.295L41.1647 162.918C41.1647 163.594 40.6787 164.37 39.7517 164.857C39.5667 165.004 39.3057 165.075 39.0827 165.191C39.0827 165.231 39.0407 165.231 39.0407 165.231C39.0087 165.231 38.9717 165.231 38.8957 165.231C38.7837 165.301 38.6697 165.335 38.5237 165.375C38.4507 165.447 38.3757 165.447 38.2637 165.447C38.1897 165.447 38.1897 165.487 38.1517 165.487C38.1147 165.487 38.0427 165.487 38.0017 165.487C38.0017 165.523 37.9667 165.523 37.9297 165.523V133.933C37.9667 133.899 38.0017 133.899 38.0017 133.899C38.1157 133.899 38.1527 133.861 38.1907 133.861Z" fill="#2B2B2B"/>
<path d="M34.1747 60.1313C34.1747 60.2383 34.2147 60.2773 34.2497 60.3173C34.2497 60.3953 34.2497 60.3953 34.2497 60.4273C34.3237 60.4653 34.4387 60.5383 34.4387 60.5763C34.4707 60.6463 34.5497 60.6463 34.5847 60.7243C34.6547 60.7243 34.6957 60.7583 34.7337 60.7583C34.8807 60.8693 35.0277 60.9473 35.1417 61.0243C35.2137 61.0243 35.2897 61.0243 35.2897 61.0243C35.3987 61.0243 35.4747 61.0603 35.5867 61.0983C35.5867 61.0983 35.7347 61.0983 35.8077 61.0983C35.8477 61.0983 35.8477 61.0983 35.8857 61.1703C35.9967 61.1703 36.1057 61.1703 36.1807 61.1703C36.2567 61.1703 36.2567 61.1703 36.2917 61.1703C36.3677 61.1703 36.5137 61.1703 36.6617 61.1703L36.7007 61.0983C36.8477 61.0983 36.9237 61.0983 37.0007 61.0603C37.0727 61.0603 37.0727 61.0603 37.1097 61.0243C37.1837 61.0243 37.2947 61.0243 37.4427 60.9483C37.5577 60.9103 37.6697 60.8703 37.7767 60.7593C38.1877 60.5383 38.4487 60.2383 38.4487 59.9053L38.5947 131.001C38.5947 131.296 38.4487 131.634 37.9647 131.892C37.8527 131.928 37.7767 132.006 37.6697 132.078C37.6697 132.078 37.6697 132.078 37.5947 132.078C37.5587 132.078 37.4847 132.078 37.4437 132.114C37.3717 132.114 37.2957 132.154 37.2957 132.154C37.2587 132.154 37.2587 132.154 37.2587 132.19H37.1847C37.1107 132.19 37.0007 132.224 36.9617 132.224H36.8887C36.8887 132.224 36.8887 132.224 36.8477 132.224C36.8477 132.224 36.8477 132.224 36.7397 132.224C36.7007 132.224 36.6287 132.266 36.5547 132.266C36.5137 132.266 36.4747 132.266 36.4747 132.266C36.4747 132.266 36.4447 132.266 36.3687 132.266C36.3687 132.266 36.3687 132.266 36.3297 132.266C36.2577 132.266 36.1417 132.224 36.0717 132.224H36.0357C35.9587 132.224 35.8867 132.224 35.8477 132.19C35.8077 132.19 35.7717 132.19 35.7717 132.19C35.6647 132.154 35.5867 132.154 35.5127 132.114C35.4747 132.078 35.4397 132.078 35.3997 132.078C35.3997 132.078 35.3577 132.078 35.3297 132.078C35.2147 132.007 35.0667 131.929 34.9197 131.892C34.9197 131.852 34.8807 131.852 34.8807 131.852L34.8417 131.782C34.7347 131.782 34.6957 131.706 34.6557 131.706C34.5857 131.635 34.5507 131.597 34.4707 131.559C34.4707 131.481 34.4707 131.481 34.4707 131.481V131.447C34.4387 131.447 34.4387 131.411 34.4387 131.411C34.4387 131.337 34.3607 131.298 34.3607 131.264L34.3247 131.188C34.3247 131.112 34.3247 131.042 34.3247 131.003L34.1367 59.9453V59.9073C34.1367 59.9833 34.1367 60.0913 34.1747 60.1313Z" fill="#3B3B3B"/>
<path d="M34.7355 59.0148C33.8825 59.4928 33.8825 60.3168 34.7355 60.7588C35.5895 61.2418 36.9255 61.2418 37.7795 60.7588C38.5965 60.3168 38.5965 59.4918 37.7795 59.0148C36.9635 58.4938 35.5885 58.4938 34.7355 59.0148Z" fill="#434351"/>
<path d="M36.6637 61.1713L36.7026 61.0992C36.8496 61.0992 36.9257 61.0992 37.0027 61.0612C37.0747 61.0612 37.0747 61.0612 37.1117 61.0252C37.1857 61.0252 37.2966 61.0252 37.4446 60.9492C37.5596 60.9112 37.6717 60.8713 37.7787 60.7603C38.1897 60.5393 38.4507 60.2393 38.4507 59.9062L38.5966 131.002C38.5966 131.297 38.4506 131.635 37.9666 131.893C37.8546 131.929 37.7787 132.007 37.6717 132.079C37.6717 132.079 37.6716 132.079 37.5966 132.079C37.5606 132.079 37.4866 132.079 37.4456 132.115C37.3736 132.115 37.2976 132.155 37.2976 132.155C37.2606 132.155 37.2607 132.155 37.2607 132.191H37.1866C37.1126 132.191 37.0027 132.225 36.9637 132.225H36.8907C36.8907 132.225 36.8906 132.225 36.8496 132.225C36.8496 132.225 36.8496 132.225 36.7416 132.225C36.7026 132.225 36.6306 132.267 36.5566 132.267V61.1732C36.5916 61.1712 36.5917 61.1713 36.6637 61.1713Z" fill="#2B2B2B"/>
<path d="M33.1402 57.7479C33.1402 57.7879 33.1402 57.8319 33.1402 57.8979C33.1402 57.8979 33.1722 57.8979 33.1722 57.9759V58.0469C33.2092 58.0849 33.2092 58.1209 33.2092 58.1209C33.2092 58.1209 33.2452 58.1909 33.2452 58.2309C33.2842 58.2689 33.3232 58.2689 33.3232 58.3449C33.3232 58.3449 33.3552 58.3449 33.3552 58.3809C33.3552 58.3809 33.3962 58.4179 33.4342 58.4179C33.4722 58.4919 33.5102 58.5629 33.5422 58.6029C33.5822 58.6029 33.5822 58.6029 33.6192 58.6409C33.6542 58.7189 33.6542 58.7189 33.6952 58.7189C33.7282 58.7499 33.7282 58.7499 33.7662 58.7879C33.8412 58.8279 33.8412 58.8659 33.8802 58.9039C33.9542 58.9039 33.9882 58.9039 34.0272 58.9339C34.1742 59.0499 34.3242 59.0879 34.4702 59.1599C34.5082 59.1999 34.5492 59.1999 34.5842 59.1999C34.6952 59.2379 34.7702 59.3099 34.8802 59.3099C34.9972 59.3459 35.1032 59.3839 35.2142 59.3839C35.2902 59.4589 35.4752 59.4589 35.5872 59.4589C35.5872 59.4589 35.6252 59.4589 35.6642 59.4889C35.8482 59.4889 36.0712 59.4889 36.1812 59.4889C36.1812 59.4889 36.2572 59.4889 36.2922 59.4889C36.4752 59.4889 36.6622 59.4889 36.8482 59.4889C36.8482 59.4589 36.8892 59.4589 36.8892 59.4589C37.0742 59.4589 37.2592 59.4589 37.4442 59.3839C37.4442 59.3839 37.4442 59.3839 37.4852 59.3839C37.6712 59.3099 37.7782 59.3099 37.9282 59.1989C37.9652 59.1989 37.9652 59.1989 37.9652 59.1989C38.1512 59.0879 38.2992 59.0499 38.4852 58.9329C39.0822 58.5609 39.4152 58.1189 39.4152 57.6699V59.6059C39.4152 60.0859 39.1182 60.5719 38.4852 60.9439C38.3752 61.0199 38.1892 61.0939 38.0012 61.1669C37.9662 61.2019 37.9662 61.2019 37.9292 61.2019C37.8542 61.2019 37.7452 61.2379 37.6712 61.2379C37.5962 61.3119 37.5602 61.3119 37.4852 61.3539H37.4442C37.3722 61.3539 37.2962 61.3539 37.2962 61.3539C37.2592 61.3879 37.1112 61.3879 37.0012 61.3879C36.9622 61.3879 36.9242 61.3879 36.8892 61.3879H36.8482C36.7792 61.3879 36.7402 61.3879 36.7012 61.4639C36.5912 61.4639 36.4742 61.4639 36.3682 61.4639C36.3682 61.4639 36.3292 61.4639 36.2922 61.4639H36.1812C36.1412 61.4639 36.1062 61.4639 36.0722 61.4639C35.9592 61.4639 35.8482 61.4639 35.7362 61.3879C35.7362 61.3879 35.7362 61.3879 35.7012 61.3879C35.6652 61.3879 35.5882 61.3879 35.5882 61.3879C35.4762 61.3879 35.4002 61.3879 35.2912 61.3879C35.2912 61.3879 35.2152 61.3879 35.2152 61.3539C35.1042 61.3539 34.9982 61.3119 34.8812 61.2379C34.8422 61.2379 34.7722 61.2379 34.7342 61.2379C34.6962 61.2019 34.6552 61.2019 34.5852 61.2019C34.5502 61.2019 34.5092 61.1669 34.4712 61.1669C34.3252 61.0949 34.1752 61.0209 34.0282 60.9439V60.9059L33.9562 60.8659C33.8432 60.7949 33.8432 60.7949 33.7682 60.7549C33.7302 60.7549 33.7302 60.7209 33.6972 60.7209C33.6972 60.6429 33.6562 60.6429 33.6212 60.6429C33.6212 60.6429 33.5842 60.6429 33.5842 60.6069V60.5729C33.5122 60.5349 33.4742 60.4619 33.4362 60.4239H33.3982C33.3982 60.3919 33.3572 60.3919 33.3572 60.3919C33.3572 60.3139 33.3252 60.2739 33.3252 60.2739C33.3252 60.2359 33.3252 60.2359 33.2862 60.2019L33.2472 60.1679C33.2472 60.1679 33.2472 60.0889 33.2112 60.0889V60.0529L33.1742 59.9809C33.1742 59.9809 33.1742 59.9809 33.1742 59.9029C33.1422 59.8329 33.1422 59.8329 33.1422 59.8329C33.1422 59.8329 33.1422 59.7599 33.1422 59.6819C33.1422 59.6819 33.1422 59.6819 33.1422 59.6479C33.1022 59.6479 33.1022 59.6479 33.1022 59.6479V57.6729C33.1002 57.6739 33.1002 57.7479 33.1402 57.7479Z" fill="#2B2B2B"/>
<path d="M34.0287 56.3441C32.7977 57.0481 32.7977 58.2711 34.0287 58.9371C35.2927 59.6831 37.2607 59.6831 38.4867 58.9371C39.7147 58.2711 39.7147 57.0481 38.4867 56.3441C37.2607 55.6301 35.2917 55.6301 34.0287 56.3441Z" fill="#3B3B3B"/>
<path d="M8.73383 84.1763L6.0918 82.6443L32.9218 67.1533L35.5598 68.6873L8.73383 84.1763Z" fill="#8DC63F"/>
<path d="M2.638 93.8115L0 92.2795L6.09198 82.6445L8.73401 84.1765L2.638 93.8115Z" fill="#98D343"/>
<path d="M35.5607 68.6875L35.5937 80.2875L8.76566 95.7795L2.63867 93.8115L8.73468 84.1765L35.5607 68.6875Z" fill="#518524"/>
<path d="M62.409 84.316L65.05 82.781L38.221 67.291L35.584 68.825L62.409 84.316Z" fill="#8DC63F"/>
<path d="M68.5032 93.9503L71.1422 92.4163L65.0492 82.7812L62.4082 84.3163L68.5032 93.9503Z" fill="#98D343"/>
<path d="M35.5838 68.8252L35.5488 80.4282L62.3778 95.9162L68.5038 93.9502L62.4088 84.3162L35.5838 68.8252Z" fill="#217F1C"/>
<rect x="83" width="272" height="58" rx="16" fill="#006DB7"/>
<rect x="98.0476" y="8.04762" width="41.9048" height="41.9048" rx="20.9524" fill="#407C1D"/>
<rect x="98.0476" y="8.04762" width="41.9048" height="41.9048" rx="20.9524" stroke="white" stroke-width="2.09524"/>
<g clip-path="url(#clip0_210_6187)">
<path d="M126 37H112V38C112 38.2652 111.895 38.5196 111.707 38.7071C111.52 38.8946 111.265 39 111 39H110C109.735 39 109.48 38.8946 109.293 38.7071C109.105 38.5196 109 38.2652 109 38V28L111.48 22.212C111.634 21.852 111.891 21.5452 112.218 21.3298C112.545 21.1143 112.928 20.9997 113.32 21H124.68C125.071 21 125.454 21.1149 125.781 21.3303C126.107 21.5458 126.364 21.8523 126.518 22.212L129 28V38C129 38.2652 128.895 38.5196 128.707 38.7071C128.52 38.8946 128.265 39 128 39H127C126.735 39 126.48 38.8946 126.293 38.7071C126.105 38.5196 126 38.2652 126 38V37ZM127 30H111V35H127V30ZM111.176 28H126.824L124.681 23H113.32L111.177 28H111.176ZM113.5 34C113.102 34 112.721 33.842 112.439 33.5607C112.158 33.2794 112 32.8978 112 32.5C112 32.1022 112.158 31.7206 112.439 31.4393C112.721 31.158 113.102 31 113.5 31C113.898 31 114.279 31.158 114.561 31.4393C114.842 31.7206 115 32.1022 115 32.5C115 32.8978 114.842 33.2794 114.561 33.5607C114.279 33.842 113.898 34 113.5 34ZM124.5 34C124.102 34 123.721 33.842 123.439 33.5607C123.158 33.2794 123 32.8978 123 32.5C123 32.1022 123.158 31.7206 123.439 31.4393C123.721 31.158 124.102 31 124.5 31C124.898 31 125.279 31.158 125.561 31.4393C125.842 31.7206 126 32.1022 126 32.5C126 32.8978 125.842 33.2794 125.561 33.5607C125.279 33.842 124.898 34 124.5 34Z" fill="white"/>
</g>
<path d="M172.318 28.7727C172.318 30.6534 171.966 32.2642 171.261 33.6051C170.563 34.9403 169.608 35.9631 168.398 36.6733C167.193 37.3835 165.827 37.7386 164.298 37.7386C162.77 37.7386 161.401 37.3835 160.19 36.6733C158.986 35.9574 158.031 34.9318 157.327 33.5966C156.628 32.2557 156.278 30.6477 156.278 28.7727C156.278 26.892 156.628 25.2841 157.327 23.9489C158.031 22.608 158.986 21.5824 160.19 20.8722C161.401 20.1619 162.77 19.8068 164.298 19.8068C165.827 19.8068 167.193 20.1619 168.398 20.8722C169.608 21.5824 170.563 22.608 171.261 23.9489C171.966 25.2841 172.318 26.892 172.318 28.7727ZM169.139 28.7727C169.139 27.4489 168.932 26.3324 168.517 25.4233C168.108 24.5085 167.54 23.8182 166.812 23.3523C166.085 22.8807 165.247 22.6449 164.298 22.6449C163.349 22.6449 162.511 22.8807 161.784 23.3523C161.057 23.8182 160.486 24.5085 160.071 25.4233C159.662 26.3324 159.457 27.4489 159.457 28.7727C159.457 30.0966 159.662 31.2159 160.071 32.1307C160.486 33.0398 161.057 33.7301 161.784 34.2017C162.511 34.6676 163.349 34.9006 164.298 34.9006C165.247 34.9006 166.085 34.6676 166.812 34.2017C167.54 33.7301 168.108 33.0398 168.517 32.1307C168.932 31.2159 169.139 30.0966 169.139 28.7727ZM186.864 24.4091L182.202 37.5H178.793L174.131 24.4091H177.421L180.43 34.1335H180.566L183.583 24.4091H186.864ZM192.391 37.7642C191.562 37.7642 190.815 37.6165 190.15 37.321C189.491 37.0199 188.968 36.5767 188.582 35.9915C188.201 35.4062 188.011 34.6847 188.011 33.8267C188.011 33.0881 188.147 32.4773 188.42 31.9943C188.692 31.5114 189.065 31.125 189.536 30.8352C190.008 30.5455 190.539 30.3267 191.13 30.179C191.727 30.0256 192.343 29.9148 192.979 29.8466C193.746 29.767 194.369 29.696 194.846 29.6335C195.323 29.5653 195.67 29.4631 195.886 29.3267C196.107 29.1847 196.218 28.9659 196.218 28.6705V28.6193C196.218 27.9773 196.028 27.4801 195.647 27.1278C195.266 26.7756 194.718 26.5994 194.002 26.5994C193.246 26.5994 192.647 26.7642 192.204 27.0938C191.766 27.4233 191.471 27.8125 191.317 28.2614L188.437 27.8523C188.664 27.0568 189.039 26.392 189.562 25.858C190.085 25.3182 190.724 24.9148 191.479 24.6477C192.235 24.375 193.07 24.2386 193.985 24.2386C194.616 24.2386 195.244 24.3125 195.869 24.4602C196.494 24.608 197.065 24.8523 197.582 25.1932C198.099 25.5284 198.513 25.9858 198.826 26.5653C199.144 27.1449 199.303 27.8693 199.303 28.7386V37.5H196.337V35.7017H196.235C196.048 36.0653 195.783 36.4062 195.442 36.7244C195.107 37.0369 194.684 37.2898 194.173 37.483C193.667 37.6705 193.073 37.7642 192.391 37.7642ZM193.192 35.4972C193.812 35.4972 194.349 35.375 194.803 35.1307C195.258 34.8807 195.607 34.5511 195.852 34.142C196.102 33.733 196.227 33.2869 196.227 32.804V31.2614C196.13 31.3409 195.965 31.4148 195.732 31.483C195.505 31.5511 195.249 31.6108 194.965 31.6619C194.681 31.7131 194.4 31.7585 194.121 31.7983C193.843 31.8381 193.602 31.8722 193.397 31.9006C192.937 31.9631 192.525 32.0653 192.161 32.2074C191.798 32.3494 191.511 32.5483 191.3 32.804C191.09 33.054 190.985 33.3778 190.985 33.7756C190.985 34.3438 191.192 34.7727 191.607 35.0625C192.022 35.3523 192.55 35.4972 193.192 35.4972ZM205.491 20.0455V37.5H202.406V20.0455H205.491ZM214.374 37.7557C213.095 37.7557 211.987 37.4744 211.05 36.9119C210.112 36.3494 209.385 35.5625 208.868 34.5511C208.357 33.5398 208.101 32.358 208.101 31.0057C208.101 29.6534 208.357 28.4687 208.868 27.4517C209.385 26.4347 210.112 25.6449 211.05 25.0824C211.987 24.5199 213.095 24.2386 214.374 24.2386C215.652 24.2386 216.76 24.5199 217.697 25.0824C218.635 25.6449 219.359 26.4347 219.871 27.4517C220.388 28.4687 220.646 29.6534 220.646 31.0057C220.646 32.358 220.388 33.5398 219.871 34.5511C219.359 35.5625 218.635 36.3494 217.697 36.9119C216.76 37.4744 215.652 37.7557 214.374 37.7557ZM214.391 35.2841C215.084 35.2841 215.663 35.0937 216.129 34.7131C216.595 34.3267 216.942 33.8097 217.169 33.1619C217.402 32.5142 217.518 31.7926 217.518 30.9972C217.518 30.196 217.402 29.4716 217.169 28.8239C216.942 28.1705 216.595 27.6506 216.129 27.2642C215.663 26.8778 215.084 26.6847 214.391 26.6847C213.68 26.6847 213.089 26.8778 212.618 27.2642C212.152 27.6506 211.803 28.1705 211.57 28.8239C211.342 29.4716 211.229 30.196 211.229 30.9972C211.229 31.7926 211.342 32.5142 211.57 33.1619C211.803 33.8097 212.152 34.3267 212.618 34.7131C213.089 35.0937 213.68 35.2841 214.391 35.2841ZM229.354 37.5V20.0455H232.516V34.8494H240.204V37.5H229.354ZM246.579 37.7642C245.749 37.7642 245.002 37.6165 244.337 37.321C243.678 37.0199 243.156 36.5767 242.769 35.9915C242.388 35.4062 242.198 34.6847 242.198 33.8267C242.198 33.0881 242.335 32.4773 242.607 31.9943C242.88 31.5114 243.252 31.125 243.724 30.8352C244.195 30.5455 244.727 30.3267 245.317 30.179C245.914 30.0256 246.531 29.9148 247.167 29.8466C247.934 29.767 248.556 29.696 249.033 29.6335C249.511 29.5653 249.857 29.4631 250.073 29.3267C250.295 29.1847 250.406 28.9659 250.406 28.6705V28.6193C250.406 27.9773 250.215 27.4801 249.835 27.1278C249.454 26.7756 248.906 26.5994 248.19 26.5994C247.434 26.5994 246.835 26.7642 246.391 27.0938C245.954 27.4233 245.658 27.8125 245.505 28.2614L242.624 27.8523C242.852 27.0568 243.227 26.392 243.749 25.858C244.272 25.3182 244.911 24.9148 245.667 24.6477C246.423 24.375 247.258 24.2386 248.173 24.2386C248.803 24.2386 249.431 24.3125 250.056 24.4602C250.681 24.608 251.252 24.8523 251.769 25.1932C252.286 25.5284 252.701 25.9858 253.013 26.5653C253.332 27.1449 253.491 27.8693 253.491 28.7386V37.5H250.525V35.7017H250.423C250.235 36.0653 249.971 36.4062 249.63 36.7244C249.295 37.0369 248.871 37.2898 248.36 37.483C247.854 37.6705 247.261 37.7642 246.579 37.7642ZM247.38 35.4972C247.999 35.4972 248.536 35.375 248.991 35.1307C249.445 34.8807 249.795 34.5511 250.039 34.142C250.289 33.733 250.414 33.2869 250.414 32.804V31.2614C250.317 31.3409 250.153 31.4148 249.92 31.483C249.692 31.5511 249.437 31.6108 249.153 31.6619C248.869 31.7131 248.587 31.7585 248.309 31.7983C248.031 31.8381 247.789 31.8722 247.585 31.9006C247.124 31.9631 246.712 32.0653 246.349 32.2074C245.985 32.3494 245.698 32.5483 245.488 32.804C245.278 33.054 245.173 33.3778 245.173 33.7756C245.173 34.3438 245.38 34.7727 245.795 35.0625C246.21 35.3523 246.738 35.4972 247.38 35.4972ZM262.683 20.0455H266.552L271.734 32.6932H271.938L277.12 20.0455H280.989V37.5H277.955V25.5085H277.793L272.969 37.4489H270.702L265.879 25.483H265.717V37.5H262.683V20.0455ZM288.063 37.7642C287.234 37.7642 286.487 37.6165 285.822 37.321C285.163 37.0199 284.64 36.5767 284.254 35.9915C283.873 35.4062 283.683 34.6847 283.683 33.8267C283.683 33.0881 283.819 32.4773 284.092 31.9943C284.364 31.5114 284.737 31.125 285.208 30.8352C285.68 30.5455 286.211 30.3267 286.802 30.179C287.398 30.0256 288.015 29.9148 288.651 29.8466C289.418 29.767 290.04 29.696 290.518 29.6335C290.995 29.5653 291.342 29.4631 291.558 29.3267C291.779 29.1847 291.89 28.9659 291.89 28.6705V28.6193C291.89 27.9773 291.7 27.4801 291.319 27.1278C290.938 26.7756 290.39 26.5994 289.674 26.5994C288.918 26.5994 288.319 26.7642 287.876 27.0938C287.438 27.4233 287.143 27.8125 286.989 28.2614L284.109 27.8523C284.336 27.0568 284.711 26.392 285.234 25.858C285.756 25.3182 286.396 24.9148 287.151 24.6477C287.907 24.375 288.742 24.2386 289.657 24.2386C290.288 24.2386 290.915 24.3125 291.54 24.4602C292.165 24.608 292.737 24.8523 293.254 25.1932C293.771 25.5284 294.185 25.9858 294.498 26.5653C294.816 27.1449 294.975 27.8693 294.975 28.7386V37.5H292.009V35.7017H291.907C291.719 36.0653 291.455 36.4062 291.114 36.7244C290.779 37.0369 290.356 37.2898 289.844 37.483C289.339 37.6705 288.745 37.7642 288.063 37.7642ZM288.864 35.4972C289.484 35.4972 290.021 35.375 290.475 35.1307C290.93 34.8807 291.279 34.5511 291.523 34.142C291.773 33.733 291.898 33.2869 291.898 32.804V31.2614C291.802 31.3409 291.637 31.4148 291.404 31.483C291.177 31.5511 290.921 31.6108 290.637 31.6619C290.353 31.7131 290.072 31.7585 289.793 31.7983C289.515 31.8381 289.273 31.8722 289.069 31.9006C288.609 31.9631 288.197 32.0653 287.833 32.2074C287.469 32.3494 287.183 32.5483 286.972 32.804C286.762 33.054 286.657 33.3778 286.657 33.7756C286.657 34.3438 286.864 34.7727 287.279 35.0625C287.694 35.3523 288.222 35.4972 288.864 35.4972ZM298.077 37.5V24.4091H301.069V26.5909H301.205C301.444 25.8352 301.853 25.2528 302.433 24.8438C303.018 24.429 303.685 24.2216 304.435 24.2216C304.606 24.2216 304.796 24.2301 305.006 24.2472C305.222 24.2585 305.401 24.2784 305.543 24.3068V27.1449C305.413 27.0994 305.205 27.0597 304.921 27.0256C304.643 26.9858 304.373 26.9659 304.112 26.9659C303.549 26.9659 303.043 27.0881 302.594 27.3324C302.151 27.571 301.802 27.9034 301.546 28.3295C301.29 28.7557 301.163 29.2472 301.163 29.804V37.5H298.077ZM307.593 37.5V24.4091H310.678V37.5H307.593ZM309.144 22.5511C308.656 22.5511 308.235 22.3892 307.883 22.0653C307.531 21.7358 307.354 21.3409 307.354 20.8807C307.354 20.4148 307.531 20.0199 307.883 19.696C308.235 19.3665 308.656 19.2017 309.144 19.2017C309.638 19.2017 310.059 19.3665 310.406 19.696C310.758 20.0199 310.934 20.4148 310.934 20.8807C310.934 21.3409 310.758 21.7358 310.406 22.0653C310.059 22.3892 309.638 22.5511 309.144 22.5511ZM316.936 29.8295V37.5H313.851V24.4091H316.8V26.6335H316.953C317.254 25.9006 317.734 25.3182 318.393 24.8864C319.058 24.4545 319.879 24.2386 320.857 24.2386C321.76 24.2386 322.547 24.4318 323.217 24.8182C323.893 25.2045 324.416 25.7642 324.786 26.4972C325.161 27.2301 325.345 28.1193 325.339 29.1648V37.5H322.254V29.642C322.254 28.767 322.027 28.0824 321.572 27.5881C321.124 27.0937 320.501 26.8466 319.706 26.8466C319.166 26.8466 318.686 26.9659 318.266 27.2045C317.851 27.4375 317.524 27.7756 317.286 28.2188C317.053 28.6619 316.936 29.1989 316.936 29.8295ZM332.243 37.7642C331.413 37.7642 330.666 37.6165 330.001 37.321C329.342 37.0199 328.82 36.5767 328.433 35.9915C328.053 35.4062 327.862 34.6847 327.862 33.8267C327.862 33.0881 327.999 32.4773 328.271 31.9943C328.544 31.5114 328.916 31.125 329.388 30.8352C329.859 30.5455 330.391 30.3267 330.982 30.179C331.578 30.0256 332.195 29.9148 332.831 29.8466C333.598 29.767 334.22 29.696 334.697 29.6335C335.175 29.5653 335.521 29.4631 335.737 29.3267C335.959 29.1847 336.07 28.9659 336.07 28.6705V28.6193C336.07 27.9773 335.879 27.4801 335.499 27.1278C335.118 26.7756 334.57 26.5994 333.854 26.5994C333.098 26.5994 332.499 26.7642 332.055 27.0938C331.618 27.4233 331.322 27.8125 331.169 28.2614L328.288 27.8523C328.516 27.0568 328.891 26.392 329.413 25.858C329.936 25.3182 330.575 24.9148 331.331 24.6477C332.087 24.375 332.922 24.2386 333.837 24.2386C334.467 24.2386 335.095 24.3125 335.72 24.4602C336.345 24.608 336.916 24.8523 337.433 25.1932C337.95 25.5284 338.365 25.9858 338.678 26.5653C338.996 27.1449 339.155 27.8693 339.155 28.7386V37.5H336.189V35.7017H336.087C335.899 36.0653 335.635 36.4062 335.294 36.7244C334.959 37.0369 334.536 37.2898 334.024 37.483C333.518 37.6705 332.925 37.7642 332.243 37.7642ZM333.044 35.4972C333.663 35.4972 334.2 35.375 334.655 35.1307C335.109 34.8807 335.459 34.5511 335.703 34.142C335.953 33.733 336.078 33.2869 336.078 32.804V31.2614C335.982 31.3409 335.817 31.4148 335.584 31.483C335.357 31.5511 335.101 31.6108 334.817 31.6619C334.533 31.7131 334.251 31.7585 333.973 31.7983C333.695 31.8381 333.453 31.8722 333.249 31.9006C332.788 31.9631 332.376 32.0653 332.013 32.2074C331.649 32.3494 331.362 32.5483 331.152 32.804C330.942 33.054 330.837 33.3778 330.837 33.7756C330.837 34.3438 331.044 34.7727 331.459 35.0625C331.874 35.3523 332.402 35.4972 333.044 35.4972Z" fill="white"/>
<path d="M75.6003 111.006L101.5 66H145L78.4983 113.63C76.7501 114.882 74.5277 112.87 75.6003 111.006Z" fill="#006DB7"/>
<defs>
<clipPath id="clip0_210_6187">
<rect width="24" height="24" fill="white" transform="translate(107 17)"/>
</clipPath>
</defs>
</svg>
