<svg width="512" height="160" viewBox="0 0 646 202" fill="none" xmlns="http://www.w3.org/2000/svg">
<path d="M542.039 167.306L589.089 140.839L645.076 172.744L598.155 199.802L542.039 167.306Z" fill="#3B495C"/>
<path d="M645.076 172.744V174.942L598.154 201.999V199.801L645.076 172.744Z" fill="#233143"/>
<path d="M542.039 167.307V169.505L598.155 202V199.802L542.039 167.307Z" fill="#233143"/>
<path d="M589.633 116.364L549.42 139.194V166.151L589.633 143.028V116.364Z" fill="#C6C3C1"/>
<path d="M551.736 139.688L550.123 140.601V167.563L551.736 166.635V139.688Z" fill="#FBAD32"/>
<path opacity="0.5" d="M562.306 147.169L550.928 153.713V156.61L564.842 148.613L562.306 147.169Z" fill="white"/>
<path opacity="0.5" d="M565.884 149.202L550.928 157.802V158.643L566.62 149.618L565.884 149.202Z" fill="white"/>
<path opacity="0.5" d="M550.928 140.712V141.667L551.764 141.187L550.928 140.712Z" fill="white"/>
<path opacity="0.5" d="M550.928 167.098L569.197 177.599V151.085L569.111 151.035L550.928 161.486V167.098Z" fill="white"/>
<path opacity="0.5" d="M567.141 149.915L550.928 159.237V160.891L568.585 150.738L567.141 149.915Z" fill="white"/>
<path d="M580.817 142.051V141.457L566.619 149.618L567.14 149.916L580.817 142.051Z" fill="white"/>
<path opacity="0.8" d="M566.62 149.618L550.928 158.643V159.237L567.141 149.915L566.62 149.618Z" fill="white"/>
<path d="M580.961 143.623L568.586 150.738L569.111 151.035L580.961 144.217V143.623Z" fill="white"/>
<path opacity="0.8" d="M550.928 160.891V161.485L569.111 151.034L568.585 150.737L550.928 160.891Z" fill="white"/>
<path d="M580.817 140.616V139.423L564.842 148.612L565.884 149.202L580.817 140.616Z" fill="white"/>
<path opacity="0.8" d="M564.842 148.613L550.928 156.61V157.803L565.884 149.203L564.842 148.613Z" fill="white"/>
<path d="M574.621 140.086V128.04L551.764 141.187L562.306 147.169L574.621 140.086Z" fill="white"/>
<path opacity="0.8" d="M551.764 141.188L550.928 141.667V153.713L562.306 147.169L551.764 141.188Z" fill="white"/>
<path d="M638.405 145.445L598.191 168.275V195.232L638.405 172.109V145.445Z" fill="#FBAD32"/>
<path d="M579.594 155.736L577.98 156.655V183.611L579.594 182.684V155.736Z" fill="#FBAD32"/>
<path d="M550.151 140.999L548.693 140.172V166.767L550.151 167.608V140.999Z" fill="#FBAD32"/>
<path d="M568.662 151.51V178.252L577.98 183.612V156.801L568.662 151.51Z" fill="#FBAD32"/>
<path opacity="0.5" d="M592.58 164.446L578.953 172.283V173.12L593.316 164.862L592.58 164.446Z" fill="white"/>
<path opacity="0.5" d="M593.837 165.159L578.953 173.714V175.368L595.285 165.977L593.837 165.159Z" fill="white"/>
<path opacity="0.5" d="M589.002 162.412L578.953 168.188V171.09L591.538 163.852L589.002 162.412Z" fill="white"/>
<path opacity="0.5" d="M578.953 183.09L597.218 193.591V167.078L595.806 166.273L578.953 175.966V183.09Z" fill="white"/>
<path opacity="0.8" d="M593.316 164.862L578.953 173.12V173.714L593.837 165.159L593.316 164.862Z" fill="white"/>
<path opacity="0.8" d="M578.953 175.367V175.966L595.806 166.274L595.285 165.977L578.953 175.367Z" fill="white"/>
<path opacity="0.8" d="M591.538 163.852L578.953 171.09V172.283L592.58 164.446L591.538 163.852Z" fill="white"/>
<path opacity="0.8" d="M578.953 156.705V168.189L589.002 162.413L578.953 156.705Z" fill="white"/>
<path d="M588.179 162.001L587.607 161.677V188.058L588.179 188.387V162.001Z" fill="#888D9A"/>
<path d="M596.234 167.165V194.108L598.19 195.232V168.275L596.234 167.165Z" fill="#FBAD32"/>
<path d="M598.191 168.888L595.129 161.677L638.404 136.827V146.085L598.191 168.888Z" fill="#BECCC6"/>
<path d="M638.405 136.827L592.489 163.468L548.748 138.687L594.587 112L638.405 136.827Z" fill="white"/>
<path d="M632.958 137.654L634.471 136.781L594.824 113.864L555.744 136.534L557.362 137.49L594.929 115.697L632.958 137.654Z" fill="#7C8982"/>
<path d="M632.957 137.655L594.928 115.697L562.438 134.543L600.412 156.473L632.957 137.655Z" fill="#A2AAA6"/>
<path d="M595.326 159.416L600.412 156.473L562.438 134.543L557.361 137.49L595.326 159.416Z" fill="#8C9993"/>
<path d="M549.15 131.499V132.189L542.035 136.297V135.607L549.15 131.499Z" fill="#243954"/>
<path d="M549.15 137.965V138.659L542.035 142.768V142.073L549.15 137.965Z" fill="#243954"/>
<path d="M547.783 130.315L597.287 158.419V169.4L547.783 140.935V130.315Z" fill="#243954"/>
<path d="M548.693 129.826L547.783 130.315L597.287 158.419L598.191 157.93L548.693 129.826Z" fill="#243954"/>
<path d="M597.287 169.4L598.192 168.911V157.93L597.287 158.419V169.4Z" fill="#243954"/>
<path d="M570.859 161.782L576.457 165.013V163.153L570.859 160.005V161.782Z" fill="white"/>
<path d="M593.215 181.761L589.861 179.841V173.878L593.215 175.797V181.761Z" fill="#243954"/>
<path d="M592.891 176.104L590.186 174.555V174.92L592.891 176.469V176.104Z" fill="white"/>
<path d="M592.891 176.839L590.186 175.29V175.66L592.891 177.209V176.839Z" fill="white"/>
<path d="M590.322 177.25C590.322 176.729 590.528 176.542 590.811 176.706C591.095 176.871 591.3 177.296 591.3 177.817C591.3 178.342 591.095 178.534 590.811 178.37C590.523 178.205 590.322 177.776 590.322 177.25ZM590.989 177.639C590.989 177.268 590.907 177.095 590.807 177.035C590.706 176.976 590.628 177.058 590.628 177.428C590.628 177.803 590.711 177.981 590.807 178.041C590.907 178.096 590.989 178.009 590.989 177.639ZM590.88 179.462L591.94 177.36L592.191 177.506L591.136 179.613L590.88 179.462ZM591.766 179.137C591.766 178.616 591.976 178.429 592.255 178.594C592.539 178.758 592.744 179.183 592.744 179.704C592.744 180.23 592.539 180.422 592.255 180.257C591.972 180.092 591.766 179.663 591.766 179.137ZM592.438 179.526C592.438 179.151 592.356 178.982 592.26 178.923C592.159 178.863 592.077 178.941 592.077 179.316C592.077 179.69 592.159 179.869 592.26 179.928C592.356 179.983 592.438 179.901 592.438 179.526Z" fill="white"/>
<path d="M586.219 173.316L584.268 172.201V168.729L586.219 169.844V173.316Z" fill="#243954"/>
<path d="M567.086 170.396L560.145 166.421V154.073L567.086 158.049V170.396Z" fill="#243954"/>
<path d="M566.67 160.279L560.738 156.884V157.574L566.67 160.969V160.279Z" fill="white"/>
<path d="M566.67 159.041L560.738 155.646V156.336L566.67 159.731V159.041Z" fill="white"/>
<path d="M547.362 130.288L539.662 134.661V145.642L547.362 141.214V130.288Z" fill="#243954"/>
<path d="M547.362 135.122L539.662 139.495V140.149L547.362 135.725V135.122Z" fill="white"/>
<path d="M547.362 136.604L539.662 140.972V141.63L547.362 137.202V136.604Z" fill="white"/>
<path d="M547.362 138.011L539.662 142.384V143.037L547.362 138.609V138.011Z" fill="white"/>
<path d="M539 145.249L539.663 145.642V134.661L539 134.268V145.249Z" fill="#243954"/>
<path d="M547.363 130.288L546.7 129.899L539 134.268L539.663 134.661L547.363 130.288Z" fill="#243954"/>
<rect width="489" height="141" rx="18" fill="#006DB7"/>
<path d="M526.5 171L415 135.026L447 111L486.75 141L526.5 171Z" fill="#006DB7"/>
<rect x="25.0476" y="49.5476" width="41.9048" height="41.9048" rx="20.9524" fill="#FFB600"/>
<rect x="25.0476" y="49.5476" width="41.9048" height="41.9048" rx="20.9524" stroke="white" stroke-width="2.09524"/>
<path d="M34.375 78.8886C34.375 78.9261 34.3787 78.9599 34.39 78.9936C34.39 79.0049 34.3975 79.0161 34.4013 79.0274C34.4125 79.0574 34.4313 79.0874 34.4538 79.1136C34.4575 79.1211 34.4613 79.1249 34.465 79.1324C34.465 79.1324 34.4688 79.1324 34.4725 79.1361C34.4987 79.1661 34.5288 79.1924 34.5662 79.2111C36.205 80.0699 40.255 81.5661 40.4237 81.6261C40.4387 81.6299 40.45 81.6299 40.465 81.6336C40.4725 81.6336 40.48 81.6411 40.4913 81.6449C40.5887 81.6599 40.7125 81.6674 40.855 81.6674C43.9375 81.6674 56.7887 78.0411 57.3587 77.8799C57.5312 77.8311 57.6438 77.6624 57.6213 77.4824C57.0138 72.7236 55.375 64.9574 55.36 64.8786C55.36 64.8749 55.3563 64.8711 55.3563 64.8674C55.345 64.8299 55.33 64.7961 55.3113 64.7624C55.3075 64.7549 55.3037 64.7474 55.3 64.7436C55.2775 64.7099 55.2437 64.6799 55.21 64.6574C55.195 64.6461 55.1762 64.6386 55.1575 64.6311C55.1425 64.6236 55.1275 64.6124 55.1087 64.6086L51.625 63.5849C50.2675 60.5474 48.3175 59.0849 45.9887 59.3586C45.5012 59.4149 45.0512 59.5499 44.6425 59.7561C44.4362 59.7186 44.2225 59.6961 44.0013 59.6924C42.8988 59.6811 41.9613 60.1161 41.2263 60.9824C40.3413 62.0136 39.7863 63.6674 39.5612 65.8911C37.615 66.2361 36.1862 66.4799 36.1637 66.4836C36.1487 66.4836 36.1413 66.4949 36.1263 66.4986C36.1187 66.4986 36.1075 66.4986 36.1 66.4986C36.0888 66.4986 36.0813 66.5099 36.0738 66.5174C36.0438 66.5324 36.0175 66.5474 35.995 66.5661C35.98 66.5774 35.9687 66.5886 35.9575 66.6036C35.935 66.6261 35.92 66.6524 35.905 66.6824C35.9013 66.6936 35.89 66.7011 35.8863 66.7124C35.1588 68.6249 34.4087 78.4461 34.3787 78.8624V78.8661V78.8849L34.375 78.8886ZM40.5325 66.4574C40.5738 66.4499 40.615 66.4424 40.66 66.4349C41.1512 66.3449 41.6613 66.2549 42.1825 66.1574C42.1975 66.5436 42.2275 66.9411 42.2725 67.3536C40.4987 67.6986 39.3438 67.8899 38.8375 67.9199L37.2812 67.0274C38.0538 66.8924 39.2125 66.6936 40.5363 66.4536L40.5325 66.4574ZM42.16 65.4224C41.995 65.4524 41.83 65.4824 41.665 65.5124C41.8225 64.3986 42.0812 63.5099 42.4225 62.8911C42.2462 63.6261 42.1562 64.4736 42.1562 65.4224H42.16ZM37.4162 76.9686L39.6737 80.5724C38.5037 80.1261 36.5838 79.3761 35.38 78.8061L37.42 76.9724L37.4162 76.9686ZM37.8587 76.3049V68.2011L38.4062 68.5161C38.5525 69.9261 39.2013 75.9861 39.7487 79.3236L37.8587 76.3086V76.3049ZM36.4375 67.3874L37.1313 67.7849V76.2486L35.17 78.0149C35.3612 75.6749 35.905 69.4724 36.4337 67.3874H36.4375ZM40.8062 80.9511C40.405 79.6761 39.6063 73.0086 39.145 68.6286C39.76 68.5611 40.8025 68.3849 42.3513 68.0811C42.475 68.9549 42.6213 69.6336 42.7075 70.0049C42.8313 70.4849 43.2625 70.8224 43.7575 70.8224C43.8475 70.8224 43.9375 70.8111 44.0238 70.7886C44.5975 70.6424 44.9537 70.0574 44.8112 69.4761C44.6875 68.9774 44.5675 68.3174 44.4775 67.6499C46.1425 67.3049 48.1075 66.8849 50.3312 66.3899C50.5187 67.0536 50.68 67.7474 50.7962 68.4111C50.7962 68.4261 50.8 68.4374 50.8038 68.4486C50.845 68.7336 50.995 68.9849 51.2275 69.1574C51.46 69.3299 51.7413 69.4049 52.03 69.3599C52.3188 69.3186 52.57 69.1649 52.7425 68.9324C52.915 68.6999 52.9862 68.4149 52.945 68.1299C52.93 68.0211 52.7913 67.1099 52.4538 65.9099C53.4812 65.6774 54.2875 65.4936 54.7225 65.3924C55.045 66.9449 56.305 73.1174 56.8563 77.2649C52.7612 78.4161 42.955 81.0261 40.8025 80.9399L40.8062 80.9511ZM45.805 61.6161C45.8387 61.6049 45.8687 61.5899 45.9025 61.5824C46.0075 61.5524 46.12 61.5261 46.2362 61.5111C46.2625 61.5111 46.2925 61.5111 46.3187 61.5074C46.9112 62.1636 47.395 63.1049 47.755 64.3161C47.7362 64.3199 47.7137 64.3236 47.695 64.3311C47.5225 64.3686 47.3425 64.4061 47.1588 64.4474C46.7725 63.1799 46.2362 62.2724 45.565 61.7286C45.58 61.7211 45.5913 61.7136 45.6025 61.7061C45.6663 61.6724 45.7337 61.6461 45.805 61.6199V61.6161ZM44.4025 66.9261C44.365 66.5286 44.3387 66.1349 44.3312 65.7524C45.3175 65.5611 46.1988 65.3849 46.9713 65.2236H46.9788C47.0688 65.2049 47.155 65.1861 47.245 65.1674C47.3725 65.1411 47.4925 65.1149 47.6125 65.0886C47.6275 65.0886 47.6425 65.0811 47.6575 65.0774C47.815 65.0436 47.9688 65.0099 48.115 64.9761C48.1712 64.9649 48.2312 64.9499 48.2875 64.9386C48.8425 64.8149 49.3187 64.7024 49.7087 64.6011C49.8512 64.9349 49.99 65.2986 50.1175 65.6886C47.95 66.1724 46.03 66.5849 44.3988 66.9224L44.4025 66.9261ZM48.4637 64.1586C48.1713 63.1649 47.8 62.3286 47.35 61.6574C48.1112 61.9724 48.8012 62.7374 49.4012 63.9336C49.1275 64.0011 48.8125 64.0761 48.46 64.1586H48.4637ZM45.0025 62.2424C45.0025 62.2424 45.0138 62.2311 45.0175 62.2236C45.5988 62.6474 46.0863 63.4574 46.4425 64.5936C45.805 64.7249 45.1 64.8636 44.3275 65.0136C44.3688 63.7799 44.5975 62.8236 45.0025 62.2424ZM52.24 65.2236C52.1537 64.9611 52.0675 64.7024 51.9738 64.4511L53.575 64.9236C53.1925 65.0099 52.7425 65.1149 52.2438 65.2274L52.24 65.2236ZM46.0712 60.0861C46.2287 60.0674 46.3825 60.0599 46.5363 60.0599C48.3775 60.0599 49.885 61.3949 51.0287 64.0386C51.2575 64.5786 51.4675 65.1599 51.6512 65.7599C52.0525 67.0874 52.21 68.1299 52.225 68.2461C52.24 68.3399 52.2137 68.4336 52.1575 68.5124C52.1012 68.5874 52.0188 68.6399 51.9212 68.6511C51.8275 68.6661 51.7375 68.6399 51.6588 68.5836C51.5837 68.5274 51.535 68.4449 51.52 68.3474C51.52 68.3361 51.5125 68.3061 51.5125 68.2949C51.3738 67.4886 51.175 66.6486 50.935 65.8574C50.7213 65.1674 50.5 64.5711 50.2488 64.0274C49.2663 61.8674 48.01 60.7724 46.5175 60.7724C46.4988 60.7724 46.4838 60.7724 46.465 60.7724C46.3638 60.7649 46.255 60.7799 46.15 60.7911C45.5538 60.8624 45.055 61.0986 44.68 61.4924C44.68 61.4924 44.68 61.4924 44.6762 61.4961C44.5787 61.5936 44.4887 61.7061 44.4025 61.8261C43.8588 62.6099 43.585 63.8324 43.5887 65.4561C43.5887 66.0824 43.6337 66.7386 43.7125 67.4061C43.8062 68.2049 43.9525 69.0449 44.1063 69.6486C44.1512 69.8399 44.035 70.0311 43.8475 70.0799C43.6713 70.1249 43.4613 70.0086 43.4125 69.8099C43.3413 69.4986 43.1575 68.6624 43.0225 67.6011C42.94 66.9374 42.895 66.3036 42.8837 65.7149C42.85 64.0386 43.0938 62.7111 43.6038 61.7699C43.6825 61.6236 43.7463 61.5186 43.8175 61.4174C43.8888 61.3124 43.9675 61.2149 44.0463 61.1211C44.2863 60.8436 44.5638 60.6186 44.8675 60.4499C45.2275 60.2549 45.6287 60.1274 46.0712 60.0786V60.0861ZM41.7737 61.4586C42.2987 60.8399 42.9438 60.4986 43.6975 60.4349C43.6525 60.4799 43.6112 60.5286 43.5662 60.5774C43.5363 60.6111 43.5063 60.6411 43.4762 60.6749C43.3863 60.7799 43.3 60.8924 43.2175 61.0086C43.18 61.0611 43.1425 61.1211 43.105 61.1811C43.0938 61.1999 43.0825 61.2186 43.0712 61.2374C43.0563 61.2636 43.0413 61.2861 43.0262 61.3124C42.715 61.4474 42.4338 61.6611 42.1825 61.9499C41.5487 62.6924 41.1213 63.9374 40.9075 65.6549C40.7575 65.6811 40.6112 65.7074 40.4612 65.7374C40.405 65.7486 40.3488 65.7561 40.2925 65.7674C40.51 63.8211 41.0162 62.3399 41.77 61.4624L41.7737 61.4586Z" fill="white"/>
<path d="M50.5142 72.8254C50.1579 72.5217 49.6404 72.3567 48.9842 72.3267L47.9754 72.2854C47.6454 72.2704 47.5517 72.2104 47.5404 72.2029C47.5292 72.1954 47.5067 72.1804 47.5067 72.0979C47.5067 72.0154 47.5179 71.8879 47.6679 71.7417C47.7992 71.6142 48.0054 71.5204 48.2754 71.4717C48.5154 71.4267 48.7142 71.4117 48.8679 71.4304C49.0329 71.4492 49.1904 71.4792 49.3217 71.5204C49.5579 71.5954 49.7754 71.5992 49.9667 71.5279C50.1504 71.4604 50.2967 71.3442 50.4017 71.1867C50.4992 71.0442 50.5554 70.8867 50.5742 70.7142C50.5929 70.5304 50.5592 70.3579 50.4729 70.1967C50.3829 70.0242 50.2404 69.8967 50.0717 69.8254C49.8204 69.6979 49.5317 69.6154 49.2129 69.5817C49.1304 69.5742 49.0517 69.5667 48.9692 69.5629L48.9579 69.3904C48.9429 69.1467 48.8417 68.9404 48.6579 68.7942C48.4742 68.6479 48.2492 68.5954 48.0092 68.6367C47.7767 68.6779 47.5779 68.7942 47.4317 68.9779C47.2854 69.1617 47.2104 69.3754 47.2217 69.6042L47.2329 69.8854C46.9779 69.9904 46.7454 70.1217 46.5429 70.2754C46.1979 70.5342 45.9242 70.8454 45.7292 71.2054C45.5267 71.5804 45.4254 71.9892 45.4254 72.4204C45.4254 73.0129 45.6054 73.4854 45.9542 73.8192C46.2992 74.1492 46.8092 74.3292 47.4692 74.3592L48.5004 74.4042C48.7179 74.4117 48.8379 74.4379 48.9017 74.4642C48.9842 74.4942 49.0029 74.5204 49.0067 74.5242C49.0254 74.5542 49.0404 74.5954 49.0442 74.6517C49.0517 74.7342 49.0329 74.8092 48.9954 74.8842C48.9542 74.9592 48.8754 75.0379 48.7592 75.1092C48.6242 75.1954 48.4329 75.2629 48.1854 75.3117C47.8367 75.3829 47.5404 75.3979 47.3042 75.3642C47.0567 75.3267 46.8654 75.2817 46.7342 75.2292C46.4154 75.1092 46.1717 75.1692 46.0217 75.2404C45.8342 75.3304 45.6804 75.4692 45.5679 75.6567C45.4629 75.8329 45.3992 76.0242 45.3804 76.2267C45.3617 76.4367 45.3917 76.6354 45.4704 76.8229C45.5642 77.0442 45.7404 77.2054 45.9692 77.2879C46.2204 77.3892 46.5242 77.4604 46.8917 77.5092C47.0792 77.5354 47.2817 77.5392 47.5029 77.5317L47.5142 77.8242C47.5254 78.1092 47.6267 78.3529 47.8142 78.5292C47.9717 78.6792 48.1704 78.7579 48.3842 78.7579C48.4479 78.7579 48.5117 78.7504 48.5754 78.7392C48.8417 78.6829 49.0629 78.5292 49.2167 78.2892C49.3592 78.0679 49.4267 77.8204 49.4079 77.5542L49.3817 77.0967C49.6742 76.9579 49.9367 76.7854 50.1617 76.5904C50.5104 76.2904 50.7767 75.9304 50.9529 75.5217C51.1292 75.1167 51.1967 74.6742 51.1554 74.2129C51.1029 73.6167 50.8854 73.1554 50.5104 72.8367L50.5142 72.8254ZM50.2892 75.2179C50.1542 75.5254 49.9554 75.7954 49.6892 76.0242C49.4642 76.2192 49.1867 76.3842 48.8717 76.5117C48.7254 76.5717 48.6354 76.7142 48.6467 76.8679L48.6879 77.5767C48.6954 77.6892 48.6692 77.7867 48.6092 77.8767C48.5454 77.9742 48.4779 77.9967 48.4292 78.0079C48.3579 78.0229 48.3354 78.0042 48.3167 77.9854C48.2867 77.9592 48.2492 77.9067 48.2417 77.7829L48.2192 77.1117C48.2192 77.0104 48.1704 76.9129 48.0917 76.8492C48.0242 76.7929 47.9417 76.7629 47.8554 76.7629C47.8404 76.7629 47.8254 76.7629 47.8104 76.7629C47.4954 76.8004 47.2217 76.8042 46.9892 76.7742C46.6854 76.7329 46.4342 76.6729 46.2279 76.5942C46.1642 76.5717 46.1492 76.5454 46.1379 76.5192C46.1079 76.4479 46.0967 76.3654 46.1042 76.2754C46.1117 76.1817 46.1379 76.0992 46.1867 76.0204C46.2279 75.9529 46.2729 75.9117 46.3329 75.8817C46.3629 75.8667 46.4117 75.8704 46.4642 75.8929C46.6442 75.9642 46.8842 76.0242 47.1917 76.0692C47.5104 76.1179 47.8892 76.0992 48.3204 76.0129C48.6579 75.9454 48.9279 75.8479 49.1379 75.7129C49.3629 75.5704 49.5279 75.4017 49.6292 75.2142C49.7304 75.0192 49.7754 74.8129 49.7604 74.5954C49.7492 74.4079 49.6929 74.2392 49.5954 74.1004C49.4942 73.9504 49.3367 73.8417 49.1342 73.7704C48.9692 73.7104 48.7629 73.6804 48.5154 73.6729L47.4879 73.6279C47.0117 73.6092 46.6592 73.4929 46.4454 73.2904C46.2429 73.0954 46.1417 72.8104 46.1417 72.4167C46.1417 72.1017 46.2129 71.8167 46.3592 71.5467C46.5054 71.2767 46.7079 71.0479 46.9704 70.8492C47.1804 70.6917 47.4279 70.5642 47.7129 70.4704C47.8667 70.4179 47.9679 70.2754 47.9604 70.1142L47.9417 69.5704C47.9417 69.5179 47.9567 69.4729 47.9942 69.4279C48.0317 69.3829 48.0729 69.3567 48.1292 69.3492C48.1779 69.3417 48.1892 69.3492 48.2004 69.3567C48.2117 69.3679 48.2267 69.3754 48.2267 69.4242L48.2567 69.9454C48.2679 70.1442 48.4404 70.2979 48.6392 70.2867C48.8192 70.2754 48.9729 70.2792 49.1304 70.2979C49.3592 70.3204 49.5617 70.3804 49.7529 70.4742C49.8092 70.4967 49.8204 70.5229 49.8279 70.5342C49.8467 70.5679 49.8542 70.6017 49.8467 70.6392C49.8429 70.6917 49.8242 70.7367 49.7942 70.7817C49.7792 70.8042 49.7567 70.8267 49.7079 70.8492C49.6967 70.8529 49.6517 70.8642 49.5392 70.8304C49.3554 70.7742 49.1567 70.7367 48.9429 70.7142C48.7179 70.6917 48.4554 70.7067 48.1442 70.7629C47.7279 70.8379 47.3979 70.9954 47.1617 71.2242C46.9029 71.4754 46.7717 71.7867 46.7792 72.1204C46.7904 72.4879 46.9704 72.6942 47.1167 72.7992C47.3004 72.9304 47.5592 72.9979 47.9417 73.0167L48.9504 73.0579C49.4454 73.0804 49.8129 73.1929 50.0454 73.3879C50.2704 73.5792 50.4017 73.8679 50.4354 74.2729C50.4654 74.6179 50.4167 74.9292 50.2892 75.2254V75.2179Z" fill="white"/>
<path d="M96.1413 35.2891C96.0552 34.4827 95.692 33.8549 95.0518 33.4055C94.4179 32.9562 93.593 32.7315 92.5774 32.7315C91.8634 32.7315 91.2509 32.8393 90.7401 33.0547C90.2292 33.2701 89.8383 33.5625 89.5675 33.9318C89.2966 34.3011 89.1581 34.7228 89.152 35.1967C89.152 35.5907 89.2412 35.9323 89.4197 36.2216C89.6044 36.5109 89.8537 36.7571 90.1676 36.9602C90.4815 37.1572 90.8293 37.3234 91.2109 37.4588C91.5926 37.5942 91.9773 37.7081 92.3651 37.8004L94.1378 38.2436C94.8518 38.4098 95.5381 38.6345 96.1967 38.9176C96.8615 39.2008 97.4555 39.5578 97.9787 39.9886C98.508 40.4195 98.9266 40.9396 99.2344 41.549C99.5421 42.1584 99.696 42.8724 99.696 43.6911C99.696 44.799 99.4129 45.7746 98.8466 46.6179C98.2803 47.455 97.4616 48.1106 96.3906 48.5845C95.3258 49.0523 94.0362 49.2862 92.522 49.2862C91.0509 49.2862 89.7737 49.0585 88.6903 48.603C87.6132 48.1475 86.7699 47.4827 86.1605 46.6087C85.5573 45.7346 85.2311 44.6697 85.1818 43.4141H88.5518C88.6011 44.0727 88.8042 44.6205 89.1612 45.0575C89.5182 45.4946 89.983 45.8208 90.5554 46.0362C91.134 46.2517 91.7803 46.3594 92.4943 46.3594C93.2391 46.3594 93.8916 46.2486 94.4517 46.027C95.018 45.7992 95.4612 45.4853 95.7812 45.0852C96.1013 44.679 96.2644 44.205 96.2706 43.6634C96.2644 43.1709 96.1198 42.7647 95.8366 42.4446C95.5535 42.1184 95.1565 41.8475 94.6456 41.6321C94.1409 41.4105 93.55 41.2135 92.8729 41.0412L90.7216 40.4872C89.1643 40.0871 87.9332 39.4808 87.0284 38.6683C86.1297 37.8497 85.6804 36.7633 85.6804 35.4091C85.6804 34.295 85.982 33.3194 86.5852 32.4822C87.1946 31.6451 88.0225 30.9957 89.0689 30.5341C90.1153 30.0663 91.3002 29.8324 92.6236 29.8324C93.9654 29.8324 95.1411 30.0663 96.1506 30.5341C97.1662 30.9957 97.9633 31.639 98.5419 32.4638C99.1205 33.2824 99.419 34.2242 99.4375 35.2891H96.1413ZM106.683 49.2862C105.784 49.2862 104.975 49.1262 104.255 48.8061C103.541 48.4799 102.974 47.9998 102.556 47.3658C102.144 46.7318 101.937 45.95 101.937 45.0206C101.937 44.2204 102.085 43.5587 102.381 43.0355C102.676 42.5123 103.079 42.0938 103.59 41.7798C104.101 41.4659 104.676 41.2289 105.317 41.0689C105.963 40.9027 106.631 40.7827 107.32 40.7088C108.151 40.6226 108.825 40.5457 109.342 40.478C109.859 40.4041 110.235 40.2933 110.469 40.1456C110.709 39.9917 110.829 39.7547 110.829 39.4347V39.3793C110.829 38.6837 110.622 38.1451 110.21 37.7635C109.798 37.3819 109.204 37.1911 108.428 37.1911C107.609 37.1911 106.96 37.3696 106.48 37.7266C106.006 38.0836 105.686 38.5052 105.52 38.9915L102.399 38.5483C102.645 37.6866 103.051 36.9664 103.618 36.3878C104.184 35.803 104.876 35.366 105.695 35.0767C106.514 34.7812 107.419 34.6335 108.41 34.6335C109.093 34.6335 109.773 34.7135 110.45 34.8736C111.127 35.0336 111.746 35.2983 112.306 35.6676C112.866 36.0308 113.315 36.5263 113.654 37.1541C113.999 37.782 114.171 38.5668 114.171 39.5085V49H110.958V47.0518H110.847C110.644 47.4458 110.358 47.8151 109.988 48.1598C109.625 48.4983 109.167 48.7723 108.613 48.9815C108.065 49.1847 107.422 49.2862 106.683 49.2862ZM107.551 46.8303C108.222 46.8303 108.804 46.6979 109.296 46.4332C109.788 46.1624 110.167 45.8054 110.432 45.3622C110.702 44.919 110.838 44.4358 110.838 43.9126V42.2415C110.733 42.3277 110.555 42.4077 110.302 42.4815C110.056 42.5554 109.779 42.62 109.471 42.6754C109.164 42.7308 108.859 42.7801 108.557 42.8232C108.256 42.8662 107.994 42.9032 107.773 42.9339C107.274 43.0017 106.828 43.1125 106.434 43.2663C106.04 43.4202 105.729 43.6357 105.501 43.9126C105.273 44.1835 105.16 44.5343 105.16 44.9652C105.16 45.5807 105.384 46.0455 105.834 46.3594C106.283 46.6733 106.855 46.8303 107.551 46.8303ZM120.874 30.0909V49H117.532V30.0909H120.874ZM128.392 49.2862C127.493 49.2862 126.684 49.1262 125.964 48.8061C125.25 48.4799 124.683 47.9998 124.265 47.3658C123.853 46.7318 123.646 45.95 123.646 45.0206C123.646 44.2204 123.794 43.5587 124.089 43.0355C124.385 42.5123 124.788 42.0938 125.299 41.7798C125.81 41.4659 126.385 41.2289 127.026 41.0689C127.672 40.9027 128.34 40.7827 129.029 40.7088C129.86 40.6226 130.534 40.5457 131.051 40.478C131.568 40.4041 131.944 40.2933 132.178 40.1456C132.418 39.9917 132.538 39.7547 132.538 39.4347V39.3793C132.538 38.6837 132.331 38.1451 131.919 37.7635C131.507 37.3819 130.913 37.1911 130.137 37.1911C129.318 37.1911 128.669 37.3696 128.189 37.7266C127.715 38.0836 127.395 38.5052 127.229 38.9915L124.108 38.5483C124.354 37.6866 124.76 36.9664 125.327 36.3878C125.893 35.803 126.585 35.366 127.404 35.0767C128.223 34.7812 129.128 34.6335 130.119 34.6335C130.802 34.6335 131.482 34.7135 132.159 34.8736C132.836 35.0336 133.455 35.2983 134.015 35.6676C134.575 36.0308 135.024 36.5263 135.363 37.1541C135.708 37.782 135.88 38.5668 135.88 39.5085V49H132.667V47.0518H132.556C132.353 47.4458 132.067 47.8151 131.697 48.1598C131.334 48.4983 130.876 48.7723 130.322 48.9815C129.774 49.1847 129.131 49.2862 128.392 49.2862ZM129.26 46.8303C129.931 46.8303 130.513 46.6979 131.005 46.4332C131.497 46.1624 131.876 45.8054 132.141 45.3622C132.411 44.919 132.547 44.4358 132.547 43.9126V42.2415C132.442 42.3277 132.264 42.4077 132.011 42.4815C131.765 42.5554 131.488 42.62 131.18 42.6754C130.873 42.7308 130.568 42.7801 130.266 42.8232C129.965 42.8662 129.703 42.9032 129.482 42.9339C128.983 43.0017 128.537 43.1125 128.143 43.2663C127.749 43.4202 127.438 43.6357 127.21 43.9126C126.982 44.1835 126.869 44.5343 126.869 44.9652C126.869 45.5807 127.093 46.0455 127.543 46.3594C127.992 46.6733 128.564 46.8303 129.26 46.8303ZM150.953 49.2493C149.839 49.2493 148.842 48.9631 147.961 48.3906C147.081 47.8182 146.386 46.9872 145.875 45.8977C145.364 44.8082 145.108 43.4848 145.108 41.9276C145.108 40.3518 145.367 39.0223 145.884 37.9389C146.407 36.8494 147.112 36.0277 147.998 35.4737C148.885 34.9136 149.873 34.6335 150.962 34.6335C151.793 34.6335 152.476 34.7751 153.012 35.0582C153.547 35.3352 153.972 35.6707 154.286 36.0646C154.6 36.4524 154.843 36.8187 155.015 37.1634H155.154V30.0909H158.505V49H155.218V46.7656H155.015C154.843 47.1103 154.594 47.4766 154.267 47.8643C153.941 48.246 153.51 48.5722 152.975 48.843C152.439 49.1139 151.765 49.2493 150.953 49.2493ZM151.885 46.5071C152.593 46.5071 153.196 46.3163 153.695 45.9347C154.194 45.5469 154.572 45.0083 154.831 44.3189C155.089 43.6295 155.218 42.8262 155.218 41.9091C155.218 40.992 155.089 40.1948 154.831 39.5178C154.578 38.8407 154.203 38.3144 153.704 37.9389C153.212 37.5634 152.605 37.3757 151.885 37.3757C151.141 37.3757 150.519 37.5696 150.02 37.9574C149.522 38.3452 149.146 38.8807 148.894 39.5639C148.641 40.2472 148.515 41.0289 148.515 41.9091C148.515 42.7955 148.641 43.5864 148.894 44.282C149.152 44.9714 149.531 45.5161 150.029 45.9162C150.534 46.3101 151.153 46.5071 151.885 46.5071ZM168.345 49.277C166.923 49.277 165.695 48.9815 164.661 48.3906C163.633 47.7936 162.843 46.9503 162.289 45.8608C161.735 44.7652 161.458 43.4756 161.458 41.9922C161.458 40.5334 161.735 39.2531 162.289 38.1513C162.849 37.0433 163.63 36.1816 164.634 35.5661C165.637 34.9444 166.816 34.6335 168.17 34.6335C169.044 34.6335 169.869 34.7751 170.644 35.0582C171.426 35.3352 172.115 35.7661 172.713 36.3509C173.316 36.9356 173.79 37.6804 174.134 38.5852C174.479 39.4839 174.651 40.5549 174.651 41.7983V42.8232H163.027V40.5703H171.448C171.441 39.9302 171.303 39.3608 171.032 38.8622C170.761 38.3575 170.383 37.9605 169.896 37.6712C169.416 37.3819 168.856 37.2372 168.216 37.2372C167.533 37.2372 166.933 37.4034 166.416 37.7358C165.899 38.062 165.495 38.4929 165.206 39.0284C164.923 39.5578 164.778 40.1394 164.772 40.7734V42.7401C164.772 43.5649 164.923 44.2727 165.225 44.8636C165.526 45.4484 165.948 45.8977 166.49 46.2116C167.031 46.5194 167.665 46.6733 168.392 46.6733C168.878 46.6733 169.318 46.6056 169.712 46.4702C170.106 46.3286 170.447 46.1224 170.737 45.8516C171.026 45.5807 171.244 45.2453 171.392 44.8452L174.513 45.196C174.316 46.0208 173.941 46.741 173.387 47.3565C172.839 47.9659 172.137 48.4399 171.281 48.7784C170.426 49.1108 169.447 49.277 168.345 49.277ZM186.606 30.0909L191.527 44.9744H191.721L196.633 30.0909H200.4L193.734 49H189.505L182.848 30.0909H186.606ZM207.498 49.277C206.076 49.277 204.848 48.9815 203.814 48.3906C202.786 47.7936 201.995 46.9503 201.441 45.8608C200.887 44.7652 200.61 43.4756 200.61 41.9922C200.61 40.5334 200.887 39.2531 201.441 38.1513C202.001 37.0433 202.783 36.1816 203.786 35.5661C204.789 34.9444 205.968 34.6335 207.322 34.6335C208.196 34.6335 209.021 34.7751 209.797 35.0582C210.578 35.3352 211.268 35.7661 211.865 36.3509C212.468 36.9356 212.942 37.6804 213.287 38.5852C213.631 39.4839 213.804 40.5549 213.804 41.7983V42.8232H202.18V40.5703H210.6C210.594 39.9302 210.455 39.3608 210.184 38.8622C209.914 38.3575 209.535 37.9605 209.049 37.6712C208.569 37.3819 208.009 37.2372 207.368 37.2372C206.685 37.2372 206.085 37.4034 205.568 37.7358C205.051 38.062 204.648 38.4929 204.358 39.0284C204.075 39.5578 203.931 40.1394 203.925 40.7734V42.7401C203.925 43.5649 204.075 44.2727 204.377 44.8636C204.679 45.4484 205.1 45.8977 205.642 46.2116C206.184 46.5194 206.818 46.6733 207.544 46.6733C208.03 46.6733 208.47 46.6056 208.864 46.4702C209.258 46.3286 209.6 46.1224 209.889 45.8516C210.178 45.5807 210.397 45.2453 210.545 44.8452L213.665 45.196C213.468 46.0208 213.093 46.741 212.539 47.3565C211.991 47.9659 211.289 48.4399 210.434 48.7784C209.578 49.1108 208.599 49.277 207.498 49.277ZM219.974 40.6903V49H216.631V34.8182H219.826V37.228H219.992C220.318 36.4339 220.839 35.803 221.553 35.3352C222.273 34.8674 223.162 34.6335 224.221 34.6335C225.2 34.6335 226.052 34.8428 226.778 35.2614C227.511 35.6799 228.077 36.2862 228.477 37.0803C228.884 37.8743 229.084 38.8376 229.077 39.9702V49H225.735V40.4872C225.735 39.5393 225.489 38.7976 224.996 38.2621C224.51 37.7266 223.836 37.4588 222.974 37.4588C222.39 37.4588 221.87 37.5881 221.414 37.8466C220.965 38.099 220.611 38.4652 220.352 38.9453C220.1 39.4254 219.974 40.0071 219.974 40.6903ZM239.557 34.8182V37.4034H231.404V34.8182H239.557ZM233.417 31.4205H236.759V44.7344C236.759 45.1837 236.827 45.5284 236.962 45.7685C237.104 46.0024 237.289 46.1624 237.516 46.2486C237.744 46.3348 237.996 46.3778 238.273 46.3778C238.483 46.3778 238.674 46.3625 238.846 46.3317C239.024 46.3009 239.16 46.2732 239.252 46.2486L239.815 48.8615C239.637 48.9231 239.381 48.9908 239.049 49.0646C238.723 49.1385 238.323 49.1816 237.849 49.1939C237.012 49.2185 236.258 49.0923 235.587 48.8153C234.916 48.5322 234.383 48.0952 233.989 47.5043C233.602 46.9134 233.411 46.1747 233.417 45.2884V31.4205ZM246.433 49.2862C245.534 49.2862 244.725 49.1262 244.005 48.8061C243.291 48.4799 242.724 47.9998 242.306 47.3658C241.894 46.7318 241.687 45.95 241.687 45.0206C241.687 44.2204 241.835 43.5587 242.131 43.0355C242.426 42.5123 242.829 42.0938 243.34 41.7798C243.851 41.4659 244.426 41.2289 245.067 41.0689C245.713 40.9027 246.381 40.7827 247.07 40.7088C247.901 40.6226 248.575 40.5457 249.092 40.478C249.609 40.4041 249.985 40.2933 250.219 40.1456C250.459 39.9917 250.579 39.7547 250.579 39.4347V39.3793C250.579 38.6837 250.372 38.1451 249.96 37.7635C249.548 37.3819 248.954 37.1911 248.178 37.1911C247.359 37.1911 246.71 37.3696 246.23 37.7266C245.756 38.0836 245.436 38.5052 245.27 38.9915L242.149 38.5483C242.395 37.6866 242.801 36.9664 243.368 36.3878C243.934 35.803 244.626 35.366 245.445 35.0767C246.264 34.7812 247.169 34.6335 248.16 34.6335C248.843 34.6335 249.523 34.7135 250.2 34.8736C250.877 35.0336 251.496 35.2983 252.056 35.6676C252.616 36.0308 253.065 36.5263 253.404 37.1541C253.749 37.782 253.921 38.5668 253.921 39.5085V49H250.708V47.0518H250.597C250.394 47.4458 250.108 47.8151 249.738 48.1598C249.375 48.4983 248.917 48.7723 248.363 48.9815C247.815 49.1847 247.172 49.2862 246.433 49.2862ZM247.301 46.8303C247.972 46.8303 248.554 46.6979 249.046 46.4332C249.538 46.1624 249.917 45.8054 250.182 45.3622C250.452 44.919 250.588 44.4358 250.588 43.9126V42.2415C250.483 42.3277 250.305 42.4077 250.052 42.4815C249.806 42.5554 249.529 42.62 249.221 42.6754C248.914 42.7308 248.609 42.7801 248.307 42.8232C248.006 42.8662 247.744 42.9032 247.523 42.9339C247.024 43.0017 246.578 43.1125 246.184 43.2663C245.79 43.4202 245.479 43.6357 245.251 43.9126C245.023 44.1835 244.91 44.5343 244.91 44.9652C244.91 45.5807 245.134 46.0455 245.584 46.3594C246.033 46.6733 246.605 46.8303 247.301 46.8303ZM268.491 38.5668L265.444 38.8991C265.358 38.5914 265.207 38.3021 264.991 38.0312C264.782 37.7604 264.499 37.5419 264.142 37.3757C263.785 37.2095 263.348 37.1264 262.831 37.1264C262.135 37.1264 261.55 37.2772 261.077 37.5788C260.609 37.8804 260.378 38.2713 260.384 38.7514C260.378 39.1638 260.529 39.4993 260.836 39.7578C261.15 40.0163 261.667 40.2287 262.388 40.3949L264.807 40.9119C266.148 41.2012 267.146 41.6598 267.798 42.2876C268.457 42.9155 268.789 43.7372 268.795 44.7528C268.789 45.6454 268.528 46.4332 268.01 47.1165C267.5 47.7936 266.789 48.3229 265.878 48.7045C264.967 49.0862 263.92 49.277 262.738 49.277C261.003 49.277 259.605 48.9138 258.547 48.1875C257.488 47.455 256.857 46.4363 256.654 45.1314L259.913 44.8175C260.061 45.4576 260.375 45.9408 260.855 46.267C261.335 46.5933 261.96 46.7564 262.729 46.7564C263.523 46.7564 264.16 46.5933 264.64 46.267C265.127 45.9408 265.37 45.5376 265.37 45.0575C265.37 44.6513 265.213 44.3158 264.899 44.0511C264.591 43.7865 264.111 43.5833 263.459 43.4418L261.04 42.9339C259.679 42.6508 258.673 42.1738 258.02 41.5028C257.368 40.8258 257.045 39.9702 257.051 38.9361C257.045 38.062 257.282 37.3049 257.762 36.6648C258.248 36.0185 258.922 35.5199 259.784 35.169C260.652 34.812 261.652 34.6335 262.785 34.6335C264.447 34.6335 265.755 34.9875 266.709 35.6953C267.669 36.4032 268.263 37.3603 268.491 38.5668ZM85.8651 80V61.0909H92.956C94.4086 61.0909 95.6274 61.3617 96.6122 61.9034C97.6032 62.4451 98.3511 63.1899 98.8558 64.1378C99.3667 65.0795 99.6222 66.1506 99.6222 67.3509C99.6222 68.5634 99.3667 69.6406 98.8558 70.5824C98.3449 71.5241 97.5909 72.2659 96.5938 72.8075C95.5966 73.343 94.3686 73.6108 92.9098 73.6108H88.2102V70.7947H92.4482C93.2976 70.7947 93.9931 70.647 94.5348 70.3516C95.0765 70.0561 95.4766 69.6499 95.7351 69.1328C95.9998 68.6158 96.1321 68.0218 96.1321 67.3509C96.1321 66.6799 95.9998 66.089 95.7351 65.5781C95.4766 65.0672 95.0734 64.6702 94.5256 64.3871C93.9839 64.0978 93.2853 63.9531 92.4297 63.9531H89.2905V80H85.8651ZM106.277 80.2862C105.378 80.2862 104.569 80.1262 103.849 79.8061C103.135 79.4799 102.568 78.9998 102.15 78.3658C101.737 77.7318 101.531 76.95 101.531 76.0206C101.531 75.2204 101.679 74.5587 101.974 74.0355C102.27 73.5123 102.673 73.0938 103.184 72.7798C103.695 72.4659 104.27 72.2289 104.91 72.0689C105.557 71.9027 106.224 71.7827 106.914 71.7088C107.745 71.6226 108.419 71.5457 108.936 71.478C109.453 71.4041 109.828 71.2933 110.062 71.1456C110.302 70.9917 110.422 70.7547 110.422 70.4347V70.3793C110.422 69.6837 110.216 69.1451 109.804 68.7635C109.391 68.3819 108.797 68.1911 108.022 68.1911C107.203 68.1911 106.554 68.3696 106.074 68.7266C105.6 69.0836 105.28 69.5052 105.113 69.9915L101.993 69.5483C102.239 68.6866 102.645 67.9664 103.211 67.3878C103.778 66.803 104.47 66.366 105.289 66.0767C106.108 65.7812 107.012 65.6335 108.003 65.6335C108.687 65.6335 109.367 65.7135 110.044 65.8736C110.721 66.0336 111.34 66.2983 111.9 66.6676C112.46 67.0308 112.909 67.5263 113.248 68.1541C113.592 68.782 113.765 69.5668 113.765 70.5085V80H110.552V78.0518H110.441C110.238 78.4458 109.952 78.8151 109.582 79.1598C109.219 79.4983 108.76 79.7723 108.206 79.9815C107.659 80.1847 107.015 80.2862 106.277 80.2862ZM107.145 77.8303C107.816 77.8303 108.397 77.6979 108.89 77.4332C109.382 77.1624 109.761 76.8054 110.025 76.3622C110.296 75.919 110.432 75.4358 110.432 74.9126V73.2415C110.327 73.3277 110.148 73.4077 109.896 73.4815C109.65 73.5554 109.373 73.62 109.065 73.6754C108.757 73.7308 108.453 73.7801 108.151 73.8232C107.849 73.8662 107.588 73.9032 107.366 73.9339C106.868 74.0017 106.421 74.1125 106.028 74.2663C105.634 74.4202 105.323 74.6357 105.095 74.9126C104.867 75.1835 104.753 75.5343 104.753 75.9652C104.753 76.5807 104.978 77.0455 105.427 77.3594C105.877 77.6733 106.449 77.8303 107.145 77.8303ZM120.468 71.6903V80H117.126V65.8182H120.32V68.228H120.486C120.813 67.4339 121.333 66.803 122.047 66.3352C122.767 65.8674 123.656 65.6335 124.715 65.6335C125.694 65.6335 126.546 65.8428 127.273 66.2614C128.005 66.6799 128.571 67.2862 128.971 68.0803C129.378 68.8743 129.578 69.8376 129.572 70.9702V80H126.229V71.4872C126.229 70.5393 125.983 69.7976 125.491 69.2621C125.004 68.7266 124.33 68.4588 123.469 68.4588C122.884 68.4588 122.364 68.5881 121.908 68.8466C121.459 69.099 121.105 69.4652 120.846 69.9453C120.594 70.4254 120.468 71.0071 120.468 71.6903ZM137.05 80.2862C136.152 80.2862 135.342 80.1262 134.622 79.8061C133.908 79.4799 133.342 78.9998 132.923 78.3658C132.511 77.7318 132.305 76.95 132.305 76.0206C132.305 75.2204 132.452 74.5587 132.748 74.0355C133.043 73.5123 133.446 73.0938 133.957 72.7798C134.468 72.4659 135.044 72.2289 135.684 72.0689C136.33 71.9027 136.998 71.7827 137.687 71.7088C138.518 71.6226 139.192 71.5457 139.709 71.478C140.226 71.4041 140.602 71.2933 140.836 71.1456C141.076 70.9917 141.196 70.7547 141.196 70.4347V70.3793C141.196 69.6837 140.99 69.1451 140.577 68.7635C140.165 68.3819 139.571 68.1911 138.795 68.1911C137.977 68.1911 137.327 68.3696 136.847 68.7266C136.373 69.0836 136.053 69.5052 135.887 69.9915L132.766 69.5483C133.012 68.6866 133.419 67.9664 133.985 67.3878C134.551 66.803 135.244 66.366 136.062 66.0767C136.881 65.7812 137.786 65.6335 138.777 65.6335C139.46 65.6335 140.14 65.7135 140.817 65.8736C141.494 66.0336 142.113 66.2983 142.673 66.6676C143.233 67.0308 143.683 67.5263 144.021 68.1541C144.366 68.782 144.538 69.5668 144.538 70.5085V80H141.325V78.0518H141.214C141.011 78.4458 140.725 78.8151 140.356 79.1598C139.992 79.4983 139.534 79.7723 138.98 79.9815C138.432 80.1847 137.789 80.2862 137.05 80.2862ZM137.918 77.8303C138.589 77.8303 139.171 77.6979 139.663 77.4332C140.156 77.1624 140.534 76.8054 140.799 76.3622C141.07 75.919 141.205 75.4358 141.205 74.9126V73.2415C141.1 73.3277 140.922 73.4077 140.67 73.4815C140.423 73.5554 140.146 73.62 139.839 73.6754C139.531 73.7308 139.226 73.7801 138.925 73.8232C138.623 73.8662 138.361 73.9032 138.14 73.9339C137.641 74.0017 137.195 74.1125 136.801 74.2663C136.407 74.4202 136.096 74.6357 135.868 74.9126C135.641 75.1835 135.527 75.5343 135.527 75.9652C135.527 76.5807 135.751 77.0455 136.201 77.3594C136.65 77.6733 137.223 77.8303 137.918 77.8303ZM147.899 80V65.8182H151.094V68.228H151.26C151.555 67.4155 152.045 66.7815 152.728 66.326C153.411 65.8643 154.227 65.6335 155.175 65.6335C156.135 65.6335 156.944 65.8674 157.603 66.3352C158.268 66.7969 158.735 67.4278 159.006 68.228H159.154C159.468 67.4401 159.997 66.8123 160.742 66.3445C161.493 65.8705 162.382 65.6335 163.41 65.6335C164.715 65.6335 165.78 66.0459 166.605 66.8707C167.43 67.6955 167.842 68.8989 167.842 70.4808V80H164.491V70.9979C164.491 70.1177 164.257 69.4744 163.789 69.0682C163.321 68.6558 162.749 68.4496 162.072 68.4496C161.265 68.4496 160.634 68.7019 160.179 69.2067C159.729 69.7053 159.505 70.3546 159.505 71.1548V80H156.227V70.8594C156.227 70.1269 156.006 69.5421 155.562 69.1051C155.125 68.6681 154.553 68.4496 153.845 68.4496C153.365 68.4496 152.928 68.5727 152.534 68.8189C152.14 69.0589 151.826 69.4006 151.592 69.8438C151.358 70.2808 151.241 70.7917 151.241 71.3764V80H147.899ZM177.511 80.277C176.089 80.277 174.862 79.9815 173.827 79.3906C172.799 78.7936 172.009 77.9503 171.455 76.8608C170.901 75.7652 170.624 74.4756 170.624 72.9922C170.624 71.5334 170.901 70.2531 171.455 69.1513C172.015 68.0433 172.796 67.1816 173.8 66.5661C174.803 65.9444 175.982 65.6335 177.336 65.6335C178.21 65.6335 179.035 65.7751 179.81 66.0582C180.592 66.3352 181.281 66.7661 181.879 67.3509C182.482 67.9356 182.956 68.6804 183.3 69.5852C183.645 70.4839 183.817 71.5549 183.817 72.7983V73.8232H172.193V71.5703H180.614C180.607 70.9302 180.469 70.3608 180.198 69.8622C179.927 69.3575 179.549 68.9605 179.062 68.6712C178.582 68.3819 178.022 68.2372 177.382 68.2372C176.699 68.2372 176.099 68.4034 175.582 68.7358C175.065 69.062 174.661 69.4929 174.372 70.0284C174.089 70.5578 173.944 71.1394 173.938 71.7734V73.7401C173.938 74.5649 174.089 75.2727 174.391 75.8636C174.692 76.4484 175.114 76.8977 175.656 77.2116C176.197 77.5194 176.831 77.6733 177.558 77.6733C178.044 77.6733 178.484 77.6056 178.878 77.4702C179.272 77.3286 179.613 77.1224 179.903 76.8516C180.192 76.5807 180.411 76.2453 180.558 75.8452L183.679 76.196C183.482 77.0208 183.107 77.741 182.553 78.3565C182.005 78.9659 181.303 79.4399 180.447 79.7784C179.592 80.1108 178.613 80.277 177.511 80.277ZM186.645 80V65.8182H189.886V68.1818H190.034C190.292 67.3632 190.735 66.7322 191.363 66.2891C191.997 65.8397 192.72 65.6151 193.533 65.6151C193.718 65.6151 193.924 65.6243 194.151 65.6428C194.385 65.6551 194.579 65.6766 194.733 65.7074V68.782C194.592 68.7327 194.367 68.6896 194.059 68.6527C193.758 68.6096 193.465 68.5881 193.182 68.5881C192.573 68.5881 192.025 68.7204 191.539 68.9851C191.058 69.2436 190.68 69.6037 190.403 70.0653C190.126 70.527 189.987 71.0594 189.987 71.6626V80H186.645ZM197.388 80.2031C196.827 80.2031 196.347 80.0062 195.947 79.6122C195.547 79.2183 195.35 78.7382 195.356 78.1719C195.35 77.6179 195.547 77.1439 195.947 76.75C196.347 76.3561 196.827 76.1591 197.388 76.1591C197.929 76.1591 198.4 76.3561 198.8 76.75C199.206 77.1439 199.413 77.6179 199.419 78.1719C199.413 78.5473 199.314 78.889 199.123 79.1967C198.939 79.5045 198.693 79.7507 198.385 79.9354C198.083 80.1139 197.751 80.2031 197.388 80.2031ZM219.944 69.5668L216.897 69.8991C216.811 69.5914 216.66 69.3021 216.444 69.0312C216.235 68.7604 215.952 68.5419 215.595 68.3757C215.238 68.2095 214.801 68.1264 214.284 68.1264C213.588 68.1264 213.004 68.2772 212.53 68.5788C212.062 68.8804 211.831 69.2713 211.837 69.7514C211.831 70.1638 211.982 70.4993 212.29 70.7578C212.604 71.0163 213.121 71.2287 213.841 71.3949L216.26 71.9119C217.602 72.2012 218.599 72.6598 219.251 73.2876C219.91 73.9155 220.242 74.7372 220.248 75.7528C220.242 76.6454 219.981 77.4332 219.464 78.1165C218.953 78.7936 218.242 79.3229 217.331 79.7045C216.42 80.0862 215.373 80.277 214.192 80.277C212.456 80.277 211.059 79.9138 210 79.1875C208.941 78.455 208.31 77.4363 208.107 76.1314L211.366 75.8175C211.514 76.4576 211.828 76.9408 212.308 77.267C212.788 77.5933 213.413 77.7564 214.182 77.7564C214.976 77.7564 215.613 77.5933 216.094 77.267C216.58 76.9408 216.823 76.5376 216.823 76.0575C216.823 75.6513 216.666 75.3158 216.352 75.0511C216.044 74.7865 215.564 74.5833 214.912 74.4418L212.493 73.9339C211.132 73.6508 210.126 73.1738 209.474 72.5028C208.821 71.8258 208.498 70.9702 208.504 69.9361C208.498 69.062 208.735 68.3049 209.215 67.6648C209.701 67.0185 210.375 66.5199 211.237 66.169C212.105 65.812 213.105 65.6335 214.238 65.6335C215.9 65.6335 217.208 65.9875 218.162 66.6953C219.122 67.4032 219.716 68.3603 219.944 69.5668ZM227.085 80.2862C226.187 80.2862 225.377 80.1262 224.657 79.8061C223.943 79.4799 223.377 78.9998 222.958 78.3658C222.546 77.7318 222.34 76.95 222.34 76.0206C222.34 75.2204 222.487 74.5587 222.783 74.0355C223.078 73.5123 223.481 73.0938 223.992 72.7798C224.503 72.4659 225.079 72.2289 225.719 72.0689C226.365 71.9027 227.033 71.7827 227.722 71.7088C228.553 71.6226 229.227 71.5457 229.744 71.478C230.262 71.4041 230.637 71.2933 230.871 71.1456C231.111 70.9917 231.231 70.7547 231.231 70.4347V70.3793C231.231 69.6837 231.025 69.1451 230.612 68.7635C230.2 68.3819 229.606 68.1911 228.83 68.1911C228.012 68.1911 227.362 68.3696 226.882 68.7266C226.408 69.0836 226.088 69.5052 225.922 69.9915L222.801 69.5483C223.048 68.6866 223.454 67.9664 224.02 67.3878C224.586 66.803 225.279 66.366 226.097 66.0767C226.916 65.7812 227.821 65.6335 228.812 65.6335C229.495 65.6335 230.175 65.7135 230.852 65.8736C231.53 66.0336 232.148 66.2983 232.708 66.6676C233.268 67.0308 233.718 67.5263 234.056 68.1541C234.401 68.782 234.573 69.5668 234.573 70.5085V80H231.36V78.0518H231.249C231.046 78.4458 230.76 78.8151 230.391 79.1598C230.028 79.4983 229.569 79.7723 229.015 79.9815C228.467 80.1847 227.824 80.2862 227.085 80.2862ZM227.953 77.8303C228.624 77.8303 229.206 77.6979 229.698 77.4332C230.191 77.1624 230.569 76.8054 230.834 76.3622C231.105 75.919 231.24 75.4358 231.24 74.9126V73.2415C231.136 73.3277 230.957 73.4077 230.705 73.4815C230.459 73.5554 230.182 73.62 229.874 73.6754C229.566 73.7308 229.261 73.7801 228.96 73.8232C228.658 73.8662 228.396 73.9032 228.175 73.9339C227.676 74.0017 227.23 74.1125 226.836 74.2663C226.442 74.4202 226.131 74.6357 225.904 74.9126C225.676 75.1835 225.562 75.5343 225.562 75.9652C225.562 76.5807 225.787 77.0455 226.236 77.3594C226.685 77.6733 227.258 77.8303 227.953 77.8303ZM241.276 61.0909V80H237.934V61.0909H241.276ZM244.713 80V65.8182H248.056V80H244.713ZM246.394 63.8054C245.864 63.8054 245.409 63.63 245.027 63.2791C244.646 62.9221 244.455 62.4943 244.455 61.9957C244.455 61.491 244.646 61.0632 245.027 60.7124C245.409 60.3553 245.864 60.1768 246.394 60.1768C246.929 60.1768 247.385 60.3553 247.76 60.7124C248.142 61.0632 248.333 61.491 248.333 61.9957C248.333 62.4943 248.142 62.9221 247.76 63.2791C247.385 63.63 246.929 63.8054 246.394 63.8054ZM256.756 80.2493C255.641 80.2493 254.644 79.9631 253.764 79.3906C252.884 78.8182 252.188 77.9872 251.677 76.8977C251.166 75.8082 250.911 74.4848 250.911 72.9276C250.911 71.3518 251.17 70.0223 251.687 68.9389C252.21 67.8494 252.915 67.0277 253.801 66.4737C254.687 65.9136 255.675 65.6335 256.765 65.6335C257.596 65.6335 258.279 65.7751 258.814 66.0582C259.35 66.3352 259.775 66.6707 260.089 67.0646C260.403 67.4524 260.646 67.8187 260.818 68.1634H260.956V61.0909H264.308V80H261.021V77.7656H260.818C260.646 78.1103 260.396 78.4766 260.07 78.8643C259.744 79.246 259.313 79.5722 258.778 79.843C258.242 80.1139 257.568 80.2493 256.756 80.2493ZM257.688 77.5071C258.396 77.5071 258.999 77.3163 259.498 76.9347C259.996 76.5469 260.375 76.0083 260.633 75.3189C260.892 74.6295 261.021 73.8262 261.021 72.9091C261.021 71.992 260.892 71.1948 260.633 70.5178C260.381 69.8407 260.006 69.3144 259.507 68.9389C259.015 68.5634 258.408 68.3757 257.688 68.3757C256.943 68.3757 256.322 68.5696 255.823 68.9574C255.324 69.3452 254.949 69.8807 254.697 70.5639C254.444 71.2472 254.318 72.0289 254.318 72.9091C254.318 73.7955 254.444 74.5864 254.697 75.282C254.955 75.9714 255.334 76.5161 255.832 76.9162C256.337 77.3101 256.956 77.5071 257.688 77.5071ZM271.951 80.2862C271.052 80.2862 270.243 80.1262 269.522 79.8061C268.808 79.4799 268.242 78.9998 267.824 78.3658C267.411 77.7318 267.205 76.95 267.205 76.0206C267.205 75.2204 267.353 74.5587 267.648 74.0355C267.944 73.5123 268.347 73.0938 268.858 72.7798C269.368 72.4659 269.944 72.2289 270.584 72.0689C271.23 71.9027 271.898 71.7827 272.588 71.7088C273.419 71.6226 274.093 71.5457 274.61 71.478C275.127 71.4041 275.502 71.2933 275.736 71.1456C275.976 70.9917 276.096 70.7547 276.096 70.4347V70.3793C276.096 69.6837 275.89 69.1451 275.478 68.7635C275.065 68.3819 274.471 68.1911 273.696 68.1911C272.877 68.1911 272.228 68.3696 271.748 68.7266C271.274 69.0836 270.953 69.5052 270.787 69.9915L267.667 69.5483C267.913 68.6866 268.319 67.9664 268.885 67.3878C269.452 66.803 270.144 66.366 270.963 66.0767C271.781 65.7812 272.686 65.6335 273.677 65.6335C274.36 65.6335 275.041 65.7135 275.718 65.8736C276.395 66.0336 277.013 66.2983 277.574 66.6676C278.134 67.0308 278.583 67.5263 278.922 68.1541C279.266 68.782 279.439 69.5668 279.439 70.5085V80H276.225V78.0518H276.115C275.912 78.4458 275.625 78.8151 275.256 79.1598C274.893 79.4983 274.434 79.7723 273.88 79.9815C273.333 80.1847 272.689 80.2862 271.951 80.2862ZM272.819 77.8303C273.489 77.8303 274.071 77.6979 274.564 77.4332C275.056 77.1624 275.435 76.8054 275.699 76.3622C275.97 75.919 276.105 75.4358 276.105 74.9126V73.2415C276.001 73.3277 275.822 73.4077 275.57 73.4815C275.324 73.5554 275.047 73.62 274.739 73.6754C274.431 73.7308 274.127 73.7801 273.825 73.8232C273.523 73.8662 273.262 73.9032 273.04 73.9339C272.542 74.0017 272.095 74.1125 271.701 74.2663C271.307 74.4202 270.997 74.6357 270.769 74.9126C270.541 75.1835 270.427 75.5343 270.427 75.9652C270.427 76.5807 270.652 77.0455 271.101 77.3594C271.551 77.6733 272.123 77.8303 272.819 77.8303ZM300.457 69.5668L297.411 69.8991C297.324 69.5914 297.174 69.3021 296.958 69.0312C296.749 68.7604 296.466 68.5419 296.109 68.3757C295.752 68.2095 295.315 68.1264 294.798 68.1264C294.102 68.1264 293.517 68.2772 293.043 68.5788C292.576 68.8804 292.345 69.2713 292.351 69.7514C292.345 70.1638 292.496 70.4993 292.803 70.7578C293.117 71.0163 293.634 71.2287 294.354 71.3949L296.773 71.9119C298.115 72.2012 299.112 72.6598 299.765 73.2876C300.424 73.9155 300.756 74.7372 300.762 75.7528C300.756 76.6454 300.494 77.4332 299.977 78.1165C299.466 78.7936 298.755 79.3229 297.844 79.7045C296.933 80.0862 295.887 80.277 294.705 80.277C292.969 80.277 291.572 79.9138 290.513 79.1875C289.455 78.455 288.824 77.4363 288.621 76.1314L291.88 75.8175C292.028 76.4576 292.342 76.9408 292.822 77.267C293.302 77.5933 293.927 77.7564 294.696 77.7564C295.49 77.7564 296.127 77.5933 296.607 77.267C297.094 76.9408 297.337 76.5376 297.337 76.0575C297.337 75.6513 297.18 75.3158 296.866 75.0511C296.558 74.7865 296.078 74.5833 295.425 74.4418L293.006 73.9339C291.646 73.6508 290.64 73.1738 289.987 72.5028C289.335 71.8258 289.012 70.9702 289.018 69.9361C289.012 69.062 289.249 68.3049 289.729 67.6648C290.215 67.0185 290.889 66.5199 291.751 66.169C292.619 65.812 293.619 65.6335 294.751 65.6335C296.413 65.6335 297.721 65.9875 298.675 66.6953C299.636 67.4032 300.23 68.3603 300.457 69.5668ZM312.557 74.0355V65.8182H315.9V80H312.659V77.4794H312.511C312.191 78.2734 311.665 78.9228 310.932 79.4276C310.206 79.9323 309.31 80.1847 308.245 80.1847C307.316 80.1847 306.494 79.9785 305.78 79.5661C305.072 79.1475 304.518 78.5412 304.118 77.7472C303.718 76.947 303.518 75.9806 303.518 74.848V65.8182H306.86V74.331C306.86 75.2296 307.107 75.9437 307.599 76.473C308.092 77.0024 308.738 77.267 309.538 77.267C310.03 77.267 310.507 77.147 310.969 76.907C311.431 76.6669 311.809 76.3099 312.105 75.8359C312.406 75.3558 312.557 74.7557 312.557 74.0355ZM319.336 80V65.8182H322.577V68.1818H322.725C322.983 67.3632 323.427 66.7322 324.055 66.2891C324.689 65.8397 325.412 65.6151 326.224 65.6151C326.409 65.6151 326.615 65.6243 326.843 65.6428C327.077 65.6551 327.271 65.6766 327.425 65.7074V68.782C327.283 68.7327 327.058 68.6896 326.751 68.6527C326.449 68.6096 326.157 68.5881 325.873 68.5881C325.264 68.5881 324.716 68.7204 324.23 68.9851C323.75 69.2436 323.371 69.6037 323.094 70.0653C322.817 70.527 322.679 71.0594 322.679 71.6626V80H319.336ZM331.944 77.4148L331.824 78.4304C331.738 79.206 331.584 79.9938 331.362 80.794C331.147 81.6004 330.919 82.3421 330.679 83.0192C330.439 83.6963 330.245 84.2287 330.097 84.6165H327.845C327.931 84.241 328.048 83.7301 328.195 83.0838C328.349 82.4375 328.497 81.7112 328.639 80.9048C328.78 80.0985 328.876 79.2798 328.925 78.4489L328.99 77.4148H331.944ZM89.7983 111.286C88.8996 111.286 88.0902 111.126 87.37 110.806C86.656 110.48 86.0897 110 85.6712 109.366C85.2588 108.732 85.0526 107.95 85.0526 107.021C85.0526 106.22 85.2003 105.559 85.4957 105.036C85.7912 104.512 86.1944 104.094 86.7053 103.78C87.2161 103.466 87.7917 103.229 88.4318 103.069C89.0781 102.903 89.746 102.783 90.4354 102.709C91.2663 102.623 91.9403 102.546 92.4574 102.478C92.9744 102.404 93.3499 102.293 93.5838 102.146C93.8239 101.992 93.9439 101.755 93.9439 101.435V101.379C93.9439 100.684 93.7377 100.145 93.3253 99.7635C92.9129 99.3819 92.3189 99.1911 91.5433 99.1911C90.7247 99.1911 90.0753 99.3696 89.5952 99.7266C89.1212 100.084 88.8011 100.505 88.6349 100.991L85.5142 100.548C85.7604 99.6866 86.1667 98.9664 86.733 98.3878C87.2992 97.803 87.9917 97.366 88.8104 97.0767C89.629 96.7812 90.5339 96.6335 91.5249 96.6335C92.2081 96.6335 92.8883 96.7135 93.5653 96.8736C94.2424 97.0336 94.861 97.2983 95.4212 97.6676C95.9813 98.0308 96.4306 98.5263 96.7692 99.1541C97.1139 99.782 97.2862 100.567 97.2862 101.509V111H94.0732V109.052H93.9624C93.7592 109.446 93.473 109.815 93.1037 110.16C92.7405 110.498 92.282 110.772 91.728 110.982C91.1802 111.185 90.5369 111.286 89.7983 111.286ZM90.6662 108.83C91.3371 108.83 91.9188 108.698 92.4112 108.433C92.9036 108.162 93.2822 107.805 93.5469 107.362C93.8177 106.919 93.9531 106.436 93.9531 105.913V104.241C93.8485 104.328 93.67 104.408 93.4176 104.482C93.1714 104.555 92.8944 104.62 92.5866 104.675C92.2789 104.731 91.9742 104.78 91.6726 104.823C91.371 104.866 91.1094 104.903 90.8878 104.934C90.3892 105.002 89.9429 105.112 89.549 105.266C89.1551 105.42 88.8442 105.636 88.6165 105.913C88.3887 106.183 88.2749 106.534 88.2749 106.965C88.2749 107.581 88.4995 108.045 88.9489 108.359C89.3982 108.673 89.9706 108.83 90.6662 108.83ZM114.75 92.0909V111H111.325V95.424H111.214L106.792 98.2493V95.1101L111.491 92.0909H114.75ZM126.185 111V92.0909H129.611V100.779H129.842L137.219 92.0909H141.401L134.089 100.576L141.466 111H137.348L131.707 102.893L129.611 105.368V111H126.185ZM143.781 92.0909H147.973L153.586 105.793H153.808L159.422 92.0909H163.613V111H160.327V98.0092H160.151L154.925 110.945H152.469L147.243 97.9815H147.068V111H143.781V92.0909ZM178.908 111.249C177.794 111.249 176.797 110.963 175.916 110.391C175.036 109.818 174.341 108.987 173.83 107.898C173.319 106.808 173.063 105.485 173.063 103.928C173.063 102.352 173.322 101.022 173.839 99.9389C174.362 98.8494 175.067 98.0277 175.953 97.4737C176.84 96.9136 177.828 96.6335 178.917 96.6335C179.748 96.6335 180.431 96.7751 180.967 97.0582C181.502 97.3352 181.927 97.6707 182.241 98.0646C182.555 98.4524 182.798 98.8187 182.97 99.1634H183.109V92.0909H186.46V111H183.173V108.766H182.97C182.798 109.11 182.549 109.477 182.222 109.864C181.896 110.246 181.465 110.572 180.93 110.843C180.394 111.114 179.72 111.249 178.908 111.249ZM179.84 108.507C180.548 108.507 181.151 108.316 181.65 107.935C182.149 107.547 182.527 107.008 182.786 106.319C183.044 105.629 183.173 104.826 183.173 103.909C183.173 102.992 183.044 102.195 182.786 101.518C182.533 100.841 182.158 100.314 181.659 99.9389C181.167 99.5634 180.561 99.3757 179.84 99.3757C179.096 99.3757 178.474 99.5696 177.975 99.9574C177.477 100.345 177.101 100.881 176.849 101.564C176.597 102.247 176.47 103.029 176.47 103.909C176.47 104.795 176.597 105.586 176.849 106.282C177.107 106.971 177.486 107.516 177.985 107.916C178.489 108.31 179.108 108.507 179.84 108.507ZM196.3 111.277C194.879 111.277 193.651 110.982 192.616 110.391C191.589 109.794 190.798 108.95 190.244 107.861C189.69 106.765 189.413 105.476 189.413 103.992C189.413 102.533 189.69 101.253 190.244 100.151C190.804 99.0433 191.585 98.1816 192.589 97.5661C193.592 96.9444 194.771 96.6335 196.125 96.6335C196.999 96.6335 197.824 96.7751 198.599 97.0582C199.381 97.3352 200.071 97.7661 200.668 98.3509C201.271 98.9356 201.745 99.6804 202.089 100.585C202.434 101.484 202.607 102.555 202.607 103.798V104.823H190.982V102.57H199.403C199.397 101.93 199.258 101.361 198.987 100.862C198.716 100.357 198.338 99.9605 197.852 99.6712C197.371 99.3819 196.811 99.2372 196.171 99.2372C195.488 99.2372 194.888 99.4034 194.371 99.7358C193.854 100.062 193.451 100.493 193.161 101.028C192.878 101.558 192.733 102.139 192.727 102.773V104.74C192.727 105.565 192.878 106.273 193.18 106.864C193.481 107.448 193.903 107.898 194.445 108.212C194.986 108.519 195.62 108.673 196.347 108.673C196.833 108.673 197.273 108.606 197.667 108.47C198.061 108.329 198.402 108.122 198.692 107.852C198.981 107.581 199.2 107.245 199.347 106.845L202.468 107.196C202.271 108.021 201.896 108.741 201.342 109.357C200.794 109.966 200.092 110.44 199.237 110.778C198.381 111.111 197.402 111.277 196.3 111.277ZM208.776 92.0909V111H205.434V92.0909H208.776ZM223.925 111.249C222.811 111.249 221.814 110.963 220.934 110.391C220.054 109.818 219.358 108.987 218.847 107.898C218.336 106.808 218.081 105.485 218.081 103.928C218.081 102.352 218.339 101.022 218.857 99.9389C219.38 98.8494 220.085 98.0277 220.971 97.4737C221.857 96.9136 222.845 96.6335 223.935 96.6335C224.766 96.6335 225.449 96.7751 225.984 97.0582C226.52 97.3352 226.945 97.6707 227.259 98.0646C227.572 98.4524 227.816 98.8187 227.988 99.1634H228.126V92.0909H231.478V111H228.191V108.766H227.988C227.816 109.11 227.566 109.477 227.24 109.864C226.914 110.246 226.483 110.572 225.947 110.843C225.412 111.114 224.738 111.249 223.925 111.249ZM224.858 108.507C225.566 108.507 226.169 108.316 226.668 107.935C227.166 107.547 227.545 107.008 227.803 106.319C228.062 105.629 228.191 104.826 228.191 103.909C228.191 102.992 228.062 102.195 227.803 101.518C227.551 100.841 227.175 100.314 226.677 99.9389C226.184 99.5634 225.578 99.3757 224.858 99.3757C224.113 99.3757 223.491 99.5696 222.993 99.9574C222.494 100.345 222.119 100.881 221.866 101.564C221.614 102.247 221.488 103.029 221.488 103.909C221.488 104.795 221.614 105.586 221.866 106.282C222.125 106.971 222.504 107.516 223.002 107.916C223.507 108.31 224.125 108.507 224.858 108.507ZM241.318 111.277C239.896 111.277 238.668 110.982 237.634 110.391C236.606 109.794 235.815 108.95 235.261 107.861C234.707 106.765 234.43 105.476 234.43 103.992C234.43 102.533 234.707 101.253 235.261 100.151C235.821 99.0433 236.603 98.1816 237.606 97.5661C238.61 96.9444 239.788 96.6335 241.143 96.6335C242.017 96.6335 242.841 96.7751 243.617 97.0582C244.399 97.3352 245.088 97.7661 245.685 98.3509C246.288 98.9356 246.762 99.6804 247.107 100.585C247.452 101.484 247.624 102.555 247.624 103.798V104.823H236V102.57H244.42C244.414 101.93 244.276 101.361 244.005 100.862C243.734 100.357 243.355 99.9605 242.869 99.6712C242.389 99.3819 241.829 99.2372 241.189 99.2372C240.506 99.2372 239.905 99.4034 239.388 99.7358C238.871 100.062 238.468 100.493 238.179 101.028C237.896 101.558 237.751 102.139 237.745 102.773V104.74C237.745 105.565 237.896 106.273 238.197 106.864C238.499 107.448 238.921 107.898 239.462 108.212C240.004 108.519 240.638 108.673 241.364 108.673C241.85 108.673 242.291 108.606 242.684 108.47C243.078 108.329 243.42 108.122 243.709 107.852C243.999 107.581 244.217 107.245 244.365 106.845L247.486 107.196C247.289 108.021 246.913 108.741 246.359 109.357C245.811 109.966 245.11 110.44 244.254 110.778C243.398 111.111 242.42 111.277 241.318 111.277ZM261.661 100.567L258.614 100.899C258.527 100.591 258.377 100.302 258.161 100.031C257.952 99.7604 257.669 99.5419 257.312 99.3757C256.955 99.2095 256.518 99.1264 256.001 99.1264C255.305 99.1264 254.72 99.2772 254.246 99.5788C253.779 99.8804 253.548 100.271 253.554 100.751C253.548 101.164 253.699 101.499 254.006 101.758C254.32 102.016 254.837 102.229 255.558 102.395L257.977 102.912C259.318 103.201 260.316 103.66 260.968 104.288C261.627 104.915 261.959 105.737 261.965 106.753C261.959 107.645 261.697 108.433 261.18 109.116C260.67 109.794 259.959 110.323 259.048 110.705C258.137 111.086 257.09 111.277 255.908 111.277C254.173 111.277 252.775 110.914 251.717 110.188C250.658 109.455 250.027 108.436 249.824 107.131L253.083 106.817C253.231 107.458 253.545 107.941 254.025 108.267C254.505 108.593 255.13 108.756 255.899 108.756C256.693 108.756 257.33 108.593 257.81 108.267C258.297 107.941 258.54 107.538 258.54 107.058C258.54 106.651 258.383 106.316 258.069 106.051C257.761 105.786 257.281 105.583 256.629 105.442L254.21 104.934C252.849 104.651 251.843 104.174 251.19 103.503C250.538 102.826 250.215 101.97 250.221 100.936C250.215 100.062 250.452 99.3049 250.932 98.6648C251.418 98.0185 252.092 97.5199 252.954 97.169C253.822 96.812 254.822 96.6335 255.955 96.6335C257.616 96.6335 258.924 96.9875 259.879 97.6953C260.839 98.4032 261.433 99.3603 261.661 100.567ZM277.389 96.8182L272.338 111H268.645L263.595 96.8182H267.159L270.418 107.353H270.566L273.834 96.8182H277.389ZM279.702 111V96.8182H283.044V111H279.702ZM280.099 94.9531L282.167 90.7337H285.435L282.601 94.9531H280.099ZM292.667 111.277C291.282 111.277 290.082 110.972 289.066 110.363C288.051 109.754 287.263 108.901 286.703 107.805C286.149 106.71 285.872 105.429 285.872 103.964C285.872 102.5 286.149 101.216 286.703 100.114C287.263 99.0125 288.051 98.157 289.066 97.5476C290.082 96.9382 291.282 96.6335 292.667 96.6335C294.052 96.6335 295.252 96.9382 296.268 97.5476C297.284 98.157 298.068 99.0125 298.622 100.114C299.182 101.216 299.463 102.5 299.463 103.964C299.463 105.429 299.182 106.71 298.622 107.805C298.068 108.901 297.284 109.754 296.268 110.363C295.252 110.972 294.052 111.277 292.667 111.277ZM292.686 108.599C293.436 108.599 294.064 108.393 294.569 107.981C295.074 107.562 295.449 107.002 295.695 106.3C295.948 105.599 296.074 104.817 296.074 103.955C296.074 103.087 295.948 102.303 295.695 101.601C295.449 100.893 295.074 100.33 294.569 99.9112C294.064 99.4927 293.436 99.2834 292.686 99.2834C291.916 99.2834 291.276 99.4927 290.765 99.9112C290.26 100.33 289.882 100.893 289.629 101.601C289.383 102.303 289.26 103.087 289.26 103.955C289.26 104.817 289.383 105.599 289.629 106.3C289.882 107.002 290.26 107.562 290.765 107.981C291.276 108.393 291.916 108.599 292.686 108.599ZM314.011 111.249C312.897 111.249 311.9 110.963 311.02 110.391C310.14 109.818 309.444 108.987 308.933 107.898C308.422 106.808 308.167 105.485 308.167 103.928C308.167 102.352 308.425 101.022 308.942 99.9389C309.466 98.8494 310.17 98.0277 311.057 97.4737C311.943 96.9136 312.931 96.6335 314.021 96.6335C314.852 96.6335 315.535 96.7751 316.07 97.0582C316.606 97.3352 317.031 97.6707 317.344 98.0646C317.658 98.4524 317.902 98.8187 318.074 99.1634H318.212V92.0909H321.564V111H318.277V108.766H318.074C317.902 109.11 317.652 109.477 317.326 109.864C317 110.246 316.569 110.572 316.033 110.843C315.498 111.114 314.824 111.249 314.011 111.249ZM314.944 108.507C315.652 108.507 316.255 108.316 316.754 107.935C317.252 107.547 317.631 107.008 317.889 106.319C318.148 105.629 318.277 104.826 318.277 103.909C318.277 102.992 318.148 102.195 317.889 101.518C317.637 100.841 317.261 100.314 316.763 99.9389C316.27 99.5634 315.664 99.3757 314.944 99.3757C314.199 99.3757 313.577 99.5696 313.079 99.9574C312.58 100.345 312.205 100.881 311.952 101.564C311.7 102.247 311.574 103.029 311.574 103.909C311.574 104.795 311.7 105.586 311.952 106.282C312.211 106.971 312.589 107.516 313.088 107.916C313.593 108.31 314.211 108.507 314.944 108.507ZM331.404 111.277C329.982 111.277 328.754 110.982 327.72 110.391C326.692 109.794 325.901 108.95 325.347 107.861C324.793 106.765 324.516 105.476 324.516 103.992C324.516 102.533 324.793 101.253 325.347 100.151C325.907 99.0433 326.689 98.1816 327.692 97.5661C328.696 96.9444 329.874 96.6335 331.229 96.6335C332.103 96.6335 332.927 96.7751 333.703 97.0582C334.485 97.3352 335.174 97.7661 335.771 98.3509C336.374 98.9356 336.848 99.6804 337.193 100.585C337.538 101.484 337.71 102.555 337.71 103.798V104.823H326.086V102.57H334.506C334.5 101.93 334.362 101.361 334.091 100.862C333.82 100.357 333.441 99.9605 332.955 99.6712C332.475 99.3819 331.915 99.2372 331.275 99.2372C330.591 99.2372 329.991 99.4034 329.474 99.7358C328.957 100.062 328.554 100.493 328.265 101.028C327.982 101.558 327.837 102.139 327.831 102.773V104.74C327.831 105.565 327.982 106.273 328.283 106.864C328.585 107.448 329.006 107.898 329.548 108.212C330.09 108.519 330.724 108.673 331.45 108.673C331.936 108.673 332.376 108.606 332.77 108.47C333.164 108.329 333.506 108.122 333.795 107.852C334.085 107.581 334.303 107.245 334.451 106.845L337.572 107.196C337.375 108.021 336.999 108.741 336.445 109.357C335.897 109.966 335.196 110.44 334.34 110.778C333.484 111.111 332.506 111.277 331.404 111.277ZM357.411 97.2891C357.325 96.4827 356.962 95.8549 356.321 95.4055C355.687 94.9562 354.863 94.7315 353.847 94.7315C353.133 94.7315 352.52 94.8393 352.01 95.0547C351.499 95.2701 351.108 95.5625 350.837 95.9318C350.566 96.3011 350.428 96.7228 350.422 97.1967C350.422 97.5907 350.511 97.9323 350.689 98.2216C350.874 98.5109 351.123 98.7571 351.437 98.9602C351.751 99.1572 352.099 99.3234 352.48 99.4588C352.862 99.5942 353.247 99.7081 353.635 99.8004L355.407 100.244C356.121 100.41 356.808 100.634 357.466 100.918C358.131 101.201 358.725 101.558 359.248 101.989C359.778 102.42 360.196 102.94 360.504 103.549C360.812 104.158 360.966 104.872 360.966 105.691C360.966 106.799 360.682 107.775 360.116 108.618C359.55 109.455 358.731 110.111 357.66 110.585C356.595 111.052 355.306 111.286 353.792 111.286C352.32 111.286 351.043 111.058 349.96 110.603C348.883 110.147 348.039 109.483 347.43 108.609C346.827 107.735 346.501 106.67 346.451 105.414H349.821C349.871 106.073 350.074 106.621 350.431 107.058C350.788 107.495 351.252 107.821 351.825 108.036C352.404 108.252 353.05 108.359 353.764 108.359C354.509 108.359 355.161 108.249 355.721 108.027C356.288 107.799 356.731 107.485 357.051 107.085C357.371 106.679 357.534 106.205 357.54 105.663C357.534 105.171 357.389 104.765 357.106 104.445C356.823 104.118 356.426 103.848 355.915 103.632C355.41 103.411 354.819 103.214 354.142 103.041L351.991 102.487C350.434 102.087 349.203 101.481 348.298 100.668C347.399 99.8497 346.95 98.7633 346.95 97.4091C346.95 96.295 347.252 95.3194 347.855 94.4822C348.464 93.6451 349.292 92.9957 350.338 92.5341C351.385 92.0663 352.57 91.8324 353.893 91.8324C355.235 91.8324 356.411 92.0663 357.42 92.5341C358.436 92.9957 359.233 93.639 359.811 94.4638C360.39 95.2824 360.689 96.2242 360.707 97.2891H357.411ZM367.953 111.286C367.054 111.286 366.244 111.126 365.524 110.806C364.81 110.48 364.244 110 363.825 109.366C363.413 108.732 363.207 107.95 363.207 107.021C363.207 106.22 363.355 105.559 363.65 105.036C363.945 104.512 364.349 104.094 364.86 103.78C365.37 103.466 365.946 103.229 366.586 103.069C367.232 102.903 367.9 102.783 368.59 102.709C369.421 102.623 370.095 102.546 370.612 102.478C371.129 102.404 371.504 102.293 371.738 102.146C371.978 101.992 372.098 101.755 372.098 101.435V101.379C372.098 100.684 371.892 100.145 371.48 99.7635C371.067 99.3819 370.473 99.1911 369.698 99.1911C368.879 99.1911 368.23 99.3696 367.749 99.7266C367.276 100.084 366.955 100.505 366.789 100.991L363.669 100.548C363.915 99.6866 364.321 98.9664 364.887 98.3878C365.454 97.803 366.146 97.366 366.965 97.0767C367.783 96.7812 368.688 96.6335 369.679 96.6335C370.362 96.6335 371.043 96.7135 371.72 96.8736C372.397 97.0336 373.015 97.2983 373.575 97.6676C374.136 98.0308 374.585 98.5263 374.923 99.1541C375.268 99.782 375.441 100.567 375.441 101.509V111H372.227V109.052H372.117C371.914 109.446 371.627 109.815 371.258 110.16C370.895 110.498 370.436 110.772 369.882 110.982C369.334 111.185 368.691 111.286 367.953 111.286ZM368.82 108.83C369.491 108.83 370.073 108.698 370.566 108.433C371.058 108.162 371.436 107.805 371.701 107.362C371.972 106.919 372.107 106.436 372.107 105.913V104.241C372.003 104.328 371.824 104.408 371.572 104.482C371.326 104.555 371.049 104.62 370.741 104.675C370.433 104.731 370.128 104.78 369.827 104.823C369.525 104.866 369.264 104.903 369.042 104.934C368.544 105.002 368.097 105.112 367.703 105.266C367.309 105.42 366.999 105.636 366.771 105.913C366.543 106.183 366.429 106.534 366.429 106.965C366.429 107.581 366.654 108.045 367.103 108.359C367.552 108.673 368.125 108.83 368.82 108.83ZM382.144 92.0909V111H378.801V92.0909H382.144ZM389.662 111.286C388.763 111.286 387.953 111.126 387.233 110.806C386.519 110.48 385.953 110 385.534 109.366C385.122 108.732 384.916 107.95 384.916 107.021C384.916 106.22 385.064 105.559 385.359 105.036C385.654 104.512 386.058 104.094 386.569 103.78C387.079 103.466 387.655 103.229 388.295 103.069C388.941 102.903 389.609 102.783 390.299 102.709C391.13 102.623 391.804 102.546 392.321 102.478C392.838 102.404 393.213 102.293 393.447 102.146C393.687 101.992 393.807 101.755 393.807 101.435V101.379C393.807 100.684 393.601 100.145 393.189 99.7635C392.776 99.3819 392.182 99.1911 391.407 99.1911C390.588 99.1911 389.939 99.3696 389.458 99.7266C388.984 100.084 388.664 100.505 388.498 100.991L385.377 100.548C385.624 99.6866 386.03 98.9664 386.596 98.3878C387.163 97.803 387.855 97.366 388.674 97.0767C389.492 96.7812 390.397 96.6335 391.388 96.6335C392.071 96.6335 392.752 96.7135 393.429 96.8736C394.106 97.0336 394.724 97.2983 395.284 97.6676C395.845 98.0308 396.294 98.5263 396.632 99.1541C396.977 99.782 397.15 100.567 397.15 101.509V111H393.936V109.052H393.826C393.623 109.446 393.336 109.815 392.967 110.16C392.604 110.498 392.145 110.772 391.591 110.982C391.043 111.185 390.4 111.286 389.662 111.286ZM390.529 108.83C391.2 108.83 391.782 108.698 392.275 108.433C392.767 108.162 393.145 107.805 393.41 107.362C393.681 106.919 393.816 106.436 393.816 105.913V104.241C393.712 104.328 393.533 104.408 393.281 104.482C393.035 104.555 392.758 104.62 392.45 104.675C392.142 104.731 391.837 104.78 391.536 104.823C391.234 104.866 390.973 104.903 390.751 104.934C390.252 105.002 389.806 105.112 389.412 105.266C389.018 105.42 388.708 105.636 388.48 105.913C388.252 106.183 388.138 106.534 388.138 106.965C388.138 107.581 388.363 108.045 388.812 108.359C389.261 108.673 389.834 108.83 390.529 108.83ZM412.67 96.8182L407.62 111H403.926L398.876 96.8182H402.44L405.699 107.353H405.847L409.115 96.8182H412.67ZM420.779 111.277C419.357 111.277 418.129 110.982 417.095 110.391C416.067 109.794 415.276 108.95 414.722 107.861C414.168 106.765 413.891 105.476 413.891 103.992C413.891 102.533 414.168 101.253 414.722 100.151C415.282 99.0433 416.064 98.1816 417.067 97.5661C418.071 96.9444 419.249 96.6335 420.604 96.6335C421.478 96.6335 422.302 96.7751 423.078 97.0582C423.86 97.3352 424.549 97.7661 425.146 98.3509C425.749 98.9356 426.223 99.6804 426.568 100.585C426.913 101.484 427.085 102.555 427.085 103.798V104.823H415.461V102.57H423.881C423.875 101.93 423.737 101.361 423.466 100.862C423.195 100.357 422.816 99.9605 422.33 99.6712C421.85 99.3819 421.29 99.2372 420.65 99.2372C419.966 99.2372 419.366 99.4034 418.849 99.7358C418.332 100.062 417.929 100.493 417.64 101.028C417.357 101.558 417.212 102.139 417.206 102.773V104.74C417.206 105.565 417.357 106.273 417.658 106.864C417.96 107.448 418.381 107.898 418.923 108.212C419.465 108.519 420.099 108.673 420.825 108.673C421.311 108.673 421.751 108.606 422.145 108.47C422.539 108.329 422.881 108.122 423.17 107.852C423.46 107.581 423.678 107.245 423.826 106.845L426.947 107.196C426.75 108.021 426.374 108.741 425.82 109.357C425.272 109.966 424.571 110.44 423.715 110.778C422.859 111.111 421.881 111.277 420.779 111.277ZM429.913 111V96.8182H433.153V99.1818H433.301C433.56 98.3632 434.003 97.7322 434.631 97.2891C435.265 96.8397 435.988 96.6151 436.8 96.6151C436.985 96.6151 437.191 96.6243 437.419 96.6428C437.653 96.6551 437.847 96.6766 438.001 96.7074V99.782C437.859 99.7327 437.634 99.6896 437.327 99.6527C437.025 99.6096 436.733 99.5881 436.45 99.5881C435.84 99.5881 435.292 99.7204 434.806 99.9851C434.326 100.244 433.947 100.604 433.67 101.065C433.393 101.527 433.255 102.059 433.255 102.663V111H429.913ZM440.221 111V96.8182H443.462V99.1818H443.61C443.868 98.3632 444.311 97.7322 444.939 97.2891C445.573 96.8397 446.297 96.6151 447.109 96.6151C447.294 96.6151 447.5 96.6243 447.728 96.6428C447.962 96.6551 448.155 96.6766 448.309 96.7074V99.782C448.168 99.7327 447.943 99.6896 447.635 99.6527C447.334 99.6096 447.041 99.5881 446.758 99.5881C446.149 99.5881 445.601 99.7204 445.115 99.9851C444.635 100.244 444.256 100.604 443.979 101.065C443.702 101.527 443.564 102.059 443.564 102.663V111H440.221ZM453.039 116.318C452.583 116.318 452.162 116.281 451.774 116.207C451.392 116.14 451.088 116.06 450.86 115.967L451.635 113.364C452.122 113.505 452.556 113.573 452.937 113.567C453.319 113.561 453.654 113.441 453.944 113.207C454.239 112.979 454.488 112.597 454.692 112.062L454.978 111.295L449.835 96.8182H453.381L456.649 107.528H456.797L460.074 96.8182H463.629L457.951 112.717C457.686 113.468 457.335 114.112 456.898 114.647C456.461 115.189 455.926 115.601 455.292 115.884C454.664 116.174 453.913 116.318 453.039 116.318Z" fill="white"/>
</svg>
