<svg width="497" height="169" viewBox="0 0 497 169" fill="none" xmlns="http://www.w3.org/2000/svg">
<rect x="207" width="290" height="92" rx="18" fill="#006DB7"/>
<path d="M151 122L262.5 86.026L230.5 62L151 122Z" fill="#006DB7"/>
<rect x="219" y="24" width="44" height="44" rx="22" fill="#FDD663"/>
<g clip-path="url(#clip0_210_3959)">
<path d="M251 43.9992V40.4192C251 40.1853 250.987 39.9516 250.96 39.7192C250.826 38.4959 250.316 37.3445 249.499 36.4243C248.682 35.5041 247.599 34.8607 246.4 34.5832C242.842 33.8082 239.158 33.8082 235.6 34.5832C234.401 34.8608 233.318 35.5043 232.501 36.4244C231.684 37.3446 231.174 38.496 231.04 39.7192C231.013 39.9516 231 40.1853 231 40.4192V43.9992C230.47 43.9992 229.961 44.2099 229.586 44.585C229.211 44.9601 229 45.4688 229 45.9992V46.9992C229 47.5296 229.211 48.0384 229.586 48.4134C229.961 48.7885 230.47 48.9992 231 48.9992V50.9992C231 51.7755 231.18 52.5412 231.527 53.2356C231.874 53.93 232.379 54.5338 233 54.9992V55.4992C232.999 56.1192 233.229 56.7173 233.645 57.1774C234.06 57.6375 234.632 57.9268 235.249 57.9891C235.866 58.0514 236.484 57.8823 236.983 57.5146C237.482 57.1469 237.827 56.6068 237.95 55.9992H244.05C244.173 56.6068 244.518 57.1469 245.017 57.5146C245.516 57.8823 246.134 58.0514 246.751 57.9891C247.368 57.9268 247.94 57.6375 248.355 57.1774C248.771 56.7173 249.001 56.1192 249 55.4992V54.9992C249.621 54.5338 250.126 53.93 250.473 53.2356C250.82 52.5412 251 51.7755 251 50.9992V48.9992C251.53 48.9992 252.039 48.7885 252.414 48.4134C252.789 48.0384 253 47.5296 253 46.9992V45.9992C253 45.4688 252.789 44.9601 252.414 44.585C252.039 44.2099 251.53 43.9992 251 43.9992ZM233 46.9992V40.9992H249V46.9992H233ZM236.052 36.5312C239.314 35.8216 242.69 35.8216 245.952 36.5312C246.586 36.6789 247.173 36.9817 247.661 37.4125C248.148 37.8433 248.521 38.3886 248.746 38.9992H245C245 38.734 244.895 38.4796 244.707 38.2921C244.52 38.1046 244.265 37.9992 244 37.9992H238C237.735 37.9992 237.48 38.1046 237.293 38.2921C237.105 38.4796 237 38.734 237 38.9992H233.254C233.479 38.3881 233.853 37.8425 234.341 37.4117C234.83 36.9809 235.418 36.6783 236.052 36.5312ZM246 53.9992H236C235.204 53.9992 234.441 53.6831 233.879 53.1205C233.316 52.5579 233 51.7949 233 50.9992V48.9992H235V49.9992C235 50.2644 235.105 50.5188 235.293 50.7063C235.48 50.8939 235.735 50.9992 236 50.9992C236.265 50.9992 236.52 50.8939 236.707 50.7063C236.895 50.5188 237 50.2644 237 49.9992V48.9992H245V49.9992C245 50.2644 245.105 50.5188 245.293 50.7063C245.48 50.8939 245.735 50.9992 246 50.9992C246.265 50.9992 246.52 50.8939 246.707 50.7063C246.895 50.5188 247 50.2644 247 49.9992V48.9992H249V50.9992C249 51.7949 248.684 52.5579 248.121 53.1205C247.559 53.6831 246.796 53.9992 246 53.9992Z" fill="#FDD663"/>
<path d="M251 43.9992V40.4192C251 40.1853 250.987 39.9516 250.96 39.7192C250.826 38.4959 250.316 37.3445 249.499 36.4243C248.682 35.5041 247.599 34.8607 246.4 34.5832C242.842 33.8082 239.158 33.8082 235.6 34.5832C234.401 34.8608 233.318 35.5043 232.501 36.4244C231.684 37.3446 231.174 38.496 231.04 39.7192C231.013 39.9516 231 40.1853 231 40.4192V43.9992C230.47 43.9992 229.961 44.2099 229.586 44.585C229.211 44.9601 229 45.4688 229 45.9992V46.9992C229 47.5296 229.211 48.0384 229.586 48.4134C229.961 48.7885 230.47 48.9992 231 48.9992V50.9992C231 51.7755 231.18 52.5412 231.527 53.2356C231.874 53.93 232.379 54.5338 233 54.9992V55.4992C232.999 56.1192 233.229 56.7173 233.645 57.1774C234.06 57.6375 234.632 57.9268 235.249 57.9891C235.866 58.0514 236.484 57.8823 236.983 57.5146C237.482 57.1469 237.827 56.6068 237.95 55.9992H244.05C244.173 56.6068 244.518 57.1469 245.017 57.5146C245.516 57.8823 246.134 58.0514 246.751 57.9891C247.368 57.9268 247.94 57.6375 248.355 57.1774C248.771 56.7173 249.001 56.1192 249 55.4992V54.9992C249.621 54.5338 250.126 53.93 250.473 53.2356C250.82 52.5412 251 51.7755 251 50.9992V48.9992C251.53 48.9992 252.039 48.7885 252.414 48.4134C252.789 48.0384 253 47.5296 253 46.9992V45.9992C253 45.4688 252.789 44.9601 252.414 44.585C252.039 44.2099 251.53 43.9992 251 43.9992ZM233 46.9992V40.9992H249V46.9992H233ZM236.052 36.5312C239.314 35.8216 242.69 35.8216 245.952 36.5312C246.586 36.6789 247.173 36.9817 247.661 37.4125C248.148 37.8433 248.521 38.3886 248.746 38.9992H245C245 38.734 244.895 38.4796 244.707 38.2921C244.52 38.1046 244.265 37.9992 244 37.9992H238C237.735 37.9992 237.48 38.1046 237.293 38.2921C237.105 38.4796 237 38.734 237 38.9992H233.254C233.479 38.3881 233.853 37.8425 234.341 37.4117C234.83 36.9809 235.418 36.6783 236.052 36.5312ZM246 53.9992H236C235.204 53.9992 234.441 53.6831 233.879 53.1205C233.316 52.5579 233 51.7949 233 50.9992V48.9992H235V49.9992C235 50.2644 235.105 50.5188 235.293 50.7063C235.48 50.8939 235.735 50.9992 236 50.9992C236.265 50.9992 236.52 50.8939 236.707 50.7063C236.895 50.5188 237 50.2644 237 49.9992V48.9992H245V49.9992C245 50.2644 245.105 50.5188 245.293 50.7063C245.48 50.8939 245.735 50.9992 246 50.9992C246.265 50.9992 246.52 50.8939 246.707 50.7063C246.895 50.5188 247 50.2644 247 49.9992V48.9992H249V50.9992C249 51.7949 248.684 52.5579 248.121 53.1205C247.559 53.6831 246.796 53.9992 246 53.9992Z" fill="black" fill-opacity="0.5"/>
</g>
<path d="M280.034 38.9624V36.0909H295.121V38.9624H289.276V55H285.879V38.9624H280.034ZM302.103 55.277C300.681 55.277 299.453 54.9815 298.419 54.3906C297.391 53.7936 296.6 52.9503 296.046 51.8608C295.492 50.7652 295.215 49.4756 295.215 47.9922C295.215 46.5334 295.492 45.2531 296.046 44.1513C296.606 43.0433 297.388 42.1816 298.392 41.5661C299.395 40.9444 300.574 40.6335 301.928 40.6335C302.802 40.6335 303.627 40.7751 304.402 41.0582C305.184 41.3352 305.873 41.7661 306.47 42.3509C307.074 42.9356 307.548 43.6804 307.892 44.5852C308.237 45.4839 308.409 46.5549 308.409 47.7983V48.8232H296.785V46.5703H305.205C305.199 45.9302 305.061 45.3608 304.79 44.8622C304.519 44.3575 304.141 43.9605 303.654 43.6712C303.174 43.3819 302.614 43.2372 301.974 43.2372C301.291 43.2372 300.691 43.4034 300.173 43.7358C299.656 44.062 299.253 44.4929 298.964 45.0284C298.681 45.5578 298.536 46.1394 298.53 46.7734V48.7401C298.53 49.5649 298.681 50.2727 298.982 50.8636C299.284 51.4484 299.706 51.8977 300.247 52.2116C300.789 52.5194 301.423 52.6733 302.149 52.6733C302.636 52.6733 303.076 52.6056 303.47 52.4702C303.864 52.3286 304.205 52.1224 304.494 51.8516C304.784 51.5807 305.002 51.2453 305.15 50.8452L308.271 51.196C308.074 52.0208 307.698 52.741 307.144 53.3565C306.597 53.9659 305.895 54.4399 305.039 54.7784C304.184 55.1108 303.205 55.277 302.103 55.277ZM311.237 55V40.8182H314.478V43.1818H314.625C314.884 42.3632 315.327 41.7322 315.955 41.2891C316.589 40.8397 317.312 40.6151 318.125 40.6151C318.309 40.6151 318.516 40.6243 318.743 40.6428C318.977 40.6551 319.171 40.6766 319.325 40.7074V43.782C319.183 43.7327 318.959 43.6896 318.651 43.6527C318.349 43.6096 318.057 43.5881 317.774 43.5881C317.164 43.5881 316.617 43.7204 316.13 43.9851C315.65 44.2436 315.272 44.6037 314.995 45.0653C314.718 45.527 314.579 46.0594 314.579 46.6626V55H311.237ZM321.545 55V40.8182H324.786V43.1818H324.934C325.192 42.3632 325.636 41.7322 326.263 41.2891C326.897 40.8397 327.621 40.6151 328.433 40.6151C328.618 40.6151 328.824 40.6243 329.052 40.6428C329.286 40.6551 329.48 40.6766 329.634 40.7074V43.782C329.492 43.7327 329.267 43.6896 328.96 43.6527C328.658 43.6096 328.366 43.5881 328.082 43.5881C327.473 43.5881 326.925 43.7204 326.439 43.9851C325.959 44.2436 325.58 44.6037 325.303 45.0653C325.026 45.527 324.888 46.0594 324.888 46.6626V55H321.545ZM335.681 55.2862C334.782 55.2862 333.973 55.1262 333.253 54.8061C332.539 54.4799 331.973 53.9998 331.554 53.3658C331.142 52.7318 330.935 51.95 330.935 51.0206C330.935 50.2204 331.083 49.5587 331.379 49.0355C331.674 48.5123 332.077 48.0938 332.588 47.7798C333.099 47.4659 333.674 47.2289 334.315 47.0689C334.961 46.9027 335.629 46.7827 336.318 46.7088C337.149 46.6226 337.823 46.5457 338.34 46.478C338.857 46.4041 339.233 46.2933 339.467 46.1456C339.707 45.9917 339.827 45.7547 339.827 45.4347V45.3793C339.827 44.6837 339.621 44.1451 339.208 43.7635C338.796 43.3819 338.202 43.1911 337.426 43.1911C336.607 43.1911 335.958 43.3696 335.478 43.7266C335.004 44.0836 334.684 44.5052 334.518 44.9915L331.397 44.5483C331.643 43.6866 332.049 42.9664 332.616 42.3878C333.182 41.803 333.875 41.366 334.693 41.0767C335.512 40.7812 336.417 40.6335 337.408 40.6335C338.091 40.6335 338.771 40.7135 339.448 40.8736C340.125 41.0336 340.744 41.2983 341.304 41.6676C341.864 42.0308 342.313 42.5263 342.652 43.1541C342.997 43.782 343.169 44.5668 343.169 45.5085V55H339.956V53.0518H339.845C339.642 53.4458 339.356 53.8151 338.987 54.1598C338.623 54.4983 338.165 54.7723 337.611 54.9815C337.063 55.1847 336.42 55.2862 335.681 55.2862ZM336.549 52.8303C337.22 52.8303 337.802 52.6979 338.294 52.4332C338.786 52.1624 339.165 51.8054 339.43 51.3622C339.701 50.919 339.836 50.4358 339.836 49.9126V48.2415C339.731 48.3277 339.553 48.4077 339.3 48.4815C339.054 48.5554 338.777 48.62 338.469 48.6754C338.162 48.7308 337.857 48.7801 337.555 48.8232C337.254 48.8662 336.992 48.9032 336.771 48.9339C336.272 49.0017 335.826 49.1125 335.432 49.2663C335.038 49.4202 334.727 49.6357 334.499 49.9126C334.272 50.1835 334.158 50.5343 334.158 50.9652C334.158 51.5807 334.382 52.0455 334.832 52.3594C335.281 52.6733 335.853 52.8303 336.549 52.8303ZM346.53 60.3182V40.8182H349.817V43.1634H350.011C350.183 42.8187 350.426 42.4524 350.74 42.0646C351.054 41.6707 351.479 41.3352 352.014 41.0582C352.55 40.7751 353.233 40.6335 354.064 40.6335C355.16 40.6335 356.147 40.9136 357.028 41.4737C357.914 42.0277 358.616 42.8494 359.133 43.9389C359.656 45.0223 359.918 46.3518 359.918 47.9276C359.918 49.4848 359.662 50.8082 359.151 51.8977C358.64 52.9872 357.945 53.8182 357.065 54.3906C356.184 54.9631 355.187 55.2493 354.073 55.2493C353.261 55.2493 352.587 55.1139 352.051 54.843C351.516 54.5722 351.085 54.246 350.759 53.8643C350.438 53.4766 350.189 53.1103 350.011 52.7656H349.872V60.3182H346.53ZM349.808 47.9091C349.808 48.8262 349.937 49.6295 350.195 50.3189C350.46 51.0083 350.839 51.5469 351.331 51.9347C351.83 52.3163 352.433 52.5071 353.141 52.5071C353.879 52.5071 354.498 52.3101 354.996 51.9162C355.495 51.5161 355.871 50.9714 356.123 50.282C356.381 49.5864 356.511 48.7955 356.511 47.9091C356.511 47.0289 356.384 46.2472 356.132 45.5639C355.88 44.8807 355.504 44.3452 355.006 43.9574C354.507 43.5696 353.885 43.3757 353.141 43.3757C352.427 43.3757 351.82 43.5634 351.322 43.9389C350.823 44.3144 350.445 44.8407 350.186 45.5178C349.934 46.1948 349.808 46.992 349.808 47.9091ZM371.819 49.0355V40.8182H375.161V55H371.92V52.4794H371.773C371.453 53.2734 370.926 53.9228 370.194 54.4276C369.468 54.9323 368.572 55.1847 367.507 55.1847C366.578 55.1847 365.756 54.9785 365.042 54.5661C364.334 54.1475 363.78 53.5412 363.38 52.7472C362.98 51.947 362.78 50.9806 362.78 49.848V40.8182H366.122V49.331C366.122 50.2296 366.368 50.9437 366.861 51.473C367.353 52.0024 368 52.267 368.8 52.267C369.292 52.267 369.769 52.147 370.231 51.907C370.692 51.6669 371.071 51.3099 371.366 50.8359C371.668 50.3558 371.819 49.7557 371.819 49.0355ZM384.877 55.277C383.455 55.277 382.227 54.9815 381.193 54.3906C380.165 53.7936 379.374 52.9503 378.82 51.8608C378.266 50.7652 377.989 49.4756 377.989 47.9922C377.989 46.5334 378.266 45.2531 378.82 44.1513C379.38 43.0433 380.162 42.1816 381.165 41.5661C382.168 40.9444 383.347 40.6335 384.701 40.6335C385.575 40.6335 386.4 40.7751 387.176 41.0582C387.957 41.3352 388.647 41.7661 389.244 42.3509C389.847 42.9356 390.321 43.6804 390.666 44.5852C391.01 45.4839 391.183 46.5549 391.183 47.7983V48.8232H379.558V46.5703H387.979C387.973 45.9302 387.834 45.3608 387.563 44.8622C387.293 44.3575 386.914 43.9605 386.428 43.6712C385.948 43.3819 385.387 43.2372 384.747 43.2372C384.064 43.2372 383.464 43.4034 382.947 43.7358C382.43 44.062 382.027 44.4929 381.737 45.0284C381.454 45.5578 381.31 46.1394 381.303 46.7734V48.7401C381.303 49.5649 381.454 50.2727 381.756 50.8636C382.057 51.4484 382.479 51.8977 383.021 52.2116C383.562 52.5194 384.196 52.6733 384.923 52.6733C385.409 52.6733 385.849 52.6056 386.243 52.4702C386.637 52.3286 386.979 52.1224 387.268 51.8516C387.557 51.5807 387.776 51.2453 387.923 50.8452L391.044 51.196C390.847 52.0208 390.472 52.741 389.918 53.3565C389.37 53.9659 388.668 54.4399 387.813 54.7784C386.957 55.1108 385.978 55.277 384.877 55.277ZM394.01 55V40.8182H397.251V43.1818H397.399C397.657 42.3632 398.1 41.7322 398.728 41.2891C399.362 40.8397 400.086 40.6151 400.898 40.6151C401.083 40.6151 401.289 40.6243 401.517 40.6428C401.751 40.6551 401.944 40.6766 402.098 40.7074V43.782C401.957 43.7327 401.732 43.6896 401.424 43.6527C401.123 43.6096 400.83 43.5881 400.547 43.5881C399.938 43.5881 399.39 43.7204 398.904 43.9851C398.424 44.2436 398.045 44.6037 397.768 45.0653C397.491 45.527 397.353 46.0594 397.353 46.6626V55H394.01ZM412.162 40.8182V43.4034H404.01V40.8182H412.162ZM406.022 37.4205H409.365V50.7344C409.365 51.1837 409.432 51.5284 409.568 51.7685C409.709 52.0024 409.894 52.1624 410.122 52.2486C410.35 52.3348 410.602 52.3778 410.879 52.3778C411.088 52.3778 411.279 52.3625 411.451 52.3317C411.63 52.3009 411.765 52.2732 411.858 52.2486L412.421 54.8615C412.242 54.9231 411.987 54.9908 411.654 55.0646C411.328 55.1385 410.928 55.1816 410.454 55.1939C409.617 55.2185 408.863 55.0923 408.192 54.8153C407.521 54.5322 406.989 54.0952 406.595 53.5043C406.207 52.9134 406.016 52.1747 406.022 51.2884V37.4205ZM420.991 55.277C419.606 55.277 418.406 54.9723 417.39 54.3629C416.375 53.7536 415.587 52.901 415.027 51.8054C414.473 50.7098 414.196 49.4295 414.196 47.9645C414.196 46.4995 414.473 45.2161 415.027 44.1143C415.587 43.0125 416.375 42.157 417.39 41.5476C418.406 40.9382 419.606 40.6335 420.991 40.6335C422.376 40.6335 423.577 40.9382 424.592 41.5476C425.608 42.157 426.393 43.0125 426.947 44.1143C427.507 45.2161 427.787 46.4995 427.787 47.9645C427.787 49.4295 427.507 50.7098 426.947 51.8054C426.393 52.901 425.608 53.7536 424.592 54.3629C423.577 54.9723 422.376 55.277 420.991 55.277ZM421.01 52.5994C421.761 52.5994 422.389 52.3932 422.893 51.9808C423.398 51.5623 423.773 51.0021 424.02 50.3004C424.272 49.5987 424.398 48.817 424.398 47.9553C424.398 47.0874 424.272 46.3026 424.02 45.6009C423.773 44.893 423.398 44.3298 422.893 43.9112C422.389 43.4927 421.761 43.2834 421.01 43.2834C420.24 43.2834 419.6 43.4927 419.089 43.9112C418.585 44.3298 418.206 44.893 417.954 45.6009C417.707 46.3026 417.584 47.0874 417.584 47.9553C417.584 48.817 417.707 49.5987 417.954 50.3004C418.206 51.0021 418.585 51.5623 419.089 51.9808C419.6 52.3932 420.24 52.5994 421.01 52.5994Z" fill="white"/>
<g clip-path="url(#clip1_210_3959)">
<path d="M114.86 142.55L72.9604 167.047L0.0078125 125.183L41.9075 100.686L114.86 142.55Z" fill="#D0D4D7"/>
<path d="M114.862 142.549L114.85 144.498L72.9531 168.999L72.9625 167.046L114.862 142.549Z" fill="#BAC1C6"/>
<path d="M72.962 167.048L72.9526 169L0 127.133L0.00941566 125.184L72.962 167.048Z" fill="#A5A7A8"/>
<path d="M17.852 119.064L15.5859 120.378L21.0282 123.518L23.2942 122.211L17.852 119.064Z" fill="white"/>
<path d="M29.7113 125.9L27.4453 127.214L32.8876 130.354L35.1536 129.047L29.7113 125.9Z" fill="white"/>
<path d="M41.5668 132.736L39.3008 134.046L44.743 137.19L47.0091 135.883L41.5668 132.736Z" fill="white"/>
<path d="M53.4262 139.572L51.1602 140.882L56.6024 144.026L58.8684 142.716L53.4262 139.572Z" fill="white"/>
<path d="M65.2817 146.404L63.0156 147.718L68.4579 150.861L70.7239 149.551L65.2817 146.404Z" fill="white"/>
<path d="M77.141 153.24L74.875 154.553L80.3173 157.697L82.5833 156.387L77.141 153.24Z" fill="white"/>
<path d="M144.001 124.075L114.863 140.987L50.9492 104.044L80.0876 87.1348L144.001 124.075Z" fill="#88B053"/>
<path d="M144.003 124.074L143.994 127.581L114.855 144.491L114.865 140.987L144.003 124.074Z" fill="#66892E"/>
<path d="M114.864 140.988L114.854 144.492L50.9375 107.552L50.9501 104.045L114.864 140.988Z" fill="#66892E"/>
<path d="M109.917 138.129V139.715L71.8242 117.854V116.143L109.917 138.129Z" fill="#A5A7A8"/>
<path d="M74.0077 100.708L67.5988 104.391L61.375 100.793L67.7871 97.1133L74.0077 100.708Z" fill="#BABDBF"/>
<path d="M73.0643 100.759L67.6817 103.843L62.3242 100.743L67.7037 97.6621L73.0643 100.759Z" fill="#D27937"/>
<path d="M74.0058 100.709L74.0027 101.602L67.5938 105.285L67.5969 104.392L74.0058 100.709Z" fill="#AAACAD"/>
<path d="M67.5988 104.391L67.5956 105.284L61.375 101.686V100.793L67.5988 104.391Z" fill="#6D6E70"/>
<path d="M68.6934 92.5664H66.9766V101.255H68.6934V92.5664Z" fill="#A85822"/>
<path d="M68.6922 92.5664H67.9766V101.255H68.6922V92.5664Z" fill="#8C4515"/>
<path d="M67.8375 95.4365C70.2417 95.4365 72.1907 93.0819 72.1907 90.1772C72.1907 87.2726 70.2417 84.918 67.8375 84.918C65.4334 84.918 63.4844 87.2726 63.4844 90.1772C63.4844 93.0819 65.4334 95.4365 67.8375 95.4365Z" fill="#A85822"/>
<path d="M67.8375 95.4365C70.2417 95.4365 72.1907 93.0819 72.1907 90.1772C72.1907 87.2726 70.2417 84.918 67.8375 84.918C65.4334 84.918 63.4844 87.2726 63.4844 90.1772C63.4844 93.0819 65.4334 95.4365 67.8375 95.4365Z" fill="#6C8C3A"/>
<path d="M67.837 84.918C67.3694 84.918 66.9206 85.0089 66.5 85.1718C68.2482 85.852 69.5162 87.836 69.5162 90.1772C69.5162 92.5185 68.2513 94.4994 66.5 95.1826C66.9206 95.3456 67.3694 95.4365 67.837 95.4365C70.2412 95.4365 72.1902 93.0827 72.1902 90.1772C72.1902 87.2718 70.2412 84.918 67.837 84.918Z" fill="#54721F"/>
<path d="M83.4733 106.534L77.0644 110.217L70.8438 106.619L77.2527 102.939L83.4733 106.534Z" fill="#BABDBF"/>
<path d="M82.5292 106.585L77.1497 109.669L71.7891 106.569L77.1717 103.488L82.5292 106.585Z" fill="#D27937"/>
<path d="M83.4707 106.535V107.428L77.0586 111.111L77.0617 110.218L83.4707 106.535Z" fill="#AAACAD"/>
<path d="M77.0636 110.217L77.0605 111.111L70.8398 107.512L70.843 106.619L77.0636 110.217Z" fill="#6D6E70"/>
<path d="M77.9668 98.9434H76.25V107.632H77.9668V98.9434Z" fill="#A85822"/>
<path d="M77.9656 98.9434H77.25V107.632H77.9656V98.9434Z" fill="#8C4515"/>
<path d="M77.111 101.812C79.5152 101.812 81.4642 99.4569 81.4642 96.5522C81.4642 93.6476 79.5152 91.293 77.111 91.293C74.7068 91.293 72.7578 93.6476 72.7578 96.5522C72.7578 99.4569 74.7068 101.812 77.111 101.812Z" fill="#A85822"/>
<path d="M77.111 101.812C79.5152 101.812 81.4642 99.4569 81.4642 96.5522C81.4642 93.6476 79.5152 91.293 77.111 91.293C74.7068 91.293 72.7578 93.6476 72.7578 96.5522C72.7578 99.4569 74.7068 101.812 77.111 101.812Z" fill="#6C8C3A"/>
<path d="M77.1105 91.2969C76.6428 91.2969 76.194 91.3878 75.7734 91.5507C77.5216 92.2309 78.7896 94.2149 78.7896 96.5561C78.7896 98.8974 77.5248 100.878 75.7734 101.562C76.194 101.725 76.6428 101.815 77.1105 101.815C79.5146 101.815 81.4636 99.4616 81.4636 96.5561C81.4636 93.6507 79.5146 91.2969 77.1105 91.2969Z" fill="#54721F"/>
<path d="M109.917 138.132L131.626 126.099L93.5116 104.125L71.8242 116.142L109.917 138.132Z" fill="#E4E7EA"/>
<path d="M130.437 101.855L129.627 102.325L93.6562 81.5541L94.466 81.084L130.437 101.855Z" fill="#EDEEEF"/>
<path d="M130.44 101.855L130.431 124.789L129.621 125.259L129.631 102.326L130.44 101.855Z" fill="#6D6E70"/>
<path d="M129.629 102.318L129.619 125.258L93.6484 103.296L93.6579 81.5508L129.629 102.318Z" fill="#D0D4D7"/>
<path d="M131.747 101.642L130.708 102.244L129.66 101.642L130.702 101.037L131.747 101.642Z" fill="#6D6E70"/>
<path d="M131.751 101.643L131.738 127.074L130.699 127.679L130.712 102.244L131.751 101.643Z" fill="#BABDBF"/>
<path d="M130.71 102.242L130.697 127.679L129.652 127.074L129.662 101.637L130.71 102.242Z" fill="#6D6E70"/>
<path d="M93.677 79.7248L92.635 80.3297L91.5898 79.7248L92.6287 79.123L93.677 79.7248Z" fill="#6D6E70"/>
<path d="M93.6795 79.7246L93.667 105.159L92.625 105.761L92.6376 80.3295L93.6795 79.7246Z" fill="#BABDBF"/>
<path d="M92.6358 80.3237L92.6233 105.761L91.5781 105.159L91.5907 79.7188L92.6358 80.3237Z" fill="#6D6E70"/>
<path d="M118.661 119.396L118.002 119.775L117.34 119.396L117.999 119.014L118.661 119.396Z" fill="#6D6E70"/>
<path d="M118.661 119.396L118.652 126.292L117.996 126.674L118.002 119.776L118.661 119.396Z" fill="#6D6E70"/>
<path d="M118.001 119.843L117.994 126.673L117.332 126.29L117.338 119.461L118.001 119.843Z" fill="#4C4D4E"/>
<path d="M122.506 117.135L121.847 117.517L121.188 117.135L121.843 116.756L122.506 117.135Z" fill="#6D6E70"/>
<path d="M122.509 117.135L122.503 124.033L121.844 124.416L121.85 117.517L122.509 117.135Z" fill="#6D6E70"/>
<path d="M121.848 117.586L121.842 124.415L121.18 124.033L121.189 117.203L121.848 117.586Z" fill="#4C4D4E"/>
<path d="M97.8213 107.043L97.1622 107.425L96.5 107.043L97.1591 106.66L97.8213 107.043Z" fill="#6D6E70"/>
<path d="M97.8216 107.043L97.8122 113.938L97.1562 114.321L97.1625 107.425L97.8216 107.043Z" fill="#6D6E70"/>
<path d="M97.1607 107.49L97.1544 114.319L96.4922 113.94L96.4985 107.107L97.1607 107.49Z" fill="#4C4D4E"/>
<path d="M101.666 104.784L101.01 105.166L100.348 104.784L101.004 104.404L101.666 104.784Z" fill="#6D6E70"/>
<path d="M101.669 104.783L101.663 111.682L101.004 112.064L101.013 105.166L101.669 104.783Z" fill="#6D6E70"/>
<path d="M101.011 105.234L101.002 112.063L100.34 111.681L100.349 104.852L101.011 105.234Z" fill="#4C4D4E"/>
<path d="M124.297 117.34V118.296L118.296 121.756L118.293 120.8L124.297 117.34Z" fill="#BD6D31"/>
<path d="M118.297 121.756L94.2336 107.793L94.2305 106.834L118.294 120.8L118.297 121.756Z" fill="#824B22"/>
<path d="M124.298 117.339L122.882 118.154L122.449 118.405L120.362 119.608L119.929 119.859L118.297 120.799L94.2305 106.833L95.8625 105.893L96.2988 105.642L98.3828 104.442L98.819 104.188L100.235 103.373L124.298 117.339Z" fill="#D27937"/>
<path d="M96.2995 105.643L120.363 119.609L119.93 119.86L95.8633 105.893L96.2995 105.643Z" fill="#824B22"/>
<path d="M123.329 118.414L122.893 118.665L122.887 118.659L123.32 118.408L123.329 118.414Z" fill="#D27937"/>
<path d="M98.8191 104.188L122.882 118.154L122.449 118.404L98.3828 104.441L98.8191 104.188Z" fill="#824B22"/>
<path d="M86.3173 81.6992C89.7446 79.7246 93.1719 79.1071 95.9526 80.2261C95.598 80.9062 95.2465 81.5895 94.8918 82.2696C92.4186 81.276 89.368 81.8245 86.3236 83.5797C83.276 85.338 80.2316 88.2999 77.7741 92.1362C77.4163 91.8635 77.0617 91.5909 76.707 91.3213C79.469 87.0054 82.8931 83.6737 86.3173 81.6992Z" fill="#6D6E70"/>
<path d="M95.9558 80.2263C95.598 80.9065 95.2465 81.5866 94.895 82.2699C92.4218 81.2732 89.3711 81.8248 86.3267 83.58C83.276 85.3351 80.2379 88.297 77.7773 92.1333V92.1365C77.5952 91.9954 77.4163 91.8607 77.2343 91.7259C77.0586 91.5911 76.8828 91.4532 76.707 91.3216C79.4721 87.0057 82.8931 83.6771 86.3204 81.6963C89.7446 79.7217 93.175 79.1043 95.9558 80.2263Z" fill="#6D6E70"/>
<path d="M77.5383 90.0799C77.5571 90.0517 77.5791 90.0235 77.5979 89.9953C77.7454 89.7853 77.896 89.5785 78.0467 89.3747C78.0467 89.3747 78.0467 89.3716 78.0498 89.3716C78.2005 89.1679 78.3543 88.9641 78.5081 88.7667C78.53 88.7353 78.5551 88.7071 78.5771 88.6758C78.6273 88.61 78.6807 88.5442 78.7309 88.4783C78.7748 88.4219 78.8188 88.3655 78.8627 88.3091C78.9161 88.2433 78.9694 88.1774 79.0196 88.1148C79.0636 88.0615 79.1075 88.0051 79.1546 87.9518C79.208 87.886 79.2613 87.8233 79.3147 87.7606C79.3586 87.7073 79.4026 87.654 79.4496 87.6007C79.503 87.5349 79.5595 87.4722 79.616 87.4096C79.6599 87.3594 79.7039 87.3093 79.7447 87.2591C79.8608 87.1243 79.98 86.9927 80.0993 86.8579C80.1307 86.8235 80.1621 86.789 80.1935 86.7545C80.2845 86.6542 80.3755 86.557 80.4665 86.4567C80.5042 86.416 80.5387 86.3784 80.5764 86.3376C80.6768 86.2311 80.7804 86.1245 80.884 86.0179C80.9028 85.996 80.9248 85.9772 80.9436 85.9553C81.066 85.8299 81.1852 85.7077 81.3077 85.5886C81.3579 85.5384 81.4081 85.4914 81.4583 85.4412C81.5085 85.3942 81.5556 85.3472 81.6058 85.3002C81.6592 85.2501 81.7125 85.1999 81.7659 85.1498C81.8161 85.1027 81.8632 85.0557 81.9134 85.0119C81.9668 84.9617 82.0201 84.9147 82.0735 84.8645C82.1237 84.8175 82.1739 84.7737 82.221 84.7266C82.2743 84.6796 82.3277 84.6295 82.381 84.5825C82.4313 84.5386 82.4815 84.4947 82.5286 84.4508C82.5819 84.4038 82.6384 84.3568 82.6918 84.3098C82.742 84.2659 82.7891 84.2252 82.8393 84.1813C82.8926 84.1343 82.9491 84.0873 83.0025 84.0434C83.0527 84.0026 83.0998 83.9587 83.15 83.918C83.2065 83.871 83.2598 83.8271 83.3163 83.7832C83.3666 83.7425 83.4136 83.7017 83.4638 83.6641C83.5203 83.6202 83.5768 83.5764 83.6302 83.5325C83.6804 83.4949 83.7275 83.4541 83.7777 83.4165C83.8342 83.3726 83.8876 83.3319 83.944 83.288C83.9943 83.2504 84.0445 83.2128 84.0916 83.1752C84.1481 83.1344 84.2045 83.0906 84.261 83.0498C84.3113 83.0122 84.3583 82.9777 84.4085 82.9401C84.465 82.8994 84.5247 82.8586 84.5812 82.8179C84.6283 82.7834 84.6753 82.7489 84.7255 82.7144C84.7852 82.6737 84.8448 82.633 84.9044 82.5922C84.9515 82.5609 84.9955 82.5295 85.0425 82.4982C85.1053 82.4574 85.1649 82.4167 85.2277 82.376C85.2717 82.3477 85.3156 82.3164 85.3595 82.2882C85.4254 82.2443 85.4913 82.2036 85.5573 82.1628C85.5981 82.1377 85.6389 82.1095 85.6797 82.0845C85.7487 82.0406 85.8209 81.9967 85.8899 81.956C85.9245 81.934 85.9621 81.9121 85.9967 81.8901C86.1034 81.8275 86.2101 81.7648 86.3137 81.7021C86.4706 81.6112 86.6275 81.5234 86.7844 81.4388C86.8158 81.4231 86.8472 81.4043 86.8786 81.3887C87.0292 81.3072 87.183 81.2288 87.3337 81.1536C87.3619 81.1411 87.3902 81.1254 87.4184 81.1128C87.5659 81.0408 87.7103 80.9718 87.8547 80.906C87.8704 80.8997 87.8829 80.8935 87.8986 80.8872C88.0524 80.8182 88.2062 80.7524 88.36 80.6866C88.3945 80.6709 88.429 80.6584 88.4667 80.6427C88.5797 80.5957 88.6895 80.5518 88.8025 80.5111C88.8214 80.5048 88.8402 80.4954 88.8622 80.4891C88.9908 80.439 89.1195 80.3951 89.2482 80.3512C89.2827 80.3387 89.3172 80.3293 89.3518 80.3167C89.4522 80.2823 89.5495 80.2509 89.6468 80.2196C89.6845 80.207 89.719 80.1976 89.7566 80.1851C89.8853 80.1475 90.014 80.1099 90.1395 80.0754C90.1615 80.0691 90.1866 80.0629 90.2086 80.0566C90.2933 80.0347 90.3749 80.0127 90.4597 79.9908C90.5005 79.9814 90.5381 79.972 90.5789 79.9626C90.648 79.9469 90.7139 79.9312 90.7829 79.9156C90.8269 79.9062 90.8708 79.8968 90.9148 79.8905C90.9775 79.878 91.0403 79.8654 91.1031 79.8529C91.1502 79.8435 91.1941 79.8372 91.2412 79.8278C91.3008 79.8184 91.3604 79.8059 91.4201 79.7965C91.4797 79.7871 91.5362 79.7777 91.5927 79.7714C91.6304 79.7651 91.668 79.7589 91.7088 79.7557C91.7747 79.7463 91.8406 79.74 91.9066 79.7338C91.9379 79.7306 91.9693 79.7275 92.0007 79.7244C92.098 79.715 92.1922 79.7056 92.2895 79.6993C92.2926 79.6993 92.2957 79.6993 92.302 79.6993C92.393 79.693 92.484 79.6868 92.5719 79.6836C92.7163 79.6774 92.8607 79.6742 93.0051 79.6774C93.0333 79.6774 93.0647 79.6774 93.0929 79.6774C93.2342 79.6805 93.3754 79.6836 93.5135 79.693C93.5386 79.693 93.5606 79.6962 93.5857 79.6993C93.7018 79.7087 93.8211 79.7181 93.9372 79.7306C93.9592 79.7338 93.9843 79.7369 94.0063 79.7369C94.1349 79.7526 94.2636 79.7714 94.3923 79.7933C94.4205 79.7996 94.4488 79.8027 94.4802 79.809C94.59 79.8278 94.6967 79.8497 94.8034 79.8748C94.8223 79.878 94.8411 79.8842 94.8599 79.8874C94.9823 79.9156 95.1016 79.9469 95.2209 79.9814C95.2523 79.9908 95.2836 80.0002 95.315 80.0096C95.3935 80.0315 95.4688 80.0566 95.5473 80.0817C95.5787 80.0911 95.61 80.1036 95.6414 80.113C95.745 80.1506 95.8517 80.1882 95.9553 80.229L94.8003 79.5583C94.6967 79.5175 94.5932 79.4799 94.4896 79.4423C94.4582 79.4298 94.4268 79.4204 94.3954 79.4109C94.3201 79.3859 94.2416 79.3608 94.1632 79.3389C94.1443 79.3326 94.1224 79.3263 94.1035 79.3201C94.091 79.3169 94.0784 79.3138 94.0659 79.3107C93.9466 79.2762 93.8273 79.2448 93.7049 79.2166C93.6861 79.2135 93.6673 79.2072 93.6485 79.2041C93.5417 79.179 93.4319 79.1571 93.3252 79.1383C93.3063 79.1351 93.2907 79.132 93.2718 79.1289C93.2593 79.1257 93.2499 79.1257 93.2373 79.1226C93.1086 79.1007 92.9831 79.0819 92.8513 79.0662C92.8293 79.063 92.8042 79.0599 92.7791 79.0599C92.6629 79.0474 92.5468 79.038 92.4276 79.0286C92.4119 79.0286 92.3962 79.0254 92.3773 79.0254C92.3711 79.0254 92.3616 79.0254 92.3554 79.0254C92.2173 79.016 92.076 79.0129 91.9348 79.0098C91.9066 79.0098 91.8752 79.0098 91.8469 79.0098C91.7025 79.0098 91.5582 79.0098 91.4138 79.016C91.4107 79.016 91.4075 79.016 91.4044 79.016C91.3196 79.0192 91.2349 79.0254 91.1502 79.0317C91.1439 79.0317 91.1407 79.0317 91.1345 79.0317C91.0372 79.038 90.943 79.0474 90.8457 79.0568C90.8143 79.0599 90.783 79.063 90.7516 79.0662C90.6857 79.0725 90.6198 79.0819 90.5538 79.0881C90.5162 79.0944 90.4785 79.0975 90.4408 79.1038C90.3969 79.1101 90.3498 79.1163 90.3059 79.1226C90.2933 79.1257 90.2808 79.1257 90.2682 79.1289C90.2086 79.1383 90.149 79.1477 90.0893 79.1602C90.0423 79.1696 89.9983 79.1759 89.9512 79.1853C89.8885 79.1978 89.8257 79.2104 89.7629 79.2229C89.719 79.2323 89.675 79.2386 89.6311 79.248C89.5652 79.2636 89.4961 79.2793 89.4271 79.295C89.3894 79.3044 89.3486 79.3138 89.311 79.3232C89.2262 79.342 89.1415 79.3639 89.0599 79.389C89.0379 79.3953 89.0159 79.3984 88.994 79.4047H88.9908C88.8622 79.4392 88.7335 79.4768 88.6079 79.5144C88.5703 79.5269 88.5357 79.5363 88.4981 79.5489C88.4008 79.5802 88.3004 79.6115 88.2031 79.646C88.1685 79.6586 88.134 79.668 88.0995 79.6805C87.9708 79.7244 87.8421 79.7714 87.7134 79.8184C87.6946 79.8247 87.6758 79.8341 87.657 79.8403C87.544 79.8842 87.4341 79.9281 87.3211 79.972C87.3023 79.9782 87.2866 79.9845 87.2678 79.9939C87.2521 80.0002 87.2332 80.0096 87.2176 80.0159C87.0638 80.0785 86.91 80.1444 86.7562 80.2165C86.7405 80.2227 86.7279 80.229 86.7122 80.2353C86.5679 80.3011 86.4204 80.37 86.276 80.4421C86.2477 80.4547 86.2195 80.4703 86.1912 80.4829C86.0406 80.5581 85.8868 80.6364 85.7362 80.7179C85.7048 80.7336 85.6734 80.7524 85.642 80.7681C85.4851 80.8527 85.3281 80.9405 85.1712 81.0314C85.0645 81.094 84.9578 81.1536 84.8542 81.2194C84.8166 81.2414 84.7789 81.2664 84.7412 81.2884C84.6722 81.3291 84.6031 81.373 84.5341 81.4137C84.4901 81.4419 84.4494 81.467 84.4054 81.4952C84.3426 81.536 84.2799 81.5767 84.2171 81.6175C84.17 81.6457 84.1261 81.677 84.079 81.7084C84.0194 81.7491 83.9597 81.7867 83.897 81.8275C83.8499 81.8588 83.8028 81.8933 83.7557 81.9246C83.6961 81.9654 83.6396 82.003 83.58 82.0437C83.5298 82.0782 83.4827 82.1127 83.4325 82.1472C83.376 82.1879 83.3195 82.2286 83.263 82.2694C83.2128 82.307 83.1625 82.3415 83.1123 82.3791C83.0558 82.4198 83.0025 82.4606 82.946 82.5013C82.8958 82.5389 82.8455 82.5765 82.7985 82.6142C82.742 82.658 82.6886 82.6988 82.6321 82.7427C82.5819 82.7803 82.5317 82.821 82.4846 82.8586C82.4281 82.9025 82.3748 82.9464 82.3183 82.9903C82.2681 83.031 82.221 83.0718 82.1708 83.1094C82.1143 83.1532 82.0609 83.1971 82.0044 83.2441C81.9542 83.2849 81.904 83.3288 81.8538 83.3695C81.8004 83.4165 81.7439 83.4604 81.6906 83.5074C81.6403 83.5513 81.5901 83.592 81.543 83.6359C81.4897 83.6829 81.4332 83.7299 81.3798 83.777C81.3296 83.8208 81.2825 83.8647 81.2323 83.9086C81.179 83.9556 81.1256 84.0058 81.0723 84.0528C81.022 84.0967 80.975 84.1437 80.9247 84.1875C80.8714 84.2377 80.818 84.2847 80.7647 84.3349C80.7145 84.3819 80.6674 84.4257 80.6172 84.4728C80.5638 84.5229 80.5105 84.5731 80.4571 84.6232C80.4069 84.6702 80.3598 84.7172 80.3096 84.7642C80.2688 84.8019 80.2311 84.8426 80.1903 84.8802C80.1809 84.8896 80.1684 84.9022 80.1589 84.9116C80.0365 85.0338 79.9141 85.156 79.7949 85.2783C79.776 85.3002 79.7541 85.319 79.7352 85.341C79.6317 85.4475 79.5312 85.5541 79.4277 85.6606C79.39 85.7014 79.3523 85.739 79.3178 85.7797C79.2268 85.8769 79.1358 85.9772 79.0448 86.0775C79.0134 86.112 78.982 86.1465 78.9506 86.1809C78.8313 86.3126 78.7152 86.4442 78.5959 86.5821C78.5928 86.5884 78.5865 86.5915 78.5834 86.5978C78.5457 86.6417 78.5049 86.6887 78.4673 86.7326C78.4108 86.7952 78.3574 86.8611 78.3009 86.9237C78.257 86.977 78.213 87.0303 78.166 87.0836C78.1126 87.1463 78.0593 87.2121 78.0059 87.2748C77.962 87.3281 77.9149 87.3845 77.8709 87.4409C77.8176 87.5067 77.7674 87.5694 77.714 87.6352C77.6701 87.6916 77.6261 87.7481 77.5791 87.8045C77.5288 87.8703 77.4755 87.9361 77.4253 87.9988C77.4158 88.0113 77.4033 88.0239 77.3939 88.0395C77.3813 88.0552 77.3688 88.074 77.3531 88.0928C77.1993 88.2934 77.0455 88.494 76.8949 88.6977C76.8949 88.6977 76.8949 88.6977 76.8949 88.7009C76.7442 88.9046 76.5935 89.1146 76.446 89.3246C76.4335 89.3434 76.4209 89.3591 76.4084 89.3779C76.4021 89.3873 76.3958 89.3998 76.3864 89.4092C76.2609 89.5879 76.1353 89.7728 76.0098 89.9546C75.9847 89.9953 75.9564 90.0329 75.9313 90.0737C75.8058 90.2649 75.6771 90.456 75.5547 90.6472L76.7097 91.318C76.8352 91.1236 76.9608 90.9325 77.0863 90.7444C77.1114 90.7037 77.1397 90.666 77.1648 90.6253C77.2872 90.4435 77.4127 90.2617 77.5383 90.0799Z" fill="#BABDBF"/>
<path opacity="0.57" d="M133.712 102.018C131.744 101.225 129.45 101.307 127.058 102.125H127.055C126.073 102.46 125.075 102.921 124.076 103.498C123.744 103.689 123.414 103.893 123.078 104.112C122.253 104.654 121.428 105.272 120.618 105.961C119.293 107.089 118.01 108.409 116.801 109.895C116.224 110.603 115.665 111.349 115.128 112.129C115.056 112.233 114.984 112.336 114.909 112.446C114.808 112.593 114.708 112.747 114.604 112.9C114.56 112.972 114.516 113.041 114.469 113.113H114.466L113.314 112.443L77.7765 92.1359H77.7734V92.1328L77.2304 91.7254C77.0546 91.5906 76.8757 91.4558 76.7031 91.321C77.403 90.2303 78.1437 89.2023 78.9158 88.2432C80.121 86.7482 81.3953 85.4255 82.7103 84.2878C83.5295 83.5826 84.3612 82.9495 85.1961 82.3947C85.5695 82.144 85.943 81.912 86.3165 81.6958C87.2581 81.1535 88.1996 80.7116 89.1255 80.3856C91.5767 79.5112 93.9338 79.4109 95.9519 80.2227L133.712 102.018Z" fill="#D2EFFF"/>
<path opacity="0.57" d="M120.62 105.957C119.295 107.086 118.012 108.405 116.803 109.891L78.918 88.2425C80.1232 86.7475 81.3974 85.4248 82.7125 84.2871L120.62 105.957Z" fill="white"/>
<path opacity="0.57" d="M127.054 102.121C126.072 102.456 125.074 102.917 124.076 103.494C123.743 103.685 123.413 103.889 123.078 104.108L85.1953 82.3938C85.5688 82.1431 85.9423 81.9111 86.3158 81.6949C87.2573 81.1527 88.1989 80.7107 89.1248 80.3848L127.054 102.121Z" fill="white"/>
<mask id="mask0_210_3959" style="mask-type:luminance" maskUnits="userSpaceOnUse" x="113" y="112" width="3" height="2">
<path d="M115.535 113.933L114.38 113.262C114.022 112.989 113.667 112.717 113.312 112.447L114.467 113.118C114.822 113.391 115.177 113.66 115.535 113.933Z" fill="white"/>
</mask>
<g mask="url(#mask0_210_3959)">
<path d="M115.535 113.933L114.38 113.262C114.022 112.989 113.667 112.717 113.312 112.447L114.467 113.118C114.822 113.391 115.177 113.66 115.535 113.933Z" fill="#6D6E70"/>
</g>
<path d="M115.3 111.876C115.319 111.848 115.341 111.82 115.36 111.791C115.507 111.581 115.658 111.375 115.808 111.171C115.808 111.171 115.808 111.168 115.812 111.168C115.962 110.964 116.116 110.76 116.27 110.563C116.292 110.531 116.317 110.5 116.339 110.472C116.389 110.406 116.442 110.34 116.493 110.274C116.537 110.218 116.581 110.162 116.624 110.105C116.678 110.039 116.731 109.974 116.781 109.911C116.825 109.858 116.869 109.801 116.916 109.748C116.97 109.682 117.023 109.619 117.076 109.557C117.12 109.503 117.164 109.45 117.211 109.397C117.265 109.331 117.321 109.268 117.378 109.206C117.422 109.156 117.466 109.105 117.506 109.055C117.623 108.92 117.742 108.789 117.861 108.654C117.892 108.62 117.924 108.585 117.955 108.551C118.046 108.45 118.137 108.353 118.228 108.253C118.266 108.212 118.3 108.174 118.338 108.134C118.439 108.027 118.542 107.921 118.646 107.814C118.665 107.792 118.686 107.773 118.705 107.751C118.828 107.626 118.947 107.504 119.069 107.385C119.12 107.335 119.17 107.287 119.22 107.237C119.27 107.19 119.317 107.143 119.368 107.096C119.421 107.046 119.474 106.996 119.528 106.946C119.578 106.899 119.625 106.852 119.675 106.808C119.728 106.758 119.782 106.711 119.835 106.661C119.885 106.614 119.936 106.57 119.983 106.523C120.036 106.476 120.089 106.426 120.143 106.379C120.193 106.335 120.243 106.291 120.29 106.247C120.344 106.2 120.4 106.153 120.453 106.106C120.504 106.062 120.551 106.021 120.601 105.977C120.654 105.93 120.711 105.883 120.764 105.839C120.814 105.799 120.861 105.755 120.912 105.714C120.968 105.667 121.022 105.623 121.078 105.579C121.128 105.539 121.175 105.498 121.226 105.46C121.282 105.416 121.339 105.372 121.392 105.329C121.442 105.291 121.489 105.25 121.539 105.213C121.596 105.169 121.649 105.128 121.706 105.084C121.756 105.047 121.806 105.009 121.853 104.971C121.91 104.931 121.966 104.887 122.023 104.846C122.073 104.808 122.12 104.774 122.17 104.736C122.227 104.695 122.286 104.655 122.343 104.614C122.39 104.58 122.437 104.545 122.487 104.511C122.547 104.47 122.607 104.429 122.666 104.385C122.713 104.354 122.757 104.322 122.804 104.291C122.867 104.25 122.927 104.21 122.989 104.169C123.033 104.141 123.077 104.109 123.121 104.081C123.187 104.037 123.253 103.997 123.319 103.956C123.36 103.931 123.401 103.903 123.441 103.877C123.51 103.834 123.583 103.79 123.652 103.749C123.686 103.727 123.724 103.705 123.758 103.683C123.865 103.62 123.972 103.558 124.075 103.495C124.232 103.404 124.389 103.316 124.546 103.232C124.578 103.216 124.609 103.197 124.64 103.182C124.791 103.1 124.945 103.022 125.095 102.947C125.124 102.934 125.152 102.918 125.18 102.906C125.328 102.834 125.472 102.765 125.616 102.699C125.632 102.693 125.645 102.686 125.66 102.68C125.814 102.611 125.968 102.545 126.122 102.48C126.156 102.464 126.191 102.451 126.228 102.436C126.341 102.389 126.451 102.345 126.564 102.304C126.583 102.298 126.602 102.288 126.624 102.282C126.753 102.232 126.881 102.188 127.01 102.144C127.044 102.132 127.079 102.122 127.113 102.11C127.214 102.075 127.311 102.044 127.409 102.013C127.446 102 127.481 101.991 127.518 101.978C127.647 101.94 127.776 101.903 127.901 101.868C127.923 101.862 127.948 101.856 127.97 101.85C128.055 101.828 128.137 101.806 128.221 101.784C128.262 101.774 128.3 101.765 128.341 101.756C128.41 101.74 128.476 101.724 128.545 101.709C128.589 101.699 128.633 101.69 128.676 101.683C128.739 101.671 128.802 101.658 128.865 101.646C128.912 101.636 128.956 101.63 129.003 101.621C129.063 101.611 129.122 101.599 129.182 101.589C129.238 101.58 129.298 101.571 129.354 101.564C129.392 101.558 129.43 101.552 129.471 101.549C129.536 101.539 129.602 101.533 129.668 101.527C129.7 101.524 129.731 101.52 129.762 101.517C129.86 101.508 129.954 101.499 130.051 101.492C130.054 101.492 130.057 101.492 130.064 101.492C130.155 101.486 130.246 101.48 130.334 101.477C130.478 101.47 130.622 101.467 130.767 101.47C130.795 101.47 130.826 101.47 130.855 101.47C130.996 101.473 131.137 101.477 131.275 101.486C131.3 101.486 131.322 101.489 131.347 101.492C131.464 101.502 131.583 101.511 131.699 101.524C131.721 101.527 131.746 101.53 131.768 101.53C131.897 101.546 132.025 101.564 132.154 101.586C132.182 101.593 132.21 101.596 132.242 101.602C132.352 101.621 132.458 101.643 132.565 101.668C132.584 101.671 132.603 101.677 132.622 101.68C132.744 101.709 132.863 101.74 132.983 101.774C133.014 101.784 133.045 101.793 133.077 101.803C133.155 101.825 133.231 101.85 133.309 101.875C133.34 101.884 133.372 101.897 133.403 101.906C133.507 101.944 133.613 101.981 133.717 102.022L132.562 101.351C132.458 101.31 132.355 101.273 132.251 101.235C132.22 101.223 132.189 101.213 132.157 101.204C132.082 101.179 132.003 101.154 131.925 101.132C131.906 101.126 131.884 101.119 131.865 101.113C131.853 101.11 131.84 101.107 131.828 101.104C131.708 101.069 131.589 101.038 131.467 101.01C131.448 101.006 131.429 101 131.41 100.997C131.303 100.972 131.194 100.95 131.087 100.931C131.068 100.928 131.052 100.925 131.034 100.922C131.021 100.919 131.012 100.919 130.999 100.916C130.87 100.894 130.745 100.875 130.613 100.859C130.591 100.856 130.566 100.853 130.541 100.853C130.425 100.84 130.309 100.831 130.189 100.822C130.174 100.822 130.158 100.818 130.139 100.818C130.133 100.818 130.123 100.818 130.117 100.818C129.979 100.809 129.838 100.806 129.697 100.803C129.668 100.803 129.637 100.803 129.609 100.803C129.464 100.803 129.32 100.803 129.176 100.809C129.172 100.809 129.169 100.809 129.166 100.809C129.081 100.812 128.997 100.818 128.912 100.825C128.906 100.825 128.902 100.825 128.896 100.825C128.799 100.831 128.705 100.84 128.607 100.85C128.576 100.853 128.545 100.856 128.513 100.859C128.447 100.865 128.381 100.875 128.316 100.881C128.278 100.887 128.24 100.89 128.203 100.897C128.159 100.903 128.112 100.909 128.068 100.916C128.055 100.919 128.043 100.919 128.03 100.922C127.97 100.931 127.911 100.941 127.851 100.953C127.804 100.963 127.76 100.969 127.713 100.978C127.65 100.991 127.587 101.003 127.525 101.016C127.481 101.025 127.437 101.032 127.393 101.041C127.327 101.057 127.258 101.072 127.189 101.088C127.151 101.097 127.11 101.107 127.073 101.116C126.988 101.135 126.906 101.157 126.822 101.182C126.8 101.188 126.778 101.191 126.756 101.198H126.753C126.624 101.232 126.495 101.27 126.37 101.307C126.332 101.32 126.297 101.329 126.26 101.342C126.163 101.373 126.062 101.405 125.965 101.439C125.93 101.452 125.896 101.461 125.861 101.473C125.733 101.517 125.604 101.564 125.475 101.611C125.456 101.618 125.438 101.627 125.419 101.633C125.306 101.677 125.196 101.721 125.083 101.765C125.064 101.771 125.048 101.777 125.029 101.787C125.014 101.793 124.995 101.803 124.979 101.809C124.825 101.872 124.672 101.937 124.518 102.009C124.502 102.016 124.49 102.022 124.474 102.028C124.33 102.094 124.182 102.163 124.038 102.235C124.009 102.248 123.981 102.263 123.953 102.276C123.802 102.351 123.649 102.429 123.498 102.511C123.466 102.527 123.435 102.545 123.404 102.561C123.247 102.646 123.09 102.733 122.933 102.824C122.826 102.887 122.72 102.947 122.616 103.012C122.578 103.034 122.541 103.059 122.503 103.081C122.434 103.122 122.365 103.166 122.296 103.207C122.252 103.235 122.211 103.26 122.167 103.288C122.104 103.329 122.042 103.37 121.979 103.41C121.932 103.439 121.888 103.47 121.841 103.501C121.781 103.542 121.721 103.58 121.659 103.62C121.612 103.652 121.565 103.686 121.517 103.718C121.458 103.758 121.401 103.796 121.342 103.837C121.291 103.871 121.244 103.906 121.194 103.94C121.138 103.981 121.081 104.022 121.025 104.062C120.974 104.1 120.924 104.134 120.874 104.172C120.818 104.213 120.764 104.254 120.708 104.294C120.657 104.332 120.607 104.37 120.56 104.407C120.504 104.451 120.45 104.492 120.394 104.536C120.344 104.573 120.293 104.614 120.246 104.652C120.19 104.695 120.136 104.739 120.08 104.783C120.03 104.824 119.983 104.865 119.932 104.902C119.876 104.946 119.823 104.99 119.766 105.037C119.716 105.078 119.666 105.122 119.615 105.162C119.562 105.209 119.506 105.253 119.452 105.3C119.402 105.344 119.352 105.385 119.305 105.429C119.251 105.476 119.195 105.523 119.142 105.57C119.091 105.614 119.044 105.658 118.994 105.702C118.941 105.749 118.887 105.799 118.834 105.846C118.784 105.89 118.737 105.937 118.686 105.981C118.633 106.031 118.58 106.078 118.526 106.128C118.476 106.175 118.429 106.219 118.379 106.266C118.326 106.316 118.272 106.366 118.219 106.416C118.169 106.463 118.122 106.51 118.071 106.557C118.031 106.595 117.993 106.636 117.952 106.673C117.943 106.683 117.93 106.695 117.921 106.705C117.798 106.827 117.676 106.949 117.557 107.071C117.538 107.093 117.516 107.112 117.497 107.134C117.393 107.24 117.293 107.347 117.189 107.454C117.152 107.494 117.114 107.532 117.08 107.573C116.989 107.67 116.897 107.77 116.806 107.87C116.775 107.905 116.744 107.939 116.712 107.974C116.593 108.106 116.477 108.237 116.358 108.375C116.355 108.381 116.348 108.384 116.345 108.391C116.307 108.435 116.267 108.482 116.229 108.526C116.172 108.588 116.119 108.654 116.063 108.717C116.019 108.77 115.975 108.823 115.928 108.877C115.874 108.939 115.821 109.005 115.768 109.068C115.724 109.121 115.677 109.177 115.633 109.234C115.579 109.3 115.529 109.362 115.476 109.428C115.432 109.485 115.388 109.541 115.341 109.597C115.291 109.663 115.237 109.729 115.187 109.792C115.178 109.804 115.165 109.817 115.156 109.833C115.143 109.848 115.13 109.867 115.115 109.886C114.961 110.086 114.807 110.287 114.657 110.491C114.657 110.491 114.657 110.491 114.657 110.494C114.506 110.698 114.355 110.908 114.208 111.118C114.195 111.136 114.183 111.152 114.17 111.171C114.164 111.18 114.158 111.193 114.148 111.202C114.023 111.381 113.897 111.566 113.772 111.748C113.746 111.788 113.718 111.826 113.693 111.867C113.567 112.058 113.439 112.249 113.316 112.44L114.471 113.111C114.597 112.917 114.722 112.725 114.848 112.537C114.873 112.497 114.901 112.459 114.926 112.418C115.049 112.24 115.171 112.055 115.3 111.876Z" fill="#BABDBF"/>
<path d="M124.079 103.494C127.506 101.52 130.934 100.902 133.714 102.021C133.36 102.701 133.008 103.384 132.654 104.065C130.18 103.071 127.13 103.619 124.085 105.375C121.038 107.133 117.993 110.095 115.536 113.931C115.178 113.658 114.823 113.386 114.469 113.116C117.231 108.8 120.652 105.469 124.079 103.494Z" fill="#6D6E70"/>
<path d="M114.607 112.9C114.563 112.969 114.516 113.041 114.472 113.114H114.469C114.513 113.045 114.557 112.972 114.607 112.9Z" fill="#6D6E70"/>
<path d="M117.475 129.041C117.763 129.041 118.052 128.966 118.306 128.822L125.961 124.509C126.495 124.208 126.824 123.644 126.824 123.033L126.821 113.483C126.821 112.549 126.058 111.787 125.123 111.787C124.834 111.787 124.546 111.862 124.291 112.007L116.637 116.319C116.103 116.62 115.773 117.184 115.773 117.795L115.777 127.346C115.777 128.28 116.539 129.041 117.475 129.041Z" fill="#BABDBF"/>
<path d="M116.402 117.792L116.405 127.342C116.405 128.157 117.287 128.671 117.997 128.27L125.652 123.957C125.987 123.769 126.195 123.411 126.195 123.029L126.191 113.479C126.191 112.664 125.313 112.15 124.6 112.551L116.945 116.864C116.609 117.052 116.402 117.409 116.402 117.792Z" fill="#6D6E70"/>
<path d="M114.109 119.19L114.586 119.443L116.234 118.484L115.757 118.23L114.109 119.19Z" fill="#BABDBF"/>
<path d="M114.109 119.189V119.537L114.59 119.788L114.586 119.443L114.109 119.189Z" fill="#BAC1C6"/>
<path d="M114.586 119.443L114.589 119.788L116.237 118.829L116.234 118.484L114.586 119.443Z" fill="#6D6E70"/>
<path d="M114.109 127.527L114.586 127.777L116.234 126.818L115.757 126.564L114.109 127.527Z" fill="#BABDBF"/>
<path d="M114.109 127.527V127.872L114.59 128.123L114.586 127.778L114.109 127.527Z" fill="#BAC1C6"/>
<path d="M114.586 127.777L114.589 128.122L116.237 127.163L116.234 126.818L114.586 127.777Z" fill="#6D6E70"/>
<path d="M114.074 117.682L114.63 118.005L115.188 117.682L114.633 117.359L114.074 117.682Z" fill="#6D6E70"/>
<path d="M114.074 117.682L114.08 139.389L114.636 139.712L114.63 118.004L114.074 117.682Z" fill="#BABDBF"/>
<path d="M114.629 118.003L114.635 139.713L115.197 139.391L115.188 117.68L114.629 118.003Z" fill="#6D6E70"/>
<path d="M47.5797 127.719C47.5765 127.672 47.5765 127.629 47.5734 127.582C47.5734 127.56 47.5703 127.541 47.5671 127.519C47.5671 127.509 47.5671 127.5 47.564 127.491C47.564 127.475 47.5608 127.459 47.5608 127.444C47.5577 127.397 47.5514 127.35 47.5452 127.306C47.5389 127.259 47.5326 127.212 47.5232 127.165V127.162C47.5232 127.158 47.5232 127.158 47.5232 127.155C47.5169 127.111 47.5075 127.068 47.4981 127.021C47.4887 126.97 47.4792 126.923 47.4667 126.873C47.4635 126.854 47.4573 126.839 47.4541 126.82C47.451 126.811 47.4479 126.798 47.4479 126.789C47.4416 126.767 47.4384 126.745 47.4322 126.723C47.4196 126.673 47.4071 126.622 47.3914 126.572C47.3819 126.535 47.3694 126.5 47.36 126.463C47.3568 126.456 47.3568 126.45 47.3537 126.444C47.3506 126.438 47.3506 126.431 47.3474 126.425C47.3317 126.375 47.316 126.328 47.3003 126.278C47.2847 126.231 47.2658 126.181 47.2501 126.134C47.247 126.124 47.2438 126.115 47.2407 126.105C47.2376 126.099 47.2344 126.093 47.2313 126.083C47.2187 126.052 47.2093 126.024 47.1968 125.993C47.1779 125.945 47.1591 125.902 47.1403 125.855C47.1277 125.82 47.112 125.789 47.0963 125.754C47.0932 125.748 47.0901 125.742 47.0901 125.739C47.0869 125.732 47.0838 125.726 47.0806 125.72C47.0587 125.673 47.0398 125.629 47.0179 125.582C46.9928 125.532 46.9708 125.482 46.9457 125.431C46.9425 125.425 46.9363 125.416 46.9331 125.41C46.9269 125.4 46.9237 125.391 46.9174 125.381C46.8955 125.341 46.8766 125.303 46.8547 125.262C46.8296 125.212 46.7982 125.165 46.7731 125.118C46.7605 125.093 46.7448 125.068 46.7323 125.043C46.726 125.033 46.7197 125.024 46.7166 125.015C46.6915 124.971 46.6632 124.933 46.6381 124.889C46.6004 124.83 46.5628 124.767 46.522 124.707C46.5157 124.698 46.5094 124.689 46.5031 124.679C46.4435 124.595 46.3839 124.51 46.3243 124.425C46.3243 124.425 46.3243 124.425 46.3243 124.422C46.2835 124.366 46.2395 124.313 46.1956 124.256C46.161 124.212 46.1265 124.168 46.0889 124.128L46.0857 124.124C46.0857 124.124 46.0857 124.124 46.0857 124.121C46.0481 124.077 46.0135 124.037 45.9759 123.993C45.9382 123.952 45.9005 123.911 45.866 123.871C45.8597 123.864 45.8535 123.858 45.8472 123.852C45.8409 123.846 45.8346 123.839 45.8284 123.83C45.8033 123.802 45.775 123.773 45.7499 123.748C45.7091 123.708 45.6714 123.67 45.6306 123.629C45.6181 123.617 45.6055 123.607 45.593 123.595C45.5836 123.585 45.5741 123.576 45.5647 123.57C45.5459 123.551 45.5239 123.532 45.5051 123.516C45.4643 123.479 45.4204 123.441 45.3796 123.407C45.3607 123.391 45.3419 123.375 45.3231 123.363C45.3136 123.357 45.3042 123.347 45.2948 123.341C45.2791 123.328 45.2666 123.319 45.254 123.306C45.2132 123.275 45.1693 123.244 45.1285 123.212C45.0971 123.19 45.0688 123.169 45.0374 123.147C45.0312 123.143 45.0249 123.137 45.0218 123.134C45.0155 123.131 45.0123 123.128 45.0061 123.122C44.9653 123.093 44.9245 123.068 44.8837 123.043C44.8429 123.018 44.8021 122.993 44.7644 122.971C44.755 122.965 44.7456 122.962 44.7361 122.955C44.7048 122.937 44.6765 122.921 44.6451 122.905C44.6326 122.899 44.6232 122.893 44.6106 122.886C44.5949 122.877 44.5792 122.871 44.5635 122.861C44.551 122.855 44.5384 122.849 44.529 122.843C44.5102 122.833 44.4913 122.824 44.4725 122.814C44.46 122.808 44.4443 122.802 44.4317 122.796C44.4254 122.792 44.4192 122.789 44.416 122.789C44.3783 122.774 44.3407 122.758 44.303 122.742C44.303 122.742 44.303 122.742 44.2999 122.742C44.2622 122.727 44.2246 122.714 44.1869 122.702C44.1806 122.698 44.1775 122.698 44.1712 122.695C44.1587 122.692 44.143 122.686 44.1304 122.683C44.1116 122.676 44.0927 122.67 44.0708 122.664C44.0614 122.661 44.0519 122.658 44.0425 122.658C44.0268 122.651 44.008 122.648 43.9923 122.645C43.9798 122.642 43.9672 122.639 43.9546 122.636C43.9421 122.633 43.9264 122.629 43.9138 122.626C43.8981 122.623 43.8793 122.62 43.8636 122.617C43.8542 122.614 43.8448 122.614 43.8385 122.611C43.8228 122.608 43.8071 122.604 43.7914 122.604C43.7726 122.601 43.7538 122.598 43.7349 122.595C43.7287 122.595 43.7224 122.592 43.7161 122.592C43.7004 122.589 43.6847 122.589 43.669 122.589C43.6471 122.586 43.6282 122.586 43.6063 122.582C43.6 122.582 43.5937 122.582 43.5874 122.579C43.5749 122.579 43.5592 122.579 43.5466 122.579C43.5215 122.579 43.4996 122.576 43.4744 122.576C43.4682 122.576 43.4619 122.576 43.4556 122.576C43.4462 122.576 43.4336 122.576 43.4242 122.579C43.3928 122.579 43.3646 122.582 43.3363 122.582C43.3269 122.582 43.3175 122.582 43.3081 122.582C43.3018 122.582 43.2955 122.586 43.2893 122.586C43.2453 122.592 43.1983 122.598 43.1575 122.604C43.1543 122.604 43.1512 122.604 43.1449 122.608C43.1449 122.608 43.1449 122.608 43.1418 122.608C43.079 122.62 43.0194 122.639 42.9597 122.658C42.9534 122.661 42.9503 122.661 42.944 122.661C42.9409 122.661 42.9346 122.664 42.9315 122.667C42.9064 122.676 42.8813 122.686 42.8562 122.698C42.8436 122.705 42.831 122.708 42.8216 122.714C42.784 122.73 42.7494 122.749 42.7149 122.77L40.5273 124.056C40.5619 124.037 40.5964 124.018 40.6341 123.999C40.6466 123.993 40.6592 123.99 40.6686 123.983C40.6937 123.974 40.7188 123.962 40.7439 123.952C40.7533 123.949 40.7627 123.946 40.7722 123.943C40.8318 123.924 40.8914 123.905 40.9511 123.893C40.9542 123.893 40.9605 123.893 40.9636 123.889C41.0075 123.88 41.0515 123.874 41.0954 123.871C41.1111 123.867 41.1268 123.867 41.1425 123.867C41.1707 123.864 41.2021 123.864 41.2304 123.864C41.2461 123.864 41.2649 123.864 41.2806 123.864C41.3057 123.864 41.3277 123.864 41.3528 123.867C41.3716 123.867 41.3904 123.867 41.4124 123.871C41.4312 123.871 41.4532 123.874 41.4752 123.877C41.4972 123.88 41.5191 123.88 41.5442 123.883C41.5631 123.886 41.5819 123.889 41.6007 123.893C41.6258 123.896 41.6509 123.902 41.6729 123.905C41.6886 123.908 41.7074 123.911 41.7231 123.914C41.7482 123.921 41.7765 123.927 41.8016 123.933C41.8173 123.936 41.8361 123.943 41.8518 123.946C41.8801 123.955 41.9114 123.962 41.9397 123.971C41.9522 123.974 41.9679 123.98 41.9805 123.983C42.0244 123.999 42.0652 124.012 42.1092 124.03C42.1531 124.046 42.1971 124.065 42.241 124.087C42.2536 124.093 42.2692 124.099 42.2818 124.106C42.3132 124.121 42.3446 124.134 42.376 124.15C42.3916 124.156 42.4073 124.165 42.423 124.175C42.4638 124.197 42.5046 124.219 42.5486 124.244C42.6459 124.3 42.74 124.36 42.8342 124.422C42.8405 124.425 42.8467 124.432 42.8499 124.435C42.9378 124.494 43.0225 124.56 43.1104 124.626C43.1198 124.632 43.1292 124.642 43.1386 124.648C43.2202 124.714 43.3018 124.786 43.3803 124.858C43.3897 124.867 43.3991 124.877 43.4085 124.883C43.4901 124.958 43.5686 125.037 43.6471 125.118C43.6533 125.124 43.6596 125.131 43.6659 125.14C43.7475 125.228 43.8291 125.319 43.9076 125.41L43.9107 125.413C43.9923 125.507 44.0676 125.607 44.143 125.707C44.143 125.707 44.143 125.707 44.143 125.71C44.212 125.801 44.2779 125.895 44.3407 125.993C44.3815 126.052 44.4192 126.112 44.4568 126.174C44.4882 126.224 44.5227 126.278 44.5541 126.328C44.5698 126.353 44.5824 126.378 44.5949 126.403C44.6451 126.491 44.6922 126.579 44.7393 126.666C44.7456 126.676 44.7487 126.685 44.755 126.695C44.8115 126.804 44.8617 126.911 44.9119 127.024C44.915 127.03 44.9182 127.036 44.9182 127.039C44.9653 127.149 45.0092 127.256 45.0531 127.365C45.0563 127.372 45.0594 127.381 45.0626 127.387C45.1034 127.5 45.1442 127.613 45.1787 127.726C45.1818 127.732 45.1818 127.738 45.185 127.748C45.2195 127.857 45.2477 127.964 45.2728 128.074C45.276 128.083 45.2791 128.096 45.2791 128.105C45.3042 128.218 45.3293 128.328 45.345 128.44C45.345 128.443 45.345 128.443 45.345 128.447C45.3639 128.559 45.3764 128.669 45.3858 128.782C45.3858 128.791 45.3858 128.801 45.389 128.81C45.3984 128.92 45.4047 129.03 45.4047 129.139C45.4047 129.246 45.4015 129.352 45.3921 129.45C45.3921 129.459 45.389 129.468 45.389 129.478C45.3795 129.569 45.367 129.656 45.3513 129.744C45.3482 129.757 45.3482 129.766 45.345 129.779C45.3293 129.86 45.3074 129.939 45.2854 130.014C45.2823 130.029 45.276 130.042 45.2728 130.054C45.2509 130.127 45.2226 130.192 45.1944 130.258C45.1912 130.264 45.1881 130.274 45.185 130.28C45.1504 130.352 45.1128 130.424 45.072 130.487C45.0657 130.496 45.0594 130.503 45.0531 130.512C45.0186 130.565 44.981 130.612 44.9433 130.659C44.9307 130.675 44.915 130.691 44.8994 130.706C44.8648 130.744 44.8303 130.779 44.7926 130.81C44.7769 130.822 44.7613 130.838 44.7456 130.851C44.6922 130.891 44.6388 130.932 44.5824 130.967L46.7699 129.682C46.8264 129.647 46.8829 129.609 46.9331 129.566C46.9488 129.553 46.9645 129.54 46.9802 129.525C47.0179 129.493 47.0524 129.459 47.0869 129.421C47.1026 129.406 47.1152 129.39 47.1309 129.374C47.1685 129.327 47.2062 129.28 47.2407 129.227C47.247 129.218 47.2533 129.211 47.2595 129.202C47.2595 129.199 47.2627 129.199 47.2627 129.196C47.3003 129.136 47.338 129.07 47.3694 129.001C47.3694 128.998 47.3725 128.995 47.3725 128.995C47.3757 128.989 47.3788 128.979 47.3819 128.973C47.4008 128.929 47.4196 128.885 47.4384 128.842C47.4479 128.82 47.4541 128.795 47.4604 128.769C47.4635 128.757 47.4698 128.741 47.473 128.729C47.4761 128.716 47.4824 128.704 47.4855 128.691C47.4981 128.644 47.5106 128.597 47.5232 128.547C47.5263 128.528 47.5295 128.512 47.5326 128.494C47.5357 128.481 47.5357 128.472 47.5389 128.459C47.542 128.44 47.5451 128.425 47.5483 128.409C47.5546 128.365 47.5608 128.318 47.5671 128.274C47.5703 128.249 47.5734 128.221 47.5734 128.196C47.5734 128.186 47.5765 128.177 47.5765 128.168C47.5765 128.158 47.5797 128.146 47.5797 128.136C47.5828 128.092 47.586 128.049 47.586 128.002C47.5891 127.958 47.5891 127.911 47.5891 127.864C47.5891 127.861 47.5891 127.857 47.5891 127.854C47.5797 127.804 47.5797 127.763 47.5797 127.719Z" fill="#003654"/>
<path d="M42.5342 124.244C44.1097 125.14 45.3903 127.331 45.3965 129.133C45.3997 130.935 44.1286 131.669 42.5499 130.772C40.9743 129.876 39.6938 127.685 39.6875 125.883C39.6844 124.081 40.9586 123.347 42.5342 124.244ZM42.5467 129.569C43.5417 130.136 44.3451 129.672 44.342 128.534C44.3388 127.397 43.5291 126.015 42.5373 125.447C41.5424 124.88 40.7389 125.344 40.7421 126.482C40.7452 127.619 41.5518 129.001 42.5467 129.569Z" fill="#333638"/>
<path d="M42.5342 124.244C40.9586 123.347 39.6844 124.081 39.6875 125.883C39.6906 127.685 40.9743 129.876 42.5499 130.772C44.1254 131.669 45.3997 130.935 45.3965 129.133C45.3903 127.331 44.1097 125.14 42.5342 124.244Z" fill="#333638"/>
<path d="M42.5383 125.23C41.4398 124.603 40.5516 125.117 40.5547 126.374C40.5578 127.631 41.4523 129.157 42.5508 129.781C43.6493 130.408 44.5375 129.894 44.5344 128.637C44.5281 127.383 43.6368 125.857 42.5383 125.23Z" fill="white"/>
<path d="M42.5383 125.23C41.4398 124.603 40.5516 125.117 40.5547 126.374C40.5578 127.631 41.4523 129.157 42.5508 129.781C43.6493 130.408 44.5375 129.894 44.5344 128.637C44.5281 127.383 43.6368 125.857 42.5383 125.23Z" fill="#151515"/>
<path d="M43.627 129.01C44.1619 128.696 44.1551 127.694 43.6119 126.772C43.0686 125.85 42.1947 125.357 41.6598 125.671C41.125 125.985 41.1318 126.988 41.675 127.91C42.2182 128.832 43.0922 129.324 43.627 129.01Z" fill="#5D6366"/>
<path d="M43.2917 128.054C43.2917 127.574 42.9496 126.988 42.5291 126.75C42.1085 126.512 41.7695 126.706 41.7695 127.186C41.7695 127.665 42.1116 128.251 42.5322 128.49C42.9528 128.731 43.2917 128.537 43.2917 128.054Z" fill="#B2BBBF"/>
<path d="M74.1312 142.695C74.1281 142.648 74.1281 142.604 74.1249 142.557C74.1249 142.535 74.1218 142.517 74.1187 142.495C74.1187 142.485 74.1187 142.476 74.1155 142.466C74.1155 142.451 74.1124 142.435 74.1124 142.419C74.1093 142.372 74.103 142.325 74.0967 142.282C74.0904 142.235 74.0841 142.188 74.0747 142.141V142.137C74.0747 142.134 74.0747 142.134 74.0747 142.131C74.0685 142.087 74.059 142.043 74.0496 141.996C74.0402 141.946 74.0308 141.899 74.0182 141.849C74.0151 141.83 74.0088 141.815 74.0057 141.796C74.0025 141.786 73.9994 141.774 73.9994 141.764C73.9931 141.742 73.99 141.721 73.9837 141.699C73.9712 141.648 73.9586 141.598 73.9429 141.548C73.9335 141.511 73.9209 141.476 73.9115 141.438C73.9084 141.432 73.9084 141.426 73.9052 141.42C73.9021 141.413 73.9021 141.407 73.899 141.401C73.8833 141.351 73.8676 141.304 73.8519 141.254C73.8362 141.206 73.8174 141.156 73.8017 141.109C73.7985 141.1 73.7954 141.091 73.7923 141.081C73.7891 141.075 73.786 141.069 73.7828 141.059C73.7703 141.028 73.7609 141 73.7483 140.968C73.7295 140.921 73.7107 140.877 73.6918 140.83C73.6793 140.796 73.6636 140.765 73.6479 140.73C73.6447 140.724 73.6416 140.718 73.6416 140.714C73.6385 140.708 73.6353 140.702 73.6322 140.696C73.6102 140.649 73.5914 140.605 73.5694 140.558C73.5443 140.508 73.5223 140.457 73.4972 140.407C73.4941 140.401 73.4878 140.392 73.4847 140.385C73.4784 140.376 73.4753 140.367 73.469 140.357C73.447 140.316 73.4282 140.279 73.4062 140.238C73.3811 140.188 73.3497 140.141 73.3246 140.094C73.3121 140.069 73.2964 140.044 73.2838 140.019C73.2775 140.009 73.2744 140 73.2681 139.99C73.243 139.947 73.2148 139.909 73.1897 139.865C73.152 139.805 73.1143 139.743 73.0735 139.683C73.0673 139.674 73.061 139.664 73.0547 139.655C72.9951 139.57 72.9354 139.486 72.8758 139.401C72.8758 139.401 72.8758 139.401 72.8758 139.398C72.835 139.342 72.7911 139.288 72.7471 139.232C72.7126 139.188 72.6781 139.144 72.6404 139.103L72.6373 139.1C72.6373 139.1 72.6373 139.1 72.6373 139.097C72.5996 139.053 72.5651 139.013 72.5274 138.969C72.4898 138.928 72.4521 138.887 72.4176 138.846C72.4113 138.84 72.405 138.834 72.3987 138.828C72.3925 138.821 72.3862 138.815 72.3799 138.806C72.3548 138.777 72.3266 138.749 72.3014 138.724C72.2606 138.683 72.223 138.646 72.1822 138.605C72.1696 138.593 72.1571 138.583 72.1445 138.571C72.1351 138.561 72.1257 138.552 72.1163 138.546C72.0974 138.527 72.0755 138.508 72.0566 138.492C72.0158 138.455 71.9719 138.417 71.9311 138.383C71.9123 138.367 71.8934 138.351 71.8746 138.339C71.8652 138.332 71.8558 138.323 71.8464 138.317C71.8338 138.304 71.8181 138.295 71.8056 138.282C71.7648 138.251 71.7208 138.22 71.68 138.188C71.6486 138.166 71.6204 138.144 71.589 138.122C71.5827 138.119 71.5764 138.113 71.5733 138.11C71.567 138.107 71.5639 138.104 71.5576 138.097C71.5168 138.069 71.476 138.044 71.4352 138.019C71.3944 137.994 71.3536 137.969 71.3159 137.947C71.3065 137.941 71.2971 137.937 71.2877 137.931C71.2563 137.912 71.2281 137.897 71.1967 137.881C71.1841 137.875 71.1747 137.869 71.1622 137.862C71.1465 137.853 71.1308 137.847 71.1151 137.837C71.1025 137.831 71.09 137.825 71.0805 137.818C71.0617 137.809 71.0429 137.8 71.0241 137.79C71.0115 137.784 70.9958 137.778 70.9833 137.771C70.977 137.768 70.9707 137.765 70.9676 137.762C70.9299 137.746 70.8922 137.731 70.8546 137.715C70.8546 137.715 70.8546 137.715 70.8514 137.715C70.8138 137.699 70.7761 137.687 70.7384 137.674C70.7322 137.671 70.729 137.671 70.7228 137.668C70.7102 137.665 70.6945 137.659 70.682 137.655C70.6631 137.649 70.6443 137.643 70.6223 137.637C70.6129 137.633 70.6035 137.63 70.5941 137.63C70.5784 137.624 70.5595 137.621 70.5439 137.618C70.5313 137.615 70.5187 137.612 70.5062 137.608C70.4936 137.605 70.4779 137.602 70.4654 137.599C70.4497 137.596 70.4309 137.593 70.4152 137.59C70.4058 137.586 70.3963 137.586 70.3901 137.583C70.3744 137.58 70.3587 137.577 70.343 137.577C70.3242 137.574 70.3053 137.571 70.2865 137.568C70.2802 137.568 70.2739 137.565 70.2677 137.565C70.252 137.561 70.2363 137.561 70.2206 137.561C70.1986 137.558 70.1798 137.558 70.1578 137.555C70.1515 137.555 70.1453 137.555 70.139 137.552C70.1264 137.552 70.1107 137.552 70.0982 137.552C70.0731 137.552 70.0511 137.549 70.026 137.549C70.0197 137.549 70.0134 137.549 70.0072 137.549C69.9977 137.549 69.9852 137.549 69.9758 137.552C69.9444 137.552 69.9161 137.555 69.8879 137.555C69.8785 137.555 69.8691 137.555 69.8596 137.555C69.8534 137.555 69.8471 137.558 69.8408 137.558C69.7969 137.564 69.7498 137.571 69.709 137.577C69.7059 137.577 69.7027 137.577 69.6964 137.58C69.6964 137.58 69.6964 137.58 69.6933 137.58C69.6305 137.593 69.5709 137.612 69.5144 137.63C69.5081 137.633 69.505 137.633 69.4987 137.633C69.4956 137.633 69.4893 137.637 69.4862 137.64C69.4611 137.649 69.4359 137.659 69.4108 137.671C69.3983 137.677 69.3857 137.68 69.3763 137.687C69.3387 137.702 69.3041 137.721 69.2696 137.743L67.082 139.028C67.1166 139.009 67.1511 138.991 67.1887 138.972C67.2013 138.966 67.2138 138.962 67.2233 138.956C67.2484 138.947 67.2735 138.934 67.2986 138.925C67.308 138.922 67.3174 138.918 67.3268 138.915C67.3865 138.897 67.4461 138.878 67.5057 138.865C67.5089 138.865 67.5152 138.865 67.5183 138.862C67.5622 138.853 67.6062 138.846 67.6501 138.843C67.6658 138.84 67.6815 138.84 67.6972 138.84C67.7254 138.837 67.7568 138.837 67.7851 138.837C67.8008 138.837 67.8196 138.837 67.8353 138.837C67.8604 138.837 67.8824 138.837 67.9075 138.84C67.9263 138.84 67.9451 138.84 67.9671 138.843C67.9859 138.843 68.0079 138.846 68.0299 138.85C68.0518 138.853 68.0738 138.853 68.0989 138.856C68.1178 138.859 68.1366 138.862 68.1554 138.865C68.1805 138.868 68.2056 138.875 68.2276 138.878C68.2433 138.881 68.2621 138.884 68.2778 138.887C68.3029 138.893 68.3312 138.9 68.3563 138.906C68.372 138.909 68.3908 138.915 68.4065 138.918C68.4347 138.928 68.463 138.934 68.4944 138.944C68.5069 138.947 68.5226 138.953 68.5352 138.956C68.5791 138.972 68.6199 138.984 68.6639 139.003C68.7078 139.019 68.7517 139.038 68.7957 139.06C68.8082 139.066 68.8239 139.072 68.8365 139.078C68.8679 139.094 68.8993 139.107 68.9306 139.122C68.9463 139.128 68.962 139.138 68.9777 139.147C69.0185 139.169 69.0593 139.191 69.1033 139.216C69.2006 139.273 69.2947 139.332 69.3889 139.395C69.3951 139.398 69.4014 139.404 69.4046 139.407C69.4924 139.467 69.5772 139.533 69.6651 139.599C69.6745 139.605 69.6839 139.614 69.6933 139.621C69.7749 139.686 69.8565 139.758 69.935 139.831C69.9444 139.84 69.9538 139.849 69.9632 139.856C70.0448 139.931 70.1233 140.009 70.2018 140.091C70.208 140.097 70.2143 140.103 70.2206 140.113C70.3022 140.2 70.3838 140.291 70.4623 140.382L70.4654 140.385C70.547 140.479 70.6223 140.58 70.6976 140.68C70.6976 140.68 70.6976 140.68 70.6976 140.683C70.7667 140.774 70.8326 140.868 70.8954 140.965C70.9362 141.025 70.9738 141.084 71.0115 141.147C71.0429 141.197 71.0774 141.25 71.1088 141.301C71.1245 141.326 71.137 141.351 71.1496 141.376C71.1998 141.464 71.2469 141.551 71.294 141.639C71.3002 141.648 71.3034 141.658 71.3097 141.667C71.3662 141.777 71.4164 141.883 71.4666 141.996C71.4697 142.003 71.4729 142.009 71.4729 142.012C71.5199 142.122 71.5639 142.228 71.6078 142.338C71.611 142.344 71.6141 142.354 71.6172 142.36C71.658 142.473 71.6988 142.586 71.7334 142.698C71.7365 142.705 71.7365 142.711 71.7396 142.72C71.7742 142.83 71.8024 142.937 71.8275 143.046C71.8307 143.056 71.8338 143.068 71.8338 143.078C71.8589 143.19 71.884 143.3 71.8997 143.413C71.8997 143.416 71.8997 143.416 71.8997 143.419C71.9185 143.532 71.9311 143.642 71.9405 143.755C71.9405 143.764 71.9405 143.773 71.9436 143.783C71.9531 143.893 71.9593 144.002 71.9593 144.112C71.9593 144.219 71.9562 144.325 71.9468 144.422C71.9468 144.432 71.9436 144.441 71.9436 144.45C71.9342 144.541 71.9217 144.629 71.906 144.717C71.9028 144.729 71.9028 144.739 71.8997 144.751C71.884 144.833 71.862 144.911 71.8401 144.986C71.8369 145.002 71.8307 145.015 71.8275 145.027C71.8056 145.099 71.7773 145.165 71.7491 145.231C71.7459 145.237 71.7428 145.247 71.7396 145.253C71.7051 145.325 71.6675 145.397 71.6267 145.46C71.6204 145.469 71.6141 145.475 71.6078 145.485C71.5733 145.538 71.5356 145.585 71.498 145.632C71.4854 145.648 71.4697 145.663 71.454 145.679C71.4195 145.717 71.385 145.751 71.3473 145.783C71.3316 145.795 71.3159 145.811 71.3002 145.823C71.2469 145.864 71.1935 145.905 71.137 145.939L73.3246 144.654C73.3811 144.62 73.4376 144.582 73.4878 144.538C73.5035 144.526 73.5192 144.513 73.5349 144.497C73.5726 144.466 73.6071 144.432 73.6416 144.394C73.6573 144.378 73.6699 144.363 73.6855 144.347C73.7232 144.3 73.7609 144.253 73.7954 144.2C73.8017 144.19 73.808 144.184 73.8142 144.175C73.8142 144.171 73.8174 144.171 73.8174 144.168C73.855 144.109 73.8927 144.043 73.9241 143.974C73.9241 143.971 73.9272 143.968 73.9272 143.968C73.9304 143.962 73.9335 143.952 73.9366 143.946C73.9555 143.902 73.9743 143.858 73.9931 143.814C74.0025 143.792 74.0088 143.767 74.0151 143.745C74.0182 143.733 74.0245 143.717 74.0276 143.704C74.0308 143.692 74.0371 143.679 74.0402 143.667C74.0528 143.62 74.0653 143.573 74.0779 143.523C74.081 143.504 74.0841 143.488 74.0873 143.469C74.0904 143.457 74.0904 143.447 74.0936 143.435C74.0967 143.416 74.0998 143.4 74.103 143.385C74.1093 143.341 74.1155 143.294 74.1218 143.25C74.1249 143.225 74.1281 143.197 74.1281 143.172C74.1281 143.162 74.1312 143.153 74.1312 143.143C74.1312 143.134 74.1344 143.122 74.1344 143.112C74.1375 143.068 74.1406 143.024 74.1406 142.977C74.1438 142.933 74.1438 142.886 74.1438 142.839C74.1438 142.836 74.1438 142.833 74.1438 142.83C74.1312 142.78 74.1312 142.736 74.1312 142.695Z" fill="#003654"/>
<path d="M69.085 139.216C70.6605 140.113 71.941 142.304 71.9473 144.106C71.9505 145.908 70.6793 146.641 69.1006 145.745C67.5251 144.849 66.2446 142.658 66.2383 140.856C66.2351 139.053 67.5094 138.32 69.085 139.216ZM69.0975 144.541C70.0924 145.109 70.8959 144.645 70.8928 143.507C70.8896 142.369 70.0799 140.987 69.0881 140.42C68.0932 139.853 67.2897 140.316 67.2928 141.454C67.296 142.595 68.1026 143.974 69.0975 144.541Z" fill="#333638"/>
<path d="M69.085 139.216C67.5094 138.32 66.2351 139.053 66.2383 140.856C66.2414 142.658 67.5251 144.849 69.1006 145.745C70.6762 146.641 71.9505 145.908 71.9473 144.106C71.941 142.304 70.6605 140.116 69.085 139.216Z" fill="#333638"/>
<path d="M69.089 140.207C67.9906 139.58 67.1023 140.094 67.1055 141.351C67.1086 142.608 68.0031 144.134 69.1016 144.758C70.2001 145.384 71.0883 144.87 71.0852 143.614C71.0789 142.357 70.1875 140.83 69.089 140.207Z" fill="white"/>
<path d="M69.089 140.207C67.9906 139.58 67.1023 140.094 67.1055 141.351C67.1086 142.608 68.0031 144.134 69.1016 144.758C70.2001 145.384 71.0883 144.87 71.0852 143.614C71.0789 142.357 70.1875 140.83 69.089 140.207Z" fill="#151515"/>
<path d="M70.5744 143.103C70.5713 142.232 69.953 141.173 69.1903 140.737C68.4277 140.305 67.8125 140.659 67.8125 141.53C67.8156 142.401 68.4339 143.461 69.1966 143.896C69.9624 144.329 70.5776 143.975 70.5744 143.103Z" fill="#5D6366"/>
<path d="M69.6706 142.968C69.6706 142.489 69.3285 141.902 68.908 141.664C68.4874 141.426 68.1484 141.62 68.1484 142.1C68.1484 142.579 68.4905 143.166 68.9111 143.404C69.3317 143.645 69.6738 143.448 69.6706 142.968Z" fill="#B2BBBF"/>
<path d="M86.168 143.578L98.7976 136.25L98.7788 143.058L86.1523 150.385L86.168 143.578Z" fill="#FBAD32"/>
<path d="M92.0774 142.942L94.5914 141.484L94.5757 142.096L92.0586 143.553L92.0774 142.942Z" fill="#003654"/>
<path d="M86.1562 148.696L98.7858 141.344L98.7921 138.504L96.6014 139.72C95.9328 140.09 95.4275 140.701 95.1859 141.425L94.803 142.582L92.2199 144.052L92.0034 143.848C91.3976 143.281 90.4937 143.177 89.775 143.594L86.1625 145.697L86.1562 148.696Z" fill="#003654"/>
<path d="M86.1673 143.578V143.581L86.1485 150.386L73.4938 143.262C72.9477 141.419 71.6389 139.62 70.0791 138.733C69.4231 138.36 68.7734 138.172 68.1457 138.172C67.4019 138.172 66.7459 138.435 66.2438 138.94C66.1935 138.99 66.1433 139.043 66.0994 139.099L46.5211 128.076C45.9781 126.227 44.6693 124.422 43.1063 123.529C42.4504 123.156 41.7976 122.967 41.173 122.967C40.4292 122.967 39.7701 123.231 39.2679 123.735C39.2145 123.789 39.1643 123.848 39.111 123.905L27.3477 117.282L27.3633 110.603L27.3853 100.633L84.3438 132.674L84.4819 133.492L85.9947 142.553L86.1673 143.578Z" fill="#FBAD32"/>
<path d="M86.168 143.576L78.2118 139.113L77.4773 138.702L70.6541 134.878L69.9166 134.465L63.0965 130.638L62.3589 130.23L55.5389 126.403L54.8013 125.99L47.9812 122.163L47.2468 121.752L40.4236 117.928L39.6892 117.515L27.3672 110.607L27.3735 106.924L27.3797 104.363V103.689L27.386 102.871L27.3892 100.637L39.6892 107.554L40.4236 107.971L47.2468 111.807L47.9812 112.218L54.8013 116.054L55.5389 116.471L62.3589 120.31L63.0965 120.724L69.9166 124.557L70.6541 124.974L77.4773 128.81L78.2118 129.224L84.3476 132.678L84.4857 133.496L84.991 136.536L85.4681 139.367L85.9985 142.557L86.168 143.576Z" fill="#003654"/>
<path d="M78.1602 139.1L86.1603 143.579L84.3494 132.718L78.1602 129.236V139.1Z" fill="#003654"/>
<path d="M86.8156 143.014L85.9965 142.556L33.0898 113V104.795L84.4837 133.495L86.4515 134.595L86.8156 143.014Z" fill="#00B2CA"/>
<path d="M84.7574 135.135L78.1602 131.421V129.195L84.3462 132.677L84.7574 135.135Z" fill="#003654"/>
<path d="M84.3516 132.681L96.978 125.35L98.7983 136.251L86.1688 143.578L84.3516 132.681Z" fill="#003654"/>
<path d="M85.1484 133.054L86.7114 142.425L98.6787 135.53L97.1377 126.303L85.1484 133.054Z" fill="#00B2CA"/>
<path d="M97.386 127.785L96.978 125.35L84.3516 132.681L84.7564 135.113L97.386 127.785Z" fill="#003654"/>
<path d="M27.3867 100.633L40.0163 93.3047L96.9747 125.349L84.3483 132.68L27.3867 100.633Z" fill="#52ADC8"/>
<path d="M96.6962 124.591C96.693 124.585 96.6899 124.576 96.6868 124.569C96.6836 124.56 96.6773 124.547 96.6742 124.538C96.6711 124.529 96.6648 124.519 96.6617 124.507C96.6585 124.5 96.6554 124.494 96.6522 124.485C96.6522 124.485 96.6522 124.482 96.6491 124.482C96.6491 124.478 96.646 124.478 96.646 124.475C96.6397 124.466 96.6366 124.453 96.6303 124.444C96.624 124.431 96.6177 124.419 96.6114 124.406C96.6083 124.4 96.6052 124.394 96.602 124.388C96.5989 124.384 96.5957 124.378 96.5957 124.375C96.5926 124.369 96.5895 124.362 96.5832 124.356C96.5738 124.341 96.5644 124.325 96.5518 124.306C96.5455 124.297 96.5424 124.287 96.5361 124.281C96.5361 124.278 96.533 124.278 96.533 124.275C96.5204 124.259 96.511 124.24 96.4985 124.225C96.4922 124.215 96.4859 124.206 96.4765 124.196C96.4765 124.196 96.4765 124.193 96.4733 124.193C96.4733 124.193 96.4733 124.19 96.4702 124.19C96.4639 124.181 96.4545 124.171 96.4482 124.162C96.442 124.152 96.4325 124.143 96.4263 124.137C96.42 124.127 96.4106 124.121 96.4043 124.112C96.3949 124.102 96.3886 124.096 96.3792 124.087C96.3698 124.077 96.3635 124.071 96.3541 124.062C96.3447 124.055 96.3384 124.046 96.329 124.04C96.3195 124.033 96.3101 124.024 96.3039 124.018C96.2944 124.011 96.2882 124.002 96.2787 123.996C96.2725 123.989 96.2631 123.983 96.2536 123.977C96.2442 123.971 96.2379 123.964 96.2285 123.958C96.2191 123.952 96.2128 123.949 96.2034 123.942C96.194 123.936 96.1877 123.933 96.1783 123.927C96.1752 123.927 96.1752 123.924 96.172 123.924L40.6196 92.6877C40.6134 92.6846 40.6071 92.6815 40.6008 92.6783C40.5914 92.6752 40.5851 92.6689 40.5757 92.6658C40.5694 92.6627 40.56 92.6595 40.5537 92.6564C40.5474 92.6533 40.538 92.6501 40.5317 92.647C40.5255 92.6439 40.5161 92.6407 40.5098 92.6376C40.5066 92.6376 40.5066 92.6376 40.5035 92.6344C40.5035 92.6344 40.5035 92.6344 40.5004 92.6344C40.4941 92.6313 40.491 92.6313 40.4847 92.6282C40.4753 92.625 40.469 92.625 40.4596 92.6219C40.4501 92.6188 40.4439 92.6188 40.4345 92.6156C40.425 92.6125 40.4188 92.6125 40.4093 92.6125C40.4031 92.6125 40.3968 92.6125 40.3905 92.6094C40.3905 92.6094 40.3905 92.6094 40.3874 92.6094H40.3842C40.3748 92.6094 40.3654 92.6094 40.356 92.6094C40.3466 92.6094 40.3372 92.6094 40.3246 92.6094C40.3121 92.6094 40.3026 92.6125 40.2901 92.6156C40.2901 92.6156 40.2901 92.6156 40.2869 92.6156H40.2838C40.2713 92.6188 40.2587 92.6219 40.2461 92.625C40.2305 92.6313 40.2116 92.6376 40.1959 92.647L27.5727 99.978C27.5884 99.9686 27.604 99.9655 27.6197 99.9592C27.4816 100.009 27.3906 100.16 27.3906 100.385V100.633L84.3491 132.678L96.9786 125.35L96.6962 124.591Z" fill="#FBAD32"/>
<path d="M96.6962 124.591C96.693 124.585 96.6899 124.576 96.6868 124.569C96.6836 124.56 96.6773 124.547 96.6742 124.538C96.6711 124.529 96.6648 124.519 96.6617 124.507C96.6585 124.5 96.6554 124.494 96.6522 124.485C96.6522 124.485 96.6522 124.482 96.6491 124.482C96.6491 124.478 96.646 124.478 96.646 124.475C96.6397 124.466 96.6366 124.453 96.6303 124.444C96.624 124.431 96.6177 124.419 96.6114 124.406C96.6083 124.4 96.6052 124.394 96.602 124.388C96.5989 124.384 96.5957 124.378 96.5957 124.375C96.5926 124.369 96.5895 124.362 96.5832 124.356C96.5738 124.341 96.5644 124.325 96.5518 124.306C96.5455 124.297 96.5424 124.287 96.5361 124.281C96.5361 124.278 96.533 124.278 96.533 124.275C96.5204 124.259 96.511 124.24 96.4985 124.225C96.4922 124.215 96.4859 124.206 96.4765 124.196C96.4765 124.196 96.4765 124.193 96.4733 124.193C96.4733 124.193 96.4733 124.19 96.4702 124.19C96.4639 124.181 96.4545 124.171 96.4482 124.162C96.442 124.152 96.4325 124.143 96.4263 124.137C96.42 124.127 96.4106 124.121 96.4043 124.112C96.3949 124.102 96.3886 124.096 96.3792 124.087C96.3698 124.077 96.3635 124.071 96.3541 124.062C96.3447 124.055 96.3384 124.046 96.329 124.04C96.3195 124.033 96.3101 124.024 96.3039 124.018C96.2944 124.011 96.2882 124.002 96.2787 123.996C96.2725 123.989 96.2631 123.983 96.2536 123.977C96.2442 123.971 96.2379 123.964 96.2285 123.958C96.2191 123.952 96.2128 123.949 96.2034 123.942C96.194 123.936 96.1877 123.933 96.1783 123.927C96.1752 123.927 96.1752 123.924 96.172 123.924L40.6196 92.6877C40.6134 92.6846 40.6071 92.6815 40.6008 92.6783C40.5914 92.6752 40.5851 92.6689 40.5757 92.6658C40.5694 92.6627 40.56 92.6595 40.5537 92.6564C40.5474 92.6533 40.538 92.6501 40.5317 92.647C40.5255 92.6439 40.5161 92.6407 40.5098 92.6376C40.5066 92.6376 40.5066 92.6376 40.5035 92.6344C40.5035 92.6344 40.5035 92.6344 40.5004 92.6344C40.4941 92.6313 40.491 92.6313 40.4847 92.6282C40.4753 92.625 40.469 92.625 40.4596 92.6219C40.4501 92.6188 40.4439 92.6188 40.4345 92.6156C40.425 92.6125 40.4188 92.6125 40.4093 92.6125C40.4031 92.6125 40.3968 92.6125 40.3905 92.6094C40.3905 92.6094 40.3905 92.6094 40.3874 92.6094H40.3842C40.3748 92.6094 40.3654 92.6094 40.356 92.6094C40.3466 92.6094 40.3372 92.6094 40.3246 92.6094C40.3121 92.6094 40.3026 92.6125 40.2901 92.6156C40.2901 92.6156 40.2901 92.6156 40.2869 92.6156H40.2838C40.2713 92.6188 40.2587 92.6219 40.2461 92.625C40.2305 92.6313 40.2116 92.6376 40.1959 92.647L27.5727 99.978C27.5884 99.9686 27.604 99.9655 27.6197 99.9592C27.4816 100.009 27.3906 100.16 27.3906 100.385V100.633L84.3491 132.678L96.9786 125.35L96.6962 124.591Z" fill="#FBAD32"/>
<path d="M27.9361 100.608L27.7227 100.248L27.867 100.643C27.8953 100.634 27.9141 100.621 27.9361 100.608Z" fill="#FBAD32"/>
<path d="M41.1168 92.9668L28.3711 100.354L82.6618 130.885L95.464 123.526L41.1168 92.9668Z" fill="#FBAD32"/>
<path d="M96.6859 124.566C96.6827 124.557 96.6765 124.544 96.6733 124.535C96.6702 124.526 96.6639 124.516 96.6608 124.504C96.6576 124.497 96.6545 124.491 96.6514 124.482C96.6514 124.482 96.6514 124.479 96.6482 124.479C96.6482 124.475 96.6451 124.475 96.6451 124.472C96.6388 124.463 96.6357 124.45 96.6294 124.441C96.6231 124.428 96.6168 124.416 96.6105 124.403C96.6074 124.397 96.6043 124.391 96.6011 124.384C96.598 124.381 96.5949 124.375 96.5949 124.372C96.5917 124.366 96.5886 124.359 96.5823 124.353C96.5729 124.337 96.5635 124.322 96.5509 124.303C96.5446 124.294 96.5415 124.284 96.5352 124.278C96.5352 124.275 96.5321 124.275 96.5321 124.272C96.5195 124.256 96.5101 124.237 96.4976 124.221C96.4913 124.212 96.485 124.203 96.4756 124.193C96.4756 124.193 96.4756 124.19 96.4725 124.19C96.4725 124.19 96.4725 124.187 96.4693 124.187C96.463 124.178 96.4536 124.168 96.4473 124.159C96.4411 124.149 96.4317 124.14 96.4254 124.134C96.4191 124.124 96.4097 124.118 96.4034 124.109C96.394 124.099 96.3877 124.093 96.3783 124.084C96.3689 124.074 96.3626 124.068 96.3532 124.059C96.3438 124.052 96.3375 124.043 96.3281 124.037C96.3187 124.03 96.3093 124.021 96.303 124.015C96.2936 124.008 96.2873 123.999 96.2779 123.993C96.2716 123.986 96.2622 123.98 96.2528 123.974C96.2433 123.968 96.2371 123.961 96.2276 123.955L82.7695 131.766L84.3451 132.675L96.9746 125.347L96.6953 124.588C96.6922 124.582 96.689 124.576 96.6859 124.566Z" fill="#FBAD32"/>
<path d="M97.6997 139.899C97.3388 140.106 97.0469 140.611 97.0469 141.025C97.0469 141.438 97.3419 141.605 97.7028 141.398C98.0638 141.191 98.3557 140.686 98.3525 140.272C98.3525 139.859 98.0606 139.693 97.6997 139.899Z" fill="white"/>
<path d="M97.2415 140.93C97.2415 140.535 97.5051 140.062 97.8409 139.836C97.797 139.852 97.7499 139.87 97.6997 139.899C97.3388 140.105 97.0469 140.61 97.0469 141.024C97.0469 141.438 97.3419 141.604 97.7028 141.397C97.7217 141.387 97.7374 141.375 97.7562 141.362C97.4612 141.459 97.2415 141.287 97.2415 140.93Z" fill="#FBAD32"/>
<path d="M88.1802 145.366C87.8192 145.573 87.5273 146.078 87.5273 146.491C87.5273 146.905 87.8224 147.071 88.1833 146.864C88.5442 146.658 88.8361 146.153 88.833 145.739C88.8361 145.326 88.5411 145.159 88.1802 145.366Z" fill="white"/>
<path d="M87.7219 146.397C87.7219 146.002 87.9856 145.528 88.3214 145.303C88.2775 145.318 88.2304 145.337 88.1802 145.365C87.8192 145.572 87.5273 146.077 87.5273 146.491C87.5273 146.904 87.8224 147.07 88.1833 146.864C88.2021 146.854 88.2178 146.842 88.2367 146.829C87.9448 146.926 87.7251 146.754 87.7219 146.397Z" fill="#FBAD32"/>
<path d="M96.1672 140.947C95.8659 141.122 95.6211 141.542 95.6211 141.89C95.6211 142.238 95.869 142.376 96.1703 142.203C96.4716 142.028 96.7164 141.608 96.7164 141.26C96.7133 140.912 96.4685 140.771 96.1672 140.947Z" fill="white"/>
<path d="M95.7804 141.808C95.7804 141.479 96.0001 141.081 96.2826 140.893C96.2449 140.905 96.2041 140.921 96.1633 140.946C95.862 141.121 95.6172 141.541 95.6172 141.889C95.6172 142.237 95.8651 142.375 96.1664 142.203C96.1821 142.193 96.1947 142.184 96.2104 142.174C95.9656 142.253 95.7835 142.109 95.7804 141.808Z" fill="#FBAD32"/>
<path d="M89.8 144.605C89.4987 144.78 89.2539 145.2 89.2539 145.548C89.2539 145.896 89.5019 146.034 89.8032 145.862C90.1045 145.686 90.3493 145.266 90.3493 144.918C90.3461 144.57 90.1013 144.429 89.8 144.605Z" fill="white"/>
<path d="M89.4132 145.466C89.4132 145.137 89.6329 144.739 89.9154 144.551C89.8777 144.563 89.8369 144.579 89.7961 144.604C89.4948 144.78 89.25 145.2 89.25 145.547C89.25 145.895 89.4979 146.033 89.7992 145.861C89.8149 145.851 89.8275 145.842 89.8432 145.833C89.5984 145.911 89.4163 145.767 89.4132 145.466Z" fill="#FBAD32"/>
<path d="M78.2102 129.223V139.115L77.4727 138.701V128.812L78.2102 129.223Z" fill="#003654"/>
<path d="M70.6516 124.972V134.877L69.9141 134.466V124.559L70.6516 124.972Z" fill="#003654"/>
<path d="M63.093 120.719V130.639L62.3555 130.225V120.309L63.093 120.719Z" fill="#003654"/>
<path d="M55.5383 116.473V126.4L54.8008 125.989V116.057L55.5383 116.473Z" fill="#003654"/>
<path d="M47.9797 112.217V122.162L47.2422 121.748V111.807L47.9797 112.217Z" fill="#003654"/>
<path d="M40.4212 107.97V117.927L39.6836 117.513V107.553L40.4212 107.97Z" fill="#003654"/>
<path d="M78.2117 131.464V132.282L77.4741 131.872L73.3061 129.524L72.17 128.881L61.615 122.945L60.4757 122.306L49.9208 116.37L48.7815 115.727L38.2265 109.791L37.0872 109.151L27.3828 103.691L27.386 102.867L36.5788 108.042L37.3069 108.452L44.0674 112.254L44.7955 112.665L51.5528 116.464L52.281 116.877L59.0351 120.679L59.7664 121.087L66.5237 124.888L67.255 125.299L74.0092 129.101L74.7405 129.511L77.4741 131.047L78.2117 131.464Z" fill="#003654"/>
<path d="M98.6695 135.511L95.418 133.734V128.92L97.3796 127.785L98.6695 135.511Z" fill="#19D2E0"/>
<path d="M51.3617 100.536L42.5078 105.714L33.6445 100.655L42.4953 95.4805L51.3617 100.536Z" fill="#FBAD32"/>
<path d="M51.3609 100.535L51.3578 100.946L42.5039 106.124L42.507 105.713L51.3609 100.535Z" fill="#FBAD32"/>
<path d="M42.507 105.713L42.5039 106.124L33.6406 101.068L33.6438 100.654L42.507 105.713Z" fill="#FBAD32"/>
<path opacity="0.34" d="M86.2758 139.817L85.466 139.365L33.0898 110.117V107.553L84.989 136.535L85.8019 136.986L86.2758 139.817Z" fill="white"/>
<path d="M88.9468 141.31L88.793 141.225L88.9405 141.141L88.9468 141.31Z" fill="white"/>
<path opacity="0.34" d="M86.144 140.977V142.196L33.0898 112.606V111.387L62.4165 127.766L86.144 140.977Z" fill="white"/>
</g>
<defs>
<clipPath id="clip0_210_3959">
<rect width="24" height="24" fill="white" transform="translate(229 34)"/>
</clipPath>
<clipPath id="clip1_210_3959">
<rect width="144" height="90" fill="white" transform="translate(0 79)"/>
</clipPath>
</defs>
</svg>
