<svg width="512" height="151" viewBox="0 0 539 159" fill="none" xmlns="http://www.w3.org/2000/svg">
<path d="M3.03906 124.307L50.0886 97.8398L106.076 129.745L59.1548 156.803L3.03906 124.307Z" fill="#3B495C"/>
<path d="M106.076 129.746V131.944L59.1543 159.001V156.803L106.076 129.746Z" fill="#233143"/>
<path d="M3.03906 124.307V126.505L59.1548 159V156.802L3.03906 124.307Z" fill="#233143"/>
<path d="M50.6332 73.3633L10.4199 96.1934V123.15L50.6332 100.027V73.3633Z" fill="#C6C3C1"/>
<path d="M12.7361 96.6875L11.123 97.6014V124.563L12.7361 123.635V96.6875Z" fill="#FBAD32"/>
<path opacity="0.5" d="M23.3063 104.168L11.9277 110.712V113.609L25.8424 105.612L23.3063 104.168Z" fill="white"/>
<path opacity="0.5" d="M26.8843 106.201L11.9277 114.801V115.642L27.62 106.617L26.8843 106.201Z" fill="white"/>
<path opacity="0.5" d="M11.9277 97.7109V98.666L12.764 98.1862L11.9277 97.7109Z" fill="white"/>
<path opacity="0.5" d="M11.9277 124.096L30.1973 134.597V108.083L30.1105 108.033L11.9277 118.484V124.096Z" fill="white"/>
<path opacity="0.5" d="M28.141 106.914L11.9277 116.236V117.89L29.585 107.737L28.141 106.914Z" fill="white"/>
<path d="M41.8172 99.0491V98.4551L27.6191 106.617L28.1401 106.914L41.8172 99.0491Z" fill="white"/>
<path opacity="0.8" d="M27.62 106.617L11.9277 115.642V116.236L28.141 106.914L27.62 106.617Z" fill="white"/>
<path d="M41.9607 100.621L29.5859 107.736L30.1115 108.033L41.9607 101.215V100.621Z" fill="white"/>
<path opacity="0.8" d="M11.9277 117.89V118.484L30.1105 108.033L29.585 107.736L11.9277 117.89Z" fill="white"/>
<path d="M41.8174 97.6146V96.4219L25.8418 105.612L26.8837 106.201L41.8174 97.6146Z" fill="white"/>
<path opacity="0.8" d="M25.8424 105.611L11.9277 113.608V114.801L26.8843 106.201L25.8424 105.611Z" fill="white"/>
<path d="M35.6212 97.0848V85.0391L12.7637 98.1861L23.3059 104.168L35.6212 97.0848Z" fill="white"/>
<path opacity="0.8" d="M12.764 98.1855L11.9277 98.6654V110.711L23.3063 104.167L12.764 98.1855Z" fill="white"/>
<path d="M99.4047 102.445L59.1914 125.275V152.232L99.4047 129.109V102.445Z" fill="#FBAD32"/>
<path d="M40.5936 112.736L38.9805 113.655V140.611L40.5936 139.684V112.736Z" fill="#FBAD32"/>
<path d="M11.1511 97.999L9.69336 97.1719V123.767L11.1511 124.608V97.999Z" fill="#FBAD32"/>
<path d="M29.6621 108.51V135.252L38.9797 140.612V113.801L29.6621 108.51Z" fill="#FBAD32"/>
<path opacity="0.5" d="M53.5799 121.445L39.9531 129.282V130.119L54.3157 121.861L53.5799 121.445Z" fill="white"/>
<path opacity="0.5" d="M54.8366 122.158L39.9531 130.713V132.367L56.2852 122.976L54.8366 122.158Z" fill="white"/>
<path opacity="0.5" d="M50.0019 119.412L39.9531 125.188V128.09L52.538 120.852L50.0019 119.412Z" fill="white"/>
<path opacity="0.5" d="M39.9531 140.09L58.2182 150.591V124.078L56.8061 123.273L39.9531 132.966V140.09Z" fill="white"/>
<path opacity="0.8" d="M54.3157 121.861L39.9531 130.119V130.713L54.8366 122.158L54.3157 121.861Z" fill="white"/>
<path opacity="0.8" d="M39.9531 132.367V132.966L56.8061 123.274L56.2852 122.977L39.9531 132.367Z" fill="white"/>
<path opacity="0.8" d="M52.538 120.852L39.9531 128.09V129.283L53.5799 121.446L52.538 120.852Z" fill="white"/>
<path opacity="0.8" d="M39.9531 113.705V125.189L50.0019 119.413L39.9531 113.705Z" fill="white"/>
<path d="M49.1786 119.002L48.6074 118.678V145.059L49.1786 145.388V119.002Z" fill="#888D9A"/>
<path d="M57.2344 124.166V151.109L59.1902 152.233V125.276L57.2344 124.166Z" fill="#FBAD32"/>
<path d="M59.1906 125.889L56.1289 118.678L99.4038 93.8281V103.086L59.1906 125.889Z" fill="#BECCC6"/>
<path d="M99.4053 93.8271L53.4891 120.468L9.74805 95.687L55.5866 69L99.4053 93.8271Z" fill="white"/>
<path d="M93.9581 94.655L95.4707 93.7822L55.8241 70.8652L16.7441 93.5355L18.3618 94.4905L55.9292 72.6977L93.9581 94.655Z" fill="#7C8982"/>
<path d="M93.9569 94.6546L55.928 72.6973L23.4375 91.5427L61.4116 113.473L93.9569 94.6546Z" fill="#A2AAA6"/>
<path d="M56.3263 116.416L61.4123 113.473L23.4383 91.543L18.3613 94.4904L56.3263 116.416Z" fill="#8C9993"/>
<path d="M10.1502 88.498V89.1881L3.03516 93.2962V92.6062L10.1502 88.498Z" fill="#243954"/>
<path d="M10.1502 94.9648V95.6594L3.03516 99.7676V99.073L10.1502 94.9648Z" fill="#243954"/>
<path d="M8.7832 87.3145L58.2866 115.418V126.399L8.7832 97.9344V87.3145Z" fill="#243954"/>
<path d="M9.69257 86.8262L8.7832 87.3151L58.2866 115.419L59.1914 114.93L9.69257 86.8262Z" fill="#243954"/>
<path d="M58.2871 126.4L59.1919 125.911V114.93L58.2871 115.419V126.4Z" fill="#243954"/>
<path d="M31.8594 118.782L37.4572 122.012V120.152L31.8594 117.004V118.782Z" fill="white"/>
<path d="M54.2155 138.762L50.8613 136.842V130.879L54.2155 132.798V138.762Z" fill="#243954"/>
<path d="M53.8908 133.104L51.1855 131.555V131.92L53.8908 133.469V133.104Z" fill="white"/>
<path d="M53.8908 133.84L51.1855 132.291V132.661L53.8908 134.21V133.84Z" fill="white"/>
<path d="M51.3223 134.252C51.3223 133.731 51.5279 133.544 51.8112 133.708C52.0945 133.873 52.3002 134.298 52.3002 134.819C52.3002 135.344 52.0945 135.536 51.8112 135.372C51.5233 135.207 51.3223 134.778 51.3223 134.252ZM51.9894 134.641C51.9894 134.27 51.9072 134.097 51.8067 134.037C51.7061 133.978 51.6284 134.06 51.6284 134.43C51.6284 134.805 51.7107 134.983 51.8067 135.043C51.9072 135.097 51.9894 135.011 51.9894 134.641ZM51.8798 136.464L52.9399 134.362L53.1913 134.508L52.1357 136.615L51.8798 136.464ZM52.7663 136.139C52.7663 135.618 52.9765 135.431 53.2552 135.596C53.5386 135.76 53.7442 136.185 53.7442 136.706C53.7442 137.232 53.5386 137.423 53.2552 137.259C52.9719 137.094 52.7663 136.665 52.7663 136.139ZM53.438 136.528C53.438 136.153 53.3558 135.984 53.2598 135.925C53.1593 135.865 53.077 135.943 53.077 136.318C53.077 136.692 53.1593 136.871 53.2598 136.93C53.3558 136.985 53.438 136.903 53.438 136.528Z" fill="white"/>
<path d="M47.2188 130.316L45.2676 129.201V125.729L47.2188 126.844V130.316Z" fill="#243954"/>
<path d="M28.0859 127.395L21.1445 123.42V111.072L28.0859 115.048V127.395Z" fill="#243954"/>
<path d="M27.6697 117.278L21.7383 113.883V114.573L27.6697 117.968V117.278Z" fill="white"/>
<path d="M27.6697 116.04L21.7383 112.645V113.335L27.6697 116.73V116.04Z" fill="white"/>
<path d="M8.36203 87.2891L0.662109 91.6623V102.643L8.36203 98.2152V87.2891Z" fill="#243954"/>
<path d="M8.36203 92.123L0.662109 96.4962V97.1497L8.36203 92.7262V92.123Z" fill="white"/>
<path d="M8.36203 93.6035L0.662109 97.9721V98.6302L8.36203 94.2021V93.6035Z" fill="white"/>
<path d="M8.36203 95.0117L0.662109 99.3849V100.038L8.36203 95.6103V95.0117Z" fill="white"/>
<path d="M0 102.25L0.662605 102.643V91.6625L0 91.2695V102.25Z" fill="#243954"/>
<path d="M8.36253 87.2888L7.69992 86.9004L0 91.269L0.662605 91.662L8.36253 87.2888Z" fill="#243954"/>
<rect x="166" width="373" height="141" rx="18" fill="#006DB7"/>
<path d="M110 102L221.5 66.026L189.5 42L110 102Z" fill="#006DB7"/>
<rect x="191.048" y="49.5476" width="41.9048" height="41.9048" rx="20.9524" fill="#FFB600"/>
<rect x="191.048" y="49.5476" width="41.9048" height="41.9048" rx="20.9524" stroke="white" stroke-width="2.09524"/>
<path d="M200.375 78.8886C200.375 78.9261 200.379 78.9599 200.39 78.9936C200.39 79.0049 200.398 79.0161 200.401 79.0274C200.413 79.0574 200.431 79.0874 200.454 79.1136C200.458 79.1211 200.461 79.1249 200.465 79.1324C200.465 79.1324 200.469 79.1324 200.472 79.1361C200.499 79.1661 200.529 79.1924 200.566 79.2111C202.205 80.0699 206.255 81.5661 206.424 81.6261C206.439 81.6299 206.45 81.6299 206.465 81.6336C206.472 81.6336 206.48 81.6411 206.491 81.6449C206.589 81.6599 206.713 81.6674 206.855 81.6674C209.938 81.6674 222.789 78.0411 223.359 77.8799C223.531 77.8311 223.644 77.6624 223.621 77.4824C223.014 72.7236 221.375 64.9574 221.36 64.8786C221.36 64.8749 221.356 64.8711 221.356 64.8674C221.345 64.8299 221.33 64.7961 221.311 64.7624C221.308 64.7549 221.304 64.7474 221.3 64.7436C221.278 64.7099 221.244 64.6799 221.21 64.6574C221.195 64.6461 221.176 64.6386 221.157 64.6311C221.142 64.6236 221.128 64.6124 221.109 64.6086L217.625 63.5849C216.267 60.5474 214.318 59.0849 211.989 59.3586C211.501 59.4149 211.051 59.5499 210.642 59.7561C210.436 59.7186 210.222 59.6961 210.001 59.6924C208.899 59.6811 207.961 60.1161 207.226 60.9824C206.341 62.0136 205.786 63.6674 205.561 65.8911C203.615 66.2361 202.186 66.4799 202.164 66.4836C202.149 66.4836 202.141 66.4949 202.126 66.4986C202.119 66.4986 202.107 66.4986 202.1 66.4986C202.089 66.4986 202.081 66.5099 202.074 66.5174C202.044 66.5324 202.018 66.5474 201.995 66.5661C201.98 66.5774 201.969 66.5886 201.957 66.6036C201.935 66.6261 201.92 66.6524 201.905 66.6824C201.901 66.6936 201.89 66.7011 201.886 66.7124C201.159 68.6249 200.409 78.4461 200.379 78.8624V78.8661V78.8849L200.375 78.8886ZM206.533 66.4574C206.574 66.4499 206.615 66.4424 206.66 66.4349C207.151 66.3449 207.661 66.2549 208.182 66.1574C208.197 66.5436 208.227 66.9411 208.273 67.3536C206.499 67.6986 205.344 67.8899 204.837 67.9199L203.281 67.0274C204.054 66.8924 205.213 66.6936 206.536 66.4536L206.533 66.4574ZM208.16 65.4224C207.995 65.4524 207.83 65.4824 207.665 65.5124C207.823 64.3986 208.081 63.5099 208.422 62.8911C208.246 63.6261 208.156 64.4736 208.156 65.4224H208.16ZM203.416 76.9686L205.674 80.5724C204.504 80.1261 202.584 79.3761 201.38 78.8061L203.42 76.9724L203.416 76.9686ZM203.859 76.3049V68.2011L204.406 68.5161C204.552 69.9261 205.201 75.9861 205.749 79.3236L203.859 76.3086V76.3049ZM202.438 67.3874L203.131 67.7849V76.2486L201.17 78.0149C201.361 75.6749 201.905 69.4724 202.434 67.3874H202.438ZM206.806 80.9511C206.405 79.6761 205.606 73.0086 205.145 68.6286C205.76 68.5611 206.803 68.3849 208.351 68.0811C208.475 68.9549 208.621 69.6336 208.707 70.0049C208.831 70.4849 209.262 70.8224 209.757 70.8224C209.847 70.8224 209.938 70.8111 210.024 70.7886C210.597 70.6424 210.954 70.0574 210.811 69.4761C210.688 68.9774 210.568 68.3174 210.477 67.6499C212.142 67.3049 214.108 66.8849 216.331 66.3899C216.519 67.0536 216.68 67.7474 216.796 68.4111C216.796 68.4261 216.8 68.4374 216.804 68.4486C216.845 68.7336 216.995 68.9849 217.227 69.1574C217.46 69.3299 217.741 69.4049 218.03 69.3599C218.319 69.3186 218.57 69.1649 218.743 68.9324C218.915 68.6999 218.986 68.4149 218.945 68.1299C218.93 68.0211 218.791 67.1099 218.454 65.9099C219.481 65.6774 220.287 65.4936 220.722 65.3924C221.045 66.9449 222.305 73.1174 222.856 77.2649C218.761 78.4161 208.955 81.0261 206.802 80.9399L206.806 80.9511ZM211.805 61.6161C211.839 61.6049 211.869 61.5899 211.903 61.5824C212.007 61.5524 212.12 61.5261 212.236 61.5111C212.263 61.5111 212.292 61.5111 212.319 61.5074C212.911 62.1636 213.395 63.1049 213.755 64.3161C213.736 64.3199 213.714 64.3236 213.695 64.3311C213.523 64.3686 213.342 64.4061 213.159 64.4474C212.773 63.1799 212.236 62.2724 211.565 61.7286C211.58 61.7211 211.591 61.7136 211.602 61.7061C211.666 61.6724 211.734 61.6461 211.805 61.6199V61.6161ZM210.403 66.9261C210.365 66.5286 210.339 66.1349 210.331 65.7524C211.318 65.5611 212.199 65.3849 212.971 65.2236H212.979C213.069 65.2049 213.155 65.1861 213.245 65.1674C213.372 65.1411 213.492 65.1149 213.612 65.0886C213.627 65.0886 213.642 65.0811 213.657 65.0774C213.815 65.0436 213.969 65.0099 214.115 64.9761C214.171 64.9649 214.231 64.9499 214.287 64.9386C214.842 64.8149 215.319 64.7024 215.709 64.6011C215.851 64.9349 215.99 65.2986 216.118 65.6886C213.95 66.1724 212.03 66.5849 210.399 66.9224L210.403 66.9261ZM214.464 64.1586C214.171 63.1649 213.8 62.3286 213.35 61.6574C214.111 61.9724 214.801 62.7374 215.401 63.9336C215.127 64.0011 214.813 64.0761 214.46 64.1586H214.464ZM211.003 62.2424C211.003 62.2424 211.014 62.2311 211.017 62.2236C211.599 62.6474 212.086 63.4574 212.443 64.5936C211.805 64.7249 211.1 64.8636 210.328 65.0136C210.369 63.7799 210.597 62.8236 211.003 62.2424ZM218.24 65.2236C218.154 64.9611 218.068 64.7024 217.974 64.4511L219.575 64.9236C219.193 65.0099 218.743 65.1149 218.244 65.2274L218.24 65.2236ZM212.071 60.0861C212.229 60.0674 212.382 60.0599 212.536 60.0599C214.378 60.0599 215.885 61.3949 217.029 64.0386C217.257 64.5786 217.468 65.1599 217.651 65.7599C218.052 67.0874 218.21 68.1299 218.225 68.2461C218.24 68.3399 218.214 68.4336 218.157 68.5124C218.101 68.5874 218.019 68.6399 217.921 68.6511C217.827 68.6661 217.737 68.6399 217.659 68.5836C217.584 68.5274 217.535 68.4449 217.52 68.3474C217.52 68.3361 217.513 68.3061 217.513 68.2949C217.374 67.4886 217.175 66.6486 216.935 65.8574C216.721 65.1674 216.5 64.5711 216.249 64.0274C215.266 61.8674 214.01 60.7724 212.517 60.7724C212.499 60.7724 212.484 60.7724 212.465 60.7724C212.364 60.7649 212.255 60.7799 212.15 60.7911C211.554 60.8624 211.055 61.0986 210.68 61.4924C210.68 61.4924 210.68 61.4924 210.676 61.4961C210.579 61.5936 210.489 61.7061 210.403 61.8261C209.859 62.6099 209.585 63.8324 209.589 65.4561C209.589 66.0824 209.634 66.7386 209.712 67.4061C209.806 68.2049 209.953 69.0449 210.106 69.6486C210.151 69.8399 210.035 70.0311 209.847 70.0799C209.671 70.1249 209.461 70.0086 209.413 69.8099C209.341 69.4986 209.158 68.6624 209.023 67.6011C208.94 66.9374 208.895 66.3036 208.884 65.7149C208.85 64.0386 209.094 62.7111 209.604 61.7699C209.682 61.6236 209.746 61.5186 209.818 61.4174C209.889 61.3124 209.968 61.2149 210.046 61.1211C210.286 60.8436 210.564 60.6186 210.868 60.4499C211.227 60.2549 211.629 60.1274 212.071 60.0786V60.0861ZM207.774 61.4586C208.299 60.8399 208.944 60.4986 209.698 60.4349C209.653 60.4799 209.611 60.5286 209.566 60.5774C209.536 60.6111 209.506 60.6411 209.476 60.6749C209.386 60.7799 209.3 60.8924 209.217 61.0086C209.18 61.0611 209.142 61.1211 209.105 61.1811C209.094 61.1999 209.083 61.2186 209.071 61.2374C209.056 61.2636 209.041 61.2861 209.026 61.3124C208.715 61.4474 208.434 61.6611 208.182 61.9499C207.549 62.6924 207.121 63.9374 206.908 65.6549C206.758 65.6811 206.611 65.7074 206.461 65.7374C206.405 65.7486 206.349 65.7561 206.293 65.7674C206.51 63.8211 207.016 62.3399 207.77 61.4624L207.774 61.4586Z" fill="white"/>
<path d="M216.514 72.8254C216.158 72.5217 215.64 72.3567 214.984 72.3267L213.975 72.2854C213.645 72.2704 213.552 72.2104 213.54 72.2029C213.529 72.1954 213.507 72.1804 213.507 72.0979C213.507 72.0154 213.518 71.8879 213.668 71.7417C213.799 71.6142 214.005 71.5204 214.275 71.4717C214.515 71.4267 214.714 71.4117 214.868 71.4304C215.033 71.4492 215.19 71.4792 215.322 71.5204C215.558 71.5954 215.775 71.5992 215.967 71.5279C216.15 71.4604 216.297 71.3442 216.402 71.1867C216.499 71.0442 216.555 70.8867 216.574 70.7142C216.593 70.5304 216.559 70.3579 216.473 70.1967C216.383 70.0242 216.24 69.8967 216.072 69.8254C215.82 69.6979 215.532 69.6154 215.213 69.5817C215.13 69.5742 215.052 69.5667 214.969 69.5629L214.958 69.3904C214.943 69.1467 214.842 68.9404 214.658 68.7942C214.474 68.6479 214.249 68.5954 214.009 68.6367C213.777 68.6779 213.578 68.7942 213.432 68.9779C213.285 69.1617 213.21 69.3754 213.222 69.6042L213.233 69.8854C212.978 69.9904 212.745 70.1217 212.543 70.2754C212.198 70.5342 211.924 70.8454 211.729 71.2054C211.527 71.5804 211.425 71.9892 211.425 72.4204C211.425 73.0129 211.605 73.4854 211.954 73.8192C212.299 74.1492 212.809 74.3292 213.469 74.3592L214.5 74.4042C214.718 74.4117 214.838 74.4379 214.902 74.4642C214.984 74.4942 215.003 74.5204 215.007 74.5242C215.025 74.5542 215.04 74.5954 215.044 74.6517C215.052 74.7342 215.033 74.8092 214.995 74.8842C214.954 74.9592 214.875 75.0379 214.759 75.1092C214.624 75.1954 214.433 75.2629 214.185 75.3117C213.837 75.3829 213.54 75.3979 213.304 75.3642C213.057 75.3267 212.865 75.2817 212.734 75.2292C212.415 75.1092 212.172 75.1692 212.022 75.2404C211.834 75.3304 211.68 75.4692 211.568 75.6567C211.463 75.8329 211.399 76.0242 211.38 76.2267C211.362 76.4367 211.392 76.6354 211.47 76.8229C211.564 77.0442 211.74 77.2054 211.969 77.2879C212.22 77.3892 212.524 77.4604 212.892 77.5092C213.079 77.5354 213.282 77.5392 213.503 77.5317L213.514 77.8242C213.525 78.1092 213.627 78.3529 213.814 78.5292C213.972 78.6792 214.17 78.7579 214.384 78.7579C214.448 78.7579 214.512 78.7504 214.575 78.7392C214.842 78.6829 215.063 78.5292 215.217 78.2892C215.359 78.0679 215.427 77.8204 215.408 77.5542L215.382 77.0967C215.674 76.9579 215.937 76.7854 216.162 76.5904C216.51 76.2904 216.777 75.9304 216.953 75.5217C217.129 75.1167 217.197 74.6742 217.155 74.2129C217.103 73.6167 216.885 73.1554 216.51 72.8367L216.514 72.8254ZM216.289 75.2179C216.154 75.5254 215.955 75.7954 215.689 76.0242C215.464 76.2192 215.187 76.3842 214.872 76.5117C214.725 76.5717 214.635 76.7142 214.647 76.8679L214.688 77.5767C214.695 77.6892 214.669 77.7867 214.609 77.8767C214.545 77.9742 214.478 77.9967 214.429 78.0079C214.358 78.0229 214.335 78.0042 214.317 77.9854C214.287 77.9592 214.249 77.9067 214.242 77.7829L214.219 77.1117C214.219 77.0104 214.17 76.9129 214.092 76.8492C214.024 76.7929 213.942 76.7629 213.855 76.7629C213.84 76.7629 213.825 76.7629 213.81 76.7629C213.495 76.8004 213.222 76.8042 212.989 76.7742C212.685 76.7329 212.434 76.6729 212.228 76.5942C212.164 76.5717 212.149 76.5454 212.138 76.5192C212.108 76.4479 212.097 76.3654 212.104 76.2754C212.112 76.1817 212.138 76.0992 212.187 76.0204C212.228 75.9529 212.273 75.9117 212.333 75.8817C212.363 75.8667 212.412 75.8704 212.464 75.8929C212.644 75.9642 212.884 76.0242 213.192 76.0692C213.51 76.1179 213.889 76.0992 214.32 76.0129C214.658 75.9454 214.928 75.8479 215.138 75.7129C215.363 75.5704 215.528 75.4017 215.629 75.2142C215.73 75.0192 215.775 74.8129 215.76 74.5954C215.749 74.4079 215.693 74.2392 215.595 74.1004C215.494 73.9504 215.337 73.8417 215.134 73.7704C214.969 73.7104 214.763 73.6804 214.515 73.6729L213.488 73.6279C213.012 73.6092 212.659 73.4929 212.445 73.2904C212.243 73.0954 212.142 72.8104 212.142 72.4167C212.142 72.1017 212.213 71.8167 212.359 71.5467C212.505 71.2767 212.708 71.0479 212.97 70.8492C213.18 70.6917 213.428 70.5642 213.713 70.4704C213.867 70.4179 213.968 70.2754 213.96 70.1142L213.942 69.5704C213.942 69.5179 213.957 69.4729 213.994 69.4279C214.032 69.3829 214.073 69.3567 214.129 69.3492C214.178 69.3417 214.189 69.3492 214.2 69.3567C214.212 69.3679 214.227 69.3754 214.227 69.4242L214.257 69.9454C214.268 70.1442 214.44 70.2979 214.639 70.2867C214.819 70.2754 214.973 70.2792 215.13 70.2979C215.359 70.3204 215.562 70.3804 215.753 70.4742C215.809 70.4967 215.82 70.5229 215.828 70.5342C215.847 70.5679 215.854 70.6017 215.847 70.6392C215.843 70.6917 215.824 70.7367 215.794 70.7817C215.779 70.8042 215.757 70.8267 215.708 70.8492C215.697 70.8529 215.652 70.8642 215.539 70.8304C215.355 70.7742 215.157 70.7367 214.943 70.7142C214.718 70.6917 214.455 70.7067 214.144 70.7629C213.728 70.8379 213.398 70.9954 213.162 71.2242C212.903 71.4754 212.772 71.7867 212.779 72.1204C212.79 72.4879 212.97 72.6942 213.117 72.7992C213.3 72.9304 213.559 72.9979 213.942 73.0167L214.95 73.0579C215.445 73.0804 215.813 73.1929 216.045 73.3879C216.27 73.5792 216.402 73.8679 216.435 74.2729C216.465 74.6179 216.417 74.9292 216.289 75.2254V75.2179Z" fill="white"/>
<path d="M262.141 35.2891C262.055 34.4827 261.692 33.8549 261.052 33.4055C260.418 32.9562 259.593 32.7315 258.577 32.7315C257.863 32.7315 257.251 32.8393 256.74 33.0547C256.229 33.2701 255.838 33.5625 255.567 33.9318C255.297 34.3011 255.158 34.7228 255.152 35.1967C255.152 35.5907 255.241 35.9323 255.42 36.2216C255.604 36.5109 255.854 36.7571 256.168 36.9602C256.482 37.1572 256.829 37.3234 257.211 37.4588C257.593 37.5942 257.977 37.7081 258.365 37.8004L260.138 38.2436C260.852 38.4098 261.538 38.6345 262.197 38.9176C262.862 39.2008 263.455 39.5578 263.979 39.9886C264.508 40.4195 264.927 40.9396 265.234 41.549C265.542 42.1584 265.696 42.8724 265.696 43.6911C265.696 44.799 265.413 45.7746 264.847 46.6179C264.28 47.455 263.462 48.1106 262.391 48.5845C261.326 49.0523 260.036 49.2862 258.522 49.2862C257.051 49.2862 255.774 49.0585 254.69 48.603C253.613 48.1475 252.77 47.4827 252.161 46.6087C251.557 45.7346 251.231 44.6697 251.182 43.4141H254.552C254.601 44.0727 254.804 44.6205 255.161 45.0575C255.518 45.4946 255.983 45.8208 256.555 46.0362C257.134 46.2517 257.78 46.3594 258.494 46.3594C259.239 46.3594 259.892 46.2486 260.452 46.027C261.018 45.7992 261.461 45.4853 261.781 45.0852C262.101 44.679 262.264 44.205 262.271 43.6634C262.264 43.1709 262.12 42.7647 261.837 42.4446C261.554 42.1184 261.156 41.8475 260.646 41.6321C260.141 41.4105 259.55 41.2135 258.873 41.0412L256.722 40.4872C255.164 40.0871 253.933 39.4808 253.028 38.6683C252.13 37.8497 251.68 36.7633 251.68 35.4091C251.68 34.295 251.982 33.3194 252.585 32.4822C253.195 31.6451 254.022 30.9957 255.069 30.5341C256.115 30.0663 257.3 29.8324 258.624 29.8324C259.965 29.8324 261.141 30.0663 262.151 30.5341C263.166 30.9957 263.963 31.639 264.542 32.4638C265.121 33.2824 265.419 34.2242 265.438 35.2891H262.141ZM272.683 49.2862C271.784 49.2862 270.975 49.1262 270.255 48.8061C269.541 48.4799 268.974 47.9998 268.556 47.3658C268.144 46.7318 267.937 45.95 267.937 45.0206C267.937 44.2204 268.085 43.5587 268.381 43.0355C268.676 42.5123 269.079 42.0938 269.59 41.7798C270.101 41.4659 270.676 41.2289 271.317 41.0689C271.963 40.9027 272.631 40.7827 273.32 40.7088C274.151 40.6226 274.825 40.5457 275.342 40.478C275.859 40.4041 276.235 40.2933 276.469 40.1456C276.709 39.9917 276.829 39.7547 276.829 39.4347V39.3793C276.829 38.6837 276.622 38.1451 276.21 37.7635C275.798 37.3819 275.204 37.1911 274.428 37.1911C273.609 37.1911 272.96 37.3696 272.48 37.7266C272.006 38.0836 271.686 38.5052 271.52 38.9915L268.399 38.5483C268.645 37.6866 269.051 36.9664 269.618 36.3878C270.184 35.803 270.876 35.366 271.695 35.0767C272.514 34.7812 273.419 34.6335 274.41 34.6335C275.093 34.6335 275.773 34.7135 276.45 34.8736C277.127 35.0336 277.746 35.2983 278.306 35.6676C278.866 36.0308 279.315 36.5263 279.654 37.1541C279.999 37.782 280.171 38.5668 280.171 39.5085V49H276.958V47.0518H276.847C276.644 47.4458 276.358 47.8151 275.988 48.1598C275.625 48.4983 275.167 48.7723 274.613 48.9815C274.065 49.1847 273.422 49.2862 272.683 49.2862ZM273.551 46.8303C274.222 46.8303 274.804 46.6979 275.296 46.4332C275.788 46.1624 276.167 45.8054 276.432 45.3622C276.702 44.919 276.838 44.4358 276.838 43.9126V42.2415C276.733 42.3277 276.555 42.4077 276.302 42.4815C276.056 42.5554 275.779 42.62 275.471 42.6754C275.164 42.7308 274.859 42.7801 274.557 42.8232C274.256 42.8662 273.994 42.9032 273.773 42.9339C273.274 43.0017 272.828 43.1125 272.434 43.2663C272.04 43.4202 271.729 43.6357 271.501 43.9126C271.273 44.1835 271.16 44.5343 271.16 44.9652C271.16 45.5807 271.384 46.0455 271.834 46.3594C272.283 46.6733 272.855 46.8303 273.551 46.8303ZM286.874 30.0909V49H283.532V30.0909H286.874ZM294.392 49.2862C293.493 49.2862 292.684 49.1262 291.964 48.8061C291.25 48.4799 290.683 47.9998 290.265 47.3658C289.853 46.7318 289.646 45.95 289.646 45.0206C289.646 44.2204 289.794 43.5587 290.089 43.0355C290.385 42.5123 290.788 42.0938 291.299 41.7798C291.81 41.4659 292.385 41.2289 293.026 41.0689C293.672 40.9027 294.34 40.7827 295.029 40.7088C295.86 40.6226 296.534 40.5457 297.051 40.478C297.568 40.4041 297.944 40.2933 298.178 40.1456C298.418 39.9917 298.538 39.7547 298.538 39.4347V39.3793C298.538 38.6837 298.331 38.1451 297.919 37.7635C297.507 37.3819 296.913 37.1911 296.137 37.1911C295.318 37.1911 294.669 37.3696 294.189 37.7266C293.715 38.0836 293.395 38.5052 293.229 38.9915L290.108 38.5483C290.354 37.6866 290.76 36.9664 291.327 36.3878C291.893 35.803 292.585 35.366 293.404 35.0767C294.223 34.7812 295.128 34.6335 296.119 34.6335C296.802 34.6335 297.482 34.7135 298.159 34.8736C298.836 35.0336 299.455 35.2983 300.015 35.6676C300.575 36.0308 301.024 36.5263 301.363 37.1541C301.708 37.782 301.88 38.5668 301.88 39.5085V49H298.667V47.0518H298.556C298.353 47.4458 298.067 47.8151 297.697 48.1598C297.334 48.4983 296.876 48.7723 296.322 48.9815C295.774 49.1847 295.131 49.2862 294.392 49.2862ZM295.26 46.8303C295.931 46.8303 296.513 46.6979 297.005 46.4332C297.497 46.1624 297.876 45.8054 298.141 45.3622C298.411 44.919 298.547 44.4358 298.547 43.9126V42.2415C298.442 42.3277 298.264 42.4077 298.011 42.4815C297.765 42.5554 297.488 42.62 297.18 42.6754C296.873 42.7308 296.568 42.7801 296.266 42.8232C295.965 42.8662 295.703 42.9032 295.482 42.9339C294.983 43.0017 294.537 43.1125 294.143 43.2663C293.749 43.4202 293.438 43.6357 293.21 43.9126C292.982 44.1835 292.869 44.5343 292.869 44.9652C292.869 45.5807 293.093 46.0455 293.543 46.3594C293.992 46.6733 294.564 46.8303 295.26 46.8303ZM316.953 49.2493C315.839 49.2493 314.842 48.9631 313.961 48.3906C313.081 47.8182 312.386 46.9872 311.875 45.8977C311.364 44.8082 311.108 43.4848 311.108 41.9276C311.108 40.3518 311.367 39.0223 311.884 37.9389C312.407 36.8494 313.112 36.0277 313.998 35.4737C314.885 34.9136 315.873 34.6335 316.962 34.6335C317.793 34.6335 318.476 34.7751 319.012 35.0582C319.547 35.3352 319.972 35.6707 320.286 36.0646C320.6 36.4524 320.843 36.8187 321.015 37.1634H321.154V30.0909H324.505V49H321.218V46.7656H321.015C320.843 47.1103 320.594 47.4766 320.267 47.8643C319.941 48.246 319.51 48.5722 318.975 48.843C318.439 49.1139 317.765 49.2493 316.953 49.2493ZM317.885 46.5071C318.593 46.5071 319.196 46.3163 319.695 45.9347C320.194 45.5469 320.572 45.0083 320.831 44.3189C321.089 43.6295 321.218 42.8262 321.218 41.9091C321.218 40.992 321.089 40.1948 320.831 39.5178C320.578 38.8407 320.203 38.3144 319.704 37.9389C319.212 37.5634 318.605 37.3757 317.885 37.3757C317.141 37.3757 316.519 37.5696 316.02 37.9574C315.522 38.3452 315.146 38.8807 314.894 39.5639C314.641 40.2472 314.515 41.0289 314.515 41.9091C314.515 42.7955 314.641 43.5864 314.894 44.282C315.152 44.9714 315.531 45.5161 316.029 45.9162C316.534 46.3101 317.153 46.5071 317.885 46.5071ZM334.345 49.277C332.923 49.277 331.695 48.9815 330.661 48.3906C329.633 47.7936 328.843 46.9503 328.289 45.8608C327.735 44.7652 327.458 43.4756 327.458 41.9922C327.458 40.5334 327.735 39.2531 328.289 38.1513C328.849 37.0433 329.63 36.1816 330.634 35.5661C331.637 34.9444 332.816 34.6335 334.17 34.6335C335.044 34.6335 335.869 34.7751 336.644 35.0582C337.426 35.3352 338.115 35.7661 338.713 36.3509C339.316 36.9356 339.79 37.6804 340.134 38.5852C340.479 39.4839 340.651 40.5549 340.651 41.7983V42.8232H329.027V40.5703H337.448C337.441 39.9302 337.303 39.3608 337.032 38.8622C336.761 38.3575 336.383 37.9605 335.896 37.6712C335.416 37.3819 334.856 37.2372 334.216 37.2372C333.533 37.2372 332.933 37.4034 332.416 37.7358C331.899 38.062 331.495 38.4929 331.206 39.0284C330.923 39.5578 330.778 40.1394 330.772 40.7734V42.7401C330.772 43.5649 330.923 44.2727 331.225 44.8636C331.526 45.4484 331.948 45.8977 332.49 46.2116C333.031 46.5194 333.665 46.6733 334.392 46.6733C334.878 46.6733 335.318 46.6056 335.712 46.4702C336.106 46.3286 336.447 46.1224 336.737 45.8516C337.026 45.5807 337.244 45.2453 337.392 44.8452L340.513 45.196C340.316 46.0208 339.941 46.741 339.387 47.3565C338.839 47.9659 338.137 48.4399 337.281 48.7784C336.426 49.1108 335.447 49.277 334.345 49.277ZM352.606 30.0909L357.527 44.9744H357.721L362.633 30.0909H366.4L359.734 49H355.505L348.848 30.0909H352.606ZM373.498 49.277C372.076 49.277 370.848 48.9815 369.814 48.3906C368.786 47.7936 367.995 46.9503 367.441 45.8608C366.887 44.7652 366.61 43.4756 366.61 41.9922C366.61 40.5334 366.887 39.2531 367.441 38.1513C368.001 37.0433 368.783 36.1816 369.786 35.5661C370.789 34.9444 371.968 34.6335 373.322 34.6335C374.196 34.6335 375.021 34.7751 375.797 35.0582C376.578 35.3352 377.268 35.7661 377.865 36.3509C378.468 36.9356 378.942 37.6804 379.287 38.5852C379.631 39.4839 379.804 40.5549 379.804 41.7983V42.8232H368.18V40.5703H376.6C376.594 39.9302 376.455 39.3608 376.184 38.8622C375.914 38.3575 375.535 37.9605 375.049 37.6712C374.569 37.3819 374.009 37.2372 373.368 37.2372C372.685 37.2372 372.085 37.4034 371.568 37.7358C371.051 38.062 370.648 38.4929 370.358 39.0284C370.075 39.5578 369.931 40.1394 369.925 40.7734V42.7401C369.925 43.5649 370.075 44.2727 370.377 44.8636C370.679 45.4484 371.1 45.8977 371.642 46.2116C372.184 46.5194 372.818 46.6733 373.544 46.6733C374.03 46.6733 374.47 46.6056 374.864 46.4702C375.258 46.3286 375.6 46.1224 375.889 45.8516C376.178 45.5807 376.397 45.2453 376.545 44.8452L379.665 45.196C379.468 46.0208 379.093 46.741 378.539 47.3565C377.991 47.9659 377.289 48.4399 376.434 48.7784C375.578 49.1108 374.599 49.277 373.498 49.277ZM385.974 40.6903V49H382.631V34.8182H385.826V37.228H385.992C386.318 36.4339 386.839 35.803 387.553 35.3352C388.273 34.8674 389.162 34.6335 390.221 34.6335C391.2 34.6335 392.052 34.8428 392.778 35.2614C393.511 35.6799 394.077 36.2862 394.477 37.0803C394.884 37.8743 395.084 38.8376 395.077 39.9702V49H391.735V40.4872C391.735 39.5393 391.489 38.7976 390.996 38.2621C390.51 37.7266 389.836 37.4588 388.974 37.4588C388.39 37.4588 387.87 37.5881 387.414 37.8466C386.965 38.099 386.611 38.4652 386.352 38.9453C386.1 39.4254 385.974 40.0071 385.974 40.6903ZM405.557 34.8182V37.4034H397.404V34.8182H405.557ZM399.417 31.4205H402.759V44.7344C402.759 45.1837 402.827 45.5284 402.962 45.7685C403.104 46.0024 403.289 46.1624 403.516 46.2486C403.744 46.3348 403.996 46.3778 404.273 46.3778C404.483 46.3778 404.674 46.3625 404.846 46.3317C405.024 46.3009 405.16 46.2732 405.252 46.2486L405.815 48.8615C405.637 48.9231 405.381 48.9908 405.049 49.0646C404.723 49.1385 404.323 49.1816 403.849 49.1939C403.012 49.2185 402.258 49.0923 401.587 48.8153C400.916 48.5322 400.383 48.0952 399.989 47.5043C399.602 46.9134 399.411 46.1747 399.417 45.2884V31.4205ZM412.433 49.2862C411.534 49.2862 410.725 49.1262 410.005 48.8061C409.291 48.4799 408.724 47.9998 408.306 47.3658C407.894 46.7318 407.687 45.95 407.687 45.0206C407.687 44.2204 407.835 43.5587 408.131 43.0355C408.426 42.5123 408.829 42.0938 409.34 41.7798C409.851 41.4659 410.426 41.2289 411.067 41.0689C411.713 40.9027 412.381 40.7827 413.07 40.7088C413.901 40.6226 414.575 40.5457 415.092 40.478C415.609 40.4041 415.985 40.2933 416.219 40.1456C416.459 39.9917 416.579 39.7547 416.579 39.4347V39.3793C416.579 38.6837 416.372 38.1451 415.96 37.7635C415.548 37.3819 414.954 37.1911 414.178 37.1911C413.359 37.1911 412.71 37.3696 412.23 37.7266C411.756 38.0836 411.436 38.5052 411.27 38.9915L408.149 38.5483C408.395 37.6866 408.801 36.9664 409.368 36.3878C409.934 35.803 410.626 35.366 411.445 35.0767C412.264 34.7812 413.169 34.6335 414.16 34.6335C414.843 34.6335 415.523 34.7135 416.2 34.8736C416.877 35.0336 417.496 35.2983 418.056 35.6676C418.616 36.0308 419.065 36.5263 419.404 37.1541C419.749 37.782 419.921 38.5668 419.921 39.5085V49H416.708V47.0518H416.597C416.394 47.4458 416.108 47.8151 415.738 48.1598C415.375 48.4983 414.917 48.7723 414.363 48.9815C413.815 49.1847 413.172 49.2862 412.433 49.2862ZM413.301 46.8303C413.972 46.8303 414.554 46.6979 415.046 46.4332C415.538 46.1624 415.917 45.8054 416.182 45.3622C416.452 44.919 416.588 44.4358 416.588 43.9126V42.2415C416.483 42.3277 416.305 42.4077 416.052 42.4815C415.806 42.5554 415.529 42.62 415.221 42.6754C414.914 42.7308 414.609 42.7801 414.307 42.8232C414.006 42.8662 413.744 42.9032 413.523 42.9339C413.024 43.0017 412.578 43.1125 412.184 43.2663C411.79 43.4202 411.479 43.6357 411.251 43.9126C411.023 44.1835 410.91 44.5343 410.91 44.9652C410.91 45.5807 411.134 46.0455 411.584 46.3594C412.033 46.6733 412.605 46.8303 413.301 46.8303ZM434.491 38.5668L431.444 38.8991C431.358 38.5914 431.207 38.3021 430.991 38.0312C430.782 37.7604 430.499 37.5419 430.142 37.3757C429.785 37.2095 429.348 37.1264 428.831 37.1264C428.135 37.1264 427.55 37.2772 427.077 37.5788C426.609 37.8804 426.378 38.2713 426.384 38.7514C426.378 39.1638 426.529 39.4993 426.836 39.7578C427.15 40.0163 427.667 40.2287 428.388 40.3949L430.807 40.9119C432.148 41.2012 433.146 41.6598 433.798 42.2876C434.457 42.9155 434.789 43.7372 434.795 44.7528C434.789 45.6454 434.528 46.4332 434.01 47.1165C433.5 47.7936 432.789 48.3229 431.878 48.7045C430.967 49.0862 429.92 49.277 428.738 49.277C427.003 49.277 425.605 48.9138 424.547 48.1875C423.488 47.455 422.857 46.4363 422.654 45.1314L425.913 44.8175C426.061 45.4576 426.375 45.9408 426.855 46.267C427.335 46.5933 427.96 46.7564 428.729 46.7564C429.523 46.7564 430.16 46.5933 430.64 46.267C431.127 45.9408 431.37 45.5376 431.37 45.0575C431.37 44.6513 431.213 44.3158 430.899 44.0511C430.591 43.7865 430.111 43.5833 429.459 43.4418L427.04 42.9339C425.679 42.6508 424.673 42.1738 424.02 41.5028C423.368 40.8258 423.045 39.9702 423.051 38.9361C423.045 38.062 423.282 37.3049 423.762 36.6648C424.248 36.0185 424.922 35.5199 425.784 35.169C426.652 34.812 427.652 34.6335 428.785 34.6335C430.447 34.6335 431.755 34.9875 432.709 35.6953C433.669 36.4032 434.263 37.3603 434.491 38.5668ZM254.293 80H250.637L257.294 61.0909H261.523L268.189 80H264.533L259.482 64.9688H259.335L254.293 80ZM254.413 72.5859H264.385V75.3374H254.413V72.5859ZM281.422 65.8182L276.372 80H272.678L267.628 65.8182H271.192L274.451 76.353H274.599L277.867 65.8182H281.422ZM284.905 80.2031C284.345 80.2031 283.865 80.0062 283.465 79.6122C283.065 79.2183 282.868 78.7382 282.874 78.1719C282.868 77.6179 283.065 77.1439 283.465 76.75C283.865 76.3561 284.345 76.1591 284.905 76.1591C285.447 76.1591 285.918 76.3561 286.318 76.75C286.724 77.1439 286.93 77.6179 286.936 78.1719C286.93 78.5473 286.832 78.889 286.641 79.1967C286.456 79.5045 286.21 79.7507 285.902 79.9354C285.601 80.1139 285.268 80.2031 284.905 80.2031ZM302.808 80H296.4V61.0909H302.937C304.815 61.0909 306.427 61.4695 307.775 62.2266C309.129 62.9775 310.17 64.0578 310.896 65.4673C311.622 66.8769 311.985 68.5634 311.985 70.527C311.985 72.4967 311.619 74.1894 310.887 75.6051C310.16 77.0208 309.111 78.1072 307.738 78.8643C306.372 79.6214 304.728 80 302.808 80ZM299.826 77.0362H302.642C303.959 77.0362 305.058 76.7962 305.938 76.3161C306.818 75.8298 307.48 75.1065 307.923 74.1463C308.366 73.1799 308.588 71.9735 308.588 70.527C308.588 69.0805 308.366 67.8802 307.923 66.9261C307.48 65.9659 306.824 65.2488 305.956 64.7749C305.095 64.2947 304.024 64.0547 302.743 64.0547H299.826V77.0362ZM321.278 80.277C319.893 80.277 318.693 79.9723 317.678 79.3629C316.662 78.7536 315.874 77.901 315.314 76.8054C314.76 75.7098 314.483 74.4295 314.483 72.9645C314.483 71.4995 314.76 70.2161 315.314 69.1143C315.874 68.0125 316.662 67.157 317.678 66.5476C318.693 65.9382 319.893 65.6335 321.278 65.6335C322.663 65.6335 323.864 65.9382 324.879 66.5476C325.895 67.157 326.68 68.0125 327.234 69.1143C327.794 70.2161 328.074 71.4995 328.074 72.9645C328.074 74.4295 327.794 75.7098 327.234 76.8054C326.68 77.901 325.895 78.7536 324.879 79.3629C323.864 79.9723 322.663 80.277 321.278 80.277ZM321.297 77.5994C322.048 77.5994 322.676 77.3932 323.18 76.9808C323.685 76.5623 324.061 76.0021 324.307 75.3004C324.559 74.5987 324.685 73.817 324.685 72.9553C324.685 72.0874 324.559 71.3026 324.307 70.6009C324.061 69.893 323.685 69.3298 323.18 68.9112C322.676 68.4927 322.048 68.2834 321.297 68.2834C320.527 68.2834 319.887 68.4927 319.376 68.9112C318.872 69.3298 318.493 69.893 318.241 70.6009C317.995 71.3026 317.871 72.0874 317.871 72.9553C317.871 73.817 317.995 74.5987 318.241 75.3004C318.493 76.0021 318.872 76.5623 319.376 76.9808C319.887 77.3932 320.527 77.5994 321.297 77.5994ZM342.119 69.5668L339.073 69.8991C338.986 69.5914 338.836 69.3021 338.62 69.0312C338.411 68.7604 338.128 68.5419 337.771 68.3757C337.414 68.2095 336.977 68.1264 336.46 68.1264C335.764 68.1264 335.179 68.2772 334.705 68.5788C334.238 68.8804 334.007 69.2713 334.013 69.7514C334.007 70.1638 334.158 70.4993 334.465 70.7578C334.779 71.0163 335.296 71.2287 336.017 71.3949L338.436 71.9119C339.777 72.2012 340.775 72.6598 341.427 73.2876C342.086 73.9155 342.418 74.7372 342.424 75.7528C342.418 76.6454 342.156 77.4332 341.639 78.1165C341.128 78.7936 340.418 79.3229 339.507 79.7045C338.596 80.0862 337.549 80.277 336.367 80.277C334.632 80.277 333.234 79.9138 332.176 79.1875C331.117 78.455 330.486 77.4363 330.283 76.1314L333.542 75.8175C333.69 76.4576 334.004 76.9408 334.484 77.267C334.964 77.5933 335.589 77.7564 336.358 77.7564C337.152 77.7564 337.789 77.5933 338.269 77.267C338.756 76.9408 338.999 76.5376 338.999 76.0575C338.999 75.6513 338.842 75.3158 338.528 75.0511C338.22 74.7865 337.74 74.5833 337.088 74.4418L334.669 73.9339C333.308 73.6508 332.302 73.1738 331.649 72.5028C330.997 71.8258 330.674 70.9702 330.68 69.9361C330.674 69.062 330.911 68.3049 331.391 67.6648C331.877 67.0185 332.551 66.5199 333.413 66.169C334.281 65.812 335.281 65.6335 336.414 65.6335C338.075 65.6335 339.383 65.9875 340.338 66.6953C341.298 67.4032 341.892 68.3603 342.119 69.5668ZM351.777 80V61.0909H358.868C360.321 61.0909 361.539 61.3617 362.524 61.9034C363.515 62.4451 364.263 63.1899 364.768 64.1378C365.279 65.0795 365.534 66.1506 365.534 67.3509C365.534 68.5634 365.279 69.6406 364.768 70.5824C364.257 71.5241 363.503 72.2659 362.506 72.8075C361.509 73.343 360.281 73.6108 358.822 73.6108H354.122V70.7947H358.36C359.21 70.7947 359.905 70.647 360.447 70.3516C360.989 70.0561 361.389 69.6499 361.647 69.1328C361.912 68.6158 362.044 68.0218 362.044 67.3509C362.044 66.6799 361.912 66.089 361.647 65.5781C361.389 65.0672 360.986 64.6702 360.438 64.3871C359.896 64.0978 359.197 63.9531 358.342 63.9531H355.203V80H351.777ZM368.362 80V65.8182H371.704V80H368.362ZM370.042 63.8054C369.513 63.8054 369.057 63.63 368.676 63.2791C368.294 62.9221 368.103 62.4943 368.103 61.9957C368.103 61.491 368.294 61.0632 368.676 60.7124C369.057 60.3553 369.513 60.1768 370.042 60.1768C370.578 60.1768 371.033 60.3553 371.409 60.7124C371.79 61.0632 371.981 61.491 371.981 61.9957C371.981 62.4943 371.79 62.9221 371.409 63.2791C371.033 63.63 370.578 63.8054 370.042 63.8054ZM386.35 69.5668L383.303 69.8991C383.217 69.5914 383.066 69.3021 382.851 69.0312C382.641 68.7604 382.358 68.5419 382.001 68.3757C381.644 68.2095 381.207 68.1264 380.69 68.1264C379.995 68.1264 379.41 68.2772 378.936 68.5788C378.468 68.8804 378.237 69.2713 378.243 69.7514C378.237 70.1638 378.388 70.4993 378.696 70.7578C379.01 71.0163 379.527 71.2287 380.247 71.3949L382.666 71.9119C384.008 72.2012 385.005 72.6598 385.657 73.2876C386.316 73.9155 386.648 74.7372 386.655 75.7528C386.648 76.6454 386.387 77.4332 385.87 78.1165C385.359 78.7936 384.648 79.3229 383.737 79.7045C382.826 80.0862 381.78 80.277 380.598 80.277C378.862 80.277 377.465 79.9138 376.406 79.1875C375.347 78.455 374.716 77.4363 374.513 76.1314L377.773 75.8175C377.92 76.4576 378.234 76.9408 378.714 77.267C379.194 77.5933 379.819 77.7564 380.589 77.7564C381.383 77.7564 382.02 77.5933 382.5 77.267C382.986 76.9408 383.229 76.5376 383.229 76.0575C383.229 75.6513 383.072 75.3158 382.758 75.0511C382.451 74.7865 381.97 74.5833 381.318 74.4418L378.899 73.9339C377.539 73.6508 376.532 73.1738 375.88 72.5028C375.227 71.8258 374.904 70.9702 374.91 69.9361C374.904 69.062 375.141 68.3049 375.621 67.6648C376.108 67.0185 376.782 66.5199 377.643 66.169C378.511 65.812 379.511 65.6335 380.644 65.6335C382.306 65.6335 383.614 65.9875 384.568 66.6953C385.528 67.4032 386.122 68.3603 386.35 69.5668ZM396.492 65.8182V68.4034H388.34V65.8182H396.492ZM390.352 62.4205H393.695V75.7344C393.695 76.1837 393.762 76.5284 393.898 76.7685C394.039 77.0024 394.224 77.1624 394.452 77.2486C394.68 77.3348 394.932 77.3778 395.209 77.3778C395.418 77.3778 395.609 77.3625 395.781 77.3317C395.96 77.3009 396.095 77.2732 396.188 77.2486L396.751 79.8615C396.572 79.9231 396.317 79.9908 395.985 80.0646C395.658 80.1385 395.258 80.1816 394.784 80.1939C393.947 80.2185 393.193 80.0923 392.522 79.8153C391.851 79.5322 391.319 79.0952 390.925 78.5043C390.537 77.9134 390.346 77.1747 390.352 76.2884V62.4205ZM403.369 80.2862C402.47 80.2862 401.661 80.1262 400.94 79.8061C400.226 79.4799 399.66 78.9998 399.241 78.3658C398.829 77.7318 398.623 76.95 398.623 76.0206C398.623 75.2204 398.771 74.5587 399.066 74.0355C399.362 73.5123 399.765 73.0938 400.276 72.7798C400.786 72.4659 401.362 72.2289 402.002 72.0689C402.648 71.9027 403.316 71.7827 404.006 71.7088C404.837 71.6226 405.511 71.5457 406.028 71.478C406.545 71.4041 406.92 71.2933 407.154 71.1456C407.394 70.9917 407.514 70.7547 407.514 70.4347V70.3793C407.514 69.6837 407.308 69.1451 406.896 68.7635C406.483 68.3819 405.889 68.1911 405.114 68.1911C404.295 68.1911 403.646 68.3696 403.165 68.7266C402.692 69.0836 402.371 69.5052 402.205 69.9915L399.085 69.5483C399.331 68.6866 399.737 67.9664 400.303 67.3878C400.87 66.803 401.562 66.366 402.381 66.0767C403.199 65.7812 404.104 65.6335 405.095 65.6335C405.778 65.6335 406.459 65.7135 407.136 65.8736C407.813 66.0336 408.431 66.2983 408.991 66.6676C409.552 67.0308 410.001 67.5263 410.339 68.1541C410.684 68.782 410.857 69.5668 410.857 70.5085V80H407.643V78.0518H407.533C407.33 78.4458 407.043 78.8151 406.674 79.1598C406.311 79.4983 405.852 79.7723 405.298 79.9815C404.75 80.1847 404.107 80.2862 403.369 80.2862ZM404.237 77.8303C404.907 77.8303 405.489 77.6979 405.982 77.4332C406.474 77.1624 406.853 76.8054 407.117 76.3622C407.388 75.919 407.523 75.4358 407.523 74.9126V73.2415C407.419 73.3277 407.24 73.4077 406.988 73.4815C406.742 73.5554 406.465 73.62 406.157 73.6754C405.849 73.7308 405.545 73.7801 405.243 73.8232C404.941 73.8662 404.68 73.9032 404.458 73.9339C403.96 74.0017 403.513 74.1125 403.119 74.2663C402.725 74.4202 402.415 74.6357 402.187 74.9126C401.959 75.1835 401.845 75.5343 401.845 75.9652C401.845 76.5807 402.07 77.0455 402.519 77.3594C402.969 77.6733 403.541 77.8303 404.237 77.8303ZM425.426 69.5668L422.379 69.8991C422.293 69.5914 422.142 69.3021 421.927 69.0312C421.718 68.7604 421.434 68.5419 421.077 68.3757C420.72 68.2095 420.283 68.1264 419.766 68.1264C419.071 68.1264 418.486 68.2772 418.012 68.5788C417.544 68.8804 417.313 69.2713 417.32 69.7514C417.313 70.1638 417.464 70.4993 417.772 70.7578C418.086 71.0163 418.603 71.2287 419.323 71.3949L421.742 71.9119C423.084 72.2012 424.081 72.6598 424.734 73.2876C425.392 73.9155 425.725 74.7372 425.731 75.7528C425.725 76.6454 425.463 77.4332 424.946 78.1165C424.435 78.7936 423.724 79.3229 422.813 79.7045C421.902 80.0862 420.856 80.277 419.674 80.277C417.938 80.277 416.541 79.9138 415.482 79.1875C414.424 78.455 413.793 77.4363 413.589 76.1314L416.849 75.8175C416.996 76.4576 417.31 76.9408 417.79 77.267C418.271 77.5933 418.895 77.7564 419.665 77.7564C420.459 77.7564 421.096 77.5933 421.576 77.267C422.062 76.9408 422.305 76.5376 422.305 76.0575C422.305 75.6513 422.148 75.3158 421.835 75.0511C421.527 74.7865 421.047 74.5833 420.394 74.4418L417.975 73.9339C416.615 73.6508 415.608 73.1738 414.956 72.5028C414.304 71.8258 413.98 70.9702 413.987 69.9361C413.98 69.062 414.217 68.3049 414.697 67.6648C415.184 67.0185 415.858 66.5199 416.719 66.169C417.587 65.812 418.588 65.6335 419.72 65.6335C421.382 65.6335 422.69 65.9875 423.644 66.6953C424.604 67.4032 425.198 68.3603 425.426 69.5668ZM451.98 70.5455C451.98 72.5829 451.598 74.3279 450.835 75.7805C450.078 77.227 449.044 78.335 447.733 79.1044C446.428 79.8738 444.948 80.2585 443.292 80.2585C441.636 80.2585 440.153 79.8738 438.842 79.1044C437.537 78.3288 436.503 77.2178 435.739 75.7713C434.982 74.3187 434.604 72.5767 434.604 70.5455C434.604 68.508 434.982 66.7661 435.739 65.3196C436.503 63.867 437.537 62.7559 438.842 61.9865C440.153 61.2171 441.636 60.8324 443.292 60.8324C444.948 60.8324 446.428 61.2171 447.733 61.9865C449.044 62.7559 450.078 63.867 450.835 65.3196C451.598 66.7661 451.98 68.508 451.98 70.5455ZM448.536 70.5455C448.536 69.1113 448.312 67.9018 447.862 66.9169C447.419 65.9259 446.804 65.178 446.016 64.6733C445.228 64.1624 444.32 63.907 443.292 63.907C442.264 63.907 441.356 64.1624 440.568 64.6733C439.78 65.178 439.162 65.9259 438.712 66.9169C438.269 67.9018 438.048 69.1113 438.048 70.5455C438.048 71.9796 438.269 73.1922 438.712 74.1832C439.162 75.1681 439.78 75.916 440.568 76.4268C441.356 76.9316 442.264 77.1839 443.292 77.1839C444.32 77.1839 445.228 76.9316 446.016 76.4268C446.804 75.916 447.419 75.1681 447.862 74.1832C448.312 73.1922 448.536 71.9796 448.536 70.5455ZM461.349 80.277C459.927 80.277 458.699 79.9815 457.665 79.3906C456.637 78.7936 455.846 77.9503 455.292 76.8608C454.738 75.7652 454.461 74.4756 454.461 72.9922C454.461 71.5334 454.738 70.2531 455.292 69.1513C455.853 68.0433 456.634 67.1816 457.638 66.5661C458.641 65.9444 459.82 65.6335 461.174 65.6335C462.048 65.6335 462.873 65.7751 463.648 66.0582C464.43 66.3352 465.119 66.7661 465.716 67.3509C466.32 67.9356 466.794 68.6804 467.138 69.5852C467.483 70.4839 467.655 71.5549 467.655 72.7983V73.8232H456.031V71.5703H464.452C464.445 70.9302 464.307 70.3608 464.036 69.8622C463.765 69.3575 463.387 68.9605 462.9 68.6712C462.42 68.3819 461.86 68.2372 461.22 68.2372C460.537 68.2372 459.937 68.4034 459.42 68.7358C458.903 69.062 458.499 69.4929 458.21 70.0284C457.927 70.5578 457.782 71.1394 457.776 71.7734V73.7401C457.776 74.5649 457.927 75.2727 458.229 75.8636C458.53 76.4484 458.952 76.8977 459.493 77.2116C460.035 77.5194 460.669 77.6733 461.395 77.6733C461.882 77.6733 462.322 77.6056 462.716 77.4702C463.11 77.3286 463.451 77.1224 463.741 76.8516C464.03 76.5807 464.248 76.2453 464.396 75.8452L467.517 76.196C467.32 77.0208 466.944 77.741 466.39 78.3565C465.843 78.9659 465.141 79.4399 464.285 79.7784C463.43 80.1108 462.451 80.277 461.349 80.277ZM481.692 69.5668L478.645 69.8991C478.559 69.5914 478.408 69.3021 478.192 69.0312C477.983 68.7604 477.7 68.5419 477.343 68.3757C476.986 68.2095 476.549 68.1264 476.032 68.1264C475.336 68.1264 474.752 68.2772 474.278 68.5788C473.81 68.8804 473.579 69.2713 473.585 69.7514C473.579 70.1638 473.73 70.4993 474.038 70.7578C474.352 71.0163 474.869 71.2287 475.589 71.3949L478.008 71.9119C479.35 72.2012 480.347 72.6598 480.999 73.2876C481.658 73.9155 481.99 74.7372 481.996 75.7528C481.99 76.6454 481.729 77.4332 481.212 78.1165C480.701 78.7936 479.99 79.3229 479.079 79.7045C478.168 80.0862 477.121 80.277 475.94 80.277C474.204 80.277 472.807 79.9138 471.748 79.1875C470.689 78.455 470.058 77.4363 469.855 76.1314L473.114 75.8175C473.262 76.4576 473.576 76.9408 474.056 77.267C474.536 77.5933 475.161 77.7564 475.93 77.7564C476.724 77.7564 477.362 77.5933 477.842 77.267C478.328 76.9408 478.571 76.5376 478.571 76.0575C478.571 75.6513 478.414 75.3158 478.1 75.0511C477.792 74.7865 477.312 74.5833 476.66 74.4418L474.241 73.9339C472.88 73.6508 471.874 73.1738 471.222 72.5028C470.569 71.8258 470.246 70.9702 470.252 69.9361C470.246 69.062 470.483 68.3049 470.963 67.6648C471.449 67.0185 472.123 66.5199 472.985 66.169C473.853 65.812 474.853 65.6335 475.986 65.6335C477.648 65.6335 478.956 65.9875 479.91 66.6953C480.87 67.4032 481.464 68.3603 481.692 69.5668ZM491.834 65.8182V68.4034H483.681V65.8182H491.834ZM485.694 62.4205H489.037V75.7344C489.037 76.1837 489.104 76.5284 489.24 76.7685C489.381 77.0024 489.566 77.1624 489.794 77.2486C490.021 77.3348 490.274 77.3778 490.551 77.3778C490.76 77.3778 490.951 77.3625 491.123 77.3317C491.302 77.3009 491.437 77.2732 491.529 77.2486L492.093 79.8615C491.914 79.9231 491.659 79.9908 491.326 80.0646C491 80.1385 490.6 80.1816 490.126 80.1939C489.289 80.2185 488.535 80.0923 487.864 79.8153C487.193 79.5322 486.661 79.0952 486.267 78.5043C485.879 77.9134 485.688 77.1747 485.694 76.2884V62.4205ZM500.756 80.277C499.334 80.277 498.106 79.9815 497.072 79.3906C496.044 78.7936 495.253 77.9503 494.699 76.8608C494.145 75.7652 493.868 74.4756 493.868 72.9922C493.868 71.5334 494.145 70.2531 494.699 69.1513C495.259 68.0433 496.041 67.1816 497.044 66.5661C498.047 65.9444 499.226 65.6335 500.58 65.6335C501.454 65.6335 502.279 65.7751 503.055 66.0582C503.836 66.3352 504.526 66.7661 505.123 67.3509C505.726 67.9356 506.2 68.6804 506.545 69.5852C506.889 70.4839 507.062 71.5549 507.062 72.7983V73.8232H495.437V71.5703H503.858C503.852 70.9302 503.713 70.3608 503.442 69.8622C503.171 69.3575 502.793 68.9605 502.307 68.6712C501.827 68.3819 501.266 68.2372 500.626 68.2372C499.943 68.2372 499.343 68.4034 498.826 68.7358C498.309 69.062 497.906 69.4929 497.616 70.0284C497.333 70.5578 497.189 71.1394 497.182 71.7734V73.7401C497.182 74.5649 497.333 75.2727 497.635 75.8636C497.936 76.4484 498.358 76.8977 498.9 77.2116C499.441 77.5194 500.075 77.6733 500.802 77.6733C501.288 77.6733 501.728 77.6056 502.122 77.4702C502.516 77.3286 502.858 77.1224 503.147 76.8516C503.436 76.5807 503.655 76.2453 503.802 75.8452L506.923 76.196C506.726 77.0208 506.351 77.741 505.797 78.3565C505.249 78.9659 504.547 79.4399 503.692 79.7784C502.836 80.1108 501.857 80.277 500.756 80.277ZM251.865 92.0909H256.057L261.67 105.793H261.892L267.506 92.0909H271.697V111H268.411V98.0092H268.235L263.009 110.945H260.553L255.327 97.9815H255.152V111H251.865V92.0909ZM275.095 111V108.876L282.408 99.7081V99.5881H275.335V96.8182H286.498V99.0987L279.536 108.11V108.23H286.738V111H275.095ZM296.476 111V92.0909H303.715C305.081 92.0909 306.217 92.3063 307.122 92.7372C308.033 93.1619 308.713 93.7436 309.162 94.4822C309.618 95.2209 309.846 96.058 309.846 96.9936C309.846 97.763 309.698 98.4216 309.403 98.9695C309.107 99.5111 308.71 99.9512 308.211 100.29C307.713 100.628 307.156 100.871 306.54 101.019V101.204C307.211 101.241 307.854 101.447 308.47 101.822C309.092 102.192 309.599 102.715 309.993 103.392C310.387 104.069 310.584 104.888 310.584 105.848C310.584 106.827 310.347 107.707 309.873 108.489C309.399 109.264 308.685 109.877 307.731 110.326C306.777 110.775 305.577 111 304.131 111H296.476ZM299.902 108.138H303.586C304.829 108.138 305.725 107.901 306.273 107.427C306.827 106.947 307.104 106.331 307.104 105.58C307.104 105.02 306.965 104.515 306.688 104.066C306.411 103.611 306.017 103.254 305.506 102.995C304.995 102.73 304.386 102.598 303.678 102.598H299.902V108.138ZM299.902 100.133H303.29C303.881 100.133 304.414 100.025 304.888 99.8097C305.362 99.5881 305.734 99.2772 306.005 98.8771C306.282 98.4709 306.42 97.9908 306.42 97.4368C306.42 96.7043 306.162 96.1011 305.645 95.6271C305.134 95.1532 304.374 94.9162 303.364 94.9162H299.902V100.133ZM313.38 111V108.526L319.944 102.09C320.572 101.456 321.095 100.893 321.514 100.401C321.932 99.9081 322.246 99.4311 322.456 98.9695C322.665 98.5078 322.77 98.0154 322.77 97.4922C322.77 96.8951 322.634 96.3842 322.363 95.9595C322.092 95.5286 321.72 95.1963 321.246 94.9624C320.772 94.7285 320.234 94.6115 319.63 94.6115C319.009 94.6115 318.464 94.7408 317.996 94.9993C317.528 95.2517 317.165 95.6117 316.907 96.0795C316.654 96.5473 316.528 97.1044 316.528 97.7507H313.269C313.269 96.5504 313.543 95.5071 314.091 94.6207C314.638 93.7344 315.392 93.0481 316.353 92.5618C317.319 92.0755 318.427 91.8324 319.676 91.8324C320.944 91.8324 322.059 92.0694 323.019 92.5433C323.979 93.0173 324.724 93.6667 325.253 94.4915C325.789 95.3163 326.056 96.258 326.056 97.3168C326.056 98.0246 325.921 98.7202 325.65 99.4034C325.379 100.087 324.902 100.844 324.219 101.675C323.542 102.506 322.591 103.512 321.366 104.694L318.107 108.009V108.138H326.343V111H313.38ZM336.162 111V92.0909H339.587V108.129H347.915V111H336.162ZM356.927 111.277C355.542 111.277 354.342 110.972 353.326 110.363C352.31 109.754 351.522 108.901 350.962 107.805C350.408 106.71 350.131 105.429 350.131 103.964C350.131 102.5 350.408 101.216 350.962 100.114C351.522 99.0125 352.31 98.157 353.326 97.5476C354.342 96.9382 355.542 96.6335 356.927 96.6335C358.312 96.6335 359.512 96.9382 360.528 97.5476C361.543 98.157 362.328 99.0125 362.882 100.114C363.442 101.216 363.722 102.5 363.722 103.964C363.722 105.429 363.442 106.71 362.882 107.805C362.328 108.901 361.543 109.754 360.528 110.363C359.512 110.972 358.312 111.277 356.927 111.277ZM356.945 108.599C357.696 108.599 358.324 108.393 358.829 107.981C359.334 107.562 359.709 107.002 359.955 106.3C360.208 105.599 360.334 104.817 360.334 103.955C360.334 103.087 360.208 102.303 359.955 101.601C359.709 100.893 359.334 100.33 358.829 99.9112C358.324 99.4927 357.696 99.2834 356.945 99.2834C356.176 99.2834 355.536 99.4927 355.025 99.9112C354.52 100.33 354.142 100.893 353.889 101.601C353.643 102.303 353.52 103.087 353.52 103.955C353.52 104.817 353.643 105.599 353.889 106.3C354.142 107.002 354.52 107.562 355.025 107.981C355.536 108.393 356.176 108.599 356.945 108.599ZM373.641 96.8182V99.4034H365.488V96.8182H373.641ZM367.501 93.4205H370.843V106.734C370.843 107.184 370.911 107.528 371.046 107.768C371.188 108.002 371.373 108.162 371.6 108.249C371.828 108.335 372.08 108.378 372.357 108.378C372.567 108.378 372.758 108.362 372.93 108.332C373.108 108.301 373.244 108.273 373.336 108.249L373.899 110.862C373.721 110.923 373.465 110.991 373.133 111.065C372.807 111.138 372.407 111.182 371.933 111.194C371.096 111.219 370.342 111.092 369.671 110.815C369 110.532 368.467 110.095 368.073 109.504C367.686 108.913 367.495 108.175 367.501 107.288V93.4205ZM382.562 111.277C381.14 111.277 379.912 110.982 378.878 110.391C377.85 109.794 377.059 108.95 376.505 107.861C375.951 106.765 375.674 105.476 375.674 103.992C375.674 102.533 375.951 101.253 376.505 100.151C377.065 99.0433 377.847 98.1816 378.85 97.5661C379.854 96.9444 381.033 96.6335 382.387 96.6335C383.261 96.6335 384.086 96.7751 384.861 97.0582C385.643 97.3352 386.332 97.7661 386.929 98.3509C387.533 98.9356 388.007 99.6804 388.351 100.585C388.696 101.484 388.868 102.555 388.868 103.798V104.823H377.244V102.57H385.664C385.658 101.93 385.52 101.361 385.249 100.862C384.978 100.357 384.6 99.9605 384.113 99.6712C383.633 99.3819 383.073 99.2372 382.433 99.2372C381.75 99.2372 381.15 99.4034 380.632 99.7358C380.115 100.062 379.712 100.493 379.423 101.028C379.14 101.558 378.995 102.139 378.989 102.773V104.74C378.989 105.565 379.14 106.273 379.441 106.864C379.743 107.448 380.165 107.898 380.706 108.212C381.248 108.519 381.882 108.673 382.608 108.673C383.095 108.673 383.535 108.606 383.929 108.47C384.323 108.329 384.664 108.122 384.953 107.852C385.243 107.581 385.461 107.245 385.609 106.845L388.73 107.196C388.533 108.021 388.157 108.741 387.603 109.357C387.056 109.966 386.354 110.44 385.498 110.778C384.643 111.111 383.664 111.277 382.562 111.277ZM398.108 111V108.526L404.673 102.09C405.301 101.456 405.824 100.893 406.242 100.401C406.661 99.9081 406.975 99.4311 407.184 98.9695C407.393 98.5078 407.498 98.0154 407.498 97.4922C407.498 96.8951 407.363 96.3842 407.092 95.9595C406.821 95.5286 406.449 95.1963 405.975 94.9624C405.501 94.7285 404.962 94.6115 404.359 94.6115C403.737 94.6115 403.192 94.7408 402.725 94.9993C402.257 95.2517 401.894 95.6117 401.635 96.0795C401.383 96.5473 401.257 97.1044 401.257 97.7507H397.997C397.997 96.5504 398.271 95.5071 398.819 94.6207C399.367 93.7344 400.121 93.0481 401.081 92.5618C402.048 92.0755 403.155 91.8324 404.405 91.8324C405.673 91.8324 406.787 92.0694 407.747 92.5433C408.708 93.0173 409.452 93.6667 409.982 94.4915C410.517 95.3163 410.785 96.258 410.785 97.3168C410.785 98.0246 410.65 98.7202 410.379 99.4034C410.108 100.087 409.631 100.844 408.948 101.675C408.271 102.506 407.32 103.512 406.095 104.694L402.835 108.009V108.138H411.071V111H398.108ZM413.509 107.491V104.768L421.532 92.0909H423.803V95.9688H422.419L417.017 104.528V104.675H428.217V107.491H413.509ZM422.529 111V106.661L422.566 105.442V92.0909H425.798V111H422.529Z" fill="white"/>
</svg>
