<svg width="512" height="166" viewBox="0 0 552 179" fill="none" xmlns="http://www.w3.org/2000/svg">
<rect x="132" width="420" height="110" rx="18" fill="#006DB7"/>
<path d="M76 102L187.5 66.026L155.5 42L76 102Z" fill="#006DB7"/>
<rect x="157.048" y="34.0476" width="41.9048" height="41.9048" rx="20.9524" fill="#0F7338"/>
<rect x="157.048" y="34.0476" width="41.9048" height="41.9048" rx="20.9524" stroke="white" stroke-width="2.09524"/>
<g clip-path="url(#clip0_146_81877)">
<path d="M168.769 55.6547C168.557 55.6311 168.346 55.7052 168.194 55.8563L166.206 57.845C165.855 58.196 165.969 58.7924 166.426 58.9883L169.782 60.4264L170.68 61.3251L169.189 62.8165C168.914 63.0912 168.914 63.5363 169.189 63.8108C169.463 64.0854 169.909 64.0854 170.183 63.8108L171.675 62.3194L172.573 63.2179L174.011 66.5736C174.207 67.0314 174.804 67.1447 175.155 66.7937L177.143 64.8052C177.294 64.6541 177.369 64.4427 177.345 64.2304L176.904 60.2583L179.071 58.2147L183.994 66.6511C184.226 67.0482 184.772 67.1202 185.098 66.7937L187.087 64.8052C187.256 64.6364 187.327 64.3936 187.277 64.1601L186.653 61.2612L188.081 59.8335C188.356 59.5591 188.356 59.1137 188.081 58.8393C187.806 58.5646 187.361 58.5646 187.087 58.8393L186.301 59.6246L185.589 56.3139C185.757 56.2262 185.704 56.2295 187.087 54.8619C187.361 54.5874 187.361 54.1423 187.087 53.8676C186.812 53.5931 186.367 53.5931 186.092 53.8676L185.245 54.7148L184.83 52.7838L188.918 48.9291C190.328 47.6041 190.367 45.3774 188.994 44.0052C187.626 42.6365 185.398 42.6691 184.072 44.0812L180.216 48.1699L178.285 47.7545L179.132 46.9074C179.407 46.6328 179.407 46.1876 179.132 45.9132C178.858 45.6385 178.412 45.6385 178.138 45.9132C176.776 47.2903 176.774 47.2425 176.686 47.4106L173.375 46.6985L174.161 45.9132C174.435 45.6385 174.435 45.1934 174.161 44.9187C173.886 44.6442 173.441 44.6442 173.166 44.9187L171.739 46.3464L168.84 45.7229C168.606 45.6727 168.363 45.7443 168.194 45.9132L166.206 47.9017C166.052 48.0559 165.978 48.2728 166.006 48.4891C166.034 48.7051 166.16 48.8963 166.349 49.0062L174.785 53.9289L172.741 56.096L168.769 55.6547ZM168.95 57.0895L171.534 57.3766L170.009 58.9938L167.934 58.1048L168.95 57.0895ZM175.91 64.0497L174.895 65.0652L174.006 62.991L175.623 61.4659L175.91 64.0497ZM185.822 64.0816L184.748 65.1546L180.121 57.2243L183.634 53.9114L185.822 64.0816ZM185.096 45.0449C185.877 44.2134 187.19 44.1898 188 44.9995C188.805 45.8042 188.792 47.1178 187.954 47.905L173.181 61.8365L172.669 61.3249L174.16 59.8335C174.435 59.5589 174.435 59.1137 174.16 58.8393C173.886 58.5646 173.441 58.5646 173.166 58.8393L171.675 60.3307L171.163 59.8193L185.096 45.0449ZM167.845 48.2512L168.918 47.1781L179.088 49.3656L175.775 52.8787L167.845 48.2512Z" fill="white"/>
</g>
<path d="M220.293 49H216.637L223.294 30.0909H227.523L234.189 49H230.533L225.482 33.9688H225.335L220.293 49ZM220.413 41.5859H230.385V44.3374H220.413V41.5859ZM242.379 49.277C240.957 49.277 239.729 48.9815 238.695 48.3906C237.667 47.7936 236.876 46.9503 236.322 45.8608C235.768 44.7652 235.491 43.4756 235.491 41.9922C235.491 40.5334 235.768 39.2531 236.322 38.1513C236.882 37.0433 237.664 36.1816 238.667 35.5661C239.67 34.9444 240.849 34.6335 242.203 34.6335C243.077 34.6335 243.902 34.7751 244.678 35.0582C245.459 35.3352 246.149 35.7661 246.746 36.3509C247.349 36.9356 247.823 37.6804 248.168 38.5852C248.512 39.4839 248.685 40.5549 248.685 41.7983V42.8232H237.06V40.5703H245.481C245.475 39.9302 245.336 39.3608 245.065 38.8622C244.795 38.3575 244.416 37.9605 243.93 37.6712C243.45 37.3819 242.889 37.2372 242.249 37.2372C241.566 37.2372 240.966 37.4034 240.449 37.7358C239.932 38.062 239.529 38.4929 239.239 39.0284C238.956 39.5578 238.812 40.1394 238.805 40.7734V42.7401C238.805 43.5649 238.956 44.2727 239.258 44.8636C239.559 45.4484 239.981 45.8977 240.523 46.2116C241.064 46.5194 241.698 46.6733 242.425 46.6733C242.911 46.6733 243.351 46.6056 243.745 46.4702C244.139 46.3286 244.481 46.1224 244.77 45.8516C245.059 45.5807 245.278 45.2453 245.425 44.8452L248.546 45.196C248.349 46.0208 247.974 46.741 247.42 47.3565C246.872 47.9659 246.17 48.4399 245.315 48.7784C244.459 49.1108 243.48 49.277 242.379 49.277ZM251.512 49V34.8182H254.753V37.1818H254.901C255.159 36.3632 255.602 35.7322 256.23 35.2891C256.864 34.8397 257.588 34.6151 258.4 34.6151C258.585 34.6151 258.791 34.6243 259.019 34.6428C259.253 34.6551 259.446 34.6766 259.6 34.7074V37.782C259.459 37.7327 259.234 37.6896 258.926 37.6527C258.625 37.6096 258.332 37.5881 258.049 37.5881C257.44 37.5881 256.892 37.7204 256.406 37.9851C255.926 38.2436 255.547 38.6037 255.27 39.0653C254.993 39.527 254.855 40.0594 254.855 40.6626V49H251.512ZM267.423 49.277C266.038 49.277 264.838 48.9723 263.822 48.3629C262.806 47.7536 262.019 46.901 261.458 45.8054C260.904 44.7098 260.627 43.4295 260.627 41.9645C260.627 40.4995 260.904 39.2161 261.458 38.1143C262.019 37.0125 262.806 36.157 263.822 35.5476C264.838 34.9382 266.038 34.6335 267.423 34.6335C268.808 34.6335 270.008 34.9382 271.024 35.5476C272.039 36.157 272.824 37.0125 273.378 38.1143C273.938 39.2161 274.218 40.4995 274.218 41.9645C274.218 43.4295 273.938 44.7098 273.378 45.8054C272.824 46.901 272.039 47.7536 271.024 48.3629C270.008 48.9723 268.808 49.277 267.423 49.277ZM267.441 46.5994C268.192 46.5994 268.82 46.3932 269.325 45.9808C269.83 45.5623 270.205 45.0021 270.451 44.3004C270.704 43.5987 270.83 42.817 270.83 41.9553C270.83 41.0874 270.704 40.3026 270.451 39.6009C270.205 38.893 269.83 38.3298 269.325 37.9112C268.82 37.4927 268.192 37.2834 267.441 37.2834C266.672 37.2834 266.032 37.4927 265.521 37.9112C265.016 38.3298 264.638 38.893 264.385 39.6009C264.139 40.3026 264.016 41.0874 264.016 41.9553C264.016 42.817 264.139 43.5987 264.385 44.3004C264.638 45.0021 265.016 45.5623 265.521 45.9808C266.032 46.3932 266.672 46.5994 267.441 46.5994ZM277.055 54.3182V34.8182H280.342V37.1634H280.536C280.708 36.8187 280.952 36.4524 281.265 36.0646C281.579 35.6707 282.004 35.3352 282.54 35.0582C283.075 34.7751 283.758 34.6335 284.589 34.6335C285.685 34.6335 286.673 34.9136 287.553 35.4737C288.439 36.0277 289.141 36.8494 289.658 37.9389C290.181 39.0223 290.443 40.3518 290.443 41.9276C290.443 43.4848 290.188 44.8082 289.677 45.8977C289.166 46.9872 288.47 47.8182 287.59 48.3906C286.71 48.9631 285.713 49.2493 284.599 49.2493C283.786 49.2493 283.112 49.1139 282.577 48.843C282.041 48.5722 281.61 48.246 281.284 47.8643C280.964 47.4766 280.715 47.1103 280.536 46.7656H280.398V54.3182H277.055ZM280.333 41.9091C280.333 42.8262 280.462 43.6295 280.721 44.3189C280.985 45.0083 281.364 45.5469 281.856 45.9347C282.355 46.3163 282.958 46.5071 283.666 46.5071C284.405 46.5071 285.023 46.3101 285.522 45.9162C286.02 45.5161 286.396 44.9714 286.648 44.282C286.907 43.5864 287.036 42.7955 287.036 41.9091C287.036 41.0289 286.91 40.2472 286.657 39.5639C286.405 38.8807 286.03 38.3452 285.531 37.9574C285.032 37.5696 284.411 37.3757 283.666 37.3757C282.952 37.3757 282.346 37.5634 281.847 37.9389C281.349 38.3144 280.97 38.8407 280.711 39.5178C280.459 40.1948 280.333 40.992 280.333 41.9091ZM302.344 43.0355V34.8182H305.687V49H302.446V46.4794H302.298C301.978 47.2734 301.452 47.9228 300.719 48.4276C299.993 48.9323 299.097 49.1847 298.032 49.1847C297.103 49.1847 296.281 48.9785 295.567 48.5661C294.859 48.1475 294.305 47.5412 293.905 46.7472C293.505 45.947 293.305 44.9806 293.305 43.848V34.8182H296.648V43.331C296.648 44.2296 296.894 44.9437 297.386 45.473C297.879 46.0024 298.525 46.267 299.325 46.267C299.818 46.267 300.295 46.147 300.756 45.907C301.218 45.6669 301.596 45.3099 301.892 44.8359C302.193 44.3558 302.344 43.7557 302.344 43.0355ZM315.402 49.277C313.98 49.277 312.752 48.9815 311.718 48.3906C310.69 47.7936 309.899 46.9503 309.345 45.8608C308.791 44.7652 308.514 43.4756 308.514 41.9922C308.514 40.5334 308.791 39.2531 309.345 38.1513C309.905 37.0433 310.687 36.1816 311.69 35.5661C312.694 34.9444 313.872 34.6335 315.227 34.6335C316.101 34.6335 316.925 34.7751 317.701 35.0582C318.483 35.3352 319.172 35.7661 319.769 36.3509C320.372 36.9356 320.846 37.6804 321.191 38.5852C321.536 39.4839 321.708 40.5549 321.708 41.7983V42.8232H310.084V40.5703H318.504C318.498 39.9302 318.36 39.3608 318.089 38.8622C317.818 38.3575 317.439 37.9605 316.953 37.6712C316.473 37.3819 315.913 37.2372 315.273 37.2372C314.589 37.2372 313.989 37.4034 313.472 37.7358C312.955 38.062 312.552 38.4929 312.263 39.0284C311.98 39.5578 311.835 40.1394 311.829 40.7734V42.7401C311.829 43.5649 311.98 44.2727 312.281 44.8636C312.583 45.4484 313.004 45.8977 313.546 46.2116C314.088 46.5194 314.722 46.6733 315.448 46.6733C315.934 46.6733 316.375 46.6056 316.768 46.4702C317.162 46.3286 317.504 46.1224 317.793 45.8516C318.083 45.5807 318.301 45.2453 318.449 44.8452L321.57 45.196C321.373 46.0208 320.997 46.741 320.443 47.3565C319.895 47.9659 319.194 48.4399 318.338 48.7784C317.482 49.1108 316.504 49.277 315.402 49.277ZM324.536 49V34.8182H327.776V37.1818H327.924C328.183 36.3632 328.626 35.7322 329.254 35.2891C329.888 34.8397 330.611 34.6151 331.423 34.6151C331.608 34.6151 331.814 34.6243 332.042 34.6428C332.276 34.6551 332.47 34.6766 332.624 34.7074V37.782C332.482 37.7327 332.258 37.6896 331.95 37.6527C331.648 37.6096 331.356 37.5881 331.073 37.5881C330.463 37.5881 329.915 37.7204 329.429 37.9851C328.949 38.2436 328.57 38.6037 328.294 39.0653C328.017 39.527 327.878 40.0594 327.878 40.6626V49H324.536ZM342.688 34.8182V37.4034H334.535V34.8182H342.688ZM336.548 31.4205H339.89V44.7344C339.89 45.1837 339.958 45.5284 340.093 45.7685C340.235 46.0024 340.419 46.1624 340.647 46.2486C340.875 46.3348 341.127 46.3778 341.404 46.3778C341.614 46.3778 341.804 46.3625 341.977 46.3317C342.155 46.3009 342.291 46.2732 342.383 46.2486L342.946 48.8615C342.768 48.9231 342.512 48.9908 342.18 49.0646C341.854 49.1385 341.454 49.1816 340.98 49.1939C340.142 49.2185 339.388 49.0923 338.718 48.8153C338.047 48.5322 337.514 48.0952 337.12 47.5043C336.732 46.9134 336.542 46.1747 336.548 45.2884V31.4205ZM351.517 49.277C350.132 49.277 348.931 48.9723 347.916 48.3629C346.9 47.7536 346.112 46.901 345.552 45.8054C344.998 44.7098 344.721 43.4295 344.721 41.9645C344.721 40.4995 344.998 39.2161 345.552 38.1143C346.112 37.0125 346.9 36.157 347.916 35.5476C348.931 34.9382 350.132 34.6335 351.517 34.6335C352.902 34.6335 354.102 34.9382 355.118 35.5476C356.133 36.157 356.918 37.0125 357.472 38.1143C358.032 39.2161 358.312 40.4995 358.312 41.9645C358.312 43.4295 358.032 44.7098 357.472 45.8054C356.918 46.901 356.133 47.7536 355.118 48.3629C354.102 48.9723 352.902 49.277 351.517 49.277ZM351.535 46.5994C352.286 46.5994 352.914 46.3932 353.419 45.9808C353.923 45.5623 354.299 45.0021 354.545 44.3004C354.797 43.5987 354.924 42.817 354.924 41.9553C354.924 41.0874 354.797 40.3026 354.545 39.6009C354.299 38.893 353.923 38.3298 353.419 37.9112C352.914 37.4927 352.286 37.2834 351.535 37.2834C350.766 37.2834 350.126 37.4927 349.615 37.9112C349.11 38.3298 348.731 38.893 348.479 39.6009C348.233 40.3026 348.11 41.0874 348.11 41.9553C348.11 42.817 348.233 43.5987 348.479 44.3004C348.731 45.0021 349.11 45.5623 349.615 45.9808C350.126 46.3932 350.766 46.5994 351.535 46.5994ZM221.29 61.0909V80H217.865V61.0909H221.29ZM228.194 71.6903V80H224.852V65.8182H228.047V68.228H228.213C228.539 67.4339 229.059 66.803 229.773 66.3352C230.493 65.8674 231.383 65.6335 232.442 65.6335C233.42 65.6335 234.273 65.8428 234.999 66.2614C235.732 66.6799 236.298 67.2862 236.698 68.0803C237.104 68.8743 237.304 69.8376 237.298 70.9702V80H233.956V71.4872C233.956 70.5393 233.71 69.7976 233.217 69.2621C232.731 68.7266 232.057 68.4588 231.195 68.4588C230.61 68.4588 230.09 68.5881 229.635 68.8466C229.185 69.099 228.831 69.4652 228.573 69.9453C228.321 70.4254 228.194 71.0071 228.194 71.6903ZM247.778 65.8182V68.4034H239.625V65.8182H247.778ZM241.638 62.4205H244.98V75.7344C244.98 76.1837 245.048 76.5284 245.183 76.7685C245.325 77.0024 245.509 77.1624 245.737 77.2486C245.965 77.3348 246.217 77.3778 246.494 77.3778C246.703 77.3778 246.894 77.3625 247.067 77.3317C247.245 77.3009 247.381 77.2732 247.473 77.2486L248.036 79.8615C247.858 79.9231 247.602 79.9908 247.27 80.0646C246.943 80.1385 246.543 80.1816 246.069 80.1939C245.232 80.2185 244.478 80.0923 243.807 79.8153C243.136 79.5322 242.604 79.0952 242.21 78.5043C241.822 77.9134 241.631 77.1747 241.638 76.2884V62.4205ZM256.699 80.277C255.277 80.277 254.049 79.9815 253.015 79.3906C251.987 78.7936 251.196 77.9503 250.642 76.8608C250.088 75.7652 249.811 74.4756 249.811 72.9922C249.811 71.5334 250.088 70.2531 250.642 69.1513C251.202 68.0433 251.984 67.1816 252.987 66.5661C253.991 65.9444 255.169 65.6335 256.523 65.6335C257.397 65.6335 258.222 65.7751 258.998 66.0582C259.78 66.3352 260.469 66.7661 261.066 67.3509C261.669 67.9356 262.143 68.6804 262.488 69.5852C262.833 70.4839 263.005 71.5549 263.005 72.7983V73.8232H251.381V71.5703H259.801C259.795 70.9302 259.656 70.3608 259.386 69.8622C259.115 69.3575 258.736 68.9605 258.25 68.6712C257.77 68.3819 257.21 68.2372 256.57 68.2372C255.886 68.2372 255.286 68.4034 254.769 68.7358C254.252 69.062 253.849 69.4929 253.56 70.0284C253.277 70.5578 253.132 71.1394 253.126 71.7734V73.7401C253.126 74.5649 253.277 75.2727 253.578 75.8636C253.88 76.4484 254.301 76.8977 254.843 77.2116C255.385 77.5194 256.019 77.6733 256.745 77.6733C257.231 77.6733 257.671 77.6056 258.065 77.4702C258.459 77.3286 258.801 77.1224 259.09 76.8516C259.379 76.5807 259.598 76.2453 259.746 75.8452L262.866 76.196C262.67 77.0208 262.294 77.741 261.74 78.3565C261.192 78.9659 260.491 79.4399 259.635 79.7784C258.779 80.1108 257.801 80.277 256.699 80.277ZM265.833 80V65.8182H269.073V68.1818H269.221C269.48 67.3632 269.923 66.7322 270.551 66.2891C271.185 65.8397 271.908 65.6151 272.72 65.6151C272.905 65.6151 273.111 65.6243 273.339 65.6428C273.573 65.6551 273.767 65.6766 273.921 65.7074V68.782C273.779 68.7327 273.554 68.6896 273.247 68.6527C272.945 68.6096 272.653 68.5881 272.369 68.5881C271.76 68.5881 271.212 68.7204 270.726 68.9851C270.246 69.2436 269.867 69.6037 269.59 70.0653C269.313 70.527 269.175 71.0594 269.175 71.6626V80H265.833ZM279.483 71.6903V80H276.141V65.8182H279.336V68.228H279.502C279.828 67.4339 280.348 66.803 281.062 66.3352C281.782 65.8674 282.672 65.6335 283.731 65.6335C284.709 65.6335 285.562 65.8428 286.288 66.2614C287.021 66.6799 287.587 67.2862 287.987 68.0803C288.393 68.8743 288.593 69.8376 288.587 70.9702V80H285.245V71.4872C285.245 70.5393 284.999 69.7976 284.506 69.2621C284.02 68.7266 283.346 68.4588 282.484 68.4588C281.899 68.4588 281.379 68.5881 280.924 68.8466C280.474 69.099 280.121 69.4652 279.862 69.9453C279.61 70.4254 279.483 71.0071 279.483 71.6903ZM296.066 80.2862C295.167 80.2862 294.358 80.1262 293.638 79.8061C292.924 79.4799 292.357 78.9998 291.939 78.3658C291.526 77.7318 291.32 76.95 291.32 76.0206C291.32 75.2204 291.468 74.5587 291.763 74.0355C292.059 73.5123 292.462 73.0938 292.973 72.7798C293.484 72.4659 294.059 72.2289 294.699 72.0689C295.346 71.9027 296.014 71.7827 296.703 71.7088C297.534 71.6226 298.208 71.5457 298.725 71.478C299.242 71.4041 299.617 71.2933 299.851 71.1456C300.091 70.9917 300.211 70.7547 300.211 70.4347V70.3793C300.211 69.6837 300.005 69.1451 299.593 68.7635C299.18 68.3819 298.586 68.1911 297.811 68.1911C296.992 68.1911 296.343 68.3696 295.863 68.7266C295.389 69.0836 295.069 69.5052 294.903 69.9915L291.782 69.5483C292.028 68.6866 292.434 67.9664 293.001 67.3878C293.567 66.803 294.259 66.366 295.078 66.0767C295.897 65.7812 296.801 65.6335 297.792 65.6335C298.476 65.6335 299.156 65.7135 299.833 65.8736C300.51 66.0336 301.129 66.2983 301.689 66.6676C302.249 67.0308 302.698 67.5263 303.037 68.1541C303.381 68.782 303.554 69.5668 303.554 70.5085V80H300.341V78.0518H300.23C300.027 78.4458 299.741 78.8151 299.371 79.1598C299.008 79.4983 298.55 79.7723 297.996 79.9815C297.448 80.1847 296.805 80.2862 296.066 80.2862ZM296.934 77.8303C297.605 77.8303 298.186 77.6979 298.679 77.4332C299.171 77.1624 299.55 76.8054 299.814 76.3622C300.085 75.919 300.221 75.4358 300.221 74.9126V73.2415C300.116 73.3277 299.938 73.4077 299.685 73.4815C299.439 73.5554 299.162 73.62 298.854 73.6754C298.546 73.7308 298.242 73.7801 297.94 73.8232C297.639 73.8662 297.377 73.9032 297.155 73.9339C296.657 74.0017 296.211 74.1125 295.817 74.2663C295.423 74.4202 295.112 74.6357 294.884 74.9126C294.656 75.1835 294.542 75.5343 294.542 75.9652C294.542 76.5807 294.767 77.0455 295.216 77.3594C295.666 77.6733 296.238 77.8303 296.934 77.8303ZM313.101 80.277C311.685 80.277 310.469 79.9661 309.454 79.3445C308.444 78.7228 307.666 77.8641 307.118 76.7685C306.576 75.6667 306.305 74.3987 306.305 72.9645C306.305 71.5241 306.582 70.2531 307.136 69.1513C307.69 68.0433 308.472 67.1816 309.481 66.5661C310.497 65.9444 311.697 65.6335 313.082 65.6335C314.233 65.6335 315.252 65.8459 316.138 66.2706C317.031 66.6892 317.742 67.2831 318.271 68.0526C318.8 68.8158 319.102 69.7083 319.176 70.7301H315.981C315.852 70.0469 315.544 69.4775 315.058 69.022C314.578 68.5604 313.935 68.3295 313.128 68.3295C312.445 68.3295 311.845 68.5142 311.328 68.8835C310.811 69.2467 310.408 69.7699 310.118 70.4531C309.835 71.1364 309.694 71.955 309.694 72.9091C309.694 73.8755 309.835 74.7064 310.118 75.402C310.402 76.0914 310.799 76.6238 311.309 76.9993C311.827 77.3686 312.433 77.5533 313.128 77.5533C313.621 77.5533 314.061 77.4609 314.449 77.2763C314.843 77.0855 315.172 76.8116 315.437 76.4545C315.701 76.0975 315.883 75.6636 315.981 75.1527H319.176C319.096 76.156 318.8 77.0455 318.29 77.821C317.779 78.5904 317.083 79.1937 316.203 79.6307C315.323 80.0616 314.289 80.277 313.101 80.277ZM321.92 80V65.8182H325.263V80H321.92ZM323.601 63.8054C323.071 63.8054 322.616 63.63 322.234 63.2791C321.853 62.9221 321.662 62.4943 321.662 61.9957C321.662 61.491 321.853 61.0632 322.234 60.7124C322.616 60.3553 323.071 60.1768 323.601 60.1768C324.136 60.1768 324.592 60.3553 324.967 60.7124C325.349 61.0632 325.54 61.491 325.54 61.9957C325.54 62.4943 325.349 62.9221 324.967 63.2791C324.592 63.63 324.136 63.8054 323.601 63.8054ZM334.886 80.277C333.501 80.277 332.301 79.9723 331.285 79.3629C330.269 78.7536 329.481 77.901 328.921 76.8054C328.367 75.7098 328.09 74.4295 328.09 72.9645C328.09 71.4995 328.367 70.2161 328.921 69.1143C329.481 68.0125 330.269 67.157 331.285 66.5476C332.301 65.9382 333.501 65.6335 334.886 65.6335C336.271 65.6335 337.471 65.9382 338.487 66.5476C339.502 67.157 340.287 68.0125 340.841 69.1143C341.401 70.2161 341.681 71.4995 341.681 72.9645C341.681 74.4295 341.401 75.7098 340.841 76.8054C340.287 77.901 339.502 78.7536 338.487 79.3629C337.471 79.9723 336.271 80.277 334.886 80.277ZM334.904 77.5994C335.655 77.5994 336.283 77.3932 336.788 76.9808C337.293 76.5623 337.668 76.0021 337.914 75.3004C338.167 74.5987 338.293 73.817 338.293 72.9553C338.293 72.0874 338.167 71.3026 337.914 70.6009C337.668 69.893 337.293 69.3298 336.788 68.9112C336.283 68.4927 335.655 68.2834 334.904 68.2834C334.135 68.2834 333.495 68.4927 332.984 68.9112C332.479 69.3298 332.101 69.893 331.848 70.6009C331.602 71.3026 331.479 72.0874 331.479 72.9553C331.479 73.817 331.602 74.5987 331.848 75.3004C332.101 76.0021 332.479 76.5623 332.984 76.9808C333.495 77.3932 334.135 77.5994 334.904 77.5994ZM347.86 71.6903V80H344.518V65.8182H347.713V68.228H347.879C348.205 67.4339 348.725 66.803 349.439 66.3352C350.159 65.8674 351.049 65.6335 352.108 65.6335C353.086 65.6335 353.939 65.8428 354.665 66.2614C355.398 66.6799 355.964 67.2862 356.364 68.0803C356.77 68.8743 356.97 69.8376 356.964 70.9702V80H353.622V71.4872C353.622 70.5393 353.376 69.7976 352.883 69.2621C352.397 68.7266 351.723 68.4588 350.861 68.4588C350.276 68.4588 349.756 68.5881 349.301 68.8466C348.851 69.099 348.498 69.4652 348.239 69.9453C347.987 70.4254 347.86 71.0071 347.86 71.6903ZM364.443 80.2862C363.544 80.2862 362.735 80.1262 362.015 79.8061C361.301 79.4799 360.734 78.9998 360.316 78.3658C359.903 77.7318 359.697 76.95 359.697 76.0206C359.697 75.2204 359.845 74.5587 360.14 74.0355C360.436 73.5123 360.839 73.0938 361.35 72.7798C361.861 72.4659 362.436 72.2289 363.076 72.0689C363.723 71.9027 364.391 71.7827 365.08 71.7088C365.911 71.6226 366.585 71.5457 367.102 71.478C367.619 71.4041 367.994 71.2933 368.228 71.1456C368.468 70.9917 368.588 70.7547 368.588 70.4347V70.3793C368.588 69.6837 368.382 69.1451 367.97 68.7635C367.557 68.3819 366.963 68.1911 366.188 68.1911C365.369 68.1911 364.72 68.3696 364.24 68.7266C363.766 69.0836 363.446 69.5052 363.279 69.9915L360.159 69.5483C360.405 68.6866 360.811 67.9664 361.377 67.3878C361.944 66.803 362.636 66.366 363.455 66.0767C364.274 65.7812 365.178 65.6335 366.169 65.6335C366.853 65.6335 367.533 65.7135 368.21 65.8736C368.887 66.0336 369.506 66.2983 370.066 66.6676C370.626 67.0308 371.075 67.5263 371.414 68.1541C371.758 68.782 371.931 69.5668 371.931 70.5085V80H368.718V78.0518H368.607C368.404 78.4458 368.118 78.8151 367.748 79.1598C367.385 79.4983 366.926 79.7723 366.373 79.9815C365.825 80.1847 365.181 80.2862 364.443 80.2862ZM365.311 77.8303C365.982 77.8303 366.563 77.6979 367.056 77.4332C367.548 77.1624 367.927 76.8054 368.191 76.3622C368.462 75.919 368.598 75.4358 368.598 74.9126V73.2415C368.493 73.3277 368.315 73.4077 368.062 73.4815C367.816 73.5554 367.539 73.62 367.231 73.6754C366.923 73.7308 366.619 73.7801 366.317 73.8232C366.016 73.8662 365.754 73.9032 365.532 73.9339C365.034 74.0017 364.587 74.1125 364.194 74.2663C363.8 74.4202 363.489 74.6357 363.261 74.9126C363.033 75.1835 362.919 75.5343 362.919 75.9652C362.919 76.5807 363.144 77.0455 363.593 77.3594C364.043 77.6733 364.615 77.8303 365.311 77.8303ZM378.634 61.0909V80H375.292V61.0909H378.634ZM393.783 80.2493C392.669 80.2493 391.672 79.9631 390.791 79.3906C389.911 78.8182 389.216 77.9872 388.705 76.8977C388.194 75.8082 387.938 74.4848 387.938 72.9276C387.938 71.3518 388.197 70.0223 388.714 68.9389C389.237 67.8494 389.942 67.0277 390.828 66.4737C391.715 65.9136 392.703 65.6335 393.792 65.6335C394.623 65.6335 395.306 65.7751 395.842 66.0582C396.377 66.3352 396.802 66.6707 397.116 67.0646C397.43 67.4524 397.673 67.8187 397.845 68.1634H397.984V61.0909H401.335V80H398.048V77.7656H397.845C397.673 78.1103 397.424 78.4766 397.097 78.8643C396.771 79.246 396.34 79.5722 395.805 79.843C395.269 80.1139 394.595 80.2493 393.783 80.2493ZM394.715 77.5071C395.423 77.5071 396.026 77.3163 396.525 76.9347C397.024 76.5469 397.402 76.0083 397.661 75.3189C397.919 74.6295 398.048 73.8262 398.048 72.9091C398.048 71.992 397.919 71.1948 397.661 70.5178C397.408 69.8407 397.033 69.3144 396.534 68.9389C396.042 68.5634 395.436 68.3757 394.715 68.3757C393.971 68.3757 393.349 68.5696 392.85 68.9574C392.352 69.3452 391.976 69.8807 391.724 70.5639C391.472 71.2472 391.345 72.0289 391.345 72.9091C391.345 73.7955 391.472 74.5864 391.724 75.282C391.982 75.9714 392.361 76.5161 392.86 76.9162C393.364 77.3101 393.983 77.5071 394.715 77.5071ZM411.175 80.277C409.754 80.277 408.526 79.9815 407.491 79.3906C406.464 78.7936 405.673 77.9503 405.119 76.8608C404.565 75.7652 404.288 74.4756 404.288 72.9922C404.288 71.5334 404.565 70.2531 405.119 69.1513C405.679 68.0433 406.46 67.1816 407.464 66.5661C408.467 65.9444 409.646 65.6335 411 65.6335C411.874 65.6335 412.699 65.7751 413.474 66.0582C414.256 66.3352 414.946 66.7661 415.543 67.3509C416.146 67.9356 416.62 68.6804 416.964 69.5852C417.309 70.4839 417.482 71.5549 417.482 72.7983V73.8232H405.857V71.5703H414.278C414.272 70.9302 414.133 70.3608 413.862 69.8622C413.591 69.3575 413.213 68.9605 412.727 68.6712C412.246 68.3819 411.686 68.2372 411.046 68.2372C410.363 68.2372 409.763 68.4034 409.246 68.7358C408.729 69.062 408.326 69.4929 408.036 70.0284C407.753 70.5578 407.608 71.1394 407.602 71.7734V73.7401C407.602 74.5649 407.753 75.2727 408.055 75.8636C408.356 76.4484 408.778 76.8977 409.32 77.2116C409.861 77.5194 410.495 77.6733 411.222 77.6733C411.708 77.6733 412.148 77.6056 412.542 77.4702C412.936 77.3286 413.277 77.1224 413.567 76.8516C413.856 76.5807 414.075 76.2453 414.222 75.8452L417.343 76.196C417.146 77.0208 416.771 77.741 416.217 78.3565C415.669 78.9659 414.967 79.4399 414.112 79.7784C413.256 80.1108 412.277 80.277 411.175 80.277ZM426.906 80V61.0909H433.997C435.45 61.0909 436.668 61.3617 437.653 61.9034C438.644 62.4451 439.392 63.1899 439.897 64.1378C440.408 65.0795 440.663 66.1506 440.663 67.3509C440.663 68.5634 440.408 69.6406 439.897 70.5824C439.386 71.5241 438.632 72.2659 437.635 72.8075C436.638 73.343 435.41 73.6108 433.951 73.6108H429.251V70.7947H433.489C434.339 70.7947 435.034 70.647 435.576 70.3516C436.117 70.0561 436.518 69.6499 436.776 69.1328C437.041 68.6158 437.173 68.0218 437.173 67.3509C437.173 66.6799 437.041 66.089 436.776 65.5781C436.518 65.0672 436.114 64.6702 435.567 64.3871C435.025 64.0978 434.326 63.9531 433.471 63.9531H430.331V80H426.906ZM443.491 80V65.8182H446.833V80H443.491ZM445.171 63.8054C444.642 63.8054 444.186 63.63 443.805 63.2791C443.423 62.9221 443.232 62.4943 443.232 61.9957C443.232 61.491 443.423 61.0632 443.805 60.7124C444.186 60.3553 444.642 60.1768 445.171 60.1768C445.707 60.1768 446.162 60.3553 446.538 60.7124C446.919 61.0632 447.11 61.491 447.11 61.9957C447.11 62.4943 446.919 62.9221 446.538 63.2791C446.162 63.63 445.707 63.8054 445.171 63.8054ZM461.479 69.5668L458.432 69.8991C458.346 69.5914 458.195 69.3021 457.98 69.0312C457.77 68.7604 457.487 68.5419 457.13 68.3757C456.773 68.2095 456.336 68.1264 455.819 68.1264C455.124 68.1264 454.539 68.2772 454.065 68.5788C453.597 68.8804 453.366 69.2713 453.372 69.7514C453.366 70.1638 453.517 70.4993 453.825 70.7578C454.139 71.0163 454.656 71.2287 455.376 71.3949L457.795 71.9119C459.137 72.2012 460.134 72.6598 460.786 73.2876C461.445 73.9155 461.777 74.7372 461.784 75.7528C461.777 76.6454 461.516 77.4332 460.999 78.1165C460.488 78.7936 459.777 79.3229 458.866 79.7045C457.955 80.0862 456.909 80.277 455.727 80.277C453.991 80.277 452.594 79.9138 451.535 79.1875C450.476 78.455 449.845 77.4363 449.642 76.1314L452.901 75.8175C453.049 76.4576 453.363 76.9408 453.843 77.267C454.323 77.5933 454.948 77.7564 455.718 77.7564C456.512 77.7564 457.149 77.5933 457.629 77.267C458.115 76.9408 458.358 76.5376 458.358 76.0575C458.358 75.6513 458.201 75.3158 457.887 75.0511C457.579 74.7865 457.099 74.5833 456.447 74.4418L454.028 73.9339C452.668 73.6508 451.661 73.1738 451.009 72.5028C450.356 71.8258 450.033 70.9702 450.039 69.9361C450.033 69.062 450.27 68.3049 450.75 67.6648C451.236 67.0185 451.91 66.5199 452.772 66.169C453.64 65.812 454.64 65.6335 455.773 65.6335C457.435 65.6335 458.743 65.9875 459.697 66.6953C460.657 67.4032 461.251 68.3603 461.479 69.5668ZM470.726 80.277C469.31 80.277 468.094 79.9661 467.079 79.3445C466.069 78.7228 465.291 77.8641 464.743 76.7685C464.201 75.6667 463.93 74.3987 463.93 72.9645C463.93 71.5241 464.207 70.2531 464.761 69.1513C465.315 68.0433 466.097 67.1816 467.106 66.5661C468.122 65.9444 469.322 65.6335 470.707 65.6335C471.858 65.6335 472.877 65.8459 473.763 66.2706C474.656 66.6892 475.367 67.2831 475.896 68.0526C476.425 68.8158 476.727 69.7083 476.801 70.7301H473.606C473.477 70.0469 473.169 69.4775 472.683 69.022C472.203 68.5604 471.56 68.3295 470.753 68.3295C470.07 68.3295 469.47 68.5142 468.953 68.8835C468.436 69.2467 468.033 69.7699 467.743 70.4531C467.46 71.1364 467.319 71.955 467.319 72.9091C467.319 73.8755 467.46 74.7064 467.743 75.402C468.027 76.0914 468.424 76.6238 468.934 76.9993C469.452 77.3686 470.058 77.5533 470.753 77.5533C471.246 77.5533 471.686 77.4609 472.074 77.2763C472.468 77.0855 472.797 76.8116 473.062 76.4545C473.326 76.0975 473.508 75.6636 473.606 75.1527H476.801C476.721 76.156 476.425 77.0455 475.915 77.821C475.404 78.5904 474.708 79.1937 473.828 79.6307C472.948 80.0616 471.914 80.277 470.726 80.277ZM485.732 80.277C484.347 80.277 483.146 79.9723 482.131 79.3629C481.115 78.7536 480.327 77.901 479.767 76.8054C479.213 75.7098 478.936 74.4295 478.936 72.9645C478.936 71.4995 479.213 70.2161 479.767 69.1143C480.327 68.0125 481.115 67.157 482.131 66.5476C483.146 65.9382 484.347 65.6335 485.732 65.6335C487.116 65.6335 488.317 65.9382 489.332 66.5476C490.348 67.157 491.133 68.0125 491.687 69.1143C492.247 70.2161 492.527 71.4995 492.527 72.9645C492.527 74.4295 492.247 75.7098 491.687 76.8054C491.133 77.901 490.348 78.7536 489.332 79.3629C488.317 79.9723 487.116 80.277 485.732 80.277ZM485.75 77.5994C486.501 77.5994 487.129 77.3932 487.634 76.9808C488.138 76.5623 488.514 76.0021 488.76 75.3004C489.012 74.5987 489.138 73.817 489.138 72.9553C489.138 72.0874 489.012 71.3026 488.76 70.6009C488.514 69.893 488.138 69.3298 487.634 68.9112C487.129 68.4927 486.501 68.2834 485.75 68.2834C484.981 68.2834 484.34 68.4927 483.83 68.9112C483.325 69.3298 482.946 69.893 482.694 70.6009C482.448 71.3026 482.325 72.0874 482.325 72.9553C482.325 73.817 482.448 74.5987 482.694 75.3004C482.946 76.0021 483.325 76.5623 483.83 76.9808C484.34 77.3932 484.981 77.5994 485.75 77.5994Z" fill="white"/>
<g clip-path="url(#clip1_146_81877)">
<path d="M4.07031 151.61L60.5203 119.02L88.9903 135.46L71.5003 145.55L64.4703 141.49L25.5103 163.99L4.07031 151.61Z" fill="#F7F7F6"/>
<path d="M4.07031 139.39L60.5203 106.8L88.9903 123.23L71.5003 133.33L64.4703 129.27L25.5103 151.77L4.07031 139.39Z" fill="#F7F7F6"/>
<path d="M88.99 123.229V135.459L71.5 145.549V133.329L88.99 123.229Z" fill="#D2ECFD"/>
<path d="M64.4698 129.27V141.49L25.5098 163.99V151.77L64.4698 129.27Z" fill="#D2ECFD"/>
<path d="M4.07031 139.39V151.61L25.5103 163.99V151.77L4.07031 139.39Z" fill="#BAD1E0"/>
<path d="M71.5007 145.55L64.4707 141.49V129.27L71.5007 133.33V145.55Z" fill="#BAD1E0"/>
<path d="M70.691 133.8L65.291 130.68V141.02L70.691 144.14V133.8Z" fill="#1B9AD1"/>
<path d="M41.5701 143.439V153.779L36.8301 156.509V146.169L41.5701 143.439Z" fill="#93DAF8"/>
<path d="M36.0201 146.64V156.98L31.0801 159.83V149.49L36.0201 146.64Z" fill="#93DAF8"/>
<path d="M47.3209 140.109V150.449L42.3809 153.309V142.969L47.3209 140.109Z" fill="#93DAF8"/>
<path d="M63.6614 130.68V141.02L59.4414 143.46V133.12L63.6614 130.68Z" fill="#93DAF8"/>
<path d="M52.8706 136.91V147.25L48.1406 149.98V139.64L52.8706 136.91Z" fill="#93DAF8"/>
<path d="M58.6197 133.59V143.93L53.6797 146.78V136.44L58.6197 133.59Z" fill="#93DAF8"/>
<path d="M30.2601 160.3L26.3301 162.58V152.24L30.2601 149.96V160.3Z" fill="#93DAF8"/>
<path d="M4.89062 140.8L8.40062 142.83V153.17L4.89062 151.14V140.8Z" fill="#1B9AD1"/>
<path d="M13.9509 146.03V156.37L9.21094 153.64V143.3L13.9509 146.03Z" fill="#1B9AD1"/>
<path d="M24.7015 152.239V162.579L20.5215 160.159V149.819L24.7015 152.239Z" fill="#1B9AD1"/>
<path d="M19.6998 149.35V159.69L14.7598 156.84V146.5L19.6998 149.35Z" fill="#1B9AD1"/>
<path d="M63.6595 131.569V134.939L59.4395 142.209V139.069L63.6595 131.569Z" fill="#CAEBFD"/>
<path d="M58.6193 143.62L58.3493 144.09L55.7793 145.57L58.6193 140.52V143.62Z" fill="#CAEBFD"/>
<path d="M63.6595 137.269L60.3895 142.909L59.4395 143.459V143.339L63.6595 135.839V137.269Z" fill="#CAEBFD"/>
<path d="M52.8706 144.07L50.0906 148.86L48.1406 149.98V149.26L52.8706 140.85V144.07Z" fill="#CAEBFD"/>
<path d="M53.6797 139.399L56.1497 135.019L58.6197 133.589V134.139L53.6797 142.659V139.399Z" fill="#CAEBFD"/>
<path d="M59.4395 133.44L59.7095 132.96L61.1395 132.14L59.4395 135.07V133.44Z" fill="#CAEBFD"/>
<path d="M52.8698 146.399L52.1298 147.679L51.0898 148.279L52.8698 145.119V146.399Z" fill="#CAEBFD"/>
<path d="M58.6197 134.89V136.48L53.6797 145V143.67L58.6197 134.89Z" fill="#CAEBFD"/>
<path d="M41.5698 153.78L39.0898 155.21L41.5698 150.81V153.78Z" fill="#CAEBFD"/>
<path d="M47.3209 140.579V143.949L42.3809 152.469V149.359L47.3209 140.579Z" fill="#CAEBFD"/>
<path d="M48.1406 139.64L50.6706 138.18L48.1406 142.55V139.64Z" fill="#CAEBFD"/>
<path d="M47.3204 146.29L43.6904 152.55L42.6504 153.15L47.3204 144.85V146.29Z" fill="#CAEBFD"/>
<path d="M51.2506 137.869L52.6906 137.029L48.1406 144.879V143.399L51.2506 137.869Z" fill="#CAEBFD"/>
<path d="M36.8301 152.719V149.469L39.4701 144.779L41.5701 143.579V144.559L36.8301 152.719Z" fill="#CAEBFD"/>
<path d="M36.0201 154.129L33.5301 158.419L31.0801 159.829V159.699L36.0201 150.909V154.129Z" fill="#CAEBFD"/>
<path d="M42.3809 143.159V143.109L42.4209 143.089L42.3809 143.159Z" fill="#CAEBFD"/>
<path d="M41.5701 145.319V146.899L36.8301 155.059V153.739L41.5701 145.319Z" fill="#CAEBFD"/>
<path d="M36.0195 156.46L35.5695 157.24L34.5195 157.84L36.0195 155.18V156.46Z" fill="#CAEBFD"/>
<path d="M43.0009 142.779L44.4409 141.939L42.3809 145.489V143.869L43.0009 142.779Z" fill="#CAEBFD"/>
<path d="M34.1701 147.77L31.0801 153.11V149.72L31.2201 149.47L34.1701 147.77Z" fill="#CAEBFD"/>
<path d="M26.3301 161.299V158.159L30.2601 151.169V154.509L26.3301 161.299Z" fill="#CAEBFD"/>
<path d="M34.7501 147.469L36.0201 146.729V146.919L31.0801 155.439V153.989L34.7501 147.469Z" fill="#CAEBFD"/>
<path d="M30.2601 156.849L27.2501 162.039L26.3301 162.579V162.439L30.2601 155.439V156.849Z" fill="#CAEBFD"/>
<path d="M72.3203 133.799L77.4803 130.819V134.049L72.3203 137.029V133.799Z" fill="#63CAF6"/>
<path d="M72.3203 137.029V135.659L73.8703 132.899L76.6803 131.279L73.8603 136.139L72.3203 137.029Z" fill="#B1E3FA"/>
<path d="M77.4805 130.819V132.229L75.9005 134.959L74.7305 135.639L77.4305 130.849L77.4805 130.819Z" fill="#B1E3FA"/>
<path d="M77.4803 141.159L72.3203 144.139V137.969L77.4803 134.989V141.159Z" fill="#93DAF8"/>
<path d="M72.3203 141.28V139.88L73.9203 137.05L75.1303 136.35L72.3203 141.28Z" fill="#CAEBFD"/>
<path d="M84.0508 127.02L88.1708 124.64V127.88L84.0508 130.26V127.02Z" fill="#63CAF6"/>
<path d="M88.1708 134.979L84.0508 137.359V131.199L88.1708 128.819V134.979Z" fill="#93DAF8"/>
<path d="M78.3008 130.349L83.2408 127.489V130.729L78.3008 133.579V130.349Z" fill="#63CAF6"/>
<path d="M83.2408 137.83L78.3008 140.69V134.52L83.2408 131.67V137.83Z" fill="#93DAF8"/>
<path d="M87.3404 125.13L88.1704 124.64V127.08L87.4804 128.28L84.6504 129.91L87.3404 125.13Z" fill="#B1E3FA"/>
<path d="M84.0508 131.199L86.6608 129.689L84.0508 134.189V131.199Z" fill="#CAEBFD"/>
<path d="M83.2407 135.59L81.2807 138.96L78.7207 140.44L83.2407 132.42V135.59Z" fill="#CAEBFD"/>
<path d="M87.4208 129.249L88.1708 128.819V129.419L84.0508 136.519V135.239L87.4208 129.249Z" fill="#CAEBFD"/>
<path d="M83.2412 137.829L82.2812 138.389L83.2412 136.689V137.829Z" fill="#CAEBFD"/>
<path d="M77.4803 137.739L74.5003 142.879L72.3203 144.139V143.699L77.0803 135.219L77.4803 134.989V137.739Z" fill="#CAEBFD"/>
<path d="M78.3008 133.579V133.059L80.5608 129.039L83.2408 127.489V127.819L80.7008 132.189L78.3008 133.579Z" fill="#B1E3FA"/>
<path d="M78.3008 134.519L79.8808 133.609L78.3008 136.339V134.519Z" fill="#CAEBFD"/>
<path d="M77.48 140.079L76.54 141.699L75.5 142.299L77.48 138.779V140.079Z" fill="#CAEBFD"/>
<path d="M84.0508 127.099L84.1208 126.989L85.5508 126.159L84.0508 128.749V127.099Z" fill="#B1E3FA"/>
<path d="M82.7399 131.02L81.4199 131.77L83.2399 128.55V130.15L82.7399 131.02Z" fill="#B1E3FA"/>
<path d="M80.6408 133.17L81.9108 132.43L78.3008 138.67V137.33L80.6408 133.17Z" fill="#CAEBFD"/>
<path d="M71.5007 131.61V134.56L64.4707 130.5V127.55L71.5007 131.61Z" fill="#B3B3B3"/>
<path d="M93.06 119.16V122.11L71.5 134.56V131.61L93.06 119.16Z" fill="#EDEDEC"/>
<path d="M25.51 150.041V152.991L0 138.261V135.311L25.51 150.041Z" fill="#B3B3B3"/>
<path d="M25.51 150.04L64.47 127.55L38.96 112.82L0 135.31L25.51 150.04Z" fill="#F7F7F6"/>
<path d="M64.4698 127.55V130.5L25.5098 152.99V150.04L64.4698 127.55Z" fill="#EDEDEC"/>
<path d="M71.5009 131.61L93.0609 119.16L60.5209 100.37L38.9609 112.82L71.5009 131.61Z" fill="#F7F7F6"/>
<path d="M88.9908 119.16L60.5208 102.72L43.3008 112.58L71.7608 129.02L88.9908 119.16Z" fill="#355059"/>
<path d="M82.3205 117.82V119.39L78.5605 117.22V115.65L82.3205 117.82Z" fill="#B3B3B3"/>
<path d="M84.0103 116.84V118.41L82.3203 119.39V117.82L84.0103 116.84Z" fill="#EDEDEC"/>
<path d="M82.3205 117.82L84.0106 116.84L80.2505 114.67L78.5605 115.65L82.3205 117.82Z" fill="#F7F7F6"/>
<path d="M70.5705 124.54V126.11L66.8105 123.94V122.37L70.5705 124.54Z" fill="#B3B3B3"/>
<path d="M72.2603 123.56V125.13L70.5703 126.11V124.54L72.2603 123.56Z" fill="#EDEDEC"/>
<path d="M70.5705 124.54L72.2606 123.56L68.5005 121.39L66.8105 122.37L70.5705 124.54Z" fill="#F7F7F6"/>
<path d="M73.1799 112.501V114.081L69.4199 111.911V110.331L73.1799 112.501Z" fill="#B3B3B3"/>
<path d="M74.8597 111.521V113.101L73.1797 114.081V112.501L74.8597 111.521Z" fill="#EDEDEC"/>
<path d="M73.1799 112.501L74.8599 111.521L71.1099 109.351L69.4199 110.331L73.1799 112.501Z" fill="#F7F7F6"/>
<path d="M61.4299 119.221V120.801L57.6699 118.631V117.051L61.4299 119.221Z" fill="#B3B3B3"/>
<path d="M63.1197 118.24V119.82L61.4297 120.8V119.22L63.1197 118.24Z" fill="#EDEDEC"/>
<path d="M61.4299 119.22L63.1199 118.24L59.3599 116.07L57.6699 117.05L61.4299 119.22Z" fill="#F7F7F6"/>
<path d="M64.0295 107.191V108.771L60.2695 106.601V105.021L64.0295 107.191Z" fill="#B3B3B3"/>
<path d="M65.7193 106.21V107.79L64.0293 108.77V107.19L65.7193 106.21Z" fill="#EDEDEC"/>
<path d="M64.0295 107.19L65.7195 106.21L61.9595 104.04L60.2695 105.02L64.0295 107.19Z" fill="#F7F7F6"/>
<path d="M52.2793 113.91V115.49L48.5293 113.32V111.74L52.2793 113.91Z" fill="#B3B3B3"/>
<path d="M53.9693 112.93V114.51L52.2793 115.49V113.91L53.9693 112.93Z" fill="#EDEDEC"/>
<path d="M52.2793 113.91L53.9693 112.93L50.2093 110.76L48.5293 111.74L52.2793 113.91Z" fill="#F7F7F6"/>
<path d="M64.4698 112.71V124.93L25.5098 147.43V135.21L64.4698 112.71Z" fill="#D2ECFD"/>
<path d="M4.07031 122.83V135.05L25.5103 147.43V135.21L4.07031 122.83Z" fill="#BAD1E0"/>
<path d="M41.5701 126.88V137.22L36.8301 139.95V129.61L41.5701 126.88Z" fill="#63CAF6"/>
<path d="M36.0201 130.08V140.42L31.0801 143.28V132.94L36.0201 130.08Z" fill="#63CAF6"/>
<path d="M47.3209 123.56V133.9L42.3809 136.75V126.41L47.3209 123.56Z" fill="#63CAF6"/>
<path d="M63.6614 114.13V124.47L59.4414 126.9V116.56L63.6614 114.13Z" fill="#63CAF6"/>
<path d="M52.8706 120.36V130.7L48.1406 133.43V123.09L52.8706 120.36Z" fill="#63CAF6"/>
<path d="M58.6197 117.03V127.37L53.6797 130.23V119.89L58.6197 117.03Z" fill="#63CAF6"/>
<path d="M30.2601 143.75L26.3301 146.02V135.68L30.2601 133.41V143.75Z" fill="#63CAF6"/>
<path d="M4.89062 124.24L8.40062 126.27V136.61L4.89062 134.58V124.24Z" fill="#1B9AD1"/>
<path d="M13.9509 129.47V139.81L9.21094 137.08V126.74L13.9509 129.47Z" fill="#1B9AD1"/>
<path d="M24.7015 135.68V146.02L20.5215 143.61V133.27L24.7015 135.68Z" fill="#1B9AD1"/>
<path d="M19.6998 132.799V143.139L14.7598 140.279V129.939L19.6998 132.799Z" fill="#1B9AD1"/>
<path d="M63.6595 115.01V118.38L59.4395 125.66V122.51L63.6595 115.01Z" fill="#B1E3FA"/>
<path d="M58.6193 127.06L58.3493 127.53L55.7793 129.01L58.6193 123.96V127.06Z" fill="#B1E3FA"/>
<path d="M63.6595 120.709L60.3895 126.349L59.4395 126.899V126.779L63.6595 119.279V120.709Z" fill="#B1E3FA"/>
<path d="M52.8706 127.51L50.0906 132.3L48.1406 133.43V132.71L52.8706 124.3V127.51Z" fill="#B1E3FA"/>
<path d="M53.6797 122.849L56.1497 118.459L58.6197 117.029V117.589L53.6797 126.109V122.849Z" fill="#B1E3FA"/>
<path d="M59.4395 116.89L59.7095 116.41L61.1395 115.58L59.4395 118.52V116.89Z" fill="#B1E3FA"/>
<path d="M52.8698 129.849L52.1298 131.119L51.0898 131.719L52.8698 128.569V129.849Z" fill="#B1E3FA"/>
<path d="M58.6197 118.34V119.92L53.6797 128.44V127.12L58.6197 118.34Z" fill="#B1E3FA"/>
<path d="M41.5698 137.22L39.0898 138.65L41.5698 134.25V137.22Z" fill="#B1E3FA"/>
<path d="M47.3209 124.02V127.4L42.3809 135.92V132.8L47.3209 124.02Z" fill="#B1E3FA"/>
<path d="M48.1406 123.09L50.6706 121.63L48.1406 125.99V123.09Z" fill="#B1E3FA"/>
<path d="M47.3204 129.73L43.6904 136L42.6504 136.59L47.3204 128.29V129.73Z" fill="#B1E3FA"/>
<path d="M51.2506 121.31L52.6906 120.47L48.1406 128.33V126.84L51.2506 121.31Z" fill="#B1E3FA"/>
<path d="M36.8301 136.17V132.91L39.4701 128.22L41.5701 127.02V128.01L36.8301 136.17Z" fill="#B1E3FA"/>
<path d="M36.0201 137.569L33.5301 141.859L31.0801 143.279V143.139L36.0201 134.359V137.569Z" fill="#B1E3FA"/>
<path d="M42.3809 126.599V126.549L42.4209 126.529L42.3809 126.599Z" fill="#B1E3FA"/>
<path d="M41.5701 128.77V130.34L36.8301 138.5V137.18L41.5701 128.77Z" fill="#B1E3FA"/>
<path d="M36.0195 139.91L35.5695 140.68L34.5195 141.29L36.0195 138.63V139.91Z" fill="#B1E3FA"/>
<path d="M43.0009 126.22L44.4409 125.39L42.3809 128.94V127.32L43.0009 126.22Z" fill="#B1E3FA"/>
<path d="M34.1701 131.22L31.0801 136.55V133.16L31.2201 132.91L34.1701 131.22Z" fill="#B1E3FA"/>
<path d="M26.3301 144.749V141.609L30.2601 134.609V137.959L26.3301 144.749Z" fill="#B1E3FA"/>
<path d="M34.7501 130.91L36.0201 130.17V130.37L31.0801 138.89V137.43L34.7501 130.91Z" fill="#B1E3FA"/>
<path d="M30.2601 140.29L27.2501 145.49L26.3301 146.02V145.88L30.2601 138.88V140.29Z" fill="#B1E3FA"/>
<path d="M67.7105 110.69L43.1905 96.3301L0.810547 120.79L25.5105 135.05L67.7105 110.69Z" fill="#F7F7F6"/>
<path d="M63.6606 110.67L43.1906 98.6797L4.89062 120.79L25.5106 132.7L63.6606 110.67Z" fill="#355059"/>
<path d="M25.5105 135.05V137.09L0.810547 122.83V120.79L25.5105 135.05Z" fill="#B3B3B3"/>
<path d="M67.7098 110.69V112.72L25.5098 137.09V135.05L67.7098 110.69Z" fill="#EDEDEC"/>
<path d="M3.94141 121.81L15.3614 115.22L30.9514 117.63L35.1314 126.63L23.7214 133.22L8.12141 130.81L3.94141 121.81Z" fill="#F7F7F6"/>
<path d="M35.1307 171.87V126.63L23.7207 133.22V178.46L35.1307 171.87Z" fill="#EDEDEC"/>
<path d="M35.1307 129.38V126.63L23.7207 133.22V135.97L35.1307 129.38Z" fill="#C9C9C9"/>
<path d="M8.12109 130.81V176.05L23.7211 178.46V133.22L8.12109 130.81Z" fill="#E0E0DF"/>
<path d="M8.12109 130.81V133.56L23.7211 135.97V133.22L8.12109 130.81Z" fill="#959595"/>
<path d="M3.94141 121.81V167.05L8.12141 176.05V130.81L3.94141 121.81Z" fill="#B3B3B3"/>
<path d="M32.9523 159.36V167.56L32.0723 167.05V159.87L32.9523 159.36Z" fill="#E0E0DF"/>
<path d="M32.0723 167.051L32.9523 167.561L25.9023 171.631V170.611L32.0723 167.051Z" fill="#F7F7F6"/>
<path d="M32.0723 159.87V167.05L25.9023 170.61V163.44L32.0723 159.87Z" fill="#D2ECFD"/>
<path d="M31.6625 166.81V160.58L26.3125 163.67V169.91L31.6625 166.81Z" fill="#93DAF8"/>
<path d="M30.1625 161.44L31.6625 160.58V162.1L27.5525 169.19L26.3125 169.91V168.19L30.1625 161.44Z" fill="#CAEBFD"/>
<path d="M31.6624 164.43L29.5924 168.01L28.4824 168.65L31.6624 163.09V164.43Z" fill="#CAEBFD"/>
<path d="M11.2723 162.73V170.26L10.5723 170.9V162.62L11.2723 162.73Z" fill="#EDEDEC"/>
<path d="M11.2723 170.26L21.2723 171.81V172.55L10.5723 170.9L11.2723 170.26Z" fill="#F7F7F6"/>
<path d="M11.2715 162.73L21.2715 164.27V171.81L11.2715 170.26V162.73Z" fill="#D2ECFD"/>
<path d="M20.8716 164.62L11.6816 163.2V169.91L20.8716 171.34V164.62Z" fill="#23AAE1"/>
<path d="M5.47172 155.99V163.81H4.76172V154.45L5.47172 155.99Z" fill="#D4D4D3"/>
<path d="M5.47172 163.811L7.31172 167.771V169.301L4.76172 163.811H5.47172Z" fill="#DEDEDD"/>
<path d="M5.47266 155.99L7.31266 159.95V167.77L5.47266 163.81V155.99Z" fill="#BAD1E0"/>
<path d="M7.10187 159.99L5.67188 156.91V163.76L7.10187 166.85V159.99Z" fill="#1B9AD1"/>
<path d="M32.9523 148.41V156.6L32.0723 156.09V148.92L32.9523 148.41Z" fill="#E0E0DF"/>
<path d="M32.0723 156.09L32.9523 156.6L25.9023 160.67V159.66L32.0723 156.09Z" fill="#F7F7F6"/>
<path d="M32.0723 148.92V156.09L25.9023 159.66V152.48L32.0723 148.92Z" fill="#D2ECFD"/>
<path d="M31.6625 155.86V149.62L26.3125 152.72V158.95L31.6625 155.86Z" fill="#93DAF8"/>
<path d="M30.5825 150.25L31.6625 149.62V151.63L27.9825 157.98L26.3125 158.95V157.73L30.5825 150.25Z" fill="#CAEBFD"/>
<path d="M31.6623 153.97L30.0223 156.81L28.9023 157.45L31.6623 152.62V153.97Z" fill="#CAEBFD"/>
<path d="M11.2723 151.77V159.31L10.5723 159.94V151.66L11.2723 151.77Z" fill="#EDEDEC"/>
<path d="M11.2723 159.311L21.2723 160.861V161.601L10.5723 159.941L11.2723 159.311Z" fill="#F7F7F6"/>
<path d="M11.2715 151.771L21.2715 153.321V160.861L11.2715 159.311V151.771Z" fill="#D2ECFD"/>
<path d="M20.8716 153.67L11.6816 152.25V158.96L20.8716 160.38V153.67Z" fill="#23AAE1"/>
<path d="M5.47172 145.03V152.85H4.76172V143.5L5.47172 145.03Z" fill="#D4D4D3"/>
<path d="M5.47172 152.85L7.31172 156.82V158.35L4.76172 152.85H5.47172Z" fill="#DEDEDD"/>
<path d="M5.47266 145.03L7.31266 148.99V156.82L5.47266 152.85V145.03Z" fill="#BAD1E0"/>
<path d="M7.10187 149.04L5.67188 145.95V152.81L7.10187 155.89V149.04Z" fill="#1B9AD1"/>
<path d="M32.9523 137.45V145.65L32.0723 145.14V137.96L32.9523 137.45Z" fill="#E0E0DF"/>
<path d="M32.0723 145.141L32.9523 145.651L25.9023 149.721V148.701L32.0723 145.141Z" fill="#F7F7F6"/>
<path d="M32.0723 137.96V145.14L25.9023 148.7V141.53L32.0723 137.96Z" fill="#D2ECFD"/>
<path d="M31.6625 144.9V138.67L26.3125 141.76V148L31.6625 144.9Z" fill="#93DAF8"/>
<path d="M31.6625 144.9V138.67L26.3125 141.76V148L31.6625 144.9Z" fill="#93DAF8"/>
<path d="M29.9925 139.63L31.6625 138.67V139.98L27.3725 147.38L26.3125 148V146.08L29.9925 139.63Z" fill="#CAEBFD"/>
<path d="M31.6625 142.32L29.4125 146.21L28.3125 146.84L31.6625 140.97V142.32Z" fill="#CAEBFD"/>
<path d="M11.2723 140.82V148.35L10.5723 148.99V140.71L11.2723 140.82Z" fill="#EDEDEC"/>
<path d="M11.2723 148.35L21.2723 149.9V150.64L10.5723 148.99L11.2723 148.35Z" fill="#F7F7F6"/>
<path d="M11.2715 140.82L21.2715 142.36V149.9L11.2715 148.35V140.82Z" fill="#D2ECFD"/>
<path d="M20.8716 142.71L11.6816 141.29V148L20.8716 149.43V142.71Z" fill="#23AAE1"/>
<path d="M5.47172 134.08V141.9H4.76172V132.54L5.47172 134.08Z" fill="#D4D4D3"/>
<path d="M5.47172 141.9L7.31172 145.86V147.39L4.76172 141.9H5.47172Z" fill="#DEDEDD"/>
<path d="M5.47266 134.08L7.31266 138.04V145.86L5.47266 141.9V134.08Z" fill="#BAD1E0"/>
<path d="M7.10187 138.08L5.67188 135V141.85L7.10187 144.94V138.08Z" fill="#1B9AD1"/>
<path d="M3.94141 121.81V124.56L8.12141 133.56V130.81L3.94141 121.81Z" fill="#858585"/>
<path d="M0.470703 115.65L14.4307 107.59L33.4907 110.54L38.6007 121.55L24.6507 129.6L5.5807 126.65L0.470703 115.65Z" fill="#F7F7F6"/>
<path d="M2.41016 115.95L14.9502 108.7L32.0802 111.36L36.6702 121.25L24.1302 128.49L7.00016 125.84L2.41016 115.95Z" fill="#355059"/>
<path d="M0.470703 115.649V119.939L5.5807 130.949V126.649L0.470703 115.649Z" fill="#B3B3B3"/>
<path d="M5.58008 130.949V126.649L24.6501 129.599V133.899L5.58008 130.949Z" fill="#E0E0DF"/>
<path d="M38.6004 121.55V125.84L24.6504 133.9V129.6L38.6004 121.55Z" fill="#EDEDEC"/>
<path d="M8.12078 124.49L6.30078 117.4L24.3808 120.2L23.7208 126.91L8.12078 124.49Z" fill="#D2ECFD"/>
<path d="M23.9416 120.54L6.85156 117.9L8.45156 124.13L23.3516 126.44L23.9416 120.54Z" fill="#21A2D6"/>
<path d="M1.46094 106.96L3.94094 115.49L8.12094 124.49L6.30094 117.4L1.46094 106.96Z" fill="#BAD1E0"/>
<path d="M6.10016 117.449L2.41016 109.479L4.14016 115.429L7.38016 122.399L6.10016 117.449Z" fill="#1A92C6"/>
<path d="M37.6207 112.55L35.1307 120.32L23.7207 126.91L24.3807 120.2L37.6207 112.55Z" fill="#D2ECFD"/>
<path d="M34.7912 120.04L36.9112 113.43L24.7712 120.44L24.2012 126.16L34.7912 120.04Z" fill="#63CAF6"/>
<path d="M28.5601 123.64L25.8301 125.22L30.4301 117.18L33.2601 115.54L28.5601 123.64Z" fill="#B1E3FA"/>
<path d="M30.6007 122.47L29.4707 123.11L34.0707 115.07L35.2907 114.37L30.6007 122.47Z" fill="#B1E3FA"/>
<path d="M0.470703 102.62L14.4307 94.5596L33.4907 97.5096L38.6007 108.52L24.6507 116.58L5.5807 113.63L0.470703 102.62Z" fill="#F7F7F6"/>
<path d="M1.58984 102.79L14.7298 95.21L32.6798 97.98L37.4898 108.35L24.3498 115.94L6.39984 113.16L1.58984 102.79Z" fill="#355059"/>
<path d="M0.470703 102.619V106.919L5.5807 117.919V113.629L0.470703 102.619Z" fill="#B3B3B3"/>
<path d="M5.58008 117.92V113.63L24.6501 116.58V120.87L5.58008 117.92Z" fill="#E0E0DF"/>
<path d="M38.6004 108.52V112.82L24.6504 120.87V116.58L38.6004 108.52Z" fill="#EDEDEC"/>
<path d="M23.922 106.969V115.119L7.58203 112.589V104.439L23.922 106.969Z" fill="#D2ECFD"/>
<path d="M23.5105 107.32L7.98047 104.92V112.24L23.5105 114.64V107.32Z" fill="#23AAE1"/>
<path d="M35.8819 100.06V108.21L23.9219 115.12V106.97L35.8819 100.06Z" fill="#D2ECFD"/>
<path d="M35.4703 107.98V100.77L24.3203 107.2V114.41L35.4703 107.98Z" fill="#93DAF8"/>
<path d="M27.6416 112.499L24.9316 114.059L31.0716 103.309L33.9216 101.659L27.6416 112.499Z" fill="#CAEBFD"/>
<path d="M34.7225 101.21L35.3425 100.85V101.56L29.6725 111.32L28.5625 111.96L34.7225 101.21Z" fill="#CAEBFD"/>
<path d="M7.58117 112.59V104.44L3.20117 95.0098V103.15L7.58117 112.59Z" fill="#BAD1E0"/>
<path d="M7.37039 104.49L3.40039 95.9297V103.11L7.37039 111.67V104.49Z" fill="#1B9AD1"/>
<path d="M1.46094 90.6595L14.6909 83.0195L32.7809 85.8195L37.6209 96.2595L24.3809 103.9L6.30094 101.1L1.46094 90.6595Z" fill="#F7F7F6"/>
<path d="M5.58008 91.2994L15.8001 85.3994L29.7601 87.5594L33.4901 95.6194L23.2801 101.519L9.32008 99.3594L5.58008 91.2994Z" fill="#355059"/>
<path d="M1.46094 90.6592V94.7392L6.30094 105.179V101.099L1.46094 90.6592Z" fill="#B3B3B3"/>
<path d="M6.30078 105.18V101.1L24.3808 103.9V107.97L6.30078 105.18Z" fill="#E0E0DF"/>
<path d="M37.6209 96.2598V100.33L24.3809 107.97V103.9L37.6209 96.2598Z" fill="#EDEDEC"/>
<path d="M22.0202 88.0703V93.3703C22.0202 93.8203 21.7202 94.2603 21.1402 94.6003C19.9602 95.2803 18.0502 95.2803 16.8702 94.6003C16.2802 94.2603 15.9902 93.8103 15.9902 93.3703V88.0703H22.0202Z" fill="url(#paint0_linear_146_81877)"/>
<path d="M19.0005 89.8101C20.6684 89.8101 22.0205 89.0311 22.0205 88.0701C22.0205 87.1091 20.6684 86.3301 19.0005 86.3301C17.3326 86.3301 15.9805 87.1091 15.9805 88.0701C15.9805 89.0311 17.3326 89.8101 19.0005 89.8101Z" fill="#F7F7F6"/>
<path d="M21.2709 83.8896V87.8796C21.2709 88.2196 21.0509 88.5496 20.6009 88.8096C19.7109 89.3196 18.2709 89.3196 17.3809 88.8096C16.9409 88.5496 16.7109 88.2196 16.7109 87.8796V83.8896H21.2709Z" fill="url(#paint1_linear_146_81877)"/>
<path d="M19.0007 85.2001C20.2599 85.2001 21.2807 84.6136 21.2807 83.8901C21.2807 83.1666 20.2599 82.5801 19.0007 82.5801C17.7415 82.5801 16.7207 83.1666 16.7207 83.8901C16.7207 84.6136 17.7415 85.2001 19.0007 85.2001Z" fill="#F7F7F6"/>
<path d="M20.0105 76.5293V83.9293C20.0105 84.0793 19.9105 84.2293 19.7105 84.3393C19.3205 84.5693 18.6805 84.5693 18.2805 84.3393C18.0805 84.2293 17.9805 84.0793 17.9805 83.9293V76.5293H20.0105Z" fill="url(#paint2_linear_146_81877)"/>
<path d="M18.2808 76.1198C17.8908 76.3498 17.8908 76.7198 18.2808 76.9398C18.6708 77.1698 19.3108 77.1698 19.7108 76.9398C20.1008 76.7098 20.1008 76.3398 19.7108 76.1198C19.3208 75.8898 18.6808 75.8898 18.2808 76.1198Z" fill="#F7F7F6"/>
<path d="M11.541 82.63L12.051 82.92C12.051 82.92 18.361 72.43 27.541 71.29L27.031 71C16.021 71.45 11.541 78.14 11.541 78.14V82.63Z" fill="#355059"/>
<path d="M12.0508 82.92C12.0508 82.92 16.5908 76.21 27.5408 74.85V71.29C16.5308 71.75 12.0508 78.44 12.0508 78.44V82.92Z" fill="url(#paint3_linear_146_81877)"/>
</g>
<defs>
<linearGradient id="paint0_linear_146_81877" x1="22.0181" y1="91.5925" x2="15.9782" y2="91.5925" gradientUnits="userSpaceOnUse">
<stop stop-color="#EDEDEC"/>
<stop offset="1" stop-color="#B3B3B3"/>
</linearGradient>
<linearGradient id="paint1_linear_146_81877" x1="21.2748" y1="86.5379" x2="16.7229" y2="86.5379" gradientUnits="userSpaceOnUse">
<stop stop-color="#EDEDEC"/>
<stop offset="1" stop-color="#B3B3B3"/>
</linearGradient>
<linearGradient id="paint2_linear_146_81877" x1="20.0068" y1="80.5168" x2="17.9901" y2="80.5168" gradientUnits="userSpaceOnUse">
<stop stop-color="#EDEDEC"/>
<stop offset="1" stop-color="#B3B3B3"/>
</linearGradient>
<linearGradient id="paint3_linear_146_81877" x1="27.5395" y1="77.109" x2="12.0479" y2="77.109" gradientUnits="userSpaceOnUse">
<stop stop-color="#B3B3B3"/>
<stop offset="0.1874" stop-color="#C6C6C5"/>
<stop offset="0.4734" stop-color="#DBDBDB"/>
<stop offset="0.7488" stop-color="#E9E9E8"/>
<stop offset="1" stop-color="#EDEDEC"/>
</linearGradient>
<clipPath id="clip0_146_81877">
<rect width="24" height="24" fill="white" transform="translate(166 43)"/>
</clipPath>
<clipPath id="clip1_146_81877">
<rect width="93.06" height="107.46" fill="white" transform="translate(0 71)"/>
</clipPath>
</defs>
</svg>
