<svg width="459" height="147" viewBox="0 0 459 147" fill="none" xmlns="http://www.w3.org/2000/svg">
<g clip-path="url(#clip0_146_85820)">
<path d="M81 123.238L33.3904 147L0 130.341V128.261L81 121.158V123.238Z" fill="#6586C9"/>
<path opacity="0.5" d="M38.9073 123.686L0 128.261V130.34L33.3373 146.974L38.9073 123.686Z" fill="#1E283A"/>
<path d="M81 121.158L33.3904 144.924L0 128.261L48.1613 104.886L81 121.158Z" fill="#91AFF9"/>
<path d="M70.7734 95.7377L71.6275 96.1038L77.1364 57.782L76.2797 57.416L70.7734 60.575V95.7377Z" fill="#6586C9"/>
<path d="M71.627 96.1039L77.1359 92.9449V57.7822L71.627 60.9412V96.1039Z" fill="#91AFF9"/>
<path d="M73.0605 62.9648V67.214" stroke="white" stroke-width="2.3488" stroke-miterlimit="10" stroke-linecap="round" stroke-linejoin="round"/>
<path d="M75.7969 65.5353V61.2861" stroke="white" stroke-width="2.3488" stroke-miterlimit="10" stroke-linecap="round" stroke-linejoin="round"/>
<path d="M73.1172 64.814L75.7191 63.4268" stroke="white" stroke-width="2.3488" stroke-miterlimit="10" stroke-linecap="round" stroke-linejoin="round"/>
<path d="M73.0605 82.7041V86.9532" stroke="white" stroke-width="2.3488" stroke-miterlimit="10" stroke-linecap="round" stroke-linejoin="round"/>
<path d="M73.1172 84.553L74.7882 83.6777" stroke="white" stroke-width="2.3488" stroke-miterlimit="10" stroke-linecap="round" stroke-linejoin="round"/>
<path d="M73.1172 82.6274L75.7191 81.2402" stroke="white" stroke-width="2.3488" stroke-miterlimit="10" stroke-linecap="round" stroke-linejoin="round"/>
<path d="M73.1172 87.0356L75.7191 85.6484" stroke="white" stroke-width="2.3488" stroke-miterlimit="10" stroke-linecap="round" stroke-linejoin="round"/>
<path d="M73.0605 88.6006V92.8497" stroke="white" stroke-width="2.3488" stroke-miterlimit="10" stroke-linecap="round" stroke-linejoin="round"/>
<path d="M73.1172 92.9321L75.7191 91.5449" stroke="white" stroke-width="2.3488" stroke-miterlimit="10" stroke-linecap="round" stroke-linejoin="round"/>
<path d="M73.2157 70.811C73.1441 72.1902 73.656 73.3387 74.3615 73.3785C75.067 73.4156 75.6983 72.3281 75.7699 70.9462C75.8441 69.567 75.3296 68.4185 74.6241 68.3787C73.9185 68.3442 73.2873 69.4317 73.2157 70.811Z" stroke="white" stroke-width="2.3488" stroke-miterlimit="10" stroke-linecap="round" stroke-linejoin="round"/>
<path d="M72.9355 76.3779L74.458 75.5477L76.0812 74.6592" stroke="white" stroke-width="2.3488" stroke-miterlimit="10" stroke-linecap="round" stroke-linejoin="round"/>
<path d="M74.5586 80.3566V75.5479" stroke="white" stroke-width="2.3488" stroke-miterlimit="10" stroke-linecap="round" stroke-linejoin="round"/>
<path d="M39.8418 138.181L71.7681 122.139V53.7656L39.8418 69.8073V138.181Z" fill="#FBAD32"/>
<path d="M13.5898 56.6406V125.011L39.8348 138.196V69.8256L13.5898 56.6406Z" fill="#FFB94D"/>
<path d="M73.1089 53.0816L39.8352 69.8261L13.1738 56.3175L46.7101 40L73.1089 53.0816Z" fill="#FFE2C0"/>
<path d="M70.5396 53.0048L40.1596 68.3197L16.0312 56.2779L46.8091 41.2441L70.5396 53.0048Z" fill="white"/>
<path d="M70.5396 53.0048L40.1596 68.3197L16.0312 56.2779L46.8091 41.2441L70.5396 53.0048Z" fill="#FFF5EB"/>
<path d="M46.8091 42.7242L69.0596 53.7502L70.5396 53.0048L46.8091 41.2441L16.0312 56.2779L17.5272 57.0259L46.8091 42.7242Z" fill="#E2BF9C"/>
<path d="M46.8091 41.2441L46.7109 41.2919V42.7719L46.8091 42.7242L69.0596 53.7502L70.5396 53.0048L46.8091 41.2441Z" fill="#CCA989"/>
<path d="M39.9355 69.8266V72.3172L73.1084 55.5753V53.082L39.9355 69.8266Z" fill="#FFEDDC"/>
<path d="M13.1738 56.3174V58.8106L39.936 72.3166V69.826L13.1738 56.3174Z" fill="#F7D6B5"/>
<path d="M39.8356 93.3955L13.6861 80.0566L12.1875 80.7807L39.6499 94.6925L73.1092 77.8976L71.8573 77.2822L39.8356 93.3955Z" fill="#FFE2C0"/>
<path d="M39.6797 94.642V97.1326L73.1099 80.3907V77.8975L39.6797 94.642Z" fill="#FFEDDC"/>
<path d="M12.1875 80.7803V83.2709L39.6791 97.1322V94.6417L12.1875 80.7803Z" fill="#F7D6B5"/>
<path opacity="0.6" d="M39.8356 93.3955L13.6861 80.0566L12.1875 80.7807L39.5756 94.6421L39.6897 94.5838L39.8356 93.3955Z" fill="#E2BF9C"/>
<path d="M39.8356 115.2L13.6861 101.861L12.1875 102.583L39.5756 116.444L73.1092 99.7023L71.8573 99.0869L39.8356 115.2Z" fill="#FFE2C0"/>
<path d="M39.6797 116.444V118.937L73.1099 102.195V99.7021L39.6797 116.444Z" fill="#FFEDDC"/>
<path d="M12.1875 102.583V105.076L39.6791 118.938V116.444L12.1875 102.583Z" fill="#F7D6B5"/>
<path opacity="0.6" d="M39.931 115.15L39.8356 115.2L13.6861 101.861L12.1875 102.583L39.5756 116.444L39.6897 116.388L39.931 115.15Z" fill="#E2BF9C"/>
<path d="M41.8906 76.8843L47.3969 74.1338V88.6848L41.8906 91.438V76.8843Z" fill="#D2E1FF"/>
<path d="M47.1794 74.4808V88.5517L42.1055 91.09V77.0191L47.1794 74.4808ZM47.6117 73.7832L41.6758 76.7512V91.785L47.6117 88.8169V73.7832Z" fill="white"/>
<path d="M44.834 75.3164V89.9656" stroke="white" stroke-width="1.6246" stroke-miterlimit="10"/>
<path d="M52.2559 71.6428L57.7595 68.8896V83.4407L52.2559 86.1938V71.6428Z" fill="#D2E1FF"/>
<path d="M57.5453 69.2369V83.3078L52.4714 85.8462V71.7753L57.5453 69.2369ZM57.9777 68.542L52.0391 71.51V86.5438L57.975 83.5757V68.542H57.9777Z" fill="white"/>
<path d="M55.2012 70.0723V84.7241" stroke="white" stroke-width="1.6246" stroke-miterlimit="10"/>
<path d="M62.4297 66.5559L67.936 63.8027V78.3537L62.4297 81.1069V66.5559Z" fill="#D2E1FF"/>
<path d="M67.7185 64.1497V78.2206L62.6445 80.759V66.6881L67.7185 64.1497ZM68.1508 63.4521L62.2148 66.4202V81.4539L68.1508 78.4859V63.4521Z" fill="white"/>
<path d="M65.373 64.9854V79.6371" stroke="white" stroke-width="1.6246" stroke-miterlimit="10"/>
<path d="M68.152 78.4385L62.2188 81.4516L63.3619 82.0192L69.3085 79.0114L68.152 78.4385Z" fill="#FFE2C0"/>
<path opacity="0.2" d="M68.1504 63.4521L68.153 78.4381L68.8241 78.7803V63.7757L68.2618 63.4893L68.1504 63.4521Z" fill="#1E283A"/>
<path d="M68.1903 78.4385L69.9408 79.2819L64.172 82.1306L62.6973 81.4171" stroke="#1E283A" stroke-width="1.1744" stroke-miterlimit="10" stroke-linecap="round" stroke-linejoin="round"/>
<path d="M68.1903 72.9082L69.9408 73.7543L64.172 76.6003L62.6973 75.8895" stroke="#1E283A" stroke-width="1.1744" stroke-miterlimit="10" stroke-linecap="round" stroke-linejoin="round"/>
<path d="M62.9066 65.1367H61.4531V81.7778H62.9066V65.1367Z" fill="#FBAD32"/>
<path d="M69.9414 73.7539V79.2815" stroke="#1E283A" stroke-width="0.5872" stroke-miterlimit="10" stroke-linecap="round" stroke-linejoin="round"/>
<path d="M67.9434 74.791V80.3212" stroke="#1E283A" stroke-width="0.5872" stroke-miterlimit="10" stroke-linecap="round" stroke-linejoin="round"/>
<path d="M67.3457 75.1279V80.6582" stroke="#1E283A" stroke-width="0.5872" stroke-miterlimit="10" stroke-linecap="round" stroke-linejoin="round"/>
<path d="M66.7227 75.3379V80.8655" stroke="#1E283A" stroke-width="0.5872" stroke-miterlimit="10" stroke-linecap="round" stroke-linejoin="round"/>
<path d="M66.127 75.6748V81.2024" stroke="#1E283A" stroke-width="0.5872" stroke-miterlimit="10" stroke-linecap="round" stroke-linejoin="round"/>
<path d="M65.4512 75.9082V81.4358" stroke="#1E283A" stroke-width="0.5872" stroke-miterlimit="10" stroke-linecap="round" stroke-linejoin="round"/>
<path d="M64.8535 76.2441V81.7744" stroke="#1E283A" stroke-width="0.5872" stroke-miterlimit="10" stroke-linecap="round" stroke-linejoin="round"/>
<path d="M64.2305 76.5996V81.9813" stroke="#1E283A" stroke-width="0.5793" stroke-miterlimit="10" stroke-linecap="round" stroke-linejoin="round"/>
<path d="M63.6602 76.375V81.9052" stroke="#1E283A" stroke-width="0.5872" stroke-miterlimit="10" stroke-linecap="round" stroke-linejoin="round"/>
<path d="M63.1406 76.1143V81.6445" stroke="#1E283A" stroke-width="0.5872" stroke-miterlimit="10" stroke-linecap="round" stroke-linejoin="round"/>
<path d="M69.293 73.3906V79.6211" stroke="#1E283A" stroke-width="0.6234" stroke-miterlimit="10" stroke-linecap="round" stroke-linejoin="round"/>
<path d="M68.6699 73.0781V79.8735" stroke="#1E283A" stroke-width="0.5872" stroke-miterlimit="10" stroke-linecap="round" stroke-linejoin="round"/>
<path d="M58.029 83.5391L52.0957 86.5522L53.2415 87.1198L59.1854 84.112L58.029 83.5391Z" fill="#FFE2C0"/>
<path opacity="0.2" d="M58.0273 68.5557L58.03 83.539L58.7037 83.8812V68.8793L58.1387 68.5901L58.0273 68.5557Z" fill="#1E283A"/>
<path d="M58.0672 83.5391L59.8178 84.3825L54.0489 87.2312L52.5742 86.5177" stroke="#1E283A" stroke-width="1.1744" stroke-miterlimit="10" stroke-linecap="round" stroke-linejoin="round"/>
<path d="M58.0672 78.0088L59.8178 78.8549L54.0489 81.7009L52.5742 80.9901" stroke="#1E283A" stroke-width="1.1744" stroke-miterlimit="10" stroke-linecap="round" stroke-linejoin="round"/>
<path d="M52.7836 70.2373H51.3301V86.8784H52.7836V70.2373Z" fill="#FBAD32"/>
<path d="M59.8184 78.8545V84.3821" stroke="#1E283A" stroke-width="0.5872" stroke-miterlimit="10" stroke-linecap="round" stroke-linejoin="round"/>
<path d="M57.8203 79.8916V85.4218" stroke="#1E283A" stroke-width="0.5872" stroke-miterlimit="10" stroke-linecap="round" stroke-linejoin="round"/>
<path d="M57.2227 80.2285V85.7587" stroke="#1E283A" stroke-width="0.5872" stroke-miterlimit="10" stroke-linecap="round" stroke-linejoin="round"/>
<path d="M56.5996 80.4385V85.9661" stroke="#1E283A" stroke-width="0.5872" stroke-miterlimit="10" stroke-linecap="round" stroke-linejoin="round"/>
<path d="M56.0039 80.7754V86.303" stroke="#1E283A" stroke-width="0.5872" stroke-miterlimit="10" stroke-linecap="round" stroke-linejoin="round"/>
<path d="M55.3281 81.0088V86.5364" stroke="#1E283A" stroke-width="0.5872" stroke-miterlimit="10" stroke-linecap="round" stroke-linejoin="round"/>
<path d="M54.7305 81.3457V86.8759" stroke="#1E283A" stroke-width="0.5872" stroke-miterlimit="10" stroke-linecap="round" stroke-linejoin="round"/>
<path d="M54.1074 81.7012V87.0829" stroke="#1E283A" stroke-width="0.5793" stroke-miterlimit="10" stroke-linecap="round" stroke-linejoin="round"/>
<path d="M53.5371 81.4756V87.0058" stroke="#1E283A" stroke-width="0.5872" stroke-miterlimit="10" stroke-linecap="round" stroke-linejoin="round"/>
<path d="M53.0176 81.2158V86.7461" stroke="#1E283A" stroke-width="0.5872" stroke-miterlimit="10" stroke-linecap="round" stroke-linejoin="round"/>
<path d="M59.1699 78.4912V84.7217" stroke="#1E283A" stroke-width="0.6234" stroke-miterlimit="10" stroke-linecap="round" stroke-linejoin="round"/>
<path d="M58.5469 78.1787V84.9741" stroke="#1E283A" stroke-width="0.5872" stroke-miterlimit="10" stroke-linecap="round" stroke-linejoin="round"/>
<path d="M47.6318 88.7559L41.7012 91.769L42.8443 92.3366L48.7882 89.3288L47.6318 88.7559Z" fill="#FFE2C0"/>
<path opacity="0.2" d="M47.6328 73.7725V88.7558L48.3065 89.098V74.0961L47.7442 73.8069L47.6328 73.7725Z" fill="#1E283A"/>
<path d="M47.6707 88.7559L49.4239 89.5993L43.6524 92.448L42.1777 91.7345" stroke="#1E283A" stroke-width="1.1744" stroke-miterlimit="10" stroke-linecap="round" stroke-linejoin="round"/>
<path d="M47.6707 83.2256L49.4239 84.0717L43.6524 86.9177L42.1777 86.2069" stroke="#1E283A" stroke-width="1.1744" stroke-miterlimit="10" stroke-linecap="round" stroke-linejoin="round"/>
<path d="M42.389 75.4541H40.9355V92.0952H42.389V75.4541Z" fill="#FBAD32"/>
<path d="M49.4238 84.0713V89.5989" stroke="#1E283A" stroke-width="0.5872" stroke-miterlimit="10" stroke-linecap="round" stroke-linejoin="round"/>
<path d="M47.4238 85.1084V90.6386" stroke="#1E283A" stroke-width="0.5872" stroke-miterlimit="10" stroke-linecap="round" stroke-linejoin="round"/>
<path d="M46.8262 85.4453V90.9755" stroke="#1E283A" stroke-width="0.5872" stroke-miterlimit="10" stroke-linecap="round" stroke-linejoin="round"/>
<path d="M46.2031 85.6553V91.1829" stroke="#1E283A" stroke-width="0.5872" stroke-miterlimit="10" stroke-linecap="round" stroke-linejoin="round"/>
<path d="M45.6055 85.9922V91.5198" stroke="#1E283A" stroke-width="0.5872" stroke-miterlimit="10" stroke-linecap="round" stroke-linejoin="round"/>
<path d="M44.9336 86.2256V91.7558" stroke="#1E283A" stroke-width="0.5872" stroke-miterlimit="10" stroke-linecap="round" stroke-linejoin="round"/>
<path d="M44.3359 86.5625V92.0927" stroke="#1E283A" stroke-width="0.5872" stroke-miterlimit="10" stroke-linecap="round" stroke-linejoin="round"/>
<path d="M43.7129 86.918V92.2997" stroke="#1E283A" stroke-width="0.5793" stroke-miterlimit="10" stroke-linecap="round" stroke-linejoin="round"/>
<path d="M43.1426 86.6924V92.2226" stroke="#1E283A" stroke-width="0.5872" stroke-miterlimit="10" stroke-linecap="round" stroke-linejoin="round"/>
<path d="M42.623 86.4326V91.9628" stroke="#1E283A" stroke-width="0.5872" stroke-miterlimit="10" stroke-linecap="round" stroke-linejoin="round"/>
<path d="M48.7734 83.708V89.9385" stroke="#1E283A" stroke-width="0.6234" stroke-miterlimit="10" stroke-linecap="round" stroke-linejoin="round"/>
<path d="M48.1504 83.3955V90.1909" stroke="#1E283A" stroke-width="0.5872" stroke-miterlimit="10" stroke-linecap="round" stroke-linejoin="round"/>
<path d="M41.8906 98.9995L47.3969 96.249V110.8L41.8906 113.553V98.9995Z" fill="#D2E1FF"/>
<path d="M47.1794 96.596V110.667L42.1055 113.205V99.1344L47.1794 96.596ZM47.6117 95.8984L41.6758 98.8665V113.9L47.6117 110.932V95.8984Z" fill="white"/>
<path d="M44.834 97.4316V112.081" stroke="white" stroke-width="1.6246" stroke-miterlimit="10"/>
<path d="M52.2559 93.7581L57.7595 91.0049V105.556L52.2559 108.309V93.7581Z" fill="#D2E1FF"/>
<path d="M57.5446 91.3548V105.426L52.4707 107.964V93.8931L57.5446 91.3548ZM57.977 90.6572L52.041 93.6252V108.659L57.977 105.691V90.6572Z" fill="white"/>
<path d="M55.1992 92.1875V106.839" stroke="white" stroke-width="1.6246" stroke-miterlimit="10"/>
<path d="M62.4297 88.6711L67.936 85.918V100.469L62.4297 103.222V88.6711Z" fill="#D2E1FF"/>
<path d="M67.7185 86.2652V100.336L62.6445 102.874V88.8036L67.7185 86.2652ZM68.1508 85.5703L62.2148 88.5383V103.572L68.1508 100.604V85.5703Z" fill="white"/>
<path d="M65.373 87.1006V101.752" stroke="white" stroke-width="1.6246" stroke-miterlimit="10"/>
<path d="M68.152 100.554L62.2188 103.567L63.3619 104.134L69.3085 101.127L68.152 100.554Z" fill="#FFE2C0"/>
<path opacity="0.2" d="M68.1504 85.5703L68.153 100.554L68.8241 100.896V85.8939L68.2618 85.6048L68.1504 85.5703Z" fill="#1E283A"/>
<path d="M68.1903 100.554L69.9408 101.397L64.172 104.246L62.6973 103.532" stroke="#1E283A" stroke-width="1.1744" stroke-miterlimit="10" stroke-linecap="round" stroke-linejoin="round"/>
<path d="M68.1903 95.0234L69.9408 95.8696L64.172 98.7156L62.6973 98.0047" stroke="#1E283A" stroke-width="1.1744" stroke-miterlimit="10" stroke-linecap="round" stroke-linejoin="round"/>
<path d="M62.9066 87.252H61.4531V103.893H62.9066V87.252Z" fill="#FBAD32"/>
<path d="M69.9414 95.8691V101.397" stroke="#1E283A" stroke-width="0.5872" stroke-miterlimit="10" stroke-linecap="round" stroke-linejoin="round"/>
<path d="M67.9434 96.9062V102.436" stroke="#1E283A" stroke-width="0.5872" stroke-miterlimit="10" stroke-linecap="round" stroke-linejoin="round"/>
<path d="M67.3457 97.2432V102.773" stroke="#1E283A" stroke-width="0.5872" stroke-miterlimit="10" stroke-linecap="round" stroke-linejoin="round"/>
<path d="M66.7227 97.4531V102.981" stroke="#1E283A" stroke-width="0.5872" stroke-miterlimit="10" stroke-linecap="round" stroke-linejoin="round"/>
<path d="M66.127 97.79V103.318" stroke="#1E283A" stroke-width="0.5872" stroke-miterlimit="10" stroke-linecap="round" stroke-linejoin="round"/>
<path d="M65.4512 98.0234V103.554" stroke="#1E283A" stroke-width="0.5872" stroke-miterlimit="10" stroke-linecap="round" stroke-linejoin="round"/>
<path d="M64.8535 98.3604V103.891" stroke="#1E283A" stroke-width="0.5872" stroke-miterlimit="10" stroke-linecap="round" stroke-linejoin="round"/>
<path d="M64.2305 98.7158V104.098" stroke="#1E283A" stroke-width="0.5793" stroke-miterlimit="10" stroke-linecap="round" stroke-linejoin="round"/>
<path d="M63.6602 98.4902V104.02" stroke="#1E283A" stroke-width="0.5872" stroke-miterlimit="10" stroke-linecap="round" stroke-linejoin="round"/>
<path d="M63.1406 98.2305V103.761" stroke="#1E283A" stroke-width="0.5872" stroke-miterlimit="10" stroke-linecap="round" stroke-linejoin="round"/>
<path d="M69.293 95.5059V101.736" stroke="#1E283A" stroke-width="0.6234" stroke-miterlimit="10" stroke-linecap="round" stroke-linejoin="round"/>
<path d="M68.6699 95.1934V101.989" stroke="#1E283A" stroke-width="0.5872" stroke-miterlimit="10" stroke-linecap="round" stroke-linejoin="round"/>
<path d="M58.029 105.654L52.0957 108.667L53.2415 109.235L59.1854 106.227L58.029 105.654Z" fill="#FFE2C0"/>
<path opacity="0.2" d="M58.0273 90.6709L58.03 105.654L58.7037 105.996V90.9945L58.1387 90.7054L58.0273 90.6709Z" fill="#1E283A"/>
<path d="M58.0672 105.654L59.8178 106.498L54.0489 109.346L52.5742 108.633" stroke="#1E283A" stroke-width="1.1744" stroke-miterlimit="10" stroke-linecap="round" stroke-linejoin="round"/>
<path d="M58.0672 100.124L59.8178 100.97L54.0489 103.816L52.5742 103.105" stroke="#1E283A" stroke-width="1.1744" stroke-miterlimit="10" stroke-linecap="round" stroke-linejoin="round"/>
<path d="M52.7836 92.3525H51.3301V108.994H52.7836V92.3525Z" fill="#FBAD32"/>
<path d="M59.8184 100.97V106.497" stroke="#1E283A" stroke-width="0.5872" stroke-miterlimit="10" stroke-linecap="round" stroke-linejoin="round"/>
<path d="M57.8203 102.007V107.537" stroke="#1E283A" stroke-width="0.5872" stroke-miterlimit="10" stroke-linecap="round" stroke-linejoin="round"/>
<path d="M57.2227 102.344V107.874" stroke="#1E283A" stroke-width="0.5872" stroke-miterlimit="10" stroke-linecap="round" stroke-linejoin="round"/>
<path d="M56.5996 102.554V108.081" stroke="#1E283A" stroke-width="0.5872" stroke-miterlimit="10" stroke-linecap="round" stroke-linejoin="round"/>
<path d="M56.0039 102.891V108.418" stroke="#1E283A" stroke-width="0.5872" stroke-miterlimit="10" stroke-linecap="round" stroke-linejoin="round"/>
<path d="M55.3281 103.124V108.654" stroke="#1E283A" stroke-width="0.5872" stroke-miterlimit="10" stroke-linecap="round" stroke-linejoin="round"/>
<path d="M54.7305 103.461V108.991" stroke="#1E283A" stroke-width="0.5872" stroke-miterlimit="10" stroke-linecap="round" stroke-linejoin="round"/>
<path d="M54.1074 103.816V109.198" stroke="#1E283A" stroke-width="0.5793" stroke-miterlimit="10" stroke-linecap="round" stroke-linejoin="round"/>
<path d="M53.5371 103.591V109.121" stroke="#1E283A" stroke-width="0.5872" stroke-miterlimit="10" stroke-linecap="round" stroke-linejoin="round"/>
<path d="M53.0176 103.331V108.861" stroke="#1E283A" stroke-width="0.5872" stroke-miterlimit="10" stroke-linecap="round" stroke-linejoin="round"/>
<path d="M59.1699 100.606V106.84" stroke="#1E283A" stroke-width="0.6234" stroke-miterlimit="10" stroke-linecap="round" stroke-linejoin="round"/>
<path d="M58.5469 100.294V107.089" stroke="#1E283A" stroke-width="0.5872" stroke-miterlimit="10" stroke-linecap="round" stroke-linejoin="round"/>
<path d="M47.6318 110.871L41.7012 113.884L42.8443 114.454L48.7882 111.444L47.6318 110.871Z" fill="#FFE2C0"/>
<path opacity="0.2" d="M47.6328 95.8877V110.871L48.3065 111.213V96.2113L47.7442 95.9248L47.6328 95.8877Z" fill="#1E283A"/>
<path d="M47.6707 110.871L49.4239 111.715L43.6524 114.563L42.1777 113.85" stroke="#1E283A" stroke-width="1.1744" stroke-miterlimit="10" stroke-linecap="round" stroke-linejoin="round"/>
<path d="M47.6707 105.341L49.4239 106.187L43.6524 109.033L42.1777 108.322" stroke="#1E283A" stroke-width="1.1744" stroke-miterlimit="10" stroke-linecap="round" stroke-linejoin="round"/>
<path d="M42.389 97.5693H40.9355V114.21H42.389V97.5693Z" fill="#FBAD32"/>
<path d="M49.4238 106.187V111.714" stroke="#1E283A" stroke-width="0.5872" stroke-miterlimit="10" stroke-linecap="round" stroke-linejoin="round"/>
<path d="M47.4238 107.224V112.754" stroke="#1E283A" stroke-width="0.5872" stroke-miterlimit="10" stroke-linecap="round" stroke-linejoin="round"/>
<path d="M46.8262 107.563V113.091" stroke="#1E283A" stroke-width="0.5872" stroke-miterlimit="10" stroke-linecap="round" stroke-linejoin="round"/>
<path d="M46.2031 107.771V113.298" stroke="#1E283A" stroke-width="0.5872" stroke-miterlimit="10" stroke-linecap="round" stroke-linejoin="round"/>
<path d="M45.6055 108.107V113.638" stroke="#1E283A" stroke-width="0.5872" stroke-miterlimit="10" stroke-linecap="round" stroke-linejoin="round"/>
<path d="M44.9336 108.341V113.871" stroke="#1E283A" stroke-width="0.5872" stroke-miterlimit="10" stroke-linecap="round" stroke-linejoin="round"/>
<path d="M44.3359 108.678V114.208" stroke="#1E283A" stroke-width="0.5872" stroke-miterlimit="10" stroke-linecap="round" stroke-linejoin="round"/>
<path d="M43.7129 109.033V114.415" stroke="#1E283A" stroke-width="0.5793" stroke-miterlimit="10" stroke-linecap="round" stroke-linejoin="round"/>
<path d="M43.1426 108.808V114.338" stroke="#1E283A" stroke-width="0.5872" stroke-miterlimit="10" stroke-linecap="round" stroke-linejoin="round"/>
<path d="M42.623 108.548V114.078" stroke="#1E283A" stroke-width="0.5872" stroke-miterlimit="10" stroke-linecap="round" stroke-linejoin="round"/>
<path d="M48.7734 105.823V112.056" stroke="#1E283A" stroke-width="0.6234" stroke-miterlimit="10" stroke-linecap="round" stroke-linejoin="round"/>
<path d="M48.1504 105.511V112.306" stroke="#1E283A" stroke-width="0.5872" stroke-miterlimit="10" stroke-linecap="round" stroke-linejoin="round"/>
<path d="M23.3516 79.4022L23.3781 69.5645L28.8844 72.3176V82.1527L23.3516 79.4022Z" fill="#D2E1FF"/>
<path d="M23.5929 69.9117L28.6695 72.4501V81.805L23.5691 79.2693L23.5929 69.9117ZM23.1632 69.2168L23.1367 79.5346L29.0992 82.5V72.1848L23.1632 69.2168Z" fill="white"/>
<path d="M25.9395 70.7471V80.6803" stroke="white" stroke-width="1.6246" stroke-miterlimit="10"/>
<path d="M23.1398 79.4707L29.0731 82.4838L28.4498 82.94L22.4688 79.8129L23.1398 79.4707Z" fill="#E5C8AE"/>
<path opacity="0.2" d="M23.1424 69.2031L23.1398 79.4705L22.4688 79.8127V69.5267L23.031 69.2403L23.1424 69.2031Z" fill="#1E283A"/>
<path d="M28.3867 82.8579L30.7102 83.8367L29.8402 70.8877H28.3867V82.8579Z" fill="#FFB94D"/>
<path d="M23.3516 101.724L23.3781 91.8867L28.8844 94.6399V104.475L23.3516 101.724Z" fill="#D2E1FF"/>
<path d="M23.5929 92.2366L28.6695 94.775V104.13L23.5691 101.594L23.5929 92.2366ZM23.1632 91.5391L23.1367 101.857L29.0992 104.822V94.5071L23.1632 91.5391Z" fill="white"/>
<path d="M25.9395 93.0723V103.005" stroke="white" stroke-width="1.6246" stroke-miterlimit="10"/>
<path d="M23.1398 101.793L29.0731 104.809L28.4498 105.265L22.4688 102.138L23.1398 101.793Z" fill="#E5C8AE"/>
<path opacity="0.2" d="M23.1424 91.5283L23.1398 101.793L22.4688 102.138V91.8519L23.031 91.5628L23.1424 91.5283Z" fill="#1E283A"/>
<path d="M28.3867 105.18L30.7102 106.162L29.8402 93.21H28.3867V105.18Z" fill="#FFB94D"/>
<path d="M23.3516 124.05L23.3781 114.212L28.8844 116.965V126.8L23.3516 124.05Z" fill="#D2E1FF"/>
<path d="M23.5929 114.559L28.6695 117.097V126.452L23.5691 123.917L23.5929 114.559ZM23.1632 113.861L23.1367 124.179L29.0992 127.144V116.829L23.1632 113.861Z" fill="white"/>
<path d="M25.9395 115.395V125.328" stroke="white" stroke-width="1.6246" stroke-miterlimit="10"/>
<path d="M23.1398 124.118L29.0731 127.131L28.4498 127.587L22.4688 124.46L23.1398 124.118Z" fill="#E5C8AE"/>
<path opacity="0.2" d="M23.1424 113.851L23.1398 124.118L22.4688 124.46V114.174L23.031 113.888L23.1424 113.851Z" fill="#1E283A"/>
<path d="M28.3867 127.503L30.7102 128.484L29.8402 115.535H28.3867V127.503Z" fill="#FFB94D"/>
<path d="M52.957 116.811L58.4633 114.058V128.609L52.957 131.362V116.811Z" fill="#D2E1FF"/>
<path d="M58.2458 114.405V128.476L53.1719 131.014V116.943L58.2458 114.405ZM58.6781 113.707L52.7422 116.675V131.709L58.6781 128.741V113.707Z" fill="white"/>
<path d="M55.9004 115.24V129.889" stroke="white" stroke-width="1.6246" stroke-miterlimit="10"/>
<path d="M58.5645 114.007L64.0681 111.254V125.805L58.5645 128.558V114.007Z" fill="#D2E1FF"/>
<path d="M63.8532 111.601V125.672L58.7793 128.21V114.139L63.8532 111.601ZM64.2856 110.903L58.3496 113.871V128.905L64.2856 125.937V110.903Z" fill="white"/>
<path d="M61.5078 112.437V127.086" stroke="white" stroke-width="1.6246" stroke-miterlimit="10"/>
<path opacity="0.2" d="M41.1836 118.108L47.3874 128.023L71.858 115.7V103L41.1836 118.108Z" fill="#1E283A"/>
<path d="M41.418 120.755L46.9455 123.325" stroke="#1E283A" stroke-width="1.1744" stroke-miterlimit="10" stroke-linecap="round"/>
<path d="M41.1836 118.108L71.7094 103L76.3802 108.14L46.4777 123.246L41.1836 118.108Z" fill="#91AFF9"/>
<path d="M46.4785 123.246V125.116L76.1477 110.554L76.3811 108.141L46.4785 123.246Z" fill="#6586C9"/>
<path d="M9.73242 122.837V129.335" stroke="#1E283A" stroke-width="3" stroke-miterlimit="10" stroke-linecap="round" stroke-linejoin="round"/>
<path d="M14.1086 117.023C14.1086 123.678 12.2095 125.091 9.86485 125.091C7.52017 125.091 5.62109 123.678 5.62109 117.023C5.62109 110.368 7.52017 102.053 9.86485 102.053C12.2069 102.053 14.1086 110.368 14.1086 117.023Z" fill="#91AFF9"/>
<path d="M12.252 121.908C9.90728 121.908 8.0082 121.555 8.0082 114.901C8.0082 110.686 8.76943 105.384 9.9232 102.058C9.90198 102.055 9.88341 102.05 9.86485 102.05C7.52017 102.05 5.62109 110.365 5.62109 117.02C5.62109 123.675 7.52017 125.088 9.86485 125.088C11.5066 125.088 12.931 124.391 13.6365 121.688C13.2015 121.847 12.7347 121.908 12.252 121.908Z" fill="#6586C9"/>
<path opacity="0.2" d="M9.59981 130.263C10.9914 130.263 12.1195 129.759 12.1195 129.136C12.1195 128.513 10.9914 128.009 9.59981 128.009C8.2082 128.009 7.08008 128.513 7.08008 129.136C7.08008 129.759 8.2082 130.263 9.59981 130.263Z" fill="#1E283A"/>
<path d="M20.4082 128.009V134.507" stroke="#1E283A" stroke-width="3" stroke-miterlimit="10" stroke-linecap="round" stroke-linejoin="round"/>
<path d="M24.7844 122.195C24.7844 128.85 22.8853 130.263 20.5406 130.263C18.196 130.263 16.2969 128.85 16.2969 122.195C16.2969 115.54 18.196 107.225 20.5406 107.225C22.8827 107.225 24.7844 115.54 24.7844 122.195Z" fill="#91AFF9"/>
<path d="M22.9277 127.08C20.5831 127.08 18.684 125.666 18.684 119.012C18.684 114.797 19.4452 110.556 20.599 107.23C20.5778 107.227 20.5592 107.222 20.5406 107.222C18.196 107.222 16.2969 115.537 16.2969 122.192C16.2969 128.847 18.196 130.26 20.5406 130.26C22.1824 130.26 23.6067 129.563 24.3123 126.86C23.8773 127.019 23.4105 127.08 22.9277 127.08Z" fill="#6586C9"/>
<path opacity="0.2" d="M20.2756 135.435C21.6672 135.435 22.7953 134.931 22.7953 134.308C22.7953 133.685 21.6672 133.181 20.2756 133.181C18.884 133.181 17.7559 133.685 17.7559 134.308C17.7559 134.931 18.884 135.435 20.2756 135.435Z" fill="#1E283A"/>
<path d="M31.7461 132.916V139.414" stroke="#1E283A" stroke-width="3" stroke-miterlimit="10" stroke-linecap="round" stroke-linejoin="round"/>
<path d="M36.1223 127.102C36.1223 133.757 34.2232 135.17 31.8785 135.17C29.5338 135.17 27.6348 133.757 27.6348 127.102C27.6348 120.447 29.5338 112.132 31.8785 112.132C34.2205 112.132 36.1223 120.447 36.1223 127.102Z" fill="#91AFF9"/>
<path d="M34.2656 131.987C31.921 131.987 30.0219 130.574 30.0219 123.919C30.0219 119.704 30.7831 115.463 31.9369 112.137C31.9157 112.134 31.8971 112.129 31.8785 112.129C29.5338 112.129 27.6348 120.444 27.6348 127.099C27.6348 133.754 29.5338 135.168 31.8785 135.168C33.5203 135.168 34.9446 134.47 35.6502 131.767C35.2152 131.926 34.7484 131.987 34.2656 131.987Z" fill="#6586C9"/>
<path opacity="0.2" d="M31.6135 140.342C33.0051 140.342 34.1332 139.838 34.1332 139.215C34.1332 138.593 33.0051 138.088 31.6135 138.088C30.2219 138.088 29.0938 138.593 29.0938 139.215C29.0938 139.838 30.2219 140.342 31.6135 140.342Z" fill="#1E283A"/>
</g>
<rect x="150" width="309" height="92" rx="18" fill="#006DB7"/>
<path d="M94 102L205.5 66.026L173.5 42L94 102Z" fill="#006DB7"/>
<rect x="175.048" y="25.0476" width="41.9048" height="41.9048" rx="20.9524" fill="#283036"/>
<rect x="175.048" y="25.0476" width="41.9048" height="41.9048" rx="20.9524" stroke="white" stroke-width="2.09524"/>
<g clip-path="url(#clip1_146_85820)">
<path d="M206.65 55.2985H205.86V49.1544C206.619 49.2919 206.921 49.8463 206.937 49.8783C206.999 50.0004 207.123 50.0709 207.252 50.0709C207.305 50.0709 207.358 50.0589 207.409 50.0336C207.583 49.9466 207.653 49.7351 207.566 49.561C207.547 49.522 207.147 48.7476 206.154 48.497C206.643 48.0912 207.382 48.0503 207.391 48.0498C207.585 48.0411 207.735 47.8771 207.727 47.683C207.719 47.4887 207.553 47.3367 207.36 47.346C207.315 47.3479 206.56 47.3862 205.918 47.7978C205.774 46.8369 205.076 46.3572 205.037 46.3314C204.875 46.2234 204.655 46.2664 204.547 46.4283C204.439 46.5902 204.482 46.8081 204.644 46.916C204.669 46.9333 205.107 47.2453 205.213 47.8784C204.549 47.3915 203.703 47.348 203.654 47.346C203.461 47.3368 203.297 47.4881 203.288 47.6822C203.279 47.8761 203.43 48.0406 203.624 48.0498C203.633 48.0503 204.371 48.0913 204.861 48.497C203.867 48.7477 203.468 49.522 203.448 49.5611C203.361 49.7351 203.431 49.948 203.605 50.035C203.656 50.0605 203.71 50.0725 203.763 50.0725C203.892 50.0725 204.016 50.0019 204.077 49.8788C204.091 49.8518 204.392 49.2928 205.155 49.1545V55.2986H202.875V44.9703C202.875 44.7757 202.717 44.618 202.523 44.618C202.328 44.618 202.171 44.7757 202.171 44.9703V55.2985H199.502V50.1693C199.502 49.9747 199.344 49.817 199.15 49.817H192.85C192.656 49.817 192.498 49.9747 192.498 50.1693V52.2055C192.498 52.4 192.656 52.5578 192.85 52.5578C193.045 52.5578 193.203 52.4 193.203 52.2055V50.5215H195.648V55.2985H193.203V53.6145C193.203 53.4199 193.045 53.2622 192.85 53.2622C192.656 53.2622 192.498 53.4199 192.498 53.6145V55.2985H189.829V40.2058C189.829 40.0113 189.672 39.8535 189.477 39.8535C189.283 39.8535 189.125 40.0113 189.125 40.2058V55.2985H186.845V49.1544C187.605 49.2921 187.906 49.847 187.923 49.8783C187.985 50.0004 188.109 50.0709 188.237 50.0709C188.29 50.0709 188.344 50.0589 188.394 50.0336C188.568 49.9466 188.639 49.7351 188.552 49.561C188.532 49.522 188.133 48.7476 187.139 48.497C187.629 48.0912 188.367 48.0503 188.376 48.0498C188.57 48.0411 188.721 47.8771 188.713 47.683C188.704 47.4887 188.54 47.3371 188.346 47.346C188.297 47.348 187.451 47.3915 186.787 47.8783C186.893 47.2479 187.328 46.9359 187.356 46.9162C187.516 46.8078 187.559 46.5902 187.452 46.429C187.344 46.2672 187.125 46.2235 186.963 46.3314C186.925 46.3572 186.226 46.8369 186.082 47.7978C185.44 47.3862 184.685 47.3479 184.64 47.346C184.446 47.3372 184.282 47.4881 184.273 47.6821C184.265 47.8761 184.415 48.0406 184.609 48.0498C184.618 48.0502 185.357 48.0912 185.846 48.497C184.853 48.7476 184.453 49.522 184.434 49.561C184.347 49.735 184.417 49.9466 184.591 50.0336C184.642 50.0589 184.696 50.0709 184.748 50.0709C184.878 50.0709 185.002 49.9995 185.064 49.876C185.067 49.8694 185.364 49.2947 186.141 49.1544V55.2985H185.35C184.606 55.2985 184 55.9042 184 56.6499C184 57.3943 184.606 58 185.35 58H206.65C207.394 58 208 57.3943 208 56.6486C208 55.9042 207.394 55.2985 206.65 55.2985ZM196.352 50.5215H198.797V55.2985H196.352V50.5215ZM206.65 57.2955H185.35C184.994 57.2955 184.704 57.0059 184.704 56.6486C184.704 56.2927 184.994 56.003 185.35 56.003H206.65C207.006 56.003 207.296 56.2927 207.296 56.6499C207.296 57.0058 207.006 57.2955 206.65 57.2955Z" fill="white"/>
<path d="M189.125 36.6954H189.125V38.7968C189.125 38.9913 189.283 39.1491 189.477 39.1491C189.672 39.1491 189.829 38.9913 189.829 38.7968V36.6954H202.17V43.5613C202.17 43.7558 202.328 43.9135 202.523 43.9135C202.717 43.9135 202.875 43.7559 202.875 43.5613V36.6954H202.875C203.328 36.6954 203.697 36.3267 203.697 35.8735V34.8219C203.697 34.3687 203.328 34 202.875 34H189.125C188.671 34 188.303 34.3687 188.303 34.8219V35.8735C188.303 36.3267 188.671 36.6954 189.125 36.6954ZM189.007 34.8219C189.007 34.7572 189.06 34.7045 189.125 34.7045H202.875C202.94 34.7045 202.993 34.7572 202.993 34.8219V35.8735C202.993 35.9382 202.94 35.9909 202.875 35.9909H189.125C189.06 35.9909 189.007 35.9382 189.007 35.8735V34.8219Z" fill="white"/>
<path d="M196.711 45.8418H195.29C194.966 45.8418 194.703 46.1051 194.703 46.4289V47.8497C194.703 48.1734 194.966 48.4368 195.29 48.4368H196.711C197.035 48.4368 197.298 48.1734 197.298 47.8497V46.4289C197.298 46.1051 197.035 45.8418 196.711 45.8418ZM196.594 47.7323H195.408V46.5463H196.594V47.7323Z" fill="white"/>
<path d="M193.213 45.8418H191.792C191.468 45.8418 191.205 46.1051 191.205 46.4289V47.8497C191.205 48.1734 191.468 48.4368 191.792 48.4368H193.213C193.537 48.4368 193.8 48.1734 193.8 47.8497V46.4289C193.8 46.1051 193.537 45.8418 193.213 45.8418ZM193.096 47.7323H191.91V46.5463H193.096V47.7323Z" fill="white"/>
<path d="M200.209 45.8418H198.788C198.465 45.8418 198.201 46.1051 198.201 46.4289V47.8497C198.201 48.1734 198.465 48.4368 198.788 48.4368H200.209C200.533 48.4368 200.796 48.1734 200.796 47.8497V46.4289C200.796 46.1051 200.533 45.8418 200.209 45.8418ZM200.092 47.7323H198.906V46.5463H200.092V47.7323Z" fill="white"/>
<path d="M197.298 42.6105C197.298 42.2868 197.035 42.0234 196.711 42.0234H195.29C194.966 42.0234 194.703 42.2868 194.703 42.6105V44.0313C194.703 44.355 194.966 44.6184 195.29 44.6184H196.711C197.035 44.6184 197.298 44.355 197.298 44.0313V42.6105ZM196.594 43.914H195.408V42.728H196.594V43.914Z" fill="white"/>
<path d="M193.8 42.6105C193.8 42.2868 193.537 42.0234 193.213 42.0234H191.792C191.468 42.0234 191.205 42.2868 191.205 42.6105V44.0313C191.205 44.355 191.468 44.6184 191.792 44.6184H193.213C193.537 44.6184 193.8 44.355 193.8 44.0313V42.6105ZM193.096 43.914H191.91V42.728H193.096V43.914Z" fill="white"/>
<path d="M200.796 42.6105C200.796 42.2868 200.533 42.0234 200.209 42.0234H198.788C198.465 42.0234 198.201 42.2868 198.201 42.6105V44.0313C198.201 44.355 198.465 44.6184 198.788 44.6184H200.209C200.533 44.6184 200.796 44.355 200.796 44.0313V42.6105ZM200.092 43.914H198.906V42.728H200.092V43.914Z" fill="white"/>
<path d="M197.298 38.7912C197.298 38.4674 197.035 38.2041 196.711 38.2041H195.29C194.966 38.2041 194.703 38.4674 194.703 38.7912V40.212C194.703 40.5357 194.966 40.7991 195.29 40.7991H196.711C197.035 40.7991 197.298 40.5357 197.298 40.212V38.7912ZM196.594 40.0946H195.408V38.9086H196.594V40.0946Z" fill="white"/>
<path d="M193.8 38.7912C193.8 38.4674 193.537 38.2041 193.213 38.2041H191.792C191.468 38.2041 191.205 38.4674 191.205 38.7912V40.212C191.205 40.5357 191.468 40.7991 191.792 40.7991H193.213C193.537 40.7991 193.8 40.5357 193.8 40.212V38.7912ZM193.096 40.0946H191.91V38.9086H193.096V40.0946Z" fill="white"/>
<path d="M200.796 38.7912C200.796 38.4674 200.533 38.2041 200.209 38.2041H198.788C198.465 38.2041 198.201 38.4674 198.201 38.7912V40.212C198.201 40.5357 198.465 40.7991 198.788 40.7991H200.209C200.533 40.7991 200.796 40.5357 200.796 40.212V38.7912ZM200.092 40.0946H198.906V38.9086H200.092V40.0946Z" fill="white"/>
</g>
<path d="M235.865 55.5V36.5909H239.29V44.5959H248.053V36.5909H251.487V55.5H248.053V47.4673H239.29V55.5H235.865ZM261.251 55.777C259.866 55.777 258.666 55.4723 257.65 54.8629C256.635 54.2536 255.847 53.401 255.287 52.3054C254.733 51.2098 254.456 49.9295 254.456 48.4645C254.456 46.9995 254.733 45.7161 255.287 44.6143C255.847 43.5125 256.635 42.657 257.65 42.0476C258.666 41.4382 259.866 41.1335 261.251 41.1335C262.636 41.1335 263.836 41.4382 264.852 42.0476C265.868 42.657 266.652 43.5125 267.206 44.6143C267.766 45.7161 268.047 46.9995 268.047 48.4645C268.047 49.9295 267.766 51.2098 267.206 52.3054C266.652 53.401 265.868 54.2536 264.852 54.8629C263.836 55.4723 262.636 55.777 261.251 55.777ZM261.27 53.0994C262.02 53.0994 262.648 52.8932 263.153 52.4808C263.658 52.0623 264.033 51.5021 264.279 50.8004C264.532 50.0987 264.658 49.317 264.658 48.4553C264.658 47.5874 264.532 46.8026 264.279 46.1009C264.033 45.393 263.658 44.8298 263.153 44.4112C262.648 43.9927 262.02 43.7834 261.27 43.7834C260.5 43.7834 259.86 43.9927 259.349 44.4112C258.844 44.8298 258.466 45.393 258.213 46.1009C257.967 46.8026 257.844 47.5874 257.844 48.4553C257.844 49.317 257.967 50.0987 258.213 50.8004C258.466 51.5021 258.844 52.0623 259.349 52.4808C259.86 52.8932 260.5 53.0994 261.27 53.0994ZM277.965 41.3182V43.9034H269.812V41.3182H277.965ZM271.825 37.9205H275.167V51.2344C275.167 51.6837 275.235 52.0284 275.371 52.2685C275.512 52.5024 275.697 52.6624 275.925 52.7486C276.152 52.8348 276.405 52.8778 276.682 52.8778C276.891 52.8778 277.082 52.8625 277.254 52.8317C277.433 52.8009 277.568 52.7732 277.66 52.7486L278.224 55.3615C278.045 55.4231 277.79 55.4908 277.457 55.5646C277.131 55.6385 276.731 55.6816 276.257 55.6939C275.42 55.7185 274.666 55.5923 273.995 55.3153C273.324 55.0322 272.791 54.5952 272.398 54.0043C272.01 53.4134 271.819 52.6747 271.825 51.7884V37.9205ZM286.886 55.777C285.464 55.777 284.237 55.4815 283.202 54.8906C282.174 54.2936 281.384 53.4503 280.83 52.3608C280.276 51.2652 279.999 49.9756 279.999 48.4922C279.999 47.0334 280.276 45.7531 280.83 44.6513C281.39 43.5433 282.171 42.6816 283.175 42.0661C284.178 41.4444 285.357 41.1335 286.711 41.1335C287.585 41.1335 288.41 41.2751 289.185 41.5582C289.967 41.8352 290.656 42.2661 291.254 42.8509C291.857 43.4356 292.331 44.1804 292.675 45.0852C293.02 45.9839 293.192 47.0549 293.192 48.2983V49.3232H281.568V47.0703H289.989C289.982 46.4302 289.844 45.8608 289.573 45.3622C289.302 44.8575 288.924 44.4605 288.438 44.1712C287.957 43.8819 287.397 43.7372 286.757 43.7372C286.074 43.7372 285.474 43.9034 284.957 44.2358C284.44 44.562 284.036 44.9929 283.747 45.5284C283.464 46.0578 283.319 46.6394 283.313 47.2734V49.2401C283.313 50.0649 283.464 50.7727 283.766 51.3636C284.067 51.9484 284.489 52.3977 285.031 52.7116C285.572 53.0194 286.206 53.1733 286.933 53.1733C287.419 53.1733 287.859 53.1056 288.253 52.9702C288.647 52.8286 288.988 52.6224 289.278 52.3516C289.567 52.0807 289.786 51.7453 289.933 51.3452L293.054 51.696C292.857 52.5208 292.482 53.241 291.928 53.8565C291.38 54.4659 290.678 54.9399 289.822 55.2784C288.967 55.6108 287.988 55.777 286.886 55.777ZM299.362 36.5909V55.5H296.02V36.5909H299.362ZM309.396 55.5V36.5909H321.695V39.4624H312.822V44.5959H321.058V47.4673H312.822V52.6286H321.768V55.5H309.396ZM328.384 36.5909V55.5H325.042V36.5909H328.384ZM338.418 36.5909H342.61L348.223 50.2926H348.445L354.058 36.5909H358.25V55.5H354.963V42.5092H354.788L349.562 55.4446H347.106L341.88 42.4815H341.705V55.5H338.418V36.5909ZM361.833 55.5V41.3182H365.175V55.5H361.833ZM363.513 39.3054C362.984 39.3054 362.528 39.13 362.146 38.7791C361.765 38.4221 361.574 37.9943 361.574 37.4957C361.574 36.991 361.765 36.5632 362.146 36.2124C362.528 35.8553 362.984 35.6768 363.513 35.6768C364.048 35.6768 364.504 35.8553 364.879 36.2124C365.261 36.5632 365.452 36.991 365.452 37.4957C365.452 37.9943 365.261 38.4221 364.879 38.7791C364.504 39.13 364.048 39.3054 363.513 39.3054ZM368.612 55.5V41.3182H371.853V43.6818H372C372.259 42.8632 372.702 42.2322 373.33 41.7891C373.964 41.3397 374.687 41.1151 375.5 41.1151C375.684 41.1151 375.891 41.1243 376.118 41.1428C376.352 41.1551 376.546 41.1766 376.7 41.2074V44.282C376.558 44.2327 376.334 44.1896 376.026 44.1527C375.724 44.1096 375.432 44.0881 375.149 44.0881C374.539 44.0881 373.992 44.2204 373.505 44.4851C373.025 44.7436 372.647 45.1037 372.37 45.5653C372.093 46.027 371.954 46.5594 371.954 47.1626V55.5H368.612ZM382.748 55.7862C381.849 55.7862 381.039 55.6262 380.319 55.3061C379.605 54.9799 379.039 54.4998 378.62 53.8658C378.208 53.2318 378.002 52.45 378.002 51.5206C378.002 50.7204 378.15 50.0587 378.445 49.5355C378.74 49.0123 379.144 48.5938 379.654 48.2798C380.165 47.9659 380.741 47.7289 381.381 47.5689C382.027 47.4027 382.695 47.2827 383.385 47.2088C384.216 47.1226 384.89 47.0457 385.407 46.978C385.924 46.9041 386.299 46.7933 386.533 46.6456C386.773 46.4917 386.893 46.2547 386.893 45.9347V45.8793C386.893 45.1837 386.687 44.6451 386.275 44.2635C385.862 43.8819 385.268 43.6911 384.493 43.6911C383.674 43.6911 383.025 43.8696 382.544 44.2266C382.07 44.5836 381.75 45.0052 381.584 45.4915L378.463 45.0483C378.71 44.1866 379.116 43.4664 379.682 42.8878C380.248 42.303 380.941 41.866 381.76 41.5767C382.578 41.2812 383.483 41.1335 384.474 41.1335C385.157 41.1335 385.837 41.2135 386.515 41.3736C387.192 41.5336 387.81 41.7983 388.37 42.1676C388.931 42.5308 389.38 43.0263 389.718 43.6541C390.063 44.282 390.235 45.0668 390.235 46.0085V55.5H387.022V53.5518H386.912C386.708 53.9458 386.422 54.3151 386.053 54.6598C385.69 54.9983 385.231 55.2723 384.677 55.4815C384.129 55.6847 383.486 55.7862 382.748 55.7862ZM383.615 53.3303C384.286 53.3303 384.868 53.1979 385.36 52.9332C385.853 52.6624 386.231 52.3054 386.496 51.8622C386.767 51.419 386.902 50.9358 386.902 50.4126V48.7415C386.798 48.8277 386.619 48.9077 386.367 48.9815C386.121 49.0554 385.844 49.12 385.536 49.1754C385.228 49.2308 384.923 49.2801 384.622 49.3232C384.32 49.3662 384.059 49.4032 383.837 49.4339C383.338 49.5017 382.892 49.6125 382.498 49.7663C382.104 49.9202 381.793 50.1357 381.566 50.4126C381.338 50.6835 381.224 51.0343 381.224 51.4652C381.224 52.0807 381.449 52.5455 381.898 52.8594C382.347 53.1733 382.92 53.3303 383.615 53.3303ZM398.859 55.7493C397.745 55.7493 396.748 55.4631 395.868 54.8906C394.987 54.3182 394.292 53.4872 393.781 52.3977C393.27 51.3082 393.015 49.9848 393.015 48.4276C393.015 46.8518 393.273 45.5223 393.79 44.4389C394.313 43.3494 395.018 42.5277 395.904 41.9737C396.791 41.4136 397.779 41.1335 398.868 41.1335C399.699 41.1335 400.382 41.2751 400.918 41.5582C401.453 41.8352 401.878 42.1707 402.192 42.5646C402.506 42.9524 402.749 43.3187 402.922 43.6634H403.06V36.5909H406.412V55.5H403.125V53.2656H402.922C402.749 53.6103 402.5 53.9766 402.174 54.3643C401.847 54.746 401.417 55.0722 400.881 55.343C400.346 55.6139 399.672 55.7493 398.859 55.7493ZM399.792 53.0071C400.499 53.0071 401.103 52.8163 401.601 52.4347C402.1 52.0469 402.478 51.5083 402.737 50.8189C402.995 50.1295 403.125 49.3262 403.125 48.4091C403.125 47.492 402.995 46.6948 402.737 46.0178C402.484 45.3407 402.109 44.8144 401.61 44.4389C401.118 44.0634 400.512 43.8757 399.792 43.8757C399.047 43.8757 398.425 44.0696 397.926 44.4574C397.428 44.8452 397.052 45.3807 396.8 46.0639C396.548 46.7472 396.422 47.5289 396.422 48.4091C396.422 49.2955 396.548 50.0864 396.8 50.782C397.059 51.4714 397.437 52.0161 397.936 52.4162C398.44 52.8101 399.059 53.0071 399.792 53.0071ZM416.159 55.777C414.774 55.777 413.574 55.4723 412.558 54.8629C411.543 54.2536 410.755 53.401 410.195 52.3054C409.641 51.2098 409.364 49.9295 409.364 48.4645C409.364 46.9995 409.641 45.7161 410.195 44.6143C410.755 43.5125 411.543 42.657 412.558 42.0476C413.574 41.4382 414.774 41.1335 416.159 41.1335C417.544 41.1335 418.744 41.4382 419.76 42.0476C420.776 42.657 421.561 43.5125 422.115 44.6143C422.675 45.7161 422.955 46.9995 422.955 48.4645C422.955 49.9295 422.675 51.2098 422.115 52.3054C421.561 53.401 420.776 54.2536 419.76 54.8629C418.744 55.4723 417.544 55.777 416.159 55.777ZM416.178 53.0994C416.929 53.0994 417.557 52.8932 418.061 52.4808C418.566 52.0623 418.941 51.5021 419.188 50.8004C419.44 50.0987 419.566 49.317 419.566 48.4553C419.566 47.5874 419.44 46.8026 419.188 46.1009C418.941 45.393 418.566 44.8298 418.061 44.4112C417.557 43.9927 416.929 43.7834 416.178 43.7834C415.408 43.7834 414.768 43.9927 414.257 44.4112C413.753 44.8298 413.374 45.393 413.122 46.1009C412.875 46.8026 412.752 47.5874 412.752 48.4553C412.752 49.317 412.875 50.0987 413.122 50.8004C413.374 51.5021 413.753 52.0623 414.257 52.4808C414.768 52.8932 415.408 53.0994 416.178 53.0994ZM425.792 55.5V41.3182H429.032V43.6818H429.18C429.439 42.8632 429.882 42.2322 430.51 41.7891C431.144 41.3397 431.867 41.1151 432.679 41.1151C432.864 41.1151 433.07 41.1243 433.298 41.1428C433.532 41.1551 433.726 41.1766 433.88 41.2074V44.282C433.738 44.2327 433.513 44.1896 433.206 44.1527C432.904 44.1096 432.612 44.0881 432.328 44.0881C431.719 44.0881 431.171 44.2204 430.685 44.4851C430.205 44.7436 429.826 45.1037 429.549 45.5653C429.272 46.027 429.134 46.5594 429.134 47.1626V55.5H425.792Z" fill="white"/>
<defs>
<clipPath id="clip0_146_85820">
<rect width="81" height="107" fill="white" transform="translate(0 40)"/>
</clipPath>
<clipPath id="clip1_146_85820">
<rect width="24" height="24" fill="white" transform="translate(184 34)"/>
</clipPath>
</defs>
</svg>
