<svg width="512" height="175" viewBox="0 0 541 185" fill="none" xmlns="http://www.w3.org/2000/svg">
<path d="M437.039 150.306L484.089 123.839L540.076 155.744L493.155 182.802L437.039 150.306Z" fill="#3B495C"/>
<path d="M540.076 155.744V157.942L493.154 184.999V182.801L540.076 155.744Z" fill="#233143"/>
<path d="M437.039 150.307V152.505L493.155 185V182.802L437.039 150.307Z" fill="#233143"/>
<path d="M484.633 99.3643L444.42 122.194V149.151L484.633 126.028V99.3643Z" fill="#C6C3C1"/>
<path d="M446.736 122.688L445.123 123.601V150.563L446.736 149.635V122.688Z" fill="#FBAD32"/>
<path opacity="0.5" d="M457.306 130.169L445.928 136.713V139.61L459.842 131.613L457.306 130.169Z" fill="white"/>
<path opacity="0.5" d="M460.884 132.202L445.928 140.802V141.643L461.62 132.618L460.884 132.202Z" fill="white"/>
<path opacity="0.5" d="M445.928 123.712V124.667L446.764 124.187L445.928 123.712Z" fill="white"/>
<path opacity="0.5" d="M445.928 150.098L464.197 160.599V134.085L464.111 134.035L445.928 144.486V150.098Z" fill="white"/>
<path opacity="0.5" d="M462.141 132.915L445.928 142.237V143.891L463.585 133.738L462.141 132.915Z" fill="white"/>
<path d="M475.817 125.051V124.457L461.619 132.618L462.14 132.916L475.817 125.051Z" fill="white"/>
<path opacity="0.8" d="M461.62 132.618L445.928 141.643V142.237L462.141 132.915L461.62 132.618Z" fill="white"/>
<path d="M475.961 126.623L463.586 133.738L464.111 134.035L475.961 127.217V126.623Z" fill="white"/>
<path opacity="0.8" d="M445.928 143.891V144.485L464.111 134.034L463.585 133.737L445.928 143.891Z" fill="white"/>
<path d="M475.817 123.616V122.423L459.842 131.612L460.884 132.202L475.817 123.616Z" fill="white"/>
<path opacity="0.8" d="M459.842 131.613L445.928 139.61V140.803L460.884 132.203L459.842 131.613Z" fill="white"/>
<path d="M469.621 123.086V111.04L446.764 124.187L457.306 130.169L469.621 123.086Z" fill="white"/>
<path opacity="0.8" d="M446.764 124.188L445.928 124.667V136.713L457.306 130.169L446.764 124.188Z" fill="white"/>
<path d="M533.405 128.445L493.191 151.275V178.232L533.405 155.109V128.445Z" fill="#FBAD32"/>
<path d="M474.594 138.736L472.98 139.655V166.611L474.594 165.684V138.736Z" fill="#FBAD32"/>
<path d="M445.151 123.999L443.693 123.172V149.767L445.151 150.608V123.999Z" fill="#FBAD32"/>
<path d="M463.662 134.51V161.252L472.98 166.612V139.801L463.662 134.51Z" fill="#FBAD32"/>
<path opacity="0.5" d="M487.58 147.446L473.953 155.283V156.12L488.316 147.862L487.58 147.446Z" fill="white"/>
<path opacity="0.5" d="M488.837 148.159L473.953 156.714V158.368L490.285 148.977L488.837 148.159Z" fill="white"/>
<path opacity="0.5" d="M484.002 145.412L473.953 151.188V154.09L486.538 146.852L484.002 145.412Z" fill="white"/>
<path opacity="0.5" d="M473.953 166.09L492.218 176.591V150.078L490.806 149.273L473.953 158.966V166.09Z" fill="white"/>
<path opacity="0.8" d="M488.316 147.862L473.953 156.12V156.714L488.837 148.159L488.316 147.862Z" fill="white"/>
<path opacity="0.8" d="M473.953 158.367V158.966L490.806 149.274L490.285 148.977L473.953 158.367Z" fill="white"/>
<path opacity="0.8" d="M486.538 146.852L473.953 154.09V155.283L487.58 147.446L486.538 146.852Z" fill="white"/>
<path opacity="0.8" d="M473.953 139.705V151.189L484.002 145.413L473.953 139.705Z" fill="white"/>
<path d="M483.179 145.001L482.607 144.677V171.058L483.179 171.387V145.001Z" fill="#888D9A"/>
<path d="M491.234 150.165V177.108L493.19 178.232V151.275L491.234 150.165Z" fill="#FBAD32"/>
<path d="M493.191 151.888L490.129 144.677L533.404 119.827V129.085L493.191 151.888Z" fill="#BECCC6"/>
<path d="M533.405 119.827L487.489 146.468L443.748 121.687L489.587 95L533.405 119.827Z" fill="white"/>
<path d="M527.958 120.654L529.471 119.781L489.824 96.8643L450.744 119.534L452.362 120.49L489.929 98.6967L527.958 120.654Z" fill="#7C8982"/>
<path d="M527.957 120.655L489.928 98.6973L457.438 117.543L495.412 139.473L527.957 120.655Z" fill="#A2AAA6"/>
<path d="M490.326 142.416L495.412 139.473L457.438 117.543L452.361 120.49L490.326 142.416Z" fill="#8C9993"/>
<path d="M444.15 114.499V115.189L437.035 119.297V118.607L444.15 114.499Z" fill="#243954"/>
<path d="M444.15 120.965V121.659L437.035 125.768V125.073L444.15 120.965Z" fill="#243954"/>
<path d="M442.783 113.315L492.287 141.419V152.4L442.783 123.935V113.315Z" fill="#243954"/>
<path d="M443.693 112.826L442.783 113.315L492.287 141.419L493.191 140.93L443.693 112.826Z" fill="#243954"/>
<path d="M492.287 152.4L493.192 151.911V140.93L492.287 141.419V152.4Z" fill="#243954"/>
<path d="M465.859 144.782L471.457 148.013V146.153L465.859 143.005V144.782Z" fill="white"/>
<path d="M488.215 164.761L484.861 162.841V156.878L488.215 158.797V164.761Z" fill="#243954"/>
<path d="M487.891 159.104L485.186 157.555V157.92L487.891 159.469V159.104Z" fill="white"/>
<path d="M487.891 159.839L485.186 158.29V158.66L487.891 160.209V159.839Z" fill="white"/>
<path d="M485.322 160.25C485.322 159.729 485.528 159.542 485.811 159.706C486.095 159.871 486.3 160.296 486.3 160.817C486.3 161.342 486.095 161.534 485.811 161.37C485.523 161.205 485.322 160.776 485.322 160.25ZM485.989 160.639C485.989 160.268 485.907 160.095 485.807 160.035C485.706 159.976 485.628 160.058 485.628 160.428C485.628 160.803 485.711 160.981 485.807 161.041C485.907 161.096 485.989 161.009 485.989 160.639ZM485.88 162.462L486.94 160.36L487.191 160.506L486.136 162.613L485.88 162.462ZM486.766 162.137C486.766 161.616 486.976 161.429 487.255 161.594C487.539 161.758 487.744 162.183 487.744 162.704C487.744 163.23 487.539 163.422 487.255 163.257C486.972 163.092 486.766 162.663 486.766 162.137ZM487.438 162.526C487.438 162.151 487.356 161.982 487.26 161.923C487.159 161.863 487.077 161.941 487.077 162.316C487.077 162.69 487.159 162.869 487.26 162.928C487.356 162.983 487.438 162.901 487.438 162.526Z" fill="white"/>
<path d="M481.219 156.316L479.268 155.201V151.729L481.219 152.844V156.316Z" fill="#243954"/>
<path d="M462.086 153.396L455.145 149.421V137.073L462.086 141.049V153.396Z" fill="#243954"/>
<path d="M461.67 143.279L455.738 139.884V140.574L461.67 143.969V143.279Z" fill="white"/>
<path d="M461.67 142.041L455.738 138.646V139.336L461.67 142.731V142.041Z" fill="white"/>
<path d="M442.362 113.288L434.662 117.661V128.642L442.362 124.214V113.288Z" fill="#243954"/>
<path d="M442.362 118.122L434.662 122.495V123.149L442.362 118.725V118.122Z" fill="white"/>
<path d="M442.362 119.604L434.662 123.972V124.63L442.362 120.202V119.604Z" fill="white"/>
<path d="M442.362 121.011L434.662 125.384V126.037L442.362 121.609V121.011Z" fill="white"/>
<path d="M434 128.249L434.663 128.642V117.661L434 117.268V128.249Z" fill="#243954"/>
<path d="M442.363 113.288L441.7 112.899L434 117.268L434.663 117.661L442.363 113.288Z" fill="#243954"/>
<rect width="410" height="110" rx="18" fill="#006DB7"/>
<path d="M341 86L420.5 146L364.75 128.013L309 110.026L341 86Z" fill="#006DB7"/>
<rect x="25.0476" y="34.0476" width="41.9048" height="41.9048" rx="20.9524" fill="#FFB600"/>
<rect x="25.0476" y="34.0476" width="41.9048" height="41.9048" rx="20.9524" stroke="white" stroke-width="2.09524"/>
<g clip-path="url(#clip0_205_3868)">
<path d="M34.375 63.3886C34.375 63.4261 34.3787 63.4599 34.39 63.4936C34.39 63.5049 34.3975 63.5161 34.4013 63.5274C34.4125 63.5574 34.4313 63.5874 34.4538 63.6136C34.4575 63.6211 34.4613 63.6249 34.465 63.6324C34.465 63.6324 34.4688 63.6324 34.4725 63.6361C34.4987 63.6661 34.5288 63.6924 34.5662 63.7111C36.205 64.5699 40.255 66.0661 40.4237 66.1261C40.4387 66.1299 40.45 66.1299 40.465 66.1336C40.4725 66.1336 40.48 66.1411 40.4913 66.1449C40.5887 66.1599 40.7125 66.1674 40.855 66.1674C43.9375 66.1674 56.7887 62.5411 57.3587 62.3799C57.5312 62.3311 57.6438 62.1624 57.6213 61.9824C57.0138 57.2236 55.375 49.4574 55.36 49.3786C55.36 49.3749 55.3563 49.3711 55.3563 49.3674C55.345 49.3299 55.33 49.2961 55.3113 49.2624C55.3075 49.2549 55.3037 49.2474 55.3 49.2436C55.2775 49.2099 55.2437 49.1799 55.21 49.1574C55.195 49.1461 55.1762 49.1386 55.1575 49.1311C55.1425 49.1236 55.1275 49.1124 55.1087 49.1086L51.625 48.0849C50.2675 45.0474 48.3175 43.5849 45.9887 43.8586C45.5012 43.9149 45.0512 44.0499 44.6425 44.2561C44.4362 44.2186 44.2225 44.1961 44.0013 44.1924C42.8988 44.1811 41.9613 44.6161 41.2263 45.4824C40.3413 46.5136 39.7863 48.1674 39.5612 50.3911C37.615 50.7361 36.1862 50.9799 36.1637 50.9836C36.1487 50.9836 36.1413 50.9949 36.1263 50.9986C36.1187 50.9986 36.1075 50.9986 36.1 50.9986C36.0888 50.9986 36.0813 51.0099 36.0738 51.0174C36.0438 51.0324 36.0175 51.0474 35.995 51.0661C35.98 51.0774 35.9687 51.0886 35.9575 51.1036C35.935 51.1261 35.92 51.1524 35.905 51.1824C35.9013 51.1936 35.89 51.2011 35.8863 51.2124C35.1588 53.1249 34.4087 62.9461 34.3787 63.3624V63.3661V63.3849L34.375 63.3886ZM40.5325 50.9574C40.5738 50.9499 40.615 50.9424 40.66 50.9349C41.1512 50.8449 41.6613 50.7549 42.1825 50.6574C42.1975 51.0436 42.2275 51.4411 42.2725 51.8536C40.4987 52.1986 39.3438 52.3899 38.8375 52.4199L37.2812 51.5274C38.0538 51.3924 39.2125 51.1936 40.5363 50.9536L40.5325 50.9574ZM42.16 49.9224C41.995 49.9524 41.83 49.9824 41.665 50.0124C41.8225 48.8986 42.0812 48.0099 42.4225 47.3911C42.2462 48.1261 42.1562 48.9736 42.1562 49.9224H42.16ZM37.4162 61.4686L39.6737 65.0724C38.5037 64.6261 36.5838 63.8761 35.38 63.3061L37.42 61.4724L37.4162 61.4686ZM37.8587 60.8049V52.7011L38.4062 53.0161C38.5525 54.4261 39.2013 60.4861 39.7487 63.8236L37.8587 60.8086V60.8049ZM36.4375 51.8874L37.1313 52.2849V60.7486L35.17 62.5149C35.3612 60.1749 35.905 53.9724 36.4337 51.8874H36.4375ZM40.8062 65.4511C40.405 64.1761 39.6063 57.5086 39.145 53.1286C39.76 53.0611 40.8025 52.8849 42.3513 52.5811C42.475 53.4549 42.6213 54.1336 42.7075 54.5049C42.8313 54.9849 43.2625 55.3224 43.7575 55.3224C43.8475 55.3224 43.9375 55.3111 44.0238 55.2886C44.5975 55.1424 44.9537 54.5574 44.8112 53.9761C44.6875 53.4774 44.5675 52.8174 44.4775 52.1499C46.1425 51.8049 48.1075 51.3849 50.3312 50.8899C50.5187 51.5536 50.68 52.2474 50.7962 52.9111C50.7962 52.9261 50.8 52.9374 50.8038 52.9486C50.845 53.2336 50.995 53.4849 51.2275 53.6574C51.46 53.8299 51.7413 53.9049 52.03 53.8599C52.3188 53.8186 52.57 53.6649 52.7425 53.4324C52.915 53.1999 52.9862 52.9149 52.945 52.6299C52.93 52.5211 52.7913 51.6099 52.4538 50.4099C53.4812 50.1774 54.2875 49.9936 54.7225 49.8924C55.045 51.4449 56.305 57.6174 56.8563 61.7649C52.7612 62.9161 42.955 65.5261 40.8025 65.4399L40.8062 65.4511ZM45.805 46.1161C45.8387 46.1049 45.8687 46.0899 45.9025 46.0824C46.0075 46.0524 46.12 46.0261 46.2362 46.0111C46.2625 46.0111 46.2925 46.0111 46.3187 46.0074C46.9112 46.6636 47.395 47.6049 47.755 48.8161C47.7362 48.8199 47.7137 48.8236 47.695 48.8311C47.5225 48.8686 47.3425 48.9061 47.1588 48.9474C46.7725 47.6799 46.2362 46.7724 45.565 46.2286C45.58 46.2211 45.5913 46.2136 45.6025 46.2061C45.6663 46.1724 45.7337 46.1461 45.805 46.1199V46.1161ZM44.4025 51.4261C44.365 51.0286 44.3387 50.6349 44.3312 50.2524C45.3175 50.0611 46.1988 49.8849 46.9713 49.7236H46.9788C47.0688 49.7049 47.155 49.6861 47.245 49.6674C47.3725 49.6411 47.4925 49.6149 47.6125 49.5886C47.6275 49.5886 47.6425 49.5811 47.6575 49.5774C47.815 49.5436 47.9688 49.5099 48.115 49.4761C48.1712 49.4649 48.2312 49.4499 48.2875 49.4386C48.8425 49.3149 49.3187 49.2024 49.7087 49.1011C49.8512 49.4349 49.99 49.7986 50.1175 50.1886C47.95 50.6724 46.03 51.0849 44.3988 51.4224L44.4025 51.4261ZM48.4637 48.6586C48.1713 47.6649 47.8 46.8286 47.35 46.1574C48.1112 46.4724 48.8012 47.2374 49.4012 48.4336C49.1275 48.5011 48.8125 48.5761 48.46 48.6586H48.4637ZM45.0025 46.7424C45.0025 46.7424 45.0138 46.7311 45.0175 46.7236C45.5988 47.1474 46.0863 47.9574 46.4425 49.0936C45.805 49.2249 45.1 49.3636 44.3275 49.5136C44.3688 48.2799 44.5975 47.3236 45.0025 46.7424ZM52.24 49.7236C52.1537 49.4611 52.0675 49.2024 51.9738 48.9511L53.575 49.4236C53.1925 49.5099 52.7425 49.6149 52.2438 49.7274L52.24 49.7236ZM46.0712 44.5861C46.2287 44.5674 46.3825 44.5599 46.5363 44.5599C48.3775 44.5599 49.885 45.8949 51.0287 48.5386C51.2575 49.0786 51.4675 49.6599 51.6512 50.2599C52.0525 51.5874 52.21 52.6299 52.225 52.7461C52.24 52.8399 52.2137 52.9336 52.1575 53.0124C52.1012 53.0874 52.0188 53.1399 51.9212 53.1511C51.8275 53.1661 51.7375 53.1399 51.6588 53.0836C51.5837 53.0274 51.535 52.9449 51.52 52.8474C51.52 52.8361 51.5125 52.8061 51.5125 52.7949C51.3738 51.9886 51.175 51.1486 50.935 50.3574C50.7213 49.6674 50.5 49.0711 50.2488 48.5274C49.2663 46.3674 48.01 45.2724 46.5175 45.2724C46.4988 45.2724 46.4838 45.2724 46.465 45.2724C46.3638 45.2649 46.255 45.2799 46.15 45.2911C45.5538 45.3624 45.055 45.5986 44.68 45.9924C44.68 45.9924 44.68 45.9924 44.6762 45.9961C44.5787 46.0936 44.4887 46.2061 44.4025 46.3261C43.8588 47.1099 43.585 48.3324 43.5887 49.9561C43.5887 50.5824 43.6337 51.2386 43.7125 51.9061C43.8062 52.7049 43.9525 53.5449 44.1063 54.1486C44.1512 54.3399 44.035 54.5311 43.8475 54.5799C43.6713 54.6249 43.4613 54.5086 43.4125 54.3099C43.3413 53.9986 43.1575 53.1624 43.0225 52.1011C42.94 51.4374 42.895 50.8036 42.8837 50.2149C42.85 48.5386 43.0938 47.2111 43.6038 46.2699C43.6825 46.1236 43.7463 46.0186 43.8175 45.9174C43.8888 45.8124 43.9675 45.7149 44.0463 45.6211C44.2863 45.3436 44.5638 45.1186 44.8675 44.9499C45.2275 44.7549 45.6287 44.6274 46.0712 44.5786V44.5861ZM41.7737 45.9586C42.2987 45.3399 42.9438 44.9986 43.6975 44.9349C43.6525 44.9799 43.6112 45.0286 43.5662 45.0774C43.5363 45.1111 43.5063 45.1411 43.4762 45.1749C43.3863 45.2799 43.3 45.3924 43.2175 45.5086C43.18 45.5611 43.1425 45.6211 43.105 45.6811C43.0938 45.6999 43.0825 45.7186 43.0712 45.7374C43.0563 45.7636 43.0413 45.7861 43.0262 45.8124C42.715 45.9474 42.4338 46.1611 42.1825 46.4499C41.5487 47.1924 41.1213 48.4374 40.9075 50.1549C40.7575 50.1811 40.6112 50.2074 40.4612 50.2374C40.405 50.2486 40.3488 50.2561 40.2925 50.2674C40.51 48.3211 41.0162 46.8399 41.77 45.9624L41.7737 45.9586Z" fill="white"/>
<path d="M50.5142 57.3254C50.1579 57.0217 49.6404 56.8567 48.9842 56.8267L47.9754 56.7854C47.6454 56.7704 47.5517 56.7104 47.5404 56.7029C47.5292 56.6954 47.5067 56.6804 47.5067 56.5979C47.5067 56.5154 47.5179 56.3879 47.6679 56.2417C47.7992 56.1142 48.0054 56.0204 48.2754 55.9717C48.5154 55.9267 48.7142 55.9117 48.8679 55.9304C49.0329 55.9492 49.1904 55.9792 49.3217 56.0204C49.5579 56.0954 49.7754 56.0992 49.9667 56.0279C50.1504 55.9604 50.2967 55.8442 50.4017 55.6867C50.4992 55.5442 50.5554 55.3867 50.5742 55.2142C50.5929 55.0304 50.5592 54.8579 50.4729 54.6967C50.3829 54.5242 50.2404 54.3967 50.0717 54.3254C49.8204 54.1979 49.5317 54.1154 49.2129 54.0817C49.1304 54.0742 49.0517 54.0667 48.9692 54.0629L48.9579 53.8904C48.9429 53.6467 48.8417 53.4404 48.6579 53.2942C48.4742 53.1479 48.2492 53.0954 48.0092 53.1367C47.7767 53.1779 47.5779 53.2942 47.4317 53.4779C47.2854 53.6617 47.2104 53.8754 47.2217 54.1042L47.2329 54.3854C46.9779 54.4904 46.7454 54.6217 46.5429 54.7754C46.1979 55.0342 45.9242 55.3454 45.7292 55.7054C45.5267 56.0804 45.4254 56.4892 45.4254 56.9204C45.4254 57.5129 45.6054 57.9854 45.9542 58.3192C46.2992 58.6492 46.8092 58.8292 47.4692 58.8592L48.5004 58.9042C48.7179 58.9117 48.8379 58.9379 48.9017 58.9642C48.9842 58.9942 49.0029 59.0204 49.0067 59.0242C49.0254 59.0542 49.0404 59.0954 49.0442 59.1517C49.0517 59.2342 49.0329 59.3092 48.9954 59.3842C48.9542 59.4592 48.8754 59.5379 48.7592 59.6092C48.6242 59.6954 48.4329 59.7629 48.1854 59.8117C47.8367 59.8829 47.5404 59.8979 47.3042 59.8642C47.0567 59.8267 46.8654 59.7817 46.7342 59.7292C46.4154 59.6092 46.1717 59.6692 46.0217 59.7404C45.8342 59.8304 45.6804 59.9692 45.5679 60.1567C45.4629 60.3329 45.3992 60.5242 45.3804 60.7267C45.3617 60.9367 45.3917 61.1354 45.4704 61.3229C45.5642 61.5442 45.7404 61.7054 45.9692 61.7879C46.2204 61.8892 46.5242 61.9604 46.8917 62.0092C47.0792 62.0354 47.2817 62.0392 47.5029 62.0317L47.5142 62.3242C47.5254 62.6092 47.6267 62.8529 47.8142 63.0292C47.9717 63.1792 48.1704 63.2579 48.3842 63.2579C48.4479 63.2579 48.5117 63.2504 48.5754 63.2392C48.8417 63.1829 49.0629 63.0292 49.2167 62.7892C49.3592 62.5679 49.4267 62.3204 49.4079 62.0542L49.3817 61.5967C49.6742 61.4579 49.9367 61.2854 50.1617 61.0904C50.5104 60.7904 50.7767 60.4304 50.9529 60.0217C51.1292 59.6167 51.1967 59.1742 51.1554 58.7129C51.1029 58.1167 50.8854 57.6554 50.5104 57.3367L50.5142 57.3254ZM50.2892 59.7179C50.1542 60.0254 49.9554 60.2954 49.6892 60.5242C49.4642 60.7192 49.1867 60.8842 48.8717 61.0117C48.7254 61.0717 48.6354 61.2142 48.6467 61.3679L48.6879 62.0767C48.6954 62.1892 48.6692 62.2867 48.6092 62.3767C48.5454 62.4742 48.4779 62.4967 48.4292 62.5079C48.3579 62.5229 48.3354 62.5042 48.3167 62.4854C48.2867 62.4592 48.2492 62.4067 48.2417 62.2829L48.2192 61.6117C48.2192 61.5104 48.1704 61.4129 48.0917 61.3492C48.0242 61.2929 47.9417 61.2629 47.8554 61.2629C47.8404 61.2629 47.8254 61.2629 47.8104 61.2629C47.4954 61.3004 47.2217 61.3042 46.9892 61.2742C46.6854 61.2329 46.4342 61.1729 46.2279 61.0942C46.1642 61.0717 46.1492 61.0454 46.1379 61.0192C46.1079 60.9479 46.0967 60.8654 46.1042 60.7754C46.1117 60.6817 46.1379 60.5992 46.1867 60.5204C46.2279 60.4529 46.2729 60.4117 46.3329 60.3817C46.3629 60.3667 46.4117 60.3704 46.4642 60.3929C46.6442 60.4642 46.8842 60.5242 47.1917 60.5692C47.5104 60.6179 47.8892 60.5992 48.3204 60.5129C48.6579 60.4454 48.9279 60.3479 49.1379 60.2129C49.3629 60.0704 49.5279 59.9017 49.6292 59.7142C49.7304 59.5192 49.7754 59.3129 49.7604 59.0954C49.7492 58.9079 49.6929 58.7392 49.5954 58.6004C49.4942 58.4504 49.3367 58.3417 49.1342 58.2704C48.9692 58.2104 48.7629 58.1804 48.5154 58.1729L47.4879 58.1279C47.0117 58.1092 46.6592 57.9929 46.4454 57.7904C46.2429 57.5954 46.1417 57.3104 46.1417 56.9167C46.1417 56.6017 46.2129 56.3167 46.3592 56.0467C46.5054 55.7767 46.7079 55.5479 46.9704 55.3492C47.1804 55.1917 47.4279 55.0642 47.7129 54.9704C47.8667 54.9179 47.9679 54.7754 47.9604 54.6142L47.9417 54.0704C47.9417 54.0179 47.9567 53.9729 47.9942 53.9279C48.0317 53.8829 48.0729 53.8567 48.1292 53.8492C48.1779 53.8417 48.1892 53.8492 48.2004 53.8567C48.2117 53.8679 48.2267 53.8754 48.2267 53.9242L48.2567 54.4454C48.2679 54.6442 48.4404 54.7979 48.6392 54.7867C48.8192 54.7754 48.9729 54.7792 49.1304 54.7979C49.3592 54.8204 49.5617 54.8804 49.7529 54.9742C49.8092 54.9967 49.8204 55.0229 49.8279 55.0342C49.8467 55.0679 49.8542 55.1017 49.8467 55.1392C49.8429 55.1917 49.8242 55.2367 49.7942 55.2817C49.7792 55.3042 49.7567 55.3267 49.7079 55.3492C49.6967 55.3529 49.6517 55.3642 49.5392 55.3304C49.3554 55.2742 49.1567 55.2367 48.9429 55.2142C48.7179 55.1917 48.4554 55.2067 48.1442 55.2629C47.7279 55.3379 47.3979 55.4954 47.1617 55.7242C46.9029 55.9754 46.7717 56.2867 46.7792 56.6204C46.7904 56.9879 46.9704 57.1942 47.1167 57.2992C47.3004 57.4304 47.5592 57.4979 47.9417 57.5167L48.9504 57.5579C49.4454 57.5804 49.8129 57.6929 50.0454 57.8879C50.2704 58.0792 50.4017 58.3679 50.4354 58.7729C50.4654 59.1179 50.4167 59.4292 50.2892 59.7254V59.7179Z" fill="white"/>
</g>
<path d="M96.1413 35.2891C96.0552 34.4827 95.692 33.8549 95.0518 33.4055C94.4179 32.9562 93.593 32.7315 92.5774 32.7315C91.8634 32.7315 91.2509 32.8393 90.7401 33.0547C90.2292 33.2701 89.8383 33.5625 89.5675 33.9318C89.2966 34.3011 89.1581 34.7228 89.152 35.1967C89.152 35.5907 89.2412 35.9323 89.4197 36.2216C89.6044 36.5109 89.8537 36.7571 90.1676 36.9602C90.4815 37.1572 90.8293 37.3234 91.2109 37.4588C91.5926 37.5942 91.9773 37.7081 92.3651 37.8004L94.1378 38.2436C94.8518 38.4098 95.5381 38.6345 96.1967 38.9176C96.8615 39.2008 97.4555 39.5578 97.9787 39.9886C98.508 40.4195 98.9266 40.9396 99.2344 41.549C99.5421 42.1584 99.696 42.8724 99.696 43.6911C99.696 44.799 99.4129 45.7746 98.8466 46.6179C98.2803 47.455 97.4616 48.1106 96.3906 48.5845C95.3258 49.0523 94.0362 49.2862 92.522 49.2862C91.0509 49.2862 89.7737 49.0585 88.6903 48.603C87.6132 48.1475 86.7699 47.4827 86.1605 46.6087C85.5573 45.7346 85.2311 44.6697 85.1818 43.4141H88.5518C88.6011 44.0727 88.8042 44.6205 89.1612 45.0575C89.5182 45.4946 89.983 45.8208 90.5554 46.0362C91.134 46.2517 91.7803 46.3594 92.4943 46.3594C93.2391 46.3594 93.8916 46.2486 94.4517 46.027C95.018 45.7992 95.4612 45.4853 95.7812 45.0852C96.1013 44.679 96.2644 44.205 96.2706 43.6634C96.2644 43.1709 96.1198 42.7647 95.8366 42.4446C95.5535 42.1184 95.1565 41.8475 94.6456 41.6321C94.1409 41.4105 93.55 41.2135 92.8729 41.0412L90.7216 40.4872C89.1643 40.0871 87.9332 39.4808 87.0284 38.6683C86.1297 37.8497 85.6804 36.7633 85.6804 35.4091C85.6804 34.295 85.982 33.3194 86.5852 32.4822C87.1946 31.6451 88.0225 30.9957 89.0689 30.5341C90.1153 30.0663 91.3002 29.8324 92.6236 29.8324C93.9654 29.8324 95.1411 30.0663 96.1506 30.5341C97.1662 30.9957 97.9633 31.639 98.5419 32.4638C99.1205 33.2824 99.419 34.2242 99.4375 35.2891H96.1413ZM106.683 49.2862C105.784 49.2862 104.975 49.1262 104.255 48.8061C103.541 48.4799 102.974 47.9998 102.556 47.3658C102.144 46.7318 101.937 45.95 101.937 45.0206C101.937 44.2204 102.085 43.5587 102.381 43.0355C102.676 42.5123 103.079 42.0938 103.59 41.7798C104.101 41.4659 104.676 41.2289 105.317 41.0689C105.963 40.9027 106.631 40.7827 107.32 40.7088C108.151 40.6226 108.825 40.5457 109.342 40.478C109.859 40.4041 110.235 40.2933 110.469 40.1456C110.709 39.9917 110.829 39.7547 110.829 39.4347V39.3793C110.829 38.6837 110.622 38.1451 110.21 37.7635C109.798 37.3819 109.204 37.1911 108.428 37.1911C107.609 37.1911 106.96 37.3696 106.48 37.7266C106.006 38.0836 105.686 38.5052 105.52 38.9915L102.399 38.5483C102.645 37.6866 103.051 36.9664 103.618 36.3878C104.184 35.803 104.876 35.366 105.695 35.0767C106.514 34.7812 107.419 34.6335 108.41 34.6335C109.093 34.6335 109.773 34.7135 110.45 34.8736C111.127 35.0336 111.746 35.2983 112.306 35.6676C112.866 36.0308 113.315 36.5263 113.654 37.1541C113.999 37.782 114.171 38.5668 114.171 39.5085V49H110.958V47.0518H110.847C110.644 47.4458 110.358 47.8151 109.988 48.1598C109.625 48.4983 109.167 48.7723 108.613 48.9815C108.065 49.1847 107.422 49.2862 106.683 49.2862ZM107.551 46.8303C108.222 46.8303 108.804 46.6979 109.296 46.4332C109.788 46.1624 110.167 45.8054 110.432 45.3622C110.702 44.919 110.838 44.4358 110.838 43.9126V42.2415C110.733 42.3277 110.555 42.4077 110.302 42.4815C110.056 42.5554 109.779 42.62 109.471 42.6754C109.164 42.7308 108.859 42.7801 108.557 42.8232C108.256 42.8662 107.994 42.9032 107.773 42.9339C107.274 43.0017 106.828 43.1125 106.434 43.2663C106.04 43.4202 105.729 43.6357 105.501 43.9126C105.273 44.1835 105.16 44.5343 105.16 44.9652C105.16 45.5807 105.384 46.0455 105.834 46.3594C106.283 46.6733 106.855 46.8303 107.551 46.8303ZM120.874 30.0909V49H117.532V30.0909H120.874ZM128.392 49.2862C127.493 49.2862 126.684 49.1262 125.964 48.8061C125.25 48.4799 124.683 47.9998 124.265 47.3658C123.853 46.7318 123.646 45.95 123.646 45.0206C123.646 44.2204 123.794 43.5587 124.089 43.0355C124.385 42.5123 124.788 42.0938 125.299 41.7798C125.81 41.4659 126.385 41.2289 127.026 41.0689C127.672 40.9027 128.34 40.7827 129.029 40.7088C129.86 40.6226 130.534 40.5457 131.051 40.478C131.568 40.4041 131.944 40.2933 132.178 40.1456C132.418 39.9917 132.538 39.7547 132.538 39.4347V39.3793C132.538 38.6837 132.331 38.1451 131.919 37.7635C131.507 37.3819 130.913 37.1911 130.137 37.1911C129.318 37.1911 128.669 37.3696 128.189 37.7266C127.715 38.0836 127.395 38.5052 127.229 38.9915L124.108 38.5483C124.354 37.6866 124.76 36.9664 125.327 36.3878C125.893 35.803 126.585 35.366 127.404 35.0767C128.223 34.7812 129.128 34.6335 130.119 34.6335C130.802 34.6335 131.482 34.7135 132.159 34.8736C132.836 35.0336 133.455 35.2983 134.015 35.6676C134.575 36.0308 135.024 36.5263 135.363 37.1541C135.708 37.782 135.88 38.5668 135.88 39.5085V49H132.667V47.0518H132.556C132.353 47.4458 132.067 47.8151 131.697 48.1598C131.334 48.4983 130.876 48.7723 130.322 48.9815C129.774 49.1847 129.131 49.2862 128.392 49.2862ZM129.26 46.8303C129.931 46.8303 130.513 46.6979 131.005 46.4332C131.497 46.1624 131.876 45.8054 132.141 45.3622C132.411 44.919 132.547 44.4358 132.547 43.9126V42.2415C132.442 42.3277 132.264 42.4077 132.011 42.4815C131.765 42.5554 131.488 42.62 131.18 42.6754C130.873 42.7308 130.568 42.7801 130.266 42.8232C129.965 42.8662 129.703 42.9032 129.482 42.9339C128.983 43.0017 128.537 43.1125 128.143 43.2663C127.749 43.4202 127.438 43.6357 127.21 43.9126C126.982 44.1835 126.869 44.5343 126.869 44.9652C126.869 45.5807 127.093 46.0455 127.543 46.3594C127.992 46.6733 128.564 46.8303 129.26 46.8303ZM150.953 49.2493C149.839 49.2493 148.842 48.9631 147.961 48.3906C147.081 47.8182 146.386 46.9872 145.875 45.8977C145.364 44.8082 145.108 43.4848 145.108 41.9276C145.108 40.3518 145.367 39.0223 145.884 37.9389C146.407 36.8494 147.112 36.0277 147.998 35.4737C148.885 34.9136 149.873 34.6335 150.962 34.6335C151.793 34.6335 152.476 34.7751 153.012 35.0582C153.547 35.3352 153.972 35.6707 154.286 36.0646C154.6 36.4524 154.843 36.8187 155.015 37.1634H155.154V30.0909H158.505V49H155.218V46.7656H155.015C154.843 47.1103 154.594 47.4766 154.267 47.8643C153.941 48.246 153.51 48.5722 152.975 48.843C152.439 49.1139 151.765 49.2493 150.953 49.2493ZM151.885 46.5071C152.593 46.5071 153.196 46.3163 153.695 45.9347C154.194 45.5469 154.572 45.0083 154.831 44.3189C155.089 43.6295 155.218 42.8262 155.218 41.9091C155.218 40.992 155.089 40.1948 154.831 39.5178C154.578 38.8407 154.203 38.3144 153.704 37.9389C153.212 37.5634 152.605 37.3757 151.885 37.3757C151.141 37.3757 150.519 37.5696 150.02 37.9574C149.522 38.3452 149.146 38.8807 148.894 39.5639C148.641 40.2472 148.515 41.0289 148.515 41.9091C148.515 42.7955 148.641 43.5864 148.894 44.282C149.152 44.9714 149.531 45.5161 150.029 45.9162C150.534 46.3101 151.153 46.5071 151.885 46.5071ZM168.345 49.277C166.923 49.277 165.695 48.9815 164.661 48.3906C163.633 47.7936 162.843 46.9503 162.289 45.8608C161.735 44.7652 161.458 43.4756 161.458 41.9922C161.458 40.5334 161.735 39.2531 162.289 38.1513C162.849 37.0433 163.63 36.1816 164.634 35.5661C165.637 34.9444 166.816 34.6335 168.17 34.6335C169.044 34.6335 169.869 34.7751 170.644 35.0582C171.426 35.3352 172.115 35.7661 172.713 36.3509C173.316 36.9356 173.79 37.6804 174.134 38.5852C174.479 39.4839 174.651 40.5549 174.651 41.7983V42.8232H163.027V40.5703H171.448C171.441 39.9302 171.303 39.3608 171.032 38.8622C170.761 38.3575 170.383 37.9605 169.896 37.6712C169.416 37.3819 168.856 37.2372 168.216 37.2372C167.533 37.2372 166.933 37.4034 166.416 37.7358C165.899 38.062 165.495 38.4929 165.206 39.0284C164.923 39.5578 164.778 40.1394 164.772 40.7734V42.7401C164.772 43.5649 164.923 44.2727 165.225 44.8636C165.526 45.4484 165.948 45.8977 166.49 46.2116C167.031 46.5194 167.665 46.6733 168.392 46.6733C168.878 46.6733 169.318 46.6056 169.712 46.4702C170.106 46.3286 170.447 46.1224 170.737 45.8516C171.026 45.5807 171.244 45.2453 171.392 44.8452L174.513 45.196C174.316 46.0208 173.941 46.741 173.387 47.3565C172.839 47.9659 172.137 48.4399 171.281 48.7784C170.426 49.1108 169.447 49.277 168.345 49.277ZM186.606 30.0909L191.527 44.9744H191.721L196.633 30.0909H200.4L193.734 49H189.505L182.848 30.0909H186.606ZM207.498 49.277C206.076 49.277 204.848 48.9815 203.814 48.3906C202.786 47.7936 201.995 46.9503 201.441 45.8608C200.887 44.7652 200.61 43.4756 200.61 41.9922C200.61 40.5334 200.887 39.2531 201.441 38.1513C202.001 37.0433 202.783 36.1816 203.786 35.5661C204.789 34.9444 205.968 34.6335 207.322 34.6335C208.196 34.6335 209.021 34.7751 209.797 35.0582C210.578 35.3352 211.268 35.7661 211.865 36.3509C212.468 36.9356 212.942 37.6804 213.287 38.5852C213.631 39.4839 213.804 40.5549 213.804 41.7983V42.8232H202.18V40.5703H210.6C210.594 39.9302 210.455 39.3608 210.184 38.8622C209.914 38.3575 209.535 37.9605 209.049 37.6712C208.569 37.3819 208.009 37.2372 207.368 37.2372C206.685 37.2372 206.085 37.4034 205.568 37.7358C205.051 38.062 204.648 38.4929 204.358 39.0284C204.075 39.5578 203.931 40.1394 203.925 40.7734V42.7401C203.925 43.5649 204.075 44.2727 204.377 44.8636C204.679 45.4484 205.1 45.8977 205.642 46.2116C206.184 46.5194 206.818 46.6733 207.544 46.6733C208.03 46.6733 208.47 46.6056 208.864 46.4702C209.258 46.3286 209.6 46.1224 209.889 45.8516C210.178 45.5807 210.397 45.2453 210.545 44.8452L213.665 45.196C213.468 46.0208 213.093 46.741 212.539 47.3565C211.991 47.9659 211.289 48.4399 210.434 48.7784C209.578 49.1108 208.599 49.277 207.498 49.277ZM219.974 40.6903V49H216.631V34.8182H219.826V37.228H219.992C220.318 36.4339 220.839 35.803 221.553 35.3352C222.273 34.8674 223.162 34.6335 224.221 34.6335C225.2 34.6335 226.052 34.8428 226.778 35.2614C227.511 35.6799 228.077 36.2862 228.477 37.0803C228.884 37.8743 229.084 38.8376 229.077 39.9702V49H225.735V40.4872C225.735 39.5393 225.489 38.7976 224.996 38.2621C224.51 37.7266 223.836 37.4588 222.974 37.4588C222.39 37.4588 221.87 37.5881 221.414 37.8466C220.965 38.099 220.611 38.4652 220.352 38.9453C220.1 39.4254 219.974 40.0071 219.974 40.6903ZM239.557 34.8182V37.4034H231.404V34.8182H239.557ZM233.417 31.4205H236.759V44.7344C236.759 45.1837 236.827 45.5284 236.962 45.7685C237.104 46.0024 237.289 46.1624 237.516 46.2486C237.744 46.3348 237.996 46.3778 238.273 46.3778C238.483 46.3778 238.674 46.3625 238.846 46.3317C239.024 46.3009 239.16 46.2732 239.252 46.2486L239.815 48.8615C239.637 48.9231 239.381 48.9908 239.049 49.0646C238.723 49.1385 238.323 49.1816 237.849 49.1939C237.012 49.2185 236.258 49.0923 235.587 48.8153C234.916 48.5322 234.383 48.0952 233.989 47.5043C233.602 46.9134 233.411 46.1747 233.417 45.2884V31.4205ZM246.433 49.2862C245.534 49.2862 244.725 49.1262 244.005 48.8061C243.291 48.4799 242.724 47.9998 242.306 47.3658C241.894 46.7318 241.687 45.95 241.687 45.0206C241.687 44.2204 241.835 43.5587 242.131 43.0355C242.426 42.5123 242.829 42.0938 243.34 41.7798C243.851 41.4659 244.426 41.2289 245.067 41.0689C245.713 40.9027 246.381 40.7827 247.07 40.7088C247.901 40.6226 248.575 40.5457 249.092 40.478C249.609 40.4041 249.985 40.2933 250.219 40.1456C250.459 39.9917 250.579 39.7547 250.579 39.4347V39.3793C250.579 38.6837 250.372 38.1451 249.96 37.7635C249.548 37.3819 248.954 37.1911 248.178 37.1911C247.359 37.1911 246.71 37.3696 246.23 37.7266C245.756 38.0836 245.436 38.5052 245.27 38.9915L242.149 38.5483C242.395 37.6866 242.801 36.9664 243.368 36.3878C243.934 35.803 244.626 35.366 245.445 35.0767C246.264 34.7812 247.169 34.6335 248.16 34.6335C248.843 34.6335 249.523 34.7135 250.2 34.8736C250.877 35.0336 251.496 35.2983 252.056 35.6676C252.616 36.0308 253.065 36.5263 253.404 37.1541C253.749 37.782 253.921 38.5668 253.921 39.5085V49H250.708V47.0518H250.597C250.394 47.4458 250.108 47.8151 249.738 48.1598C249.375 48.4983 248.917 48.7723 248.363 48.9815C247.815 49.1847 247.172 49.2862 246.433 49.2862ZM247.301 46.8303C247.972 46.8303 248.554 46.6979 249.046 46.4332C249.538 46.1624 249.917 45.8054 250.182 45.3622C250.452 44.919 250.588 44.4358 250.588 43.9126V42.2415C250.483 42.3277 250.305 42.4077 250.052 42.4815C249.806 42.5554 249.529 42.62 249.221 42.6754C248.914 42.7308 248.609 42.7801 248.307 42.8232C248.006 42.8662 247.744 42.9032 247.523 42.9339C247.024 43.0017 246.578 43.1125 246.184 43.2663C245.79 43.4202 245.479 43.6357 245.251 43.9126C245.023 44.1835 244.91 44.5343 244.91 44.9652C244.91 45.5807 245.134 46.0455 245.584 46.3594C246.033 46.6733 246.605 46.8303 247.301 46.8303ZM268.491 38.5668L265.444 38.8991C265.358 38.5914 265.207 38.3021 264.991 38.0312C264.782 37.7604 264.499 37.5419 264.142 37.3757C263.785 37.2095 263.348 37.1264 262.831 37.1264C262.135 37.1264 261.55 37.2772 261.077 37.5788C260.609 37.8804 260.378 38.2713 260.384 38.7514C260.378 39.1638 260.529 39.4993 260.836 39.7578C261.15 40.0163 261.667 40.2287 262.388 40.3949L264.807 40.9119C266.148 41.2012 267.146 41.6598 267.798 42.2876C268.457 42.9155 268.789 43.7372 268.795 44.7528C268.789 45.6454 268.528 46.4332 268.01 47.1165C267.5 47.7936 266.789 48.3229 265.878 48.7045C264.967 49.0862 263.92 49.277 262.738 49.277C261.003 49.277 259.605 48.9138 258.547 48.1875C257.488 47.455 256.857 46.4363 256.654 45.1314L259.913 44.8175C260.061 45.4576 260.375 45.9408 260.855 46.267C261.335 46.5933 261.96 46.7564 262.729 46.7564C263.523 46.7564 264.16 46.5933 264.64 46.267C265.127 45.9408 265.37 45.5376 265.37 45.0575C265.37 44.6513 265.213 44.3158 264.899 44.0511C264.591 43.7865 264.111 43.5833 263.459 43.4418L261.04 42.9339C259.679 42.6508 258.673 42.1738 258.02 41.5028C257.368 40.8258 257.045 39.9702 257.051 38.9361C257.045 38.062 257.282 37.3049 257.762 36.6648C258.248 36.0185 258.922 35.5199 259.784 35.169C260.652 34.812 261.652 34.6335 262.785 34.6335C264.447 34.6335 265.755 34.9875 266.709 35.6953C267.669 36.4032 268.263 37.3603 268.491 38.5668ZM85.8651 80V61.0909H89.2905V69.7791H89.5213L96.8984 61.0909H101.081L93.7685 69.576L101.146 80H97.0277L91.3864 71.8935L89.2905 74.3679V80H85.8651ZM103.461 61.0909H107.653L113.266 74.7926H113.488L119.101 61.0909H123.293V80H120.006V67.0092H119.831L114.605 79.9446H112.149L106.923 66.9815H106.748V80H103.461V61.0909ZM140.979 61.0909V80H137.553V64.424H137.443L133.02 67.2493V64.1101L137.72 61.0909H140.979ZM152.502 80.2585C151.129 80.2585 149.91 80.0277 148.845 79.5661C147.787 79.1044 146.956 78.4735 146.352 77.6733C145.755 76.867 145.46 75.9529 145.466 74.9311C145.46 74.1371 145.632 73.4077 145.983 72.7429C146.334 72.0781 146.808 71.5241 147.405 71.081C148.008 70.6316 148.679 70.3454 149.418 70.2223V70.093C148.445 69.8776 147.657 69.3821 147.054 68.6065C146.457 67.8248 146.162 66.9231 146.168 65.9013C146.162 64.9287 146.432 64.0608 146.98 63.2976C147.528 62.5343 148.279 61.9342 149.233 61.4972C150.187 61.054 151.277 60.8324 152.502 60.8324C153.714 60.8324 154.794 61.054 155.742 61.4972C156.696 61.9342 157.447 62.5343 157.995 63.2976C158.549 64.0608 158.826 64.9287 158.826 65.9013C158.826 66.9231 158.521 67.8248 157.912 68.6065C157.309 69.3821 156.53 69.8776 155.576 70.093V70.2223C156.315 70.3454 156.98 70.6316 157.57 71.081C158.168 71.5241 158.642 72.0781 158.992 72.7429C159.349 73.4077 159.528 74.1371 159.528 74.9311C159.528 75.9529 159.226 76.867 158.623 77.6733C158.02 78.4735 157.189 79.1044 156.13 79.5661C155.078 80.0277 153.868 80.2585 152.502 80.2585ZM152.502 77.6179C153.209 77.6179 153.825 77.4979 154.348 77.2578C154.871 77.0116 155.278 76.6669 155.567 76.2237C155.856 75.7805 156.004 75.2696 156.01 74.6911C156.004 74.0878 155.847 73.5554 155.539 73.0938C155.238 72.6259 154.822 72.2597 154.293 71.995C153.77 71.7304 153.173 71.598 152.502 71.598C151.825 71.598 151.221 71.7304 150.692 71.995C150.163 72.2597 149.744 72.6259 149.436 73.0938C149.135 73.5554 148.987 74.0878 148.993 74.6911C148.987 75.2696 149.128 75.7805 149.418 76.2237C149.707 76.6607 150.113 77.0024 150.637 77.2486C151.166 77.4948 151.788 77.6179 152.502 77.6179ZM152.502 69.0036C153.08 69.0036 153.591 68.8866 154.034 68.6527C154.484 68.4188 154.838 68.0926 155.096 67.674C155.355 67.2554 155.487 66.7723 155.493 66.2244C155.487 65.6828 155.358 65.2088 155.105 64.8026C154.853 64.3902 154.502 64.0732 154.053 63.8516C153.603 63.6238 153.086 63.5099 152.502 63.5099C151.905 63.5099 151.378 63.6238 150.923 63.8516C150.473 64.0732 150.123 64.3902 149.87 64.8026C149.624 65.2088 149.504 65.6828 149.51 66.2244C149.504 66.7723 149.627 67.2554 149.879 67.674C150.138 68.0864 150.492 68.4126 150.941 68.6527C151.397 68.8866 151.917 69.0036 152.502 69.0036ZM164.1 80.2031C163.54 80.2031 163.06 80.0062 162.66 79.6122C162.26 79.2183 162.063 78.7382 162.069 78.1719C162.063 77.6179 162.26 77.1439 162.66 76.75C163.06 76.3561 163.54 76.1591 164.1 76.1591C164.642 76.1591 165.113 76.3561 165.513 76.75C165.919 77.1439 166.126 77.6179 166.132 78.1719C166.126 78.5473 166.027 78.889 165.836 79.1967C165.652 79.5045 165.405 79.7507 165.098 79.9354C164.796 80.1139 164.464 80.2031 164.1 80.2031ZM175.891 80.2585C174.66 80.2585 173.558 80.0277 172.586 79.5661C171.613 79.0982 170.841 78.4581 170.268 77.6456C169.702 76.8331 169.4 75.9036 169.363 74.8572H172.687C172.749 75.6328 173.084 76.2668 173.694 76.7592C174.303 77.2455 175.035 77.4886 175.891 77.4886C176.562 77.4886 177.159 77.3348 177.682 77.027C178.205 76.7192 178.618 76.2914 178.919 75.7436C179.221 75.1958 179.369 74.571 179.363 73.8693C179.369 73.1553 179.218 72.5213 178.91 71.9673C178.602 71.4134 178.181 70.9794 177.645 70.6655C177.11 70.3454 176.494 70.1854 175.799 70.1854C175.232 70.1792 174.675 70.2839 174.127 70.4993C173.58 70.7147 173.146 70.9979 172.826 71.3487L169.733 70.8409L170.721 61.0909H181.689V63.9531H173.555L173.01 68.9666H173.121C173.472 68.5542 173.967 68.2126 174.608 67.9418C175.248 67.6648 175.949 67.5263 176.713 67.5263C177.858 67.5263 178.879 67.7971 179.778 68.3388C180.677 68.8743 181.385 69.6129 181.902 70.5547C182.419 71.4964 182.677 72.5736 182.677 73.7862C182.677 75.0357 182.388 76.1499 181.809 77.1286C181.237 78.1011 180.44 78.8674 179.418 79.4276C178.402 79.9815 177.227 80.2585 175.891 80.2585ZM208.589 67.4709H205.136C205.038 66.9046 204.856 66.4029 204.592 65.9659C204.327 65.5227 203.998 65.1473 203.604 64.8395C203.21 64.5317 202.76 64.3009 202.256 64.147C201.757 63.987 201.219 63.907 200.64 63.907C199.612 63.907 198.701 64.1655 197.907 64.6825C197.113 65.1934 196.491 65.9444 196.042 66.9354C195.593 67.9202 195.368 69.1236 195.368 70.5455C195.368 71.992 195.593 73.2107 196.042 74.2017C196.497 75.1866 197.119 75.9313 197.907 76.4361C198.701 76.9347 199.609 77.1839 200.631 77.1839C201.197 77.1839 201.726 77.1101 202.219 76.9624C202.717 76.8085 203.164 76.5838 203.558 76.2884C203.958 75.9929 204.293 75.6297 204.564 75.1989C204.841 74.768 205.032 74.2756 205.136 73.7216L208.589 73.7401C208.46 74.6387 208.18 75.482 207.749 76.2699C207.325 77.0578 206.768 77.7533 206.078 78.3565C205.389 78.9536 204.582 79.4214 203.659 79.7599C202.736 80.0923 201.711 80.2585 200.585 80.2585C198.923 80.2585 197.439 79.8738 196.134 79.1044C194.829 78.335 193.801 77.224 193.05 75.7713C192.299 74.3187 191.924 72.5767 191.924 70.5455C191.924 68.508 192.303 66.7661 193.06 65.3196C193.817 63.867 194.848 62.7559 196.153 61.9865C197.458 61.2171 198.935 60.8324 200.585 60.8324C201.637 60.8324 202.616 60.9801 203.521 61.2756C204.425 61.571 205.232 62.005 205.94 62.5774C206.647 63.1437 207.229 63.8393 207.685 64.6641C208.146 65.4827 208.448 66.4183 208.589 67.4709ZM215.66 80.2862C214.761 80.2862 213.952 80.1262 213.231 79.8061C212.517 79.4799 211.951 78.9998 211.532 78.3658C211.12 77.7318 210.914 76.95 210.914 76.0206C210.914 75.2204 211.062 74.5587 211.357 74.0355C211.653 73.5123 212.056 73.0938 212.567 72.7798C213.077 72.4659 213.653 72.2289 214.293 72.0689C214.939 71.9027 215.607 71.7827 216.297 71.7088C217.128 71.6226 217.802 71.5457 218.319 71.478C218.836 71.4041 219.211 71.2933 219.445 71.1456C219.685 70.9917 219.805 70.7547 219.805 70.4347V70.3793C219.805 69.6837 219.599 69.1451 219.187 68.7635C218.774 68.3819 218.18 68.1911 217.405 68.1911C216.586 68.1911 215.937 68.3696 215.456 68.7266C214.983 69.0836 214.662 69.5052 214.496 69.9915L211.376 69.5483C211.622 68.6866 212.028 67.9664 212.594 67.3878C213.161 66.803 213.853 66.366 214.672 66.0767C215.49 65.7812 216.395 65.6335 217.386 65.6335C218.069 65.6335 218.75 65.7135 219.427 65.8736C220.104 66.0336 220.722 66.2983 221.282 66.6676C221.843 67.0308 222.292 67.5263 222.631 68.1541C222.975 68.782 223.148 69.5668 223.148 70.5085V80H219.934V78.0518H219.824C219.621 78.4458 219.334 78.8151 218.965 79.1598C218.602 79.4983 218.143 79.7723 217.589 79.9815C217.041 80.1847 216.398 80.2862 215.66 80.2862ZM216.528 77.8303C217.198 77.8303 217.78 77.6979 218.273 77.4332C218.765 77.1624 219.144 76.8054 219.408 76.3622C219.679 75.919 219.814 75.4358 219.814 74.9126V73.2415C219.71 73.3277 219.531 73.4077 219.279 73.4815C219.033 73.5554 218.756 73.62 218.448 73.6754C218.14 73.7308 217.836 73.7801 217.534 73.8232C217.232 73.8662 216.971 73.9032 216.749 73.9339C216.251 74.0017 215.804 74.1125 215.41 74.2663C215.016 74.4202 214.706 74.6357 214.478 74.9126C214.25 75.1835 214.136 75.5343 214.136 75.9652C214.136 76.5807 214.361 77.0455 214.81 77.3594C215.26 77.6733 215.832 77.8303 216.528 77.8303ZM226.508 80V65.8182H229.749V68.1818H229.897C230.155 67.3632 230.599 66.7322 231.226 66.2891C231.86 65.8397 232.584 65.6151 233.396 65.6151C233.581 65.6151 233.787 65.6243 234.015 65.6428C234.249 65.6551 234.443 65.6766 234.596 65.7074V68.782C234.455 68.7327 234.23 68.6896 233.922 68.6527C233.621 68.6096 233.328 68.5881 233.045 68.5881C232.436 68.5881 231.888 68.7204 231.402 68.9851C230.922 69.2436 230.543 69.6037 230.266 70.0653C229.989 70.527 229.851 71.0594 229.851 71.6626V80H226.508ZM236.817 80V65.8182H240.058V68.1818H240.205C240.464 67.3632 240.907 66.7322 241.535 66.2891C242.169 65.8397 242.892 65.6151 243.705 65.6151C243.889 65.6151 244.096 65.6243 244.323 65.6428C244.557 65.6551 244.751 65.6766 244.905 65.7074V68.782C244.763 68.7327 244.539 68.6896 244.231 68.6527C243.929 68.6096 243.637 68.5881 243.354 68.5881C242.744 68.5881 242.197 68.7204 241.71 68.9851C241.23 69.2436 240.852 69.6037 240.575 70.0653C240.298 70.527 240.159 71.0594 240.159 71.6626V80H236.817ZM252.82 80.277C251.398 80.277 250.17 79.9815 249.136 79.3906C248.108 78.7936 247.317 77.9503 246.763 76.8608C246.209 75.7652 245.932 74.4756 245.932 72.9922C245.932 71.5334 246.209 70.2531 246.763 69.1513C247.323 68.0433 248.105 67.1816 249.108 66.5661C250.112 65.9444 251.29 65.6335 252.645 65.6335C253.519 65.6335 254.343 65.7751 255.119 66.0582C255.901 66.3352 256.59 66.7661 257.187 67.3509C257.79 67.9356 258.264 68.6804 258.609 69.5852C258.954 70.4839 259.126 71.5549 259.126 72.7983V73.8232H247.502V71.5703H255.922C255.916 70.9302 255.778 70.3608 255.507 69.8622C255.236 69.3575 254.857 68.9605 254.371 68.6712C253.891 68.3819 253.331 68.2372 252.691 68.2372C252.007 68.2372 251.407 68.4034 250.89 68.7358C250.373 69.062 249.97 69.4929 249.681 70.0284C249.398 70.5578 249.253 71.1394 249.247 71.7734V73.7401C249.247 74.5649 249.398 75.2727 249.699 75.8636C250.001 76.4484 250.422 76.8977 250.964 77.2116C251.506 77.5194 252.14 77.6733 252.866 77.6733C253.352 77.6733 253.792 77.6056 254.186 77.4702C254.58 77.3286 254.922 77.1224 255.211 76.8516C255.501 76.5807 255.719 76.2453 255.867 75.8452L258.988 76.196C258.791 77.0208 258.415 77.741 257.861 78.3565C257.313 78.9659 256.612 79.4399 255.756 79.7784C254.9 80.1108 253.922 80.277 252.82 80.277ZM269.035 65.8182V68.4034H260.883V65.8182H269.035ZM262.895 62.4205H266.238V75.7344C266.238 76.1837 266.305 76.5284 266.441 76.7685C266.582 77.0024 266.767 77.1624 266.995 77.2486C267.223 77.3348 267.475 77.3778 267.752 77.3778C267.961 77.3778 268.152 77.3625 268.324 77.3317C268.503 77.3009 268.638 77.2732 268.731 77.2486L269.294 79.8615C269.115 79.9231 268.86 79.9908 268.528 80.0646C268.201 80.1385 267.801 80.1816 267.327 80.1939C266.49 80.2185 265.736 80.0923 265.065 79.8153C264.394 79.5322 263.862 79.0952 263.468 78.5043C263.08 77.9134 262.889 77.1747 262.895 76.2884V62.4205ZM277.957 80.277C276.535 80.277 275.307 79.9815 274.273 79.3906C273.245 78.7936 272.454 77.9503 271.9 76.8608C271.346 75.7652 271.069 74.4756 271.069 72.9922C271.069 71.5334 271.346 70.2531 271.9 69.1513C272.46 68.0433 273.242 67.1816 274.245 66.5661C275.248 65.9444 276.427 65.6335 277.781 65.6335C278.655 65.6335 279.48 65.7751 280.256 66.0582C281.037 66.3352 281.727 66.7661 282.324 67.3509C282.927 67.9356 283.401 68.6804 283.746 69.5852C284.09 70.4839 284.263 71.5549 284.263 72.7983V73.8232H272.638V71.5703H281.059C281.053 70.9302 280.914 70.3608 280.643 69.8622C280.373 69.3575 279.994 68.9605 279.508 68.6712C279.028 68.3819 278.468 68.2372 277.827 68.2372C277.144 68.2372 276.544 68.4034 276.027 68.7358C275.51 69.062 275.107 69.4929 274.817 70.0284C274.534 70.5578 274.39 71.1394 274.384 71.7734V73.7401C274.384 74.5649 274.534 75.2727 274.836 75.8636C275.138 76.4484 275.559 76.8977 276.101 77.2116C276.643 77.5194 277.277 77.6733 278.003 77.6733C278.489 77.6733 278.929 77.6056 279.323 77.4702C279.717 77.3286 280.059 77.1224 280.348 76.8516C280.637 76.5807 280.856 76.2453 281.004 75.8452L284.124 76.196C283.927 77.0208 283.552 77.741 282.998 78.3565C282.45 78.9659 281.748 79.4399 280.893 79.7784C280.037 80.1108 279.058 80.277 277.957 80.277ZM287.09 80V65.8182H290.331V68.1818H290.479C290.737 67.3632 291.181 66.7322 291.808 66.2891C292.442 65.8397 293.166 65.6151 293.978 65.6151C294.163 65.6151 294.369 65.6243 294.597 65.6428C294.831 65.6551 295.025 65.6766 295.178 65.7074V68.782C295.037 68.7327 294.812 68.6896 294.504 68.6527C294.203 68.6096 293.91 68.5881 293.627 68.5881C293.018 68.5881 292.47 68.7204 291.984 68.9851C291.504 69.2436 291.125 69.6037 290.848 70.0653C290.571 70.527 290.433 71.0594 290.433 71.6626V80H287.09ZM301.226 80.2862C300.327 80.2862 299.518 80.1262 298.798 79.8061C298.084 79.4799 297.517 78.9998 297.099 78.3658C296.686 77.7318 296.48 76.95 296.48 76.0206C296.48 75.2204 296.628 74.5587 296.923 74.0355C297.219 73.5123 297.622 73.0938 298.133 72.7798C298.644 72.4659 299.219 72.2289 299.86 72.0689C300.506 71.9027 301.174 71.7827 301.863 71.7088C302.694 71.6226 303.368 71.5457 303.885 71.478C304.402 71.4041 304.778 71.2933 305.012 71.1456C305.252 70.9917 305.372 70.7547 305.372 70.4347V70.3793C305.372 69.6837 305.165 69.1451 304.753 68.7635C304.341 68.3819 303.747 68.1911 302.971 68.1911C302.152 68.1911 301.503 68.3696 301.023 68.7266C300.549 69.0836 300.229 69.5052 300.063 69.9915L296.942 69.5483C297.188 68.6866 297.594 67.9664 298.161 67.3878C298.727 66.803 299.419 66.366 300.238 66.0767C301.057 65.7812 301.962 65.6335 302.953 65.6335C303.636 65.6335 304.316 65.7135 304.993 65.8736C305.67 66.0336 306.289 66.2983 306.849 66.6676C307.409 67.0308 307.858 67.5263 308.197 68.1541C308.542 68.782 308.714 69.5668 308.714 70.5085V80H305.501V78.0518H305.39C305.187 78.4458 304.901 78.8151 304.531 79.1598C304.168 79.4983 303.71 79.7723 303.156 79.9815C302.608 80.1847 301.965 80.2862 301.226 80.2862ZM302.094 77.8303C302.765 77.8303 303.347 77.6979 303.839 77.4332C304.331 77.1624 304.71 76.8054 304.975 76.3622C305.245 75.919 305.381 75.4358 305.381 74.9126V73.2415C305.276 73.3277 305.098 73.4077 304.845 73.4815C304.599 73.5554 304.322 73.62 304.014 73.6754C303.707 73.7308 303.402 73.7801 303.1 73.8232C302.799 73.8662 302.537 73.9032 302.316 73.9339C301.817 74.0017 301.371 74.1125 300.977 74.2663C300.583 74.4202 300.272 74.6357 300.044 74.9126C299.816 75.1835 299.703 75.5343 299.703 75.9652C299.703 76.5807 299.927 77.0455 300.377 77.3594C300.826 77.6733 301.398 77.8303 302.094 77.8303ZM318.672 80V61.0909H325.763C327.215 61.0909 328.434 61.3617 329.419 61.9034C330.41 62.4451 331.158 63.1899 331.662 64.1378C332.173 65.0795 332.429 66.1506 332.429 67.3509C332.429 68.5634 332.173 69.6406 331.662 70.5824C331.152 71.5241 330.398 72.2659 329.4 72.8075C328.403 73.343 327.175 73.6108 325.716 73.6108H321.017V70.7947H325.255C326.104 70.7947 326.8 70.647 327.341 70.3516C327.883 70.0561 328.283 69.6499 328.542 69.1328C328.806 68.6158 328.939 68.0218 328.939 67.3509C328.939 66.6799 328.806 66.089 328.542 65.5781C328.283 65.0672 327.88 64.6702 327.332 64.3871C326.791 64.0978 326.092 63.9531 325.236 63.9531H322.097V80H318.672ZM335.256 80V65.8182H338.599V80H335.256ZM336.937 63.8054C336.407 63.8054 335.952 63.63 335.57 63.2791C335.189 62.9221 334.998 62.4943 334.998 61.9957C334.998 61.491 335.189 61.0632 335.57 60.7124C335.952 60.3553 336.407 60.1768 336.937 60.1768C337.472 60.1768 337.928 60.3553 338.303 60.7124C338.685 61.0632 338.876 61.491 338.876 61.9957C338.876 62.4943 338.685 62.9221 338.303 63.2791C337.928 63.63 337.472 63.8054 336.937 63.8054ZM353.244 69.5668L350.198 69.8991C350.111 69.5914 349.961 69.3021 349.745 69.0312C349.536 68.7604 349.253 68.5419 348.896 68.3757C348.539 68.2095 348.102 68.1264 347.585 68.1264C346.889 68.1264 346.304 68.2772 345.83 68.5788C345.363 68.8804 345.132 69.2713 345.138 69.7514C345.132 70.1638 345.283 70.4993 345.59 70.7578C345.904 71.0163 346.421 71.2287 347.142 71.3949L349.561 71.9119C350.902 72.2012 351.9 72.6598 352.552 73.2876C353.211 73.9155 353.543 74.7372 353.549 75.7528C353.543 76.6454 353.281 77.4332 352.764 78.1165C352.253 78.7936 351.543 79.3229 350.632 79.7045C349.721 80.0862 348.674 80.277 347.492 80.277C345.757 80.277 344.359 79.9138 343.301 79.1875C342.242 78.455 341.611 77.4363 341.408 76.1314L344.667 75.8175C344.815 76.4576 345.129 76.9408 345.609 77.267C346.089 77.5933 346.714 77.7564 347.483 77.7564C348.277 77.7564 348.914 77.5933 349.394 77.267C349.881 76.9408 350.124 76.5376 350.124 76.0575C350.124 75.6513 349.967 75.3158 349.653 75.0511C349.345 74.7865 348.865 74.5833 348.213 74.4418L345.794 73.9339C344.433 73.6508 343.427 73.1738 342.774 72.5028C342.122 71.8258 341.799 70.9702 341.805 69.9361C341.799 69.062 342.036 68.3049 342.516 67.6648C343.002 67.0185 343.676 66.5199 344.538 66.169C345.406 65.812 346.406 65.6335 347.539 65.6335C349.2 65.6335 350.508 65.9875 351.463 66.6953C352.423 67.4032 353.017 68.3603 353.244 69.5668ZM362.491 80.277C361.076 80.277 359.86 79.9661 358.844 79.3445C357.835 78.7228 357.056 77.8641 356.508 76.7685C355.967 75.6667 355.696 74.3987 355.696 72.9645C355.696 71.5241 355.973 70.2531 356.527 69.1513C357.081 68.0433 357.863 67.1816 358.872 66.5661C359.888 65.9444 361.088 65.6335 362.473 65.6335C363.624 65.6335 364.643 65.8459 365.529 66.2706C366.421 66.6892 367.132 67.2831 367.662 68.0526C368.191 68.8158 368.493 69.7083 368.567 70.7301H365.372C365.243 70.0469 364.935 69.4775 364.449 69.022C363.969 68.5604 363.325 68.3295 362.519 68.3295C361.836 68.3295 361.236 68.5142 360.719 68.8835C360.202 69.2467 359.798 69.7699 359.509 70.4531C359.226 71.1364 359.084 71.955 359.084 72.9091C359.084 73.8755 359.226 74.7064 359.509 75.402C359.792 76.0914 360.189 76.6238 360.7 76.9993C361.217 77.3686 361.823 77.5533 362.519 77.5533C363.011 77.5533 363.452 77.4609 363.839 77.2763C364.233 77.0855 364.563 76.8116 364.827 76.4545C365.092 76.0975 365.273 75.6636 365.372 75.1527H368.567C368.487 76.156 368.191 77.0455 367.68 77.821C367.169 78.5904 366.474 79.1937 365.594 79.6307C364.713 80.0616 363.679 80.277 362.491 80.277ZM377.497 80.277C376.112 80.277 374.912 79.9723 373.896 79.3629C372.881 78.7536 372.093 77.901 371.533 76.8054C370.979 75.7098 370.702 74.4295 370.702 72.9645C370.702 71.4995 370.979 70.2161 371.533 69.1143C372.093 68.0125 372.881 67.157 373.896 66.5476C374.912 65.9382 376.112 65.6335 377.497 65.6335C378.882 65.6335 380.082 65.9382 381.098 66.5476C382.114 67.157 382.898 68.0125 383.452 69.1143C384.013 70.2161 384.293 71.4995 384.293 72.9645C384.293 74.4295 384.013 75.7098 383.452 76.8054C382.898 77.901 382.114 78.7536 381.098 79.3629C380.082 79.9723 378.882 80.277 377.497 80.277ZM377.516 77.5994C378.267 77.5994 378.894 77.3932 379.399 76.9808C379.904 76.5623 380.279 76.0021 380.526 75.3004C380.778 74.5987 380.904 73.817 380.904 72.9553C380.904 72.0874 380.778 71.3026 380.526 70.6009C380.279 69.893 379.904 69.3298 379.399 68.9112C378.894 68.4927 378.267 68.2834 377.516 68.2834C376.746 68.2834 376.106 68.4927 375.595 68.9112C375.09 69.3298 374.712 69.893 374.46 70.6009C374.213 71.3026 374.09 72.0874 374.09 72.9553C374.09 73.817 374.213 74.5987 374.46 75.3004C374.712 76.0021 375.09 76.5623 375.595 76.9808C376.106 77.3932 376.746 77.5994 377.516 77.5994Z" fill="white"/>
<defs>
<clipPath id="clip0_205_3868">
<rect width="24" height="24" fill="white" transform="translate(34 43)"/>
</clipPath>
</defs>
</svg>
