<svg width="279" height="161" viewBox="0 0 279 161" fill="none" xmlns="http://www.w3.org/2000/svg">
<g clip-path="url(#clip0_171_49517)">
<path d="M23.1287 136.949C23.1869 136.265 22.7679 135.569 21.8658 135.043C20.178 134.066 17.4484 134.066 15.7722 135.043C14.9341 135.528 14.5209 136.172 14.5209 136.809C14.5209 136.803 14.4336 158.48 14.4336 158.48C14.4336 159.123 14.8585 159.772 15.7024 160.264C17.3902 161.24 20.1198 161.24 21.7959 160.264C22.6282 159.778 23.0472 159.141 23.0472 158.503L23.1345 136.826C23.1404 136.867 23.1346 136.908 23.1287 136.949Z" fill="#738185"/>
<path d="M14.4802 131.4L14.4395 141.967C14.4395 142.61 14.8643 143.259 15.7082 143.75C17.396 144.727 20.1256 144.727 21.8018 143.75C22.6341 143.265 23.0531 142.628 23.0531 141.99L23.0938 131.395H14.4802V131.4Z" fill="#9D9D9C"/>
<path d="M85.5018 100.711C85.56 100.027 85.1409 99.331 84.2388 98.8047C82.551 97.8281 79.8214 97.8281 78.1453 98.8047C77.3072 99.29 76.8939 99.9333 76.8939 100.571C76.8939 100.565 76.8066 122.242 76.8066 122.242C76.8066 122.885 77.2315 123.534 78.0754 124.025C79.7632 125.002 82.4928 125.002 84.169 124.025C85.0012 123.54 85.4203 122.903 85.4203 122.265L85.5076 100.588C85.5076 100.629 85.5018 100.67 85.5018 100.711Z" fill="#738185"/>
<path d="M76.8474 95.168L76.8066 105.74C76.8066 106.384 77.2315 107.033 78.0754 107.524C79.7632 108.5 82.487 108.5 84.169 107.524C85.0012 107.039 85.4203 106.401 85.4203 105.764L85.461 100.928L76.8474 95.168Z" fill="#9D9D9C"/>
<path d="M1.50187 129.4C1.44367 128.716 1.86272 128.02 2.76482 127.494C4.45263 126.518 7.18223 126.518 8.8584 127.494C9.69649 127.979 10.1097 128.623 10.1097 129.26C10.1097 129.254 10.197 150.931 10.197 150.931C10.197 151.574 9.77215 152.224 8.92824 152.715C7.24043 153.691 4.51665 153.691 2.83466 152.715C2.0024 152.229 1.58336 151.592 1.58336 150.955L1.49023 129.278C1.49023 129.319 1.49605 129.36 1.50187 129.4Z" fill="#738185"/>
<path d="M10.1508 127.494L10.1915 134.424C10.1915 135.067 9.76664 135.716 8.92274 136.207C7.23492 137.184 4.51115 137.184 2.82916 136.207C1.99689 135.722 1.57785 135.084 1.57785 134.447L1.53711 130.395L10.1508 127.494Z" fill="#9D9D9C"/>
<path d="M54.2596 118.943C54.3178 118.259 53.8987 117.563 52.9966 117.037C51.3088 116.061 48.5792 116.061 46.9031 117.037C46.065 117.522 45.6518 118.166 45.6518 118.803C45.6518 118.797 45.5645 140.474 45.5645 140.474C45.5645 141.117 45.9893 141.766 46.8332 142.258C48.521 143.234 51.2506 143.234 52.9268 142.258C53.7591 141.772 54.1781 141.135 54.1781 140.498L54.2654 118.821C54.2712 118.862 54.2654 118.902 54.2596 118.943Z" fill="#738185"/>
<path d="M45.6111 113.395L45.5703 123.967C45.5703 124.61 45.9952 125.259 46.8391 125.75C48.5269 126.727 51.2565 126.727 52.9327 125.75C53.7649 125.265 54.184 124.628 54.184 123.99L54.2247 113.395H45.6111Z" fill="#9D9D9C"/>
<path d="M32.6332 111.395C32.575 110.71 32.9941 110.015 33.8962 109.488C35.584 108.512 38.3136 108.512 39.9898 109.488C40.8278 109.974 41.2411 110.617 41.2411 111.254C41.2411 111.248 41.3284 132.925 41.3284 132.925C41.3284 133.569 40.9035 134.218 40.0596 134.709C38.3718 135.685 35.6422 135.685 33.966 134.709C33.1338 134.223 32.7147 133.586 32.7147 132.949L32.6274 111.272C32.6216 111.313 32.6274 111.354 32.6332 111.395Z" fill="#738185"/>
<path d="M41.2816 109.482L41.3224 116.412C41.3224 117.055 40.8975 117.704 40.0536 118.195C38.3658 119.172 35.6362 119.172 33.96 118.195C33.1278 117.71 32.7087 117.073 32.7087 116.435L32.668 112.383L41.2816 109.482Z" fill="#9D9D9C"/>
<path d="M63.7641 93.3848C63.7059 92.7006 64.1249 92.0048 65.027 91.4785C66.7148 90.502 69.4444 90.502 71.1206 91.4785C71.9587 91.9639 72.3719 92.6071 72.3719 93.2445C72.3719 93.2386 72.4592 114.916 72.4592 114.916C72.4592 115.559 72.0344 116.208 71.1905 116.699C69.5026 117.676 66.773 117.676 65.0969 116.699C64.2646 116.214 63.8456 115.576 63.8456 114.939L63.7583 93.262C63.7525 93.3088 63.7583 93.3497 63.7641 93.3848Z" fill="#738185"/>
<path d="M72.4125 91.4785L72.4532 98.4079C72.4532 99.0511 72.0284 99.7002 71.1845 100.191C69.4966 101.168 66.7729 101.168 65.0909 100.191C64.2586 99.706 63.8396 99.0687 63.8396 98.4313L63.7988 94.3789L72.4125 91.4785Z" fill="#9D9D9C"/>
<path d="M88.1386 101.443L79.8043 96.6073L77.2377 95.122L68.8976 90.2803L68.0479 89.7891L0.00582004 129.517L0 130.588L0.855545 131.085L9.18984 135.921L11.7565 137.406L20.0966 142.242L20.9463 142.739L88.9884 103.01L88.9942 101.94L88.1386 101.443Z" fill="#1D1D1B"/>
<path d="M0.0117188 127.342L68.0538 87.6133L68.9035 88.1103L0.861444 127.839L0.0117188 127.342Z" fill="#C9E0E7"/>
<path d="M0.861328 127.838L68.9034 88.1094V89.2146L0.861328 128.943V127.838Z" fill="#99ABB0"/>
<path d="M0.861328 128.943L68.9034 89.2148L77.2377 94.0508L9.19562 133.779L0.861328 128.943Z" fill="#1D1D1B"/>
<path d="M11.7675 134.166L79.8096 94.4375V95.5427L11.7617 135.271L11.7675 134.166Z" fill="#99ABB0"/>
<path d="M9.20117 132.674L77.2432 92.9453L79.8099 94.4364L11.7678 134.165L9.20117 132.674Z" fill="#C9E0E7"/>
<path d="M11.7617 135.271L79.8096 95.543L88.1439 100.379L20.1018 140.107L11.7617 135.271Z" fill="#1D1D1B"/>
<path d="M20.958 139.493L20.9522 140.598V141.668L20.0966 141.171L11.7623 136.341L9.1957 134.85L0.855585 130.014L0.00585938 129.517V128.447L0.0116794 127.342L0.861405 127.839V128.944L9.1957 133.78L9.20152 132.675L11.7682 134.166L11.7623 135.271L20.1024 140.107V139.002L20.958 139.493Z" fill="#738185"/>
<path d="M20.9589 139.492L20.9531 140.597V141.667L88.9952 101.939V100.869L89.001 99.7637L20.9589 139.492Z" fill="#99ABB0"/>
<path d="M20.1016 139.002L88.1436 99.2734L88.9992 99.7646L20.9571 139.493L20.1016 139.002Z" fill="#C9E0E7"/>
<path d="M82.377 98.676L82.6156 98.8164L84.0822 97.9685L83.8378 97.8281L82.377 98.676Z" fill="white"/>
<path d="M22.6742 133.305L19.834 134.954L20.0726 135.094L22.9128 133.445L22.6742 133.305Z" fill="white"/>
<path d="M28.5983 130.148L28.3597 130.008L25.5137 131.657L25.7581 131.797L28.5983 130.148Z" fill="white"/>
<path d="M34.2858 126.849L34.0472 126.709L31.2012 128.358L31.4456 128.498L34.2858 126.849Z" fill="white"/>
<path d="M39.9713 123.552L39.7327 123.412L36.8867 125.061L37.1312 125.201L39.9713 123.552Z" fill="white"/>
<path d="M45.6569 120.254L45.4183 120.113L42.5723 121.762L42.8167 121.903L45.6569 120.254Z" fill="white"/>
<path d="M51.3444 116.955L51.0999 116.814L48.2598 118.463L48.5042 118.604L51.3444 116.955Z" fill="white"/>
<path d="M57.0299 113.658L56.7913 113.518L53.9453 115.167L54.1898 115.307L57.0299 113.658Z" fill="white"/>
<path d="M62.7155 110.359L62.471 110.219L59.6309 111.868L59.8753 112.008L62.7155 110.359Z" fill="white"/>
<path d="M68.403 107.062L68.1585 106.922L65.3184 108.571L65.557 108.711L68.403 107.062Z" fill="white"/>
<path d="M74.0885 103.763L73.8441 103.623L71.0039 105.272L71.2425 105.412L74.0885 103.763Z" fill="white"/>
<path d="M79.7741 100.465L79.5296 100.324L76.6895 101.973L76.9281 102.114L79.7741 100.465Z" fill="white"/>
<path d="M15.5273 137.451L15.766 137.592L17.2326 136.744L16.9882 136.604L15.5273 137.451Z" fill="white"/>
<path d="M71.5176 92.3674L71.7562 92.5136L73.217 91.6599L72.9784 91.5195L71.5176 92.3674Z" fill="white"/>
<path d="M11.8147 127.002L8.96875 128.651L9.21319 128.791L12.0534 127.142L11.8147 127.002Z" fill="white"/>
<path d="M17.7389 123.845L17.5003 123.705L14.6543 125.354L14.8987 125.494L17.7389 123.845Z" fill="white"/>
<path d="M23.4264 120.547L23.182 120.406L20.3418 122.055L20.5862 122.196L23.4264 120.547Z" fill="white"/>
<path d="M29.112 117.25L28.8675 117.109L26.0273 118.758L26.266 118.899L29.112 117.25Z" fill="white"/>
<path d="M34.7975 113.951L34.5589 113.811L31.7129 115.46L31.9573 115.6L34.7975 113.951Z" fill="white"/>
<path d="M40.485 110.652L40.2406 110.512L37.4004 112.155L37.6448 112.301L40.485 110.652Z" fill="white"/>
<path d="M46.1706 107.355L45.9261 107.215L43.0859 108.864L43.3246 109.004L46.1706 107.355Z" fill="white"/>
<path d="M51.8561 104.056L51.6117 103.916L48.7715 105.559L49.0101 105.705L51.8561 104.056Z" fill="white"/>
<path d="M57.5436 100.759L57.2992 100.613L54.459 102.268L54.6976 102.408L57.5436 100.759Z" fill="white"/>
<path d="M63.2292 97.4548L62.9847 97.3145L60.1445 98.9635L60.3832 99.1097L63.2292 97.4548Z" fill="white"/>
<path d="M68.9147 94.1618L68.6702 94.0156L65.8242 95.6705L66.0687 95.8108L68.9147 94.1618Z" fill="white"/>
<path d="M4.66797 131.149L4.90659 131.289L6.36742 130.441L6.1288 130.301L4.66797 131.149Z" fill="white"/>
<path d="M28.5182 132.139C28.5938 132.092 28.6637 132.104 28.7044 132.156C28.7219 132.18 28.7335 132.215 28.7335 132.261V132.384L28.7393 133.402V133.647V134.296C28.7393 134.431 28.6462 134.595 28.5298 134.665C28.4134 134.735 28.3145 134.677 28.3145 134.542V133.893V133.647V132.63V132.507C28.3145 132.46 28.3261 132.414 28.3436 132.373C28.3668 132.273 28.4367 132.185 28.5182 132.139Z" fill="#797979"/>
<path d="M28.3327 132.371C28.3153 132.418 28.3036 132.465 28.3036 132.506V132.628L24.9978 134.546V134.424C24.9978 134.377 24.9862 134.342 24.9688 134.318L28.3327 132.371Z" fill="#999999"/>
<path d="M24.7818 134.301C24.8574 134.254 24.9273 134.266 24.968 134.318C24.9855 134.342 24.9971 134.377 24.9971 134.424V134.546V135.564V135.809V136.459C24.9971 136.593 24.904 136.757 24.7876 136.827C24.6712 136.897 24.5723 136.839 24.5723 136.704V136.055V135.809V134.792V134.669C24.5723 134.622 24.5839 134.576 24.6014 134.535C24.6363 134.441 24.7061 134.348 24.7818 134.301Z" fill="#797979"/>
<path d="M24.6023 134.535C24.5848 134.582 24.5732 134.629 24.5732 134.67V134.792L21.2674 136.71V136.588C21.2674 136.547 21.2557 136.506 21.2383 136.482L24.6023 134.535Z" fill="#999999"/>
<path d="M21.0513 136.471C21.1328 136.424 21.1968 136.436 21.2376 136.488C21.255 136.512 21.2667 136.547 21.2667 136.594V136.716V137.734V137.979V138.628C21.2667 138.763 21.1735 138.927 21.0571 138.997C20.9407 139.061 20.8476 139.009 20.8476 138.874L20.8418 136.839C20.8418 136.705 20.9349 136.535 21.0513 136.471Z" fill="#797979"/>
<path d="M24.5734 135.811L24.5792 136.056L21.2676 137.974V137.729L24.5734 135.811Z" fill="#999999"/>
<path d="M28.3096 133.646V133.892L24.998 135.81V135.564L28.3096 133.646Z" fill="#999999"/>
<path d="M32.0402 131.477V131.722L28.7344 133.64V133.4L32.0402 131.477Z" fill="#999999"/>
<path d="M47.1783 121.314C47.2539 121.268 47.3238 121.279 47.3587 121.332C47.3762 121.355 47.3878 121.39 47.3878 121.437V121.56V122.578V122.823V123.472C47.3878 123.607 47.2947 123.77 47.1783 123.841C47.0619 123.911 46.9688 123.852 46.9688 123.718V123.069V122.823V121.806V121.683C46.9688 121.642 46.9804 121.589 46.9979 121.548C47.0328 121.449 47.0968 121.361 47.1783 121.314Z" fill="#797979"/>
<path d="M46.9909 121.541C46.9734 121.588 46.9618 121.635 46.9618 121.676V121.798L43.6502 123.716V123.594C43.6502 123.553 43.6386 123.512 43.6211 123.488L46.9909 121.541Z" fill="#999999"/>
<path d="M43.4459 123.477C43.5215 123.43 43.5914 123.441 43.6321 123.494C43.6496 123.518 43.6612 123.553 43.6612 123.599V123.722V124.74V124.985V125.634C43.6612 125.769 43.5681 125.933 43.4517 126.003C43.3353 126.067 43.2422 126.014 43.2422 125.88V125.231V124.985V123.968V123.845C43.2422 123.798 43.2538 123.751 43.2713 123.71C43.2946 123.611 43.3644 123.523 43.4459 123.477Z" fill="#797979"/>
<path d="M43.2374 124.986V125.226L39.9258 127.15V126.904L43.2374 124.986Z" fill="#999999"/>
<path d="M43.2604 123.711C43.243 123.758 43.2313 123.805 43.2313 123.845V123.968L39.9197 125.886V125.763C39.9197 125.717 39.9081 125.682 39.8906 125.658L43.2604 123.711Z" fill="#999999"/>
<path d="M39.7096 125.646C39.7852 125.6 39.8551 125.611 39.89 125.664C39.9074 125.687 39.9191 125.723 39.9191 125.769V125.892L39.9249 126.91V127.155V127.804C39.9249 127.939 39.8318 128.102 39.7154 128.173C39.599 128.243 39.5059 128.184 39.5059 128.05V127.401V127.155V126.138V126.015C39.5059 125.968 39.5175 125.921 39.535 125.88C39.5641 125.781 39.6339 125.687 39.7096 125.646Z" fill="#797979"/>
<path d="M39.5069 127.15V127.396L36.1953 129.314V129.068L39.5069 127.15Z" fill="#999999"/>
<path d="M39.53 125.875C39.5125 125.922 39.5009 125.969 39.5009 126.009V126.132L36.1893 128.05V127.927C36.1893 127.881 36.1776 127.846 36.1602 127.822L39.53 125.875Z" fill="#999999"/>
<path d="M35.9791 127.811C36.0548 127.764 36.1246 127.775 36.1653 127.828C36.1828 127.851 36.1944 127.887 36.1944 127.933V128.056V129.074V129.319V129.968C36.1944 130.103 36.1013 130.267 35.9849 130.337C35.8685 130.407 35.7754 130.348 35.7754 130.214V129.565V129.319V128.302V128.179C35.7754 128.138 35.787 128.085 35.8045 128.044C35.8336 127.945 35.8976 127.857 35.9791 127.811Z" fill="#797979"/>
<path d="M35.7706 129.312L35.7764 129.558L32.4648 131.476V131.236L35.7706 129.312Z" fill="#999999"/>
<path d="M35.7995 128.039C35.782 128.086 35.7704 128.133 35.7704 128.174V128.296L32.4588 130.214V130.092C32.4588 130.051 32.4471 130.01 32.4297 129.986L35.7995 128.039Z" fill="#999999"/>
<path d="M32.2486 129.975C32.3243 129.928 32.3941 129.94 32.4349 129.992C32.4523 130.016 32.464 130.051 32.464 130.097V130.22V131.238V131.483V132.132C32.464 132.267 32.3708 132.431 32.2544 132.501C32.138 132.571 32.0449 132.512 32.0449 132.378V131.729V131.483V130.466V130.343C32.0449 130.302 32.0566 130.249 32.074 130.209C32.1031 130.109 32.1671 130.021 32.2486 129.975Z" fill="#797979"/>
<path d="M32.0632 130.203C32.0457 130.25 32.0341 130.297 32.0341 130.338V130.46L28.7225 132.378V132.256C28.7225 132.215 28.7108 132.174 28.6934 132.15L32.0632 130.203Z" fill="#999999"/>
<path d="M46.9678 122.822V123.062L43.6621 124.986L43.6562 124.74L46.9678 122.822Z" fill="#999999"/>
<path d="M54.4366 118.49V118.736L51.125 120.654V120.414L54.4366 118.49Z" fill="#999999"/>
<path d="M54.4596 117.215C54.4422 117.262 54.4305 117.308 54.4305 117.349V117.472L51.1189 119.39V119.267C51.1189 119.226 51.1073 119.185 51.0898 119.162L54.4596 117.215Z" fill="#999999"/>
<path d="M50.9088 119.15C50.9844 119.104 51.0543 119.115 51.095 119.168C51.1125 119.191 51.1241 119.226 51.1241 119.273V119.396V120.413V120.659V121.308C51.1241 121.443 51.031 121.606 50.9146 121.677C50.7982 121.741 50.7051 121.688 50.7051 121.554V120.905V120.659V119.642V119.519C50.7051 119.478 50.7167 119.425 50.7342 119.384C50.7633 119.285 50.8331 119.197 50.9088 119.15Z" fill="#797979"/>
<path d="M50.6984 120.652L50.7042 120.898L47.3926 122.816V122.576L50.6984 120.652Z" fill="#999999"/>
<path d="M50.7272 119.379C50.7098 119.426 50.6981 119.472 50.6981 119.513V119.636L47.3865 121.554V121.431C47.3865 121.39 47.3749 121.35 47.3574 121.326L50.7272 119.379Z" fill="#999999"/>
<path d="M54.6393 116.986C54.7208 116.94 54.7848 116.951 54.8255 117.004C54.843 117.027 54.8546 117.062 54.8546 117.109V117.232L54.8604 118.249V118.495V119.144C54.8604 119.279 54.7673 119.442 54.6509 119.512C54.5345 119.583 54.4414 119.524 54.4414 119.39V118.741V118.495V117.478V117.355C54.4414 117.314 54.453 117.261 54.4705 117.22C54.4938 117.121 54.5636 117.027 54.6393 116.986Z" fill="#797979"/>
<path d="M58.1651 116.326V116.572L54.8535 118.49V118.244L58.1651 116.326Z" fill="#999999"/>
<path d="M61.9206 112.881C61.9031 112.928 61.8915 112.974 61.8915 113.015V113.138L58.5799 115.056V114.933C58.5799 114.892 58.5682 114.851 58.5508 114.828L61.9206 112.881Z" fill="#999999"/>
<path d="M58.3697 114.822C58.4512 114.775 58.5152 114.787 58.556 114.84C58.5734 114.863 58.5851 114.898 58.5851 114.945V115.068V116.085V116.331V116.98C58.5851 117.115 58.4919 117.278 58.3755 117.348C58.2591 117.419 58.166 117.36 58.166 117.226V116.577V116.331V115.313V115.191C58.166 115.15 58.1777 115.097 58.1951 115.056C58.2242 114.957 58.2941 114.863 58.3697 114.822Z" fill="#797979"/>
<path d="M58.1882 115.051C58.1707 115.098 58.1591 115.144 58.1591 115.185V115.308L54.8475 117.226V117.103C54.8475 117.062 54.8358 117.021 54.8184 116.998L58.1882 115.051Z" fill="#999999"/>
<path d="M61.8956 114.162V114.402L58.5898 116.326L58.584 116.08L61.8956 114.162Z" fill="#999999"/>
<path d="M69.3643 109.83V110.076L66.0527 111.994V111.748L69.3643 109.83Z" fill="#999999"/>
<path d="M65.8365 110.49C65.918 110.443 65.982 110.455 66.0227 110.508C66.0402 110.531 66.0518 110.566 66.0518 110.613V110.736V111.753V111.999V112.648C66.0518 112.782 65.9587 112.946 65.8423 113.016C65.7259 113.081 65.6328 113.028 65.6328 112.894V112.245V111.999L65.627 110.981V110.859C65.627 110.818 65.6386 110.765 65.6561 110.724C65.691 110.625 65.7608 110.537 65.8365 110.49Z" fill="#797979"/>
<path d="M65.6261 111.998V112.238L62.3203 114.162V113.916L65.6261 111.998Z" fill="#999999"/>
<path d="M65.6569 110.719C65.6395 110.766 65.6278 110.812 65.6278 110.853V110.976L62.3162 112.894V112.771C62.3162 112.73 62.3046 112.689 62.2871 112.666L65.6569 110.719Z" fill="#999999"/>
<path d="M69.3874 108.555C69.37 108.601 69.3583 108.648 69.3583 108.689V108.812L66.0525 110.73V110.607C66.0525 110.56 66.0409 110.525 66.0234 110.502L69.3874 108.555Z" fill="#999999"/>
<path d="M76.8542 104.221C76.8367 104.267 76.8251 104.314 76.8251 104.355V104.478L73.5135 106.396V106.273C73.5135 106.232 73.5018 106.191 73.4844 106.168L76.8542 104.221Z" fill="#999999"/>
<path d="M76.8253 105.502L76.8311 105.742L73.5195 107.666V107.42L76.8253 105.502Z" fill="#999999"/>
<path d="M73.3033 106.156C73.3789 106.109 73.4488 106.121 73.4837 106.174C73.5012 106.197 73.5128 106.232 73.5128 106.279V106.402L73.5186 107.419V107.665V108.314C73.5186 108.449 73.4255 108.612 73.3091 108.682C73.1927 108.753 73.0938 108.694 73.0938 108.56V107.911V107.665V106.647V106.525C73.0938 106.478 73.1054 106.431 73.1229 106.39C73.152 106.297 73.2218 106.203 73.3033 106.156Z" fill="#797979"/>
<path d="M73.0948 107.664V107.91L69.789 109.828L69.7832 109.582L73.0948 107.664Z" fill="#999999"/>
<path d="M73.1179 106.391C73.1004 106.437 73.0888 106.484 73.0888 106.525V106.648L69.783 108.566V108.443C69.783 108.396 69.7714 108.361 69.7539 108.338L73.1179 106.391Z" fill="#999999"/>
<path d="M69.567 108.326C69.6485 108.279 69.7125 108.291 69.7532 108.344C69.7707 108.367 69.7823 108.402 69.7823 108.449V108.572V109.589V109.835V110.484C69.7823 110.618 69.6892 110.782 69.5728 110.852C69.4564 110.917 69.3633 110.864 69.3633 110.73V110.08V109.835V108.817V108.695C69.3633 108.648 69.3749 108.601 69.3924 108.56C69.4215 108.461 69.4913 108.373 69.567 108.326Z" fill="#797979"/>
<path d="M84.2921 101.17V101.416L80.9805 103.334V103.094L84.2921 101.17Z" fill="#999999"/>
<path d="M84.3151 99.8945C84.2976 99.9413 84.286 99.9881 84.286 100.029V100.152L80.9744 102.07V101.947C80.9744 101.9 80.9628 101.865 80.9453 101.842L84.3151 99.8945Z" fill="#999999"/>
<path d="M80.7643 101.83C80.8399 101.783 80.9097 101.795 80.9505 101.848C80.9679 101.871 80.9796 101.906 80.9796 101.953V102.076V103.093V103.339V103.988C80.9796 104.122 80.8865 104.286 80.7701 104.356C80.6537 104.426 80.5605 104.368 80.5605 104.233V103.584V103.339V102.321V102.198C80.5605 102.152 80.5722 102.105 80.5896 102.064C80.6187 101.965 80.6886 101.877 80.7643 101.83Z" fill="#797979"/>
<path d="M80.5616 103.332V103.578L77.25 105.496V105.256L80.5616 103.332Z" fill="#999999"/>
<path d="M80.5846 102.059C80.5672 102.105 80.5555 102.152 80.5555 102.193V102.316L77.2439 104.234V104.111C77.2439 104.07 77.2323 104.029 77.2148 104.006L80.5846 102.059Z" fill="#999999"/>
<path d="M77.0338 103.994C77.1094 103.947 77.1793 103.959 77.22 104.012C77.2375 104.035 77.2491 104.07 77.2491 104.117V104.24V105.257V105.503V106.152C77.2491 106.286 77.156 106.45 77.0396 106.52C76.9232 106.59 76.8301 106.532 76.8301 106.398V105.748V105.503V104.485V104.363C76.8301 104.322 76.8417 104.269 76.8592 104.228C76.8883 104.129 76.9523 104.041 77.0338 103.994Z" fill="#797979"/>
<path d="M88.0225 99.0059V99.2515L84.7168 101.169L84.7109 100.924L88.0225 99.0059Z" fill="#999999"/>
<path d="M88.0456 97.7305C88.0281 97.7772 88.0165 97.824 88.0165 97.865V97.9878L84.7049 99.9058V99.783C84.7049 99.7362 84.6932 99.7011 84.6758 99.6777L88.0456 97.7305Z" fill="#999999"/>
<path d="M84.4947 99.666C84.5704 99.6192 84.6402 99.6309 84.681 99.6836C84.6984 99.707 84.7101 99.742 84.7101 99.7888V99.9116V100.929V101.175V101.824C84.7101 101.958 84.6169 102.122 84.5005 102.192C84.3841 102.262 84.291 102.204 84.291 102.069V101.42V101.175V100.157V100.034C84.291 99.9935 84.3027 99.9409 84.3201 99.8999C84.3492 99.8005 84.4191 99.7128 84.4947 99.666Z" fill="#797979"/>
<path d="M62.106 112.654C62.1875 112.608 62.2515 112.619 62.2923 112.672C62.3097 112.695 62.3214 112.73 62.3214 112.777V112.9V113.917V114.163V114.812C62.3214 114.947 62.2283 115.11 62.1119 115.18C61.9955 115.245 61.9023 115.192 61.9023 115.058V114.409V114.163V113.146V113.023C61.9023 112.982 61.914 112.929 61.9314 112.888C61.9605 112.789 62.0246 112.701 62.106 112.654Z" fill="#797979"/>
<path d="M88.233 97.5025C88.3494 97.4324 88.4425 97.4908 88.4425 97.6253L88.4483 99.6603C88.4483 99.7948 88.3552 99.9585 88.2388 100.029C88.1224 100.093 88.0293 100.04 88.0293 99.9059V99.2568V99.0112L88.0234 97.9937V97.8709C88.0234 97.8241 88.0351 97.7774 88.0525 97.7364C88.0875 97.637 88.1515 97.5435 88.233 97.5025Z" fill="#797979"/>
<path d="M8.32866 120.436C8.40432 120.389 8.47416 120.4 8.5149 120.453C8.53236 120.476 8.544 120.512 8.544 120.558V120.681V121.699V121.944V122.593C8.544 122.728 8.45088 122.892 8.33448 122.962C8.21808 123.032 8.11914 122.973 8.11914 122.839V122.19V121.944V120.927V120.804C8.11914 120.757 8.13078 120.71 8.14824 120.669C8.18316 120.576 8.253 120.482 8.32866 120.436Z" fill="#797979"/>
<path d="M8.14328 120.67C8.12582 120.717 8.11418 120.763 8.11418 120.804V120.927L4.8084 122.845V122.722C4.8084 122.676 4.79676 122.641 4.7793 122.617L8.14328 120.67Z" fill="#999999"/>
<path d="M4.59815 122.605C4.67381 122.559 4.74365 122.57 4.7844 122.623C4.80186 122.646 4.8135 122.681 4.8135 122.728V122.851V123.869V124.114V124.763C4.8135 124.898 4.72037 125.061 4.60397 125.132C4.48757 125.202 4.38863 125.143 4.38863 125.009V124.36V124.114L4.38281 123.097V122.974C4.38281 122.933 4.39445 122.88 4.41191 122.839C4.44683 122.74 4.51667 122.652 4.59815 122.605Z" fill="#797979"/>
<path d="M4.41281 122.834C4.39535 122.881 4.38371 122.928 4.38371 122.968V123.091L1.07793 125.009V124.886C1.07793 124.846 1.06629 124.805 1.04883 124.781L4.41281 122.834Z" fill="#999999"/>
<path d="M0.861865 124.77C0.943346 124.723 1.00737 124.734 1.04811 124.787C1.06557 124.81 1.07721 124.846 1.07721 124.892V125.015V126.033V126.278V126.927C1.07721 127.062 0.984086 127.226 0.867685 127.296C0.751284 127.36 0.658164 127.307 0.658164 127.173L0.652344 125.138C0.652344 125.003 0.745464 124.84 0.861865 124.77Z" fill="#797979"/>
<path d="M4.38977 124.107V124.353L1.08398 126.271V126.025L4.38977 124.107Z" fill="#999999"/>
<path d="M8.12023 121.945V122.191L4.81445 124.109V123.863L8.12023 121.945Z" fill="#999999"/>
<path d="M11.8565 119.781V120.021L8.54492 121.945V121.699L11.8565 119.781Z" fill="#999999"/>
<path d="M26.9888 109.611C27.0645 109.565 27.1343 109.576 27.1751 109.629C27.1925 109.652 27.2042 109.687 27.2042 109.734V109.857V110.874V111.12V111.769C27.2042 111.904 27.111 112.067 26.9946 112.137C26.8782 112.208 26.7851 112.149 26.7851 112.015V111.366V111.12L26.7793 110.103V109.98C26.7793 109.939 26.7909 109.886 26.8084 109.845C26.8433 109.746 26.9132 109.658 26.9888 109.611Z" fill="#797979"/>
<path d="M26.8073 109.846C26.7898 109.892 26.7782 109.939 26.7782 109.98V110.103L23.4666 112.021V111.898C23.4666 111.851 23.455 111.816 23.4375 111.793L26.8073 109.846Z" fill="#999999"/>
<path d="M23.2564 111.781C23.3321 111.734 23.4019 111.746 23.4369 111.799C23.4543 111.822 23.466 111.857 23.466 111.904V112.027L23.4718 113.044V113.29V113.939C23.4718 114.074 23.3787 114.237 23.2623 114.307C23.1459 114.372 23.0527 114.319 23.0527 114.185V113.536V113.29V112.272V112.15C23.0527 112.103 23.0644 112.056 23.0818 112.015C23.1109 111.916 23.1808 111.822 23.2564 111.781Z" fill="#797979"/>
<path d="M23.048 113.285L23.0538 113.531L19.7422 115.449V115.203L23.048 113.285Z" fill="#999999"/>
<path d="M23.0768 112.01C23.0594 112.057 23.0477 112.103 23.0477 112.144V112.267L19.7361 114.185V114.062C19.7361 114.015 19.7245 113.98 19.707 113.957L23.0768 112.01Z" fill="#999999"/>
<path d="M19.5259 113.945C19.6016 113.899 19.6714 113.91 19.7063 113.963C19.7238 113.986 19.7354 114.021 19.7354 114.068V114.191V115.208V115.454V116.103C19.7354 116.238 19.6423 116.401 19.5259 116.471C19.4095 116.542 19.3164 116.483 19.3164 116.349V115.7V115.454V114.437V114.314C19.3164 114.267 19.328 114.22 19.3455 114.179C19.3804 114.08 19.4444 113.992 19.5259 113.945Z" fill="#797979"/>
<path d="M19.3175 115.447V115.693L16.0117 117.611V117.371L19.3175 115.447Z" fill="#999999"/>
<path d="M19.3405 114.174C19.323 114.221 19.3114 114.267 19.3114 114.308V114.431L15.9998 116.349V116.226C15.9998 116.185 15.9882 116.144 15.9707 116.121L19.3405 114.174Z" fill="#999999"/>
<path d="M15.7955 116.109C15.8712 116.063 15.941 116.074 15.9817 116.127C15.9992 116.15 16.0108 116.185 16.0108 116.232V116.355V117.372V117.618V118.267C16.0108 118.402 15.9177 118.565 15.8013 118.636C15.6849 118.706 15.5918 118.647 15.5918 118.513V117.864V117.618V116.601V116.478C15.5918 116.437 15.6034 116.384 15.6209 116.343C15.6442 116.244 15.714 116.156 15.7955 116.109Z" fill="#797979"/>
<path d="M15.587 117.611V117.857L12.2754 119.775V119.535L15.587 117.611Z" fill="#999999"/>
<path d="M15.61 116.338C15.5926 116.385 15.5809 116.431 15.5809 116.472V116.595L12.2693 118.513V118.39C12.2693 118.349 12.2577 118.309 12.2402 118.285L15.61 116.338Z" fill="#999999"/>
<path d="M12.0592 118.271C12.1348 118.225 12.2047 118.236 12.2454 118.289C12.2629 118.312 12.2745 118.348 12.2745 118.394V118.517V119.535V119.78V120.429C12.2745 120.564 12.1814 120.727 12.065 120.798C11.9486 120.868 11.8555 120.809 11.8555 120.675V120.026V119.78V118.763V118.64C11.8555 118.599 11.8671 118.546 11.8846 118.505C11.9137 118.406 11.9835 118.318 12.0592 118.271Z" fill="#797979"/>
<path d="M11.8796 118.5C11.8621 118.547 11.8505 118.594 11.8505 118.634V118.757L8.53887 120.675V120.552C8.53887 120.512 8.52723 120.471 8.50977 120.447L11.8796 118.5Z" fill="#999999"/>
<path d="M26.7843 111.121V111.361L23.4727 113.285V113.039L26.7843 111.121Z" fill="#999999"/>
<path d="M34.2471 106.789V107.035L30.9414 108.953L30.9355 108.713L34.2471 106.789Z" fill="#999999"/>
<path d="M34.2702 105.514C34.2527 105.56 34.2411 105.607 34.2411 105.648V105.771L30.9295 107.689V107.566C30.9295 107.525 30.9179 107.484 30.9004 107.461L34.2702 105.514Z" fill="#999999"/>
<path d="M30.7252 107.449C30.8008 107.402 30.8707 107.414 30.9114 107.467C30.9289 107.49 30.9405 107.525 30.9405 107.572V107.695V108.712V108.958V109.607C30.9405 109.741 30.8474 109.905 30.731 109.975C30.6146 110.046 30.5215 109.987 30.5215 109.853V109.204V108.958V107.94V107.818C30.5215 107.777 30.5331 107.724 30.5506 107.683C30.5739 107.584 30.6437 107.496 30.7252 107.449Z" fill="#797979"/>
<path d="M30.5147 108.957V109.197L27.2031 111.121V110.875L30.5147 108.957Z" fill="#999999"/>
<path d="M30.5378 107.676C30.5203 107.723 30.5087 107.769 30.5087 107.81V107.933L27.1971 109.851V109.728C27.1971 109.687 27.1854 109.646 27.168 109.623L30.5378 107.676Z" fill="#999999"/>
<path d="M34.4557 105.285C34.5371 105.238 34.6012 105.25 34.6419 105.303C34.6594 105.326 34.671 105.361 34.671 105.408V105.531V106.548V106.794V107.443C34.671 107.577 34.5779 107.741 34.4615 107.811C34.3451 107.881 34.252 107.823 34.252 107.689V107.039V106.794V105.776V105.654C34.252 105.613 34.2636 105.56 34.2811 105.519C34.3102 105.42 34.3742 105.332 34.4557 105.285Z" fill="#797979"/>
<path d="M37.9757 104.625L37.9815 104.871L34.6699 106.789V106.543L37.9757 104.625Z" fill="#999999"/>
<path d="M41.735 101.186C41.7176 101.232 41.7059 101.279 41.7059 101.32V101.443L38.3943 103.361V103.238C38.3943 103.191 38.3827 103.156 38.3652 103.133L41.735 101.186Z" fill="#999999"/>
<path d="M38.1861 103.121C38.2676 103.074 38.3316 103.086 38.3723 103.139C38.3898 103.162 38.4014 103.197 38.4014 103.244V103.367V104.384V104.63V105.279C38.4014 105.413 38.3083 105.577 38.1919 105.647C38.0755 105.717 37.9824 105.659 37.9824 105.524V104.875V104.63L37.9766 103.612V103.49C37.9766 103.443 37.9882 103.396 38.0057 103.355C38.0406 103.256 38.1104 103.162 38.1861 103.121Z" fill="#797979"/>
<path d="M38.0046 103.35C37.9871 103.396 37.9755 103.443 37.9755 103.484V103.607L34.6639 105.525V105.402C34.6639 105.361 34.6522 105.32 34.6348 105.297L38.0046 103.35Z" fill="#999999"/>
<path d="M41.712 102.461V102.707L38.4004 104.625V104.379L41.712 102.461Z" fill="#999999"/>
<path d="M49.1749 98.127V98.3726L45.8691 100.291V100.051L49.1749 98.127Z" fill="#999999"/>
<path d="M45.6471 98.7891C45.7286 98.7423 45.7926 98.754 45.8333 98.8066C45.8508 98.83 45.8624 98.8651 45.8624 98.9119V99.0347L45.8683 100.052V100.298V100.947C45.8683 101.081 45.7751 101.245 45.6587 101.315C45.5423 101.385 45.4492 101.327 45.4492 101.192V100.543V100.298V99.2803V99.1575C45.4492 99.1107 45.4609 99.0639 45.4783 99.023C45.5016 98.9236 45.5714 98.8359 45.6471 98.7891Z" fill="#797979"/>
<path d="M45.4425 100.297V100.537L42.1309 102.46V102.215L45.4425 100.297Z" fill="#999999"/>
<path d="M45.4675 99.0156C45.45 99.0624 45.4384 99.1092 45.4384 99.1501V99.2729L42.1268 101.191V101.068C42.1268 101.027 42.1151 100.986 42.0977 100.963L45.4675 99.0156Z" fill="#999999"/>
<path d="M49.198 96.8535C49.1805 96.9003 49.1689 96.9471 49.1689 96.988V97.1108L45.8631 99.0288V98.906C45.8631 98.8592 45.8514 98.8241 45.834 98.8008L49.198 96.8535Z" fill="#999999"/>
<path d="M56.6647 92.5254C56.6473 92.5722 56.6356 92.619 56.6356 92.6599V92.7827L53.324 94.7007V94.5779C53.324 94.5311 53.3124 94.496 53.2949 94.4726L56.6647 92.5254Z" fill="#999999"/>
<path d="M56.6417 93.8008V94.0405L53.3301 95.9644V95.7188L56.6417 93.8008Z" fill="#999999"/>
<path d="M53.1138 94.4609C53.1894 94.4142 53.2593 94.4259 53.3 94.4785C53.3175 94.5019 53.3291 94.537 53.3291 94.5837V94.7065V95.724V95.9696V96.6187C53.3291 96.7532 53.236 96.9169 53.1196 96.9871C53.0032 97.0573 52.9043 96.9988 52.9043 96.8643V96.2152V95.9696L52.8984 94.9521V94.8293C52.8984 94.7826 52.9101 94.7358 52.9275 94.6949C52.9683 94.5954 53.0381 94.5019 53.1138 94.4609Z" fill="#797979"/>
<path d="M52.9054 95.9629V96.2085L49.5996 98.1265V97.8809L52.9054 95.9629Z" fill="#999999"/>
<path d="M52.9343 94.6895C52.9168 94.7362 52.9052 94.783 52.9052 94.8239V94.9467L49.5994 96.8648V96.742C49.5994 96.701 49.5878 96.6601 49.5703 96.6367L52.9343 94.6895Z" fill="#999999"/>
<path d="M49.3833 96.625C49.4648 96.5782 49.5289 96.5899 49.5696 96.6426C49.5871 96.6659 49.5987 96.701 49.5987 96.7478V96.8706V97.8881V98.1337V98.7828C49.5987 98.9173 49.5056 99.081 49.3892 99.1512C49.2728 99.2155 49.1796 99.1629 49.1796 99.0284V98.3793V98.1337L49.1738 97.1162V96.9934C49.1738 96.9466 49.1855 96.8998 49.2029 96.8589C49.2379 96.7595 49.3019 96.6718 49.3833 96.625Z" fill="#797979"/>
<path d="M64.1027 89.4688L64.1085 89.7143L60.7969 91.6324V91.3926L64.1027 89.4688Z" fill="#999999"/>
<path d="M64.1315 88.1934C64.1141 88.2401 64.1024 88.2869 64.1024 88.3279V88.4507L60.7908 90.3687V90.2459C60.7908 90.1991 60.7792 90.164 60.7617 90.1406L64.1315 88.1934Z" fill="#999999"/>
<path d="M60.5807 90.1289C60.6563 90.0821 60.7262 90.0938 60.7669 90.1465C60.7844 90.1698 60.796 90.2049 60.796 90.2517V90.3745V91.392V91.6376V92.2867C60.796 92.4212 60.7029 92.5849 60.5865 92.6551C60.4701 92.7252 60.377 92.6668 60.377 92.5323V91.8832V91.6376V90.6201V90.4973C60.377 90.4505 60.3886 90.4038 60.4061 90.3628C60.4293 90.2634 60.4992 90.1757 60.5807 90.1289Z" fill="#797979"/>
<path d="M60.3721 91.6367V91.8765L57.0664 93.8003L57.0605 93.5547L60.3721 91.6367Z" fill="#999999"/>
<path d="M60.3952 90.3574C60.3777 90.4042 60.3661 90.451 60.3661 90.4919V90.6147L57.0545 92.5327V92.4099C57.0545 92.369 57.0429 92.3281 57.0254 92.3047L60.3952 90.3574Z" fill="#999999"/>
<path d="M56.8501 92.293C56.9258 92.2462 56.9956 92.2579 57.0306 92.3105C57.048 92.3339 57.0597 92.369 57.0597 92.4158V92.5386V93.5561V93.8017V94.4507C57.0597 94.5852 56.9665 94.749 56.8501 94.8191C56.7337 94.8893 56.6406 94.8308 56.6406 94.6963V94.0473V93.8017V92.7842V92.6614C56.6406 92.6146 56.6523 92.5678 56.6697 92.5269C56.6988 92.4333 56.7687 92.3398 56.8501 92.293Z" fill="#797979"/>
<path d="M67.8389 87.3047V87.5503L64.5273 89.4683V89.2285L67.8389 87.3047Z" fill="#999999"/>
<path d="M67.862 86.0293C67.8445 86.0761 67.8329 86.1229 67.8329 86.1638V86.2866L64.5213 88.2046V88.0818C64.5213 88.035 64.5096 87.9999 64.4922 87.9765L67.862 86.0293Z" fill="#999999"/>
<path d="M64.3111 87.9649C64.3868 87.9181 64.4566 87.9298 64.4974 87.9824C64.5148 88.0058 64.5265 88.0409 64.5265 88.0877V88.2105V89.2279V89.4735V90.1226C64.5265 90.2571 64.4333 90.4208 64.3169 90.491C64.2005 90.5612 64.1074 90.5027 64.1074 90.3682V89.7191V89.4735V88.456V88.3332C64.1074 88.2923 64.1191 88.2397 64.1365 88.1988C64.1656 88.0993 64.2296 88.0116 64.3111 87.9649Z" fill="#797979"/>
<path d="M41.9166 100.951C41.9981 100.904 42.0621 100.916 42.1028 100.969C42.1203 100.992 42.1319 101.027 42.1319 101.074V101.197V102.214V102.46V103.109C42.1319 103.243 42.0388 103.407 41.9224 103.477C41.806 103.542 41.7129 103.489 41.7129 103.355V102.705V102.46V101.442V101.32C41.7129 101.273 41.7245 101.226 41.742 101.185C41.7711 101.092 41.8409 100.998 41.9166 100.951Z" fill="#797979"/>
<path d="M68.0416 85.8007C68.158 85.7364 68.2511 85.7891 68.2511 85.9235L68.2569 87.9585C68.2569 88.093 68.1638 88.2567 68.0474 88.3269C67.931 88.3912 67.8379 88.3386 67.8379 88.2041V87.555V87.3094V86.2919V86.1691C67.8379 86.1282 67.8495 86.0756 67.867 86.0347C67.8961 85.9352 67.9659 85.8417 68.0416 85.8007Z" fill="#797979"/>
<path d="M7.99081 110.641C7.99663 110.472 7.82203 110.255 7.51356 110.074C7.05378 109.805 6.46014 109.717 6.1866 109.875C6.09347 109.928 6.05273 110.01 6.05273 110.097C6.05273 110.086 6.05273 110.419 6.05273 110.419C6.05273 110.589 6.22152 110.799 6.52998 110.98C6.98976 111.249 7.5834 111.337 7.85695 111.179C7.94425 111.127 7.99081 111.056 7.99081 110.969V110.635C7.99081 110.635 7.99081 110.635 7.99081 110.641Z" fill="#B2B2B2"/>
<path d="M11.4185 128.207C11.1741 128.066 10.7783 128.066 10.5339 128.207C10.4116 128.277 10.3534 128.371 10.3534 128.464L10.3418 133.037C10.3418 133.13 10.4058 133.224 10.528 133.294C10.7725 133.435 11.1682 133.435 11.4127 133.294C11.5349 133.224 11.5931 133.13 11.5931 133.037L11.6047 128.458C11.6047 128.47 11.5989 128.482 11.5989 128.499C11.6164 128.4 11.5582 128.289 11.4185 128.207ZM10.3825 128.575C10.3884 128.587 10.3884 128.593 10.3942 128.604C10.3942 128.593 10.3884 128.587 10.3825 128.575ZM11.5698 128.575C11.5756 128.564 11.5873 128.546 11.5931 128.534C11.5873 128.552 11.5756 128.564 11.5698 128.575ZM11.5174 128.645C11.5291 128.634 11.5465 128.616 11.5524 128.604C11.5465 128.616 11.5349 128.634 11.5174 128.645Z" fill="#9D9D9C"/>
<path d="M10.9718 128.576C10.8961 128.576 10.8379 128.517 10.8379 128.441V115.161C10.8379 114.501 11.0649 114.003 11.4839 113.758C11.903 113.518 12.4442 113.565 13.0146 113.898L14.3998 114.699C14.4638 114.734 14.4871 114.822 14.4521 114.886C14.4172 114.951 14.3299 114.974 14.2659 114.939L12.8807 114.138C12.3977 113.857 11.9495 113.811 11.6178 113.998C11.286 114.191 11.1056 114.6 11.1056 115.161V128.441C11.1056 128.511 11.0474 128.576 10.9718 128.576Z" fill="#575756"/>
<path d="M10.9712 128.576C10.8956 128.576 10.8374 128.518 10.8374 128.442V115.162C10.8374 113.94 9.98181 112.454 8.92838 111.846L7.54321 111.045C7.47919 111.01 7.45591 110.922 7.49083 110.858C7.52575 110.794 7.61305 110.77 7.67707 110.805L9.06224 111.606C10.1855 112.261 11.1051 113.852 11.1051 115.162V128.442C11.1051 128.512 11.0469 128.576 10.9712 128.576Z" fill="#575756"/>
<path d="M16.0338 115.296C16.0396 115.126 15.865 114.91 15.5565 114.728C15.0967 114.459 14.5031 114.372 14.2296 114.53C14.1364 114.582 14.0957 114.664 14.0957 114.752C14.0957 114.74 14.0957 115.073 14.0957 115.073C14.0957 115.243 14.2645 115.453 14.5729 115.635C15.0327 115.904 15.6264 115.991 15.8999 115.834C15.9872 115.781 16.0338 115.711 16.0338 115.623V115.29C16.0338 115.29 16.0338 115.29 16.0338 115.296Z" fill="#B2B2B2"/>
<path d="M30.2467 97.7058C30.2525 97.5362 30.0779 97.3198 29.7694 97.1386C29.3096 96.8696 28.716 96.7819 28.4425 96.9397C28.3493 96.9924 28.3086 97.0742 28.3086 97.1619C28.3086 97.1502 28.3086 97.4836 28.3086 97.4836C28.3086 97.6531 28.4774 97.8637 28.7858 98.0449C29.2456 98.3139 29.8393 98.4016 30.1128 98.2437C30.2001 98.1911 30.2467 98.1209 30.2467 98.0332V97.6999C30.2467 97.7058 30.2467 97.7058 30.2467 97.7058Z" fill="#B2B2B2"/>
<path d="M33.6744 115.277C33.4299 115.137 33.0342 115.137 32.7897 115.277C32.6675 115.347 32.6093 115.441 32.6093 115.534L32.5977 120.107C32.5977 120.201 32.6617 120.294 32.7839 120.365C33.0283 120.505 33.4241 120.505 33.6685 120.365C33.7908 120.294 33.849 120.201 33.849 120.107L33.8606 115.529C33.8606 115.54 33.8548 115.552 33.8548 115.57C33.8722 115.47 33.814 115.359 33.6744 115.277ZM32.6151 115.575C32.6151 115.587 32.6151 115.593 32.6209 115.605C32.6209 115.593 32.6209 115.581 32.6151 115.575ZM33.6802 115.792C33.7093 115.774 33.7384 115.757 33.7617 115.733C33.7326 115.757 33.7093 115.774 33.6802 115.792ZM33.8257 115.646C33.8315 115.634 33.8431 115.616 33.849 115.605C33.8431 115.616 33.8373 115.634 33.8257 115.646ZM33.7791 115.71C33.7908 115.698 33.8082 115.681 33.814 115.669C33.8024 115.686 33.7908 115.698 33.7791 115.71Z" fill="#9D9D9C"/>
<path d="M33.2276 115.64C33.152 115.64 33.0938 115.582 33.0938 115.506V102.226C33.0938 101.565 33.3207 101.068 33.7398 100.822C34.1588 100.583 34.7001 100.629 35.2704 100.963L36.6556 101.764C36.7196 101.799 36.7429 101.887 36.708 101.951C36.6731 102.015 36.5858 102.039 36.5218 102.004L35.1366 101.202C34.6535 100.922 34.2054 100.875 33.8736 101.062C33.5419 101.255 33.3615 101.664 33.3615 102.226V115.506C33.3673 115.582 33.3033 115.64 33.2276 115.64Z" fill="#575756"/>
<path d="M33.2271 115.641C33.1514 115.641 33.0932 115.582 33.0932 115.506V102.226C33.0932 101.004 32.2377 99.5188 31.1842 98.9107L29.7991 98.1096C29.735 98.0745 29.7118 97.9868 29.7467 97.9224C29.7816 97.8581 29.8689 97.8347 29.9329 97.8698L31.3181 98.6709C32.4414 99.3259 33.3609 100.916 33.3609 102.226V115.506C33.3668 115.582 33.3027 115.641 33.2271 115.641Z" fill="#575756"/>
<path d="M38.2955 102.36C38.3013 102.19 38.1267 101.974 37.8183 101.793C37.3585 101.524 36.7648 101.436 36.4913 101.594C36.3982 101.647 36.3574 101.729 36.3574 101.816C36.3574 101.805 36.3574 102.138 36.3574 102.138C36.3574 102.307 36.5262 102.518 36.8347 102.699C37.2944 102.968 37.8881 103.056 38.1616 102.898C38.2489 102.845 38.2955 102.775 38.2955 102.688V102.36Z" fill="#B2B2B2"/>
<path d="M52.5084 84.778C52.5142 84.6085 52.3396 84.3921 52.0311 84.2108C51.5714 83.9418 50.9777 83.8541 50.7042 84.012C50.6111 84.0646 50.5703 84.1465 50.5703 84.2342C50.5703 84.2225 50.5703 84.5558 50.5703 84.5558C50.5703 84.7254 50.7391 84.9359 51.0476 85.1172C51.5073 85.3862 52.101 85.4739 52.3745 85.316C52.4618 85.2634 52.5084 85.1932 52.5084 85.1055V84.7722C52.5084 84.7722 52.5084 84.7722 52.5084 84.778Z" fill="#B2B2B2"/>
<path d="M55.9361 102.344C55.6916 102.203 55.2959 102.203 55.0514 102.344C54.9292 102.414 54.871 102.507 54.871 102.601L54.8594 107.174C54.8594 107.267 54.9234 107.361 55.0456 107.431C55.2901 107.571 55.6858 107.571 55.9303 107.431C56.0525 107.361 56.1107 107.267 56.1107 107.174L56.1223 102.595C56.1223 102.607 56.1165 102.618 56.1165 102.636C56.134 102.537 56.0758 102.425 55.9361 102.344ZM54.9001 102.712C54.9059 102.718 54.9059 102.729 54.9118 102.741C54.9118 102.729 54.9059 102.724 54.9001 102.712ZM56.0874 102.712C56.0932 102.7 56.1049 102.683 56.1107 102.671C56.1049 102.689 56.0932 102.7 56.0874 102.712Z" fill="#9D9D9C"/>
<path d="M55.4893 102.712C55.4137 102.712 55.3555 102.654 55.3555 102.578V89.298C55.3555 88.6372 55.5825 88.1402 56.0015 87.8946C56.4205 87.6548 56.9618 87.7016 57.5322 88.0349L58.9173 88.8361C58.9814 88.8711 59.0046 88.9589 58.9697 89.0232C58.9348 89.0875 58.8475 89.1109 58.7835 89.0758L57.3983 88.2747C56.9152 87.994 56.4671 87.9472 56.1354 88.1343C55.8036 88.3273 55.6232 88.7366 55.6232 89.298V102.578C55.6232 102.648 55.565 102.712 55.4893 102.712Z" fill="#575756"/>
<path d="M55.4888 102.713C55.4131 102.713 55.3549 102.654 55.3549 102.578V89.2985C55.3549 88.0764 54.4994 86.5911 53.446 85.9829L52.0608 85.1818C51.9968 85.1467 51.9735 85.059 52.0084 84.9947C52.0433 84.9304 52.1306 84.907 52.1946 84.9421L53.5798 85.7432C54.7031 86.3981 55.6227 87.9887 55.6227 89.2985V102.578C55.6227 102.649 55.5644 102.713 55.4888 102.713Z" fill="#575756"/>
<path d="M60.5514 89.4265C60.5572 89.2569 60.3826 89.0405 60.0741 88.8593C59.6143 88.5903 59.0207 88.5026 58.7471 88.6604C58.654 88.7131 58.6133 88.7949 58.6133 88.8826C58.6133 88.8709 58.6133 89.2043 58.6133 89.2043C58.6133 89.3738 58.7821 89.5844 59.0905 89.7656C59.5503 90.0346 60.1439 90.1223 60.4175 89.9644C60.5048 89.9118 60.5514 89.8416 60.5514 89.7539V89.4206C60.5514 89.4265 60.5514 89.4265 60.5514 89.4265Z" fill="#B2B2B2"/>
<path d="M74.7642 71.8425C74.7701 71.6729 74.5955 71.4565 74.287 71.2753C73.8272 71.0063 73.2336 70.9186 72.96 71.0765C72.8669 71.1291 72.8262 71.2109 72.8262 71.2987C72.8262 71.287 72.8262 71.6203 72.8262 71.6203C72.8262 71.7899 72.995 72.0004 73.3034 72.1816C73.7632 72.4506 74.3568 72.5383 74.6304 72.3805C74.7177 72.3278 74.7642 72.2577 74.7642 72.1699V71.8366V71.8425Z" fill="#B2B2B2"/>
<path d="M78.1919 89.4139C77.9475 89.2735 77.5517 89.2735 77.3073 89.4139C77.1851 89.484 77.1269 89.5776 77.1269 89.6711L77.1152 94.2439C77.1152 94.3375 77.1793 94.4311 77.3015 94.5012C77.5459 94.6416 77.9417 94.6416 78.1861 94.5012C78.3083 94.4311 78.3665 94.3375 78.3665 94.2439L78.3782 89.6653C78.3782 89.677 78.3724 89.6887 78.3724 89.7062C78.3898 89.6068 78.3316 89.4957 78.1919 89.4139ZM77.1327 89.7062C77.1327 89.7179 77.1327 89.7238 77.1385 89.7355C77.1385 89.7296 77.1385 89.7179 77.1327 89.7062ZM78.1978 89.9284C78.2269 89.9109 78.256 89.8934 78.2792 89.87C78.2501 89.8875 78.2269 89.9109 78.1978 89.9284ZM78.3433 89.7822C78.3491 89.7706 78.3607 89.753 78.3665 89.7413C78.3607 89.753 78.3549 89.7647 78.3433 89.7822ZM78.2967 89.8466C78.3083 89.8349 78.3258 89.8173 78.3316 89.8056C78.32 89.8232 78.3083 89.8349 78.2967 89.8466Z" fill="#9D9D9C"/>
<path d="M77.7452 89.7768C77.6695 89.7768 77.6113 89.7183 77.6113 89.6423V76.3625C77.6113 75.7017 77.8383 75.2046 78.2574 74.959C78.6764 74.7193 79.2177 74.7661 79.788 75.0994L81.1732 75.9005C81.2372 75.9356 81.2605 76.0233 81.2256 76.0876C81.1906 76.152 81.1033 76.1753 81.0393 76.1403L79.6542 75.3391C79.1711 75.0585 78.723 75.0117 78.3912 75.1988C78.0595 75.3918 77.879 75.8011 77.879 76.3625V89.6423C77.8849 89.7183 77.8208 89.7768 77.7452 89.7768Z" fill="#575756"/>
<path d="M77.7447 89.7773C77.669 89.7773 77.6108 89.7188 77.6108 89.6428V76.363C77.6108 75.1408 76.7552 73.6555 75.7018 73.0474L74.3166 72.2463C74.2526 72.2112 74.2293 72.1235 74.2643 72.0592C74.2992 71.9948 74.3865 71.9714 74.4505 72.0065L75.8357 72.8076C76.9589 73.4626 77.8785 75.0531 77.8785 76.363V89.6428C77.8843 89.7188 77.8203 89.7773 77.7447 89.7773Z" fill="#575756"/>
<path d="M82.8131 76.4968C82.8189 76.3272 82.6443 76.1108 82.3358 75.9296C81.876 75.6606 81.2824 75.5729 81.0089 75.7308C80.9157 75.7834 80.875 75.8652 80.875 75.953C80.875 75.9413 80.875 76.2746 80.875 76.2746C80.875 76.4442 81.0438 76.6547 81.3522 76.8359C81.812 77.1049 82.4057 77.1926 82.6792 77.0348C82.7665 76.9821 82.8131 76.912 82.8131 76.8242V76.4909V76.4968Z" fill="#B2B2B2"/>
</g>
<rect x="110" width="169" height="58" rx="16" fill="#006DB7"/>
<rect x="125.048" y="8.04762" width="41.9048" height="41.9048" rx="20.9524" fill="#6D4C41"/>
<rect x="125.048" y="8.04762" width="41.9048" height="41.9048" rx="20.9524" stroke="white" stroke-width="2.09524"/>
<g clip-path="url(#clip1_171_49517)">
<path d="M150.048 30.6817C147.336 30.6817 144.66 30.6817 141.948 30.6817C141.948 30.7986 141.948 30.904 141.948 31.0093C141.948 33.1339 141.948 35.2575 141.948 37.3821C141.948 38.049 141.701 38.2936 141.03 38.2936C139.879 38.2936 138.728 38.2945 137.575 38.2936C136.97 38.2926 136.707 38.0297 136.706 37.4217C136.706 35.2875 136.706 33.1532 136.706 31.019C136.706 30.9127 136.706 30.8064 136.706 30.6701C136.573 30.6701 136.467 30.6701 136.36 30.6701C134.861 30.6701 133.363 30.671 131.864 30.6701C131.111 30.6691 130.798 30.1742 131.13 29.5073C132.676 26.4132 134.224 23.3211 135.766 20.2251C135.948 19.8627 136.212 19.707 136.619 19.707C142.872 19.7128 149.125 19.7128 155.379 19.707C155.786 19.707 156.05 19.8617 156.231 20.2242C157.773 23.3201 159.323 26.4132 160.868 29.5082C161.201 30.1742 160.885 30.6691 160.131 30.6691C158.533 30.6701 156.935 30.6691 155.29 30.6691C155.29 30.7928 155.29 30.9069 155.29 31.0209C155.29 33.1455 155.29 35.2691 155.29 37.3937C155.29 38.0413 155.038 38.2926 154.389 38.2926C153.228 38.2936 152.067 38.2936 150.906 38.2926C150.321 38.2916 150.05 38.0219 150.05 37.4381C150.049 35.3039 150.049 33.1697 150.049 31.0354C150.048 30.9282 150.048 30.8209 150.048 30.6817ZM141.234 28.358C142.451 25.9241 143.636 23.556 144.834 21.1608C142.418 21.1608 140.047 21.1608 137.635 21.1608C138.833 23.557 140.015 25.9212 141.234 28.358ZM147.161 21.155C148.364 23.5579 149.55 25.9309 150.765 28.357C151.985 25.9154 153.169 23.5454 154.365 21.155C151.945 21.155 149.577 21.155 147.161 21.155ZM136.47 22.022C135.251 24.4597 134.067 26.8279 132.869 29.2241C135.285 29.2241 137.656 29.2241 140.07 29.2241C138.871 26.825 137.688 24.4578 136.47 22.022ZM145.998 22.023C144.777 24.4646 143.592 26.8347 142.398 29.226C144.818 29.226 147.185 29.226 149.601 29.226C148.4 26.8269 147.216 24.4578 145.998 22.023ZM155.528 22.022C154.309 24.4588 153.126 26.8269 151.927 29.2241C154.343 29.2241 156.714 29.2241 159.128 29.2241C157.93 26.826 156.746 24.4588 155.528 22.022ZM138.157 30.6836C138.157 32.754 138.157 34.8003 138.157 36.8398C138.955 36.8398 139.732 36.8398 140.504 36.8398C140.504 34.7761 140.504 32.7366 140.504 30.6836C139.718 30.6836 138.949 30.6836 138.157 30.6836ZM151.499 30.6836C151.499 32.754 151.499 34.8003 151.499 36.8398C152.297 36.8398 153.074 36.8398 153.845 36.8398C153.845 34.7761 153.845 32.7366 153.845 30.6836C153.06 30.6836 152.29 30.6836 151.499 30.6836Z" fill="white"/>
</g>
<path d="M183.722 37.5V20.0455H190.267C191.608 20.0455 192.733 20.2955 193.642 20.7955C194.557 21.2955 195.247 21.983 195.713 22.858C196.185 23.7273 196.42 24.7159 196.42 25.8239C196.42 26.9432 196.185 27.9375 195.713 28.8068C195.241 29.6761 194.545 30.3608 193.625 30.8608C192.705 31.3551 191.571 31.6023 190.224 31.6023H185.886V29.0028H189.798C190.582 29.0028 191.224 28.8665 191.724 28.5938C192.224 28.321 192.594 27.946 192.832 27.4688C193.077 26.9915 193.199 26.4432 193.199 25.8239C193.199 25.2045 193.077 24.6591 192.832 24.1875C192.594 23.7159 192.222 23.3494 191.716 23.0881C191.216 22.821 190.571 22.6875 189.781 22.6875H186.884V37.5H183.722ZM207.374 31.9943V24.4091H210.46V37.5H207.468V35.1733H207.332C207.036 35.9062 206.55 36.5057 205.874 36.9716C205.204 37.4375 204.377 37.6705 203.394 37.6705C202.536 37.6705 201.778 37.4801 201.119 37.0994C200.465 36.7131 199.954 36.1534 199.585 35.4205C199.215 34.6818 199.031 33.7898 199.031 32.7443V24.4091H202.116V32.267C202.116 33.0966 202.343 33.7557 202.798 34.2443C203.252 34.733 203.849 34.9773 204.587 34.9773C205.042 34.9773 205.482 34.8665 205.908 34.6449C206.335 34.4233 206.684 34.0938 206.957 33.6562C207.235 33.2131 207.374 32.6591 207.374 31.9943ZM219.428 37.7557C218.115 37.7557 216.982 37.483 216.027 36.9375C215.078 36.3864 214.348 35.608 213.837 34.6023C213.325 33.5909 213.07 32.4006 213.07 31.0312C213.07 29.6847 213.325 28.5028 213.837 27.4858C214.354 26.4631 215.075 25.6676 216.001 25.0994C216.928 24.5256 218.016 24.2386 219.266 24.2386C220.072 24.2386 220.834 24.3693 221.55 24.6307C222.271 24.8864 222.908 25.2841 223.459 25.8239C224.016 26.3636 224.453 27.0511 224.771 27.8864C225.089 28.7159 225.249 29.7045 225.249 30.8523V31.7983H214.518V29.7188H222.291C222.286 29.1278 222.158 28.6023 221.908 28.142C221.658 27.6761 221.308 27.3097 220.859 27.0426C220.416 26.7756 219.899 26.642 219.308 26.642C218.678 26.642 218.124 26.7955 217.646 27.1023C217.169 27.4034 216.797 27.8011 216.53 28.2955C216.268 28.7841 216.135 29.321 216.129 29.9062V31.7216C216.129 32.483 216.268 33.1364 216.547 33.6818C216.825 34.2216 217.214 34.6364 217.714 34.9261C218.214 35.2102 218.8 35.3523 219.47 35.3523C219.919 35.3523 220.325 35.2898 220.689 35.1648C221.053 35.0341 221.368 34.8438 221.635 34.5938C221.902 34.3438 222.104 34.0341 222.24 33.6648L225.121 33.9886C224.939 34.75 224.592 35.4148 224.081 35.983C223.575 36.5455 222.928 36.983 222.138 37.2955C221.348 37.6023 220.445 37.7557 219.428 37.7557ZM230.944 29.8295V37.5H227.859V24.4091H230.808V26.6335H230.961C231.262 25.9006 231.742 25.3182 232.401 24.8864C233.066 24.4545 233.887 24.2386 234.864 24.2386C235.768 24.2386 236.555 24.4318 237.225 24.8182C237.901 25.2045 238.424 25.7642 238.793 26.4972C239.168 27.2301 239.353 28.1193 239.347 29.1648V37.5H236.262V29.642C236.262 28.767 236.035 28.0824 235.58 27.5881C235.131 27.0937 234.509 26.8466 233.714 26.8466C233.174 26.8466 232.694 26.9659 232.273 27.2045C231.859 27.4375 231.532 27.7756 231.293 28.2188C231.06 28.6619 230.944 29.1989 230.944 29.8295ZM249.021 24.4091V26.7955H241.495V24.4091H249.021ZM243.353 21.2727H246.438V33.5625C246.438 33.9773 246.501 34.2955 246.626 34.517C246.756 34.733 246.927 34.8807 247.137 34.9602C247.347 35.0398 247.58 35.0795 247.836 35.0795C248.029 35.0795 248.205 35.0653 248.364 35.0369C248.529 35.0085 248.654 34.983 248.739 34.9602L249.259 37.3722C249.094 37.429 248.859 37.4915 248.552 37.5597C248.251 37.6278 247.881 37.6676 247.444 37.679C246.671 37.7017 245.975 37.5852 245.356 37.3295C244.737 37.0682 244.245 36.6648 243.881 36.1193C243.523 35.5739 243.347 34.892 243.353 34.0739V21.2727ZM257.256 37.7557C255.943 37.7557 254.81 37.483 253.855 36.9375C252.906 36.3864 252.176 35.608 251.665 34.6023C251.153 33.5909 250.898 32.4006 250.898 31.0312C250.898 29.6847 251.153 28.5028 251.665 27.4858C252.182 26.4631 252.903 25.6676 253.83 25.0994C254.756 24.5256 255.844 24.2386 257.094 24.2386C257.901 24.2386 258.662 24.3693 259.378 24.6307C260.099 24.8864 260.736 25.2841 261.287 25.8239C261.844 26.3636 262.281 27.0511 262.599 27.8864C262.918 28.7159 263.077 29.7045 263.077 30.8523V31.7983H252.347V29.7188H260.119C260.114 29.1278 259.986 28.6023 259.736 28.142C259.486 27.6761 259.136 27.3097 258.688 27.0426C258.244 26.7756 257.727 26.642 257.136 26.642C256.506 26.642 255.952 26.7955 255.474 27.1023C254.997 27.4034 254.625 27.8011 254.358 28.2955C254.097 28.7841 253.963 29.321 253.957 29.9062V31.7216C253.957 32.483 254.097 33.1364 254.375 33.6818C254.653 34.2216 255.043 34.6364 255.543 34.9261C256.043 35.2102 256.628 35.3523 257.298 35.3523C257.747 35.3523 258.153 35.2898 258.517 35.1648C258.881 35.0341 259.196 34.8438 259.463 34.5938C259.73 34.3438 259.932 34.0341 260.068 33.6648L262.949 33.9886C262.767 34.75 262.42 35.4148 261.909 35.983C261.403 36.5455 260.756 36.983 259.966 37.2955C259.176 37.6023 258.273 37.7557 257.256 37.7557Z" fill="white"/>
<path d="M102.6 98.0061L128.5 53H172L105.498 100.63C103.75 101.882 101.528 99.8699 102.6 98.0061Z" fill="#006DB7"/>
<defs>
<clipPath id="clip0_171_49517">
<rect width="89" height="90" fill="white" transform="translate(0 71)"/>
</clipPath>
<clipPath id="clip1_171_49517">
<rect width="30" height="18.5875" fill="white" transform="translate(131 19.707)"/>
</clipPath>
</defs>
</svg>
