<svg width="473" height="193" viewBox="0 0 473 193" fill="none" xmlns="http://www.w3.org/2000/svg">
<path d="M369.039 158.307L416.089 131.84L472.076 163.745L425.155 190.803L369.039 158.307Z" fill="#3B495C"/>
<path d="M472.076 163.746V165.944L425.154 193.001V190.803L472.076 163.746Z" fill="#233143"/>
<path d="M369.039 158.307V160.505L425.155 193V190.802L369.039 158.307Z" fill="#233143"/>
<path d="M416.633 107.363L376.42 130.193V157.15L416.633 134.027V107.363Z" fill="#C6C3C1"/>
<path d="M378.736 130.688L377.123 131.601V158.563L378.736 157.635V130.688Z" fill="#FBAD32"/>
<path opacity="0.5" d="M389.306 138.168L377.928 144.712V147.609L391.842 139.612L389.306 138.168Z" fill="white"/>
<path opacity="0.5" d="M392.884 140.201L377.928 148.801V149.642L393.62 140.617L392.884 140.201Z" fill="white"/>
<path opacity="0.5" d="M377.928 131.711V132.666L378.764 132.186L377.928 131.711Z" fill="white"/>
<path opacity="0.5" d="M377.928 158.096L396.197 168.597V142.083L396.111 142.033L377.928 152.484V158.096Z" fill="white"/>
<path opacity="0.5" d="M394.141 140.914L377.928 150.236V151.89L395.585 141.737L394.141 140.914Z" fill="white"/>
<path d="M407.817 133.049V132.455L393.619 140.617L394.14 140.914L407.817 133.049Z" fill="white"/>
<path opacity="0.8" d="M393.62 140.617L377.928 149.642V150.236L394.141 140.914L393.62 140.617Z" fill="white"/>
<path d="M407.961 134.621L395.586 141.736L396.111 142.033L407.961 135.215V134.621Z" fill="white"/>
<path opacity="0.8" d="M377.928 151.89V152.484L396.111 142.033L395.585 141.736L377.928 151.89Z" fill="white"/>
<path d="M407.817 131.615V130.422L391.842 139.612L392.884 140.201L407.817 131.615Z" fill="white"/>
<path opacity="0.8" d="M391.842 139.611L377.928 147.608V148.801L392.884 140.201L391.842 139.611Z" fill="white"/>
<path d="M401.621 131.085V119.039L378.764 132.186L389.306 138.168L401.621 131.085Z" fill="white"/>
<path opacity="0.8" d="M378.764 132.186L377.928 132.665V144.711L389.306 138.167L378.764 132.186Z" fill="white"/>
<path d="M465.405 136.445L425.191 159.275V186.232L465.405 163.109V136.445Z" fill="#FBAD32"/>
<path d="M406.594 146.736L404.98 147.655V174.611L406.594 173.684V146.736Z" fill="#FBAD32"/>
<path d="M377.151 131.999L375.693 131.172V157.767L377.151 158.608V131.999Z" fill="#FBAD32"/>
<path d="M395.662 142.51V169.252L404.98 174.612V147.801L395.662 142.51Z" fill="#FBAD32"/>
<path opacity="0.5" d="M419.58 155.445L405.953 163.282V164.119L420.316 155.861L419.58 155.445Z" fill="white"/>
<path opacity="0.5" d="M420.837 156.158L405.953 164.713V166.367L422.285 156.976L420.837 156.158Z" fill="white"/>
<path opacity="0.5" d="M416.002 153.412L405.953 159.188V162.09L418.538 154.852L416.002 153.412Z" fill="white"/>
<path opacity="0.5" d="M405.953 174.09L424.218 184.591V158.078L422.806 157.273L405.953 166.966V174.09Z" fill="white"/>
<path opacity="0.8" d="M420.316 155.861L405.953 164.119V164.713L420.837 156.158L420.316 155.861Z" fill="white"/>
<path opacity="0.8" d="M405.953 166.367V166.966L422.806 157.274L422.285 156.977L405.953 166.367Z" fill="white"/>
<path opacity="0.8" d="M418.538 154.852L405.953 162.09V163.283L419.58 155.446L418.538 154.852Z" fill="white"/>
<path opacity="0.8" d="M405.953 147.705V159.189L416.002 153.413L405.953 147.705Z" fill="white"/>
<path d="M415.179 153.002L414.607 152.678V179.059L415.179 179.388V153.002Z" fill="#888D9A"/>
<path d="M423.234 158.166V185.109L425.19 186.233V159.276L423.234 158.166Z" fill="#FBAD32"/>
<path d="M425.191 159.889L422.129 152.678L465.404 127.828V137.086L425.191 159.889Z" fill="#BECCC6"/>
<path d="M465.405 127.827L419.489 154.468L375.748 129.687L421.587 103L465.405 127.827Z" fill="white"/>
<path d="M459.958 128.655L461.471 127.782L421.824 104.865L382.744 127.535L384.362 128.491L421.929 106.698L459.958 128.655Z" fill="#7C8982"/>
<path d="M459.957 128.655L421.928 106.697L389.438 125.543L427.412 147.473L459.957 128.655Z" fill="#A2AAA6"/>
<path d="M422.326 150.416L427.412 147.473L389.438 125.543L384.361 128.49L422.326 150.416Z" fill="#8C9993"/>
<path d="M376.15 122.498V123.188L369.035 127.296V126.606L376.15 122.498Z" fill="#243954"/>
<path d="M376.15 128.965V129.659L369.035 133.768V133.073L376.15 128.965Z" fill="#243954"/>
<path d="M374.783 121.314L424.287 149.418V160.399L374.783 131.934V121.314Z" fill="#243954"/>
<path d="M375.693 120.826L374.783 121.315L424.287 149.419L425.191 148.93L375.693 120.826Z" fill="#243954"/>
<path d="M424.287 160.4L425.192 159.911V148.93L424.287 149.419V160.4Z" fill="#243954"/>
<path d="M397.859 152.782L403.457 156.012V154.152L397.859 151.004V152.782Z" fill="white"/>
<path d="M420.215 172.762L416.861 170.842V164.879L420.215 166.798V172.762Z" fill="#243954"/>
<path d="M419.891 167.104L417.186 165.555V165.92L419.891 167.469V167.104Z" fill="white"/>
<path d="M419.891 167.84L417.186 166.291V166.661L419.891 168.21V167.84Z" fill="white"/>
<path d="M417.322 168.252C417.322 167.731 417.528 167.544 417.811 167.708C418.095 167.873 418.3 168.298 418.3 168.819C418.3 169.344 418.095 169.536 417.811 169.372C417.523 169.207 417.322 168.778 417.322 168.252ZM417.989 168.641C417.989 168.27 417.907 168.097 417.807 168.037C417.706 167.978 417.628 168.06 417.628 168.43C417.628 168.805 417.711 168.983 417.807 169.043C417.907 169.097 417.989 169.011 417.989 168.641ZM417.88 170.464L418.94 168.362L419.191 168.508L418.136 170.615L417.88 170.464ZM418.766 170.139C418.766 169.618 418.976 169.431 419.255 169.596C419.539 169.76 419.744 170.185 419.744 170.706C419.744 171.232 419.539 171.423 419.255 171.259C418.972 171.094 418.766 170.665 418.766 170.139ZM419.438 170.528C419.438 170.153 419.356 169.984 419.26 169.925C419.159 169.865 419.077 169.943 419.077 170.318C419.077 170.692 419.159 170.871 419.26 170.93C419.356 170.985 419.438 170.903 419.438 170.528Z" fill="white"/>
<path d="M413.219 164.316L411.268 163.201V159.729L413.219 160.844V164.316Z" fill="#243954"/>
<path d="M394.086 161.395L387.145 157.42V145.072L394.086 149.048V161.395Z" fill="#243954"/>
<path d="M393.67 151.278L387.738 147.883V148.573L393.67 151.968V151.278Z" fill="white"/>
<path d="M393.67 150.04L387.738 146.645V147.335L393.67 150.73V150.04Z" fill="white"/>
<path d="M374.362 121.289L366.662 125.662V136.643L374.362 132.215V121.289Z" fill="#243954"/>
<path d="M374.362 126.123L366.662 130.496V131.15L374.362 126.726V126.123Z" fill="white"/>
<path d="M374.362 127.604L366.662 131.972V132.63L374.362 128.202V127.604Z" fill="white"/>
<path d="M374.362 129.012L366.662 133.385V134.038L374.362 129.61V129.012Z" fill="white"/>
<path d="M366 136.25L366.663 136.643V125.663L366 125.27V136.25Z" fill="#243954"/>
<path d="M374.363 121.289L373.7 120.9L366 125.269L366.663 125.662L374.363 121.289Z" fill="#243954"/>
<rect width="332" height="141" rx="18" fill="#006DB7"/>
<path d="M399.5 88.9997L288 53.026L320 29L399.5 88.9997Z" fill="#006DB7"/>
<rect x="25.0476" y="49.5476" width="41.9048" height="41.9048" rx="20.9524" fill="#FFB600"/>
<rect x="25.0476" y="49.5476" width="41.9048" height="41.9048" rx="20.9524" stroke="white" stroke-width="2.09524"/>
<path d="M34.375 78.8886C34.375 78.9261 34.3787 78.9599 34.39 78.9936C34.39 79.0049 34.3975 79.0161 34.4013 79.0274C34.4125 79.0574 34.4313 79.0874 34.4538 79.1136C34.4575 79.1211 34.4613 79.1249 34.465 79.1324C34.465 79.1324 34.4688 79.1324 34.4725 79.1361C34.4987 79.1661 34.5288 79.1924 34.5662 79.2111C36.205 80.0699 40.255 81.5661 40.4237 81.6261C40.4387 81.6299 40.45 81.6299 40.465 81.6336C40.4725 81.6336 40.48 81.6411 40.4913 81.6449C40.5887 81.6599 40.7125 81.6674 40.855 81.6674C43.9375 81.6674 56.7887 78.0411 57.3587 77.8799C57.5312 77.8311 57.6438 77.6624 57.6213 77.4824C57.0138 72.7236 55.375 64.9574 55.36 64.8786C55.36 64.8749 55.3563 64.8711 55.3563 64.8674C55.345 64.8299 55.33 64.7961 55.3113 64.7624C55.3075 64.7549 55.3037 64.7474 55.3 64.7436C55.2775 64.7099 55.2437 64.6799 55.21 64.6574C55.195 64.6461 55.1762 64.6386 55.1575 64.6311C55.1425 64.6236 55.1275 64.6124 55.1087 64.6086L51.625 63.5849C50.2675 60.5474 48.3175 59.0849 45.9887 59.3586C45.5012 59.4149 45.0512 59.5499 44.6425 59.7561C44.4362 59.7186 44.2225 59.6961 44.0013 59.6924C42.8988 59.6811 41.9613 60.1161 41.2263 60.9824C40.3413 62.0136 39.7863 63.6674 39.5612 65.8911C37.615 66.2361 36.1862 66.4799 36.1637 66.4836C36.1487 66.4836 36.1413 66.4949 36.1263 66.4986C36.1187 66.4986 36.1075 66.4986 36.1 66.4986C36.0888 66.4986 36.0813 66.5099 36.0738 66.5174C36.0438 66.5324 36.0175 66.5474 35.995 66.5661C35.98 66.5774 35.9687 66.5886 35.9575 66.6036C35.935 66.6261 35.92 66.6524 35.905 66.6824C35.9013 66.6936 35.89 66.7011 35.8863 66.7124C35.1588 68.6249 34.4087 78.4461 34.3787 78.8624V78.8661V78.8849L34.375 78.8886ZM40.5325 66.4574C40.5738 66.4499 40.615 66.4424 40.66 66.4349C41.1512 66.3449 41.6613 66.2549 42.1825 66.1574C42.1975 66.5436 42.2275 66.9411 42.2725 67.3536C40.4987 67.6986 39.3438 67.8899 38.8375 67.9199L37.2812 67.0274C38.0538 66.8924 39.2125 66.6936 40.5363 66.4536L40.5325 66.4574ZM42.16 65.4224C41.995 65.4524 41.83 65.4824 41.665 65.5124C41.8225 64.3986 42.0812 63.5099 42.4225 62.8911C42.2462 63.6261 42.1562 64.4736 42.1562 65.4224H42.16ZM37.4162 76.9686L39.6737 80.5724C38.5037 80.1261 36.5838 79.3761 35.38 78.8061L37.42 76.9724L37.4162 76.9686ZM37.8587 76.3049V68.2011L38.4062 68.5161C38.5525 69.9261 39.2013 75.9861 39.7487 79.3236L37.8587 76.3086V76.3049ZM36.4375 67.3874L37.1313 67.7849V76.2486L35.17 78.0149C35.3612 75.6749 35.905 69.4724 36.4337 67.3874H36.4375ZM40.8062 80.9511C40.405 79.6761 39.6063 73.0086 39.145 68.6286C39.76 68.5611 40.8025 68.3849 42.3513 68.0811C42.475 68.9549 42.6213 69.6336 42.7075 70.0049C42.8313 70.4849 43.2625 70.8224 43.7575 70.8224C43.8475 70.8224 43.9375 70.8111 44.0238 70.7886C44.5975 70.6424 44.9537 70.0574 44.8112 69.4761C44.6875 68.9774 44.5675 68.3174 44.4775 67.6499C46.1425 67.3049 48.1075 66.8849 50.3312 66.3899C50.5187 67.0536 50.68 67.7474 50.7962 68.4111C50.7962 68.4261 50.8 68.4374 50.8038 68.4486C50.845 68.7336 50.995 68.9849 51.2275 69.1574C51.46 69.3299 51.7413 69.4049 52.03 69.3599C52.3188 69.3186 52.57 69.1649 52.7425 68.9324C52.915 68.6999 52.9862 68.4149 52.945 68.1299C52.93 68.0211 52.7913 67.1099 52.4538 65.9099C53.4812 65.6774 54.2875 65.4936 54.7225 65.3924C55.045 66.9449 56.305 73.1174 56.8563 77.2649C52.7612 78.4161 42.955 81.0261 40.8025 80.9399L40.8062 80.9511ZM45.805 61.6161C45.8387 61.6049 45.8687 61.5899 45.9025 61.5824C46.0075 61.5524 46.12 61.5261 46.2362 61.5111C46.2625 61.5111 46.2925 61.5111 46.3187 61.5074C46.9112 62.1636 47.395 63.1049 47.755 64.3161C47.7362 64.3199 47.7137 64.3236 47.695 64.3311C47.5225 64.3686 47.3425 64.4061 47.1588 64.4474C46.7725 63.1799 46.2362 62.2724 45.565 61.7286C45.58 61.7211 45.5913 61.7136 45.6025 61.7061C45.6663 61.6724 45.7337 61.6461 45.805 61.6199V61.6161ZM44.4025 66.9261C44.365 66.5286 44.3387 66.1349 44.3312 65.7524C45.3175 65.5611 46.1988 65.3849 46.9713 65.2236H46.9788C47.0688 65.2049 47.155 65.1861 47.245 65.1674C47.3725 65.1411 47.4925 65.1149 47.6125 65.0886C47.6275 65.0886 47.6425 65.0811 47.6575 65.0774C47.815 65.0436 47.9688 65.0099 48.115 64.9761C48.1712 64.9649 48.2312 64.9499 48.2875 64.9386C48.8425 64.8149 49.3187 64.7024 49.7087 64.6011C49.8512 64.9349 49.99 65.2986 50.1175 65.6886C47.95 66.1724 46.03 66.5849 44.3988 66.9224L44.4025 66.9261ZM48.4637 64.1586C48.1713 63.1649 47.8 62.3286 47.35 61.6574C48.1112 61.9724 48.8012 62.7374 49.4012 63.9336C49.1275 64.0011 48.8125 64.0761 48.46 64.1586H48.4637ZM45.0025 62.2424C45.0025 62.2424 45.0138 62.2311 45.0175 62.2236C45.5988 62.6474 46.0863 63.4574 46.4425 64.5936C45.805 64.7249 45.1 64.8636 44.3275 65.0136C44.3688 63.7799 44.5975 62.8236 45.0025 62.2424ZM52.24 65.2236C52.1537 64.9611 52.0675 64.7024 51.9738 64.4511L53.575 64.9236C53.1925 65.0099 52.7425 65.1149 52.2438 65.2274L52.24 65.2236ZM46.0712 60.0861C46.2287 60.0674 46.3825 60.0599 46.5363 60.0599C48.3775 60.0599 49.885 61.3949 51.0287 64.0386C51.2575 64.5786 51.4675 65.1599 51.6512 65.7599C52.0525 67.0874 52.21 68.1299 52.225 68.2461C52.24 68.3399 52.2137 68.4336 52.1575 68.5124C52.1012 68.5874 52.0188 68.6399 51.9212 68.6511C51.8275 68.6661 51.7375 68.6399 51.6588 68.5836C51.5837 68.5274 51.535 68.4449 51.52 68.3474C51.52 68.3361 51.5125 68.3061 51.5125 68.2949C51.3738 67.4886 51.175 66.6486 50.935 65.8574C50.7213 65.1674 50.5 64.5711 50.2488 64.0274C49.2663 61.8674 48.01 60.7724 46.5175 60.7724C46.4988 60.7724 46.4838 60.7724 46.465 60.7724C46.3638 60.7649 46.255 60.7799 46.15 60.7911C45.5538 60.8624 45.055 61.0986 44.68 61.4924C44.68 61.4924 44.68 61.4924 44.6762 61.4961C44.5787 61.5936 44.4887 61.7061 44.4025 61.8261C43.8588 62.6099 43.585 63.8324 43.5887 65.4561C43.5887 66.0824 43.6337 66.7386 43.7125 67.4061C43.8062 68.2049 43.9525 69.0449 44.1063 69.6486C44.1512 69.8399 44.035 70.0311 43.8475 70.0799C43.6713 70.1249 43.4613 70.0086 43.4125 69.8099C43.3413 69.4986 43.1575 68.6624 43.0225 67.6011C42.94 66.9374 42.895 66.3036 42.8837 65.7149C42.85 64.0386 43.0938 62.7111 43.6038 61.7699C43.6825 61.6236 43.7463 61.5186 43.8175 61.4174C43.8888 61.3124 43.9675 61.2149 44.0463 61.1211C44.2863 60.8436 44.5638 60.6186 44.8675 60.4499C45.2275 60.2549 45.6287 60.1274 46.0712 60.0786V60.0861ZM41.7737 61.4586C42.2987 60.8399 42.9438 60.4986 43.6975 60.4349C43.6525 60.4799 43.6112 60.5286 43.5662 60.5774C43.5363 60.6111 43.5063 60.6411 43.4762 60.6749C43.3863 60.7799 43.3 60.8924 43.2175 61.0086C43.18 61.0611 43.1425 61.1211 43.105 61.1811C43.0938 61.1999 43.0825 61.2186 43.0712 61.2374C43.0563 61.2636 43.0413 61.2861 43.0262 61.3124C42.715 61.4474 42.4338 61.6611 42.1825 61.9499C41.5487 62.6924 41.1213 63.9374 40.9075 65.6549C40.7575 65.6811 40.6112 65.7074 40.4612 65.7374C40.405 65.7486 40.3488 65.7561 40.2925 65.7674C40.51 63.8211 41.0162 62.3399 41.77 61.4624L41.7737 61.4586Z" fill="white"/>
<path d="M50.5142 72.8254C50.1579 72.5217 49.6404 72.3567 48.9842 72.3267L47.9754 72.2854C47.6454 72.2704 47.5517 72.2104 47.5404 72.2029C47.5292 72.1954 47.5067 72.1804 47.5067 72.0979C47.5067 72.0154 47.5179 71.8879 47.6679 71.7417C47.7992 71.6142 48.0054 71.5204 48.2754 71.4717C48.5154 71.4267 48.7142 71.4117 48.8679 71.4304C49.0329 71.4492 49.1904 71.4792 49.3217 71.5204C49.5579 71.5954 49.7754 71.5992 49.9667 71.5279C50.1504 71.4604 50.2967 71.3442 50.4017 71.1867C50.4992 71.0442 50.5554 70.8867 50.5742 70.7142C50.5929 70.5304 50.5592 70.3579 50.4729 70.1967C50.3829 70.0242 50.2404 69.8967 50.0717 69.8254C49.8204 69.6979 49.5317 69.6154 49.2129 69.5817C49.1304 69.5742 49.0517 69.5667 48.9692 69.5629L48.9579 69.3904C48.9429 69.1467 48.8417 68.9404 48.6579 68.7942C48.4742 68.6479 48.2492 68.5954 48.0092 68.6367C47.7767 68.6779 47.5779 68.7942 47.4317 68.9779C47.2854 69.1617 47.2104 69.3754 47.2217 69.6042L47.2329 69.8854C46.9779 69.9904 46.7454 70.1217 46.5429 70.2754C46.1979 70.5342 45.9242 70.8454 45.7292 71.2054C45.5267 71.5804 45.4254 71.9892 45.4254 72.4204C45.4254 73.0129 45.6054 73.4854 45.9542 73.8192C46.2992 74.1492 46.8092 74.3292 47.4692 74.3592L48.5004 74.4042C48.7179 74.4117 48.8379 74.4379 48.9017 74.4642C48.9842 74.4942 49.0029 74.5204 49.0067 74.5242C49.0254 74.5542 49.0404 74.5954 49.0442 74.6517C49.0517 74.7342 49.0329 74.8092 48.9954 74.8842C48.9542 74.9592 48.8754 75.0379 48.7592 75.1092C48.6242 75.1954 48.4329 75.2629 48.1854 75.3117C47.8367 75.3829 47.5404 75.3979 47.3042 75.3642C47.0567 75.3267 46.8654 75.2817 46.7342 75.2292C46.4154 75.1092 46.1717 75.1692 46.0217 75.2404C45.8342 75.3304 45.6804 75.4692 45.5679 75.6567C45.4629 75.8329 45.3992 76.0242 45.3804 76.2267C45.3617 76.4367 45.3917 76.6354 45.4704 76.8229C45.5642 77.0442 45.7404 77.2054 45.9692 77.2879C46.2204 77.3892 46.5242 77.4604 46.8917 77.5092C47.0792 77.5354 47.2817 77.5392 47.5029 77.5317L47.5142 77.8242C47.5254 78.1092 47.6267 78.3529 47.8142 78.5292C47.9717 78.6792 48.1704 78.7579 48.3842 78.7579C48.4479 78.7579 48.5117 78.7504 48.5754 78.7392C48.8417 78.6829 49.0629 78.5292 49.2167 78.2892C49.3592 78.0679 49.4267 77.8204 49.4079 77.5542L49.3817 77.0967C49.6742 76.9579 49.9367 76.7854 50.1617 76.5904C50.5104 76.2904 50.7767 75.9304 50.9529 75.5217C51.1292 75.1167 51.1967 74.6742 51.1554 74.2129C51.1029 73.6167 50.8854 73.1554 50.5104 72.8367L50.5142 72.8254ZM50.2892 75.2179C50.1542 75.5254 49.9554 75.7954 49.6892 76.0242C49.4642 76.2192 49.1867 76.3842 48.8717 76.5117C48.7254 76.5717 48.6354 76.7142 48.6467 76.8679L48.6879 77.5767C48.6954 77.6892 48.6692 77.7867 48.6092 77.8767C48.5454 77.9742 48.4779 77.9967 48.4292 78.0079C48.3579 78.0229 48.3354 78.0042 48.3167 77.9854C48.2867 77.9592 48.2492 77.9067 48.2417 77.7829L48.2192 77.1117C48.2192 77.0104 48.1704 76.9129 48.0917 76.8492C48.0242 76.7929 47.9417 76.7629 47.8554 76.7629C47.8404 76.7629 47.8254 76.7629 47.8104 76.7629C47.4954 76.8004 47.2217 76.8042 46.9892 76.7742C46.6854 76.7329 46.4342 76.6729 46.2279 76.5942C46.1642 76.5717 46.1492 76.5454 46.1379 76.5192C46.1079 76.4479 46.0967 76.3654 46.1042 76.2754C46.1117 76.1817 46.1379 76.0992 46.1867 76.0204C46.2279 75.9529 46.2729 75.9117 46.3329 75.8817C46.3629 75.8667 46.4117 75.8704 46.4642 75.8929C46.6442 75.9642 46.8842 76.0242 47.1917 76.0692C47.5104 76.1179 47.8892 76.0992 48.3204 76.0129C48.6579 75.9454 48.9279 75.8479 49.1379 75.7129C49.3629 75.5704 49.5279 75.4017 49.6292 75.2142C49.7304 75.0192 49.7754 74.8129 49.7604 74.5954C49.7492 74.4079 49.6929 74.2392 49.5954 74.1004C49.4942 73.9504 49.3367 73.8417 49.1342 73.7704C48.9692 73.7104 48.7629 73.6804 48.5154 73.6729L47.4879 73.6279C47.0117 73.6092 46.6592 73.4929 46.4454 73.2904C46.2429 73.0954 46.1417 72.8104 46.1417 72.4167C46.1417 72.1017 46.2129 71.8167 46.3592 71.5467C46.5054 71.2767 46.7079 71.0479 46.9704 70.8492C47.1804 70.6917 47.4279 70.5642 47.7129 70.4704C47.8667 70.4179 47.9679 70.2754 47.9604 70.1142L47.9417 69.5704C47.9417 69.5179 47.9567 69.4729 47.9942 69.4279C48.0317 69.3829 48.0729 69.3567 48.1292 69.3492C48.1779 69.3417 48.1892 69.3492 48.2004 69.3567C48.2117 69.3679 48.2267 69.3754 48.2267 69.4242L48.2567 69.9454C48.2679 70.1442 48.4404 70.2979 48.6392 70.2867C48.8192 70.2754 48.9729 70.2792 49.1304 70.2979C49.3592 70.3204 49.5617 70.3804 49.7529 70.4742C49.8092 70.4967 49.8204 70.5229 49.8279 70.5342C49.8467 70.5679 49.8542 70.6017 49.8467 70.6392C49.8429 70.6917 49.8242 70.7367 49.7942 70.7817C49.7792 70.8042 49.7567 70.8267 49.7079 70.8492C49.6967 70.8529 49.6517 70.8642 49.5392 70.8304C49.3554 70.7742 49.1567 70.7367 48.9429 70.7142C48.7179 70.6917 48.4554 70.7067 48.1442 70.7629C47.7279 70.8379 47.3979 70.9954 47.1617 71.2242C46.9029 71.4754 46.7717 71.7867 46.7792 72.1204C46.7904 72.4879 46.9704 72.6942 47.1167 72.7992C47.3004 72.9304 47.5592 72.9979 47.9417 73.0167L48.9504 73.0579C49.4454 73.0804 49.8129 73.1929 50.0454 73.3879C50.2704 73.5792 50.4017 73.8679 50.4354 74.2729C50.4654 74.6179 50.4167 74.9292 50.2892 75.2254V75.2179Z" fill="white"/>
<path d="M96.1413 35.2891C96.0552 34.4827 95.692 33.8549 95.0518 33.4055C94.4179 32.9562 93.593 32.7315 92.5774 32.7315C91.8634 32.7315 91.2509 32.8393 90.7401 33.0547C90.2292 33.2701 89.8383 33.5625 89.5675 33.9318C89.2966 34.3011 89.1581 34.7228 89.152 35.1967C89.152 35.5907 89.2412 35.9323 89.4197 36.2216C89.6044 36.5109 89.8537 36.7571 90.1676 36.9602C90.4815 37.1572 90.8293 37.3234 91.2109 37.4588C91.5926 37.5942 91.9773 37.7081 92.3651 37.8004L94.1378 38.2436C94.8518 38.4098 95.5381 38.6345 96.1967 38.9176C96.8615 39.2008 97.4555 39.5578 97.9787 39.9886C98.508 40.4195 98.9266 40.9396 99.2344 41.549C99.5421 42.1584 99.696 42.8724 99.696 43.6911C99.696 44.799 99.4129 45.7746 98.8466 46.6179C98.2803 47.455 97.4616 48.1106 96.3906 48.5845C95.3258 49.0523 94.0362 49.2862 92.522 49.2862C91.0509 49.2862 89.7737 49.0585 88.6903 48.603C87.6132 48.1475 86.7699 47.4827 86.1605 46.6087C85.5573 45.7346 85.2311 44.6697 85.1818 43.4141H88.5518C88.6011 44.0727 88.8042 44.6205 89.1612 45.0575C89.5182 45.4946 89.983 45.8208 90.5554 46.0362C91.134 46.2517 91.7803 46.3594 92.4943 46.3594C93.2391 46.3594 93.8916 46.2486 94.4517 46.027C95.018 45.7992 95.4612 45.4853 95.7812 45.0852C96.1013 44.679 96.2644 44.205 96.2706 43.6634C96.2644 43.1709 96.1198 42.7647 95.8366 42.4446C95.5535 42.1184 95.1565 41.8475 94.6456 41.6321C94.1409 41.4105 93.55 41.2135 92.8729 41.0412L90.7216 40.4872C89.1643 40.0871 87.9332 39.4808 87.0284 38.6683C86.1297 37.8497 85.6804 36.7633 85.6804 35.4091C85.6804 34.295 85.982 33.3194 86.5852 32.4822C87.1946 31.6451 88.0225 30.9957 89.0689 30.5341C90.1153 30.0663 91.3002 29.8324 92.6236 29.8324C93.9654 29.8324 95.1411 30.0663 96.1506 30.5341C97.1662 30.9957 97.9633 31.639 98.5419 32.4638C99.1205 33.2824 99.419 34.2242 99.4375 35.2891H96.1413ZM106.683 49.2862C105.784 49.2862 104.975 49.1262 104.255 48.8061C103.541 48.4799 102.974 47.9998 102.556 47.3658C102.144 46.7318 101.937 45.95 101.937 45.0206C101.937 44.2204 102.085 43.5587 102.381 43.0355C102.676 42.5123 103.079 42.0938 103.59 41.7798C104.101 41.4659 104.676 41.2289 105.317 41.0689C105.963 40.9027 106.631 40.7827 107.32 40.7088C108.151 40.6226 108.825 40.5457 109.342 40.478C109.859 40.4041 110.235 40.2933 110.469 40.1456C110.709 39.9917 110.829 39.7547 110.829 39.4347V39.3793C110.829 38.6837 110.622 38.1451 110.21 37.7635C109.798 37.3819 109.204 37.1911 108.428 37.1911C107.609 37.1911 106.96 37.3696 106.48 37.7266C106.006 38.0836 105.686 38.5052 105.52 38.9915L102.399 38.5483C102.645 37.6866 103.051 36.9664 103.618 36.3878C104.184 35.803 104.876 35.366 105.695 35.0767C106.514 34.7812 107.419 34.6335 108.41 34.6335C109.093 34.6335 109.773 34.7135 110.45 34.8736C111.127 35.0336 111.746 35.2983 112.306 35.6676C112.866 36.0308 113.315 36.5263 113.654 37.1541C113.999 37.782 114.171 38.5668 114.171 39.5085V49H110.958V47.0518H110.847C110.644 47.4458 110.358 47.8151 109.988 48.1598C109.625 48.4983 109.167 48.7723 108.613 48.9815C108.065 49.1847 107.422 49.2862 106.683 49.2862ZM107.551 46.8303C108.222 46.8303 108.804 46.6979 109.296 46.4332C109.788 46.1624 110.167 45.8054 110.432 45.3622C110.702 44.919 110.838 44.4358 110.838 43.9126V42.2415C110.733 42.3277 110.555 42.4077 110.302 42.4815C110.056 42.5554 109.779 42.62 109.471 42.6754C109.164 42.7308 108.859 42.7801 108.557 42.8232C108.256 42.8662 107.994 42.9032 107.773 42.9339C107.274 43.0017 106.828 43.1125 106.434 43.2663C106.04 43.4202 105.729 43.6357 105.501 43.9126C105.273 44.1835 105.16 44.5343 105.16 44.9652C105.16 45.5807 105.384 46.0455 105.834 46.3594C106.283 46.6733 106.855 46.8303 107.551 46.8303ZM120.874 30.0909V49H117.532V30.0909H120.874ZM128.392 49.2862C127.493 49.2862 126.684 49.1262 125.964 48.8061C125.25 48.4799 124.683 47.9998 124.265 47.3658C123.853 46.7318 123.646 45.95 123.646 45.0206C123.646 44.2204 123.794 43.5587 124.089 43.0355C124.385 42.5123 124.788 42.0938 125.299 41.7798C125.81 41.4659 126.385 41.2289 127.026 41.0689C127.672 40.9027 128.34 40.7827 129.029 40.7088C129.86 40.6226 130.534 40.5457 131.051 40.478C131.568 40.4041 131.944 40.2933 132.178 40.1456C132.418 39.9917 132.538 39.7547 132.538 39.4347V39.3793C132.538 38.6837 132.331 38.1451 131.919 37.7635C131.507 37.3819 130.913 37.1911 130.137 37.1911C129.318 37.1911 128.669 37.3696 128.189 37.7266C127.715 38.0836 127.395 38.5052 127.229 38.9915L124.108 38.5483C124.354 37.6866 124.76 36.9664 125.327 36.3878C125.893 35.803 126.585 35.366 127.404 35.0767C128.223 34.7812 129.128 34.6335 130.119 34.6335C130.802 34.6335 131.482 34.7135 132.159 34.8736C132.836 35.0336 133.455 35.2983 134.015 35.6676C134.575 36.0308 135.024 36.5263 135.363 37.1541C135.708 37.782 135.88 38.5668 135.88 39.5085V49H132.667V47.0518H132.556C132.353 47.4458 132.067 47.8151 131.697 48.1598C131.334 48.4983 130.876 48.7723 130.322 48.9815C129.774 49.1847 129.131 49.2862 128.392 49.2862ZM129.26 46.8303C129.931 46.8303 130.513 46.6979 131.005 46.4332C131.497 46.1624 131.876 45.8054 132.141 45.3622C132.411 44.919 132.547 44.4358 132.547 43.9126V42.2415C132.442 42.3277 132.264 42.4077 132.011 42.4815C131.765 42.5554 131.488 42.62 131.18 42.6754C130.873 42.7308 130.568 42.7801 130.266 42.8232C129.965 42.8662 129.703 42.9032 129.482 42.9339C128.983 43.0017 128.537 43.1125 128.143 43.2663C127.749 43.4202 127.438 43.6357 127.21 43.9126C126.982 44.1835 126.869 44.5343 126.869 44.9652C126.869 45.5807 127.093 46.0455 127.543 46.3594C127.992 46.6733 128.564 46.8303 129.26 46.8303ZM150.953 49.2493C149.839 49.2493 148.842 48.9631 147.961 48.3906C147.081 47.8182 146.386 46.9872 145.875 45.8977C145.364 44.8082 145.108 43.4848 145.108 41.9276C145.108 40.3518 145.367 39.0223 145.884 37.9389C146.407 36.8494 147.112 36.0277 147.998 35.4737C148.885 34.9136 149.873 34.6335 150.962 34.6335C151.793 34.6335 152.476 34.7751 153.012 35.0582C153.547 35.3352 153.972 35.6707 154.286 36.0646C154.6 36.4524 154.843 36.8187 155.015 37.1634H155.154V30.0909H158.505V49H155.218V46.7656H155.015C154.843 47.1103 154.594 47.4766 154.267 47.8643C153.941 48.246 153.51 48.5722 152.975 48.843C152.439 49.1139 151.765 49.2493 150.953 49.2493ZM151.885 46.5071C152.593 46.5071 153.196 46.3163 153.695 45.9347C154.194 45.5469 154.572 45.0083 154.831 44.3189C155.089 43.6295 155.218 42.8262 155.218 41.9091C155.218 40.992 155.089 40.1948 154.831 39.5178C154.578 38.8407 154.203 38.3144 153.704 37.9389C153.212 37.5634 152.605 37.3757 151.885 37.3757C151.141 37.3757 150.519 37.5696 150.02 37.9574C149.522 38.3452 149.146 38.8807 148.894 39.5639C148.641 40.2472 148.515 41.0289 148.515 41.9091C148.515 42.7955 148.641 43.5864 148.894 44.282C149.152 44.9714 149.531 45.5161 150.029 45.9162C150.534 46.3101 151.153 46.5071 151.885 46.5071ZM168.345 49.277C166.923 49.277 165.695 48.9815 164.661 48.3906C163.633 47.7936 162.843 46.9503 162.289 45.8608C161.735 44.7652 161.458 43.4756 161.458 41.9922C161.458 40.5334 161.735 39.2531 162.289 38.1513C162.849 37.0433 163.63 36.1816 164.634 35.5661C165.637 34.9444 166.816 34.6335 168.17 34.6335C169.044 34.6335 169.869 34.7751 170.644 35.0582C171.426 35.3352 172.115 35.7661 172.713 36.3509C173.316 36.9356 173.79 37.6804 174.134 38.5852C174.479 39.4839 174.651 40.5549 174.651 41.7983V42.8232H163.027V40.5703H171.448C171.441 39.9302 171.303 39.3608 171.032 38.8622C170.761 38.3575 170.383 37.9605 169.896 37.6712C169.416 37.3819 168.856 37.2372 168.216 37.2372C167.533 37.2372 166.933 37.4034 166.416 37.7358C165.899 38.062 165.495 38.4929 165.206 39.0284C164.923 39.5578 164.778 40.1394 164.772 40.7734V42.7401C164.772 43.5649 164.923 44.2727 165.225 44.8636C165.526 45.4484 165.948 45.8977 166.49 46.2116C167.031 46.5194 167.665 46.6733 168.392 46.6733C168.878 46.6733 169.318 46.6056 169.712 46.4702C170.106 46.3286 170.447 46.1224 170.737 45.8516C171.026 45.5807 171.244 45.2453 171.392 44.8452L174.513 45.196C174.316 46.0208 173.941 46.741 173.387 47.3565C172.839 47.9659 172.137 48.4399 171.281 48.7784C170.426 49.1108 169.447 49.277 168.345 49.277ZM186.606 30.0909L191.527 44.9744H191.721L196.633 30.0909H200.4L193.734 49H189.505L182.848 30.0909H186.606ZM207.498 49.277C206.076 49.277 204.848 48.9815 203.814 48.3906C202.786 47.7936 201.995 46.9503 201.441 45.8608C200.887 44.7652 200.61 43.4756 200.61 41.9922C200.61 40.5334 200.887 39.2531 201.441 38.1513C202.001 37.0433 202.783 36.1816 203.786 35.5661C204.789 34.9444 205.968 34.6335 207.322 34.6335C208.196 34.6335 209.021 34.7751 209.797 35.0582C210.578 35.3352 211.268 35.7661 211.865 36.3509C212.468 36.9356 212.942 37.6804 213.287 38.5852C213.631 39.4839 213.804 40.5549 213.804 41.7983V42.8232H202.18V40.5703H210.6C210.594 39.9302 210.455 39.3608 210.184 38.8622C209.914 38.3575 209.535 37.9605 209.049 37.6712C208.569 37.3819 208.009 37.2372 207.368 37.2372C206.685 37.2372 206.085 37.4034 205.568 37.7358C205.051 38.062 204.648 38.4929 204.358 39.0284C204.075 39.5578 203.931 40.1394 203.925 40.7734V42.7401C203.925 43.5649 204.075 44.2727 204.377 44.8636C204.679 45.4484 205.1 45.8977 205.642 46.2116C206.184 46.5194 206.818 46.6733 207.544 46.6733C208.03 46.6733 208.47 46.6056 208.864 46.4702C209.258 46.3286 209.6 46.1224 209.889 45.8516C210.178 45.5807 210.397 45.2453 210.545 44.8452L213.665 45.196C213.468 46.0208 213.093 46.741 212.539 47.3565C211.991 47.9659 211.289 48.4399 210.434 48.7784C209.578 49.1108 208.599 49.277 207.498 49.277ZM219.974 40.6903V49H216.631V34.8182H219.826V37.228H219.992C220.318 36.4339 220.839 35.803 221.553 35.3352C222.273 34.8674 223.162 34.6335 224.221 34.6335C225.2 34.6335 226.052 34.8428 226.778 35.2614C227.511 35.6799 228.077 36.2862 228.477 37.0803C228.884 37.8743 229.084 38.8376 229.077 39.9702V49H225.735V40.4872C225.735 39.5393 225.489 38.7976 224.996 38.2621C224.51 37.7266 223.836 37.4588 222.974 37.4588C222.39 37.4588 221.87 37.5881 221.414 37.8466C220.965 38.099 220.611 38.4652 220.352 38.9453C220.1 39.4254 219.974 40.0071 219.974 40.6903ZM239.557 34.8182V37.4034H231.404V34.8182H239.557ZM233.417 31.4205H236.759V44.7344C236.759 45.1837 236.827 45.5284 236.962 45.7685C237.104 46.0024 237.289 46.1624 237.516 46.2486C237.744 46.3348 237.996 46.3778 238.273 46.3778C238.483 46.3778 238.674 46.3625 238.846 46.3317C239.024 46.3009 239.16 46.2732 239.252 46.2486L239.815 48.8615C239.637 48.9231 239.381 48.9908 239.049 49.0646C238.723 49.1385 238.323 49.1816 237.849 49.1939C237.012 49.2185 236.258 49.0923 235.587 48.8153C234.916 48.5322 234.383 48.0952 233.989 47.5043C233.602 46.9134 233.411 46.1747 233.417 45.2884V31.4205ZM246.433 49.2862C245.534 49.2862 244.725 49.1262 244.005 48.8061C243.291 48.4799 242.724 47.9998 242.306 47.3658C241.894 46.7318 241.687 45.95 241.687 45.0206C241.687 44.2204 241.835 43.5587 242.131 43.0355C242.426 42.5123 242.829 42.0938 243.34 41.7798C243.851 41.4659 244.426 41.2289 245.067 41.0689C245.713 40.9027 246.381 40.7827 247.07 40.7088C247.901 40.6226 248.575 40.5457 249.092 40.478C249.609 40.4041 249.985 40.2933 250.219 40.1456C250.459 39.9917 250.579 39.7547 250.579 39.4347V39.3793C250.579 38.6837 250.372 38.1451 249.96 37.7635C249.548 37.3819 248.954 37.1911 248.178 37.1911C247.359 37.1911 246.71 37.3696 246.23 37.7266C245.756 38.0836 245.436 38.5052 245.27 38.9915L242.149 38.5483C242.395 37.6866 242.801 36.9664 243.368 36.3878C243.934 35.803 244.626 35.366 245.445 35.0767C246.264 34.7812 247.169 34.6335 248.16 34.6335C248.843 34.6335 249.523 34.7135 250.2 34.8736C250.877 35.0336 251.496 35.2983 252.056 35.6676C252.616 36.0308 253.065 36.5263 253.404 37.1541C253.749 37.782 253.921 38.5668 253.921 39.5085V49H250.708V47.0518H250.597C250.394 47.4458 250.108 47.8151 249.738 48.1598C249.375 48.4983 248.917 48.7723 248.363 48.9815C247.815 49.1847 247.172 49.2862 246.433 49.2862ZM247.301 46.8303C247.972 46.8303 248.554 46.6979 249.046 46.4332C249.538 46.1624 249.917 45.8054 250.182 45.3622C250.452 44.919 250.588 44.4358 250.588 43.9126V42.2415C250.483 42.3277 250.305 42.4077 250.052 42.4815C249.806 42.5554 249.529 42.62 249.221 42.6754C248.914 42.7308 248.609 42.7801 248.307 42.8232C248.006 42.8662 247.744 42.9032 247.523 42.9339C247.024 43.0017 246.578 43.1125 246.184 43.2663C245.79 43.4202 245.479 43.6357 245.251 43.9126C245.023 44.1835 244.91 44.5343 244.91 44.9652C244.91 45.5807 245.134 46.0455 245.584 46.3594C246.033 46.6733 246.605 46.8303 247.301 46.8303ZM268.491 38.5668L265.444 38.8991C265.358 38.5914 265.207 38.3021 264.991 38.0312C264.782 37.7604 264.499 37.5419 264.142 37.3757C263.785 37.2095 263.348 37.1264 262.831 37.1264C262.135 37.1264 261.55 37.2772 261.077 37.5788C260.609 37.8804 260.378 38.2713 260.384 38.7514C260.378 39.1638 260.529 39.4993 260.836 39.7578C261.15 40.0163 261.667 40.2287 262.388 40.3949L264.807 40.9119C266.148 41.2012 267.146 41.6598 267.798 42.2876C268.457 42.9155 268.789 43.7372 268.795 44.7528C268.789 45.6454 268.528 46.4332 268.01 47.1165C267.5 47.7936 266.789 48.3229 265.878 48.7045C264.967 49.0862 263.92 49.277 262.738 49.277C261.003 49.277 259.605 48.9138 258.547 48.1875C257.488 47.455 256.857 46.4363 256.654 45.1314L259.913 44.8175C260.061 45.4576 260.375 45.9408 260.855 46.267C261.335 46.5933 261.96 46.7564 262.729 46.7564C263.523 46.7564 264.16 46.5933 264.64 46.267C265.127 45.9408 265.37 45.5376 265.37 45.0575C265.37 44.6513 265.213 44.3158 264.899 44.0511C264.591 43.7865 264.111 43.5833 263.459 43.4418L261.04 42.9339C259.679 42.6508 258.673 42.1738 258.02 41.5028C257.368 40.8258 257.045 39.9702 257.051 38.9361C257.045 38.062 257.282 37.3049 257.762 36.6648C258.248 36.0185 258.922 35.5199 259.784 35.169C260.652 34.812 261.652 34.6335 262.785 34.6335C264.447 34.6335 265.755 34.9875 266.709 35.6953C267.669 36.4032 268.263 37.3603 268.491 38.5668ZM85.8651 80V61.0909H89.2905V69.7791H89.5213L96.8984 61.0909H101.081L93.7685 69.576L101.146 80H97.0277L91.3864 71.8935L89.2905 74.3679V80H85.8651ZM103.461 61.0909H107.653L113.266 74.7926H113.488L119.101 61.0909H123.293V80H120.006V67.0092H119.831L114.605 79.9446H112.149L106.923 66.9815H106.748V80H103.461V61.0909ZM140.979 61.0909V80H137.553V64.424H137.443L133.02 67.2493V64.1101L137.72 61.0909H140.979ZM152.345 60.8324C153.249 60.8385 154.13 60.9986 154.985 61.3125C155.847 61.6203 156.623 62.125 157.312 62.8267C158.001 63.5223 158.549 64.4548 158.955 65.6243C159.362 66.7938 159.565 68.2403 159.565 69.9638C159.571 71.5888 159.399 73.0414 159.048 74.3217C158.703 75.5959 158.208 76.6731 157.561 77.5533C156.915 78.4335 156.136 79.1044 155.225 79.5661C154.314 80.0277 153.289 80.2585 152.151 80.2585C150.957 80.2585 149.898 80.0246 148.975 79.5568C148.057 79.089 147.316 78.4489 146.749 77.6364C146.183 76.8239 145.835 75.8944 145.706 74.848H149.076C149.249 75.599 149.599 76.196 150.129 76.6392C150.664 77.0762 151.338 77.2947 152.151 77.2947C153.462 77.2947 154.471 76.7254 155.179 75.5866C155.887 74.4479 156.241 72.866 156.241 70.8409H156.112C155.81 71.3826 155.419 71.8504 154.939 72.2443C154.459 72.6321 153.914 72.9306 153.305 73.1399C152.702 73.3492 152.061 73.4538 151.384 73.4538C150.276 73.4538 149.279 73.1892 148.393 72.6598C147.513 72.1304 146.814 71.4041 146.297 70.4808C145.786 69.5575 145.528 68.5019 145.521 67.3139C145.521 66.0829 145.805 64.978 146.371 63.9993C146.943 63.0144 147.74 62.2389 148.762 61.6726C149.784 61.1001 150.978 60.8201 152.345 60.8324ZM152.354 63.6023C151.689 63.6023 151.089 63.7654 150.553 64.0916C150.024 64.4117 149.606 64.8487 149.298 65.4027C148.996 65.9505 148.845 66.563 148.845 67.2401C148.852 67.911 149.002 68.5204 149.298 69.0682C149.599 69.616 150.009 70.05 150.526 70.37C151.049 70.6901 151.646 70.8501 152.317 70.8501C152.816 70.8501 153.28 70.7547 153.711 70.5639C154.142 70.3731 154.517 70.1084 154.838 69.7699C155.164 69.4252 155.416 69.0343 155.595 68.5973C155.779 68.1603 155.869 67.6986 155.862 67.2124C155.862 66.5661 155.709 65.969 155.401 65.4212C155.099 64.8733 154.684 64.4332 154.154 64.1009C153.631 63.7685 153.031 63.6023 152.354 63.6023ZM162.824 80L170.866 64.0824V63.9531H161.531V61.0909H174.411V64.0178L166.379 80H162.824ZM176.237 80.2031C175.677 80.2031 175.197 80.0062 174.797 79.6122C174.397 79.2183 174.2 78.7382 174.206 78.1719C174.2 77.6179 174.397 77.1439 174.797 76.75C175.197 76.3561 175.677 76.1591 176.237 76.1591C176.779 76.1591 177.25 76.3561 177.65 76.75C178.056 77.1439 178.262 77.6179 178.268 78.1719C178.262 78.5473 178.164 78.889 177.973 79.1967C177.788 79.5045 177.542 79.7507 177.234 79.9354C176.933 80.1139 176.6 80.2031 176.237 80.2031ZM188.028 80.2585C186.797 80.2585 185.695 80.0277 184.722 79.5661C183.75 79.0982 182.977 78.4581 182.405 77.6456C181.839 76.8331 181.537 75.9036 181.5 74.8572H184.824C184.885 75.6328 185.221 76.2668 185.83 76.7592C186.44 77.2455 187.172 77.4886 188.028 77.4886C188.699 77.4886 189.296 77.3348 189.819 77.027C190.342 76.7192 190.754 76.2914 191.056 75.7436C191.358 75.1958 191.505 74.571 191.499 73.8693C191.505 73.1553 191.355 72.5213 191.047 71.9673C190.739 71.4134 190.317 70.9794 189.782 70.6655C189.246 70.3454 188.631 70.1854 187.935 70.1854C187.369 70.1792 186.812 70.2839 186.264 70.4993C185.716 70.7147 185.282 70.9979 184.962 71.3487L181.869 70.8409L182.857 61.0909H193.826V63.9531H185.692L185.147 68.9666H185.258C185.609 68.5542 186.104 68.2126 186.744 67.9418C187.384 67.6648 188.086 67.5263 188.849 67.5263C189.994 67.5263 191.016 67.7971 191.915 68.3388C192.813 68.8743 193.521 69.6129 194.038 70.5547C194.555 71.4964 194.814 72.5736 194.814 73.7862C194.814 75.0357 194.525 76.1499 193.946 77.1286C193.374 78.1011 192.576 78.8674 191.555 79.4276C190.539 79.9815 189.363 80.2585 188.028 80.2585ZM206.969 80H203.313L209.97 61.0909H214.199L220.865 80H217.208L212.158 64.9688H212.01L206.969 80ZM207.089 72.5859H217.061V75.3374H207.089V72.5859ZM226.55 71.6903V80H223.208V65.8182H226.402V68.228H226.568C226.895 67.4339 227.415 66.803 228.129 66.3352C228.849 65.8674 229.738 65.6335 230.797 65.6335C231.776 65.6335 232.628 65.8428 233.355 66.2614C234.087 66.6799 234.653 67.2862 235.053 68.0803C235.46 68.8743 235.66 69.8376 235.654 70.9702V80H232.311V71.4872C232.311 70.5393 232.065 69.7976 231.573 69.2621C231.086 68.7266 230.412 68.4588 229.551 68.4588C228.966 68.4588 228.446 68.5881 227.99 68.8466C227.541 69.099 227.187 69.4652 226.928 69.9453C226.676 70.4254 226.55 71.0071 226.55 71.6903ZM246.133 65.8182V68.4034H237.98V65.8182H246.133ZM239.993 62.4205H243.335V75.7344C243.335 76.1837 243.403 76.5284 243.539 76.7685C243.68 77.0024 243.865 77.1624 244.093 77.2486C244.32 77.3348 244.573 77.3778 244.85 77.3778C245.059 77.3778 245.25 77.3625 245.422 77.3317C245.601 77.3009 245.736 77.2732 245.828 77.2486L246.392 79.8615C246.213 79.9231 245.958 79.9908 245.625 80.0646C245.299 80.1385 244.899 80.1816 244.425 80.1939C243.588 80.2185 242.834 80.0923 242.163 79.8153C241.492 79.5322 240.959 79.0952 240.566 78.5043C240.178 77.9134 239.987 77.1747 239.993 76.2884V62.4205ZM248.928 80V65.8182H252.271V80H248.928ZM250.609 63.8054C250.079 63.8054 249.624 63.63 249.242 63.2791C248.861 62.9221 248.67 62.4943 248.67 61.9957C248.67 61.491 248.861 61.0632 249.242 60.7124C249.624 60.3553 250.079 60.1768 250.609 60.1768C251.144 60.1768 251.6 60.3553 251.975 60.7124C252.357 61.0632 252.548 61.491 252.548 61.9957C252.548 62.4943 252.357 62.9221 251.975 63.2791C251.6 63.63 251.144 63.8054 250.609 63.8054ZM261.875 85.6136C260.675 85.6136 259.644 85.4505 258.782 85.1243C257.92 84.8042 257.228 84.3733 256.705 83.8317C256.182 83.29 255.818 82.6899 255.615 82.0312L258.625 81.3018C258.761 81.5788 258.958 81.8527 259.216 82.1236C259.475 82.4006 259.822 82.6283 260.259 82.8068C260.703 82.9915 261.26 83.0838 261.931 83.0838C262.878 83.0838 263.663 82.853 264.285 82.3913C264.907 81.9358 265.218 81.1849 265.218 80.1385V77.4517H265.051C264.879 77.7964 264.627 78.1503 264.294 78.5135C263.968 78.8767 263.534 79.1813 262.992 79.4276C262.457 79.6738 261.783 79.7969 260.97 79.7969C259.881 79.7969 258.893 79.5414 258.007 79.0305C257.126 78.5135 256.425 77.7441 255.901 76.7223C255.384 75.6944 255.126 74.4079 255.126 72.8629C255.126 71.3056 255.384 69.9915 255.901 68.9205C256.425 67.8433 257.129 67.0277 258.016 66.4737C258.902 65.9136 259.89 65.6335 260.98 65.6335C261.811 65.6335 262.494 65.7751 263.029 66.0582C263.571 66.3352 264.002 66.6707 264.322 67.0646C264.642 67.4524 264.885 67.8187 265.051 68.1634H265.236V65.8182H268.532V80.2308C268.532 81.4434 268.243 82.4467 267.664 83.2408C267.086 84.0348 266.295 84.6288 265.291 85.0227C264.288 85.4167 263.149 85.6136 261.875 85.6136ZM261.903 77.1747C262.611 77.1747 263.214 77.0024 263.713 76.6577C264.211 76.313 264.59 75.8175 264.848 75.1712C265.107 74.5249 265.236 73.7493 265.236 72.8445C265.236 71.9519 265.107 71.1702 264.848 70.4993C264.596 69.8284 264.22 69.3082 263.722 68.9389C263.229 68.5634 262.623 68.3757 261.903 68.3757C261.158 68.3757 260.536 68.5696 260.038 68.9574C259.539 69.3452 259.164 69.8776 258.911 70.5547C258.659 71.2256 258.533 71.9889 258.533 72.8445C258.533 73.7124 258.659 74.4725 258.911 75.125C259.17 75.7713 259.548 76.276 260.047 76.6392C260.552 76.9962 261.17 77.1747 261.903 77.1747ZM280.997 74.0355V65.8182H284.339V80H281.098V77.4794H280.95C280.63 78.2734 280.104 78.9228 279.372 79.4276C278.645 79.9323 277.75 80.1847 276.685 80.1847C275.755 80.1847 274.934 79.9785 274.22 79.5661C273.512 79.1475 272.958 78.5412 272.558 77.7472C272.158 76.947 271.958 75.9806 271.958 74.848V65.8182H275.3V74.331C275.3 75.2296 275.546 75.9437 276.039 76.473C276.531 77.0024 277.177 77.267 277.977 77.267C278.47 77.267 278.947 77.147 279.409 76.907C279.87 76.6669 280.249 76.3099 280.544 75.8359C280.846 75.3558 280.997 74.7557 280.997 74.0355ZM291.857 80.2862C290.958 80.2862 290.149 80.1262 289.429 79.8061C288.715 79.4799 288.148 78.9998 287.73 78.3658C287.317 77.7318 287.111 76.95 287.111 76.0206C287.111 75.2204 287.259 74.5587 287.554 74.0355C287.85 73.5123 288.253 73.0938 288.764 72.7798C289.275 72.4659 289.85 72.2289 290.49 72.0689C291.137 71.9027 291.805 71.7827 292.494 71.7088C293.325 71.6226 293.999 71.5457 294.516 71.478C295.033 71.4041 295.408 71.2933 295.642 71.1456C295.882 70.9917 296.002 70.7547 296.002 70.4347V70.3793C296.002 69.6837 295.796 69.1451 295.384 68.7635C294.971 68.3819 294.377 68.1911 293.602 68.1911C292.783 68.1911 292.134 68.3696 291.654 68.7266C291.18 69.0836 290.86 69.5052 290.694 69.9915L287.573 69.5483C287.819 68.6866 288.225 67.9664 288.792 67.3878C289.358 66.803 290.05 66.366 290.869 66.0767C291.688 65.7812 292.592 65.6335 293.583 65.6335C294.267 65.6335 294.947 65.7135 295.624 65.8736C296.301 66.0336 296.92 66.2983 297.48 66.6676C298.04 67.0308 298.489 67.5263 298.828 68.1541C299.172 68.782 299.345 69.5668 299.345 70.5085V80H296.132V78.0518H296.021C295.818 78.4458 295.532 78.8151 295.162 79.1598C294.799 79.4983 294.341 79.7723 293.787 79.9815C293.239 80.1847 292.596 80.2862 291.857 80.2862ZM292.725 77.8303C293.396 77.8303 293.977 77.6979 294.47 77.4332C294.962 77.1624 295.341 76.8054 295.605 76.3622C295.876 75.919 296.012 75.4358 296.012 74.9126V73.2415C295.907 73.3277 295.729 73.4077 295.476 73.4815C295.23 73.5554 294.953 73.62 294.645 73.6754C294.337 73.7308 294.033 73.7801 293.731 73.8232C293.43 73.8662 293.168 73.9032 292.946 73.9339C292.448 74.0017 292.002 74.1125 291.608 74.2663C291.214 74.4202 290.903 74.6357 290.675 74.9126C290.447 75.1835 290.333 75.5343 290.333 75.9652C290.333 76.5807 290.558 77.0455 291.007 77.3594C291.457 77.6733 292.029 77.8303 292.725 77.8303ZM85.8651 111V92.0909H92.956C94.4086 92.0909 95.6274 92.3617 96.6122 92.9034C97.6032 93.4451 98.3511 94.1899 98.8558 95.1378C99.3667 96.0795 99.6222 97.1506 99.6222 98.3509C99.6222 99.5634 99.3667 100.641 98.8558 101.582C98.3449 102.524 97.5909 103.266 96.5938 103.808C95.5966 104.343 94.3686 104.611 92.9098 104.611H88.2102V101.795H92.4482C93.2976 101.795 93.9931 101.647 94.5348 101.352C95.0765 101.056 95.4766 100.65 95.7351 100.133C95.9998 99.6158 96.1321 99.0218 96.1321 98.3509C96.1321 97.6799 95.9998 97.089 95.7351 96.5781C95.4766 96.0672 95.0734 95.6702 94.5256 95.3871C93.9839 95.0978 93.2853 94.9531 92.4297 94.9531H89.2905V111H85.8651ZM106.277 111.286C105.378 111.286 104.569 111.126 103.849 110.806C103.135 110.48 102.568 110 102.15 109.366C101.737 108.732 101.531 107.95 101.531 107.021C101.531 106.22 101.679 105.559 101.974 105.036C102.27 104.512 102.673 104.094 103.184 103.78C103.695 103.466 104.27 103.229 104.91 103.069C105.557 102.903 106.224 102.783 106.914 102.709C107.745 102.623 108.419 102.546 108.936 102.478C109.453 102.404 109.828 102.293 110.062 102.146C110.302 101.992 110.422 101.755 110.422 101.435V101.379C110.422 100.684 110.216 100.145 109.804 99.7635C109.391 99.3819 108.797 99.1911 108.022 99.1911C107.203 99.1911 106.554 99.3696 106.074 99.7266C105.6 100.084 105.28 100.505 105.113 100.991L101.993 100.548C102.239 99.6866 102.645 98.9664 103.211 98.3878C103.778 97.803 104.47 97.366 105.289 97.0767C106.108 96.7812 107.012 96.6335 108.003 96.6335C108.687 96.6335 109.367 96.7135 110.044 96.8736C110.721 97.0336 111.34 97.2983 111.9 97.6676C112.46 98.0308 112.909 98.5263 113.248 99.1541C113.592 99.782 113.765 100.567 113.765 101.509V111H110.552V109.052H110.441C110.238 109.446 109.952 109.815 109.582 110.16C109.219 110.498 108.76 110.772 108.206 110.982C107.659 111.185 107.015 111.286 106.277 111.286ZM107.145 108.83C107.816 108.83 108.397 108.698 108.89 108.433C109.382 108.162 109.761 107.805 110.025 107.362C110.296 106.919 110.432 106.436 110.432 105.913V104.241C110.327 104.328 110.148 104.408 109.896 104.482C109.65 104.555 109.373 104.62 109.065 104.675C108.757 104.731 108.453 104.78 108.151 104.823C107.849 104.866 107.588 104.903 107.366 104.934C106.868 105.002 106.421 105.112 106.028 105.266C105.634 105.42 105.323 105.636 105.095 105.913C104.867 106.183 104.753 106.534 104.753 106.965C104.753 107.581 104.978 108.045 105.427 108.359C105.877 108.673 106.449 108.83 107.145 108.83ZM120.468 102.69V111H117.126V96.8182H120.32V99.228H120.486C120.813 98.4339 121.333 97.803 122.047 97.3352C122.767 96.8674 123.656 96.6335 124.715 96.6335C125.694 96.6335 126.546 96.8428 127.273 97.2614C128.005 97.6799 128.571 98.2862 128.971 99.0803C129.378 99.8743 129.578 100.838 129.572 101.97V111H126.229V102.487C126.229 101.539 125.983 100.798 125.491 100.262C125.004 99.7266 124.33 99.4588 123.469 99.4588C122.884 99.4588 122.364 99.5881 121.908 99.8466C121.459 100.099 121.105 100.465 120.846 100.945C120.594 101.425 120.468 102.007 120.468 102.69ZM137.05 111.286C136.152 111.286 135.342 111.126 134.622 110.806C133.908 110.48 133.342 110 132.923 109.366C132.511 108.732 132.305 107.95 132.305 107.021C132.305 106.22 132.452 105.559 132.748 105.036C133.043 104.512 133.446 104.094 133.957 103.78C134.468 103.466 135.044 103.229 135.684 103.069C136.33 102.903 136.998 102.783 137.687 102.709C138.518 102.623 139.192 102.546 139.709 102.478C140.226 102.404 140.602 102.293 140.836 102.146C141.076 101.992 141.196 101.755 141.196 101.435V101.379C141.196 100.684 140.99 100.145 140.577 99.7635C140.165 99.3819 139.571 99.1911 138.795 99.1911C137.977 99.1911 137.327 99.3696 136.847 99.7266C136.373 100.084 136.053 100.505 135.887 100.991L132.766 100.548C133.012 99.6866 133.419 98.9664 133.985 98.3878C134.551 97.803 135.244 97.366 136.062 97.0767C136.881 96.7812 137.786 96.6335 138.777 96.6335C139.46 96.6335 140.14 96.7135 140.817 96.8736C141.494 97.0336 142.113 97.2983 142.673 97.6676C143.233 98.0308 143.683 98.5263 144.021 99.1541C144.366 99.782 144.538 100.567 144.538 101.509V111H141.325V109.052H141.214C141.011 109.446 140.725 109.815 140.356 110.16C139.992 110.498 139.534 110.772 138.98 110.982C138.432 111.185 137.789 111.286 137.05 111.286ZM137.918 108.83C138.589 108.83 139.171 108.698 139.663 108.433C140.156 108.162 140.534 107.805 140.799 107.362C141.07 106.919 141.205 106.436 141.205 105.913V104.241C141.1 104.328 140.922 104.408 140.67 104.482C140.423 104.555 140.146 104.62 139.839 104.675C139.531 104.731 139.226 104.78 138.925 104.823C138.623 104.866 138.361 104.903 138.14 104.934C137.641 105.002 137.195 105.112 136.801 105.266C136.407 105.42 136.096 105.636 135.868 105.913C135.641 106.183 135.527 106.534 135.527 106.965C135.527 107.581 135.751 108.045 136.201 108.359C136.65 108.673 137.223 108.83 137.918 108.83ZM147.899 111V96.8182H151.094V99.228H151.26C151.555 98.4155 152.045 97.7815 152.728 97.326C153.411 96.8643 154.227 96.6335 155.175 96.6335C156.135 96.6335 156.944 96.8674 157.603 97.3352C158.268 97.7969 158.735 98.4278 159.006 99.228H159.154C159.468 98.4401 159.997 97.8123 160.742 97.3445C161.493 96.8705 162.382 96.6335 163.41 96.6335C164.715 96.6335 165.78 97.0459 166.605 97.8707C167.43 98.6955 167.842 99.8989 167.842 101.481V111H164.491V101.998C164.491 101.118 164.257 100.474 163.789 100.068C163.321 99.6558 162.749 99.4496 162.072 99.4496C161.265 99.4496 160.634 99.7019 160.179 100.207C159.729 100.705 159.505 101.355 159.505 102.155V111H156.227V101.859C156.227 101.127 156.006 100.542 155.562 100.105C155.125 99.6681 154.553 99.4496 153.845 99.4496C153.365 99.4496 152.928 99.5727 152.534 99.8189C152.14 100.059 151.826 100.401 151.592 100.844C151.358 101.281 151.241 101.792 151.241 102.376V111H147.899ZM177.511 111.277C176.089 111.277 174.862 110.982 173.827 110.391C172.799 109.794 172.009 108.95 171.455 107.861C170.901 106.765 170.624 105.476 170.624 103.992C170.624 102.533 170.901 101.253 171.455 100.151C172.015 99.0433 172.796 98.1816 173.8 97.5661C174.803 96.9444 175.982 96.6335 177.336 96.6335C178.21 96.6335 179.035 96.7751 179.81 97.0582C180.592 97.3352 181.281 97.7661 181.879 98.3509C182.482 98.9356 182.956 99.6804 183.3 100.585C183.645 101.484 183.817 102.555 183.817 103.798V104.823H172.193V102.57H180.614C180.607 101.93 180.469 101.361 180.198 100.862C179.927 100.357 179.549 99.9605 179.062 99.6712C178.582 99.3819 178.022 99.2372 177.382 99.2372C176.699 99.2372 176.099 99.4034 175.582 99.7358C175.065 100.062 174.661 100.493 174.372 101.028C174.089 101.558 173.944 102.139 173.938 102.773V104.74C173.938 105.565 174.089 106.273 174.391 106.864C174.692 107.448 175.114 107.898 175.656 108.212C176.197 108.519 176.831 108.673 177.558 108.673C178.044 108.673 178.484 108.606 178.878 108.47C179.272 108.329 179.613 108.122 179.903 107.852C180.192 107.581 180.411 107.245 180.558 106.845L183.679 107.196C183.482 108.021 183.107 108.741 182.553 109.357C182.005 109.966 181.303 110.44 180.447 110.778C179.592 111.111 178.613 111.277 177.511 111.277ZM186.645 111V96.8182H189.886V99.1818H190.034C190.292 98.3632 190.735 97.7322 191.363 97.2891C191.997 96.8397 192.72 96.6151 193.533 96.6151C193.718 96.6151 193.924 96.6243 194.151 96.6428C194.385 96.6551 194.579 96.6766 194.733 96.7074V99.782C194.592 99.7327 194.367 99.6896 194.059 99.6527C193.758 99.6096 193.465 99.5881 193.182 99.5881C192.573 99.5881 192.025 99.7204 191.539 99.9851C191.058 100.244 190.68 100.604 190.403 101.065C190.126 101.527 189.987 102.059 189.987 102.663V111H186.645ZM197.388 111.203C196.827 111.203 196.347 111.006 195.947 110.612C195.547 110.218 195.35 109.738 195.356 109.172C195.35 108.618 195.547 108.144 195.947 107.75C196.347 107.356 196.827 107.159 197.388 107.159C197.929 107.159 198.4 107.356 198.8 107.75C199.206 108.144 199.413 108.618 199.419 109.172C199.413 109.547 199.314 109.889 199.123 110.197C198.939 110.504 198.693 110.751 198.385 110.935C198.083 111.114 197.751 111.203 197.388 111.203ZM224.422 92.0909V111H221.375L212.465 98.12H212.308V111H208.883V92.0909H211.948L220.849 104.98H221.015V92.0909H224.422ZM234.192 111.277C232.808 111.277 231.607 110.972 230.592 110.363C229.576 109.754 228.788 108.901 228.228 107.805C227.674 106.71 227.397 105.429 227.397 103.964C227.397 102.5 227.674 101.216 228.228 100.114C228.788 99.0125 229.576 98.157 230.592 97.5476C231.607 96.9382 232.808 96.6335 234.192 96.6335C235.577 96.6335 236.778 96.9382 237.793 97.5476C238.809 98.157 239.594 99.0125 240.148 100.114C240.708 101.216 240.988 102.5 240.988 103.964C240.988 105.429 240.708 106.71 240.148 107.805C239.594 108.901 238.809 109.754 237.793 110.363C236.778 110.972 235.577 111.277 234.192 111.277ZM234.211 108.599C234.962 108.599 235.59 108.393 236.094 107.981C236.599 107.562 236.975 107.002 237.221 106.3C237.473 105.599 237.599 104.817 237.599 103.955C237.599 103.087 237.473 102.303 237.221 101.601C236.975 100.893 236.599 100.33 236.094 99.9112C235.59 99.4927 234.962 99.2834 234.211 99.2834C233.442 99.2834 232.801 99.4927 232.29 99.9112C231.786 100.33 231.407 100.893 231.155 101.601C230.909 102.303 230.786 103.087 230.786 103.955C230.786 104.817 230.909 105.599 231.155 106.3C231.407 107.002 231.786 107.562 232.29 107.981C232.801 108.393 233.442 108.599 234.211 108.599ZM243.825 111V96.8182H247.066V99.1818H247.213C247.472 98.3632 247.915 97.7322 248.543 97.2891C249.177 96.8397 249.9 96.6151 250.713 96.6151C250.897 96.6151 251.103 96.6243 251.331 96.6428C251.565 96.6551 251.759 96.6766 251.913 96.7074V99.782C251.771 99.7327 251.547 99.6896 251.239 99.6527C250.937 99.6096 250.645 99.5881 250.362 99.5881C249.752 99.5881 249.204 99.7204 248.718 99.9851C248.238 100.244 247.86 100.604 247.583 101.065C247.306 101.527 247.167 102.059 247.167 102.663V111H243.825ZM261.977 96.8182V99.4034H253.824V96.8182H261.977ZM255.837 93.4205H259.179V106.734C259.179 107.184 259.247 107.528 259.382 107.768C259.524 108.002 259.709 108.162 259.936 108.249C260.164 108.335 260.416 108.378 260.693 108.378C260.903 108.378 261.093 108.362 261.266 108.332C261.444 108.301 261.58 108.273 261.672 108.249L262.235 110.862C262.057 110.923 261.801 110.991 261.469 111.065C261.143 111.138 260.743 111.182 260.269 111.194C259.432 111.219 258.677 111.092 258.007 110.815C257.336 110.532 256.803 110.095 256.409 109.504C256.021 108.913 255.831 108.175 255.837 107.288V93.4205ZM270.898 111.277C269.476 111.277 268.248 110.982 267.214 110.391C266.186 109.794 265.395 108.95 264.841 107.861C264.287 106.765 264.01 105.476 264.01 103.992C264.01 102.533 264.287 101.253 264.841 100.151C265.401 99.0433 266.183 98.1816 267.186 97.5661C268.19 96.9444 269.368 96.6335 270.723 96.6335C271.597 96.6335 272.422 96.7751 273.197 97.0582C273.979 97.3352 274.668 97.7661 275.265 98.3509C275.868 98.9356 276.342 99.6804 276.687 100.585C277.032 101.484 277.204 102.555 277.204 103.798V104.823H265.58V102.57H274C273.994 101.93 273.856 101.361 273.585 100.862C273.314 100.357 272.935 99.9605 272.449 99.6712C271.969 99.3819 271.409 99.2372 270.769 99.2372C270.086 99.2372 269.485 99.4034 268.968 99.7358C268.451 100.062 268.048 100.493 267.759 101.028C267.476 101.558 267.331 102.139 267.325 102.773V104.74C267.325 105.565 267.476 106.273 267.777 106.864C268.079 107.448 268.501 107.898 269.042 108.212C269.584 108.519 270.218 108.673 270.944 108.673C271.431 108.673 271.871 108.606 272.265 108.47C272.658 108.329 273 108.122 273.289 107.852C273.579 107.581 273.797 107.245 273.945 106.845L277.066 107.196C276.869 108.021 276.493 108.741 275.939 109.357C275.391 109.966 274.69 110.44 273.834 110.778C272.979 111.111 272 111.277 270.898 111.277Z" fill="white"/>
</svg>
