<svg width="498" height="159" viewBox="0 0 498 159" fill="none" xmlns="http://www.w3.org/2000/svg">
<path d="M3.03906 124.307L50.0886 97.8398L106.076 129.745L59.1548 156.803L3.03906 124.307Z" fill="#3B495C"/>
<path d="M106.076 129.746V131.944L59.1543 159.001V156.803L106.076 129.746Z" fill="#233143"/>
<path d="M3.03906 124.307V126.505L59.1548 159V156.802L3.03906 124.307Z" fill="#233143"/>
<path d="M50.6332 73.3633L10.4199 96.1934V123.15L50.6332 100.027V73.3633Z" fill="#C6C3C1"/>
<path d="M12.7361 96.6875L11.123 97.6014V124.563L12.7361 123.635V96.6875Z" fill="#FBAD32"/>
<path opacity="0.5" d="M23.3063 104.168L11.9277 110.712V113.609L25.8424 105.612L23.3063 104.168Z" fill="white"/>
<path opacity="0.5" d="M26.8843 106.201L11.9277 114.801V115.642L27.62 106.617L26.8843 106.201Z" fill="white"/>
<path opacity="0.5" d="M11.9277 97.7109V98.666L12.764 98.1862L11.9277 97.7109Z" fill="white"/>
<path opacity="0.5" d="M11.9277 124.096L30.1973 134.597V108.083L30.1105 108.033L11.9277 118.484V124.096Z" fill="white"/>
<path opacity="0.5" d="M28.141 106.914L11.9277 116.236V117.89L29.585 107.737L28.141 106.914Z" fill="white"/>
<path d="M41.8172 99.0491V98.4551L27.6191 106.617L28.1401 106.914L41.8172 99.0491Z" fill="white"/>
<path opacity="0.8" d="M27.62 106.617L11.9277 115.642V116.236L28.141 106.914L27.62 106.617Z" fill="white"/>
<path d="M41.9607 100.621L29.5859 107.736L30.1115 108.033L41.9607 101.215V100.621Z" fill="white"/>
<path opacity="0.8" d="M11.9277 117.89V118.484L30.1105 108.033L29.585 107.736L11.9277 117.89Z" fill="white"/>
<path d="M41.8174 97.6146V96.4219L25.8418 105.612L26.8837 106.201L41.8174 97.6146Z" fill="white"/>
<path opacity="0.8" d="M25.8424 105.611L11.9277 113.608V114.801L26.8843 106.201L25.8424 105.611Z" fill="white"/>
<path d="M35.6212 97.0848V85.0391L12.7637 98.1861L23.3059 104.168L35.6212 97.0848Z" fill="white"/>
<path opacity="0.8" d="M12.764 98.1855L11.9277 98.6654V110.711L23.3063 104.167L12.764 98.1855Z" fill="white"/>
<path d="M99.4047 102.445L59.1914 125.275V152.232L99.4047 129.109V102.445Z" fill="#FBAD32"/>
<path d="M40.5936 112.736L38.9805 113.655V140.611L40.5936 139.684V112.736Z" fill="#FBAD32"/>
<path d="M11.1511 97.999L9.69336 97.1719V123.767L11.1511 124.608V97.999Z" fill="#FBAD32"/>
<path d="M29.6621 108.51V135.252L38.9797 140.612V113.801L29.6621 108.51Z" fill="#FBAD32"/>
<path opacity="0.5" d="M53.5799 121.445L39.9531 129.282V130.119L54.3157 121.861L53.5799 121.445Z" fill="white"/>
<path opacity="0.5" d="M54.8366 122.158L39.9531 130.713V132.367L56.2852 122.976L54.8366 122.158Z" fill="white"/>
<path opacity="0.5" d="M50.0019 119.412L39.9531 125.188V128.09L52.538 120.852L50.0019 119.412Z" fill="white"/>
<path opacity="0.5" d="M39.9531 140.09L58.2182 150.591V124.078L56.8061 123.273L39.9531 132.966V140.09Z" fill="white"/>
<path opacity="0.8" d="M54.3157 121.861L39.9531 130.119V130.713L54.8366 122.158L54.3157 121.861Z" fill="white"/>
<path opacity="0.8" d="M39.9531 132.367V132.966L56.8061 123.274L56.2852 122.977L39.9531 132.367Z" fill="white"/>
<path opacity="0.8" d="M52.538 120.852L39.9531 128.09V129.283L53.5799 121.446L52.538 120.852Z" fill="white"/>
<path opacity="0.8" d="M39.9531 113.705V125.189L50.0019 119.413L39.9531 113.705Z" fill="white"/>
<path d="M49.1786 119.002L48.6074 118.678V145.059L49.1786 145.388V119.002Z" fill="#888D9A"/>
<path d="M57.2344 124.166V151.109L59.1902 152.233V125.276L57.2344 124.166Z" fill="#FBAD32"/>
<path d="M59.1906 125.889L56.1289 118.678L99.4038 93.8281V103.086L59.1906 125.889Z" fill="#BECCC6"/>
<path d="M99.4053 93.8271L53.4891 120.468L9.74805 95.687L55.5866 69L99.4053 93.8271Z" fill="white"/>
<path d="M93.9581 94.655L95.4707 93.7822L55.8241 70.8652L16.7441 93.5355L18.3618 94.4905L55.9292 72.6977L93.9581 94.655Z" fill="#7C8982"/>
<path d="M93.9569 94.6546L55.928 72.6973L23.4375 91.5427L61.4116 113.473L93.9569 94.6546Z" fill="#A2AAA6"/>
<path d="M56.3263 116.416L61.4123 113.473L23.4383 91.543L18.3613 94.4904L56.3263 116.416Z" fill="#8C9993"/>
<path d="M10.1502 88.498V89.1881L3.03516 93.2962V92.6062L10.1502 88.498Z" fill="#243954"/>
<path d="M10.1502 94.9648V95.6594L3.03516 99.7676V99.073L10.1502 94.9648Z" fill="#243954"/>
<path d="M8.7832 87.3145L58.2866 115.418V126.399L8.7832 97.9344V87.3145Z" fill="#243954"/>
<path d="M9.69257 86.8262L8.7832 87.3151L58.2866 115.419L59.1914 114.93L9.69257 86.8262Z" fill="#243954"/>
<path d="M58.2871 126.4L59.1919 125.911V114.93L58.2871 115.419V126.4Z" fill="#243954"/>
<path d="M31.8594 118.782L37.4572 122.012V120.152L31.8594 117.004V118.782Z" fill="white"/>
<path d="M54.2155 138.762L50.8613 136.842V130.879L54.2155 132.798V138.762Z" fill="#243954"/>
<path d="M53.8908 133.104L51.1855 131.555V131.92L53.8908 133.469V133.104Z" fill="white"/>
<path d="M53.8908 133.84L51.1855 132.291V132.661L53.8908 134.21V133.84Z" fill="white"/>
<path d="M51.3223 134.252C51.3223 133.731 51.5279 133.544 51.8112 133.708C52.0945 133.873 52.3002 134.298 52.3002 134.819C52.3002 135.344 52.0945 135.536 51.8112 135.372C51.5233 135.207 51.3223 134.778 51.3223 134.252ZM51.9894 134.641C51.9894 134.27 51.9072 134.097 51.8067 134.037C51.7061 133.978 51.6284 134.06 51.6284 134.43C51.6284 134.805 51.7107 134.983 51.8067 135.043C51.9072 135.097 51.9894 135.011 51.9894 134.641ZM51.8798 136.464L52.9399 134.362L53.1913 134.508L52.1357 136.615L51.8798 136.464ZM52.7663 136.139C52.7663 135.618 52.9765 135.431 53.2552 135.596C53.5386 135.76 53.7442 136.185 53.7442 136.706C53.7442 137.232 53.5386 137.423 53.2552 137.259C52.9719 137.094 52.7663 136.665 52.7663 136.139ZM53.438 136.528C53.438 136.153 53.3558 135.984 53.2598 135.925C53.1593 135.865 53.077 135.943 53.077 136.318C53.077 136.692 53.1593 136.871 53.2598 136.93C53.3558 136.985 53.438 136.903 53.438 136.528Z" fill="white"/>
<path d="M47.2188 130.316L45.2676 129.201V125.729L47.2188 126.844V130.316Z" fill="#243954"/>
<path d="M28.0859 127.395L21.1445 123.42V111.072L28.0859 115.048V127.395Z" fill="#243954"/>
<path d="M27.6697 117.278L21.7383 113.883V114.573L27.6697 117.968V117.278Z" fill="white"/>
<path d="M27.6697 116.04L21.7383 112.645V113.335L27.6697 116.73V116.04Z" fill="white"/>
<path d="M8.36203 87.2891L0.662109 91.6623V102.643L8.36203 98.2152V87.2891Z" fill="#243954"/>
<path d="M8.36203 92.123L0.662109 96.4962V97.1497L8.36203 92.7262V92.123Z" fill="white"/>
<path d="M8.36203 93.6035L0.662109 97.9721V98.6302L8.36203 94.2021V93.6035Z" fill="white"/>
<path d="M8.36203 95.0117L0.662109 99.3849V100.038L8.36203 95.6103V95.0117Z" fill="white"/>
<path d="M0 102.25L0.662605 102.643V91.6625L0 91.2695V102.25Z" fill="#243954"/>
<path d="M8.36253 87.2888L7.69992 86.9004L0 91.269L0.662605 91.662L8.36253 87.2888Z" fill="#243954"/>
<rect x="166" width="332" height="141" rx="18" fill="#006DB7"/>
<path d="M110 102L221.5 66.026L189.5 42L110 102Z" fill="#006DB7"/>
<rect x="191.048" y="49.5476" width="41.9048" height="41.9048" rx="20.9524" fill="#FFB600"/>
<rect x="191.048" y="49.5476" width="41.9048" height="41.9048" rx="20.9524" stroke="white" stroke-width="2.09524"/>
<path d="M200.375 78.8886C200.375 78.9261 200.379 78.9599 200.39 78.9936C200.39 79.0049 200.398 79.0161 200.401 79.0274C200.413 79.0574 200.431 79.0874 200.454 79.1136C200.458 79.1211 200.461 79.1249 200.465 79.1324C200.465 79.1324 200.469 79.1324 200.472 79.1361C200.499 79.1661 200.529 79.1924 200.566 79.2111C202.205 80.0699 206.255 81.5661 206.424 81.6261C206.439 81.6299 206.45 81.6299 206.465 81.6336C206.472 81.6336 206.48 81.6411 206.491 81.6449C206.589 81.6599 206.713 81.6674 206.855 81.6674C209.938 81.6674 222.789 78.0411 223.359 77.8799C223.531 77.8311 223.644 77.6624 223.621 77.4824C223.014 72.7236 221.375 64.9574 221.36 64.8786C221.36 64.8749 221.356 64.8711 221.356 64.8674C221.345 64.8299 221.33 64.7961 221.311 64.7624C221.308 64.7549 221.304 64.7474 221.3 64.7436C221.278 64.7099 221.244 64.6799 221.21 64.6574C221.195 64.6461 221.176 64.6386 221.157 64.6311C221.142 64.6236 221.128 64.6124 221.109 64.6086L217.625 63.5849C216.267 60.5474 214.318 59.0849 211.989 59.3586C211.501 59.4149 211.051 59.5499 210.642 59.7561C210.436 59.7186 210.222 59.6961 210.001 59.6924C208.899 59.6811 207.961 60.1161 207.226 60.9824C206.341 62.0136 205.786 63.6674 205.561 65.8911C203.615 66.2361 202.186 66.4799 202.164 66.4836C202.149 66.4836 202.141 66.4949 202.126 66.4986C202.119 66.4986 202.107 66.4986 202.1 66.4986C202.089 66.4986 202.081 66.5099 202.074 66.5174C202.044 66.5324 202.018 66.5474 201.995 66.5661C201.98 66.5774 201.969 66.5886 201.957 66.6036C201.935 66.6261 201.92 66.6524 201.905 66.6824C201.901 66.6936 201.89 66.7011 201.886 66.7124C201.159 68.6249 200.409 78.4461 200.379 78.8624V78.8661V78.8849L200.375 78.8886ZM206.533 66.4574C206.574 66.4499 206.615 66.4424 206.66 66.4349C207.151 66.3449 207.661 66.2549 208.182 66.1574C208.197 66.5436 208.227 66.9411 208.273 67.3536C206.499 67.6986 205.344 67.8899 204.837 67.9199L203.281 67.0274C204.054 66.8924 205.213 66.6936 206.536 66.4536L206.533 66.4574ZM208.16 65.4224C207.995 65.4524 207.83 65.4824 207.665 65.5124C207.823 64.3986 208.081 63.5099 208.422 62.8911C208.246 63.6261 208.156 64.4736 208.156 65.4224H208.16ZM203.416 76.9686L205.674 80.5724C204.504 80.1261 202.584 79.3761 201.38 78.8061L203.42 76.9724L203.416 76.9686ZM203.859 76.3049V68.2011L204.406 68.5161C204.552 69.9261 205.201 75.9861 205.749 79.3236L203.859 76.3086V76.3049ZM202.438 67.3874L203.131 67.7849V76.2486L201.17 78.0149C201.361 75.6749 201.905 69.4724 202.434 67.3874H202.438ZM206.806 80.9511C206.405 79.6761 205.606 73.0086 205.145 68.6286C205.76 68.5611 206.803 68.3849 208.351 68.0811C208.475 68.9549 208.621 69.6336 208.707 70.0049C208.831 70.4849 209.262 70.8224 209.757 70.8224C209.847 70.8224 209.938 70.8111 210.024 70.7886C210.597 70.6424 210.954 70.0574 210.811 69.4761C210.688 68.9774 210.568 68.3174 210.477 67.6499C212.142 67.3049 214.108 66.8849 216.331 66.3899C216.519 67.0536 216.68 67.7474 216.796 68.4111C216.796 68.4261 216.8 68.4374 216.804 68.4486C216.845 68.7336 216.995 68.9849 217.227 69.1574C217.46 69.3299 217.741 69.4049 218.03 69.3599C218.319 69.3186 218.57 69.1649 218.743 68.9324C218.915 68.6999 218.986 68.4149 218.945 68.1299C218.93 68.0211 218.791 67.1099 218.454 65.9099C219.481 65.6774 220.287 65.4936 220.722 65.3924C221.045 66.9449 222.305 73.1174 222.856 77.2649C218.761 78.4161 208.955 81.0261 206.802 80.9399L206.806 80.9511ZM211.805 61.6161C211.839 61.6049 211.869 61.5899 211.903 61.5824C212.007 61.5524 212.12 61.5261 212.236 61.5111C212.263 61.5111 212.292 61.5111 212.319 61.5074C212.911 62.1636 213.395 63.1049 213.755 64.3161C213.736 64.3199 213.714 64.3236 213.695 64.3311C213.523 64.3686 213.342 64.4061 213.159 64.4474C212.773 63.1799 212.236 62.2724 211.565 61.7286C211.58 61.7211 211.591 61.7136 211.602 61.7061C211.666 61.6724 211.734 61.6461 211.805 61.6199V61.6161ZM210.403 66.9261C210.365 66.5286 210.339 66.1349 210.331 65.7524C211.318 65.5611 212.199 65.3849 212.971 65.2236H212.979C213.069 65.2049 213.155 65.1861 213.245 65.1674C213.372 65.1411 213.492 65.1149 213.612 65.0886C213.627 65.0886 213.642 65.0811 213.657 65.0774C213.815 65.0436 213.969 65.0099 214.115 64.9761C214.171 64.9649 214.231 64.9499 214.287 64.9386C214.842 64.8149 215.319 64.7024 215.709 64.6011C215.851 64.9349 215.99 65.2986 216.118 65.6886C213.95 66.1724 212.03 66.5849 210.399 66.9224L210.403 66.9261ZM214.464 64.1586C214.171 63.1649 213.8 62.3286 213.35 61.6574C214.111 61.9724 214.801 62.7374 215.401 63.9336C215.127 64.0011 214.813 64.0761 214.46 64.1586H214.464ZM211.003 62.2424C211.003 62.2424 211.014 62.2311 211.017 62.2236C211.599 62.6474 212.086 63.4574 212.443 64.5936C211.805 64.7249 211.1 64.8636 210.328 65.0136C210.369 63.7799 210.597 62.8236 211.003 62.2424ZM218.24 65.2236C218.154 64.9611 218.068 64.7024 217.974 64.4511L219.575 64.9236C219.193 65.0099 218.743 65.1149 218.244 65.2274L218.24 65.2236ZM212.071 60.0861C212.229 60.0674 212.382 60.0599 212.536 60.0599C214.378 60.0599 215.885 61.3949 217.029 64.0386C217.257 64.5786 217.468 65.1599 217.651 65.7599C218.052 67.0874 218.21 68.1299 218.225 68.2461C218.24 68.3399 218.214 68.4336 218.157 68.5124C218.101 68.5874 218.019 68.6399 217.921 68.6511C217.827 68.6661 217.737 68.6399 217.659 68.5836C217.584 68.5274 217.535 68.4449 217.52 68.3474C217.52 68.3361 217.513 68.3061 217.513 68.2949C217.374 67.4886 217.175 66.6486 216.935 65.8574C216.721 65.1674 216.5 64.5711 216.249 64.0274C215.266 61.8674 214.01 60.7724 212.517 60.7724C212.499 60.7724 212.484 60.7724 212.465 60.7724C212.364 60.7649 212.255 60.7799 212.15 60.7911C211.554 60.8624 211.055 61.0986 210.68 61.4924C210.68 61.4924 210.68 61.4924 210.676 61.4961C210.579 61.5936 210.489 61.7061 210.403 61.8261C209.859 62.6099 209.585 63.8324 209.589 65.4561C209.589 66.0824 209.634 66.7386 209.712 67.4061C209.806 68.2049 209.953 69.0449 210.106 69.6486C210.151 69.8399 210.035 70.0311 209.847 70.0799C209.671 70.1249 209.461 70.0086 209.413 69.8099C209.341 69.4986 209.158 68.6624 209.023 67.6011C208.94 66.9374 208.895 66.3036 208.884 65.7149C208.85 64.0386 209.094 62.7111 209.604 61.7699C209.682 61.6236 209.746 61.5186 209.818 61.4174C209.889 61.3124 209.968 61.2149 210.046 61.1211C210.286 60.8436 210.564 60.6186 210.868 60.4499C211.227 60.2549 211.629 60.1274 212.071 60.0786V60.0861ZM207.774 61.4586C208.299 60.8399 208.944 60.4986 209.698 60.4349C209.653 60.4799 209.611 60.5286 209.566 60.5774C209.536 60.6111 209.506 60.6411 209.476 60.6749C209.386 60.7799 209.3 60.8924 209.217 61.0086C209.18 61.0611 209.142 61.1211 209.105 61.1811C209.094 61.1999 209.083 61.2186 209.071 61.2374C209.056 61.2636 209.041 61.2861 209.026 61.3124C208.715 61.4474 208.434 61.6611 208.182 61.9499C207.549 62.6924 207.121 63.9374 206.908 65.6549C206.758 65.6811 206.611 65.7074 206.461 65.7374C206.405 65.7486 206.349 65.7561 206.293 65.7674C206.51 63.8211 207.016 62.3399 207.77 61.4624L207.774 61.4586Z" fill="white"/>
<path d="M216.514 72.8254C216.158 72.5217 215.64 72.3567 214.984 72.3267L213.975 72.2854C213.645 72.2704 213.552 72.2104 213.54 72.2029C213.529 72.1954 213.507 72.1804 213.507 72.0979C213.507 72.0154 213.518 71.8879 213.668 71.7417C213.799 71.6142 214.005 71.5204 214.275 71.4717C214.515 71.4267 214.714 71.4117 214.868 71.4304C215.033 71.4492 215.19 71.4792 215.322 71.5204C215.558 71.5954 215.775 71.5992 215.967 71.5279C216.15 71.4604 216.297 71.3442 216.402 71.1867C216.499 71.0442 216.555 70.8867 216.574 70.7142C216.593 70.5304 216.559 70.3579 216.473 70.1967C216.383 70.0242 216.24 69.8967 216.072 69.8254C215.82 69.6979 215.532 69.6154 215.213 69.5817C215.13 69.5742 215.052 69.5667 214.969 69.5629L214.958 69.3904C214.943 69.1467 214.842 68.9404 214.658 68.7942C214.474 68.6479 214.249 68.5954 214.009 68.6367C213.777 68.6779 213.578 68.7942 213.432 68.9779C213.285 69.1617 213.21 69.3754 213.222 69.6042L213.233 69.8854C212.978 69.9904 212.745 70.1217 212.543 70.2754C212.198 70.5342 211.924 70.8454 211.729 71.2054C211.527 71.5804 211.425 71.9892 211.425 72.4204C211.425 73.0129 211.605 73.4854 211.954 73.8192C212.299 74.1492 212.809 74.3292 213.469 74.3592L214.5 74.4042C214.718 74.4117 214.838 74.4379 214.902 74.4642C214.984 74.4942 215.003 74.5204 215.007 74.5242C215.025 74.5542 215.04 74.5954 215.044 74.6517C215.052 74.7342 215.033 74.8092 214.995 74.8842C214.954 74.9592 214.875 75.0379 214.759 75.1092C214.624 75.1954 214.433 75.2629 214.185 75.3117C213.837 75.3829 213.54 75.3979 213.304 75.3642C213.057 75.3267 212.865 75.2817 212.734 75.2292C212.415 75.1092 212.172 75.1692 212.022 75.2404C211.834 75.3304 211.68 75.4692 211.568 75.6567C211.463 75.8329 211.399 76.0242 211.38 76.2267C211.362 76.4367 211.392 76.6354 211.47 76.8229C211.564 77.0442 211.74 77.2054 211.969 77.2879C212.22 77.3892 212.524 77.4604 212.892 77.5092C213.079 77.5354 213.282 77.5392 213.503 77.5317L213.514 77.8242C213.525 78.1092 213.627 78.3529 213.814 78.5292C213.972 78.6792 214.17 78.7579 214.384 78.7579C214.448 78.7579 214.512 78.7504 214.575 78.7392C214.842 78.6829 215.063 78.5292 215.217 78.2892C215.359 78.0679 215.427 77.8204 215.408 77.5542L215.382 77.0967C215.674 76.9579 215.937 76.7854 216.162 76.5904C216.51 76.2904 216.777 75.9304 216.953 75.5217C217.129 75.1167 217.197 74.6742 217.155 74.2129C217.103 73.6167 216.885 73.1554 216.51 72.8367L216.514 72.8254ZM216.289 75.2179C216.154 75.5254 215.955 75.7954 215.689 76.0242C215.464 76.2192 215.187 76.3842 214.872 76.5117C214.725 76.5717 214.635 76.7142 214.647 76.8679L214.688 77.5767C214.695 77.6892 214.669 77.7867 214.609 77.8767C214.545 77.9742 214.478 77.9967 214.429 78.0079C214.358 78.0229 214.335 78.0042 214.317 77.9854C214.287 77.9592 214.249 77.9067 214.242 77.7829L214.219 77.1117C214.219 77.0104 214.17 76.9129 214.092 76.8492C214.024 76.7929 213.942 76.7629 213.855 76.7629C213.84 76.7629 213.825 76.7629 213.81 76.7629C213.495 76.8004 213.222 76.8042 212.989 76.7742C212.685 76.7329 212.434 76.6729 212.228 76.5942C212.164 76.5717 212.149 76.5454 212.138 76.5192C212.108 76.4479 212.097 76.3654 212.104 76.2754C212.112 76.1817 212.138 76.0992 212.187 76.0204C212.228 75.9529 212.273 75.9117 212.333 75.8817C212.363 75.8667 212.412 75.8704 212.464 75.8929C212.644 75.9642 212.884 76.0242 213.192 76.0692C213.51 76.1179 213.889 76.0992 214.32 76.0129C214.658 75.9454 214.928 75.8479 215.138 75.7129C215.363 75.5704 215.528 75.4017 215.629 75.2142C215.73 75.0192 215.775 74.8129 215.76 74.5954C215.749 74.4079 215.693 74.2392 215.595 74.1004C215.494 73.9504 215.337 73.8417 215.134 73.7704C214.969 73.7104 214.763 73.6804 214.515 73.6729L213.488 73.6279C213.012 73.6092 212.659 73.4929 212.445 73.2904C212.243 73.0954 212.142 72.8104 212.142 72.4167C212.142 72.1017 212.213 71.8167 212.359 71.5467C212.505 71.2767 212.708 71.0479 212.97 70.8492C213.18 70.6917 213.428 70.5642 213.713 70.4704C213.867 70.4179 213.968 70.2754 213.96 70.1142L213.942 69.5704C213.942 69.5179 213.957 69.4729 213.994 69.4279C214.032 69.3829 214.073 69.3567 214.129 69.3492C214.178 69.3417 214.189 69.3492 214.2 69.3567C214.212 69.3679 214.227 69.3754 214.227 69.4242L214.257 69.9454C214.268 70.1442 214.44 70.2979 214.639 70.2867C214.819 70.2754 214.973 70.2792 215.13 70.2979C215.359 70.3204 215.562 70.3804 215.753 70.4742C215.809 70.4967 215.82 70.5229 215.828 70.5342C215.847 70.5679 215.854 70.6017 215.847 70.6392C215.843 70.6917 215.824 70.7367 215.794 70.7817C215.779 70.8042 215.757 70.8267 215.708 70.8492C215.697 70.8529 215.652 70.8642 215.539 70.8304C215.355 70.7742 215.157 70.7367 214.943 70.7142C214.718 70.6917 214.455 70.7067 214.144 70.7629C213.728 70.8379 213.398 70.9954 213.162 71.2242C212.903 71.4754 212.772 71.7867 212.779 72.1204C212.79 72.4879 212.97 72.6942 213.117 72.7992C213.3 72.9304 213.559 72.9979 213.942 73.0167L214.95 73.0579C215.445 73.0804 215.813 73.1929 216.045 73.3879C216.27 73.5792 216.402 73.8679 216.435 74.2729C216.465 74.6179 216.417 74.9292 216.289 75.2254V75.2179Z" fill="white"/>
<path d="M262.141 35.2891C262.055 34.4827 261.692 33.8549 261.052 33.4055C260.418 32.9562 259.593 32.7315 258.577 32.7315C257.863 32.7315 257.251 32.8393 256.74 33.0547C256.229 33.2701 255.838 33.5625 255.567 33.9318C255.297 34.3011 255.158 34.7228 255.152 35.1967C255.152 35.5907 255.241 35.9323 255.42 36.2216C255.604 36.5109 255.854 36.7571 256.168 36.9602C256.482 37.1572 256.829 37.3234 257.211 37.4588C257.593 37.5942 257.977 37.7081 258.365 37.8004L260.138 38.2436C260.852 38.4098 261.538 38.6345 262.197 38.9176C262.862 39.2008 263.455 39.5578 263.979 39.9886C264.508 40.4195 264.927 40.9396 265.234 41.549C265.542 42.1584 265.696 42.8724 265.696 43.6911C265.696 44.799 265.413 45.7746 264.847 46.6179C264.28 47.455 263.462 48.1106 262.391 48.5845C261.326 49.0523 260.036 49.2862 258.522 49.2862C257.051 49.2862 255.774 49.0585 254.69 48.603C253.613 48.1475 252.77 47.4827 252.161 46.6087C251.557 45.7346 251.231 44.6697 251.182 43.4141H254.552C254.601 44.0727 254.804 44.6205 255.161 45.0575C255.518 45.4946 255.983 45.8208 256.555 46.0362C257.134 46.2517 257.78 46.3594 258.494 46.3594C259.239 46.3594 259.892 46.2486 260.452 46.027C261.018 45.7992 261.461 45.4853 261.781 45.0852C262.101 44.679 262.264 44.205 262.271 43.6634C262.264 43.1709 262.12 42.7647 261.837 42.4446C261.554 42.1184 261.156 41.8475 260.646 41.6321C260.141 41.4105 259.55 41.2135 258.873 41.0412L256.722 40.4872C255.164 40.0871 253.933 39.4808 253.028 38.6683C252.13 37.8497 251.68 36.7633 251.68 35.4091C251.68 34.295 251.982 33.3194 252.585 32.4822C253.195 31.6451 254.022 30.9957 255.069 30.5341C256.115 30.0663 257.3 29.8324 258.624 29.8324C259.965 29.8324 261.141 30.0663 262.151 30.5341C263.166 30.9957 263.963 31.639 264.542 32.4638C265.121 33.2824 265.419 34.2242 265.438 35.2891H262.141ZM272.683 49.2862C271.784 49.2862 270.975 49.1262 270.255 48.8061C269.541 48.4799 268.974 47.9998 268.556 47.3658C268.144 46.7318 267.937 45.95 267.937 45.0206C267.937 44.2204 268.085 43.5587 268.381 43.0355C268.676 42.5123 269.079 42.0938 269.59 41.7798C270.101 41.4659 270.676 41.2289 271.317 41.0689C271.963 40.9027 272.631 40.7827 273.32 40.7088C274.151 40.6226 274.825 40.5457 275.342 40.478C275.859 40.4041 276.235 40.2933 276.469 40.1456C276.709 39.9917 276.829 39.7547 276.829 39.4347V39.3793C276.829 38.6837 276.622 38.1451 276.21 37.7635C275.798 37.3819 275.204 37.1911 274.428 37.1911C273.609 37.1911 272.96 37.3696 272.48 37.7266C272.006 38.0836 271.686 38.5052 271.52 38.9915L268.399 38.5483C268.645 37.6866 269.051 36.9664 269.618 36.3878C270.184 35.803 270.876 35.366 271.695 35.0767C272.514 34.7812 273.419 34.6335 274.41 34.6335C275.093 34.6335 275.773 34.7135 276.45 34.8736C277.127 35.0336 277.746 35.2983 278.306 35.6676C278.866 36.0308 279.315 36.5263 279.654 37.1541C279.999 37.782 280.171 38.5668 280.171 39.5085V49H276.958V47.0518H276.847C276.644 47.4458 276.358 47.8151 275.988 48.1598C275.625 48.4983 275.167 48.7723 274.613 48.9815C274.065 49.1847 273.422 49.2862 272.683 49.2862ZM273.551 46.8303C274.222 46.8303 274.804 46.6979 275.296 46.4332C275.788 46.1624 276.167 45.8054 276.432 45.3622C276.702 44.919 276.838 44.4358 276.838 43.9126V42.2415C276.733 42.3277 276.555 42.4077 276.302 42.4815C276.056 42.5554 275.779 42.62 275.471 42.6754C275.164 42.7308 274.859 42.7801 274.557 42.8232C274.256 42.8662 273.994 42.9032 273.773 42.9339C273.274 43.0017 272.828 43.1125 272.434 43.2663C272.04 43.4202 271.729 43.6357 271.501 43.9126C271.273 44.1835 271.16 44.5343 271.16 44.9652C271.16 45.5807 271.384 46.0455 271.834 46.3594C272.283 46.6733 272.855 46.8303 273.551 46.8303ZM286.874 30.0909V49H283.532V30.0909H286.874ZM294.392 49.2862C293.493 49.2862 292.684 49.1262 291.964 48.8061C291.25 48.4799 290.683 47.9998 290.265 47.3658C289.853 46.7318 289.646 45.95 289.646 45.0206C289.646 44.2204 289.794 43.5587 290.089 43.0355C290.385 42.5123 290.788 42.0938 291.299 41.7798C291.81 41.4659 292.385 41.2289 293.026 41.0689C293.672 40.9027 294.34 40.7827 295.029 40.7088C295.86 40.6226 296.534 40.5457 297.051 40.478C297.568 40.4041 297.944 40.2933 298.178 40.1456C298.418 39.9917 298.538 39.7547 298.538 39.4347V39.3793C298.538 38.6837 298.331 38.1451 297.919 37.7635C297.507 37.3819 296.913 37.1911 296.137 37.1911C295.318 37.1911 294.669 37.3696 294.189 37.7266C293.715 38.0836 293.395 38.5052 293.229 38.9915L290.108 38.5483C290.354 37.6866 290.76 36.9664 291.327 36.3878C291.893 35.803 292.585 35.366 293.404 35.0767C294.223 34.7812 295.128 34.6335 296.119 34.6335C296.802 34.6335 297.482 34.7135 298.159 34.8736C298.836 35.0336 299.455 35.2983 300.015 35.6676C300.575 36.0308 301.024 36.5263 301.363 37.1541C301.708 37.782 301.88 38.5668 301.88 39.5085V49H298.667V47.0518H298.556C298.353 47.4458 298.067 47.8151 297.697 48.1598C297.334 48.4983 296.876 48.7723 296.322 48.9815C295.774 49.1847 295.131 49.2862 294.392 49.2862ZM295.26 46.8303C295.931 46.8303 296.513 46.6979 297.005 46.4332C297.497 46.1624 297.876 45.8054 298.141 45.3622C298.411 44.919 298.547 44.4358 298.547 43.9126V42.2415C298.442 42.3277 298.264 42.4077 298.011 42.4815C297.765 42.5554 297.488 42.62 297.18 42.6754C296.873 42.7308 296.568 42.7801 296.266 42.8232C295.965 42.8662 295.703 42.9032 295.482 42.9339C294.983 43.0017 294.537 43.1125 294.143 43.2663C293.749 43.4202 293.438 43.6357 293.21 43.9126C292.982 44.1835 292.869 44.5343 292.869 44.9652C292.869 45.5807 293.093 46.0455 293.543 46.3594C293.992 46.6733 294.564 46.8303 295.26 46.8303ZM316.953 49.2493C315.839 49.2493 314.842 48.9631 313.961 48.3906C313.081 47.8182 312.386 46.9872 311.875 45.8977C311.364 44.8082 311.108 43.4848 311.108 41.9276C311.108 40.3518 311.367 39.0223 311.884 37.9389C312.407 36.8494 313.112 36.0277 313.998 35.4737C314.885 34.9136 315.873 34.6335 316.962 34.6335C317.793 34.6335 318.476 34.7751 319.012 35.0582C319.547 35.3352 319.972 35.6707 320.286 36.0646C320.6 36.4524 320.843 36.8187 321.015 37.1634H321.154V30.0909H324.505V49H321.218V46.7656H321.015C320.843 47.1103 320.594 47.4766 320.267 47.8643C319.941 48.246 319.51 48.5722 318.975 48.843C318.439 49.1139 317.765 49.2493 316.953 49.2493ZM317.885 46.5071C318.593 46.5071 319.196 46.3163 319.695 45.9347C320.194 45.5469 320.572 45.0083 320.831 44.3189C321.089 43.6295 321.218 42.8262 321.218 41.9091C321.218 40.992 321.089 40.1948 320.831 39.5178C320.578 38.8407 320.203 38.3144 319.704 37.9389C319.212 37.5634 318.605 37.3757 317.885 37.3757C317.141 37.3757 316.519 37.5696 316.02 37.9574C315.522 38.3452 315.146 38.8807 314.894 39.5639C314.641 40.2472 314.515 41.0289 314.515 41.9091C314.515 42.7955 314.641 43.5864 314.894 44.282C315.152 44.9714 315.531 45.5161 316.029 45.9162C316.534 46.3101 317.153 46.5071 317.885 46.5071ZM334.345 49.277C332.923 49.277 331.695 48.9815 330.661 48.3906C329.633 47.7936 328.843 46.9503 328.289 45.8608C327.735 44.7652 327.458 43.4756 327.458 41.9922C327.458 40.5334 327.735 39.2531 328.289 38.1513C328.849 37.0433 329.63 36.1816 330.634 35.5661C331.637 34.9444 332.816 34.6335 334.17 34.6335C335.044 34.6335 335.869 34.7751 336.644 35.0582C337.426 35.3352 338.115 35.7661 338.713 36.3509C339.316 36.9356 339.79 37.6804 340.134 38.5852C340.479 39.4839 340.651 40.5549 340.651 41.7983V42.8232H329.027V40.5703H337.448C337.441 39.9302 337.303 39.3608 337.032 38.8622C336.761 38.3575 336.383 37.9605 335.896 37.6712C335.416 37.3819 334.856 37.2372 334.216 37.2372C333.533 37.2372 332.933 37.4034 332.416 37.7358C331.899 38.062 331.495 38.4929 331.206 39.0284C330.923 39.5578 330.778 40.1394 330.772 40.7734V42.7401C330.772 43.5649 330.923 44.2727 331.225 44.8636C331.526 45.4484 331.948 45.8977 332.49 46.2116C333.031 46.5194 333.665 46.6733 334.392 46.6733C334.878 46.6733 335.318 46.6056 335.712 46.4702C336.106 46.3286 336.447 46.1224 336.737 45.8516C337.026 45.5807 337.244 45.2453 337.392 44.8452L340.513 45.196C340.316 46.0208 339.941 46.741 339.387 47.3565C338.839 47.9659 338.137 48.4399 337.281 48.7784C336.426 49.1108 335.447 49.277 334.345 49.277ZM352.606 30.0909L357.527 44.9744H357.721L362.633 30.0909H366.4L359.734 49H355.505L348.848 30.0909H352.606ZM373.498 49.277C372.076 49.277 370.848 48.9815 369.814 48.3906C368.786 47.7936 367.995 46.9503 367.441 45.8608C366.887 44.7652 366.61 43.4756 366.61 41.9922C366.61 40.5334 366.887 39.2531 367.441 38.1513C368.001 37.0433 368.783 36.1816 369.786 35.5661C370.789 34.9444 371.968 34.6335 373.322 34.6335C374.196 34.6335 375.021 34.7751 375.797 35.0582C376.578 35.3352 377.268 35.7661 377.865 36.3509C378.468 36.9356 378.942 37.6804 379.287 38.5852C379.631 39.4839 379.804 40.5549 379.804 41.7983V42.8232H368.18V40.5703H376.6C376.594 39.9302 376.455 39.3608 376.184 38.8622C375.914 38.3575 375.535 37.9605 375.049 37.6712C374.569 37.3819 374.009 37.2372 373.368 37.2372C372.685 37.2372 372.085 37.4034 371.568 37.7358C371.051 38.062 370.648 38.4929 370.358 39.0284C370.075 39.5578 369.931 40.1394 369.925 40.7734V42.7401C369.925 43.5649 370.075 44.2727 370.377 44.8636C370.679 45.4484 371.1 45.8977 371.642 46.2116C372.184 46.5194 372.818 46.6733 373.544 46.6733C374.03 46.6733 374.47 46.6056 374.864 46.4702C375.258 46.3286 375.6 46.1224 375.889 45.8516C376.178 45.5807 376.397 45.2453 376.545 44.8452L379.665 45.196C379.468 46.0208 379.093 46.741 378.539 47.3565C377.991 47.9659 377.289 48.4399 376.434 48.7784C375.578 49.1108 374.599 49.277 373.498 49.277ZM385.974 40.6903V49H382.631V34.8182H385.826V37.228H385.992C386.318 36.4339 386.839 35.803 387.553 35.3352C388.273 34.8674 389.162 34.6335 390.221 34.6335C391.2 34.6335 392.052 34.8428 392.778 35.2614C393.511 35.6799 394.077 36.2862 394.477 37.0803C394.884 37.8743 395.084 38.8376 395.077 39.9702V49H391.735V40.4872C391.735 39.5393 391.489 38.7976 390.996 38.2621C390.51 37.7266 389.836 37.4588 388.974 37.4588C388.39 37.4588 387.87 37.5881 387.414 37.8466C386.965 38.099 386.611 38.4652 386.352 38.9453C386.1 39.4254 385.974 40.0071 385.974 40.6903ZM405.557 34.8182V37.4034H397.404V34.8182H405.557ZM399.417 31.4205H402.759V44.7344C402.759 45.1837 402.827 45.5284 402.962 45.7685C403.104 46.0024 403.289 46.1624 403.516 46.2486C403.744 46.3348 403.996 46.3778 404.273 46.3778C404.483 46.3778 404.674 46.3625 404.846 46.3317C405.024 46.3009 405.16 46.2732 405.252 46.2486L405.815 48.8615C405.637 48.9231 405.381 48.9908 405.049 49.0646C404.723 49.1385 404.323 49.1816 403.849 49.1939C403.012 49.2185 402.258 49.0923 401.587 48.8153C400.916 48.5322 400.383 48.0952 399.989 47.5043C399.602 46.9134 399.411 46.1747 399.417 45.2884V31.4205ZM412.433 49.2862C411.534 49.2862 410.725 49.1262 410.005 48.8061C409.291 48.4799 408.724 47.9998 408.306 47.3658C407.894 46.7318 407.687 45.95 407.687 45.0206C407.687 44.2204 407.835 43.5587 408.131 43.0355C408.426 42.5123 408.829 42.0938 409.34 41.7798C409.851 41.4659 410.426 41.2289 411.067 41.0689C411.713 40.9027 412.381 40.7827 413.07 40.7088C413.901 40.6226 414.575 40.5457 415.092 40.478C415.609 40.4041 415.985 40.2933 416.219 40.1456C416.459 39.9917 416.579 39.7547 416.579 39.4347V39.3793C416.579 38.6837 416.372 38.1451 415.96 37.7635C415.548 37.3819 414.954 37.1911 414.178 37.1911C413.359 37.1911 412.71 37.3696 412.23 37.7266C411.756 38.0836 411.436 38.5052 411.27 38.9915L408.149 38.5483C408.395 37.6866 408.801 36.9664 409.368 36.3878C409.934 35.803 410.626 35.366 411.445 35.0767C412.264 34.7812 413.169 34.6335 414.16 34.6335C414.843 34.6335 415.523 34.7135 416.2 34.8736C416.877 35.0336 417.496 35.2983 418.056 35.6676C418.616 36.0308 419.065 36.5263 419.404 37.1541C419.749 37.782 419.921 38.5668 419.921 39.5085V49H416.708V47.0518H416.597C416.394 47.4458 416.108 47.8151 415.738 48.1598C415.375 48.4983 414.917 48.7723 414.363 48.9815C413.815 49.1847 413.172 49.2862 412.433 49.2862ZM413.301 46.8303C413.972 46.8303 414.554 46.6979 415.046 46.4332C415.538 46.1624 415.917 45.8054 416.182 45.3622C416.452 44.919 416.588 44.4358 416.588 43.9126V42.2415C416.483 42.3277 416.305 42.4077 416.052 42.4815C415.806 42.5554 415.529 42.62 415.221 42.6754C414.914 42.7308 414.609 42.7801 414.307 42.8232C414.006 42.8662 413.744 42.9032 413.523 42.9339C413.024 43.0017 412.578 43.1125 412.184 43.2663C411.79 43.4202 411.479 43.6357 411.251 43.9126C411.023 44.1835 410.91 44.5343 410.91 44.9652C410.91 45.5807 411.134 46.0455 411.584 46.3594C412.033 46.6733 412.605 46.8303 413.301 46.8303ZM434.491 38.5668L431.444 38.8991C431.358 38.5914 431.207 38.3021 430.991 38.0312C430.782 37.7604 430.499 37.5419 430.142 37.3757C429.785 37.2095 429.348 37.1264 428.831 37.1264C428.135 37.1264 427.55 37.2772 427.077 37.5788C426.609 37.8804 426.378 38.2713 426.384 38.7514C426.378 39.1638 426.529 39.4993 426.836 39.7578C427.15 40.0163 427.667 40.2287 428.388 40.3949L430.807 40.9119C432.148 41.2012 433.146 41.6598 433.798 42.2876C434.457 42.9155 434.789 43.7372 434.795 44.7528C434.789 45.6454 434.528 46.4332 434.01 47.1165C433.5 47.7936 432.789 48.3229 431.878 48.7045C430.967 49.0862 429.92 49.277 428.738 49.277C427.003 49.277 425.605 48.9138 424.547 48.1875C423.488 47.455 422.857 46.4363 422.654 45.1314L425.913 44.8175C426.061 45.4576 426.375 45.9408 426.855 46.267C427.335 46.5933 427.96 46.7564 428.729 46.7564C429.523 46.7564 430.16 46.5933 430.64 46.267C431.127 45.9408 431.37 45.5376 431.37 45.0575C431.37 44.6513 431.213 44.3158 430.899 44.0511C430.591 43.7865 430.111 43.5833 429.459 43.4418L427.04 42.9339C425.679 42.6508 424.673 42.1738 424.02 41.5028C423.368 40.8258 423.045 39.9702 423.051 38.9361C423.045 38.062 423.282 37.3049 423.762 36.6648C424.248 36.0185 424.922 35.5199 425.784 35.169C426.652 34.812 427.652 34.6335 428.785 34.6335C430.447 34.6335 431.755 34.9875 432.709 35.6953C433.669 36.4032 434.263 37.3603 434.491 38.5668ZM251.865 80V61.0909H255.29V69.7791H255.521L262.898 61.0909H267.081L259.768 69.576L267.146 80H263.028L257.386 71.8935L255.29 74.3679V80H251.865ZM269.461 61.0909H273.653L279.266 74.7926H279.488L285.101 61.0909H289.293V80H286.006V67.0092H285.831L280.605 79.9446H278.149L272.923 66.9815H272.748V80H269.461V61.0909ZM306.979 61.0909V80H303.553V64.424H303.443L299.02 67.2493V64.1101L303.72 61.0909H306.979ZM318.345 60.8324C319.249 60.8385 320.13 60.9986 320.985 61.3125C321.847 61.6203 322.623 62.125 323.312 62.8267C324.001 63.5223 324.549 64.4548 324.955 65.6243C325.362 66.7938 325.565 68.2403 325.565 69.9638C325.571 71.5888 325.399 73.0414 325.048 74.3217C324.703 75.5959 324.208 76.6731 323.561 77.5533C322.915 78.4335 322.136 79.1044 321.225 79.5661C320.314 80.0277 319.289 80.2585 318.151 80.2585C316.957 80.2585 315.898 80.0246 314.975 79.5568C314.057 79.089 313.316 78.4489 312.749 77.6364C312.183 76.8239 311.835 75.8944 311.706 74.848H315.076C315.249 75.599 315.599 76.196 316.129 76.6392C316.664 77.0762 317.338 77.2947 318.151 77.2947C319.462 77.2947 320.471 76.7254 321.179 75.5866C321.887 74.4479 322.241 72.866 322.241 70.8409H322.112C321.81 71.3826 321.419 71.8504 320.939 72.2443C320.459 72.6321 319.914 72.9306 319.305 73.1399C318.702 73.3492 318.061 73.4538 317.384 73.4538C316.276 73.4538 315.279 73.1892 314.393 72.6598C313.513 72.1304 312.814 71.4041 312.297 70.4808C311.786 69.5575 311.528 68.5019 311.521 67.3139C311.521 66.0829 311.805 64.978 312.371 63.9993C312.943 63.0144 313.74 62.2389 314.762 61.6726C315.784 61.1001 316.978 60.8201 318.345 60.8324ZM318.354 63.6023C317.689 63.6023 317.089 63.7654 316.553 64.0916C316.024 64.4117 315.606 64.8487 315.298 65.4027C314.996 65.9505 314.845 66.563 314.845 67.2401C314.852 67.911 315.002 68.5204 315.298 69.0682C315.599 69.616 316.009 70.05 316.526 70.37C317.049 70.6901 317.646 70.8501 318.317 70.8501C318.816 70.8501 319.28 70.7547 319.711 70.5639C320.142 70.3731 320.517 70.1084 320.838 69.7699C321.164 69.4252 321.416 69.0343 321.595 68.5973C321.779 68.1603 321.869 67.6986 321.862 67.2124C321.862 66.5661 321.709 65.969 321.401 65.4212C321.099 64.8733 320.684 64.4332 320.154 64.1009C319.631 63.7685 319.031 63.6023 318.354 63.6023ZM328.824 80L336.866 64.0824V63.9531H327.531V61.0909H340.411V64.0178L332.379 80H328.824ZM342.237 80.2031C341.677 80.2031 341.197 80.0062 340.797 79.6122C340.397 79.2183 340.2 78.7382 340.206 78.1719C340.2 77.6179 340.397 77.1439 340.797 76.75C341.197 76.3561 341.677 76.1591 342.237 76.1591C342.779 76.1591 343.25 76.3561 343.65 76.75C344.056 77.1439 344.262 77.6179 344.268 78.1719C344.262 78.5473 344.164 78.889 343.973 79.1967C343.788 79.5045 343.542 79.7507 343.234 79.9354C342.933 80.1139 342.6 80.2031 342.237 80.2031ZM354.028 80.2585C352.797 80.2585 351.695 80.0277 350.722 79.5661C349.75 79.0982 348.977 78.4581 348.405 77.6456C347.839 76.8331 347.537 75.9036 347.5 74.8572H350.824C350.885 75.6328 351.221 76.2668 351.83 76.7592C352.44 77.2455 353.172 77.4886 354.028 77.4886C354.699 77.4886 355.296 77.3348 355.819 77.027C356.342 76.7192 356.754 76.2914 357.056 75.7436C357.358 75.1958 357.505 74.571 357.499 73.8693C357.505 73.1553 357.355 72.5213 357.047 71.9673C356.739 71.4134 356.317 70.9794 355.782 70.6655C355.246 70.3454 354.631 70.1854 353.935 70.1854C353.369 70.1792 352.812 70.2839 352.264 70.4993C351.716 70.7147 351.282 70.9979 350.962 71.3487L347.869 70.8409L348.857 61.0909H359.826V63.9531H351.692L351.147 68.9666H351.258C351.609 68.5542 352.104 68.2126 352.744 67.9418C353.384 67.6648 354.086 67.5263 354.849 67.5263C355.994 67.5263 357.016 67.7971 357.915 68.3388C358.813 68.8743 359.521 69.6129 360.038 70.5547C360.555 71.4964 360.814 72.5736 360.814 73.7862C360.814 75.0357 360.525 76.1499 359.946 77.1286C359.374 78.1011 358.576 78.8674 357.555 79.4276C356.539 79.9815 355.363 80.2585 354.028 80.2585ZM372.969 80H369.313L375.97 61.0909H380.199L386.865 80H383.208L378.158 64.9688H378.01L372.969 80ZM373.089 72.5859H383.061V75.3374H373.089V72.5859ZM392.55 71.6903V80H389.208V65.8182H392.402V68.228H392.568C392.895 67.4339 393.415 66.803 394.129 66.3352C394.849 65.8674 395.738 65.6335 396.797 65.6335C397.776 65.6335 398.628 65.8428 399.355 66.2614C400.087 66.6799 400.653 67.2862 401.053 68.0803C401.46 68.8743 401.66 69.8376 401.654 70.9702V80H398.311V71.4872C398.311 70.5393 398.065 69.7976 397.573 69.2621C397.086 68.7266 396.412 68.4588 395.551 68.4588C394.966 68.4588 394.446 68.5881 393.99 68.8466C393.541 69.099 393.187 69.4652 392.928 69.9453C392.676 70.4254 392.55 71.0071 392.55 71.6903ZM412.133 65.8182V68.4034H403.98V65.8182H412.133ZM405.993 62.4205H409.335V75.7344C409.335 76.1837 409.403 76.5284 409.539 76.7685C409.68 77.0024 409.865 77.1624 410.093 77.2486C410.32 77.3348 410.573 77.3778 410.85 77.3778C411.059 77.3778 411.25 77.3625 411.422 77.3317C411.601 77.3009 411.736 77.2732 411.828 77.2486L412.392 79.8615C412.213 79.9231 411.958 79.9908 411.625 80.0646C411.299 80.1385 410.899 80.1816 410.425 80.1939C409.588 80.2185 408.834 80.0923 408.163 79.8153C407.492 79.5322 406.959 79.0952 406.566 78.5043C406.178 77.9134 405.987 77.1747 405.993 76.2884V62.4205ZM414.928 80V65.8182H418.271V80H414.928ZM416.609 63.8054C416.079 63.8054 415.624 63.63 415.242 63.2791C414.861 62.9221 414.67 62.4943 414.67 61.9957C414.67 61.491 414.861 61.0632 415.242 60.7124C415.624 60.3553 416.079 60.1768 416.609 60.1768C417.144 60.1768 417.6 60.3553 417.975 60.7124C418.357 61.0632 418.548 61.491 418.548 61.9957C418.548 62.4943 418.357 62.9221 417.975 63.2791C417.6 63.63 417.144 63.8054 416.609 63.8054ZM427.875 85.6136C426.675 85.6136 425.644 85.4505 424.782 85.1243C423.92 84.8042 423.228 84.3733 422.705 83.8317C422.182 83.29 421.818 82.6899 421.615 82.0312L424.625 81.3018C424.761 81.5788 424.958 81.8527 425.216 82.1236C425.475 82.4006 425.822 82.6283 426.259 82.8068C426.703 82.9915 427.26 83.0838 427.931 83.0838C428.878 83.0838 429.663 82.853 430.285 82.3913C430.907 81.9358 431.218 81.1849 431.218 80.1385V77.4517H431.051C430.879 77.7964 430.627 78.1503 430.294 78.5135C429.968 78.8767 429.534 79.1813 428.992 79.4276C428.457 79.6738 427.783 79.7969 426.97 79.7969C425.881 79.7969 424.893 79.5414 424.007 79.0305C423.126 78.5135 422.425 77.7441 421.901 76.7223C421.384 75.6944 421.126 74.4079 421.126 72.8629C421.126 71.3056 421.384 69.9915 421.901 68.9205C422.425 67.8433 423.129 67.0277 424.016 66.4737C424.902 65.9136 425.89 65.6335 426.98 65.6335C427.811 65.6335 428.494 65.7751 429.029 66.0582C429.571 66.3352 430.002 66.6707 430.322 67.0646C430.642 67.4524 430.885 67.8187 431.051 68.1634H431.236V65.8182H434.532V80.2308C434.532 81.4434 434.243 82.4467 433.664 83.2408C433.086 84.0348 432.295 84.6288 431.291 85.0227C430.288 85.4167 429.149 85.6136 427.875 85.6136ZM427.903 77.1747C428.611 77.1747 429.214 77.0024 429.713 76.6577C430.211 76.313 430.59 75.8175 430.848 75.1712C431.107 74.5249 431.236 73.7493 431.236 72.8445C431.236 71.9519 431.107 71.1702 430.848 70.4993C430.596 69.8284 430.22 69.3082 429.722 68.9389C429.229 68.5634 428.623 68.3757 427.903 68.3757C427.158 68.3757 426.536 68.5696 426.038 68.9574C425.539 69.3452 425.164 69.8776 424.911 70.5547C424.659 71.2256 424.533 71.9889 424.533 72.8445C424.533 73.7124 424.659 74.4725 424.911 75.125C425.17 75.7713 425.548 76.276 426.047 76.6392C426.552 76.9962 427.17 77.1747 427.903 77.1747ZM446.997 74.0355V65.8182H450.339V80H447.098V77.4794H446.95C446.63 78.2734 446.104 78.9228 445.372 79.4276C444.645 79.9323 443.75 80.1847 442.685 80.1847C441.755 80.1847 440.934 79.9785 440.22 79.5661C439.512 79.1475 438.958 78.5412 438.558 77.7472C438.158 76.947 437.958 75.9806 437.958 74.848V65.8182H441.3V74.331C441.3 75.2296 441.546 75.9437 442.039 76.473C442.531 77.0024 443.177 77.267 443.977 77.267C444.47 77.267 444.947 77.147 445.409 76.907C445.87 76.6669 446.249 76.3099 446.544 75.8359C446.846 75.3558 446.997 74.7557 446.997 74.0355ZM457.857 80.2862C456.958 80.2862 456.149 80.1262 455.429 79.8061C454.715 79.4799 454.148 78.9998 453.73 78.3658C453.317 77.7318 453.111 76.95 453.111 76.0206C453.111 75.2204 453.259 74.5587 453.554 74.0355C453.85 73.5123 454.253 73.0938 454.764 72.7798C455.275 72.4659 455.85 72.2289 456.49 72.0689C457.137 71.9027 457.805 71.7827 458.494 71.7088C459.325 71.6226 459.999 71.5457 460.516 71.478C461.033 71.4041 461.408 71.2933 461.642 71.1456C461.882 70.9917 462.002 70.7547 462.002 70.4347V70.3793C462.002 69.6837 461.796 69.1451 461.384 68.7635C460.971 68.3819 460.377 68.1911 459.602 68.1911C458.783 68.1911 458.134 68.3696 457.654 68.7266C457.18 69.0836 456.86 69.5052 456.694 69.9915L453.573 69.5483C453.819 68.6866 454.225 67.9664 454.792 67.3878C455.358 66.803 456.05 66.366 456.869 66.0767C457.688 65.7812 458.592 65.6335 459.583 65.6335C460.267 65.6335 460.947 65.7135 461.624 65.8736C462.301 66.0336 462.92 66.2983 463.48 66.6676C464.04 67.0308 464.489 67.5263 464.828 68.1541C465.172 68.782 465.345 69.5668 465.345 70.5085V80H462.132V78.0518H462.021C461.818 78.4458 461.532 78.8151 461.162 79.1598C460.799 79.4983 460.341 79.7723 459.787 79.9815C459.239 80.1847 458.596 80.2862 457.857 80.2862ZM458.725 77.8303C459.396 77.8303 459.977 77.6979 460.47 77.4332C460.962 77.1624 461.341 76.8054 461.605 76.3622C461.876 75.919 462.012 75.4358 462.012 74.9126V73.2415C461.907 73.3277 461.729 73.4077 461.476 73.4815C461.23 73.5554 460.953 73.62 460.645 73.6754C460.337 73.7308 460.033 73.7801 459.731 73.8232C459.43 73.8662 459.168 73.9032 458.946 73.9339C458.448 74.0017 458.002 74.1125 457.608 74.2663C457.214 74.4202 456.903 74.6357 456.675 74.9126C456.447 75.1835 456.333 75.5343 456.333 75.9652C456.333 76.5807 456.558 77.0455 457.007 77.3594C457.457 77.6733 458.029 77.8303 458.725 77.8303ZM251.865 111V92.0909H258.956C260.409 92.0909 261.627 92.3617 262.612 92.9034C263.603 93.4451 264.351 94.1899 264.856 95.1378C265.367 96.0795 265.622 97.1506 265.622 98.3509C265.622 99.5634 265.367 100.641 264.856 101.582C264.345 102.524 263.591 103.266 262.594 103.808C261.597 104.343 260.369 104.611 258.91 104.611H254.21V101.795H258.448C259.298 101.795 259.993 101.647 260.535 101.352C261.076 101.056 261.477 100.65 261.735 100.133C262 99.6158 262.132 99.0218 262.132 98.3509C262.132 97.6799 262 97.089 261.735 96.5781C261.477 96.0672 261.073 95.6702 260.526 95.3871C259.984 95.0978 259.285 94.9531 258.43 94.9531H255.29V111H251.865ZM272.277 111.286C271.378 111.286 270.569 111.126 269.849 110.806C269.135 110.48 268.568 110 268.15 109.366C267.737 108.732 267.531 107.95 267.531 107.021C267.531 106.22 267.679 105.559 267.974 105.036C268.27 104.512 268.673 104.094 269.184 103.78C269.695 103.466 270.27 103.229 270.91 103.069C271.557 102.903 272.224 102.783 272.914 102.709C273.745 102.623 274.419 102.546 274.936 102.478C275.453 102.404 275.828 102.293 276.062 102.146C276.302 101.992 276.422 101.755 276.422 101.435V101.379C276.422 100.684 276.216 100.145 275.804 99.7635C275.391 99.3819 274.797 99.1911 274.022 99.1911C273.203 99.1911 272.554 99.3696 272.074 99.7266C271.6 100.084 271.28 100.505 271.113 100.991L267.993 100.548C268.239 99.6866 268.645 98.9664 269.211 98.3878C269.778 97.803 270.47 97.366 271.289 97.0767C272.108 96.7812 273.012 96.6335 274.003 96.6335C274.687 96.6335 275.367 96.7135 276.044 96.8736C276.721 97.0336 277.34 97.2983 277.9 97.6676C278.46 98.0308 278.909 98.5263 279.248 99.1541C279.592 99.782 279.765 100.567 279.765 101.509V111H276.552V109.052H276.441C276.238 109.446 275.952 109.815 275.582 110.16C275.219 110.498 274.76 110.772 274.206 110.982C273.659 111.185 273.015 111.286 272.277 111.286ZM273.145 108.83C273.816 108.83 274.397 108.698 274.89 108.433C275.382 108.162 275.761 107.805 276.025 107.362C276.296 106.919 276.432 106.436 276.432 105.913V104.241C276.327 104.328 276.148 104.408 275.896 104.482C275.65 104.555 275.373 104.62 275.065 104.675C274.757 104.731 274.453 104.78 274.151 104.823C273.849 104.866 273.588 104.903 273.366 104.934C272.868 105.002 272.421 105.112 272.028 105.266C271.634 105.42 271.323 105.636 271.095 105.913C270.867 106.183 270.753 106.534 270.753 106.965C270.753 107.581 270.978 108.045 271.427 108.359C271.877 108.673 272.449 108.83 273.145 108.83ZM286.468 102.69V111H283.126V96.8182H286.32V99.228H286.486C286.813 98.4339 287.333 97.803 288.047 97.3352C288.767 96.8674 289.656 96.6335 290.715 96.6335C291.694 96.6335 292.546 96.8428 293.273 97.2614C294.005 97.6799 294.571 98.2862 294.971 99.0803C295.378 99.8743 295.578 100.838 295.572 101.97V111H292.229V102.487C292.229 101.539 291.983 100.798 291.491 100.262C291.004 99.7266 290.33 99.4588 289.469 99.4588C288.884 99.4588 288.364 99.5881 287.908 99.8466C287.459 100.099 287.105 100.465 286.846 100.945C286.594 101.425 286.468 102.007 286.468 102.69ZM303.05 111.286C302.152 111.286 301.342 111.126 300.622 110.806C299.908 110.48 299.342 110 298.923 109.366C298.511 108.732 298.305 107.95 298.305 107.021C298.305 106.22 298.452 105.559 298.748 105.036C299.043 104.512 299.446 104.094 299.957 103.78C300.468 103.466 301.044 103.229 301.684 103.069C302.33 102.903 302.998 102.783 303.687 102.709C304.518 102.623 305.192 102.546 305.709 102.478C306.226 102.404 306.602 102.293 306.836 102.146C307.076 101.992 307.196 101.755 307.196 101.435V101.379C307.196 100.684 306.99 100.145 306.577 99.7635C306.165 99.3819 305.571 99.1911 304.795 99.1911C303.977 99.1911 303.327 99.3696 302.847 99.7266C302.373 100.084 302.053 100.505 301.887 100.991L298.766 100.548C299.012 99.6866 299.419 98.9664 299.985 98.3878C300.551 97.803 301.244 97.366 302.062 97.0767C302.881 96.7812 303.786 96.6335 304.777 96.6335C305.46 96.6335 306.14 96.7135 306.817 96.8736C307.494 97.0336 308.113 97.2983 308.673 97.6676C309.233 98.0308 309.683 98.5263 310.021 99.1541C310.366 99.782 310.538 100.567 310.538 101.509V111H307.325V109.052H307.214C307.011 109.446 306.725 109.815 306.356 110.16C305.992 110.498 305.534 110.772 304.98 110.982C304.432 111.185 303.789 111.286 303.05 111.286ZM303.918 108.83C304.589 108.83 305.171 108.698 305.663 108.433C306.156 108.162 306.534 107.805 306.799 107.362C307.07 106.919 307.205 106.436 307.205 105.913V104.241C307.1 104.328 306.922 104.408 306.67 104.482C306.423 104.555 306.146 104.62 305.839 104.675C305.531 104.731 305.226 104.78 304.925 104.823C304.623 104.866 304.361 104.903 304.14 104.934C303.641 105.002 303.195 105.112 302.801 105.266C302.407 105.42 302.096 105.636 301.868 105.913C301.641 106.183 301.527 106.534 301.527 106.965C301.527 107.581 301.751 108.045 302.201 108.359C302.65 108.673 303.223 108.83 303.918 108.83ZM313.899 111V96.8182H317.094V99.228H317.26C317.555 98.4155 318.045 97.7815 318.728 97.326C319.411 96.8643 320.227 96.6335 321.175 96.6335C322.135 96.6335 322.944 96.8674 323.603 97.3352C324.268 97.7969 324.735 98.4278 325.006 99.228H325.154C325.468 98.4401 325.997 97.8123 326.742 97.3445C327.493 96.8705 328.382 96.6335 329.41 96.6335C330.715 96.6335 331.78 97.0459 332.605 97.8707C333.43 98.6955 333.842 99.8989 333.842 101.481V111H330.491V101.998C330.491 101.118 330.257 100.474 329.789 100.068C329.321 99.6558 328.749 99.4496 328.072 99.4496C327.265 99.4496 326.634 99.7019 326.179 100.207C325.729 100.705 325.505 101.355 325.505 102.155V111H322.227V101.859C322.227 101.127 322.006 100.542 321.562 100.105C321.125 99.6681 320.553 99.4496 319.845 99.4496C319.365 99.4496 318.928 99.5727 318.534 99.8189C318.14 100.059 317.826 100.401 317.592 100.844C317.358 101.281 317.241 101.792 317.241 102.376V111H313.899ZM343.511 111.277C342.089 111.277 340.862 110.982 339.827 110.391C338.799 109.794 338.009 108.95 337.455 107.861C336.901 106.765 336.624 105.476 336.624 103.992C336.624 102.533 336.901 101.253 337.455 100.151C338.015 99.0433 338.796 98.1816 339.8 97.5661C340.803 96.9444 341.982 96.6335 343.336 96.6335C344.21 96.6335 345.035 96.7751 345.81 97.0582C346.592 97.3352 347.281 97.7661 347.879 98.3509C348.482 98.9356 348.956 99.6804 349.3 100.585C349.645 101.484 349.817 102.555 349.817 103.798V104.823H338.193V102.57H346.614C346.607 101.93 346.469 101.361 346.198 100.862C345.927 100.357 345.549 99.9605 345.062 99.6712C344.582 99.3819 344.022 99.2372 343.382 99.2372C342.699 99.2372 342.099 99.4034 341.582 99.7358C341.065 100.062 340.661 100.493 340.372 101.028C340.089 101.558 339.944 102.139 339.938 102.773V104.74C339.938 105.565 340.089 106.273 340.391 106.864C340.692 107.448 341.114 107.898 341.656 108.212C342.197 108.519 342.831 108.673 343.558 108.673C344.044 108.673 344.484 108.606 344.878 108.47C345.272 108.329 345.613 108.122 345.903 107.852C346.192 107.581 346.411 107.245 346.558 106.845L349.679 107.196C349.482 108.021 349.107 108.741 348.553 109.357C348.005 109.966 347.303 110.44 346.447 110.778C345.592 111.111 344.613 111.277 343.511 111.277ZM352.645 111V96.8182H355.886V99.1818H356.034C356.292 98.3632 356.735 97.7322 357.363 97.2891C357.997 96.8397 358.72 96.6151 359.533 96.6151C359.718 96.6151 359.924 96.6243 360.151 96.6428C360.385 96.6551 360.579 96.6766 360.733 96.7074V99.782C360.592 99.7327 360.367 99.6896 360.059 99.6527C359.758 99.6096 359.465 99.5881 359.182 99.5881C358.573 99.5881 358.025 99.7204 357.539 99.9851C357.058 100.244 356.68 100.604 356.403 101.065C356.126 101.527 355.987 102.059 355.987 102.663V111H352.645ZM363.388 111.203C362.827 111.203 362.347 111.006 361.947 110.612C361.547 110.218 361.35 109.738 361.356 109.172C361.35 108.618 361.547 108.144 361.947 107.75C362.347 107.356 362.827 107.159 363.388 107.159C363.929 107.159 364.4 107.356 364.8 107.75C365.206 108.144 365.413 108.618 365.419 109.172C365.413 109.547 365.314 109.889 365.123 110.197C364.939 110.504 364.693 110.751 364.385 110.935C364.083 111.114 363.751 111.203 363.388 111.203ZM390.422 92.0909V111H387.375L378.465 98.12H378.308V111H374.883V92.0909H377.948L386.849 104.98H387.015V92.0909H390.422ZM400.192 111.277C398.808 111.277 397.607 110.972 396.592 110.363C395.576 109.754 394.788 108.901 394.228 107.805C393.674 106.71 393.397 105.429 393.397 103.964C393.397 102.5 393.674 101.216 394.228 100.114C394.788 99.0125 395.576 98.157 396.592 97.5476C397.607 96.9382 398.808 96.6335 400.192 96.6335C401.577 96.6335 402.778 96.9382 403.793 97.5476C404.809 98.157 405.594 99.0125 406.148 100.114C406.708 101.216 406.988 102.5 406.988 103.964C406.988 105.429 406.708 106.71 406.148 107.805C405.594 108.901 404.809 109.754 403.793 110.363C402.778 110.972 401.577 111.277 400.192 111.277ZM400.211 108.599C400.962 108.599 401.59 108.393 402.094 107.981C402.599 107.562 402.975 107.002 403.221 106.3C403.473 105.599 403.599 104.817 403.599 103.955C403.599 103.087 403.473 102.303 403.221 101.601C402.975 100.893 402.599 100.33 402.094 99.9112C401.59 99.4927 400.962 99.2834 400.211 99.2834C399.442 99.2834 398.801 99.4927 398.29 99.9112C397.786 100.33 397.407 100.893 397.155 101.601C396.909 102.303 396.786 103.087 396.786 103.955C396.786 104.817 396.909 105.599 397.155 106.3C397.407 107.002 397.786 107.562 398.29 107.981C398.801 108.393 399.442 108.599 400.211 108.599ZM409.825 111V96.8182H413.066V99.1818H413.213C413.472 98.3632 413.915 97.7322 414.543 97.2891C415.177 96.8397 415.9 96.6151 416.713 96.6151C416.897 96.6151 417.103 96.6243 417.331 96.6428C417.565 96.6551 417.759 96.6766 417.913 96.7074V99.782C417.771 99.7327 417.547 99.6896 417.239 99.6527C416.937 99.6096 416.645 99.5881 416.362 99.5881C415.752 99.5881 415.204 99.7204 414.718 99.9851C414.238 100.244 413.86 100.604 413.583 101.065C413.306 101.527 413.167 102.059 413.167 102.663V111H409.825ZM427.977 96.8182V99.4034H419.824V96.8182H427.977ZM421.837 93.4205H425.179V106.734C425.179 107.184 425.247 107.528 425.382 107.768C425.524 108.002 425.709 108.162 425.936 108.249C426.164 108.335 426.416 108.378 426.693 108.378C426.903 108.378 427.093 108.362 427.266 108.332C427.444 108.301 427.58 108.273 427.672 108.249L428.235 110.862C428.057 110.923 427.801 110.991 427.469 111.065C427.143 111.138 426.743 111.182 426.269 111.194C425.432 111.219 424.677 111.092 424.007 110.815C423.336 110.532 422.803 110.095 422.409 109.504C422.021 108.913 421.831 108.175 421.837 107.288V93.4205ZM436.898 111.277C435.476 111.277 434.248 110.982 433.214 110.391C432.186 109.794 431.395 108.95 430.841 107.861C430.287 106.765 430.01 105.476 430.01 103.992C430.01 102.533 430.287 101.253 430.841 100.151C431.401 99.0433 432.183 98.1816 433.186 97.5661C434.19 96.9444 435.368 96.6335 436.723 96.6335C437.597 96.6335 438.422 96.7751 439.197 97.0582C439.979 97.3352 440.668 97.7661 441.265 98.3509C441.868 98.9356 442.342 99.6804 442.687 100.585C443.032 101.484 443.204 102.555 443.204 103.798V104.823H431.58V102.57H440C439.994 101.93 439.856 101.361 439.585 100.862C439.314 100.357 438.935 99.9605 438.449 99.6712C437.969 99.3819 437.409 99.2372 436.769 99.2372C436.086 99.2372 435.485 99.4034 434.968 99.7358C434.451 100.062 434.048 100.493 433.759 101.028C433.476 101.558 433.331 102.139 433.325 102.773V104.74C433.325 105.565 433.476 106.273 433.777 106.864C434.079 107.448 434.501 107.898 435.042 108.212C435.584 108.519 436.218 108.673 436.944 108.673C437.431 108.673 437.871 108.606 438.265 108.47C438.658 108.329 439 108.122 439.289 107.852C439.579 107.581 439.797 107.245 439.945 106.845L443.066 107.196C442.869 108.021 442.493 108.741 441.939 109.357C441.391 109.966 440.69 110.44 439.834 110.778C438.979 111.111 438 111.277 436.898 111.277Z" fill="white"/>
</svg>
