<svg width="512" height="167" viewBox="0 0 550 179" fill="none" xmlns="http://www.w3.org/2000/svg">
<rect x="132" width="418" height="92" rx="18" fill="#006DB7"/>
<path d="M76 102L187.5 66.026L155.5 42L76 102Z" fill="#006DB7"/>
<rect x="157.048" y="25.0476" width="41.9048" height="41.9048" rx="20.9524" fill="#0F7338"/>
<rect x="157.048" y="25.0476" width="41.9048" height="41.9048" rx="20.9524" stroke="white" stroke-width="2.09524"/>
<g clip-path="url(#clip0_146_41394)">
<path d="M168.769 46.6547C168.557 46.6311 168.346 46.7052 168.194 46.8563L166.206 48.845C165.855 49.196 165.969 49.7924 166.426 49.9883L169.782 51.4264L170.68 52.3251L169.189 53.8165C168.914 54.0912 168.914 54.5363 169.189 54.8108C169.463 55.0854 169.909 55.0854 170.183 54.8108L171.675 53.3194L172.573 54.2179L174.011 57.5736C174.207 58.0314 174.804 58.1447 175.155 57.7937L177.143 55.8052C177.294 55.6541 177.369 55.4427 177.345 55.2304L176.904 51.2583L179.071 49.2147L183.994 57.6511C184.226 58.0482 184.772 58.1202 185.098 57.7937L187.087 55.8052C187.256 55.6364 187.327 55.3936 187.277 55.1601L186.653 52.2612L188.081 50.8335C188.356 50.5591 188.356 50.1137 188.081 49.8393C187.806 49.5646 187.361 49.5646 187.087 49.8393L186.301 50.6246L185.589 47.3139C185.757 47.2262 185.704 47.2295 187.087 45.8619C187.361 45.5874 187.361 45.1423 187.087 44.8676C186.812 44.5931 186.367 44.5931 186.092 44.8676L185.245 45.7148L184.83 43.7838L188.918 39.9291C190.328 38.6041 190.367 36.3774 188.994 35.0052C187.626 33.6365 185.398 33.6691 184.072 35.0812L180.216 39.1699L178.285 38.7545L179.132 37.9074C179.407 37.6328 179.407 37.1876 179.132 36.9132C178.858 36.6385 178.412 36.6385 178.138 36.9132C176.776 38.2903 176.774 38.2425 176.686 38.4106L173.375 37.6985L174.161 36.9132C174.435 36.6385 174.435 36.1934 174.161 35.9187C173.886 35.6442 173.441 35.6442 173.166 35.9187L171.739 37.3464L168.84 36.7229C168.606 36.6727 168.363 36.7443 168.194 36.9132L166.206 38.9017C166.052 39.0559 165.978 39.2728 166.006 39.4891C166.034 39.7051 166.16 39.8963 166.349 40.0062L174.785 44.9289L172.741 47.096L168.769 46.6547ZM168.95 48.0895L171.534 48.3766L170.009 49.9938L167.934 49.1048L168.95 48.0895ZM175.91 55.0497L174.895 56.0652L174.006 53.991L175.623 52.4659L175.91 55.0497ZM185.822 55.0816L184.748 56.1546L180.121 48.2243L183.634 44.9114L185.822 55.0816ZM185.096 36.0449C185.877 35.2134 187.19 35.1898 188 35.9995C188.805 36.8042 188.792 38.1178 187.954 38.905L173.181 52.8365L172.669 52.3249L174.16 50.8335C174.435 50.5589 174.435 50.1137 174.16 49.8393C173.886 49.5646 173.441 49.5646 173.166 49.8393L171.675 51.3307L171.163 50.8193L185.096 36.0449ZM167.845 39.2512L168.918 38.1781L179.088 40.3656L175.775 43.8787L167.845 39.2512Z" fill="white"/>
</g>
<path d="M217.865 36.5909H222.057L227.67 50.2926H227.892L233.506 36.5909H237.697V55.5H234.411V42.5092H234.235L229.009 55.4446H226.553L221.327 42.4815H221.152V55.5H217.865V36.5909ZM247.558 55.777C246.136 55.777 244.908 55.4815 243.874 54.8906C242.846 54.2936 242.055 53.4503 241.501 52.3608C240.947 51.2652 240.67 49.9756 240.67 48.4922C240.67 47.0334 240.947 45.7531 241.501 44.6513C242.062 43.5433 242.843 42.6816 243.847 42.0661C244.85 41.4444 246.029 41.1335 247.383 41.1335C248.257 41.1335 249.082 41.2751 249.857 41.5582C250.639 41.8352 251.328 42.2661 251.925 42.8509C252.529 43.4356 253.003 44.1804 253.347 45.0852C253.692 45.9839 253.864 47.0549 253.864 48.2983V49.3232H242.24V47.0703H250.661C250.654 46.4302 250.516 45.8608 250.245 45.3622C249.974 44.8575 249.596 44.4605 249.109 44.1712C248.629 43.8819 248.069 43.7372 247.429 43.7372C246.746 43.7372 246.146 43.9034 245.629 44.2358C245.112 44.562 244.708 44.9929 244.419 45.5284C244.136 46.0578 243.991 46.6394 243.985 47.2734V49.2401C243.985 50.0649 244.136 50.7727 244.438 51.3636C244.739 51.9484 245.161 52.3977 245.702 52.7116C246.244 53.0194 246.878 53.1733 247.604 53.1733C248.091 53.1733 248.531 53.1056 248.925 52.9702C249.319 52.8286 249.66 52.6224 249.95 52.3516C250.239 52.0807 250.457 51.7453 250.605 51.3452L253.726 51.696C253.529 52.5208 253.153 53.241 252.599 53.8565C252.052 54.4659 251.35 54.9399 250.494 55.2784C249.639 55.6108 248.66 55.777 247.558 55.777ZM262.86 61.1136C261.659 61.1136 260.628 60.9505 259.767 60.6243C258.905 60.3042 258.212 59.8733 257.689 59.3317C257.166 58.79 256.803 58.1899 256.6 57.5312L259.61 56.8018C259.745 57.0788 259.942 57.3527 260.2 57.6236C260.459 57.9006 260.807 58.1283 261.244 58.3068C261.687 58.4915 262.244 58.5838 262.915 58.5838C263.863 58.5838 264.648 58.353 265.269 57.8913C265.891 57.4358 266.202 56.6849 266.202 55.6385V52.9517H266.036C265.863 53.2964 265.611 53.6503 265.279 54.0135C264.952 54.3767 264.518 54.6813 263.977 54.9276C263.441 55.1738 262.767 55.2969 261.955 55.2969C260.865 55.2969 259.877 55.0414 258.991 54.5305C258.111 54.0135 257.409 53.2441 256.886 52.2223C256.369 51.1944 256.11 49.9079 256.11 48.3629C256.11 46.8056 256.369 45.4915 256.886 44.4205C257.409 43.3433 258.114 42.5277 259 41.9737C259.887 41.4136 260.874 41.1335 261.964 41.1335C262.795 41.1335 263.478 41.2751 264.014 41.5582C264.555 41.8352 264.986 42.1707 265.306 42.5646C265.626 42.9524 265.869 43.3187 266.036 43.6634H266.22V41.3182H269.517V55.7308C269.517 56.9434 269.227 57.9467 268.649 58.7408C268.07 59.5348 267.279 60.1288 266.276 60.5227C265.272 60.9167 264.134 61.1136 262.86 61.1136ZM262.887 52.6747C263.595 52.6747 264.198 52.5024 264.697 52.1577C265.195 51.813 265.574 51.3175 265.833 50.6712C266.091 50.0249 266.22 49.2493 266.22 48.3445C266.22 47.4519 266.091 46.6702 265.833 45.9993C265.58 45.3284 265.205 44.8082 264.706 44.4389C264.214 44.0634 263.607 43.8757 262.887 43.8757C262.142 43.8757 261.521 44.0696 261.022 44.4574C260.524 44.8452 260.148 45.3776 259.896 46.0547C259.643 46.7256 259.517 47.4889 259.517 48.3445C259.517 49.2124 259.643 49.9725 259.896 50.625C260.154 51.2713 260.533 51.776 261.031 52.1392C261.536 52.4962 262.155 52.6747 262.887 52.6747ZM277.023 55.7862C276.124 55.7862 275.315 55.6262 274.595 55.3061C273.881 54.9799 273.314 54.4998 272.896 53.8658C272.483 53.2318 272.277 52.45 272.277 51.5206C272.277 50.7204 272.425 50.0587 272.72 49.5355C273.016 49.0123 273.419 48.5938 273.93 48.2798C274.441 47.9659 275.016 47.7289 275.656 47.5689C276.303 47.4027 276.971 47.2827 277.66 47.2088C278.491 47.1226 279.165 47.0457 279.682 46.978C280.199 46.9041 280.575 46.7933 280.808 46.6456C281.048 46.4917 281.169 46.2547 281.169 45.9347V45.8793C281.169 45.1837 280.962 44.6451 280.55 44.2635C280.137 43.8819 279.544 43.6911 278.768 43.6911C277.949 43.6911 277.3 43.8696 276.82 44.2266C276.346 44.5836 276.026 45.0052 275.86 45.4915L272.739 45.0483C272.985 44.1866 273.391 43.4664 273.958 42.8878C274.524 42.303 275.216 41.866 276.035 41.5767C276.854 41.2812 277.758 41.1335 278.749 41.1335C279.433 41.1335 280.113 41.2135 280.79 41.3736C281.467 41.5336 282.086 41.7983 282.646 42.1676C283.206 42.5308 283.655 43.0263 283.994 43.6541C284.338 44.282 284.511 45.0668 284.511 46.0085V55.5H281.298V53.5518H281.187C280.984 53.9458 280.698 54.3151 280.328 54.6598C279.965 54.9983 279.507 55.2723 278.953 55.4815C278.405 55.6847 277.762 55.7862 277.023 55.7862ZM277.891 53.3303C278.562 53.3303 279.143 53.1979 279.636 52.9332C280.128 52.6624 280.507 52.3054 280.771 51.8622C281.042 51.419 281.178 50.9358 281.178 50.4126V48.7415C281.073 48.8277 280.895 48.9077 280.642 48.9815C280.396 49.0554 280.119 49.12 279.811 49.1754C279.503 49.2308 279.199 49.2801 278.897 49.3232C278.596 49.3662 278.334 49.4032 278.112 49.4339C277.614 49.5017 277.168 49.6125 276.774 49.7663C276.38 49.9202 276.069 50.1357 275.841 50.4126C275.613 50.6835 275.499 51.0343 275.499 51.4652C275.499 52.0807 275.724 52.5455 276.173 52.8594C276.623 53.1733 277.195 53.3303 277.891 53.3303ZM287.872 60.8182V41.3182H291.159V43.6634H291.352C291.525 43.3187 291.768 42.9524 292.082 42.5646C292.396 42.1707 292.82 41.8352 293.356 41.5582C293.892 41.2751 294.575 41.1335 295.406 41.1335C296.501 41.1335 297.489 41.4136 298.369 41.9737C299.256 42.5277 299.958 43.3494 300.475 44.4389C300.998 45.5223 301.259 46.8518 301.259 48.4276C301.259 49.9848 301.004 51.3082 300.493 52.3977C299.982 53.4872 299.287 54.3182 298.406 54.8906C297.526 55.4631 296.529 55.7493 295.415 55.7493C294.602 55.7493 293.928 55.6139 293.393 55.343C292.857 55.0722 292.427 54.746 292.1 54.3643C291.78 53.9766 291.531 53.6103 291.352 53.2656H291.214V60.8182H287.872ZM291.149 48.4091C291.149 49.3262 291.279 50.1295 291.537 50.8189C291.802 51.5083 292.18 52.0469 292.673 52.4347C293.171 52.8163 293.775 53.0071 294.482 53.0071C295.221 53.0071 295.84 52.8101 296.338 52.4162C296.837 52.0161 297.212 51.4714 297.465 50.782C297.723 50.0864 297.852 49.2955 297.852 48.4091C297.852 47.5289 297.726 46.7472 297.474 46.0639C297.222 45.3807 296.846 44.8452 296.347 44.4574C295.849 44.0696 295.227 43.8757 294.482 43.8757C293.768 43.8757 293.162 44.0634 292.664 44.4389C292.165 44.8144 291.786 45.3407 291.528 46.0178C291.276 46.6948 291.149 47.492 291.149 48.4091ZM313.161 49.5355V41.3182H316.503V55.5H313.262V52.9794H313.115C312.794 53.7734 312.268 54.4228 311.536 54.9276C310.809 55.4323 309.914 55.6847 308.849 55.6847C307.919 55.6847 307.098 55.4785 306.384 55.0661C305.676 54.6475 305.122 54.0412 304.722 53.2472C304.322 52.447 304.122 51.4806 304.122 50.348V41.3182H307.464V49.831C307.464 50.7296 307.71 51.4437 308.203 51.973C308.695 52.5024 309.341 52.767 310.142 52.767C310.634 52.767 311.111 52.647 311.573 52.407C312.034 52.1669 312.413 51.8099 312.708 51.3359C313.01 50.8558 313.161 50.2557 313.161 49.5355ZM326.218 55.777C324.797 55.777 323.569 55.4815 322.534 54.8906C321.507 54.2936 320.716 53.4503 320.162 52.3608C319.608 51.2652 319.331 49.9756 319.331 48.4922C319.331 47.0334 319.608 45.7531 320.162 44.6513C320.722 43.5433 321.503 42.6816 322.507 42.0661C323.51 41.4444 324.689 41.1335 326.043 41.1335C326.917 41.1335 327.742 41.2751 328.517 41.5582C329.299 41.8352 329.989 42.2661 330.586 42.8509C331.189 43.4356 331.663 44.1804 332.007 45.0852C332.352 45.9839 332.525 47.0549 332.525 48.2983V49.3232H320.9V47.0703H329.321C329.315 46.4302 329.176 45.8608 328.905 45.3622C328.634 44.8575 328.256 44.4605 327.77 44.1712C327.289 43.8819 326.729 43.7372 326.089 43.7372C325.406 43.7372 324.806 43.9034 324.289 44.2358C323.772 44.562 323.368 44.9929 323.079 45.5284C322.796 46.0578 322.651 46.6394 322.645 47.2734V49.2401C322.645 50.0649 322.796 50.7727 323.098 51.3636C323.399 51.9484 323.821 52.3977 324.363 52.7116C324.904 53.0194 325.538 53.1733 326.265 53.1733C326.751 53.1733 327.191 53.1056 327.585 52.9702C327.979 52.8286 328.32 52.6224 328.61 52.3516C328.899 52.0807 329.118 51.7453 329.265 51.3452L332.386 51.696C332.189 52.5208 331.814 53.241 331.26 53.8565C330.712 54.4659 330.01 54.9399 329.154 55.2784C328.299 55.6108 327.32 55.777 326.218 55.777ZM335.352 55.5V41.3182H338.593V43.6818H338.741C338.999 42.8632 339.442 42.2322 340.07 41.7891C340.704 41.3397 341.427 41.1151 342.24 41.1151C342.425 41.1151 342.631 41.1243 342.858 41.1428C343.092 41.1551 343.286 41.1766 343.44 41.2074V44.282C343.299 44.2327 343.074 44.1896 342.766 44.1527C342.465 44.1096 342.172 44.0881 341.889 44.0881C341.28 44.0881 340.732 44.2204 340.246 44.4851C339.765 44.7436 339.387 45.1037 339.11 45.5653C338.833 46.027 338.694 46.5594 338.694 47.1626V55.5H335.352ZM353.504 41.3182V43.9034H345.351V41.3182H353.504ZM347.364 37.9205H350.706V51.2344C350.706 51.6837 350.774 52.0284 350.91 52.2685C351.051 52.5024 351.236 52.6624 351.464 52.7486C351.691 52.8348 351.944 52.8778 352.221 52.8778C352.43 52.8778 352.621 52.8625 352.793 52.8317C352.972 52.8009 353.107 52.7732 353.199 52.7486L353.763 55.3615C353.584 55.4231 353.329 55.4908 352.996 55.5646C352.67 55.6385 352.27 55.6816 351.796 55.6939C350.959 55.7185 350.205 55.5923 349.534 55.3153C348.863 55.0322 348.331 54.5952 347.937 54.0043C347.549 53.4134 347.358 52.6747 347.364 51.7884V37.9205ZM362.333 55.777C360.948 55.777 359.748 55.4723 358.732 54.8629C357.717 54.2536 356.929 53.401 356.369 52.3054C355.815 51.2098 355.538 49.9295 355.538 48.4645C355.538 46.9995 355.815 45.7161 356.369 44.6143C356.929 43.5125 357.717 42.657 358.732 42.0476C359.748 41.4382 360.948 41.1335 362.333 41.1335C363.718 41.1335 364.918 41.4382 365.934 42.0476C366.95 42.657 367.734 43.5125 368.288 44.6143C368.848 45.7161 369.129 46.9995 369.129 48.4645C369.129 49.9295 368.848 51.2098 368.288 52.3054C367.734 53.401 366.95 54.2536 365.934 54.8629C364.918 55.4723 363.718 55.777 362.333 55.777ZM362.352 53.0994C363.103 53.0994 363.73 52.8932 364.235 52.4808C364.74 52.0623 365.115 51.5021 365.362 50.8004C365.614 50.0987 365.74 49.317 365.74 48.4553C365.74 47.5874 365.614 46.8026 365.362 46.1009C365.115 45.393 364.74 44.8298 364.235 44.4112C363.73 43.9927 363.103 43.7834 362.352 43.7834C361.582 43.7834 360.942 43.9927 360.431 44.4112C359.926 44.8298 359.548 45.393 359.295 46.1009C359.049 46.8026 358.926 47.5874 358.926 48.4553C358.926 49.317 359.049 50.0987 359.295 50.8004C359.548 51.5021 359.926 52.0623 360.431 52.4808C360.942 52.8932 361.582 53.0994 362.352 53.0994ZM383.677 55.7493C382.563 55.7493 381.566 55.4631 380.686 54.8906C379.806 54.3182 379.11 53.4872 378.599 52.3977C378.088 51.3082 377.833 49.9848 377.833 48.4276C377.833 46.8518 378.091 45.5223 378.608 44.4389C379.132 43.3494 379.836 42.5277 380.723 41.9737C381.609 41.4136 382.597 41.1335 383.687 41.1335C384.518 41.1335 385.201 41.2751 385.736 41.5582C386.272 41.8352 386.697 42.1707 387.01 42.5646C387.324 42.9524 387.568 43.3187 387.74 43.6634H387.878V36.5909H391.23V55.5H387.943V53.2656H387.74C387.568 53.6103 387.318 53.9766 386.992 54.3643C386.666 54.746 386.235 55.0722 385.699 55.343C385.164 55.6139 384.49 55.7493 383.677 55.7493ZM384.61 53.0071C385.318 53.0071 385.921 52.8163 386.42 52.4347C386.918 52.0469 387.297 51.5083 387.555 50.8189C387.814 50.1295 387.943 49.3262 387.943 48.4091C387.943 47.492 387.814 46.6948 387.555 46.0178C387.303 45.3407 386.927 44.8144 386.429 44.4389C385.936 44.0634 385.33 43.8757 384.61 43.8757C383.865 43.8757 383.243 44.0696 382.745 44.4574C382.246 44.8452 381.871 45.3807 381.618 46.0639C381.366 46.7472 381.24 47.5289 381.24 48.4091C381.24 49.2955 381.366 50.0864 381.618 50.782C381.877 51.4714 382.256 52.0161 382.754 52.4162C383.259 52.8101 383.877 53.0071 384.61 53.0071ZM401.07 55.777C399.648 55.777 398.42 55.4815 397.386 54.8906C396.358 54.2936 395.567 53.4503 395.013 52.3608C394.459 51.2652 394.182 49.9756 394.182 48.4922C394.182 47.0334 394.459 45.7531 395.013 44.6513C395.573 43.5433 396.355 42.6816 397.358 42.0661C398.362 41.4444 399.54 41.1335 400.895 41.1335C401.769 41.1335 402.593 41.2751 403.369 41.5582C404.151 41.8352 404.84 42.2661 405.437 42.8509C406.04 43.4356 406.514 44.1804 406.859 45.0852C407.204 45.9839 407.376 47.0549 407.376 48.2983V49.3232H395.752V47.0703H404.172C404.166 46.4302 404.028 45.8608 403.757 45.3622C403.486 44.8575 403.107 44.4605 402.621 44.1712C402.141 43.8819 401.581 43.7372 400.941 43.7372C400.257 43.7372 399.657 43.9034 399.14 44.2358C398.623 44.562 398.22 44.9929 397.931 45.5284C397.648 46.0578 397.503 46.6394 397.497 47.2734V49.2401C397.497 50.0649 397.648 50.7727 397.949 51.3636C398.251 51.9484 398.672 52.3977 399.214 52.7116C399.756 53.0194 400.39 53.1733 401.116 53.1733C401.602 53.1733 402.042 53.1056 402.436 52.9702C402.83 52.8286 403.172 52.6224 403.461 52.3516C403.751 52.0807 403.969 51.7453 404.117 51.3452L407.238 51.696C407.041 52.5208 406.665 53.241 406.111 53.8565C405.563 54.4659 404.862 54.9399 404.006 55.2784C403.15 55.6108 402.172 55.777 401.07 55.777ZM432.986 42.9709H429.533C429.434 42.4046 429.253 41.9029 428.988 41.4659C428.723 41.0227 428.394 40.6473 428 40.3395C427.606 40.0317 427.157 39.8009 426.652 39.647C426.154 39.487 425.615 39.407 425.036 39.407C424.008 39.407 423.097 39.6655 422.303 40.1825C421.509 40.6934 420.888 41.4444 420.438 42.4354C419.989 43.4202 419.764 44.6236 419.764 46.0455C419.764 47.492 419.989 48.7107 420.438 49.7017C420.894 50.6866 421.516 51.4313 422.303 51.9361C423.097 52.4347 424.005 52.6839 425.027 52.6839C425.593 52.6839 426.123 52.6101 426.615 52.4624C427.114 52.3085 427.56 52.0838 427.954 51.7884C428.354 51.4929 428.69 51.1297 428.96 50.6989C429.237 50.268 429.428 49.7756 429.533 49.2216L432.986 49.2401C432.857 50.1387 432.577 50.982 432.146 51.7699C431.721 52.5578 431.164 53.2533 430.475 53.8565C429.785 54.4536 428.979 54.9214 428.056 55.2599C427.132 55.5923 426.107 55.7585 424.981 55.7585C423.319 55.7585 421.836 55.3738 420.531 54.6044C419.226 53.835 418.198 52.724 417.447 51.2713C416.696 49.8187 416.32 48.0767 416.32 46.0455C416.32 44.008 416.699 42.2661 417.456 40.8196C418.213 39.367 419.244 38.2559 420.549 37.4865C421.854 36.7171 423.331 36.3324 424.981 36.3324C426.034 36.3324 427.012 36.4801 427.917 36.7756C428.822 37.071 429.628 37.505 430.336 38.0774C431.044 38.6437 431.626 39.3393 432.081 40.1641C432.543 40.9827 432.844 41.9183 432.986 42.9709ZM439.317 47.1903V55.5H435.975V36.5909H439.244V43.728H439.41C439.742 42.9278 440.256 42.2969 440.952 41.8352C441.653 41.3674 442.546 41.1335 443.629 41.1335C444.614 41.1335 445.473 41.3397 446.205 41.7521C446.938 42.1645 447.504 42.7678 447.904 43.5618C448.31 44.3558 448.513 45.3253 448.513 46.4702V55.5H445.171V46.9872C445.171 46.0331 444.925 45.2914 444.433 44.7621C443.946 44.2266 443.263 43.9588 442.383 43.9588C441.792 43.9588 441.263 44.0881 440.795 44.3466C440.333 44.599 439.97 44.9652 439.705 45.4453C439.447 45.9254 439.317 46.5071 439.317 47.1903ZM456.001 55.7862C455.103 55.7862 454.293 55.6262 453.573 55.3061C452.859 54.9799 452.293 54.4998 451.874 53.8658C451.462 53.2318 451.256 52.45 451.256 51.5206C451.256 50.7204 451.403 50.0587 451.699 49.5355C451.994 49.0123 452.397 48.5938 452.908 48.2798C453.419 47.9659 453.995 47.7289 454.635 47.5689C455.281 47.4027 455.949 47.2827 456.638 47.2088C457.469 47.1226 458.143 47.0457 458.661 46.978C459.178 46.9041 459.553 46.7933 459.787 46.6456C460.027 46.4917 460.147 46.2547 460.147 45.9347V45.8793C460.147 45.1837 459.941 44.6451 459.528 44.2635C459.116 43.8819 458.522 43.6911 457.746 43.6911C456.928 43.6911 456.278 43.8696 455.798 44.2266C455.324 44.5836 455.004 45.0052 454.838 45.4915L451.717 45.0483C451.964 44.1866 452.37 43.4664 452.936 42.8878C453.502 42.303 454.195 41.866 455.013 41.5767C455.832 41.2812 456.737 41.1335 457.728 41.1335C458.411 41.1335 459.091 41.2135 459.768 41.3736C460.446 41.5336 461.064 41.7983 461.624 42.1676C462.184 42.5308 462.634 43.0263 462.972 43.6541C463.317 44.282 463.489 45.0668 463.489 46.0085V55.5H460.276V53.5518H460.165C459.962 53.9458 459.676 54.3151 459.307 54.6598C458.944 54.9983 458.485 55.2723 457.931 55.4815C457.383 55.6847 456.74 55.7862 456.001 55.7862ZM456.869 53.3303C457.54 53.3303 458.122 53.1979 458.614 52.9332C459.107 52.6624 459.485 52.3054 459.75 51.8622C460.021 51.419 460.156 50.9358 460.156 50.4126V48.7415C460.052 48.8277 459.873 48.9077 459.621 48.9815C459.375 49.0554 459.098 49.12 458.79 49.1754C458.482 49.2308 458.177 49.2801 457.876 49.3232C457.574 49.3662 457.313 49.4032 457.091 49.4339C456.592 49.5017 456.146 49.6125 455.752 49.7663C455.358 49.9202 455.047 50.1357 454.82 50.4126C454.592 50.6835 454.478 51.0343 454.478 51.4652C454.478 52.0807 454.703 52.5455 455.152 52.8594C455.601 53.1733 456.174 53.3303 456.869 53.3303ZM470.192 47.1903V55.5H466.85V41.3182H470.045V43.728H470.211C470.537 42.9339 471.057 42.303 471.771 41.8352C472.491 41.3674 473.381 41.1335 474.44 41.1335C475.418 41.1335 476.271 41.3428 476.997 41.7614C477.73 42.1799 478.296 42.7862 478.696 43.5803C479.102 44.3743 479.302 45.3376 479.296 46.4702V55.5H475.954V46.9872C475.954 46.0393 475.708 45.2976 475.215 44.7621C474.729 44.2266 474.055 43.9588 473.193 43.9588C472.608 43.9588 472.088 44.0881 471.633 44.3466C471.183 44.599 470.83 44.9652 470.571 45.4453C470.319 45.9254 470.192 46.5071 470.192 47.1903ZM488.88 55.777C487.464 55.777 486.249 55.4661 485.233 54.8445C484.223 54.2228 483.445 53.3641 482.897 52.2685C482.355 51.1667 482.085 49.8987 482.085 48.4645C482.085 47.0241 482.362 45.7531 482.915 44.6513C483.469 43.5433 484.251 42.6816 485.261 42.0661C486.276 41.4444 487.477 41.1335 488.862 41.1335C490.013 41.1335 491.031 41.3459 491.918 41.7706C492.81 42.1892 493.521 42.7831 494.05 43.5526C494.58 44.3158 494.881 45.2083 494.955 46.2301H491.761C491.631 45.5469 491.324 44.9775 490.837 44.522C490.357 44.0604 489.714 43.8295 488.908 43.8295C488.224 43.8295 487.624 44.0142 487.107 44.3835C486.59 44.7467 486.187 45.2699 485.898 45.9531C485.615 46.6364 485.473 47.455 485.473 48.4091C485.473 49.3755 485.615 50.2064 485.898 50.902C486.181 51.5914 486.578 52.1238 487.089 52.4993C487.606 52.8686 488.212 53.0533 488.908 53.0533C489.4 53.0533 489.84 52.9609 490.228 52.7763C490.622 52.5855 490.951 52.3116 491.216 51.9545C491.481 51.5975 491.662 51.1636 491.761 50.6527H494.955C494.875 51.656 494.58 52.5455 494.069 53.321C493.558 54.0904 492.862 54.6937 491.982 55.1307C491.102 55.5616 490.068 55.777 488.88 55.777ZM501.781 55.7862C500.882 55.7862 500.073 55.6262 499.352 55.3061C498.638 54.9799 498.072 54.4998 497.654 53.8658C497.241 53.2318 497.035 52.45 497.035 51.5206C497.035 50.7204 497.183 50.0587 497.478 49.5355C497.774 49.0123 498.177 48.5938 498.688 48.2798C499.199 47.9659 499.774 47.7289 500.414 47.5689C501.061 47.4027 501.728 47.2827 502.418 47.2088C503.249 47.1226 503.923 47.0457 504.44 46.978C504.957 46.9041 505.332 46.7933 505.566 46.6456C505.806 46.4917 505.926 46.2547 505.926 45.9347V45.8793C505.926 45.1837 505.72 44.6451 505.308 44.2635C504.895 43.8819 504.301 43.6911 503.526 43.6911C502.707 43.6911 502.058 43.8696 501.578 44.2266C501.104 44.5836 500.784 45.0052 500.617 45.4915L497.497 45.0483C497.743 44.1866 498.149 43.4664 498.715 42.8878C499.282 42.303 499.974 41.866 500.793 41.5767C501.611 41.2812 502.516 41.1335 503.507 41.1335C504.191 41.1335 504.871 41.2135 505.548 41.3736C506.225 41.5336 506.843 41.7983 507.404 42.1676C507.964 42.5308 508.413 43.0263 508.752 43.6541C509.096 44.282 509.269 45.0668 509.269 46.0085V55.5H506.056V53.5518H505.945C505.742 53.9458 505.455 54.3151 505.086 54.6598C504.723 54.9983 504.264 55.2723 503.71 55.4815C503.163 55.6847 502.519 55.7862 501.781 55.7862ZM502.649 53.3303C503.32 53.3303 503.901 53.1979 504.394 52.9332C504.886 52.6624 505.265 52.3054 505.529 51.8622C505.8 51.419 505.936 50.9358 505.936 50.4126V48.7415C505.831 48.8277 505.652 48.9077 505.4 48.9815C505.154 49.0554 504.877 49.12 504.569 49.1754C504.261 49.2308 503.957 49.2801 503.655 49.3232C503.353 49.3662 503.092 49.4032 502.87 49.4339C502.372 49.5017 501.925 49.6125 501.531 49.7663C501.137 49.9202 500.827 50.1357 500.599 50.4126C500.371 50.6835 500.257 51.0343 500.257 51.4652C500.257 52.0807 500.482 52.5455 500.931 52.8594C501.381 53.1733 501.953 53.3303 502.649 53.3303ZM514.199 60.8182C513.744 60.8182 513.322 60.7813 512.934 60.7074C512.552 60.6397 512.248 60.5597 512.02 60.4673L512.796 57.8636C513.282 58.0052 513.716 58.0729 514.097 58.0668C514.479 58.0606 514.815 57.9406 515.104 57.7067C515.399 57.4789 515.649 57.0973 515.852 56.5618L516.138 55.7955L510.995 41.3182H514.541L517.809 52.0284H517.957L521.235 41.3182H524.789L519.111 57.2173C518.846 57.9683 518.495 58.6115 518.058 59.147C517.621 59.6887 517.086 60.1011 516.452 60.3842C515.824 60.6735 515.073 60.8182 514.199 60.8182Z" fill="white"/>
<g clip-path="url(#clip1_146_41394)">
<path d="M4.07031 151.61L60.5203 119.02L88.9903 135.46L71.5003 145.55L64.4703 141.49L25.5103 163.99L4.07031 151.61Z" fill="#F7F7F6"/>
<path d="M4.07031 139.39L60.5203 106.8L88.9903 123.23L71.5003 133.33L64.4703 129.27L25.5103 151.77L4.07031 139.39Z" fill="#F7F7F6"/>
<path d="M88.99 123.229V135.459L71.5 145.549V133.329L88.99 123.229Z" fill="#D2ECFD"/>
<path d="M64.4698 129.27V141.49L25.5098 163.99V151.77L64.4698 129.27Z" fill="#D2ECFD"/>
<path d="M4.07031 139.39V151.61L25.5103 163.99V151.77L4.07031 139.39Z" fill="#BAD1E0"/>
<path d="M71.5007 145.55L64.4707 141.49V129.27L71.5007 133.33V145.55Z" fill="#BAD1E0"/>
<path d="M70.691 133.8L65.291 130.68V141.02L70.691 144.14V133.8Z" fill="#1B9AD1"/>
<path d="M41.5701 143.439V153.779L36.8301 156.509V146.169L41.5701 143.439Z" fill="#93DAF8"/>
<path d="M36.0201 146.64V156.98L31.0801 159.83V149.49L36.0201 146.64Z" fill="#93DAF8"/>
<path d="M47.3209 140.109V150.449L42.3809 153.309V142.969L47.3209 140.109Z" fill="#93DAF8"/>
<path d="M63.6614 130.68V141.02L59.4414 143.46V133.12L63.6614 130.68Z" fill="#93DAF8"/>
<path d="M52.8706 136.91V147.25L48.1406 149.98V139.64L52.8706 136.91Z" fill="#93DAF8"/>
<path d="M58.6197 133.59V143.93L53.6797 146.78V136.44L58.6197 133.59Z" fill="#93DAF8"/>
<path d="M30.2601 160.3L26.3301 162.58V152.24L30.2601 149.96V160.3Z" fill="#93DAF8"/>
<path d="M4.89062 140.8L8.40062 142.83V153.17L4.89062 151.14V140.8Z" fill="#1B9AD1"/>
<path d="M13.9509 146.03V156.37L9.21094 153.64V143.3L13.9509 146.03Z" fill="#1B9AD1"/>
<path d="M24.7015 152.239V162.579L20.5215 160.159V149.819L24.7015 152.239Z" fill="#1B9AD1"/>
<path d="M19.6998 149.35V159.69L14.7598 156.84V146.5L19.6998 149.35Z" fill="#1B9AD1"/>
<path d="M63.6595 131.569V134.939L59.4395 142.209V139.069L63.6595 131.569Z" fill="#CAEBFD"/>
<path d="M58.6193 143.62L58.3493 144.09L55.7793 145.57L58.6193 140.52V143.62Z" fill="#CAEBFD"/>
<path d="M63.6595 137.269L60.3895 142.909L59.4395 143.459V143.339L63.6595 135.839V137.269Z" fill="#CAEBFD"/>
<path d="M52.8706 144.07L50.0906 148.86L48.1406 149.98V149.26L52.8706 140.85V144.07Z" fill="#CAEBFD"/>
<path d="M53.6797 139.399L56.1497 135.019L58.6197 133.589V134.139L53.6797 142.659V139.399Z" fill="#CAEBFD"/>
<path d="M59.4395 133.44L59.7095 132.96L61.1395 132.14L59.4395 135.07V133.44Z" fill="#CAEBFD"/>
<path d="M52.8698 146.399L52.1298 147.679L51.0898 148.279L52.8698 145.119V146.399Z" fill="#CAEBFD"/>
<path d="M58.6197 134.89V136.48L53.6797 145V143.67L58.6197 134.89Z" fill="#CAEBFD"/>
<path d="M41.5698 153.78L39.0898 155.21L41.5698 150.81V153.78Z" fill="#CAEBFD"/>
<path d="M47.3209 140.579V143.949L42.3809 152.469V149.359L47.3209 140.579Z" fill="#CAEBFD"/>
<path d="M48.1406 139.64L50.6706 138.18L48.1406 142.55V139.64Z" fill="#CAEBFD"/>
<path d="M47.3204 146.29L43.6904 152.55L42.6504 153.15L47.3204 144.85V146.29Z" fill="#CAEBFD"/>
<path d="M51.2506 137.869L52.6906 137.029L48.1406 144.879V143.399L51.2506 137.869Z" fill="#CAEBFD"/>
<path d="M36.8301 152.719V149.469L39.4701 144.779L41.5701 143.579V144.559L36.8301 152.719Z" fill="#CAEBFD"/>
<path d="M36.0201 154.129L33.5301 158.419L31.0801 159.829V159.699L36.0201 150.909V154.129Z" fill="#CAEBFD"/>
<path d="M42.3809 143.159V143.109L42.4209 143.089L42.3809 143.159Z" fill="#CAEBFD"/>
<path d="M41.5701 145.319V146.899L36.8301 155.059V153.739L41.5701 145.319Z" fill="#CAEBFD"/>
<path d="M36.0195 156.46L35.5695 157.24L34.5195 157.84L36.0195 155.18V156.46Z" fill="#CAEBFD"/>
<path d="M43.0009 142.779L44.4409 141.939L42.3809 145.489V143.869L43.0009 142.779Z" fill="#CAEBFD"/>
<path d="M34.1701 147.77L31.0801 153.11V149.72L31.2201 149.47L34.1701 147.77Z" fill="#CAEBFD"/>
<path d="M26.3301 161.299V158.159L30.2601 151.169V154.509L26.3301 161.299Z" fill="#CAEBFD"/>
<path d="M34.7501 147.469L36.0201 146.729V146.919L31.0801 155.439V153.989L34.7501 147.469Z" fill="#CAEBFD"/>
<path d="M30.2601 156.849L27.2501 162.039L26.3301 162.579V162.439L30.2601 155.439V156.849Z" fill="#CAEBFD"/>
<path d="M72.3203 133.799L77.4803 130.819V134.049L72.3203 137.029V133.799Z" fill="#63CAF6"/>
<path d="M72.3203 137.029V135.659L73.8703 132.899L76.6803 131.279L73.8603 136.139L72.3203 137.029Z" fill="#B1E3FA"/>
<path d="M77.4805 130.819V132.229L75.9005 134.959L74.7305 135.639L77.4305 130.849L77.4805 130.819Z" fill="#B1E3FA"/>
<path d="M77.4803 141.159L72.3203 144.139V137.969L77.4803 134.989V141.159Z" fill="#93DAF8"/>
<path d="M72.3203 141.28V139.88L73.9203 137.05L75.1303 136.35L72.3203 141.28Z" fill="#CAEBFD"/>
<path d="M84.0508 127.02L88.1708 124.64V127.88L84.0508 130.26V127.02Z" fill="#63CAF6"/>
<path d="M88.1708 134.979L84.0508 137.359V131.199L88.1708 128.819V134.979Z" fill="#93DAF8"/>
<path d="M78.3008 130.349L83.2408 127.489V130.729L78.3008 133.579V130.349Z" fill="#63CAF6"/>
<path d="M83.2408 137.83L78.3008 140.69V134.52L83.2408 131.67V137.83Z" fill="#93DAF8"/>
<path d="M87.3404 125.13L88.1704 124.64V127.08L87.4804 128.28L84.6504 129.91L87.3404 125.13Z" fill="#B1E3FA"/>
<path d="M84.0508 131.199L86.6608 129.689L84.0508 134.189V131.199Z" fill="#CAEBFD"/>
<path d="M83.2407 135.59L81.2807 138.96L78.7207 140.44L83.2407 132.42V135.59Z" fill="#CAEBFD"/>
<path d="M87.4208 129.249L88.1708 128.819V129.419L84.0508 136.519V135.239L87.4208 129.249Z" fill="#CAEBFD"/>
<path d="M83.2412 137.829L82.2812 138.389L83.2412 136.689V137.829Z" fill="#CAEBFD"/>
<path d="M77.4803 137.739L74.5003 142.879L72.3203 144.139V143.699L77.0803 135.219L77.4803 134.989V137.739Z" fill="#CAEBFD"/>
<path d="M78.3008 133.579V133.059L80.5608 129.039L83.2408 127.489V127.819L80.7008 132.189L78.3008 133.579Z" fill="#B1E3FA"/>
<path d="M78.3008 134.519L79.8808 133.609L78.3008 136.339V134.519Z" fill="#CAEBFD"/>
<path d="M77.48 140.079L76.54 141.699L75.5 142.299L77.48 138.779V140.079Z" fill="#CAEBFD"/>
<path d="M84.0508 127.099L84.1208 126.989L85.5508 126.159L84.0508 128.749V127.099Z" fill="#B1E3FA"/>
<path d="M82.7399 131.02L81.4199 131.77L83.2399 128.55V130.15L82.7399 131.02Z" fill="#B1E3FA"/>
<path d="M80.6408 133.17L81.9108 132.43L78.3008 138.67V137.33L80.6408 133.17Z" fill="#CAEBFD"/>
<path d="M71.5007 131.61V134.56L64.4707 130.5V127.55L71.5007 131.61Z" fill="#B3B3B3"/>
<path d="M93.06 119.16V122.11L71.5 134.56V131.61L93.06 119.16Z" fill="#EDEDEC"/>
<path d="M25.51 150.041V152.991L0 138.261V135.311L25.51 150.041Z" fill="#B3B3B3"/>
<path d="M25.51 150.04L64.47 127.55L38.96 112.82L0 135.31L25.51 150.04Z" fill="#F7F7F6"/>
<path d="M64.4698 127.55V130.5L25.5098 152.99V150.04L64.4698 127.55Z" fill="#EDEDEC"/>
<path d="M71.5009 131.61L93.0609 119.16L60.5209 100.37L38.9609 112.82L71.5009 131.61Z" fill="#F7F7F6"/>
<path d="M88.9908 119.16L60.5208 102.72L43.3008 112.58L71.7608 129.02L88.9908 119.16Z" fill="#355059"/>
<path d="M82.3205 117.82V119.39L78.5605 117.22V115.65L82.3205 117.82Z" fill="#B3B3B3"/>
<path d="M84.0103 116.84V118.41L82.3203 119.39V117.82L84.0103 116.84Z" fill="#EDEDEC"/>
<path d="M82.3205 117.82L84.0106 116.84L80.2505 114.67L78.5605 115.65L82.3205 117.82Z" fill="#F7F7F6"/>
<path d="M70.5705 124.54V126.11L66.8105 123.94V122.37L70.5705 124.54Z" fill="#B3B3B3"/>
<path d="M72.2603 123.56V125.13L70.5703 126.11V124.54L72.2603 123.56Z" fill="#EDEDEC"/>
<path d="M70.5705 124.54L72.2606 123.56L68.5005 121.39L66.8105 122.37L70.5705 124.54Z" fill="#F7F7F6"/>
<path d="M73.1799 112.501V114.081L69.4199 111.911V110.331L73.1799 112.501Z" fill="#B3B3B3"/>
<path d="M74.8597 111.521V113.101L73.1797 114.081V112.501L74.8597 111.521Z" fill="#EDEDEC"/>
<path d="M73.1799 112.501L74.8599 111.521L71.1099 109.351L69.4199 110.331L73.1799 112.501Z" fill="#F7F7F6"/>
<path d="M61.4299 119.221V120.801L57.6699 118.631V117.051L61.4299 119.221Z" fill="#B3B3B3"/>
<path d="M63.1197 118.24V119.82L61.4297 120.8V119.22L63.1197 118.24Z" fill="#EDEDEC"/>
<path d="M61.4299 119.22L63.1199 118.24L59.3599 116.07L57.6699 117.05L61.4299 119.22Z" fill="#F7F7F6"/>
<path d="M64.0295 107.191V108.771L60.2695 106.601V105.021L64.0295 107.191Z" fill="#B3B3B3"/>
<path d="M65.7193 106.21V107.79L64.0293 108.77V107.19L65.7193 106.21Z" fill="#EDEDEC"/>
<path d="M64.0295 107.19L65.7195 106.21L61.9595 104.04L60.2695 105.02L64.0295 107.19Z" fill="#F7F7F6"/>
<path d="M52.2793 113.91V115.49L48.5293 113.32V111.74L52.2793 113.91Z" fill="#B3B3B3"/>
<path d="M53.9693 112.93V114.51L52.2793 115.49V113.91L53.9693 112.93Z" fill="#EDEDEC"/>
<path d="M52.2793 113.91L53.9693 112.93L50.2093 110.76L48.5293 111.74L52.2793 113.91Z" fill="#F7F7F6"/>
<path d="M64.4698 112.71V124.93L25.5098 147.43V135.21L64.4698 112.71Z" fill="#D2ECFD"/>
<path d="M4.07031 122.83V135.05L25.5103 147.43V135.21L4.07031 122.83Z" fill="#BAD1E0"/>
<path d="M41.5701 126.88V137.22L36.8301 139.95V129.61L41.5701 126.88Z" fill="#63CAF6"/>
<path d="M36.0201 130.08V140.42L31.0801 143.28V132.94L36.0201 130.08Z" fill="#63CAF6"/>
<path d="M47.3209 123.56V133.9L42.3809 136.75V126.41L47.3209 123.56Z" fill="#63CAF6"/>
<path d="M63.6614 114.13V124.47L59.4414 126.9V116.56L63.6614 114.13Z" fill="#63CAF6"/>
<path d="M52.8706 120.36V130.7L48.1406 133.43V123.09L52.8706 120.36Z" fill="#63CAF6"/>
<path d="M58.6197 117.03V127.37L53.6797 130.23V119.89L58.6197 117.03Z" fill="#63CAF6"/>
<path d="M30.2601 143.75L26.3301 146.02V135.68L30.2601 133.41V143.75Z" fill="#63CAF6"/>
<path d="M4.89062 124.24L8.40062 126.27V136.61L4.89062 134.58V124.24Z" fill="#1B9AD1"/>
<path d="M13.9509 129.47V139.81L9.21094 137.08V126.74L13.9509 129.47Z" fill="#1B9AD1"/>
<path d="M24.7015 135.68V146.02L20.5215 143.61V133.27L24.7015 135.68Z" fill="#1B9AD1"/>
<path d="M19.6998 132.799V143.139L14.7598 140.279V129.939L19.6998 132.799Z" fill="#1B9AD1"/>
<path d="M63.6595 115.01V118.38L59.4395 125.66V122.51L63.6595 115.01Z" fill="#B1E3FA"/>
<path d="M58.6193 127.06L58.3493 127.53L55.7793 129.01L58.6193 123.96V127.06Z" fill="#B1E3FA"/>
<path d="M63.6595 120.709L60.3895 126.349L59.4395 126.899V126.779L63.6595 119.279V120.709Z" fill="#B1E3FA"/>
<path d="M52.8706 127.51L50.0906 132.3L48.1406 133.43V132.71L52.8706 124.3V127.51Z" fill="#B1E3FA"/>
<path d="M53.6797 122.849L56.1497 118.459L58.6197 117.029V117.589L53.6797 126.109V122.849Z" fill="#B1E3FA"/>
<path d="M59.4395 116.89L59.7095 116.41L61.1395 115.58L59.4395 118.52V116.89Z" fill="#B1E3FA"/>
<path d="M52.8698 129.849L52.1298 131.119L51.0898 131.719L52.8698 128.569V129.849Z" fill="#B1E3FA"/>
<path d="M58.6197 118.34V119.92L53.6797 128.44V127.12L58.6197 118.34Z" fill="#B1E3FA"/>
<path d="M41.5698 137.22L39.0898 138.65L41.5698 134.25V137.22Z" fill="#B1E3FA"/>
<path d="M47.3209 124.02V127.4L42.3809 135.92V132.8L47.3209 124.02Z" fill="#B1E3FA"/>
<path d="M48.1406 123.09L50.6706 121.63L48.1406 125.99V123.09Z" fill="#B1E3FA"/>
<path d="M47.3204 129.73L43.6904 136L42.6504 136.59L47.3204 128.29V129.73Z" fill="#B1E3FA"/>
<path d="M51.2506 121.31L52.6906 120.47L48.1406 128.33V126.84L51.2506 121.31Z" fill="#B1E3FA"/>
<path d="M36.8301 136.17V132.91L39.4701 128.22L41.5701 127.02V128.01L36.8301 136.17Z" fill="#B1E3FA"/>
<path d="M36.0201 137.569L33.5301 141.859L31.0801 143.279V143.139L36.0201 134.359V137.569Z" fill="#B1E3FA"/>
<path d="M42.3809 126.599V126.549L42.4209 126.529L42.3809 126.599Z" fill="#B1E3FA"/>
<path d="M41.5701 128.77V130.34L36.8301 138.5V137.18L41.5701 128.77Z" fill="#B1E3FA"/>
<path d="M36.0195 139.91L35.5695 140.68L34.5195 141.29L36.0195 138.63V139.91Z" fill="#B1E3FA"/>
<path d="M43.0009 126.22L44.4409 125.39L42.3809 128.94V127.32L43.0009 126.22Z" fill="#B1E3FA"/>
<path d="M34.1701 131.22L31.0801 136.55V133.16L31.2201 132.91L34.1701 131.22Z" fill="#B1E3FA"/>
<path d="M26.3301 144.749V141.609L30.2601 134.609V137.959L26.3301 144.749Z" fill="#B1E3FA"/>
<path d="M34.7501 130.91L36.0201 130.17V130.37L31.0801 138.89V137.43L34.7501 130.91Z" fill="#B1E3FA"/>
<path d="M30.2601 140.29L27.2501 145.49L26.3301 146.02V145.88L30.2601 138.88V140.29Z" fill="#B1E3FA"/>
<path d="M67.7105 110.69L43.1905 96.3301L0.810547 120.79L25.5105 135.05L67.7105 110.69Z" fill="#F7F7F6"/>
<path d="M63.6606 110.67L43.1906 98.6797L4.89062 120.79L25.5106 132.7L63.6606 110.67Z" fill="#355059"/>
<path d="M25.5105 135.05V137.09L0.810547 122.83V120.79L25.5105 135.05Z" fill="#B3B3B3"/>
<path d="M67.7098 110.69V112.72L25.5098 137.09V135.05L67.7098 110.69Z" fill="#EDEDEC"/>
<path d="M3.94141 121.81L15.3614 115.22L30.9514 117.63L35.1314 126.63L23.7214 133.22L8.12141 130.81L3.94141 121.81Z" fill="#F7F7F6"/>
<path d="M35.1307 171.87V126.63L23.7207 133.22V178.46L35.1307 171.87Z" fill="#EDEDEC"/>
<path d="M35.1307 129.38V126.63L23.7207 133.22V135.97L35.1307 129.38Z" fill="#C9C9C9"/>
<path d="M8.12109 130.81V176.05L23.7211 178.46V133.22L8.12109 130.81Z" fill="#E0E0DF"/>
<path d="M8.12109 130.81V133.56L23.7211 135.97V133.22L8.12109 130.81Z" fill="#959595"/>
<path d="M3.94141 121.81V167.05L8.12141 176.05V130.81L3.94141 121.81Z" fill="#B3B3B3"/>
<path d="M32.9523 159.36V167.56L32.0723 167.05V159.87L32.9523 159.36Z" fill="#E0E0DF"/>
<path d="M32.0723 167.051L32.9523 167.561L25.9023 171.631V170.611L32.0723 167.051Z" fill="#F7F7F6"/>
<path d="M32.0723 159.87V167.05L25.9023 170.61V163.44L32.0723 159.87Z" fill="#D2ECFD"/>
<path d="M31.6625 166.81V160.58L26.3125 163.67V169.91L31.6625 166.81Z" fill="#93DAF8"/>
<path d="M30.1625 161.44L31.6625 160.58V162.1L27.5525 169.19L26.3125 169.91V168.19L30.1625 161.44Z" fill="#CAEBFD"/>
<path d="M31.6624 164.43L29.5924 168.01L28.4824 168.65L31.6624 163.09V164.43Z" fill="#CAEBFD"/>
<path d="M11.2723 162.73V170.26L10.5723 170.9V162.62L11.2723 162.73Z" fill="#EDEDEC"/>
<path d="M11.2723 170.26L21.2723 171.81V172.55L10.5723 170.9L11.2723 170.26Z" fill="#F7F7F6"/>
<path d="M11.2715 162.73L21.2715 164.27V171.81L11.2715 170.26V162.73Z" fill="#D2ECFD"/>
<path d="M20.8716 164.62L11.6816 163.2V169.91L20.8716 171.34V164.62Z" fill="#23AAE1"/>
<path d="M5.47172 155.99V163.81H4.76172V154.45L5.47172 155.99Z" fill="#D4D4D3"/>
<path d="M5.47172 163.811L7.31172 167.771V169.301L4.76172 163.811H5.47172Z" fill="#DEDEDD"/>
<path d="M5.47266 155.99L7.31266 159.95V167.77L5.47266 163.81V155.99Z" fill="#BAD1E0"/>
<path d="M7.10187 159.99L5.67188 156.91V163.76L7.10187 166.85V159.99Z" fill="#1B9AD1"/>
<path d="M32.9523 148.41V156.6L32.0723 156.09V148.92L32.9523 148.41Z" fill="#E0E0DF"/>
<path d="M32.0723 156.09L32.9523 156.6L25.9023 160.67V159.66L32.0723 156.09Z" fill="#F7F7F6"/>
<path d="M32.0723 148.92V156.09L25.9023 159.66V152.48L32.0723 148.92Z" fill="#D2ECFD"/>
<path d="M31.6625 155.86V149.62L26.3125 152.72V158.95L31.6625 155.86Z" fill="#93DAF8"/>
<path d="M30.5825 150.25L31.6625 149.62V151.63L27.9825 157.98L26.3125 158.95V157.73L30.5825 150.25Z" fill="#CAEBFD"/>
<path d="M31.6623 153.97L30.0223 156.81L28.9023 157.45L31.6623 152.62V153.97Z" fill="#CAEBFD"/>
<path d="M11.2723 151.77V159.31L10.5723 159.94V151.66L11.2723 151.77Z" fill="#EDEDEC"/>
<path d="M11.2723 159.311L21.2723 160.861V161.601L10.5723 159.941L11.2723 159.311Z" fill="#F7F7F6"/>
<path d="M11.2715 151.771L21.2715 153.321V160.861L11.2715 159.311V151.771Z" fill="#D2ECFD"/>
<path d="M20.8716 153.67L11.6816 152.25V158.96L20.8716 160.38V153.67Z" fill="#23AAE1"/>
<path d="M5.47172 145.03V152.85H4.76172V143.5L5.47172 145.03Z" fill="#D4D4D3"/>
<path d="M5.47172 152.85L7.31172 156.82V158.35L4.76172 152.85H5.47172Z" fill="#DEDEDD"/>
<path d="M5.47266 145.03L7.31266 148.99V156.82L5.47266 152.85V145.03Z" fill="#BAD1E0"/>
<path d="M7.10187 149.04L5.67188 145.95V152.81L7.10187 155.89V149.04Z" fill="#1B9AD1"/>
<path d="M32.9523 137.45V145.65L32.0723 145.14V137.96L32.9523 137.45Z" fill="#E0E0DF"/>
<path d="M32.0723 145.141L32.9523 145.651L25.9023 149.721V148.701L32.0723 145.141Z" fill="#F7F7F6"/>
<path d="M32.0723 137.96V145.14L25.9023 148.7V141.53L32.0723 137.96Z" fill="#D2ECFD"/>
<path d="M31.6625 144.9V138.67L26.3125 141.76V148L31.6625 144.9Z" fill="#93DAF8"/>
<path d="M31.6625 144.9V138.67L26.3125 141.76V148L31.6625 144.9Z" fill="#93DAF8"/>
<path d="M29.9925 139.63L31.6625 138.67V139.98L27.3725 147.38L26.3125 148V146.08L29.9925 139.63Z" fill="#CAEBFD"/>
<path d="M31.6625 142.32L29.4125 146.21L28.3125 146.84L31.6625 140.97V142.32Z" fill="#CAEBFD"/>
<path d="M11.2723 140.82V148.35L10.5723 148.99V140.71L11.2723 140.82Z" fill="#EDEDEC"/>
<path d="M11.2723 148.35L21.2723 149.9V150.64L10.5723 148.99L11.2723 148.35Z" fill="#F7F7F6"/>
<path d="M11.2715 140.82L21.2715 142.36V149.9L11.2715 148.35V140.82Z" fill="#D2ECFD"/>
<path d="M20.8716 142.71L11.6816 141.29V148L20.8716 149.43V142.71Z" fill="#23AAE1"/>
<path d="M5.47172 134.08V141.9H4.76172V132.54L5.47172 134.08Z" fill="#D4D4D3"/>
<path d="M5.47172 141.9L7.31172 145.86V147.39L4.76172 141.9H5.47172Z" fill="#DEDEDD"/>
<path d="M5.47266 134.08L7.31266 138.04V145.86L5.47266 141.9V134.08Z" fill="#BAD1E0"/>
<path d="M7.10187 138.08L5.67188 135V141.85L7.10187 144.94V138.08Z" fill="#1B9AD1"/>
<path d="M3.94141 121.81V124.56L8.12141 133.56V130.81L3.94141 121.81Z" fill="#858585"/>
<path d="M0.470703 115.65L14.4307 107.59L33.4907 110.54L38.6007 121.55L24.6507 129.6L5.5807 126.65L0.470703 115.65Z" fill="#F7F7F6"/>
<path d="M2.41016 115.95L14.9502 108.7L32.0802 111.36L36.6702 121.25L24.1302 128.49L7.00016 125.84L2.41016 115.95Z" fill="#355059"/>
<path d="M0.470703 115.649V119.939L5.5807 130.949V126.649L0.470703 115.649Z" fill="#B3B3B3"/>
<path d="M5.58008 130.949V126.649L24.6501 129.599V133.899L5.58008 130.949Z" fill="#E0E0DF"/>
<path d="M38.6004 121.55V125.84L24.6504 133.9V129.6L38.6004 121.55Z" fill="#EDEDEC"/>
<path d="M8.12078 124.49L6.30078 117.4L24.3808 120.2L23.7208 126.91L8.12078 124.49Z" fill="#D2ECFD"/>
<path d="M23.9416 120.54L6.85156 117.9L8.45156 124.13L23.3516 126.44L23.9416 120.54Z" fill="#21A2D6"/>
<path d="M1.46094 106.96L3.94094 115.49L8.12094 124.49L6.30094 117.4L1.46094 106.96Z" fill="#BAD1E0"/>
<path d="M6.10016 117.449L2.41016 109.479L4.14016 115.429L7.38016 122.399L6.10016 117.449Z" fill="#1A92C6"/>
<path d="M37.6207 112.55L35.1307 120.32L23.7207 126.91L24.3807 120.2L37.6207 112.55Z" fill="#D2ECFD"/>
<path d="M34.7912 120.04L36.9112 113.43L24.7712 120.44L24.2012 126.16L34.7912 120.04Z" fill="#63CAF6"/>
<path d="M28.5601 123.64L25.8301 125.22L30.4301 117.18L33.2601 115.54L28.5601 123.64Z" fill="#B1E3FA"/>
<path d="M30.6007 122.47L29.4707 123.11L34.0707 115.07L35.2907 114.37L30.6007 122.47Z" fill="#B1E3FA"/>
<path d="M0.470703 102.62L14.4307 94.5596L33.4907 97.5096L38.6007 108.52L24.6507 116.58L5.5807 113.63L0.470703 102.62Z" fill="#F7F7F6"/>
<path d="M1.58984 102.79L14.7298 95.21L32.6798 97.98L37.4898 108.35L24.3498 115.94L6.39984 113.16L1.58984 102.79Z" fill="#355059"/>
<path d="M0.470703 102.619V106.919L5.5807 117.919V113.629L0.470703 102.619Z" fill="#B3B3B3"/>
<path d="M5.58008 117.92V113.63L24.6501 116.58V120.87L5.58008 117.92Z" fill="#E0E0DF"/>
<path d="M38.6004 108.52V112.82L24.6504 120.87V116.58L38.6004 108.52Z" fill="#EDEDEC"/>
<path d="M23.922 106.969V115.119L7.58203 112.589V104.439L23.922 106.969Z" fill="#D2ECFD"/>
<path d="M23.5105 107.32L7.98047 104.92V112.24L23.5105 114.64V107.32Z" fill="#23AAE1"/>
<path d="M35.8819 100.06V108.21L23.9219 115.12V106.97L35.8819 100.06Z" fill="#D2ECFD"/>
<path d="M35.4703 107.98V100.77L24.3203 107.2V114.41L35.4703 107.98Z" fill="#93DAF8"/>
<path d="M27.6416 112.499L24.9316 114.059L31.0716 103.309L33.9216 101.659L27.6416 112.499Z" fill="#CAEBFD"/>
<path d="M34.7225 101.21L35.3425 100.85V101.56L29.6725 111.32L28.5625 111.96L34.7225 101.21Z" fill="#CAEBFD"/>
<path d="M7.58117 112.59V104.44L3.20117 95.0098V103.15L7.58117 112.59Z" fill="#BAD1E0"/>
<path d="M7.37039 104.49L3.40039 95.9297V103.11L7.37039 111.67V104.49Z" fill="#1B9AD1"/>
<path d="M1.46094 90.6595L14.6909 83.0195L32.7809 85.8195L37.6209 96.2595L24.3809 103.9L6.30094 101.1L1.46094 90.6595Z" fill="#F7F7F6"/>
<path d="M5.58008 91.2994L15.8001 85.3994L29.7601 87.5594L33.4901 95.6194L23.2801 101.519L9.32008 99.3594L5.58008 91.2994Z" fill="#355059"/>
<path d="M1.46094 90.6592V94.7392L6.30094 105.179V101.099L1.46094 90.6592Z" fill="#B3B3B3"/>
<path d="M6.30078 105.18V101.1L24.3808 103.9V107.97L6.30078 105.18Z" fill="#E0E0DF"/>
<path d="M37.6209 96.2598V100.33L24.3809 107.97V103.9L37.6209 96.2598Z" fill="#EDEDEC"/>
<path d="M22.0202 88.0703V93.3703C22.0202 93.8203 21.7202 94.2603 21.1402 94.6003C19.9602 95.2803 18.0502 95.2803 16.8702 94.6003C16.2802 94.2603 15.9902 93.8103 15.9902 93.3703V88.0703H22.0202Z" fill="url(#paint0_linear_146_41394)"/>
<path d="M19.0005 89.8101C20.6684 89.8101 22.0205 89.0311 22.0205 88.0701C22.0205 87.1091 20.6684 86.3301 19.0005 86.3301C17.3326 86.3301 15.9805 87.1091 15.9805 88.0701C15.9805 89.0311 17.3326 89.8101 19.0005 89.8101Z" fill="#F7F7F6"/>
<path d="M21.2709 83.8896V87.8796C21.2709 88.2196 21.0509 88.5496 20.6009 88.8096C19.7109 89.3196 18.2709 89.3196 17.3809 88.8096C16.9409 88.5496 16.7109 88.2196 16.7109 87.8796V83.8896H21.2709Z" fill="url(#paint1_linear_146_41394)"/>
<path d="M19.0007 85.2001C20.2599 85.2001 21.2807 84.6136 21.2807 83.8901C21.2807 83.1666 20.2599 82.5801 19.0007 82.5801C17.7415 82.5801 16.7207 83.1666 16.7207 83.8901C16.7207 84.6136 17.7415 85.2001 19.0007 85.2001Z" fill="#F7F7F6"/>
<path d="M20.0105 76.5293V83.9293C20.0105 84.0793 19.9105 84.2293 19.7105 84.3393C19.3205 84.5693 18.6805 84.5693 18.2805 84.3393C18.0805 84.2293 17.9805 84.0793 17.9805 83.9293V76.5293H20.0105Z" fill="url(#paint2_linear_146_41394)"/>
<path d="M18.2808 76.1198C17.8908 76.3498 17.8908 76.7198 18.2808 76.9398C18.6708 77.1698 19.3108 77.1698 19.7108 76.9398C20.1008 76.7098 20.1008 76.3398 19.7108 76.1198C19.3208 75.8898 18.6808 75.8898 18.2808 76.1198Z" fill="#F7F7F6"/>
<path d="M11.541 82.63L12.051 82.92C12.051 82.92 18.361 72.43 27.541 71.29L27.031 71C16.021 71.45 11.541 78.14 11.541 78.14V82.63Z" fill="#355059"/>
<path d="M12.0508 82.92C12.0508 82.92 16.5908 76.21 27.5408 74.85V71.29C16.5308 71.75 12.0508 78.44 12.0508 78.44V82.92Z" fill="url(#paint3_linear_146_41394)"/>
</g>
<defs>
<linearGradient id="paint0_linear_146_41394" x1="22.0181" y1="91.5925" x2="15.9782" y2="91.5925" gradientUnits="userSpaceOnUse">
<stop stop-color="#EDEDEC"/>
<stop offset="1" stop-color="#B3B3B3"/>
</linearGradient>
<linearGradient id="paint1_linear_146_41394" x1="21.2748" y1="86.5379" x2="16.7229" y2="86.5379" gradientUnits="userSpaceOnUse">
<stop stop-color="#EDEDEC"/>
<stop offset="1" stop-color="#B3B3B3"/>
</linearGradient>
<linearGradient id="paint2_linear_146_41394" x1="20.0068" y1="80.5168" x2="17.9901" y2="80.5168" gradientUnits="userSpaceOnUse">
<stop stop-color="#EDEDEC"/>
<stop offset="1" stop-color="#B3B3B3"/>
</linearGradient>
<linearGradient id="paint3_linear_146_41394" x1="27.5395" y1="77.109" x2="12.0479" y2="77.109" gradientUnits="userSpaceOnUse">
<stop stop-color="#B3B3B3"/>
<stop offset="0.1874" stop-color="#C6C6C5"/>
<stop offset="0.4734" stop-color="#DBDBDB"/>
<stop offset="0.7488" stop-color="#E9E9E8"/>
<stop offset="1" stop-color="#EDEDEC"/>
</linearGradient>
<clipPath id="clip0_146_41394">
<rect width="24" height="24" fill="white" transform="translate(166 34)"/>
</clipPath>
<clipPath id="clip1_146_41394">
<rect width="93.06" height="107.46" fill="white" transform="translate(0 71)"/>
</clipPath>
</defs>
</svg>
