<svg width="512" height="150" viewBox="0 0 574 168" fill="none" xmlns="http://www.w3.org/2000/svg">
<g clip-path="url(#clip0_171_93099)">
<path d="M19.4116 140.963V144.801L0 156.105V152.267L19.4116 140.963Z" fill="#E1BD9A"/>
<path d="M87.5109 128.346L20.8906 166.534V127.395L87.5109 89.207V128.346Z" fill="#823130"/>
<path opacity="0.3" d="M87.5109 128.346L20.8906 166.534V127.395L87.5109 89.207V128.346Z" fill="#823130"/>
<path d="M87.5159 89.2071L20.8956 127.395L1.34375 116.188L67.964 78L87.5159 89.2071Z" fill="#823130"/>
<path d="M1.34375 116.188L20.8956 127.395V166.533L1.34375 155.322V116.188Z" fill="#823130"/>
<path opacity="0.3" d="M1.34375 116.188L20.8956 127.395V166.533L1.34375 155.322V116.188Z" fill="#823130"/>
<path d="M0 152.254V156.092L19.4116 167.206V163.368L0 152.254Z" fill="#E1BD9A"/>
<path d="M20.8933 162.695L1.34147 151.488L0 152.268L1.34147 155.321L20.8933 166.533L89 125.12L87.5136 124.508L20.8933 162.695Z" fill="#E1BD9A"/>
<path d="M88.9973 128.959L20.8906 168V164.167L88.9973 125.121V128.959Z" fill="#E1BD9A"/>
<path opacity="0.3" d="M88.9973 128.959L20.8906 168V164.167L88.9973 125.121V128.959Z" fill="#E1BD9A"/>
<path d="M1.34375 152.959V156.792L20.8956 167.999V164.166L1.34375 152.959Z" fill="#E1BD9A"/>
<path opacity="0.3" d="M0 152.254V156.092L20.8933 168V164.166L0 152.254Z" fill="#E1BD9A"/>
<path d="M3.35938 148.699V142.109L7.07063 144.235V150.824L3.35938 148.699Z" fill="#283036"/>
<path d="M6.81429 150.379L3.61719 148.55V142.555L6.81429 144.388V150.379Z" fill="#72B8CF"/>
<path opacity="0.5" d="M3.61719 147.07L6.81429 145.242V144.388L6.78157 144.369L3.61719 146.179V147.07Z" fill="#72B8CF"/>
<path opacity="0.5" d="M6.81429 145.85L3.61719 147.683V148.55L4.57071 149.093L6.81429 147.808V145.85Z" fill="#72B8CF"/>
<path d="M6.81429 147.102L3.61719 145.269V144.814L6.81429 146.643V147.102Z" fill="#283036"/>
<path d="M9.21094 152.082V145.492L12.9269 147.622V154.212L9.21094 152.082Z" fill="#283036"/>
<path d="M12.6659 153.768L9.46875 151.935V145.939L12.6659 147.772V153.768Z" fill="#72B8CF"/>
<path opacity="0.5" d="M9.46875 150.457L12.6659 148.624V147.771L12.6331 147.752L9.46875 149.566V150.457Z" fill="#72B8CF"/>
<path opacity="0.5" d="M12.6659 149.238L9.46875 151.071V151.934L10.4223 152.482L12.6659 151.197V149.238Z" fill="#72B8CF"/>
<path d="M12.6659 150.487L9.46875 148.659V148.199L12.6659 150.032V150.487Z" fill="#283036"/>
<path d="M15.0703 155.431V148.842L18.7862 150.972V157.562L15.0703 155.431Z" fill="#283036"/>
<path d="M18.5206 157.116L15.3281 155.283V149.287L18.5206 151.12V157.116Z" fill="#72B8CF"/>
<path opacity="0.5" d="M15.3281 153.807L18.5206 151.974V151.12L18.4878 151.102L15.3281 152.916V153.807Z" fill="#72B8CF"/>
<path opacity="0.5" d="M18.5206 152.588L15.3281 154.416V155.284L16.277 155.832L18.5206 154.546V152.588Z" fill="#72B8CF"/>
<path d="M18.5206 153.835L15.3281 152.006V151.547L18.5206 153.38V153.835Z" fill="#283036"/>
<path d="M3.35938 138.903V132.309L7.07063 134.439V141.028L3.35938 138.903Z" fill="#283036"/>
<path d="M6.81429 140.582L3.61719 138.749V132.758L6.81429 134.586V140.582Z" fill="#72B8CF"/>
<path opacity="0.5" d="M3.61719 137.274L6.81429 135.441V134.587L6.78157 134.568L3.61719 136.383V137.274Z" fill="#72B8CF"/>
<path opacity="0.5" d="M6.81429 136.053L3.61719 137.886V138.749L4.57071 139.297L6.81429 138.011V136.053Z" fill="#72B8CF"/>
<path d="M6.81429 137.306L3.61719 135.473V135.014L6.81429 136.847V137.306Z" fill="#283036"/>
<path d="M9.21094 142.285V135.695L12.9269 137.825V144.415L9.21094 142.285Z" fill="#283036"/>
<path d="M12.6659 143.965L9.46875 142.136V136.141L12.6659 137.974V143.965Z" fill="#72B8CF"/>
<path opacity="0.5" d="M9.46875 140.656L12.6659 138.828V137.974L12.6331 137.955L9.46875 139.77V140.656Z" fill="#72B8CF"/>
<path opacity="0.5" d="M12.6659 139.439L9.46875 141.268V142.136L10.4223 142.679L12.6659 141.398V139.439Z" fill="#72B8CF"/>
<path d="M12.6659 140.688L9.46875 138.855V138.4L12.6659 140.229V140.688Z" fill="#283036"/>
<path d="M15.0703 145.637V139.047L18.7862 141.177V147.767L15.0703 145.637Z" fill="#283036"/>
<path d="M18.5206 147.316L15.3281 145.488V139.492L18.5206 141.325V147.316Z" fill="#72B8CF"/>
<path opacity="0.5" d="M15.3281 144.007L18.5206 142.179V141.325L18.4878 141.307L15.3281 143.121V144.007Z" fill="#72B8CF"/>
<path opacity="0.5" d="M18.5206 142.793L15.3281 144.621V145.489L16.277 146.032L18.5206 144.751V142.793Z" fill="#72B8CF"/>
<path d="M18.5206 144.04L15.3281 142.211V141.752L18.5206 143.58V144.04Z" fill="#283036"/>
<path d="M3.35938 129.103V122.514L7.07063 124.644V131.233L3.35938 129.103Z" fill="#283036"/>
<path d="M6.81429 130.789L3.61719 128.956V122.965L6.81429 124.793V130.789Z" fill="#72B8CF"/>
<path opacity="0.5" d="M3.61719 127.479L6.81429 125.646V124.792L6.78157 124.773L3.61719 126.588V127.479Z" fill="#72B8CF"/>
<path opacity="0.5" d="M6.81429 126.26L3.61719 128.093V128.956L4.57071 129.504L6.81429 128.218V126.26Z" fill="#72B8CF"/>
<path d="M6.81429 127.511L3.61719 125.678V125.219L6.81429 127.052V127.511Z" fill="#283036"/>
<path d="M9.21094 132.492V125.902L12.9269 128.032V134.622L9.21094 132.492Z" fill="#283036"/>
<path d="M12.6659 134.174L9.46875 132.345V126.35L12.6659 128.183V134.174Z" fill="#72B8CF"/>
<path opacity="0.5" d="M9.46875 130.863L12.6659 129.035V128.181L12.6331 128.162L9.46875 129.972V130.863Z" fill="#72B8CF"/>
<path opacity="0.5" d="M12.6659 129.648L9.46875 131.477V132.345L10.4223 132.888L12.6659 131.602V129.648Z" fill="#72B8CF"/>
<path d="M12.6659 130.897L9.46875 129.064V128.609L12.6659 130.438V130.897Z" fill="#283036"/>
<path d="M15.0703 135.842V129.252L18.7862 131.377V137.972L15.0703 135.842Z" fill="#283036"/>
<path d="M18.5206 137.521L15.3281 135.693V129.697L18.5206 131.53V137.521Z" fill="#72B8CF"/>
<path opacity="0.5" d="M15.3281 134.213L18.5206 132.384V131.53L18.4878 131.512L15.3281 133.322V134.213Z" fill="#72B8CF"/>
<path opacity="0.5" d="M18.5206 132.996L15.3281 134.824V135.692L16.277 136.235L18.5206 134.95V132.996Z" fill="#72B8CF"/>
<path d="M18.5206 134.245L15.3281 132.412V131.957L18.5206 133.785V134.245Z" fill="#283036"/>
<path d="M32.5753 152.082V145.492L28.8594 147.622V154.212L32.5753 152.082Z" fill="#283036"/>
<path d="M29.125 153.768L32.3174 151.935V145.939L29.125 147.772V153.768Z" fill="#72B8CF"/>
<path opacity="0.5" d="M32.3174 150.457L29.125 148.624V147.771L29.153 147.752L32.3174 149.566V150.457Z" fill="#72B8CF"/>
<path opacity="0.5" d="M29.125 149.238L32.3174 151.071V151.934L31.3639 152.482L29.125 151.197V149.238Z" fill="#72B8CF"/>
<path d="M29.125 150.487L32.3174 148.659V148.199L29.125 150.032V150.487Z" fill="#283036"/>
<path d="M26.7159 155.433V148.844L23 150.974V157.563L26.7159 155.433Z" fill="#283036"/>
<path d="M23.2656 157.118L26.4581 155.285V149.289L23.2656 151.122V157.118Z" fill="#72B8CF"/>
<path opacity="0.5" d="M26.4581 153.809L23.2656 151.976V151.122L23.2983 151.104L26.4581 152.918V153.809Z" fill="#72B8CF"/>
<path opacity="0.5" d="M23.2656 152.59L26.4581 154.418V155.286L25.5092 155.834L23.2656 154.548V152.59Z" fill="#72B8CF"/>
<path d="M23.2656 153.837L26.4581 152.008V151.549L23.2656 153.382V153.837Z" fill="#283036"/>
<path d="M32.5753 142.287V135.697L28.8594 137.827V144.417L32.5753 142.287Z" fill="#283036"/>
<path d="M29.125 143.967L32.3174 142.138V136.143L29.125 137.976V143.967Z" fill="#72B8CF"/>
<path opacity="0.5" d="M32.3174 140.658L29.125 138.829V137.976L29.153 137.957L32.3174 139.772V140.658Z" fill="#72B8CF"/>
<path opacity="0.5" d="M29.125 139.441L32.3174 141.27V142.138L31.3639 142.681L29.125 141.4V139.441Z" fill="#72B8CF"/>
<path d="M29.125 140.69L32.3174 138.857V138.402L29.125 140.231V140.69Z" fill="#283036"/>
<path d="M26.7159 145.638V139.049L23 141.179V147.769L26.7159 145.638Z" fill="#283036"/>
<path d="M23.2656 147.318L26.4581 145.49V139.494L23.2656 141.327V147.318Z" fill="#72B8CF"/>
<path opacity="0.5" d="M26.4581 144.009L23.2656 142.181V141.327L23.2983 141.309L26.4581 143.123V144.009Z" fill="#72B8CF"/>
<path opacity="0.5" d="M23.2656 142.793L26.4581 144.621V145.489L25.5092 146.032L23.2656 144.751V142.793Z" fill="#72B8CF"/>
<path d="M23.2656 144.042L26.4581 142.213V141.754L23.2656 143.582V144.042Z" fill="#283036"/>
<path d="M32.5753 132.49V125.9L28.8594 128.03V134.62L32.5753 132.49Z" fill="#283036"/>
<path d="M29.125 134.172L32.3174 132.343V126.348L29.125 128.181V134.172Z" fill="#72B8CF"/>
<path opacity="0.5" d="M32.3174 130.861L29.125 129.033V128.179L29.153 128.16L32.3174 129.97V130.861Z" fill="#72B8CF"/>
<path opacity="0.5" d="M29.125 129.646L32.3174 131.475V132.343L31.3639 132.886L29.125 131.6V129.646Z" fill="#72B8CF"/>
<path d="M29.125 130.895L32.3174 129.062V128.607L29.125 130.436V130.895Z" fill="#283036"/>
<path d="M26.7159 135.842V129.252L23 131.377V137.972L26.7159 135.842Z" fill="#283036"/>
<path d="M23.2656 137.521L26.4581 135.693V129.697L23.2656 131.53V137.521Z" fill="#72B8CF"/>
<path opacity="0.5" d="M26.4581 134.213L23.2656 132.384V131.53L23.2983 131.512L26.4581 133.322V134.213Z" fill="#72B8CF"/>
<path opacity="0.5" d="M23.2656 132.998L26.4581 134.826V135.694L25.5092 136.237L23.2656 134.952V132.998Z" fill="#72B8CF"/>
<path d="M23.2656 134.245L26.4581 132.412V131.957L23.2656 133.785V134.245Z" fill="#283036"/>
<path d="M85.3097 121.971V115.381L81.5938 117.511V124.101L85.3097 121.971Z" fill="#283036"/>
<path d="M81.8516 123.655L85.0487 121.822V115.826L81.8516 117.659V123.655Z" fill="#72B8CF"/>
<path opacity="0.5" d="M85.0487 120.346L81.8516 118.513V117.659L81.8843 117.641L85.0487 119.455V120.346Z" fill="#72B8CF"/>
<path opacity="0.5" d="M81.8516 119.125L85.0487 120.958V121.821L84.0951 122.369L81.8516 121.083V119.125Z" fill="#72B8CF"/>
<path d="M81.8516 120.374L85.0487 118.545V118.086L81.8516 119.919V120.374Z" fill="#283036"/>
<path d="M79.4503 125.32V118.73L75.7344 120.861V127.45L79.4503 125.32Z" fill="#283036"/>
<path d="M76 127.004L79.1924 125.171V119.176L76 121.009V127.004Z" fill="#72B8CF"/>
<path opacity="0.5" d="M79.1924 123.696L76 121.863V121.009L76.0327 120.99L79.1924 122.805V123.696Z" fill="#72B8CF"/>
<path opacity="0.5" d="M76 122.475L79.1924 124.303V125.171L78.2436 125.718L76 124.433V122.475Z" fill="#72B8CF"/>
<path d="M76 123.723L79.1924 121.895V121.436L76 123.269V123.723Z" fill="#283036"/>
<path d="M85.3097 112.174V105.584L81.5938 107.714V114.304L85.3097 112.174Z" fill="#283036"/>
<path d="M81.8516 113.853L85.0487 112.025V106.029L81.8516 107.862V113.853Z" fill="#72B8CF"/>
<path opacity="0.5" d="M85.0487 110.545L81.8516 108.716V107.862L81.8843 107.844L85.0487 109.658V110.545Z" fill="#72B8CF"/>
<path opacity="0.5" d="M81.8516 109.328L85.0487 111.157V112.024L84.0951 112.572L81.8516 111.286V109.328Z" fill="#72B8CF"/>
<path d="M81.8516 110.577L85.0487 108.744V108.289L81.8516 110.117V110.577Z" fill="#283036"/>
<path d="M79.4503 115.523V108.934L75.7344 111.064V117.653L79.4503 115.523Z" fill="#283036"/>
<path d="M76 117.205L79.1924 115.377V109.381L76 111.214V117.205Z" fill="#72B8CF"/>
<path opacity="0.5" d="M79.1924 113.894L76 112.066V111.212L76.0327 111.193L79.1924 113.008V113.894Z" fill="#72B8CF"/>
<path opacity="0.5" d="M76 112.68L79.1924 114.508V115.376L78.2436 115.919L76 114.633V112.68Z" fill="#72B8CF"/>
<path d="M76 113.928L79.1924 112.095V111.641L76 113.469V113.928Z" fill="#283036"/>
<path d="M85.3097 102.377V95.7871L81.5938 97.9171V104.507L85.3097 102.377Z" fill="#283036"/>
<path d="M81.8516 104.056L85.0487 102.228V96.2324L81.8516 98.0655V104.056Z" fill="#72B8CF"/>
<path opacity="0.5" d="M85.0487 100.748L81.8516 98.9193V98.0654L81.8843 98.0469L85.0487 99.8567V100.748Z" fill="#72B8CF"/>
<path opacity="0.5" d="M81.8516 99.5332L85.0487 101.362V102.229L84.0951 102.772L81.8516 101.487V99.5332Z" fill="#72B8CF"/>
<path d="M81.8516 100.78L85.0487 98.947V98.4922L81.8516 100.321V100.78Z" fill="#283036"/>
<path d="M79.4503 105.728V99.1387L75.7344 101.264V107.858L79.4503 105.728Z" fill="#283036"/>
<path d="M76 107.408L79.1924 105.58V99.584L76 101.417V107.408Z" fill="#72B8CF"/>
<path opacity="0.5" d="M79.1924 104.099L76 102.271V101.417L76.0327 101.398L79.1924 103.208V104.099Z" fill="#72B8CF"/>
<path opacity="0.5" d="M76 102.883L79.1924 104.711V105.579L78.2436 106.122L76 104.837V102.883Z" fill="#72B8CF"/>
<path d="M76 104.132L79.1924 102.299V101.844L76 103.672V104.132Z" fill="#283036"/>
<path d="M82.7132 143.805L43.6562 166.256V125.651L82.7132 103.246V143.805Z" fill="#823130"/>
<path opacity="0.3" d="M82.7132 143.805L43.6562 166.256V125.651L82.7132 103.246V143.805Z" fill="#823130"/>
<path d="M82.7103 103.246L43.6533 125.65L33.875 119.989L72.932 97.584L82.7103 103.246Z" fill="#823130"/>
<path d="M33.875 119.988L43.6533 125.65V166.255L33.875 160.598V119.988Z" fill="#823130"/>
<path opacity="0.3" d="M33.875 119.988L43.6533 125.65V166.255L33.875 160.598V119.988Z" fill="#823130"/>
<path d="M56.8019 149.748V143.158L53.0859 145.288V151.878L56.8019 149.748Z" fill="#283036"/>
<path d="M53.3438 151.433L56.5362 149.6V143.609L53.3438 145.438V151.433Z" fill="#72B8CF"/>
<path opacity="0.5" d="M56.5362 148.123L53.3438 146.29V145.437L53.3718 145.418L56.5362 147.232V148.123Z" fill="#72B8CF"/>
<path opacity="0.5" d="M53.3438 146.904L56.5362 148.737V149.6L55.5873 150.148L53.3438 148.863V146.904Z" fill="#72B8CF"/>
<path d="M53.3438 148.158L56.5362 146.325V145.865L53.3438 147.698V148.158Z" fill="#283036"/>
<path d="M50.9456 153.099V146.51L47.2344 148.64V155.229L50.9456 153.099Z" fill="#283036"/>
<path d="M47.4922 154.785L50.6893 152.952V146.961L47.4922 148.789V154.785Z" fill="#72B8CF"/>
<path opacity="0.5" d="M50.6893 151.475L47.4922 149.642V148.788L47.5249 148.77L50.6893 150.584V151.475Z" fill="#72B8CF"/>
<path opacity="0.5" d="M47.4922 150.256L50.6893 152.089V152.952L49.7358 153.5L47.4922 152.214V150.256Z" fill="#72B8CF"/>
<path d="M47.4922 151.507L50.6893 149.674V149.215L47.4922 151.048V151.507Z" fill="#283036"/>
<path d="M62.6566 136.568V129.979L58.9453 132.109V138.698L62.6566 136.568Z" fill="#283036"/>
<path d="M59.2031 138.254L62.4002 136.421V130.426L59.2031 132.259V138.254Z" fill="#72B8CF"/>
<path opacity="0.5" d="M62.4002 134.944L59.2031 133.111V132.257L59.2358 132.238L62.4002 134.053V134.944Z" fill="#72B8CF"/>
<path opacity="0.5" d="M59.2031 133.725L62.4002 135.553V136.421L61.4467 136.968L59.2031 135.683V133.725Z" fill="#72B8CF"/>
<path d="M59.2031 134.973L62.4002 133.145V132.686L59.2031 134.519V134.973Z" fill="#283036"/>
<path d="M56.8019 139.951V133.361L53.0859 135.491V142.081L56.8019 139.951Z" fill="#283036"/>
<path d="M53.3438 141.637L56.5362 139.804V133.812L53.3438 135.641V141.637Z" fill="#72B8CF"/>
<path opacity="0.5" d="M56.5362 138.327L53.3438 136.494V135.64L53.3718 135.621L56.5362 137.436V138.327Z" fill="#72B8CF"/>
<path opacity="0.5" d="M53.3438 137.107L56.5362 138.94V139.804L55.5873 140.351L53.3438 139.066V137.107Z" fill="#72B8CF"/>
<path d="M53.3438 138.359L56.5362 136.526V136.066L53.3438 137.899V138.359Z" fill="#283036"/>
<path d="M50.9456 143.303V136.713L47.2344 138.843V145.433L50.9456 143.303Z" fill="#283036"/>
<path d="M47.4922 144.988L50.6893 143.155V137.164L47.4922 138.992V144.988Z" fill="#72B8CF"/>
<path opacity="0.5" d="M50.6893 141.678L47.4922 139.845V138.991L47.5249 138.973L50.6893 140.787V141.678Z" fill="#72B8CF"/>
<path opacity="0.5" d="M47.4922 140.459L50.6893 142.292V143.155L49.7358 143.703L47.4922 142.417V140.459Z" fill="#72B8CF"/>
<path d="M47.4922 141.71L50.6893 139.877V139.418L47.4922 141.251V141.71Z" fill="#283036"/>
<path d="M74.3722 129.836V123.246L70.6562 125.371V131.961L74.3722 129.836Z" fill="#283036"/>
<path d="M70.9219 131.515L74.1143 129.687V123.691L70.9219 125.52V131.515Z" fill="#72B8CF"/>
<path opacity="0.5" d="M74.1143 128.207L70.9219 126.374V125.52L70.9499 125.506L74.1143 127.316V128.207Z" fill="#72B8CF"/>
<path opacity="0.5" d="M70.9219 126.986L74.1143 128.819V129.687L73.1608 130.23L70.9219 128.945V126.986Z" fill="#72B8CF"/>
<path d="M70.9219 128.24L74.1143 126.407V125.947L70.9219 127.78V128.24Z" fill="#283036"/>
<path d="M68.5128 133.219V126.629L64.7969 128.759V135.349L68.5128 133.219Z" fill="#283036"/>
<path d="M65.0625 134.903L68.2549 133.07V127.074L65.0625 128.907V134.903Z" fill="#72B8CF"/>
<path opacity="0.5" d="M68.2549 131.594L65.0625 129.761V128.907L65.0952 128.889L68.2549 130.703V131.594Z" fill="#72B8CF"/>
<path opacity="0.5" d="M65.0625 130.373L68.2549 132.201V133.069L67.3061 133.617L65.0625 132.331V130.373Z" fill="#72B8CF"/>
<path d="M65.0625 131.622L68.2549 129.793V129.334L65.0625 131.167V131.622Z" fill="#283036"/>
<path d="M80.2269 126.484V119.895L76.5156 122.025V128.614L80.2269 126.484Z" fill="#283036"/>
<path d="M76.7734 128.17L79.9705 126.337V120.346L76.7734 122.174V128.17Z" fill="#72B8CF"/>
<path opacity="0.5" d="M79.9705 124.86L76.7734 123.027V122.173L76.8062 122.154L79.9705 123.969V124.86Z" fill="#72B8CF"/>
<path opacity="0.5" d="M76.7734 123.641L79.9705 125.474V126.337L79.017 126.884L76.7734 125.599V123.641Z" fill="#72B8CF"/>
<path d="M76.7734 124.892L79.9705 123.059V122.6L76.7734 124.433V124.892Z" fill="#283036"/>
<path d="M74.3566 139.637V133.047L70.6406 135.172V141.767L74.3566 139.637Z" fill="#283036"/>
<path d="M70.8984 141.318L74.0955 139.49V133.494L70.8984 135.327V141.318Z" fill="#72B8CF"/>
<path opacity="0.5" d="M74.0955 138.007L70.8984 136.179V135.325L70.9312 135.307L74.0955 137.116V138.007Z" fill="#72B8CF"/>
<path opacity="0.5" d="M70.8984 136.787L74.0955 138.62V139.488L73.142 140.031L70.8984 138.745V136.787Z" fill="#72B8CF"/>
<path d="M70.8984 138.04L74.0955 136.207V135.752L70.8984 137.58V138.04Z" fill="#283036"/>
<path d="M80.2113 136.287V129.697L76.5 131.827V138.417L80.2113 136.287Z" fill="#283036"/>
<path d="M76.7578 137.973L79.9549 136.139V130.148L76.7578 131.977V137.973Z" fill="#72B8CF"/>
<path opacity="0.5" d="M79.9549 134.663L76.7578 132.829V131.976L76.7905 131.957L79.9549 133.772V134.663Z" fill="#72B8CF"/>
<path opacity="0.5" d="M76.7578 133.443L79.9549 135.276V136.14L79.0014 136.687L76.7578 135.402V133.443Z" fill="#72B8CF"/>
<path d="M76.7578 134.695L79.9549 132.862V132.402L76.7578 134.235V134.695Z" fill="#283036"/>
<path d="M62.6566 126.791V120.201L58.9453 122.331V128.921L62.6566 126.791Z" fill="#283036"/>
<path d="M59.2031 128.473L62.4002 126.644V120.648L59.2031 122.481V128.473Z" fill="#72B8CF"/>
<path opacity="0.5" d="M62.4002 125.162L59.2031 123.333V122.48L59.2358 122.461L62.4002 124.275V125.162Z" fill="#72B8CF"/>
<path opacity="0.5" d="M59.2031 123.947L62.4002 125.776V126.643L61.4467 127.191L59.2031 125.906V123.947Z" fill="#72B8CF"/>
<path d="M59.2031 125.196L62.4002 123.363V122.908L59.2031 124.737V125.196Z" fill="#283036"/>
<path d="M56.8019 130.174V123.584L53.0859 125.714V132.304L56.8019 130.174Z" fill="#283036"/>
<path d="M53.3438 131.86L56.5362 130.027V124.031L53.3438 125.864V131.86Z" fill="#72B8CF"/>
<path opacity="0.5" d="M56.5362 128.549L53.3438 126.716V125.862L53.3718 125.844L56.5362 127.658V128.549Z" fill="#72B8CF"/>
<path opacity="0.5" d="M53.3438 127.33L56.5362 129.163V130.026L55.5873 130.574L53.3438 129.288V127.33Z" fill="#72B8CF"/>
<path d="M53.3438 128.582L56.5362 126.748V126.289L53.3438 128.122V128.582Z" fill="#283036"/>
<path d="M50.9456 133.525V126.936L47.2344 129.066V135.655L50.9456 133.525Z" fill="#283036"/>
<path d="M47.4922 135.21L50.6893 133.377V127.381L47.4922 129.214V135.21Z" fill="#72B8CF"/>
<path opacity="0.5" d="M50.6893 131.901L47.4922 130.068V129.214L47.5249 129.195L50.6893 131.01V131.901Z" fill="#72B8CF"/>
<path opacity="0.5" d="M47.4922 130.682L50.6893 132.515V133.378L49.7358 133.925L47.4922 132.64V130.682Z" fill="#72B8CF"/>
<path d="M47.4922 131.928L50.6893 130.1V129.641L47.4922 131.474V131.928Z" fill="#283036"/>
<path d="M74.3722 120.057V113.463L70.6562 115.593V122.183L74.3722 120.057Z" fill="#283036"/>
<path d="M70.9219 121.738L74.1143 119.905V113.914L70.9219 115.742V121.738Z" fill="#72B8CF"/>
<path opacity="0.5" d="M74.1143 118.428L70.9219 116.595V115.741L70.9499 115.723L74.1143 117.537V118.428Z" fill="#72B8CF"/>
<path opacity="0.5" d="M70.9219 117.207L74.1143 119.04V119.903L73.1608 120.451L70.9219 119.165V117.207Z" fill="#72B8CF"/>
<path d="M70.9219 118.46L74.1143 116.627V116.168L70.9219 118.001V118.46Z" fill="#283036"/>
<path d="M68.5128 123.441V116.852L64.7969 118.982V125.571L68.5128 123.441Z" fill="#283036"/>
<path d="M65.0625 125.121L68.2549 123.293V117.297L65.0625 119.13V125.121Z" fill="#72B8CF"/>
<path opacity="0.5" d="M68.2549 121.812L65.0625 119.984V119.13L65.0952 119.111L68.2549 120.926V121.812Z" fill="#72B8CF"/>
<path opacity="0.5" d="M65.0625 120.598L68.2549 122.426V123.294L67.3061 123.841L65.0625 122.556V120.598Z" fill="#72B8CF"/>
<path d="M65.0625 121.844L68.2549 120.016V119.557L65.0625 121.385V121.844Z" fill="#283036"/>
<path d="M80.2269 116.707V110.117L76.5156 112.247V118.837L80.2269 116.707Z" fill="#283036"/>
<path d="M76.7734 118.39L79.9705 116.557V110.566L76.7734 112.395V118.39Z" fill="#72B8CF"/>
<path opacity="0.5" d="M79.9705 115.082L76.7734 113.249V112.396L76.8062 112.377L79.9705 114.191V115.082Z" fill="#72B8CF"/>
<path opacity="0.5" d="M76.7734 113.861L79.9705 115.694V116.558L79.017 117.105L76.7734 115.82V113.861Z" fill="#72B8CF"/>
<path d="M76.7734 115.115L79.9705 113.282V112.822L76.7734 114.655V115.115Z" fill="#283036"/>
<path d="M45.7557 121.493L45.0312 121.896V118.931L45.7557 118.527V121.493Z" fill="#283036"/>
<path opacity="0.3" d="M45.7557 121.493L45.0312 121.896V118.931L45.7557 118.527V121.493Z" fill="#283036"/>
<path d="M45.7593 118.527L45.0349 118.931L44.1094 118.415L44.8339 118.012L45.7593 118.527Z" fill="#283036"/>
<path d="M44.1094 118.416L45.0349 118.931V121.896L44.1094 121.381V118.416Z" fill="#283036"/>
<path opacity="0.3" d="M44.1094 118.416L45.0349 118.931V121.896L44.1094 121.381V118.416Z" fill="#283036"/>
<path d="M51.7198 118.066L51 118.47V115.505L51.7198 115.105V118.066Z" fill="#283036"/>
<path opacity="0.3" d="M51.7198 118.066L51 118.47V115.505L51.7198 115.105V118.066Z" fill="#283036"/>
<path d="M51.7234 115.106L51.0036 115.505L50.0781 114.99L50.8026 114.586L51.7234 115.106Z" fill="#283036"/>
<path d="M50.0781 114.988L51.0036 115.503V118.469L50.0781 117.954V114.988Z" fill="#283036"/>
<path opacity="0.3" d="M50.0781 114.988L51.0036 115.503V118.469L50.0781 117.954V114.988Z" fill="#283036"/>
<path d="M57.701 114.647L56.9766 115.046V112.085L57.701 111.682V114.647Z" fill="#283036"/>
<path opacity="0.3" d="M57.701 114.647L56.9766 115.046V112.085L57.701 111.682V114.647Z" fill="#283036"/>
<path d="M57.7 111.681L56.9755 112.085L56.0547 111.565L56.7745 111.166L57.7 111.681Z" fill="#283036"/>
<path d="M56.0547 111.566L56.9755 112.086V115.047L56.0547 114.532V111.566Z" fill="#283036"/>
<path opacity="0.3" d="M56.0547 111.566L56.9755 112.086V115.047L56.0547 114.532V111.566Z" fill="#283036"/>
<path d="M63.6776 111.221L62.9531 111.625V108.66L63.6776 108.256V111.221Z" fill="#283036"/>
<path opacity="0.3" d="M63.6776 111.221L62.9531 111.625V108.66L63.6776 108.256V111.221Z" fill="#283036"/>
<path d="M63.6734 108.257L62.9489 108.661L62.0234 108.146L62.7479 107.742L63.6734 108.257Z" fill="#283036"/>
<path d="M62.0234 108.145L62.9489 108.66V111.625L62.0234 111.105V108.145Z" fill="#283036"/>
<path opacity="0.3" d="M62.0234 108.145L62.9489 108.66V111.625L62.0234 111.105V108.145Z" fill="#283036"/>
<path d="M69.6417 107.797L68.9219 108.201V105.236L69.6417 104.832V107.797Z" fill="#283036"/>
<path opacity="0.3" d="M69.6417 107.797L68.9219 108.201V105.236L69.6417 104.832V107.797Z" fill="#283036"/>
<path d="M69.6453 104.833L68.9255 105.237L68 104.722L68.7245 104.318L69.6453 104.833Z" fill="#283036"/>
<path d="M68 104.721L68.9255 105.236V108.201L68 107.686V104.721Z" fill="#283036"/>
<path opacity="0.3" d="M68 104.721L68.9255 105.236V108.201L68 107.686V104.721Z" fill="#283036"/>
<path d="M75.6151 104.372L74.8906 104.775V101.81L75.6151 101.406V104.372Z" fill="#283036"/>
<path opacity="0.3" d="M75.6151 104.372L74.8906 104.775V101.81L75.6151 101.406V104.372Z" fill="#283036"/>
<path d="M75.614 101.408L74.8896 101.811L73.9688 101.296L74.6886 100.893L75.614 101.408Z" fill="#283036"/>
<path d="M73.9688 101.295L74.8896 101.81V104.775L73.9688 104.26V101.295Z" fill="#283036"/>
<path opacity="0.3" d="M73.9688 101.295L74.8896 101.81V104.775L73.9688 104.26V101.295Z" fill="#283036"/>
<path d="M33.8828 156.824V160.657L43.6471 166.249L42.17 161.618L33.8828 156.824Z" fill="#E1BD9A"/>
<path d="M43.6471 160.946L33.8828 155.279V156.834L35.2243 159.892L43.6471 164.783L84.1998 139.093L82.7134 138.48L43.6471 160.946Z" fill="#E1BD9A"/>
<path d="M84.2011 142.932L43.6484 166.251V162.417L84.2011 139.094V142.932Z" fill="#E1BD9A"/>
<path opacity="0.3" d="M84.2011 142.932L43.6484 166.251V162.417L84.2011 139.094V142.932Z" fill="#E1BD9A"/>
<path d="M35.2266 157.525V161.359L43.6493 166.25V162.417L35.2266 157.525Z" fill="#E1BD9A"/>
<path opacity="0.3" d="M33.8828 156.824V160.657L43.6471 166.249V162.416L33.8828 156.824Z" fill="#E1BD9A"/>
<path d="M68.6603 146.561L60.2656 151.391V156.204H61.1163L68.6603 151.865V146.561Z" fill="#823130"/>
<path opacity="0.3" d="M68.6603 146.561L60.2656 151.391V156.204H61.1163L68.6603 151.865V146.561Z" fill="#823130"/>
<path d="M67.2181 152.708V144.531L62.6094 147.172V155.349L67.2181 152.708Z" fill="#283036"/>
<path d="M62.9375 154.797L66.9012 152.523V145.084L62.9375 147.358V154.797Z" fill="#72B8CF"/>
<path opacity="0.5" d="M66.9012 150.689L62.9375 148.415V147.357L62.9749 147.334L66.9012 149.585V150.689Z" fill="#72B8CF"/>
<path opacity="0.5" d="M62.9375 149.176L66.9012 151.45V152.522L65.7186 153.199L62.9375 151.603V149.176Z" fill="#72B8CF"/>
<path d="M64.6641 153.803L65.1595 153.515V146.076L64.6641 146.364V153.803Z" fill="#283036"/>
<path d="M76.0244 149.016C76.0244 148.209 75.3841 147.55 74.5801 147.513C74.2763 147.207 73.8556 147.012 73.3882 147.012C73.0517 147.012 72.7432 147.109 72.4814 147.281C72.3505 147.225 72.2056 147.193 72.0561 147.193C71.4625 147.193 70.9857 147.666 70.9764 148.251C70.5978 148.608 70.3594 149.114 70.3594 149.675C70.3594 150.126 70.5136 150.539 70.7707 150.873C70.7707 150.887 70.766 150.901 70.766 150.914C70.766 151.624 71.3456 152.195 72.0561 152.195C72.2804 152.195 72.4908 152.135 72.6731 152.033C72.8741 152.14 73.1031 152.195 73.3461 152.195C73.5658 152.195 73.7715 152.144 73.9538 152.061C74.0847 152.116 74.2295 152.144 74.3838 152.144C74.9727 152.144 75.4542 151.694 75.5103 151.123C75.529 151.105 75.5476 151.086 75.5617 151.068C75.8374 150.803 76.0104 150.436 76.0104 150.023C76.0104 149.852 75.9777 149.689 75.9263 149.536C75.9917 149.378 76.0244 149.202 76.0244 149.016Z" fill="#005750"/>
<path opacity="0.3" d="M74.5294 148.445C74.5294 147.963 74.1461 147.568 73.6646 147.545C73.4824 147.359 73.23 147.248 72.9495 147.248C72.7485 147.248 72.5616 147.308 72.4073 147.41C72.3278 147.378 72.2437 147.359 72.1549 147.359C71.7997 147.359 71.5146 147.643 71.5099 147.991C71.2808 148.204 71.1406 148.506 71.1406 148.84C71.1406 149.109 71.2341 149.36 71.3884 149.554C71.3884 149.564 71.3837 149.573 71.3837 149.578C71.3837 150 71.7296 150.343 72.1549 150.343C72.2905 150.343 72.412 150.306 72.5242 150.246C72.6457 150.306 72.7812 150.343 72.9261 150.343C73.057 150.343 73.1785 150.315 73.2907 150.264C73.3702 150.297 73.459 150.315 73.5478 150.315C73.903 150.315 74.1882 150.046 74.2209 149.703C74.2302 149.694 74.2396 149.68 74.2536 149.67C74.4172 149.513 74.52 149.29 74.52 149.049C74.52 148.947 74.5013 148.849 74.4686 148.756C74.506 148.663 74.5294 148.557 74.5294 148.445Z" fill="#005750"/>
<g opacity="0.3">
<path d="M76.0213 149.016C76.0213 148.214 75.3903 147.564 74.5957 147.518C74.7359 147.648 74.8574 147.801 74.9462 147.982C75.1425 148.385 75.1519 148.826 75.0023 149.216C75.1986 149.638 75.021 150.144 74.5957 150.348C74.4882 150.399 74.376 150.427 74.2591 150.432C74.1329 150.645 73.9413 150.822 73.7029 150.938C73.3664 151.1 72.9971 151.109 72.6746 150.993C72.0857 151.244 71.3939 150.993 71.1134 150.418C71.048 150.283 71.0106 150.144 70.9966 150.005C70.9031 149.917 70.8237 149.81 70.7629 149.685C70.618 149.392 70.6133 149.068 70.7161 148.784C70.7208 148.766 70.7302 148.747 70.7348 148.729C70.7208 148.687 70.7021 148.636 70.6881 148.59C70.4731 148.9 70.3516 149.276 70.3516 149.685C70.3516 150.135 70.5058 150.548 70.7629 150.882C70.7629 150.896 70.7582 150.91 70.7582 150.924C70.7582 151.634 71.3378 152.205 72.0483 152.205C72.2726 152.205 72.483 152.144 72.6653 152.042C72.8662 152.149 73.0953 152.205 73.3383 152.205C73.558 152.205 73.7637 152.154 73.946 152.07C74.0768 152.126 74.2217 152.154 74.376 152.154C74.9649 152.154 75.4464 151.703 75.5024 151.133C75.5211 151.114 75.5398 151.095 75.5539 151.077C75.8296 150.812 76.0026 150.446 76.0026 150.033C76.0026 149.861 75.9699 149.699 75.9184 149.546C75.9886 149.378 76.0213 149.202 76.0213 149.016Z" fill="#005750"/>
<path d="M74.2188 147.238C74.2234 147.248 74.2234 147.252 74.2281 147.261C74.2935 147.294 74.359 147.336 74.4197 147.378C74.359 147.326 74.2889 147.28 74.2188 147.238Z" fill="#005750"/>
</g>
<g opacity="0.3">
<path d="M76.0197 149.017C76.0197 148.441 75.6926 147.94 75.2111 147.689C75.4916 147.945 75.6739 148.307 75.6739 148.72C75.6739 148.891 75.6411 149.058 75.585 149.212C75.6365 149.355 75.6645 149.504 75.6645 149.666C75.6645 150.047 75.5056 150.39 75.2485 150.636C75.2345 150.655 75.2158 150.669 75.2018 150.687C75.1504 151.221 74.7016 151.639 74.1501 151.639C74.0099 151.639 73.8743 151.611 73.7481 151.56C73.5752 151.639 73.3835 151.685 73.1825 151.685C72.9535 151.685 72.7432 151.629 72.5562 151.532C72.3833 151.625 72.1916 151.685 71.9813 151.685C71.3176 151.685 70.78 151.151 70.78 150.492C70.78 150.478 70.7847 150.469 70.7847 150.455C70.5463 150.149 70.4014 149.759 70.4014 149.342C70.4014 149.314 70.4061 149.286 70.4061 149.258C70.3734 149.397 70.3594 149.541 70.3594 149.685C70.3594 150.135 70.5136 150.548 70.7707 150.882C70.7707 150.896 70.766 150.91 70.766 150.924C70.766 151.634 71.3456 152.205 72.0561 152.205C72.2804 152.205 72.4908 152.144 72.6731 152.042C72.8741 152.149 73.1031 152.205 73.3461 152.205C73.5658 152.205 73.7715 152.154 73.9538 152.07C74.0847 152.126 74.2296 152.154 74.3838 152.154C74.9727 152.154 75.4542 151.704 75.5103 151.133C75.529 151.114 75.5477 151.096 75.5617 151.077C75.8375 150.813 76.0104 150.446 76.0104 150.033C76.0104 149.861 75.9777 149.699 75.9263 149.546C75.987 149.379 76.0197 149.202 76.0197 149.017Z" fill="#005750"/>
<path d="M74.2891 147.279C74.3031 147.293 74.3124 147.303 74.3265 147.312C74.3311 147.312 74.3405 147.312 74.3451 147.316C74.3265 147.307 74.3078 147.293 74.2891 147.279Z" fill="#005750"/>
</g>
<path d="M76.8461 101.324L43.2812 120.476V113.32L76.8461 94.168V101.324Z" fill="#E1BD9A"/>
<path opacity="0.3" d="M76.8461 101.324L43.2812 120.476V113.32L76.8461 94.168V101.324Z" fill="#E1BD9A"/>
<path d="M76.8413 94.1675L43.2764 113.319L41.0469 112.076L74.6071 92.9238L76.8413 94.1675Z" fill="#E1BD9A"/>
<path d="M41.0469 112.076L43.2764 113.32V120.476L41.0469 119.232V112.076Z" fill="#E1BD9A"/>
<path opacity="0.3" d="M41.0469 112.076L43.2764 113.32V120.476L41.0469 119.232V112.076Z" fill="#E1BD9A"/>
<path d="M47.1271 113.21V113.786L46.8841 113.925V114.89C46.8841 115.609 47.0477 115.67 47.3328 115.503C47.6086 115.345 47.7862 115.136 47.7862 114.366V113.419L47.5431 113.558V112.969L48.8753 112.203V112.779L48.6322 112.918V114.004C48.6322 115.066 48.1882 115.8 47.3375 116.287C46.426 116.783 45.9399 116.589 45.9399 115.572V114.468L45.6875 114.612V114.032L47.1271 113.21Z" fill="#823130"/>
<path d="M52.2175 110.872V113.424L51.25 113.981L50.1002 112.937V114.064L50.446 113.865V114.44L49.0625 115.234V114.658L49.3289 114.505V112.528L49.0672 112.677V112.097L50.3619 111.354L51.465 112.366V111.299L51.1565 111.475V110.895L52.512 110.115V110.695L52.2175 110.872Z" fill="#823130"/>
<path d="M54.2301 109.137V109.726L53.9496 109.884V111.828L54.2301 111.666V112.26L52.7344 113.118V112.524L53.0195 112.362V110.418L52.7344 110.58V109.991L54.2301 109.137Z" fill="#823130"/>
<path d="M56.2663 110.096C56.2756 109.966 56.3364 109.711 56.4299 109.432L56.8412 108.221L56.6028 108.36V107.78L57.8835 107.047V107.627L57.6638 107.752L56.5841 110.917L55.7568 111.39L54.5602 109.53L54.3125 109.673V109.093L55.9718 108.142V108.722L55.7288 108.861L56.112 109.646C56.1821 109.822 56.2429 109.989 56.2523 110.105L56.2663 110.096Z" fill="#823130"/>
<path d="M60.6688 105.445V106.434L59.8882 106.879V106.48L59.1684 106.893V107.51L60.0238 107.018V107.612L59.1684 108.104V108.833L59.8882 108.42V108.002L60.6688 107.557V108.568L57.9531 110.132V109.538L58.2382 109.376V107.431L57.9531 107.594V107.005L60.6688 105.445Z" fill="#823130"/>
<path d="M62.3583 104.476C63.4053 103.878 63.6063 104.17 63.6063 104.681C63.6063 105.029 63.3258 105.437 62.9519 105.706C63.2651 105.572 63.5409 105.683 63.5409 106.003C63.5409 106.193 63.5689 106.291 63.6484 106.244C63.7138 106.207 63.7512 106.133 63.7512 106.04V105.892L64.055 105.72V105.966C64.055 106.337 63.8961 106.773 63.396 107.061C62.807 107.4 62.5219 107.251 62.5219 106.732C62.5219 106.323 62.4705 106.254 62.0732 106.486V107.182L62.349 107.024V107.613L60.8906 108.449V107.859L61.143 107.716V105.762L60.8906 105.906V105.321L62.3583 104.476ZM62.0732 105.985L62.2742 105.869C62.5359 105.72 62.7089 105.497 62.7089 105.256C62.7089 104.991 62.5593 104.945 62.2975 105.094L62.0732 105.224V105.985Z" fill="#823130"/>
<path d="M64.2203 105.414L65.057 104.932C65.057 105.307 65.4356 105.154 65.6225 105.052C65.7814 104.964 66.0058 104.797 66.0058 104.607C66.0058 104.259 64.2764 105.4 64.2764 104.259C64.2764 103.595 64.9074 102.936 65.3468 102.681C65.7254 102.463 66.1086 102.365 66.2909 102.597L66.3377 102.194L67.1136 101.748V102.871L66.2956 103.34C66.2956 103.01 66.0338 102.969 65.7207 103.15C65.5898 103.224 65.4075 103.409 65.4075 103.567C65.4075 104.027 67.193 102.899 67.193 103.948C67.193 104.644 66.534 105.275 65.9965 105.581C65.5431 105.841 65.2252 105.813 65.0523 105.711L65.0009 106.082L64.2109 106.533V105.414H64.2203Z" fill="#823130"/>
<path d="M68.9176 100.717V101.306L68.6372 101.469V103.413L68.9176 103.251V103.845L67.4219 104.703V104.109L67.707 103.947V102.002L67.4219 102.165V101.575L68.9176 100.717Z" fill="#823130"/>
<path d="M72.1226 100.044L71.4589 100.425V99.8542L71.0803 100.072V102.017L71.4542 101.803V102.397L69.7762 103.358V102.764L70.1454 102.55V100.601L69.7575 100.824V101.395L69.0938 101.775V100.611L72.1179 98.875V100.044H72.1226Z" fill="#823130"/>
<path d="M73.881 99.2875C73.8997 99.1854 73.9978 98.9441 74.0493 98.8049L74.297 98.2109L74.0493 98.3548V97.784L75.2599 97.0879V97.6587L75.0168 97.7979L74.1848 99.733V100.253L74.4372 100.109V100.689L72.9929 101.515V100.935L73.25 100.786V100.257L72.3759 99.3107L72.1562 99.436V98.8652L73.6987 97.9835V98.5543L73.465 98.6889L73.7268 99.0137C73.7548 99.0834 73.8483 99.2319 73.867 99.2968L73.881 99.2875Z" fill="#823130"/>
<path d="M61.9594 157.764L60.3281 158.701V146.028L61.9594 145.086V157.764Z" fill="#E1BD9A"/>
<path opacity="0.3" d="M61.9594 157.764L60.3281 158.701V146.028L61.9594 145.086V157.764Z" fill="#E1BD9A"/>
<path d="M61.9528 145.085L60.3216 146.027L58.5781 145.029L60.2141 144.092L61.9528 145.085Z" fill="#E1BD9A"/>
<path d="M58.5781 145.029L60.3216 146.027V158.701L58.5781 157.703V145.029Z" fill="#E1BD9A"/>
<path opacity="0.3" d="M58.5781 145.029L60.3216 146.027V158.701L58.5781 157.703V145.029Z" fill="#E1BD9A"/>
<path opacity="0.3" d="M61.9528 145.085L60.2141 144.092L58.5781 145.029V157.703L60.3216 158.7L61.9528 157.763V145.085Z" fill="#E1BD9A"/>
<path d="M71.175 152.502L69.5391 153.439V140.766L71.175 139.828V152.502Z" fill="#E1BD9A"/>
<path opacity="0.3" d="M71.175 152.502L69.5391 153.439V140.766L71.175 139.828V152.502Z" fill="#E1BD9A"/>
<path d="M71.1763 139.828L69.5403 140.765L67.7969 139.767L69.4328 138.83L71.1763 139.828Z" fill="#E1BD9A"/>
<path d="M67.7969 139.768L69.5403 140.765V153.439L67.7969 152.446V139.768Z" fill="#E1BD9A"/>
<path opacity="0.3" d="M67.7969 139.768L69.5403 140.765V153.439L67.7969 152.446V139.768Z" fill="#E1BD9A"/>
<path opacity="0.3" d="M71.1716 139.828L69.4328 138.83L67.7969 139.767V152.446L69.5403 153.439L71.1763 152.501V139.828H71.1716Z" fill="#E1BD9A"/>
<path d="M67.9797 161.179L66.3438 162.117V149.443L67.9797 148.506V161.179Z" fill="#E1BD9A"/>
<path opacity="0.3" d="M67.9797 161.179L66.3438 162.117V149.443L67.9797 148.506V161.179Z" fill="#E1BD9A"/>
<path d="M67.9731 148.506L66.3372 149.443L64.5938 148.445L66.2297 147.508L67.9731 148.506Z" fill="#E1BD9A"/>
<path d="M64.5938 148.445L66.3372 149.443V162.117L64.5938 161.123V148.445Z" fill="#E1BD9A"/>
<path opacity="0.3" d="M64.5938 148.445L66.3372 149.443V162.117L64.5938 161.123V148.445Z" fill="#E1BD9A"/>
<path opacity="0.3" d="M67.9731 148.506L66.2297 147.508L64.5938 148.445V161.123L66.3372 162.116L67.9731 161.179V148.506Z" fill="#E1BD9A"/>
<path d="M77.2219 155.972L75.5859 156.91V144.236L77.2219 143.299V155.972Z" fill="#E1BD9A"/>
<path opacity="0.3" d="M77.2219 155.972L75.5859 156.91V144.236L77.2219 143.299V155.972Z" fill="#E1BD9A"/>
<path d="M77.2231 143.299L75.5872 144.236L73.8438 143.238L75.4797 142.301L77.2231 143.299Z" fill="#E1BD9A"/>
<path d="M73.8438 143.238L75.5872 144.236V156.91L73.8438 155.912V143.238Z" fill="#E1BD9A"/>
<path opacity="0.3" d="M73.8438 143.238L75.5872 144.236V156.91L73.8438 155.912V143.238Z" fill="#E1BD9A"/>
<path opacity="0.3" d="M77.2231 143.299L75.4797 142.301L73.8438 143.238V155.912L75.5872 156.909L77.2231 155.972V143.299Z" fill="#E1BD9A"/>
<path d="M77.2283 143.351L66.375 149.486V147.588L77.2283 141.453V143.351Z" fill="#E1BD9A"/>
<path opacity="0.3" d="M77.2283 143.351L66.375 149.486V147.588L77.2283 141.453V143.351Z" fill="#E1BD9A"/>
<path d="M77.2232 141.452L66.3699 147.587L58.5781 143.188L69.4314 137.053L77.2232 141.452Z" fill="#E1BD9A"/>
<path d="M58.5781 143.188L66.3699 147.587V149.485L58.5781 145.086V143.188Z" fill="#E1BD9A"/>
<path opacity="0.3" d="M58.5781 143.188L66.3699 147.587V149.485L58.5781 145.086V143.188Z" fill="#E1BD9A"/>
<path opacity="0.3" d="M77.2232 141.452L69.4314 137.053L58.5781 143.188V145.086L66.3699 149.485L77.2232 143.35V141.452Z" fill="#E1BD9A"/>
<path d="M60.1572 157.893C60.1572 157.086 59.5169 156.432 58.7129 156.39C58.4091 156.084 57.9884 155.889 57.521 155.889C57.1845 155.889 56.876 155.986 56.6142 156.158C56.4834 156.102 56.3385 156.07 56.1889 156.07C55.5953 156.07 55.1185 156.543 55.1092 157.128C54.7306 157.485 54.4922 157.991 54.4922 158.552C54.4922 159.003 54.6464 159.416 54.9035 159.75C54.9035 159.764 54.8988 159.778 54.8988 159.791C54.8988 160.501 55.4784 161.072 56.1889 161.072C56.4133 161.072 56.6236 161.012 56.8059 160.91C57.0069 161.017 57.2359 161.072 57.479 161.072C57.6986 161.072 57.9043 161.026 58.0866 160.938C58.2221 160.993 58.3624 161.021 58.5166 161.021C59.1055 161.021 59.587 160.571 59.6431 160C59.6618 159.982 59.6805 159.963 59.6945 159.945C59.9703 159.68 60.1432 159.313 60.1432 158.9C60.1432 158.729 60.1105 158.566 60.0591 158.413C60.1198 158.255 60.1572 158.079 60.1572 157.893Z" fill="#005750"/>
<path opacity="0.3" d="M58.6544 157.322C58.6544 156.84 58.2711 156.445 57.7896 156.422C57.6074 156.236 57.355 156.125 57.0745 156.125C56.8735 156.125 56.6866 156.185 56.5323 156.287C56.4529 156.255 56.3687 156.236 56.2799 156.236C55.9247 156.236 55.6396 156.519 55.6349 156.867C55.4058 157.081 55.2656 157.383 55.2656 157.717C55.2656 157.986 55.3591 158.236 55.5134 158.431C55.5134 158.441 55.5087 158.45 55.5087 158.455C55.5087 158.877 55.8546 159.22 56.2799 159.22C56.4155 159.22 56.537 159.183 56.6492 159.123C56.7707 159.183 56.9062 159.22 57.0511 159.22C57.182 159.22 57.3035 159.192 57.4157 159.141C57.4952 159.174 57.584 159.192 57.6728 159.192C58.028 159.192 58.3132 158.923 58.3459 158.58C58.3552 158.571 58.3646 158.557 58.3786 158.547C58.5422 158.39 58.645 158.172 58.645 157.926C58.645 157.823 58.6263 157.726 58.5936 157.633C58.6357 157.54 58.6544 157.434 58.6544 157.322Z" fill="#005750"/>
<g opacity="0.3">
<path d="M60.1541 157.893C60.1541 157.091 59.5231 156.441 58.7285 156.395C58.8687 156.524 58.9902 156.678 59.079 156.859C59.2754 157.262 59.28 157.703 59.1351 158.093C59.3314 158.515 59.1538 159.021 58.7285 159.225C58.621 159.276 58.5088 159.304 58.3919 159.309C58.2657 159.522 58.0741 159.699 57.8357 159.815C57.4992 159.977 57.1299 159.986 56.8074 159.87C56.2185 160.121 55.5267 159.87 55.2463 159.295C55.1808 159.16 55.1434 159.021 55.1294 158.882C55.0359 158.794 54.9565 158.687 54.8957 158.562C54.7508 158.269 54.7461 157.945 54.849 157.661C54.8536 157.643 54.863 157.624 54.8677 157.606C54.8536 157.564 54.8349 157.513 54.8209 157.467C54.6059 157.777 54.4844 158.153 54.4844 158.562C54.4844 159.012 54.6386 159.425 54.8957 159.759C54.8957 159.773 54.891 159.787 54.891 159.801C54.891 160.511 55.4706 161.082 56.1811 161.082C56.4054 161.082 56.6158 161.021 56.7981 160.919C56.9991 161.026 57.2281 161.082 57.4711 161.082C57.6908 161.082 57.8965 161.035 58.0788 160.947C58.2143 161.003 58.3546 161.031 58.5088 161.031C59.0977 161.031 59.5792 160.58 59.6353 160.01C59.654 159.991 59.6727 159.972 59.6867 159.954C59.9625 159.689 60.1354 159.323 60.1354 158.91C60.1354 158.738 60.1027 158.576 60.0513 158.422C60.1167 158.255 60.1541 158.079 60.1541 157.893Z" fill="#005750"/>
<path d="M58.3594 156.117C58.364 156.126 58.3641 156.131 58.3687 156.14C58.4342 156.173 58.4996 156.215 58.5604 156.256C58.4996 156.205 58.4295 156.159 58.3594 156.117Z" fill="#005750"/>
</g>
<g opacity="0.3">
<path d="M60.1557 157.894C60.1557 157.318 59.8285 156.817 59.3471 156.566C59.6275 156.822 59.8098 157.184 59.8098 157.597C59.8098 157.768 59.7771 157.935 59.721 158.089C59.7724 158.232 59.8005 158.381 59.8005 158.543C59.8005 158.924 59.6415 159.267 59.3845 159.513C59.3704 159.532 59.3517 159.546 59.3377 159.564C59.2863 160.098 58.8376 160.516 58.2907 160.516C58.1505 160.516 58.0149 160.488 57.8887 160.437C57.7158 160.516 57.5242 160.562 57.3232 160.562C57.0941 160.562 56.8838 160.506 56.6968 160.409C56.5239 160.502 56.3323 160.562 56.1219 160.562C55.4582 160.562 54.9207 160.028 54.9207 159.369C54.9207 159.355 54.9253 159.346 54.9253 159.332C54.687 159.026 54.5421 158.636 54.5421 158.218C54.5421 158.191 54.5467 158.163 54.5467 158.135C54.514 158.274 54.5 158.413 54.5 158.562C54.5 159.012 54.6542 159.425 54.9113 159.759C54.9113 159.773 54.9067 159.787 54.9067 159.801C54.9067 160.511 55.4862 161.082 56.1967 161.082C56.4211 161.082 56.6314 161.021 56.8137 160.919C57.0147 161.026 57.2437 161.082 57.4868 161.082C57.7065 161.082 57.9121 161.035 58.0944 160.947C58.23 161.003 58.3702 161.031 58.5244 161.031C59.1134 161.031 59.5948 160.581 59.6509 160.01C59.6696 159.991 59.6883 159.973 59.7023 159.954C59.9781 159.69 60.151 159.323 60.151 158.91C60.151 158.738 60.1183 158.576 60.0669 158.423C60.1183 158.256 60.1557 158.079 60.1557 157.894Z" fill="#005750"/>
<path d="M58.4219 156.158C58.4359 156.172 58.4452 156.181 58.4593 156.191C58.4639 156.191 58.4733 156.191 58.478 156.195C58.4593 156.186 58.4406 156.172 58.4219 156.158Z" fill="#005750"/>
</g>
</g>
<rect x="153" width="421" height="99" rx="18" fill="#006DB7"/>
<path d="M97 122L208.5 86.026L176.5 62L97 122Z" fill="#006DB7"/>
<rect x="166.048" y="28.5476" width="41.9048" height="41.9048" rx="20.9524" fill="#4285F4"/>
<rect x="166.048" y="28.5476" width="41.9048" height="41.9048" rx="20.9524" stroke="white" stroke-width="2.09524"/>
<g clip-path="url(#clip1_171_93099)">
<path d="M197.058 42.731L189.684 39.218C188.06 38.2484 186.04 38.2312 184.401 39.173L176.944 42.731C176.916 42.745 176.887 42.76 176.86 42.776C175.09 43.7878 174.476 46.0426 175.487 47.8123C175.83 48.4122 176.335 48.9037 176.944 49.231L179.001 50.211V55.111C179.002 57.302 180.427 59.2378 182.52 59.889C183.975 60.3102 185.485 60.5164 187.001 60.501C188.516 60.518 190.025 60.3135 191.482 59.894C193.574 59.2429 194.999 57.3071 195.001 55.116V50.209L197.001 49.253V57.5009C197.001 58.0532 197.448 58.5009 198.001 58.5009C198.553 58.5009 199.001 58.0532 199.001 57.5009V45.5009C199.007 44.3267 198.08 43.2419 197.058 42.731ZM193.001 55.116C193.001 56.4266 192.151 57.5858 190.901 57.979C189.633 58.3412 188.319 58.517 187.001 58.501C185.682 58.517 184.368 58.3412 183.101 57.979C181.85 57.5858 181 56.4266 181.001 55.116V51.164L184.318 52.744C185.136 53.23 186.071 53.4854 187.023 53.483C187.929 53.4894 188.819 53.2496 189.6 52.789L193.001 51.164V55.116ZM196.201 47.426L188.659 51.026C187.607 51.6383 186.304 51.6209 185.269 50.981L177.89 47.471C177.067 47.0274 176.76 46.0011 177.203 45.1786C177.353 44.9005 177.578 44.6699 177.853 44.513L185.348 40.933C186.399 40.322 187.702 40.3393 188.738 40.978L196.112 44.491C196.654 44.7921 196.993 45.3607 197.001 45.981C197.002 46.5685 196.699 47.1149 196.201 47.426Z" fill="white"/>
</g>
<path d="M238.785 24.5909H242.21V36.9446C242.21 38.2988 241.89 39.4898 241.25 40.5178C240.616 41.5457 239.723 42.349 238.572 42.9276C237.421 43.5 236.076 43.7862 234.538 43.7862C232.993 43.7862 231.645 43.5 230.494 42.9276C229.343 42.349 228.45 41.5457 227.816 40.5178C227.182 39.4898 226.865 38.2988 226.865 36.9446V24.5909H230.29V36.6584C230.29 37.4463 230.463 38.148 230.808 38.7635C231.158 39.379 231.651 39.8622 232.285 40.2131C232.919 40.5578 233.67 40.7301 234.538 40.7301C235.406 40.7301 236.156 40.5578 236.79 40.2131C237.431 39.8622 237.923 39.379 238.268 38.7635C238.612 38.148 238.785 37.4463 238.785 36.6584V24.5909ZM249.128 35.1903V43.5H245.786V29.3182H248.98V31.728H249.146C249.473 30.9339 249.993 30.303 250.707 29.8352C251.427 29.3674 252.316 29.1335 253.375 29.1335C254.354 29.1335 255.206 29.3428 255.933 29.7614C256.665 30.1799 257.231 30.7862 257.632 31.5803C258.038 32.3743 258.238 33.3376 258.232 34.4702V43.5H254.889V34.9872C254.889 34.0393 254.643 33.2976 254.151 32.7621C253.664 32.2266 252.99 31.9588 252.129 31.9588C251.544 31.9588 251.024 32.0881 250.568 32.3466C250.119 32.599 249.765 32.9652 249.507 33.4453C249.254 33.9254 249.128 34.5071 249.128 35.1903ZM261.629 43.5V29.3182H264.972V43.5H261.629ZM263.31 27.3054C262.78 27.3054 262.325 27.13 261.943 26.7791C261.562 26.4221 261.371 25.9943 261.371 25.4957C261.371 24.991 261.562 24.5632 261.943 24.2124C262.325 23.8553 262.78 23.6768 263.31 23.6768C263.845 23.6768 264.301 23.8553 264.676 24.2124C265.058 24.5632 265.249 24.991 265.249 25.4957C265.249 25.9943 265.058 26.4221 264.676 26.7791C264.301 27.13 263.845 27.3054 263.31 27.3054ZM281.076 29.3182L276.026 43.5H272.333L267.282 29.3182H270.846L274.105 39.853H274.253L277.522 29.3182H281.076ZM289.185 43.777C287.763 43.777 286.535 43.4815 285.501 42.8906C284.473 42.2936 283.682 41.4503 283.128 40.3608C282.574 39.2652 282.297 37.9756 282.297 36.4922C282.297 35.0334 282.574 33.7531 283.128 32.6513C283.689 31.5433 284.47 30.6816 285.474 30.0661C286.477 29.4444 287.656 29.1335 289.01 29.1335C289.884 29.1335 290.709 29.2751 291.484 29.5582C292.266 29.8352 292.955 30.2661 293.552 30.8509C294.156 31.4356 294.63 32.1804 294.974 33.0852C295.319 33.9839 295.491 35.0549 295.491 36.2983V37.3232H283.867V35.0703H292.287C292.281 34.4302 292.143 33.8608 291.872 33.3622C291.601 32.8575 291.223 32.4605 290.736 32.1712C290.256 31.8819 289.696 31.7372 289.056 31.7372C288.373 31.7372 287.773 31.9034 287.256 32.2358C286.738 32.562 286.335 32.9929 286.046 33.5284C285.763 34.0578 285.618 34.6394 285.612 35.2734V37.2401C285.612 38.0649 285.763 38.7727 286.064 39.3636C286.366 39.9484 286.788 40.3977 287.329 40.7116C287.871 41.0194 288.505 41.1733 289.231 41.1733C289.718 41.1733 290.158 41.1056 290.552 40.9702C290.946 40.8286 291.287 40.6224 291.577 40.3516C291.866 40.0807 292.084 39.7453 292.232 39.3452L295.353 39.696C295.156 40.5208 294.78 41.241 294.226 41.8565C293.679 42.4659 292.977 42.9399 292.121 43.2784C291.266 43.6108 290.287 43.777 289.185 43.777ZM298.319 43.5V29.3182H301.56V31.6818H301.707C301.966 30.8632 302.409 30.2322 303.037 29.7891C303.671 29.3397 304.394 29.1151 305.207 29.1151C305.391 29.1151 305.598 29.1243 305.825 29.1428C306.059 29.1551 306.253 29.1766 306.407 29.2074V32.282C306.265 32.2327 306.041 32.1896 305.733 32.1527C305.431 32.1096 305.139 32.0881 304.856 32.0881C304.246 32.0881 303.699 32.2204 303.212 32.4851C302.732 32.7436 302.354 33.1037 302.077 33.5653C301.8 34.027 301.661 34.5594 301.661 35.1626V43.5H298.319ZM319.836 33.0668L316.789 33.3991C316.703 33.0914 316.552 32.8021 316.337 32.5312C316.128 32.2604 315.845 32.0419 315.488 31.8757C315.131 31.7095 314.694 31.6264 314.176 31.6264C313.481 31.6264 312.896 31.7772 312.422 32.0788C311.954 32.3804 311.724 32.7713 311.73 33.2514C311.724 33.6638 311.874 33.9993 312.182 34.2578C312.496 34.5163 313.013 34.7287 313.733 34.8949L316.152 35.4119C317.494 35.7012 318.491 36.1598 319.144 36.7876C319.802 37.4155 320.135 38.2372 320.141 39.2528C320.135 40.1454 319.873 40.9332 319.356 41.6165C318.845 42.2936 318.134 42.8229 317.223 43.2045C316.312 43.5862 315.266 43.777 314.084 43.777C312.348 43.777 310.951 43.4138 309.892 42.6875C308.834 41.955 308.203 40.9363 308 39.6314L311.259 39.3175C311.407 39.9576 311.721 40.4408 312.201 40.767C312.681 41.0933 313.306 41.2564 314.075 41.2564C314.869 41.2564 315.506 41.0933 315.986 40.767C316.472 40.4408 316.716 40.0376 316.716 39.5575C316.716 39.1513 316.559 38.8158 316.245 38.5511C315.937 38.2865 315.457 38.0833 314.804 37.9418L312.385 37.4339C311.025 37.1508 310.019 36.6738 309.366 36.0028C308.714 35.3258 308.391 34.4702 308.397 33.4361C308.391 32.562 308.627 31.8049 309.108 31.1648C309.594 30.5185 310.268 30.0199 311.13 29.669C311.998 29.312 312.998 29.1335 314.13 29.1335C315.792 29.1335 317.1 29.4875 318.054 30.1953C319.015 30.9032 319.609 31.8603 319.836 33.0668ZM322.897 43.5V29.3182H326.239V43.5H322.897ZM324.577 27.3054C324.048 27.3054 323.593 27.13 323.211 26.7791C322.829 26.4221 322.638 25.9943 322.638 25.4957C322.638 24.991 322.829 24.5632 323.211 24.2124C323.593 23.8553 324.048 23.6768 324.577 23.6768C325.113 23.6768 325.568 23.8553 325.944 24.2124C326.326 24.5632 326.516 24.991 326.516 25.4957C326.516 25.9943 326.326 26.4221 325.944 26.7791C325.568 27.13 325.113 27.3054 324.577 27.3054ZM334.939 43.7493C333.825 43.7493 332.828 43.4631 331.948 42.8906C331.067 42.3182 330.372 41.4872 329.861 40.3977C329.35 39.3082 329.095 37.9848 329.095 36.4276C329.095 34.8518 329.353 33.5223 329.87 32.4389C330.393 31.3494 331.098 30.5277 331.985 29.9737C332.871 29.4136 333.859 29.1335 334.948 29.1335C335.779 29.1335 336.463 29.2751 336.998 29.5582C337.534 29.8352 337.958 30.1707 338.272 30.5646C338.586 30.9524 338.829 31.3187 339.002 31.6634H339.14V24.5909H342.492V43.5H339.205V41.2656H339.002C338.829 41.6103 338.58 41.9766 338.254 42.3643C337.927 42.746 337.497 43.0722 336.961 43.343C336.426 43.6139 335.752 43.7493 334.939 43.7493ZM335.872 41.0071C336.579 41.0071 337.183 40.8163 337.681 40.4347C338.18 40.0469 338.558 39.5083 338.817 38.8189C339.075 38.1295 339.205 37.3262 339.205 36.4091C339.205 35.492 339.075 34.6948 338.817 34.0178C338.565 33.3407 338.189 32.8144 337.691 32.4389C337.198 32.0634 336.592 31.8757 335.872 31.8757C335.127 31.8757 334.505 32.0696 334.007 32.4574C333.508 32.8452 333.133 33.3807 332.88 34.0639C332.628 34.7472 332.502 35.5289 332.502 36.4091C332.502 37.2955 332.628 38.0864 332.88 38.782C333.139 39.4714 333.517 40.0161 334.016 40.4162C334.521 40.8101 335.139 41.0071 335.872 41.0071ZM350.134 43.7862C349.236 43.7862 348.426 43.6262 347.706 43.3061C346.992 42.9799 346.426 42.4998 346.007 41.8658C345.595 41.2318 345.388 40.45 345.388 39.5206C345.388 38.7204 345.536 38.0587 345.832 37.5355C346.127 37.0123 346.53 36.5938 347.041 36.2798C347.552 35.9659 348.128 35.7289 348.768 35.5689C349.414 35.4027 350.082 35.2827 350.771 35.2088C351.602 35.1226 352.276 35.0457 352.793 34.978C353.31 34.9041 353.686 34.7933 353.92 34.6456C354.16 34.4917 354.28 34.2547 354.28 33.9347V33.8793C354.28 33.1837 354.074 32.6451 353.661 32.2635C353.249 31.8819 352.655 31.6911 351.879 31.6911C351.061 31.6911 350.411 31.8696 349.931 32.2266C349.457 32.5836 349.137 33.0052 348.971 33.4915L345.85 33.0483C346.096 32.1866 346.503 31.4664 347.069 30.8878C347.635 30.303 348.328 29.866 349.146 29.5767C349.965 29.2812 350.87 29.1335 351.861 29.1335C352.544 29.1335 353.224 29.2135 353.901 29.3736C354.578 29.5336 355.197 29.7983 355.757 30.1676C356.317 30.5308 356.767 31.0263 357.105 31.6541C357.45 32.282 357.622 33.0668 357.622 34.0085V43.5H354.409V41.5518H354.298C354.095 41.9458 353.809 42.3151 353.44 42.6598C353.076 42.9983 352.618 43.2723 352.064 43.4815C351.516 43.6847 350.873 43.7862 350.134 43.7862ZM351.002 41.3303C351.673 41.3303 352.255 41.1979 352.747 40.9332C353.24 40.6624 353.618 40.3054 353.883 39.8622C354.154 39.419 354.289 38.9358 354.289 38.4126V36.7415C354.184 36.8277 354.006 36.9077 353.754 36.9815C353.507 37.0554 353.23 37.12 352.923 37.1754C352.615 37.2308 352.31 37.2801 352.009 37.3232C351.707 37.3662 351.445 37.4032 351.224 37.4339C350.725 37.5017 350.279 37.6125 349.885 37.7663C349.491 37.9202 349.18 38.1357 348.952 38.4126C348.725 38.6835 348.611 39.0343 348.611 39.4652C348.611 40.0807 348.835 40.5455 349.285 40.8594C349.734 41.1733 350.307 41.3303 351.002 41.3303ZM366.246 43.7493C365.132 43.7493 364.134 43.4631 363.254 42.8906C362.374 42.3182 361.679 41.4872 361.168 40.3977C360.657 39.3082 360.401 37.9848 360.401 36.4276C360.401 34.8518 360.66 33.5223 361.177 32.4389C361.7 31.3494 362.405 30.5277 363.291 29.9737C364.178 29.4136 365.165 29.1335 366.255 29.1335C367.086 29.1335 367.769 29.2751 368.305 29.5582C368.84 29.8352 369.265 30.1707 369.579 30.5646C369.893 30.9524 370.136 31.3187 370.308 31.6634H370.447V24.5909H373.798V43.5H370.511V41.2656H370.308C370.136 41.6103 369.887 41.9766 369.56 42.3643C369.234 42.746 368.803 43.0722 368.268 43.343C367.732 43.6139 367.058 43.7493 366.246 43.7493ZM367.178 41.0071C367.886 41.0071 368.489 40.8163 368.988 40.4347C369.487 40.0469 369.865 39.5083 370.124 38.8189C370.382 38.1295 370.511 37.3262 370.511 36.4091C370.511 35.492 370.382 34.6948 370.124 34.0178C369.871 33.3407 369.496 32.8144 368.997 32.4389C368.505 32.0634 367.898 31.8757 367.178 31.8757C366.433 31.8757 365.812 32.0696 365.313 32.4574C364.815 32.8452 364.439 33.3807 364.187 34.0639C363.934 34.7472 363.808 35.5289 363.808 36.4091C363.808 37.2955 363.934 38.0864 364.187 38.782C364.445 39.4714 364.824 40.0161 365.322 40.4162C365.827 40.8101 366.446 41.0071 367.178 41.0071ZM386.385 43.5H382.729L389.386 24.5909H393.615L400.281 43.5H396.624L391.574 28.4688H391.426L386.385 43.5ZM386.505 36.0859H396.477V38.8374H386.505V36.0859ZM405.966 35.1903V43.5H402.624V29.3182H405.818V31.728H405.984C406.311 30.9339 406.831 30.303 407.545 29.8352C408.265 29.3674 409.154 29.1335 410.213 29.1335C411.192 29.1335 412.044 29.3428 412.771 29.7614C413.503 30.1799 414.069 30.7862 414.469 31.5803C414.876 32.3743 415.076 33.3376 415.07 34.4702V43.5H411.727V34.9872C411.727 34.0393 411.481 33.2976 410.989 32.7621C410.502 32.2266 409.828 31.9588 408.967 31.9588C408.382 31.9588 407.862 32.0881 407.406 32.3466C406.957 32.599 406.603 32.9652 406.344 33.4453C406.092 33.9254 405.966 34.5071 405.966 35.1903ZM423.73 43.7493C422.616 43.7493 421.619 43.4631 420.739 42.8906C419.858 42.3182 419.163 41.4872 418.652 40.3977C418.141 39.3082 417.886 37.9848 417.886 36.4276C417.886 34.8518 418.144 33.5223 418.661 32.4389C419.184 31.3494 419.889 30.5277 420.776 29.9737C421.662 29.4136 422.65 29.1335 423.739 29.1335C424.57 29.1335 425.254 29.2751 425.789 29.5582C426.325 29.8352 426.749 30.1707 427.063 30.5646C427.377 30.9524 427.62 31.3187 427.793 31.6634H427.931V24.5909H431.283V43.5H427.996V41.2656H427.793C427.62 41.6103 427.371 41.9766 427.045 42.3643C426.719 42.746 426.288 43.0722 425.752 43.343C425.217 43.6139 424.543 43.7493 423.73 43.7493ZM424.663 41.0071C425.371 41.0071 425.974 40.8163 426.472 40.4347C426.971 40.0469 427.349 39.5083 427.608 38.8189C427.866 38.1295 427.996 37.3262 427.996 36.4091C427.996 35.492 427.866 34.6948 427.608 34.0178C427.356 33.3407 426.98 32.8144 426.482 32.4389C425.989 32.0634 425.383 31.8757 424.663 31.8757C423.918 31.8757 423.296 32.0696 422.798 32.4574C422.299 32.8452 421.924 33.3807 421.671 34.0639C421.419 34.7472 421.293 35.5289 421.293 36.4091C421.293 37.2955 421.419 38.0864 421.671 38.782C421.93 39.4714 422.308 40.0161 422.807 40.4162C423.312 40.8101 423.93 41.0071 424.663 41.0071ZM434.844 43.5V29.3182H438.187V43.5H434.844ZM436.525 27.3054C435.995 27.3054 435.54 27.13 435.158 26.7791C434.777 26.4221 434.586 25.9943 434.586 25.4957C434.586 24.991 434.777 24.5632 435.158 24.2124C435.54 23.8553 435.995 23.6768 436.525 23.6768C437.06 23.6768 437.516 23.8553 437.891 24.2124C438.273 24.5632 438.464 24.991 438.464 25.4957C438.464 25.9943 438.273 26.4221 437.891 26.7791C437.516 27.13 437.06 27.3054 436.525 27.3054ZM444.966 35.1903V43.5H441.624V29.3182H444.818V31.728H444.984C445.311 30.9339 445.831 30.303 446.545 29.8352C447.265 29.3674 448.154 29.1335 449.213 29.1335C450.192 29.1335 451.044 29.3428 451.771 29.7614C452.503 30.1799 453.069 30.7862 453.469 31.5803C453.876 32.3743 454.076 33.3376 454.07 34.4702V43.5H450.727V34.9872C450.727 34.0393 450.481 33.2976 449.989 32.7621C449.502 32.2266 448.828 31.9588 447.967 31.9588C447.382 31.9588 446.862 32.0881 446.406 32.3466C445.957 32.599 445.603 32.9652 445.344 33.4453C445.092 33.9254 444.966 34.5071 444.966 35.1903ZM461.548 43.7862C460.65 43.7862 459.84 43.6262 459.12 43.3061C458.406 42.9799 457.84 42.4998 457.421 41.8658C457.009 41.2318 456.803 40.45 456.803 39.5206C456.803 38.7204 456.95 38.0587 457.246 37.5355C457.541 37.0123 457.944 36.5938 458.455 36.2798C458.966 35.9659 459.542 35.7289 460.182 35.5689C460.828 35.4027 461.496 35.2827 462.185 35.2088C463.016 35.1226 463.69 35.0457 464.207 34.978C464.724 34.9041 465.1 34.7933 465.334 34.6456C465.574 34.4917 465.694 34.2547 465.694 33.9347V33.8793C465.694 33.1837 465.488 32.6451 465.075 32.2635C464.663 31.8819 464.069 31.6911 463.293 31.6911C462.475 31.6911 461.825 31.8696 461.345 32.2266C460.871 32.5836 460.551 33.0052 460.385 33.4915L457.264 33.0483C457.51 32.1866 457.917 31.4664 458.483 30.8878C459.049 30.303 459.742 29.866 460.56 29.5767C461.379 29.2812 462.284 29.1335 463.275 29.1335C463.958 29.1335 464.638 29.2135 465.315 29.3736C465.992 29.5336 466.611 29.7983 467.171 30.1676C467.731 30.5308 468.181 31.0263 468.519 31.6541C468.864 32.282 469.036 33.0668 469.036 34.0085V43.5H465.823V41.5518H465.712C465.509 41.9458 465.223 42.3151 464.854 42.6598C464.491 42.9983 464.032 43.2723 463.478 43.4815C462.93 43.6847 462.287 43.7862 461.548 43.7862ZM462.416 41.3303C463.087 41.3303 463.669 41.1979 464.161 40.9332C464.654 40.6624 465.032 40.3054 465.297 39.8622C465.568 39.419 465.703 38.9358 465.703 38.4126V36.7415C465.598 36.8277 465.42 36.9077 465.168 36.9815C464.921 37.0554 464.644 37.12 464.337 37.1754C464.029 37.2308 463.724 37.2801 463.423 37.3232C463.121 37.3662 462.859 37.4032 462.638 37.4339C462.139 37.5017 461.693 37.6125 461.299 37.7663C460.905 37.9202 460.594 38.1357 460.366 38.4126C460.139 38.6835 460.025 39.0343 460.025 39.4652C460.025 40.0807 460.25 40.5455 460.699 40.8594C461.148 41.1733 461.721 41.3303 462.416 41.3303ZM494.533 24.5909V43.5H491.486L482.576 30.62H482.419V43.5H478.994V24.5909H482.059L490.96 37.4801H491.126V24.5909H494.533ZM504.396 43.777C502.974 43.777 501.746 43.4815 500.712 42.8906C499.684 42.2936 498.893 41.4503 498.339 40.3608C497.785 39.2652 497.508 37.9756 497.508 36.4922C497.508 35.0334 497.785 33.7531 498.339 32.6513C498.899 31.5433 499.681 30.6816 500.684 30.0661C501.688 29.4444 502.867 29.1335 504.221 29.1335C505.095 29.1335 505.92 29.2751 506.695 29.5582C507.477 29.8352 508.166 30.2661 508.763 30.8509C509.367 31.4356 509.84 32.1804 510.185 33.0852C510.53 33.9839 510.702 35.0549 510.702 36.2983V37.3232H499.078V35.0703H507.498C507.492 34.4302 507.354 33.8608 507.083 33.3622C506.812 32.8575 506.434 32.4605 505.947 32.1712C505.467 31.8819 504.907 31.7372 504.267 31.7372C503.584 31.7372 502.983 31.9034 502.466 32.2358C501.949 32.562 501.546 32.9929 501.257 33.5284C500.974 34.0578 500.829 34.6394 500.823 35.2734V37.2401C500.823 38.0649 500.974 38.7727 501.275 39.3636C501.577 39.9484 501.999 40.3977 502.54 40.7116C503.082 41.0194 503.716 41.1733 504.442 41.1733C504.929 41.1733 505.369 41.1056 505.763 40.9702C506.157 40.8286 506.498 40.6224 506.787 40.3516C507.077 40.0807 507.295 39.7453 507.443 39.3452L510.564 39.696C510.367 40.5208 509.991 41.241 509.437 41.8565C508.89 42.4659 508.188 42.9399 507.332 43.2784C506.477 43.6108 505.498 43.777 504.396 43.777ZM524.739 33.0668L521.692 33.3991C521.606 33.0914 521.455 32.8021 521.239 32.5312C521.03 32.2604 520.747 32.0419 520.39 31.8757C520.033 31.7095 519.596 31.6264 519.079 31.6264C518.383 31.6264 517.799 31.7772 517.325 32.0788C516.857 32.3804 516.626 32.7713 516.632 33.2514C516.626 33.6638 516.777 33.9993 517.085 34.2578C517.398 34.5163 517.915 34.7287 518.636 34.8949L521.055 35.4119C522.397 35.7012 523.394 36.1598 524.046 36.7876C524.705 37.4155 525.037 38.2372 525.043 39.2528C525.037 40.1454 524.776 40.9332 524.259 41.6165C523.748 42.2936 523.037 42.8229 522.126 43.2045C521.215 43.5862 520.168 43.777 518.987 43.777C517.251 43.777 515.853 43.4138 514.795 42.6875C513.736 41.955 513.105 40.9363 512.902 39.6314L516.161 39.3175C516.309 39.9576 516.623 40.4408 517.103 40.767C517.583 41.0933 518.208 41.2564 518.977 41.2564C519.771 41.2564 520.408 41.0933 520.888 40.767C521.375 40.4408 521.618 40.0376 521.618 39.5575C521.618 39.1513 521.461 38.8158 521.147 38.5511C520.839 38.2865 520.359 38.0833 519.707 37.9418L517.288 37.4339C515.927 37.1508 514.921 36.6738 514.268 36.0028C513.616 35.3258 513.293 34.4702 513.299 33.4361C513.293 32.562 513.53 31.8049 514.01 31.1648C514.496 30.5185 515.17 30.0199 516.032 29.669C516.9 29.312 517.9 29.1335 519.033 29.1335C520.695 29.1335 522.003 29.4875 522.957 30.1953C523.917 30.9032 524.511 31.8603 524.739 33.0668ZM534.881 29.3182V31.9034H526.728V29.3182H534.881ZM528.741 25.9205H532.083V39.2344C532.083 39.6837 532.151 40.0284 532.287 40.2685C532.428 40.5024 532.613 40.6624 532.841 40.7486C533.068 40.8348 533.321 40.8778 533.598 40.8778C533.807 40.8778 533.998 40.8625 534.17 40.8317C534.349 40.8009 534.484 40.7732 534.576 40.7486L535.14 43.3615C534.961 43.4231 534.706 43.4908 534.373 43.5646C534.047 43.6385 533.647 43.6816 533.173 43.6939C532.336 43.7185 531.582 43.5923 530.911 43.3153C530.24 43.0322 529.708 42.5952 529.314 42.0043C528.926 41.4134 528.735 40.6747 528.741 39.7884V25.9205ZM543.71 43.777C542.325 43.777 541.125 43.4723 540.109 42.8629C539.094 42.2536 538.306 41.401 537.746 40.3054C537.192 39.2098 536.915 37.9295 536.915 36.4645C536.915 34.9995 537.192 33.7161 537.746 32.6143C538.306 31.5125 539.094 30.657 540.109 30.0476C541.125 29.4382 542.325 29.1335 543.71 29.1335C545.095 29.1335 546.295 29.4382 547.311 30.0476C548.327 30.657 549.111 31.5125 549.665 32.6143C550.225 33.7161 550.506 34.9995 550.506 36.4645C550.506 37.9295 550.225 39.2098 549.665 40.3054C549.111 41.401 548.327 42.2536 547.311 42.8629C546.295 43.4723 545.095 43.777 543.71 43.777ZM543.729 41.0994C544.479 41.0994 545.107 40.8932 545.612 40.4808C546.117 40.0623 546.492 39.5021 546.738 38.8004C546.991 38.0987 547.117 37.317 547.117 36.4553C547.117 35.5874 546.991 34.8026 546.738 34.1009C546.492 33.393 546.117 32.8298 545.612 32.4112C545.107 31.9927 544.479 31.7834 543.729 31.7834C542.959 31.7834 542.319 31.9927 541.808 32.4112C541.303 32.8298 540.925 33.393 540.672 34.1009C540.426 34.8026 540.303 35.5874 540.303 36.4553C540.303 37.317 540.426 38.0987 540.672 38.8004C540.925 39.5021 541.303 40.0623 541.808 40.4808C542.319 40.8932 542.959 41.0994 543.729 41.0994ZM553.342 43.5V29.3182H556.583V31.6818H556.731C556.989 30.8632 557.433 30.2322 558.06 29.7891C558.694 29.3397 559.418 29.1151 560.23 29.1151C560.415 29.1151 560.621 29.1243 560.849 29.1428C561.083 29.1551 561.277 29.1766 561.43 29.2074V32.282C561.289 32.2327 561.064 32.1896 560.756 32.1527C560.455 32.1096 560.162 32.0881 559.879 32.0881C559.27 32.0881 558.722 32.2204 558.236 32.4851C557.756 32.7436 557.377 33.1037 557.1 33.5653C556.823 34.027 556.685 34.5594 556.685 35.1626V43.5H553.342ZM243.05 61.9709H239.597C239.499 61.4046 239.317 60.9029 239.053 60.4659C238.788 60.0227 238.459 59.6473 238.065 59.3395C237.671 59.0317 237.221 58.8009 236.717 58.647C236.218 58.487 235.679 58.407 235.101 58.407C234.073 58.407 233.162 58.6655 232.368 59.1825C231.574 59.6934 230.952 60.4444 230.503 61.4354C230.054 62.4202 229.829 63.6236 229.829 65.0455C229.829 66.492 230.054 67.7107 230.503 68.7017C230.958 69.6866 231.58 70.4313 232.368 70.9361C233.162 71.4347 234.07 71.6839 235.092 71.6839C235.658 71.6839 236.187 71.6101 236.68 71.4624C237.178 71.3085 237.625 71.0838 238.018 70.7884C238.419 70.4929 238.754 70.1297 239.025 69.6989C239.302 69.268 239.493 68.7756 239.597 68.2216L243.05 68.2401C242.921 69.1387 242.641 69.982 242.21 70.7699C241.786 71.5578 241.228 72.2533 240.539 72.8565C239.85 73.4536 239.043 73.9214 238.12 74.2599C237.197 74.5923 236.172 74.7585 235.045 74.7585C233.384 74.7585 231.9 74.3738 230.595 73.6044C229.29 72.835 228.262 71.724 227.511 70.2713C226.76 68.8187 226.385 67.0767 226.385 65.0455C226.385 63.008 226.763 61.2661 227.521 59.8196C228.278 58.367 229.309 57.2559 230.614 56.4865C231.919 55.7171 233.396 55.3324 235.045 55.3324C236.098 55.3324 237.077 55.4801 237.982 55.7756C238.886 56.071 239.693 56.505 240.401 57.0774C241.108 57.6437 241.69 58.3393 242.146 59.1641C242.607 59.9827 242.909 60.9183 243.05 61.9709ZM250.121 74.7862C249.222 74.7862 248.412 74.6262 247.692 74.3061C246.978 73.9799 246.412 73.4998 245.993 72.8658C245.581 72.2318 245.375 71.45 245.375 70.5206C245.375 69.7204 245.523 69.0587 245.818 68.5355C246.113 68.0123 246.517 67.5938 247.028 67.2798C247.538 66.9659 248.114 66.7289 248.754 66.5689C249.4 66.4027 250.068 66.2827 250.758 66.2088C251.589 66.1226 252.263 66.0457 252.78 65.978C253.297 65.9041 253.672 65.7933 253.906 65.6456C254.146 65.4917 254.266 65.2547 254.266 64.9347V64.8793C254.266 64.1837 254.06 63.6451 253.648 63.2635C253.235 62.8819 252.641 62.6911 251.866 62.6911C251.047 62.6911 250.398 62.8696 249.917 63.2266C249.443 63.5836 249.123 64.0052 248.957 64.4915L245.836 64.0483C246.083 63.1866 246.489 62.4664 247.055 61.8878C247.622 61.303 248.314 60.866 249.133 60.5767C249.951 60.2812 250.856 60.1335 251.847 60.1335C252.53 60.1335 253.211 60.2135 253.888 60.3736C254.565 60.5336 255.183 60.7983 255.743 61.1676C256.304 61.5308 256.753 62.0263 257.091 62.6541C257.436 63.282 257.608 64.0668 257.608 65.0085V74.5H254.395V72.5518H254.285C254.081 72.9458 253.795 73.3151 253.426 73.6598C253.063 73.9983 252.604 74.2723 252.05 74.4815C251.502 74.6847 250.859 74.7862 250.121 74.7862ZM250.988 72.3303C251.659 72.3303 252.241 72.1979 252.733 71.9332C253.226 71.6624 253.604 71.3054 253.869 70.8622C254.14 70.419 254.275 69.9358 254.275 69.4126V67.7415C254.171 67.8277 253.992 67.9077 253.74 67.9815C253.494 68.0554 253.217 68.12 252.909 68.1754C252.601 68.2308 252.296 68.2801 251.995 68.3232C251.693 68.3662 251.432 68.4032 251.21 68.4339C250.711 68.5017 250.265 68.6125 249.871 68.7663C249.477 68.9202 249.166 69.1357 248.939 69.4126C248.711 69.6835 248.597 70.0343 248.597 70.4652C248.597 71.0807 248.822 71.5455 249.271 71.8594C249.72 72.1733 250.293 72.3303 250.988 72.3303ZM250.711 58.4531L252.78 54.2337H256.048L253.214 58.4531H250.711ZM267.155 74.777C265.74 74.777 264.524 74.4661 263.508 73.8445C262.499 73.2228 261.72 72.3641 261.172 71.2685C260.631 70.1667 260.36 68.8987 260.36 67.4645C260.36 66.0241 260.637 64.7531 261.191 63.6513C261.745 62.5433 262.527 61.6816 263.536 61.0661C264.552 60.4444 265.752 60.1335 267.137 60.1335C268.288 60.1335 269.307 60.3459 270.193 60.7706C271.086 61.1892 271.796 61.7831 272.326 62.5526C272.855 63.3158 273.157 64.2083 273.231 65.2301H270.036C269.907 64.5469 269.599 63.9775 269.113 63.522C268.633 63.0604 267.989 62.8295 267.183 62.8295C266.5 62.8295 265.9 63.0142 265.383 63.3835C264.866 63.7467 264.462 64.2699 264.173 64.9531C263.89 65.6364 263.748 66.455 263.748 67.4091C263.748 68.3755 263.89 69.2064 264.173 69.902C264.456 70.5914 264.853 71.1238 265.364 71.4993C265.881 71.8686 266.488 72.0533 267.183 72.0533C267.675 72.0533 268.116 71.9609 268.503 71.7763C268.897 71.5855 269.227 71.3116 269.491 70.9545C269.756 70.5975 269.938 70.1636 270.036 69.6527H273.231C273.151 70.656 272.855 71.5455 272.344 72.321C271.833 73.0904 271.138 73.6937 270.258 74.1307C269.377 74.5616 268.343 74.777 267.155 74.777ZM282.254 74.777C280.832 74.777 279.604 74.4815 278.57 73.8906C277.542 73.2936 276.751 72.4503 276.197 71.3608C275.643 70.2652 275.366 68.9756 275.366 67.4922C275.366 66.0334 275.643 64.7531 276.197 63.6513C276.757 62.5433 277.539 61.6816 278.542 61.0661C279.545 60.4444 280.724 60.1335 282.078 60.1335C282.952 60.1335 283.777 60.2751 284.553 60.5582C285.334 60.8352 286.024 61.2661 286.621 61.8509C287.224 62.4356 287.698 63.1804 288.043 64.0852C288.387 64.9839 288.56 66.0549 288.56 67.2983V68.3232H276.935V66.0703H285.356C285.35 65.4302 285.211 64.8608 284.94 64.3622C284.67 63.8575 284.291 63.4605 283.805 63.1712C283.325 62.8819 282.764 62.7372 282.124 62.7372C281.441 62.7372 280.841 62.9034 280.324 63.2358C279.807 63.562 279.404 63.9929 279.114 64.5284C278.831 65.0578 278.687 65.6394 278.68 66.2734V68.2401C278.68 69.0649 278.831 69.7727 279.133 70.3636C279.434 70.9484 279.856 71.3977 280.398 71.7116C280.939 72.0194 281.573 72.1733 282.3 72.1733C282.786 72.1733 283.226 72.1056 283.62 71.9702C284.014 71.8286 284.356 71.6224 284.645 71.3516C284.934 71.0807 285.153 70.7453 285.3 70.3452L288.421 70.696C288.224 71.5208 287.849 72.241 287.295 72.8565C286.747 73.4659 286.045 73.9399 285.19 74.2784C284.334 74.6108 283.355 74.777 282.254 74.777ZM291.387 74.5V60.3182H294.628V62.6818H294.776C295.034 61.8632 295.477 61.2322 296.105 60.7891C296.739 60.3397 297.463 60.1151 298.275 60.1151C298.46 60.1151 298.666 60.1243 298.894 60.1428C299.128 60.1551 299.321 60.1766 299.475 60.2074V63.282C299.334 63.2327 299.109 63.1896 298.801 63.1527C298.5 63.1096 298.207 63.0881 297.924 63.0881C297.315 63.0881 296.767 63.2204 296.281 63.4851C295.801 63.7436 295.422 64.1037 295.145 64.5653C294.868 65.027 294.73 65.5594 294.73 66.1626V74.5H291.387ZM307.39 74.777C305.968 74.777 304.74 74.4815 303.706 73.8906C302.678 73.2936 301.887 72.4503 301.333 71.3608C300.779 70.2652 300.502 68.9756 300.502 67.4922C300.502 66.0334 300.779 64.7531 301.333 63.6513C301.894 62.5433 302.675 61.6816 303.679 61.0661C304.682 60.4444 305.861 60.1335 307.215 60.1335C308.089 60.1335 308.914 60.2751 309.689 60.5582C310.471 60.8352 311.16 61.2661 311.757 61.8509C312.361 62.4356 312.835 63.1804 313.179 64.0852C313.524 64.9839 313.696 66.0549 313.696 67.2983V68.3232H302.072V66.0703H310.493C310.486 65.4302 310.348 64.8608 310.077 64.3622C309.806 63.8575 309.428 63.4605 308.941 63.1712C308.461 62.8819 307.901 62.7372 307.261 62.7372C306.578 62.7372 305.978 62.9034 305.461 63.2358C304.944 63.562 304.54 63.9929 304.251 64.5284C303.968 65.0578 303.823 65.6394 303.817 66.2734V68.2401C303.817 69.0649 303.968 69.7727 304.27 70.3636C304.571 70.9484 304.993 71.3977 305.534 71.7116C306.076 72.0194 306.71 72.1733 307.436 72.1733C307.923 72.1733 308.363 72.1056 308.757 71.9702C309.151 71.8286 309.492 71.6224 309.782 71.3516C310.071 71.0807 310.289 70.7453 310.437 70.3452L313.558 70.696C313.361 71.5208 312.985 72.241 312.431 72.8565C311.884 73.4659 311.182 73.9399 310.326 74.2784C309.471 74.6108 308.492 74.777 307.39 74.777ZM327.733 64.0668L324.686 64.3991C324.6 64.0914 324.449 63.8021 324.233 63.5312C324.024 63.2604 323.741 63.0419 323.384 62.8757C323.027 62.7095 322.59 62.6264 322.073 62.6264C321.377 62.6264 320.793 62.7772 320.319 63.0788C319.851 63.3804 319.62 63.7713 319.626 64.2514C319.62 64.6638 319.771 64.9993 320.079 65.2578C320.393 65.5163 320.91 65.7287 321.63 65.8949L324.049 66.4119C325.391 66.7012 326.388 67.1598 327.04 67.7876C327.699 68.4155 328.031 69.2372 328.037 70.2528C328.031 71.1454 327.77 71.9332 327.253 72.6165C326.742 73.2936 326.031 73.8229 325.12 74.2045C324.209 74.5862 323.162 74.777 321.981 74.777C320.245 74.777 318.848 74.4138 317.789 73.6875C316.73 72.955 316.099 71.9363 315.896 70.6314L319.155 70.3175C319.303 70.9576 319.617 71.4408 320.097 71.767C320.577 72.0933 321.202 72.2564 321.971 72.2564C322.765 72.2564 323.403 72.0933 323.883 71.767C324.369 71.4408 324.612 71.0376 324.612 70.5575C324.612 70.1513 324.455 69.8158 324.141 69.5511C323.833 69.2865 323.353 69.0833 322.701 68.9418L320.282 68.4339C318.921 68.1508 317.915 67.6738 317.263 67.0028C316.61 66.3258 316.287 65.4702 316.293 64.4361C316.287 63.562 316.524 62.8049 317.004 62.1648C317.49 61.5185 318.164 61.0199 319.026 60.669C319.894 60.312 320.894 60.1335 322.027 60.1335C323.689 60.1335 324.997 60.4875 325.951 61.1953C326.911 61.9032 327.505 62.8603 327.733 64.0668ZM339.92 55.5909L344.841 70.4744H345.035L349.947 55.5909H353.714L347.048 74.5H342.819L336.162 55.5909H339.92ZM360.812 74.777C359.39 74.777 358.162 74.4815 357.128 73.8906C356.1 73.2936 355.309 72.4503 354.755 71.3608C354.201 70.2652 353.924 68.9756 353.924 67.4922C353.924 66.0334 354.201 64.7531 354.755 63.6513C355.315 62.5433 356.097 61.6816 357.1 61.0661C358.104 60.4444 359.283 60.1335 360.637 60.1335C361.511 60.1335 362.336 60.2751 363.111 60.5582C363.893 60.8352 364.582 61.2661 365.179 61.8509C365.783 62.4356 366.257 63.1804 366.601 64.0852C366.946 64.9839 367.118 66.0549 367.118 67.2983V68.3232H355.494V66.0703H363.914C363.908 65.4302 363.77 64.8608 363.499 64.3622C363.228 63.8575 362.85 63.4605 362.363 63.1712C361.883 62.8819 361.323 62.7372 360.683 62.7372C360 62.7372 359.4 62.9034 358.882 63.2358C358.365 63.562 357.962 63.9929 357.673 64.5284C357.39 65.0578 357.245 65.6394 357.239 66.2734V68.2401C357.239 69.0649 357.39 69.7727 357.691 70.3636C357.993 70.9484 358.415 71.3977 358.956 71.7116C359.498 72.0194 360.132 72.1733 360.858 72.1733C361.345 72.1733 361.785 72.1056 362.179 71.9702C362.573 71.8286 362.914 71.6224 363.203 71.3516C363.493 71.0807 363.711 70.7453 363.859 70.3452L366.98 70.696C366.783 71.5208 366.407 72.241 365.853 72.8565C365.306 73.4659 364.604 73.9399 363.748 74.2784C362.893 74.6108 361.914 74.777 360.812 74.777ZM373.288 55.5909V74.5H369.946V55.5909H373.288ZM380.806 74.7862C379.907 74.7862 379.098 74.6262 378.378 74.3061C377.664 73.9799 377.098 73.4998 376.679 72.8658C376.267 72.2318 376.06 71.45 376.06 70.5206C376.06 69.7204 376.208 69.0587 376.504 68.5355C376.799 68.0123 377.202 67.5938 377.713 67.2798C378.224 66.9659 378.799 66.7289 379.44 66.5689C380.086 66.4027 380.754 66.2827 381.443 66.2088C382.274 66.1226 382.948 66.0457 383.465 65.978C383.982 65.9041 384.358 65.7933 384.592 65.6456C384.832 65.4917 384.952 65.2547 384.952 64.9347V64.8793C384.952 64.1837 384.746 63.6451 384.333 63.2635C383.921 62.8819 383.327 62.6911 382.551 62.6911C381.732 62.6911 381.083 62.8696 380.603 63.2266C380.129 63.5836 379.809 64.0052 379.643 64.4915L376.522 64.0483C376.768 63.1866 377.174 62.4664 377.741 61.8878C378.307 61.303 379 60.866 379.818 60.5767C380.637 60.2812 381.542 60.1335 382.533 60.1335C383.216 60.1335 383.896 60.2135 384.573 60.3736C385.25 60.5336 385.869 60.7983 386.429 61.1676C386.989 61.5308 387.438 62.0263 387.777 62.6541C388.122 63.282 388.294 64.0668 388.294 65.0085V74.5H385.081V72.5518H384.97C384.767 72.9458 384.481 73.3151 384.112 73.6598C383.748 73.9983 383.29 74.2723 382.736 74.4815C382.188 74.6847 381.545 74.7862 380.806 74.7862ZM381.674 72.3303C382.345 72.3303 382.927 72.1979 383.419 71.9332C383.911 71.6624 384.29 71.3054 384.555 70.8622C384.826 70.419 384.961 69.9358 384.961 69.4126V67.7415C384.856 67.8277 384.678 67.9077 384.425 67.9815C384.179 68.0554 383.902 68.12 383.594 68.1754C383.287 68.2308 382.982 68.2801 382.68 68.3232C382.379 68.3662 382.117 68.4032 381.896 68.4339C381.397 68.5017 380.951 68.6125 380.557 68.7663C380.163 68.9202 379.852 69.1357 379.624 69.4126C379.397 69.6835 379.283 70.0343 379.283 70.4652C379.283 71.0807 379.507 71.5455 379.957 71.8594C380.406 72.1733 380.978 72.3303 381.674 72.3303ZM381.397 58.4531L383.465 54.2337H386.734L383.899 58.4531H381.397ZM402.864 64.0668L399.817 64.3991C399.731 64.0914 399.58 63.8021 399.364 63.5312C399.155 63.2604 398.872 63.0419 398.515 62.8757C398.158 62.7095 397.721 62.6264 397.204 62.6264C396.508 62.6264 395.924 62.7772 395.45 63.0788C394.982 63.3804 394.751 63.7713 394.757 64.2514C394.751 64.6638 394.902 64.9993 395.21 65.2578C395.523 65.5163 396.04 65.7287 396.761 65.8949L399.18 66.4119C400.522 66.7012 401.519 67.1598 402.171 67.7876C402.83 68.4155 403.162 69.2372 403.168 70.2528C403.162 71.1454 402.901 71.9332 402.384 72.6165C401.873 73.2936 401.162 73.8229 400.251 74.2045C399.34 74.5862 398.293 74.777 397.112 74.777C395.376 74.777 393.978 74.4138 392.92 73.6875C391.861 72.955 391.23 71.9363 391.027 70.6314L394.286 70.3175C394.434 70.9576 394.748 71.4408 395.228 71.767C395.708 72.0933 396.333 72.2564 397.102 72.2564C397.896 72.2564 398.533 72.0933 399.013 71.767C399.5 71.4408 399.743 71.0376 399.743 70.5575C399.743 70.1513 399.586 69.8158 399.272 69.5511C398.964 69.2865 398.484 69.0833 397.832 68.9418L395.413 68.4339C394.052 68.1508 393.046 67.6738 392.393 67.0028C391.741 66.3258 391.418 65.4702 391.424 64.4361C391.418 63.562 391.655 62.8049 392.135 62.1648C392.621 61.5185 393.295 61.0199 394.157 60.669C395.025 60.312 396.025 60.1335 397.158 60.1335C398.82 60.1335 400.128 60.4875 401.082 61.1953C402.042 61.9032 402.636 62.8603 402.864 64.0668ZM415.388 79.8182V72.2656H415.25C415.077 72.6103 414.828 72.9766 414.502 73.3643C414.176 73.746 413.745 74.0722 413.209 74.343C412.674 74.6139 412 74.7493 411.187 74.7493C410.073 74.7493 409.076 74.4631 408.196 73.8906C407.315 73.3182 406.62 72.4872 406.109 71.3977C405.598 70.3082 405.343 68.9848 405.343 67.4276C405.343 65.8518 405.601 64.5223 406.118 63.4389C406.641 62.3494 407.346 61.5277 408.233 60.9737C409.119 60.4136 410.107 60.1335 411.196 60.1335C412.027 60.1335 412.711 60.2751 413.246 60.5582C413.782 60.8352 414.206 61.1707 414.52 61.5646C414.834 61.9524 415.077 62.3187 415.25 62.6634H415.453V60.3182H418.74V79.8182H415.388ZM412.12 72.0071C412.828 72.0071 413.431 71.8163 413.929 71.4347C414.428 71.0469 414.806 70.5083 415.065 69.8189C415.324 69.1295 415.453 68.3262 415.453 67.4091C415.453 66.492 415.324 65.6948 415.065 65.0178C414.813 64.3407 414.437 63.8144 413.939 63.4389C413.446 63.0634 412.84 62.8757 412.12 62.8757C411.375 62.8757 410.753 63.0696 410.255 63.4574C409.756 63.8452 409.381 64.3807 409.128 65.0639C408.876 65.7472 408.75 66.5289 408.75 67.4091C408.75 68.2955 408.876 69.0864 409.128 69.782C409.387 70.4714 409.765 71.0161 410.264 71.4162C410.769 71.8101 411.387 72.0071 412.12 72.0071ZM431.213 68.5355V60.3182H434.556V74.5H431.315V71.9794H431.167C430.847 72.7734 430.321 73.4228 429.588 73.9276C428.862 74.4323 427.967 74.6847 426.902 74.6847C425.972 74.6847 425.15 74.4785 424.436 74.0661C423.729 73.6475 423.175 73.0412 422.775 72.2472C422.374 71.447 422.174 70.4806 422.174 69.348V60.3182H425.517V68.831C425.517 69.7296 425.763 70.4437 426.255 70.973C426.748 71.5024 427.394 71.767 428.194 71.767C428.687 71.767 429.164 71.647 429.625 71.407C430.087 71.1669 430.466 70.8099 430.761 70.3359C431.063 69.8558 431.213 69.2557 431.213 68.5355ZM444.271 74.777C442.849 74.777 441.621 74.4815 440.587 73.8906C439.559 73.2936 438.768 72.4503 438.214 71.3608C437.66 70.2652 437.383 68.9756 437.383 67.4922C437.383 66.0334 437.66 64.7531 438.214 63.6513C438.774 62.5433 439.556 61.6816 440.559 61.0661C441.563 60.4444 442.742 60.1335 444.096 60.1335C444.97 60.1335 445.795 60.2751 446.57 60.5582C447.352 60.8352 448.041 61.2661 448.638 61.8509C449.242 62.4356 449.715 63.1804 450.06 64.0852C450.405 64.9839 450.577 66.0549 450.577 67.2983V68.3232H438.953V66.0703H447.373C447.367 65.4302 447.229 64.8608 446.958 64.3622C446.687 63.8575 446.309 63.4605 445.822 63.1712C445.342 62.8819 444.782 62.7372 444.142 62.7372C443.459 62.7372 442.858 62.9034 442.341 63.2358C441.824 63.562 441.421 63.9929 441.132 64.5284C440.849 65.0578 440.704 65.6394 440.698 66.2734V68.2401C440.698 69.0649 440.849 69.7727 441.15 70.3636C441.452 70.9484 441.874 71.3977 442.415 71.7116C442.957 72.0194 443.591 72.1733 444.317 72.1733C444.804 72.1733 445.244 72.1056 445.638 71.9702C446.032 71.8286 446.373 71.6224 446.662 71.3516C446.952 71.0807 447.17 70.7453 447.318 70.3452L450.439 70.696C450.242 71.5208 449.866 72.241 449.312 72.8565C448.765 73.4659 448.063 73.9399 447.207 74.2784C446.352 74.6108 445.373 74.777 444.271 74.777ZM453.22 74.5V72.3764L460.533 63.2081V63.0881H453.46V60.3182H464.623V62.5987L457.661 71.6101V71.7301H464.863V74.5H453.22Z" fill="white"/>
<defs>
<clipPath id="clip0_171_93099">
<rect width="89" height="90" fill="white" transform="translate(0 78)"/>
</clipPath>
<clipPath id="clip1_171_93099">
<rect width="24" height="24" fill="white" transform="translate(175 37.5)"/>
</clipPath>
</defs>
</svg>
