<svg width="355" height="183" viewBox="0 0 355 183" fill="none" xmlns="http://www.w3.org/2000/svg">
<path d="M65.1996 64.532L62.5605 63L68.6876 65.576L71.3266 67.111L65.1996 64.532Z" fill="#98D343"/>
<path d="M38.4044 91.6213L35.7644 90.0873L35.7324 78.4883L38.3714 80.0233L38.4044 91.6213Z" fill="#705E2C"/>
<path d="M38.3714 80.023L35.7324 78.488L62.5614 63L65.2004 64.532L38.3714 80.023Z" fill="#8DC63F"/>
<path d="M65.2001 64.5322L71.3271 67.1112L65.2341 76.1312L38.4041 91.6212L38.3711 80.0232L65.2001 64.5322Z" fill="#518524"/>
<path d="M8.24905 66.1932L10.8881 64.6582L4.76105 67.2372L2.12305 68.7712L8.24905 66.1932Z" fill="#98D343"/>
<path d="M35.0469 93.2814L37.6849 91.7474L37.7179 80.1494L35.0799 81.6834L35.0469 93.2814Z" fill="#705E2C"/>
<path d="M35.08 81.6832L37.718 80.1492L10.889 64.6582L8.25 66.1932L35.08 81.6832Z" fill="#8DC63F"/>
<path d="M8.24905 66.1934L2.12305 68.7713L8.21506 77.7914L35.0461 93.2813L35.079 81.6833L8.24905 66.1934Z" fill="#217F1C"/>
<path d="M30.3105 176.741C30.3105 176.741 30.3106 176.813 30.3456 176.888C30.3456 176.888 30.3456 176.965 30.3456 177.035C30.3876 177.113 30.4196 177.186 30.4606 177.224C30.4606 177.262 30.4606 177.336 30.4966 177.371C30.5356 177.407 30.5356 177.521 30.6066 177.556C30.6066 177.594 30.6456 177.671 30.6456 177.707C30.7196 177.743 30.7576 177.857 30.7576 177.928C30.8296 177.968 30.9036 178.006 30.9036 178.042C30.9436 178.076 31.0926 178.231 31.1666 178.302C31.2006 178.335 31.2376 178.335 31.2786 178.448C31.3156 178.488 31.3886 178.525 31.4636 178.599C31.5336 178.672 31.5706 178.671 31.6096 178.747C31.7226 178.747 31.7606 178.818 31.8726 178.896C31.9056 178.936 32.0196 178.935 32.0556 178.971C32.2406 179.117 32.4666 179.229 32.6526 179.303C32.7276 179.343 32.7636 179.375 32.7966 179.375C32.9486 179.455 33.1386 179.529 33.3216 179.564C33.3536 179.6 33.4326 179.599 33.5096 179.635C33.5816 179.635 33.6946 179.717 33.7666 179.717C33.8416 179.746 33.9546 179.746 34.0276 179.79C34.1746 179.79 34.2506 179.79 34.3606 179.862C34.4386 179.862 34.5086 179.863 34.5856 179.935C34.8426 179.935 35.0676 180.013 35.2916 180.013C35.3586 180.013 35.4766 180.013 35.5496 180.013C35.6656 180.013 35.8096 180.013 35.8876 180.047C36.0366 180.047 36.1076 180.047 36.1826 180.047C36.2936 180.047 36.3706 180.047 36.5156 180.047C36.6306 180.047 36.7425 180.047 36.8495 180.047C36.8905 180.013 37.0025 180.013 37.1125 180.013C37.1865 180.013 37.2976 180.013 37.4456 180.013C37.4866 180.013 37.5965 180.013 37.6725 180.013C37.7795 179.935 37.8556 179.935 37.9676 179.935C38.1156 179.935 38.1916 179.934 38.3016 179.862C38.3766 179.862 38.4876 179.862 38.5256 179.79C38.6716 179.79 38.7856 179.746 38.9726 179.746C39.0096 179.717 39.0836 179.717 39.1576 179.717C39.3816 179.599 39.6016 179.563 39.7886 179.454C39.9006 179.414 40.0136 179.375 40.1276 179.344C40.1606 179.304 40.1966 179.266 40.2746 179.266C40.4216 179.118 40.5686 179.117 40.7166 178.971C41.9076 178.301 42.5016 177.37 42.5016 176.479V178.448C42.5016 179.376 41.9436 180.308 40.7166 180.978C40.5686 181.05 40.4216 181.125 40.2746 181.233C40.1966 181.271 40.1605 181.271 40.0865 181.311C40.0125 181.385 39.9006 181.386 39.8616 181.422C39.8236 181.422 39.8235 181.422 39.8235 181.422C39.6005 181.497 39.3806 181.564 39.1566 181.643C39.1196 181.643 39.1196 181.643 39.1196 181.643C39.0416 181.717 39.0096 181.717 38.9726 181.717C38.7846 181.717 38.6716 181.793 38.5626 181.793C38.5256 181.793 38.4875 181.793 38.4525 181.793C38.4525 181.793 38.3776 181.868 38.3026 181.868C38.1926 181.868 38.1166 181.905 37.9686 181.905C37.9316 181.905 37.8926 181.939 37.8566 181.939C37.8196 181.939 37.7486 181.939 37.7486 181.939C37.5996 181.939 37.4886 181.938 37.4476 182.014C37.2996 182.014 37.2996 182.014 37.2626 182.014H37.1516C37.0046 182.014 36.8926 182.014 36.8516 182.014C36.7436 182.014 36.7046 182.014 36.6656 182.014C36.5946 182.014 36.5586 182.014 36.5586 182.014C36.3726 182.014 36.2956 182.014 36.1846 182.014C36.1446 182.014 36.0756 182.014 36.0756 182.014C36.0016 182.014 35.9626 182.014 35.8896 182.014C35.8116 182.014 35.6285 182.014 35.4785 182.014C35.4435 182.014 35.4036 182.014 35.3326 182.014L35.2935 181.939C35.0695 181.939 34.8446 181.938 34.5876 181.868C34.4736 181.868 34.4415 181.868 34.3625 181.793C34.2525 181.793 34.1766 181.793 34.0296 181.793C33.9576 181.717 33.8436 181.717 33.7686 181.717C33.6976 181.643 33.5836 181.643 33.5116 181.565C33.4736 181.565 33.4355 181.565 33.4355 181.565C33.3565 181.565 33.3566 181.565 33.3246 181.565C33.1736 181.497 32.9516 181.422 32.7996 181.385C32.7666 181.349 32.7305 181.311 32.6555 181.311C32.4695 181.195 32.2826 181.126 32.0986 180.978C32.0586 180.978 32.0236 180.978 32.0236 180.978C31.9466 180.9 31.9096 180.899 31.8766 180.827C31.7996 180.789 31.7276 180.756 31.6136 180.678C31.5746 180.642 31.5376 180.606 31.4676 180.53C31.3936 180.494 31.3196 180.452 31.2826 180.385C31.2826 180.385 31.2415 180.386 31.2415 180.344C31.2415 180.344 31.2046 180.31 31.1706 180.31C31.0976 180.198 31.0196 180.087 30.9476 180.016C30.9076 180.016 30.9076 180.016 30.8716 179.938C30.8346 179.938 30.8346 179.938 30.8346 179.866C30.7626 179.794 30.7626 179.749 30.6846 179.719C30.6506 179.637 30.6506 179.638 30.6506 179.602C30.6116 179.566 30.6116 179.565 30.6116 179.565C30.5406 179.457 30.5406 179.417 30.5016 179.376C30.5016 179.305 30.4655 179.267 30.4655 179.267C30.4655 179.231 30.4655 179.231 30.4655 179.195C30.4245 179.119 30.3925 179.12 30.3925 178.974C30.3505 178.938 30.3506 178.937 30.3506 178.897C30.3506 178.787 30.3156 178.749 30.3156 178.672C30.3156 178.637 30.3156 178.599 30.3156 178.525C30.3156 178.489 30.3156 178.49 30.3156 178.49V176.521C30.3106 176.594 30.3105 176.594 30.3105 176.741Z" fill="#2B2B2B"/>
<path d="M32.1313 173.994C29.7163 175.366 29.7163 177.594 32.0563 178.972C34.4393 180.451 38.3003 180.451 40.7153 178.972C43.0943 177.594 43.1343 175.365 40.7523 173.994C38.3763 172.543 34.4713 172.543 32.1313 173.994Z" fill="#979797"/>
<path d="M31.7246 144.479C31.7246 144.557 31.7246 144.595 31.7246 144.633C31.7246 144.704 31.7246 144.704 31.7246 144.78C31.7246 144.78 31.7626 144.85 31.7626 144.89C31.7966 144.926 31.7966 144.926 31.8366 145.004C31.8736 145.075 31.8736 145.075 31.8736 145.152C31.9066 145.188 31.9066 145.222 31.9436 145.298C32.0206 145.338 32.0206 145.371 32.0556 145.444C32.0956 145.444 32.1306 145.524 32.1306 145.524C32.1676 145.598 32.2786 145.669 32.3146 145.748C32.3556 145.748 32.4266 145.748 32.4266 145.814C32.4666 145.858 32.5006 145.892 32.6116 145.968C32.6116 145.968 32.6526 146.004 32.7276 146.044C32.7636 146.119 32.7966 146.148 32.8746 146.19C32.9126 146.19 32.9486 146.264 33.0206 146.306C33.2436 146.416 33.4706 146.486 33.6946 146.596C33.7276 146.64 33.8416 146.64 33.8416 146.64C34.0996 146.748 34.3236 146.784 34.5496 146.898C34.5846 146.898 34.5846 146.898 34.6546 146.898C34.8806 146.932 35.1026 146.932 35.3296 147.044C35.3996 147.044 35.4756 147.044 35.4756 147.044C35.7726 147.044 36.0366 147.077 36.2926 147.077H36.3686C36.6626 147.077 36.8886 147.044 37.1846 147.044C37.2586 147.044 37.2586 147.044 37.2956 147.044C37.5586 146.932 37.8156 146.932 37.9996 146.898C38.1126 146.898 38.1496 146.86 38.1886 146.86C38.4496 146.784 38.5946 146.749 38.8566 146.64C38.8566 146.64 38.8946 146.64 38.9696 146.64C39.1936 146.486 39.4496 146.416 39.6766 146.306C40.5656 145.747 41.0126 145.004 41.0126 144.294L41.1626 175.917C41.1626 176.593 40.6766 177.369 39.7496 177.856C39.5646 178.003 39.3036 178.074 39.0806 178.19C39.0806 178.23 39.0386 178.23 39.0386 178.23C39.0066 178.23 38.9696 178.23 38.8936 178.23C38.7816 178.3 38.6676 178.334 38.5216 178.374C38.4486 178.446 38.3736 178.446 38.2616 178.446C38.1876 178.446 38.1876 178.486 38.1496 178.486C38.1126 178.486 38.0406 178.486 37.9996 178.486C37.8526 178.522 37.7436 178.596 37.5586 178.596C37.4846 178.634 37.4436 178.634 37.4436 178.634C37.2956 178.669 37.2956 178.669 37.2586 178.669C37.1846 178.669 37.1476 178.669 37.1106 178.669C36.9626 178.669 36.8476 178.669 36.6626 178.669C36.5916 178.669 36.5556 178.669 36.4746 178.669C36.4446 178.669 36.3686 178.669 36.3686 178.669C36.2926 178.669 36.1806 178.669 36.1406 178.669C35.9966 178.669 35.8476 178.669 35.6246 178.669C35.5866 178.669 35.5866 178.669 35.5866 178.669C35.5476 178.669 35.4746 178.634 35.4396 178.634C35.2896 178.596 35.1416 178.596 35.0276 178.522C34.9196 178.522 34.8406 178.486 34.7336 178.486C34.7336 178.486 34.6956 178.486 34.6546 178.486C34.4696 178.446 34.3236 178.334 34.1746 178.3C34.0996 178.3 34.0276 178.23 33.9886 178.23C33.8806 178.23 33.8416 178.23 33.7656 178.19C33.5406 178.074 33.3536 178.004 33.1376 177.856C33.0976 177.856 33.0976 177.856 33.0976 177.856C33.0206 177.814 33.0206 177.782 32.9486 177.742C32.8746 177.706 32.8366 177.706 32.7626 177.633C32.7266 177.593 32.7266 177.555 32.6516 177.555C32.6106 177.521 32.6106 177.481 32.5006 177.406H32.4666C32.4666 177.37 32.4666 177.37 32.4266 177.37C32.3556 177.261 32.2796 177.222 32.2406 177.112C32.1676 177.112 32.1676 177.112 32.1676 177.112V177.034C32.1306 176.964 32.0956 176.929 32.0206 176.887C32.0206 176.887 32.0206 176.813 32.0206 176.777C32.0206 176.777 31.9836 176.777 31.9836 176.741C31.9436 176.741 31.9066 176.663 31.9066 176.594L31.8736 176.519C31.8736 176.519 31.8736 176.519 31.8736 176.479C31.8736 176.439 31.8736 176.439 31.8366 176.369C31.8366 176.293 31.7966 176.293 31.7966 176.293C31.7966 176.255 31.7966 176.22 31.7966 176.22C31.7966 176.184 31.7966 176.146 31.7966 176.072C31.7626 176.072 31.7626 175.998 31.7626 175.998V175.96L31.7246 144.336C31.7246 144.408 31.7246 144.445 31.7246 144.479Z" fill="#3B3B3B"/>
<path d="M33.0609 142.406C31.2389 143.442 31.2389 145.188 33.0219 146.306C34.8809 147.306 37.8539 147.306 39.6779 146.306C41.5329 145.188 41.5329 143.442 39.7129 142.406C37.8539 141.323 34.8809 141.323 33.0609 142.406Z" fill="#979797"/>
<path d="M38.1907 146.861C38.4517 146.785 38.5967 146.75 38.8587 146.641C38.8587 146.641 38.8967 146.641 38.9717 146.641C39.1957 146.487 39.4517 146.417 39.6787 146.307C40.5677 145.748 41.0147 145.005 41.0147 144.295L41.1647 175.918C41.1647 176.594 40.6787 177.37 39.7517 177.857C39.5667 178.004 39.3057 178.075 39.0827 178.191C39.0827 178.231 39.0407 178.231 39.0407 178.231C39.0087 178.231 38.9717 178.231 38.8957 178.231C38.7837 178.301 38.6697 178.335 38.5237 178.375C38.4507 178.447 38.3757 178.447 38.2637 178.447C38.1897 178.447 38.1897 178.487 38.1517 178.487C38.1147 178.487 38.0427 178.487 38.0017 178.487C38.0017 178.523 37.9667 178.523 37.9297 178.523V146.933C37.9667 146.899 38.0017 146.899 38.0017 146.899C38.1157 146.899 38.1527 146.861 38.1907 146.861Z" fill="#2B2B2B"/>
<path d="M34.1747 73.1313C34.1747 73.2383 34.2147 73.2773 34.2497 73.3173C34.2497 73.3953 34.2497 73.3953 34.2497 73.4273C34.3237 73.4653 34.4387 73.5383 34.4387 73.5763C34.4707 73.6463 34.5497 73.6463 34.5847 73.7243C34.6547 73.7243 34.6957 73.7583 34.7337 73.7583C34.8807 73.8693 35.0277 73.9473 35.1417 74.0243C35.2137 74.0243 35.2897 74.0243 35.2897 74.0243C35.3987 74.0243 35.4747 74.0603 35.5867 74.0983C35.5867 74.0983 35.7347 74.0983 35.8077 74.0983C35.8477 74.0983 35.8477 74.0983 35.8857 74.1703C35.9967 74.1703 36.1057 74.1703 36.1807 74.1703C36.2567 74.1703 36.2567 74.1703 36.2917 74.1703C36.3677 74.1703 36.5137 74.1703 36.6617 74.1703L36.7007 74.0983C36.8477 74.0983 36.9237 74.0983 37.0007 74.0603C37.0727 74.0603 37.0727 74.0603 37.1097 74.0243C37.1837 74.0243 37.2947 74.0243 37.4427 73.9483C37.5577 73.9103 37.6697 73.8703 37.7767 73.7593C38.1877 73.5383 38.4487 73.2383 38.4487 72.9053L38.5947 144.001C38.5947 144.296 38.4487 144.634 37.9647 144.892C37.8527 144.928 37.7767 145.006 37.6697 145.078C37.6697 145.078 37.6697 145.078 37.5947 145.078C37.5587 145.078 37.4847 145.078 37.4437 145.114C37.3717 145.114 37.2957 145.154 37.2957 145.154C37.2587 145.154 37.2587 145.154 37.2587 145.19H37.1847C37.1107 145.19 37.0007 145.224 36.9617 145.224H36.8887C36.8887 145.224 36.8887 145.224 36.8477 145.224C36.8477 145.224 36.8477 145.224 36.7397 145.224C36.7007 145.224 36.6287 145.266 36.5547 145.266C36.5137 145.266 36.4747 145.266 36.4747 145.266C36.4747 145.266 36.4447 145.266 36.3687 145.266C36.3687 145.266 36.3687 145.266 36.3297 145.266C36.2577 145.266 36.1417 145.224 36.0717 145.224H36.0357C35.9587 145.224 35.8867 145.224 35.8477 145.19C35.8077 145.19 35.7717 145.19 35.7717 145.19C35.6647 145.154 35.5867 145.154 35.5127 145.114C35.4747 145.078 35.4397 145.078 35.3997 145.078C35.3997 145.078 35.3577 145.078 35.3297 145.078C35.2147 145.007 35.0667 144.929 34.9197 144.892C34.9197 144.852 34.8807 144.852 34.8807 144.852L34.8417 144.782C34.7347 144.782 34.6957 144.706 34.6557 144.706C34.5857 144.635 34.5507 144.597 34.4707 144.559C34.4707 144.481 34.4707 144.481 34.4707 144.481V144.447C34.4387 144.447 34.4387 144.411 34.4387 144.411C34.4387 144.337 34.3607 144.298 34.3607 144.264L34.3247 144.188C34.3247 144.112 34.3247 144.042 34.3247 144.003L34.1367 72.9453V72.9073C34.1367 72.9833 34.1367 73.0913 34.1747 73.1313Z" fill="#3B3B3B"/>
<path d="M34.7355 72.0148C33.8825 72.4928 33.8825 73.3168 34.7355 73.7588C35.5895 74.2418 36.9255 74.2418 37.7795 73.7588C38.5965 73.3168 38.5965 72.4918 37.7795 72.0148C36.9635 71.4938 35.5885 71.4938 34.7355 72.0148Z" fill="#434351"/>
<path d="M36.6637 74.1713L36.7026 74.0992C36.8496 74.0992 36.9257 74.0992 37.0027 74.0612C37.0747 74.0612 37.0747 74.0612 37.1117 74.0252C37.1857 74.0252 37.2966 74.0252 37.4446 73.9492C37.5596 73.9112 37.6717 73.8713 37.7787 73.7603C38.1897 73.5393 38.4507 73.2393 38.4507 72.9062L38.5966 144.002C38.5966 144.297 38.4506 144.635 37.9666 144.893C37.8546 144.929 37.7787 145.007 37.6717 145.079C37.6717 145.079 37.6716 145.079 37.5966 145.079C37.5606 145.079 37.4866 145.079 37.4456 145.115C37.3736 145.115 37.2976 145.155 37.2976 145.155C37.2606 145.155 37.2607 145.155 37.2607 145.191H37.1866C37.1126 145.191 37.0027 145.225 36.9637 145.225H36.8907C36.8907 145.225 36.8906 145.225 36.8496 145.225C36.8496 145.225 36.8496 145.225 36.7416 145.225C36.7026 145.225 36.6306 145.267 36.5566 145.267V74.1732C36.5916 74.1712 36.5917 74.1713 36.6637 74.1713Z" fill="#2B2B2B"/>
<path d="M33.1402 70.7479C33.1402 70.7879 33.1402 70.8319 33.1402 70.8979C33.1402 70.8979 33.1722 70.8979 33.1722 70.9759V71.0469C33.2092 71.0849 33.2092 71.1209 33.2092 71.1209C33.2092 71.1209 33.2452 71.1909 33.2452 71.2309C33.2842 71.2689 33.3232 71.2689 33.3232 71.3449C33.3232 71.3449 33.3552 71.3449 33.3552 71.3809C33.3552 71.3809 33.3962 71.4179 33.4342 71.4179C33.4722 71.4919 33.5102 71.5629 33.5422 71.6029C33.5822 71.6029 33.5822 71.6029 33.6192 71.6409C33.6542 71.7189 33.6542 71.7189 33.6952 71.7189C33.7282 71.7499 33.7282 71.7499 33.7662 71.7879C33.8412 71.8279 33.8412 71.8659 33.8802 71.9039C33.9542 71.9039 33.9882 71.9039 34.0272 71.9339C34.1742 72.0499 34.3242 72.0879 34.4702 72.1599C34.5082 72.1999 34.5492 72.1999 34.5842 72.1999C34.6952 72.2379 34.7702 72.3099 34.8802 72.3099C34.9972 72.3459 35.1032 72.3839 35.2142 72.3839C35.2902 72.4589 35.4752 72.4589 35.5872 72.4589C35.5872 72.4589 35.6252 72.4589 35.6642 72.4889C35.8482 72.4889 36.0712 72.4889 36.1812 72.4889C36.1812 72.4889 36.2572 72.4889 36.2922 72.4889C36.4752 72.4889 36.6622 72.4889 36.8482 72.4889C36.8482 72.4589 36.8892 72.4589 36.8892 72.4589C37.0742 72.4589 37.2592 72.4589 37.4442 72.3839C37.4442 72.3839 37.4442 72.3839 37.4852 72.3839C37.6712 72.3099 37.7782 72.3099 37.9282 72.1989C37.9652 72.1989 37.9652 72.1989 37.9652 72.1989C38.1512 72.0879 38.2992 72.0499 38.4852 71.9329C39.0822 71.5609 39.4152 71.1189 39.4152 70.6699V72.6059C39.4152 73.0859 39.1182 73.5719 38.4852 73.9439C38.3752 74.0199 38.1892 74.0939 38.0012 74.1669C37.9662 74.2019 37.9662 74.2019 37.9292 74.2019C37.8542 74.2019 37.7452 74.2379 37.6712 74.2379C37.5962 74.3119 37.5602 74.3119 37.4852 74.3539H37.4442C37.3722 74.3539 37.2962 74.3539 37.2962 74.3539C37.2592 74.3879 37.1112 74.3879 37.0012 74.3879C36.9622 74.3879 36.9242 74.3879 36.8892 74.3879H36.8482C36.7792 74.3879 36.7402 74.3879 36.7012 74.4639C36.5912 74.4639 36.4742 74.4639 36.3682 74.4639C36.3682 74.4639 36.3292 74.4639 36.2922 74.4639H36.1812C36.1412 74.4639 36.1062 74.4639 36.0722 74.4639C35.9592 74.4639 35.8482 74.4639 35.7362 74.3879C35.7362 74.3879 35.7362 74.3879 35.7012 74.3879C35.6652 74.3879 35.5882 74.3879 35.5882 74.3879C35.4762 74.3879 35.4002 74.3879 35.2912 74.3879C35.2912 74.3879 35.2152 74.3879 35.2152 74.3539C35.1042 74.3539 34.9982 74.3119 34.8812 74.2379C34.8422 74.2379 34.7722 74.2379 34.7342 74.2379C34.6962 74.2019 34.6552 74.2019 34.5852 74.2019C34.5502 74.2019 34.5092 74.1669 34.4712 74.1669C34.3252 74.0949 34.1752 74.0209 34.0282 73.9439V73.9059L33.9562 73.8659C33.8432 73.7949 33.8432 73.7949 33.7682 73.7549C33.7302 73.7549 33.7302 73.7209 33.6972 73.7209C33.6972 73.6429 33.6562 73.6429 33.6212 73.6429C33.6212 73.6429 33.5842 73.6429 33.5842 73.6069V73.5729C33.5122 73.5349 33.4742 73.4619 33.4362 73.4239H33.3982C33.3982 73.3919 33.3572 73.3919 33.3572 73.3919C33.3572 73.3139 33.3252 73.2739 33.3252 73.2739C33.3252 73.2359 33.3252 73.2359 33.2862 73.2019L33.2472 73.1679C33.2472 73.1679 33.2472 73.0889 33.2112 73.0889V73.0529L33.1742 72.9809C33.1742 72.9809 33.1742 72.9809 33.1742 72.9029C33.1422 72.8329 33.1422 72.8329 33.1422 72.8329C33.1422 72.8329 33.1422 72.7599 33.1422 72.6819C33.1422 72.6819 33.1422 72.6819 33.1422 72.6479C33.1022 72.6479 33.1022 72.6479 33.1022 72.6479V70.6729C33.1002 70.6739 33.1002 70.7479 33.1402 70.7479Z" fill="#2B2B2B"/>
<path d="M34.0287 69.3441C32.7977 70.0481 32.7977 71.2711 34.0287 71.9371C35.2927 72.6831 37.2607 72.6831 38.4867 71.9371C39.7147 71.2711 39.7147 70.0481 38.4867 69.3441C37.2607 68.6301 35.2917 68.6301 34.0287 69.3441Z" fill="#3B3B3B"/>
<path d="M8.73383 97.1763L6.0918 95.6443L32.9218 80.1533L35.5598 81.6873L8.73383 97.1763Z" fill="#8DC63F"/>
<path d="M2.638 106.812L0 105.28L6.09198 95.6445L8.73401 97.1765L2.638 106.812Z" fill="#98D343"/>
<path d="M35.5607 81.6875L35.5937 93.2875L8.76566 108.78L2.63867 106.811L8.73468 97.1765L35.5607 81.6875Z" fill="#518524"/>
<path d="M62.409 97.316L65.05 95.781L38.221 80.291L35.584 81.825L62.409 97.316Z" fill="#8DC63F"/>
<path d="M68.5032 106.95L71.1422 105.416L65.0492 95.7812L62.4082 97.3163L68.5032 106.95Z" fill="#98D343"/>
<path d="M35.5838 81.8252L35.5488 93.4282L62.3778 108.916L68.5038 106.95L62.4088 97.3162L35.5838 81.8252Z" fill="#217F1C"/>
<rect x="83" width="272" height="92" rx="16" fill="#006DB7"/>
<rect x="98.0476" y="25.0476" width="41.9048" height="41.9048" rx="20.9524" fill="#407C1D"/>
<rect x="98.0476" y="25.0476" width="41.9048" height="41.9048" rx="20.9524" stroke="white" stroke-width="2.09524"/>
<g clip-path="url(#clip0_210_8360)">
<path d="M126 54H112V55C112 55.2652 111.895 55.5196 111.707 55.7071C111.52 55.8946 111.265 56 111 56H110C109.735 56 109.48 55.8946 109.293 55.7071C109.105 55.5196 109 55.2652 109 55V45L111.48 39.212C111.634 38.852 111.891 38.5452 112.218 38.3298C112.545 38.1143 112.928 37.9997 113.32 38H124.68C125.071 38 125.454 38.1149 125.781 38.3303C126.107 38.5458 126.364 38.8523 126.518 39.212L129 45V55C129 55.2652 128.895 55.5196 128.707 55.7071C128.52 55.8946 128.265 56 128 56H127C126.735 56 126.48 55.8946 126.293 55.7071C126.105 55.5196 126 55.2652 126 55V54ZM127 47H111V52H127V47ZM111.176 45H126.824L124.681 40H113.32L111.177 45H111.176ZM113.5 51C113.102 51 112.721 50.842 112.439 50.5607C112.158 50.2794 112 49.8978 112 49.5C112 49.1022 112.158 48.7206 112.439 48.4393C112.721 48.158 113.102 48 113.5 48C113.898 48 114.279 48.158 114.561 48.4393C114.842 48.7206 115 49.1022 115 49.5C115 49.8978 114.842 50.2794 114.561 50.5607C114.279 50.842 113.898 51 113.5 51ZM124.5 51C124.102 51 123.721 50.842 123.439 50.5607C123.158 50.2794 123 49.8978 123 49.5C123 49.1022 123.158 48.7206 123.439 48.4393C123.721 48.158 124.102 48 124.5 48C124.898 48 125.279 48.158 125.561 48.4393C125.842 48.7206 126 49.1022 126 49.5C126 49.8978 125.842 50.2794 125.561 50.5607C125.279 50.842 124.898 51 124.5 51Z" fill="white"/>
</g>
<path d="M172.318 45.7727C172.318 47.6534 171.966 49.2642 171.261 50.6051C170.563 51.9403 169.608 52.9631 168.398 53.6733C167.193 54.3835 165.827 54.7386 164.298 54.7386C162.77 54.7386 161.401 54.3835 160.19 53.6733C158.986 52.9574 158.031 51.9318 157.327 50.5966C156.628 49.2557 156.278 47.6477 156.278 45.7727C156.278 43.892 156.628 42.2841 157.327 40.9489C158.031 39.608 158.986 38.5824 160.19 37.8722C161.401 37.1619 162.77 36.8068 164.298 36.8068C165.827 36.8068 167.193 37.1619 168.398 37.8722C169.608 38.5824 170.563 39.608 171.261 40.9489C171.966 42.2841 172.318 43.892 172.318 45.7727ZM169.139 45.7727C169.139 44.4489 168.932 43.3324 168.517 42.4233C168.108 41.5085 167.54 40.8182 166.812 40.3523C166.085 39.8807 165.247 39.6449 164.298 39.6449C163.349 39.6449 162.511 39.8807 161.784 40.3523C161.057 40.8182 160.486 41.5085 160.071 42.4233C159.662 43.3324 159.457 44.4489 159.457 45.7727C159.457 47.0966 159.662 48.2159 160.071 49.1307C160.486 50.0398 161.057 50.7301 161.784 51.2017C162.511 51.6676 163.349 51.9006 164.298 51.9006C165.247 51.9006 166.085 51.6676 166.812 51.2017C167.54 50.7301 168.108 50.0398 168.517 49.1307C168.932 48.2159 169.139 47.0966 169.139 45.7727ZM186.864 41.4091L182.202 54.5H178.793L174.131 41.4091H177.421L180.43 51.1335H180.566L183.583 41.4091H186.864ZM192.391 54.7642C191.562 54.7642 190.815 54.6165 190.15 54.321C189.491 54.0199 188.968 53.5767 188.582 52.9915C188.201 52.4062 188.011 51.6847 188.011 50.8267C188.011 50.0881 188.147 49.4773 188.42 48.9943C188.692 48.5114 189.065 48.125 189.536 47.8352C190.008 47.5455 190.539 47.3267 191.13 47.179C191.727 47.0256 192.343 46.9148 192.979 46.8466C193.746 46.767 194.369 46.696 194.846 46.6335C195.323 46.5653 195.67 46.4631 195.886 46.3267C196.107 46.1847 196.218 45.9659 196.218 45.6705V45.6193C196.218 44.9773 196.028 44.4801 195.647 44.1278C195.266 43.7756 194.718 43.5994 194.002 43.5994C193.246 43.5994 192.647 43.7642 192.204 44.0938C191.766 44.4233 191.471 44.8125 191.317 45.2614L188.437 44.8523C188.664 44.0568 189.039 43.392 189.562 42.858C190.085 42.3182 190.724 41.9148 191.479 41.6477C192.235 41.375 193.07 41.2386 193.985 41.2386C194.616 41.2386 195.244 41.3125 195.869 41.4602C196.494 41.608 197.065 41.8523 197.582 42.1932C198.099 42.5284 198.513 42.9858 198.826 43.5653C199.144 44.1449 199.303 44.8693 199.303 45.7386V54.5H196.337V52.7017H196.235C196.048 53.0653 195.783 53.4062 195.442 53.7244C195.107 54.0369 194.684 54.2898 194.173 54.483C193.667 54.6705 193.073 54.7642 192.391 54.7642ZM193.192 52.4972C193.812 52.4972 194.349 52.375 194.803 52.1307C195.258 51.8807 195.607 51.5511 195.852 51.142C196.102 50.733 196.227 50.2869 196.227 49.804V48.2614C196.13 48.3409 195.965 48.4148 195.732 48.483C195.505 48.5511 195.249 48.6108 194.965 48.6619C194.681 48.7131 194.4 48.7585 194.121 48.7983C193.843 48.8381 193.602 48.8722 193.397 48.9006C192.937 48.9631 192.525 49.0653 192.161 49.2074C191.798 49.3494 191.511 49.5483 191.3 49.804C191.09 50.054 190.985 50.3778 190.985 50.7756C190.985 51.3438 191.192 51.7727 191.607 52.0625C192.022 52.3523 192.55 52.4972 193.192 52.4972ZM205.491 37.0455V54.5H202.406V37.0455H205.491ZM214.374 54.7557C213.095 54.7557 211.987 54.4744 211.05 53.9119C210.112 53.3494 209.385 52.5625 208.868 51.5511C208.357 50.5398 208.101 49.358 208.101 48.0057C208.101 46.6534 208.357 45.4687 208.868 44.4517C209.385 43.4347 210.112 42.6449 211.05 42.0824C211.987 41.5199 213.095 41.2386 214.374 41.2386C215.652 41.2386 216.76 41.5199 217.697 42.0824C218.635 42.6449 219.359 43.4347 219.871 44.4517C220.388 45.4687 220.646 46.6534 220.646 48.0057C220.646 49.358 220.388 50.5398 219.871 51.5511C219.359 52.5625 218.635 53.3494 217.697 53.9119C216.76 54.4744 215.652 54.7557 214.374 54.7557ZM214.391 52.2841C215.084 52.2841 215.663 52.0937 216.129 51.7131C216.595 51.3267 216.942 50.8097 217.169 50.1619C217.402 49.5142 217.518 48.7926 217.518 47.9972C217.518 47.196 217.402 46.4716 217.169 45.8239C216.942 45.1705 216.595 44.6506 216.129 44.2642C215.663 43.8778 215.084 43.6847 214.391 43.6847C213.68 43.6847 213.089 43.8778 212.618 44.2642C212.152 44.6506 211.803 45.1705 211.57 45.8239C211.342 46.4716 211.229 47.196 211.229 47.9972C211.229 48.7926 211.342 49.5142 211.57 50.1619C211.803 50.8097 212.152 51.3267 212.618 51.7131C213.089 52.0937 213.68 52.2841 214.391 52.2841ZM229.354 54.5V37.0455H232.516V51.8494H240.204V54.5H229.354ZM246.579 54.7642C245.749 54.7642 245.002 54.6165 244.337 54.321C243.678 54.0199 243.156 53.5767 242.769 52.9915C242.388 52.4062 242.198 51.6847 242.198 50.8267C242.198 50.0881 242.335 49.4773 242.607 48.9943C242.88 48.5114 243.252 48.125 243.724 47.8352C244.195 47.5455 244.727 47.3267 245.317 47.179C245.914 47.0256 246.531 46.9148 247.167 46.8466C247.934 46.767 248.556 46.696 249.033 46.6335C249.511 46.5653 249.857 46.4631 250.073 46.3267C250.295 46.1847 250.406 45.9659 250.406 45.6705V45.6193C250.406 44.9773 250.215 44.4801 249.835 44.1278C249.454 43.7756 248.906 43.5994 248.19 43.5994C247.434 43.5994 246.835 43.7642 246.391 44.0938C245.954 44.4233 245.658 44.8125 245.505 45.2614L242.624 44.8523C242.852 44.0568 243.227 43.392 243.749 42.858C244.272 42.3182 244.911 41.9148 245.667 41.6477C246.423 41.375 247.258 41.2386 248.173 41.2386C248.803 41.2386 249.431 41.3125 250.056 41.4602C250.681 41.608 251.252 41.8523 251.769 42.1932C252.286 42.5284 252.701 42.9858 253.013 43.5653C253.332 44.1449 253.491 44.8693 253.491 45.7386V54.5H250.525V52.7017H250.423C250.235 53.0653 249.971 53.4062 249.63 53.7244C249.295 54.0369 248.871 54.2898 248.36 54.483C247.854 54.6705 247.261 54.7642 246.579 54.7642ZM247.38 52.4972C247.999 52.4972 248.536 52.375 248.991 52.1307C249.445 51.8807 249.795 51.5511 250.039 51.142C250.289 50.733 250.414 50.2869 250.414 49.804V48.2614C250.317 48.3409 250.153 48.4148 249.92 48.483C249.692 48.5511 249.437 48.6108 249.153 48.6619C248.869 48.7131 248.587 48.7585 248.309 48.7983C248.031 48.8381 247.789 48.8722 247.585 48.9006C247.124 48.9631 246.712 49.0653 246.349 49.2074C245.985 49.3494 245.698 49.5483 245.488 49.804C245.278 50.054 245.173 50.3778 245.173 50.7756C245.173 51.3438 245.38 51.7727 245.795 52.0625C246.21 52.3523 246.738 52.4972 247.38 52.4972ZM262.683 37.0455H266.552L271.734 49.6932H271.938L277.12 37.0455H280.989V54.5H277.955V42.5085H277.793L272.969 54.4489H270.702L265.879 42.483H265.717V54.5H262.683V37.0455ZM288.063 54.7642C287.234 54.7642 286.487 54.6165 285.822 54.321C285.163 54.0199 284.64 53.5767 284.254 52.9915C283.873 52.4062 283.683 51.6847 283.683 50.8267C283.683 50.0881 283.819 49.4773 284.092 48.9943C284.364 48.5114 284.737 48.125 285.208 47.8352C285.68 47.5455 286.211 47.3267 286.802 47.179C287.398 47.0256 288.015 46.9148 288.651 46.8466C289.418 46.767 290.04 46.696 290.518 46.6335C290.995 46.5653 291.342 46.4631 291.558 46.3267C291.779 46.1847 291.89 45.9659 291.89 45.6705V45.6193C291.89 44.9773 291.7 44.4801 291.319 44.1278C290.938 43.7756 290.39 43.5994 289.674 43.5994C288.918 43.5994 288.319 43.7642 287.876 44.0938C287.438 44.4233 287.143 44.8125 286.989 45.2614L284.109 44.8523C284.336 44.0568 284.711 43.392 285.234 42.858C285.756 42.3182 286.396 41.9148 287.151 41.6477C287.907 41.375 288.742 41.2386 289.657 41.2386C290.288 41.2386 290.915 41.3125 291.54 41.4602C292.165 41.608 292.737 41.8523 293.254 42.1932C293.771 42.5284 294.185 42.9858 294.498 43.5653C294.816 44.1449 294.975 44.8693 294.975 45.7386V54.5H292.009V52.7017H291.907C291.719 53.0653 291.455 53.4062 291.114 53.7244C290.779 54.0369 290.356 54.2898 289.844 54.483C289.339 54.6705 288.745 54.7642 288.063 54.7642ZM288.864 52.4972C289.484 52.4972 290.021 52.375 290.475 52.1307C290.93 51.8807 291.279 51.5511 291.523 51.142C291.773 50.733 291.898 50.2869 291.898 49.804V48.2614C291.802 48.3409 291.637 48.4148 291.404 48.483C291.177 48.5511 290.921 48.6108 290.637 48.6619C290.353 48.7131 290.072 48.7585 289.793 48.7983C289.515 48.8381 289.273 48.8722 289.069 48.9006C288.609 48.9631 288.197 49.0653 287.833 49.2074C287.469 49.3494 287.183 49.5483 286.972 49.804C286.762 50.054 286.657 50.3778 286.657 50.7756C286.657 51.3438 286.864 51.7727 287.279 52.0625C287.694 52.3523 288.222 52.4972 288.864 52.4972ZM298.077 54.5V41.4091H301.069V43.5909H301.205C301.444 42.8352 301.853 42.2528 302.433 41.8438C303.018 41.429 303.685 41.2216 304.435 41.2216C304.606 41.2216 304.796 41.2301 305.006 41.2472C305.222 41.2585 305.401 41.2784 305.543 41.3068V44.1449C305.413 44.0994 305.205 44.0597 304.921 44.0256C304.643 43.9858 304.373 43.9659 304.112 43.9659C303.549 43.9659 303.043 44.0881 302.594 44.3324C302.151 44.571 301.802 44.9034 301.546 45.3295C301.29 45.7557 301.163 46.2472 301.163 46.804V54.5H298.077ZM307.593 54.5V41.4091H310.678V54.5H307.593ZM309.144 39.5511C308.656 39.5511 308.235 39.3892 307.883 39.0653C307.531 38.7358 307.354 38.3409 307.354 37.8807C307.354 37.4148 307.531 37.0199 307.883 36.696C308.235 36.3665 308.656 36.2017 309.144 36.2017C309.638 36.2017 310.059 36.3665 310.406 36.696C310.758 37.0199 310.934 37.4148 310.934 37.8807C310.934 38.3409 310.758 38.7358 310.406 39.0653C310.059 39.3892 309.638 39.5511 309.144 39.5511ZM316.936 46.8295V54.5H313.851V41.4091H316.8V43.6335H316.953C317.254 42.9006 317.734 42.3182 318.393 41.8864C319.058 41.4545 319.879 41.2386 320.857 41.2386C321.76 41.2386 322.547 41.4318 323.217 41.8182C323.893 42.2045 324.416 42.7642 324.786 43.4972C325.161 44.2301 325.345 45.1193 325.339 46.1648V54.5H322.254V46.642C322.254 45.767 322.027 45.0824 321.572 44.5881C321.124 44.0937 320.501 43.8466 319.706 43.8466C319.166 43.8466 318.686 43.9659 318.266 44.2045C317.851 44.4375 317.524 44.7756 317.286 45.2188C317.053 45.6619 316.936 46.1989 316.936 46.8295ZM332.243 54.7642C331.413 54.7642 330.666 54.6165 330.001 54.321C329.342 54.0199 328.82 53.5767 328.433 52.9915C328.053 52.4062 327.862 51.6847 327.862 50.8267C327.862 50.0881 327.999 49.4773 328.271 48.9943C328.544 48.5114 328.916 48.125 329.388 47.8352C329.859 47.5455 330.391 47.3267 330.982 47.179C331.578 47.0256 332.195 46.9148 332.831 46.8466C333.598 46.767 334.22 46.696 334.697 46.6335C335.175 46.5653 335.521 46.4631 335.737 46.3267C335.959 46.1847 336.07 45.9659 336.07 45.6705V45.6193C336.07 44.9773 335.879 44.4801 335.499 44.1278C335.118 43.7756 334.57 43.5994 333.854 43.5994C333.098 43.5994 332.499 43.7642 332.055 44.0938C331.618 44.4233 331.322 44.8125 331.169 45.2614L328.288 44.8523C328.516 44.0568 328.891 43.392 329.413 42.858C329.936 42.3182 330.575 41.9148 331.331 41.6477C332.087 41.375 332.922 41.2386 333.837 41.2386C334.467 41.2386 335.095 41.3125 335.72 41.4602C336.345 41.608 336.916 41.8523 337.433 42.1932C337.95 42.5284 338.365 42.9858 338.678 43.5653C338.996 44.1449 339.155 44.8693 339.155 45.7386V54.5H336.189V52.7017H336.087C335.899 53.0653 335.635 53.4062 335.294 53.7244C334.959 54.0369 334.536 54.2898 334.024 54.483C333.518 54.6705 332.925 54.7642 332.243 54.7642ZM333.044 52.4972C333.663 52.4972 334.2 52.375 334.655 52.1307C335.109 51.8807 335.459 51.5511 335.703 51.142C335.953 50.733 336.078 50.2869 336.078 49.804V48.2614C335.982 48.3409 335.817 48.4148 335.584 48.483C335.357 48.5511 335.101 48.6108 334.817 48.6619C334.533 48.7131 334.251 48.7585 333.973 48.7983C333.695 48.8381 333.453 48.8722 333.249 48.9006C332.788 48.9631 332.376 49.0653 332.013 49.2074C331.649 49.3494 331.362 49.5483 331.152 49.804C330.942 50.054 330.837 50.3778 330.837 50.7756C330.837 51.3438 331.044 51.7727 331.459 52.0625C331.874 52.3523 332.402 52.4972 333.044 52.4972Z" fill="white"/>
<path d="M75.6003 124.006L101.5 79H145L78.4983 126.63C76.7501 127.882 74.5277 125.87 75.6003 124.006Z" fill="#006DB7"/>
<defs>
<clipPath id="clip0_210_8360">
<rect width="24" height="24" fill="white" transform="translate(107 34)"/>
</clipPath>
</defs>
</svg>
