<svg width="512" height="124" viewBox="0 0 655 159" fill="none" xmlns="http://www.w3.org/2000/svg">
<path d="M3.03906 124.306L50.0886 97.8389L106.076 129.744L59.1548 156.802L3.03906 124.306Z" fill="#3B495C"/>
<path d="M106.076 129.744V131.942L59.1543 158.999V156.801L106.076 129.744Z" fill="#233143"/>
<path d="M3.03906 124.307V126.505L59.1548 159V156.802L3.03906 124.307Z" fill="#233143"/>
<path d="M50.6332 73.3643L10.4199 96.1944V123.151L50.6332 100.028V73.3643Z" fill="#C6C3C1"/>
<path d="M12.7361 96.6875L11.123 97.6014V124.563L12.7361 123.635V96.6875Z" fill="#FBAD32"/>
<path opacity="0.5" d="M23.3063 104.169L11.9277 110.713V113.61L25.8424 105.613L23.3063 104.169Z" fill="white"/>
<path opacity="0.5" d="M26.8843 106.202L11.9277 114.802V115.643L27.62 106.618L26.8843 106.202Z" fill="white"/>
<path opacity="0.5" d="M11.9277 97.7119V98.667L12.764 98.1872L11.9277 97.7119Z" fill="white"/>
<path opacity="0.5" d="M11.9277 124.098L30.1973 134.599V108.085L30.1105 108.035L11.9277 118.486V124.098Z" fill="white"/>
<path opacity="0.5" d="M28.141 106.915L11.9277 116.237V117.891L29.585 107.738L28.141 106.915Z" fill="white"/>
<path d="M41.8172 99.0511V98.457L27.6191 106.618L28.1401 106.916L41.8172 99.0511Z" fill="white"/>
<path opacity="0.8" d="M27.62 106.618L11.9277 115.643V116.237L28.141 106.915L27.62 106.618Z" fill="white"/>
<path d="M41.9607 100.623L29.5859 107.738L30.1115 108.035L41.9607 101.217V100.623Z" fill="white"/>
<path opacity="0.8" d="M11.9277 117.891V118.485L30.1105 108.034L29.585 107.737L11.9277 117.891Z" fill="white"/>
<path d="M41.8174 97.6155V96.4229L25.8418 105.612L26.8837 106.202L41.8174 97.6155Z" fill="white"/>
<path opacity="0.8" d="M25.8424 105.613L11.9277 113.61V114.803L26.8843 106.203L25.8424 105.613Z" fill="white"/>
<path d="M35.6212 97.0857V85.04L12.7637 98.187L23.3059 104.169L35.6212 97.0857Z" fill="white"/>
<path opacity="0.8" d="M12.764 98.1875L11.9277 98.6673V110.713L23.3063 104.169L12.764 98.1875Z" fill="white"/>
<path d="M99.4047 102.445L59.1914 125.275V152.232L99.4047 129.109V102.445Z" fill="#FBAD32"/>
<path d="M40.5936 112.736L38.9805 113.655V140.611L40.5936 139.684V112.736Z" fill="#FBAD32"/>
<path d="M11.1511 97.999L9.69336 97.1719V123.767L11.1511 124.608V97.999Z" fill="#FBAD32"/>
<path d="M29.6621 108.51V135.252L38.9797 140.612V113.801L29.6621 108.51Z" fill="#FBAD32"/>
<path opacity="0.5" d="M53.5799 121.446L39.9531 129.283V130.12L54.3157 121.862L53.5799 121.446Z" fill="white"/>
<path opacity="0.5" d="M54.8366 122.159L39.9531 130.714V132.368L56.2852 122.977L54.8366 122.159Z" fill="white"/>
<path opacity="0.5" d="M50.0019 119.412L39.9531 125.188V128.09L52.538 120.852L50.0019 119.412Z" fill="white"/>
<path opacity="0.5" d="M39.9531 140.09L58.2182 150.591V124.078L56.8061 123.273L39.9531 132.966V140.09Z" fill="white"/>
<path opacity="0.8" d="M54.3157 121.862L39.9531 130.12V130.714L54.8366 122.159L54.3157 121.862Z" fill="white"/>
<path opacity="0.8" d="M39.9531 132.367V132.966L56.8061 123.274L56.2852 122.977L39.9531 132.367Z" fill="white"/>
<path opacity="0.8" d="M52.538 120.852L39.9531 128.09V129.283L53.5799 121.446L52.538 120.852Z" fill="white"/>
<path opacity="0.8" d="M39.9531 113.705V125.189L50.0019 119.413L39.9531 113.705Z" fill="white"/>
<path d="M49.1786 119.001L48.6074 118.677V145.058L49.1786 145.387V119.001Z" fill="#888D9A"/>
<path d="M57.2344 124.165V151.108L59.1902 152.232V125.275L57.2344 124.165Z" fill="#FBAD32"/>
<path d="M59.1906 125.888L56.1289 118.677L99.4038 93.8271V103.085L59.1906 125.888Z" fill="#BECCC6"/>
<path d="M99.4053 93.8271L53.4891 120.468L9.74805 95.687L55.5866 69L99.4053 93.8271Z" fill="white"/>
<path d="M93.9581 94.654L95.4707 93.7812L55.8241 70.8643L16.7441 93.5345L18.3618 94.4895L55.9292 72.6967L93.9581 94.654Z" fill="#7C8982"/>
<path d="M93.9569 94.6546L55.928 72.6973L23.4375 91.5427L61.4116 113.473L93.9569 94.6546Z" fill="#A2AAA6"/>
<path d="M56.3263 116.416L61.4123 113.473L23.4383 91.543L18.3613 94.4904L56.3263 116.416Z" fill="#8C9993"/>
<path d="M10.1502 88.499V89.189L3.03516 93.2972V92.6072L10.1502 88.499Z" fill="#243954"/>
<path d="M10.1502 94.9648V95.6594L3.03516 99.7676V99.073L10.1502 94.9648Z" fill="#243954"/>
<path d="M8.7832 87.3154L58.2866 115.419V126.4L8.7832 97.9354V87.3154Z" fill="#243954"/>
<path d="M9.69257 86.8262L8.7832 87.3151L58.2866 115.419L59.1914 114.93L9.69257 86.8262Z" fill="#243954"/>
<path d="M58.2871 126.4L59.1919 125.911V114.93L58.2871 115.419V126.4Z" fill="#243954"/>
<path d="M31.8594 118.782L37.4572 122.013V120.153L31.8594 117.005V118.782Z" fill="white"/>
<path d="M54.2155 138.761L50.8613 136.841V130.878L54.2155 132.797V138.761Z" fill="#243954"/>
<path d="M53.8908 133.104L51.1855 131.555V131.92L53.8908 133.469V133.104Z" fill="white"/>
<path d="M53.8908 133.839L51.1855 132.29V132.66L53.8908 134.209V133.839Z" fill="white"/>
<path d="M51.3223 134.25C51.3223 133.729 51.5279 133.542 51.8112 133.706C52.0945 133.871 52.3002 134.296 52.3002 134.817C52.3002 135.342 52.0945 135.534 51.8112 135.37C51.5233 135.205 51.3223 134.776 51.3223 134.25ZM51.9894 134.639C51.9894 134.268 51.9072 134.095 51.8067 134.035C51.7061 133.976 51.6284 134.058 51.6284 134.428C51.6284 134.803 51.7107 134.981 51.8067 135.041C51.9072 135.096 51.9894 135.009 51.9894 134.639ZM51.8798 136.462L52.9399 134.36L53.1913 134.506L52.1357 136.613L51.8798 136.462ZM52.7663 136.137C52.7663 135.616 52.9765 135.429 53.2552 135.594C53.5386 135.758 53.7442 136.183 53.7442 136.704C53.7442 137.23 53.5386 137.422 53.2552 137.257C52.9719 137.092 52.7663 136.663 52.7663 136.137ZM53.438 136.526C53.438 136.151 53.3558 135.982 53.2598 135.923C53.1593 135.863 53.077 135.941 53.077 136.316C53.077 136.69 53.1593 136.869 53.2598 136.928C53.3558 136.983 53.438 136.901 53.438 136.526Z" fill="white"/>
<path d="M47.2188 130.316L45.2676 129.201V125.729L47.2188 126.844V130.316Z" fill="#243954"/>
<path d="M28.0859 127.396L21.1445 123.421V111.073L28.0859 115.049V127.396Z" fill="#243954"/>
<path d="M27.6697 117.279L21.7383 113.884V114.574L27.6697 117.969V117.279Z" fill="white"/>
<path d="M27.6697 116.041L21.7383 112.646V113.336L27.6697 116.731V116.041Z" fill="white"/>
<path d="M8.36203 87.2881L0.662109 91.6613V102.642L8.36203 98.2142V87.2881Z" fill="#243954"/>
<path d="M8.36203 92.1221L0.662109 96.4953V97.1487L8.36203 92.7253V92.1221Z" fill="white"/>
<path d="M8.36203 93.6035L0.662109 97.9721V98.6302L8.36203 94.2021V93.6035Z" fill="white"/>
<path d="M8.36203 95.0107L0.662109 99.3839V100.037L8.36203 95.6094V95.0107Z" fill="white"/>
<path d="M0 102.249L0.662605 102.642V91.6606L0 91.2676V102.249Z" fill="#243954"/>
<path d="M8.36253 87.2878L7.69992 86.8994L0 91.268L0.662605 91.661L8.36253 87.2878Z" fill="#243954"/>
<rect x="166" width="489" height="141" rx="18" fill="#006DB7"/>
<path d="M110 102L221.5 66.026L189.5 42L110 102Z" fill="#006DB7"/>
<rect x="191.048" y="49.5476" width="41.9048" height="41.9048" rx="20.9524" fill="#FFB600"/>
<rect x="191.048" y="49.5476" width="41.9048" height="41.9048" rx="20.9524" stroke="white" stroke-width="2.09524"/>
<path d="M200.375 78.8886C200.375 78.9261 200.379 78.9599 200.39 78.9936C200.39 79.0049 200.398 79.0161 200.401 79.0274C200.413 79.0574 200.431 79.0874 200.454 79.1136C200.458 79.1211 200.461 79.1249 200.465 79.1324C200.465 79.1324 200.469 79.1324 200.472 79.1361C200.499 79.1661 200.529 79.1924 200.566 79.2111C202.205 80.0699 206.255 81.5661 206.424 81.6261C206.439 81.6299 206.45 81.6299 206.465 81.6336C206.472 81.6336 206.48 81.6411 206.491 81.6449C206.589 81.6599 206.713 81.6674 206.855 81.6674C209.938 81.6674 222.789 78.0411 223.359 77.8799C223.531 77.8311 223.644 77.6624 223.621 77.4824C223.014 72.7236 221.375 64.9574 221.36 64.8786C221.36 64.8749 221.356 64.8711 221.356 64.8674C221.345 64.8299 221.33 64.7961 221.311 64.7624C221.308 64.7549 221.304 64.7474 221.3 64.7436C221.278 64.7099 221.244 64.6799 221.21 64.6574C221.195 64.6461 221.176 64.6386 221.157 64.6311C221.142 64.6236 221.128 64.6124 221.109 64.6086L217.625 63.5849C216.267 60.5474 214.318 59.0849 211.989 59.3586C211.501 59.4149 211.051 59.5499 210.642 59.7561C210.436 59.7186 210.222 59.6961 210.001 59.6924C208.899 59.6811 207.961 60.1161 207.226 60.9824C206.341 62.0136 205.786 63.6674 205.561 65.8911C203.615 66.2361 202.186 66.4799 202.164 66.4836C202.149 66.4836 202.141 66.4949 202.126 66.4986C202.119 66.4986 202.107 66.4986 202.1 66.4986C202.089 66.4986 202.081 66.5099 202.074 66.5174C202.044 66.5324 202.018 66.5474 201.995 66.5661C201.98 66.5774 201.969 66.5886 201.957 66.6036C201.935 66.6261 201.92 66.6524 201.905 66.6824C201.901 66.6936 201.89 66.7011 201.886 66.7124C201.159 68.6249 200.409 78.4461 200.379 78.8624V78.8661V78.8849L200.375 78.8886ZM206.533 66.4574C206.574 66.4499 206.615 66.4424 206.66 66.4349C207.151 66.3449 207.661 66.2549 208.182 66.1574C208.197 66.5436 208.227 66.9411 208.273 67.3536C206.499 67.6986 205.344 67.8899 204.837 67.9199L203.281 67.0274C204.054 66.8924 205.213 66.6936 206.536 66.4536L206.533 66.4574ZM208.16 65.4224C207.995 65.4524 207.83 65.4824 207.665 65.5124C207.823 64.3986 208.081 63.5099 208.422 62.8911C208.246 63.6261 208.156 64.4736 208.156 65.4224H208.16ZM203.416 76.9686L205.674 80.5724C204.504 80.1261 202.584 79.3761 201.38 78.8061L203.42 76.9724L203.416 76.9686ZM203.859 76.3049V68.2011L204.406 68.5161C204.552 69.9261 205.201 75.9861 205.749 79.3236L203.859 76.3086V76.3049ZM202.438 67.3874L203.131 67.7849V76.2486L201.17 78.0149C201.361 75.6749 201.905 69.4724 202.434 67.3874H202.438ZM206.806 80.9511C206.405 79.6761 205.606 73.0086 205.145 68.6286C205.76 68.5611 206.803 68.3849 208.351 68.0811C208.475 68.9549 208.621 69.6336 208.707 70.0049C208.831 70.4849 209.262 70.8224 209.757 70.8224C209.847 70.8224 209.938 70.8111 210.024 70.7886C210.597 70.6424 210.954 70.0574 210.811 69.4761C210.688 68.9774 210.568 68.3174 210.477 67.6499C212.142 67.3049 214.108 66.8849 216.331 66.3899C216.519 67.0536 216.68 67.7474 216.796 68.4111C216.796 68.4261 216.8 68.4374 216.804 68.4486C216.845 68.7336 216.995 68.9849 217.227 69.1574C217.46 69.3299 217.741 69.4049 218.03 69.3599C218.319 69.3186 218.57 69.1649 218.743 68.9324C218.915 68.6999 218.986 68.4149 218.945 68.1299C218.93 68.0211 218.791 67.1099 218.454 65.9099C219.481 65.6774 220.287 65.4936 220.722 65.3924C221.045 66.9449 222.305 73.1174 222.856 77.2649C218.761 78.4161 208.955 81.0261 206.802 80.9399L206.806 80.9511ZM211.805 61.6161C211.839 61.6049 211.869 61.5899 211.903 61.5824C212.007 61.5524 212.12 61.5261 212.236 61.5111C212.263 61.5111 212.292 61.5111 212.319 61.5074C212.911 62.1636 213.395 63.1049 213.755 64.3161C213.736 64.3199 213.714 64.3236 213.695 64.3311C213.523 64.3686 213.342 64.4061 213.159 64.4474C212.773 63.1799 212.236 62.2724 211.565 61.7286C211.58 61.7211 211.591 61.7136 211.602 61.7061C211.666 61.6724 211.734 61.6461 211.805 61.6199V61.6161ZM210.403 66.9261C210.365 66.5286 210.339 66.1349 210.331 65.7524C211.318 65.5611 212.199 65.3849 212.971 65.2236H212.979C213.069 65.2049 213.155 65.1861 213.245 65.1674C213.372 65.1411 213.492 65.1149 213.612 65.0886C213.627 65.0886 213.642 65.0811 213.657 65.0774C213.815 65.0436 213.969 65.0099 214.115 64.9761C214.171 64.9649 214.231 64.9499 214.287 64.9386C214.842 64.8149 215.319 64.7024 215.709 64.6011C215.851 64.9349 215.99 65.2986 216.118 65.6886C213.95 66.1724 212.03 66.5849 210.399 66.9224L210.403 66.9261ZM214.464 64.1586C214.171 63.1649 213.8 62.3286 213.35 61.6574C214.111 61.9724 214.801 62.7374 215.401 63.9336C215.127 64.0011 214.813 64.0761 214.46 64.1586H214.464ZM211.003 62.2424C211.003 62.2424 211.014 62.2311 211.017 62.2236C211.599 62.6474 212.086 63.4574 212.443 64.5936C211.805 64.7249 211.1 64.8636 210.328 65.0136C210.369 63.7799 210.597 62.8236 211.003 62.2424ZM218.24 65.2236C218.154 64.9611 218.068 64.7024 217.974 64.4511L219.575 64.9236C219.193 65.0099 218.743 65.1149 218.244 65.2274L218.24 65.2236ZM212.071 60.0861C212.229 60.0674 212.382 60.0599 212.536 60.0599C214.378 60.0599 215.885 61.3949 217.029 64.0386C217.257 64.5786 217.468 65.1599 217.651 65.7599C218.052 67.0874 218.21 68.1299 218.225 68.2461C218.24 68.3399 218.214 68.4336 218.157 68.5124C218.101 68.5874 218.019 68.6399 217.921 68.6511C217.827 68.6661 217.737 68.6399 217.659 68.5836C217.584 68.5274 217.535 68.4449 217.52 68.3474C217.52 68.3361 217.513 68.3061 217.513 68.2949C217.374 67.4886 217.175 66.6486 216.935 65.8574C216.721 65.1674 216.5 64.5711 216.249 64.0274C215.266 61.8674 214.01 60.7724 212.517 60.7724C212.499 60.7724 212.484 60.7724 212.465 60.7724C212.364 60.7649 212.255 60.7799 212.15 60.7911C211.554 60.8624 211.055 61.0986 210.68 61.4924C210.68 61.4924 210.68 61.4924 210.676 61.4961C210.579 61.5936 210.489 61.7061 210.403 61.8261C209.859 62.6099 209.585 63.8324 209.589 65.4561C209.589 66.0824 209.634 66.7386 209.712 67.4061C209.806 68.2049 209.953 69.0449 210.106 69.6486C210.151 69.8399 210.035 70.0311 209.847 70.0799C209.671 70.1249 209.461 70.0086 209.413 69.8099C209.341 69.4986 209.158 68.6624 209.023 67.6011C208.94 66.9374 208.895 66.3036 208.884 65.7149C208.85 64.0386 209.094 62.7111 209.604 61.7699C209.682 61.6236 209.746 61.5186 209.818 61.4174C209.889 61.3124 209.968 61.2149 210.046 61.1211C210.286 60.8436 210.564 60.6186 210.868 60.4499C211.227 60.2549 211.629 60.1274 212.071 60.0786V60.0861ZM207.774 61.4586C208.299 60.8399 208.944 60.4986 209.698 60.4349C209.653 60.4799 209.611 60.5286 209.566 60.5774C209.536 60.6111 209.506 60.6411 209.476 60.6749C209.386 60.7799 209.3 60.8924 209.217 61.0086C209.18 61.0611 209.142 61.1211 209.105 61.1811C209.094 61.1999 209.083 61.2186 209.071 61.2374C209.056 61.2636 209.041 61.2861 209.026 61.3124C208.715 61.4474 208.434 61.6611 208.182 61.9499C207.549 62.6924 207.121 63.9374 206.908 65.6549C206.758 65.6811 206.611 65.7074 206.461 65.7374C206.405 65.7486 206.349 65.7561 206.293 65.7674C206.51 63.8211 207.016 62.3399 207.77 61.4624L207.774 61.4586Z" fill="white"/>
<path d="M216.514 72.8254C216.158 72.5217 215.64 72.3567 214.984 72.3267L213.975 72.2854C213.645 72.2704 213.552 72.2104 213.54 72.2029C213.529 72.1954 213.507 72.1804 213.507 72.0979C213.507 72.0154 213.518 71.8879 213.668 71.7417C213.799 71.6142 214.005 71.5204 214.275 71.4717C214.515 71.4267 214.714 71.4117 214.868 71.4304C215.033 71.4492 215.19 71.4792 215.322 71.5204C215.558 71.5954 215.775 71.5992 215.967 71.5279C216.15 71.4604 216.297 71.3442 216.402 71.1867C216.499 71.0442 216.555 70.8867 216.574 70.7142C216.593 70.5304 216.559 70.3579 216.473 70.1967C216.383 70.0242 216.24 69.8967 216.072 69.8254C215.82 69.6979 215.532 69.6154 215.213 69.5817C215.13 69.5742 215.052 69.5667 214.969 69.5629L214.958 69.3904C214.943 69.1467 214.842 68.9404 214.658 68.7942C214.474 68.6479 214.249 68.5954 214.009 68.6367C213.777 68.6779 213.578 68.7942 213.432 68.9779C213.285 69.1617 213.21 69.3754 213.222 69.6042L213.233 69.8854C212.978 69.9904 212.745 70.1217 212.543 70.2754C212.198 70.5342 211.924 70.8454 211.729 71.2054C211.527 71.5804 211.425 71.9892 211.425 72.4204C211.425 73.0129 211.605 73.4854 211.954 73.8192C212.299 74.1492 212.809 74.3292 213.469 74.3592L214.5 74.4042C214.718 74.4117 214.838 74.4379 214.902 74.4642C214.984 74.4942 215.003 74.5204 215.007 74.5242C215.025 74.5542 215.04 74.5954 215.044 74.6517C215.052 74.7342 215.033 74.8092 214.995 74.8842C214.954 74.9592 214.875 75.0379 214.759 75.1092C214.624 75.1954 214.433 75.2629 214.185 75.3117C213.837 75.3829 213.54 75.3979 213.304 75.3642C213.057 75.3267 212.865 75.2817 212.734 75.2292C212.415 75.1092 212.172 75.1692 212.022 75.2404C211.834 75.3304 211.68 75.4692 211.568 75.6567C211.463 75.8329 211.399 76.0242 211.38 76.2267C211.362 76.4367 211.392 76.6354 211.47 76.8229C211.564 77.0442 211.74 77.2054 211.969 77.2879C212.22 77.3892 212.524 77.4604 212.892 77.5092C213.079 77.5354 213.282 77.5392 213.503 77.5317L213.514 77.8242C213.525 78.1092 213.627 78.3529 213.814 78.5292C213.972 78.6792 214.17 78.7579 214.384 78.7579C214.448 78.7579 214.512 78.7504 214.575 78.7392C214.842 78.6829 215.063 78.5292 215.217 78.2892C215.359 78.0679 215.427 77.8204 215.408 77.5542L215.382 77.0967C215.674 76.9579 215.937 76.7854 216.162 76.5904C216.51 76.2904 216.777 75.9304 216.953 75.5217C217.129 75.1167 217.197 74.6742 217.155 74.2129C217.103 73.6167 216.885 73.1554 216.51 72.8367L216.514 72.8254ZM216.289 75.2179C216.154 75.5254 215.955 75.7954 215.689 76.0242C215.464 76.2192 215.187 76.3842 214.872 76.5117C214.725 76.5717 214.635 76.7142 214.647 76.8679L214.688 77.5767C214.695 77.6892 214.669 77.7867 214.609 77.8767C214.545 77.9742 214.478 77.9967 214.429 78.0079C214.358 78.0229 214.335 78.0042 214.317 77.9854C214.287 77.9592 214.249 77.9067 214.242 77.7829L214.219 77.1117C214.219 77.0104 214.17 76.9129 214.092 76.8492C214.024 76.7929 213.942 76.7629 213.855 76.7629C213.84 76.7629 213.825 76.7629 213.81 76.7629C213.495 76.8004 213.222 76.8042 212.989 76.7742C212.685 76.7329 212.434 76.6729 212.228 76.5942C212.164 76.5717 212.149 76.5454 212.138 76.5192C212.108 76.4479 212.097 76.3654 212.104 76.2754C212.112 76.1817 212.138 76.0992 212.187 76.0204C212.228 75.9529 212.273 75.9117 212.333 75.8817C212.363 75.8667 212.412 75.8704 212.464 75.8929C212.644 75.9642 212.884 76.0242 213.192 76.0692C213.51 76.1179 213.889 76.0992 214.32 76.0129C214.658 75.9454 214.928 75.8479 215.138 75.7129C215.363 75.5704 215.528 75.4017 215.629 75.2142C215.73 75.0192 215.775 74.8129 215.76 74.5954C215.749 74.4079 215.693 74.2392 215.595 74.1004C215.494 73.9504 215.337 73.8417 215.134 73.7704C214.969 73.7104 214.763 73.6804 214.515 73.6729L213.488 73.6279C213.012 73.6092 212.659 73.4929 212.445 73.2904C212.243 73.0954 212.142 72.8104 212.142 72.4167C212.142 72.1017 212.213 71.8167 212.359 71.5467C212.505 71.2767 212.708 71.0479 212.97 70.8492C213.18 70.6917 213.428 70.5642 213.713 70.4704C213.867 70.4179 213.968 70.2754 213.96 70.1142L213.942 69.5704C213.942 69.5179 213.957 69.4729 213.994 69.4279C214.032 69.3829 214.073 69.3567 214.129 69.3492C214.178 69.3417 214.189 69.3492 214.2 69.3567C214.212 69.3679 214.227 69.3754 214.227 69.4242L214.257 69.9454C214.268 70.1442 214.44 70.2979 214.639 70.2867C214.819 70.2754 214.973 70.2792 215.13 70.2979C215.359 70.3204 215.562 70.3804 215.753 70.4742C215.809 70.4967 215.82 70.5229 215.828 70.5342C215.847 70.5679 215.854 70.6017 215.847 70.6392C215.843 70.6917 215.824 70.7367 215.794 70.7817C215.779 70.8042 215.757 70.8267 215.708 70.8492C215.697 70.8529 215.652 70.8642 215.539 70.8304C215.355 70.7742 215.157 70.7367 214.943 70.7142C214.718 70.6917 214.455 70.7067 214.144 70.7629C213.728 70.8379 213.398 70.9954 213.162 71.2242C212.903 71.4754 212.772 71.7867 212.779 72.1204C212.79 72.4879 212.97 72.6942 213.117 72.7992C213.3 72.9304 213.559 72.9979 213.942 73.0167L214.95 73.0579C215.445 73.0804 215.813 73.1929 216.045 73.3879C216.27 73.5792 216.402 73.8679 216.435 74.2729C216.465 74.6179 216.417 74.9292 216.289 75.2254V75.2179Z" fill="white"/>
<path d="M262.141 35.2891C262.055 34.4827 261.692 33.8549 261.052 33.4055C260.418 32.9562 259.593 32.7315 258.577 32.7315C257.863 32.7315 257.251 32.8393 256.74 33.0547C256.229 33.2701 255.838 33.5625 255.567 33.9318C255.297 34.3011 255.158 34.7228 255.152 35.1967C255.152 35.5907 255.241 35.9323 255.42 36.2216C255.604 36.5109 255.854 36.7571 256.168 36.9602C256.482 37.1572 256.829 37.3234 257.211 37.4588C257.593 37.5942 257.977 37.7081 258.365 37.8004L260.138 38.2436C260.852 38.4098 261.538 38.6345 262.197 38.9176C262.862 39.2008 263.455 39.5578 263.979 39.9886C264.508 40.4195 264.927 40.9396 265.234 41.549C265.542 42.1584 265.696 42.8724 265.696 43.6911C265.696 44.799 265.413 45.7746 264.847 46.6179C264.28 47.455 263.462 48.1106 262.391 48.5845C261.326 49.0523 260.036 49.2862 258.522 49.2862C257.051 49.2862 255.774 49.0585 254.69 48.603C253.613 48.1475 252.77 47.4827 252.161 46.6087C251.557 45.7346 251.231 44.6697 251.182 43.4141H254.552C254.601 44.0727 254.804 44.6205 255.161 45.0575C255.518 45.4946 255.983 45.8208 256.555 46.0362C257.134 46.2517 257.78 46.3594 258.494 46.3594C259.239 46.3594 259.892 46.2486 260.452 46.027C261.018 45.7992 261.461 45.4853 261.781 45.0852C262.101 44.679 262.264 44.205 262.271 43.6634C262.264 43.1709 262.12 42.7647 261.837 42.4446C261.554 42.1184 261.156 41.8475 260.646 41.6321C260.141 41.4105 259.55 41.2135 258.873 41.0412L256.722 40.4872C255.164 40.0871 253.933 39.4808 253.028 38.6683C252.13 37.8497 251.68 36.7633 251.68 35.4091C251.68 34.295 251.982 33.3194 252.585 32.4822C253.195 31.6451 254.022 30.9957 255.069 30.5341C256.115 30.0663 257.3 29.8324 258.624 29.8324C259.965 29.8324 261.141 30.0663 262.151 30.5341C263.166 30.9957 263.963 31.639 264.542 32.4638C265.121 33.2824 265.419 34.2242 265.438 35.2891H262.141ZM272.683 49.2862C271.784 49.2862 270.975 49.1262 270.255 48.8061C269.541 48.4799 268.974 47.9998 268.556 47.3658C268.144 46.7318 267.937 45.95 267.937 45.0206C267.937 44.2204 268.085 43.5587 268.381 43.0355C268.676 42.5123 269.079 42.0938 269.59 41.7798C270.101 41.4659 270.676 41.2289 271.317 41.0689C271.963 40.9027 272.631 40.7827 273.32 40.7088C274.151 40.6226 274.825 40.5457 275.342 40.478C275.859 40.4041 276.235 40.2933 276.469 40.1456C276.709 39.9917 276.829 39.7547 276.829 39.4347V39.3793C276.829 38.6837 276.622 38.1451 276.21 37.7635C275.798 37.3819 275.204 37.1911 274.428 37.1911C273.609 37.1911 272.96 37.3696 272.48 37.7266C272.006 38.0836 271.686 38.5052 271.52 38.9915L268.399 38.5483C268.645 37.6866 269.051 36.9664 269.618 36.3878C270.184 35.803 270.876 35.366 271.695 35.0767C272.514 34.7812 273.419 34.6335 274.41 34.6335C275.093 34.6335 275.773 34.7135 276.45 34.8736C277.127 35.0336 277.746 35.2983 278.306 35.6676C278.866 36.0308 279.315 36.5263 279.654 37.1541C279.999 37.782 280.171 38.5668 280.171 39.5085V49H276.958V47.0518H276.847C276.644 47.4458 276.358 47.8151 275.988 48.1598C275.625 48.4983 275.167 48.7723 274.613 48.9815C274.065 49.1847 273.422 49.2862 272.683 49.2862ZM273.551 46.8303C274.222 46.8303 274.804 46.6979 275.296 46.4332C275.788 46.1624 276.167 45.8054 276.432 45.3622C276.702 44.919 276.838 44.4358 276.838 43.9126V42.2415C276.733 42.3277 276.555 42.4077 276.302 42.4815C276.056 42.5554 275.779 42.62 275.471 42.6754C275.164 42.7308 274.859 42.7801 274.557 42.8232C274.256 42.8662 273.994 42.9032 273.773 42.9339C273.274 43.0017 272.828 43.1125 272.434 43.2663C272.04 43.4202 271.729 43.6357 271.501 43.9126C271.273 44.1835 271.16 44.5343 271.16 44.9652C271.16 45.5807 271.384 46.0455 271.834 46.3594C272.283 46.6733 272.855 46.8303 273.551 46.8303ZM286.874 30.0909V49H283.532V30.0909H286.874ZM294.392 49.2862C293.493 49.2862 292.684 49.1262 291.964 48.8061C291.25 48.4799 290.683 47.9998 290.265 47.3658C289.853 46.7318 289.646 45.95 289.646 45.0206C289.646 44.2204 289.794 43.5587 290.089 43.0355C290.385 42.5123 290.788 42.0938 291.299 41.7798C291.81 41.4659 292.385 41.2289 293.026 41.0689C293.672 40.9027 294.34 40.7827 295.029 40.7088C295.86 40.6226 296.534 40.5457 297.051 40.478C297.568 40.4041 297.944 40.2933 298.178 40.1456C298.418 39.9917 298.538 39.7547 298.538 39.4347V39.3793C298.538 38.6837 298.331 38.1451 297.919 37.7635C297.507 37.3819 296.913 37.1911 296.137 37.1911C295.318 37.1911 294.669 37.3696 294.189 37.7266C293.715 38.0836 293.395 38.5052 293.229 38.9915L290.108 38.5483C290.354 37.6866 290.76 36.9664 291.327 36.3878C291.893 35.803 292.585 35.366 293.404 35.0767C294.223 34.7812 295.128 34.6335 296.119 34.6335C296.802 34.6335 297.482 34.7135 298.159 34.8736C298.836 35.0336 299.455 35.2983 300.015 35.6676C300.575 36.0308 301.024 36.5263 301.363 37.1541C301.708 37.782 301.88 38.5668 301.88 39.5085V49H298.667V47.0518H298.556C298.353 47.4458 298.067 47.8151 297.697 48.1598C297.334 48.4983 296.876 48.7723 296.322 48.9815C295.774 49.1847 295.131 49.2862 294.392 49.2862ZM295.26 46.8303C295.931 46.8303 296.513 46.6979 297.005 46.4332C297.497 46.1624 297.876 45.8054 298.141 45.3622C298.411 44.919 298.547 44.4358 298.547 43.9126V42.2415C298.442 42.3277 298.264 42.4077 298.011 42.4815C297.765 42.5554 297.488 42.62 297.18 42.6754C296.873 42.7308 296.568 42.7801 296.266 42.8232C295.965 42.8662 295.703 42.9032 295.482 42.9339C294.983 43.0017 294.537 43.1125 294.143 43.2663C293.749 43.4202 293.438 43.6357 293.21 43.9126C292.982 44.1835 292.869 44.5343 292.869 44.9652C292.869 45.5807 293.093 46.0455 293.543 46.3594C293.992 46.6733 294.564 46.8303 295.26 46.8303ZM316.953 49.2493C315.839 49.2493 314.842 48.9631 313.961 48.3906C313.081 47.8182 312.386 46.9872 311.875 45.8977C311.364 44.8082 311.108 43.4848 311.108 41.9276C311.108 40.3518 311.367 39.0223 311.884 37.9389C312.407 36.8494 313.112 36.0277 313.998 35.4737C314.885 34.9136 315.873 34.6335 316.962 34.6335C317.793 34.6335 318.476 34.7751 319.012 35.0582C319.547 35.3352 319.972 35.6707 320.286 36.0646C320.6 36.4524 320.843 36.8187 321.015 37.1634H321.154V30.0909H324.505V49H321.218V46.7656H321.015C320.843 47.1103 320.594 47.4766 320.267 47.8643C319.941 48.246 319.51 48.5722 318.975 48.843C318.439 49.1139 317.765 49.2493 316.953 49.2493ZM317.885 46.5071C318.593 46.5071 319.196 46.3163 319.695 45.9347C320.194 45.5469 320.572 45.0083 320.831 44.3189C321.089 43.6295 321.218 42.8262 321.218 41.9091C321.218 40.992 321.089 40.1948 320.831 39.5178C320.578 38.8407 320.203 38.3144 319.704 37.9389C319.212 37.5634 318.605 37.3757 317.885 37.3757C317.141 37.3757 316.519 37.5696 316.02 37.9574C315.522 38.3452 315.146 38.8807 314.894 39.5639C314.641 40.2472 314.515 41.0289 314.515 41.9091C314.515 42.7955 314.641 43.5864 314.894 44.282C315.152 44.9714 315.531 45.5161 316.029 45.9162C316.534 46.3101 317.153 46.5071 317.885 46.5071ZM334.345 49.277C332.923 49.277 331.695 48.9815 330.661 48.3906C329.633 47.7936 328.843 46.9503 328.289 45.8608C327.735 44.7652 327.458 43.4756 327.458 41.9922C327.458 40.5334 327.735 39.2531 328.289 38.1513C328.849 37.0433 329.63 36.1816 330.634 35.5661C331.637 34.9444 332.816 34.6335 334.17 34.6335C335.044 34.6335 335.869 34.7751 336.644 35.0582C337.426 35.3352 338.115 35.7661 338.713 36.3509C339.316 36.9356 339.79 37.6804 340.134 38.5852C340.479 39.4839 340.651 40.5549 340.651 41.7983V42.8232H329.027V40.5703H337.448C337.441 39.9302 337.303 39.3608 337.032 38.8622C336.761 38.3575 336.383 37.9605 335.896 37.6712C335.416 37.3819 334.856 37.2372 334.216 37.2372C333.533 37.2372 332.933 37.4034 332.416 37.7358C331.899 38.062 331.495 38.4929 331.206 39.0284C330.923 39.5578 330.778 40.1394 330.772 40.7734V42.7401C330.772 43.5649 330.923 44.2727 331.225 44.8636C331.526 45.4484 331.948 45.8977 332.49 46.2116C333.031 46.5194 333.665 46.6733 334.392 46.6733C334.878 46.6733 335.318 46.6056 335.712 46.4702C336.106 46.3286 336.447 46.1224 336.737 45.8516C337.026 45.5807 337.244 45.2453 337.392 44.8452L340.513 45.196C340.316 46.0208 339.941 46.741 339.387 47.3565C338.839 47.9659 338.137 48.4399 337.281 48.7784C336.426 49.1108 335.447 49.277 334.345 49.277ZM352.606 30.0909L357.527 44.9744H357.721L362.633 30.0909H366.4L359.734 49H355.505L348.848 30.0909H352.606ZM373.498 49.277C372.076 49.277 370.848 48.9815 369.814 48.3906C368.786 47.7936 367.995 46.9503 367.441 45.8608C366.887 44.7652 366.61 43.4756 366.61 41.9922C366.61 40.5334 366.887 39.2531 367.441 38.1513C368.001 37.0433 368.783 36.1816 369.786 35.5661C370.789 34.9444 371.968 34.6335 373.322 34.6335C374.196 34.6335 375.021 34.7751 375.797 35.0582C376.578 35.3352 377.268 35.7661 377.865 36.3509C378.468 36.9356 378.942 37.6804 379.287 38.5852C379.631 39.4839 379.804 40.5549 379.804 41.7983V42.8232H368.18V40.5703H376.6C376.594 39.9302 376.455 39.3608 376.184 38.8622C375.914 38.3575 375.535 37.9605 375.049 37.6712C374.569 37.3819 374.009 37.2372 373.368 37.2372C372.685 37.2372 372.085 37.4034 371.568 37.7358C371.051 38.062 370.648 38.4929 370.358 39.0284C370.075 39.5578 369.931 40.1394 369.925 40.7734V42.7401C369.925 43.5649 370.075 44.2727 370.377 44.8636C370.679 45.4484 371.1 45.8977 371.642 46.2116C372.184 46.5194 372.818 46.6733 373.544 46.6733C374.03 46.6733 374.47 46.6056 374.864 46.4702C375.258 46.3286 375.6 46.1224 375.889 45.8516C376.178 45.5807 376.397 45.2453 376.545 44.8452L379.665 45.196C379.468 46.0208 379.093 46.741 378.539 47.3565C377.991 47.9659 377.289 48.4399 376.434 48.7784C375.578 49.1108 374.599 49.277 373.498 49.277ZM385.974 40.6903V49H382.631V34.8182H385.826V37.228H385.992C386.318 36.4339 386.839 35.803 387.553 35.3352C388.273 34.8674 389.162 34.6335 390.221 34.6335C391.2 34.6335 392.052 34.8428 392.778 35.2614C393.511 35.6799 394.077 36.2862 394.477 37.0803C394.884 37.8743 395.084 38.8376 395.077 39.9702V49H391.735V40.4872C391.735 39.5393 391.489 38.7976 390.996 38.2621C390.51 37.7266 389.836 37.4588 388.974 37.4588C388.39 37.4588 387.87 37.5881 387.414 37.8466C386.965 38.099 386.611 38.4652 386.352 38.9453C386.1 39.4254 385.974 40.0071 385.974 40.6903ZM405.557 34.8182V37.4034H397.404V34.8182H405.557ZM399.417 31.4205H402.759V44.7344C402.759 45.1837 402.827 45.5284 402.962 45.7685C403.104 46.0024 403.289 46.1624 403.516 46.2486C403.744 46.3348 403.996 46.3778 404.273 46.3778C404.483 46.3778 404.674 46.3625 404.846 46.3317C405.024 46.3009 405.16 46.2732 405.252 46.2486L405.815 48.8615C405.637 48.9231 405.381 48.9908 405.049 49.0646C404.723 49.1385 404.323 49.1816 403.849 49.1939C403.012 49.2185 402.258 49.0923 401.587 48.8153C400.916 48.5322 400.383 48.0952 399.989 47.5043C399.602 46.9134 399.411 46.1747 399.417 45.2884V31.4205ZM412.433 49.2862C411.534 49.2862 410.725 49.1262 410.005 48.8061C409.291 48.4799 408.724 47.9998 408.306 47.3658C407.894 46.7318 407.687 45.95 407.687 45.0206C407.687 44.2204 407.835 43.5587 408.131 43.0355C408.426 42.5123 408.829 42.0938 409.34 41.7798C409.851 41.4659 410.426 41.2289 411.067 41.0689C411.713 40.9027 412.381 40.7827 413.07 40.7088C413.901 40.6226 414.575 40.5457 415.092 40.478C415.609 40.4041 415.985 40.2933 416.219 40.1456C416.459 39.9917 416.579 39.7547 416.579 39.4347V39.3793C416.579 38.6837 416.372 38.1451 415.96 37.7635C415.548 37.3819 414.954 37.1911 414.178 37.1911C413.359 37.1911 412.71 37.3696 412.23 37.7266C411.756 38.0836 411.436 38.5052 411.27 38.9915L408.149 38.5483C408.395 37.6866 408.801 36.9664 409.368 36.3878C409.934 35.803 410.626 35.366 411.445 35.0767C412.264 34.7812 413.169 34.6335 414.16 34.6335C414.843 34.6335 415.523 34.7135 416.2 34.8736C416.877 35.0336 417.496 35.2983 418.056 35.6676C418.616 36.0308 419.065 36.5263 419.404 37.1541C419.749 37.782 419.921 38.5668 419.921 39.5085V49H416.708V47.0518H416.597C416.394 47.4458 416.108 47.8151 415.738 48.1598C415.375 48.4983 414.917 48.7723 414.363 48.9815C413.815 49.1847 413.172 49.2862 412.433 49.2862ZM413.301 46.8303C413.972 46.8303 414.554 46.6979 415.046 46.4332C415.538 46.1624 415.917 45.8054 416.182 45.3622C416.452 44.919 416.588 44.4358 416.588 43.9126V42.2415C416.483 42.3277 416.305 42.4077 416.052 42.4815C415.806 42.5554 415.529 42.62 415.221 42.6754C414.914 42.7308 414.609 42.7801 414.307 42.8232C414.006 42.8662 413.744 42.9032 413.523 42.9339C413.024 43.0017 412.578 43.1125 412.184 43.2663C411.79 43.4202 411.479 43.6357 411.251 43.9126C411.023 44.1835 410.91 44.5343 410.91 44.9652C410.91 45.5807 411.134 46.0455 411.584 46.3594C412.033 46.6733 412.605 46.8303 413.301 46.8303ZM434.491 38.5668L431.444 38.8991C431.358 38.5914 431.207 38.3021 430.991 38.0312C430.782 37.7604 430.499 37.5419 430.142 37.3757C429.785 37.2095 429.348 37.1264 428.831 37.1264C428.135 37.1264 427.55 37.2772 427.077 37.5788C426.609 37.8804 426.378 38.2713 426.384 38.7514C426.378 39.1638 426.529 39.4993 426.836 39.7578C427.15 40.0163 427.667 40.2287 428.388 40.3949L430.807 40.9119C432.148 41.2012 433.146 41.6598 433.798 42.2876C434.457 42.9155 434.789 43.7372 434.795 44.7528C434.789 45.6454 434.528 46.4332 434.01 47.1165C433.5 47.7936 432.789 48.3229 431.878 48.7045C430.967 49.0862 429.92 49.277 428.738 49.277C427.003 49.277 425.605 48.9138 424.547 48.1875C423.488 47.455 422.857 46.4363 422.654 45.1314L425.913 44.8175C426.061 45.4576 426.375 45.9408 426.855 46.267C427.335 46.5933 427.96 46.7564 428.729 46.7564C429.523 46.7564 430.16 46.5933 430.64 46.267C431.127 45.9408 431.37 45.5376 431.37 45.0575C431.37 44.6513 431.213 44.3158 430.899 44.0511C430.591 43.7865 430.111 43.5833 429.459 43.4418L427.04 42.9339C425.679 42.6508 424.673 42.1738 424.02 41.5028C423.368 40.8258 423.045 39.9702 423.051 38.9361C423.045 38.062 423.282 37.3049 423.762 36.6648C424.248 36.0185 424.922 35.5199 425.784 35.169C426.652 34.812 427.652 34.6335 428.785 34.6335C430.447 34.6335 431.755 34.9875 432.709 35.6953C433.669 36.4032 434.263 37.3603 434.491 38.5668ZM251.865 80V61.0909H258.956C260.409 61.0909 261.627 61.3617 262.612 61.9034C263.603 62.4451 264.351 63.1899 264.856 64.1378C265.367 65.0795 265.622 66.1506 265.622 67.3509C265.622 68.5634 265.367 69.6406 264.856 70.5824C264.345 71.5241 263.591 72.2659 262.594 72.8075C261.597 73.343 260.369 73.6108 258.91 73.6108H254.21V70.7947H258.448C259.298 70.7947 259.993 70.647 260.535 70.3516C261.076 70.0561 261.477 69.6499 261.735 69.1328C262 68.6158 262.132 68.0218 262.132 67.3509C262.132 66.6799 262 66.089 261.735 65.5781C261.477 65.0672 261.073 64.6702 260.526 64.3871C259.984 64.0978 259.285 63.9531 258.43 63.9531H255.29V80H251.865ZM272.277 80.2862C271.378 80.2862 270.569 80.1262 269.849 79.8061C269.135 79.4799 268.568 78.9998 268.15 78.3658C267.737 77.7318 267.531 76.95 267.531 76.0206C267.531 75.2204 267.679 74.5587 267.974 74.0355C268.27 73.5123 268.673 73.0938 269.184 72.7798C269.695 72.4659 270.27 72.2289 270.91 72.0689C271.557 71.9027 272.224 71.7827 272.914 71.7088C273.745 71.6226 274.419 71.5457 274.936 71.478C275.453 71.4041 275.828 71.2933 276.062 71.1456C276.302 70.9917 276.422 70.7547 276.422 70.4347V70.3793C276.422 69.6837 276.216 69.1451 275.804 68.7635C275.391 68.3819 274.797 68.1911 274.022 68.1911C273.203 68.1911 272.554 68.3696 272.074 68.7266C271.6 69.0836 271.28 69.5052 271.113 69.9915L267.993 69.5483C268.239 68.6866 268.645 67.9664 269.211 67.3878C269.778 66.803 270.47 66.366 271.289 66.0767C272.108 65.7812 273.012 65.6335 274.003 65.6335C274.687 65.6335 275.367 65.7135 276.044 65.8736C276.721 66.0336 277.34 66.2983 277.9 66.6676C278.46 67.0308 278.909 67.5263 279.248 68.1541C279.592 68.782 279.765 69.5668 279.765 70.5085V80H276.552V78.0518H276.441C276.238 78.4458 275.952 78.8151 275.582 79.1598C275.219 79.4983 274.76 79.7723 274.206 79.9815C273.659 80.1847 273.015 80.2862 272.277 80.2862ZM273.145 77.8303C273.816 77.8303 274.397 77.6979 274.89 77.4332C275.382 77.1624 275.761 76.8054 276.025 76.3622C276.296 75.919 276.432 75.4358 276.432 74.9126V73.2415C276.327 73.3277 276.148 73.4077 275.896 73.4815C275.65 73.5554 275.373 73.62 275.065 73.6754C274.757 73.7308 274.453 73.7801 274.151 73.8232C273.849 73.8662 273.588 73.9032 273.366 73.9339C272.868 74.0017 272.421 74.1125 272.028 74.2663C271.634 74.4202 271.323 74.6357 271.095 74.9126C270.867 75.1835 270.753 75.5343 270.753 75.9652C270.753 76.5807 270.978 77.0455 271.427 77.3594C271.877 77.6733 272.449 77.8303 273.145 77.8303ZM286.468 71.6903V80H283.126V65.8182H286.32V68.228H286.486C286.813 67.4339 287.333 66.803 288.047 66.3352C288.767 65.8674 289.656 65.6335 290.715 65.6335C291.694 65.6335 292.546 65.8428 293.273 66.2614C294.005 66.6799 294.571 67.2862 294.971 68.0803C295.378 68.8743 295.578 69.8376 295.572 70.9702V80H292.229V71.4872C292.229 70.5393 291.983 69.7976 291.491 69.2621C291.004 68.7266 290.33 68.4588 289.469 68.4588C288.884 68.4588 288.364 68.5881 287.908 68.8466C287.459 69.099 287.105 69.4652 286.846 69.9453C286.594 70.4254 286.468 71.0071 286.468 71.6903ZM303.05 80.2862C302.152 80.2862 301.342 80.1262 300.622 79.8061C299.908 79.4799 299.342 78.9998 298.923 78.3658C298.511 77.7318 298.305 76.95 298.305 76.0206C298.305 75.2204 298.452 74.5587 298.748 74.0355C299.043 73.5123 299.446 73.0938 299.957 72.7798C300.468 72.4659 301.044 72.2289 301.684 72.0689C302.33 71.9027 302.998 71.7827 303.687 71.7088C304.518 71.6226 305.192 71.5457 305.709 71.478C306.226 71.4041 306.602 71.2933 306.836 71.1456C307.076 70.9917 307.196 70.7547 307.196 70.4347V70.3793C307.196 69.6837 306.99 69.1451 306.577 68.7635C306.165 68.3819 305.571 68.1911 304.795 68.1911C303.977 68.1911 303.327 68.3696 302.847 68.7266C302.373 69.0836 302.053 69.5052 301.887 69.9915L298.766 69.5483C299.012 68.6866 299.419 67.9664 299.985 67.3878C300.551 66.803 301.244 66.366 302.062 66.0767C302.881 65.7812 303.786 65.6335 304.777 65.6335C305.46 65.6335 306.14 65.7135 306.817 65.8736C307.494 66.0336 308.113 66.2983 308.673 66.6676C309.233 67.0308 309.683 67.5263 310.021 68.1541C310.366 68.782 310.538 69.5668 310.538 70.5085V80H307.325V78.0518H307.214C307.011 78.4458 306.725 78.8151 306.356 79.1598C305.992 79.4983 305.534 79.7723 304.98 79.9815C304.432 80.1847 303.789 80.2862 303.05 80.2862ZM303.918 77.8303C304.589 77.8303 305.171 77.6979 305.663 77.4332C306.156 77.1624 306.534 76.8054 306.799 76.3622C307.07 75.919 307.205 75.4358 307.205 74.9126V73.2415C307.1 73.3277 306.922 73.4077 306.67 73.4815C306.423 73.5554 306.146 73.62 305.839 73.6754C305.531 73.7308 305.226 73.7801 304.925 73.8232C304.623 73.8662 304.361 73.9032 304.14 73.9339C303.641 74.0017 303.195 74.1125 302.801 74.2663C302.407 74.4202 302.096 74.6357 301.868 74.9126C301.641 75.1835 301.527 75.5343 301.527 75.9652C301.527 76.5807 301.751 77.0455 302.201 77.3594C302.65 77.6733 303.223 77.8303 303.918 77.8303ZM313.899 80V65.8182H317.094V68.228H317.26C317.555 67.4155 318.045 66.7815 318.728 66.326C319.411 65.8643 320.227 65.6335 321.175 65.6335C322.135 65.6335 322.944 65.8674 323.603 66.3352C324.268 66.7969 324.735 67.4278 325.006 68.228H325.154C325.468 67.4401 325.997 66.8123 326.742 66.3445C327.493 65.8705 328.382 65.6335 329.41 65.6335C330.715 65.6335 331.78 66.0459 332.605 66.8707C333.43 67.6955 333.842 68.8989 333.842 70.4808V80H330.491V70.9979C330.491 70.1177 330.257 69.4744 329.789 69.0682C329.321 68.6558 328.749 68.4496 328.072 68.4496C327.265 68.4496 326.634 68.7019 326.179 69.2067C325.729 69.7053 325.505 70.3546 325.505 71.1548V80H322.227V70.8594C322.227 70.1269 322.006 69.5421 321.562 69.1051C321.125 68.6681 320.553 68.4496 319.845 68.4496C319.365 68.4496 318.928 68.5727 318.534 68.8189C318.14 69.0589 317.826 69.4006 317.592 69.8438C317.358 70.2808 317.241 70.7917 317.241 71.3764V80H313.899ZM343.511 80.277C342.089 80.277 340.862 79.9815 339.827 79.3906C338.799 78.7936 338.009 77.9503 337.455 76.8608C336.901 75.7652 336.624 74.4756 336.624 72.9922C336.624 71.5334 336.901 70.2531 337.455 69.1513C338.015 68.0433 338.796 67.1816 339.8 66.5661C340.803 65.9444 341.982 65.6335 343.336 65.6335C344.21 65.6335 345.035 65.7751 345.81 66.0582C346.592 66.3352 347.281 66.7661 347.879 67.3509C348.482 67.9356 348.956 68.6804 349.3 69.5852C349.645 70.4839 349.817 71.5549 349.817 72.7983V73.8232H338.193V71.5703H346.614C346.607 70.9302 346.469 70.3608 346.198 69.8622C345.927 69.3575 345.549 68.9605 345.062 68.6712C344.582 68.3819 344.022 68.2372 343.382 68.2372C342.699 68.2372 342.099 68.4034 341.582 68.7358C341.065 69.062 340.661 69.4929 340.372 70.0284C340.089 70.5578 339.944 71.1394 339.938 71.7734V73.7401C339.938 74.5649 340.089 75.2727 340.391 75.8636C340.692 76.4484 341.114 76.8977 341.656 77.2116C342.197 77.5194 342.831 77.6733 343.558 77.6733C344.044 77.6733 344.484 77.6056 344.878 77.4702C345.272 77.3286 345.613 77.1224 345.903 76.8516C346.192 76.5807 346.411 76.2453 346.558 75.8452L349.679 76.196C349.482 77.0208 349.107 77.741 348.553 78.3565C348.005 78.9659 347.303 79.4399 346.447 79.7784C345.592 80.1108 344.613 80.277 343.511 80.277ZM352.645 80V65.8182H355.886V68.1818H356.034C356.292 67.3632 356.735 66.7322 357.363 66.2891C357.997 65.8397 358.72 65.6151 359.533 65.6151C359.718 65.6151 359.924 65.6243 360.151 65.6428C360.385 65.6551 360.579 65.6766 360.733 65.7074V68.782C360.592 68.7327 360.367 68.6896 360.059 68.6527C359.758 68.6096 359.465 68.5881 359.182 68.5881C358.573 68.5881 358.025 68.7204 357.539 68.9851C357.058 69.2436 356.68 69.6037 356.403 70.0653C356.126 70.527 355.987 71.0594 355.987 71.6626V80H352.645ZM363.388 80.2031C362.827 80.2031 362.347 80.0062 361.947 79.6122C361.547 79.2183 361.35 78.7382 361.356 78.1719C361.35 77.6179 361.547 77.1439 361.947 76.75C362.347 76.3561 362.827 76.1591 363.388 76.1591C363.929 76.1591 364.4 76.3561 364.8 76.75C365.206 77.1439 365.413 77.6179 365.419 78.1719C365.413 78.5473 365.314 78.889 365.123 79.1967C364.939 79.5045 364.693 79.7507 364.385 79.9354C364.083 80.1139 363.751 80.2031 363.388 80.2031ZM385.944 69.5668L382.897 69.8991C382.811 69.5914 382.66 69.3021 382.444 69.0312C382.235 68.7604 381.952 68.5419 381.595 68.3757C381.238 68.2095 380.801 68.1264 380.284 68.1264C379.588 68.1264 379.004 68.2772 378.53 68.5788C378.062 68.8804 377.831 69.2713 377.837 69.7514C377.831 70.1638 377.982 70.4993 378.29 70.7578C378.604 71.0163 379.121 71.2287 379.841 71.3949L382.26 71.9119C383.602 72.2012 384.599 72.6598 385.251 73.2876C385.91 73.9155 386.242 74.7372 386.248 75.7528C386.242 76.6454 385.981 77.4332 385.464 78.1165C384.953 78.7936 384.242 79.3229 383.331 79.7045C382.42 80.0862 381.373 80.277 380.192 80.277C378.456 80.277 377.059 79.9138 376 79.1875C374.941 78.455 374.31 77.4363 374.107 76.1314L377.366 75.8175C377.514 76.4576 377.828 76.9408 378.308 77.267C378.788 77.5933 379.413 77.7564 380.182 77.7564C380.976 77.7564 381.613 77.5933 382.094 77.267C382.58 76.9408 382.823 76.5376 382.823 76.0575C382.823 75.6513 382.666 75.3158 382.352 75.0511C382.044 74.7865 381.564 74.5833 380.912 74.4418L378.493 73.9339C377.132 73.6508 376.126 73.1738 375.474 72.5028C374.821 71.8258 374.498 70.9702 374.504 69.9361C374.498 69.062 374.735 68.3049 375.215 67.6648C375.701 67.0185 376.375 66.5199 377.237 66.169C378.105 65.812 379.105 65.6335 380.238 65.6335C381.9 65.6335 383.208 65.9875 384.162 66.6953C385.122 67.4032 385.716 68.3603 385.944 69.5668ZM393.085 80.2862C392.187 80.2862 391.377 80.1262 390.657 79.8061C389.943 79.4799 389.377 78.9998 388.958 78.3658C388.546 77.7318 388.34 76.95 388.34 76.0206C388.34 75.2204 388.487 74.5587 388.783 74.0355C389.078 73.5123 389.481 73.0938 389.992 72.7798C390.503 72.4659 391.079 72.2289 391.719 72.0689C392.365 71.9027 393.033 71.7827 393.722 71.7088C394.553 71.6226 395.227 71.5457 395.744 71.478C396.262 71.4041 396.637 71.2933 396.871 71.1456C397.111 70.9917 397.231 70.7547 397.231 70.4347V70.3793C397.231 69.6837 397.025 69.1451 396.612 68.7635C396.2 68.3819 395.606 68.1911 394.83 68.1911C394.012 68.1911 393.362 68.3696 392.882 68.7266C392.408 69.0836 392.088 69.5052 391.922 69.9915L388.801 69.5483C389.048 68.6866 389.454 67.9664 390.02 67.3878C390.586 66.803 391.279 66.366 392.097 66.0767C392.916 65.7812 393.821 65.6335 394.812 65.6335C395.495 65.6335 396.175 65.7135 396.852 65.8736C397.53 66.0336 398.148 66.2983 398.708 66.6676C399.268 67.0308 399.718 67.5263 400.056 68.1541C400.401 68.782 400.573 69.5668 400.573 70.5085V80H397.36V78.0518H397.249C397.046 78.4458 396.76 78.8151 396.391 79.1598C396.028 79.4983 395.569 79.7723 395.015 79.9815C394.467 80.1847 393.824 80.2862 393.085 80.2862ZM393.953 77.8303C394.624 77.8303 395.206 77.6979 395.698 77.4332C396.191 77.1624 396.569 76.8054 396.834 76.3622C397.105 75.919 397.24 75.4358 397.24 74.9126V73.2415C397.136 73.3277 396.957 73.4077 396.705 73.4815C396.459 73.5554 396.182 73.62 395.874 73.6754C395.566 73.7308 395.261 73.7801 394.96 73.8232C394.658 73.8662 394.396 73.9032 394.175 73.9339C393.676 74.0017 393.23 74.1125 392.836 74.2663C392.442 74.4202 392.131 74.6357 391.904 74.9126C391.676 75.1835 391.562 75.5343 391.562 75.9652C391.562 76.5807 391.787 77.0455 392.236 77.3594C392.685 77.6733 393.258 77.8303 393.953 77.8303ZM407.276 61.0909V80H403.934V61.0909H407.276ZM410.713 80V65.8182H414.056V80H410.713ZM412.394 63.8054C411.864 63.8054 411.409 63.63 411.027 63.2791C410.646 62.9221 410.455 62.4943 410.455 61.9957C410.455 61.491 410.646 61.0632 411.027 60.7124C411.409 60.3553 411.864 60.1768 412.394 60.1768C412.929 60.1768 413.385 60.3553 413.76 60.7124C414.142 61.0632 414.333 61.491 414.333 61.9957C414.333 62.4943 414.142 62.9221 413.76 63.2791C413.385 63.63 412.929 63.8054 412.394 63.8054ZM422.756 80.2493C421.641 80.2493 420.644 79.9631 419.764 79.3906C418.884 78.8182 418.188 77.9872 417.677 76.8977C417.166 75.8082 416.911 74.4848 416.911 72.9276C416.911 71.3518 417.17 70.0223 417.687 68.9389C418.21 67.8494 418.915 67.0277 419.801 66.4737C420.687 65.9136 421.675 65.6335 422.765 65.6335C423.596 65.6335 424.279 65.7751 424.814 66.0582C425.35 66.3352 425.775 66.6707 426.089 67.0646C426.403 67.4524 426.646 67.8187 426.818 68.1634H426.956V61.0909H430.308V80H427.021V77.7656H426.818C426.646 78.1103 426.396 78.4766 426.07 78.8643C425.744 79.246 425.313 79.5722 424.778 79.843C424.242 80.1139 423.568 80.2493 422.756 80.2493ZM423.688 77.5071C424.396 77.5071 424.999 77.3163 425.498 76.9347C425.996 76.5469 426.375 76.0083 426.633 75.3189C426.892 74.6295 427.021 73.8262 427.021 72.9091C427.021 71.992 426.892 71.1948 426.633 70.5178C426.381 69.8407 426.006 69.3144 425.507 68.9389C425.015 68.5634 424.408 68.3757 423.688 68.3757C422.943 68.3757 422.322 68.5696 421.823 68.9574C421.324 69.3452 420.949 69.8807 420.697 70.5639C420.444 71.2472 420.318 72.0289 420.318 72.9091C420.318 73.7955 420.444 74.5864 420.697 75.282C420.955 75.9714 421.334 76.5161 421.832 76.9162C422.337 77.3101 422.956 77.5071 423.688 77.5071ZM437.951 80.2862C437.052 80.2862 436.243 80.1262 435.522 79.8061C434.808 79.4799 434.242 78.9998 433.824 78.3658C433.411 77.7318 433.205 76.95 433.205 76.0206C433.205 75.2204 433.353 74.5587 433.648 74.0355C433.944 73.5123 434.347 73.0938 434.858 72.7798C435.368 72.4659 435.944 72.2289 436.584 72.0689C437.23 71.9027 437.898 71.7827 438.588 71.7088C439.419 71.6226 440.093 71.5457 440.61 71.478C441.127 71.4041 441.502 71.2933 441.736 71.1456C441.976 70.9917 442.096 70.7547 442.096 70.4347V70.3793C442.096 69.6837 441.89 69.1451 441.478 68.7635C441.065 68.3819 440.471 68.1911 439.696 68.1911C438.877 68.1911 438.228 68.3696 437.748 68.7266C437.274 69.0836 436.953 69.5052 436.787 69.9915L433.667 69.5483C433.913 68.6866 434.319 67.9664 434.885 67.3878C435.452 66.803 436.144 66.366 436.963 66.0767C437.781 65.7812 438.686 65.6335 439.677 65.6335C440.36 65.6335 441.041 65.7135 441.718 65.8736C442.395 66.0336 443.013 66.2983 443.574 66.6676C444.134 67.0308 444.583 67.5263 444.922 68.1541C445.266 68.782 445.439 69.5668 445.439 70.5085V80H442.225V78.0518H442.115C441.912 78.4458 441.625 78.8151 441.256 79.1598C440.893 79.4983 440.434 79.7723 439.88 79.9815C439.333 80.1847 438.689 80.2862 437.951 80.2862ZM438.819 77.8303C439.489 77.8303 440.071 77.6979 440.564 77.4332C441.056 77.1624 441.435 76.8054 441.699 76.3622C441.97 75.919 442.105 75.4358 442.105 74.9126V73.2415C442.001 73.3277 441.822 73.4077 441.57 73.4815C441.324 73.5554 441.047 73.62 440.739 73.6754C440.431 73.7308 440.127 73.7801 439.825 73.8232C439.523 73.8662 439.262 73.9032 439.04 73.9339C438.542 74.0017 438.095 74.1125 437.701 74.2663C437.307 74.4202 436.997 74.6357 436.769 74.9126C436.541 75.1835 436.427 75.5343 436.427 75.9652C436.427 76.5807 436.652 77.0455 437.101 77.3594C437.551 77.6733 438.123 77.8303 438.819 77.8303ZM466.457 69.5668L463.411 69.8991C463.324 69.5914 463.174 69.3021 462.958 69.0312C462.749 68.7604 462.466 68.5419 462.109 68.3757C461.752 68.2095 461.315 68.1264 460.798 68.1264C460.102 68.1264 459.517 68.2772 459.043 68.5788C458.576 68.8804 458.345 69.2713 458.351 69.7514C458.345 70.1638 458.496 70.4993 458.803 70.7578C459.117 71.0163 459.634 71.2287 460.354 71.3949L462.773 71.9119C464.115 72.2012 465.112 72.6598 465.765 73.2876C466.424 73.9155 466.756 74.7372 466.762 75.7528C466.756 76.6454 466.494 77.4332 465.977 78.1165C465.466 78.7936 464.755 79.3229 463.844 79.7045C462.933 80.0862 461.887 80.277 460.705 80.277C458.969 80.277 457.572 79.9138 456.513 79.1875C455.455 78.455 454.824 77.4363 454.621 76.1314L457.88 75.8175C458.028 76.4576 458.342 76.9408 458.822 77.267C459.302 77.5933 459.927 77.7564 460.696 77.7564C461.49 77.7564 462.127 77.5933 462.607 77.267C463.094 76.9408 463.337 76.5376 463.337 76.0575C463.337 75.6513 463.18 75.3158 462.866 75.0511C462.558 74.7865 462.078 74.5833 461.425 74.4418L459.006 73.9339C457.646 73.6508 456.64 73.1738 455.987 72.5028C455.335 71.8258 455.012 70.9702 455.018 69.9361C455.012 69.062 455.249 68.3049 455.729 67.6648C456.215 67.0185 456.889 66.5199 457.751 66.169C458.619 65.812 459.619 65.6335 460.751 65.6335C462.413 65.6335 463.721 65.9875 464.675 66.6953C465.636 67.4032 466.23 68.3603 466.457 69.5668ZM478.557 74.0355V65.8182H481.9V80H478.659V77.4794H478.511C478.191 78.2734 477.665 78.9228 476.932 79.4276C476.206 79.9323 475.31 80.1847 474.245 80.1847C473.316 80.1847 472.494 79.9785 471.78 79.5661C471.072 79.1475 470.518 78.5412 470.118 77.7472C469.718 76.947 469.518 75.9806 469.518 74.848V65.8182H472.86V74.331C472.86 75.2296 473.107 75.9437 473.599 76.473C474.092 77.0024 474.738 77.267 475.538 77.267C476.03 77.267 476.507 77.147 476.969 76.907C477.431 76.6669 477.809 76.3099 478.105 75.8359C478.406 75.3558 478.557 74.7557 478.557 74.0355ZM485.336 80V65.8182H488.577V68.1818H488.725C488.983 67.3632 489.427 66.7322 490.055 66.2891C490.689 65.8397 491.412 65.6151 492.224 65.6151C492.409 65.6151 492.615 65.6243 492.843 65.6428C493.077 65.6551 493.271 65.6766 493.425 65.7074V68.782C493.283 68.7327 493.058 68.6896 492.751 68.6527C492.449 68.6096 492.157 68.5881 491.873 68.5881C491.264 68.5881 490.716 68.7204 490.23 68.9851C489.75 69.2436 489.371 69.6037 489.094 70.0653C488.817 70.527 488.679 71.0594 488.679 71.6626V80H485.336ZM497.944 77.4148L497.824 78.4304C497.738 79.206 497.584 79.9938 497.362 80.794C497.147 81.6004 496.919 82.3421 496.679 83.0192C496.439 83.6963 496.245 84.2287 496.097 84.6165H493.845C493.931 84.241 494.048 83.7301 494.195 83.0838C494.349 82.4375 494.497 81.7112 494.639 80.9048C494.78 80.0985 494.876 79.2798 494.925 78.4489L494.99 77.4148H497.944ZM255.798 111.286C254.9 111.286 254.09 111.126 253.37 110.806C252.656 110.48 252.09 110 251.671 109.366C251.259 108.732 251.053 107.95 251.053 107.021C251.053 106.22 251.2 105.559 251.496 105.036C251.791 104.512 252.194 104.094 252.705 103.78C253.216 103.466 253.792 103.229 254.432 103.069C255.078 102.903 255.746 102.783 256.435 102.709C257.266 102.623 257.94 102.546 258.457 102.478C258.974 102.404 259.35 102.293 259.584 102.146C259.824 101.992 259.944 101.755 259.944 101.435V101.379C259.944 100.684 259.738 100.145 259.325 99.7635C258.913 99.3819 258.319 99.1911 257.543 99.1911C256.725 99.1911 256.075 99.3696 255.595 99.7266C255.121 100.084 254.801 100.505 254.635 100.991L251.514 100.548C251.76 99.6866 252.167 98.9664 252.733 98.3878C253.299 97.803 253.992 97.366 254.81 97.0767C255.629 96.7812 256.534 96.6335 257.525 96.6335C258.208 96.6335 258.888 96.7135 259.565 96.8736C260.242 97.0336 260.861 97.2983 261.421 97.6676C261.981 98.0308 262.431 98.5263 262.769 99.1541C263.114 99.782 263.286 100.567 263.286 101.509V111H260.073V109.052H259.962C259.759 109.446 259.473 109.815 259.104 110.16C258.741 110.498 258.282 110.772 257.728 110.982C257.18 111.185 256.537 111.286 255.798 111.286ZM256.666 108.83C257.337 108.83 257.919 108.698 258.411 108.433C258.904 108.162 259.282 107.805 259.547 107.362C259.818 106.919 259.953 106.436 259.953 105.913V104.241C259.848 104.328 259.67 104.408 259.418 104.482C259.171 104.555 258.894 104.62 258.587 104.675C258.279 104.731 257.974 104.78 257.673 104.823C257.371 104.866 257.109 104.903 256.888 104.934C256.389 105.002 255.943 105.112 255.549 105.266C255.155 105.42 254.844 105.636 254.616 105.913C254.389 106.183 254.275 106.534 254.275 106.965C254.275 107.581 254.5 108.045 254.949 108.359C255.398 108.673 255.971 108.83 256.666 108.83ZM280.75 92.0909V111H277.325V95.424H277.214L272.792 98.2493V95.1101L277.491 92.0909H280.75ZM292.185 111V92.0909H295.611V100.779H295.842L303.219 92.0909H307.401L300.089 100.576L307.466 111H303.348L297.707 102.893L295.611 105.368V111H292.185ZM309.781 92.0909H313.973L319.586 105.793H319.808L325.422 92.0909H329.613V111H326.327V98.0092H326.151L320.925 110.945H318.469L313.243 97.9815H313.068V111H309.781V92.0909ZM344.908 111.249C343.794 111.249 342.797 110.963 341.916 110.391C341.036 109.818 340.341 108.987 339.83 107.898C339.319 106.808 339.063 105.485 339.063 103.928C339.063 102.352 339.322 101.022 339.839 99.9389C340.362 98.8494 341.067 98.0277 341.953 97.4737C342.84 96.9136 343.828 96.6335 344.917 96.6335C345.748 96.6335 346.431 96.7751 346.967 97.0582C347.502 97.3352 347.927 97.6707 348.241 98.0646C348.555 98.4524 348.798 98.8187 348.97 99.1634H349.109V92.0909H352.46V111H349.173V108.766H348.97C348.798 109.11 348.549 109.477 348.222 109.864C347.896 110.246 347.465 110.572 346.93 110.843C346.394 111.114 345.72 111.249 344.908 111.249ZM345.84 108.507C346.548 108.507 347.151 108.316 347.65 107.935C348.149 107.547 348.527 107.008 348.786 106.319C349.044 105.629 349.173 104.826 349.173 103.909C349.173 102.992 349.044 102.195 348.786 101.518C348.533 100.841 348.158 100.314 347.659 99.9389C347.167 99.5634 346.561 99.3757 345.84 99.3757C345.096 99.3757 344.474 99.5696 343.975 99.9574C343.477 100.345 343.101 100.881 342.849 101.564C342.597 102.247 342.47 103.029 342.47 103.909C342.47 104.795 342.597 105.586 342.849 106.282C343.107 106.971 343.486 107.516 343.985 107.916C344.489 108.31 345.108 108.507 345.84 108.507ZM362.3 111.277C360.879 111.277 359.651 110.982 358.616 110.391C357.589 109.794 356.798 108.95 356.244 107.861C355.69 106.765 355.413 105.476 355.413 103.992C355.413 102.533 355.69 101.253 356.244 100.151C356.804 99.0433 357.585 98.1816 358.589 97.5661C359.592 96.9444 360.771 96.6335 362.125 96.6335C362.999 96.6335 363.824 96.7751 364.599 97.0582C365.381 97.3352 366.071 97.7661 366.668 98.3509C367.271 98.9356 367.745 99.6804 368.089 100.585C368.434 101.484 368.607 102.555 368.607 103.798V104.823H356.982V102.57H365.403C365.397 101.93 365.258 101.361 364.987 100.862C364.716 100.357 364.338 99.9605 363.852 99.6712C363.371 99.3819 362.811 99.2372 362.171 99.2372C361.488 99.2372 360.888 99.4034 360.371 99.7358C359.854 100.062 359.451 100.493 359.161 101.028C358.878 101.558 358.733 102.139 358.727 102.773V104.74C358.727 105.565 358.878 106.273 359.18 106.864C359.481 107.448 359.903 107.898 360.445 108.212C360.986 108.519 361.62 108.673 362.347 108.673C362.833 108.673 363.273 108.606 363.667 108.47C364.061 108.329 364.402 108.122 364.692 107.852C364.981 107.581 365.2 107.245 365.347 106.845L368.468 107.196C368.271 108.021 367.896 108.741 367.342 109.357C366.794 109.966 366.092 110.44 365.237 110.778C364.381 111.111 363.402 111.277 362.3 111.277ZM374.776 92.0909V111H371.434V92.0909H374.776ZM389.925 111.249C388.811 111.249 387.814 110.963 386.934 110.391C386.054 109.818 385.358 108.987 384.847 107.898C384.336 106.808 384.081 105.485 384.081 103.928C384.081 102.352 384.339 101.022 384.857 99.9389C385.38 98.8494 386.085 98.0277 386.971 97.4737C387.857 96.9136 388.845 96.6335 389.935 96.6335C390.766 96.6335 391.449 96.7751 391.984 97.0582C392.52 97.3352 392.945 97.6707 393.259 98.0646C393.572 98.4524 393.816 98.8187 393.988 99.1634H394.126V92.0909H397.478V111H394.191V108.766H393.988C393.816 109.11 393.566 109.477 393.24 109.864C392.914 110.246 392.483 110.572 391.947 110.843C391.412 111.114 390.738 111.249 389.925 111.249ZM390.858 108.507C391.566 108.507 392.169 108.316 392.668 107.935C393.166 107.547 393.545 107.008 393.803 106.319C394.062 105.629 394.191 104.826 394.191 103.909C394.191 102.992 394.062 102.195 393.803 101.518C393.551 100.841 393.175 100.314 392.677 99.9389C392.184 99.5634 391.578 99.3757 390.858 99.3757C390.113 99.3757 389.491 99.5696 388.993 99.9574C388.494 100.345 388.119 100.881 387.866 101.564C387.614 102.247 387.488 103.029 387.488 103.909C387.488 104.795 387.614 105.586 387.866 106.282C388.125 106.971 388.504 107.516 389.002 107.916C389.507 108.31 390.125 108.507 390.858 108.507ZM407.318 111.277C405.896 111.277 404.668 110.982 403.634 110.391C402.606 109.794 401.815 108.95 401.261 107.861C400.707 106.765 400.43 105.476 400.43 103.992C400.43 102.533 400.707 101.253 401.261 100.151C401.821 99.0433 402.603 98.1816 403.606 97.5661C404.61 96.9444 405.788 96.6335 407.143 96.6335C408.017 96.6335 408.841 96.7751 409.617 97.0582C410.399 97.3352 411.088 97.7661 411.685 98.3509C412.288 98.9356 412.762 99.6804 413.107 100.585C413.452 101.484 413.624 102.555 413.624 103.798V104.823H402V102.57H410.42C410.414 101.93 410.276 101.361 410.005 100.862C409.734 100.357 409.355 99.9605 408.869 99.6712C408.389 99.3819 407.829 99.2372 407.189 99.2372C406.506 99.2372 405.905 99.4034 405.388 99.7358C404.871 100.062 404.468 100.493 404.179 101.028C403.896 101.558 403.751 102.139 403.745 102.773V104.74C403.745 105.565 403.896 106.273 404.197 106.864C404.499 107.448 404.921 107.898 405.462 108.212C406.004 108.519 406.638 108.673 407.364 108.673C407.85 108.673 408.291 108.606 408.684 108.47C409.078 108.329 409.42 108.122 409.709 107.852C409.999 107.581 410.217 107.245 410.365 106.845L413.486 107.196C413.289 108.021 412.913 108.741 412.359 109.357C411.811 109.966 411.11 110.44 410.254 110.778C409.398 111.111 408.42 111.277 407.318 111.277ZM427.661 100.567L424.614 100.899C424.527 100.591 424.377 100.302 424.161 100.031C423.952 99.7604 423.669 99.5419 423.312 99.3757C422.955 99.2095 422.518 99.1264 422.001 99.1264C421.305 99.1264 420.72 99.2772 420.246 99.5788C419.779 99.8804 419.548 100.271 419.554 100.751C419.548 101.164 419.699 101.499 420.006 101.758C420.32 102.016 420.837 102.229 421.558 102.395L423.977 102.912C425.318 103.201 426.316 103.66 426.968 104.288C427.627 104.915 427.959 105.737 427.965 106.753C427.959 107.645 427.697 108.433 427.18 109.116C426.67 109.794 425.959 110.323 425.048 110.705C424.137 111.086 423.09 111.277 421.908 111.277C420.173 111.277 418.775 110.914 417.717 110.188C416.658 109.455 416.027 108.436 415.824 107.131L419.083 106.817C419.231 107.458 419.545 107.941 420.025 108.267C420.505 108.593 421.13 108.756 421.899 108.756C422.693 108.756 423.33 108.593 423.81 108.267C424.297 107.941 424.54 107.538 424.54 107.058C424.54 106.651 424.383 106.316 424.069 106.051C423.761 105.786 423.281 105.583 422.629 105.442L420.21 104.934C418.849 104.651 417.843 104.174 417.19 103.503C416.538 102.826 416.215 101.97 416.221 100.936C416.215 100.062 416.452 99.3049 416.932 98.6648C417.418 98.0185 418.092 97.5199 418.954 97.169C419.822 96.812 420.822 96.6335 421.955 96.6335C423.616 96.6335 424.924 96.9875 425.879 97.6953C426.839 98.4032 427.433 99.3603 427.661 100.567ZM443.389 96.8182L438.338 111H434.645L429.595 96.8182H433.159L436.418 107.353H436.566L439.834 96.8182H443.389ZM445.702 111V96.8182H449.044V111H445.702ZM446.099 94.9531L448.167 90.7337H451.435L448.601 94.9531H446.099ZM458.667 111.277C457.282 111.277 456.082 110.972 455.066 110.363C454.051 109.754 453.263 108.901 452.703 107.805C452.149 106.71 451.872 105.429 451.872 103.964C451.872 102.5 452.149 101.216 452.703 100.114C453.263 99.0125 454.051 98.157 455.066 97.5476C456.082 96.9382 457.282 96.6335 458.667 96.6335C460.052 96.6335 461.252 96.9382 462.268 97.5476C463.284 98.157 464.068 99.0125 464.622 100.114C465.182 101.216 465.463 102.5 465.463 103.964C465.463 105.429 465.182 106.71 464.622 107.805C464.068 108.901 463.284 109.754 462.268 110.363C461.252 110.972 460.052 111.277 458.667 111.277ZM458.686 108.599C459.436 108.599 460.064 108.393 460.569 107.981C461.074 107.562 461.449 107.002 461.695 106.3C461.948 105.599 462.074 104.817 462.074 103.955C462.074 103.087 461.948 102.303 461.695 101.601C461.449 100.893 461.074 100.33 460.569 99.9112C460.064 99.4927 459.436 99.2834 458.686 99.2834C457.916 99.2834 457.276 99.4927 456.765 99.9112C456.26 100.33 455.882 100.893 455.629 101.601C455.383 102.303 455.26 103.087 455.26 103.955C455.26 104.817 455.383 105.599 455.629 106.3C455.882 107.002 456.26 107.562 456.765 107.981C457.276 108.393 457.916 108.599 458.686 108.599ZM480.011 111.249C478.897 111.249 477.9 110.963 477.02 110.391C476.14 109.818 475.444 108.987 474.933 107.898C474.422 106.808 474.167 105.485 474.167 103.928C474.167 102.352 474.425 101.022 474.942 99.9389C475.466 98.8494 476.17 98.0277 477.057 97.4737C477.943 96.9136 478.931 96.6335 480.021 96.6335C480.852 96.6335 481.535 96.7751 482.07 97.0582C482.606 97.3352 483.031 97.6707 483.344 98.0646C483.658 98.4524 483.902 98.8187 484.074 99.1634H484.212V92.0909H487.564V111H484.277V108.766H484.074C483.902 109.11 483.652 109.477 483.326 109.864C483 110.246 482.569 110.572 482.033 110.843C481.498 111.114 480.824 111.249 480.011 111.249ZM480.944 108.507C481.652 108.507 482.255 108.316 482.754 107.935C483.252 107.547 483.631 107.008 483.889 106.319C484.148 105.629 484.277 104.826 484.277 103.909C484.277 102.992 484.148 102.195 483.889 101.518C483.637 100.841 483.261 100.314 482.763 99.9389C482.27 99.5634 481.664 99.3757 480.944 99.3757C480.199 99.3757 479.577 99.5696 479.079 99.9574C478.58 100.345 478.205 100.881 477.952 101.564C477.7 102.247 477.574 103.029 477.574 103.909C477.574 104.795 477.7 105.586 477.952 106.282C478.211 106.971 478.589 107.516 479.088 107.916C479.593 108.31 480.211 108.507 480.944 108.507ZM497.404 111.277C495.982 111.277 494.754 110.982 493.72 110.391C492.692 109.794 491.901 108.95 491.347 107.861C490.793 106.765 490.516 105.476 490.516 103.992C490.516 102.533 490.793 101.253 491.347 100.151C491.907 99.0433 492.689 98.1816 493.692 97.5661C494.696 96.9444 495.874 96.6335 497.229 96.6335C498.103 96.6335 498.927 96.7751 499.703 97.0582C500.485 97.3352 501.174 97.7661 501.771 98.3509C502.374 98.9356 502.848 99.6804 503.193 100.585C503.538 101.484 503.71 102.555 503.71 103.798V104.823H492.086V102.57H500.506C500.5 101.93 500.362 101.361 500.091 100.862C499.82 100.357 499.441 99.9605 498.955 99.6712C498.475 99.3819 497.915 99.2372 497.275 99.2372C496.591 99.2372 495.991 99.4034 495.474 99.7358C494.957 100.062 494.554 100.493 494.265 101.028C493.982 101.558 493.837 102.139 493.831 102.773V104.74C493.831 105.565 493.982 106.273 494.283 106.864C494.585 107.448 495.006 107.898 495.548 108.212C496.09 108.519 496.724 108.673 497.45 108.673C497.936 108.673 498.376 108.606 498.77 108.47C499.164 108.329 499.506 108.122 499.795 107.852C500.085 107.581 500.303 107.245 500.451 106.845L503.572 107.196C503.375 108.021 502.999 108.741 502.445 109.357C501.897 109.966 501.196 110.44 500.34 110.778C499.484 111.111 498.506 111.277 497.404 111.277ZM523.411 97.2891C523.325 96.4827 522.962 95.8549 522.321 95.4055C521.687 94.9562 520.863 94.7315 519.847 94.7315C519.133 94.7315 518.52 94.8393 518.01 95.0547C517.499 95.2701 517.108 95.5625 516.837 95.9318C516.566 96.3011 516.428 96.7228 516.422 97.1967C516.422 97.5907 516.511 97.9323 516.689 98.2216C516.874 98.5109 517.123 98.7571 517.437 98.9602C517.751 99.1572 518.099 99.3234 518.48 99.4588C518.862 99.5942 519.247 99.7081 519.635 99.8004L521.407 100.244C522.121 100.41 522.808 100.634 523.466 100.918C524.131 101.201 524.725 101.558 525.248 101.989C525.778 102.42 526.196 102.94 526.504 103.549C526.812 104.158 526.966 104.872 526.966 105.691C526.966 106.799 526.682 107.775 526.116 108.618C525.55 109.455 524.731 110.111 523.66 110.585C522.595 111.052 521.306 111.286 519.792 111.286C518.32 111.286 517.043 111.058 515.96 110.603C514.883 110.147 514.039 109.483 513.43 108.609C512.827 107.735 512.501 106.67 512.451 105.414H515.821C515.871 106.073 516.074 106.621 516.431 107.058C516.788 107.495 517.252 107.821 517.825 108.036C518.404 108.252 519.05 108.359 519.764 108.359C520.509 108.359 521.161 108.249 521.721 108.027C522.288 107.799 522.731 107.485 523.051 107.085C523.371 106.679 523.534 106.205 523.54 105.663C523.534 105.171 523.389 104.765 523.106 104.445C522.823 104.118 522.426 103.848 521.915 103.632C521.41 103.411 520.819 103.214 520.142 103.041L517.991 102.487C516.434 102.087 515.203 101.481 514.298 100.668C513.399 99.8497 512.95 98.7633 512.95 97.4091C512.95 96.295 513.252 95.3194 513.855 94.4822C514.464 93.6451 515.292 92.9957 516.338 92.5341C517.385 92.0663 518.57 91.8324 519.893 91.8324C521.235 91.8324 522.411 92.0663 523.42 92.5341C524.436 92.9957 525.233 93.639 525.811 94.4638C526.39 95.2824 526.689 96.2242 526.707 97.2891H523.411ZM533.953 111.286C533.054 111.286 532.244 111.126 531.524 110.806C530.81 110.48 530.244 110 529.825 109.366C529.413 108.732 529.207 107.95 529.207 107.021C529.207 106.22 529.355 105.559 529.65 105.036C529.945 104.512 530.349 104.094 530.86 103.78C531.37 103.466 531.946 103.229 532.586 103.069C533.232 102.903 533.9 102.783 534.59 102.709C535.421 102.623 536.095 102.546 536.612 102.478C537.129 102.404 537.504 102.293 537.738 102.146C537.978 101.992 538.098 101.755 538.098 101.435V101.379C538.098 100.684 537.892 100.145 537.48 99.7635C537.067 99.3819 536.473 99.1911 535.698 99.1911C534.879 99.1911 534.23 99.3696 533.749 99.7266C533.276 100.084 532.955 100.505 532.789 100.991L529.669 100.548C529.915 99.6866 530.321 98.9664 530.887 98.3878C531.454 97.803 532.146 97.366 532.965 97.0767C533.783 96.7812 534.688 96.6335 535.679 96.6335C536.362 96.6335 537.043 96.7135 537.72 96.8736C538.397 97.0336 539.015 97.2983 539.575 97.6676C540.136 98.0308 540.585 98.5263 540.923 99.1541C541.268 99.782 541.441 100.567 541.441 101.509V111H538.227V109.052H538.117C537.914 109.446 537.627 109.815 537.258 110.16C536.895 110.498 536.436 110.772 535.882 110.982C535.334 111.185 534.691 111.286 533.953 111.286ZM534.82 108.83C535.491 108.83 536.073 108.698 536.566 108.433C537.058 108.162 537.436 107.805 537.701 107.362C537.972 106.919 538.107 106.436 538.107 105.913V104.241C538.003 104.328 537.824 104.408 537.572 104.482C537.326 104.555 537.049 104.62 536.741 104.675C536.433 104.731 536.128 104.78 535.827 104.823C535.525 104.866 535.264 104.903 535.042 104.934C534.544 105.002 534.097 105.112 533.703 105.266C533.309 105.42 532.999 105.636 532.771 105.913C532.543 106.183 532.429 106.534 532.429 106.965C532.429 107.581 532.654 108.045 533.103 108.359C533.552 108.673 534.125 108.83 534.82 108.83ZM548.144 92.0909V111H544.801V92.0909H548.144ZM555.662 111.286C554.763 111.286 553.953 111.126 553.233 110.806C552.519 110.48 551.953 110 551.534 109.366C551.122 108.732 550.916 107.95 550.916 107.021C550.916 106.22 551.064 105.559 551.359 105.036C551.654 104.512 552.058 104.094 552.569 103.78C553.079 103.466 553.655 103.229 554.295 103.069C554.941 102.903 555.609 102.783 556.299 102.709C557.13 102.623 557.804 102.546 558.321 102.478C558.838 102.404 559.213 102.293 559.447 102.146C559.687 101.992 559.807 101.755 559.807 101.435V101.379C559.807 100.684 559.601 100.145 559.189 99.7635C558.776 99.3819 558.182 99.1911 557.407 99.1911C556.588 99.1911 555.939 99.3696 555.458 99.7266C554.984 100.084 554.664 100.505 554.498 100.991L551.377 100.548C551.624 99.6866 552.03 98.9664 552.596 98.3878C553.163 97.803 553.855 97.366 554.674 97.0767C555.492 96.7812 556.397 96.6335 557.388 96.6335C558.071 96.6335 558.752 96.7135 559.429 96.8736C560.106 97.0336 560.724 97.2983 561.284 97.6676C561.845 98.0308 562.294 98.5263 562.632 99.1541C562.977 99.782 563.15 100.567 563.15 101.509V111H559.936V109.052H559.826C559.623 109.446 559.336 109.815 558.967 110.16C558.604 110.498 558.145 110.772 557.591 110.982C557.043 111.185 556.4 111.286 555.662 111.286ZM556.529 108.83C557.2 108.83 557.782 108.698 558.275 108.433C558.767 108.162 559.145 107.805 559.41 107.362C559.681 106.919 559.816 106.436 559.816 105.913V104.241C559.712 104.328 559.533 104.408 559.281 104.482C559.035 104.555 558.758 104.62 558.45 104.675C558.142 104.731 557.837 104.78 557.536 104.823C557.234 104.866 556.973 104.903 556.751 104.934C556.252 105.002 555.806 105.112 555.412 105.266C555.018 105.42 554.708 105.636 554.48 105.913C554.252 106.183 554.138 106.534 554.138 106.965C554.138 107.581 554.363 108.045 554.812 108.359C555.261 108.673 555.834 108.83 556.529 108.83ZM578.67 96.8182L573.62 111H569.926L564.876 96.8182H568.44L571.699 107.353H571.847L575.115 96.8182H578.67ZM586.779 111.277C585.357 111.277 584.129 110.982 583.095 110.391C582.067 109.794 581.276 108.95 580.722 107.861C580.168 106.765 579.891 105.476 579.891 103.992C579.891 102.533 580.168 101.253 580.722 100.151C581.282 99.0433 582.064 98.1816 583.067 97.5661C584.071 96.9444 585.249 96.6335 586.604 96.6335C587.478 96.6335 588.302 96.7751 589.078 97.0582C589.86 97.3352 590.549 97.7661 591.146 98.3509C591.749 98.9356 592.223 99.6804 592.568 100.585C592.913 101.484 593.085 102.555 593.085 103.798V104.823H581.461V102.57H589.881C589.875 101.93 589.737 101.361 589.466 100.862C589.195 100.357 588.816 99.9605 588.33 99.6712C587.85 99.3819 587.29 99.2372 586.65 99.2372C585.966 99.2372 585.366 99.4034 584.849 99.7358C584.332 100.062 583.929 100.493 583.64 101.028C583.357 101.558 583.212 102.139 583.206 102.773V104.74C583.206 105.565 583.357 106.273 583.658 106.864C583.96 107.448 584.381 107.898 584.923 108.212C585.465 108.519 586.099 108.673 586.825 108.673C587.311 108.673 587.751 108.606 588.145 108.47C588.539 108.329 588.881 108.122 589.17 107.852C589.46 107.581 589.678 107.245 589.826 106.845L592.947 107.196C592.75 108.021 592.374 108.741 591.82 109.357C591.272 109.966 590.571 110.44 589.715 110.778C588.859 111.111 587.881 111.277 586.779 111.277ZM595.913 111V96.8182H599.153V99.1818H599.301C599.56 98.3632 600.003 97.7322 600.631 97.2891C601.265 96.8397 601.988 96.6151 602.8 96.6151C602.985 96.6151 603.191 96.6243 603.419 96.6428C603.653 96.6551 603.847 96.6766 604.001 96.7074V99.782C603.859 99.7327 603.634 99.6896 603.327 99.6527C603.025 99.6096 602.733 99.5881 602.45 99.5881C601.84 99.5881 601.292 99.7204 600.806 99.9851C600.326 100.244 599.947 100.604 599.67 101.065C599.393 101.527 599.255 102.059 599.255 102.663V111H595.913ZM606.221 111V96.8182H609.462V99.1818H609.61C609.868 98.3632 610.311 97.7322 610.939 97.2891C611.573 96.8397 612.297 96.6151 613.109 96.6151C613.294 96.6151 613.5 96.6243 613.728 96.6428C613.962 96.6551 614.155 96.6766 614.309 96.7074V99.782C614.168 99.7327 613.943 99.6896 613.635 99.6527C613.334 99.6096 613.041 99.5881 612.758 99.5881C612.149 99.5881 611.601 99.7204 611.115 99.9851C610.635 100.244 610.256 100.604 609.979 101.065C609.702 101.527 609.564 102.059 609.564 102.663V111H606.221ZM619.039 116.318C618.583 116.318 618.162 116.281 617.774 116.207C617.392 116.14 617.088 116.06 616.86 115.967L617.635 113.364C618.122 113.505 618.556 113.573 618.937 113.567C619.319 113.561 619.654 113.441 619.944 113.207C620.239 112.979 620.488 112.597 620.692 112.062L620.978 111.295L615.835 96.8182H619.381L622.649 107.528H622.797L626.074 96.8182H629.629L623.951 112.717C623.686 113.468 623.335 114.112 622.898 114.647C622.461 115.189 621.926 115.601 621.292 115.884C620.664 116.174 619.913 116.318 619.039 116.318Z" fill="white"/>
</svg>
