<svg width="413" height="108" viewBox="0 0 413 108" fill="none" xmlns="http://www.w3.org/2000/svg">
<rect x="156" y="6" width="257" height="92" rx="18" fill="#006DB7"/>
<path d="M100 108L211.5 72.026L179.5 48L100 108Z" fill="#006DB7"/>
<rect x="181.048" y="31.0476" width="41.9048" height="41.9048" rx="20.9524" fill="#FF9D26"/>
<rect x="181.048" y="31.0476" width="41.9048" height="41.9048" rx="20.9524" stroke="white" stroke-width="2.09524"/>
<path d="M212.538 62.8741C212.538 62.8508 212.515 60.5543 210.571 59.4342C209.453 58.7888 208.318 58.8931 207.677 59.0382C207.583 58.8751 207.476 58.7194 207.354 58.5721C207.099 58.2706 206.806 58.0272 206.478 57.8457C206.361 57.7834 206.237 57.7287 206.09 57.6679C205.189 57.3447 204.397 57.5337 203.953 57.7039L202.39 50.5831C202.63 50.3588 202.814 50.0873 202.932 49.7888C203.034 49.8863 203.146 49.9748 203.268 50.0528C203.626 50.2819 204.033 50.4004 204.448 50.4004C204.607 50.4004 204.766 50.3832 204.925 50.3483C205.499 50.2223 205.989 49.8803 206.306 49.3853C206.385 49.2619 206.451 49.1326 206.503 48.9991C206.907 49.3846 207.445 49.6178 208.021 49.6178C208.177 49.6178 208.335 49.6009 208.494 49.5661C209.068 49.4401 209.558 49.0977 209.875 48.6027C210.192 48.1077 210.297 47.5186 210.171 46.9444L210.035 46.3279C210.034 46.3216 210.029 46.3167 210.028 46.3107C210.021 46.2859 210.009 46.2642 209.997 46.2413C209.987 46.2207 209.978 46.2001 209.964 46.1821C209.949 46.1633 209.931 46.1487 209.913 46.1326C209.898 46.1198 209.888 46.1033 209.871 46.0928C209.866 46.0891 209.859 46.0887 209.853 46.0853C209.847 46.0819 209.844 46.0767 209.838 46.0737L199.329 40.7888C199.323 40.7862 199.317 40.7862 199.311 40.7836C199.297 40.7772 199.282 40.7727 199.267 40.7682C199.258 40.7656 199.252 40.7599 199.243 40.7581C199.236 40.7566 199.23 40.7581 199.224 40.7573C199.212 40.7551 199.2 40.7532 199.188 40.7524C199.172 40.7513 199.156 40.7524 199.141 40.7532C199.126 40.7539 199.112 40.7543 199.097 40.7566C199.086 40.7584 199.075 40.7607 199.064 40.7637C199.048 40.7678 199.035 40.7742 199.02 40.7802C199.006 40.7858 198.993 40.7907 198.979 40.7978C198.969 40.8038 198.958 40.8106 198.948 40.8177C198.943 40.8214 198.936 40.8226 198.931 40.8263C198.924 40.8319 198.919 40.8406 198.912 40.8466C198.901 40.8567 198.89 40.8661 198.88 40.8777C198.876 40.8826 198.87 40.8848 198.866 40.8901L191.542 50.0933C191.538 50.0986 191.538 50.1049 191.534 50.1102C191.518 50.1319 191.509 50.1556 191.498 50.1803C191.489 50.2013 191.478 50.2212 191.473 50.2429C191.468 50.2651 191.469 50.2872 191.468 50.3104C191.467 50.3371 191.465 50.3626 191.47 50.3888C191.471 50.3952 191.469 50.4016 191.47 50.4079L191.605 51.0244C191.831 52.0508 192.744 52.7528 193.754 52.7528C193.91 52.7528 194.068 52.7359 194.227 52.7011C194.972 52.5372 195.546 52.0114 195.805 51.3488C196.208 51.7343 196.747 51.9676 197.322 51.9676C197.478 51.9676 197.636 51.9507 197.794 51.9158C198.536 51.7527 199.108 51.2307 199.369 50.5722C199.602 50.7957 199.884 50.9652 200.197 51.0672L201.499 56.9967C201.336 57.0117 201.175 57.0398 201.018 57.0818C200.731 57.1553 200.454 57.2753 200.192 57.4377C199.943 57.5922 199.711 57.7857 199.512 58.0032C199.297 57.9766 198.973 57.9541 198.588 58.0103C198.102 58.0699 197.644 58.2278 197.227 58.4802C196.499 58.9268 196.096 59.5411 195.885 59.9881C195.449 59.9464 194.705 59.9697 193.979 60.4216C192.638 61.2706 192.577 62.7987 192.575 62.8632C192.572 62.9648 192.61 63.0631 192.681 63.1358C192.751 63.2086 192.849 63.2498 192.95 63.2498H212.164C212.371 63.2498 212.539 63.0822 212.539 62.8748L212.538 62.8741ZM202.741 47.5456L200.325 42.6409L205.294 46.9846L202.741 47.5456ZM206.206 46.7858L201.633 42.7876L208.556 46.2694L206.206 46.7858ZM195.138 49.2177L192.788 49.7341L197.614 43.6703L195.138 49.2177ZM198.738 42.9893L198.601 48.4553L196.048 49.0163L198.738 42.9893ZM199.497 42.6559L201.987 47.7109L199.356 48.2892L199.497 42.6559ZM205.674 48.9811C205.465 49.3077 205.141 49.5331 204.763 49.6159C204.385 49.6992 203.997 49.6302 203.671 49.4209C203.344 49.2121 203.119 48.8888 203.036 48.5104L202.981 48.2599L205.813 47.6378L205.869 47.8883C205.952 48.2667 205.882 48.6548 205.674 48.9811ZM208.331 48.8337C207.954 48.9177 207.565 48.8476 207.238 48.6387C206.911 48.4298 206.686 48.1066 206.603 47.7278L206.548 47.4777L209.382 46.8552L209.437 47.1053C209.608 47.8864 209.112 48.6619 208.331 48.8337ZM194.066 51.9683C193.285 52.1404 192.51 51.6439 192.337 50.8628L192.283 50.6127L195.117 49.9902L195.172 50.2403C195.343 51.0214 194.847 51.7966 194.066 51.9683ZM197.633 51.1831C196.852 51.3533 196.077 50.8587 195.906 50.0779L195.851 49.8271L198.683 49.2049L198.738 49.4554C198.91 50.2362 198.414 51.0113 197.633 51.1831ZM199.471 49.2942L199.416 49.0437L202.248 48.4216L202.303 48.6721C202.426 49.2293 202.209 49.8076 201.746 50.1492C201.591 50.2681 201.402 50.3547 201.198 50.3993C200.995 50.4443 200.788 50.4451 200.589 50.4001C200.032 50.2853 199.593 49.8514 199.471 49.2942ZM201.039 51.1752C201.134 51.1684 201.229 51.1568 201.323 51.1377C201.334 51.1354 201.346 51.1358 201.357 51.1332C201.366 51.1313 201.374 51.1272 201.383 51.1249C201.479 51.1028 201.573 51.0728 201.664 51.0383C201.681 51.0319 201.7 51.0289 201.717 51.0218L203.089 57.2693C203.077 57.2641 203.062 57.2599 203.049 57.2543C202.959 57.2161 202.863 57.1812 202.764 57.1482C202.731 57.1377 202.7 57.1272 202.667 57.1174C202.546 57.0818 202.422 57.0507 202.29 57.0282C202.284 57.0271 202.279 57.0252 202.273 57.0241L200.99 51.1812C201.006 51.1804 201.022 51.1763 201.039 51.1752ZM193.384 62.4991C193.482 62.0952 193.732 61.4641 194.376 61.0561C195.09 60.6121 195.829 60.7227 196.039 60.7669C196.22 60.8052 196.404 60.7043 196.469 60.5299C196.595 60.1891 196.912 59.5523 197.616 59.1196C197.941 58.9238 198.298 58.8001 198.686 58.7524C199.104 58.6913 199.435 58.7468 199.601 58.7742C199.735 58.7956 199.87 58.7434 199.954 58.6377C200.076 58.4839 200.285 58.2616 200.587 58.0737C200.787 57.9499 200.988 57.8629 201.207 57.8067C201.446 57.7429 201.685 57.7204 201.936 57.7381C202.105 57.7508 202.265 57.7812 202.415 57.8224C202.548 57.8592 202.671 57.9057 202.785 57.9552C203.057 58.0737 203.275 58.2147 203.413 58.3174C203.414 58.3174 203.415 58.3178 203.415 58.3182C203.491 58.3744 203.544 58.4172 203.56 58.4326C203.676 58.5496 203.856 58.5769 204.002 58.5004C204.15 58.4221 204.933 58.0493 205.819 58.3669C205.925 58.4112 206.028 58.4554 206.119 58.5042C206.363 58.6388 206.586 58.8244 206.778 59.0528C206.924 59.2291 207.045 59.4229 207.139 59.6314C207.216 59.8043 207.411 59.8909 207.592 59.8358C208.018 59.7038 209.124 59.4649 210.196 60.0833C211.332 60.7381 211.658 61.9021 211.751 62.4983H193.384V62.4991Z" fill="white"/>
<path d="M241.865 61.5V42.5909H245.29V50.5959H254.053V42.5909H257.487V61.5H254.053V53.4673H245.29V61.5H241.865ZM270.104 55.5355V47.3182H273.446V61.5H270.206V58.9794H270.058C269.738 59.7734 269.212 60.4228 268.479 60.9276C267.753 61.4323 266.857 61.6847 265.792 61.6847C264.863 61.6847 264.041 61.4785 263.327 61.0661C262.619 60.6475 262.065 60.0412 261.665 59.2472C261.265 58.447 261.065 57.4806 261.065 56.348V47.3182H264.407V55.831C264.407 56.7296 264.654 57.4437 265.146 57.973C265.638 58.5024 266.285 58.767 267.085 58.767C267.577 58.767 268.054 58.647 268.516 58.407C268.978 58.1669 269.356 57.8099 269.652 57.3359C269.953 56.8558 270.104 56.2557 270.104 55.5355ZM280.964 61.7862C280.066 61.7862 279.256 61.6262 278.536 61.3061C277.822 60.9799 277.256 60.4998 276.837 59.8658C276.425 59.2318 276.219 58.45 276.219 57.5206C276.219 56.7204 276.366 56.0587 276.662 55.5355C276.957 55.0123 277.36 54.5938 277.871 54.2798C278.382 53.9659 278.958 53.7289 279.598 53.5689C280.244 53.4027 280.912 53.2827 281.601 53.2088C282.432 53.1226 283.106 53.0457 283.623 52.978C284.14 52.9041 284.516 52.7933 284.75 52.6456C284.99 52.4917 285.11 52.2547 285.11 51.9347V51.8793C285.11 51.1837 284.904 50.6451 284.491 50.2635C284.079 49.8819 283.485 49.6911 282.709 49.6911C281.891 49.6911 281.241 49.8696 280.761 50.2266C280.287 50.5836 279.967 51.0052 279.801 51.4915L276.68 51.0483C276.926 50.1866 277.333 49.4664 277.899 48.8878C278.465 48.303 279.158 47.866 279.976 47.5767C280.795 47.2812 281.7 47.1335 282.691 47.1335C283.374 47.1335 284.054 47.2135 284.731 47.3736C285.408 47.5336 286.027 47.7983 286.587 48.1676C287.147 48.5308 287.597 49.0263 287.935 49.6541C288.28 50.282 288.452 51.0668 288.452 52.0085V61.5H285.239V59.5518H285.128C284.925 59.9458 284.639 60.3151 284.27 60.6598C283.907 60.9983 283.448 61.2723 282.894 61.4815C282.346 61.6847 281.703 61.7862 280.964 61.7862ZM281.832 59.3303C282.503 59.3303 283.085 59.1979 283.577 58.9332C284.07 58.6624 284.448 58.3054 284.713 57.8622C284.984 57.419 285.119 56.9358 285.119 56.4126V54.7415C285.015 54.8277 284.836 54.9077 284.584 54.9815C284.337 55.0554 284.06 55.12 283.753 55.1754C283.445 55.2308 283.14 55.2801 282.839 55.3232C282.537 55.3662 282.275 55.4032 282.054 55.4339C281.555 55.5017 281.109 55.6125 280.715 55.7663C280.321 55.9202 280.01 56.1357 279.782 56.4126C279.555 56.6835 279.441 57.0343 279.441 57.4652C279.441 58.0807 279.666 58.5455 280.115 58.8594C280.564 59.1733 281.137 59.3303 281.832 59.3303ZM297.999 61.777C296.583 61.777 295.368 61.4661 294.352 60.8445C293.343 60.2228 292.564 59.3641 292.016 58.2685C291.474 57.1667 291.204 55.8987 291.204 54.4645C291.204 53.0241 291.481 51.7531 292.035 50.6513C292.589 49.5433 293.37 48.6816 294.38 48.0661C295.395 47.4444 296.596 47.1335 297.981 47.1335C299.132 47.1335 300.15 47.3459 301.037 47.7706C301.929 48.1892 302.64 48.7831 303.17 49.5526C303.699 50.3158 304.001 51.2083 304.074 52.2301H300.88C300.751 51.5469 300.443 50.9775 299.956 50.522C299.476 50.0604 298.833 49.8295 298.027 49.8295C297.344 49.8295 296.743 50.0142 296.226 50.3835C295.709 50.7467 295.306 51.2699 295.017 51.9531C294.734 52.6364 294.592 53.455 294.592 54.4091C294.592 55.3755 294.734 56.2064 295.017 56.902C295.3 57.5914 295.697 58.1238 296.208 58.4993C296.725 58.8686 297.331 59.0533 298.027 59.0533C298.519 59.0533 298.959 58.9609 299.347 58.7763C299.741 58.5855 300.07 58.3116 300.335 57.9545C300.6 57.5975 300.781 57.1636 300.88 56.6527H304.074C303.994 57.656 303.699 58.5455 303.188 59.321C302.677 60.0904 301.982 60.6937 301.101 61.1307C300.221 61.5616 299.187 61.777 297.999 61.777ZM310.9 61.7862C310.001 61.7862 309.192 61.6262 308.472 61.3061C307.758 60.9799 307.191 60.4998 306.773 59.8658C306.36 59.2318 306.154 58.45 306.154 57.5206C306.154 56.7204 306.302 56.0587 306.597 55.5355C306.893 55.0123 307.296 54.5938 307.807 54.2798C308.318 53.9659 308.893 53.7289 309.533 53.5689C310.18 53.4027 310.848 53.2827 311.537 53.2088C312.368 53.1226 313.042 53.0457 313.559 52.978C314.076 52.9041 314.451 52.7933 314.685 52.6456C314.925 52.4917 315.045 52.2547 315.045 51.9347V51.8793C315.045 51.1837 314.839 50.6451 314.427 50.2635C314.014 49.8819 313.42 49.6911 312.645 49.6911C311.826 49.6911 311.177 49.8696 310.697 50.2266C310.223 50.5836 309.903 51.0052 309.737 51.4915L306.616 51.0483C306.862 50.1866 307.268 49.4664 307.835 48.8878C308.401 48.303 309.093 47.866 309.912 47.5767C310.731 47.2812 311.635 47.1335 312.626 47.1335C313.31 47.1335 313.99 47.2135 314.667 47.3736C315.344 47.5336 315.963 47.7983 316.523 48.1676C317.083 48.5308 317.532 49.0263 317.871 49.6541C318.215 50.282 318.388 51.0668 318.388 52.0085V61.5H315.175V59.5518H315.064C314.861 59.9458 314.575 60.3151 314.205 60.6598C313.842 60.9983 313.384 61.2723 312.83 61.4815C312.282 61.6847 311.638 61.7862 310.9 61.7862ZM311.768 59.3303C312.439 59.3303 313.02 59.1979 313.513 58.9332C314.005 58.6624 314.384 58.3054 314.648 57.8622C314.919 57.419 315.055 56.9358 315.055 56.4126V54.7415C314.95 54.8277 314.772 54.9077 314.519 54.9815C314.273 55.0554 313.996 55.12 313.688 55.1754C313.38 55.2308 313.076 55.2801 312.774 55.3232C312.473 55.3662 312.211 55.4032 311.989 55.4339C311.491 55.5017 311.045 55.6125 310.651 55.7663C310.257 55.9202 309.946 56.1357 309.718 56.4126C309.49 56.6835 309.376 57.0343 309.376 57.4652C309.376 58.0807 309.601 58.5455 310.05 58.8594C310.5 59.1733 311.072 59.3303 311.768 59.3303ZM327.935 61.777C326.519 61.777 325.303 61.4661 324.288 60.8445C323.278 60.2228 322.5 59.3641 321.952 58.2685C321.41 57.1667 321.139 55.8987 321.139 54.4645C321.139 53.0241 321.416 51.7531 321.97 50.6513C322.524 49.5433 323.306 48.6816 324.315 48.0661C325.331 47.4444 326.531 47.1335 327.916 47.1335C329.067 47.1335 330.086 47.3459 330.972 47.7706C331.865 48.1892 332.576 48.7831 333.105 49.5526C333.634 50.3158 333.936 51.2083 334.01 52.2301H330.815C330.686 51.5469 330.378 50.9775 329.892 50.522C329.412 50.0604 328.769 49.8295 327.962 49.8295C327.279 49.8295 326.679 50.0142 326.162 50.3835C325.645 50.7467 325.242 51.2699 324.952 51.9531C324.669 52.6364 324.528 53.455 324.528 54.4091C324.528 55.3755 324.669 56.2064 324.952 56.902C325.236 57.5914 325.633 58.1238 326.143 58.4993C326.661 58.8686 327.267 59.0533 327.962 59.0533C328.455 59.0533 328.895 58.9609 329.283 58.7763C329.677 58.5855 330.006 58.3116 330.271 57.9545C330.535 57.5975 330.717 57.1636 330.815 56.6527H334.01C333.93 57.656 333.634 58.5455 333.124 59.321C332.613 60.0904 331.917 60.6937 331.037 61.1307C330.157 61.5616 329.123 61.777 327.935 61.777ZM340.097 53.1903V61.5H336.754V42.5909H340.023V49.728H340.189C340.521 48.9278 341.035 48.2969 341.731 47.8352C342.433 47.3674 343.325 47.1335 344.409 47.1335C345.393 47.1335 346.252 47.3397 346.985 47.7521C347.717 48.1645 348.283 48.7678 348.683 49.5618C349.09 50.3558 349.293 51.3253 349.293 52.4702V61.5H345.95V52.9872C345.95 52.0331 345.704 51.2914 345.212 50.7621C344.726 50.2266 344.042 49.9588 343.162 49.9588C342.571 49.9588 342.042 50.0881 341.574 50.3466C341.112 50.599 340.749 50.9652 340.485 51.4453C340.226 51.9254 340.097 52.5071 340.097 53.1903ZM352.7 61.5V47.3182H356.042V61.5H352.7ZM354.38 45.3054C353.851 45.3054 353.395 45.13 353.014 44.7791C352.632 44.4221 352.441 43.9943 352.441 43.4957C352.441 42.991 352.632 42.5632 353.014 42.2124C353.395 41.8553 353.851 41.6768 354.38 41.6768C354.916 41.6768 355.371 41.8553 355.747 42.2124C356.128 42.5632 356.319 42.991 356.319 43.4957C356.319 43.9943 356.128 44.4221 355.747 44.7791C355.371 45.13 354.916 45.3054 354.38 45.3054ZM362.821 53.1903V61.5H359.479V47.3182H362.674V49.728H362.84C363.166 48.9339 363.686 48.303 364.4 47.8352C365.12 47.3674 366.01 47.1335 367.069 47.1335C368.047 47.1335 368.9 47.3428 369.626 47.7614C370.359 48.1799 370.925 48.7862 371.325 49.5803C371.731 50.3743 371.931 51.3376 371.925 52.4702V61.5H368.583V52.9872C368.583 52.0393 368.337 51.2976 367.844 50.7621C367.358 50.2266 366.684 49.9588 365.822 49.9588C365.237 49.9588 364.717 50.0881 364.262 50.3466C363.812 50.599 363.458 50.9652 363.2 51.4453C362.948 51.9254 362.821 52.5071 362.821 53.1903ZM379.404 61.7862C378.505 61.7862 377.696 61.6262 376.975 61.3061C376.261 60.9799 375.695 60.4998 375.277 59.8658C374.864 59.2318 374.658 58.45 374.658 57.5206C374.658 56.7204 374.806 56.0587 375.101 55.5355C375.397 55.0123 375.8 54.5938 376.311 54.2798C376.822 53.9659 377.397 53.7289 378.037 53.5689C378.684 53.4027 379.351 53.2827 380.041 53.2088C380.872 53.1226 381.546 53.0457 382.063 52.978C382.58 52.9041 382.955 52.7933 383.189 52.6456C383.429 52.4917 383.549 52.2547 383.549 51.9347V51.8793C383.549 51.1837 383.343 50.6451 382.931 50.2635C382.518 49.8819 381.924 49.6911 381.149 49.6911C380.33 49.6911 379.681 49.8696 379.201 50.2266C378.727 50.5836 378.407 51.0052 378.24 51.4915L375.12 51.0483C375.366 50.1866 375.772 49.4664 376.338 48.8878C376.905 48.303 377.597 47.866 378.416 47.5767C379.234 47.2812 380.139 47.1335 381.13 47.1335C381.814 47.1335 382.494 47.2135 383.171 47.3736C383.848 47.5336 384.467 47.7983 385.027 48.1676C385.587 48.5308 386.036 49.0263 386.375 49.6541C386.719 50.282 386.892 51.0668 386.892 52.0085V61.5H383.679V59.5518H383.568C383.365 59.9458 383.078 60.3151 382.709 60.6598C382.346 60.9983 381.887 61.2723 381.333 61.4815C380.786 61.6847 380.142 61.7862 379.404 61.7862ZM380.272 59.3303C380.943 59.3303 381.524 59.1979 382.017 58.9332C382.509 58.6624 382.888 58.3054 383.152 57.8622C383.423 57.419 383.559 56.9358 383.559 56.4126V54.7415C383.454 54.8277 383.275 54.9077 383.023 54.9815C382.777 55.0554 382.5 55.12 382.192 55.1754C381.884 55.2308 381.58 55.2801 381.278 55.3232C380.976 55.3662 380.715 55.4032 380.493 55.4339C379.995 55.5017 379.548 55.6125 379.154 55.7663C378.761 55.9202 378.45 56.1357 378.222 56.4126C377.994 56.6835 377.88 57.0343 377.88 57.4652C377.88 58.0807 378.105 58.5455 378.554 58.8594C379.004 59.1733 379.576 59.3303 380.272 59.3303Z" fill="white"/>
<path d="M129.997 58.1662C130.001 58.1702 130.001 58.1702 129.997 58.1742V65.3337C130.021 66.0262 129.691 66.7268 129.006 67.1215L64.5192 104.352L60.7261 106.543L59.9813 106.973C59.6148 107.187 59.2241 107.332 58.8214 107.412C58.7811 107.421 58.7411 107.429 58.7007 107.437C58.6484 107.445 58.6001 107.449 58.5478 107.457C58.4552 107.469 58.3624 107.477 58.274 107.481C57.9478 107.501 57.6216 107.477 57.2995 107.416C57.227 107.4 57.1544 107.384 57.0781 107.364C56.7478 107.28 56.4297 107.147 56.1237 106.973L55.2781 106.482L54.7829 106.196L53.3978 105.395L51.7387 104.433L51.7185 104.421L51.7065 104.413L42.0344 98.8115H42.0305L41.0399 98.2357L1.2562 75.195C0.676434 74.8608 0.314051 74.3334 0.164936 73.7655L0 73.8864V65.9619L0.0845268 66.0101L0.128741 66.0383L5.07758 68.9536L11.0089 65.5711L16.6744 62.3418L20.4716 60.1795L58.274 38.6288L70.0642 31.9082C71.256 31.2278 72.7136 31.2318 73.8974 31.9162L124.928 61.3311L129.856 58.2546L129.997 58.1662Z" fill="#FBB465"/>
<path d="M72.7223 92.252C67.8623 97.116 67.5803 101.095 64.52 104.352L60.7269 106.542L59.9821 106.973C59.6156 107.187 59.2249 107.332 58.8222 107.412C58.774 107.445 58.7257 107.477 58.6773 107.513L58.5486 107.457C58.4559 107.469 58.3632 107.477 58.2747 107.481C57.9486 107.501 57.6224 107.477 57.3003 107.416C57.0103 107.114 56.7486 106.768 56.4707 106.531C56.2855 106.382 56.0923 106.277 55.8787 106.269C55.8507 106.269 55.8225 106.269 55.7942 106.273C55.6373 106.285 55.4641 106.349 55.2789 106.482L54.7837 106.196L53.3985 105.395L51.7395 104.433L51.7192 104.42L51.7072 104.412L42.0352 98.8113L51.796 96.7255L60.7954 94.8008L64.0047 94.1162V94.1122L64.8623 93.931L71.5467 92.5015L72.7223 92.252Z" fill="#FFF0C0"/>
<path d="M60.725 106.543L59.9802 106.974C59.6137 107.187 59.2231 107.332 58.8204 107.413C58.7721 107.445 58.7238 107.477 58.6755 107.514L58.5467 107.457C58.4541 107.469 58.3613 107.477 58.2729 107.481C57.9467 107.501 57.6205 107.477 57.2985 107.417C57.226 107.401 57.1533 107.385 57.0771 107.364C56.6381 106.922 56.1951 106.511 55.7924 106.273C55.3978 106.036 55.0434 105.967 54.7817 106.197L53.3966 105.396L51.7376 104.433L51.7173 104.421L51.7053 104.413L42.0332 98.812L51.794 96.7261L60.7934 94.8014L64.0027 94.1128L64.8604 93.9316C64.929 94.8457 64.7477 95.655 64.8483 96.3677C65.388 100.129 62.6619 103.201 60.725 106.543Z" fill="#97EDFF"/>
<path d="M63.6207 97.0795C60.3268 101.42 62.646 104.613 58.8207 107.412C58.7725 107.444 58.7242 107.476 58.6758 107.513L58.5471 107.456L56.4692 106.53L55.8772 106.268L51.7379 104.432L51.7176 104.42L51.7056 104.412L42.0336 98.8109H42.0297L41.0391 98.235L50.4534 95.9479L63.7213 92.7266C63.8582 93.2178 63.9548 93.6768 64.0031 94.1117V94.1157C64.148 95.2797 64.1763 96.3508 63.6207 97.0795Z" fill="#50C9E4"/>
<path d="M58.7008 107.437C58.5599 107.457 58.415 107.473 58.274 107.481C57.5371 107.525 56.7881 107.356 56.1239 106.973L55.2783 106.482L54.783 106.196L53.3979 105.395L51.7388 104.433L51.7186 104.421L51.7066 104.413L1.2562 75.195C0.676434 74.8608 0.314051 74.3333 0.164936 73.7655L0 73.8863V65.9618L0.0845268 66.01C0.0845268 65.9658 0.0884292 65.9215 0.0884292 65.873C0.100675 65.9295 0.112595 65.9817 0.128741 66.0382C0.281757 66.5938 0.64403 67.1013 1.21188 67.4274L2.35148 68.0878L2.56084 68.2087L2.94327 68.4301C2.94327 68.4341 2.94739 68.4341 2.94739 68.4341L3.26946 68.6193L56.0792 99.206C56.7557 99.5965 57.5208 99.7658 58.2738 99.7133C58.6324 99.6893 58.7008 104.09 58.7008 107.437Z" fill="#3DB2C8"/>
<path d="M129.997 58.1668C130 58.1708 130 58.1708 129.997 58.1748V58.2997C129.98 58.948 129.646 59.5841 129.006 59.9547L59.9807 99.8065C59.7187 99.9555 59.4451 100.072 59.1631 100.157C59.131 100.169 59.0948 100.177 59.0586 100.189C59.0424 100.193 59.0264 100.197 59.0102 100.201C58.7686 100.262 58.523 100.302 58.2733 100.314C57.5364 100.358 56.7875 100.185 56.1232 99.8025L3.46225 69.3085L3.20054 69.1514L1.77507 68.33L1.70669 68.2897L1.25566 68.028C0.478445 67.577 0.087994 66.7958 0.0839844 66.0106C0.0839844 65.9664 0.0878868 65.9221 0.0878868 65.8736C0.124082 65.1207 0.522767 64.3798 1.2717 63.957L9.34121 59.3585L15.7839 55.6863L18.8643 53.9266L70.0635 24.7372C71.2554 24.0608 72.7129 24.0648 73.8967 24.7453L129.006 56.5117C129.517 56.8098 129.835 57.2769 129.948 57.7883C129.98 57.9132 129.997 58.038 129.997 58.1668Z" fill="white"/>
<path d="M129.949 57.7876C129.941 57.9486 129.909 58.1058 129.856 58.2547C129.715 58.6935 129.418 59.0922 128.962 59.3539L72.6573 91.8613L64.7814 96.4074L63.1908 97.3295L59.9372 99.206C59.4219 99.5039 58.8541 99.6731 58.2742 99.7133C57.5212 99.7657 56.7562 99.5965 56.0797 99.206L3.26991 68.6193L2.94784 68.4341C2.94784 68.4341 2.94372 68.4341 2.94372 68.4301L2.56129 68.2087L2.35193 68.0877L1.21233 67.4273C0.644483 67.1013 0.282099 66.5938 0.129192 66.0382C0.113045 65.9817 0.101126 65.9295 0.08888 65.873C-0.0721547 65.0799 0.173406 64.2181 0.821663 63.6423L0.829683 63.6343L0.837703 63.6302C0.954523 63.5296 1.08326 63.4369 1.22425 63.3564L11.1259 57.7151L15.2773 55.3474L17.9875 53.8011L70.02 24.1406C71.2079 23.4602 72.6696 23.4642 73.8534 24.1487L128.962 55.9151C129.675 56.3258 130.005 57.0708 129.949 57.7876Z" fill="#FED39D"/>
<path d="M72.6573 91.861L64.7814 96.4071L63.1908 97.3292L59.9372 99.2057C59.4219 99.5036 58.8541 99.6728 58.2742 99.713C57.5212 99.7655 56.7562 99.5962 56.0797 99.2057L3.26991 68.619L2.94784 68.4338C2.94784 68.4338 2.94372 68.4338 2.94372 68.4298L2.56129 68.2084L2.35193 68.0875L1.21233 67.4271C0.644483 67.101 0.282099 66.5935 0.129192 66.0379C0.113045 65.9814 0.101126 65.9292 0.08888 65.8727C-0.0721547 65.0796 0.173406 64.2179 0.821663 63.642L0.829683 63.634L0.837703 63.63L8.4642 59.241H8.46832L11.1259 57.7148L15.2572 55.3349L17.931 53.7969C17.9511 53.7969 17.9672 53.7969 17.9875 53.8008C18.3134 53.8169 18.6034 53.8612 18.8651 53.9256C21.3334 54.5215 21.1724 57.0182 20.4719 60.1791C20.4477 60.2919 20.4236 60.4046 20.3954 60.5214C19.1993 65.7279 29.854 59.8047 31.513 65.4904C33.172 71.1761 52.3549 64.0688 53.539 72.3599C54.5134 79.177 54.6864 82.4709 58.2742 83.4252C59.0473 83.6306 59.9817 83.7272 61.117 83.7272C65.8523 83.7272 71.3731 87.4961 72.6573 91.861Z" fill="#FFF0C0"/>
<path d="M64.7814 96.4081L63.1908 97.3302L59.9372 99.2067C59.4219 99.5046 58.8541 99.6738 58.2742 99.714C57.5212 99.7665 56.7562 99.5972 56.0797 99.2067L3.26991 68.62L2.94784 68.4348C2.94784 68.4348 2.94372 68.4348 2.94372 68.4308L2.56129 68.2094L2.35193 68.0885L1.21233 67.4281C0.644483 67.102 0.282099 66.5945 0.129192 66.0389C0.113045 65.9824 0.101126 65.9302 0.08888 65.8737C-0.0721547 65.0806 0.173406 64.2189 0.821663 63.643L0.829683 63.635L0.837703 63.631L8.4642 59.242H8.46832L11.1259 57.7158L15.2572 55.3359C15.2653 55.3399 15.2695 55.344 15.2773 55.3481C15.4707 55.4407 15.6399 55.5534 15.7848 55.6864C16.5859 56.4153 16.6907 57.6394 16.5943 58.6219C16.4936 59.6325 16.3485 61.074 16.6747 62.3425C17.1137 64.0417 18.4063 65.4268 21.8047 65.0161C27.7238 64.3074 25.3562 66.9127 30.5667 68.5717C35.7771 70.2266 31.9881 74.7285 36.0147 78.2799C40.0374 81.8315 46.1981 76.8586 50.9336 78.2799C55.2664 79.5805 54.4449 86.0434 58.2742 86.7601C58.6246 86.8285 59.0192 86.8447 59.458 86.8045C64.0202 86.3899 66.3236 88.3629 64.7814 96.4081Z" fill="#97EDFF"/>
<path d="M63.1908 97.3305L59.9372 99.207C59.4219 99.5049 58.8541 99.674 58.2742 99.7142C57.5212 99.7667 56.7562 99.5974 56.0797 99.207L3.26991 68.6202L2.94784 68.435C2.94784 68.435 2.94372 68.435 2.94372 68.431L2.56129 68.2096L2.35193 68.0887L1.21233 67.4283C0.644483 67.1022 0.282099 66.5947 0.129192 66.0391C0.113045 65.9827 0.101126 65.9304 0.08888 65.874C-0.0721547 65.0808 0.173406 64.2191 0.821663 63.6432L0.829683 63.6352L0.837703 63.6312L8.4642 59.2422H8.46832C8.79039 59.2582 9.08038 59.2985 9.34209 59.3589C11.8468 59.9347 11.7058 62.4112 11.0092 65.5721C10.9809 65.7049 10.9528 65.8379 10.9206 65.9708C9.72474 71.1772 20.3833 65.254 22.0423 70.9396C23.6972 76.6213 23.9347 81.8318 34.827 82.5445C43.1824 83.0881 45.248 89.1724 51.6424 89.1724C53.8529 89.1724 56.2328 89.9939 58.2742 91.3146C60.6177 92.8246 62.5102 94.9949 63.1908 97.3305Z" fill="#50C9E4"/>
<path d="M107.064 63.2197C112.946 63.2197 117.715 59.7798 117.715 55.5366C117.715 51.2933 112.946 47.8535 107.064 47.8535C101.181 47.8535 96.4121 51.2933 96.4121 55.5366C96.4121 59.7798 101.181 63.2197 107.064 63.2197Z" fill="#F7D5E6"/>
<path d="M107.528 46.7336C107.875 46.6239 108.248 46.6634 108.618 46.8255C108.928 46.9614 108.936 46.734 108.936 46.734C108.936 46.734 111.135 45.4242 111.228 45.3949C113.015 44.8307 115.249 46.8606 116.218 49.9288C116.276 50.1145 116.329 50.2997 116.375 50.4839C117.331 50.7742 118.302 51.9159 118.788 53.4564C119.007 54.1496 119.099 54.833 119.079 55.4469L119.18 55.5052C119.936 55.9388 120.403 56.7438 120.403 57.6154C120.403 58.5093 119.94 59.2435 119.281 59.6646C118.959 59.8699 117.038 61.0047 117.038 61.0047C117.038 61.0047 117.228 59.9942 116.76 59.7255L104.675 52.7944C103.919 52.3608 103.453 51.5559 103.453 50.6843C103.453 49.8904 102.643 49.7876 102.643 49.7876C102.643 49.7876 104.838 48.471 105.109 48.3789C105.272 48.3232 105.322 48.0428 105.322 48.0428C105.322 48.0428 107.454 46.7571 107.528 46.7336Z" fill="#44B790"/>
<path d="M104.114 49.6044C104.289 48.8132 104.693 48.2292 105.285 48.0423C105.923 47.8407 106.648 48.1432 107.28 48.7843C107.575 47.7318 108.16 46.9639 108.984 46.7035C110.771 46.1393 113.005 48.1692 113.974 51.2374C114.033 51.423 114.085 51.6081 114.132 51.7924C115.087 52.0827 116.058 53.2243 116.545 54.7648C116.763 55.4579 116.856 56.1414 116.835 56.7553L116.937 56.8136C117.693 57.2472 118.159 58.0522 118.159 58.9237C118.159 60.7932 116.138 61.964 114.516 61.0339L102.431 54.1028C101.675 53.6692 101.209 52.8642 101.209 51.9926C101.209 50.3997 102.677 49.3151 104.114 49.6044Z" fill="#50C5A2"/>
<path d="M98.1858 45.6916C98.45 45.6082 98.7337 45.6382 99.0148 45.7615C99.2505 45.8649 99.2571 45.692 99.2571 45.692C99.2571 45.692 100.93 44.6954 101.001 44.6732C102.36 44.2439 104.059 45.7883 104.797 48.1225C104.841 48.2637 104.881 48.4046 104.917 48.5447C105.643 48.7656 106.382 49.6342 106.752 50.8062C106.919 51.3335 106.989 51.8534 106.973 52.3205L107.051 52.3648C107.626 52.6947 107.98 53.3071 107.98 53.9702C107.98 54.6503 107.629 55.2088 107.127 55.5292C106.883 55.6853 105.42 56.5487 105.42 56.5487C105.42 56.5487 105.566 55.7799 105.209 55.5755L96.0149 50.3025C95.4397 49.9726 95.085 49.3602 95.085 48.6971C95.085 48.0931 94.4688 48.015 94.4688 48.015C94.4688 48.015 96.1388 47.0133 96.345 46.9432C96.4695 46.9008 96.5074 46.6875 96.5074 46.6875C96.5074 46.6875 98.1292 45.7095 98.1858 45.6916Z" fill="#44B790"/>
<path d="M95.5871 47.8763C95.7199 47.2743 96.0274 46.83 96.4776 46.6878C96.9633 46.5345 97.5149 46.7646 97.9954 47.2523C98.2206 46.4517 98.6652 45.8674 99.2925 45.6693C100.652 45.24 102.351 46.7844 103.089 49.1186C103.133 49.2598 103.173 49.4007 103.209 49.5408C103.935 49.7617 104.674 50.6303 105.044 51.8023C105.211 52.3296 105.281 52.8495 105.265 53.3166L105.343 53.3609C105.918 53.6908 106.272 54.3032 106.272 54.9663C106.272 56.3886 104.735 57.2793 103.501 56.5716L94.3069 51.2986C93.7316 50.9687 93.377 50.3563 93.377 49.6932C93.377 48.4813 94.4935 47.6562 95.5871 47.8763Z" fill="#50C5A2"/>
<path d="M105.387 8.03125V57.5237H109.612V8.03125C109.612 7.04987 108.97 6.28512 108.146 6.01973C107.884 5.93596 107.604 5.90096 107.325 5.92198C107.052 5.94647 106.78 6.02677 106.515 6.16288C106.165 6.34451 105.886 6.61694 105.69 6.94161C105.495 7.26293 105.387 7.64004 105.387 8.03125Z" fill="#D27855"/>
<g opacity="0.17">
<path d="M105.387 8.03126V57.5237H107.325V5.92188C107.052 5.94637 106.78 6.02667 106.515 6.16278C106.165 6.3444 105.886 6.61684 105.69 6.94151C105.495 7.26293 105.387 7.64005 105.387 8.03126Z" fill="#D27855"/>
</g>
<path d="M107.261 9.64215C108.831 0.900755 97.7257 0 97.7257 0L100.669 3.6352C100.669 3.6352 94.2097 0.356314 87.1699 4.04982C92.5961 4.42954 93.826 7.27301 93.826 7.27301C89.325 7.90804 88.195 9.92975 88.195 9.92975C99.0553 7.70854 98.7909 12.0384 98.7909 12.0384L107.261 9.64215Z" fill="#4EC8A4"/>
<path d="M106.529 9.64215C104.959 0.900755 116.065 0 116.065 0L113.121 3.6352C113.121 3.6352 119.581 0.356314 126.62 4.04982C121.194 4.42954 119.964 7.27301 119.964 7.27301C124.465 7.90804 125.595 9.92975 125.595 9.92975C114.735 7.70854 114.999 12.0384 114.999 12.0384L106.529 9.64215Z" fill="#4EC8A4"/>
<path d="M109.621 8.06828C96.182 -0.239527 85.9595 10.7308 85.9595 10.7308L94.3689 10.4113C94.3689 10.4113 83.7997 14.6928 84.4765 24.8964C89.37 19.49 95.1067 20.3657 95.1067 20.3657C92.642 25.5739 95.1484 28.3006 95.1484 28.3006C99.9393 15.2085 106.998 18.7852 106.998 18.7852L109.621 8.06828Z" fill="#4AAA80"/>
<path d="M104.352 8.41594C117.791 0.108129 128.013 11.0784 128.013 11.0784L119.604 10.759C119.604 10.759 130.173 15.0405 129.496 25.2441C124.603 19.8377 118.866 20.7133 118.866 20.7133C121.331 25.9216 118.824 28.6482 118.824 28.6482C114.033 15.5562 106.974 19.1329 106.974 19.1329L104.352 8.41594Z" fill="#4AAA80"/>
<path d="M109.595 12.6612C100.404 9.85147 95.8008 17.2357 95.8008 17.2357L100.79 15.9551C100.79 15.9551 95.0553 19.7012 96.8698 25.2315C99.0519 21.6114 102.606 21.34 102.606 21.34C101.851 24.532 103.727 25.7043 103.727 25.7043C104.786 17.8652 109.505 18.9076 109.505 18.9076L109.595 12.6612Z" fill="#4EC8A4"/>
<path d="M105.558 12.6396C114.828 9.92933 119.219 17.362 119.219 17.362L114.267 16.0278C114.267 16.0278 119.894 19.8352 117.921 25.345C115.843 21.702 112.297 21.3923 112.297 21.3923C112.961 24.5918 111.051 25.7438 111.051 25.7438C110.217 17.8945 105.469 18.8858 105.469 18.8858L105.558 12.6396Z" fill="#4EC8A4"/>
<path opacity="0.53" d="M109.612 47.7461H105.387V49.143H109.612V47.7461Z" fill="#F0B553"/>
<path opacity="0.53" d="M109.612 43.9043H105.387V45.3012H109.612V43.9043Z" fill="#F0B553"/>
<path opacity="0.53" d="M109.612 40.0625H105.387V41.4595H109.612V40.0625Z" fill="#F0B553"/>
<path opacity="0.53" d="M109.612 36.2207H105.387V37.6177H109.612V36.2207Z" fill="#F0B553"/>
<path opacity="0.53" d="M109.612 32.3789H105.387V33.7758H109.612V32.3789Z" fill="#F0B553"/>
<path opacity="0.53" d="M109.612 28.5371H105.387V29.934H109.612V28.5371Z" fill="#F0B553"/>
<path opacity="0.53" d="M109.612 24.6953H105.387V26.0922H109.612V24.6953Z" fill="#F0B553"/>
<path opacity="0.53" d="M109.612 20.8555H105.387V22.2524H109.612V20.8555Z" fill="#F0B553"/>
<path d="M107.77 51.9545C107.944 51.8997 108.13 51.9194 108.315 52.0004C108.47 52.0683 108.474 51.9547 108.474 51.9547C108.474 51.9547 109.573 51.3001 109.62 51.2853C110.513 51.0034 111.629 52.0179 112.114 53.5515C112.143 53.6443 112.169 53.7368 112.192 53.8289C112.67 53.974 113.155 54.5447 113.398 55.3147C113.508 55.6611 113.554 56.0027 113.544 56.3096L113.594 56.3387C113.972 56.5555 114.205 56.9579 114.205 57.3935C114.205 57.8403 113.974 58.2072 113.645 58.4178C113.484 58.5203 112.523 59.0876 112.523 59.0876C112.523 59.0876 112.619 58.5825 112.385 58.4482L106.344 54.9838C105.966 54.7671 105.733 54.3647 105.733 53.9291C105.733 53.5322 105.328 53.481 105.328 53.481C105.328 53.481 106.425 52.8229 106.561 52.7768C106.643 52.7489 106.667 52.6088 106.667 52.6088C106.667 52.6088 107.733 51.9662 107.77 51.9545Z" fill="#44B790"/>
<path d="M106.065 53.3896C106.153 52.994 106.355 52.7022 106.65 52.6088C106.97 52.508 107.332 52.6592 107.648 52.9796C107.796 52.4536 108.088 52.0697 108.5 51.9396C109.393 51.6577 110.509 52.6722 110.994 54.2058C111.023 54.2986 111.049 54.3911 111.073 54.4832C111.55 54.6283 112.035 55.199 112.279 55.969C112.388 56.3154 112.434 56.6571 112.424 56.9639L112.475 56.993C112.852 57.2098 113.086 57.6121 113.086 58.0478C113.086 58.9822 112.075 59.5674 111.265 59.1025L105.224 55.6381C104.846 55.4214 104.613 55.019 104.613 54.5834C104.613 53.7871 105.347 53.245 106.065 53.3896Z" fill="#50C5A2"/>
<path d="M102.873 53.5068C103.085 53.44 103.312 53.4641 103.537 53.5627C103.725 53.6454 103.731 53.507 103.731 53.507C103.731 53.507 105.069 52.7098 105.125 52.6921C106.213 52.3487 107.572 53.584 108.162 55.4512C108.197 55.5641 108.229 55.6768 108.258 55.789C108.839 55.9657 109.43 56.6605 109.726 57.598C109.859 58.0198 109.915 58.4358 109.903 58.8093L109.965 58.8449C110.425 59.1088 110.708 59.5987 110.708 60.129C110.708 60.673 110.427 61.1198 110.026 61.3761C109.83 61.501 108.661 62.1916 108.661 62.1916C108.661 62.1916 108.777 61.5766 108.492 61.4132L101.137 57.1952C100.677 56.9313 100.393 56.4414 100.393 55.911C100.393 55.4279 99.9004 55.3654 99.9004 55.3654C99.9004 55.3654 101.236 54.5641 101.401 54.508C101.501 54.4741 101.531 54.3035 101.531 54.3035C101.531 54.3035 102.828 53.5211 102.873 53.5068Z" fill="#44B790"/>
<path d="M100.797 55.2544C100.904 54.7729 101.15 54.4174 101.51 54.3037C101.898 54.181 102.339 54.3651 102.724 54.7552C102.904 54.1148 103.259 53.6474 103.761 53.4889C104.849 53.1455 106.208 54.3809 106.798 56.2481C106.833 56.3611 106.865 56.4737 106.894 56.5859C107.475 56.7625 108.066 57.4574 108.362 58.3949C108.495 58.8166 108.551 59.2327 108.539 59.6062L108.601 59.6416C109.061 59.9055 109.345 60.3954 109.345 60.9258C109.345 62.0636 108.115 62.776 107.128 62.21L99.7731 57.992C99.313 57.7281 99.0293 57.2382 99.0293 56.7078C99.0293 55.7383 99.9225 55.0783 100.797 55.2544Z" fill="#50C5A2"/>
<path d="M54.8522 41.2417C54.8522 41.2901 54.8496 41.3381 54.8446 41.3858C54.8358 41.4698 54.8196 41.5526 54.796 41.634C54.4755 42.7413 52.8212 43.5848 50.8285 43.5848C48.8339 43.5848 47.1781 42.7396 46.86 41.6308C46.836 41.5474 46.8195 41.4624 46.8113 41.3764C46.807 41.3318 46.8047 41.287 46.8047 41.2418C46.8047 41.1966 46.807 41.1517 46.8113 41.1072C46.8195 41.021 46.836 40.9361 46.86 40.8526C46.8962 40.7266 46.9495 40.6038 47.0188 40.4854C47.028 40.4696 47.0376 40.4538 47.0474 40.4381C47.6104 39.5398 49.0908 38.8984 50.8285 38.8984C52.5661 38.8984 54.0464 39.5398 54.6095 40.4381C54.6192 40.4538 54.6288 40.4696 54.6381 40.4854C54.7069 40.6028 54.76 40.7244 54.7961 40.8494C54.8197 40.9307 54.8361 41.0133 54.8447 41.0974C54.8495 41.1451 54.8522 41.1932 54.8522 41.2417Z" fill="#F7D5E6"/>
<path d="M54.0514 41.2276C54.0514 41.2664 54.0494 41.3048 54.0453 41.343C54.0383 41.4103 54.0253 41.4766 54.0063 41.5417C53.7497 42.4283 52.425 43.1038 50.8294 43.1038C49.2323 43.1038 47.9065 42.427 47.6517 41.5392C47.6326 41.4724 47.6193 41.4044 47.6127 41.3355C47.6093 41.2998 47.6074 41.2638 47.6074 41.2277C47.6074 41.1916 47.6092 41.1557 47.6127 41.12C47.6193 41.0511 47.6325 40.983 47.6517 40.9162C47.6807 40.8152 47.7235 40.7169 47.779 40.6222C47.7863 40.6095 47.794 40.5969 47.8018 40.5844C48.2526 39.865 49.438 39.3516 50.8294 39.3516C52.2208 39.3516 53.4061 39.8651 53.8569 40.5844C53.8647 40.5969 53.8724 40.6095 53.8798 40.6222C53.9348 40.7162 53.9774 40.8136 54.0062 40.9137C54.0252 40.9788 54.0382 41.045 54.0452 41.1122C54.0494 41.1503 54.0514 41.1888 54.0514 41.2276Z" fill="#429CD0"/>
<path d="M54.0514 40.5871C54.0514 40.6259 54.0494 40.6643 54.0453 40.7025C54.0383 40.7698 54.0253 40.836 54.0063 40.9012C53.7497 41.7878 52.425 42.4633 50.8294 42.4633C49.2323 42.4633 47.9065 41.7865 47.6517 40.8987C47.6326 40.8319 47.6193 40.7639 47.6127 40.6948C47.6093 40.6592 47.6074 40.6232 47.6074 40.5871C47.6074 40.551 47.6092 40.515 47.6127 40.4794C47.6193 40.4105 47.6325 40.3424 47.6517 40.2757C47.6807 40.1747 47.7235 40.0764 47.779 39.9817C47.7863 39.969 47.794 39.9564 47.8018 39.9438C48.2526 39.2245 49.438 38.7109 50.8294 38.7109C52.2208 38.7109 53.4061 39.2245 53.8569 39.9438C53.8647 39.9564 53.8724 39.969 53.8798 39.9817C53.9348 40.0757 53.9774 40.173 54.0062 40.2732C54.0252 40.3383 54.0382 40.4045 54.0452 40.4718C54.0494 40.5098 54.0514 40.5483 54.0514 40.5871Z" fill="#4182CE"/>
<path d="M51.5149 22.1406H50.2402V40.6226H51.5149V22.1406Z" fill="#429CD0"/>
<path d="M50.8588 26.0703L39.5527 23.5578L34.8867 16.9177L39.5527 9.91865L50.8588 7.40625V26.0703Z" fill="#E2CCD6"/>
<path d="M50.791 26.0703L62.0971 23.5578L66.7631 16.9177L62.0971 9.91865L50.791 7.40625V26.0703Z" fill="#795FB2"/>
<path d="M50.8588 25.5098L39.5527 22.9974L34.8867 16.3573L39.5527 9.35822L50.8588 6.8457V25.5098Z" fill="#50B3FF"/>
<path d="M50.8589 6.8457L39.5527 22.9974L50.8589 25.5098V6.8457Z" fill="white"/>
<path d="M50.8588 6.8457L34.8867 16.3552L39.5527 9.35822L50.8588 6.8457Z" fill="white"/>
<path d="M50.791 25.5098L62.0971 22.9974L66.7631 16.3573L62.0971 9.35822L50.791 6.8457V25.5098Z" fill="white"/>
<path d="M50.791 6.8457L62.0971 22.9974L50.791 25.5098V6.8457Z" fill="#9874D4"/>
<path d="M50.791 6.8457L66.7631 16.3552L62.0971 9.35822L50.791 6.8457Z" fill="#FF4C91"/>
<path d="M39.5267 22.8717V23.5128L34.8789 16.9419V16.3008L39.5267 22.8717Z" fill="#36A3C0"/>
<path d="M66.7707 16.3008V16.9419L62.123 23.5128V22.8717L66.7707 16.3008Z" fill="#E2CCD6"/>
<path d="M88.7412 35.5058L80.6756 49.362L56.4789 63.2182L40.3477 53.9118L64.5445 40.0556L72.4032 26.1992L88.7412 35.5058Z" fill="#F7D5E6"/>
<path d="M76.0635 24.0723C75.9013 26.9353 80.0766 32.7521 76.8088 38.7792C73.541 44.8063 60.0535 52.2244 56.6815 52.2244C53.3096 52.2244 50.9493 49.864 51.9609 47.1665C52.9724 44.4691 64.6753 37.2099 64.8932 37.1304C65.1112 37.0508 68.4831 30.6443 68.8202 30.3071C69.1575 29.9699 72.1921 25.2493 72.1921 25.2493L76.0635 24.0723Z" fill="#F7D5E6"/>
<path d="M70.8229 26.1807L67.1326 31.2421L67.0144 31.4855L65.1817 35.2512L61.7668 37.0982C61.7562 37.1053 61.7491 37.1089 61.7381 37.1161L60.915 37.56C60.915 37.56 60.7575 39.2208 60.2849 38.4799C59.655 39.3997 58.2626 39.9404 57.9941 39.2423C57.7257 38.5478 58.8032 37.5135 58.8032 37.5135L63.4781 33.6726C63.4781 33.6726 67.5012 26.0804 70.8229 26.1807Z" fill="#FF9F8F"/>
<path d="M67.0152 31.4863L65.1825 35.252L61.7676 37.099C64.291 35.6387 65.2541 33.2618 67.0152 31.4863Z" fill="#F4CAAB"/>
<path d="M46.1643 43.5393C45.3484 44.0404 45.8027 45.691 49.315 47.5619C49.315 47.5619 50.7603 47.036 52.7093 46.2489C54.5527 45.5044 58.4375 43.9154 59.6056 43.3379C61.9105 43.3545 64.006 42.8532 65.611 42.2987C67.479 41.6532 68.6341 39.7844 68.3651 37.8264L68.1647 36.3632C64.6543 35.641 61.189 38.0541 57.9273 40.0539C54.747 41.4297 49.34 44.9283 49.34 44.9283C49.34 44.9283 46.9799 43.0402 46.1643 43.5393Z" fill="#FF9F8F"/>
<path d="M59.5064 42.1329L52.709 46.2485C54.5524 45.504 58.4372 43.915 59.6053 43.3375C61.9102 43.3541 64.0057 42.8528 65.6107 42.2983C66.3813 42.032 67.0307 41.5575 67.5087 40.9545C68.1893 40.0958 68.5228 38.9764 68.3648 37.8262C62.5896 42.2809 59.5064 42.1329 59.5064 42.1329Z" fill="#F4CAAB"/>
<path d="M48.3127 47.1191C47.4968 47.6202 47.9511 49.2709 51.4634 51.1418C51.4634 51.1418 54.6985 49.9001 56.6475 49.113C58.491 48.3685 60.586 47.4954 61.7541 46.918C64.0589 46.9345 66.1544 46.4333 67.7595 45.8787C69.6274 45.2333 70.7825 43.3645 70.5135 41.4065L70.3132 39.9433C66.8027 39.221 63.3373 41.6342 60.0758 43.634C56.8955 45.0097 51.4885 48.5084 51.4885 48.5084C51.4885 48.5084 49.1283 46.6201 48.3127 47.1191Z" fill="#FF9F8F"/>
<path d="M61.656 45.7129L56.6484 49.1126C58.4919 48.3681 60.5869 47.495 61.755 46.9176C64.0598 46.9341 66.1553 46.4329 67.7604 45.8784C68.531 45.6121 69.1803 45.1377 69.6583 44.5346C70.339 43.6759 70.6724 42.5565 70.5144 41.4062C64.7394 45.8608 61.656 45.7129 61.656 45.7129Z" fill="#F4CAAB"/>
<path d="M73.0264 25.2787L78.3243 23.2734C78.0969 27.1943 74.3092 28.3917 76.4199 32.6205C78.5306 36.8494 65.0968 34.5384 73.0264 25.2787Z" fill="#8E4539"/>
<path d="M63.0332 37.473C64.2947 40.3239 68.4641 41.8221 70.4714 42.3916C70.7216 42.4642 71.2489 39.3018 72.293 37.4677C72.36 37.3493 72.4285 37.2315 72.4996 37.1151C72.5945 36.9542 72.692 36.7946 72.7916 36.6378C73.2525 35.9085 73.7402 35.2248 74.2043 34.6095C74.439 34.2963 74.6691 34.0031 74.8843 33.7296C75.8012 32.5734 76.4927 32.8615 76.4597 32.68C76.3938 32.3069 76.246 30.8739 76.0211 30.5533L75.4897 29.7952L75.2278 29.4223L72.5979 25.6738C71.2618 25.545 69.1454 27.0332 67.8612 28.5256C67.0286 29.497 66.5457 30.4709 66.8596 31.004L66.861 31.0047C66.861 31.0047 66.861 31.0047 66.8616 31.0067C66.8719 31.0237 66.885 31.0422 66.8953 31.0592C66.7882 31.3382 66.6782 31.6296 66.5662 31.9218C66.268 32.694 65.957 33.4649 65.6537 34.0167C64.8677 35.4488 64.0777 36.024 63.1226 37.3505L63.0332 37.473Z" fill="#FF9F8F"/>
<path d="M66.5981 29.7782C66.3369 30.4104 66.2425 31.0874 66.4892 31.7389C66.5121 31.7996 66.5377 31.8616 66.5672 31.9223C66.5948 31.9802 66.6264 32.0401 66.6609 32.098L66.6623 32.0986C66.6623 32.0986 66.6623 32.0986 66.6629 32.1007C66.674 32.1129 66.7488 32.2061 66.8866 32.3372C67.1829 32.6199 67.7655 33.0746 68.587 33.2524C68.6985 33.4472 68.8354 33.6459 68.9865 33.8466C68.9872 33.8487 68.9893 33.8514 68.992 33.8528C69.295 34.2494 69.6635 34.6511 70.0545 35.0351C70.0943 35.0752 70.1355 35.1159 70.1773 35.1554C71.0279 35.9775 71.9551 36.7064 72.5005 37.1156C72.5954 36.9547 72.693 36.7952 72.7925 36.6384C72.0539 36.0861 71.806 35.3539 71.806 35.3539L71.808 35.3532C71.8115 35.3499 71.8196 35.3402 71.8339 35.3285C71.9549 35.2146 72.4415 34.7194 72.7035 33.9514C72.8772 33.4378 72.9513 32.8017 72.7479 32.0763C72.7465 32.0756 72.7465 32.0756 72.7465 32.0756C72.7458 32.0736 72.7465 32.0723 72.7465 32.0723L75.5356 29.8743L75.4908 29.7959L75.2602 29.3975L75.2289 29.423L72.3358 31.8694C71.5822 31.3267 69.7399 31.6086 69.7399 31.6086C69.7399 31.6086 69.742 31.6011 69.7452 31.584C69.7459 31.5827 69.7459 31.5827 69.7465 31.5813C69.7465 31.5779 69.748 31.5751 69.7485 31.5703C69.7886 31.3892 69.9418 30.5794 69.6973 29.837C69.556 29.4062 69.2796 28.997 68.7705 28.7455C68.7705 28.7455 68.7705 28.7455 68.7724 28.7448C68.8356 28.6893 70.9004 26.9507 72.1224 26.4528C72.2675 26.3934 72.3998 26.3531 72.5145 26.3382L71.8301 26C71.7551 26.0311 71.6781 26.0663 71.6019 26.1035C70.138 26.8089 68.36 28.5426 68.36 28.5426C68.347 28.5345 68.334 28.5264 68.321 28.5183C68.3004 28.5047 68.2798 28.4912 68.2599 28.4796C68.1867 28.4349 68.0387 28.4588 67.8621 28.5265C67.4873 28.6716 66.9884 29.0126 66.8374 29.2838C66.8165 29.3228 66.7955 29.3618 66.7765 29.4001C66.7103 29.5237 66.6514 29.6496 66.5981 29.7782Z" fill="#FEDF43"/>
<path d="M66.4883 31.7382C66.5339 31.8596 66.5905 31.9795 66.6599 32.0973L66.6613 32.0979C66.6613 32.0979 66.6613 32.0979 66.662 32.1C66.673 32.1122 66.7478 32.2054 66.8857 32.3365C67.1819 32.6192 67.7645 33.0739 68.5861 33.2517C68.5861 33.2517 69.2685 32.591 69.7478 31.5693C69.7879 31.3882 69.9411 30.5784 69.6966 29.8359C69.7207 32.2064 68.0789 33.5647 66.4883 31.7382Z" fill="#F4CAAB"/>
<path d="M68.7246 33.3188C68.7246 33.3188 68.8097 33.543 68.9872 33.8454C68.9879 33.8474 68.99 33.8501 68.9927 33.8515C69.2088 34.2205 69.56 34.7023 70.0553 35.0338C70.5135 35.3403 71.0954 35.5172 71.8067 35.3527L71.8088 35.352C71.8122 35.3487 71.8204 35.339 71.8347 35.3273C71.9556 35.2134 72.4423 34.7182 72.7042 33.9502C72.8779 33.4366 72.952 32.8005 72.7486 32.0751C72.7493 32.0737 72.7472 32.0744 72.7472 32.0744C72.7504 32.1646 72.7975 34.3301 71.4622 34.6717C70.0982 35.0193 68.7246 33.3188 68.7246 33.3188Z" fill="#F4CAAB"/>
<path d="M71.5996 27.6155C71.5996 27.6155 73.1091 29.034 74.3011 28.5655L76.5242 24.0664L73.5268 25.0972L73.053 25.2599L71.9038 27.1239L71.5996 27.6155Z" fill="#FF9F8F"/>
<path d="M71.9043 27.1242C72.595 27.2186 73.7597 27.0329 75.173 25.4374L73.5272 25.0977L73.0534 25.2603L71.9043 27.1242Z" fill="#F4CAAB"/>
<path d="M74.0941 20.1074C74.0941 20.1074 69.2359 24.6589 71.5661 25.926C73.8962 27.1932 76.4716 25.3358 76.4716 25.3358L76.6666 22.3972L74.0941 20.1074Z" fill="#FF9F8F"/>
<path d="M77.8754 22.0081C79.6401 25.2136 75.8299 25.7186 75.8299 25.7186L75.3763 25.2692C74.9792 24.607 75.348 23.8998 75.348 23.8998C73.0819 23.7887 73.488 21.8987 72.2383 22.145C72.8352 19.4707 76.1106 18.8026 77.8754 22.0081Z" fill="#8E4539"/>
<path d="M75.4825 24.7268C74.9837 24.8846 74.6736 25.3109 74.7901 25.6788C74.9065 26.0469 75.4053 26.2172 75.9042 26.0594C76.403 25.9015 76.713 25.4753 76.5965 25.1073C76.4801 24.7394 75.9814 24.569 75.4825 24.7268Z" fill="#FF9F8F"/>
<path d="M63.5997 36.7285C65.5394 38.4739 65.6739 40.1636 70.7969 41.6454C70.5507 44.559 69.27 44.9595 69.27 44.9595C69.27 44.9595 70.1928 43.4851 69.8348 42.4113C69.4769 41.3375 64.8236 40.9796 64.8236 40.9796C64.8236 40.9796 64.3555 40.6441 64.4106 40.4539C64.4656 39.1899 63.3809 37.0066 63.3809 37.0066L63.5997 36.7285Z" fill="#FEDF43"/>
<path d="M76.3099 31.4453C76.6356 35.2522 75.2037 39.9056 75.2037 39.9056L72.698 45.9908L70.9082 45.2749L72.34 39.1897L72.6979 34.1785" fill="#FF9F8F"/>
<path d="M72.6989 44.916H71.6251C69.1194 45.6319 70.5513 46.3478 70.5513 46.3478C70.5513 46.3478 69.4775 47.0637 70.1933 48.4955C70.9091 49.9274 73.4148 48.1376 72.6989 44.916Z" fill="#FF9F8F"/>
<path d="M56.9925 57.3476L81.1297 43.6144L89.2795 29.4044L88.2031 28.7871L80.2217 42.7032L56.3789 56.269L56.9925 57.3476Z" fill="#FAB433"/>
<path d="M46.3435 52.3017L46.8403 45.0978C47.0328 42.3076 48.6055 39.8278 51.0472 38.4642L56.9247 35.1818C60.1305 33.392 64.182 33.9546 66.7783 36.5507L69.2757 39.0482L70.1531 38.1708L67.6556 35.6734C64.6692 32.6867 60.0075 32.039 56.3197 34.0984L50.4422 37.3807C47.633 38.9493 45.8238 41.8024 45.6023 45.0125L45.1055 52.2164L46.3435 52.3017Z" fill="#FAB433"/>
<path d="M88.7412 29.0955L80.6756 42.9517L56.4789 56.8081L40.3477 47.5016L64.5445 33.6453L72.4032 19.7891L88.7412 29.0955Z" fill="#FC4D91"/>
<path d="M66.4057 34.6785L74.2645 20.8223L76.229 21.9413L68.3305 35.8674L44.202 49.6846L42.209 48.5348L66.4057 34.6785Z" fill="#FFE6F1"/>
<path d="M77.7802 22.8223L79.7447 23.9412L71.8462 37.8673L47.7176 51.6846L45.7246 50.5348L69.9213 36.6785L77.7802 22.8223Z" fill="#FFE6F1"/>
<path d="M81.2958 24.8203L83.2603 25.9392L75.3618 39.8654L51.2331 53.6826L49.2402 52.5328L73.4369 38.6766L81.2958 24.8203Z" fill="#FFE6F1"/>
<path d="M84.8114 26.8203L86.7759 27.9392L78.8774 41.8654L54.7487 55.6826L52.7559 54.5328L76.9526 40.6766L84.8114 26.8203Z" fill="#FFE6F1"/>
<path d="M61.2341 61.1941L61.731 53.9903C61.9234 51.2002 63.4962 48.7203 65.9378 47.3567L71.8154 44.0743C75.0209 42.2845 79.0729 42.8472 81.6689 45.4432L84.1664 47.9407L85.0437 47.0633L82.5463 44.5659C79.5596 41.5791 74.8983 40.9318 71.2103 42.991L65.3328 46.2733C62.5237 47.842 60.7145 50.6951 60.493 53.9052L59.9961 61.1089L61.2341 61.1941Z" fill="#FAB433"/>
<path d="M69.0586 58.9952L79.8697 53.0352L90.5423 58.9952L79.8697 65.2324L69.0586 58.9952Z" fill="#F7D5E6"/>
<path d="M69.8071 49.8633V59.3438L69.0586 58.8448V49.8633H69.8071Z" fill="#61BAE3"/>
<path d="M69.8086 49.8633V59.3438L70.5571 58.8448V49.8633H69.8086Z" fill="#36A3C0"/>
<path d="M79.805 55.1953V64.6759L79.0566 64.177V55.1953H79.805Z" fill="#61BAE3"/>
<path d="M79.8047 55.1953V64.6759L80.5532 64.177V55.1953H79.8047Z" fill="#36A3C0"/>
<path d="M89.7954 49.4199V58.9005L89.0469 58.4015V49.4199H89.7954Z" fill="#36A3C0"/>
<path d="M69.0586 50.169V48.6444L79.8697 44.209L90.5423 48.6444V50.169L79.8697 56.4063L69.0586 50.169Z" fill="#36A3C0"/>
<path d="M69.0586 48.6436L79.8697 42.6836L90.5423 48.6436L79.8697 54.8808L69.0586 48.6436Z" fill="#61BAE3"/>
<path d="M89.7949 49.4199V58.9005L90.5434 58.4015V49.4199H89.7949Z" fill="#61BAE3"/>
<path d="M78.8731 50.5022C80.271 50.5022 81.4043 49.7842 81.4043 48.8985C81.4043 48.0129 80.271 47.2949 78.8731 47.2949C77.4751 47.2949 76.3418 48.0129 76.3418 48.8985C76.3418 49.7842 77.4751 50.5022 78.8731 50.5022Z" fill="#F7D5E6"/>
<path d="M80.4727 48.8399C80.4727 49.1986 80.1792 49.514 79.7365 49.6945C79.4864 49.7967 79.1885 49.8563 78.8688 49.8563C77.9836 49.8563 77.2656 49.4012 77.2656 48.8399C77.2656 48.835 77.2656 48.8293 77.2663 48.8242C77.2794 48.2699 77.9917 47.8242 78.8688 47.8242C79.1541 47.8242 79.4218 47.8713 79.6538 47.954C80.136 48.1258 80.4632 48.4506 80.472 48.8243C80.4727 48.8293 80.4727 48.835 80.4727 48.8399Z" fill="#4AAA80"/>
<path d="M79.3786 46.3985V47.1559C79.3786 47.1879 79.3755 47.2186 79.3692 47.2487C79.3517 47.3295 79.3121 47.4029 79.2569 47.4612C79.1761 47.5471 79.0607 47.6003 78.9335 47.6003C78.7128 47.6003 78.529 47.4399 78.4946 47.2285C78.4901 47.2047 78.4883 47.1809 78.4883 47.1558V46.3984H79.3786V46.3985Z" fill="#4AAA80"/>
<path d="M80.4727 48.6032V48.8239H77.2656V48.6032C77.2656 47.8915 77.8036 47.3052 78.4952 47.2288C78.5453 47.2238 78.5961 47.2207 78.6482 47.2207H79.0902C79.1861 47.2207 79.2795 47.2308 79.3699 47.2489C79.9993 47.3787 80.4727 47.9354 80.4727 48.6032Z" fill="#4AAA80"/>
<g opacity="0.17">
<path d="M80.4716 48.8232H80.471C80.4716 48.8282 80.4716 48.8338 80.4716 48.8389C80.4716 49.1976 80.1782 49.513 79.7355 49.6935C79.7405 49.5512 79.7499 49.1882 79.7418 48.8232C79.7348 48.4689 79.7116 48.1128 79.6527 47.9529C79.5856 47.773 79.4144 47.5955 79.2564 47.4607C79.0871 47.3159 78.9329 47.2199 78.9329 47.2199C78.9329 47.2199 78.941 47.1427 78.9329 46.9991C78.9266 46.892 78.6827 46.8223 78.5586 46.7935C78.9379 46.8574 79.3781 46.7559 79.3781 46.7559V47.1552C79.3781 47.1872 79.3749 47.2178 79.3686 47.248C79.9982 47.3778 80.4715 47.9346 80.4715 48.6022V48.8232H80.4716Z" fill="#15A0FF"/>
</g>
<path d="M81.4058 42.1641V44.2699C81.4058 44.8242 81.2279 45.3374 80.9267 45.7548C80.8267 45.8932 80.7131 46.0209 80.5887 46.1361C80.2556 46.4432 79.8398 46.6627 79.3785 46.7569C79.2347 46.7861 79.087 46.8034 78.935 46.8072C78.9129 46.8077 78.8907 46.8083 78.8679 46.8083C78.7387 46.8083 78.6122 46.7985 78.4878 46.7802C77.2672 46.5969 76.3301 45.5424 76.3301 44.27V42.1642L81.4058 42.1641Z" fill="#4AAA80"/>
<g opacity="0.09">
<path d="M81.4063 42.1641V44.2699C81.4063 44.8242 81.2284 45.3374 80.9272 45.7548C80.8272 45.8932 80.7136 46.0209 80.5892 46.1361C80.2561 46.4432 79.8403 46.6627 79.379 46.7569C79.2352 46.7861 79.0875 46.8034 78.9355 46.8072C80.0257 46.4173 79.6662 45.5964 79.7192 43.5902C79.7192 43.5902 80.4849 42.8423 81.2193 42.1642L81.4063 42.1641Z" fill="#15A0FF"/>
</g>
<path d="M78.8701 43.8859C80.2719 43.8859 81.4082 43.1659 81.4082 42.2779C81.4082 41.3898 80.2719 40.6699 78.8701 40.6699C77.4684 40.6699 76.332 41.3898 76.332 42.2779C76.332 43.1659 77.4684 43.8859 78.8701 43.8859Z" fill="#FFECC7"/>
<path d="M78.8694 43.8453C80.2535 43.8453 81.3755 43.1345 81.3755 42.2576C81.3755 41.3808 80.2535 40.6699 78.8694 40.6699C77.4853 40.6699 76.3633 41.3808 76.3633 42.2576C76.3633 43.1345 77.4853 43.8453 78.8694 43.8453Z" fill="#4EC8A4"/>
<path d="M78.8724 43.6166C80.0963 43.6166 81.0885 42.988 81.0885 42.2126C81.0885 41.4372 80.0963 40.8086 78.8724 40.8086C77.6484 40.8086 76.6562 41.4372 76.6562 42.2126C76.6562 42.988 77.6484 43.6166 78.8724 43.6166Z" fill="#FEDF43"/>
<path d="M81.0885 42.213C81.0885 42.4018 81.0295 42.5817 80.9236 42.746C80.5925 42.235 79.7987 41.8745 78.8727 41.8745C77.9466 41.8745 77.1529 42.235 76.8218 42.746C76.7153 42.5817 76.6562 42.4018 76.6562 42.213C76.6562 41.4375 77.6488 40.8086 78.8727 40.8086C80.0965 40.8085 81.0885 41.4375 81.0885 42.213Z" fill="#4AAA80"/>
<path d="M82.0232 44.6835C82.0232 44.6837 82.0228 44.6837 82.0228 44.6837L82.023 44.6839L81.8562 44.7735L81.8319 44.7866L81.6364 44.8917L81.621 44.8999C81.549 44.9219 81.4733 44.9323 81.3947 44.9318H81.3903C81.3655 44.9313 81.3403 44.9299 81.315 44.9274C81.3041 44.9266 81.2937 44.925 81.2829 44.9235L81.1441 44.6652L81.0702 44.5274L81.0652 44.5181L80.9457 44.2953L80.9374 44.2804L80.689 43.8174L80.644 43.7337L80.6355 43.7178V42.9748L80.332 43.1524L80.331 43.1505L80.3109 43.1129L80.0172 42.5658L79.9736 42.4846L79.9078 42.3622L79.8863 42.3221L79.7803 42.1241L79.7618 42.0894L79.6792 41.9356L79.5625 41.7183L79.5469 41.6896C79.6136 41.5633 79.705 41.4614 79.8203 41.3921L79.8776 41.3615L80.0423 41.273L80.1463 41.2171C80.1504 41.2149 80.1547 41.2126 80.1586 41.2103C80.717 40.9105 81.5874 41.445 82.1021 42.404C82.617 43.3634 82.5817 44.3838 82.0232 44.6835Z" fill="#4AAA80"/>
<path d="M81.8507 44.7713C81.8447 44.7762 81.8385 44.7812 81.8323 44.7859C81.8028 44.8087 81.7713 44.8291 81.7381 44.8469C81.7052 44.8646 81.6715 44.8793 81.6368 44.891C81.629 44.894 81.6212 44.8963 81.6132 44.8988C81.5435 44.9202 81.4709 44.9307 81.3951 44.931H81.3907C81.3622 44.931 81.3332 44.9296 81.3041 44.9267C81.2931 44.9257 81.2827 44.9242 81.2718 44.9228C81.0672 44.8959 80.8491 44.8019 80.636 44.6519V42.9739L80.3324 43.1515L79.8539 43.4319L79.8522 43.4292L79.8508 43.43L79.71 43.5122C79.3766 42.8237 79.3214 42.1216 79.5347 41.6864C79.5393 41.6765 79.5442 41.6671 79.5494 41.6574C79.6168 41.5299 79.7091 41.4271 79.8254 41.3568C79.8354 41.3511 79.8451 41.3453 79.8554 41.3399C79.8644 41.3351 79.8739 41.3303 79.8834 41.3259C79.9343 41.3015 79.9877 41.2837 80.043 41.2721C80.6002 41.1553 81.3528 41.6784 81.818 42.5452C82.3008 43.4448 82.3041 44.3975 81.8507 44.7713Z" fill="#4EC8A4"/>
<path d="M81.6919 42.6139C81.6522 42.5402 81.6104 42.4693 81.5664 42.4017L81.5648 42.399C81.5615 42.394 81.5584 42.3894 81.5551 42.3846C81.3056 42.0056 80.9935 41.7259 80.6893 41.5887C80.6817 41.5853 80.6743 41.5819 80.6668 41.5789C80.4216 41.474 80.183 41.4624 79.9877 41.5672C79.8466 41.6429 79.7439 41.7713 79.6796 41.9356C79.6757 41.9455 79.672 41.9553 79.6686 41.9654C79.664 41.978 79.6599 41.9909 79.656 42.0038C79.6312 42.0834 79.6145 42.1701 79.606 42.2626C79.6048 42.2755 79.6038 42.2887 79.603 42.3018C79.5821 42.6241 79.6578 43.0089 79.8328 43.3925C79.8359 43.3993 79.839 43.4061 79.8423 43.4129C79.845 43.4188 79.8476 43.4248 79.8507 43.4308L79.8521 43.4299L79.8538 43.4326L80.3323 43.1523L80.6359 42.9746V44.4214C80.6388 44.4236 80.6414 44.4257 80.6443 44.4275C80.6517 44.4331 80.6593 44.4384 80.6667 44.4436C80.8027 44.5393 80.9407 44.6085 81.0751 44.6477C81.088 44.6512 81.101 44.6547 81.1139 44.658C81.1242 44.6607 81.1342 44.6629 81.1444 44.6652C81.2752 44.6936 81.4014 44.6918 81.5161 44.6564C81.5233 44.6543 81.5305 44.6519 81.5375 44.6494C81.5666 44.6393 81.595 44.6268 81.6223 44.612C81.8721 44.478 82.0025 44.1799 82.0105 43.8081C82.0107 43.7994 82.0109 43.7907 82.0107 43.7818C82.0129 43.4302 81.9076 43.0158 81.6919 42.6139Z" fill="#FEDF43"/>
<path d="M82.0228 43.7895L82.0109 43.8083L81.9988 43.8275L80.7385 43.0248L81.558 44.6393L81.5379 44.6496L81.518 44.6597L81.5165 44.6565L80.6897 43.028V44.4438H80.6447V42.97L80.6363 42.975L80.3328 43.1526L79.8543 43.4329L79.8526 43.4302L79.8428 43.4132L79.8314 43.3941L79.8333 43.3928L80.3116 43.1131L80.6061 42.9406L80.0179 42.566L79.6035 42.3021L79.5879 42.2923L79.6065 42.2629L79.6121 42.2543L79.9744 42.4849L80.6242 42.8987L79.9602 41.5907L80.0002 41.5703L80.6447 42.8402V41.5792H80.6897V42.8918L81.5555 42.3849L81.5566 42.3843L81.5653 42.3993L81.5669 42.4019L81.5793 42.4228L80.6956 42.9402L80.6988 42.9461L82.0111 43.7821L82.0228 43.7895Z" fill="#D27855"/>
</svg>
