<svg width="512" height="132" viewBox="0 0 615 159" fill="none" xmlns="http://www.w3.org/2000/svg">
<path d="M3.03906 124.307L50.0886 97.8398L106.076 129.745L59.1548 156.803L3.03906 124.307Z" fill="#3B495C"/>
<path d="M106.076 129.746V131.944L59.1543 159.001V156.803L106.076 129.746Z" fill="#233143"/>
<path d="M3.03906 124.307V126.505L59.1548 159V156.802L3.03906 124.307Z" fill="#233143"/>
<path d="M50.6332 73.3633L10.4199 96.1934V123.15L50.6332 100.027V73.3633Z" fill="#C6C3C1"/>
<path d="M12.7361 96.6875L11.123 97.6014V124.563L12.7361 123.635V96.6875Z" fill="#FBAD32"/>
<path opacity="0.5" d="M23.3063 104.168L11.9277 110.712V113.609L25.8424 105.612L23.3063 104.168Z" fill="white"/>
<path opacity="0.5" d="M26.8843 106.201L11.9277 114.801V115.642L27.62 106.617L26.8843 106.201Z" fill="white"/>
<path opacity="0.5" d="M11.9277 97.7109V98.666L12.764 98.1862L11.9277 97.7109Z" fill="white"/>
<path opacity="0.5" d="M11.9277 124.096L30.1973 134.597V108.083L30.1105 108.033L11.9277 118.484V124.096Z" fill="white"/>
<path opacity="0.5" d="M28.141 106.914L11.9277 116.236V117.89L29.585 107.737L28.141 106.914Z" fill="white"/>
<path d="M41.8172 99.0491V98.4551L27.6191 106.617L28.1401 106.914L41.8172 99.0491Z" fill="white"/>
<path opacity="0.8" d="M27.62 106.617L11.9277 115.642V116.236L28.141 106.914L27.62 106.617Z" fill="white"/>
<path d="M41.9607 100.621L29.5859 107.736L30.1115 108.033L41.9607 101.215V100.621Z" fill="white"/>
<path opacity="0.8" d="M11.9277 117.89V118.484L30.1105 108.033L29.585 107.736L11.9277 117.89Z" fill="white"/>
<path d="M41.8174 97.6146V96.4219L25.8418 105.612L26.8837 106.201L41.8174 97.6146Z" fill="white"/>
<path opacity="0.8" d="M25.8424 105.611L11.9277 113.608V114.801L26.8843 106.201L25.8424 105.611Z" fill="white"/>
<path d="M35.6212 97.0848V85.0391L12.7637 98.1861L23.3059 104.168L35.6212 97.0848Z" fill="white"/>
<path opacity="0.8" d="M12.764 98.1855L11.9277 98.6654V110.711L23.3063 104.167L12.764 98.1855Z" fill="white"/>
<path d="M99.4047 102.445L59.1914 125.275V152.232L99.4047 129.109V102.445Z" fill="#FBAD32"/>
<path d="M40.5936 112.736L38.9805 113.655V140.611L40.5936 139.684V112.736Z" fill="#FBAD32"/>
<path d="M11.1511 97.999L9.69336 97.1719V123.767L11.1511 124.608V97.999Z" fill="#FBAD32"/>
<path d="M29.6621 108.51V135.252L38.9797 140.612V113.801L29.6621 108.51Z" fill="#FBAD32"/>
<path opacity="0.5" d="M53.5799 121.445L39.9531 129.282V130.119L54.3157 121.861L53.5799 121.445Z" fill="white"/>
<path opacity="0.5" d="M54.8366 122.158L39.9531 130.713V132.367L56.2852 122.976L54.8366 122.158Z" fill="white"/>
<path opacity="0.5" d="M50.0019 119.412L39.9531 125.188V128.09L52.538 120.852L50.0019 119.412Z" fill="white"/>
<path opacity="0.5" d="M39.9531 140.09L58.2182 150.591V124.078L56.8061 123.273L39.9531 132.966V140.09Z" fill="white"/>
<path opacity="0.8" d="M54.3157 121.861L39.9531 130.119V130.713L54.8366 122.158L54.3157 121.861Z" fill="white"/>
<path opacity="0.8" d="M39.9531 132.367V132.966L56.8061 123.274L56.2852 122.977L39.9531 132.367Z" fill="white"/>
<path opacity="0.8" d="M52.538 120.852L39.9531 128.09V129.283L53.5799 121.446L52.538 120.852Z" fill="white"/>
<path opacity="0.8" d="M39.9531 113.705V125.189L50.0019 119.413L39.9531 113.705Z" fill="white"/>
<path d="M49.1786 119.002L48.6074 118.678V145.059L49.1786 145.388V119.002Z" fill="#888D9A"/>
<path d="M57.2344 124.166V151.109L59.1902 152.233V125.276L57.2344 124.166Z" fill="#FBAD32"/>
<path d="M59.1906 125.889L56.1289 118.678L99.4038 93.8281V103.086L59.1906 125.889Z" fill="#BECCC6"/>
<path d="M99.4053 93.8271L53.4891 120.468L9.74805 95.687L55.5866 69L99.4053 93.8271Z" fill="white"/>
<path d="M93.9581 94.655L95.4707 93.7822L55.8241 70.8652L16.7441 93.5355L18.3618 94.4905L55.9292 72.6977L93.9581 94.655Z" fill="#7C8982"/>
<path d="M93.9569 94.6546L55.928 72.6973L23.4375 91.5427L61.4116 113.473L93.9569 94.6546Z" fill="#A2AAA6"/>
<path d="M56.3263 116.416L61.4123 113.473L23.4383 91.543L18.3613 94.4904L56.3263 116.416Z" fill="#8C9993"/>
<path d="M10.1502 88.498V89.1881L3.03516 93.2962V92.6062L10.1502 88.498Z" fill="#243954"/>
<path d="M10.1502 94.9648V95.6594L3.03516 99.7676V99.073L10.1502 94.9648Z" fill="#243954"/>
<path d="M8.7832 87.3145L58.2866 115.418V126.399L8.7832 97.9344V87.3145Z" fill="#243954"/>
<path d="M9.69257 86.8262L8.7832 87.3151L58.2866 115.419L59.1914 114.93L9.69257 86.8262Z" fill="#243954"/>
<path d="M58.2871 126.4L59.1919 125.911V114.93L58.2871 115.419V126.4Z" fill="#243954"/>
<path d="M31.8594 118.782L37.4572 122.012V120.152L31.8594 117.004V118.782Z" fill="white"/>
<path d="M54.2155 138.762L50.8613 136.842V130.879L54.2155 132.798V138.762Z" fill="#243954"/>
<path d="M53.8908 133.104L51.1855 131.555V131.92L53.8908 133.469V133.104Z" fill="white"/>
<path d="M53.8908 133.84L51.1855 132.291V132.661L53.8908 134.21V133.84Z" fill="white"/>
<path d="M51.3223 134.252C51.3223 133.731 51.5279 133.544 51.8112 133.708C52.0945 133.873 52.3002 134.298 52.3002 134.819C52.3002 135.344 52.0945 135.536 51.8112 135.372C51.5233 135.207 51.3223 134.778 51.3223 134.252ZM51.9894 134.641C51.9894 134.27 51.9072 134.097 51.8067 134.037C51.7061 133.978 51.6284 134.06 51.6284 134.43C51.6284 134.805 51.7107 134.983 51.8067 135.043C51.9072 135.097 51.9894 135.011 51.9894 134.641ZM51.8798 136.464L52.9399 134.362L53.1913 134.508L52.1357 136.615L51.8798 136.464ZM52.7663 136.139C52.7663 135.618 52.9765 135.431 53.2552 135.596C53.5386 135.76 53.7442 136.185 53.7442 136.706C53.7442 137.232 53.5386 137.423 53.2552 137.259C52.9719 137.094 52.7663 136.665 52.7663 136.139ZM53.438 136.528C53.438 136.153 53.3558 135.984 53.2598 135.925C53.1593 135.865 53.077 135.943 53.077 136.318C53.077 136.692 53.1593 136.871 53.2598 136.93C53.3558 136.985 53.438 136.903 53.438 136.528Z" fill="white"/>
<path d="M47.2188 130.316L45.2676 129.201V125.729L47.2188 126.844V130.316Z" fill="#243954"/>
<path d="M28.0859 127.395L21.1445 123.42V111.072L28.0859 115.048V127.395Z" fill="#243954"/>
<path d="M27.6697 117.278L21.7383 113.883V114.573L27.6697 117.968V117.278Z" fill="white"/>
<path d="M27.6697 116.04L21.7383 112.645V113.335L27.6697 116.73V116.04Z" fill="white"/>
<path d="M8.36203 87.2891L0.662109 91.6623V102.643L8.36203 98.2152V87.2891Z" fill="#243954"/>
<path d="M8.36203 92.123L0.662109 96.4962V97.1497L8.36203 92.7262V92.123Z" fill="white"/>
<path d="M8.36203 93.6035L0.662109 97.9721V98.6302L8.36203 94.2021V93.6035Z" fill="white"/>
<path d="M8.36203 95.0117L0.662109 99.3849V100.038L8.36203 95.6103V95.0117Z" fill="white"/>
<path d="M0 102.25L0.662605 102.643V91.6625L0 91.2695V102.25Z" fill="#243954"/>
<path d="M8.36253 87.2888L7.69992 86.9004L0 91.269L0.662605 91.662L8.36253 87.2888Z" fill="#243954"/>
<rect x="166" width="449" height="110" rx="18" fill="#006DB7"/>
<path d="M110 102L221.5 66.026L189.5 42L110 102Z" fill="#006DB7"/>
<rect x="191.048" y="34.0476" width="41.9048" height="41.9048" rx="20.9524" fill="#FFB600"/>
<rect x="191.048" y="34.0476" width="41.9048" height="41.9048" rx="20.9524" stroke="white" stroke-width="2.09524"/>
<g clip-path="url(#clip0_171_61376)">
<path d="M200.375 63.3886C200.375 63.4261 200.379 63.4599 200.39 63.4936C200.39 63.5049 200.398 63.5161 200.401 63.5274C200.413 63.5574 200.431 63.5874 200.454 63.6136C200.458 63.6211 200.461 63.6249 200.465 63.6324C200.465 63.6324 200.469 63.6324 200.472 63.6361C200.499 63.6661 200.529 63.6924 200.566 63.7111C202.205 64.5699 206.255 66.0661 206.424 66.1261C206.439 66.1299 206.45 66.1299 206.465 66.1336C206.472 66.1336 206.48 66.1411 206.491 66.1449C206.589 66.1599 206.713 66.1674 206.855 66.1674C209.938 66.1674 222.789 62.5411 223.359 62.3799C223.531 62.3311 223.644 62.1624 223.621 61.9824C223.014 57.2236 221.375 49.4574 221.36 49.3786C221.36 49.3749 221.356 49.3711 221.356 49.3674C221.345 49.3299 221.33 49.2961 221.311 49.2624C221.308 49.2549 221.304 49.2474 221.3 49.2436C221.278 49.2099 221.244 49.1799 221.21 49.1574C221.195 49.1461 221.176 49.1386 221.157 49.1311C221.142 49.1236 221.128 49.1124 221.109 49.1086L217.625 48.0849C216.267 45.0474 214.318 43.5849 211.989 43.8586C211.501 43.9149 211.051 44.0499 210.642 44.2561C210.436 44.2186 210.222 44.1961 210.001 44.1924C208.899 44.1811 207.961 44.6161 207.226 45.4824C206.341 46.5136 205.786 48.1674 205.561 50.3911C203.615 50.7361 202.186 50.9799 202.164 50.9836C202.149 50.9836 202.141 50.9949 202.126 50.9986C202.119 50.9986 202.107 50.9986 202.1 50.9986C202.089 50.9986 202.081 51.0099 202.074 51.0174C202.044 51.0324 202.018 51.0474 201.995 51.0661C201.98 51.0774 201.969 51.0886 201.957 51.1036C201.935 51.1261 201.92 51.1524 201.905 51.1824C201.901 51.1936 201.89 51.2011 201.886 51.2124C201.159 53.1249 200.409 62.9461 200.379 63.3624V63.3661V63.3849L200.375 63.3886ZM206.533 50.9574C206.574 50.9499 206.615 50.9424 206.66 50.9349C207.151 50.8449 207.661 50.7549 208.182 50.6574C208.197 51.0436 208.227 51.4411 208.273 51.8536C206.499 52.1986 205.344 52.3899 204.837 52.4199L203.281 51.5274C204.054 51.3924 205.213 51.1936 206.536 50.9536L206.533 50.9574ZM208.16 49.9224C207.995 49.9524 207.83 49.9824 207.665 50.0124C207.823 48.8986 208.081 48.0099 208.422 47.3911C208.246 48.1261 208.156 48.9736 208.156 49.9224H208.16ZM203.416 61.4686L205.674 65.0724C204.504 64.6261 202.584 63.8761 201.38 63.3061L203.42 61.4724L203.416 61.4686ZM203.859 60.8049V52.7011L204.406 53.0161C204.552 54.4261 205.201 60.4861 205.749 63.8236L203.859 60.8086V60.8049ZM202.438 51.8874L203.131 52.2849V60.7486L201.17 62.5149C201.361 60.1749 201.905 53.9724 202.434 51.8874H202.438ZM206.806 65.4511C206.405 64.1761 205.606 57.5086 205.145 53.1286C205.76 53.0611 206.803 52.8849 208.351 52.5811C208.475 53.4549 208.621 54.1336 208.707 54.5049C208.831 54.9849 209.262 55.3224 209.757 55.3224C209.847 55.3224 209.938 55.3111 210.024 55.2886C210.597 55.1424 210.954 54.5574 210.811 53.9761C210.688 53.4774 210.568 52.8174 210.477 52.1499C212.142 51.8049 214.108 51.3849 216.331 50.8899C216.519 51.5536 216.68 52.2474 216.796 52.9111C216.796 52.9261 216.8 52.9374 216.804 52.9486C216.845 53.2336 216.995 53.4849 217.227 53.6574C217.46 53.8299 217.741 53.9049 218.03 53.8599C218.319 53.8186 218.57 53.6649 218.743 53.4324C218.915 53.1999 218.986 52.9149 218.945 52.6299C218.93 52.5211 218.791 51.6099 218.454 50.4099C219.481 50.1774 220.287 49.9936 220.722 49.8924C221.045 51.4449 222.305 57.6174 222.856 61.7649C218.761 62.9161 208.955 65.5261 206.802 65.4399L206.806 65.4511ZM211.805 46.1161C211.839 46.1049 211.869 46.0899 211.903 46.0824C212.007 46.0524 212.12 46.0261 212.236 46.0111C212.263 46.0111 212.292 46.0111 212.319 46.0074C212.911 46.6636 213.395 47.6049 213.755 48.8161C213.736 48.8199 213.714 48.8236 213.695 48.8311C213.523 48.8686 213.342 48.9061 213.159 48.9474C212.773 47.6799 212.236 46.7724 211.565 46.2286C211.58 46.2211 211.591 46.2136 211.602 46.2061C211.666 46.1724 211.734 46.1461 211.805 46.1199V46.1161ZM210.403 51.4261C210.365 51.0286 210.339 50.6349 210.331 50.2524C211.318 50.0611 212.199 49.8849 212.971 49.7236H212.979C213.069 49.7049 213.155 49.6861 213.245 49.6674C213.372 49.6411 213.492 49.6149 213.612 49.5886C213.627 49.5886 213.642 49.5811 213.657 49.5774C213.815 49.5436 213.969 49.5099 214.115 49.4761C214.171 49.4649 214.231 49.4499 214.287 49.4386C214.842 49.3149 215.319 49.2024 215.709 49.1011C215.851 49.4349 215.99 49.7986 216.118 50.1886C213.95 50.6724 212.03 51.0849 210.399 51.4224L210.403 51.4261ZM214.464 48.6586C214.171 47.6649 213.8 46.8286 213.35 46.1574C214.111 46.4724 214.801 47.2374 215.401 48.4336C215.127 48.5011 214.813 48.5761 214.46 48.6586H214.464ZM211.003 46.7424C211.003 46.7424 211.014 46.7311 211.017 46.7236C211.599 47.1474 212.086 47.9574 212.443 49.0936C211.805 49.2249 211.1 49.3636 210.328 49.5136C210.369 48.2799 210.597 47.3236 211.003 46.7424ZM218.24 49.7236C218.154 49.4611 218.068 49.2024 217.974 48.9511L219.575 49.4236C219.193 49.5099 218.743 49.6149 218.244 49.7274L218.24 49.7236ZM212.071 44.5861C212.229 44.5674 212.382 44.5599 212.536 44.5599C214.378 44.5599 215.885 45.8949 217.029 48.5386C217.257 49.0786 217.468 49.6599 217.651 50.2599C218.052 51.5874 218.21 52.6299 218.225 52.7461C218.24 52.8399 218.214 52.9336 218.157 53.0124C218.101 53.0874 218.019 53.1399 217.921 53.1511C217.827 53.1661 217.737 53.1399 217.659 53.0836C217.584 53.0274 217.535 52.9449 217.52 52.8474C217.52 52.8361 217.513 52.8061 217.513 52.7949C217.374 51.9886 217.175 51.1486 216.935 50.3574C216.721 49.6674 216.5 49.0711 216.249 48.5274C215.266 46.3674 214.01 45.2724 212.517 45.2724C212.499 45.2724 212.484 45.2724 212.465 45.2724C212.364 45.2649 212.255 45.2799 212.15 45.2911C211.554 45.3624 211.055 45.5986 210.68 45.9924C210.68 45.9924 210.68 45.9924 210.676 45.9961C210.579 46.0936 210.489 46.2061 210.403 46.3261C209.859 47.1099 209.585 48.3324 209.589 49.9561C209.589 50.5824 209.634 51.2386 209.712 51.9061C209.806 52.7049 209.953 53.5449 210.106 54.1486C210.151 54.3399 210.035 54.5311 209.847 54.5799C209.671 54.6249 209.461 54.5086 209.413 54.3099C209.341 53.9986 209.158 53.1624 209.023 52.1011C208.94 51.4374 208.895 50.8036 208.884 50.2149C208.85 48.5386 209.094 47.2111 209.604 46.2699C209.682 46.1236 209.746 46.0186 209.818 45.9174C209.889 45.8124 209.968 45.7149 210.046 45.6211C210.286 45.3436 210.564 45.1186 210.868 44.9499C211.227 44.7549 211.629 44.6274 212.071 44.5786V44.5861ZM207.774 45.9586C208.299 45.3399 208.944 44.9986 209.698 44.9349C209.653 44.9799 209.611 45.0286 209.566 45.0774C209.536 45.1111 209.506 45.1411 209.476 45.1749C209.386 45.2799 209.3 45.3924 209.217 45.5086C209.18 45.5611 209.142 45.6211 209.105 45.6811C209.094 45.6999 209.083 45.7186 209.071 45.7374C209.056 45.7636 209.041 45.7861 209.026 45.8124C208.715 45.9474 208.434 46.1611 208.182 46.4499C207.549 47.1924 207.121 48.4374 206.908 50.1549C206.758 50.1811 206.611 50.2074 206.461 50.2374C206.405 50.2486 206.349 50.2561 206.293 50.2674C206.51 48.3211 207.016 46.8399 207.77 45.9624L207.774 45.9586Z" fill="white"/>
<path d="M216.514 57.3254C216.158 57.0217 215.64 56.8567 214.984 56.8267L213.975 56.7854C213.645 56.7704 213.552 56.7104 213.54 56.7029C213.529 56.6954 213.507 56.6804 213.507 56.5979C213.507 56.5154 213.518 56.3879 213.668 56.2417C213.799 56.1142 214.005 56.0204 214.275 55.9717C214.515 55.9267 214.714 55.9117 214.868 55.9304C215.033 55.9492 215.19 55.9792 215.322 56.0204C215.558 56.0954 215.775 56.0992 215.967 56.0279C216.15 55.9604 216.297 55.8442 216.402 55.6867C216.499 55.5442 216.555 55.3867 216.574 55.2142C216.593 55.0304 216.559 54.8579 216.473 54.6967C216.383 54.5242 216.24 54.3967 216.072 54.3254C215.82 54.1979 215.532 54.1154 215.213 54.0817C215.13 54.0742 215.052 54.0667 214.969 54.0629L214.958 53.8904C214.943 53.6467 214.842 53.4404 214.658 53.2942C214.474 53.1479 214.249 53.0954 214.009 53.1367C213.777 53.1779 213.578 53.2942 213.432 53.4779C213.285 53.6617 213.21 53.8754 213.222 54.1042L213.233 54.3854C212.978 54.4904 212.745 54.6217 212.543 54.7754C212.198 55.0342 211.924 55.3454 211.729 55.7054C211.527 56.0804 211.425 56.4892 211.425 56.9204C211.425 57.5129 211.605 57.9854 211.954 58.3192C212.299 58.6492 212.809 58.8292 213.469 58.8592L214.5 58.9042C214.718 58.9117 214.838 58.9379 214.902 58.9642C214.984 58.9942 215.003 59.0204 215.007 59.0242C215.025 59.0542 215.04 59.0954 215.044 59.1517C215.052 59.2342 215.033 59.3092 214.995 59.3842C214.954 59.4592 214.875 59.5379 214.759 59.6092C214.624 59.6954 214.433 59.7629 214.185 59.8117C213.837 59.8829 213.54 59.8979 213.304 59.8642C213.057 59.8267 212.865 59.7817 212.734 59.7292C212.415 59.6092 212.172 59.6692 212.022 59.7404C211.834 59.8304 211.68 59.9692 211.568 60.1567C211.463 60.3329 211.399 60.5242 211.38 60.7267C211.362 60.9367 211.392 61.1354 211.47 61.3229C211.564 61.5442 211.74 61.7054 211.969 61.7879C212.22 61.8892 212.524 61.9604 212.892 62.0092C213.079 62.0354 213.282 62.0392 213.503 62.0317L213.514 62.3242C213.525 62.6092 213.627 62.8529 213.814 63.0292C213.972 63.1792 214.17 63.2579 214.384 63.2579C214.448 63.2579 214.512 63.2504 214.575 63.2392C214.842 63.1829 215.063 63.0292 215.217 62.7892C215.359 62.5679 215.427 62.3204 215.408 62.0542L215.382 61.5967C215.674 61.4579 215.937 61.2854 216.162 61.0904C216.51 60.7904 216.777 60.4304 216.953 60.0217C217.129 59.6167 217.197 59.1742 217.155 58.7129C217.103 58.1167 216.885 57.6554 216.51 57.3367L216.514 57.3254ZM216.289 59.7179C216.154 60.0254 215.955 60.2954 215.689 60.5242C215.464 60.7192 215.187 60.8842 214.872 61.0117C214.725 61.0717 214.635 61.2142 214.647 61.3679L214.688 62.0767C214.695 62.1892 214.669 62.2867 214.609 62.3767C214.545 62.4742 214.478 62.4967 214.429 62.5079C214.358 62.5229 214.335 62.5042 214.317 62.4854C214.287 62.4592 214.249 62.4067 214.242 62.2829L214.219 61.6117C214.219 61.5104 214.17 61.4129 214.092 61.3492C214.024 61.2929 213.942 61.2629 213.855 61.2629C213.84 61.2629 213.825 61.2629 213.81 61.2629C213.495 61.3004 213.222 61.3042 212.989 61.2742C212.685 61.2329 212.434 61.1729 212.228 61.0942C212.164 61.0717 212.149 61.0454 212.138 61.0192C212.108 60.9479 212.097 60.8654 212.104 60.7754C212.112 60.6817 212.138 60.5992 212.187 60.5204C212.228 60.4529 212.273 60.4117 212.333 60.3817C212.363 60.3667 212.412 60.3704 212.464 60.3929C212.644 60.4642 212.884 60.5242 213.192 60.5692C213.51 60.6179 213.889 60.5992 214.32 60.5129C214.658 60.4454 214.928 60.3479 215.138 60.2129C215.363 60.0704 215.528 59.9017 215.629 59.7142C215.73 59.5192 215.775 59.3129 215.76 59.0954C215.749 58.9079 215.693 58.7392 215.595 58.6004C215.494 58.4504 215.337 58.3417 215.134 58.2704C214.969 58.2104 214.763 58.1804 214.515 58.1729L213.488 58.1279C213.012 58.1092 212.659 57.9929 212.445 57.7904C212.243 57.5954 212.142 57.3104 212.142 56.9167C212.142 56.6017 212.213 56.3167 212.359 56.0467C212.505 55.7767 212.708 55.5479 212.97 55.3492C213.18 55.1917 213.428 55.0642 213.713 54.9704C213.867 54.9179 213.968 54.7754 213.96 54.6142L213.942 54.0704C213.942 54.0179 213.957 53.9729 213.994 53.9279C214.032 53.8829 214.073 53.8567 214.129 53.8492C214.178 53.8417 214.189 53.8492 214.2 53.8567C214.212 53.8679 214.227 53.8754 214.227 53.9242L214.257 54.4454C214.268 54.6442 214.44 54.7979 214.639 54.7867C214.819 54.7754 214.973 54.7792 215.13 54.7979C215.359 54.8204 215.562 54.8804 215.753 54.9742C215.809 54.9967 215.82 55.0229 215.828 55.0342C215.847 55.0679 215.854 55.1017 215.847 55.1392C215.843 55.1917 215.824 55.2367 215.794 55.2817C215.779 55.3042 215.757 55.3267 215.708 55.3492C215.697 55.3529 215.652 55.3642 215.539 55.3304C215.355 55.2742 215.157 55.2367 214.943 55.2142C214.718 55.1917 214.455 55.2067 214.144 55.2629C213.728 55.3379 213.398 55.4954 213.162 55.7242C212.903 55.9754 212.772 56.2867 212.779 56.6204C212.79 56.9879 212.97 57.1942 213.117 57.2992C213.3 57.4304 213.559 57.4979 213.942 57.5167L214.95 57.5579C215.445 57.5804 215.813 57.6929 216.045 57.8879C216.27 58.0792 216.402 58.3679 216.435 58.7729C216.465 59.1179 216.417 59.4292 216.289 59.7254V59.7179Z" fill="white"/>
</g>
<path d="M262.141 35.2891C262.055 34.4827 261.692 33.8549 261.052 33.4055C260.418 32.9562 259.593 32.7315 258.577 32.7315C257.863 32.7315 257.251 32.8393 256.74 33.0547C256.229 33.2701 255.838 33.5625 255.567 33.9318C255.297 34.3011 255.158 34.7228 255.152 35.1967C255.152 35.5907 255.241 35.9323 255.42 36.2216C255.604 36.5109 255.854 36.7571 256.168 36.9602C256.482 37.1572 256.829 37.3234 257.211 37.4588C257.593 37.5942 257.977 37.7081 258.365 37.8004L260.138 38.2436C260.852 38.4098 261.538 38.6345 262.197 38.9176C262.862 39.2008 263.455 39.5578 263.979 39.9886C264.508 40.4195 264.927 40.9396 265.234 41.549C265.542 42.1584 265.696 42.8724 265.696 43.6911C265.696 44.799 265.413 45.7746 264.847 46.6179C264.28 47.455 263.462 48.1106 262.391 48.5845C261.326 49.0523 260.036 49.2862 258.522 49.2862C257.051 49.2862 255.774 49.0585 254.69 48.603C253.613 48.1475 252.77 47.4827 252.161 46.6087C251.557 45.7346 251.231 44.6697 251.182 43.4141H254.552C254.601 44.0727 254.804 44.6205 255.161 45.0575C255.518 45.4946 255.983 45.8208 256.555 46.0362C257.134 46.2517 257.78 46.3594 258.494 46.3594C259.239 46.3594 259.892 46.2486 260.452 46.027C261.018 45.7992 261.461 45.4853 261.781 45.0852C262.101 44.679 262.264 44.205 262.271 43.6634C262.264 43.1709 262.12 42.7647 261.837 42.4446C261.554 42.1184 261.156 41.8475 260.646 41.6321C260.141 41.4105 259.55 41.2135 258.873 41.0412L256.722 40.4872C255.164 40.0871 253.933 39.4808 253.028 38.6683C252.13 37.8497 251.68 36.7633 251.68 35.4091C251.68 34.295 251.982 33.3194 252.585 32.4822C253.195 31.6451 254.022 30.9957 255.069 30.5341C256.115 30.0663 257.3 29.8324 258.624 29.8324C259.965 29.8324 261.141 30.0663 262.151 30.5341C263.166 30.9957 263.963 31.639 264.542 32.4638C265.121 33.2824 265.419 34.2242 265.438 35.2891H262.141ZM272.683 49.2862C271.784 49.2862 270.975 49.1262 270.255 48.8061C269.541 48.4799 268.974 47.9998 268.556 47.3658C268.144 46.7318 267.937 45.95 267.937 45.0206C267.937 44.2204 268.085 43.5587 268.381 43.0355C268.676 42.5123 269.079 42.0938 269.59 41.7798C270.101 41.4659 270.676 41.2289 271.317 41.0689C271.963 40.9027 272.631 40.7827 273.32 40.7088C274.151 40.6226 274.825 40.5457 275.342 40.478C275.859 40.4041 276.235 40.2933 276.469 40.1456C276.709 39.9917 276.829 39.7547 276.829 39.4347V39.3793C276.829 38.6837 276.622 38.1451 276.21 37.7635C275.798 37.3819 275.204 37.1911 274.428 37.1911C273.609 37.1911 272.96 37.3696 272.48 37.7266C272.006 38.0836 271.686 38.5052 271.52 38.9915L268.399 38.5483C268.645 37.6866 269.051 36.9664 269.618 36.3878C270.184 35.803 270.876 35.366 271.695 35.0767C272.514 34.7812 273.419 34.6335 274.41 34.6335C275.093 34.6335 275.773 34.7135 276.45 34.8736C277.127 35.0336 277.746 35.2983 278.306 35.6676C278.866 36.0308 279.315 36.5263 279.654 37.1541C279.999 37.782 280.171 38.5668 280.171 39.5085V49H276.958V47.0518H276.847C276.644 47.4458 276.358 47.8151 275.988 48.1598C275.625 48.4983 275.167 48.7723 274.613 48.9815C274.065 49.1847 273.422 49.2862 272.683 49.2862ZM273.551 46.8303C274.222 46.8303 274.804 46.6979 275.296 46.4332C275.788 46.1624 276.167 45.8054 276.432 45.3622C276.702 44.919 276.838 44.4358 276.838 43.9126V42.2415C276.733 42.3277 276.555 42.4077 276.302 42.4815C276.056 42.5554 275.779 42.62 275.471 42.6754C275.164 42.7308 274.859 42.7801 274.557 42.8232C274.256 42.8662 273.994 42.9032 273.773 42.9339C273.274 43.0017 272.828 43.1125 272.434 43.2663C272.04 43.4202 271.729 43.6357 271.501 43.9126C271.273 44.1835 271.16 44.5343 271.16 44.9652C271.16 45.5807 271.384 46.0455 271.834 46.3594C272.283 46.6733 272.855 46.8303 273.551 46.8303ZM286.874 30.0909V49H283.532V30.0909H286.874ZM294.392 49.2862C293.493 49.2862 292.684 49.1262 291.964 48.8061C291.25 48.4799 290.683 47.9998 290.265 47.3658C289.853 46.7318 289.646 45.95 289.646 45.0206C289.646 44.2204 289.794 43.5587 290.089 43.0355C290.385 42.5123 290.788 42.0938 291.299 41.7798C291.81 41.4659 292.385 41.2289 293.026 41.0689C293.672 40.9027 294.34 40.7827 295.029 40.7088C295.86 40.6226 296.534 40.5457 297.051 40.478C297.568 40.4041 297.944 40.2933 298.178 40.1456C298.418 39.9917 298.538 39.7547 298.538 39.4347V39.3793C298.538 38.6837 298.331 38.1451 297.919 37.7635C297.507 37.3819 296.913 37.1911 296.137 37.1911C295.318 37.1911 294.669 37.3696 294.189 37.7266C293.715 38.0836 293.395 38.5052 293.229 38.9915L290.108 38.5483C290.354 37.6866 290.76 36.9664 291.327 36.3878C291.893 35.803 292.585 35.366 293.404 35.0767C294.223 34.7812 295.128 34.6335 296.119 34.6335C296.802 34.6335 297.482 34.7135 298.159 34.8736C298.836 35.0336 299.455 35.2983 300.015 35.6676C300.575 36.0308 301.024 36.5263 301.363 37.1541C301.708 37.782 301.88 38.5668 301.88 39.5085V49H298.667V47.0518H298.556C298.353 47.4458 298.067 47.8151 297.697 48.1598C297.334 48.4983 296.876 48.7723 296.322 48.9815C295.774 49.1847 295.131 49.2862 294.392 49.2862ZM295.26 46.8303C295.931 46.8303 296.513 46.6979 297.005 46.4332C297.497 46.1624 297.876 45.8054 298.141 45.3622C298.411 44.919 298.547 44.4358 298.547 43.9126V42.2415C298.442 42.3277 298.264 42.4077 298.011 42.4815C297.765 42.5554 297.488 42.62 297.18 42.6754C296.873 42.7308 296.568 42.7801 296.266 42.8232C295.965 42.8662 295.703 42.9032 295.482 42.9339C294.983 43.0017 294.537 43.1125 294.143 43.2663C293.749 43.4202 293.438 43.6357 293.21 43.9126C292.982 44.1835 292.869 44.5343 292.869 44.9652C292.869 45.5807 293.093 46.0455 293.543 46.3594C293.992 46.6733 294.564 46.8303 295.26 46.8303ZM316.953 49.2493C315.839 49.2493 314.842 48.9631 313.961 48.3906C313.081 47.8182 312.386 46.9872 311.875 45.8977C311.364 44.8082 311.108 43.4848 311.108 41.9276C311.108 40.3518 311.367 39.0223 311.884 37.9389C312.407 36.8494 313.112 36.0277 313.998 35.4737C314.885 34.9136 315.873 34.6335 316.962 34.6335C317.793 34.6335 318.476 34.7751 319.012 35.0582C319.547 35.3352 319.972 35.6707 320.286 36.0646C320.6 36.4524 320.843 36.8187 321.015 37.1634H321.154V30.0909H324.505V49H321.218V46.7656H321.015C320.843 47.1103 320.594 47.4766 320.267 47.8643C319.941 48.246 319.51 48.5722 318.975 48.843C318.439 49.1139 317.765 49.2493 316.953 49.2493ZM317.885 46.5071C318.593 46.5071 319.196 46.3163 319.695 45.9347C320.194 45.5469 320.572 45.0083 320.831 44.3189C321.089 43.6295 321.218 42.8262 321.218 41.9091C321.218 40.992 321.089 40.1948 320.831 39.5178C320.578 38.8407 320.203 38.3144 319.704 37.9389C319.212 37.5634 318.605 37.3757 317.885 37.3757C317.141 37.3757 316.519 37.5696 316.02 37.9574C315.522 38.3452 315.146 38.8807 314.894 39.5639C314.641 40.2472 314.515 41.0289 314.515 41.9091C314.515 42.7955 314.641 43.5864 314.894 44.282C315.152 44.9714 315.531 45.5161 316.029 45.9162C316.534 46.3101 317.153 46.5071 317.885 46.5071ZM334.345 49.277C332.923 49.277 331.695 48.9815 330.661 48.3906C329.633 47.7936 328.843 46.9503 328.289 45.8608C327.735 44.7652 327.458 43.4756 327.458 41.9922C327.458 40.5334 327.735 39.2531 328.289 38.1513C328.849 37.0433 329.63 36.1816 330.634 35.5661C331.637 34.9444 332.816 34.6335 334.17 34.6335C335.044 34.6335 335.869 34.7751 336.644 35.0582C337.426 35.3352 338.115 35.7661 338.713 36.3509C339.316 36.9356 339.79 37.6804 340.134 38.5852C340.479 39.4839 340.651 40.5549 340.651 41.7983V42.8232H329.027V40.5703H337.448C337.441 39.9302 337.303 39.3608 337.032 38.8622C336.761 38.3575 336.383 37.9605 335.896 37.6712C335.416 37.3819 334.856 37.2372 334.216 37.2372C333.533 37.2372 332.933 37.4034 332.416 37.7358C331.899 38.062 331.495 38.4929 331.206 39.0284C330.923 39.5578 330.778 40.1394 330.772 40.7734V42.7401C330.772 43.5649 330.923 44.2727 331.225 44.8636C331.526 45.4484 331.948 45.8977 332.49 46.2116C333.031 46.5194 333.665 46.6733 334.392 46.6733C334.878 46.6733 335.318 46.6056 335.712 46.4702C336.106 46.3286 336.447 46.1224 336.737 45.8516C337.026 45.5807 337.244 45.2453 337.392 44.8452L340.513 45.196C340.316 46.0208 339.941 46.741 339.387 47.3565C338.839 47.9659 338.137 48.4399 337.281 48.7784C336.426 49.1108 335.447 49.277 334.345 49.277ZM352.606 30.0909L357.527 44.9744H357.721L362.633 30.0909H366.4L359.734 49H355.505L348.848 30.0909H352.606ZM373.498 49.277C372.076 49.277 370.848 48.9815 369.814 48.3906C368.786 47.7936 367.995 46.9503 367.441 45.8608C366.887 44.7652 366.61 43.4756 366.61 41.9922C366.61 40.5334 366.887 39.2531 367.441 38.1513C368.001 37.0433 368.783 36.1816 369.786 35.5661C370.789 34.9444 371.968 34.6335 373.322 34.6335C374.196 34.6335 375.021 34.7751 375.797 35.0582C376.578 35.3352 377.268 35.7661 377.865 36.3509C378.468 36.9356 378.942 37.6804 379.287 38.5852C379.631 39.4839 379.804 40.5549 379.804 41.7983V42.8232H368.18V40.5703H376.6C376.594 39.9302 376.455 39.3608 376.184 38.8622C375.914 38.3575 375.535 37.9605 375.049 37.6712C374.569 37.3819 374.009 37.2372 373.368 37.2372C372.685 37.2372 372.085 37.4034 371.568 37.7358C371.051 38.062 370.648 38.4929 370.358 39.0284C370.075 39.5578 369.931 40.1394 369.925 40.7734V42.7401C369.925 43.5649 370.075 44.2727 370.377 44.8636C370.679 45.4484 371.1 45.8977 371.642 46.2116C372.184 46.5194 372.818 46.6733 373.544 46.6733C374.03 46.6733 374.47 46.6056 374.864 46.4702C375.258 46.3286 375.6 46.1224 375.889 45.8516C376.178 45.5807 376.397 45.2453 376.545 44.8452L379.665 45.196C379.468 46.0208 379.093 46.741 378.539 47.3565C377.991 47.9659 377.289 48.4399 376.434 48.7784C375.578 49.1108 374.599 49.277 373.498 49.277ZM385.974 40.6903V49H382.631V34.8182H385.826V37.228H385.992C386.318 36.4339 386.839 35.803 387.553 35.3352C388.273 34.8674 389.162 34.6335 390.221 34.6335C391.2 34.6335 392.052 34.8428 392.778 35.2614C393.511 35.6799 394.077 36.2862 394.477 37.0803C394.884 37.8743 395.084 38.8376 395.077 39.9702V49H391.735V40.4872C391.735 39.5393 391.489 38.7976 390.996 38.2621C390.51 37.7266 389.836 37.4588 388.974 37.4588C388.39 37.4588 387.87 37.5881 387.414 37.8466C386.965 38.099 386.611 38.4652 386.352 38.9453C386.1 39.4254 385.974 40.0071 385.974 40.6903ZM405.557 34.8182V37.4034H397.404V34.8182H405.557ZM399.417 31.4205H402.759V44.7344C402.759 45.1837 402.827 45.5284 402.962 45.7685C403.104 46.0024 403.289 46.1624 403.516 46.2486C403.744 46.3348 403.996 46.3778 404.273 46.3778C404.483 46.3778 404.674 46.3625 404.846 46.3317C405.024 46.3009 405.16 46.2732 405.252 46.2486L405.815 48.8615C405.637 48.9231 405.381 48.9908 405.049 49.0646C404.723 49.1385 404.323 49.1816 403.849 49.1939C403.012 49.2185 402.258 49.0923 401.587 48.8153C400.916 48.5322 400.383 48.0952 399.989 47.5043C399.602 46.9134 399.411 46.1747 399.417 45.2884V31.4205ZM412.433 49.2862C411.534 49.2862 410.725 49.1262 410.005 48.8061C409.291 48.4799 408.724 47.9998 408.306 47.3658C407.894 46.7318 407.687 45.95 407.687 45.0206C407.687 44.2204 407.835 43.5587 408.131 43.0355C408.426 42.5123 408.829 42.0938 409.34 41.7798C409.851 41.4659 410.426 41.2289 411.067 41.0689C411.713 40.9027 412.381 40.7827 413.07 40.7088C413.901 40.6226 414.575 40.5457 415.092 40.478C415.609 40.4041 415.985 40.2933 416.219 40.1456C416.459 39.9917 416.579 39.7547 416.579 39.4347V39.3793C416.579 38.6837 416.372 38.1451 415.96 37.7635C415.548 37.3819 414.954 37.1911 414.178 37.1911C413.359 37.1911 412.71 37.3696 412.23 37.7266C411.756 38.0836 411.436 38.5052 411.27 38.9915L408.149 38.5483C408.395 37.6866 408.801 36.9664 409.368 36.3878C409.934 35.803 410.626 35.366 411.445 35.0767C412.264 34.7812 413.169 34.6335 414.16 34.6335C414.843 34.6335 415.523 34.7135 416.2 34.8736C416.877 35.0336 417.496 35.2983 418.056 35.6676C418.616 36.0308 419.065 36.5263 419.404 37.1541C419.749 37.782 419.921 38.5668 419.921 39.5085V49H416.708V47.0518H416.597C416.394 47.4458 416.108 47.8151 415.738 48.1598C415.375 48.4983 414.917 48.7723 414.363 48.9815C413.815 49.1847 413.172 49.2862 412.433 49.2862ZM413.301 46.8303C413.972 46.8303 414.554 46.6979 415.046 46.4332C415.538 46.1624 415.917 45.8054 416.182 45.3622C416.452 44.919 416.588 44.4358 416.588 43.9126V42.2415C416.483 42.3277 416.305 42.4077 416.052 42.4815C415.806 42.5554 415.529 42.62 415.221 42.6754C414.914 42.7308 414.609 42.7801 414.307 42.8232C414.006 42.8662 413.744 42.9032 413.523 42.9339C413.024 43.0017 412.578 43.1125 412.184 43.2663C411.79 43.4202 411.479 43.6357 411.251 43.9126C411.023 44.1835 410.91 44.5343 410.91 44.9652C410.91 45.5807 411.134 46.0455 411.584 46.3594C412.033 46.6733 412.605 46.8303 413.301 46.8303ZM434.491 38.5668L431.444 38.8991C431.358 38.5914 431.207 38.3021 430.991 38.0312C430.782 37.7604 430.499 37.5419 430.142 37.3757C429.785 37.2095 429.348 37.1264 428.831 37.1264C428.135 37.1264 427.55 37.2772 427.077 37.5788C426.609 37.8804 426.378 38.2713 426.384 38.7514C426.378 39.1638 426.529 39.4993 426.836 39.7578C427.15 40.0163 427.667 40.2287 428.388 40.3949L430.807 40.9119C432.148 41.2012 433.146 41.6598 433.798 42.2876C434.457 42.9155 434.789 43.7372 434.795 44.7528C434.789 45.6454 434.528 46.4332 434.01 47.1165C433.5 47.7936 432.789 48.3229 431.878 48.7045C430.967 49.0862 429.92 49.277 428.738 49.277C427.003 49.277 425.605 48.9138 424.547 48.1875C423.488 47.455 422.857 46.4363 422.654 45.1314L425.913 44.8175C426.061 45.4576 426.375 45.9408 426.855 46.267C427.335 46.5933 427.96 46.7564 428.729 46.7564C429.523 46.7564 430.16 46.5933 430.64 46.267C431.127 45.9408 431.37 45.5376 431.37 45.0575C431.37 44.6513 431.213 44.3158 430.899 44.0511C430.591 43.7865 430.111 43.5833 429.459 43.4418L427.04 42.9339C425.679 42.6508 424.673 42.1738 424.02 41.5028C423.368 40.8258 423.045 39.9702 423.051 38.9361C423.045 38.062 423.282 37.3049 423.762 36.6648C424.248 36.0185 424.922 35.5199 425.784 35.169C426.652 34.812 427.652 34.6335 428.785 34.6335C430.447 34.6335 431.755 34.9875 432.709 35.6953C433.669 36.4032 434.263 37.3603 434.491 38.5668ZM251.865 80V61.0909H255.29V69.7791H255.521L262.898 61.0909H267.081L259.768 69.576L267.146 80H263.028L257.386 71.8935L255.29 74.3679V80H251.865ZM269.461 61.0909H273.653L279.266 74.7926H279.488L285.101 61.0909H289.293V80H286.006V67.0092H285.831L280.605 79.9446H278.149L272.923 66.9815H272.748V80H269.461V61.0909ZM299.288 80V77.5256L305.852 71.0902C306.48 70.4562 307.003 69.893 307.422 69.4006C307.841 68.9081 308.155 68.4311 308.364 67.9695C308.573 67.5078 308.678 67.0154 308.678 66.4922C308.678 65.8951 308.542 65.3842 308.271 64.9595C308.001 64.5286 307.628 64.1963 307.154 63.9624C306.68 63.7285 306.142 63.6115 305.539 63.6115C304.917 63.6115 304.372 63.7408 303.904 63.9993C303.436 64.2517 303.073 64.6117 302.815 65.0795C302.562 65.5473 302.436 66.1044 302.436 66.7507H299.177C299.177 65.5504 299.451 64.5071 299.999 63.6207C300.547 62.7344 301.301 62.0481 302.261 61.5618C303.227 61.0755 304.335 60.8324 305.585 60.8324C306.853 60.8324 307.967 61.0694 308.927 61.5433C309.887 62.0173 310.632 62.6667 311.161 63.4915C311.697 64.3163 311.965 65.258 311.965 66.3168C311.965 67.0246 311.829 67.7202 311.558 68.4034C311.288 69.0866 310.811 69.8437 310.127 70.6747C309.45 71.5057 308.499 72.5121 307.274 73.6939L304.015 77.0085V77.1378H312.251V80H299.288ZM322.001 60.8324C322.906 60.8385 323.786 60.9986 324.642 61.3125C325.503 61.6203 326.279 62.125 326.968 62.8267C327.658 63.5223 328.205 64.4548 328.612 65.6243C329.018 66.7938 329.221 68.2403 329.221 69.9638C329.227 71.5888 329.055 73.0414 328.704 74.3217C328.359 75.5959 327.864 76.6731 327.218 77.5533C326.571 78.4335 325.793 79.1044 324.882 79.5661C323.971 80.0277 322.946 80.2585 321.807 80.2585C320.613 80.2585 319.554 80.0246 318.631 79.5568C317.714 79.089 316.972 78.4489 316.406 77.6364C315.839 76.8239 315.492 75.8944 315.362 74.848H318.732C318.905 75.599 319.256 76.196 319.785 76.6392C320.32 77.0762 320.994 77.2947 321.807 77.2947C323.118 77.2947 324.128 76.7254 324.835 75.5866C325.543 74.4479 325.897 72.866 325.897 70.8409H325.768C325.466 71.3826 325.075 71.8504 324.595 72.2443C324.115 72.6321 323.57 72.9306 322.961 73.1399C322.358 73.3492 321.718 73.4538 321.041 73.4538C319.933 73.4538 318.936 73.1892 318.049 72.6598C317.169 72.1304 316.47 71.4041 315.953 70.4808C315.442 69.5575 315.184 68.5019 315.178 67.3139C315.178 66.0829 315.461 64.978 316.027 63.9993C316.6 63.0144 317.397 62.2389 318.419 61.6726C319.44 61.1001 320.634 60.8201 322.001 60.8324ZM322.01 63.6023C321.345 63.6023 320.745 63.7654 320.21 64.0916C319.68 64.4117 319.262 64.8487 318.954 65.4027C318.652 65.9505 318.502 66.563 318.502 67.2401C318.508 67.911 318.659 68.5204 318.954 69.0682C319.256 69.616 319.665 70.05 320.182 70.37C320.705 70.6901 321.302 70.8501 321.973 70.8501C322.472 70.8501 322.936 70.7547 323.367 70.5639C323.798 70.3731 324.174 70.1084 324.494 69.7699C324.82 69.4252 325.072 69.0343 325.251 68.5973C325.436 68.1603 325.525 67.6986 325.519 67.2124C325.519 66.5661 325.365 65.969 325.057 65.4212C324.755 64.8733 324.34 64.4332 323.811 64.1009C323.287 63.7685 322.687 63.6023 322.01 63.6023ZM338.86 60.8324C339.765 60.8385 340.645 60.9986 341.501 61.3125C342.363 61.6203 343.138 62.125 343.828 62.8267C344.517 63.5223 345.065 64.4548 345.471 65.6243C345.877 66.7938 346.08 68.2403 346.08 69.9638C346.087 71.5888 345.914 73.0414 345.563 74.3217C345.219 75.5959 344.723 76.6731 344.077 77.5533C343.431 78.4335 342.652 79.1044 341.741 79.5661C340.83 80.0277 339.805 80.2585 338.666 80.2585C337.472 80.2585 336.414 80.0246 335.49 79.5568C334.573 79.089 333.831 78.4489 333.265 77.6364C332.699 76.8239 332.351 75.8944 332.222 74.848H335.592C335.764 75.599 336.115 76.196 336.644 76.6392C337.18 77.0762 337.854 77.2947 338.666 77.2947C339.977 77.2947 340.987 76.7254 341.695 75.5866C342.403 74.4479 342.757 72.866 342.757 70.8409H342.627C342.326 71.3826 341.935 71.8504 341.455 72.2443C340.975 72.6321 340.43 72.9306 339.82 73.1399C339.217 73.3492 338.577 73.4538 337.9 73.4538C336.792 73.4538 335.795 73.1892 334.909 72.6598C334.028 72.1304 333.33 71.4041 332.813 70.4808C332.302 69.5575 332.043 68.5019 332.037 67.3139C332.037 66.0829 332.32 64.978 332.887 63.9993C333.459 63.0144 334.256 62.2389 335.278 61.6726C336.3 61.1001 337.494 60.8201 338.86 60.8324ZM338.869 63.6023C338.205 63.6023 337.605 63.7654 337.069 64.0916C336.54 64.4117 336.121 64.8487 335.813 65.4027C335.512 65.9505 335.361 66.563 335.361 67.2401C335.367 67.911 335.518 68.5204 335.813 69.0682C336.115 69.616 336.524 70.05 337.041 70.37C337.565 70.6901 338.162 70.8501 338.833 70.8501C339.331 70.8501 339.796 70.7547 340.227 70.5639C340.658 70.3731 341.033 70.1084 341.353 69.7699C341.679 69.4252 341.932 69.0343 342.11 68.5973C342.295 68.1603 342.384 67.6986 342.378 67.2124C342.378 66.5661 342.224 65.969 341.916 65.4212C341.615 64.8733 341.199 64.4332 340.67 64.1009C340.147 63.7685 339.547 63.6023 338.869 63.6023ZM355.789 80V61.0909H362.88C364.332 61.0909 365.551 61.3617 366.536 61.9034C367.527 62.4451 368.275 63.1899 368.78 64.1378C369.291 65.0795 369.546 66.1506 369.546 67.3509C369.546 68.5634 369.291 69.6406 368.78 70.5824C368.269 71.5241 367.515 72.2659 366.518 72.8075C365.52 73.343 364.292 73.6108 362.834 73.6108H358.134V70.7947H362.372C363.221 70.7947 363.917 70.647 364.459 70.3516C365 70.0561 365.4 69.6499 365.659 69.1328C365.924 68.6158 366.056 68.0218 366.056 67.3509C366.056 66.6799 365.924 66.089 365.659 65.5781C365.4 65.0672 364.997 64.6702 364.449 64.3871C363.908 64.0978 363.209 63.9531 362.354 63.9531H359.214V80H355.789ZM376.201 80.2862C375.302 80.2862 374.493 80.1262 373.772 79.8061C373.058 79.4799 372.492 78.9998 372.074 78.3658C371.661 77.7318 371.455 76.95 371.455 76.0206C371.455 75.2204 371.603 74.5587 371.898 74.0355C372.194 73.5123 372.597 73.0938 373.108 72.7798C373.618 72.4659 374.194 72.2289 374.834 72.0689C375.48 71.9027 376.148 71.7827 376.838 71.7088C377.669 71.6226 378.343 71.5457 378.86 71.478C379.377 71.4041 379.752 71.2933 379.986 71.1456C380.226 70.9917 380.346 70.7547 380.346 70.4347V70.3793C380.346 69.6837 380.14 69.1451 379.728 68.7635C379.315 68.3819 378.721 68.1911 377.946 68.1911C377.127 68.1911 376.478 68.3696 375.998 68.7266C375.524 69.0836 375.203 69.5052 375.037 69.9915L371.917 69.5483C372.163 68.6866 372.569 67.9664 373.135 67.3878C373.702 66.803 374.394 66.366 375.213 66.0767C376.031 65.7812 376.936 65.6335 377.927 65.6335C378.61 65.6335 379.291 65.7135 379.968 65.8736C380.645 66.0336 381.263 66.2983 381.824 66.6676C382.384 67.0308 382.833 67.5263 383.172 68.1541C383.516 68.782 383.689 69.5668 383.689 70.5085V80H380.475V78.0518H380.365C380.162 78.4458 379.875 78.8151 379.506 79.1598C379.143 79.4983 378.684 79.7723 378.13 79.9815C377.583 80.1847 376.939 80.2862 376.201 80.2862ZM377.069 77.8303C377.739 77.8303 378.321 77.6979 378.814 77.4332C379.306 77.1624 379.685 76.8054 379.949 76.3622C380.22 75.919 380.355 75.4358 380.355 74.9126V73.2415C380.251 73.3277 380.072 73.4077 379.82 73.4815C379.574 73.5554 379.297 73.62 378.989 73.6754C378.681 73.7308 378.377 73.7801 378.075 73.8232C377.773 73.8662 377.512 73.9032 377.29 73.9339C376.792 74.0017 376.345 74.1125 375.951 74.2663C375.557 74.4202 375.247 74.6357 375.019 74.9126C374.791 75.1835 374.677 75.5343 374.677 75.9652C374.677 76.5807 374.902 77.0455 375.351 77.3594C375.801 77.6733 376.373 77.8303 377.069 77.8303ZM390.392 71.6903V80H387.049V65.8182H390.244V68.228H390.41C390.736 67.4339 391.257 66.803 391.971 66.3352C392.691 65.8674 393.58 65.6335 394.639 65.6335C395.618 65.6335 396.47 65.8428 397.196 66.2614C397.929 66.6799 398.495 67.2862 398.895 68.0803C399.301 68.8743 399.502 69.8376 399.495 70.9702V80H396.153V71.4872C396.153 70.5393 395.907 69.7976 395.414 69.2621C394.928 68.7266 394.254 68.4588 393.392 68.4588C392.808 68.4588 392.288 68.5881 391.832 68.8466C391.383 69.099 391.029 69.4652 390.77 69.9453C390.518 70.4254 390.392 71.0071 390.392 71.6903ZM406.974 80.2862C406.075 80.2862 405.266 80.1262 404.546 79.8061C403.832 79.4799 403.266 78.9998 402.847 78.3658C402.435 77.7318 402.228 76.95 402.228 76.0206C402.228 75.2204 402.376 74.5587 402.672 74.0355C402.967 73.5123 403.37 73.0938 403.881 72.7798C404.392 72.4659 404.967 72.2289 405.608 72.0689C406.254 71.9027 406.922 71.7827 407.611 71.7088C408.442 71.6226 409.116 71.5457 409.633 71.478C410.15 71.4041 410.526 71.2933 410.76 71.1456C411 70.9917 411.12 70.7547 411.12 70.4347V70.3793C411.12 69.6837 410.913 69.1451 410.501 68.7635C410.089 68.3819 409.495 68.1911 408.719 68.1911C407.9 68.1911 407.251 68.3696 406.771 68.7266C406.297 69.0836 405.977 69.5052 405.811 69.9915L402.69 69.5483C402.936 68.6866 403.342 67.9664 403.909 67.3878C404.475 66.803 405.167 66.366 405.986 66.0767C406.805 65.7812 407.71 65.6335 408.701 65.6335C409.384 65.6335 410.064 65.7135 410.741 65.8736C411.418 66.0336 412.037 66.2983 412.597 66.6676C413.157 67.0308 413.606 67.5263 413.945 68.1541C414.29 68.782 414.462 69.5668 414.462 70.5085V80H411.249V78.0518H411.138C410.935 78.4458 410.649 78.8151 410.279 79.1598C409.916 79.4983 409.458 79.7723 408.904 79.9815C408.356 80.1847 407.713 80.2862 406.974 80.2862ZM407.842 77.8303C408.513 77.8303 409.095 77.6979 409.587 77.4332C410.079 77.1624 410.458 76.8054 410.723 76.3622C410.993 75.919 411.129 75.4358 411.129 74.9126V73.2415C411.024 73.3277 410.846 73.4077 410.593 73.4815C410.347 73.5554 410.07 73.62 409.762 73.6754C409.455 73.7308 409.15 73.7801 408.848 73.8232C408.547 73.8662 408.285 73.9032 408.064 73.9339C407.565 74.0017 407.119 74.1125 406.725 74.2663C406.331 74.4202 406.02 74.6357 405.792 74.9126C405.565 75.1835 405.451 75.5343 405.451 75.9652C405.451 76.5807 405.675 77.0455 406.125 77.3594C406.574 77.6733 407.146 77.8303 407.842 77.8303ZM417.823 80V65.8182H421.017V68.228H421.184C421.479 67.4155 421.968 66.7815 422.652 66.326C423.335 65.8643 424.15 65.6335 425.098 65.6335C426.059 65.6335 426.868 65.8674 427.527 66.3352C428.191 66.7969 428.659 67.4278 428.93 68.228H429.078C429.392 67.4401 429.921 66.8123 430.666 66.3445C431.417 65.8705 432.306 65.6335 433.334 65.6335C434.639 65.6335 435.704 66.0459 436.529 66.8707C437.354 67.6955 437.766 68.8989 437.766 70.4808V80H434.414V70.9979C434.414 70.1177 434.181 69.4744 433.713 69.0682C433.245 68.6558 432.672 68.4496 431.995 68.4496C431.189 68.4496 430.558 68.7019 430.103 69.2067C429.653 69.7053 429.429 70.3546 429.429 71.1548V80H426.151V70.8594C426.151 70.1269 425.929 69.5421 425.486 69.1051C425.049 68.6681 424.477 68.4496 423.769 68.4496C423.289 68.4496 422.852 68.5727 422.458 68.8189C422.064 69.0589 421.75 69.4006 421.516 69.8438C421.282 70.2808 421.165 70.7917 421.165 71.3764V80H417.823ZM447.435 80.277C446.013 80.277 444.785 79.9815 443.751 79.3906C442.723 78.7936 441.932 77.9503 441.378 76.8608C440.824 75.7652 440.547 74.4756 440.547 72.9922C440.547 71.5334 440.824 70.2531 441.378 69.1513C441.939 68.0433 442.72 67.1816 443.724 66.5661C444.727 65.9444 445.906 65.6335 447.26 65.6335C448.134 65.6335 448.959 65.7751 449.734 66.0582C450.516 66.3352 451.205 66.7661 451.802 67.3509C452.406 67.9356 452.88 68.6804 453.224 69.5852C453.569 70.4839 453.741 71.5549 453.741 72.7983V73.8232H442.117V71.5703H450.537C450.531 70.9302 450.393 70.3608 450.122 69.8622C449.851 69.3575 449.473 68.9605 448.986 68.6712C448.506 68.3819 447.946 68.2372 447.306 68.2372C446.623 68.2372 446.023 68.4034 445.506 68.7358C444.988 69.062 444.585 69.4929 444.296 70.0284C444.013 70.5578 443.868 71.1394 443.862 71.7734V73.7401C443.862 74.5649 444.013 75.2727 444.314 75.8636C444.616 76.4484 445.038 76.8977 445.579 77.2116C446.121 77.5194 446.755 77.6733 447.481 77.6733C447.968 77.6733 448.408 77.6056 448.802 77.4702C449.196 77.3286 449.537 77.1224 449.827 76.8516C450.116 76.5807 450.334 76.2453 450.482 75.8452L453.603 76.196C453.406 77.0208 453.03 77.741 452.476 78.3565C451.929 78.9659 451.227 79.4399 450.371 79.7784C449.516 80.1108 448.537 80.277 447.435 80.277ZM456.569 80V65.8182H459.81V68.1818H459.957C460.216 67.3632 460.659 66.7322 461.287 66.2891C461.921 65.8397 462.644 65.6151 463.457 65.6151C463.641 65.6151 463.848 65.6243 464.075 65.6428C464.309 65.6551 464.503 65.6766 464.657 65.7074V68.782C464.515 68.7327 464.291 68.6896 463.983 68.6527C463.681 68.6096 463.389 68.5881 463.106 68.5881C462.496 68.5881 461.949 68.7204 461.462 68.9851C460.982 69.2436 460.604 69.6037 460.327 70.0653C460.05 70.527 459.911 71.0594 459.911 71.6626V80H456.569ZM467.311 80.2031C466.751 80.2031 466.271 80.0062 465.871 79.6122C465.471 79.2183 465.274 78.7382 465.28 78.1719C465.274 77.6179 465.471 77.1439 465.871 76.75C466.271 76.3561 466.751 76.1591 467.311 76.1591C467.853 76.1591 468.324 76.3561 468.724 76.75C469.13 77.1439 469.337 77.6179 469.343 78.1719C469.337 78.5473 469.238 78.889 469.047 79.1967C468.863 79.5045 468.616 79.7507 468.309 79.9354C468.007 80.1139 467.675 80.2031 467.311 80.2031ZM489.083 66.2891C488.997 65.4827 488.633 64.8549 487.993 64.4055C487.359 63.9562 486.534 63.7315 485.519 63.7315C484.805 63.7315 484.192 63.8393 483.681 64.0547C483.171 64.2701 482.78 64.5625 482.509 64.9318C482.238 65.3011 482.1 65.7228 482.093 66.1967C482.093 66.5907 482.183 66.9323 482.361 67.2216C482.546 67.5109 482.795 67.7571 483.109 67.9602C483.423 68.1572 483.771 68.3234 484.152 68.4588C484.534 68.5942 484.919 68.7081 485.306 68.8004L487.079 69.2436C487.793 69.4098 488.48 69.6345 489.138 69.9176C489.803 70.2008 490.397 70.5578 490.92 70.9886C491.449 71.4195 491.868 71.9396 492.176 72.549C492.484 73.1584 492.637 73.8724 492.637 74.6911C492.637 75.799 492.354 76.7746 491.788 77.6179C491.222 78.455 490.403 79.1106 489.332 79.5845C488.267 80.0523 486.978 80.2862 485.463 80.2862C483.992 80.2862 482.715 80.0585 481.632 79.603C480.555 79.1475 479.711 78.4827 479.102 77.6087C478.499 76.7346 478.172 75.6697 478.123 74.4141H481.493C481.542 75.0727 481.746 75.6205 482.103 76.0575C482.46 76.4946 482.924 76.8208 483.497 77.0362C484.075 77.2517 484.722 77.3594 485.436 77.3594C486.181 77.3594 486.833 77.2486 487.393 77.027C487.959 76.7992 488.403 76.4853 488.723 76.0852C489.043 75.679 489.206 75.205 489.212 74.6634C489.206 74.1709 489.061 73.7647 488.778 73.4446C488.495 73.1184 488.098 72.8475 487.587 72.6321C487.082 72.4105 486.491 72.2135 485.814 72.0412L483.663 71.4872C482.106 71.0871 480.875 70.4808 479.97 69.6683C479.071 68.8497 478.622 67.7633 478.622 66.4091C478.622 65.295 478.923 64.3194 479.527 63.4822C480.136 62.6451 480.964 61.9957 482.01 61.5341C483.057 61.0663 484.242 60.8324 485.565 60.8324C486.907 60.8324 488.083 61.0663 489.092 61.5341C490.108 61.9957 490.905 62.639 491.483 63.4638C492.062 64.2824 492.36 65.2242 492.379 66.2891H489.083ZM504.583 74.0355V65.8182H507.925V80H504.684V77.4794H504.536C504.216 78.2734 503.69 78.9228 502.958 79.4276C502.231 79.9323 501.336 80.1847 500.271 80.1847C499.341 80.1847 498.52 79.9785 497.806 79.5661C497.098 79.1475 496.544 78.5412 496.144 77.7472C495.744 76.947 495.544 75.9806 495.544 74.848V65.8182H498.886V74.331C498.886 75.2296 499.132 75.9437 499.624 76.473C500.117 77.0024 500.763 77.267 501.563 77.267C502.056 77.267 502.533 77.147 502.994 76.907C503.456 76.6669 503.835 76.3099 504.13 75.8359C504.432 75.3558 504.583 74.7557 504.583 74.0355ZM511.362 80V65.8182H514.603V68.1818H514.75C515.009 67.3632 515.452 66.7322 516.08 66.2891C516.714 65.8397 517.437 65.6151 518.25 65.6151C518.434 65.6151 518.641 65.6243 518.868 65.6428C519.102 65.6551 519.296 65.6766 519.45 65.7074V68.782C519.308 68.7327 519.084 68.6896 518.776 68.6527C518.474 68.6096 518.182 68.5881 517.899 68.5881C517.289 68.5881 516.742 68.7204 516.255 68.9851C515.775 69.2436 515.397 69.6037 515.12 70.0653C514.843 70.527 514.704 71.0594 514.704 71.6626V80H511.362ZM536.716 69.1697V71.9212H528.203V69.1697H536.716ZM550.253 61.0909V80H546.828V61.0909H550.253ZM560.001 80.277C558.585 80.277 557.37 79.9661 556.354 79.3445C555.345 78.7228 554.566 77.8641 554.018 76.7685C553.476 75.6667 553.206 74.3987 553.206 72.9645C553.206 71.5241 553.483 70.2531 554.037 69.1513C554.591 68.0433 555.372 67.1816 556.382 66.5661C557.397 65.9444 558.598 65.6335 559.983 65.6335C561.134 65.6335 562.152 65.8459 563.039 66.2706C563.931 66.6892 564.642 67.2831 565.172 68.0526C565.701 68.8158 566.002 69.7083 566.076 70.7301H562.882C562.752 70.0469 562.445 69.4775 561.958 69.022C561.478 68.5604 560.835 68.3295 560.029 68.3295C559.346 68.3295 558.745 68.5142 558.228 68.8835C557.711 69.2467 557.308 69.7699 557.019 70.4531C556.736 71.1364 556.594 71.955 556.594 72.9091C556.594 73.8755 556.736 74.7064 557.019 75.402C557.302 76.0914 557.699 76.6238 558.21 76.9993C558.727 77.3686 559.333 77.5533 560.029 77.5533C560.521 77.5533 560.961 77.4609 561.349 77.2763C561.743 77.0855 562.072 76.8116 562.337 76.4545C562.602 76.0975 562.783 75.6636 562.882 75.1527H566.076C565.996 76.156 565.701 77.0455 565.19 77.821C564.679 78.5904 563.984 79.1937 563.103 79.6307C562.223 80.0616 561.189 80.277 560.001 80.277ZM572.902 80.2862C572.003 80.2862 571.194 80.1262 570.474 79.8061C569.76 79.4799 569.193 78.9998 568.775 78.3658C568.362 77.7318 568.156 76.95 568.156 76.0206C568.156 75.2204 568.304 74.5587 568.599 74.0355C568.895 73.5123 569.298 73.0938 569.809 72.7798C570.32 72.4659 570.895 72.2289 571.535 72.0689C572.182 71.9027 572.849 71.7827 573.539 71.7088C574.37 71.6226 575.044 71.5457 575.561 71.478C576.078 71.4041 576.453 71.2933 576.687 71.1456C576.927 70.9917 577.047 70.7547 577.047 70.4347V70.3793C577.047 69.6837 576.841 69.1451 576.429 68.7635C576.016 68.3819 575.422 68.1911 574.647 68.1911C573.828 68.1911 573.179 68.3696 572.699 68.7266C572.225 69.0836 571.905 69.5052 571.738 69.9915L568.618 69.5483C568.864 68.6866 569.27 67.9664 569.836 67.3878C570.403 66.803 571.095 66.366 571.914 66.0767C572.733 65.7812 573.637 65.6335 574.628 65.6335C575.312 65.6335 575.992 65.7135 576.669 65.8736C577.346 66.0336 577.965 66.2983 578.525 66.6676C579.085 67.0308 579.534 67.5263 579.873 68.1541C580.217 68.782 580.39 69.5668 580.39 70.5085V80H577.177V78.0518H577.066C576.863 78.4458 576.577 78.8151 576.207 79.1598C575.844 79.4983 575.385 79.7723 574.831 79.9815C574.284 80.1847 573.64 80.2862 572.902 80.2862ZM573.77 77.8303C574.441 77.8303 575.022 77.6979 575.515 77.4332C576.007 77.1624 576.386 76.8054 576.65 76.3622C576.921 75.919 577.057 75.4358 577.057 74.9126V73.2415C576.952 73.3277 576.773 73.4077 576.521 73.4815C576.275 73.5554 575.998 73.62 575.69 73.6754C575.382 73.7308 575.078 73.7801 574.776 73.8232C574.474 73.8662 574.213 73.9032 573.991 73.9339C573.493 74.0017 573.046 74.1125 572.653 74.2663C572.259 74.4202 571.948 74.6357 571.72 74.9126C571.492 75.1835 571.378 75.5343 571.378 75.9652C571.378 76.5807 571.603 77.0455 572.052 77.3594C572.502 77.6733 573.074 77.8303 573.77 77.8303Z" fill="white"/>
<defs>
<clipPath id="clip0_171_61376">
<rect width="24" height="24" fill="white" transform="translate(200 43)"/>
</clipPath>
</defs>
</svg>
