<svg width="446" height="169" viewBox="0 0 446 169" fill="none" xmlns="http://www.w3.org/2000/svg">
<rect x="156" width="290" height="110" rx="18" fill="#006DB7"/>
<path d="M100 122L211.5 86.026L179.5 62L100 122Z" fill="#006DB7"/>
<rect x="168" y="24" width="44" height="44" rx="22" fill="#81C995"/>
<g clip-path="url(#clip0_376_2313)">
<path d="M200.058 39.231L192.684 35.718C191.06 34.7484 189.04 34.7312 187.401 35.673L179.944 39.231C179.916 39.245 179.887 39.26 179.86 39.276C178.09 40.2878 177.476 42.5426 178.487 44.3123C178.83 44.9122 179.335 45.4037 179.944 45.731L182.001 46.711V51.611C182.002 53.802 183.427 55.7378 185.52 56.389C186.975 56.8102 188.485 57.0164 190.001 57.001C191.516 57.018 193.025 56.8135 194.482 56.394C196.574 55.7429 197.999 53.8071 198.001 51.616V46.709L200.001 45.753V54.0009C200.001 54.5532 200.448 55.0009 201.001 55.0009C201.553 55.0009 202.001 54.5532 202.001 54.0009V42.0009C202.007 40.8267 201.08 39.7419 200.058 39.231ZM196.001 51.616C196.001 52.9266 195.151 54.0858 193.901 54.479C192.633 54.8412 191.319 55.017 190.001 55.001C188.682 55.017 187.368 54.8412 186.101 54.479C184.85 54.0858 184 52.9266 184.001 51.616V47.664L187.318 49.244C188.136 49.73 189.071 49.9854 190.023 49.983C190.929 49.9894 191.819 49.7496 192.6 49.289L196.001 47.664V51.616ZM199.201 43.926L191.659 47.526C190.607 48.1383 189.304 48.1209 188.269 47.481L180.89 43.971C180.067 43.5274 179.76 42.5011 180.203 41.6786C180.353 41.4005 180.578 41.1699 180.853 41.013L188.348 37.433C189.399 36.822 190.702 36.8393 191.738 37.478L199.112 40.991C199.654 41.2921 199.993 41.8607 200.001 42.481C200.002 43.0685 199.699 43.6149 199.201 43.926Z" fill="#81C995"/>
<path d="M200.058 39.231L192.684 35.718C191.06 34.7484 189.04 34.7312 187.401 35.673L179.944 39.231C179.916 39.245 179.887 39.26 179.86 39.276C178.09 40.2878 177.476 42.5426 178.487 44.3123C178.83 44.9122 179.335 45.4037 179.944 45.731L182.001 46.711V51.611C182.002 53.802 183.427 55.7378 185.52 56.389C186.975 56.8102 188.485 57.0164 190.001 57.001C191.516 57.018 193.025 56.8135 194.482 56.394C196.574 55.7429 197.999 53.8071 198.001 51.616V46.709L200.001 45.753V54.0009C200.001 54.5532 200.448 55.0009 201.001 55.0009C201.553 55.0009 202.001 54.5532 202.001 54.0009V42.0009C202.007 40.8267 201.08 39.7419 200.058 39.231ZM196.001 51.616C196.001 52.9266 195.151 54.0858 193.901 54.479C192.633 54.8412 191.319 55.017 190.001 55.001C188.682 55.017 187.368 54.8412 186.101 54.479C184.85 54.0858 184 52.9266 184.001 51.616V47.664L187.318 49.244C188.136 49.73 189.071 49.9854 190.023 49.983C190.929 49.9894 191.819 49.7496 192.6 49.289L196.001 47.664V51.616ZM199.201 43.926L191.659 47.526C190.607 48.1383 189.304 48.1209 188.269 47.481L180.89 43.971C180.067 43.5274 179.76 42.5011 180.203 41.6786C180.353 41.4005 180.578 41.1699 180.853 41.013L188.348 37.433C189.399 36.822 190.702 36.8393 191.738 37.478L199.112 40.991C199.654 41.2921 199.993 41.8607 200.001 42.481C200.002 43.0685 199.699 43.6149 199.201 43.926Z" fill="black" fill-opacity="0.5"/>
</g>
<path d="M233.29 30.0909V49H229.865V30.0909H233.29ZM238.911 49.2031C238.351 49.2031 237.871 49.0062 237.471 48.6122C237.071 48.2183 236.874 47.7382 236.88 47.1719C236.874 46.6179 237.071 46.1439 237.471 45.75C237.871 45.3561 238.351 45.1591 238.911 45.1591C239.453 45.1591 239.924 45.3561 240.324 45.75C240.73 46.1439 240.936 46.6179 240.942 47.1719C240.936 47.5473 240.838 47.889 240.647 48.1967C240.462 48.5045 240.216 48.7507 239.908 48.9354C239.607 49.1139 239.274 49.2031 238.911 49.2031ZM244.541 49V30.0909H256.839V32.9624H247.966V38.0959H256.202V40.9673H247.966V46.1286H256.913V49H244.541ZM262.245 49.2031C261.685 49.2031 261.205 49.0062 260.805 48.6122C260.405 48.2183 260.208 47.7382 260.214 47.1719C260.208 46.6179 260.405 46.1439 260.805 45.75C261.205 45.3561 261.685 45.1591 262.245 45.1591C262.787 45.1591 263.258 45.3561 263.658 45.75C264.064 46.1439 264.27 46.6179 264.276 47.1719C264.27 47.5473 264.172 47.889 263.981 48.1967C263.796 48.5045 263.55 48.7507 263.242 48.9354C262.941 49.1139 262.608 49.2031 262.245 49.2031ZM289.925 36.4709H286.472C286.374 35.9046 286.192 35.4029 285.928 34.9659C285.663 34.5227 285.334 34.1473 284.94 33.8395C284.546 33.5317 284.096 33.3009 283.592 33.147C283.093 32.987 282.554 32.907 281.976 32.907C280.948 32.907 280.037 33.1655 279.243 33.6825C278.449 34.1934 277.827 34.9444 277.378 35.9354C276.929 36.9202 276.704 38.1236 276.704 39.5455C276.704 40.992 276.929 42.2107 277.378 43.2017C277.833 44.1866 278.455 44.9313 279.243 45.4361C280.037 45.9347 280.945 46.1839 281.967 46.1839C282.533 46.1839 283.062 46.1101 283.555 45.9624C284.053 45.8085 284.5 45.5838 284.893 45.2884C285.294 44.9929 285.629 44.6297 285.9 44.1989C286.177 43.768 286.368 43.2756 286.472 42.7216L289.925 42.7401C289.796 43.6387 289.516 44.482 289.085 45.2699C288.661 46.0578 288.103 46.7533 287.414 47.3565C286.725 47.9536 285.918 48.4214 284.995 48.7599C284.072 49.0923 283.047 49.2585 281.92 49.2585C280.259 49.2585 278.775 48.8738 277.47 48.1044C276.165 47.335 275.137 46.224 274.386 44.7713C273.635 43.3187 273.26 41.5767 273.26 39.5455C273.26 37.508 273.638 35.7661 274.396 34.3196C275.153 32.867 276.184 31.7559 277.489 30.9865C278.794 30.2171 280.271 29.8324 281.92 29.8324C282.973 29.8324 283.952 29.9801 284.857 30.2756C285.761 30.571 286.568 31.005 287.276 31.5774C287.983 32.1437 288.565 32.8393 289.021 33.6641C289.482 34.4827 289.784 35.4183 289.925 36.4709ZM296.996 49.2862C296.097 49.2862 295.287 49.1262 294.567 48.8061C293.853 48.4799 293.287 47.9998 292.868 47.3658C292.456 46.7318 292.25 45.95 292.25 45.0206C292.25 44.2204 292.398 43.5587 292.693 43.0355C292.988 42.5123 293.392 42.0938 293.903 41.7798C294.413 41.4659 294.989 41.2289 295.629 41.0689C296.275 40.9027 296.943 40.7827 297.633 40.7088C298.464 40.6226 299.138 40.5457 299.655 40.478C300.172 40.4041 300.547 40.2933 300.781 40.1456C301.021 39.9917 301.141 39.7547 301.141 39.4347V39.3793C301.141 38.6837 300.935 38.1451 300.523 37.7635C300.11 37.3819 299.516 37.1911 298.741 37.1911C297.922 37.1911 297.273 37.3696 296.792 37.7266C296.318 38.0836 295.998 38.5052 295.832 38.9915L292.711 38.5483C292.958 37.6866 293.364 36.9664 293.93 36.3878C294.497 35.803 295.189 35.366 296.008 35.0767C296.826 34.7812 297.731 34.6335 298.722 34.6335C299.405 34.6335 300.086 34.7135 300.763 34.8736C301.44 35.0336 302.058 35.2983 302.618 35.6676C303.179 36.0308 303.628 36.5263 303.966 37.1541C304.311 37.782 304.483 38.5668 304.483 39.5085V49H301.27V47.0518H301.16C300.956 47.4458 300.67 47.8151 300.301 48.1598C299.938 48.4983 299.479 48.7723 298.925 48.9815C298.377 49.1847 297.734 49.2862 296.996 49.2862ZM297.863 46.8303C298.534 46.8303 299.116 46.6979 299.608 46.4332C300.101 46.1624 300.479 45.8054 300.744 45.3622C301.015 44.919 301.15 44.4358 301.15 43.9126V42.2415C301.046 42.3277 300.867 42.4077 300.615 42.4815C300.369 42.5554 300.092 42.62 299.784 42.6754C299.476 42.7308 299.171 42.7801 298.87 42.8232C298.568 42.8662 298.307 42.9032 298.085 42.9339C297.586 43.0017 297.14 43.1125 296.746 43.2663C296.352 43.4202 296.041 43.6357 295.814 43.9126C295.586 44.1835 295.472 44.5343 295.472 44.9652C295.472 45.5807 295.697 46.0455 296.146 46.3594C296.595 46.6733 297.168 46.8303 297.863 46.8303ZM307.844 54.3182V34.8182H311.131V37.1634H311.325C311.497 36.8187 311.741 36.4524 312.055 36.0646C312.368 35.6707 312.793 35.3352 313.329 35.0582C313.864 34.7751 314.547 34.6335 315.378 34.6335C316.474 34.6335 317.462 34.9136 318.342 35.4737C319.229 36.0277 319.93 36.8494 320.447 37.9389C320.97 39.0223 321.232 40.3518 321.232 41.9276C321.232 43.4848 320.977 44.8082 320.466 45.8977C319.955 46.9872 319.259 47.8182 318.379 48.3906C317.499 48.9631 316.502 49.2493 315.388 49.2493C314.575 49.2493 313.901 49.1139 313.366 48.843C312.83 48.5722 312.399 48.246 312.073 47.8643C311.753 47.4766 311.504 47.1103 311.325 46.7656H311.187V54.3182H307.844ZM311.122 41.9091C311.122 42.8262 311.251 43.6295 311.51 44.3189C311.774 45.0083 312.153 45.5469 312.645 45.9347C313.144 46.3163 313.747 46.5071 314.455 46.5071C315.194 46.5071 315.812 46.3101 316.311 45.9162C316.809 45.5161 317.185 44.9714 317.437 44.282C317.696 43.5864 317.825 42.7955 317.825 41.9091C317.825 41.0289 317.699 40.2472 317.447 39.5639C317.194 38.8807 316.819 38.3452 316.32 37.9574C315.822 37.5696 315.2 37.3757 314.455 37.3757C313.741 37.3757 313.135 37.5634 312.636 37.9389C312.138 38.3144 311.759 38.8407 311.501 39.5178C311.248 40.1948 311.122 40.992 311.122 41.9091ZM324.094 49V34.8182H327.437V49H324.094ZM325.775 32.8054C325.245 32.8054 324.79 32.63 324.408 32.2791C324.027 31.9221 323.836 31.4943 323.836 30.9957C323.836 30.491 324.027 30.0632 324.408 29.7124C324.79 29.3553 325.245 29.1768 325.775 29.1768C326.31 29.1768 326.766 29.3553 327.141 29.7124C327.523 30.0632 327.714 30.491 327.714 30.9957C327.714 31.4943 327.523 31.9221 327.141 32.2791C326.766 32.63 326.31 32.8054 325.775 32.8054ZM334.216 30.0909V49H330.874V30.0909H334.216ZM340.995 30.0909V49H337.653V30.0909H340.995ZM348.513 49.2862C347.614 49.2862 346.805 49.1262 346.085 48.8061C345.371 48.4799 344.805 47.9998 344.386 47.3658C343.974 46.7318 343.767 45.95 343.767 45.0206C343.767 44.2204 343.915 43.5587 344.211 43.0355C344.506 42.5123 344.909 42.0938 345.42 41.7798C345.931 41.4659 346.507 41.2289 347.147 41.0689C347.793 40.9027 348.461 40.7827 349.15 40.7088C349.981 40.6226 350.655 40.5457 351.172 40.478C351.689 40.4041 352.065 40.2933 352.299 40.1456C352.539 39.9917 352.659 39.7547 352.659 39.4347V39.3793C352.659 38.6837 352.453 38.1451 352.04 37.7635C351.628 37.3819 351.034 37.1911 350.258 37.1911C349.44 37.1911 348.79 37.3696 348.31 37.7266C347.836 38.0836 347.516 38.5052 347.35 38.9915L344.229 38.5483C344.475 37.6866 344.882 36.9664 345.448 36.3878C346.014 35.803 346.707 35.366 347.525 35.0767C348.344 34.7812 349.249 34.6335 350.24 34.6335C350.923 34.6335 351.603 34.7135 352.28 34.8736C352.957 35.0336 353.576 35.2983 354.136 35.6676C354.696 36.0308 355.145 36.5263 355.484 37.1541C355.829 37.782 356.001 38.5668 356.001 39.5085V49H352.788V47.0518H352.677C352.474 47.4458 352.188 47.8151 351.819 48.1598C351.455 48.4983 350.997 48.7723 350.443 48.9815C349.895 49.1847 349.252 49.2862 348.513 49.2862ZM349.381 46.8303C350.052 46.8303 350.634 46.6979 351.126 46.4332C351.618 46.1624 351.997 45.8054 352.262 45.3622C352.533 44.919 352.668 44.4358 352.668 43.9126V42.2415C352.563 42.3277 352.385 42.4077 352.132 42.4815C351.886 42.5554 351.609 42.62 351.301 42.6754C350.994 42.7308 350.689 42.7801 350.387 42.8232C350.086 42.8662 349.824 42.9032 349.603 42.9339C349.104 43.0017 348.658 43.1125 348.264 43.2663C347.87 43.4202 347.559 43.6357 347.331 43.9126C347.104 44.1835 346.99 44.5343 346.99 44.9652C346.99 45.5807 347.214 46.0455 347.664 46.3594C348.113 46.6733 348.685 46.8303 349.381 46.8303ZM371.074 49.2493C369.96 49.2493 368.963 48.9631 368.082 48.3906C367.202 47.8182 366.507 46.9872 365.996 45.8977C365.485 44.8082 365.229 43.4848 365.229 41.9276C365.229 40.3518 365.488 39.0223 366.005 37.9389C366.528 36.8494 367.233 36.0277 368.119 35.4737C369.006 34.9136 369.994 34.6335 371.083 34.6335C371.914 34.6335 372.597 34.7751 373.133 35.0582C373.668 35.3352 374.093 35.6707 374.407 36.0646C374.721 36.4524 374.964 36.8187 375.136 37.1634H375.275V30.0909H378.626V49H375.339V46.7656H375.136C374.964 47.1103 374.715 47.4766 374.388 47.8643C374.062 48.246 373.631 48.5722 373.096 48.843C372.56 49.1139 371.886 49.2493 371.074 49.2493ZM372.006 46.5071C372.714 46.5071 373.317 46.3163 373.816 45.9347C374.315 45.5469 374.693 45.0083 374.952 44.3189C375.21 43.6295 375.339 42.8262 375.339 41.9091C375.339 40.992 375.21 40.1948 374.952 39.5178C374.699 38.8407 374.324 38.3144 373.825 37.9389C373.333 37.5634 372.727 37.3757 372.006 37.3757C371.262 37.3757 370.64 37.5696 370.141 37.9574C369.643 38.3452 369.267 38.8807 369.015 39.5639C368.763 40.2472 368.636 41.0289 368.636 41.9091C368.636 42.7955 368.763 43.5864 369.015 44.282C369.273 44.9714 369.652 45.5161 370.151 45.9162C370.655 46.3101 371.274 46.5071 372.006 46.5071ZM388.466 49.277C387.045 49.277 385.817 48.9815 384.782 48.3906C383.755 47.7936 382.964 46.9503 382.41 45.8608C381.856 44.7652 381.579 43.4756 381.579 41.9922C381.579 40.5334 381.856 39.2531 382.41 38.1513C382.97 37.0433 383.751 36.1816 384.755 35.5661C385.758 34.9444 386.937 34.6335 388.291 34.6335C389.165 34.6335 389.99 34.7751 390.765 35.0582C391.547 35.3352 392.237 35.7661 392.834 36.3509C393.437 36.9356 393.911 37.6804 394.256 38.5852C394.6 39.4839 394.773 40.5549 394.773 41.7983V42.8232H383.148V40.5703H391.569C391.563 39.9302 391.424 39.3608 391.153 38.8622C390.882 38.3575 390.504 37.9605 390.018 37.6712C389.537 37.3819 388.977 37.2372 388.337 37.2372C387.654 37.2372 387.054 37.4034 386.537 37.7358C386.02 38.062 385.617 38.4929 385.327 39.0284C385.044 39.5578 384.899 40.1394 384.893 40.7734V42.7401C384.893 43.5649 385.044 44.2727 385.346 44.8636C385.647 45.4484 386.069 45.8977 386.611 46.2116C387.152 46.5194 387.786 46.6733 388.513 46.6733C388.999 46.6733 389.439 46.6056 389.833 46.4702C390.227 46.3286 390.568 46.1224 390.858 45.8516C391.147 45.5807 391.366 45.2453 391.513 44.8452L394.634 45.196C394.437 46.0208 394.062 46.741 393.508 47.3565C392.96 47.9659 392.258 48.4399 391.403 48.7784C390.547 49.1108 389.568 49.277 388.466 49.277ZM232.293 80H228.637L235.294 61.0909H239.523L246.189 80H242.533L237.482 64.9688H237.335L232.293 80ZM232.413 72.5859H242.385V75.3374H232.413V72.5859ZM259.512 69.5668L256.465 69.8991C256.379 69.5914 256.228 69.3021 256.013 69.0312C255.804 68.7604 255.52 68.5419 255.163 68.3757C254.806 68.2095 254.369 68.1264 253.852 68.1264C253.157 68.1264 252.572 68.2772 252.098 68.5788C251.63 68.8804 251.399 69.2713 251.406 69.7514C251.399 70.1638 251.55 70.4993 251.858 70.7578C252.172 71.0163 252.689 71.2287 253.409 71.3949L255.828 71.9119C257.17 72.2012 258.167 72.6598 258.82 73.2876C259.478 73.9155 259.811 74.7372 259.817 75.7528C259.811 76.6454 259.549 77.4332 259.032 78.1165C258.521 78.7936 257.81 79.3229 256.899 79.7045C255.988 80.0862 254.942 80.277 253.76 80.277C252.024 80.277 250.627 79.9138 249.568 79.1875C248.509 78.455 247.879 77.4363 247.675 76.1314L250.935 75.8175C251.082 76.4576 251.396 76.9408 251.876 77.267C252.357 77.5933 252.981 77.7564 253.751 77.7564C254.545 77.7564 255.182 77.5933 255.662 77.267C256.148 76.9408 256.391 76.5376 256.391 76.0575C256.391 75.6513 256.234 75.3158 255.92 75.0511C255.613 74.7865 255.133 74.5833 254.48 74.4418L252.061 73.9339C250.701 73.6508 249.694 73.1738 249.042 72.5028C248.389 71.8258 248.066 70.9702 248.072 69.9361C248.066 69.062 248.303 68.3049 248.783 67.6648C249.27 67.0185 249.944 66.5199 250.805 66.169C251.673 65.812 252.674 65.6335 253.806 65.6335C255.468 65.6335 256.776 65.9875 257.73 66.6953C258.69 67.4032 259.284 68.3603 259.512 69.5668ZM262.573 80V65.8182H265.915V80H262.573ZM264.253 63.8054C263.724 63.8054 263.268 63.63 262.887 63.2791C262.505 62.9221 262.314 62.4943 262.314 61.9957C262.314 61.491 262.505 61.0632 262.887 60.7124C263.268 60.3553 263.724 60.1768 264.253 60.1768C264.789 60.1768 265.244 60.3553 265.62 60.7124C266.001 61.0632 266.192 61.491 266.192 61.9957C266.192 62.4943 266.001 62.9221 265.62 63.2791C265.244 63.63 264.789 63.8054 264.253 63.8054ZM273.433 80.2862C272.534 80.2862 271.725 80.1262 271.005 79.8061C270.291 79.4799 269.724 78.9998 269.306 78.3658C268.894 77.7318 268.687 76.95 268.687 76.0206C268.687 75.2204 268.835 74.5587 269.131 74.0355C269.426 73.5123 269.829 73.0938 270.34 72.7798C270.851 72.4659 271.426 72.2289 272.067 72.0689C272.713 71.9027 273.381 71.7827 274.07 71.7088C274.901 71.6226 275.575 71.5457 276.092 71.478C276.609 71.4041 276.985 71.2933 277.219 71.1456C277.459 70.9917 277.579 70.7547 277.579 70.4347V70.3793C277.579 69.6837 277.372 69.1451 276.96 68.7635C276.548 68.3819 275.954 68.1911 275.178 68.1911C274.359 68.1911 273.71 68.3696 273.23 68.7266C272.756 69.0836 272.436 69.5052 272.27 69.9915L269.149 69.5483C269.395 68.6866 269.801 67.9664 270.368 67.3878C270.934 66.803 271.626 66.366 272.445 66.0767C273.264 65.7812 274.169 65.6335 275.16 65.6335C275.843 65.6335 276.523 65.7135 277.2 65.8736C277.877 66.0336 278.496 66.2983 279.056 66.6676C279.616 67.0308 280.065 67.5263 280.404 68.1541C280.749 68.782 280.921 69.5668 280.921 70.5085V80H277.708V78.0518H277.597C277.394 78.4458 277.108 78.8151 276.738 79.1598C276.375 79.4983 275.917 79.7723 275.363 79.9815C274.815 80.1847 274.172 80.2862 273.433 80.2862ZM274.301 77.8303C274.972 77.8303 275.554 77.6979 276.046 77.4332C276.538 77.1624 276.917 76.8054 277.182 76.3622C277.452 75.919 277.588 75.4358 277.588 74.9126V73.2415C277.483 73.3277 277.305 73.4077 277.052 73.4815C276.806 73.5554 276.529 73.62 276.221 73.6754C275.914 73.7308 275.609 73.7801 275.307 73.8232C275.006 73.8662 274.744 73.9032 274.523 73.9339C274.024 74.0017 273.578 74.1125 273.184 74.2663C272.79 74.4202 272.479 74.6357 272.251 74.9126C272.023 75.1835 271.91 75.5343 271.91 75.9652C271.91 76.5807 272.134 77.0455 272.584 77.3594C273.033 77.6733 273.605 77.8303 274.301 77.8303Z" fill="white"/>
<g clip-path="url(#clip1_376_2313)">
<path d="M91.3033 95.4062L91.2148 124.211L91.2067 126.813L80.5285 133.051L64.7096 142.297L64.6211 142.348L64.6667 129.432L64.7177 110.936L91.3033 95.4062Z" fill="#E3BF94"/>
<path opacity="0.5" d="M91.2123 124.211L91.2043 126.814L80.5261 133.052L80.4804 148.951L80.4724 151.553L80.1102 151.761L73.1666 155.82L64.6562 160.791L64.6643 158.188L64.7072 142.297L64.7153 139.697L80.5368 130.455L91.2123 124.211Z" fill="white"/>
<path d="M87.9014 109.126L79.7773 113.837V107.486L87.9014 102.771V109.126Z" fill="#ACD3F2"/>
<path opacity="0.5" d="M82.3036 106.152L84.2487 105L82.8482 112.061L80.8789 113.202L82.3036 106.152Z" fill="white"/>
<path opacity="0.5" d="M84.4989 104.869L85.1347 104.467L83.7342 111.525L83.0742 111.921L84.4989 104.869Z" fill="white"/>
<path d="M79.7773 107.633V113.839L87.4158 109.399V103.193L79.7773 107.633ZM87.0777 109.256L79.933 113.402V107.527L87.0777 103.382V109.256Z" fill="#453B36"/>
<path d="M79.7344 107.465V114.019L87.5526 109.48V102.926L79.7344 107.465ZM87.2172 109.337L80.0724 113.482V107.608L87.2172 103.462V109.337Z" fill="#856644"/>
<path d="M84.8407 104.683V110.557L84.7656 110.6L84.7737 110.934L85.1761 110.7V104.467L84.8407 104.683Z" fill="#453B36"/>
<path d="M84.6006 104.982L84.9762 104.763V110.637L84.7669 110.759L84.7776 111.093L85.3142 110.78V104.227L84.5898 104.647L84.6006 104.982Z" fill="#856644"/>
<path d="M81.829 106.427V112.304L81.7539 112.347L81.7646 112.678L82.1671 112.446V106.098L81.829 106.427Z" fill="#453B36"/>
<path d="M81.5901 106.727L81.9684 106.509V112.383L81.7591 112.507L81.7672 112.839L82.3038 112.528V105.975L81.582 106.395L81.5901 106.727Z" fill="#856644"/>
<path d="M87.5547 102.928V109.479L87.7988 109.622L87.8927 109.285L88.1235 102.928L87.9035 102.771L87.5547 102.928Z" fill="#CCA67C"/>
<path d="M87.7972 103.069V109.623L88.1352 109.426V102.535L82.5117 105.799L82.5198 106.133L87.7972 103.069Z" fill="white"/>
<path d="M79.6406 114.357L79.9787 114.16V107.609L82.5195 106.133L82.5114 105.799L79.6406 107.463V114.357Z" fill="white"/>
<path d="M88.334 102.268L79.5392 108.045L78.957 107.708V107.341L88.334 101.898V102.268Z" fill="#5E4830"/>
<path d="M88.9134 102.606L79.5391 108.046V107.679L88.9134 102.236V102.606Z" fill="#5E4830"/>
<path d="M88.1349 109.793L79.6406 114.723V114.356L88.1349 109.426V109.793Z" fill="white"/>
<path d="M88.9136 102.236L79.5392 107.678L78.957 107.341L88.334 101.898L88.9136 102.236Z" fill="#CCA67C"/>
<path d="M87.7987 109.623L79.9805 114.16V113.877L87.5545 109.48L87.7987 109.623Z" fill="#CCA67C"/>
<path d="M75.7283 116.189L67.6016 120.904V114.55L75.7283 109.838V116.189Z" fill="#ACD3F2"/>
<path opacity="0.5" d="M70.1305 113.218L72.073 112.066L70.6724 119.127L68.7031 120.268L70.1305 113.218Z" fill="white"/>
<path opacity="0.5" d="M72.3258 111.935L72.9616 111.533L71.5584 118.591L70.8984 118.985L72.3258 111.935Z" fill="white"/>
<path d="M67.6016 114.699V120.905L75.24 116.466V110.26L67.6016 114.699ZM74.9019 116.323L67.7572 120.468V114.594L74.9019 110.449V116.323Z" fill="#453B36"/>
<path d="M67.5586 114.531V121.085L75.3768 116.546V109.992L67.5586 114.531ZM75.0414 116.403L67.8967 120.548V114.674L75.0414 110.529V116.403Z" fill="#856644"/>
<path d="M72.665 111.749V117.623L72.5898 117.666L72.5979 118.001L73.003 117.766V111.533L72.665 111.749Z" fill="#453B36"/>
<path d="M72.4248 112.048L72.8031 111.83V117.704L72.5911 117.825L72.6019 118.157L73.1385 117.847V111.293L72.4141 111.714L72.4248 112.048Z" fill="#856644"/>
<path d="M69.6532 113.493V119.367L69.5781 119.413L69.5889 119.745L69.9913 119.513V113.164L69.6532 113.493Z" fill="#453B36"/>
<path d="M69.4143 113.793L69.7926 113.575V119.449L69.5833 119.571L69.5914 119.905L70.1306 119.592V113.041L69.4062 113.462L69.4143 113.793Z" fill="#856644"/>
<path d="M75.3789 109.994V116.545L75.6204 116.688L75.7143 116.351L75.945 109.994L75.7277 109.838L75.3789 109.994Z" fill="#CCA67C"/>
<path d="M75.6226 110.136V116.689L75.9607 116.492V109.602L70.3398 112.865L70.3452 113.199L75.6226 110.136Z" fill="white"/>
<path d="M67.4648 121.423L67.8029 121.226V114.675L70.3437 113.2L70.3383 112.865L67.4648 114.529V121.423Z" fill="white"/>
<path d="M76.1582 109.332L67.3635 115.111L66.7812 114.774V114.407L76.1582 108.965V109.332Z" fill="#5E4830"/>
<path d="M76.7403 109.672L67.3633 115.112V114.745L76.7403 109.303V109.672Z" fill="#5E4830"/>
<path d="M75.9591 116.859L67.4648 121.789V121.422L75.9591 116.492V116.859Z" fill="white"/>
<path d="M76.7405 109.302L67.3635 114.745L66.7812 114.407L76.1582 108.965L76.7405 109.302Z" fill="#CCA67C"/>
<path d="M75.6229 116.69L67.8047 121.226V120.943L75.3814 116.547L75.6229 116.69Z" fill="#CCA67C"/>
<path d="M87.9014 121.947L79.7773 126.662V120.307L87.9014 115.596V121.947Z" fill="#ACD3F2"/>
<path opacity="0.5" d="M82.3036 118.976L84.2487 117.824L82.8482 124.882L80.8789 126.026L82.3036 118.976Z" fill="white"/>
<path opacity="0.5" d="M84.4989 117.692L85.1347 117.287L83.7342 124.348L83.0742 124.742L84.4989 117.692Z" fill="white"/>
<path d="M79.7773 120.453V126.659L87.4158 122.22V116.014L79.7773 120.453ZM87.0777 122.079L79.933 126.225V120.351L87.0777 116.205V122.079Z" fill="#453B36"/>
<path d="M79.7344 120.289V126.843L87.5526 122.304V115.75L79.7344 120.289ZM87.2172 122.161L80.0724 126.306V120.432L87.2172 116.287V122.161Z" fill="#856644"/>
<path d="M84.8407 117.505V123.382L84.7656 123.425L84.7737 123.757L85.1761 123.525V117.289L84.8407 117.505Z" fill="#453B36"/>
<path d="M84.6006 117.803L84.9762 117.585V123.459L84.7669 123.583L84.7776 123.915L85.3142 123.605V117.051L84.5898 117.472L84.6006 117.803Z" fill="#856644"/>
<path d="M81.829 119.251V125.125L81.7539 125.168L81.7646 125.503L82.1671 125.268V118.922L81.829 119.251Z" fill="#453B36"/>
<path d="M81.5901 119.55L81.9684 119.332V125.206L81.7591 125.327L81.7672 125.662L82.3038 125.349V118.795L81.582 119.216L81.5901 119.55Z" fill="#856644"/>
<path d="M87.5547 115.749V122.303L87.7988 122.443L87.8927 122.106L88.1235 115.749L87.9035 115.596L87.5547 115.749Z" fill="#CCA67C"/>
<path d="M87.7972 115.894V122.445L88.1352 122.251V115.357L82.5117 118.621L82.5198 118.955L87.7972 115.894Z" fill="white"/>
<path d="M79.6406 127.177L79.9787 126.983V120.429L82.5195 118.954L82.5114 118.619L79.6406 120.286V127.177Z" fill="white"/>
<path d="M88.334 115.089L79.5392 120.869L78.957 120.532V120.165L88.334 114.723V115.089Z" fill="#5E4830"/>
<path d="M88.9134 115.427L79.5391 120.87V120.503L88.9134 115.061V115.427Z" fill="#5E4830"/>
<path d="M88.1349 122.617L79.6406 127.544V127.177L88.1349 122.25V122.617Z" fill="white"/>
<path d="M88.9136 115.06L79.5392 120.502L78.957 120.165L88.334 114.723L88.9136 115.06Z" fill="#CCA67C"/>
<path d="M87.7987 122.445L79.9805 126.984V126.701L87.5545 122.305L87.7987 122.445Z" fill="#CCA67C"/>
<path d="M75.7283 129.014L67.6016 133.725V127.374L75.7283 122.662V129.014Z" fill="#ACD3F2"/>
<path opacity="0.5" d="M70.1305 126.042L72.073 124.891L70.6724 131.949L68.7031 133.092L70.1305 126.042Z" fill="white"/>
<path opacity="0.5" d="M72.3258 124.758L72.9616 124.354L71.5584 131.414L70.8984 131.808L72.3258 124.758Z" fill="white"/>
<path d="M67.6016 127.519V133.725L75.24 129.286V123.08L67.6016 127.519ZM74.9019 129.146L67.7572 133.291V127.417L74.9019 123.272V129.146Z" fill="#453B36"/>
<path d="M67.5586 127.356V133.909L75.3768 129.37V122.816L67.5586 127.356ZM75.0414 129.227L67.8967 133.373V127.498L75.0414 123.353V129.227Z" fill="#856644"/>
<path d="M72.665 124.571V130.445L72.5898 130.491L72.5979 130.823L73.003 130.591V124.355L72.665 124.571Z" fill="#453B36"/>
<path d="M72.4248 124.87L72.8031 124.651V130.525L72.5911 130.647L72.6019 130.981L73.1385 130.668V124.117L72.4141 124.538L72.4248 124.87Z" fill="#856644"/>
<path d="M69.6532 126.317V132.191L69.5781 132.235L69.5889 132.569L69.9913 132.334V125.988L69.6532 126.317Z" fill="#453B36"/>
<path d="M69.4143 126.616L69.7926 126.398V132.272L69.5833 132.394L69.5914 132.728L70.1306 132.415V125.861L69.4062 126.282L69.4143 126.616Z" fill="#856644"/>
<path d="M75.3789 122.816V129.37L75.6204 129.51L75.7143 129.173L75.945 122.816L75.7277 122.662L75.3789 122.816Z" fill="#CCA67C"/>
<path d="M75.6226 122.958V129.512L75.9607 129.317V122.424L70.3398 125.687L70.3452 126.022L75.6226 122.958Z" fill="white"/>
<path d="M67.4648 134.243L67.8029 134.049V127.495L70.3437 126.02L70.3383 125.686L67.4648 127.352V134.243Z" fill="white"/>
<path d="M76.1582 122.156L67.3635 127.936L66.7812 127.598V127.232L76.1582 121.789V122.156Z" fill="#5E4830"/>
<path d="M76.7403 122.494L67.3633 127.936V127.57L76.7403 122.127V122.494Z" fill="#5E4830"/>
<path d="M75.9591 129.683L67.4648 134.611V134.244L75.9591 129.316V129.683Z" fill="white"/>
<path d="M76.7405 122.126L67.3635 127.569L66.7812 127.232L76.1582 121.789L76.7405 122.126Z" fill="#CCA67C"/>
<path d="M75.6229 129.511L67.8047 134.05V133.767L75.3814 129.371L75.6229 129.511Z" fill="#CCA67C"/>
<path d="M80.5764 120.141L80.5388 130.454L80.5281 133.051L80.4825 148.95L80.4744 151.553L80.1122 151.761L73.1687 155.82L64.6583 160.79L61.5299 162.619L61.4414 162.67L61.4495 159.965L61.538 131.26L64.6663 129.432L80.5764 120.141Z" fill="#E8CFB0"/>
<path d="M73.3216 138.337L64.2076 143.658L61.4548 145.268L61.4495 147.261L61.4414 149.967L61.5299 149.915L64.6583 148.087L73.1687 143.119L80.1122 139.06L80.4744 138.849L80.4825 136.247L80.4879 134.148L73.3216 138.337Z" fill="#70594D"/>
<path d="M61.5377 131.261L61.4492 159.965L61.4411 162.671L45.6759 153.522L45.582 153.466L45.5901 150.868L45.684 122.059L61.5377 131.261Z" fill="#C69C6D"/>
<path d="M45.6837 122.059L45.5898 150.868L45.5817 153.466L19.0846 168.949L18.9961 169L19.0041 166.298L19.0954 137.591L45.6837 122.059Z" fill="#E8CFB0"/>
<path d="M19.0933 137.59L19.0021 166.297L18.9941 169L1.68619 158.95L1.59766 158.899L1.69693 127.492L19.0933 137.59Z" fill="#C69C6D"/>
<g opacity="0.2">
<path d="M1.69424 130.784L1.59766 126.236L73.9039 86.625L91.303 93.8342V98.6996L66.4103 113.239L80.4852 120.869L80.5737 123.431L61.538 134.554L45.6816 125.352L19.0933 140.884L1.69424 130.784Z" fill="#8C5D46"/>
</g>
<path opacity="0.5" d="M80.4799 148.951L80.4718 151.554L80.1096 151.761L73.1661 155.821L64.6557 160.791L61.5273 162.62L61.5354 160.017L64.6637 158.189L80.4799 148.951Z" fill="white"/>
<path opacity="0.5" d="M61.5375 160.017L61.5295 162.619L61.4409 162.671L45.6758 153.522L45.6838 150.814L61.449 159.965L61.5375 160.017Z" fill="white"/>
<path opacity="0.5" d="M45.685 150.814L45.6769 153.522L45.583 153.466L19.0859 168.949L19.0967 166.349L45.5911 150.868L45.685 150.814Z" fill="white"/>
<path opacity="0.5" d="M19.0946 166.348L19.0839 168.948L18.9954 169L1.6875 158.95L1.69823 156.248L19.0034 166.297L19.0946 166.348Z" fill="white"/>
<path d="M0 127.494V123.743L73.9053 84.3203L93 91.6508V95.4024L66.4117 110.935L82.2681 116.388V120.137L61.5394 132.247L45.683 123.044L19.0947 138.577L0 127.494Z" fill="#453B36"/>
<path d="M0 123.744L73.9053 80.5703L93 91.6524L66.4117 107.185L82.2681 116.39L61.5394 128.497L45.683 119.294L19.0947 134.829L0 123.744Z" fill="white"/>
<path d="M1.69531 123.741V121.184L73.9076 81.5566L91.304 89.0975V91.6543L64.7157 107.187L80.5721 113.832V116.389L61.5391 127.509L45.6827 118.306L19.0944 133.839L1.69531 123.741Z" fill="#453B36"/>
<path d="M1.69531 121.184L73.9076 79L91.304 89.0977L64.7157 104.63L80.5721 113.832L61.5391 124.952L45.6827 115.75L19.0944 131.282L1.69531 121.184Z" fill="#E8CFB0"/>
<path d="M85.8568 89.8107L60.4758 104.636L61.6832 105.337L76.3322 113.839L75.1249 114.545L61.5329 122.483L45.6765 113.28L19.0882 128.815L7.14093 121.881L5.93359 121.18L73.9095 81.4688L87.0641 89.1041L85.8568 89.8107Z" fill="white"/>
<path d="M60.4755 106.04L75.1245 114.544L61.5326 122.481L45.6762 113.279L19.0879 128.814L7.14062 121.879L73.9092 82.875L85.8565 89.8091L60.4755 104.635V106.04Z" fill="#453B36"/>
<path d="M76.2092 143.65V154.045L71.3906 156.863V146.436L76.2092 143.65Z" fill="white"/>
<path d="M71.875 156.571L71.8777 156.28V146.719L75.4729 144.637L75.7251 144.494V154.344L71.875 156.571Z" fill="#453B36"/>
<path d="M71.875 156.28V146.719L75.4702 144.637L75.4729 154.198L71.875 156.28Z" fill="#ACD3F2"/>
<path opacity="0.5" d="M75.379 144.883L74.1341 145.622L71.9609 156.181L73.9302 155.037L75.379 147.909V144.883Z" fill="white"/>
<path opacity="0.5" d="M75.3785 148.939L74.1523 154.897L74.8124 154.503L75.3785 151.717V148.939Z" fill="white"/>
<path d="M71.7547 151.311C71.6903 151.276 71.7762 151.092 71.854 151.138L72.1196 151.292C72.2591 151.373 72.3637 151.572 72.3637 151.753V152.786C72.3637 152.899 72.3208 152.988 72.2457 153.031C72.1786 153.069 72.0954 153.067 72.0176 153.021L71.752 152.867C71.6876 152.829 71.7815 152.654 71.8513 152.694L72.1169 152.848C72.133 152.859 72.1437 152.859 72.1464 152.859C72.1491 152.856 72.1652 152.837 72.1652 152.786V151.753C72.1652 151.645 72.0981 151.508 72.0176 151.465L71.7547 151.311Z" fill="white"/>
<path d="M71.8733 146.178V156.572L67.0547 159.388V148.961L71.8733 146.178Z" fill="white"/>
<path d="M67.5391 159.097V158.808V149.245L71.1369 147.165L71.3864 147.02V156.869L67.5391 159.097Z" fill="#453B36"/>
<path d="M67.5391 158.807V149.243L71.1369 147.164V156.722L67.5391 158.807Z" fill="#ACD3F2"/>
<path opacity="0.5" d="M71.0536 147.27L69.8087 148.006L67.6328 158.567L69.6021 157.424L71.0536 150.296V147.27Z" fill="white"/>
<path opacity="0.5" d="M71.053 151.326L69.8242 157.284L70.4842 156.89L71.053 154.101V151.326Z" fill="white"/>
<path d="M70.8445 151.701C70.7801 151.666 70.866 151.483 70.9438 151.529L71.2094 151.683C71.3489 151.763 71.4536 151.963 71.4536 152.146V153.179C71.4536 153.293 71.4106 153.382 71.3355 153.425C71.2685 153.463 71.1853 153.46 71.1075 153.414L70.8418 153.26C70.7775 153.223 70.8714 153.047 70.9411 153.088L71.2067 153.241C71.2228 153.252 71.2336 153.252 71.2362 153.252C71.2389 153.249 71.255 153.231 71.255 153.179V152.146C71.255 152.039 71.188 151.901 71.1075 151.858L70.8445 151.701Z" fill="white"/>
<path d="M42.8142 135.291L34.6875 140.005V133.651L42.8142 128.939V135.291Z" fill="#ACD3F2"/>
<path opacity="0.5" d="M37.2164 132.32L39.1589 131.168L37.7584 138.226L35.7891 139.37L37.2164 132.32Z" fill="white"/>
<path opacity="0.5" d="M39.4117 131.037L40.0476 130.635L38.6444 137.693L37.9844 138.087L39.4117 131.037Z" fill="white"/>
<path d="M34.6875 133.801V140.007L42.3259 135.567V129.361L34.6875 133.801ZM41.9879 135.424L34.8431 139.57V133.695L41.9879 129.55V135.424Z" fill="#453B36"/>
<path d="M34.6445 133.633V140.187L42.4627 135.648V129.094L34.6445 133.633ZM42.1274 135.505L34.9826 139.65V133.776L42.1274 129.63V135.505Z" fill="#856644"/>
<path d="M39.7509 130.851V136.725L39.6758 136.768L39.6838 137.102L40.089 136.868V130.635L39.7509 130.851Z" fill="#453B36"/>
<path d="M39.5107 131.15L39.889 130.929V136.805L39.6798 136.927L39.6878 137.258L40.2244 136.948V130.395L39.5 130.815L39.5107 131.15Z" fill="#856644"/>
<path d="M36.7392 132.595V138.469L36.6641 138.515L36.6748 138.846L37.0772 138.612V132.266L36.7392 132.595Z" fill="#453B36"/>
<path d="M36.5002 132.895L36.8785 132.677V138.551L36.6693 138.672L36.68 139.007L37.2166 138.694V132.143L36.4922 132.563L36.5002 132.895Z" fill="#856644"/>
<path d="M42.4648 129.093V135.647L42.7063 135.787L42.8002 135.45L43.031 129.093L42.8136 128.939L42.4648 129.093Z" fill="#CCA67C"/>
<path d="M42.7086 129.237V135.788L43.0466 135.594V128.703L37.4258 131.964L37.4311 132.301L42.7086 129.237Z" fill="white"/>
<path d="M34.5547 140.523L34.8901 140.326V133.773L37.4308 132.3L37.4255 131.963L34.5547 133.63V140.523Z" fill="white"/>
<path d="M43.2442 128.433L34.4494 134.213L33.8672 133.876V133.509L43.2442 128.066V128.433Z" fill="#5E4830"/>
<path d="M43.8262 128.771L34.4492 134.214V133.847L43.8262 128.404V128.771Z" fill="#5E4830"/>
<path d="M43.0463 135.961L34.5547 140.891V140.524L43.0463 135.594V135.961Z" fill="white"/>
<path d="M43.8264 128.404L34.4494 133.846L33.8672 133.509L43.2442 128.066L43.8264 128.404Z" fill="#CCA67C"/>
<path d="M42.7088 135.789L34.8906 140.328V140.045L42.4674 135.648L42.7088 135.789Z" fill="#CCA67C"/>
<path d="M30.6385 142.357L22.5117 147.072V140.718L30.6385 136.006V142.357Z" fill="#ACD3F2"/>
<path opacity="0.5" d="M25.0406 139.386L26.9858 138.234L25.5826 145.293L23.6133 146.436L25.0406 139.386Z" fill="white"/>
<path opacity="0.5" d="M27.2359 138.103L27.8718 137.701L26.4713 144.759L25.8086 145.153L27.2359 138.103Z" fill="white"/>
<path d="M22.5117 140.867V147.073L30.1502 142.634V136.428L22.5117 140.867ZM29.8148 142.491L22.67 146.636V140.762L29.8148 136.617V142.491Z" fill="#453B36"/>
<path d="M22.4727 140.699V147.253L30.2908 142.714V136.16L22.4727 140.699ZM29.9528 142.571L22.808 146.716V140.842L29.9528 136.697V142.571Z" fill="#856644"/>
<path d="M27.5751 137.914V143.791L27.5 143.834L27.5107 144.169L27.9132 143.934V137.701L27.5751 137.914Z" fill="#453B36"/>
<path d="M27.3362 138.216L27.7145 137.995V143.872L27.5052 143.993L27.5133 144.325L28.0525 144.015V137.461L27.3281 137.882L27.3362 138.216Z" fill="#856644"/>
<path d="M24.5661 139.661V145.535L24.4883 145.578L24.499 145.913L24.9015 145.678V139.332L24.5661 139.661Z" fill="#453B36"/>
<path d="M24.3271 139.961L24.7028 139.743V145.617L24.4935 145.738L24.5042 146.073L25.0408 145.76V139.209L24.3164 139.627L24.3271 139.961Z" fill="#856644"/>
<path d="M30.2891 136.16V142.713L30.5332 142.854L30.6271 142.516L30.8552 136.16L30.6378 136.006L30.2891 136.16Z" fill="#CCA67C"/>
<path d="M30.5355 136.304V142.855L30.8708 142.66V135.77L25.25 139.03L25.2554 139.367L30.5355 136.304Z" fill="white"/>
<path d="M22.3789 147.587L22.7143 147.393V140.839L25.2551 139.366L25.2497 139.029L22.3789 140.696V147.587Z" fill="white"/>
<path d="M31.0684 135.5L22.2736 141.279L21.6914 140.942V140.575L31.0684 135.133V135.5Z" fill="#5E4830"/>
<path d="M31.6504 135.837L22.2734 141.28V140.913L31.6504 135.471V135.837Z" fill="#5E4830"/>
<path d="M30.8705 143.027L22.3789 147.957V147.588L30.8705 142.66V143.027Z" fill="white"/>
<path d="M31.6506 135.47L22.2736 140.913L21.6914 140.575L31.0684 135.133L31.6506 135.47Z" fill="#CCA67C"/>
<path d="M30.5357 142.855L22.7148 147.394V147.111L30.2916 142.715L30.5357 142.855Z" fill="#CCA67C"/>
<path d="M42.8142 148.116L34.6875 152.828V146.476L42.8142 141.762V148.116Z" fill="#ACD3F2"/>
<path opacity="0.5" d="M37.2164 145.141L39.1589 143.992L37.7584 151.05L35.7891 152.194L37.2164 145.141Z" fill="white"/>
<path opacity="0.5" d="M39.4117 143.86L40.0476 143.455L38.6444 150.516L37.9844 150.91L39.4117 143.86Z" fill="white"/>
<path d="M34.6875 146.621V152.827L42.3259 148.388V142.182L34.6875 146.621ZM41.9879 148.247L34.8431 152.393V146.518L41.9879 142.373V148.247Z" fill="#453B36"/>
<path d="M34.6445 146.457V153.011L42.4627 148.472V141.918L34.6445 146.457ZM42.1274 148.326L34.9826 152.471V146.597L42.1274 142.452V148.326Z" fill="#856644"/>
<path d="M39.7509 143.673V149.547L39.6758 149.593L39.6838 149.925L40.089 149.69V143.457L39.7509 143.673Z" fill="#453B36"/>
<path d="M39.5107 143.971L39.889 143.753V149.627L39.6798 149.748L39.6878 150.083L40.2244 149.77V143.219L39.5 143.639L39.5107 143.971Z" fill="#856644"/>
<path d="M36.7392 145.419V151.293L36.6641 151.336L36.6748 151.671L37.0772 151.436V145.09L36.7392 145.419Z" fill="#453B36"/>
<path d="M36.5002 145.718L36.8785 145.497V151.374L36.6693 151.495L36.68 151.827L37.2166 151.517V144.963L36.4922 145.384L36.5002 145.718Z" fill="#856644"/>
<path d="M42.4648 141.918V148.472L42.7063 148.612L42.8002 148.275L43.031 141.918L42.8136 141.762L42.4648 141.918Z" fill="#CCA67C"/>
<path d="M42.7086 142.059V148.613L43.0466 148.416V141.525L37.4258 144.789L37.4311 145.123L42.7086 142.059Z" fill="white"/>
<path d="M34.5547 153.345L34.8901 153.148V146.597L37.4308 145.122L37.4255 144.787L34.5547 146.454V153.345Z" fill="white"/>
<path d="M43.2442 141.257L34.4494 147.037L33.8672 146.7V146.331L43.2442 140.891V141.257Z" fill="#5E4830"/>
<path d="M43.8262 141.595L34.4492 147.038V146.671L43.8262 141.229V141.595Z" fill="#5E4830"/>
<path d="M43.0463 148.786L34.5547 153.713V153.346L43.0463 148.416V148.786Z" fill="white"/>
<path d="M43.8264 141.228L34.4494 146.67L33.8672 146.331L43.2442 140.891L43.8264 141.228Z" fill="#CCA67C"/>
<path d="M42.7088 148.613L34.8906 153.149V152.869L42.4674 148.473L42.7088 148.613Z" fill="#CCA67C"/>
<path d="M30.6385 155.182L22.5117 159.894V153.543L30.6385 148.828V155.182Z" fill="#ACD3F2"/>
<path opacity="0.5" d="M25.0406 152.208L26.9858 151.057L25.5826 158.117L23.6133 159.261L25.0406 152.208Z" fill="white"/>
<path opacity="0.5" d="M27.2359 150.926L27.8718 150.521L26.4713 157.58L25.8086 157.976L27.2359 150.926Z" fill="white"/>
<path d="M22.5117 153.687V159.893L30.1502 155.454V149.248L22.5117 153.687ZM29.8148 155.311L22.67 159.459V153.585L29.8148 149.44V155.311Z" fill="#453B36"/>
<path d="M22.4727 153.522V160.075L30.2908 155.536V148.982L22.4727 153.522ZM29.9528 155.393L22.808 159.539V153.664L29.9528 149.519V155.393Z" fill="#856644"/>
<path d="M27.5751 150.739V156.613L27.5 156.656L27.5107 156.991L27.9132 156.756V150.523L27.5751 150.739Z" fill="#453B36"/>
<path d="M27.3362 151.038L27.7145 150.819V156.693L27.5052 156.815L27.5133 157.149L28.0525 156.836V150.285L27.3281 150.703L27.3362 151.038Z" fill="#856644"/>
<path d="M24.5661 152.483V158.359L24.4883 158.403L24.499 158.737L24.9015 158.502V152.156L24.5661 152.483Z" fill="#453B36"/>
<path d="M24.3271 152.784L24.7028 152.563V158.44L24.4935 158.562L24.5042 158.893L25.0408 158.583V152.029L24.3164 152.45L24.3271 152.784Z" fill="#856644"/>
<path d="M30.2891 148.985V155.536L30.5332 155.679L30.6271 155.341L30.8552 148.985L30.6378 148.828L30.2891 148.985Z" fill="#CCA67C"/>
<path d="M30.5355 149.126V155.68L30.8708 155.483V148.592L25.25 151.855L25.2554 152.19L30.5355 149.126Z" fill="white"/>
<path d="M22.3789 160.411L22.7143 160.214V153.663L25.2551 152.188L25.2497 151.854L22.3789 153.52V160.411Z" fill="white"/>
<path d="M31.0684 148.324L22.2736 154.104L21.6914 153.764V153.397L31.0684 147.957V148.324Z" fill="#5E4830"/>
<path d="M31.6504 148.662L22.2734 154.104V153.735L31.6504 148.295V148.662Z" fill="#5E4830"/>
<path d="M30.8705 155.849L22.3789 160.779V160.413L30.8705 155.482V155.849Z" fill="white"/>
<path d="M31.6506 148.294L22.2736 153.734L21.6914 153.397L31.0684 147.957L31.6506 148.294Z" fill="#CCA67C"/>
<path d="M30.5357 155.678L22.7148 160.215V159.934L30.2916 155.535L30.5357 155.678Z" fill="#CCA67C"/>
<path d="M6.0625 142.357L14.1892 147.072V140.718L6.0625 136.006V142.357Z" fill="#ACD3F2"/>
<path opacity="0.5" d="M11.66 139.386L9.71484 138.234L11.118 145.293L13.0873 146.436L11.66 139.386Z" fill="white"/>
<path opacity="0.5" d="M9.4679 138.103L8.83203 137.701L10.2352 144.759L10.8952 145.153L9.4679 138.103Z" fill="white"/>
<path d="M6.55078 136.428V142.634L14.1892 147.073V140.867L6.55078 136.428ZM6.88884 136.617L14.0309 140.762V146.636L6.88615 142.491V136.617H6.88884Z" fill="#453B36"/>
<path d="M6.41016 136.16V142.714L14.2283 147.253V140.699L6.41016 136.16ZM6.74821 136.697L13.893 140.842V146.716L6.74821 142.571V136.697Z" fill="#856644"/>
<path d="M9.12712 137.914V143.791L9.20224 143.834L9.19151 144.169L8.78906 143.934V137.701L9.12712 137.914Z" fill="#453B36"/>
<path d="M9.36479 138.216L8.98649 137.995V143.872L9.19576 143.993L9.18772 144.325L8.64844 144.015V137.461L9.37284 137.882L9.36479 138.216Z" fill="#856644"/>
<path d="M12.1322 139.661V145.535L12.2101 145.578L12.1993 145.913L11.7969 145.678V139.332L12.1322 139.661Z" fill="#453B36"/>
<path d="M12.3738 139.961L11.9982 139.743V145.617L12.2075 145.738L12.1968 146.073L11.6602 145.76V139.209L12.3846 139.627L12.3738 139.961Z" fill="#856644"/>
<path d="M6.40986 136.16V142.713L6.16571 142.854L6.0718 142.516L5.84375 136.16L6.06107 136.006L6.40986 136.16Z" fill="#CCA67C"/>
<path d="M6.1674 136.304V142.855L5.83203 142.66V135.77L11.4529 139.03L11.4475 139.367L6.1674 136.304Z" fill="white"/>
<path d="M14.3215 147.587L13.9861 147.393V140.839L11.4453 139.366L11.4507 139.029L14.3215 140.696V147.587Z" fill="white"/>
<path d="M5.63281 135.5L14.4276 141.279L15.0098 140.942V140.575L5.63281 135.133V135.5Z" fill="#5E4830"/>
<path d="M5.05078 135.837L14.4278 141.28V140.913L5.05078 135.471V135.837Z" fill="#5E4830"/>
<path d="M5.83203 143.027L14.3237 147.957V147.588L5.83203 142.66V143.027Z" fill="white"/>
<path d="M5.05078 135.47L14.4278 140.913L15.01 140.575L5.63299 135.133L5.05078 135.47Z" fill="#CCA67C"/>
<path d="M6.16797 142.855L13.9888 147.394V147.111L6.41212 142.715L6.16797 142.855Z" fill="#CCA67C"/>
<path d="M6.0625 155.182L14.1892 159.894V153.543L6.0625 148.828V155.182Z" fill="#ACD3F2"/>
<path opacity="0.5" d="M11.66 152.208L9.71484 151.057L11.118 158.117L13.0873 159.261L11.66 152.208Z" fill="white"/>
<path opacity="0.5" d="M9.4679 150.926L8.83203 150.521L10.2352 157.58L10.8952 157.976L9.4679 150.926Z" fill="white"/>
<path d="M6.55078 149.248V155.454L14.1892 159.893V153.687L6.55078 149.248ZM6.88884 149.437L14.0336 153.582V159.456L6.88884 155.311V149.437Z" fill="#453B36"/>
<path d="M6.41016 148.984V155.538L14.2283 160.077V153.523L6.41016 148.984ZM6.74821 149.518L13.893 153.664V159.538L6.74821 155.393V149.518Z" fill="#856644"/>
<path d="M9.12712 150.739V156.613L9.20224 156.656L9.19151 156.991L8.78906 156.756V150.523L9.12712 150.739Z" fill="#453B36"/>
<path d="M9.36479 151.038L8.98649 150.819V156.693L9.19576 156.815L9.18772 157.149L8.64844 156.836V150.285L9.37284 150.703L9.36479 151.038Z" fill="#856644"/>
<path d="M12.1322 152.483V158.359L12.2101 158.403L12.1993 158.737L11.7969 158.502V152.156L12.1322 152.483Z" fill="#453B36"/>
<path d="M12.3738 152.784L11.9982 152.563V158.44L12.2075 158.562L12.1968 158.893L11.6602 158.583V152.029L12.3846 152.45L12.3738 152.784Z" fill="#856644"/>
<path d="M6.40986 148.985V155.536L6.16571 155.679L6.0718 155.341L5.84375 148.985L6.06107 148.828L6.40986 148.985Z" fill="#CCA67C"/>
<path d="M6.1674 149.126V155.68L5.83203 155.483V148.592L11.4529 151.855L11.4475 152.19L6.1674 149.126Z" fill="white"/>
<path d="M14.3215 160.411L13.9861 160.214V153.663L11.4453 152.188L11.4507 151.854L14.3215 153.52V160.411Z" fill="white"/>
<path d="M5.63281 148.324L14.4276 154.104L15.0098 153.764V153.397L5.63281 147.957V148.324Z" fill="#5E4830"/>
<path d="M5.05078 148.662L14.4278 154.104V153.735L5.05078 148.295V148.662Z" fill="#5E4830"/>
<path d="M5.83203 155.849L14.3237 160.779V160.413L5.83203 155.482V155.849Z" fill="white"/>
<path d="M5.05078 148.294L14.4278 153.734L15.01 153.397L5.63299 147.957L5.05078 148.294Z" fill="#CCA67C"/>
<path d="M6.16797 155.678L13.9888 160.215V159.934L6.41212 155.535L6.16797 155.678Z" fill="#CCA67C"/>
<path d="M49.6367 135.684L57.7635 140.396V134.044L49.6367 129.33V135.684Z" fill="#ACD3F2"/>
<path opacity="0.5" d="M55.2315 132.71L53.2891 131.559L54.6896 138.619L56.6589 139.763L55.2315 132.71Z" fill="white"/>
<path opacity="0.5" d="M53.0394 131.425L52.4062 131.023L53.8068 138.082L54.4668 138.478L53.0394 131.425Z" fill="white"/>
<path d="M50.125 129.75V135.956L57.7634 140.395V134.189L50.125 129.75ZM50.4631 129.939L57.6078 134.084V139.958L50.4631 135.813V129.939Z" fill="#453B36"/>
<path d="M49.9844 129.486V136.04L57.8026 140.579V134.025L49.9844 129.486ZM50.3224 130.02L57.4672 134.166V140.04L50.3224 135.894V130.02Z" fill="#856644"/>
<path d="M52.7026 131.241V137.115L52.7777 137.158L52.7696 137.493L52.3672 137.258V131.025L52.7026 131.241Z" fill="#453B36"/>
<path d="M52.9402 131.54L52.5619 131.321V137.195L52.7739 137.317L52.7632 137.651L52.2266 137.338V130.787L52.951 131.205L52.9402 131.54Z" fill="#856644"/>
<path d="M55.7131 132.985V138.861L55.7882 138.905L55.7774 139.239L55.375 139.004V132.658L55.7131 132.985Z" fill="#453B36"/>
<path d="M55.9507 133.286L55.5724 133.065V138.942L55.7817 139.063L55.7737 139.395L55.2344 139.085V132.531L55.9588 132.952L55.9507 133.286Z" fill="#856644"/>
<path d="M49.9841 129.487V136.038L49.7426 136.181L49.6487 135.843L49.418 129.487L49.6353 129.33L49.9841 129.487Z" fill="#CCA67C"/>
<path d="M49.7443 129.628V136.182L49.4062 135.985V129.094L55.0271 132.357L55.0217 132.692L49.7443 129.628Z" fill="white"/>
<path d="M57.8984 140.913L57.5603 140.716V134.165L55.0195 132.69L55.0249 132.355L57.8984 134.022V140.913Z" fill="white"/>
<path d="M49.207 128.826L58.0018 134.606L58.584 134.266V133.899L49.207 128.459V128.826Z" fill="#5E4830"/>
<path d="M48.625 129.164L58.002 134.606V134.237L48.625 128.797V129.164Z" fill="#5E4830"/>
<path d="M49.4062 136.351L57.9006 141.281V140.915L49.4062 135.984V136.351Z" fill="white"/>
<path d="M48.625 128.796L58.002 134.236L58.5842 133.899L49.2072 128.459L48.625 128.796Z" fill="#CCA67C"/>
<path d="M49.7422 136.18L57.5604 140.716V140.436L49.9837 136.037L49.7422 136.18Z" fill="#CCA67C"/>
<path d="M75.1424 134.837L67.0156 139.548V133.197L75.1424 128.482V134.837Z" fill="#ACD3F2"/>
<path opacity="0.5" d="M69.5445 131.862L71.487 130.713L70.0865 137.771L68.1172 138.915L69.5445 131.862Z" fill="white"/>
<path opacity="0.5" d="M71.7398 130.58L72.3757 130.176L70.9725 137.237L70.3125 137.63L71.7398 130.58Z" fill="white"/>
<path d="M67.0156 133.342V139.548L74.6541 135.108V128.902L67.0156 133.342ZM74.316 134.968L67.1712 139.113V133.239L74.316 129.091V134.968Z" fill="#453B36"/>
<path d="M66.9766 133.178V139.732L74.7948 135.192V128.639L66.9766 133.178ZM74.4567 135.047L67.3119 139.192V133.318L74.4567 129.173V135.047Z" fill="#856644"/>
<path d="M72.079 130.393V136.268L72.0039 136.313L72.0146 136.645L72.4171 136.411V130.178L72.079 130.393Z" fill="#453B36"/>
<path d="M71.8401 130.692L72.2184 130.473V136.348L72.0091 136.469L72.0172 136.803L72.5538 136.491V129.939L71.832 130.36L71.8401 130.692Z" fill="#856644"/>
<path d="M69.07 132.14V138.014L68.9922 138.057L69.0029 138.391L69.4054 138.157V131.811L69.07 132.14Z" fill="#453B36"/>
<path d="M68.831 132.439L69.2067 132.218V138.094L68.9974 138.216L69.0081 138.548L69.5447 138.237V131.684L68.8203 132.104L68.831 132.439Z" fill="#856644"/>
<path d="M74.793 128.639V135.193L75.0371 135.333L75.131 134.996L75.3591 128.639L75.1418 128.482L74.793 128.639Z" fill="#CCA67C"/>
<path d="M75.0394 128.78V135.334L75.3747 135.137V128.246L69.7539 131.51L69.7593 131.844L75.0394 128.78Z" fill="white"/>
<path d="M66.8828 140.065L67.2182 139.869V133.318L69.759 131.842L69.7536 131.508L66.8828 133.175V140.065Z" fill="white"/>
<path d="M75.5723 127.978L66.7775 133.758L66.1953 133.421V133.051L75.5723 127.611V127.978Z" fill="#5E4830"/>
<path d="M76.1543 128.316L66.7773 133.759V133.392L76.1543 127.949V128.316Z" fill="#5E4830"/>
<path d="M75.3744 135.506L66.8828 140.434V140.067L75.3744 135.137V135.506Z" fill="white"/>
<path d="M76.1545 127.948L66.7775 133.391L66.1953 133.051L75.5723 127.611L76.1545 127.948Z" fill="#CCA67C"/>
<path d="M75.0396 135.334L67.2188 139.87V139.59L74.7955 135.193L75.0396 135.334Z" fill="#CCA67C"/>
<path d="M49.6367 148.504L57.7635 153.218V146.864L49.6367 142.152V148.504Z" fill="#ACD3F2"/>
<path opacity="0.5" d="M55.2315 145.532L53.2891 144.381L54.6896 151.439L56.6589 152.583L55.2315 145.532Z" fill="white"/>
<path opacity="0.5" d="M53.0394 144.25L52.4062 143.848L53.8068 150.906L54.4668 151.3L53.0394 144.25Z" fill="white"/>
<path d="M50.125 142.574V148.78L57.7634 153.219V147.014L50.125 142.574ZM50.4631 142.763L57.6078 146.908V152.782L50.4631 148.637V142.763Z" fill="#453B36"/>
<path d="M49.9844 142.307V148.86L57.8026 153.4V146.846L49.9844 142.307ZM50.3224 142.843L57.4672 146.989V152.863L50.3224 148.717V142.843Z" fill="#856644"/>
<path d="M52.7026 144.061V149.938L52.7777 149.981L52.7696 150.315L52.3672 150.08V143.848L52.7026 144.061Z" fill="#453B36"/>
<path d="M52.9402 144.363L52.5619 144.141V150.018L52.7739 150.14L52.7632 150.471L52.2266 150.161V143.607L52.951 144.028L52.9402 144.363Z" fill="#856644"/>
<path d="M55.7131 145.808V151.682L55.7882 151.725L55.7774 152.059L55.375 151.825V145.479L55.7131 145.808Z" fill="#453B36"/>
<path d="M55.9507 146.108L55.5724 145.889V151.764L55.7817 151.885L55.7737 152.219L55.2344 151.907V145.355L55.9588 145.774L55.9507 146.108Z" fill="#856644"/>
<path d="M49.9841 142.306V148.86L49.7426 149L49.6487 148.663L49.418 142.306L49.6353 142.152L49.9841 142.306Z" fill="#CCA67C"/>
<path d="M49.7443 142.451V149.002L49.4062 148.808V141.914L55.0271 145.177L55.0217 145.515L49.7443 142.451Z" fill="white"/>
<path d="M57.8984 153.733L57.5603 153.539V146.985L55.0195 145.513L55.0249 145.176L57.8984 146.843V153.733Z" fill="white"/>
<path d="M49.207 141.646L58.0018 147.426L58.584 147.089V146.722L49.207 141.279V141.646Z" fill="#5E4830"/>
<path d="M48.625 141.984L58.002 147.427V147.06L48.625 141.617V141.984Z" fill="#5E4830"/>
<path d="M49.4062 149.173L57.9006 154.104V153.734L49.4062 148.807V149.173Z" fill="white"/>
<path d="M48.625 141.616L58.002 147.059L58.5842 146.722L49.2072 141.279L48.625 141.616Z" fill="#CCA67C"/>
<path d="M49.7422 149.002L57.5604 153.541V153.257L49.9837 148.861L49.7422 149.002Z" fill="#CCA67C"/>
<path d="M75.6778 141.962L70.0945 149.606L66.3008 147.405V147.036L75.6778 141.596V141.962Z" fill="#5E4830"/>
<path d="M79.4708 144.166L70.0938 149.606V149.239L79.4708 143.797V144.166Z" fill="#5E4830"/>
<path d="M79.4715 143.796L70.0945 149.239L66.3008 147.036L75.6778 141.596L79.4715 143.796Z" fill="#CCA67C"/>
<path d="M17.7387 117.719L14.5781 119.555V121.573L20.2553 122.849L23.4185 123.035V121.015L17.7387 117.719Z" fill="white"/>
<path d="M14.5781 119.555V121.572L20.2553 124.868V122.848L14.5781 119.555Z" fill="#C69C6D"/>
<path d="M20.2539 122.848V124.868L23.4171 123.034V121.014L20.2539 122.848Z" fill="#E8CFB0"/>
<path d="M18.8368 118.94C19.4217 119.28 19.4217 119.83 18.8368 120.168C18.2519 120.507 17.3048 120.507 16.7199 120.168C16.135 119.828 16.135 119.278 16.7199 118.94C17.3048 118.601 18.2519 118.601 18.8368 118.94Z" fill="#453B36"/>
<path d="M31.977 109.455L28.8164 111.289V113.309L34.4936 114.585L37.6568 114.768V112.748L31.977 109.455Z" fill="white"/>
<path d="M28.8164 111.289V113.309L34.4936 116.605V114.585L28.8164 111.289Z" fill="#C69C6D"/>
<path d="M34.4922 114.585V116.605L37.6554 114.768V112.748L34.4922 114.585Z" fill="#E8CFB0"/>
<path d="M33.0751 110.675C33.66 111.015 33.66 111.565 33.0751 111.902C32.4902 112.242 31.5431 112.242 30.9582 111.902C30.3733 111.562 30.3733 111.012 30.9582 110.675C31.5431 110.338 32.4902 110.338 33.0751 110.675Z" fill="#453B36"/>
<path d="M62.0209 109.965L65.1842 111.802V113.822L59.507 115.097L56.3438 115.281V113.261L62.0209 109.965Z" fill="white"/>
<path d="M65.185 111.801V113.821L59.5078 117.114V115.097L65.185 111.801Z" fill="#C69C6D"/>
<path d="M59.507 115.096V117.114L56.3438 115.28V113.26L59.507 115.096Z" fill="#E8CFB0"/>
<path d="M60.9191 111.187C60.3342 111.526 60.3342 112.077 60.9191 112.414C61.504 112.753 62.4511 112.753 63.036 112.414C63.6209 112.074 63.6209 111.524 63.036 111.187C62.4511 110.847 61.504 110.847 60.9191 111.187Z" fill="#453B36"/>
<path d="M58.8898 93.834L55.7266 95.6707V97.6907L61.4037 98.9664L64.567 99.1498V97.1298L58.8898 93.834Z" fill="white"/>
<path d="M55.7266 95.6699V97.69L61.4037 100.983V98.9657L55.7266 95.6699Z" fill="#C69C6D"/>
<path d="M61.4023 98.9656V100.983L64.5656 99.149V97.1289L61.4023 98.9656Z" fill="#E8CFB0"/>
<path d="M59.9891 95.0556C60.574 95.3954 60.574 95.9456 59.9891 96.2827C59.4042 96.6226 58.4571 96.6226 57.8723 96.2827C57.2874 95.9429 57.2874 95.3927 57.8723 95.0556C58.4571 94.7185 59.4042 94.7185 59.9891 95.0556Z" fill="#453B36"/>
<path d="M73.132 85.5703L69.9688 87.4043V89.4244L75.6459 90.7001L78.8092 90.8835V88.8661L73.132 85.5703Z" fill="white"/>
<path d="M69.9688 87.4043V89.4244L75.6459 92.7201V90.7001L69.9688 87.4043Z" fill="#C69C6D"/>
<path d="M75.6445 90.6992V92.7193L78.8078 90.8826V88.8652L75.6445 90.6992Z" fill="#E8CFB0"/>
<path d="M74.2313 86.792C74.8162 87.1318 74.8162 87.682 74.2313 88.0191C73.6464 88.359 72.6993 88.359 72.1144 88.0191C71.5296 87.6793 71.5296 87.1291 72.1144 86.792C72.6993 86.4522 73.6464 86.4522 74.2313 86.792Z" fill="#453B36"/>
<path d="M78.3992 138.863L77.9967 138.629L77.377 138.988L77.3716 137.051L76.9692 136.816L76.387 137.154L76.3923 138.764C76.344 138.464 76.2233 138.249 76.0328 138.146C76.0516 138.154 75.6491 137.919 75.6491 137.919C75.4425 137.798 75.1528 137.82 74.7879 138.033C74.1118 138.424 73.653 139.222 73.5618 140.02C73.4974 139.891 73.4115 139.791 73.2988 139.732C73.3176 139.74 72.9152 139.505 72.9152 139.505C72.7113 139.387 72.4215 139.406 72.0566 139.619C71.351 140.029 70.8842 140.875 70.8225 141.709L70.8198 140.857L70.4173 140.622L69.8378 140.959L69.8405 142.1L69.2878 142.421L69.2851 141.749L68.8827 141.515L68.3005 141.854L68.3031 142.348L67.9517 142.143C67.8497 142.14 67.619 142.202 67.3185 142.378C66.5404 142.831 65.9153 143.756 65.918 144.77C65.918 145.193 66.036 145.501 66.2641 145.633L66.6665 145.868C66.8919 146 67.2273 145.965 67.67 145.709C67.9839 145.528 68.2227 145.32 68.33 145.196L68.2414 144.724L67.839 144.489C67.7263 144.608 67.5304 144.767 67.3534 144.867C67.2192 144.945 67.1012 144.986 66.9992 144.999C66.9563 144.899 66.9321 144.77 66.9321 144.611C66.9295 143.95 67.289 143.421 67.7478 143.154C67.9544 143.036 68.118 142.993 68.2361 142.982L68.3031 142.639L68.3085 144.827L68.711 145.061L69.2932 144.721L69.2905 143.481L69.8432 143.16L69.8459 143.931L70.2483 144.166L70.8278 143.829L70.8225 142.127C70.86 142.464 70.9808 142.707 71.1766 142.823L71.5791 143.057C71.571 143.052 71.5656 143.047 71.5576 143.041C71.7642 143.176 72.0566 143.16 72.4242 142.947C73.0976 142.556 73.5725 141.801 73.6637 140.948C73.7254 141.075 73.8059 141.172 73.9079 141.234L74.3103 141.469C74.3023 141.463 74.2969 141.458 74.2889 141.453C74.4955 141.587 74.7879 141.571 75.1555 141.358C75.8182 140.973 76.293 140.236 76.3923 139.397L76.395 140.12L76.7975 140.355L78.4019 139.424L78.3992 138.863ZM72.0432 142.162C71.9896 142.192 71.9413 142.21 71.893 142.224C71.8474 142.108 71.8205 141.957 71.8178 141.771C71.8152 141.194 72.0432 140.63 72.4376 140.403C72.4886 140.374 72.5342 140.355 72.5798 140.341C72.6308 140.463 72.6576 140.617 72.6576 140.797C72.6603 141.372 72.4349 141.933 72.0432 142.162ZM74.7772 140.573C74.7235 140.606 74.6752 140.622 74.6269 140.635C74.5813 140.519 74.5545 140.368 74.5518 140.182C74.5491 139.605 74.7772 139.041 75.1716 138.815C75.2225 138.785 75.2682 138.766 75.3138 138.753C75.3647 138.874 75.3916 139.028 75.3916 139.209C75.3942 139.786 75.1689 140.347 74.7772 140.573Z" fill="#453B36"/>
<path d="M65.8016 145.259C65.815 145.264 65.8284 145.267 65.8392 145.275L65.4367 145.04C65.3267 144.976 65.1684 144.962 64.9618 144.995C64.9404 144.997 64.9216 145 64.9028 145.003C64.9377 144.865 65.0531 144.706 65.2623 144.585C65.5119 144.439 65.697 144.417 65.8016 144.415L65.9304 143.797L65.528 143.562C65.375 143.573 65.1631 143.625 64.8706 143.794C64.2643 144.145 63.8994 144.746 63.8994 145.254C63.8994 145.469 63.9691 145.604 64.0926 145.677L64.495 145.912C64.4735 145.898 64.4548 145.882 64.436 145.866C64.5594 145.979 64.7579 146.001 65.0075 145.957C64.9967 146.127 64.8679 146.311 64.6292 146.448C64.3796 146.594 64.1409 146.64 63.9826 146.637L63.8672 147.26L64.2696 147.495C64.4145 147.503 64.7043 147.425 64.9967 147.255C65.7023 146.845 66.0324 146.23 66.0297 145.731C66.0324 145.48 65.9572 145.329 65.8016 145.259Z" fill="#453B36"/>
<path d="M77.3674 137.051L77.3754 139.457L78.3976 138.863V139.427L76.7932 140.36L76.7852 137.391L77.3674 137.051Z" fill="white"/>
<path d="M75.1824 138.271C75.9712 137.812 76.4059 138.244 76.4086 139.064C76.4113 140.037 75.9015 140.925 75.1503 141.362C74.3883 141.804 73.9402 141.397 73.9375 140.55C73.9322 139.662 74.4232 138.713 75.1824 138.271ZM75.1771 140.811C75.5715 140.582 75.7942 140.021 75.7915 139.444C75.7888 138.91 75.5661 138.581 75.1664 138.816C74.772 139.045 74.5466 139.609 74.5466 140.183C74.552 140.763 74.7881 141.038 75.1771 140.811Z" fill="white"/>
<path d="M72.4507 139.859C73.2395 139.4 73.6715 139.832 73.6742 140.652C73.6768 141.625 73.1698 142.513 72.4158 142.949C71.6539 143.392 71.2058 142.985 71.2031 142.138C71.2005 141.25 71.6914 140.298 72.4507 139.859ZM72.4454 142.397C72.8398 142.167 73.0624 141.606 73.0598 141.029C73.0571 140.495 72.8371 140.166 72.4346 140.401C72.0402 140.63 71.8149 141.194 71.8149 141.768C71.8202 142.351 72.0563 142.623 72.4454 142.397Z" fill="white"/>
<path d="M70.811 140.859L70.819 143.829L70.2395 144.163L70.2341 142.923L69.279 143.478L69.2817 144.719L68.6995 145.059L68.6914 142.089L69.2736 141.749L69.2763 142.89L70.2341 142.335L70.2314 141.194L70.811 140.859Z" fill="white"/>
<path d="M67.7065 142.61C68.007 142.434 68.2377 142.375 68.3396 142.375L68.2216 142.976C68.1035 142.987 67.9399 143.03 67.7333 143.149C67.2718 143.416 66.915 143.945 66.9177 144.605C66.9203 145.201 67.2262 145.398 67.744 145.096C67.9184 144.994 68.1143 144.837 68.2296 144.719L68.3182 145.191C68.2135 145.315 67.9721 145.522 67.6582 145.703C66.7701 146.218 66.3113 145.843 66.3086 144.999C66.3033 143.991 66.9284 143.063 67.7065 142.61Z" fill="white"/>
<path d="M65.27 144.025C65.5598 143.855 65.7718 143.804 65.9274 143.793L65.7986 144.411C65.6966 144.413 65.5115 144.435 65.262 144.581C65.0098 144.726 64.8864 144.928 64.8891 145.082C64.8891 145.271 65.0366 145.271 65.3666 145.225C65.8201 145.155 66.0347 145.303 66.0374 145.724C66.0401 146.22 65.7101 146.838 65.0044 147.248C64.7093 147.418 64.4222 147.499 64.2773 147.488L64.3927 146.865C64.551 146.868 64.7898 146.822 65.0393 146.676C65.3076 146.522 65.4471 146.309 65.4471 146.118C65.4471 145.932 65.3237 145.897 65.0152 145.951C64.5886 146.023 64.3069 145.916 64.3069 145.484C64.2961 144.977 64.6637 144.376 65.27 144.025Z" fill="white"/>
<path d="M75.4755 154.199L75.7251 154.345L71.875 156.581L71.8777 156.281L75.4755 154.199Z" fill="#736357"/>
<path d="M67.543 158.807L71.1408 156.723L71.3904 156.868L67.543 159.107V158.807Z" fill="#736357"/>
</g>
<defs>
<clipPath id="clip0_376_2313">
<rect width="24" height="24" fill="white" transform="translate(178 34)"/>
</clipPath>
<clipPath id="clip1_376_2313">
<rect width="93" height="90" fill="white" transform="translate(0 79)"/>
</clipPath>
</defs>
</svg>
