<svg width="419" height="164" viewBox="0 0 419 164" fill="none" xmlns="http://www.w3.org/2000/svg">
<rect width="277" height="92" rx="18" fill="#006DB7"/>
<path d="M276.5 122L165 86.026L197 62L276.5 122Z" fill="#006DB7"/>
<rect x="25.0476" y="25.0476" width="41.9048" height="41.9048" rx="20.9524" fill="#FF9D26"/>
<rect x="25.0476" y="25.0476" width="41.9048" height="41.9048" rx="20.9524" stroke="white" stroke-width="2.09524"/>
<path d="M56.5379 56.875C56.5379 56.8518 56.5154 54.5553 54.571 53.4352C53.4532 52.7898 52.3184 52.894 51.6772 53.0392C51.5834 52.876 51.4758 52.7204 51.3539 52.573C51.0993 52.2715 50.8064 52.0282 50.4779 51.8467C50.3613 51.7844 50.2368 51.7297 50.0902 51.6689C49.1894 51.3457 48.3967 51.5347 47.953 51.7049L46.3897 44.584C46.6297 44.3598 46.8138 44.0883 46.9319 43.7898C47.0339 43.8873 47.146 43.9758 47.2675 44.0538C47.626 44.2829 48.0333 44.4014 48.4484 44.4014C48.6067 44.4014 48.7664 44.3842 48.925 44.3493C49.4992 44.2233 49.9893 43.8813 50.3062 43.3863C50.3853 43.2629 50.4509 43.1335 50.5034 43C50.9065 43.3855 51.4454 43.6188 52.0207 43.6188C52.1767 43.6188 52.3349 43.6019 52.4935 43.567C53.0677 43.441 53.5582 43.0987 53.875 42.6037C54.1919 42.1087 54.2969 41.5195 54.1705 40.9454L54.0352 40.3289C54.0337 40.3225 54.0292 40.3177 54.0277 40.3117C54.0209 40.2869 54.0089 40.2652 53.9973 40.2423C53.9868 40.2217 53.9782 40.201 53.9639 40.183C53.9493 40.1643 53.9305 40.1497 53.9125 40.1335C53.8983 40.1208 53.8878 40.1043 53.8713 40.0938C53.8657 40.09 53.8585 40.0897 53.8525 40.0863C53.8469 40.0829 53.8435 40.0777 53.8375 40.0747L43.3285 34.7898C43.3229 34.7872 43.3169 34.7872 43.3113 34.7845C43.2967 34.7782 43.282 34.7737 43.267 34.7692C43.2584 34.7665 43.2517 34.7609 43.2427 34.759C43.2363 34.7575 43.2303 34.759 43.2239 34.7583C43.2119 34.756 43.2003 34.7542 43.1879 34.7534C43.1718 34.7523 43.1564 34.7534 43.1407 34.7542C43.126 34.7549 43.1118 34.7553 43.0972 34.7575C43.0855 34.7594 43.0747 34.7617 43.0638 34.7647C43.0484 34.7688 43.0345 34.7752 43.0195 34.7812C43.0057 34.7868 42.9925 34.7917 42.9794 34.7988C42.9685 34.8048 42.9584 34.8115 42.9479 34.8187C42.9427 34.8224 42.9363 34.8235 42.931 34.8273C42.9235 34.8329 42.9194 34.8415 42.9123 34.8475C42.901 34.8577 42.8898 34.867 42.88 34.8787C42.8759 34.8835 42.8703 34.8858 42.8662 34.891L35.5424 44.0943C35.5383 44.0995 35.5375 44.1059 35.5338 44.1112C35.5184 44.1329 35.5087 44.1565 35.4982 44.1813C35.4892 44.2023 35.4783 44.2222 35.4734 44.2439C35.4682 44.266 35.4693 44.2882 35.4682 44.3114C35.467 44.338 35.4652 44.3635 35.4697 44.3898C35.4708 44.3962 35.4685 44.4025 35.4697 44.4089L35.605 45.0254C35.8308 46.0518 36.7435 46.7538 37.7542 46.7538C37.9102 46.7538 38.0684 46.7369 38.227 46.702C38.9722 46.5382 39.5459 46.0124 39.8047 45.3498C40.2078 45.7353 40.7467 45.9685 41.3223 45.9685C41.4779 45.9685 41.6362 45.9517 41.7944 45.9168C42.5362 45.7537 43.1084 45.2317 43.3687 44.5732C43.6019 44.7967 43.8843 44.9662 44.197 45.0682L45.4994 50.9977C45.3359 51.0127 45.1747 51.0408 45.0175 51.0828C44.731 51.1563 44.4535 51.2763 44.1918 51.4387C43.9432 51.5932 43.7114 51.7867 43.5119 52.0042C43.2974 51.9775 42.9734 51.955 42.5875 52.0113C42.1015 52.0709 41.6444 52.2288 41.227 52.4812C40.4988 52.9278 40.0964 53.542 39.8853 53.989C39.4488 53.9474 38.7048 53.9707 37.9788 54.4225C36.6378 55.2715 36.577 56.7997 36.5752 56.8642C36.5722 56.9658 36.6104 57.064 36.6809 57.1368C36.7514 57.2095 36.8485 57.2508 36.9502 57.2508H56.164C56.371 57.2508 56.539 57.0832 56.539 56.8758L56.5379 56.875ZM46.741 41.5465L44.3253 36.6419L49.2937 40.9855L46.741 41.5465ZM50.206 40.7868L45.6329 36.7885L52.5562 40.2704L50.206 40.7868ZM39.1375 43.2187L36.7878 43.735L41.6137 37.6713L39.1375 43.2187ZM42.7383 36.9903L42.601 42.4563L40.048 43.0173L42.7383 36.9903ZM43.4969 36.6569L45.9869 41.7119L43.3555 42.2902L43.4969 36.6569ZM49.6735 42.982C49.4647 43.3087 49.1414 43.534 48.763 43.6169C48.3854 43.7002 47.9969 43.6312 47.6707 43.4219C47.3444 43.213 47.1187 42.8898 47.0358 42.5114L46.981 42.2609L49.8134 41.6388L49.8685 41.8893C49.9518 42.2677 49.8824 42.6558 49.6735 42.982ZM52.3312 42.8347C51.9535 42.9187 51.5647 42.8485 51.238 42.6397C50.9114 42.4308 50.686 42.1075 50.6028 41.7288L50.548 41.4787L53.3819 40.8562L53.4367 41.1063C53.6084 41.8874 53.1123 42.6629 52.3312 42.8347ZM38.0658 45.9693C37.285 46.1414 36.5095 45.6449 36.3374 44.8638L36.2827 44.6137L39.1165 43.9912L39.1717 44.2413C39.3434 45.0224 38.8473 45.7975 38.0658 45.9693ZM41.6332 45.184C40.852 45.3543 40.0773 44.8597 39.9055 44.0789L39.8508 43.828L42.6832 43.2059L42.7383 43.4564C42.91 44.2372 42.4139 45.0123 41.6332 45.184ZM43.4707 43.2952L43.4159 43.0447L46.2483 42.4225L46.3034 42.673C46.426 43.2303 46.2093 43.8085 45.7458 44.1502C45.5905 44.269 45.4015 44.3557 45.1979 44.4003C44.995 44.4453 44.7877 44.446 44.5893 44.401C44.0324 44.2863 43.5929 43.8524 43.4707 43.2952ZM45.0385 45.1762C45.1338 45.1694 45.229 45.1578 45.3232 45.1387C45.3344 45.1364 45.3457 45.1368 45.3565 45.1342C45.3655 45.1323 45.3738 45.1282 45.3832 45.1259C45.4792 45.1038 45.5725 45.0738 45.664 45.0393C45.6813 45.0329 45.7 45.0299 45.7173 45.0228L47.089 51.2703C47.0767 51.265 47.0617 51.2609 47.0489 51.2553C46.9585 51.217 46.8633 51.1822 46.7635 51.1492C46.7313 51.1387 46.7002 51.1282 46.6668 51.1184C46.5464 51.0828 46.4219 51.0517 46.2903 51.0292C46.2843 51.028 46.279 51.0262 46.273 51.025L44.9898 45.1822C45.0059 45.1814 45.0224 45.1773 45.0385 45.1762ZM37.3844 56.5C37.4815 56.0962 37.732 55.465 38.3763 55.057C39.0895 54.613 39.829 54.7237 40.0394 54.7679C40.2198 54.8062 40.4043 54.7053 40.4688 54.5309C40.5948 54.19 40.9117 53.5533 41.6163 53.1205C41.9407 52.9248 42.298 52.801 42.6862 52.7534C43.1043 52.6923 43.4354 52.7478 43.6008 52.7752C43.735 52.7965 43.8697 52.7444 43.954 52.6387C44.0763 52.4849 44.2852 52.2625 44.587 52.0747C44.7865 51.9509 44.9879 51.8639 45.2065 51.8077C45.4458 51.7439 45.6847 51.7214 45.9359 51.739C46.1047 51.7518 46.2652 51.7822 46.4148 51.8234C46.5475 51.8602 46.6705 51.9067 46.7849 51.9562C47.0572 52.0747 47.275 52.2157 47.4134 52.3184C47.4138 52.3184 47.4145 52.3188 47.4149 52.3192C47.4907 52.3754 47.5443 52.4182 47.5604 52.4335C47.6763 52.5505 47.8555 52.5779 48.0018 52.5014C48.1499 52.423 48.9329 52.0503 49.8187 52.3679C49.9252 52.4122 50.0283 52.4564 50.1194 52.5052C50.3628 52.6398 50.5855 52.8254 50.7783 53.0538C50.9242 53.23 51.0453 53.4239 51.1387 53.6324C51.2163 53.8053 51.4109 53.8919 51.5917 53.8368C52.0177 53.7048 53.1235 53.4659 54.1964 54.0843C55.3323 54.739 55.6578 55.903 55.7508 56.4993H37.3844V56.5Z" fill="white"/>
<path d="M85.8651 55.5V36.5909H92.956C94.4086 36.5909 95.6274 36.8617 96.6122 37.4034C97.6032 37.9451 98.3511 38.6899 98.8558 39.6378C99.3667 40.5795 99.6222 41.6506 99.6222 42.8509C99.6222 44.0634 99.3667 45.1406 98.8558 46.0824C98.3449 47.0241 97.5909 47.7659 96.5938 48.3075C95.5966 48.843 94.3686 49.1108 92.9098 49.1108H88.2102V46.2947H92.4482C93.2976 46.2947 93.9931 46.147 94.5348 45.8516C95.0765 45.5561 95.4766 45.1499 95.7351 44.6328C95.9998 44.1158 96.1321 43.5218 96.1321 42.8509C96.1321 42.1799 95.9998 41.589 95.7351 41.0781C95.4766 40.5672 95.0734 40.1702 94.5256 39.8871C93.9839 39.5978 93.2853 39.4531 92.4297 39.4531H89.2905V55.5H85.8651ZM105.792 36.5909V55.5H102.45V36.5909H105.792ZM113.31 55.7862C112.411 55.7862 111.602 55.6262 110.882 55.3061C110.168 54.9799 109.601 54.4998 109.183 53.8658C108.77 53.2318 108.564 52.45 108.564 51.5206C108.564 50.7204 108.712 50.0587 109.007 49.5355C109.303 49.0123 109.706 48.5938 110.217 48.2798C110.728 47.9659 111.303 47.7289 111.944 47.5689C112.59 47.4027 113.258 47.2827 113.947 47.2088C114.778 47.1226 115.452 47.0457 115.969 46.978C116.486 46.9041 116.862 46.7933 117.096 46.6456C117.336 46.4917 117.456 46.2547 117.456 45.9347V45.8793C117.456 45.1837 117.249 44.6451 116.837 44.2635C116.425 43.8819 115.831 43.6911 115.055 43.6911C114.236 43.6911 113.587 43.8696 113.107 44.2266C112.633 44.5836 112.313 45.0052 112.147 45.4915L109.026 45.0483C109.272 44.1866 109.678 43.4664 110.245 42.8878C110.811 42.303 111.503 41.866 112.322 41.5767C113.141 41.2812 114.046 41.1335 115.037 41.1335C115.72 41.1335 116.4 41.2135 117.077 41.3736C117.754 41.5336 118.373 41.7983 118.933 42.1676C119.493 42.5308 119.942 43.0263 120.281 43.6541C120.626 44.282 120.798 45.0668 120.798 46.0085V55.5H117.585V53.5518H117.474C117.271 53.9458 116.985 54.3151 116.615 54.6598C116.252 54.9983 115.794 55.2723 115.24 55.4815C114.692 55.6847 114.049 55.7862 113.31 55.7862ZM114.178 53.3303C114.849 53.3303 115.431 53.1979 115.923 52.9332C116.415 52.6624 116.794 52.3054 117.059 51.8622C117.329 51.419 117.465 50.9358 117.465 50.4126V48.7415C117.36 48.8277 117.182 48.9077 116.929 48.9815C116.683 49.0554 116.406 49.12 116.098 49.1754C115.791 49.2308 115.486 49.2801 115.184 49.3232C114.883 49.3662 114.621 49.4032 114.4 49.4339C113.901 49.5017 113.455 49.6125 113.061 49.7663C112.667 49.9202 112.356 50.1357 112.128 50.4126C111.9 50.6835 111.787 51.0343 111.787 51.4652C111.787 52.0807 112.011 52.5455 112.461 52.8594C112.91 53.1733 113.482 53.3303 114.178 53.3303ZM125.728 60.8182C125.273 60.8182 124.851 60.7813 124.463 60.7074C124.082 60.6397 123.777 60.5597 123.549 60.4673L124.325 57.8636C124.811 58.0052 125.245 58.0729 125.627 58.0668C126.008 58.0606 126.344 57.9406 126.633 57.7067C126.929 57.4789 127.178 57.0973 127.381 56.5618L127.667 55.7955L122.525 41.3182H126.07L129.338 52.0284H129.486L132.764 41.3182H136.319L130.64 57.2173C130.376 57.9683 130.025 58.6115 129.588 59.147C129.151 59.6887 128.615 60.1011 127.981 60.3842C127.353 60.6735 126.602 60.8182 125.728 60.8182ZM142.306 55.7862C141.407 55.7862 140.598 55.6262 139.878 55.3061C139.164 54.9799 138.598 54.4998 138.179 53.8658C137.767 53.2318 137.56 52.45 137.56 51.5206C137.56 50.7204 137.708 50.0587 138.004 49.5355C138.299 49.0123 138.702 48.5938 139.213 48.2798C139.724 47.9659 140.299 47.7289 140.94 47.5689C141.586 47.4027 142.254 47.2827 142.943 47.2088C143.774 47.1226 144.448 47.0457 144.965 46.978C145.482 46.9041 145.858 46.7933 146.092 46.6456C146.332 46.4917 146.452 46.2547 146.452 45.9347V45.8793C146.452 45.1837 146.246 44.6451 145.833 44.2635C145.421 43.8819 144.827 43.6911 144.051 43.6911C143.232 43.6911 142.583 43.8696 142.103 44.2266C141.629 44.5836 141.309 45.0052 141.143 45.4915L138.022 45.0483C138.268 44.1866 138.674 43.4664 139.241 42.8878C139.807 42.303 140.5 41.866 141.318 41.5767C142.137 41.2812 143.042 41.1335 144.033 41.1335C144.716 41.1335 145.396 41.2135 146.073 41.3736C146.75 41.5336 147.369 41.7983 147.929 42.1676C148.489 42.5308 148.938 43.0263 149.277 43.6541C149.622 44.282 149.794 45.0668 149.794 46.0085V55.5H146.581V53.5518H146.47C146.267 53.9458 145.981 54.3151 145.612 54.6598C145.248 54.9983 144.79 55.2723 144.236 55.4815C143.688 55.6847 143.045 55.7862 142.306 55.7862ZM143.174 53.3303C143.845 53.3303 144.427 53.1979 144.919 52.9332C145.411 52.6624 145.79 52.3054 146.055 51.8622C146.326 51.419 146.461 50.9358 146.461 50.4126V48.7415C146.356 48.8277 146.178 48.9077 145.925 48.9815C145.679 49.0554 145.402 49.12 145.094 49.1754C144.787 49.2308 144.482 49.2801 144.18 49.3232C143.879 49.3662 143.617 49.4032 143.396 49.4339C142.897 49.5017 142.451 49.6125 142.057 49.7663C141.663 49.9202 141.352 50.1357 141.124 50.4126C140.897 50.6835 140.783 51.0343 140.783 51.4652C140.783 52.0807 141.007 52.5455 141.457 52.8594C141.906 53.1733 142.478 53.3303 143.174 53.3303ZM159.752 55.5V36.5909H163.177V52.6286H171.505V55.5H159.752ZM178.412 55.7862C177.513 55.7862 176.703 55.6262 175.983 55.3061C175.269 54.9799 174.703 54.4998 174.284 53.8658C173.872 53.2318 173.666 52.45 173.666 51.5206C173.666 50.7204 173.814 50.0587 174.109 49.5355C174.404 49.0123 174.808 48.5938 175.319 48.2798C175.829 47.9659 176.405 47.7289 177.045 47.5689C177.691 47.4027 178.359 47.2827 179.049 47.2088C179.88 47.1226 180.554 47.0457 181.071 46.978C181.588 46.9041 181.963 46.7933 182.197 46.6456C182.437 46.4917 182.557 46.2547 182.557 45.9347V45.8793C182.557 45.1837 182.351 44.6451 181.939 44.2635C181.526 43.8819 180.932 43.6911 180.157 43.6911C179.338 43.6911 178.689 43.8696 178.208 44.2266C177.734 44.5836 177.414 45.0052 177.248 45.4915L174.127 45.0483C174.374 44.1866 174.78 43.4664 175.346 42.8878C175.913 42.303 176.605 41.866 177.424 41.5767C178.242 41.2812 179.147 41.1335 180.138 41.1335C180.821 41.1335 181.502 41.2135 182.179 41.3736C182.856 41.5336 183.474 41.7983 184.034 42.1676C184.595 42.5308 185.044 43.0263 185.382 43.6541C185.727 44.282 185.9 45.0668 185.9 46.0085V55.5H182.686V53.5518H182.576C182.373 53.9458 182.086 54.3151 181.717 54.6598C181.354 54.9983 180.895 55.2723 180.341 55.4815C179.793 55.6847 179.15 55.7862 178.412 55.7862ZM179.279 53.3303C179.95 53.3303 180.532 53.1979 181.025 52.9332C181.517 52.6624 181.895 52.3054 182.16 51.8622C182.431 51.419 182.566 50.9358 182.566 50.4126V48.7415C182.462 48.8277 182.283 48.9077 182.031 48.9815C181.785 49.0554 181.508 49.12 181.2 49.1754C180.892 49.2308 180.587 49.2801 180.286 49.3232C179.984 49.3662 179.723 49.4032 179.501 49.4339C179.002 49.5017 178.556 49.6125 178.162 49.7663C177.768 49.9202 177.458 50.1357 177.23 50.4126C177.002 50.6835 176.888 51.0343 176.888 51.4652C176.888 52.0807 177.113 52.5455 177.562 52.8594C178.011 53.1733 178.584 53.3303 179.279 53.3303ZM203.317 36.5909H206.715V49.8864C206.709 51.1051 206.451 52.1546 205.94 53.0348C205.429 53.9089 204.715 54.5829 203.798 55.0568C202.887 55.5246 201.825 55.7585 200.612 55.7585C199.504 55.7585 198.507 55.5616 197.621 55.1676C196.741 54.7675 196.042 54.1766 195.525 53.3949C195.008 52.6132 194.749 51.6406 194.749 50.4773H198.156C198.162 50.9882 198.273 51.4283 198.489 51.7976C198.71 52.1669 199.015 52.45 199.403 52.647C199.79 52.844 200.237 52.9425 200.741 52.9425C201.289 52.9425 201.754 52.8286 202.136 52.6009C202.517 52.367 202.807 52.0223 203.004 51.5668C203.207 51.1113 203.311 50.5511 203.317 49.8864V36.5909ZM216.47 55.777C215.085 55.777 213.885 55.4723 212.869 54.8629C211.853 54.2536 211.065 53.401 210.505 52.3054C209.951 51.2098 209.674 49.9295 209.674 48.4645C209.674 46.9995 209.951 45.7161 210.505 44.6143C211.065 43.5125 211.853 42.657 212.869 42.0476C213.885 41.4382 215.085 41.1335 216.47 41.1335C217.855 41.1335 219.055 41.4382 220.071 42.0476C221.086 42.657 221.871 43.5125 222.425 44.6143C222.985 45.7161 223.265 46.9995 223.265 48.4645C223.265 49.9295 222.985 51.2098 222.425 52.3054C221.871 53.401 221.086 54.2536 220.071 54.8629C219.055 55.4723 217.855 55.777 216.47 55.777ZM216.488 53.0994C217.239 53.0994 217.867 52.8932 218.372 52.4808C218.877 52.0623 219.252 51.5021 219.498 50.8004C219.751 50.0987 219.877 49.317 219.877 48.4553C219.877 47.5874 219.751 46.8026 219.498 46.1009C219.252 45.393 218.877 44.8298 218.372 44.4112C217.867 43.9927 217.239 43.7834 216.488 43.7834C215.719 43.7834 215.079 43.9927 214.568 44.4112C214.063 44.8298 213.685 45.393 213.432 46.1009C213.186 46.8026 213.063 47.5874 213.063 48.4553C213.063 49.317 213.186 50.0987 213.432 50.8004C213.685 51.5021 214.063 52.0623 214.568 52.4808C215.079 52.8932 215.719 53.0994 216.488 53.0994ZM229.444 36.5909V55.5H226.102V36.5909H229.444ZM236.224 36.5909V55.5H232.881V36.5909H236.224ZM243.742 55.7862C242.843 55.7862 242.034 55.6262 241.313 55.3061C240.599 54.9799 240.033 54.4998 239.615 53.8658C239.202 53.2318 238.996 52.45 238.996 51.5206C238.996 50.7204 239.144 50.0587 239.439 49.5355C239.735 49.0123 240.138 48.5938 240.649 48.2798C241.16 47.9659 241.735 47.7289 242.375 47.5689C243.021 47.4027 243.689 47.2827 244.379 47.2088C245.21 47.1226 245.884 47.0457 246.401 46.978C246.918 46.9041 247.293 46.7933 247.527 46.6456C247.767 46.4917 247.887 46.2547 247.887 45.9347V45.8793C247.887 45.1837 247.681 44.6451 247.269 44.2635C246.856 43.8819 246.262 43.6911 245.487 43.6911C244.668 43.6911 244.019 43.8696 243.539 44.2266C243.065 44.5836 242.744 45.0052 242.578 45.4915L239.458 45.0483C239.704 44.1866 240.11 43.4664 240.676 42.8878C241.243 42.303 241.935 41.866 242.754 41.5767C243.572 41.2812 244.477 41.1335 245.468 41.1335C246.151 41.1335 246.832 41.2135 247.509 41.3736C248.186 41.5336 248.804 41.7983 249.365 42.1676C249.925 42.5308 250.374 43.0263 250.713 43.6541C251.057 44.282 251.23 45.0668 251.23 46.0085V55.5H248.017V53.5518H247.906C247.703 53.9458 247.416 54.3151 247.047 54.6598C246.684 54.9983 246.225 55.2723 245.671 55.4815C245.124 55.6847 244.48 55.7862 243.742 55.7862ZM244.61 53.3303C245.28 53.3303 245.862 53.1979 246.355 52.9332C246.847 52.6624 247.226 52.3054 247.49 51.8622C247.761 51.419 247.896 50.9358 247.896 50.4126V48.7415C247.792 48.8277 247.613 48.9077 247.361 48.9815C247.115 49.0554 246.838 49.12 246.53 49.1754C246.222 49.2308 245.918 49.2801 245.616 49.3232C245.314 49.3662 245.053 49.4032 244.831 49.4339C244.333 49.5017 243.886 49.6125 243.492 49.7663C243.098 49.9202 242.788 50.1357 242.56 50.4126C242.332 50.6835 242.218 51.0343 242.218 51.4652C242.218 52.0807 242.443 52.5455 242.892 52.8594C243.342 53.1733 243.914 53.3303 244.61 53.3303Z" fill="white"/>
<path d="M418.997 114.165C419.001 114.169 419.001 114.169 418.997 114.173V121.333C419.021 122.025 418.691 122.726 418.006 123.121L353.519 160.351L349.726 162.542L348.981 162.973C348.615 163.186 348.224 163.331 347.821 163.412C347.781 163.42 347.741 163.428 347.701 163.436C347.648 163.444 347.6 163.448 347.548 163.456C347.455 163.468 347.362 163.476 347.274 163.48C346.948 163.5 346.622 163.476 346.3 163.416C346.227 163.399 346.154 163.383 346.078 163.363C345.748 163.279 345.43 163.146 345.124 162.973L344.278 162.481L343.783 162.195L342.398 161.394L340.739 160.432L340.718 160.42L340.706 160.412L331.034 154.811H331.03L330.04 154.235L290.256 131.194C289.676 130.86 289.314 130.332 289.165 129.765L289 129.885V121.961L289.085 122.009L289.129 122.037L294.078 124.953L300.009 121.57L305.674 118.341L309.472 116.178L347.274 94.6278L359.064 87.9073C360.256 87.2268 361.714 87.2308 362.897 87.9153L413.928 117.33L418.856 114.254L418.997 114.165Z" fill="#FBB465"/>
<path d="M361.722 148.251C356.862 153.115 356.58 157.094 353.52 160.351L349.727 162.541L348.982 162.972C348.616 163.186 348.225 163.331 347.822 163.411C347.774 163.444 347.726 163.476 347.677 163.512L347.549 163.456C347.456 163.468 347.363 163.476 347.275 163.48C346.949 163.5 346.622 163.476 346.3 163.415C346.01 163.113 345.749 162.767 345.471 162.53C345.286 162.381 345.092 162.276 344.879 162.268C344.851 162.268 344.822 162.268 344.794 162.272C344.637 162.284 344.464 162.348 344.279 162.481L343.784 162.195L342.399 161.394L340.74 160.432L340.719 160.419L340.707 160.411L331.035 154.81L340.796 152.725L349.795 150.8L353.005 150.115V150.111L353.862 149.93L360.547 148.501L361.722 148.251Z" fill="#FFF0C0"/>
<path d="M349.725 162.541L348.98 162.972C348.614 163.185 348.223 163.33 347.82 163.411C347.772 163.443 347.724 163.475 347.675 163.512L347.547 163.455C347.454 163.467 347.361 163.475 347.273 163.479C346.947 163.5 346.621 163.475 346.298 163.415C346.226 163.399 346.153 163.383 346.077 163.363C345.638 162.92 345.195 162.509 344.792 162.271C344.398 162.034 344.043 161.965 343.782 162.195L342.397 161.394L340.738 160.431L340.717 160.419L340.705 160.411L331.033 154.81L340.794 152.724L349.793 150.799L353.003 150.111L353.86 149.93C353.929 150.844 353.748 151.653 353.848 152.366C354.388 156.127 351.662 159.199 349.725 162.541Z" fill="#97EDFF"/>
<path d="M352.621 153.079C349.327 157.419 351.646 160.612 347.821 163.411C347.772 163.443 347.724 163.475 347.676 163.512L347.547 163.455L345.469 162.529L344.877 162.267L340.738 160.431L340.718 160.419L340.706 160.411L331.034 154.81H331.03L330.039 154.234L339.453 151.947L352.721 148.726C352.858 149.217 352.955 149.676 353.003 150.111V150.115C353.148 151.279 353.176 152.35 352.621 153.079Z" fill="#50C9E4"/>
<path d="M347.701 163.436C347.56 163.456 347.415 163.472 347.274 163.48C346.537 163.524 345.788 163.355 345.124 162.972L344.278 162.481L343.783 162.195L342.398 161.394L340.739 160.432L340.719 160.42L340.707 160.412L290.256 131.194C289.676 130.86 289.314 130.332 289.165 129.765L289 129.885V121.961L289.085 122.009C289.085 121.965 289.088 121.921 289.088 121.872C289.101 121.929 289.113 121.981 289.129 122.037C289.282 122.593 289.644 123.1 290.212 123.426L291.351 124.087L291.561 124.208L291.943 124.429C291.943 124.433 291.947 124.433 291.947 124.433L292.269 124.618L345.079 155.205C345.756 155.596 346.521 155.765 347.274 155.712C347.632 155.688 347.701 160.089 347.701 163.436Z" fill="#3DB2C8"/>
<path d="M418.997 114.165C419 114.169 419 114.169 418.997 114.173V114.298C418.98 114.946 418.646 115.582 418.006 115.953L348.981 155.805C348.719 155.954 348.445 156.07 348.163 156.155C348.131 156.167 348.095 156.175 348.059 156.187C348.042 156.191 348.026 156.195 348.01 156.199C347.769 156.26 347.523 156.3 347.273 156.312C346.536 156.356 345.787 156.183 345.123 155.801L292.462 125.307L292.201 125.149L290.775 124.328L290.707 124.288L290.256 124.026C289.478 123.575 289.088 122.794 289.084 122.009C289.084 121.964 289.088 121.92 289.088 121.872C289.124 121.119 289.523 120.378 290.272 119.955L298.341 115.357L304.784 111.684L307.864 109.925L359.064 80.7353C360.255 80.0589 361.713 80.0629 362.897 80.7433L418.006 112.51C418.517 112.808 418.835 113.275 418.948 113.786C418.98 113.911 418.997 114.036 418.997 114.165Z" fill="white"/>
<path d="M418.949 113.787C418.941 113.948 418.909 114.105 418.856 114.254C418.715 114.693 418.418 115.091 417.962 115.353L361.657 147.86L353.781 152.406L352.191 153.329L348.937 155.205C348.422 155.503 347.854 155.672 347.274 155.712C346.521 155.765 345.756 155.596 345.08 155.205L292.27 124.618L291.948 124.433C291.948 124.433 291.944 124.433 291.944 124.429L291.561 124.208L291.352 124.087L290.212 123.426C289.644 123.1 289.282 122.593 289.129 122.037C289.113 121.981 289.101 121.929 289.089 121.872C288.928 121.079 289.173 120.217 289.822 119.641L289.83 119.633L289.838 119.629C289.955 119.529 290.083 119.436 290.224 119.355L300.126 113.714L304.277 111.346L306.987 109.8L359.02 80.1397C360.208 79.4592 361.67 79.4632 362.853 80.1477L417.962 111.914C418.675 112.325 419.005 113.07 418.949 113.787Z" fill="#FED39D"/>
<path d="M361.657 147.86L353.781 152.406L352.191 153.328L348.937 155.205C348.422 155.503 347.854 155.672 347.274 155.712C346.521 155.764 345.756 155.595 345.08 155.205L292.27 124.618L291.948 124.433C291.948 124.433 291.944 124.433 291.944 124.429L291.561 124.207L291.352 124.086L290.212 123.426C289.644 123.1 289.282 122.593 289.129 122.037C289.113 121.98 289.101 121.928 289.089 121.872C288.928 121.079 289.173 120.217 289.822 119.641L289.83 119.633L289.838 119.629L297.464 115.24H297.468L300.126 113.714L304.257 111.334L306.931 109.796C306.951 109.796 306.967 109.796 306.987 109.8C307.313 109.816 307.603 109.86 307.865 109.925C310.333 110.521 310.172 113.017 309.472 116.178C309.448 116.291 309.424 116.404 309.395 116.52C308.199 121.727 318.854 115.804 320.513 121.489C322.172 127.175 341.355 120.068 342.539 128.359C343.513 135.176 343.686 138.47 347.274 139.424C348.047 139.63 348.982 139.726 350.117 139.726C354.852 139.726 360.373 143.495 361.657 147.86Z" fill="#FFF0C0"/>
<path d="M353.781 152.406L352.191 153.328L348.937 155.205C348.422 155.503 347.854 155.672 347.274 155.712C346.521 155.765 345.756 155.595 345.08 155.205L292.27 124.618L291.948 124.433C291.948 124.433 291.944 124.433 291.944 124.429L291.561 124.207L291.352 124.087L290.212 123.426C289.644 123.1 289.282 122.593 289.129 122.037C289.113 121.98 289.101 121.928 289.089 121.872C288.928 121.079 289.173 120.217 289.822 119.641L289.83 119.633L289.838 119.629L297.464 115.24H297.468L300.126 113.714L304.257 111.334C304.265 111.338 304.269 111.342 304.277 111.346C304.471 111.439 304.64 111.551 304.785 111.684C305.586 112.413 305.691 113.637 305.594 114.62C305.494 115.631 305.349 117.072 305.675 118.341C306.114 120.04 307.406 121.425 310.805 121.014C316.724 120.305 314.356 122.911 319.567 124.57C324.777 126.225 320.988 130.727 325.015 134.278C329.037 137.83 335.198 132.857 339.934 134.278C344.266 135.579 343.445 142.041 347.274 142.758C347.625 142.827 348.019 142.843 348.458 142.803C353.02 142.388 355.324 144.361 353.781 152.406Z" fill="#97EDFF"/>
<path d="M352.191 153.329L348.937 155.205C348.422 155.503 347.854 155.672 347.274 155.712C346.521 155.765 345.756 155.595 345.08 155.205L292.27 124.618L291.948 124.433C291.948 124.433 291.944 124.433 291.944 124.429L291.561 124.208L291.352 124.087L290.212 123.426C289.644 123.1 289.282 122.593 289.129 122.037C289.113 121.981 289.101 121.928 289.089 121.872C288.928 121.079 289.173 120.217 289.822 119.641L289.83 119.633L289.838 119.629L297.464 115.24H297.468C297.79 115.256 298.08 115.297 298.342 115.357C300.847 115.933 300.706 118.409 300.009 121.57C299.981 121.703 299.953 121.836 299.921 121.969C298.725 127.175 309.383 121.252 311.042 126.938C312.697 132.619 312.935 137.83 323.827 138.543C332.182 139.086 334.248 145.17 340.642 145.17C342.853 145.17 345.233 145.992 347.274 147.313C349.618 148.823 351.51 150.993 352.191 153.329Z" fill="#50C9E4"/>
<path d="M396.064 119.219C401.946 119.219 406.715 115.779 406.715 111.536C406.715 107.292 401.946 103.853 396.064 103.853C390.181 103.853 385.412 107.292 385.412 111.536C385.412 115.779 390.181 119.219 396.064 119.219Z" fill="#F7D5E6"/>
<path d="M396.528 102.734C396.875 102.624 397.248 102.663 397.618 102.826C397.928 102.961 397.936 102.734 397.936 102.734C397.936 102.734 400.135 101.424 400.228 101.395C402.015 100.831 404.249 102.861 405.218 105.929C405.276 106.114 405.329 106.3 405.375 106.484C406.331 106.774 407.302 107.916 407.788 109.456C408.007 110.15 408.099 110.833 408.079 111.447L408.18 111.505C408.936 111.939 409.403 112.744 409.403 113.615C409.403 114.509 408.94 115.243 408.281 115.665C407.959 115.87 406.038 117.005 406.038 117.005C406.038 117.005 406.228 115.994 405.76 115.726L393.675 108.794C392.919 108.361 392.453 107.556 392.453 106.684C392.453 105.89 391.643 105.788 391.643 105.788C391.643 105.788 393.838 104.471 394.109 104.379C394.272 104.323 394.322 104.043 394.322 104.043C394.322 104.043 396.454 102.757 396.528 102.734Z" fill="#44B790"/>
<path d="M393.114 105.604C393.289 104.813 393.693 104.229 394.285 104.042C394.923 103.841 395.648 104.143 396.28 104.784C396.575 103.732 397.16 102.964 397.984 102.704C399.771 102.139 402.005 104.169 402.974 107.237C403.033 107.423 403.085 107.608 403.132 107.792C404.087 108.083 405.058 109.224 405.545 110.765C405.763 111.458 405.856 112.141 405.835 112.755L405.937 112.814C406.693 113.247 407.159 114.052 407.159 114.924C407.159 116.793 405.138 117.964 403.516 117.034L391.431 110.103C390.675 109.669 390.209 108.864 390.209 107.993C390.209 106.4 391.677 105.315 393.114 105.604Z" fill="#50C5A2"/>
<path d="M387.186 101.693C387.45 101.609 387.734 101.639 388.015 101.762C388.25 101.866 388.257 101.693 388.257 101.693C388.257 101.693 389.93 100.696 390.001 100.674C391.36 100.245 393.059 101.789 393.797 104.124C393.841 104.265 393.881 104.406 393.917 104.546C394.643 104.767 395.382 105.635 395.752 106.807C395.919 107.334 395.989 107.854 395.973 108.321L396.051 108.366C396.626 108.696 396.98 109.308 396.98 109.971C396.98 110.651 396.629 111.21 396.127 111.53C395.883 111.686 394.42 112.55 394.42 112.55C394.42 112.55 394.566 111.781 394.209 111.577L385.015 106.303C384.44 105.974 384.085 105.361 384.085 104.698C384.085 104.094 383.469 104.016 383.469 104.016C383.469 104.016 385.139 103.014 385.345 102.944C385.47 102.902 385.507 102.688 385.507 102.688C385.507 102.688 387.129 101.71 387.186 101.693Z" fill="#44B790"/>
<path d="M384.587 103.876C384.72 103.274 385.027 102.83 385.478 102.688C385.963 102.534 386.515 102.765 386.995 103.252C387.221 102.452 387.665 101.867 388.293 101.669C389.652 101.24 391.351 102.784 392.089 105.119C392.133 105.26 392.173 105.401 392.209 105.541C392.935 105.762 393.674 106.63 394.044 107.802C394.211 108.33 394.281 108.85 394.265 109.317L394.343 109.361C394.918 109.691 395.272 110.303 395.272 110.966C395.272 112.389 393.735 113.279 392.501 112.572L383.307 107.299C382.732 106.969 382.377 106.356 382.377 105.693C382.377 104.481 383.493 103.656 384.587 103.876Z" fill="#50C5A2"/>
<path d="M394.387 64.0313V113.524H398.612V64.0313C398.612 63.0499 397.97 62.2851 397.146 62.0197C396.884 61.936 396.604 61.901 396.325 61.922C396.052 61.9465 395.78 62.0268 395.515 62.1629C395.165 62.3445 394.886 62.6169 394.69 62.9416C394.495 63.2629 394.387 63.64 394.387 64.0313Z" fill="#D27855"/>
<g opacity="0.17">
<path d="M394.387 64.0313V113.524H396.325V61.9219C396.052 61.9464 395.78 62.0267 395.515 62.1628C395.165 62.3444 394.886 62.6168 394.69 62.9415C394.495 63.2629 394.387 63.64 394.387 64.0313Z" fill="#D27855"/>
</g>
<path d="M396.261 65.6421C397.831 56.9008 386.726 56 386.726 56L389.669 59.6352C389.669 59.6352 383.21 56.3563 376.17 60.0498C381.596 60.4295 382.826 63.273 382.826 63.273C378.325 63.908 377.195 65.9298 377.195 65.9298C388.055 63.7085 387.791 68.0384 387.791 68.0384L396.261 65.6421Z" fill="#4EC8A4"/>
<path d="M395.529 65.6421C393.959 56.9008 405.065 56 405.065 56L402.121 59.6352C402.121 59.6352 408.581 56.3563 415.62 60.0498C410.194 60.4295 408.964 63.273 408.964 63.273C413.465 63.908 414.595 65.9298 414.595 65.9298C403.735 63.7085 403.999 68.0384 403.999 68.0384L395.529 65.6421Z" fill="#4EC8A4"/>
<path d="M398.621 64.0673C385.182 55.7595 374.959 66.7298 374.959 66.7298L383.369 66.4103C383.369 66.4103 372.8 70.6918 373.476 80.8954C378.37 75.4891 384.107 76.3647 384.107 76.3647C381.642 81.573 384.148 84.2996 384.148 84.2996C388.939 71.2076 395.998 74.7842 395.998 74.7842L398.621 64.0673Z" fill="#4AAA80"/>
<path d="M393.352 64.4169C406.791 56.1091 417.013 67.0794 417.013 67.0794L408.604 66.7599C408.604 66.7599 419.173 71.0414 418.496 81.245C413.603 75.8387 407.866 76.7143 407.866 76.7143C410.331 81.9226 407.824 84.6492 407.824 84.6492C403.033 71.5572 395.974 75.1339 395.974 75.1339L393.352 64.4169Z" fill="#4AAA80"/>
<path d="M398.595 68.6612C389.404 65.8515 384.801 73.2357 384.801 73.2357L389.79 71.9551C389.79 71.9551 384.055 75.7012 385.87 81.2315C388.052 77.6114 391.606 77.34 391.606 77.34C390.851 80.532 392.727 81.7043 392.727 81.7043C393.786 73.8652 398.505 74.9076 398.505 74.9076L398.595 68.6612Z" fill="#4EC8A4"/>
<path d="M394.558 68.6396C403.828 65.9293 408.219 73.362 408.219 73.362L403.267 72.0278C403.267 72.0278 408.894 75.8352 406.921 81.345C404.843 77.702 401.297 77.3923 401.297 77.3923C401.961 80.5918 400.051 81.7438 400.051 81.7438C399.217 73.8945 394.469 74.8858 394.469 74.8858L394.558 68.6396Z" fill="#4EC8A4"/>
<path opacity="0.53" d="M398.612 103.745H394.387V105.142H398.612V103.745Z" fill="#F0B553"/>
<path opacity="0.53" d="M398.612 99.9033H394.387V101.3H398.612V99.9033Z" fill="#F0B553"/>
<path opacity="0.53" d="M398.612 96.0625H394.387V97.4595H398.612V96.0625Z" fill="#F0B553"/>
<path opacity="0.53" d="M398.612 92.2207H394.387V93.6177H398.612V92.2207Z" fill="#F0B553"/>
<path opacity="0.53" d="M398.612 88.3789H394.387V89.7758H398.612V88.3789Z" fill="#F0B553"/>
<path opacity="0.53" d="M398.612 84.5371H394.387V85.934H398.612V84.5371Z" fill="#F0B553"/>
<path opacity="0.53" d="M398.612 80.6963H394.387V82.0932H398.612V80.6963Z" fill="#F0B553"/>
<path opacity="0.53" d="M398.612 76.8545H394.387V78.2515H398.612V76.8545Z" fill="#F0B553"/>
<path d="M396.77 107.954C396.944 107.899 397.13 107.918 397.315 107.999C397.47 108.067 397.474 107.954 397.474 107.954C397.474 107.954 398.573 107.299 398.62 107.284C399.513 107.002 400.629 108.017 401.114 109.551C401.143 109.643 401.169 109.736 401.192 109.828C401.67 109.973 402.155 110.544 402.398 111.314C402.508 111.66 402.554 112.002 402.544 112.309L402.594 112.338C402.972 112.555 403.205 112.957 403.205 113.393C403.205 113.839 402.974 114.206 402.645 114.417C402.484 114.519 401.523 115.087 401.523 115.087C401.523 115.087 401.619 114.582 401.385 114.447L395.344 110.983C394.966 110.766 394.733 110.364 394.733 109.928C394.733 109.531 394.328 109.48 394.328 109.48C394.328 109.48 395.425 108.822 395.561 108.776C395.643 108.748 395.667 108.608 395.667 108.608C395.667 108.608 396.733 107.965 396.77 107.954Z" fill="#44B790"/>
<path d="M395.065 109.389C395.153 108.993 395.355 108.701 395.65 108.608C395.97 108.507 396.332 108.658 396.648 108.979C396.796 108.453 397.088 108.069 397.5 107.939C398.393 107.657 399.509 108.671 399.994 110.205C400.023 110.298 400.049 110.39 400.073 110.482C400.55 110.627 401.035 111.198 401.279 111.968C401.388 112.314 401.434 112.656 401.424 112.963L401.475 112.992C401.852 113.209 402.086 113.611 402.086 114.047C402.086 114.981 401.075 115.566 400.265 115.102L394.224 111.637C393.846 111.42 393.613 111.018 393.613 110.582C393.613 109.786 394.347 109.244 395.065 109.389Z" fill="#50C5A2"/>
<path d="M391.873 109.507C392.085 109.44 392.312 109.464 392.537 109.563C392.725 109.645 392.731 109.507 392.731 109.507C392.731 109.507 394.069 108.71 394.125 108.692C395.213 108.349 396.572 109.584 397.162 111.451C397.197 111.564 397.229 111.677 397.258 111.789C397.839 111.966 398.43 112.661 398.726 113.598C398.859 114.02 398.915 114.436 398.903 114.809L398.965 114.845C399.425 115.109 399.708 115.599 399.708 116.129C399.708 116.673 399.427 117.12 399.026 117.376C398.83 117.501 397.661 118.192 397.661 118.192C397.661 118.192 397.777 117.577 397.492 117.413L390.137 113.195C389.677 112.931 389.393 112.441 389.393 111.911C389.393 111.428 388.9 111.365 388.9 111.365C388.9 111.365 390.236 110.564 390.401 110.508C390.501 110.474 390.531 110.304 390.531 110.304C390.531 110.304 391.828 109.521 391.873 109.507Z" fill="#44B790"/>
<path d="M389.797 111.254C389.904 110.773 390.15 110.417 390.51 110.304C390.898 110.181 391.339 110.365 391.724 110.755C391.904 110.115 392.259 109.647 392.761 109.489C393.849 109.146 395.208 110.381 395.798 112.248C395.833 112.361 395.865 112.474 395.894 112.586C396.475 112.763 397.066 113.457 397.362 114.395C397.495 114.817 397.551 115.233 397.539 115.606L397.601 115.642C398.061 115.906 398.345 116.395 398.345 116.926C398.345 118.064 397.115 118.776 396.128 118.21L388.773 113.992C388.313 113.728 388.029 113.238 388.029 112.708C388.029 111.738 388.922 111.078 389.797 111.254Z" fill="#50C5A2"/>
<path d="M343.852 97.2427C343.852 97.2911 343.85 97.3391 343.845 97.3868C343.836 97.4708 343.82 97.5536 343.796 97.6349C343.476 98.7422 341.821 99.5858 339.828 99.5858C337.834 99.5858 336.178 98.7406 335.86 97.6318C335.836 97.5484 335.82 97.4634 335.811 97.3774C335.807 97.3328 335.805 97.288 335.805 97.2428C335.805 97.1976 335.807 97.1527 335.811 97.1082C335.82 97.022 335.836 96.9371 335.86 96.8536C335.896 96.7276 335.949 96.6048 336.019 96.4864C336.028 96.4705 336.038 96.4548 336.047 96.4391C336.61 95.5407 338.091 94.8994 339.828 94.8994C341.566 94.8994 343.046 95.5407 343.609 96.4391C343.619 96.4548 343.629 96.4705 343.638 96.4864C343.707 96.6038 343.76 96.7254 343.796 96.8504C343.82 96.9316 343.836 97.0143 343.845 97.0984C343.849 97.1461 343.852 97.1942 343.852 97.2427Z" fill="#F7D5E6"/>
<path d="M343.051 97.2286C343.051 97.2674 343.049 97.3058 343.045 97.344C343.038 97.4113 343.025 97.4775 343.006 97.5427C342.75 98.4293 341.425 99.1048 339.829 99.1048C338.232 99.1048 336.907 98.428 336.652 97.5402C336.633 97.4734 336.619 97.4054 336.613 97.3364C336.609 97.3008 336.607 97.2648 336.607 97.2287C336.607 97.1926 336.609 97.1567 336.613 97.121C336.619 97.0521 336.632 96.984 336.652 96.9172C336.681 96.8162 336.723 96.7179 336.779 96.6232C336.786 96.6105 336.794 96.5979 336.802 96.5853C337.253 95.866 338.438 95.3525 339.829 95.3525C341.221 95.3525 342.406 95.8661 342.857 96.5853C342.865 96.5979 342.872 96.6105 342.88 96.6232C342.935 96.7172 342.977 96.8145 343.006 96.9147C343.025 96.9798 343.038 97.046 343.045 97.1132C343.049 97.1512 343.051 97.1898 343.051 97.2286Z" fill="#429CD0"/>
<path d="M343.051 96.5871C343.051 96.6259 343.049 96.6643 343.045 96.7025C343.038 96.7698 343.025 96.836 343.006 96.9012C342.75 97.7878 341.425 98.4633 339.829 98.4633C338.232 98.4633 336.907 97.7865 336.652 96.8987C336.633 96.8319 336.619 96.7639 336.613 96.6948C336.609 96.6592 336.607 96.6232 336.607 96.5871C336.607 96.551 336.609 96.515 336.613 96.4794C336.619 96.4105 336.632 96.3424 336.652 96.2757C336.681 96.1747 336.723 96.0764 336.779 95.9817C336.786 95.969 336.794 95.9564 336.802 95.9438C337.253 95.2245 338.438 94.7109 339.829 94.7109C341.221 94.7109 342.406 95.2245 342.857 95.9438C342.865 95.9564 342.872 95.969 342.88 95.9817C342.935 96.0757 342.977 96.173 343.006 96.2732C343.025 96.3383 343.038 96.4045 343.045 96.4718C343.049 96.5098 343.051 96.5483 343.051 96.5871Z" fill="#4182CE"/>
<path d="M340.515 78.1406H339.24V96.6226H340.515V78.1406Z" fill="#429CD0"/>
<path d="M339.859 82.0713L328.553 79.5588L323.887 72.9187L328.553 65.9196L339.859 63.4072V82.0713Z" fill="#E2CCD6"/>
<path d="M339.791 82.0713L351.097 79.5588L355.763 72.9187L351.097 65.9196L339.791 63.4072V82.0713Z" fill="#795FB2"/>
<path d="M339.859 81.5098L328.553 78.9974L323.887 72.3573L328.553 65.3582L339.859 62.8457V81.5098Z" fill="#50B3FF"/>
<path d="M339.859 62.8457L328.553 78.9974L339.859 81.5098V62.8457Z" fill="white"/>
<path d="M339.859 62.8457L323.887 72.3552L328.553 65.3582L339.859 62.8457Z" fill="white"/>
<path d="M339.791 81.5098L351.097 78.9974L355.763 72.3573L351.097 65.3582L339.791 62.8457V81.5098Z" fill="white"/>
<path d="M339.791 62.8457L351.097 78.9974L339.791 81.5098V62.8457Z" fill="#9874D4"/>
<path d="M339.791 62.8457L355.763 72.3552L351.097 65.3582L339.791 62.8457Z" fill="#FF4C91"/>
<path d="M328.527 78.8726V79.5137L323.879 72.9429V72.3018L328.527 78.8726Z" fill="#36A3C0"/>
<path d="M355.771 72.3018V72.9429L351.123 79.5137V78.8726L355.771 72.3018Z" fill="#E2CCD6"/>
<path d="M377.741 91.5067L369.676 105.363L345.479 119.219L329.348 109.913L353.544 96.0566L361.403 82.2002L377.741 91.5067Z" fill="#F7D5E6"/>
<path d="M365.064 80.0723C364.901 82.9353 369.077 88.7521 365.809 94.7792C362.541 100.806 349.053 108.224 345.682 108.224C342.31 108.224 339.949 105.864 340.961 103.167C341.972 100.469 353.675 93.2099 353.893 93.1304C354.111 93.0508 357.483 86.6443 357.82 86.3071C358.157 85.9699 361.192 81.2493 361.192 81.2493L365.064 80.0723Z" fill="#F7D5E6"/>
<path d="M359.823 82.1816L356.133 87.2431L356.014 87.4865L354.182 91.2521L350.767 93.0992C350.756 93.1063 350.749 93.1099 350.738 93.1171L349.915 93.5609C349.915 93.5609 349.758 95.2218 349.285 94.4809C348.655 95.4007 347.263 95.9413 346.994 95.2432C346.726 94.5488 347.803 93.5144 347.803 93.5144L352.478 89.6736C352.478 89.6736 356.501 82.0814 359.823 82.1816Z" fill="#FF9F8F"/>
<path d="M356.015 87.4863L354.182 91.252L350.768 93.099C353.291 91.6387 354.254 89.2618 356.015 87.4863Z" fill="#F4CAAB"/>
<path d="M335.164 99.5393C334.348 100.04 334.803 101.691 338.315 103.562C338.315 103.562 339.76 103.036 341.709 102.249C343.553 101.504 347.438 99.9154 348.606 99.3379C350.91 99.3545 353.006 98.8532 354.611 98.2987C356.479 97.6532 357.634 95.7844 357.365 93.8264L357.165 92.3632C353.654 91.641 350.189 94.0541 346.927 96.0539C343.747 97.4297 338.34 100.928 338.34 100.928C338.34 100.928 335.98 99.0402 335.164 99.5393Z" fill="#FF9F8F"/>
<path d="M348.506 98.1339L341.709 102.249C343.552 101.505 347.437 99.916 348.605 99.3385C350.91 99.3551 353.006 98.8538 354.611 98.2993C355.381 98.033 356.031 97.5585 356.509 96.9555C357.189 96.0968 357.523 94.9774 357.365 93.8271C351.59 98.2818 348.506 98.1339 348.506 98.1339Z" fill="#F4CAAB"/>
<path d="M337.313 103.119C336.497 103.62 336.951 105.271 340.463 107.142C340.463 107.142 343.699 105.9 345.648 105.113C347.491 104.368 349.586 103.495 350.754 102.918C353.059 102.934 355.154 102.433 356.759 101.879C358.627 101.233 359.783 99.3645 359.514 97.4065L359.313 95.9433C355.803 95.221 352.337 97.6342 349.076 99.634C345.895 101.01 340.488 104.508 340.488 104.508C340.488 104.508 338.128 102.62 337.313 103.119Z" fill="#FF9F8F"/>
<path d="M350.656 101.713L345.648 105.113C347.492 104.368 349.587 103.495 350.755 102.918C353.06 102.934 355.155 102.433 356.76 101.878C357.531 101.612 358.18 101.138 358.658 100.535C359.339 99.6759 359.672 98.5565 359.514 97.4062C353.739 101.861 350.656 101.713 350.656 101.713Z" fill="#F4CAAB"/>
<path d="M362.026 81.2787L367.324 79.2734C367.097 83.1943 363.309 84.3917 365.42 88.6205C367.531 92.8494 354.097 90.5384 362.026 81.2787Z" fill="#8E4539"/>
<path d="M352.033 93.473C353.295 96.3239 357.464 97.8221 359.471 98.3916C359.722 98.4642 360.249 95.3018 361.293 93.4677C361.36 93.3493 361.428 93.2315 361.5 93.1151C361.595 92.9542 361.692 92.7946 361.792 92.6378C362.253 91.9085 362.74 91.2248 363.204 90.6095C363.439 90.2963 363.669 90.0031 363.884 89.7296C364.801 88.5734 365.493 88.8615 365.46 88.68C365.394 88.3069 365.246 86.8739 365.021 86.5533L364.49 85.7952L364.228 85.4223L361.598 81.6738C360.262 81.545 358.145 83.0332 356.861 84.5256C356.029 85.497 355.546 86.4709 355.86 87.004L355.861 87.0047C355.861 87.0047 355.861 87.0047 355.862 87.0067C355.872 87.0237 355.885 87.0422 355.895 87.0592C355.788 87.3382 355.678 87.6296 355.566 87.9218C355.268 88.694 354.957 89.4649 354.654 90.0167C353.868 91.4488 353.078 92.024 352.123 93.3505L352.033 93.473Z" fill="#FF9F8F"/>
<path d="M355.598 85.7773C355.337 86.4094 355.242 87.0865 355.489 87.738C355.512 87.7987 355.538 87.8606 355.567 87.9213C355.595 87.9792 355.626 88.0391 355.661 88.097L355.662 88.0976C355.662 88.0976 355.662 88.0976 355.663 88.0997C355.674 88.112 355.749 88.2051 355.887 88.3363C356.183 88.6189 356.765 89.0736 357.587 89.2514C357.699 89.4462 357.835 89.6449 357.986 89.8456C357.987 89.8477 357.989 89.8504 357.992 89.8518C358.295 90.2484 358.664 90.6501 359.055 91.0341C359.094 91.0742 359.135 91.1149 359.177 91.1544C360.028 91.9766 360.955 92.7054 361.5 93.1146C361.595 92.9537 361.693 92.7942 361.793 92.6374C361.054 92.0852 360.806 91.3529 360.806 91.3529L360.808 91.3523C360.811 91.3489 360.82 91.3393 360.834 91.3275C360.955 91.2137 361.442 90.7184 361.703 89.9504C361.877 89.4369 361.951 88.8007 361.748 88.0753C361.746 88.0747 361.746 88.0747 361.746 88.0747C361.746 88.0726 361.746 88.0713 361.746 88.0713L364.536 85.8733L364.491 85.7949L364.26 85.3966L364.229 85.422L361.336 87.8684C360.582 87.3257 358.74 87.6076 358.74 87.6076C358.74 87.6076 358.742 87.6001 358.745 87.583C358.746 87.5817 358.746 87.5817 358.747 87.5803C358.747 87.5769 358.748 87.5741 358.748 87.5693C358.789 87.3883 358.942 86.5784 358.697 85.836C358.556 85.4052 358.28 84.996 357.77 84.7445C357.77 84.7445 357.77 84.7445 357.772 84.7439C357.836 84.6883 359.9 82.9497 361.122 82.4518C361.268 82.3924 361.4 82.3521 361.514 82.3372L360.83 81.999C360.755 82.0301 360.678 82.0653 360.602 82.1025C359.138 82.8079 357.36 84.5417 357.36 84.5417C357.347 84.5335 357.334 84.5254 357.321 84.5173C357.3 84.5037 357.28 84.4902 357.26 84.4786C357.187 84.4339 357.039 84.4578 356.862 84.5255C356.487 84.6706 355.988 85.0117 355.837 85.2828C355.816 85.3218 355.795 85.3608 355.777 85.3992C355.71 85.5227 355.651 85.6486 355.598 85.7773Z" fill="#FEDF43"/>
<path d="M355.488 87.7382C355.534 87.8596 355.59 87.9795 355.66 88.0973L355.661 88.0979C355.661 88.0979 355.661 88.0979 355.662 88.1C355.673 88.1122 355.748 88.2054 355.886 88.3365C356.182 88.6192 356.765 89.0739 357.586 89.2517C357.586 89.2517 358.268 88.591 358.748 87.5693C358.788 87.3882 358.941 86.5784 358.697 85.8359C358.721 88.2064 357.079 89.5647 355.488 87.7382Z" fill="#F4CAAB"/>
<path d="M357.725 89.3198C357.725 89.3198 357.81 89.544 357.987 89.8463C357.988 89.8484 357.99 89.8511 357.993 89.8525C358.209 90.2215 358.56 90.7033 359.055 91.0348C359.514 91.3413 360.095 91.5181 360.807 91.3536L360.809 91.353C360.812 91.3496 360.82 91.34 360.835 91.3283C360.956 91.2144 361.442 90.7191 361.704 89.9511C361.878 89.4376 361.952 88.8015 361.749 88.076C361.749 88.0746 361.747 88.0754 361.747 88.0754C361.75 88.1656 361.798 90.3311 360.462 90.6727C359.098 91.0203 357.725 89.3198 357.725 89.3198Z" fill="#F4CAAB"/>
<path d="M360.6 83.6155C360.6 83.6155 362.109 85.034 363.301 84.5655L365.524 80.0664L362.527 81.0972L362.053 81.2599L360.904 83.1239L360.6 83.6155Z" fill="#FF9F8F"/>
<path d="M360.904 83.1242C361.595 83.2186 362.76 83.0329 364.173 81.4374L362.527 81.0977L362.053 81.2603L360.904 83.1242Z" fill="#F4CAAB"/>
<path d="M363.094 76.1074C363.094 76.1074 358.236 80.6589 360.566 81.926C362.896 83.1932 365.472 81.3358 365.472 81.3358L365.667 78.3972L363.094 76.1074Z" fill="#FF9F8F"/>
<path d="M366.875 78.0081C368.64 81.2136 364.83 81.7186 364.83 81.7186L364.376 81.2692C363.979 80.607 364.348 79.8998 364.348 79.8998C362.082 79.7887 362.488 77.8987 361.238 78.145C361.835 75.4707 365.111 74.8026 366.875 78.0081Z" fill="#8E4539"/>
<path d="M364.482 80.7278C363.984 80.8856 363.674 81.3119 363.79 81.6798C363.907 82.0478 364.405 82.2182 364.904 82.0604C365.403 81.9025 365.713 81.4763 365.597 81.1083C365.48 80.7404 364.981 80.57 364.482 80.7278Z" fill="#FF9F8F"/>
<path d="M352.6 92.7275C354.539 94.4729 354.674 96.1626 359.797 97.6444C359.551 100.558 358.27 100.959 358.27 100.959C358.27 100.959 359.193 99.4842 358.835 98.4104C358.477 97.3365 353.824 96.9786 353.824 96.9786C353.824 96.9786 353.356 96.6431 353.411 96.4529C353.466 95.1889 352.381 93.0056 352.381 93.0056L352.6 92.7275Z" fill="#FEDF43"/>
<path d="M365.31 87.4443C365.636 91.2512 364.204 95.9046 364.204 95.9046L361.698 101.99L359.908 101.274L361.34 95.1887L361.698 90.1775" fill="#FF9F8F"/>
<path d="M361.699 100.916H360.625C358.119 101.632 359.551 102.348 359.551 102.348C359.551 102.348 358.477 103.064 359.193 104.496C359.909 105.927 362.415 104.138 361.699 100.916Z" fill="#FF9F8F"/>
<path d="M345.992 113.348L370.13 99.6144L378.28 85.4044L377.203 84.7871L369.222 98.7032L345.379 112.269L345.992 113.348Z" fill="#FAB433"/>
<path d="M335.343 108.301L335.84 101.097C336.033 98.3067 337.606 95.8268 340.047 94.4632L345.925 91.1808C349.13 89.391 353.182 89.9537 355.778 92.5497L358.276 95.0472L359.153 94.1698L356.656 91.6724C353.669 88.6858 349.007 88.038 345.32 90.0975L339.442 93.3797C336.633 94.9483 334.824 97.8015 334.602 101.012L334.105 108.215L335.343 108.301Z" fill="#FAB433"/>
<path d="M377.741 85.0955L369.676 98.9517L345.479 112.808L329.348 103.502L353.544 89.6453L361.403 75.7891L377.741 85.0955Z" fill="#FC4D91"/>
<path d="M355.406 90.6795L363.265 76.8232L365.229 77.9422L357.331 91.8684L333.202 105.686L331.209 104.536L355.406 90.6795Z" fill="#FFE6F1"/>
<path d="M366.78 78.8223L368.745 79.9412L360.846 93.8673L336.718 107.685L334.725 106.535L358.921 92.6785L366.78 78.8223Z" fill="#FFE6F1"/>
<path d="M370.296 80.8213L372.26 81.9402L364.362 95.8663L340.233 109.684L338.24 108.534L362.437 94.6775L370.296 80.8213Z" fill="#FFE6F1"/>
<path d="M373.811 82.8203L375.776 83.9392L367.877 97.8654L343.749 111.683L341.756 110.533L365.953 96.6766L373.811 82.8203Z" fill="#FFE6F1"/>
<path d="M350.234 117.194L350.731 109.99C350.923 107.2 352.496 104.72 354.938 103.357L360.815 100.074C364.021 98.2845 368.073 98.8472 370.669 101.443L373.166 103.941L374.044 103.063L371.546 100.566C368.56 97.5791 363.898 96.9318 360.21 98.991L354.333 102.273C351.524 103.842 349.714 106.695 349.493 109.905L348.996 117.109L350.234 117.194Z" fill="#FAB433"/>
<path d="M358.059 114.995L368.87 109.035L379.542 114.995L368.87 121.232L358.059 114.995Z" fill="#F7D5E6"/>
<path d="M358.807 105.863V115.344L358.059 114.845V105.863H358.807Z" fill="#61BAE3"/>
<path d="M358.809 105.863V115.344L359.557 114.845V105.863H358.809Z" fill="#36A3C0"/>
<path d="M368.805 111.194V120.675L368.057 120.176V111.194H368.805Z" fill="#61BAE3"/>
<path d="M368.805 111.194V120.675L369.553 120.176V111.194H368.805Z" fill="#36A3C0"/>
<path d="M378.795 105.419V114.9L378.047 114.4V105.419H378.795Z" fill="#36A3C0"/>
<path d="M358.059 106.167V104.642L368.87 100.207L379.542 104.642V106.167L368.87 112.404L358.059 106.167Z" fill="#36A3C0"/>
<path d="M358.059 104.643L368.87 98.6826L379.542 104.643L368.87 110.88L358.059 104.643Z" fill="#61BAE3"/>
<path d="M378.795 105.419V114.9L379.543 114.4V105.419H378.795Z" fill="#61BAE3"/>
<path d="M367.873 106.502C369.271 106.502 370.404 105.784 370.404 104.899C370.404 104.013 369.271 103.295 367.873 103.295C366.475 103.295 365.342 104.013 365.342 104.899C365.342 105.784 366.475 106.502 367.873 106.502Z" fill="#F7D5E6"/>
<path d="M369.473 104.839C369.473 105.198 369.179 105.513 368.737 105.694C368.486 105.796 368.188 105.855 367.869 105.855C366.984 105.855 366.266 105.4 366.266 104.839C366.266 104.834 366.266 104.828 366.266 104.823C366.279 104.269 366.992 103.823 367.869 103.823C368.154 103.823 368.422 103.87 368.654 103.953C369.136 104.125 369.463 104.45 369.472 104.823C369.473 104.828 369.473 104.834 369.473 104.839Z" fill="#4AAA80"/>
<path d="M368.379 102.398V103.155C368.379 103.187 368.375 103.218 368.369 103.248C368.352 103.329 368.312 103.402 368.257 103.46C368.176 103.546 368.061 103.599 367.933 103.599C367.713 103.599 367.529 103.439 367.495 103.228C367.49 103.204 367.488 103.18 367.488 103.155V102.397H368.379V102.398Z" fill="#4AAA80"/>
<path d="M369.473 104.602V104.823H366.266V104.602C366.266 103.891 366.804 103.304 367.495 103.228C367.545 103.223 367.596 103.22 367.648 103.22H368.09C368.186 103.22 368.28 103.23 368.37 103.248C368.999 103.378 369.473 103.934 369.473 104.602Z" fill="#4AAA80"/>
<g opacity="0.17">
<path d="M369.472 104.823H369.471C369.472 104.828 369.472 104.834 369.472 104.839C369.472 105.198 369.178 105.513 368.735 105.694C368.74 105.551 368.75 105.188 368.742 104.823C368.735 104.469 368.712 104.113 368.653 103.953C368.586 103.773 368.414 103.595 368.256 103.461C368.087 103.316 367.933 103.22 367.933 103.22C367.933 103.22 367.941 103.143 367.933 102.999C367.927 102.892 367.683 102.822 367.559 102.793C367.938 102.857 368.378 102.756 368.378 102.756V103.155C368.378 103.187 368.375 103.218 368.369 103.248C368.998 103.378 369.472 103.935 369.472 104.602V104.823H369.472Z" fill="#15A0FF"/>
</g>
<path d="M370.406 98.1631V100.269C370.406 100.823 370.228 101.336 369.927 101.754C369.827 101.892 369.713 102.02 369.589 102.135C369.256 102.442 368.84 102.662 368.378 102.756C368.235 102.785 368.087 102.802 367.935 102.806C367.913 102.807 367.891 102.807 367.868 102.807C367.739 102.807 367.612 102.798 367.488 102.779C366.267 102.596 365.33 101.541 365.33 100.269V98.1632L370.406 98.1631Z" fill="#4AAA80"/>
<g opacity="0.09">
<path d="M370.406 98.1631V100.269C370.406 100.823 370.228 101.336 369.927 101.754C369.827 101.892 369.714 102.02 369.589 102.135C369.256 102.442 368.84 102.662 368.379 102.756C368.235 102.785 368.087 102.802 367.936 102.806C369.026 102.416 368.666 101.595 368.719 99.5892C368.719 99.5892 369.485 98.8414 370.219 98.1632L370.406 98.1631Z" fill="#15A0FF"/>
</g>
<path d="M367.87 99.8849C369.272 99.8849 370.408 99.165 370.408 98.2769C370.408 97.3889 369.272 96.6689 367.87 96.6689C366.468 96.6689 365.332 97.3889 365.332 98.2769C365.332 99.165 366.468 99.8849 367.87 99.8849Z" fill="#FFECC7"/>
<path d="M367.869 99.8443C369.253 99.8443 370.376 99.1335 370.376 98.2566C370.376 97.3798 369.253 96.6689 367.869 96.6689C366.485 96.6689 365.363 97.3798 365.363 98.2566C365.363 99.1335 366.485 99.8443 367.869 99.8443Z" fill="#4EC8A4"/>
<path d="M367.872 99.6156C369.096 99.6156 370.089 98.987 370.089 98.2116C370.089 97.4362 369.096 96.8076 367.872 96.8076C366.648 96.8076 365.656 97.4362 365.656 98.2116C365.656 98.987 366.648 99.6156 367.872 99.6156Z" fill="#FEDF43"/>
<path d="M370.088 98.2121C370.088 98.4008 370.03 98.5807 369.924 98.745C369.592 98.2341 368.799 97.8735 367.873 97.8735C366.947 97.8735 366.153 98.2341 365.822 98.745C365.715 98.5807 365.656 98.4008 365.656 98.2121C365.656 97.4365 366.649 96.8076 367.873 96.8076C369.096 96.8075 370.088 97.4365 370.088 98.2121Z" fill="#4AAA80"/>
<path d="M371.023 100.683C371.023 100.683 371.023 100.683 371.023 100.683L371.023 100.683L370.856 100.772L370.832 100.786L370.636 100.891L370.621 100.899C370.549 100.921 370.473 100.931 370.395 100.931H370.39C370.366 100.93 370.34 100.929 370.315 100.926C370.304 100.926 370.294 100.924 370.283 100.923L370.144 100.664L370.07 100.526L370.065 100.517L369.946 100.294L369.937 100.279L369.689 99.8165L369.644 99.7327L369.636 99.7169V98.9738L369.332 99.1514L369.331 99.1496L369.311 99.112L369.017 98.5648L368.974 98.4836L368.908 98.3612L368.886 98.3211L368.78 98.1231L368.762 98.0884L368.679 97.9346L368.562 97.7174L368.547 97.6887C368.614 97.5623 368.705 97.4604 368.82 97.3911L368.878 97.3605L369.042 97.272L369.146 97.2162C369.15 97.2139 369.155 97.2116 369.159 97.2093C369.717 96.9095 370.587 97.4441 371.102 98.403C371.617 99.3624 371.582 100.383 371.023 100.683Z" fill="#4AAA80"/>
<path d="M370.851 100.771C370.845 100.776 370.839 100.781 370.832 100.786C370.803 100.809 370.771 100.829 370.738 100.847C370.705 100.865 370.672 100.879 370.637 100.891C370.629 100.894 370.621 100.896 370.613 100.899C370.544 100.92 370.471 100.931 370.395 100.931H370.391C370.362 100.931 370.333 100.93 370.304 100.927C370.293 100.926 370.283 100.924 370.272 100.923C370.067 100.896 369.849 100.802 369.636 100.652V98.9739L369.332 99.1515L368.854 99.4319L368.852 99.4292L368.851 99.43L368.71 99.5122C368.377 98.8237 368.321 98.1216 368.535 97.6864C368.539 97.6765 368.544 97.6671 368.549 97.6574C368.617 97.5299 368.709 97.4271 368.825 97.3568C368.835 97.3511 368.845 97.3453 368.855 97.3399C368.864 97.3351 368.874 97.3303 368.883 97.3259C368.934 97.3015 368.988 97.2837 369.043 97.2721C369.6 97.1553 370.353 97.6784 370.818 98.5452C371.301 99.4448 371.304 100.398 370.851 100.771Z" fill="#4EC8A4"/>
<path d="M370.692 98.6129C370.652 98.5392 370.61 98.4684 370.566 98.4007L370.565 98.398C370.562 98.393 370.558 98.3884 370.555 98.3836C370.306 98.0046 369.993 97.7249 369.689 97.5878C369.682 97.5843 369.674 97.5809 369.667 97.5779C369.422 97.473 369.183 97.4614 368.988 97.5662C368.847 97.6419 368.744 97.7704 368.68 97.9346C368.676 97.9445 368.672 97.9544 368.669 97.9644C368.664 97.977 368.66 97.9899 368.656 98.0028C368.631 98.0825 368.614 98.1691 368.606 98.2616C368.605 98.2745 368.604 98.2877 368.603 98.3008C368.582 98.6231 368.658 99.0079 368.833 99.3915C368.836 99.3984 368.839 99.4051 368.842 99.4119C368.845 99.4179 368.848 99.4238 368.851 99.4298L368.852 99.4289L368.854 99.4316L369.332 99.1513L369.636 98.9737V100.42C369.639 100.423 369.641 100.425 369.644 100.427C369.652 100.432 369.659 100.437 369.667 100.443C369.803 100.538 369.941 100.608 370.075 100.647C370.088 100.65 370.101 100.654 370.114 100.657C370.124 100.66 370.134 100.662 370.144 100.664C370.275 100.693 370.401 100.691 370.516 100.655C370.523 100.653 370.531 100.651 370.537 100.648C370.567 100.638 370.595 100.626 370.622 100.611C370.872 100.477 371.002 100.179 371.011 99.8071C371.011 99.7985 371.011 99.7897 371.011 99.7808C371.013 99.4292 370.908 99.0149 370.692 98.6129Z" fill="#FEDF43"/>
<path d="M371.023 99.7885L371.011 99.8074L370.999 99.8265L369.739 99.0238L370.558 100.638L370.538 100.649L370.518 100.659L370.517 100.656L369.69 99.027V100.443H369.645V98.969L369.636 98.974L369.333 99.1516L368.854 99.432L368.853 99.4293L368.843 99.4122L368.831 99.3932L368.833 99.3919L369.312 99.1122L369.606 98.9397L369.018 98.565L368.603 98.3011L368.588 98.2913L368.607 98.2619L368.612 98.2534L368.974 98.484L369.624 98.8977L368.96 97.5897L369 97.5693L369.645 98.8392V97.5782H369.69V98.8908L370.556 98.3839L370.557 98.3833L370.565 98.3984L370.567 98.401L370.579 98.4219L369.696 98.9392L369.699 98.9452L371.011 99.7811L371.023 99.7885Z" fill="#D27855"/>
</svg>
