<svg width="512" height="186" viewBox="0 0 548 186" fill="none" xmlns="http://www.w3.org/2000/svg">
<path d="M444.039 151.306L491.089 124.839L547.076 156.744L500.155 183.802L444.039 151.306Z" fill="#3B495C"/>
<path d="M547.076 156.744V158.942L500.154 185.999V183.801L547.076 156.744Z" fill="#233143"/>
<path d="M444.039 151.307V153.505L500.155 186V183.802L444.039 151.307Z" fill="#233143"/>
<path d="M491.633 100.364L451.42 123.194V150.151L491.633 127.028V100.364Z" fill="#C6C3C1"/>
<path d="M453.736 123.688L452.123 124.601V151.563L453.736 150.635V123.688Z" fill="#FBAD32"/>
<path opacity="0.5" d="M464.306 131.169L452.928 137.713V140.61L466.842 132.613L464.306 131.169Z" fill="white"/>
<path opacity="0.5" d="M467.884 133.202L452.928 141.802V142.643L468.62 133.618L467.884 133.202Z" fill="white"/>
<path opacity="0.5" d="M452.928 124.712V125.667L453.764 125.187L452.928 124.712Z" fill="white"/>
<path opacity="0.5" d="M452.928 151.098L471.197 161.599V135.085L471.111 135.035L452.928 145.486V151.098Z" fill="white"/>
<path opacity="0.5" d="M469.141 133.915L452.928 143.237V144.891L470.585 134.738L469.141 133.915Z" fill="white"/>
<path d="M482.817 126.051V125.457L468.619 133.618L469.14 133.916L482.817 126.051Z" fill="white"/>
<path opacity="0.8" d="M468.62 133.618L452.928 142.643V143.237L469.141 133.915L468.62 133.618Z" fill="white"/>
<path d="M482.961 127.623L470.586 134.738L471.111 135.035L482.961 128.217V127.623Z" fill="white"/>
<path opacity="0.8" d="M452.928 144.891V145.485L471.111 135.034L470.585 134.737L452.928 144.891Z" fill="white"/>
<path d="M482.817 124.616V123.423L466.842 132.612L467.884 133.202L482.817 124.616Z" fill="white"/>
<path opacity="0.8" d="M466.842 132.613L452.928 140.61V141.803L467.884 133.203L466.842 132.613Z" fill="white"/>
<path d="M476.621 124.086V112.04L453.764 125.187L464.306 131.169L476.621 124.086Z" fill="white"/>
<path opacity="0.8" d="M453.764 125.188L452.928 125.667V137.713L464.306 131.169L453.764 125.188Z" fill="white"/>
<path d="M540.405 129.445L500.191 152.275V179.232L540.405 156.109V129.445Z" fill="#FBAD32"/>
<path d="M481.594 139.736L479.98 140.655V167.611L481.594 166.684V139.736Z" fill="#FBAD32"/>
<path d="M452.151 124.999L450.693 124.172V150.767L452.151 151.608V124.999Z" fill="#FBAD32"/>
<path d="M470.662 135.51V162.252L479.98 167.612V140.801L470.662 135.51Z" fill="#FBAD32"/>
<path opacity="0.5" d="M494.58 148.446L480.953 156.283V157.12L495.316 148.862L494.58 148.446Z" fill="white"/>
<path opacity="0.5" d="M495.837 149.159L480.953 157.714V159.368L497.285 149.977L495.837 149.159Z" fill="white"/>
<path opacity="0.5" d="M491.002 146.412L480.953 152.188V155.09L493.538 147.852L491.002 146.412Z" fill="white"/>
<path opacity="0.5" d="M480.953 167.09L499.218 177.591V151.078L497.806 150.273L480.953 159.966V167.09Z" fill="white"/>
<path opacity="0.8" d="M495.316 148.862L480.953 157.12V157.714L495.837 149.159L495.316 148.862Z" fill="white"/>
<path opacity="0.8" d="M480.953 159.367V159.966L497.806 150.274L497.285 149.977L480.953 159.367Z" fill="white"/>
<path opacity="0.8" d="M493.538 147.852L480.953 155.09V156.283L494.58 148.446L493.538 147.852Z" fill="white"/>
<path opacity="0.8" d="M480.953 140.705V152.189L491.002 146.413L480.953 140.705Z" fill="white"/>
<path d="M490.179 146.001L489.607 145.677V172.058L490.179 172.387V146.001Z" fill="#888D9A"/>
<path d="M498.234 151.165V178.108L500.19 179.232V152.275L498.234 151.165Z" fill="#FBAD32"/>
<path d="M500.191 152.888L497.129 145.677L540.404 120.827V130.085L500.191 152.888Z" fill="#BECCC6"/>
<path d="M540.405 120.827L494.489 147.468L450.748 122.687L496.587 96L540.405 120.827Z" fill="white"/>
<path d="M534.958 121.654L536.471 120.781L496.824 97.8643L457.744 120.534L459.362 121.49L496.929 99.6967L534.958 121.654Z" fill="#7C8982"/>
<path d="M534.957 121.655L496.928 99.6973L464.438 118.543L502.412 140.473L534.957 121.655Z" fill="#A2AAA6"/>
<path d="M497.326 143.416L502.412 140.473L464.438 118.543L459.361 121.49L497.326 143.416Z" fill="#8C9993"/>
<path d="M451.15 115.499V116.189L444.035 120.297V119.607L451.15 115.499Z" fill="#243954"/>
<path d="M451.15 121.965V122.659L444.035 126.768V126.073L451.15 121.965Z" fill="#243954"/>
<path d="M449.783 114.315L499.287 142.419V153.4L449.783 124.935V114.315Z" fill="#243954"/>
<path d="M450.693 113.826L449.783 114.315L499.287 142.419L500.191 141.93L450.693 113.826Z" fill="#243954"/>
<path d="M499.287 153.4L500.192 152.911V141.93L499.287 142.419V153.4Z" fill="#243954"/>
<path d="M472.859 145.782L478.457 149.013V147.153L472.859 144.005V145.782Z" fill="white"/>
<path d="M495.215 165.761L491.861 163.841V157.878L495.215 159.797V165.761Z" fill="#243954"/>
<path d="M494.891 160.104L492.186 158.555V158.92L494.891 160.469V160.104Z" fill="white"/>
<path d="M494.891 160.839L492.186 159.29V159.66L494.891 161.209V160.839Z" fill="white"/>
<path d="M492.322 161.25C492.322 160.729 492.528 160.542 492.811 160.706C493.095 160.871 493.3 161.296 493.3 161.817C493.3 162.342 493.095 162.534 492.811 162.37C492.523 162.205 492.322 161.776 492.322 161.25ZM492.989 161.639C492.989 161.268 492.907 161.095 492.807 161.035C492.706 160.976 492.628 161.058 492.628 161.428C492.628 161.803 492.711 161.981 492.807 162.041C492.907 162.096 492.989 162.009 492.989 161.639ZM492.88 163.462L493.94 161.36L494.191 161.506L493.136 163.613L492.88 163.462ZM493.766 163.137C493.766 162.616 493.976 162.429 494.255 162.594C494.539 162.758 494.744 163.183 494.744 163.704C494.744 164.23 494.539 164.422 494.255 164.257C493.972 164.092 493.766 163.663 493.766 163.137ZM494.438 163.526C494.438 163.151 494.356 162.982 494.26 162.923C494.159 162.863 494.077 162.941 494.077 163.316C494.077 163.69 494.159 163.869 494.26 163.928C494.356 163.983 494.438 163.901 494.438 163.526Z" fill="white"/>
<path d="M488.219 157.316L486.268 156.201V152.729L488.219 153.844V157.316Z" fill="#243954"/>
<path d="M469.086 154.396L462.145 150.421V138.073L469.086 142.049V154.396Z" fill="#243954"/>
<path d="M468.67 144.279L462.738 140.884V141.574L468.67 144.969V144.279Z" fill="white"/>
<path d="M468.67 143.041L462.738 139.646V140.336L468.67 143.731V143.041Z" fill="white"/>
<path d="M449.362 114.288L441.662 118.661V129.642L449.362 125.214V114.288Z" fill="#243954"/>
<path d="M449.362 119.122L441.662 123.495V124.149L449.362 119.725V119.122Z" fill="white"/>
<path d="M449.362 120.604L441.662 124.972V125.63L449.362 121.202V120.604Z" fill="white"/>
<path d="M449.362 122.011L441.662 126.384V127.037L449.362 122.609V122.011Z" fill="white"/>
<path d="M441 129.249L441.663 129.642V118.661L441 118.268V129.249Z" fill="#243954"/>
<path d="M449.363 114.288L448.7 113.899L441 118.268L441.663 118.661L449.363 114.288Z" fill="#243954"/>
<rect width="362" height="110" rx="18" fill="#006DB7"/>
<path d="M435.5 109L324 73.026L356 49L435.5 109Z" fill="#006DB7"/>
<rect x="25.0476" y="34.0476" width="41.9048" height="41.9048" rx="20.9524" fill="#FFB600"/>
<rect x="25.0476" y="34.0476" width="41.9048" height="41.9048" rx="20.9524" stroke="white" stroke-width="2.09524"/>
<g clip-path="url(#clip0_146_19526)">
<path d="M34.375 63.3886C34.375 63.4261 34.3787 63.4599 34.39 63.4936C34.39 63.5049 34.3975 63.5161 34.4013 63.5274C34.4125 63.5574 34.4313 63.5874 34.4538 63.6136C34.4575 63.6211 34.4613 63.6249 34.465 63.6324C34.465 63.6324 34.4688 63.6324 34.4725 63.6361C34.4987 63.6661 34.5288 63.6924 34.5662 63.7111C36.205 64.5699 40.255 66.0661 40.4237 66.1261C40.4387 66.1299 40.45 66.1299 40.465 66.1336C40.4725 66.1336 40.48 66.1411 40.4913 66.1449C40.5887 66.1599 40.7125 66.1674 40.855 66.1674C43.9375 66.1674 56.7887 62.5411 57.3587 62.3799C57.5312 62.3311 57.6438 62.1624 57.6213 61.9824C57.0138 57.2236 55.375 49.4574 55.36 49.3786C55.36 49.3749 55.3563 49.3711 55.3563 49.3674C55.345 49.3299 55.33 49.2961 55.3113 49.2624C55.3075 49.2549 55.3037 49.2474 55.3 49.2436C55.2775 49.2099 55.2437 49.1799 55.21 49.1574C55.195 49.1461 55.1762 49.1386 55.1575 49.1311C55.1425 49.1236 55.1275 49.1124 55.1087 49.1086L51.625 48.0849C50.2675 45.0474 48.3175 43.5849 45.9887 43.8586C45.5012 43.9149 45.0512 44.0499 44.6425 44.2561C44.4362 44.2186 44.2225 44.1961 44.0013 44.1924C42.8988 44.1811 41.9613 44.6161 41.2263 45.4824C40.3413 46.5136 39.7863 48.1674 39.5612 50.3911C37.615 50.7361 36.1862 50.9799 36.1637 50.9836C36.1487 50.9836 36.1413 50.9949 36.1263 50.9986C36.1187 50.9986 36.1075 50.9986 36.1 50.9986C36.0888 50.9986 36.0813 51.0099 36.0738 51.0174C36.0438 51.0324 36.0175 51.0474 35.995 51.0661C35.98 51.0774 35.9687 51.0886 35.9575 51.1036C35.935 51.1261 35.92 51.1524 35.905 51.1824C35.9013 51.1936 35.89 51.2011 35.8863 51.2124C35.1588 53.1249 34.4087 62.9461 34.3787 63.3624V63.3661V63.3849L34.375 63.3886ZM40.5325 50.9574C40.5738 50.9499 40.615 50.9424 40.66 50.9349C41.1512 50.8449 41.6613 50.7549 42.1825 50.6574C42.1975 51.0436 42.2275 51.4411 42.2725 51.8536C40.4987 52.1986 39.3438 52.3899 38.8375 52.4199L37.2812 51.5274C38.0538 51.3924 39.2125 51.1936 40.5363 50.9536L40.5325 50.9574ZM42.16 49.9224C41.995 49.9524 41.83 49.9824 41.665 50.0124C41.8225 48.8986 42.0812 48.0099 42.4225 47.3911C42.2462 48.1261 42.1562 48.9736 42.1562 49.9224H42.16ZM37.4162 61.4686L39.6737 65.0724C38.5037 64.6261 36.5838 63.8761 35.38 63.3061L37.42 61.4724L37.4162 61.4686ZM37.8587 60.8049V52.7011L38.4062 53.0161C38.5525 54.4261 39.2013 60.4861 39.7487 63.8236L37.8587 60.8086V60.8049ZM36.4375 51.8874L37.1313 52.2849V60.7486L35.17 62.5149C35.3612 60.1749 35.905 53.9724 36.4337 51.8874H36.4375ZM40.8062 65.4511C40.405 64.1761 39.6063 57.5086 39.145 53.1286C39.76 53.0611 40.8025 52.8849 42.3513 52.5811C42.475 53.4549 42.6213 54.1336 42.7075 54.5049C42.8313 54.9849 43.2625 55.3224 43.7575 55.3224C43.8475 55.3224 43.9375 55.3111 44.0238 55.2886C44.5975 55.1424 44.9537 54.5574 44.8112 53.9761C44.6875 53.4774 44.5675 52.8174 44.4775 52.1499C46.1425 51.8049 48.1075 51.3849 50.3312 50.8899C50.5187 51.5536 50.68 52.2474 50.7962 52.9111C50.7962 52.9261 50.8 52.9374 50.8038 52.9486C50.845 53.2336 50.995 53.4849 51.2275 53.6574C51.46 53.8299 51.7413 53.9049 52.03 53.8599C52.3188 53.8186 52.57 53.6649 52.7425 53.4324C52.915 53.1999 52.9862 52.9149 52.945 52.6299C52.93 52.5211 52.7913 51.6099 52.4538 50.4099C53.4812 50.1774 54.2875 49.9936 54.7225 49.8924C55.045 51.4449 56.305 57.6174 56.8563 61.7649C52.7612 62.9161 42.955 65.5261 40.8025 65.4399L40.8062 65.4511ZM45.805 46.1161C45.8387 46.1049 45.8687 46.0899 45.9025 46.0824C46.0075 46.0524 46.12 46.0261 46.2362 46.0111C46.2625 46.0111 46.2925 46.0111 46.3187 46.0074C46.9112 46.6636 47.395 47.6049 47.755 48.8161C47.7362 48.8199 47.7137 48.8236 47.695 48.8311C47.5225 48.8686 47.3425 48.9061 47.1588 48.9474C46.7725 47.6799 46.2362 46.7724 45.565 46.2286C45.58 46.2211 45.5913 46.2136 45.6025 46.2061C45.6663 46.1724 45.7337 46.1461 45.805 46.1199V46.1161ZM44.4025 51.4261C44.365 51.0286 44.3387 50.6349 44.3312 50.2524C45.3175 50.0611 46.1988 49.8849 46.9713 49.7236H46.9788C47.0688 49.7049 47.155 49.6861 47.245 49.6674C47.3725 49.6411 47.4925 49.6149 47.6125 49.5886C47.6275 49.5886 47.6425 49.5811 47.6575 49.5774C47.815 49.5436 47.9688 49.5099 48.115 49.4761C48.1712 49.4649 48.2312 49.4499 48.2875 49.4386C48.8425 49.3149 49.3187 49.2024 49.7087 49.1011C49.8512 49.4349 49.99 49.7986 50.1175 50.1886C47.95 50.6724 46.03 51.0849 44.3988 51.4224L44.4025 51.4261ZM48.4637 48.6586C48.1713 47.6649 47.8 46.8286 47.35 46.1574C48.1112 46.4724 48.8012 47.2374 49.4012 48.4336C49.1275 48.5011 48.8125 48.5761 48.46 48.6586H48.4637ZM45.0025 46.7424C45.0025 46.7424 45.0138 46.7311 45.0175 46.7236C45.5988 47.1474 46.0863 47.9574 46.4425 49.0936C45.805 49.2249 45.1 49.3636 44.3275 49.5136C44.3688 48.2799 44.5975 47.3236 45.0025 46.7424ZM52.24 49.7236C52.1537 49.4611 52.0675 49.2024 51.9738 48.9511L53.575 49.4236C53.1925 49.5099 52.7425 49.6149 52.2438 49.7274L52.24 49.7236ZM46.0712 44.5861C46.2287 44.5674 46.3825 44.5599 46.5363 44.5599C48.3775 44.5599 49.885 45.8949 51.0287 48.5386C51.2575 49.0786 51.4675 49.6599 51.6512 50.2599C52.0525 51.5874 52.21 52.6299 52.225 52.7461C52.24 52.8399 52.2137 52.9336 52.1575 53.0124C52.1012 53.0874 52.0188 53.1399 51.9212 53.1511C51.8275 53.1661 51.7375 53.1399 51.6588 53.0836C51.5837 53.0274 51.535 52.9449 51.52 52.8474C51.52 52.8361 51.5125 52.8061 51.5125 52.7949C51.3738 51.9886 51.175 51.1486 50.935 50.3574C50.7213 49.6674 50.5 49.0711 50.2488 48.5274C49.2663 46.3674 48.01 45.2724 46.5175 45.2724C46.4988 45.2724 46.4838 45.2724 46.465 45.2724C46.3638 45.2649 46.255 45.2799 46.15 45.2911C45.5538 45.3624 45.055 45.5986 44.68 45.9924C44.68 45.9924 44.68 45.9924 44.6762 45.9961C44.5787 46.0936 44.4887 46.2061 44.4025 46.3261C43.8588 47.1099 43.585 48.3324 43.5887 49.9561C43.5887 50.5824 43.6337 51.2386 43.7125 51.9061C43.8062 52.7049 43.9525 53.5449 44.1063 54.1486C44.1512 54.3399 44.035 54.5311 43.8475 54.5799C43.6713 54.6249 43.4613 54.5086 43.4125 54.3099C43.3413 53.9986 43.1575 53.1624 43.0225 52.1011C42.94 51.4374 42.895 50.8036 42.8837 50.2149C42.85 48.5386 43.0938 47.2111 43.6038 46.2699C43.6825 46.1236 43.7463 46.0186 43.8175 45.9174C43.8888 45.8124 43.9675 45.7149 44.0463 45.6211C44.2863 45.3436 44.5638 45.1186 44.8675 44.9499C45.2275 44.7549 45.6287 44.6274 46.0712 44.5786V44.5861ZM41.7737 45.9586C42.2987 45.3399 42.9438 44.9986 43.6975 44.9349C43.6525 44.9799 43.6112 45.0286 43.5662 45.0774C43.5363 45.1111 43.5063 45.1411 43.4762 45.1749C43.3863 45.2799 43.3 45.3924 43.2175 45.5086C43.18 45.5611 43.1425 45.6211 43.105 45.6811C43.0938 45.6999 43.0825 45.7186 43.0712 45.7374C43.0563 45.7636 43.0413 45.7861 43.0262 45.8124C42.715 45.9474 42.4338 46.1611 42.1825 46.4499C41.5487 47.1924 41.1213 48.4374 40.9075 50.1549C40.7575 50.1811 40.6112 50.2074 40.4612 50.2374C40.405 50.2486 40.3488 50.2561 40.2925 50.2674C40.51 48.3211 41.0162 46.8399 41.77 45.9624L41.7737 45.9586Z" fill="white"/>
<path d="M50.5142 57.3254C50.1579 57.0217 49.6404 56.8567 48.9842 56.8267L47.9754 56.7854C47.6454 56.7704 47.5517 56.7104 47.5404 56.7029C47.5292 56.6954 47.5067 56.6804 47.5067 56.5979C47.5067 56.5154 47.5179 56.3879 47.6679 56.2417C47.7992 56.1142 48.0054 56.0204 48.2754 55.9717C48.5154 55.9267 48.7142 55.9117 48.8679 55.9304C49.0329 55.9492 49.1904 55.9792 49.3217 56.0204C49.5579 56.0954 49.7754 56.0992 49.9667 56.0279C50.1504 55.9604 50.2967 55.8442 50.4017 55.6867C50.4992 55.5442 50.5554 55.3867 50.5742 55.2142C50.5929 55.0304 50.5592 54.8579 50.4729 54.6967C50.3829 54.5242 50.2404 54.3967 50.0717 54.3254C49.8204 54.1979 49.5317 54.1154 49.2129 54.0817C49.1304 54.0742 49.0517 54.0667 48.9692 54.0629L48.9579 53.8904C48.9429 53.6467 48.8417 53.4404 48.6579 53.2942C48.4742 53.1479 48.2492 53.0954 48.0092 53.1367C47.7767 53.1779 47.5779 53.2942 47.4317 53.4779C47.2854 53.6617 47.2104 53.8754 47.2217 54.1042L47.2329 54.3854C46.9779 54.4904 46.7454 54.6217 46.5429 54.7754C46.1979 55.0342 45.9242 55.3454 45.7292 55.7054C45.5267 56.0804 45.4254 56.4892 45.4254 56.9204C45.4254 57.5129 45.6054 57.9854 45.9542 58.3192C46.2992 58.6492 46.8092 58.8292 47.4692 58.8592L48.5004 58.9042C48.7179 58.9117 48.8379 58.9379 48.9017 58.9642C48.9842 58.9942 49.0029 59.0204 49.0067 59.0242C49.0254 59.0542 49.0404 59.0954 49.0442 59.1517C49.0517 59.2342 49.0329 59.3092 48.9954 59.3842C48.9542 59.4592 48.8754 59.5379 48.7592 59.6092C48.6242 59.6954 48.4329 59.7629 48.1854 59.8117C47.8367 59.8829 47.5404 59.8979 47.3042 59.8642C47.0567 59.8267 46.8654 59.7817 46.7342 59.7292C46.4154 59.6092 46.1717 59.6692 46.0217 59.7404C45.8342 59.8304 45.6804 59.9692 45.5679 60.1567C45.4629 60.3329 45.3992 60.5242 45.3804 60.7267C45.3617 60.9367 45.3917 61.1354 45.4704 61.3229C45.5642 61.5442 45.7404 61.7054 45.9692 61.7879C46.2204 61.8892 46.5242 61.9604 46.8917 62.0092C47.0792 62.0354 47.2817 62.0392 47.5029 62.0317L47.5142 62.3242C47.5254 62.6092 47.6267 62.8529 47.8142 63.0292C47.9717 63.1792 48.1704 63.2579 48.3842 63.2579C48.4479 63.2579 48.5117 63.2504 48.5754 63.2392C48.8417 63.1829 49.0629 63.0292 49.2167 62.7892C49.3592 62.5679 49.4267 62.3204 49.4079 62.0542L49.3817 61.5967C49.6742 61.4579 49.9367 61.2854 50.1617 61.0904C50.5104 60.7904 50.7767 60.4304 50.9529 60.0217C51.1292 59.6167 51.1967 59.1742 51.1554 58.7129C51.1029 58.1167 50.8854 57.6554 50.5104 57.3367L50.5142 57.3254ZM50.2892 59.7179C50.1542 60.0254 49.9554 60.2954 49.6892 60.5242C49.4642 60.7192 49.1867 60.8842 48.8717 61.0117C48.7254 61.0717 48.6354 61.2142 48.6467 61.3679L48.6879 62.0767C48.6954 62.1892 48.6692 62.2867 48.6092 62.3767C48.5454 62.4742 48.4779 62.4967 48.4292 62.5079C48.3579 62.5229 48.3354 62.5042 48.3167 62.4854C48.2867 62.4592 48.2492 62.4067 48.2417 62.2829L48.2192 61.6117C48.2192 61.5104 48.1704 61.4129 48.0917 61.3492C48.0242 61.2929 47.9417 61.2629 47.8554 61.2629C47.8404 61.2629 47.8254 61.2629 47.8104 61.2629C47.4954 61.3004 47.2217 61.3042 46.9892 61.2742C46.6854 61.2329 46.4342 61.1729 46.2279 61.0942C46.1642 61.0717 46.1492 61.0454 46.1379 61.0192C46.1079 60.9479 46.0967 60.8654 46.1042 60.7754C46.1117 60.6817 46.1379 60.5992 46.1867 60.5204C46.2279 60.4529 46.2729 60.4117 46.3329 60.3817C46.3629 60.3667 46.4117 60.3704 46.4642 60.3929C46.6442 60.4642 46.8842 60.5242 47.1917 60.5692C47.5104 60.6179 47.8892 60.5992 48.3204 60.5129C48.6579 60.4454 48.9279 60.3479 49.1379 60.2129C49.3629 60.0704 49.5279 59.9017 49.6292 59.7142C49.7304 59.5192 49.7754 59.3129 49.7604 59.0954C49.7492 58.9079 49.6929 58.7392 49.5954 58.6004C49.4942 58.4504 49.3367 58.3417 49.1342 58.2704C48.9692 58.2104 48.7629 58.1804 48.5154 58.1729L47.4879 58.1279C47.0117 58.1092 46.6592 57.9929 46.4454 57.7904C46.2429 57.5954 46.1417 57.3104 46.1417 56.9167C46.1417 56.6017 46.2129 56.3167 46.3592 56.0467C46.5054 55.7767 46.7079 55.5479 46.9704 55.3492C47.1804 55.1917 47.4279 55.0642 47.7129 54.9704C47.8667 54.9179 47.9679 54.7754 47.9604 54.6142L47.9417 54.0704C47.9417 54.0179 47.9567 53.9729 47.9942 53.9279C48.0317 53.8829 48.0729 53.8567 48.1292 53.8492C48.1779 53.8417 48.1892 53.8492 48.2004 53.8567C48.2117 53.8679 48.2267 53.8754 48.2267 53.9242L48.2567 54.4454C48.2679 54.6442 48.4404 54.7979 48.6392 54.7867C48.8192 54.7754 48.9729 54.7792 49.1304 54.7979C49.3592 54.8204 49.5617 54.8804 49.7529 54.9742C49.8092 54.9967 49.8204 55.0229 49.8279 55.0342C49.8467 55.0679 49.8542 55.1017 49.8467 55.1392C49.8429 55.1917 49.8242 55.2367 49.7942 55.2817C49.7792 55.3042 49.7567 55.3267 49.7079 55.3492C49.6967 55.3529 49.6517 55.3642 49.5392 55.3304C49.3554 55.2742 49.1567 55.2367 48.9429 55.2142C48.7179 55.1917 48.4554 55.2067 48.1442 55.2629C47.7279 55.3379 47.3979 55.4954 47.1617 55.7242C46.9029 55.9754 46.7717 56.2867 46.7792 56.6204C46.7904 56.9879 46.9704 57.1942 47.1167 57.2992C47.3004 57.4304 47.5592 57.4979 47.9417 57.5167L48.9504 57.5579C49.4454 57.5804 49.8129 57.6929 50.0454 57.8879C50.2704 58.0792 50.4017 58.3679 50.4354 58.7729C50.4654 59.1179 50.4167 59.4292 50.2892 59.7254V59.7179Z" fill="white"/>
</g>
<path d="M130.224 35.2891C130.138 34.4827 129.775 33.8549 129.135 33.4055C128.501 32.9562 127.676 32.7315 126.66 32.7315C125.946 32.7315 125.334 32.8393 124.823 33.0547C124.312 33.2701 123.921 33.5625 123.65 33.9318C123.38 34.3011 123.241 34.7228 123.235 35.1967C123.235 35.5907 123.324 35.9323 123.503 36.2216C123.687 36.5109 123.937 36.7571 124.251 36.9602C124.565 37.1572 124.912 37.3234 125.294 37.4588C125.676 37.5942 126.06 37.7081 126.448 37.8004L128.221 38.2436C128.935 38.4098 129.621 38.6345 130.28 38.9176C130.945 39.2008 131.539 39.5578 132.062 39.9886C132.591 40.4195 133.01 40.9396 133.317 41.549C133.625 42.1584 133.779 42.8724 133.779 43.6911C133.779 44.799 133.496 45.7746 132.93 46.6179C132.363 47.455 131.545 48.1106 130.474 48.5845C129.409 49.0523 128.119 49.2862 126.605 49.2862C125.134 49.2862 123.857 49.0585 122.773 48.603C121.696 48.1475 120.853 47.4827 120.244 46.6087C119.64 45.7346 119.314 44.6697 119.265 43.4141H122.635C122.684 44.0727 122.887 44.6205 123.244 45.0575C123.601 45.4946 124.066 45.8208 124.638 46.0362C125.217 46.2517 125.863 46.3594 126.577 46.3594C127.322 46.3594 127.975 46.2486 128.535 46.027C129.101 45.7992 129.544 45.4853 129.864 45.0852C130.184 44.679 130.347 44.205 130.354 43.6634C130.347 43.1709 130.203 42.7647 129.92 42.4446C129.637 42.1184 129.239 41.8475 128.729 41.6321C128.224 41.4105 127.633 41.2135 126.956 41.0412L124.805 40.4872C123.247 40.0871 122.016 39.4808 121.111 38.6683C120.213 37.8497 119.763 36.7633 119.763 35.4091C119.763 34.295 120.065 33.3194 120.668 32.4822C121.278 31.6451 122.105 30.9957 123.152 30.5341C124.198 30.0663 125.383 29.8324 126.707 29.8324C128.048 29.8324 129.224 30.0663 130.234 30.5341C131.249 30.9957 132.046 31.639 132.625 32.4638C133.204 33.2824 133.502 34.2242 133.521 35.2891H130.224ZM140.766 49.2862C139.867 49.2862 139.058 49.1262 138.338 48.8061C137.624 48.4799 137.057 47.9998 136.639 47.3658C136.227 46.7318 136.02 45.95 136.02 45.0206C136.02 44.2204 136.168 43.5587 136.464 43.0355C136.759 42.5123 137.162 42.0938 137.673 41.7798C138.184 41.4659 138.759 41.2289 139.4 41.0689C140.046 40.9027 140.714 40.7827 141.403 40.7088C142.234 40.6226 142.908 40.5457 143.425 40.478C143.942 40.4041 144.318 40.2933 144.552 40.1456C144.792 39.9917 144.912 39.7547 144.912 39.4347V39.3793C144.912 38.6837 144.705 38.1451 144.293 37.7635C143.881 37.3819 143.287 37.1911 142.511 37.1911C141.692 37.1911 141.043 37.3696 140.563 37.7266C140.089 38.0836 139.769 38.5052 139.603 38.9915L136.482 38.5483C136.728 37.6866 137.134 36.9664 137.701 36.3878C138.267 35.803 138.959 35.366 139.778 35.0767C140.597 34.7812 141.502 34.6335 142.493 34.6335C143.176 34.6335 143.856 34.7135 144.533 34.8736C145.21 35.0336 145.829 35.2983 146.389 35.6676C146.949 36.0308 147.398 36.5263 147.737 37.1541C148.082 37.782 148.254 38.5668 148.254 39.5085V49H145.041V47.0518H144.93C144.727 47.4458 144.441 47.8151 144.071 48.1598C143.708 48.4983 143.25 48.7723 142.696 48.9815C142.148 49.1847 141.505 49.2862 140.766 49.2862ZM141.634 46.8303C142.305 46.8303 142.887 46.6979 143.379 46.4332C143.871 46.1624 144.25 45.8054 144.515 45.3622C144.785 44.919 144.921 44.4358 144.921 43.9126V42.2415C144.816 42.3277 144.638 42.4077 144.385 42.4815C144.139 42.5554 143.862 42.62 143.554 42.6754C143.247 42.7308 142.942 42.7801 142.64 42.8232C142.339 42.8662 142.077 42.9032 141.856 42.9339C141.357 43.0017 140.911 43.1125 140.517 43.2663C140.123 43.4202 139.812 43.6357 139.584 43.9126C139.357 44.1835 139.243 44.5343 139.243 44.9652C139.243 45.5807 139.467 46.0455 139.917 46.3594C140.366 46.6733 140.938 46.8303 141.634 46.8303ZM154.957 30.0909V49H151.615V30.0909H154.957ZM162.475 49.2862C161.576 49.2862 160.767 49.1262 160.047 48.8061C159.333 48.4799 158.766 47.9998 158.348 47.3658C157.936 46.7318 157.729 45.95 157.729 45.0206C157.729 44.2204 157.877 43.5587 158.172 43.0355C158.468 42.5123 158.871 42.0938 159.382 41.7798C159.893 41.4659 160.468 41.2289 161.109 41.0689C161.755 40.9027 162.423 40.7827 163.112 40.7088C163.943 40.6226 164.617 40.5457 165.134 40.478C165.651 40.4041 166.027 40.2933 166.261 40.1456C166.501 39.9917 166.621 39.7547 166.621 39.4347V39.3793C166.621 38.6837 166.414 38.1451 166.002 37.7635C165.59 37.3819 164.996 37.1911 164.22 37.1911C163.401 37.1911 162.752 37.3696 162.272 37.7266C161.798 38.0836 161.478 38.5052 161.312 38.9915L158.191 38.5483C158.437 37.6866 158.843 36.9664 159.41 36.3878C159.976 35.803 160.668 35.366 161.487 35.0767C162.306 34.7812 163.211 34.6335 164.202 34.6335C164.885 34.6335 165.565 34.7135 166.242 34.8736C166.919 35.0336 167.538 35.2983 168.098 35.6676C168.658 36.0308 169.107 36.5263 169.446 37.1541C169.791 37.782 169.963 38.5668 169.963 39.5085V49H166.75V47.0518H166.639C166.436 47.4458 166.15 47.8151 165.78 48.1598C165.417 48.4983 164.959 48.7723 164.405 48.9815C163.857 49.1847 163.214 49.2862 162.475 49.2862ZM163.343 46.8303C164.014 46.8303 164.596 46.6979 165.088 46.4332C165.58 46.1624 165.959 45.8054 166.224 45.3622C166.494 44.919 166.63 44.4358 166.63 43.9126V42.2415C166.525 42.3277 166.347 42.4077 166.094 42.4815C165.848 42.5554 165.571 42.62 165.263 42.6754C164.956 42.7308 164.651 42.7801 164.349 42.8232C164.048 42.8662 163.786 42.9032 163.565 42.9339C163.066 43.0017 162.62 43.1125 162.226 43.2663C161.832 43.4202 161.521 43.6357 161.293 43.9126C161.065 44.1835 160.952 44.5343 160.952 44.9652C160.952 45.5807 161.176 46.0455 161.626 46.3594C162.075 46.6733 162.647 46.8303 163.343 46.8303ZM185.036 49.2493C183.922 49.2493 182.925 48.9631 182.044 48.3906C181.164 47.8182 180.469 46.9872 179.958 45.8977C179.447 44.8082 179.191 43.4848 179.191 41.9276C179.191 40.3518 179.45 39.0223 179.967 37.9389C180.49 36.8494 181.195 36.0277 182.081 35.4737C182.968 34.9136 183.956 34.6335 185.045 34.6335C185.876 34.6335 186.559 34.7751 187.095 35.0582C187.63 35.3352 188.055 35.6707 188.369 36.0646C188.683 36.4524 188.926 36.8187 189.098 37.1634H189.237V30.0909H192.588V49H189.301V46.7656H189.098C188.926 47.1103 188.677 47.4766 188.35 47.8643C188.024 48.246 187.593 48.5722 187.058 48.843C186.522 49.1139 185.848 49.2493 185.036 49.2493ZM185.968 46.5071C186.676 46.5071 187.279 46.3163 187.778 45.9347C188.277 45.5469 188.655 45.0083 188.914 44.3189C189.172 43.6295 189.301 42.8262 189.301 41.9091C189.301 40.992 189.172 40.1948 188.914 39.5178C188.661 38.8407 188.286 38.3144 187.787 37.9389C187.295 37.5634 186.688 37.3757 185.968 37.3757C185.224 37.3757 184.602 37.5696 184.103 37.9574C183.605 38.3452 183.229 38.8807 182.977 39.5639C182.724 40.2472 182.598 41.0289 182.598 41.9091C182.598 42.7955 182.724 43.5864 182.977 44.282C183.235 44.9714 183.614 45.5161 184.112 45.9162C184.617 46.3101 185.236 46.5071 185.968 46.5071ZM202.428 49.277C201.006 49.277 199.778 48.9815 198.744 48.3906C197.716 47.7936 196.926 46.9503 196.372 45.8608C195.818 44.7652 195.541 43.4756 195.541 41.9922C195.541 40.5334 195.818 39.2531 196.372 38.1513C196.932 37.0433 197.713 36.1816 198.717 35.5661C199.72 34.9444 200.899 34.6335 202.253 34.6335C203.127 34.6335 203.952 34.7751 204.727 35.0582C205.509 35.3352 206.198 35.7661 206.796 36.3509C207.399 36.9356 207.873 37.6804 208.217 38.5852C208.562 39.4839 208.734 40.5549 208.734 41.7983V42.8232H197.11V40.5703H205.531C205.524 39.9302 205.386 39.3608 205.115 38.8622C204.844 38.3575 204.466 37.9605 203.979 37.6712C203.499 37.3819 202.939 37.2372 202.299 37.2372C201.616 37.2372 201.016 37.4034 200.499 37.7358C199.982 38.062 199.578 38.4929 199.289 39.0284C199.006 39.5578 198.861 40.1394 198.855 40.7734V42.7401C198.855 43.5649 199.006 44.2727 199.308 44.8636C199.609 45.4484 200.031 45.8977 200.573 46.2116C201.114 46.5194 201.748 46.6733 202.475 46.6733C202.961 46.6733 203.401 46.6056 203.795 46.4702C204.189 46.3286 204.53 46.1224 204.82 45.8516C205.109 45.5807 205.328 45.2453 205.475 44.8452L208.596 45.196C208.399 46.0208 208.024 46.741 207.47 47.3565C206.922 47.9659 206.22 48.4399 205.364 48.7784C204.509 49.1108 203.53 49.277 202.428 49.277ZM220.689 30.0909L225.61 44.9744H225.804L230.716 30.0909H234.483L227.817 49H223.588L216.931 30.0909H220.689ZM241.581 49.277C240.159 49.277 238.931 48.9815 237.897 48.3906C236.869 47.7936 236.078 46.9503 235.524 45.8608C234.97 44.7652 234.693 43.4756 234.693 41.9922C234.693 40.5334 234.97 39.2531 235.524 38.1513C236.084 37.0433 236.866 36.1816 237.869 35.5661C238.872 34.9444 240.051 34.6335 241.405 34.6335C242.279 34.6335 243.104 34.7751 243.88 35.0582C244.661 35.3352 245.351 35.7661 245.948 36.3509C246.551 36.9356 247.025 37.6804 247.37 38.5852C247.714 39.4839 247.887 40.5549 247.887 41.7983V42.8232H236.263V40.5703H244.683C244.677 39.9302 244.538 39.3608 244.267 38.8622C243.997 38.3575 243.618 37.9605 243.132 37.6712C242.652 37.3819 242.092 37.2372 241.451 37.2372C240.768 37.2372 240.168 37.4034 239.651 37.7358C239.134 38.062 238.731 38.4929 238.441 39.0284C238.158 39.5578 238.014 40.1394 238.008 40.7734V42.7401C238.008 43.5649 238.158 44.2727 238.46 44.8636C238.762 45.4484 239.183 45.8977 239.725 46.2116C240.267 46.5194 240.901 46.6733 241.627 46.6733C242.113 46.6733 242.553 46.6056 242.947 46.4702C243.341 46.3286 243.683 46.1224 243.972 45.8516C244.261 45.5807 244.48 45.2453 244.628 44.8452L247.748 45.196C247.551 46.0208 247.176 46.741 246.622 47.3565C246.074 47.9659 245.372 48.4399 244.517 48.7784C243.661 49.1108 242.682 49.277 241.581 49.277ZM254.057 40.6903V49H250.714V34.8182H253.909V37.228H254.075C254.401 36.4339 254.922 35.803 255.636 35.3352C256.356 34.8674 257.245 34.6335 258.304 34.6335C259.283 34.6335 260.135 34.8428 260.861 35.2614C261.594 35.6799 262.16 36.2862 262.56 37.0803C262.967 37.8743 263.167 38.8376 263.16 39.9702V49H259.818V40.4872C259.818 39.5393 259.572 38.7976 259.079 38.2621C258.593 37.7266 257.919 37.4588 257.057 37.4588C256.473 37.4588 255.953 37.5881 255.497 37.8466C255.048 38.099 254.694 38.4652 254.435 38.9453C254.183 39.4254 254.057 40.0071 254.057 40.6903ZM273.64 34.8182V37.4034H265.487V34.8182H273.64ZM267.5 31.4205H270.842V44.7344C270.842 45.1837 270.91 45.5284 271.045 45.7685C271.187 46.0024 271.372 46.1624 271.599 46.2486C271.827 46.3348 272.079 46.3778 272.356 46.3778C272.566 46.3778 272.757 46.3625 272.929 46.3317C273.107 46.3009 273.243 46.2732 273.335 46.2486L273.898 48.8615C273.72 48.9231 273.464 48.9908 273.132 49.0646C272.806 49.1385 272.406 49.1816 271.932 49.1939C271.095 49.2185 270.341 49.0923 269.67 48.8153C268.999 48.5322 268.466 48.0952 268.072 47.5043C267.685 46.9134 267.494 46.1747 267.5 45.2884V31.4205ZM280.516 49.2862C279.617 49.2862 278.808 49.1262 278.088 48.8061C277.374 48.4799 276.807 47.9998 276.389 47.3658C275.977 46.7318 275.77 45.95 275.77 45.0206C275.77 44.2204 275.918 43.5587 276.214 43.0355C276.509 42.5123 276.912 42.0938 277.423 41.7798C277.934 41.4659 278.509 41.2289 279.15 41.0689C279.796 40.9027 280.464 40.7827 281.153 40.7088C281.984 40.6226 282.658 40.5457 283.175 40.478C283.692 40.4041 284.068 40.2933 284.302 40.1456C284.542 39.9917 284.662 39.7547 284.662 39.4347V39.3793C284.662 38.6837 284.455 38.1451 284.043 37.7635C283.631 37.3819 283.037 37.1911 282.261 37.1911C281.442 37.1911 280.793 37.3696 280.313 37.7266C279.839 38.0836 279.519 38.5052 279.353 38.9915L276.232 38.5483C276.478 37.6866 276.884 36.9664 277.451 36.3878C278.017 35.803 278.709 35.366 279.528 35.0767C280.347 34.7812 281.252 34.6335 282.243 34.6335C282.926 34.6335 283.606 34.7135 284.283 34.8736C284.96 35.0336 285.579 35.2983 286.139 35.6676C286.699 36.0308 287.148 36.5263 287.487 37.1541C287.832 37.782 288.004 38.5668 288.004 39.5085V49H284.791V47.0518H284.68C284.477 47.4458 284.191 47.8151 283.821 48.1598C283.458 48.4983 283 48.7723 282.446 48.9815C281.898 49.1847 281.255 49.2862 280.516 49.2862ZM281.384 46.8303C282.055 46.8303 282.637 46.6979 283.129 46.4332C283.621 46.1624 284 45.8054 284.265 45.3622C284.535 44.919 284.671 44.4358 284.671 43.9126V42.2415C284.566 42.3277 284.388 42.4077 284.135 42.4815C283.889 42.5554 283.612 42.62 283.304 42.6754C282.997 42.7308 282.692 42.7801 282.39 42.8232C282.089 42.8662 281.827 42.9032 281.606 42.9339C281.107 43.0017 280.661 43.1125 280.267 43.2663C279.873 43.4202 279.562 43.6357 279.334 43.9126C279.107 44.1835 278.993 44.5343 278.993 44.9652C278.993 45.5807 279.217 46.0455 279.667 46.3594C280.116 46.6733 280.688 46.8303 281.384 46.8303ZM302.574 38.5668L299.527 38.8991C299.441 38.5914 299.29 38.3021 299.074 38.0312C298.865 37.7604 298.582 37.5419 298.225 37.3757C297.868 37.2095 297.431 37.1264 296.914 37.1264C296.218 37.1264 295.633 37.2772 295.16 37.5788C294.692 37.8804 294.461 38.2713 294.467 38.7514C294.461 39.1638 294.612 39.4993 294.919 39.7578C295.233 40.0163 295.75 40.2287 296.471 40.3949L298.89 40.9119C300.232 41.2012 301.229 41.6598 301.881 42.2876C302.54 42.9155 302.872 43.7372 302.878 44.7528C302.872 45.6454 302.611 46.4332 302.093 47.1165C301.583 47.7936 300.872 48.3229 299.961 48.7045C299.05 49.0862 298.003 49.277 296.821 49.277C295.086 49.277 293.688 48.9138 292.63 48.1875C291.571 47.455 290.94 46.4363 290.737 45.1314L293.996 44.8175C294.144 45.4576 294.458 45.9408 294.938 46.267C295.418 46.5933 296.043 46.7564 296.812 46.7564C297.606 46.7564 298.243 46.5933 298.723 46.267C299.21 45.9408 299.453 45.5376 299.453 45.0575C299.453 44.6513 299.296 44.3158 298.982 44.0511C298.674 43.7865 298.194 43.5833 297.542 43.4418L295.123 42.9339C293.762 42.6508 292.756 42.1738 292.103 41.5028C291.451 40.8258 291.128 39.9702 291.134 38.9361C291.128 38.062 291.365 37.3049 291.845 36.6648C292.331 36.0185 293.005 35.5199 293.867 35.169C294.735 34.812 295.735 34.6335 296.868 34.6335C298.53 34.6335 299.838 34.9875 300.792 35.6953C301.752 36.4032 302.346 37.3603 302.574 38.5668ZM86.0008 80V61.0909H89.4262V69.7791H89.657L97.0342 61.0909H101.217L93.9042 69.576L101.281 80H97.1634L91.5221 71.8935L89.4262 74.3679V80H86.0008ZM103.597 61.0909H107.788L113.402 74.7926H113.623L119.237 61.0909H123.429V80H120.142V67.0092H119.967L114.741 79.9446H112.285L107.059 66.9815H106.883V80H103.597V61.0909ZM139.988 60.8324C140.893 60.8385 141.773 60.9986 142.629 61.3125C143.491 61.6203 144.266 62.125 144.956 62.8267C145.645 63.5223 146.193 64.4548 146.599 65.6243C147.005 66.7938 147.208 68.2403 147.208 69.9638C147.215 71.5888 147.042 73.0414 146.691 74.3217C146.347 75.5959 145.851 76.6731 145.205 77.5533C144.559 78.4335 143.78 79.1044 142.869 79.5661C141.958 80.0277 140.933 80.2585 139.794 80.2585C138.6 80.2585 137.541 80.0246 136.618 79.5568C135.701 79.089 134.959 78.4489 134.393 77.6364C133.827 76.8239 133.479 75.8944 133.35 74.848H136.72C136.892 75.599 137.243 76.196 137.772 76.6392C138.308 77.0762 138.982 77.2947 139.794 77.2947C141.105 77.2947 142.115 76.7254 142.823 75.5866C143.531 74.4479 143.884 72.866 143.884 70.8409H143.755C143.454 71.3826 143.063 71.8504 142.583 72.2443C142.103 72.6321 141.558 72.9306 140.948 73.1399C140.345 73.3492 139.705 73.4538 139.028 73.4538C137.92 73.4538 136.923 73.1892 136.036 72.6598C135.156 72.1304 134.458 71.4041 133.941 70.4808C133.43 69.5575 133.171 68.5019 133.165 67.3139C133.165 66.0829 133.448 64.978 134.014 63.9993C134.587 63.0144 135.384 62.2389 136.406 61.6726C137.428 61.1001 138.622 60.8201 139.988 60.8324ZM139.997 63.6023C139.333 63.6023 138.733 63.7654 138.197 64.0916C137.668 64.4117 137.249 64.8487 136.941 65.4027C136.64 65.9505 136.489 66.563 136.489 67.2401C136.495 67.911 136.646 68.5204 136.941 69.0682C137.243 69.616 137.652 70.05 138.169 70.37C138.693 70.6901 139.29 70.8501 139.96 70.8501C140.459 70.8501 140.924 70.7547 141.355 70.5639C141.786 70.3731 142.161 70.1084 142.481 69.7699C142.807 69.4252 143.06 69.0343 143.238 68.5973C143.423 68.1603 143.512 67.6986 143.506 67.2124C143.506 66.5661 143.352 65.969 143.044 65.4212C142.743 64.8733 142.327 64.4332 141.798 64.1009C141.275 63.7685 140.675 63.6023 139.997 63.6023ZM157.005 80.2585C155.632 80.2585 154.413 80.0277 153.348 79.5661C152.29 79.1044 151.459 78.4735 150.855 77.6733C150.258 76.867 149.963 75.9529 149.969 74.9311C149.963 74.1371 150.135 73.4077 150.486 72.7429C150.837 72.0781 151.311 71.5241 151.908 71.081C152.511 70.6316 153.182 70.3454 153.921 70.2223V70.093C152.948 69.8776 152.16 69.3821 151.557 68.6065C150.96 67.8248 150.665 66.9231 150.671 65.9013C150.665 64.9287 150.935 64.0608 151.483 63.2976C152.031 62.5343 152.782 61.9342 153.736 61.4972C154.69 61.054 155.78 60.8324 157.005 60.8324C158.217 60.8324 159.297 61.054 160.245 61.4972C161.199 61.9342 161.95 62.5343 162.498 63.2976C163.052 64.0608 163.329 64.9287 163.329 65.9013C163.329 66.9231 163.024 67.8248 162.415 68.6065C161.812 69.3821 161.033 69.8776 160.079 70.093V70.2223C160.818 70.3454 161.483 70.6316 162.073 71.081C162.67 71.5241 163.144 72.0781 163.495 72.7429C163.852 73.4077 164.031 74.1371 164.031 74.9311C164.031 75.9529 163.729 76.867 163.126 77.6733C162.523 78.4735 161.692 79.1044 160.633 79.5661C159.581 80.0277 158.371 80.2585 157.005 80.2585ZM157.005 77.6179C157.712 77.6179 158.328 77.4979 158.851 77.2578C159.374 77.0116 159.781 76.6669 160.07 76.2237C160.359 75.7805 160.507 75.2696 160.513 74.6911C160.507 74.0878 160.35 73.5554 160.042 73.0938C159.741 72.6259 159.325 72.2597 158.796 71.995C158.273 71.7304 157.675 71.598 157.005 71.598C156.327 71.598 155.724 71.7304 155.195 71.995C154.666 72.2597 154.247 72.6259 153.939 73.0938C153.638 73.5554 153.49 74.0878 153.496 74.6911C153.49 75.2696 153.631 75.7805 153.921 76.2237C154.21 76.6607 154.616 77.0024 155.139 77.2486C155.669 77.4948 156.291 77.6179 157.005 77.6179ZM157.005 69.0036C157.583 69.0036 158.094 68.8866 158.537 68.6527C158.987 68.4188 159.34 68.0926 159.599 67.674C159.858 67.2554 159.99 66.7723 159.996 66.2244C159.99 65.6828 159.861 65.2088 159.608 64.8026C159.356 64.3902 159.005 64.0732 158.556 63.8516C158.106 63.6238 157.589 63.5099 157.005 63.5099C156.407 63.5099 155.881 63.6238 155.426 63.8516C154.976 64.0732 154.626 64.3902 154.373 64.8026C154.127 65.2088 154.007 65.6828 154.013 66.2244C154.007 66.7723 154.13 67.2554 154.382 67.674C154.641 68.0864 154.995 68.4126 155.444 68.6527C155.9 68.8866 156.42 69.0036 157.005 69.0036ZM173.7 80V61.0909H180.791C182.244 61.0909 183.462 61.3617 184.447 61.9034C185.438 62.4451 186.186 63.1899 186.691 64.1378C187.202 65.0795 187.457 66.1506 187.457 67.3509C187.457 68.5634 187.202 69.6406 186.691 70.5824C186.18 71.5241 185.426 72.2659 184.429 72.8075C183.432 73.343 182.204 73.6108 180.745 73.6108H176.045V70.7947H180.283C181.133 70.7947 181.828 70.647 182.37 70.3516C182.911 70.0561 183.312 69.6499 183.57 69.1328C183.835 68.6158 183.967 68.0218 183.967 67.3509C183.967 66.6799 183.835 66.089 183.57 65.5781C183.312 65.0672 182.908 64.6702 182.361 64.3871C181.819 64.0978 181.12 63.9531 180.265 63.9531H177.125V80H173.7ZM194.112 80.2862C193.213 80.2862 192.404 80.1262 191.684 79.8061C190.969 79.4799 190.403 78.9998 189.985 78.3658C189.572 77.7318 189.366 76.95 189.366 76.0206C189.366 75.2204 189.514 74.5587 189.809 74.0355C190.105 73.5123 190.508 73.0938 191.019 72.7798C191.53 72.4659 192.105 72.2289 192.745 72.0689C193.392 71.9027 194.059 71.7827 194.749 71.7088C195.58 71.6226 196.254 71.5457 196.771 71.478C197.288 71.4041 197.663 71.2933 197.897 71.1456C198.137 70.9917 198.257 70.7547 198.257 70.4347V70.3793C198.257 69.6837 198.051 69.1451 197.639 68.7635C197.226 68.3819 196.632 68.1911 195.857 68.1911C195.038 68.1911 194.389 68.3696 193.909 68.7266C193.435 69.0836 193.115 69.5052 192.948 69.9915L189.828 69.5483C190.074 68.6866 190.48 67.9664 191.046 67.3878C191.613 66.803 192.305 66.366 193.124 66.0767C193.943 65.7812 194.847 65.6335 195.838 65.6335C196.522 65.6335 197.202 65.7135 197.879 65.8736C198.556 66.0336 199.175 66.2983 199.735 66.6676C200.295 67.0308 200.744 67.5263 201.083 68.1541C201.427 68.782 201.6 69.5668 201.6 70.5085V80H198.387V78.0518H198.276C198.073 78.4458 197.786 78.8151 197.417 79.1598C197.054 79.4983 196.595 79.7723 196.041 79.9815C195.494 80.1847 194.85 80.2862 194.112 80.2862ZM194.98 77.8303C195.651 77.8303 196.232 77.6979 196.725 77.4332C197.217 77.1624 197.596 76.8054 197.86 76.3622C198.131 75.919 198.267 75.4358 198.267 74.9126V73.2415C198.162 73.3277 197.983 73.4077 197.731 73.4815C197.485 73.5554 197.208 73.62 196.9 73.6754C196.592 73.7308 196.288 73.7801 195.986 73.8232C195.684 73.8662 195.423 73.9032 195.201 73.9339C194.703 74.0017 194.256 74.1125 193.862 74.2663C193.469 74.4202 193.158 74.6357 192.93 74.9126C192.702 75.1835 192.588 75.5343 192.588 75.9652C192.588 76.5807 192.813 77.0455 193.262 77.3594C193.712 77.6733 194.284 77.8303 194.98 77.8303ZM208.303 71.6903V80H204.96V65.8182H208.155V68.228H208.321C208.648 67.4339 209.168 66.803 209.882 66.3352C210.602 65.8674 211.491 65.6335 212.55 65.6335C213.529 65.6335 214.381 65.8428 215.108 66.2614C215.84 66.6799 216.406 67.2862 216.806 68.0803C217.213 68.8743 217.413 69.8376 217.407 70.9702V80H214.064V71.4872C214.064 70.5393 213.818 69.7976 213.326 69.2621C212.839 68.7266 212.165 68.4588 211.304 68.4588C210.719 68.4588 210.199 68.5881 209.743 68.8466C209.294 69.099 208.94 69.4652 208.681 69.9453C208.429 70.4254 208.303 71.0071 208.303 71.6903ZM224.885 80.2862C223.987 80.2862 223.177 80.1262 222.457 79.8061C221.743 79.4799 221.177 78.9998 220.758 78.3658C220.346 77.7318 220.139 76.95 220.139 76.0206C220.139 75.2204 220.287 74.5587 220.583 74.0355C220.878 73.5123 221.281 73.0938 221.792 72.7798C222.303 72.4659 222.879 72.2289 223.519 72.0689C224.165 71.9027 224.833 71.7827 225.522 71.7088C226.353 71.6226 227.027 71.5457 227.544 71.478C228.061 71.4041 228.437 71.2933 228.671 71.1456C228.911 70.9917 229.031 70.7547 229.031 70.4347V70.3793C229.031 69.6837 228.825 69.1451 228.412 68.7635C228 68.3819 227.406 68.1911 226.63 68.1911C225.812 68.1911 225.162 68.3696 224.682 68.7266C224.208 69.0836 223.888 69.5052 223.722 69.9915L220.601 69.5483C220.847 68.6866 221.254 67.9664 221.82 67.3878C222.386 66.803 223.079 66.366 223.897 66.0767C224.716 65.7812 225.621 65.6335 226.612 65.6335C227.295 65.6335 227.975 65.7135 228.652 65.8736C229.329 66.0336 229.948 66.2983 230.508 66.6676C231.068 67.0308 231.518 67.5263 231.856 68.1541C232.201 68.782 232.373 69.5668 232.373 70.5085V80H229.16V78.0518H229.049C228.846 78.4458 228.56 78.8151 228.191 79.1598C227.827 79.4983 227.369 79.7723 226.815 79.9815C226.267 80.1847 225.624 80.2862 224.885 80.2862ZM225.753 77.8303C226.424 77.8303 227.006 77.6979 227.498 77.4332C227.991 77.1624 228.369 76.8054 228.634 76.3622C228.905 75.919 229.04 75.4358 229.04 74.9126V73.2415C228.935 73.3277 228.757 73.4077 228.505 73.4815C228.258 73.5554 227.981 73.62 227.674 73.6754C227.366 73.7308 227.061 73.7801 226.759 73.8232C226.458 73.8662 226.196 73.9032 225.975 73.9339C225.476 74.0017 225.03 74.1125 224.636 74.2663C224.242 74.4202 223.931 74.6357 223.703 74.9126C223.476 75.1835 223.362 75.5343 223.362 75.9652C223.362 76.5807 223.586 77.0455 224.036 77.3594C224.485 77.6733 225.058 77.8303 225.753 77.8303ZM235.734 80V65.8182H238.929V68.228H239.095C239.39 67.4155 239.88 66.7815 240.563 66.326C241.246 65.8643 242.062 65.6335 243.009 65.6335C243.97 65.6335 244.779 65.8674 245.438 66.3352C246.103 66.7969 246.57 67.4278 246.841 68.228H246.989C247.303 67.4401 247.832 66.8123 248.577 66.3445C249.328 65.8705 250.217 65.6335 251.245 65.6335C252.55 65.6335 253.615 66.0459 254.44 66.8707C255.265 67.6955 255.677 68.8989 255.677 70.4808V80H252.326V70.9979C252.326 70.1177 252.092 69.4744 251.624 69.0682C251.156 68.6558 250.584 68.4496 249.907 68.4496C249.1 68.4496 248.469 68.7019 248.014 69.2067C247.564 69.7053 247.34 70.3546 247.34 71.1548V80H244.062V70.8594C244.062 70.1269 243.84 69.5421 243.397 69.1051C242.96 68.6681 242.388 68.4496 241.68 68.4496C241.2 68.4496 240.763 68.5727 240.369 68.8189C239.975 69.0589 239.661 69.4006 239.427 69.8438C239.193 70.2808 239.076 70.7917 239.076 71.3764V80H235.734ZM265.346 80.277C263.924 80.277 262.696 79.9815 261.662 79.3906C260.634 78.7936 259.843 77.9503 259.29 76.8608C258.736 75.7652 258.459 74.4756 258.459 72.9922C258.459 71.5334 258.736 70.2531 259.29 69.1513C259.85 68.0433 260.631 67.1816 261.635 66.5661C262.638 65.9444 263.817 65.6335 265.171 65.6335C266.045 65.6335 266.87 65.7751 267.645 66.0582C268.427 66.3352 269.116 66.7661 269.714 67.3509C270.317 67.9356 270.791 68.6804 271.135 69.5852C271.48 70.4839 271.652 71.5549 271.652 72.7983V73.8232H260.028V71.5703H268.449C268.442 70.9302 268.304 70.3608 268.033 69.8622C267.762 69.3575 267.384 68.9605 266.897 68.6712C266.417 68.3819 265.857 68.2372 265.217 68.2372C264.534 68.2372 263.934 68.4034 263.417 68.7358C262.9 69.062 262.496 69.4929 262.207 70.0284C261.924 70.5578 261.779 71.1394 261.773 71.7734V73.7401C261.773 74.5649 261.924 75.2727 262.226 75.8636C262.527 76.4484 262.949 76.8977 263.491 77.2116C264.032 77.5194 264.666 77.6733 265.392 77.6733C265.879 77.6733 266.319 77.6056 266.713 77.4702C267.107 77.3286 267.448 77.1224 267.738 76.8516C268.027 76.5807 268.245 76.2453 268.393 75.8452L271.514 76.196C271.317 77.0208 270.941 77.741 270.388 78.3565C269.84 78.9659 269.138 79.4399 268.282 79.7784C267.427 80.1108 266.448 80.277 265.346 80.277ZM274.48 80V65.8182H277.721V68.1818H277.869C278.127 67.3632 278.57 66.7322 279.198 66.2891C279.832 65.8397 280.555 65.6151 281.368 65.6151C281.552 65.6151 281.759 65.6243 281.986 65.6428C282.22 65.6551 282.414 65.6766 282.568 65.7074V68.782C282.427 68.7327 282.202 68.6896 281.894 68.6527C281.592 68.6096 281.3 68.5881 281.017 68.5881C280.408 68.5881 279.86 68.7204 279.373 68.9851C278.893 69.2436 278.515 69.6037 278.238 70.0653C277.961 70.527 277.822 71.0594 277.822 71.6626V80H274.48ZM285.223 80.2031C284.662 80.2031 284.182 80.0062 283.782 79.6122C283.382 79.2183 283.185 78.7382 283.191 78.1719C283.185 77.6179 283.382 77.1439 283.782 76.75C284.182 76.3561 284.662 76.1591 285.223 76.1591C285.764 76.1591 286.235 76.3561 286.635 76.75C287.041 77.1439 287.248 77.6179 287.254 78.1719C287.248 78.5473 287.149 78.889 286.958 79.1967C286.774 79.5045 286.527 79.7507 286.22 79.9354C285.918 80.1139 285.586 80.2031 285.223 80.2031ZM306.994 66.2891C306.908 65.4827 306.545 64.8549 305.904 64.4055C305.27 63.9562 304.446 63.7315 303.43 63.7315C302.716 63.7315 302.103 63.8393 301.593 64.0547C301.082 64.2701 300.691 64.5625 300.42 64.9318C300.149 65.3011 300.011 65.7228 300.005 66.1967C300.005 66.5907 300.094 66.9323 300.272 67.2216C300.457 67.5109 300.706 67.7571 301.02 67.9602C301.334 68.1572 301.682 68.3234 302.063 68.4588C302.445 68.5942 302.83 68.7081 303.218 68.8004L304.99 69.2436C305.704 69.4098 306.391 69.6345 307.049 69.9176C307.714 70.2008 308.308 70.5578 308.831 70.9886C309.361 71.4195 309.779 71.9396 310.087 72.549C310.395 73.1584 310.549 73.8724 310.549 74.6911C310.549 75.799 310.265 76.7746 309.699 77.6179C309.133 78.455 308.314 79.1106 307.243 79.5845C306.178 80.0523 304.889 80.2862 303.375 80.2862C301.903 80.2862 300.626 80.0585 299.543 79.603C298.466 79.1475 297.622 78.4827 297.013 77.6087C296.41 76.7346 296.084 75.6697 296.034 74.4141H299.404C299.454 75.0727 299.657 75.6205 300.014 76.0575C300.371 76.4946 300.835 76.8208 301.408 77.0362C301.987 77.2517 302.633 77.3594 303.347 77.3594C304.092 77.3594 304.744 77.2486 305.304 77.027C305.871 76.7992 306.314 76.4853 306.634 76.0852C306.954 75.679 307.117 75.205 307.123 74.6634C307.117 74.1709 306.972 73.7647 306.689 73.4446C306.406 73.1184 306.009 72.8475 305.498 72.6321C304.993 72.4105 304.402 72.2135 303.725 72.0412L301.574 71.4872C300.017 71.0871 298.786 70.4808 297.881 69.6683C296.982 68.8497 296.533 67.7633 296.533 66.4091C296.533 65.295 296.835 64.3194 297.438 63.4822C298.047 62.6451 298.875 61.9957 299.921 61.5341C300.968 61.0663 302.153 60.8324 303.476 60.8324C304.818 60.8324 305.994 61.0663 307.003 61.5341C308.019 61.9957 308.816 62.639 309.394 63.4638C309.973 64.2824 310.272 65.2242 310.29 66.2891H306.994ZM322.494 74.0355V65.8182H325.836V80H322.595V77.4794H322.448C322.127 78.2734 321.601 78.9228 320.869 79.4276C320.142 79.9323 319.247 80.1847 318.182 80.1847C317.252 80.1847 316.431 79.9785 315.717 79.5661C315.009 79.1475 314.455 78.5412 314.055 77.7472C313.655 76.947 313.455 75.9806 313.455 74.848V65.8182H316.797V74.331C316.797 75.2296 317.043 75.9437 317.536 76.473C318.028 77.0024 318.674 77.267 319.475 77.267C319.967 77.267 320.444 77.147 320.906 76.907C321.367 76.6669 321.746 76.3099 322.041 75.8359C322.343 75.3558 322.494 74.7557 322.494 74.0355ZM329.273 80V65.8182H332.514V68.1818H332.661C332.92 67.3632 333.363 66.7322 333.991 66.2891C334.625 65.8397 335.348 65.6151 336.161 65.6151C336.345 65.6151 336.552 65.6243 336.779 65.6428C337.013 65.6551 337.207 65.6766 337.361 65.7074V68.782C337.219 68.7327 336.995 68.6896 336.687 68.6527C336.385 68.6096 336.093 68.5881 335.81 68.5881C335.201 68.5881 334.653 68.7204 334.166 68.9851C333.686 69.2436 333.308 69.6037 333.031 70.0653C332.754 70.527 332.615 71.0594 332.615 71.6626V80H329.273Z" fill="white"/>
<defs>
<clipPath id="clip0_146_19526">
<rect width="24" height="24" fill="white" transform="translate(34 43)"/>
</clipPath>
</defs>
</svg>
