<svg width="434" height="138" viewBox="0 0 434 138" fill="none" xmlns="http://www.w3.org/2000/svg">
<rect x="124" width="310" height="92" rx="18" fill="#006DB7"/>
<path d="M68 102L179.5 66.026L147.5 42L68 102Z" fill="#006DB7"/>
<rect x="149.048" y="25.0476" width="41.9048" height="41.9048" rx="20.9524" fill="#407C1D"/>
<rect x="149.048" y="25.0476" width="41.9048" height="41.9048" rx="20.9524" stroke="white" stroke-width="2.09524"/>
<g clip-path="url(#clip0_176_96197)">
<path d="M177 54H163V55C163 55.2652 162.895 55.5196 162.707 55.7071C162.52 55.8946 162.265 56 162 56H161C160.735 56 160.48 55.8946 160.293 55.7071C160.105 55.5196 160 55.2652 160 55V45L162.48 39.212C162.634 38.852 162.891 38.5452 163.218 38.3298C163.545 38.1143 163.928 37.9997 164.32 38H175.68C176.071 38 176.454 38.1149 176.781 38.3303C177.107 38.5458 177.364 38.8523 177.518 39.212L180 45V55C180 55.2652 179.895 55.5196 179.707 55.7071C179.52 55.8946 179.265 56 179 56H178C177.735 56 177.48 55.8946 177.293 55.7071C177.105 55.5196 177 55.2652 177 55V54ZM178 47H162V52H178V47ZM162.176 45H177.824L175.681 40H164.32L162.177 45H162.176ZM164.5 51C164.102 51 163.721 50.842 163.439 50.5607C163.158 50.2794 163 49.8978 163 49.5C163 49.1022 163.158 48.7206 163.439 48.4393C163.721 48.158 164.102 48 164.5 48C164.898 48 165.279 48.158 165.561 48.4393C165.842 48.7206 166 49.1022 166 49.5C166 49.8978 165.842 50.2794 165.561 50.5607C165.279 50.842 164.898 51 164.5 51ZM175.5 51C175.102 51 174.721 50.842 174.439 50.5607C174.158 50.2794 174 49.8978 174 49.5C174 49.1022 174.158 48.7206 174.439 48.4393C174.721 48.158 175.102 48 175.5 48C175.898 48 176.279 48.158 176.561 48.4393C176.842 48.7206 177 49.1022 177 49.5C177 49.8978 176.842 50.2794 176.561 50.5607C176.279 50.842 175.898 51 175.5 51Z" fill="white"/>
</g>
<path d="M226.761 46.0455C226.761 48.0829 226.38 49.8279 225.616 51.2805C224.859 52.727 223.825 53.835 222.514 54.6044C221.209 55.3738 219.729 55.7585 218.073 55.7585C216.417 55.7585 214.934 55.3738 213.623 54.6044C212.318 53.8288 211.284 52.7178 210.521 51.2713C209.763 49.8187 209.385 48.0767 209.385 46.0455C209.385 44.008 209.763 42.2661 210.521 40.8196C211.284 39.367 212.318 38.2559 213.623 37.4865C214.934 36.7171 216.417 36.3324 218.073 36.3324C219.729 36.3324 221.209 36.7171 222.514 37.4865C223.825 38.2559 224.859 39.367 225.616 40.8196C226.38 42.2661 226.761 44.008 226.761 46.0455ZM223.317 46.0455C223.317 44.6113 223.093 43.4018 222.643 42.4169C222.2 41.4259 221.585 40.678 220.797 40.1733C220.009 39.6624 219.101 39.407 218.073 39.407C217.045 39.407 216.137 39.6624 215.349 40.1733C214.562 40.678 213.943 41.4259 213.494 42.4169C213.05 43.4018 212.829 44.6113 212.829 46.0455C212.829 47.4796 213.05 48.6922 213.494 49.6832C213.943 50.6681 214.562 51.416 215.349 51.9268C216.137 52.4316 217.045 52.6839 218.073 52.6839C219.101 52.6839 220.009 52.4316 220.797 51.9268C221.585 51.416 222.2 50.6681 222.643 49.6832C223.093 48.6922 223.317 47.4796 223.317 46.0455ZM216.79 34.7259L218.858 30.5064H222.126L219.292 34.7259H216.79ZM242.52 41.3182L237.469 55.5H233.776L228.726 41.3182H232.29L235.549 51.853H235.697L238.965 41.3182H242.52ZM248.507 55.7862C247.609 55.7862 246.799 55.6262 246.079 55.3061C245.365 54.9799 244.799 54.4998 244.38 53.8658C243.968 53.2318 243.762 52.45 243.762 51.5206C243.762 50.7204 243.909 50.0587 244.205 49.5355C244.5 49.0123 244.903 48.5938 245.414 48.2798C245.925 47.9659 246.501 47.7289 247.141 47.5689C247.787 47.4027 248.455 47.2827 249.144 47.2088C249.975 47.1226 250.649 47.0457 251.166 46.978C251.683 46.9041 252.059 46.7933 252.293 46.6456C252.533 46.4917 252.653 46.2547 252.653 45.9347V45.8793C252.653 45.1837 252.447 44.6451 252.034 44.2635C251.622 43.8819 251.028 43.6911 250.252 43.6911C249.434 43.6911 248.784 43.8696 248.304 44.2266C247.83 44.5836 247.51 45.0052 247.344 45.4915L244.223 45.0483C244.469 44.1866 244.876 43.4664 245.442 42.8878C246.008 42.303 246.701 41.866 247.519 41.5767C248.338 41.2812 249.243 41.1335 250.234 41.1335C250.917 41.1335 251.597 41.2135 252.274 41.3736C252.951 41.5336 253.57 41.7983 254.13 42.1676C254.69 42.5308 255.14 43.0263 255.478 43.6541C255.823 44.282 255.995 45.0668 255.995 46.0085V55.5H252.782V53.5518H252.671C252.468 53.9458 252.182 54.3151 251.813 54.6598C251.45 54.9983 250.991 55.2723 250.437 55.4815C249.889 55.6847 249.246 55.7862 248.507 55.7862ZM249.375 53.3303C250.046 53.3303 250.628 53.1979 251.12 52.9332C251.613 52.6624 251.991 52.3054 252.256 51.8622C252.527 51.419 252.662 50.9358 252.662 50.4126V48.7415C252.557 48.8277 252.379 48.9077 252.127 48.9815C251.88 49.0554 251.603 49.12 251.296 49.1754C250.988 49.2308 250.683 49.2801 250.382 49.3232C250.08 49.3662 249.818 49.4032 249.597 49.4339C249.098 49.5017 248.652 49.6125 248.258 49.7663C247.864 49.9202 247.553 50.1357 247.325 50.4126C247.098 50.6835 246.984 51.0343 246.984 51.4652C246.984 52.0807 247.209 52.5455 247.658 52.8594C248.107 53.1733 248.68 53.3303 249.375 53.3303ZM262.698 36.5909V55.5H259.356V36.5909H262.698ZM272.321 55.777C270.936 55.777 269.736 55.4723 268.721 54.8629C267.705 54.2536 266.917 53.401 266.357 52.3054C265.803 51.2098 265.526 49.9295 265.526 48.4645C265.526 46.9995 265.803 45.7161 266.357 44.6143C266.917 43.5125 267.705 42.657 268.721 42.0476C269.736 41.4382 270.936 41.1335 272.321 41.1335C273.706 41.1335 274.907 41.4382 275.922 42.0476C276.938 42.657 277.723 43.5125 278.277 44.6143C278.837 45.7161 279.117 46.9995 279.117 48.4645C279.117 49.9295 278.837 51.2098 278.277 52.3054C277.723 53.401 276.938 54.2536 275.922 54.8629C274.907 55.4723 273.706 55.777 272.321 55.777ZM272.34 53.0994C273.091 53.0994 273.719 52.8932 274.223 52.4808C274.728 52.0623 275.104 51.5021 275.35 50.8004C275.602 50.0987 275.728 49.317 275.728 48.4553C275.728 47.5874 275.602 46.8026 275.35 46.1009C275.104 45.393 274.728 44.8298 274.223 44.4112C273.719 43.9927 273.091 43.7834 272.34 43.7834C271.57 43.7834 270.93 43.9927 270.419 44.4112C269.915 44.8298 269.536 45.393 269.284 46.1009C269.038 46.8026 268.914 47.5874 268.914 48.4553C268.914 49.317 269.038 50.0987 269.284 50.8004C269.536 51.5021 269.915 52.0623 270.419 52.4808C270.93 52.8932 271.57 53.0994 272.34 53.0994ZM288.551 55.5V36.5909H291.976V52.6286H300.304V55.5H288.551ZM307.21 55.7862C306.312 55.7862 305.502 55.6262 304.782 55.3061C304.068 54.9799 303.502 54.4998 303.083 53.8658C302.671 53.2318 302.465 52.45 302.465 51.5206C302.465 50.7204 302.612 50.0587 302.908 49.5355C303.203 49.0123 303.606 48.5938 304.117 48.2798C304.628 47.9659 305.204 47.7289 305.844 47.5689C306.49 47.4027 307.158 47.2827 307.847 47.2088C308.678 47.1226 309.352 47.0457 309.869 46.978C310.387 46.9041 310.762 46.7933 310.996 46.6456C311.236 46.4917 311.356 46.2547 311.356 45.9347V45.8793C311.356 45.1837 311.15 44.6451 310.737 44.2635C310.325 43.8819 309.731 43.6911 308.955 43.6911C308.137 43.6911 307.487 43.8696 307.007 44.2266C306.533 44.5836 306.213 45.0052 306.047 45.4915L302.926 45.0483C303.173 44.1866 303.579 43.4664 304.145 42.8878C304.711 42.303 305.404 41.866 306.222 41.5767C307.041 41.2812 307.946 41.1335 308.937 41.1335C309.62 41.1335 310.3 41.2135 310.977 41.3736C311.655 41.5336 312.273 41.7983 312.833 42.1676C313.393 42.5308 313.843 43.0263 314.181 43.6541C314.526 44.282 314.698 45.0668 314.698 46.0085V55.5H311.485V53.5518H311.374C311.171 53.9458 310.885 54.3151 310.516 54.6598C310.153 54.9983 309.694 55.2723 309.14 55.4815C308.592 55.6847 307.949 55.7862 307.21 55.7862ZM308.078 53.3303C308.749 53.3303 309.331 53.1979 309.823 52.9332C310.316 52.6624 310.694 52.3054 310.959 51.8622C311.23 51.419 311.365 50.9358 311.365 50.4126V48.7415C311.261 48.8277 311.082 48.9077 310.83 48.9815C310.584 49.0554 310.307 49.12 309.999 49.1754C309.691 49.2308 309.386 49.2801 309.085 49.3232C308.783 49.3662 308.521 49.4032 308.3 49.4339C307.801 49.5017 307.355 49.6125 306.961 49.7663C306.567 49.9202 306.256 50.1357 306.029 50.4126C305.801 50.6835 305.687 51.0343 305.687 51.4652C305.687 52.0807 305.912 52.5455 306.361 52.8594C306.81 53.1733 307.383 53.3303 308.078 53.3303ZM324.656 36.5909H328.848L334.461 50.2926H334.683L340.297 36.5909H344.488V55.5H341.202V42.5092H341.026L335.8 55.4446H333.344L328.118 42.4815H327.943V55.5H324.656V36.5909ZM352.152 55.7862C351.253 55.7862 350.444 55.6262 349.724 55.3061C349.01 54.9799 348.443 54.4998 348.025 53.8658C347.612 53.2318 347.406 52.45 347.406 51.5206C347.406 50.7204 347.554 50.0587 347.849 49.5355C348.145 49.0123 348.548 48.5938 349.059 48.2798C349.57 47.9659 350.145 47.7289 350.785 47.5689C351.432 47.4027 352.099 47.2827 352.789 47.2088C353.62 47.1226 354.294 47.0457 354.811 46.978C355.328 46.9041 355.703 46.7933 355.937 46.6456C356.177 46.4917 356.297 46.2547 356.297 45.9347V45.8793C356.297 45.1837 356.091 44.6451 355.679 44.2635C355.266 43.8819 354.672 43.6911 353.897 43.6911C353.078 43.6911 352.429 43.8696 351.949 44.2266C351.475 44.5836 351.155 45.0052 350.988 45.4915L347.868 45.0483C348.114 44.1866 348.52 43.4664 349.086 42.8878C349.653 42.303 350.345 41.866 351.164 41.5767C351.983 41.2812 352.887 41.1335 353.878 41.1335C354.562 41.1335 355.242 41.2135 355.919 41.3736C356.596 41.5336 357.215 41.7983 357.775 42.1676C358.335 42.5308 358.784 43.0263 359.123 43.6541C359.467 44.282 359.64 45.0668 359.64 46.0085V55.5H356.427V53.5518H356.316C356.113 53.9458 355.827 54.3151 355.457 54.6598C355.094 54.9983 354.635 55.2723 354.081 55.4815C353.534 55.6847 352.89 55.7862 352.152 55.7862ZM353.02 53.3303C353.691 53.3303 354.272 53.1979 354.765 52.9332C355.257 52.6624 355.636 52.3054 355.9 51.8622C356.171 51.419 356.307 50.9358 356.307 50.4126V48.7415C356.202 48.8277 356.023 48.9077 355.771 48.9815C355.525 49.0554 355.248 49.12 354.94 49.1754C354.632 49.2308 354.328 49.2801 354.026 49.3232C353.724 49.3662 353.463 49.4032 353.241 49.4339C352.743 49.5017 352.296 49.6125 351.903 49.7663C351.509 49.9202 351.198 50.1357 350.97 50.4126C350.742 50.6835 350.628 51.0343 350.628 51.4652C350.628 52.0807 350.853 52.5455 351.302 52.8594C351.752 53.1733 352.324 53.3303 353.02 53.3303ZM363.001 55.5V41.3182H366.241V43.6818H366.389C366.648 42.8632 367.091 42.2322 367.719 41.7891C368.353 41.3397 369.076 41.1151 369.888 41.1151C370.073 41.1151 370.279 41.1243 370.507 41.1428C370.741 41.1551 370.935 41.1766 371.089 41.2074V44.282C370.947 44.2327 370.722 44.1896 370.415 44.1527C370.113 44.1096 369.821 44.0881 369.537 44.0881C368.928 44.0881 368.38 44.2204 367.894 44.4851C367.414 44.7436 367.035 45.1037 366.758 45.5653C366.481 46.027 366.343 46.5594 366.343 47.1626V55.5H363.001ZM373.309 55.5V41.3182H376.651V55.5H373.309ZM374.99 39.3054C374.46 39.3054 374.005 39.13 373.623 38.7791C373.241 38.4221 373.051 37.9943 373.051 37.4957C373.051 36.991 373.241 36.5632 373.623 36.2124C374.005 35.8553 374.46 35.6768 374.99 35.6768C375.525 35.6768 375.981 35.8553 376.356 36.2124C376.738 36.5632 376.928 36.991 376.928 37.4957C376.928 37.9943 376.738 38.4221 376.356 38.7791C375.981 39.13 375.525 39.3054 374.99 39.3054ZM383.431 47.1903V55.5H380.088V41.3182H383.283V43.728H383.449C383.775 42.9339 384.296 42.303 385.01 41.8352C385.73 41.3674 386.619 41.1335 387.678 41.1335C388.657 41.1335 389.509 41.3428 390.235 41.7614C390.968 42.1799 391.534 42.7862 391.934 43.5803C392.341 44.3743 392.541 45.3376 392.534 46.4702V55.5H389.192V46.9872C389.192 46.0393 388.946 45.2976 388.453 44.7621C387.967 44.2266 387.293 43.9588 386.431 43.9588C385.847 43.9588 385.327 44.0881 384.871 44.3466C384.422 44.599 384.068 44.9652 383.809 45.4453C383.557 45.9254 383.431 46.5071 383.431 47.1903ZM400.013 55.7862C399.114 55.7862 398.305 55.6262 397.585 55.3061C396.871 54.9799 396.305 54.4998 395.886 53.8658C395.474 53.2318 395.267 52.45 395.267 51.5206C395.267 50.7204 395.415 50.0587 395.711 49.5355C396.006 49.0123 396.409 48.5938 396.92 48.2798C397.431 47.9659 398.007 47.7289 398.647 47.5689C399.293 47.4027 399.961 47.2827 400.65 47.2088C401.481 47.1226 402.155 47.0457 402.672 46.978C403.189 46.9041 403.565 46.7933 403.799 46.6456C404.039 46.4917 404.159 46.2547 404.159 45.9347V45.8793C404.159 45.1837 403.953 44.6451 403.54 44.2635C403.128 43.8819 402.534 43.6911 401.758 43.6911C400.94 43.6911 400.29 43.8696 399.81 44.2266C399.336 44.5836 399.016 45.0052 398.85 45.4915L395.729 45.0483C395.975 44.1866 396.382 43.4664 396.948 42.8878C397.514 42.303 398.207 41.866 399.025 41.5767C399.844 41.2812 400.749 41.1335 401.74 41.1335C402.423 41.1335 403.103 41.2135 403.78 41.3736C404.457 41.5336 405.076 41.7983 405.636 42.1676C406.196 42.5308 406.645 43.0263 406.984 43.6541C407.329 44.282 407.501 45.0668 407.501 46.0085V55.5H404.288V53.5518H404.177C403.974 53.9458 403.688 54.3151 403.319 54.6598C402.955 54.9983 402.497 55.2723 401.943 55.4815C401.395 55.6847 400.752 55.7862 400.013 55.7862ZM400.881 53.3303C401.552 53.3303 402.134 53.1979 402.626 52.9332C403.118 52.6624 403.497 52.3054 403.762 51.8622C404.033 51.419 404.168 50.9358 404.168 50.4126V48.7415C404.063 48.8277 403.885 48.9077 403.632 48.9815C403.386 49.0554 403.109 49.12 402.801 49.1754C402.494 49.2308 402.189 49.2801 401.887 49.3232C401.586 49.3662 401.324 49.4032 401.103 49.4339C400.604 49.5017 400.158 49.6125 399.764 49.7663C399.37 49.9202 399.059 50.1357 398.831 50.4126C398.604 50.6835 398.49 51.0343 398.49 51.4652C398.49 52.0807 398.714 52.5455 399.164 52.8594C399.613 53.1733 400.185 53.3303 400.881 53.3303Z" fill="white"/>
<path d="M65.1996 19.532L62.5605 18L68.6876 20.576L71.3266 22.111L65.1996 19.532Z" fill="#98D343"/>
<path d="M38.4044 46.6213L35.7644 45.0873L35.7324 33.4883L38.3714 35.0233L38.4044 46.6213Z" fill="#705E2C"/>
<path d="M38.3714 35.023L35.7324 33.488L62.5614 18L65.2004 19.532L38.3714 35.023Z" fill="#8DC63F"/>
<path d="M65.2001 19.5312L71.3271 22.1103L65.2341 31.1302L38.4041 46.6202L38.3711 35.0222L65.2001 19.5312Z" fill="#518524"/>
<path d="M8.24905 21.1932L10.8881 19.6582L4.76105 22.2372L2.12305 23.7712L8.24905 21.1932Z" fill="#98D343"/>
<path d="M35.0469 48.2804L37.6849 46.7464L37.7179 35.1484L35.0799 36.6824L35.0469 48.2804Z" fill="#705E2C"/>
<path d="M35.08 36.6832L37.718 35.1492L10.889 19.6582L8.25 21.1932L35.08 36.6832Z" fill="#8DC63F"/>
<path d="M8.24905 21.1934L2.12305 23.7713L8.21506 32.7914L35.0461 48.2813L35.079 36.6833L8.24905 21.1934Z" fill="#217F1C"/>
<path d="M30.3105 131.741C30.3105 131.741 30.3106 131.813 30.3456 131.888C30.3456 131.888 30.3456 131.965 30.3456 132.035C30.3876 132.113 30.4196 132.185 30.4606 132.223C30.4606 132.261 30.4606 132.336 30.4966 132.371C30.5356 132.407 30.5356 132.521 30.6066 132.556C30.6066 132.594 30.6456 132.671 30.6456 132.707C30.7196 132.743 30.7576 132.857 30.7576 132.928C30.8296 132.968 30.9036 133.005 30.9036 133.041C30.9436 133.075 31.0926 133.231 31.1666 133.302C31.2006 133.335 31.2376 133.335 31.2786 133.448C31.3156 133.488 31.3886 133.524 31.4636 133.598C31.5336 133.671 31.5706 133.671 31.6096 133.747C31.7226 133.747 31.7606 133.817 31.8726 133.895C31.9056 133.935 32.0196 133.935 32.0556 133.971C32.2406 134.117 32.4666 134.229 32.6526 134.303C32.7276 134.343 32.7636 134.374 32.7966 134.374C32.9486 134.454 33.1386 134.528 33.3216 134.563C33.3536 134.599 33.4326 134.599 33.5096 134.635C33.5816 134.635 33.6946 134.717 33.7666 134.717C33.8416 134.746 33.9546 134.746 34.0276 134.79C34.1746 134.79 34.2506 134.79 34.3606 134.862C34.4386 134.862 34.5086 134.862 34.5856 134.934C34.8426 134.934 35.0676 135.012 35.2916 135.012C35.3586 135.012 35.4766 135.012 35.5496 135.012C35.6656 135.012 35.8096 135.012 35.8876 135.046C36.0366 135.046 36.1076 135.046 36.1826 135.046C36.2936 135.046 36.3706 135.046 36.5156 135.046C36.6306 135.046 36.7425 135.046 36.8495 135.046C36.8905 135.012 37.0025 135.012 37.1125 135.012C37.1865 135.012 37.2976 135.012 37.4456 135.012C37.4866 135.012 37.5965 135.012 37.6725 135.012C37.7795 134.934 37.8556 134.934 37.9676 134.934C38.1156 134.934 38.1916 134.934 38.3016 134.862C38.3766 134.862 38.4876 134.862 38.5256 134.79C38.6716 134.79 38.7856 134.746 38.9726 134.746C39.0096 134.717 39.0836 134.717 39.1576 134.717C39.3816 134.599 39.6016 134.563 39.7886 134.454C39.9006 134.414 40.0136 134.374 40.1276 134.343C40.1606 134.303 40.1966 134.265 40.2746 134.265C40.4216 134.117 40.5686 134.117 40.7166 133.971C41.9076 133.301 42.5016 132.37 42.5016 131.479V133.447C42.5016 134.375 41.9436 135.307 40.7166 135.977C40.5686 136.049 40.4216 136.125 40.2746 136.233C40.1966 136.271 40.1605 136.271 40.0865 136.311C40.0125 136.385 39.9006 136.385 39.8616 136.421C39.8236 136.421 39.8235 136.421 39.8235 136.421C39.6005 136.496 39.3806 136.564 39.1566 136.643C39.1196 136.643 39.1196 136.643 39.1196 136.643C39.0416 136.717 39.0096 136.717 38.9726 136.717C38.7846 136.717 38.6716 136.793 38.5626 136.793C38.5256 136.793 38.4875 136.793 38.4525 136.793C38.4525 136.793 38.3776 136.868 38.3026 136.868C38.1926 136.868 38.1166 136.904 37.9686 136.904C37.9316 136.904 37.8926 136.938 37.8566 136.938C37.8196 136.938 37.7486 136.938 37.7486 136.938C37.5996 136.938 37.4886 136.938 37.4476 137.014C37.2996 137.014 37.2996 137.014 37.2626 137.014H37.1516C37.0046 137.014 36.8926 137.014 36.8516 137.014C36.7436 137.014 36.7046 137.014 36.6656 137.014C36.5946 137.014 36.5586 137.014 36.5586 137.014C36.3726 137.014 36.2956 137.014 36.1846 137.014C36.1446 137.014 36.0756 137.014 36.0756 137.014C36.0016 137.014 35.9626 137.014 35.8896 137.014C35.8116 137.014 35.6285 137.014 35.4785 137.014C35.4435 137.014 35.4036 137.014 35.3326 137.014L35.2935 136.938C35.0695 136.938 34.8446 136.938 34.5876 136.868C34.4736 136.868 34.4415 136.868 34.3625 136.793C34.2525 136.793 34.1766 136.793 34.0296 136.793C33.9576 136.717 33.8436 136.717 33.7686 136.717C33.6976 136.643 33.5836 136.643 33.5116 136.565C33.4736 136.565 33.4355 136.565 33.4355 136.565C33.3565 136.565 33.3566 136.565 33.3246 136.565C33.1736 136.497 32.9516 136.422 32.7996 136.385C32.7666 136.349 32.7305 136.311 32.6555 136.311C32.4695 136.195 32.2826 136.125 32.0986 135.977C32.0586 135.977 32.0236 135.977 32.0236 135.977C31.9466 135.899 31.9096 135.899 31.8766 135.827C31.7996 135.789 31.7276 135.756 31.6136 135.678C31.5746 135.642 31.5376 135.606 31.4676 135.53C31.3936 135.494 31.3196 135.452 31.2826 135.385C31.2826 135.385 31.2415 135.385 31.2415 135.343C31.2415 135.343 31.2046 135.309 31.1706 135.309C31.0976 135.197 31.0196 135.086 30.9476 135.015C30.9076 135.015 30.9076 135.015 30.8716 134.937C30.8346 134.937 30.8346 134.937 30.8346 134.865C30.7626 134.793 30.7626 134.749 30.6846 134.719C30.6506 134.637 30.6506 134.637 30.6506 134.601C30.6116 134.565 30.6116 134.565 30.6116 134.565C30.5406 134.457 30.5406 134.417 30.5016 134.376C30.5016 134.305 30.4655 134.267 30.4655 134.267C30.4655 134.231 30.4655 134.231 30.4655 134.195C30.4245 134.119 30.3925 134.119 30.3925 133.973C30.3505 133.937 30.3506 133.937 30.3506 133.897C30.3506 133.787 30.3156 133.749 30.3156 133.672C30.3156 133.637 30.3156 133.599 30.3156 133.525C30.3156 133.489 30.3156 133.489 30.3156 133.489V131.521C30.3106 131.594 30.3105 131.594 30.3105 131.741Z" fill="#2B2B2B"/>
<path d="M32.1313 128.993C29.7163 130.365 29.7163 132.593 32.0563 133.971C34.4393 135.45 38.3003 135.45 40.7153 133.971C43.0943 132.593 43.1343 130.364 40.7523 128.993C38.3763 127.542 34.4713 127.542 32.1313 128.993Z" fill="#979797"/>
<path d="M31.7246 99.4799C31.7246 99.5579 31.7246 99.5959 31.7246 99.6339C31.7246 99.7049 31.7246 99.7049 31.7246 99.7809C31.7246 99.7809 31.7626 99.8509 31.7626 99.8909C31.7966 99.9269 31.7966 99.9269 31.8366 100.005C31.8736 100.076 31.8736 100.076 31.8736 100.153C31.9066 100.189 31.9066 100.223 31.9436 100.299C32.0206 100.339 32.0206 100.372 32.0556 100.445C32.0956 100.445 32.1306 100.525 32.1306 100.525C32.1676 100.599 32.2786 100.67 32.3146 100.749C32.3556 100.749 32.4266 100.749 32.4266 100.815C32.4666 100.859 32.5006 100.893 32.6116 100.969C32.6116 100.969 32.6526 101.005 32.7276 101.045C32.7636 101.12 32.7966 101.149 32.8746 101.191C32.9126 101.191 32.9486 101.265 33.0206 101.307C33.2436 101.417 33.4706 101.487 33.6946 101.597C33.7276 101.641 33.8416 101.641 33.8416 101.641C34.0996 101.749 34.3236 101.785 34.5496 101.899C34.5846 101.899 34.5846 101.899 34.6546 101.899C34.8806 101.933 35.1026 101.933 35.3296 102.045C35.3996 102.045 35.4756 102.045 35.4756 102.045C35.7726 102.045 36.0366 102.078 36.2926 102.078H36.3686C36.6626 102.078 36.8886 102.045 37.1846 102.045C37.2586 102.045 37.2586 102.045 37.2956 102.045C37.5586 101.933 37.8156 101.933 37.9996 101.899C38.1126 101.899 38.1496 101.861 38.1886 101.861C38.4496 101.785 38.5946 101.75 38.8566 101.641C38.8566 101.641 38.8946 101.641 38.9696 101.641C39.1936 101.487 39.4496 101.417 39.6766 101.307C40.5656 100.748 41.0126 100.005 41.0126 99.2949L41.1626 130.918C41.1626 131.594 40.6766 132.37 39.7496 132.857C39.5646 133.004 39.3036 133.075 39.0806 133.191C39.0806 133.231 39.0386 133.231 39.0386 133.231C39.0066 133.231 38.9696 133.231 38.8936 133.231C38.7816 133.301 38.6676 133.335 38.5216 133.375C38.4486 133.447 38.3736 133.447 38.2616 133.447C38.1876 133.447 38.1876 133.487 38.1496 133.487C38.1126 133.487 38.0406 133.487 37.9996 133.487C37.8526 133.523 37.7436 133.597 37.5586 133.597C37.4846 133.635 37.4436 133.635 37.4436 133.635C37.2956 133.67 37.2956 133.67 37.2586 133.67C37.1846 133.67 37.1476 133.67 37.1106 133.67C36.9626 133.67 36.8476 133.67 36.6626 133.67C36.5916 133.67 36.5556 133.67 36.4746 133.67C36.4446 133.67 36.3686 133.67 36.3686 133.67C36.2926 133.67 36.1806 133.67 36.1406 133.67C35.9966 133.67 35.8476 133.67 35.6246 133.67C35.5866 133.67 35.5866 133.67 35.5866 133.67C35.5476 133.67 35.4746 133.635 35.4396 133.635C35.2896 133.597 35.1416 133.597 35.0276 133.523C34.9196 133.523 34.8406 133.487 34.7336 133.487C34.7336 133.487 34.6956 133.487 34.6546 133.487C34.4696 133.447 34.3236 133.335 34.1746 133.301C34.0996 133.301 34.0276 133.231 33.9886 133.231C33.8806 133.231 33.8416 133.231 33.7656 133.191C33.5406 133.075 33.3536 133.005 33.1376 132.857C33.0976 132.857 33.0976 132.857 33.0976 132.857C33.0206 132.815 33.0206 132.783 32.9486 132.743C32.8746 132.707 32.8366 132.707 32.7626 132.634C32.7266 132.594 32.7266 132.556 32.6516 132.556C32.6106 132.522 32.6106 132.482 32.5006 132.407H32.4666C32.4666 132.371 32.4666 132.371 32.4266 132.371C32.3556 132.262 32.2796 132.223 32.2406 132.113C32.1676 132.113 32.1676 132.113 32.1676 132.113V132.035C32.1306 131.965 32.0956 131.93 32.0206 131.888C32.0206 131.888 32.0206 131.814 32.0206 131.778C32.0206 131.778 31.9836 131.778 31.9836 131.742C31.9436 131.742 31.9066 131.664 31.9066 131.595L31.8736 131.52C31.8736 131.52 31.8736 131.52 31.8736 131.48C31.8736 131.44 31.8736 131.44 31.8366 131.37C31.8366 131.294 31.7966 131.294 31.7966 131.294C31.7966 131.256 31.7966 131.221 31.7966 131.221C31.7966 131.185 31.7966 131.147 31.7966 131.073C31.7626 131.073 31.7626 130.999 31.7626 130.999V130.961L31.7246 99.3369C31.7246 99.4089 31.7246 99.4459 31.7246 99.4799Z" fill="#3B3B3B"/>
<path d="M33.0609 97.406C31.2389 98.442 31.2389 100.188 33.0219 101.306C34.8809 102.306 37.8539 102.306 39.6779 101.306C41.5329 100.188 41.5329 98.442 39.7129 97.406C37.8539 96.323 34.8809 96.323 33.0609 97.406Z" fill="#979797"/>
<path d="M38.1907 101.861C38.4517 101.785 38.5967 101.75 38.8587 101.641C38.8587 101.641 38.8967 101.641 38.9717 101.641C39.1957 101.487 39.4517 101.417 39.6787 101.307C40.5677 100.748 41.0147 100.005 41.0147 99.2949L41.1647 130.918C41.1647 131.594 40.6787 132.37 39.7517 132.857C39.5667 133.004 39.3057 133.075 39.0827 133.191C39.0827 133.231 39.0407 133.231 39.0407 133.231C39.0087 133.231 38.9717 133.231 38.8957 133.231C38.7837 133.301 38.6697 133.335 38.5237 133.375C38.4507 133.447 38.3757 133.447 38.2637 133.447C38.1897 133.447 38.1897 133.487 38.1517 133.487C38.1147 133.487 38.0427 133.487 38.0017 133.487C38.0017 133.523 37.9667 133.523 37.9297 133.523V101.933C37.9667 101.899 38.0017 101.899 38.0017 101.899C38.1157 101.899 38.1527 101.861 38.1907 101.861Z" fill="#2B2B2B"/>
<path d="M34.1747 28.1303C34.1747 28.2373 34.2147 28.2763 34.2497 28.3163C34.2497 28.3943 34.2497 28.3943 34.2497 28.4263C34.3237 28.4643 34.4387 28.5373 34.4387 28.5753C34.4707 28.6453 34.5497 28.6453 34.5847 28.7233C34.6547 28.7233 34.6957 28.7573 34.7337 28.7573C34.8807 28.8683 35.0277 28.9463 35.1417 29.0233C35.2137 29.0233 35.2897 29.0233 35.2897 29.0233C35.3987 29.0233 35.4747 29.0593 35.5867 29.0973C35.5867 29.0973 35.7347 29.0973 35.8077 29.0973C35.8477 29.0973 35.8477 29.0973 35.8857 29.1693C35.9967 29.1693 36.1057 29.1693 36.1807 29.1693C36.2567 29.1693 36.2567 29.1693 36.2917 29.1693C36.3677 29.1693 36.5137 29.1693 36.6617 29.1693L36.7007 29.0973C36.8477 29.0973 36.9237 29.0973 37.0007 29.0593C37.0727 29.0593 37.0727 29.0593 37.1097 29.0233C37.1837 29.0233 37.2947 29.0233 37.4427 28.9473C37.5577 28.9093 37.6697 28.8693 37.7767 28.7583C38.1877 28.5373 38.4487 28.2373 38.4487 27.9043L38.5947 99.0003C38.5947 99.2953 38.4487 99.6333 37.9647 99.8913C37.8527 99.9273 37.7767 100.005 37.6697 100.077C37.6697 100.077 37.6697 100.077 37.5947 100.077C37.5587 100.077 37.4847 100.077 37.4437 100.113C37.3717 100.113 37.2957 100.153 37.2957 100.153C37.2587 100.153 37.2587 100.153 37.2587 100.189H37.1847C37.1107 100.189 37.0007 100.223 36.9617 100.223H36.8887C36.8887 100.223 36.8887 100.223 36.8477 100.223C36.8477 100.223 36.8477 100.223 36.7397 100.223C36.7007 100.223 36.6287 100.265 36.5547 100.265C36.5137 100.265 36.4747 100.265 36.4747 100.265C36.4747 100.265 36.4447 100.265 36.3687 100.265C36.3687 100.265 36.3687 100.265 36.3297 100.265C36.2577 100.265 36.1417 100.223 36.0717 100.223H36.0357C35.9587 100.223 35.8867 100.223 35.8477 100.189C35.8077 100.189 35.7717 100.189 35.7717 100.189C35.6647 100.153 35.5867 100.153 35.5127 100.113C35.4747 100.077 35.4397 100.077 35.3997 100.077C35.3997 100.077 35.3577 100.077 35.3297 100.077C35.2147 100.006 35.0667 99.9283 34.9197 99.8913C34.9197 99.8513 34.8807 99.8513 34.8807 99.8513L34.8417 99.7813C34.7347 99.7813 34.6957 99.7053 34.6557 99.7053C34.5857 99.6343 34.5507 99.5963 34.4707 99.5583C34.4707 99.4803 34.4707 99.4803 34.4707 99.4803V99.4463C34.4387 99.4463 34.4387 99.4103 34.4387 99.4103C34.4387 99.3363 34.3607 99.2973 34.3607 99.2633L34.3247 99.1873C34.3247 99.1113 34.3247 99.0413 34.3247 99.0023L34.1367 27.9443V27.9063C34.1367 27.9823 34.1367 28.0903 34.1747 28.1303Z" fill="#3B3B3B"/>
<path d="M34.7355 27.0158C33.8825 27.4937 33.8825 28.3177 34.7355 28.7597C35.5895 29.2427 36.9255 29.2427 37.7795 28.7597C38.5965 28.3177 38.5965 27.4928 37.7795 27.0158C36.9635 26.4947 35.5885 26.4947 34.7355 27.0158Z" fill="#434351"/>
<path d="M36.6637 29.1713L36.7026 29.0992C36.8496 29.0992 36.9257 29.0992 37.0027 29.0612C37.0747 29.0612 37.0747 29.0612 37.1117 29.0252C37.1857 29.0252 37.2966 29.0252 37.4446 28.9492C37.5596 28.9112 37.6717 28.8713 37.7787 28.7603C38.1897 28.5393 38.4507 28.2393 38.4507 27.9062L38.5966 99.0023C38.5966 99.2973 38.4506 99.6352 37.9666 99.8932C37.8546 99.9293 37.7787 100.007 37.6717 100.079C37.6717 100.079 37.6716 100.079 37.5966 100.079C37.5606 100.079 37.4866 100.079 37.4456 100.115C37.3736 100.115 37.2976 100.155 37.2976 100.155C37.2606 100.155 37.2607 100.155 37.2607 100.191H37.1866C37.1126 100.191 37.0027 100.225 36.9637 100.225H36.8907C36.8907 100.225 36.8906 100.225 36.8496 100.225C36.8496 100.225 36.8496 100.225 36.7416 100.225C36.7026 100.225 36.6306 100.267 36.5566 100.267V29.1732C36.5916 29.1712 36.5917 29.1713 36.6637 29.1713Z" fill="#2B2B2B"/>
<path d="M33.1402 25.7479C33.1402 25.7879 33.1402 25.8319 33.1402 25.8979C33.1402 25.8979 33.1722 25.8979 33.1722 25.9759V26.0469C33.2092 26.0849 33.2092 26.1209 33.2092 26.1209C33.2092 26.1209 33.2452 26.1909 33.2452 26.2309C33.2842 26.2689 33.3232 26.2689 33.3232 26.3449C33.3232 26.3449 33.3552 26.3449 33.3552 26.3809C33.3552 26.3809 33.3962 26.4179 33.4342 26.4179C33.4722 26.4919 33.5102 26.5629 33.5422 26.6029C33.5822 26.6029 33.5822 26.6029 33.6192 26.6409C33.6542 26.7189 33.6542 26.7189 33.6952 26.7189C33.7282 26.7499 33.7282 26.7499 33.7662 26.7879C33.8412 26.8279 33.8412 26.8659 33.8802 26.9039C33.9542 26.9039 33.9882 26.9039 34.0272 26.9339C34.1742 27.0499 34.3242 27.0879 34.4702 27.1599C34.5082 27.1999 34.5492 27.1999 34.5842 27.1999C34.6952 27.2379 34.7702 27.3099 34.8802 27.3099C34.9972 27.3459 35.1032 27.3839 35.2142 27.3839C35.2902 27.4589 35.4752 27.4589 35.5872 27.4589C35.5872 27.4589 35.6252 27.4589 35.6642 27.4889C35.8482 27.4889 36.0712 27.4889 36.1812 27.4889C36.1812 27.4889 36.2572 27.4889 36.2922 27.4889C36.4752 27.4889 36.6622 27.4889 36.8482 27.4889C36.8482 27.4589 36.8892 27.4589 36.8892 27.4589C37.0742 27.4589 37.2592 27.4589 37.4442 27.3839C37.4442 27.3839 37.4442 27.3839 37.4852 27.3839C37.6712 27.3099 37.7782 27.3099 37.9282 27.1989C37.9652 27.1989 37.9652 27.1989 37.9652 27.1989C38.1512 27.0879 38.2992 27.0499 38.4852 26.9329C39.0822 26.5609 39.4152 26.1189 39.4152 25.6699V27.6059C39.4152 28.0859 39.1182 28.5719 38.4852 28.9439C38.3752 29.0199 38.1892 29.0939 38.0012 29.1669C37.9662 29.2019 37.9662 29.2019 37.9292 29.2019C37.8542 29.2019 37.7452 29.2379 37.6712 29.2379C37.5962 29.3119 37.5602 29.3119 37.4852 29.3539H37.4442C37.3722 29.3539 37.2962 29.3539 37.2962 29.3539C37.2592 29.3879 37.1112 29.3879 37.0012 29.3879C36.9622 29.3879 36.9242 29.3879 36.8892 29.3879H36.8482C36.7792 29.3879 36.7402 29.3879 36.7012 29.4639C36.5912 29.4639 36.4742 29.4639 36.3682 29.4639C36.3682 29.4639 36.3292 29.4639 36.2922 29.4639H36.1812C36.1412 29.4639 36.1062 29.4639 36.0722 29.4639C35.9592 29.4639 35.8482 29.4639 35.7362 29.3879C35.7362 29.3879 35.7362 29.3879 35.7012 29.3879C35.6652 29.3879 35.5882 29.3879 35.5882 29.3879C35.4762 29.3879 35.4002 29.3879 35.2912 29.3879C35.2912 29.3879 35.2152 29.3879 35.2152 29.3539C35.1042 29.3539 34.9982 29.3119 34.8812 29.2379C34.8422 29.2379 34.7722 29.2379 34.7342 29.2379C34.6962 29.2019 34.6552 29.2019 34.5852 29.2019C34.5502 29.2019 34.5092 29.1669 34.4712 29.1669C34.3252 29.0949 34.1752 29.0209 34.0282 28.9439V28.9059L33.9562 28.8659C33.8432 28.7949 33.8432 28.7949 33.7682 28.7549C33.7302 28.7549 33.7302 28.7209 33.6972 28.7209C33.6972 28.6429 33.6562 28.6429 33.6212 28.6429C33.6212 28.6429 33.5842 28.6429 33.5842 28.6069V28.5729C33.5122 28.5349 33.4742 28.4619 33.4362 28.4239H33.3982C33.3982 28.3919 33.3572 28.3919 33.3572 28.3919C33.3572 28.3139 33.3252 28.2739 33.3252 28.2739C33.3252 28.2359 33.3252 28.2359 33.2862 28.2019L33.2472 28.1679C33.2472 28.1679 33.2472 28.0889 33.2112 28.0889V28.0529L33.1742 27.9809C33.1742 27.9809 33.1742 27.9809 33.1742 27.9029C33.1422 27.8329 33.1422 27.8329 33.1422 27.8329C33.1422 27.8329 33.1422 27.7599 33.1422 27.6819C33.1422 27.6819 33.1422 27.6819 33.1422 27.6479C33.1022 27.6479 33.1022 27.6479 33.1022 27.6479V25.6729C33.1002 25.6739 33.1002 25.7479 33.1402 25.7479Z" fill="#2B2B2B"/>
<path d="M34.0287 24.3441C32.7977 25.0481 32.7977 26.2711 34.0287 26.9371C35.2927 27.6831 37.2607 27.6831 38.4867 26.9371C39.7147 26.2711 39.7147 25.0481 38.4867 24.3441C37.2607 23.6301 35.2917 23.6301 34.0287 24.3441Z" fill="#3B3B3B"/>
<path d="M8.73383 52.1753L6.0918 50.6433L32.9218 35.1523L35.5598 36.6863L8.73383 52.1753Z" fill="#8DC63F"/>
<path d="M2.638 61.8096L0 60.2776L6.09198 50.6426L8.73401 52.1746L2.638 61.8096Z" fill="#98D343"/>
<path d="M35.5607 36.6855L35.5937 48.2856L8.76566 63.7776L2.63867 61.8095L8.73468 52.1745L35.5607 36.6855Z" fill="#518524"/>
<path d="M62.409 52.316L65.05 50.781L38.221 35.291L35.584 36.825L62.409 52.316Z" fill="#8DC63F"/>
<path d="M68.5032 61.9503L71.1422 60.4163L65.0492 50.7812L62.4082 52.3163L68.5032 61.9503Z" fill="#98D343"/>
<path d="M35.5838 36.8242L35.5488 48.4272L62.3778 63.9152L68.5038 61.9492L62.4088 52.3152L35.5838 36.8242Z" fill="#217F1C"/>
<defs>
<clipPath id="clip0_176_96197">
<rect width="24" height="24" fill="white" transform="translate(158 34)"/>
</clipPath>
</defs>
</svg>
