<svg width="512" height="151" viewBox="0 0 572 169" fill="none" xmlns="http://www.w3.org/2000/svg">
<rect x="216" width="356" height="101" rx="18" fill="#006DB7"/>
<path d="M160 122L271.5 86.026L239.5 62L160 122Z" fill="#006DB7"/>
<rect x="229.048" y="25.0476" width="41.9048" height="41.9048" rx="20.9524" fill="#0699BA"/>
<rect x="229.048" y="25.0476" width="41.9048" height="41.9048" rx="20.9524" stroke="white" stroke-width="2.09524"/>
<g clip-path="url(#clip0_176_93608)">
<path d="M239.971 57.8938C239.536 57.8938 239.236 57.7215 239.081 57.3831C238.96 57.1199 238.972 56.8285 239.114 56.5842C239.258 56.3366 239.521 56.1737 239.82 56.1476C239.841 56.1455 239.861 56.1445 239.883 56.1434V47.0962C239.335 47.0659 239.007 46.7202 239.002 46.1605C238.997 45.5516 238.997 44.9856 239.003 44.432C239.008 43.8597 239.353 43.513 239.926 43.5047C240.139 43.5015 240.352 43.4994 240.565 43.4994C240.692 43.4994 240.82 43.5005 240.947 43.5015C241.673 39.9204 243.805 37.5038 247.293 36.308C247.454 36.2527 247.616 36.2088 247.776 36.1691C247.839 35.5216 248.112 34.9973 248.591 34.6068C248.998 34.2736 249.475 34.1055 250.008 34.1055C250.044 34.1055 250.08 34.1065 250.118 34.1076C251.24 34.1556 251.985 34.8981 252.198 36.1618C252.202 36.1628 252.205 36.1639 252.209 36.1649C252.473 36.236 252.744 36.308 253.015 36.4114C256.332 37.6667 258.362 40.052 259.05 43.5026C259.162 43.5005 259.281 43.5005 259.407 43.5005C259.62 43.5005 259.833 43.5026 260.045 43.5047C260.645 43.512 260.991 43.8587 260.997 44.4561C261.001 44.9897 261.001 45.5391 260.997 46.1354C260.992 46.7181 260.683 47.0565 260.125 47.0941V56.1455C260.453 56.1737 260.651 56.3084 260.761 56.4223C260.917 56.5842 260.997 56.7972 260.991 57.0384C260.983 57.4322 260.724 57.8927 260.022 57.8927C259.351 57.8938 258.679 57.8938 258.008 57.8938H241.536C241.016 57.8938 240.496 57.8938 239.977 57.8959H239.971V57.8938ZM256.524 56.1267V47.1087H254.875V56.1267H256.524ZM251.274 56.1257V47.1098H248.722V56.1257H251.274ZM245.13 56.1257V47.1108H243.473V56.1257H245.13ZM246.932 56.1194V47.1139H246.918V56.1194H246.932ZM253.083 56.1121V47.115H253.067V56.1121H253.083ZM241.683 56.1121V47.115H241.667V56.1121H241.683ZM258.333 56.1121V47.116H258.317V56.1121H258.333ZM257.263 43.4932C256.914 41.7188 255.68 39.6332 253.503 38.5398C252.299 37.9351 251.098 37.6281 249.934 37.6281C248.463 37.6281 247.015 38.1168 245.629 39.0818C244.125 40.1283 243.153 41.6102 242.731 43.4932H257.263ZM250.206 35.9091C250.135 35.8704 250.067 35.8516 250.001 35.8516C249.935 35.8516 249.865 35.8715 249.792 35.9091H250.206Z" fill="white"/>
</g>
<path d="M306.05 47.4709H302.597C302.499 46.9046 302.317 46.4029 302.053 45.9659C301.788 45.5227 301.459 45.1473 301.065 44.8395C300.671 44.5317 300.221 44.3009 299.717 44.147C299.218 43.987 298.679 43.907 298.101 43.907C297.073 43.907 296.162 44.1655 295.368 44.6825C294.574 45.1934 293.952 45.9444 293.503 46.9354C293.054 47.9202 292.829 49.1236 292.829 50.5455C292.829 51.992 293.054 53.2107 293.503 54.2017C293.958 55.1866 294.58 55.9313 295.368 56.4361C296.162 56.9347 297.07 57.1839 298.092 57.1839C298.658 57.1839 299.187 57.1101 299.68 56.9624C300.178 56.8085 300.625 56.5838 301.018 56.2884C301.419 55.9929 301.754 55.6297 302.025 55.1989C302.302 54.768 302.493 54.2756 302.597 53.7216L306.05 53.7401C305.921 54.6387 305.641 55.482 305.21 56.2699C304.786 57.0578 304.228 57.7533 303.539 58.3565C302.85 58.9536 302.043 59.4214 301.12 59.7599C300.197 60.0923 299.172 60.2585 298.045 60.2585C296.384 60.2585 294.9 59.8738 293.595 59.1044C292.29 58.335 291.262 57.224 290.511 55.7713C289.76 54.3187 289.385 52.5767 289.385 50.5455C289.385 48.508 289.763 46.7661 290.521 45.3196C291.278 43.867 292.309 42.7559 293.614 41.9865C294.919 41.2171 296.396 40.8324 298.045 40.8324C299.098 40.8324 300.077 40.9801 300.982 41.2756C301.886 41.571 302.693 42.005 303.401 42.5774C304.108 43.1437 304.69 43.8393 305.146 44.6641C305.607 45.4827 305.909 46.4183 306.05 47.4709ZM313.121 60.2862C312.222 60.2862 311.412 60.1262 310.692 59.8061C309.978 59.4799 309.412 58.9998 308.993 58.3658C308.581 57.7318 308.375 56.95 308.375 56.0206C308.375 55.2204 308.523 54.5587 308.818 54.0355C309.113 53.5123 309.517 53.0938 310.028 52.7798C310.538 52.4659 311.114 52.2289 311.754 52.0689C312.4 51.9027 313.068 51.7827 313.758 51.7088C314.589 51.6226 315.263 51.5457 315.78 51.478C316.297 51.4041 316.672 51.2933 316.906 51.1456C317.146 50.9917 317.266 50.7547 317.266 50.4347V50.3793C317.266 49.6837 317.06 49.1451 316.648 48.7635C316.235 48.3819 315.641 48.1911 314.866 48.1911C314.047 48.1911 313.398 48.3696 312.917 48.7266C312.443 49.0836 312.123 49.5052 311.957 49.9915L308.836 49.5483C309.083 48.6866 309.489 47.9664 310.055 47.3878C310.622 46.803 311.314 46.366 312.133 46.0767C312.951 45.7812 313.856 45.6335 314.847 45.6335C315.53 45.6335 316.211 45.7135 316.888 45.8736C317.565 46.0336 318.183 46.2983 318.743 46.6676C319.304 47.0308 319.753 47.5263 320.091 48.1541C320.436 48.782 320.608 49.5668 320.608 50.5085V60H317.395V58.0518H317.285C317.081 58.4458 316.795 58.8151 316.426 59.1598C316.063 59.4983 315.604 59.7723 315.05 59.9815C314.502 60.1847 313.859 60.2862 313.121 60.2862ZM313.988 57.8303C314.659 57.8303 315.241 57.6979 315.733 57.4332C316.226 57.1624 316.604 56.8054 316.869 56.3622C317.14 55.919 317.275 55.4358 317.275 54.9126V53.2415C317.171 53.3277 316.992 53.4077 316.74 53.4815C316.494 53.5554 316.217 53.62 315.909 53.6754C315.601 53.7308 315.296 53.7801 314.995 53.8232C314.693 53.8662 314.432 53.9032 314.21 53.9339C313.711 54.0017 313.265 54.1125 312.871 54.2663C312.477 54.4202 312.166 54.6357 311.939 54.9126C311.711 55.1835 311.597 55.5343 311.597 55.9652C311.597 56.5807 311.822 57.0455 312.271 57.3594C312.72 57.6733 313.293 57.8303 313.988 57.8303ZM313.711 43.9531L315.78 39.7337H319.048L316.214 43.9531H313.711ZM323.969 60V45.8182H327.164V48.228H327.33C327.626 47.4155 328.115 46.7815 328.798 46.326C329.481 45.8643 330.297 45.6335 331.245 45.6335C332.205 45.6335 333.015 45.8674 333.673 46.3352C334.338 46.7969 334.806 47.4278 335.077 48.228H335.224C335.538 47.4401 336.068 46.8123 336.812 46.3445C337.563 45.8705 338.453 45.6335 339.481 45.6335C340.786 45.6335 341.85 46.0459 342.675 46.8707C343.5 47.6955 343.912 48.8989 343.912 50.4808V60H340.561V50.9979C340.561 50.1177 340.327 49.4744 339.859 49.0682C339.391 48.6558 338.819 48.4496 338.142 48.4496C337.336 48.4496 336.705 48.7019 336.249 49.2067C335.8 49.7053 335.575 50.3546 335.575 51.1548V60H332.297V50.8594C332.297 50.1269 332.076 49.5421 331.633 49.1051C331.196 48.6681 330.623 48.4496 329.915 48.4496C329.435 48.4496 328.998 48.5727 328.604 48.8189C328.21 49.0589 327.896 49.4006 327.662 49.8438C327.429 50.2808 327.312 50.7917 327.312 51.3764V60H323.969ZM351.384 60.2862C350.486 60.2862 349.676 60.1262 348.956 59.8061C348.242 59.4799 347.676 58.9998 347.257 58.3658C346.845 57.7318 346.638 56.95 346.638 56.0206C346.638 55.2204 346.786 54.5587 347.082 54.0355C347.377 53.5123 347.78 53.0938 348.291 52.7798C348.802 52.4659 349.378 52.2289 350.018 52.0689C350.664 51.9027 351.332 51.7827 352.021 51.7088C352.852 51.6226 353.526 51.5457 354.043 51.478C354.56 51.4041 354.936 51.2933 355.17 51.1456C355.41 50.9917 355.53 50.7547 355.53 50.4347V50.3793C355.53 49.6837 355.324 49.1451 354.911 48.7635C354.499 48.3819 353.905 48.1911 353.129 48.1911C352.311 48.1911 351.661 48.3696 351.181 48.7266C350.707 49.0836 350.387 49.5052 350.221 49.9915L347.1 49.5483C347.346 48.6866 347.753 47.9664 348.319 47.3878C348.885 46.803 349.578 46.366 350.396 46.0767C351.215 45.7812 352.12 45.6335 353.111 45.6335C353.794 45.6335 354.474 45.7135 355.151 45.8736C355.828 46.0336 356.447 46.2983 357.007 46.6676C357.567 47.0308 358.017 47.5263 358.355 48.1541C358.7 48.782 358.872 49.5668 358.872 50.5085V60H355.659V58.0518H355.548C355.345 58.4458 355.059 58.8151 354.69 59.1598C354.326 59.4983 353.868 59.7723 353.314 59.9815C352.766 60.1847 352.123 60.2862 351.384 60.2862ZM352.252 57.8303C352.923 57.8303 353.505 57.6979 353.997 57.4332C354.49 57.1624 354.868 56.8054 355.133 56.3622C355.404 55.919 355.539 55.4358 355.539 54.9126V53.2415C355.434 53.3277 355.256 53.4077 355.004 53.4815C354.757 53.5554 354.48 53.62 354.173 53.6754C353.865 53.7308 353.56 53.7801 353.259 53.8232C352.957 53.8662 352.695 53.9032 352.474 53.9339C351.975 54.0017 351.529 54.1125 351.135 54.2663C350.741 54.4202 350.43 54.6357 350.202 54.9126C349.975 55.1835 349.861 55.5343 349.861 55.9652C349.861 56.5807 350.085 57.0455 350.535 57.3594C350.984 57.6733 351.557 57.8303 352.252 57.8303ZM362.233 60V45.8182H365.474V48.1818H365.621C365.88 47.3632 366.323 46.7322 366.951 46.2891C367.585 45.8397 368.308 45.6151 369.121 45.6151C369.305 45.6151 369.512 45.6243 369.739 45.6428C369.973 45.6551 370.167 45.6766 370.321 45.7074V48.782C370.179 48.7327 369.955 48.6896 369.647 48.6527C369.345 48.6096 369.053 48.5881 368.77 48.5881C368.161 48.5881 367.613 48.7204 367.126 48.9851C366.646 49.2436 366.268 49.6037 365.991 50.0653C365.714 50.527 365.575 51.0594 365.575 51.6626V60H362.233ZM376.369 60.2862C375.47 60.2862 374.661 60.1262 373.94 59.8061C373.226 59.4799 372.66 58.9998 372.241 58.3658C371.829 57.7318 371.623 56.95 371.623 56.0206C371.623 55.2204 371.771 54.5587 372.066 54.0355C372.362 53.5123 372.765 53.0938 373.276 52.7798C373.786 52.4659 374.362 52.2289 375.002 52.0689C375.648 51.9027 376.316 51.7827 377.006 51.7088C377.837 51.6226 378.511 51.5457 379.028 51.478C379.545 51.4041 379.92 51.2933 380.154 51.1456C380.394 50.9917 380.514 50.7547 380.514 50.4347V50.3793C380.514 49.6837 380.308 49.1451 379.896 48.7635C379.483 48.3819 378.889 48.1911 378.114 48.1911C377.295 48.1911 376.646 48.3696 376.165 48.7266C375.692 49.0836 375.371 49.5052 375.205 49.9915L372.085 49.5483C372.331 48.6866 372.737 47.9664 373.303 47.3878C373.87 46.803 374.562 46.366 375.381 46.0767C376.199 45.7812 377.104 45.6335 378.095 45.6335C378.778 45.6335 379.459 45.7135 380.136 45.8736C380.813 46.0336 381.431 46.2983 381.991 46.6676C382.552 47.0308 383.001 47.5263 383.339 48.1541C383.684 48.782 383.857 49.5668 383.857 50.5085V60H380.643V58.0518H380.533C380.33 58.4458 380.043 58.8151 379.674 59.1598C379.311 59.4983 378.852 59.7723 378.298 59.9815C377.75 60.1847 377.107 60.2862 376.369 60.2862ZM377.237 57.8303C377.907 57.8303 378.489 57.6979 378.982 57.4332C379.474 57.1624 379.853 56.8054 380.117 56.3622C380.388 55.919 380.523 55.4358 380.523 54.9126V53.2415C380.419 53.3277 380.24 53.4077 379.988 53.4815C379.742 53.5554 379.465 53.62 379.157 53.6754C378.849 53.7308 378.545 53.7801 378.243 53.8232C377.941 53.8662 377.68 53.9032 377.458 53.9339C376.96 54.0017 376.513 54.1125 376.119 54.2663C375.725 54.4202 375.415 54.6357 375.187 54.9126C374.959 55.1835 374.845 55.5343 374.845 55.9652C374.845 56.5807 375.07 57.0455 375.519 57.3594C375.969 57.6733 376.541 57.8303 377.237 57.8303ZM398.929 60.2493C397.815 60.2493 396.818 59.9631 395.938 59.3906C395.058 58.8182 394.362 57.9872 393.851 56.8977C393.34 55.8082 393.085 54.4848 393.085 52.9276C393.085 51.3518 393.343 50.0223 393.86 48.9389C394.384 47.8494 395.088 47.0277 395.975 46.4737C396.861 45.9136 397.849 45.6335 398.939 45.6335C399.77 45.6335 400.453 45.7751 400.988 46.0582C401.524 46.3352 401.949 46.6707 402.262 47.0646C402.576 47.4524 402.819 47.8187 402.992 48.1634H403.13V41.0909H406.482V60H403.195V57.7656H402.992C402.819 58.1103 402.57 58.4766 402.244 58.8643C401.918 59.246 401.487 59.5722 400.951 59.843C400.416 60.1139 399.742 60.2493 398.929 60.2493ZM399.862 57.5071C400.57 57.5071 401.173 57.3163 401.672 56.9347C402.17 56.5469 402.549 56.0083 402.807 55.3189C403.066 54.6295 403.195 53.8262 403.195 52.9091C403.195 51.992 403.066 51.1948 402.807 50.5178C402.555 49.8407 402.179 49.3144 401.681 48.9389C401.188 48.5634 400.582 48.3757 399.862 48.3757C399.117 48.3757 398.495 48.5696 397.997 48.9574C397.498 49.3452 397.123 49.8807 396.87 50.5639C396.618 51.2472 396.492 52.0289 396.492 52.9091C396.492 53.7955 396.618 54.5864 396.87 55.282C397.129 55.9714 397.507 56.5161 398.006 56.9162C398.511 57.3101 399.129 57.5071 399.862 57.5071ZM416.322 60.277C414.9 60.277 413.672 59.9815 412.638 59.3906C411.61 58.7936 410.819 57.9503 410.265 56.8608C409.711 55.7652 409.434 54.4756 409.434 52.9922C409.434 51.5334 409.711 50.2531 410.265 49.1513C410.825 48.0433 411.607 47.1816 412.61 46.5661C413.614 45.9444 414.792 45.6335 416.146 45.6335C417.021 45.6335 417.845 45.7751 418.621 46.0582C419.403 46.3352 420.092 46.7661 420.689 47.3509C421.292 47.9356 421.766 48.6804 422.111 49.5852C422.456 50.4839 422.628 51.5549 422.628 52.7983V53.8232H411.004V51.5703H419.424C419.418 50.9302 419.28 50.3608 419.009 49.8622C418.738 49.3575 418.359 48.9605 417.873 48.6712C417.393 48.3819 416.833 48.2372 416.193 48.2372C415.509 48.2372 414.909 48.4034 414.392 48.7358C413.875 49.062 413.472 49.4929 413.183 50.0284C412.9 50.5578 412.755 51.1394 412.749 51.7734V53.7401C412.749 54.5649 412.9 55.2727 413.201 55.8636C413.503 56.4484 413.924 56.8977 414.466 57.2116C415.008 57.5194 415.642 57.6733 416.368 57.6733C416.854 57.6733 417.294 57.6056 417.688 57.4702C418.082 57.3286 418.424 57.1224 418.713 56.8516C419.003 56.5807 419.221 56.2453 419.369 55.8452L422.49 56.196C422.293 57.0208 421.917 57.741 421.363 58.3565C420.815 58.9659 420.114 59.4399 419.258 59.7784C418.402 60.1108 417.424 60.277 416.322 60.277ZM448.238 47.4709H444.785C444.686 46.9046 444.505 46.4029 444.24 45.9659C443.975 45.5227 443.646 45.1473 443.252 44.8395C442.858 44.5317 442.409 44.3009 441.904 44.147C441.406 43.987 440.867 43.907 440.288 43.907C439.26 43.907 438.349 44.1655 437.555 44.6825C436.761 45.1934 436.14 45.9444 435.69 46.9354C435.241 47.9202 435.016 49.1236 435.016 50.5455C435.016 51.992 435.241 53.2107 435.69 54.2017C436.146 55.1866 436.768 55.9313 437.555 56.4361C438.349 56.9347 439.257 57.1839 440.279 57.1839C440.845 57.1839 441.375 57.1101 441.867 56.9624C442.366 56.8085 442.812 56.5838 443.206 56.2884C443.606 55.9929 443.942 55.6297 444.212 55.1989C444.489 54.768 444.68 54.2756 444.785 53.7216L448.238 53.7401C448.109 54.6387 447.829 55.482 447.398 56.2699C446.973 57.0578 446.416 57.7533 445.727 58.3565C445.037 58.9536 444.231 59.4214 443.308 59.7599C442.384 60.0923 441.359 60.2585 440.233 60.2585C438.571 60.2585 437.088 59.8738 435.783 59.1044C434.478 58.335 433.45 57.224 432.699 55.7713C431.948 54.3187 431.572 52.5767 431.572 50.5455C431.572 48.508 431.951 46.7661 432.708 45.3196C433.465 43.867 434.496 42.7559 435.801 41.9865C437.106 41.2171 438.583 40.8324 440.233 40.8324C441.286 40.8324 442.264 40.9801 443.169 41.2756C444.074 41.571 444.88 42.005 445.588 42.5774C446.296 43.1437 446.878 43.8393 447.333 44.6641C447.795 45.4827 448.096 46.4183 448.238 47.4709ZM457.413 60.277C456.028 60.277 454.828 59.9723 453.812 59.3629C452.797 58.7536 452.009 57.901 451.449 56.8054C450.895 55.7098 450.618 54.4295 450.618 52.9645C450.618 51.4995 450.895 50.2161 451.449 49.1143C452.009 48.0125 452.797 47.157 453.812 46.5476C454.828 45.9382 456.028 45.6335 457.413 45.6335C458.798 45.6335 459.998 45.9382 461.014 46.5476C462.03 47.157 462.814 48.0125 463.368 49.1143C463.929 50.2161 464.209 51.4995 464.209 52.9645C464.209 54.4295 463.929 55.7098 463.368 56.8054C462.814 57.901 462.03 58.7536 461.014 59.3629C459.998 59.9723 458.798 60.277 457.413 60.277ZM457.432 57.5994C458.183 57.5994 458.81 57.3932 459.315 56.9808C459.82 56.5623 460.195 56.0021 460.442 55.3004C460.694 54.5987 460.82 53.817 460.82 52.9553C460.82 52.0874 460.694 51.3026 460.442 50.6009C460.195 49.893 459.82 49.3298 459.315 48.9112C458.81 48.4927 458.183 48.2834 457.432 48.2834C456.662 48.2834 456.022 48.4927 455.511 48.9112C455.006 49.3298 454.628 49.893 454.376 50.6009C454.129 51.3026 454.006 52.0874 454.006 52.9553C454.006 53.817 454.129 54.5987 454.376 55.3004C454.628 56.0021 455.006 56.5623 455.511 56.9808C456.022 57.3932 456.662 57.5994 457.432 57.5994ZM467.045 60V45.8182H470.24V48.228H470.406C470.702 47.4155 471.191 46.7815 471.874 46.326C472.558 45.8643 473.373 45.6335 474.321 45.6335C475.281 45.6335 476.091 45.8674 476.749 46.3352C477.414 46.7969 477.882 47.4278 478.153 48.228H478.3C478.614 47.4401 479.144 46.8123 479.888 46.3445C480.639 45.8705 481.529 45.6335 482.557 45.6335C483.862 45.6335 484.927 46.0459 485.751 46.8707C486.576 47.6955 486.989 48.8989 486.989 50.4808V60H483.637V50.9979C483.637 50.1177 483.403 49.4744 482.935 49.0682C482.468 48.6558 481.895 48.4496 481.218 48.4496C480.412 48.4496 479.781 48.7019 479.325 49.2067C478.876 49.7053 478.651 50.3546 478.651 51.1548V60H475.374V50.8594C475.374 50.1269 475.152 49.5421 474.709 49.1051C474.272 48.6681 473.699 48.4496 472.991 48.4496C472.511 48.4496 472.074 48.5727 471.68 48.8189C471.286 49.0589 470.973 49.4006 470.739 49.8438C470.505 50.2808 470.388 50.7917 470.388 51.3764V60H467.045ZM496.658 60.277C495.236 60.277 494.008 59.9815 492.974 59.3906C491.946 58.7936 491.155 57.9503 490.601 56.8608C490.047 55.7652 489.77 54.4756 489.77 52.9922C489.77 51.5334 490.047 50.2531 490.601 49.1513C491.161 48.0433 491.943 47.1816 492.946 46.5661C493.95 45.9444 495.128 45.6335 496.482 45.6335C497.356 45.6335 498.181 45.7751 498.957 46.0582C499.739 46.3352 500.428 46.7661 501.025 47.3509C501.628 47.9356 502.102 48.6804 502.447 49.5852C502.792 50.4839 502.964 51.5549 502.964 52.7983V53.8232H491.34V51.5703H499.76C499.754 50.9302 499.615 50.3608 499.345 49.8622C499.074 49.3575 498.695 48.9605 498.209 48.6712C497.729 48.3819 497.169 48.2372 496.529 48.2372C495.845 48.2372 495.245 48.4034 494.728 48.7358C494.211 49.062 493.808 49.4929 493.519 50.0284C493.235 50.5578 493.091 51.1394 493.085 51.7734V53.7401C493.085 54.5649 493.235 55.2727 493.537 55.8636C493.839 56.4484 494.26 56.8977 494.802 57.2116C495.344 57.5194 495.978 57.6733 496.704 57.6733C497.19 57.6733 497.63 57.6056 498.024 57.4702C498.418 57.3286 498.76 57.1224 499.049 56.8516C499.338 56.5807 499.557 56.2453 499.705 55.8452L502.825 56.196C502.628 57.0208 502.253 57.741 501.699 58.3565C501.151 58.9659 500.45 59.4399 499.594 59.7784C498.738 60.1108 497.76 60.277 496.658 60.277ZM505.792 60V45.8182H509.032V48.1818H509.18C509.439 47.3632 509.882 46.7322 510.51 46.2891C511.144 45.8397 511.867 45.6151 512.679 45.6151C512.864 45.6151 513.07 45.6243 513.298 45.6428C513.532 45.6551 513.726 45.6766 513.88 45.7074V48.782C513.738 48.7327 513.513 48.6896 513.206 48.6527C512.904 48.6096 512.612 48.5881 512.328 48.5881C511.719 48.5881 511.171 48.7204 510.685 48.9851C510.205 49.2436 509.826 49.6037 509.549 50.0653C509.272 50.527 509.134 51.0594 509.134 51.6626V60H505.792ZM521.702 60.277C520.287 60.277 519.071 59.9661 518.055 59.3445C517.046 58.7228 516.267 57.8641 515.719 56.7685C515.178 55.6667 514.907 54.3987 514.907 52.9645C514.907 51.5241 515.184 50.2531 515.738 49.1513C516.292 48.0433 517.073 47.1816 518.083 46.5661C519.099 45.9444 520.299 45.6335 521.684 45.6335C522.835 45.6335 523.854 45.8459 524.74 46.2706C525.632 46.6892 526.343 47.2831 526.873 48.0526C527.402 48.8158 527.704 49.7083 527.778 50.7301H524.583C524.454 50.0469 524.146 49.4775 523.66 49.022C523.18 48.5604 522.536 48.3295 521.73 48.3295C521.047 48.3295 520.447 48.5142 519.93 48.8835C519.412 49.2467 519.009 49.7699 518.72 50.4531C518.437 51.1364 518.295 51.955 518.295 52.9091C518.295 53.8755 518.437 54.7064 518.72 55.402C519.003 56.0914 519.4 56.6238 519.911 56.9993C520.428 57.3686 521.034 57.5533 521.73 57.5533C522.222 57.5533 522.662 57.4609 523.05 57.2763C523.444 57.0855 523.773 56.8116 524.038 56.4545C524.303 56.0975 524.484 55.6636 524.583 55.1527H527.778C527.698 56.156 527.402 57.0455 526.891 57.821C526.38 58.5904 525.685 59.1937 524.805 59.6307C523.924 60.0616 522.89 60.277 521.702 60.277ZM530.522 60V45.8182H533.864V60H530.522ZM532.202 43.8054C531.673 43.8054 531.218 43.63 530.836 43.2791C530.454 42.9221 530.263 42.4943 530.263 41.9957C530.263 41.491 530.454 41.0632 530.836 40.7124C531.218 40.3553 531.673 40.1768 532.202 40.1768C532.738 40.1768 533.193 40.3553 533.569 40.7124C533.951 41.0632 534.141 41.491 534.141 41.9957C534.141 42.4943 533.951 42.9221 533.569 43.2791C533.193 43.63 532.738 43.8054 532.202 43.8054ZM543.487 60.277C542.102 60.277 540.902 59.9723 539.887 59.3629C538.871 58.7536 538.083 57.901 537.523 56.8054C536.969 55.7098 536.692 54.4295 536.692 52.9645C536.692 51.4995 536.969 50.2161 537.523 49.1143C538.083 48.0125 538.871 47.157 539.887 46.5476C540.902 45.9382 542.102 45.6335 543.487 45.6335C544.872 45.6335 546.073 45.9382 547.088 46.5476C548.104 47.157 548.889 48.0125 549.443 49.1143C550.003 50.2161 550.283 51.4995 550.283 52.9645C550.283 54.4295 550.003 55.7098 549.443 56.8054C548.889 57.901 548.104 58.7536 547.088 59.3629C546.073 59.9723 544.872 60.277 543.487 60.277ZM543.506 57.5994C544.257 57.5994 544.885 57.3932 545.389 56.9808C545.894 56.5623 546.27 56.0021 546.516 55.3004C546.768 54.5987 546.894 53.817 546.894 52.9553C546.894 52.0874 546.768 51.3026 546.516 50.6009C546.27 49.893 545.894 49.3298 545.389 48.9112C544.885 48.4927 544.257 48.2834 543.506 48.2834C542.736 48.2834 542.096 48.4927 541.585 48.9112C541.081 49.3298 540.702 49.893 540.45 50.6009C540.204 51.3026 540.08 52.0874 540.08 52.9553C540.08 53.817 540.204 54.5987 540.45 55.3004C540.702 56.0021 541.081 56.5623 541.585 56.9808C542.096 57.3932 542.736 57.5994 543.506 57.5994Z" fill="white"/>
<g clip-path="url(#clip1_176_93608)">
<path opacity="0.05" d="M34.1373 162.379L0 152.1L22.537 141.053L34.1373 162.379Z" fill="black"/>
<path d="M38.3594 164.48L113.063 127.304V121.674L38.3594 158.849V164.48Z" fill="#CBC1C0"/>
<path d="M38.3685 158.853L113.069 121.683L88.4724 109.457L13.7715 146.627L38.3685 158.853Z" fill="#F2EAE8"/>
<path d="M13.7617 152.251L38.3587 164.48V158.85L13.7617 146.621V152.251Z" fill="#ABA2A1"/>
<path d="M66.2969 163.56L116.206 138.773V133.143L66.2969 157.93V163.56Z" fill="#E0DCD1"/>
<path d="M66.3032 157.934L116.212 133.149L102.918 126.643L53.1504 151.427L66.3032 157.934Z" fill="#F2EAE8"/>
<path d="M53.1445 157.052L66.2974 163.561V157.931L53.1445 151.422V157.052Z" fill="#ABA2A1"/>
<path d="M114.66 133.889V139.1L125.399 144.538V139.327L114.66 133.889Z" fill="#ABA2A1"/>
<path d="M126.999 138.526L125.399 139.328L114.66 133.901L116.18 133.145L126.999 138.526Z" fill="#F2EAE8"/>
<path d="M126.999 143.758L125.398 144.538V139.327L126.999 138.525V143.758Z" fill="#CBC1C0"/>
<path d="M120.521 138.438L73.4199 161.778V160.175L120.521 136.838V138.438Z" fill="#CBC1C0"/>
<path d="M122.657 139.506L75.5589 162.84L73.4238 161.775L120.522 138.441L122.657 139.506Z" fill="#F2EAE8"/>
<path d="M122.656 141.187L75.5547 164.527V162.857L122.656 139.518V141.187Z" fill="#CBC1C0"/>
<path d="M124.792 142.254L77.6937 165.588L75.5586 164.523L122.657 141.189L124.792 142.254Z" fill="#F2EAE8"/>
<path d="M124.79 144.272L77.6895 167.941V165.607L124.79 142.268V144.272Z" fill="#CBC1C0"/>
<path d="M120.52 136.83L73.6712 160.086L67.8125 157.184L114.661 133.928L120.52 136.83Z" fill="#F2EAE8"/>
<path d="M38.3613 157.36L113.065 120.184V91.1035L38.3613 128.279V157.36Z" fill="#E4C7B5"/>
<path d="M38.3693 128.283L113.07 91.1128L91.4071 80.3164L16.7031 117.486L38.3693 128.283Z" fill="#EDE3E2"/>
<path d="M16.6973 146.561L38.3604 157.36V128.28L16.6973 117.48V146.561Z" fill="#C1977E"/>
<path d="M66.4395 156.44L113.213 133.112V104.031L66.4395 127.362V156.44Z" fill="#E4C7B5"/>
<path d="M66.3052 127.365L113.079 104.04L99.926 97.5332L53.1523 120.858L66.3052 127.365Z" fill="#EDE3E2"/>
<path d="M53.2871 149.929L66.44 156.439V127.361L53.2871 120.852V149.929Z" fill="#C1977E"/>
<path d="M74.7768 130.987L74.1582 130.102L74.6387 130.269L74.8549 130.481L74.7768 130.987Z" fill="#C1977E"/>
<path d="M74.0528 133.054C74.8867 131.99 75.0349 130.717 74.3839 130.21C73.7329 129.704 72.5292 130.156 71.6954 131.22C70.8615 132.284 70.7133 133.557 71.3643 134.063C72.0153 134.57 73.219 134.118 74.0528 133.054Z" fill="#B8B8B8"/>
<path d="M70.959 138.699V133.09L74.7907 131.182V136.791L70.959 138.699Z" fill="#B8B8B8"/>
<path d="M74.5526 136.671L71.1953 138.343V132.973L74.5526 131.301V136.671Z" fill="#DBECFF"/>
<path d="M71.9316 135.167L74.6613 133.809V133.561L71.9316 134.922V135.167Z" fill="#B8B8B8"/>
<path d="M72.8759 130.463C71.948 130.924 71.1973 132.048 71.1973 132.97C71.1973 133.051 71.2093 133.122 71.2213 133.194L74.5305 131.546C74.5425 131.462 74.5545 131.378 74.5545 131.297C74.5545 130.376 73.8008 130.002 72.8759 130.463Z" fill="#DBECFF"/>
<path d="M73.0075 137.442L72.7402 137.574V130.502L73.0075 130.367V137.442Z" fill="#B8B8B8"/>
<path d="M75.6559 137.222L74.791 136.791V131.018L75.6559 131.448V137.222Z" fill="#C1977E"/>
<path d="M71.935 132.137H70.5176V139.535H71.935V132.137Z" fill="#E4C7B5"/>
<path d="M75.6562 137.222L71.9355 139.083V138.218L74.7913 136.791L75.6562 137.222Z" fill="#F7D8C4"/>
<path d="M73.7553 130.491C74.0736 130.333 74.3739 130.261 74.6382 130.27C74.3559 129.716 73.6742 129.564 72.8755 129.962C71.8244 130.485 70.9746 131.757 70.9746 132.804C70.9746 133.531 71.2659 133.898 71.8695 133.913C71.7794 133.74 71.8515 133.584 71.8515 133.333C71.8545 132.286 72.7043 131.015 73.7553 130.491Z" fill="#E4C7B5"/>
<path d="M74.6387 130.27C74.7258 130.443 74.7738 130.652 74.7768 130.898C74.7768 130.901 74.7768 130.904 74.7768 130.907C74.7768 130.913 74.7768 130.919 74.7768 130.925L74.7918 133.456C75.3113 132.857 75.6567 132.103 75.6567 131.436C75.6567 130.709 75.2423 130.284 74.6387 130.27Z" fill="#C1977E"/>
<path d="M74.4609 130.276C74.4609 130.276 75.1275 130.407 75.5059 130.775C75.5059 130.775 75.0254 129.878 73.8633 129.746L74.4609 130.276Z" fill="#E4C7B5"/>
<path d="M83.3374 126.69L82.7188 125.805L83.1992 125.972L83.4184 126.185L83.3374 126.69Z" fill="#C1977E"/>
<path d="M83.3532 126.885C83.3532 127.938 82.4944 129.221 81.4374 129.748C80.3803 130.274 79.5215 129.846 79.5215 128.793C79.5215 127.74 80.3803 126.457 81.4374 125.93C82.4944 125.404 83.3532 125.832 83.3532 126.885Z" fill="#B8B8B8"/>
<path d="M79.5215 134.402V128.796L83.3532 126.885V132.494L79.5215 134.402Z" fill="#B8B8B8"/>
<path d="M83.1151 132.377L79.7578 134.049V128.676L83.1151 127.004V132.377Z" fill="#DBECFF"/>
<path d="M80.4941 130.872L83.2268 129.511V129.266L80.4941 130.624V130.872Z" fill="#B8B8B8"/>
<path d="M81.4365 126.17C80.5085 126.63 79.7578 127.755 79.7578 128.677C79.7578 128.757 79.7698 128.829 79.7818 128.901L83.0911 127.253C83.1031 127.169 83.1151 127.085 83.1151 127.004C83.1151 126.08 82.3644 125.706 81.4365 126.17Z" fill="#DBECFF"/>
<path d="M81.57 133.146L81.3027 133.278V126.206L81.57 126.074V133.146Z" fill="#B8B8B8"/>
<path d="M84.2184 132.925L83.3535 132.494V126.721L84.2184 127.151V132.925Z" fill="#C1977E"/>
<path d="M80.4975 127.84H79.0801V135.238H80.4975V127.84Z" fill="#E4C7B5"/>
<path d="M84.2187 132.925L80.498 134.786V133.921L83.3538 132.494L84.2187 132.925Z" fill="#F7D8C4"/>
<path d="M82.3178 126.194C82.6361 126.036 82.9364 125.964 83.2007 125.973C82.9184 125.419 82.2368 125.267 81.438 125.665C80.3869 126.188 79.5371 127.46 79.5371 128.507C79.5371 129.234 79.8284 129.602 80.432 129.617C80.3419 129.443 80.414 129.287 80.414 129.036C80.417 127.989 81.2668 126.718 82.3178 126.194Z" fill="#E4C7B5"/>
<path d="M83.1992 125.973C83.2863 126.146 83.3343 126.356 83.3374 126.601C83.3374 126.604 83.3374 126.607 83.3374 126.61C83.3374 126.616 83.3374 126.622 83.3374 126.628L83.3524 129.159C83.8719 128.56 84.2172 127.806 84.2172 127.139C84.2172 126.412 83.8028 125.988 83.1992 125.973Z" fill="#C1977E"/>
<path d="M83.0234 125.979C83.0234 125.979 83.69 126.11 84.0684 126.478C84.0684 126.478 83.5879 125.581 82.4258 125.449L83.0234 125.979Z" fill="#E4C7B5"/>
<path d="M91.8999 122.396L91.2812 121.514L91.7617 121.678L91.9809 121.891L91.8999 122.396Z" fill="#C1977E"/>
<path d="M91.1778 124.466C92.0117 123.402 92.1599 122.129 91.5089 121.623C90.8579 121.116 89.6542 121.568 88.8204 122.632C87.9865 123.696 87.8383 124.969 88.4893 125.475C89.1403 125.982 90.344 125.53 91.1778 124.466Z" fill="#B8B8B8"/>
<path d="M88.082 130.111V124.502L91.9138 122.594V128.203L88.082 130.111Z" fill="#B8B8B8"/>
<path d="M91.6756 128.084L88.3184 129.756V124.383L91.6756 122.711V128.084Z" fill="#DBECFF"/>
<path d="M89.0586 126.579L91.7883 125.218V124.973L89.0586 126.334V126.579Z" fill="#B8B8B8"/>
<path d="M89.999 121.874C89.0711 122.335 88.3203 123.46 88.3203 124.381C88.3203 124.462 88.3323 124.534 88.3443 124.606L91.6536 122.957C91.6656 122.873 91.6776 122.79 91.6776 122.709C91.6776 121.788 90.9269 121.411 89.999 121.874Z" fill="#DBECFF"/>
<path d="M90.1344 128.851L89.8672 128.986V121.914L90.1344 121.779V128.851Z" fill="#B8B8B8"/>
<path d="M92.7789 128.634L91.9141 128.203V122.43L92.7789 122.86V128.634Z" fill="#C1977E"/>
<path d="M89.0619 123.547H87.6445V130.945H89.0619V123.547Z" fill="#E4C7B5"/>
<path d="M92.7801 128.634L89.0625 130.495V129.627L91.9153 128.203L92.7801 128.634Z" fill="#F7D8C4"/>
<path d="M90.8784 121.903C91.1967 121.745 91.497 121.673 91.7612 121.682C91.479 121.128 90.7973 120.976 89.9985 121.374C88.9475 121.897 88.0977 123.169 88.0977 124.216C88.0977 124.943 88.3889 125.311 88.9925 125.326C88.9024 125.152 88.9745 124.996 88.9745 124.745C88.9775 123.698 89.8304 122.424 90.8784 121.903Z" fill="#E4C7B5"/>
<path d="M91.7617 121.678C91.8488 121.851 91.8968 122.061 91.8999 122.306C91.8999 122.309 91.8999 122.312 91.8999 122.315C91.8999 122.321 91.8999 122.327 91.8999 122.333L91.9149 124.864C92.4344 124.265 92.7797 123.512 92.7797 122.844C92.7797 122.12 92.3683 121.693 91.7617 121.678Z" fill="#C1977E"/>
<path d="M91.5839 121.684C91.5839 121.684 92.2506 121.815 92.6289 122.183C92.6289 122.183 92.1485 121.286 90.9863 121.154L91.5839 121.684Z" fill="#E4C7B5"/>
<path d="M100.461 118.102L99.8457 117.217L100.323 117.384L100.542 117.597L100.461 118.102Z" fill="#C1977E"/>
<path d="M99.7384 120.171C100.572 119.107 100.72 117.834 100.069 117.328C99.4185 116.821 98.2148 117.273 97.3809 118.337C96.5471 119.401 96.3988 120.674 97.0498 121.18C97.7008 121.687 98.9045 121.235 99.7384 120.171Z" fill="#B8B8B8"/>
<path d="M96.6445 125.815V120.205L100.479 118.297V123.906L96.6445 125.815Z" fill="#B8B8B8"/>
<path d="M100.239 123.786L96.8848 125.458V120.088L100.239 118.416V123.786Z" fill="#DBECFF"/>
<path d="M97.6211 122.282L100.351 120.924V120.676L97.6211 122.037V122.282Z" fill="#B8B8B8"/>
<path d="M98.5595 117.578C97.6316 118.039 96.8809 119.164 96.8809 120.085C96.8809 120.166 96.8929 120.238 96.9049 120.309L100.214 118.661C100.226 118.577 100.238 118.493 100.238 118.413C100.238 117.491 99.4874 117.117 98.5595 117.578Z" fill="#DBECFF"/>
<path d="M98.695 124.557L98.4277 124.689V117.617L98.695 117.482V124.557Z" fill="#B8B8B8"/>
<path d="M101.34 124.337L100.479 123.906V118.133L101.34 118.564V124.337Z" fill="#C1977E"/>
<path d="M97.6225 119.252H96.2051V126.65H97.6225V119.252Z" fill="#E4C7B5"/>
<path d="M101.341 124.337L97.623 126.198V125.333L100.479 123.906L101.341 124.337Z" fill="#F7D8C4"/>
<path d="M99.4389 117.606C99.7572 117.448 100.058 117.376 100.322 117.385C100.039 116.832 99.3578 116.679 98.5591 117.077C97.508 117.6 96.6582 118.872 96.6582 119.919C96.6582 120.646 96.9495 121.014 97.5531 121.029C97.463 120.855 97.5351 120.7 97.5351 120.448C97.5381 119.401 98.3909 118.13 99.4389 117.606Z" fill="#E4C7B5"/>
<path d="M100.322 117.385C100.409 117.558 100.457 117.768 100.46 118.013C100.46 118.016 100.46 118.019 100.46 118.022C100.46 118.028 100.46 118.034 100.46 118.04L100.475 120.571C100.995 119.972 101.34 119.219 101.34 118.551C101.34 117.825 100.929 117.4 100.322 117.385Z" fill="#C1977E"/>
<path d="M100.148 117.391C100.148 117.391 100.815 117.522 101.193 117.89C101.193 117.89 100.713 116.993 99.5508 116.861L100.148 117.391Z" fill="#E4C7B5"/>
<path d="M109.025 113.807L108.406 112.922L108.887 113.089L109.103 113.302L109.025 113.807Z" fill="#C1977E"/>
<path d="M108.301 115.874C109.135 114.81 109.283 113.537 108.632 113.031C107.981 112.524 106.777 112.976 105.943 114.04C105.11 115.104 104.961 116.377 105.612 116.884C106.263 117.39 107.467 116.938 108.301 115.874Z" fill="#B8B8B8"/>
<path d="M105.207 121.52V115.914L109.039 114.002V119.611L105.207 121.52Z" fill="#B8B8B8"/>
<path d="M108.801 119.494L105.443 121.166V115.793L108.801 114.121V119.494Z" fill="#DBECFF"/>
<path d="M106.18 117.989L108.909 116.628V116.383L106.18 117.744V117.989Z" fill="#B8B8B8"/>
<path d="M107.124 113.287C106.196 113.748 105.445 114.872 105.445 115.797C105.445 115.878 105.457 115.949 105.469 116.021L108.779 114.373C108.791 114.289 108.803 114.205 108.803 114.125C108.803 113.197 108.049 112.823 107.124 113.287Z" fill="#DBECFF"/>
<path d="M107.256 120.261L106.988 120.393V113.321L107.256 113.189V120.261Z" fill="#B8B8B8"/>
<path d="M109.904 120.042L109.039 119.612V113.838L109.904 114.269V120.042Z" fill="#C1977E"/>
<path d="M106.183 114.955H104.766V122.353H106.183V114.955Z" fill="#E4C7B5"/>
<path d="M109.904 120.042L106.184 121.903V121.038L109.039 119.611L109.904 120.042Z" fill="#F7D8C4"/>
<path d="M108.003 113.311C108.322 113.153 108.622 113.081 108.886 113.09C108.604 112.537 107.922 112.384 107.124 112.782C106.072 113.305 105.223 114.577 105.223 115.624C105.223 116.351 105.514 116.719 106.118 116.734C106.027 116.56 106.1 116.405 106.1 116.153C106.103 115.106 106.952 113.835 108.003 113.311Z" fill="#E4C7B5"/>
<path d="M108.887 113.09C108.974 113.263 109.022 113.473 109.025 113.718C109.025 113.721 109.025 113.724 109.025 113.727C109.025 113.733 109.025 113.739 109.025 113.745L109.04 116.276C109.559 115.678 109.905 114.924 109.905 114.257C109.905 113.53 109.49 113.105 108.887 113.09Z" fill="#C1977E"/>
<path d="M108.709 113.096C108.709 113.096 109.376 113.228 109.754 113.595C109.754 113.595 109.273 112.698 108.111 112.566L108.709 113.096Z" fill="#E4C7B5"/>
<path opacity="0.05" d="M66.4395 139.311L71.9348 136.79V138.217L75.6555 137.22V135.644L80.4932 133.278L80.4962 133.921L84.2168 132.925V131.351L89.0605 128.985V129.625L92.7782 128.632V127.244L97.6219 124.865V125.332L101.34 124.336V122.708L106.183 120.57V121.036L109.904 120.04V118.721L113.213 117.177L113.246 113.189L72.154 133.684L66.4395 130.771V139.311Z" fill="black"/>
<path d="M83.7824 147.803L79.6504 149.861V141.505L83.7824 139.447V147.803Z" fill="#69504C"/>
<path d="M83.1523 139.761V147.542L83.783 147.803V139.447L83.1523 139.761Z" fill="#C1977E"/>
<path d="M79.6504 149.861L83.7824 147.803L83.1518 147.543L79.6504 149.236V149.861Z" fill="#F2EAE8"/>
<path d="M92.9387 143.249L88.8066 145.307V136.949L92.9387 134.891V143.249Z" fill="#69504C"/>
<path d="M92.3086 135.205V142.989L92.9392 143.249V134.891L92.3086 135.205Z" fill="#C1977E"/>
<path d="M88.8066 145.307L92.9387 143.249L92.3081 142.988L88.8066 144.678V145.307Z" fill="#F2EAE8"/>
<path d="M101.437 138.986L97.3047 141.122V132.763L101.437 130.705V138.986Z" fill="#69504C"/>
<path d="M100.807 131.019V138.803L101.437 138.986V130.705L100.807 131.019Z" fill="#C1977E"/>
<path d="M97.3047 141.121L101.512 139.006L100.806 138.803L97.3047 140.493V141.121Z" fill="#F2EAE8"/>
<path opacity="0.05" d="M95.0006 145.211H92.2019L89.7155 144.227L89.4902 136.61L89.8266 136.443L89.8656 130.089L91.7605 129.158L91.8836 135.416L91.5713 135.575L91.8926 143.188L93.1658 143.724L94.4841 143.742L94.0757 143.945V144.765L95.0006 145.211Z" fill="black"/>
<path opacity="0.05" d="M86.343 149.633L82.9466 149.764L80.283 148.894L80.25 141.2L80.6044 141.026L80.6134 134.729L82.6493 133.709L82.6403 140.03L82.7364 139.961L82.8295 147.697L84.1808 148.242L85.7634 148.128L85.355 148.335V149.139L86.343 149.633Z" fill="black"/>
<path d="M97.1672 119.092L99.4825 120.238L98.984 120.279L96.957 119.277L97.1672 119.092Z" fill="#E0DCD1"/>
<path d="M96.6827 146.071L94.0762 144.77V143.965L96.6827 145.266V146.071Z" fill="#C1977E"/>
<path d="M96.6827 145.263L94.0762 143.964L96.6827 142.666L99.2923 143.964L96.6827 145.263Z" fill="#F0F0F0"/>
<path d="M99.2931 144.77L96.6836 146.071V145.266L99.2931 143.965V144.77Z" fill="#E4C7B5"/>
<path d="M96.6825 145.016L94.4844 143.921V143.242L96.6825 144.337V145.016Z" fill="#C1977E"/>
<path d="M96.6825 144.337L94.4844 143.242L96.6825 142.145L98.8837 143.242L96.6825 144.337Z" fill="#F0F0F0"/>
<path d="M98.8828 143.921L96.6816 145.016V144.337L98.8828 143.242V143.921Z" fill="#E4C7B5"/>
<path d="M96.6828 142.031H95.2324V143.147H98.1363V142.031H96.6828Z" fill="#E6E6E6"/>
<path d="M97.7082 142.635C98.2757 142.916 98.2757 143.377 97.7082 143.658C97.1406 143.939 96.2217 143.939 95.6542 143.658C95.0866 143.377 95.0866 142.916 95.6542 142.635C96.2217 142.354 97.1406 142.354 97.7082 142.635Z" fill="#E6E6E6"/>
<path d="M96.6819 142.755C97.4846 142.755 98.1354 142.43 98.1354 142.031C98.1354 141.631 97.4846 141.307 96.6819 141.307C95.8792 141.307 95.2285 141.631 95.2285 142.031C95.2285 142.43 95.8792 142.755 96.6819 142.755Z" fill="#F0F0F0"/>
<path d="M96.6807 122.781H95.3984V141.78H97.9629V122.781H96.6807Z" fill="#E6E6E6"/>
<path d="M97.5883 141.329C98.0898 141.577 98.0898 141.984 97.5883 142.232C97.0868 142.481 96.276 142.481 95.7746 142.232C95.2731 141.984 95.2731 141.577 95.7746 141.329C96.276 141.081 97.0868 141.081 97.5883 141.329Z" fill="#E6E6E6"/>
<path d="M96.6807 123.421C97.3889 123.421 97.9629 123.134 97.9629 122.781C97.9629 122.427 97.3889 122.141 96.6807 122.141C95.9725 122.141 95.3984 122.427 95.3984 122.781C95.3984 123.134 95.9725 123.421 96.6807 123.421Z" fill="#D9CBBC"/>
<path d="M96.6828 121.918H95.2324V123.034H98.1363V121.918H96.6828Z" fill="#D9D9D9"/>
<path d="M97.7082 122.522C98.2757 122.803 98.2757 123.264 97.7082 123.545C97.1406 123.826 96.2217 123.826 95.6542 123.545C95.0866 123.264 95.0866 122.803 95.6542 122.522C96.2217 122.238 97.1406 122.238 97.7082 122.522Z" fill="#D9D9D9"/>
<path d="M96.6819 122.641C97.4846 122.641 98.1354 122.317 98.1354 121.917C98.1354 121.517 97.4846 121.193 96.6819 121.193C95.8792 121.193 95.2285 121.517 95.2285 121.917C95.2285 122.317 95.8792 122.641 96.6819 122.641Z" fill="#D9CBBC"/>
<path d="M96.6825 123.141L94.4844 122.046V121.193L96.6825 122.288V123.141Z" fill="#C1977E"/>
<path d="M96.6825 122.287L94.4844 121.193L96.6825 120.098L98.8837 121.193L96.6825 122.287Z" fill="#D9CBBC"/>
<path d="M98.8828 122.046L96.6816 123.141V122.288L98.8828 121.193V122.046Z" fill="#E8CBB8"/>
<path d="M99.2912 121.143L96.6816 122.441V121.636L99.2912 120.338V121.143Z" fill="#F0ECE0"/>
<path d="M95.1968 120.545C95.1968 120.937 94.8785 121.413 94.4851 121.607C94.0918 121.802 93.7734 121.643 93.7734 121.254C93.7734 120.863 94.0918 120.387 94.4851 120.192C94.8785 119.998 95.1968 120.157 95.1968 120.545Z" fill="#D1CDC3"/>
<path d="M97.3492 119.475C97.3492 119.867 97.0309 120.343 96.6375 120.537C96.2441 120.732 95.9258 120.573 95.9258 120.184C95.9258 119.792 96.2441 119.317 96.6375 119.122C97.0309 118.925 97.3492 119.083 97.3492 119.475Z" fill="#E0DCD1"/>
<path d="M94.4844 121.222V120.193L96.6375 119.119V120.151L94.4844 121.222Z" fill="#E0DCD1"/>
<path d="M94.4844 120.193L96.8297 121.354L98.9828 120.28L96.6375 119.119L94.4844 120.193Z" fill="#D9D9D9"/>
<path d="M93.9688 121.644L96.314 122.808L96.8305 121.354L94.4853 120.193L93.9688 121.644Z" fill="#D9D9D9"/>
<path d="M98.9839 120.28L96.8308 121.354C96.4375 121.549 96.1191 122.024 96.1191 122.416C96.1191 122.808 96.4375 122.967 96.8308 122.769C97.1071 122.632 97.3413 122.356 97.4615 122.069L98.3563 121.624C98.4734 121.794 98.7107 121.833 98.9869 121.695C99.3803 121.501 99.6986 121.025 99.6986 120.633C99.6956 120.244 99.3773 120.086 98.9839 120.28Z" fill="#F2F2F2"/>
<path d="M99.4474 120.381C99.4774 120.438 99.4864 120.507 99.4864 120.557C99.4864 120.892 99.1981 121.323 98.8558 121.494C98.7657 121.539 98.6816 121.563 98.6066 121.563C98.5375 121.563 98.4834 121.536 98.4414 121.497L98.4744 121.545C98.5165 121.607 98.5855 121.637 98.6726 121.637C98.7477 121.637 98.8348 121.613 98.9219 121.568C99.2642 121.398 99.5525 120.97 99.5525 120.632C99.5525 120.554 99.5345 120.441 99.4474 120.381Z" fill="#C9C9C9"/>
<path d="M97.2808 121.888L97.2598 121.939C97.1487 122.208 96.9355 122.447 96.6982 122.564C96.6081 122.609 96.521 122.633 96.443 122.633C96.3799 122.633 96.3349 122.615 96.2988 122.591C96.3319 122.657 96.3949 122.711 96.512 122.711C96.5871 122.711 96.6742 122.687 96.7673 122.642C97.0045 122.525 97.2177 122.283 97.3288 122.016L97.3499 121.966L98.3919 121.445L98.3348 121.361L97.2808 121.888Z" fill="#C9C9C9"/>
<path d="M98.8522 121.491C99.1945 121.32 99.4828 120.892 99.4828 120.554C99.4828 120.503 99.4738 120.435 99.4438 120.378C99.4077 120.354 99.3627 120.336 99.2996 120.336C99.2246 120.336 99.1375 120.36 99.0474 120.405L96.8943 121.479C96.552 121.649 96.2637 122.077 96.2637 122.415C96.2637 122.466 96.2727 122.535 96.3027 122.592C96.3387 122.615 96.3838 122.633 96.4469 122.633C96.5219 122.633 96.609 122.609 96.7021 122.565C96.9393 122.448 97.1525 122.206 97.2637 121.939L97.2847 121.889L98.2907 121.386L98.3958 121.446L98.4438 121.494C98.4858 121.533 98.5369 121.559 98.609 121.559C98.678 121.559 98.7621 121.536 98.8522 121.491Z" fill="#E6E6E6"/>
<path opacity="0.05" d="M96.2983 122.948V123.729L96.6827 123.756V142.42L96.4275 142.746V143.859L96.2983 144.131L95.7488 144.553L95.5386 144.693L95.0011 145.232L94.0762 144.771V143.966L94.4846 143.763V143.245L95.2323 142.874V142.037C95.2323 142.037 95.2353 141.777 95.4185 141.684L95.4005 123.376C95.4005 123.376 95.2053 123.175 95.2323 123.038V122.445L96.2983 122.948Z" fill="black"/>
<path d="M74.7006 143.043L74.082 142.16L74.5625 142.325L74.7817 142.54L74.7006 143.043Z" fill="#C1977E"/>
<path d="M73.9786 145.112C74.8124 144.048 74.9607 142.775 74.3097 142.269C73.6587 141.763 72.455 142.215 71.6211 143.279C70.7873 144.343 70.6391 145.616 71.29 146.122C71.941 146.628 73.1447 146.176 73.9786 145.112Z" fill="#B8B8B8"/>
<path d="M70.8848 150.758V145.149L74.7165 143.24V148.849L70.8848 150.758Z" fill="#B8B8B8"/>
<path d="M74.4784 148.73L71.1211 150.402V145.03L74.4784 143.357V148.73Z" fill="#DBECFF"/>
<path d="M71.8613 147.226L74.591 145.864V145.619L71.8613 146.98V147.226Z" fill="#B8B8B8"/>
<path d="M72.7997 142.521C71.8718 142.982 71.1211 144.107 71.1211 145.028C71.1211 145.109 71.1331 145.181 71.1451 145.253L74.4543 143.604C74.4664 143.521 74.4784 143.437 74.4784 143.356C74.4784 142.435 73.7276 142.061 72.7997 142.521Z" fill="#DBECFF"/>
<path d="M72.9352 149.498L72.668 149.632V142.56L72.9352 142.426V149.498Z" fill="#B8B8B8"/>
<path d="M75.5816 149.281L74.7168 148.85V143.076L75.5816 143.507V149.281Z" fill="#C1977E"/>
<path d="M71.8607 144.195H70.4434V151.593H71.8607V144.195Z" fill="#E4C7B5"/>
<path d="M75.58 149.28L71.8594 151.141V150.274L74.7152 148.85L75.58 149.28Z" fill="#F7D8C4"/>
<path d="M73.6792 142.55C73.9975 142.391 74.2978 142.319 74.562 142.328C74.2797 141.775 73.5981 141.622 72.7993 142.02C71.7483 142.544 70.8984 143.815 70.8984 144.862C70.8984 145.589 71.1897 145.957 71.7933 145.972C71.7032 145.799 71.7753 145.643 71.7753 145.392C71.7783 144.345 72.6281 143.073 73.6792 142.55Z" fill="#E4C7B5"/>
<path d="M74.5625 142.324C74.6496 142.498 74.6976 142.707 74.7006 142.952C74.7006 142.955 74.7006 142.958 74.7006 142.961C74.7006 142.967 74.7006 142.973 74.7006 142.979L74.7156 145.51C75.2352 144.912 75.5805 144.158 75.5805 143.491C75.5805 142.767 75.1661 142.339 74.5625 142.324Z" fill="#C1977E"/>
<path d="M74.3866 142.334C74.3866 142.334 75.0533 142.466 75.4317 142.834C75.4317 142.834 74.9512 141.936 73.7891 141.805L74.3866 142.334Z" fill="#E4C7B5"/>
<path d="M109.195 125.563L108.576 124.678L109.057 124.845L109.276 125.058L109.195 125.563Z" fill="#C1977E"/>
<path d="M108.473 127.63C109.307 126.566 109.455 125.293 108.804 124.787C108.153 124.28 106.949 124.732 106.115 125.796C105.281 126.86 105.133 128.133 105.784 128.639C106.435 129.146 107.639 128.694 108.473 127.63Z" fill="#B8B8B8"/>
<path d="M105.379 133.274V127.664L109.211 125.756V131.365L105.379 133.274Z" fill="#B8B8B8"/>
<path d="M108.973 131.245L105.615 132.917V127.547L108.973 125.875V131.245Z" fill="#DBECFF"/>
<path d="M106.355 129.74L109.085 128.382V128.137L106.355 129.495V129.74Z" fill="#B8B8B8"/>
<path d="M107.294 125.039C106.366 125.5 105.615 126.624 105.615 127.549C105.615 127.63 105.627 127.701 105.639 127.773L108.948 126.125C108.961 126.041 108.973 125.957 108.973 125.877C108.973 124.952 108.222 124.578 107.294 125.039Z" fill="#DBECFF"/>
<path d="M107.429 132.017L107.162 132.149V125.077L107.429 124.945V132.017Z" fill="#B8B8B8"/>
<path d="M110.076 131.796L109.211 131.365V125.592L110.076 126.023V131.796Z" fill="#C1977E"/>
<path d="M106.355 126.711H104.938V134.109H106.355V126.711Z" fill="#E4C7B5"/>
<path d="M110.076 131.796L106.355 133.657V132.792L109.211 131.365L110.076 131.796Z" fill="#F7D8C4"/>
<path d="M108.175 125.065C108.494 124.907 108.794 124.835 109.058 124.844C108.776 124.291 108.094 124.138 107.295 124.536C106.244 125.059 105.395 126.331 105.395 127.378C105.395 128.105 105.686 128.473 106.289 128.488C106.199 128.314 106.271 128.159 106.271 127.907C106.274 126.86 107.124 125.589 108.175 125.065Z" fill="#E4C7B5"/>
<path d="M109.057 124.844C109.144 125.017 109.192 125.227 109.195 125.472C109.195 125.475 109.195 125.478 109.195 125.481C109.195 125.487 109.195 125.493 109.195 125.499L109.21 128.03C109.729 127.431 110.075 126.678 110.075 126.01C110.075 125.284 109.66 124.859 109.057 124.844Z" fill="#C1977E"/>
<path d="M108.881 124.85C108.881 124.85 109.547 124.981 109.926 125.349C109.926 125.349 109.445 124.452 108.283 124.32L108.881 124.85Z" fill="#E4C7B5"/>
<path opacity="0.05" d="M106.355 132.818L110.076 131.821L110.049 126.359C110.049 126.359 110.13 125.653 109.926 125.375C109.926 125.375 109.415 124.89 108.881 124.875C108.346 124.863 106.355 132.818 106.355 132.818Z" fill="black"/>
<path opacity="0.05" d="M71.8594 150.273L75.58 149.276L75.553 143.814C75.553 143.814 75.6341 143.108 75.4299 142.83C75.4299 142.83 74.9194 142.345 74.3848 142.33C73.8503 142.318 71.8594 150.273 71.8594 150.273Z" fill="black"/>
<path d="M88.4465 123.459L90.7618 124.605L90.2633 124.65L88.2363 123.644L88.4465 123.459Z" fill="#E0DCD1"/>
<path d="M87.962 150.437L85.3555 149.139V148.334L87.962 149.632V150.437Z" fill="#C1977E"/>
<path d="M87.962 149.633L85.3555 148.335L87.962 147.033L90.5716 148.335L87.962 149.633Z" fill="#F0F0F0"/>
<path d="M90.5724 149.139L87.9629 150.437V149.632L90.5724 148.334V149.139Z" fill="#E4C7B5"/>
<path d="M87.9618 149.385L85.7637 148.29V147.611L87.9618 148.706V149.385Z" fill="#C1977E"/>
<path d="M87.9618 148.705L85.7637 147.611L87.9618 146.516L90.163 147.611L87.9618 148.705Z" fill="#F0F0F0"/>
<path d="M90.1621 148.29L87.9609 149.385V148.706L90.1621 147.611V148.29Z" fill="#E4C7B5"/>
<path d="M87.9612 146.402H86.5078V147.518H89.4147V146.402H87.9612Z" fill="#E6E6E6"/>
<path d="M87.9612 148.241C88.7639 148.241 89.4147 147.917 89.4147 147.517C89.4147 147.117 88.7639 146.793 87.9612 146.793C87.1585 146.793 86.5078 147.117 86.5078 147.517C86.5078 147.917 87.1585 148.241 87.9612 148.241Z" fill="#E6E6E6"/>
<path d="M87.9612 147.126C88.7639 147.126 89.4147 146.802 89.4147 146.402C89.4147 146.002 88.7639 145.678 87.9612 145.678C87.1585 145.678 86.5078 146.002 86.5078 146.402C86.5078 146.802 87.1585 147.126 87.9612 147.126Z" fill="#F0F0F0"/>
<path d="M87.9619 127.148H86.6797V146.151H89.2442V127.148H87.9619Z" fill="#E6E6E6"/>
<path d="M87.9619 146.79C88.6701 146.79 89.2442 146.504 89.2442 146.15C89.2442 145.796 88.6701 145.51 87.9619 145.51C87.2538 145.51 86.6797 145.796 86.6797 146.15C86.6797 146.504 87.2538 146.79 87.9619 146.79Z" fill="#E6E6E6"/>
<path d="M87.9619 127.788C88.6701 127.788 89.2442 127.502 89.2442 127.148C89.2442 126.794 88.6701 126.508 87.9619 126.508C87.2538 126.508 86.6797 126.794 86.6797 127.148C86.6797 127.502 87.2538 127.788 87.9619 127.788Z" fill="#D9CBBC"/>
<path d="M87.9612 126.285H86.5078V127.401H89.4147V126.285H87.9612Z" fill="#D9D9D9"/>
<path d="M87.9612 128.124C88.7639 128.124 89.4147 127.8 89.4147 127.4C89.4147 127 88.7639 126.676 87.9612 126.676C87.1585 126.676 86.5078 127 86.5078 127.4C86.5078 127.8 87.1585 128.124 87.9612 128.124Z" fill="#D9D9D9"/>
<path d="M87.9612 127.008C88.7639 127.008 89.4147 126.684 89.4147 126.284C89.4147 125.885 88.7639 125.561 87.9612 125.561C87.1585 125.561 86.5078 125.885 86.5078 126.284C86.5078 126.684 87.1585 127.008 87.9612 127.008Z" fill="#D9CBBC"/>
<path d="M87.9618 127.508L85.7637 126.413V125.561L87.9618 126.658V127.508Z" fill="#C1977E"/>
<path d="M87.9618 126.658L85.7637 125.56L87.9618 124.465L90.163 125.56L87.9618 126.658Z" fill="#D9CBBC"/>
<path d="M90.1621 126.413L87.9609 127.508V126.658L90.1621 125.561V126.413Z" fill="#E8CBB8"/>
<path d="M90.5705 125.51L87.9609 126.811V126.003L90.5705 124.705V125.51Z" fill="#F0ECE0"/>
<path d="M86.4761 124.916C86.4761 125.308 86.1578 125.784 85.7644 125.978C85.371 126.173 85.0527 126.014 85.0527 125.625C85.0527 125.234 85.371 124.758 85.7644 124.563C86.1578 124.366 86.4761 124.525 86.4761 124.916Z" fill="#D1CDC3"/>
<path d="M88.6285 123.842C88.6285 124.234 88.3102 124.71 87.9168 124.904C87.5234 125.099 87.2051 124.94 87.2051 124.551C87.2051 124.159 87.5234 123.684 87.9168 123.489C88.3102 123.292 88.6285 123.45 88.6285 123.842Z" fill="#E0DCD1"/>
<path d="M85.7637 125.591V124.559L87.9168 123.488V124.517L85.7637 125.591Z" fill="#E0DCD1"/>
<path d="M85.7637 124.559L88.109 125.72L90.2621 124.649L87.9168 123.488L85.7637 124.559Z" fill="#D9D9D9"/>
<path d="M85.248 126.014L87.5933 127.175L88.1098 125.721L85.7646 124.561L85.248 126.014Z" fill="#D9D9D9"/>
<path d="M90.2632 124.649L88.1101 125.723C87.7167 125.918 87.3984 126.393 87.3984 126.785C87.3984 127.177 87.7167 127.336 88.1101 127.138C88.3864 127.001 88.6236 126.726 88.7407 126.438L89.6356 125.993C89.7527 126.163 89.99 126.202 90.2662 126.064C90.6596 125.87 90.9779 125.394 90.9779 125.002C90.9749 124.611 90.6566 124.452 90.2632 124.649Z" fill="#F2F2F2"/>
<path d="M90.7267 124.748C90.7567 124.805 90.7657 124.874 90.7657 124.925C90.7657 125.26 90.4774 125.69 90.1351 125.861C90.045 125.906 89.9609 125.93 89.8859 125.93C89.8168 125.93 89.7627 125.903 89.7207 125.864L89.7537 125.912C89.7958 125.975 89.8648 126.004 89.9519 126.004C90.027 126.004 90.1141 125.981 90.2012 125.936C90.5435 125.765 90.8318 125.337 90.8318 124.999C90.8318 124.925 90.8138 124.808 90.7267 124.748Z" fill="#C9C9C9"/>
<path d="M88.5601 126.257L88.5391 126.308C88.4279 126.577 88.2147 126.816 87.9775 126.933C87.8874 126.978 87.8003 127.002 87.7223 127.002C87.6592 127.002 87.6142 126.984 87.5781 126.96C87.6112 127.026 87.6742 127.08 87.7913 127.08C87.8664 127.08 87.9535 127.056 88.0466 127.011C88.2838 126.894 88.497 126.652 88.6081 126.386L88.6292 126.335L89.6712 125.814L89.6141 125.73L88.5601 126.257Z" fill="#C9C9C9"/>
<path d="M90.1315 125.862C90.4738 125.691 90.7621 125.263 90.7621 124.925C90.7621 124.875 90.7531 124.806 90.7231 124.749C90.687 124.725 90.642 124.707 90.5789 124.707C90.5039 124.707 90.4168 124.731 90.3267 124.776L88.1736 125.85C87.8313 126.02 87.543 126.448 87.543 126.786C87.543 126.837 87.552 126.906 87.582 126.963C87.618 126.987 87.6631 127.005 87.7262 127.005C87.8012 127.005 87.8883 126.981 87.9814 126.936C88.2186 126.819 88.4318 126.577 88.543 126.31L88.564 126.26L89.5699 125.757L89.6751 125.817L89.7231 125.865C89.7651 125.904 89.8162 125.931 89.8883 125.931C89.9573 125.928 90.0414 125.907 90.1315 125.862Z" fill="#E6E6E6"/>
<path opacity="0.05" d="M87.5776 127.315V128.096L87.962 128.123V146.787L87.7068 147.113V148.229L87.5776 148.501L87.0281 148.923L86.8179 149.063L86.2804 149.602L85.3555 149.141V148.336L85.7639 148.133V147.615L86.5116 147.244V146.407C86.5116 146.407 86.5146 146.147 86.6978 146.054L86.6798 127.749C86.6798 127.749 86.4846 127.548 86.5116 127.411V126.818L87.5776 127.315Z" fill="black"/>
<path d="M106.787 114.521L109.103 115.667L108.601 115.709L106.574 114.707L106.787 114.521Z" fill="#E0DCD1"/>
<path d="M106.303 141.501L103.693 140.202V139.395L106.303 140.696V141.501Z" fill="#C1977E"/>
<path d="M106.303 140.695L103.693 139.394L106.303 138.096L108.909 139.394L106.303 140.695Z" fill="#F0F0F0"/>
<path d="M108.909 140.202L106.303 141.501V140.696L108.909 139.395V140.202Z" fill="#E4C7B5"/>
<path d="M106.303 140.448L104.102 139.353V138.674L106.303 139.769V140.448Z" fill="#C1977E"/>
<path d="M106.303 139.768L104.102 138.673L106.303 137.578L108.501 138.673L106.303 139.768Z" fill="#F0F0F0"/>
<path d="M108.501 139.353L106.303 140.448V139.769L108.501 138.674V139.353Z" fill="#E4C7B5"/>
<path d="M106.303 137.461H104.85V138.58H107.753V137.461H106.303Z" fill="#E6E6E6"/>
<path d="M107.329 138.069C107.897 138.35 107.897 138.811 107.329 139.092C106.762 139.373 105.843 139.373 105.275 139.092C104.708 138.811 104.708 138.35 105.275 138.069C105.843 137.784 106.762 137.784 107.329 138.069Z" fill="#E6E6E6"/>
<path d="M107.329 136.949C107.897 137.23 107.897 137.691 107.329 137.972C106.762 138.253 105.843 138.253 105.275 137.972C104.708 137.691 104.708 137.23 105.275 136.949C105.843 136.668 106.762 136.668 107.329 136.949Z" fill="#F0F0F0"/>
<path d="M106.303 118.211H105.018V137.21H107.585V118.211H106.303Z" fill="#E6E6E6"/>
<path d="M106.304 137.851C107.012 137.851 107.586 137.564 107.586 137.21C107.586 136.857 107.012 136.57 106.304 136.57C105.596 136.57 105.021 136.857 105.021 137.21C105.021 137.564 105.596 137.851 106.304 137.851Z" fill="#E6E6E6"/>
<path d="M106.304 118.851C107.012 118.851 107.586 118.564 107.586 118.211C107.586 117.857 107.012 117.57 106.304 117.57C105.596 117.57 105.021 117.857 105.021 118.211C105.021 118.564 105.596 118.851 106.304 118.851Z" fill="#D9CBBC"/>
<path d="M106.303 117.346H104.85V118.462H107.753V117.346H106.303Z" fill="#D9D9D9"/>
<path d="M107.329 117.949C107.897 118.23 107.897 118.691 107.329 118.972C106.762 119.253 105.843 119.253 105.275 118.972C104.708 118.691 104.708 118.23 105.275 117.949C105.843 117.668 106.762 117.668 107.329 117.949Z" fill="#D9D9D9"/>
<path d="M107.329 116.834C107.897 117.115 107.897 117.576 107.329 117.857C106.762 118.138 105.843 118.138 105.275 117.857C104.708 117.576 104.708 117.115 105.275 116.834C105.843 116.553 106.762 116.553 107.329 116.834Z" fill="#D9CBBC"/>
<path d="M106.303 118.571L104.102 117.476V116.623L106.303 117.721V118.571Z" fill="#C1977E"/>
<path d="M106.303 117.717L104.102 116.622L106.303 115.527L108.501 116.622L106.303 117.717Z" fill="#D9CBBC"/>
<path d="M108.501 117.476L106.303 118.571V117.721L108.501 116.623V117.476Z" fill="#E8CBB8"/>
<path d="M108.909 116.572L106.303 117.871V117.066L108.909 115.768V116.572Z" fill="#F0ECE0"/>
<path d="M104.814 115.979C104.814 116.371 104.496 116.847 104.102 117.041C103.709 117.235 103.391 117.077 103.391 116.688C103.391 116.299 103.709 115.82 104.102 115.626C104.496 115.429 104.814 115.587 104.814 115.979Z" fill="#D1CDC3"/>
<path d="M106.97 114.905C106.97 115.297 106.652 115.772 106.259 115.967C105.865 116.161 105.547 116.003 105.547 115.614C105.547 115.225 105.865 114.746 106.259 114.552C106.652 114.354 106.97 114.513 106.97 114.905Z" fill="#E0DCD1"/>
<path d="M104.105 116.654V115.622L106.259 114.551V115.58L104.105 116.654Z" fill="#E0DCD1"/>
<path d="M104.105 115.622L106.448 116.782L108.601 115.709L106.259 114.551L104.105 115.622Z" fill="#D9D9D9"/>
<path d="M103.586 117.074L105.934 118.238L106.448 116.784L104.105 115.623L103.586 117.074Z" fill="#D9D9D9"/>
<path d="M108.601 115.709L106.448 116.783C106.055 116.977 105.736 117.453 105.736 117.845C105.736 118.236 106.055 118.395 106.448 118.198C106.724 118.06 106.959 117.785 107.079 117.498L107.974 117.052C108.091 117.222 108.328 117.261 108.604 117.124C108.998 116.929 109.316 116.454 109.316 116.062C109.316 115.67 108.995 115.514 108.601 115.709Z" fill="#F2F2F2"/>
<path d="M109.063 115.811C109.093 115.867 109.102 115.936 109.102 115.987C109.102 116.322 108.813 116.753 108.471 116.923C108.381 116.968 108.297 116.992 108.222 116.992C108.153 116.992 108.099 116.965 108.057 116.926L108.09 116.974C108.132 117.037 108.201 117.067 108.288 117.067C108.363 117.067 108.45 117.043 108.537 116.998C108.879 116.828 109.168 116.4 109.168 116.062C109.171 115.984 109.153 115.87 109.063 115.811Z" fill="#C9C9C9"/>
<path d="M106.898 117.319L106.877 117.37C106.766 117.64 106.553 117.879 106.315 117.996C106.225 118.04 106.138 118.064 106.06 118.064C105.997 118.064 105.952 118.046 105.916 118.022C105.949 118.088 106.012 118.142 106.129 118.142C106.204 118.142 106.291 118.118 106.384 118.073C106.622 117.957 106.835 117.714 106.946 117.448L106.967 117.397L108.009 116.877L107.952 116.793L106.898 117.319Z" fill="#C9C9C9"/>
<path d="M108.471 116.924C108.814 116.754 109.102 116.326 109.102 115.988C109.102 115.937 109.093 115.868 109.063 115.811C109.027 115.787 108.982 115.77 108.919 115.77C108.844 115.77 108.757 115.793 108.667 115.838L106.513 116.912C106.171 117.083 105.883 117.511 105.883 117.849C105.883 117.899 105.892 117.968 105.922 118.025C105.958 118.049 106.003 118.067 106.066 118.067C106.141 118.067 106.228 118.043 106.321 117.998C106.558 117.882 106.772 117.639 106.883 117.373L106.904 117.322L107.91 116.82L108.015 116.879L108.063 116.927C108.105 116.966 108.156 116.993 108.228 116.993C108.294 116.99 108.381 116.966 108.471 116.924Z" fill="#E6E6E6"/>
<path opacity="0.05" d="M105.919 118.378V119.159L106.304 119.186V137.85L106.049 138.176V139.289L105.919 139.561L105.37 139.983L105.16 140.124L104.622 140.662L103.697 140.202V139.397L104.106 139.194V138.676L104.853 138.305V137.467C104.853 137.467 104.856 137.207 105.04 137.114L105.022 118.809C105.022 118.809 104.826 118.609 104.853 118.471V117.879L105.919 118.378Z" fill="black"/>
<path d="M79.2835 128.047L81.5988 129.19L81.0973 129.235L79.0703 128.229L79.2835 128.047Z" fill="#E0DCD1"/>
<path d="M78.799 155.021L76.1895 153.723V152.918L78.799 154.216V155.021Z" fill="#C1977E"/>
<path d="M78.799 154.217L76.1895 152.918L78.799 151.617L81.4055 152.918L78.799 154.217Z" fill="#F0F0F0"/>
<path d="M81.4054 153.723L78.7988 155.021V154.216L81.4054 152.918V153.723Z" fill="#E4C7B5"/>
<path d="M78.7988 153.972L76.5977 152.874V152.195L78.7988 153.293V153.972Z" fill="#C1977E"/>
<path d="M78.7988 153.289L76.5977 152.195L78.7988 151.1L80.997 152.195L78.7988 153.289Z" fill="#F0F0F0"/>
<path d="M80.997 152.874L78.7988 153.972V153.293L80.997 152.195V152.874Z" fill="#E4C7B5"/>
<path d="M78.7991 150.986H77.3457V152.102H80.2495V150.986H78.7991Z" fill="#E6E6E6"/>
<path d="M78.7991 152.825C79.6018 152.825 80.2525 152.501 80.2525 152.101C80.2525 151.701 79.6018 151.377 78.7991 151.377C77.9964 151.377 77.3457 151.701 77.3457 152.101C77.3457 152.501 77.9964 152.825 78.7991 152.825Z" fill="#E6E6E6"/>
<path d="M78.7991 151.71C79.6018 151.71 80.2525 151.385 80.2525 150.986C80.2525 150.586 79.6018 150.262 78.7991 150.262C77.9964 150.262 77.3457 150.586 77.3457 150.986C77.3457 151.385 77.9964 151.71 78.7991 151.71Z" fill="#F0F0F0"/>
<path d="M78.7989 131.736H77.5137V150.735H80.0812V131.736H78.7989Z" fill="#E6E6E6"/>
<path d="M79.7055 150.284C80.207 150.532 80.207 150.939 79.7055 151.188C79.204 151.436 78.3932 151.436 77.8917 151.188C77.3903 150.939 77.3903 150.532 77.8917 150.284C78.3902 150.033 79.204 150.033 79.7055 150.284Z" fill="#E6E6E6"/>
<path d="M78.7998 132.376C79.508 132.376 80.0821 132.089 80.0821 131.736C80.0821 131.382 79.508 131.096 78.7998 131.096C78.0917 131.096 77.5176 131.382 77.5176 131.736C77.5176 132.089 78.0917 132.376 78.7998 132.376Z" fill="#D9CBBC"/>
<path d="M78.7991 130.871H77.3457V131.987H80.2495V130.871H78.7991Z" fill="#D9D9D9"/>
<path d="M78.7991 132.71C79.6018 132.71 80.2525 132.385 80.2525 131.986C80.2525 131.586 79.6018 131.262 78.7991 131.262C77.9964 131.262 77.3457 131.586 77.3457 131.986C77.3457 132.385 77.9964 132.71 78.7991 132.71Z" fill="#D9D9D9"/>
<path d="M78.7991 131.594C79.6018 131.594 80.2525 131.27 80.2525 130.87C80.2525 130.471 79.6018 130.146 78.7991 130.146C77.9964 130.146 77.3457 130.471 77.3457 130.87C77.3457 131.27 77.9964 131.594 78.7991 131.594Z" fill="#D9CBBC"/>
<path d="M78.7988 132.094L76.5977 130.996V130.146L78.7988 131.241V132.094Z" fill="#C1977E"/>
<path d="M78.7988 131.242L76.5977 130.147L78.7988 129.049L80.997 130.147L78.7988 131.242Z" fill="#D9CBBC"/>
<path d="M80.997 130.996L78.7988 132.094V131.241L80.997 130.146V130.996Z" fill="#E8CBB8"/>
<path d="M81.4054 130.097L78.7988 131.395V130.59L81.4054 129.289V130.097Z" fill="#F0ECE0"/>
<path d="M77.3101 129.5C77.3101 129.892 76.9918 130.368 76.5984 130.562C76.205 130.757 75.8867 130.598 75.8867 130.209C75.8867 129.818 76.205 129.342 76.5984 129.147C76.9918 128.95 77.3101 129.109 77.3101 129.5Z" fill="#D1CDC3"/>
<path d="M79.4624 128.426C79.4624 128.818 79.1441 129.294 78.7508 129.488C78.3574 129.683 78.0391 129.524 78.0391 129.135C78.0391 128.743 78.3574 128.268 78.7508 128.073C79.1441 127.879 79.4624 128.037 79.4624 128.426Z" fill="#E0DCD1"/>
<path d="M76.5977 130.177V129.148L78.7538 128.074V129.103L76.5977 130.177Z" fill="#E0DCD1"/>
<path d="M76.5977 129.148L78.9429 130.306L81.096 129.235L78.7538 128.074L76.5977 129.148Z" fill="#D9D9D9"/>
<path d="M76.082 130.597L78.4303 131.758L78.9438 130.304L76.5985 129.146L76.082 130.597Z" fill="#D9D9D9"/>
<path d="M81.0972 129.233L78.9441 130.307C78.5507 130.502 78.2324 130.977 78.2324 131.369C78.2324 131.761 78.5507 131.92 78.9441 131.722C79.2204 131.585 79.4546 131.31 79.5747 131.022L80.4696 130.577C80.5867 130.747 80.824 130.786 81.1002 130.648C81.4936 130.454 81.8119 129.978 81.8119 129.586C81.8119 129.195 81.4906 129.036 81.0972 129.233Z" fill="#F2F2F2"/>
<path d="M81.5607 129.332C81.5907 129.389 81.5997 129.458 81.5997 129.509C81.5997 129.844 81.3114 130.274 80.9691 130.445C80.879 130.49 80.7949 130.514 80.7198 130.514C80.6508 130.514 80.5967 130.49 80.5547 130.448L80.5877 130.496C80.6298 130.559 80.6988 130.588 80.7859 130.588C80.861 130.588 80.9481 130.565 81.0352 130.52C81.3775 130.349 81.6658 129.921 81.6658 129.583C81.6658 129.509 81.6478 129.392 81.5607 129.332Z" fill="#C9C9C9"/>
<path d="M79.3941 130.843L79.3731 130.894C79.2619 131.163 79.0487 131.402 78.8115 131.519C78.7214 131.564 78.6343 131.588 78.5563 131.588C78.4932 131.588 78.4481 131.57 78.4121 131.546C78.4451 131.612 78.5082 131.666 78.6253 131.666C78.7004 131.666 78.7875 131.642 78.8806 131.597C79.1178 131.48 79.331 131.238 79.4421 130.972L79.4631 130.921L80.5052 130.4L80.4481 130.316L79.3941 130.843Z" fill="#C9C9C9"/>
<path d="M80.9655 130.446C81.3078 130.275 81.5961 129.847 81.5961 129.509C81.5961 129.459 81.5871 129.39 81.5571 129.333C81.521 129.309 81.476 129.291 81.4129 129.291C81.3378 129.291 81.2508 129.315 81.1607 129.36L79.0076 130.434C78.6652 130.604 78.377 131.032 78.377 131.37C78.377 131.421 78.386 131.49 78.416 131.547C78.452 131.571 78.4971 131.589 78.5601 131.589C78.6352 131.589 78.7223 131.565 78.8154 131.52C79.0526 131.403 79.2658 131.161 79.3769 130.894L79.3979 130.844L80.4039 130.341L80.509 130.401L80.5571 130.449C80.5991 130.488 80.6502 130.515 80.7222 130.515C80.7913 130.515 80.8784 130.491 80.9655 130.446Z" fill="#E6E6E6"/>
<path opacity="0.05" d="M78.4116 131.902V132.683L78.796 132.71V151.374L78.5407 151.7V152.813L78.4116 153.085L77.8621 153.507L77.6519 153.647L77.1144 154.186L76.1895 153.725V152.92L76.5979 152.717V152.199L77.3456 151.828V150.991C77.3456 150.991 77.3486 150.731 77.5318 150.638L77.5137 132.333C77.5137 132.333 77.3186 132.132 77.3456 131.995V131.402L78.4116 131.902Z" fill="black"/>
<path d="M72.1543 133.685L118.925 110.357V107.016L72.1543 130.344V133.685Z" fill="#E8CBB8"/>
<path d="M72.1604 130.349L118.934 107.021L113.078 104.051L66.3047 127.376L72.1604 130.349Z" fill="#EDE3E2"/>
<path d="M66.2988 130.711L72.1545 133.684V130.343L66.2988 127.369V130.711Z" fill="#C1977E"/>
<path d="M61.7074 137.675V129.506L58.1309 127.723V135.893L61.7074 137.675Z" fill="#B8B8B8"/>
<path d="M58.3535 135.782L61.4856 137.343V129.616L58.3535 128.055V135.782Z" fill="#DBECFF"/>
<path d="M59.7949 136.504L60.0442 136.626V128.899L59.7949 128.773V136.504Z" fill="#B8B8B8"/>
<path d="M57.3223 136.293L58.1301 135.889V127.729L57.3223 128.129V136.293Z" fill="#9E7C67"/>
<path d="M60.7948 138.453H62.1191V128.776H60.7948V138.453Z" fill="#C1977E"/>
<path d="M57.3223 136.293L60.7937 138.028V137.22L58.1301 135.889L57.3223 136.293Z" fill="#D9AA8E"/>
<path d="M57.3223 128.129L62.1179 130.523V128.773L58.1301 127.729L57.3223 128.129Z" fill="#C1977E"/>
<path d="M60.7965 131.444L58.25 130.173V129.945L60.7965 131.214V131.444Z" fill="#B8B8B8"/>
<path d="M60.7965 135.384L58.25 134.115V133.885L60.7965 135.156V135.384Z" fill="#B8B8B8"/>
<path d="M61.7074 149.804V141.635L58.1309 139.852V148.021L61.7074 149.804Z" fill="#B8B8B8"/>
<path d="M58.3535 147.914L61.4856 149.472V141.745L58.3535 140.184V147.914Z" fill="#DBECFF"/>
<path d="M59.7949 148.632L60.0442 148.755V141.028L59.7949 140.902V148.632Z" fill="#B8B8B8"/>
<path d="M57.3223 148.422L58.1301 148.018V139.857L57.3223 140.261V148.422Z" fill="#9E7C67"/>
<path d="M60.7948 150.582H62.1191V140.904H60.7948V150.582Z" fill="#C1977E"/>
<path d="M57.3223 148.421L60.7937 150.157V149.349L58.1301 148.018L57.3223 148.421Z" fill="#D9AA8E"/>
<path d="M57.3223 140.261L62.1179 142.652V140.901L58.1301 139.857L57.3223 140.261Z" fill="#C1977E"/>
<path d="M60.7965 143.573L58.25 142.302V142.074L60.7965 143.343V143.573Z" fill="#B8B8B8"/>
<path d="M60.7965 147.512L58.25 146.244V146.014L60.7965 147.285V147.512Z" fill="#B8B8B8"/>
<path d="M66.2988 157.934V163.561L77.0373 168.999V163.372L66.2988 157.934Z" fill="#ABA2A1"/>
<path d="M78.6349 162.571L77.0373 163.373L66.2988 157.946L67.8153 157.189L78.6349 162.571Z" fill="#F2EAE8"/>
<path d="M78.6347 168.218L77.0371 168.999V163.372L78.6347 162.57V168.218Z" fill="#CBC1C0"/>
<path d="M113.384 133.928L110.922 135.248L113.51 135.765L118.258 135.248L114.309 133.381L113.384 133.928Z" fill="#F2EAE8"/>
<path d="M15.9922 118.553L91.1976 81.309V80.0137L15.9922 117.258V118.553Z" fill="#969389"/>
<path d="M15.9913 117.259L91.1938 80.0175L90.2598 79.5508L15.1055 116.768L15.9913 117.259Z" fill="#FAF6EA"/>
<path d="M15.9913 118.554L15.2406 118.129L15.1055 116.768L15.9913 117.258V118.554Z" fill="#969389"/>
<path d="M38.2124 129.688L15.0508 118.09V116.795L37.7139 128.091L38.2124 129.688Z" fill="#ABA2A1"/>
<path d="M37.7139 128.095L15.0508 116.796L15.9877 116.332L38.6508 127.628L37.7139 128.095Z" fill="#F2EAE8"/>
<path d="M38.2129 129.688L53.4498 122.086V120.791L38.2129 128.389V129.688Z" fill="#CBC1C0"/>
<path d="M38.212 128.39L54.2237 120.402L53.2868 119.936L37.3262 127.899L38.212 128.39Z" fill="#F2EAE8"/>
<path d="M38.212 129.687L37.4613 129.263L37.3262 127.898L38.212 128.389V129.687Z" fill="#ABA2A1"/>
<path d="M72.1545 131.587L53.2871 122.164V120.865L72.1545 130.289V131.587Z" fill="#ABA2A1"/>
<path d="M72.1545 130.292L53.2871 120.869L54.224 120.402L73.0914 129.826L72.1545 130.292Z" fill="#F2EAE8"/>
<path d="M113.078 93.2791L90.25 81.7797V80.4844L113.078 91.9838V93.2791Z" fill="#969389"/>
<path d="M113.079 91.9836L89.332 80.0175L90.2689 79.5508L114.016 91.5169L113.079 91.9836Z" fill="#FAF6EA"/>
<path d="M100.488 99.5239L114.016 92.811V91.5156L100.488 98.2256V99.5239Z" fill="#CBC1C0"/>
<path d="M100.487 98.2293L113.905 91.5702L112.968 91.1035L99.6016 97.7357L100.487 98.2293Z" fill="#F2EAE8"/>
<path d="M100.487 99.5253L99.7367 99.1005L99.6016 97.7363L100.487 98.2299V99.5253Z" fill="#969389"/>
<path d="M118.264 108.558L99.3965 99.1352V97.8398L118.264 107.263V108.558Z" fill="#969389"/>
<path d="M118.265 107.264L99.4004 97.8436L100.334 97.377L119.202 106.797L118.265 107.264Z" fill="#FAF6EA"/>
<path d="M72.1465 131.591L119.404 108.188V106.893L72.1465 130.295V131.591Z" fill="#CBC1C0"/>
<path d="M72.1456 130.296L119.403 106.896L118.466 106.43L71.2598 129.805L72.1456 130.296Z" fill="#F2EAE8"/>
<path d="M72.1456 131.591L71.3949 131.169L71.2598 129.805L72.1456 130.295V131.591Z" fill="#ABA2A1"/>
<path d="M18.3085 117.659L90.9584 81.7727V79.4453L17.1523 115.936L18.3085 117.659Z" fill="#CBC1C0"/>
<path d="M17.1496 115.936L90.9586 79.4457L90.0607 79L16.3027 115.467L17.1496 115.936Z" fill="#F2EAE8"/>
<path d="M17.1526 117.181L16.4319 116.774L16.3027 115.467L17.1496 115.936L17.1526 117.181Z" fill="#969389"/>
<path d="M37.695 127.389L16.248 116.737V115.492L37.695 126.145V127.389Z" fill="#ABA2A1"/>
<path d="M37.698 126.144L16.248 115.495L17.1459 115.049L38.5959 125.699L37.698 126.144Z" fill="#F2EAE8"/>
<path d="M38.1758 127.676L53.4427 120.057V118.812L38.1758 126.432V127.676Z" fill="#CBC1C0"/>
<path d="M38.176 126.431L54.1876 118.441L53.2898 117.992L37.3262 125.962L38.176 126.431Z" fill="#F2EAE8"/>
<path d="M38.176 127.675L37.4553 127.268L37.3262 125.961L38.176 126.431V127.675Z" fill="#ABA2A1"/>
<path d="M72.1185 129.523L53.2871 120.126V118.885L72.1185 128.278V129.523Z" fill="#ABA2A1"/>
<path d="M72.1194 128.282L53.291 118.885L54.1889 118.439L73.0173 127.833L72.1194 128.282Z" fill="#F2EAE8"/>
<path d="M109.819 92.1119L90.0508 82.192V79.8945L111.66 90.7388L109.819 92.1119Z" fill="#ABA2A1"/>
<path d="M111.661 90.7417L89.1719 79.4457L90.0697 79L112.559 90.293L111.661 90.7417Z" fill="#F2EAE8"/>
<path d="M99.0078 98.2534L112.557 91.5374V90.293L99.0078 97.0089V98.2534Z" fill="#CBC1C0"/>
<path d="M99.008 97.0123L112.449 90.3442L111.551 89.8984L98.1582 96.5396L99.008 97.0123Z" fill="#F2EAE8"/>
<path d="M99.008 98.2532L98.2873 97.8464L98.1582 96.5391L99.008 97.0117V98.2532Z" fill="#969389"/>
<path d="M116.792 107.28L114.789 107.016L97.9219 98.6011L97.9639 96.6387L116.792 106.035V107.28Z" fill="#ABA2A1"/>
<path d="M116.796 106.034L97.9648 96.6411L98.8627 96.1953L117.694 105.589L116.796 106.034Z" fill="#F2EAE8"/>
<path d="M72.1074 129.531L117.884 106.924V105.68L72.1074 128.287V129.531Z" fill="#CBC1C0"/>
<path d="M72.1076 128.286L117.884 105.682L116.986 105.236L71.2578 127.816L72.1076 128.286Z" fill="#F2EAE8"/>
<path d="M72.1085 129.531L71.3878 129.124L71.2617 127.855L72.1085 128.286V129.531Z" fill="#ABA2A1"/>
<path d="M24.2015 145.417V137.247L20.625 135.467V143.637L24.2015 145.417Z" fill="#B8B8B8"/>
<path d="M20.8477 143.526L23.9797 145.088V137.357L20.8477 135.799V143.526Z" fill="#DBECFF"/>
<path d="M22.2891 144.245L22.5383 144.367V136.64L22.2891 136.518V144.245Z" fill="#B8B8B8"/>
<path d="M19.8164 144.035L20.6242 143.635V135.471L19.8164 135.875V144.035Z" fill="#9E7C67"/>
<path d="M23.287 146.193H24.6113V136.516H23.287V146.193Z" fill="#C1977E"/>
<path d="M19.8164 144.034L23.2878 145.772V144.964L20.6242 143.633L19.8164 144.034Z" fill="#D9AA8E"/>
<path d="M19.8164 135.875L24.6121 138.265V136.518L20.6242 135.471L19.8164 135.875Z" fill="#C1977E"/>
<path d="M23.2917 139.184L20.7422 137.916V137.686L23.2917 138.957V139.184Z" fill="#B8B8B8"/>
<path d="M23.2917 143.128L20.7422 141.856V141.629L23.2917 142.897V143.128Z" fill="#B8B8B8"/>
<path d="M24.2015 133.379V125.21L20.625 123.43V131.6L24.2015 133.379Z" fill="#B8B8B8"/>
<path d="M20.8477 131.489L23.9797 133.05V125.32L20.8477 123.762V131.489Z" fill="#DBECFF"/>
<path d="M22.2891 132.208L22.5383 132.33V124.603L22.2891 124.48V132.208Z" fill="#B8B8B8"/>
<path d="M19.8164 131.998L20.6242 131.597V123.434L19.8164 123.837V131.998Z" fill="#9E7C67"/>
<path d="M23.287 134.156H24.6113V124.479H23.287V134.156Z" fill="#C1977E"/>
<path d="M19.8164 131.997L23.2878 133.735V132.927L20.6242 131.596L19.8164 131.997Z" fill="#D9AA8E"/>
<path d="M19.8164 123.837L24.6121 126.228V124.481L20.6242 123.434L19.8164 123.837Z" fill="#C1977E"/>
<path d="M23.2917 127.147L20.7422 125.879V125.648L23.2917 126.92V127.147Z" fill="#B8B8B8"/>
<path d="M23.2917 131.091L20.7422 129.819V129.592L23.2917 130.86V131.091Z" fill="#B8B8B8"/>
<path d="M34.5609 138.654V130.484L30.9844 128.701V136.871L34.5609 138.654Z" fill="#B8B8B8"/>
<path d="M31.207 136.76L34.3391 138.322V130.595L31.207 129.033V136.76Z" fill="#DBECFF"/>
<path d="M32.6484 137.479L32.8977 137.605V129.878L32.6484 129.752V137.479Z" fill="#B8B8B8"/>
<path d="M30.1758 137.269L30.9836 136.868V128.707L30.1758 129.108V137.269Z" fill="#9E7C67"/>
<path d="M33.6464 139.43H34.9707V129.752H33.6464V139.43Z" fill="#C1977E"/>
<path d="M30.1758 137.268L33.6472 139.006V138.198L30.9836 136.867L30.1758 137.268Z" fill="#D9AA8E"/>
<path d="M30.1758 129.108L34.9715 131.498V129.751L30.9836 128.707L30.1758 129.108Z" fill="#C1977E"/>
<path d="M33.6511 132.419L31.1016 131.15V130.92L33.6511 132.191V132.419Z" fill="#B8B8B8"/>
<path d="M33.6511 136.362L31.1016 135.091V134.863L33.6511 136.132V136.362Z" fill="#B8B8B8"/>
<path d="M34.5609 150.715V142.546L30.9844 140.766V148.935L34.5609 150.715Z" fill="#B8B8B8"/>
<path d="M31.207 148.825L34.3391 150.386V142.656L31.207 141.098V148.825Z" fill="#DBECFF"/>
<path d="M32.6484 149.544L32.8977 149.669V141.939L32.6484 141.816V149.544Z" fill="#B8B8B8"/>
<path d="M30.1758 149.334L30.9836 148.933V140.77L30.1758 141.173V149.334Z" fill="#9E7C67"/>
<path d="M33.6464 151.492H34.9707V141.815H33.6464V151.492Z" fill="#C1977E"/>
<path d="M30.1758 149.333L33.6472 151.071V150.263L30.9836 148.932L30.1758 149.333Z" fill="#D9AA8E"/>
<path d="M30.1758 141.173L34.9715 143.564V141.817L30.9836 140.77L30.1758 141.173Z" fill="#C1977E"/>
<path d="M33.6511 144.483L31.1016 143.215V142.984L33.6511 144.256V144.483Z" fill="#B8B8B8"/>
<path d="M33.6511 148.426L31.1016 147.155V146.928L33.6511 148.196V148.426Z" fill="#B8B8B8"/>
<path opacity="0.05" d="M104.619 140.661L101.121 140.565L98.7754 139.784V132.03L99.0306 131.904L98.8925 125.562L101.34 124.336L100.91 124.551L101.031 130.908L100.805 131.019V138.803L101.472 138.994L104.103 139.189L103.694 139.392V140.2L104.619 140.661Z" fill="black"/>
<path d="M43.6973 138.128V129.958L47.2738 128.178V136.348L43.6973 138.128Z" fill="#B8B8B8"/>
<path d="M47.052 136.236L43.9199 137.795V130.067L47.052 128.506V136.236Z" fill="#DBECFF"/>
<path d="M45.6106 136.955L45.3613 137.077V129.35L45.6106 129.225V136.955Z" fill="#B8B8B8"/>
<path d="M48.0812 136.746L47.2734 136.343V128.182L48.0812 128.585V136.746Z" fill="#C1977E"/>
<path d="M44.6095 129.225H43.2852V138.902H44.6095V129.225Z" fill="#E4C7B5"/>
<path d="M48.0808 136.746L44.6094 138.481V137.673L47.273 136.342L48.0808 136.746Z" fill="#F7D8C4"/>
<path d="M48.0808 128.585L43.2852 130.976V129.226L47.273 128.182L48.0808 128.585Z" fill="#E4C7B5"/>
<path d="M44.6055 131.895L47.155 130.627V130.396L44.6055 131.665V131.895Z" fill="#B8B8B8"/>
<path d="M44.6055 135.837L47.155 134.568V134.338L44.6055 135.609V135.837Z" fill="#B8B8B8"/>
<path opacity="0.05" d="M46.7925 129.224L44.6094 137.672L48.0808 136.745V128.584L46.7925 129.224Z" fill="black"/>
<path d="M43.6973 150.193V142.023L47.2738 140.24V148.41L43.6973 150.193Z" fill="#B8B8B8"/>
<path d="M47.052 148.299L43.9199 149.861V142.134L47.052 140.572V148.299Z" fill="#DBECFF"/>
<path d="M45.6106 149.018L45.3613 149.144V141.417L45.6106 141.291V149.018Z" fill="#B8B8B8"/>
<path d="M48.0812 148.811L47.2734 148.407V140.246L48.0812 140.647V148.811Z" fill="#C1977E"/>
<path d="M44.6095 141.291H43.2852V150.969H44.6095V141.291Z" fill="#E4C7B5"/>
<path d="M48.0808 148.81L44.6094 150.545V149.737L47.273 148.406L48.0808 148.81Z" fill="#F7D8C4"/>
<path d="M48.0808 140.647L43.2852 143.04V141.29L47.273 140.246L48.0808 140.647Z" fill="#E4C7B5"/>
<path d="M44.6055 143.962L47.155 142.69V142.463L44.6055 143.731V143.962Z" fill="#B8B8B8"/>
<path d="M44.6055 147.901L47.155 146.633V146.402L44.6055 147.674V147.901Z" fill="#B8B8B8"/>
<path opacity="0.05" d="M46.7925 141.315L44.6094 149.763L48.0808 148.836V140.672L46.7925 141.315Z" fill="black"/>
<path opacity="0.05" d="M120.519 136.83L118.895 137.644V139.25L120.828 140.411V142.068L122.672 143.307V145.338L125.399 144.539V139.328L120.519 136.83Z" fill="black"/>
<path opacity="0.05" d="M77.0367 169.001L39.1367 164.14L53.1454 157.053L77.0367 169.001Z" fill="black"/>
<path opacity="0.05" d="M38.3594 131.731L53.29 123.762L72.1454 132.736V131.59L53.287 122.164L38.3594 129.613V131.731Z" fill="black"/>
<path opacity="0.05" d="M38.3603 131.732L16.7271 121.285L16.7031 118.916L38.0209 129.578L38.2131 129.688L38.3603 129.614V131.732Z" fill="black"/>
<path opacity="0.05" d="M72.1465 132.736L118.935 109.244L118.926 108.424L72.1465 131.59V132.736Z" fill="black"/>
<path opacity="0.05" d="M112.876 107.264L88.0391 102.786L97.9217 97.6523V98.6007L114.086 106.666L112.876 107.264Z" fill="black"/>
<path opacity="0.05" d="M79.5325 87.5169L107.346 91.9833L110.757 90.2931L90.0518 79.8945L79.4395 85.2374L79.5325 87.5169Z" fill="black"/>
<path opacity="0.05" d="M76.1901 153.723V152.918L74.8478 153.083L73.028 153.17L72.995 150.573L71.8629 151.138V144.796C71.938 144.102 72.8449 143.157 72.8449 143.157L72.7397 138.679L71.935 139.083L71.9139 139.178L71.935 136.791L70.5176 137.44L70.8839 154.226L73.3674 154.707L77.115 154.184L76.1901 153.723Z" fill="black"/>
</g>
<defs>
<clipPath id="clip0_176_93608">
<rect width="22.0014" height="23.7883" fill="white" transform="translate(239 34.1055)"/>
</clipPath>
<clipPath id="clip1_176_93608">
<rect width="127" height="90" fill="white" transform="translate(0 79)"/>
</clipPath>
</defs>
</svg>
