<svg width="495" height="159" viewBox="0 0 495 159" fill="none" xmlns="http://www.w3.org/2000/svg">
<rect x="147" width="348" height="92" rx="18" fill="#006DB7"/>
<path d="M91 102L202.5 66.026L170.5 42L91 102Z" fill="#006DB7"/>
<rect x="172.048" y="25.0476" width="41.9048" height="41.9048" rx="20.9524" fill="#D01111"/>
<rect x="172.048" y="25.0476" width="41.9048" height="41.9048" rx="20.9524" stroke="white" stroke-width="2.09524"/>
<path d="M202.251 57.0037C202.258 57.1588 202.138 57.2901 201.983 57.2971C201.979 57.2971 201.974 57.2976 201.97 57.2976C201.821 57.2976 201.696 57.1794 201.689 57.0285L200.724 34.9973C200.717 34.8421 200.838 34.7108 200.993 34.7038C201.148 34.6973 201.279 34.8173 201.286 34.9724L202.251 57.0037ZM199.491 34.7033C199.336 34.7094 199.215 34.8398 199.221 34.9949L200.062 57.0262C200.068 57.1776 200.193 57.2966 200.343 57.2966H200.354C200.509 57.2905 200.63 57.1602 200.624 57.0051L199.783 34.9738C199.777 34.8187 199.648 34.6973 199.491 34.7033ZM195.661 37.3485C195.506 37.3485 195.38 37.4746 195.38 37.6298V39.3027C195.38 39.4579 195.506 39.584 195.661 39.584C195.816 39.584 195.943 39.4579 195.943 39.3027V37.6298C195.943 37.4746 195.816 37.3485 195.661 37.3485ZM195.661 41.1154C195.506 41.1154 195.38 41.2415 195.38 41.3966V43.0701C195.38 43.2252 195.506 43.3513 195.661 43.3513C195.816 43.3513 195.943 43.2252 195.943 43.0701V41.3966C195.943 41.2415 195.816 41.1154 195.661 41.1154ZM195.661 44.8823C195.506 44.8823 195.38 45.0083 195.38 45.1635V46.8369C195.38 46.9921 195.506 47.1182 195.661 47.1182C195.816 47.1182 195.943 46.9921 195.943 46.8369V45.1635C195.943 45.0083 195.816 44.8823 195.661 44.8823ZM195.661 48.6491C195.506 48.6491 195.38 48.7752 195.38 48.9304V50.6033C195.38 50.7585 195.506 50.8846 195.661 50.8846C195.816 50.8846 195.943 50.7585 195.943 50.6033V48.9304C195.943 48.7752 195.816 48.6491 195.661 48.6491ZM195.661 52.4165C195.506 52.4165 195.38 52.5426 195.38 52.6977V54.3707C195.38 54.5258 195.506 54.6519 195.661 54.6519C195.816 54.6519 195.943 54.5258 195.943 54.3707V52.6977C195.943 52.5421 195.816 52.4165 195.661 52.4165ZM192.328 48.6651C192.473 48.9163 192.473 49.2163 192.328 49.4676C192.184 49.7188 191.924 49.8688 191.634 49.8688H191.533L191.26 57.0271C191.254 57.1785 191.129 57.2976 190.979 57.2976C190.975 57.2976 190.971 57.2976 190.968 57.2976C190.813 57.2915 190.692 57.1612 190.698 57.006L190.971 49.8693H189.947L189.634 57.029C189.627 57.1799 189.502 57.298 189.353 57.298C189.349 57.298 189.344 57.298 189.34 57.2976C189.185 57.291 189.065 57.1593 189.072 57.0041L189.384 49.8693H184.553C184.263 49.8693 184.003 49.7193 183.859 49.468C183.714 49.2168 183.714 48.9173 183.859 48.666L187.399 42.5343C187.544 42.283 187.804 42.133 188.094 42.133C188.384 42.133 188.644 42.283 188.788 42.5343L189.641 44.0104L190.037 34.9733C190.043 34.8182 190.174 34.6977 190.33 34.7048C190.485 34.7113 190.606 34.843 190.599 34.9982L190.164 44.9169L191.098 46.5341L191.54 34.9752C191.545 34.8238 191.67 34.7048 191.82 34.7048H191.831C191.986 34.7108 192.107 34.8412 192.102 34.9963L191.626 47.4482L192.328 48.6651ZM191.841 48.9463L188.301 42.8146C188.256 42.7363 188.184 42.6946 188.093 42.6946C188.003 42.6946 187.931 42.7358 187.886 42.8146L184.346 48.9463C184.3 49.0246 184.3 49.1076 184.346 49.1858C184.391 49.2641 184.463 49.3058 184.553 49.3058H191.634C191.724 49.3058 191.796 49.2646 191.841 49.1858C191.886 49.1076 191.886 49.0246 191.841 48.9463ZM188.627 44.4299C188.76 44.5705 188.828 44.7515 188.818 44.9394L188.706 46.9766C188.688 47.3019 188.431 47.5382 188.094 47.5382C187.757 47.5382 187.499 47.3019 187.482 46.9766L187.37 44.9394C187.36 44.751 187.427 44.5701 187.56 44.4299C187.699 44.2837 187.893 44.1998 188.094 44.1998C188.295 44.1998 188.489 44.2841 188.627 44.4299ZM188.256 44.909C188.258 44.8673 188.237 44.8358 188.218 44.8166C188.186 44.7824 188.139 44.7623 188.093 44.7623C188.047 44.7623 188 44.7824 187.968 44.8166C187.95 44.8358 187.929 44.8673 187.931 44.909L188.043 46.9462C188.043 46.956 188.044 46.9762 188.093 46.9762C188.143 46.9762 188.143 46.956 188.144 46.9462L188.256 44.909ZM188.772 48.4799C188.772 48.8544 188.467 49.1587 188.093 49.1587C187.719 49.1587 187.415 48.854 187.415 48.4799C187.415 48.1058 187.719 47.8012 188.093 47.8012C188.467 47.8012 188.772 48.1058 188.772 48.4799ZM188.21 48.4799C188.21 48.4157 188.158 48.3637 188.093 48.3637C188.029 48.3637 187.977 48.4157 187.977 48.4799C187.977 48.5441 188.029 48.5962 188.093 48.5962C188.158 48.5962 188.21 48.5441 188.21 48.4799Z" fill="white"/>
<path d="M232.865 55.5V36.5909H239.956C241.409 36.5909 242.627 36.8617 243.612 37.4034C244.603 37.9451 245.351 38.6899 245.856 39.6378C246.367 40.5795 246.622 41.6506 246.622 42.8509C246.622 44.0634 246.367 45.1406 245.856 46.0824C245.345 47.0241 244.591 47.7659 243.594 48.3075C242.597 48.843 241.369 49.1108 239.91 49.1108H235.21V46.2947H239.448C240.298 46.2947 240.993 46.147 241.535 45.8516C242.076 45.5561 242.477 45.1499 242.735 44.6328C243 44.1158 243.132 43.5218 243.132 42.8509C243.132 42.1799 243 41.589 242.735 41.0781C242.477 40.5672 242.073 40.1702 241.526 39.8871C240.984 39.5978 240.285 39.4531 239.43 39.4531H236.29V55.5H232.865ZM258.489 49.5355V41.3182H261.831V55.5H258.59V52.9794H258.443C258.123 53.7734 257.596 54.4228 256.864 54.9276C256.137 55.4323 255.242 55.6847 254.177 55.6847C253.248 55.6847 252.426 55.4785 251.712 55.0661C251.004 54.6475 250.45 54.0412 250.05 53.2472C249.65 52.447 249.45 51.4806 249.45 50.348V41.3182H252.792V49.831C252.792 50.7296 253.038 51.4437 253.531 51.973C254.023 52.5024 254.669 52.767 255.47 52.767C255.962 52.767 256.439 52.647 256.901 52.407C257.362 52.1669 257.741 51.8099 258.036 51.3359C258.338 50.8558 258.489 50.2557 258.489 49.5355ZM271.547 55.777C270.125 55.777 268.897 55.4815 267.863 54.8906C266.835 54.2936 266.044 53.4503 265.49 52.3608C264.936 51.2652 264.659 49.9756 264.659 48.4922C264.659 47.0334 264.936 45.7531 265.49 44.6513C266.05 43.5433 266.832 42.6816 267.835 42.0661C268.838 41.4444 270.017 41.1335 271.371 41.1335C272.245 41.1335 273.07 41.2751 273.846 41.5582C274.627 41.8352 275.317 42.2661 275.914 42.8509C276.517 43.4356 276.991 44.1804 277.336 45.0852C277.68 45.9839 277.853 47.0549 277.853 48.2983V49.3232H266.228V47.0703H274.649C274.643 46.4302 274.504 45.8608 274.233 45.3622C273.962 44.8575 273.584 44.4605 273.098 44.1712C272.618 43.8819 272.057 43.7372 271.417 43.7372C270.734 43.7372 270.134 43.9034 269.617 44.2358C269.1 44.562 268.697 44.9929 268.407 45.5284C268.124 46.0578 267.98 46.6394 267.973 47.2734V49.2401C267.973 50.0649 268.124 50.7727 268.426 51.3636C268.727 51.9484 269.149 52.3977 269.691 52.7116C270.232 53.0194 270.866 53.1733 271.593 53.1733C272.079 53.1733 272.519 53.1056 272.913 52.9702C273.307 52.8286 273.649 52.6224 273.938 52.3516C274.227 52.0807 274.446 51.7453 274.593 51.3452L277.714 51.696C277.517 52.5208 277.142 53.241 276.588 53.8565C276.04 54.4659 275.338 54.9399 274.483 55.2784C273.627 55.6108 272.648 55.777 271.547 55.777ZM284.023 47.1903V55.5H280.68V41.3182H283.875V43.728H284.041C284.367 42.9339 284.887 42.303 285.601 41.8352C286.322 41.3674 287.211 41.1335 288.27 41.1335C289.248 41.1335 290.101 41.3428 290.827 41.7614C291.56 42.1799 292.126 42.7862 292.526 43.5803C292.932 44.3743 293.132 45.3376 293.126 46.4702V55.5H289.784V46.9872C289.784 46.0393 289.538 45.2976 289.045 44.7621C288.559 44.2266 287.885 43.9588 287.023 43.9588C286.439 43.9588 285.918 44.0881 285.463 44.3466C285.014 44.599 284.66 44.9652 284.401 45.4453C284.149 45.9254 284.023 46.5071 284.023 47.1903ZM303.606 41.3182V43.9034H295.453V41.3182H303.606ZM297.466 37.9205H300.808V51.2344C300.808 51.6837 300.876 52.0284 301.011 52.2685C301.153 52.5024 301.337 52.6624 301.565 52.7486C301.793 52.8348 302.045 52.8778 302.322 52.8778C302.532 52.8778 302.722 52.8625 302.895 52.8317C303.073 52.8009 303.209 52.7732 303.301 52.7486L303.864 55.3615C303.686 55.4231 303.43 55.4908 303.098 55.5646C302.772 55.6385 302.372 55.6816 301.898 55.6939C301.06 55.7185 300.306 55.5923 299.635 55.3153C298.965 55.0322 298.432 54.5952 298.038 54.0043C297.65 53.4134 297.46 52.6747 297.466 51.7884V37.9205ZM312.527 55.777C311.105 55.777 309.877 55.4815 308.843 54.8906C307.815 54.2936 307.024 53.4503 306.47 52.3608C305.916 51.2652 305.639 49.9756 305.639 48.4922C305.639 47.0334 305.916 45.7531 306.47 44.6513C307.03 43.5433 307.812 42.6816 308.815 42.0661C309.819 41.4444 310.997 41.1335 312.352 41.1335C313.226 41.1335 314.05 41.2751 314.826 41.5582C315.608 41.8352 316.297 42.2661 316.894 42.8509C317.497 43.4356 317.971 44.1804 318.316 45.0852C318.661 45.9839 318.833 47.0549 318.833 48.2983V49.3232H307.209V47.0703H315.629C315.623 46.4302 315.485 45.8608 315.214 45.3622C314.943 44.8575 314.564 44.4605 314.078 44.1712C313.598 43.8819 313.038 43.7372 312.398 43.7372C311.714 43.7372 311.114 43.9034 310.597 44.2358C310.08 44.562 309.677 44.9929 309.388 45.5284C309.105 46.0578 308.96 46.6394 308.954 47.2734V49.2401C308.954 50.0649 309.105 50.7727 309.406 51.3636C309.708 51.9484 310.129 52.3977 310.671 52.7116C311.213 53.0194 311.847 53.1733 312.573 53.1733C313.059 53.1733 313.5 53.1056 313.893 52.9702C314.287 52.8286 314.629 52.6224 314.918 52.3516C315.208 52.0807 315.426 51.7453 315.574 51.3452L318.695 51.696C318.498 52.5208 318.122 53.241 317.568 53.8565C317.02 54.4659 316.319 54.9399 315.463 55.2784C314.607 55.6108 313.629 55.777 312.527 55.777ZM338.534 41.7891C338.448 40.9827 338.085 40.3549 337.444 39.9055C336.81 39.4562 335.986 39.2315 334.97 39.2315C334.256 39.2315 333.644 39.3393 333.133 39.5547C332.622 39.7701 332.231 40.0625 331.96 40.4318C331.689 40.8011 331.551 41.2228 331.545 41.6967C331.545 42.0907 331.634 42.4323 331.812 42.7216C331.997 43.0109 332.246 43.2571 332.56 43.4602C332.874 43.6572 333.222 43.8234 333.604 43.9588C333.985 44.0942 334.37 44.2081 334.758 44.3004L336.53 44.7436C337.244 44.9098 337.931 45.1345 338.589 45.4176C339.254 45.7008 339.848 46.0578 340.371 46.4886C340.901 46.9195 341.319 47.4396 341.627 48.049C341.935 48.6584 342.089 49.3724 342.089 50.1911C342.089 51.299 341.805 52.2746 341.239 53.1179C340.673 53.955 339.854 54.6106 338.783 55.0845C337.718 55.5523 336.429 55.7862 334.915 55.7862C333.443 55.7862 332.166 55.5585 331.083 55.103C330.006 54.6475 329.162 53.9827 328.553 53.1087C327.95 52.2346 327.624 51.1697 327.574 49.9141H330.944C330.994 50.5727 331.197 51.1205 331.554 51.5575C331.911 51.9946 332.376 52.3208 332.948 52.5362C333.527 52.7517 334.173 52.8594 334.887 52.8594C335.632 52.8594 336.284 52.7486 336.844 52.527C337.411 52.2992 337.854 51.9853 338.174 51.5852C338.494 51.179 338.657 50.705 338.663 50.1634C338.657 49.6709 338.512 49.2647 338.229 48.9446C337.946 48.6184 337.549 48.3475 337.038 48.1321C336.533 47.9105 335.943 47.7135 335.265 47.5412L333.114 46.9872C331.557 46.5871 330.326 45.9808 329.421 45.1683C328.522 44.3497 328.073 43.2633 328.073 41.9091C328.073 40.795 328.375 39.8194 328.978 38.9822C329.587 38.1451 330.415 37.4957 331.461 37.0341C332.508 36.5663 333.693 36.3324 335.016 36.3324C336.358 36.3324 337.534 36.5663 338.543 37.0341C339.559 37.4957 340.356 38.139 340.934 38.9638C341.513 39.7824 341.812 40.7242 341.83 41.7891H338.534ZM349.076 55.7862C348.177 55.7862 347.368 55.6262 346.647 55.3061C345.933 54.9799 345.367 54.4998 344.949 53.8658C344.536 53.2318 344.33 52.45 344.33 51.5206C344.33 50.7204 344.478 50.0587 344.773 49.5355C345.069 49.0123 345.472 48.5938 345.983 48.2798C346.493 47.9659 347.069 47.7289 347.709 47.5689C348.355 47.4027 349.023 47.2827 349.713 47.2088C350.544 47.1226 351.218 47.0457 351.735 46.978C352.252 46.9041 352.627 46.7933 352.861 46.6456C353.101 46.4917 353.221 46.2547 353.221 45.9347V45.8793C353.221 45.1837 353.015 44.6451 352.603 44.2635C352.19 43.8819 351.596 43.6911 350.821 43.6911C350.002 43.6911 349.353 43.8696 348.873 44.2266C348.399 44.5836 348.078 45.0052 347.912 45.4915L344.792 45.0483C345.038 44.1866 345.444 43.4664 346.01 42.8878C346.577 42.303 347.269 41.866 348.088 41.5767C348.906 41.2812 349.811 41.1335 350.802 41.1335C351.485 41.1335 352.166 41.2135 352.843 41.3736C353.52 41.5336 354.138 41.7983 354.699 42.1676C355.259 42.5308 355.708 43.0263 356.047 43.6541C356.391 44.282 356.564 45.0668 356.564 46.0085V55.5H353.35V53.5518H353.24C353.037 53.9458 352.75 54.3151 352.381 54.6598C352.018 54.9983 351.559 55.2723 351.005 55.4815C350.458 55.6847 349.814 55.7862 349.076 55.7862ZM349.944 53.3303C350.614 53.3303 351.196 53.1979 351.689 52.9332C352.181 52.6624 352.56 52.3054 352.824 51.8622C353.095 51.419 353.23 50.9358 353.23 50.4126V48.7415C353.126 48.8277 352.947 48.9077 352.695 48.9815C352.449 49.0554 352.172 49.12 351.864 49.1754C351.556 49.2308 351.252 49.2801 350.95 49.3232C350.648 49.3662 350.387 49.4032 350.165 49.4339C349.667 49.5017 349.22 49.6125 348.826 49.7663C348.432 49.9202 348.122 50.1357 347.894 50.4126C347.666 50.6835 347.552 51.0343 347.552 51.4652C347.552 52.0807 347.777 52.5455 348.226 52.8594C348.676 53.1733 349.248 53.3303 349.944 53.3303ZM363.267 47.1903V55.5H359.924V41.3182H363.119V43.728H363.285C363.611 42.9339 364.132 42.303 364.846 41.8352C365.566 41.3674 366.455 41.1335 367.514 41.1335C368.493 41.1335 369.345 41.3428 370.071 41.7614C370.804 42.1799 371.37 42.7862 371.77 43.5803C372.176 44.3743 372.377 45.3376 372.37 46.4702V55.5H369.028V46.9872C369.028 46.0393 368.782 45.2976 368.289 44.7621C367.803 44.2266 367.129 43.9588 366.267 43.9588C365.683 43.9588 365.163 44.0881 364.707 44.3466C364.258 44.599 363.904 44.9652 363.645 45.4453C363.393 45.9254 363.267 46.5071 363.267 47.1903ZM384.793 55.5H381.137L387.794 36.5909H392.023L398.689 55.5H395.033L389.982 40.4688H389.835L384.793 55.5ZM384.913 48.0859H394.885V50.8374H384.913V48.0859ZM404.374 47.1903V55.5H401.032V41.3182H404.226V43.728H404.393C404.719 42.9339 405.239 42.303 405.953 41.8352C406.673 41.3674 407.563 41.1335 408.621 41.1335C409.6 41.1335 410.452 41.3428 411.179 41.7614C411.911 42.1799 412.478 42.7862 412.878 43.5803C413.284 44.3743 413.484 45.3376 413.478 46.4702V55.5H410.135V46.9872C410.135 46.0393 409.889 45.2976 409.397 44.7621C408.911 44.2266 408.237 43.9588 407.375 43.9588C406.79 43.9588 406.27 44.0881 405.814 44.3466C405.365 44.599 405.011 44.9652 404.753 45.4453C404.5 45.9254 404.374 46.5071 404.374 47.1903ZM422.138 55.7493C421.024 55.7493 420.027 55.4631 419.147 54.8906C418.267 54.3182 417.571 53.4872 417.06 52.3977C416.549 51.3082 416.294 49.9848 416.294 48.4276C416.294 46.8518 416.552 45.5223 417.069 44.4389C417.593 43.3494 418.297 42.5277 419.184 41.9737C420.07 41.4136 421.058 41.1335 422.148 41.1335C422.979 41.1335 423.662 41.2751 424.197 41.5582C424.733 41.8352 425.157 42.1707 425.471 42.5646C425.785 42.9524 426.028 43.3187 426.201 43.6634H426.339V36.5909H429.691V55.5H426.404V53.2656H426.201C426.028 53.6103 425.779 53.9766 425.453 54.3643C425.127 54.746 424.696 55.0722 424.16 55.343C423.625 55.6139 422.951 55.7493 422.138 55.7493ZM423.071 53.0071C423.779 53.0071 424.382 52.8163 424.881 52.4347C425.379 52.0469 425.758 51.5083 426.016 50.8189C426.275 50.1295 426.404 49.3262 426.404 48.4091C426.404 47.492 426.275 46.6948 426.016 46.0178C425.764 45.3407 425.388 44.8144 424.89 44.4389C424.397 44.0634 423.791 43.8757 423.071 43.8757C422.326 43.8757 421.704 44.0696 421.206 44.4574C420.707 44.8452 420.332 45.3807 420.079 46.0639C419.827 46.7472 419.701 47.5289 419.701 48.4091C419.701 49.2955 419.827 50.0864 420.079 50.782C420.338 51.4714 420.716 52.0161 421.215 52.4162C421.72 52.8101 422.338 53.0071 423.071 53.0071ZM433.252 55.5V41.3182H436.493V43.6818H436.641C436.9 42.8632 437.343 42.2322 437.971 41.7891C438.605 41.3397 439.328 41.1151 440.14 41.1151C440.325 41.1151 440.531 41.1243 440.759 41.1428C440.993 41.1551 441.187 41.1766 441.341 41.2074V44.282C441.199 44.2327 440.974 44.1896 440.667 44.1527C440.365 44.1096 440.073 44.0881 439.789 44.0881C439.18 44.0881 438.632 44.2204 438.146 44.4851C437.666 44.7436 437.287 45.1037 437.01 45.5653C436.733 46.027 436.595 46.5594 436.595 47.1626V55.5H433.252ZM449.256 55.777C447.834 55.777 446.606 55.4815 445.572 54.8906C444.544 54.2936 443.753 53.4503 443.199 52.3608C442.645 51.2652 442.368 49.9756 442.368 48.4922C442.368 47.0334 442.645 45.7531 443.199 44.6513C443.759 43.5433 444.541 42.6816 445.544 42.0661C446.547 41.4444 447.726 41.1335 449.08 41.1335C449.954 41.1335 450.779 41.2751 451.555 41.5582C452.336 41.8352 453.026 42.2661 453.623 42.8509C454.226 43.4356 454.7 44.1804 455.045 45.0852C455.389 45.9839 455.562 47.0549 455.562 48.2983V49.3232H443.937V47.0703H452.358C452.352 46.4302 452.213 45.8608 451.942 45.3622C451.671 44.8575 451.293 44.4605 450.807 44.1712C450.327 43.8819 449.766 43.7372 449.126 43.7372C448.443 43.7372 447.843 43.9034 447.326 44.2358C446.809 44.562 446.406 44.9929 446.116 45.5284C445.833 46.0578 445.689 46.6394 445.682 47.2734V49.2401C445.682 50.0649 445.833 50.7727 446.135 51.3636C446.436 51.9484 446.858 52.3977 447.4 52.7116C447.941 53.0194 448.575 53.1733 449.302 53.1733C449.788 53.1733 450.228 53.1056 450.622 52.9702C451.016 52.8286 451.358 52.6224 451.647 52.3516C451.936 52.0807 452.155 51.7453 452.302 51.3452L455.423 51.696C455.226 52.5208 454.851 53.241 454.297 53.8565C453.749 54.4659 453.047 54.9399 452.192 55.2784C451.336 55.6108 450.357 55.777 449.256 55.777ZM447.704 39.4531L449.773 35.2337H453.041L450.206 39.4531H447.704ZM469.598 45.0668L466.551 45.3991C466.465 45.0914 466.314 44.8021 466.099 44.5312C465.889 44.2604 465.606 44.0419 465.249 43.8757C464.892 43.7095 464.455 43.6264 463.938 43.6264C463.243 43.6264 462.658 43.7772 462.184 44.0788C461.716 44.3804 461.485 44.7713 461.491 45.2514C461.485 45.6638 461.636 45.9993 461.944 46.2578C462.258 46.5163 462.775 46.7287 463.495 46.8949L465.914 47.4119C467.256 47.7012 468.253 48.1598 468.906 48.7876C469.564 49.4155 469.897 50.2372 469.903 51.2528C469.897 52.1454 469.635 52.9332 469.118 53.6165C468.607 54.2936 467.896 54.8229 466.985 55.2045C466.074 55.5862 465.028 55.777 463.846 55.777C462.11 55.777 460.713 55.4138 459.654 54.6875C458.595 53.955 457.964 52.9363 457.761 51.6314L461.021 51.3175C461.168 51.9576 461.482 52.4408 461.962 52.767C462.442 53.0933 463.067 53.2564 463.837 53.2564C464.631 53.2564 465.268 53.0933 465.748 52.767C466.234 52.4408 466.477 52.0376 466.477 51.5575C466.477 51.1513 466.32 50.8158 466.006 50.5511C465.699 50.2865 465.219 50.0833 464.566 49.9418L462.147 49.4339C460.787 49.1508 459.78 48.6738 459.128 48.0028C458.475 47.3258 458.152 46.4702 458.158 45.4361C458.152 44.562 458.389 43.8049 458.869 43.1648C459.356 42.5185 460.03 42.0199 460.891 41.669C461.759 41.312 462.759 41.1335 463.892 41.1335C465.554 41.1335 466.862 41.4875 467.816 42.1953C468.776 42.9032 469.37 43.8603 469.598 45.0668Z" fill="white"/>
<g clip-path="url(#clip0_146_9004)">
<path d="M64.6573 102.532C64.9098 102.388 65.1407 102.367 65.3067 102.446C65.3211 102.453 65.3283 102.46 65.3428 102.468C65.5159 102.568 65.6242 102.785 65.6242 103.095V114.313C65.6242 114.933 65.1912 115.683 64.6501 115.993L25.7729 138.43C25.4987 138.589 25.2534 138.603 25.073 138.488C24.9071 138.38 24.7988 138.17 24.7988 137.868V126.649C24.7988 126.029 25.2318 125.279 25.7729 124.969L64.6573 102.532Z" fill="white"/>
<path d="M24.7993 126.649L23.4355 125.864C23.4355 125.243 23.8685 124.494 24.4096 124.184L63.3012 101.747C63.561 101.595 63.8063 101.574 63.9867 101.682C64.4269 101.934 64.8742 102.194 65.3144 102.446C65.1412 102.367 64.9103 102.388 64.665 102.533L25.7734 124.97C25.2322 125.28 24.7993 126.029 24.7993 126.649Z" fill="#E4E4F2"/>
<path d="M62.7815 115.957L55.5372 120.139L51.8789 116.635L55.3207 109.043L62.5651 104.861L59.1305 112.453L62.7815 115.957Z" fill="#EB4A00"/>
<path d="M51.6624 122.367L44.4108 126.556L40.7598 123.052L44.1943 115.46L51.4459 111.278L48.0114 118.87L51.6624 122.367Z" fill="#EB4A00"/>
<path d="M40.5433 128.784L33.2917 132.966L29.6406 129.469L33.0752 121.877L40.3268 117.695L36.8922 125.287L40.5433 128.784Z" fill="#EB4A00"/>
<path d="M29.4245 135.2L25.7734 137.306V131.696L29.4245 135.2Z" fill="#EB4A00"/>
<path d="M29.208 124.111L25.7734 131.696V126.094L29.208 124.111Z" fill="#EB4A00"/>
<path d="M25.0735 138.488C24.6261 138.228 24.1715 137.969 23.7242 137.709C23.551 137.608 23.4355 137.392 23.4355 137.082V125.863L24.7993 126.649V137.868C24.7993 138.17 24.9003 138.387 25.0735 138.488Z" fill="#797F8D"/>
<path d="M25.7734 124.969L30.6078 122.128L35.4566 119.302L45.1687 113.671L54.9024 108.084L59.7729 105.301L64.6578 102.532L59.8162 105.38L54.9746 108.206L45.2625 113.83L35.5288 119.418L30.6511 122.201L25.7734 124.969Z" fill="white"/>
<path d="M25.7441 137.349V126.08L25.7586 126.072L64.679 103.621V114.89L62.7958 115.979L25.7441 137.349ZM25.7946 126.101V137.269L64.6357 114.861V103.693L25.7946 126.101Z" fill="#E4E4F2"/>
<path d="M23.1287 135.949C23.1869 135.265 22.7679 134.569 21.8658 134.043C20.178 133.066 17.4484 133.066 15.7722 134.043C14.9341 134.528 14.5209 135.172 14.5209 135.809C14.5209 135.803 14.4336 157.48 14.4336 157.48C14.4336 158.123 14.8585 158.772 15.7024 159.264C17.3902 160.24 20.1198 160.24 21.7959 159.264C22.6282 158.778 23.0472 158.141 23.0472 157.503L23.1345 135.826C23.1404 135.867 23.1346 135.908 23.1287 135.949Z" fill="#738185"/>
<path d="M14.4802 130.4L14.4395 140.967C14.4395 141.61 14.8643 142.259 15.7082 142.75C17.396 143.727 20.1256 143.727 21.8018 142.75C22.6341 142.265 23.0531 141.628 23.0531 140.99L23.0938 130.395H14.4802V130.4Z" fill="#9D9D9C"/>
<path d="M85.5018 99.711C85.56 99.0268 85.1409 98.331 84.2388 97.8047C82.551 96.8281 79.8214 96.8281 78.1453 97.8047C77.3072 98.29 76.8939 98.9333 76.8939 99.5706C76.8939 99.5648 76.8066 121.242 76.8066 121.242C76.8066 121.885 77.2315 122.534 78.0754 123.025C79.7632 124.002 82.4928 124.002 84.169 123.025C85.0012 122.54 85.4203 121.903 85.4203 121.265L85.5076 99.5882C85.5076 99.6291 85.5018 99.6701 85.5018 99.711Z" fill="#738185"/>
<path d="M76.8474 94.168L76.8066 104.74C76.8066 105.384 77.2315 106.033 78.0754 106.524C79.7632 107.5 82.487 107.5 84.169 106.524C85.0012 106.039 85.4203 105.401 85.4203 104.764L85.461 99.9278L76.8474 94.168Z" fill="#9D9D9C"/>
<path d="M1.50187 128.4C1.44367 127.716 1.86272 127.02 2.76482 126.494C4.45263 125.518 7.18223 125.518 8.8584 126.494C9.69649 126.979 10.1097 127.623 10.1097 128.26C10.1097 128.254 10.197 149.931 10.197 149.931C10.197 150.574 9.77215 151.224 8.92824 151.715C7.24043 152.691 4.51665 152.691 2.83466 151.715C2.0024 151.229 1.58336 150.592 1.58336 149.955L1.49023 128.278C1.49023 128.319 1.49605 128.36 1.50187 128.4Z" fill="#738185"/>
<path d="M10.1508 126.494L10.1915 133.424C10.1915 134.067 9.76664 134.716 8.92274 135.207C7.23492 136.184 4.51115 136.184 2.82916 135.207C1.99689 134.722 1.57785 134.084 1.57785 133.447L1.53711 129.395L10.1508 126.494Z" fill="#9D9D9C"/>
<path d="M54.2596 117.944C54.3178 117.26 53.8987 116.564 52.9966 116.038C51.3088 115.062 48.5792 115.062 46.9031 116.038C46.065 116.523 45.6518 117.167 45.6518 117.804C45.6518 117.798 45.5645 139.475 45.5645 139.475C45.5645 140.118 45.9893 140.767 46.8332 141.259C48.521 142.235 51.2506 142.235 52.9268 141.259C53.7591 140.773 54.1781 140.136 54.1781 139.499L54.2654 117.822C54.2712 117.863 54.2654 117.903 54.2596 117.944Z" fill="#738185"/>
<path d="M45.6111 112.396L45.5703 122.968C45.5703 123.611 45.9952 124.26 46.8391 124.751C48.5269 125.728 51.2565 125.728 52.9327 124.751C53.7649 124.266 54.184 123.629 54.184 122.991L54.2247 112.396H45.6111Z" fill="#9D9D9C"/>
<path d="M32.6332 110.396C32.575 109.711 32.9941 109.016 33.8962 108.489C35.584 107.513 38.3136 107.513 39.9898 108.489C40.8278 108.975 41.2411 109.618 41.2411 110.255C41.2411 110.249 41.3284 131.926 41.3284 131.926C41.3284 132.57 40.9035 133.219 40.0596 133.71C38.3718 134.686 35.6422 134.686 33.966 133.71C33.1338 133.224 32.7147 132.587 32.7147 131.95L32.6274 110.273C32.6216 110.314 32.6274 110.355 32.6332 110.396Z" fill="#738185"/>
<path d="M41.2816 108.483L41.3224 115.413C41.3224 116.056 40.8975 116.705 40.0536 117.196C38.3658 118.173 35.6362 118.173 33.96 117.196C33.1278 116.711 32.7087 116.074 32.7087 115.436L32.668 111.384L41.2816 108.483Z" fill="#9D9D9C"/>
<path d="M63.7641 92.3848C63.7059 91.7006 64.1249 91.0048 65.027 90.4785C66.7148 89.502 69.4444 89.502 71.1206 90.4785C71.9587 90.9639 72.3719 91.6071 72.3719 92.2445C72.3719 92.2386 72.4592 113.916 72.4592 113.916C72.4592 114.559 72.0344 115.208 71.1905 115.699C69.5026 116.676 66.773 116.676 65.0969 115.699C64.2646 115.214 63.8456 114.576 63.8456 113.939L63.7583 92.262C63.7525 92.3088 63.7583 92.3497 63.7641 92.3848Z" fill="#738185"/>
<path d="M72.4125 90.4785L72.4532 97.4079C72.4532 98.0511 72.0284 98.7002 71.1845 99.1914C69.4966 100.168 66.7729 100.168 65.0909 99.1914C64.2586 98.706 63.8396 98.0687 63.8396 97.4313L63.7988 93.3789L72.4125 90.4785Z" fill="#9D9D9C"/>
<path d="M88.1386 100.443L79.8043 95.6073L77.2377 94.122L68.8976 89.2803L68.0479 88.7891L0.00582004 128.517L0 129.588L0.855545 130.085L9.18984 134.921L11.7565 136.406L20.0966 141.242L20.9463 141.739L88.9884 102.01L88.9942 100.94L88.1386 100.443Z" fill="#1D1D1B"/>
<path d="M0.0117188 126.342L68.0538 86.6133L68.9035 87.1103L0.861444 126.839L0.0117188 126.342Z" fill="#C9E0E7"/>
<path d="M0.861328 126.839L68.9034 87.1104V88.2155L0.861328 127.944V126.839Z" fill="#99ABB0"/>
<path d="M0.861328 127.944L68.9034 88.2158L77.2377 93.0518L9.19562 132.78L0.861328 127.944Z" fill="#1D1D1B"/>
<path d="M11.7675 133.166L79.8096 93.4375V94.5427L11.7617 134.271L11.7675 133.166Z" fill="#99ABB0"/>
<path d="M9.20117 131.675L77.2432 91.9463L79.8099 93.4374L11.7678 133.166L9.20117 131.675Z" fill="#C9E0E7"/>
<path d="M11.7617 134.271L79.8096 94.543L88.1439 99.3789L20.1018 139.107L11.7617 134.271Z" fill="#1D1D1B"/>
<path d="M20.958 138.493L20.9522 139.598V140.668L20.0966 140.171L11.7623 135.341L9.1957 133.85L0.855585 129.014L0.00585938 128.517V127.447L0.0116794 126.342L0.861405 126.839V127.944L9.1957 132.78L9.20152 131.675L11.7682 133.166L11.7623 134.271L20.1024 139.107V138.002L20.958 138.493Z" fill="#738185"/>
<path d="M20.9589 138.493L20.9531 139.598V140.668L88.9952 100.94V99.8698L89.001 98.7646L20.9589 138.493Z" fill="#99ABB0"/>
<path d="M20.1016 138.002L88.1436 98.2734L88.9992 98.7646L20.9571 138.493L20.1016 138.002Z" fill="#C9E0E7"/>
<path d="M82.377 97.677L82.6156 97.8173L84.0822 96.9694L83.8378 96.8291L82.377 97.677Z" fill="white"/>
<path d="M22.6742 132.307L19.834 133.956L20.0726 134.096L22.9128 132.447L22.6742 132.307Z" fill="white"/>
<path d="M28.5983 129.148L28.3597 129.008L25.5137 130.657L25.7581 130.797L28.5983 129.148Z" fill="white"/>
<path d="M34.2858 125.85L34.0472 125.71L31.2012 127.359L31.4456 127.499L34.2858 125.85Z" fill="white"/>
<path d="M39.9713 122.552L39.7327 122.412L36.8867 124.061L37.1312 124.201L39.9713 122.552Z" fill="white"/>
<path d="M45.6569 119.255L45.4183 119.114L42.5723 120.763L42.8167 120.904L45.6569 119.255Z" fill="white"/>
<path d="M51.3444 115.957L51.0999 115.816L48.2598 117.465L48.5042 117.606L51.3444 115.957Z" fill="white"/>
<path d="M57.0299 112.659L56.7913 112.519L53.9453 114.168L54.1898 114.308L57.0299 112.659Z" fill="white"/>
<path d="M62.7155 109.36L62.471 109.22L59.6309 110.869L59.8753 111.009L62.7155 109.36Z" fill="white"/>
<path d="M68.403 106.062L68.1585 105.922L65.3184 107.571L65.557 107.711L68.403 106.062Z" fill="white"/>
<path d="M74.0885 102.764L73.8441 102.624L71.0039 104.273L71.2425 104.413L74.0885 102.764Z" fill="white"/>
<path d="M79.7741 99.4665L79.5296 99.3262L76.6895 100.975L76.9281 101.116L79.7741 99.4665Z" fill="white"/>
<path d="M15.5273 136.452L15.766 136.593L17.2326 135.745L16.9882 135.604L15.5273 136.452Z" fill="white"/>
<path d="M71.5176 91.3674L71.7562 91.5136L73.217 90.6599L72.9784 90.5195L71.5176 91.3674Z" fill="white"/>
<path d="M11.8147 126.003L8.96875 127.652L9.21319 127.792L12.0534 126.143L11.8147 126.003Z" fill="white"/>
<path d="M17.7389 122.844L17.5003 122.704L14.6543 124.353L14.8987 124.493L17.7389 122.844Z" fill="white"/>
<path d="M23.4264 119.547L23.182 119.406L20.3418 121.055L20.5862 121.196L23.4264 119.547Z" fill="white"/>
<path d="M29.112 116.249L28.8675 116.108L26.0273 117.757L26.266 117.898L29.112 116.249Z" fill="white"/>
<path d="M34.7975 112.951L34.5589 112.811L31.7129 114.46L31.9573 114.6L34.7975 112.951Z" fill="white"/>
<path d="M40.485 109.653L40.2406 109.513L37.4004 111.156L37.6448 111.302L40.485 109.653Z" fill="white"/>
<path d="M46.1706 106.355L45.9261 106.215L43.0859 107.864L43.3246 108.004L46.1706 106.355Z" fill="white"/>
<path d="M51.8561 103.056L51.6117 102.916L48.7715 104.559L49.0101 104.705L51.8561 103.056Z" fill="white"/>
<path d="M57.5436 99.7585L57.2992 99.6123L54.459 101.267L54.6976 101.408L57.5436 99.7585Z" fill="white"/>
<path d="M63.2292 96.4548L62.9847 96.3145L60.1445 97.9635L60.3832 98.1097L63.2292 96.4548Z" fill="white"/>
<path d="M68.9147 93.1628L68.6702 93.0166L65.8242 94.6715L66.0687 94.8118L68.9147 93.1628Z" fill="white"/>
<path d="M4.66797 130.149L4.90659 130.289L6.36742 129.441L6.1288 129.301L4.66797 130.149Z" fill="white"/>
<path d="M28.5182 131.137C28.5938 131.09 28.6637 131.102 28.7044 131.154C28.7219 131.178 28.7335 131.213 28.7335 131.26V131.382L28.7393 132.4V132.645V133.294C28.7393 133.429 28.6462 133.593 28.5298 133.663C28.4134 133.733 28.3145 133.675 28.3145 133.54V132.891V132.645V131.628V131.505C28.3145 131.458 28.3261 131.412 28.3436 131.371C28.3668 131.271 28.4367 131.184 28.5182 131.137Z" fill="#797979"/>
<path d="M28.3327 131.371C28.3153 131.418 28.3036 131.465 28.3036 131.506V131.628L24.9978 133.546V133.424C24.9978 133.377 24.9862 133.342 24.9688 133.318L28.3327 131.371Z" fill="#999999"/>
<path d="M24.7818 133.301C24.8574 133.254 24.9273 133.266 24.968 133.318C24.9855 133.342 24.9971 133.377 24.9971 133.424V133.546V134.564V134.809V135.459C24.9971 135.593 24.904 135.757 24.7876 135.827C24.6712 135.897 24.5723 135.839 24.5723 135.704V135.055V134.809V133.792V133.669C24.5723 133.622 24.5839 133.576 24.6014 133.535C24.6363 133.441 24.7061 133.348 24.7818 133.301Z" fill="#797979"/>
<path d="M24.6023 133.534C24.5848 133.581 24.5732 133.628 24.5732 133.669V133.791L21.2674 135.709V135.587C21.2674 135.546 21.2557 135.505 21.2383 135.481L24.6023 133.534Z" fill="#999999"/>
<path d="M21.0513 135.47C21.1328 135.423 21.1968 135.435 21.2376 135.487C21.255 135.511 21.2667 135.546 21.2667 135.593V135.715V136.733V136.978V137.627C21.2667 137.762 21.1735 137.926 21.0571 137.996C20.9407 138.06 20.8476 138.008 20.8476 137.873L20.8418 135.838C20.8418 135.704 20.9349 135.534 21.0513 135.47Z" fill="#797979"/>
<path d="M24.5734 134.809L24.5792 135.054L21.2676 136.972V136.727L24.5734 134.809Z" fill="#999999"/>
<path d="M28.3096 132.646V132.891L24.998 134.809V134.564L28.3096 132.646Z" fill="#999999"/>
<path d="M32.0402 130.476V130.721L28.7344 132.639V132.399L32.0402 130.476Z" fill="#999999"/>
<path d="M47.1783 120.313C47.2539 120.266 47.3238 120.277 47.3587 120.33C47.3762 120.353 47.3878 120.389 47.3878 120.435V120.558V121.576V121.821V122.47C47.3878 122.605 47.2947 122.768 47.1783 122.839C47.0619 122.909 46.9688 122.85 46.9688 122.716V122.067V121.821V120.804V120.681C46.9688 120.64 46.9804 120.587 46.9979 120.546C47.0328 120.447 47.0968 120.359 47.1783 120.313Z" fill="#797979"/>
<path d="M46.9909 120.541C46.9734 120.588 46.9618 120.635 46.9618 120.676V120.798L43.6502 122.716V122.594C43.6502 122.553 43.6386 122.512 43.6211 122.488L46.9909 120.541Z" fill="#999999"/>
<path d="M43.4459 122.477C43.5215 122.43 43.5914 122.441 43.6321 122.494C43.6496 122.518 43.6612 122.553 43.6612 122.599V122.722V123.74V123.985V124.634C43.6612 124.769 43.5681 124.933 43.4517 125.003C43.3353 125.067 43.2422 125.014 43.2422 124.88V124.231V123.985V122.968V122.845C43.2422 122.798 43.2538 122.751 43.2713 122.71C43.2946 122.611 43.3644 122.523 43.4459 122.477Z" fill="#797979"/>
<path d="M43.2374 123.985V124.225L39.9258 126.149V125.903L43.2374 123.985Z" fill="#999999"/>
<path d="M43.2604 122.71C43.243 122.757 43.2313 122.804 43.2313 122.844V122.967L39.9197 124.885V124.762C39.9197 124.716 39.9081 124.681 39.8906 124.657L43.2604 122.71Z" fill="#999999"/>
<path d="M39.7096 124.646C39.7852 124.599 39.8551 124.61 39.89 124.663C39.9074 124.686 39.9191 124.722 39.9191 124.768V124.891L39.9249 125.909V126.154V126.803C39.9249 126.938 39.8318 127.101 39.7154 127.172C39.599 127.242 39.5059 127.183 39.5059 127.049V126.4V126.154V125.137V125.014C39.5059 124.967 39.5175 124.92 39.535 124.879C39.5641 124.78 39.6339 124.686 39.7096 124.646Z" fill="#797979"/>
<path d="M39.5069 126.148V126.394L36.1953 128.312V128.066L39.5069 126.148Z" fill="#999999"/>
<path d="M39.53 124.874C39.5125 124.921 39.5009 124.968 39.5009 125.009V125.131L36.1893 127.049V126.927C36.1893 126.88 36.1776 126.845 36.1602 126.821L39.53 124.874Z" fill="#999999"/>
<path d="M35.9791 126.81C36.0548 126.763 36.1246 126.774 36.1653 126.827C36.1828 126.851 36.1944 126.886 36.1944 126.932V127.055V128.073V128.318V128.967C36.1944 129.102 36.1013 129.266 35.9849 129.336C35.8685 129.406 35.7754 129.347 35.7754 129.213V128.564V128.318V127.301V127.178C35.7754 127.137 35.787 127.084 35.8045 127.043C35.8336 126.944 35.8976 126.856 35.9791 126.81Z" fill="#797979"/>
<path d="M35.7706 128.312L35.7764 128.558L32.4648 130.476V130.236L35.7706 128.312Z" fill="#999999"/>
<path d="M35.7995 127.038C35.782 127.085 35.7704 127.132 35.7704 127.173V127.295L32.4588 129.213V129.091C32.4588 129.05 32.4471 129.009 32.4297 128.985L35.7995 127.038Z" fill="#999999"/>
<path d="M32.2486 128.973C32.3243 128.926 32.3941 128.938 32.4349 128.99C32.4523 129.014 32.464 129.049 32.464 129.095V129.218V130.236V130.481V131.13C32.464 131.265 32.3708 131.429 32.2544 131.499C32.138 131.569 32.0449 131.511 32.0449 131.376V130.727V130.481V129.464V129.341C32.0449 129.3 32.0566 129.248 32.074 129.207C32.1031 129.107 32.1671 129.019 32.2486 128.973Z" fill="#797979"/>
<path d="M32.0632 129.201C32.0457 129.248 32.0341 129.295 32.0341 129.336V129.458L28.7225 131.376V131.254C28.7225 131.213 28.7108 131.172 28.6934 131.148L32.0632 129.201Z" fill="#999999"/>
<path d="M46.9678 121.821V122.061L43.6621 123.985L43.6562 123.739L46.9678 121.821Z" fill="#999999"/>
<path d="M54.4366 117.488V117.734L51.125 119.652V119.412L54.4366 117.488Z" fill="#999999"/>
<path d="M54.4596 116.214C54.4422 116.261 54.4305 116.307 54.4305 116.348V116.471L51.1189 118.389V118.266C51.1189 118.225 51.1073 118.185 51.0898 118.161L54.4596 116.214Z" fill="#999999"/>
<path d="M50.9088 118.149C50.9844 118.103 51.0543 118.114 51.095 118.167C51.1125 118.19 51.1241 118.225 51.1241 118.272V118.395V119.412V119.658V120.307C51.1241 120.442 51.031 120.605 50.9146 120.676C50.7982 120.74 50.7051 120.687 50.7051 120.553V119.904V119.658V118.641V118.518C50.7051 118.477 50.7167 118.424 50.7342 118.383C50.7633 118.284 50.8331 118.196 50.9088 118.149Z" fill="#797979"/>
<path d="M50.6984 119.652L50.7042 119.898L47.3926 121.816V121.576L50.6984 119.652Z" fill="#999999"/>
<path d="M50.7272 118.377C50.7098 118.424 50.6981 118.471 50.6981 118.511V118.634L47.3865 120.552V120.429C47.3865 120.389 47.3749 120.348 47.3574 120.324L50.7272 118.377Z" fill="#999999"/>
<path d="M54.6393 115.985C54.7208 115.939 54.7848 115.95 54.8255 116.003C54.843 116.026 54.8546 116.061 54.8546 116.108V116.231L54.8604 117.248V117.494V118.143C54.8604 118.278 54.7673 118.441 54.6509 118.512C54.5345 118.582 54.4414 118.523 54.4414 118.389V117.74V117.494V116.477V116.354C54.4414 116.313 54.453 116.26 54.4705 116.219C54.4938 116.12 54.5636 116.026 54.6393 115.985Z" fill="#797979"/>
<path d="M58.1651 115.325V115.571L54.8535 117.489V117.243L58.1651 115.325Z" fill="#999999"/>
<path d="M61.9206 111.881C61.9031 111.928 61.8915 111.974 61.8915 112.015V112.138L58.5799 114.056V113.933C58.5799 113.892 58.5682 113.851 58.5508 113.828L61.9206 111.881Z" fill="#999999"/>
<path d="M58.3697 113.822C58.4512 113.775 58.5152 113.787 58.556 113.84C58.5734 113.863 58.5851 113.898 58.5851 113.945V114.068V115.085V115.331V115.98C58.5851 116.115 58.4919 116.278 58.3755 116.348C58.2591 116.419 58.166 116.36 58.166 116.226V115.577V115.331V114.313V114.191C58.166 114.15 58.1777 114.097 58.1951 114.056C58.2242 113.957 58.2941 113.863 58.3697 113.822Z" fill="#797979"/>
<path d="M58.1882 114.05C58.1707 114.097 58.1591 114.143 58.1591 114.184V114.307L54.8475 116.225V116.102C54.8475 116.061 54.8358 116.02 54.8184 115.997L58.1882 114.05Z" fill="#999999"/>
<path d="M61.8956 113.161V113.401L58.5898 115.325L58.584 115.079L61.8956 113.161Z" fill="#999999"/>
<path d="M69.3643 108.828V109.074L66.0527 110.992V110.746L69.3643 108.828Z" fill="#999999"/>
<path d="M65.8365 109.489C65.918 109.442 65.982 109.454 66.0227 109.507C66.0402 109.53 66.0518 109.565 66.0518 109.612V109.735V110.752V110.998V111.647C66.0518 111.782 65.9587 111.945 65.8423 112.015C65.7259 112.08 65.6328 112.027 65.6328 111.893V111.244V110.998L65.627 109.98V109.858C65.627 109.817 65.6386 109.764 65.6561 109.723C65.691 109.624 65.7608 109.536 65.8365 109.489Z" fill="#797979"/>
<path d="M65.6261 110.998V111.238L62.3203 113.162V112.916L65.6261 110.998Z" fill="#999999"/>
<path d="M65.6569 109.717C65.6395 109.764 65.6278 109.81 65.6278 109.851V109.974L62.3162 111.892V111.769C62.3162 111.728 62.3046 111.687 62.2871 111.664L65.6569 109.717Z" fill="#999999"/>
<path d="M69.3874 107.554C69.37 107.6 69.3583 107.647 69.3583 107.688V107.811L66.0525 109.729V109.606C66.0525 109.559 66.0409 109.524 66.0234 109.501L69.3874 107.554Z" fill="#999999"/>
<path d="M76.8542 103.221C76.8367 103.267 76.8251 103.314 76.8251 103.355V103.478L73.5135 105.396V105.273C73.5135 105.232 73.5018 105.191 73.4844 105.168L76.8542 103.221Z" fill="#999999"/>
<path d="M76.8253 104.501L76.8311 104.741L73.5195 106.665V106.419L76.8253 104.501Z" fill="#999999"/>
<path d="M73.3033 105.156C73.3789 105.109 73.4488 105.121 73.4837 105.174C73.5012 105.197 73.5128 105.232 73.5128 105.279V105.402L73.5186 106.419V106.665V107.314C73.5186 107.449 73.4255 107.612 73.3091 107.682C73.1927 107.753 73.0938 107.694 73.0938 107.56V106.911V106.665V105.647V105.525C73.0938 105.478 73.1054 105.431 73.1229 105.39C73.152 105.297 73.2218 105.203 73.3033 105.156Z" fill="#797979"/>
<path d="M73.0948 106.665V106.911L69.789 108.829L69.7832 108.583L73.0948 106.665Z" fill="#999999"/>
<path d="M73.1179 105.391C73.1004 105.437 73.0888 105.484 73.0888 105.525V105.648L69.783 107.566V107.443C69.783 107.396 69.7714 107.361 69.7539 107.338L73.1179 105.391Z" fill="#999999"/>
<path d="M69.567 107.326C69.6485 107.279 69.7125 107.291 69.7532 107.344C69.7707 107.367 69.7823 107.402 69.7823 107.449V107.572V108.589V108.835V109.484C69.7823 109.618 69.6892 109.782 69.5728 109.852C69.4564 109.917 69.3633 109.864 69.3633 109.73V109.08V108.835V107.817V107.695C69.3633 107.648 69.3749 107.601 69.3924 107.56C69.4215 107.461 69.4913 107.373 69.567 107.326Z" fill="#797979"/>
<path d="M84.2921 100.168V100.414L80.9805 102.332V102.092L84.2921 100.168Z" fill="#999999"/>
<path d="M84.3151 98.8936C84.2976 98.9403 84.286 98.9871 84.286 99.028V99.1508L80.9744 101.069V100.946C80.9744 100.899 80.9628 100.864 80.9453 100.841L84.3151 98.8936Z" fill="#999999"/>
<path d="M80.7643 100.829C80.8399 100.782 80.9097 100.794 80.9505 100.847C80.9679 100.87 80.9796 100.905 80.9796 100.952V101.075V102.092V102.338V102.987C80.9796 103.121 80.8865 103.285 80.7701 103.355C80.6537 103.425 80.5605 103.367 80.5605 103.232V102.583V102.338V101.32V101.198C80.5605 101.151 80.5722 101.104 80.5896 101.063C80.6187 100.964 80.6886 100.876 80.7643 100.829Z" fill="#797979"/>
<path d="M80.5616 102.332V102.578L77.25 104.496V104.256L80.5616 102.332Z" fill="#999999"/>
<path d="M80.5846 101.058C80.5672 101.104 80.5555 101.151 80.5555 101.192V101.315L77.2439 103.233V103.11C77.2439 103.069 77.2323 103.028 77.2148 103.005L80.5846 101.058Z" fill="#999999"/>
<path d="M77.0338 102.993C77.1094 102.946 77.1793 102.958 77.22 103.011C77.2375 103.034 77.2491 103.069 77.2491 103.116V103.239V104.256V104.502V105.151C77.2491 105.285 77.156 105.449 77.0396 105.519C76.9232 105.589 76.8301 105.531 76.8301 105.397V104.747V104.502V103.484V103.362C76.8301 103.321 76.8417 103.268 76.8592 103.227C76.8883 103.128 76.9523 103.04 77.0338 102.993Z" fill="#797979"/>
<path d="M62.106 111.652C62.1875 111.606 62.2515 111.617 62.2923 111.67C62.3097 111.693 62.3214 111.728 62.3214 111.775V111.898V112.915V113.161V113.81C62.3214 113.945 62.2283 114.108 62.1119 114.179C61.9955 114.243 61.9023 114.19 61.9023 114.056V113.407V113.161V112.144V112.021C61.9023 111.98 61.914 111.927 61.9314 111.886C61.9605 111.787 62.0246 111.699 62.106 111.652Z" fill="#797979"/>
<path d="M8.32866 119.436C8.40432 119.389 8.47416 119.4 8.5149 119.453C8.53236 119.476 8.544 119.512 8.544 119.558V119.681V120.699V120.944V121.593C8.544 121.728 8.45088 121.892 8.33448 121.962C8.21808 122.032 8.11914 121.973 8.11914 121.839V121.19V120.944V119.927V119.804C8.11914 119.757 8.13078 119.71 8.14824 119.669C8.18316 119.576 8.253 119.482 8.32866 119.436Z" fill="#797979"/>
<path d="M8.14328 119.67C8.12582 119.717 8.11418 119.763 8.11418 119.804V119.927L4.8084 121.845V121.722C4.8084 121.676 4.79676 121.641 4.7793 121.617L8.14328 119.67Z" fill="#999999"/>
<path d="M4.59815 121.605C4.67381 121.559 4.74365 121.57 4.7844 121.623C4.80186 121.646 4.8135 121.681 4.8135 121.728V121.851V122.869V123.114V123.763C4.8135 123.898 4.72037 124.061 4.60397 124.132C4.48757 124.202 4.38863 124.143 4.38863 124.009V123.36V123.114L4.38281 122.097V121.974C4.38281 121.933 4.39445 121.88 4.41191 121.839C4.44683 121.74 4.51667 121.652 4.59815 121.605Z" fill="#797979"/>
<path d="M4.41281 121.833C4.39535 121.88 4.38371 121.927 4.38371 121.968V122.09L1.07793 124.008V123.886C1.07793 123.845 1.06629 123.804 1.04883 123.78L4.41281 121.833Z" fill="#999999"/>
<path d="M0.861865 123.769C0.943346 123.722 1.00737 123.733 1.04811 123.786C1.06557 123.809 1.07721 123.845 1.07721 123.891V124.014V125.032V125.277V125.926C1.07721 126.061 0.984086 126.225 0.867685 126.295C0.751284 126.359 0.658164 126.306 0.658164 126.172L0.652344 124.137C0.652344 124.002 0.745464 123.839 0.861865 123.769Z" fill="#797979"/>
<path d="M4.38977 123.108V123.354L1.08398 125.272V125.026L4.38977 123.108Z" fill="#999999"/>
<path d="M8.12023 120.944V121.19L4.81445 123.108V122.862L8.12023 120.944Z" fill="#999999"/>
<path d="M11.8565 118.781V119.021L8.54492 120.945V120.699L11.8565 118.781Z" fill="#999999"/>
<path d="M26.9888 108.612C27.0645 108.566 27.1343 108.577 27.1751 108.63C27.1925 108.653 27.2042 108.688 27.2042 108.735V108.858V109.875V110.121V110.77C27.2042 110.905 27.111 111.068 26.9946 111.138C26.8782 111.209 26.7851 111.15 26.7851 111.016V110.367V110.121L26.7793 109.104V108.981C26.7793 108.94 26.7909 108.887 26.8084 108.846C26.8433 108.747 26.9132 108.659 26.9888 108.612Z" fill="#797979"/>
<path d="M26.8073 108.846C26.7898 108.892 26.7782 108.939 26.7782 108.98V109.103L23.4666 111.021V110.898C23.4666 110.851 23.455 110.816 23.4375 110.793L26.8073 108.846Z" fill="#999999"/>
<path d="M23.2564 110.781C23.3321 110.734 23.4019 110.746 23.4369 110.799C23.4543 110.822 23.466 110.857 23.466 110.904V111.027L23.4718 112.044V112.29V112.939C23.4718 113.074 23.3787 113.237 23.2623 113.307C23.1459 113.372 23.0527 113.319 23.0527 113.185V112.536V112.29V111.272V111.15C23.0527 111.103 23.0644 111.056 23.0818 111.015C23.1109 110.916 23.1808 110.822 23.2564 110.781Z" fill="#797979"/>
<path d="M23.048 112.284L23.0538 112.53L19.7422 114.448V114.202L23.048 112.284Z" fill="#999999"/>
<path d="M23.0768 111.01C23.0594 111.057 23.0477 111.103 23.0477 111.144V111.267L19.7361 113.185V113.062C19.7361 113.015 19.7245 112.98 19.707 112.957L23.0768 111.01Z" fill="#999999"/>
<path d="M19.5259 112.945C19.6016 112.899 19.6714 112.91 19.7063 112.963C19.7238 112.986 19.7354 113.021 19.7354 113.068V113.191V114.208V114.454V115.103C19.7354 115.238 19.6423 115.401 19.5259 115.471C19.4095 115.542 19.3164 115.483 19.3164 115.349V114.7V114.454V113.437V113.314C19.3164 113.267 19.328 113.22 19.3455 113.179C19.3804 113.08 19.4444 112.992 19.5259 112.945Z" fill="#797979"/>
<path d="M19.3175 114.448V114.694L16.0117 116.612V116.372L19.3175 114.448Z" fill="#999999"/>
<path d="M19.3405 113.173C19.323 113.22 19.3114 113.266 19.3114 113.307V113.43L15.9998 115.348V115.225C15.9998 115.184 15.9882 115.143 15.9707 115.12L19.3405 113.173Z" fill="#999999"/>
<path d="M15.7955 115.108C15.8712 115.062 15.941 115.073 15.9817 115.126C15.9992 115.149 16.0108 115.184 16.0108 115.231V115.354V116.371V116.617V117.266C16.0108 117.401 15.9177 117.564 15.8013 117.635C15.6849 117.705 15.5918 117.646 15.5918 117.512V116.863V116.617V115.6V115.477C15.5918 115.436 15.6034 115.383 15.6209 115.342C15.6442 115.243 15.714 115.155 15.7955 115.108Z" fill="#797979"/>
<path d="M15.587 116.611V116.857L12.2754 118.775V118.535L15.587 116.611Z" fill="#999999"/>
<path d="M15.61 115.337C15.5926 115.384 15.5809 115.43 15.5809 115.471V115.594L12.2693 117.512V117.389C12.2693 117.348 12.2577 117.308 12.2402 117.284L15.61 115.337Z" fill="#999999"/>
<path d="M12.0592 117.272C12.1348 117.226 12.2047 117.237 12.2454 117.29C12.2629 117.313 12.2745 117.348 12.2745 117.395V117.518V118.536V118.781V119.43C12.2745 119.565 12.1814 119.728 12.065 119.799C11.9486 119.869 11.8555 119.81 11.8555 119.676V119.027V118.781V117.764V117.641C11.8555 117.6 11.8671 117.547 11.8846 117.506C11.9137 117.407 11.9835 117.319 12.0592 117.272Z" fill="#797979"/>
<path d="M11.8796 117.501C11.8621 117.548 11.8505 117.595 11.8505 117.635V117.758L8.53887 119.676V119.553C8.53887 119.513 8.52723 119.472 8.50977 119.448L11.8796 117.501Z" fill="#999999"/>
<path d="M26.7843 110.121V110.361L23.4727 112.285V112.039L26.7843 110.121Z" fill="#999999"/>
<path d="M34.2471 105.787V106.033L30.9414 107.951L30.9355 107.711L34.2471 105.787Z" fill="#999999"/>
<path d="M34.2702 104.513C34.2527 104.559 34.2411 104.606 34.2411 104.647V104.77L30.9295 106.688V106.565C30.9295 106.524 30.9179 106.483 30.9004 106.46L34.2702 104.513Z" fill="#999999"/>
<path d="M30.7252 106.448C30.8008 106.401 30.8707 106.413 30.9114 106.466C30.9289 106.489 30.9405 106.524 30.9405 106.571V106.694V107.711V107.957V108.606C30.9405 108.74 30.8474 108.904 30.731 108.974C30.6146 109.045 30.5215 108.986 30.5215 108.852V108.203V107.957V106.939V106.817C30.5215 106.776 30.5331 106.723 30.5506 106.682C30.5739 106.583 30.6437 106.495 30.7252 106.448Z" fill="#797979"/>
<path d="M30.5147 107.957V108.197L27.2031 110.121V109.875L30.5147 107.957Z" fill="#999999"/>
<path d="M30.5378 106.677C30.5203 106.724 30.5087 106.77 30.5087 106.811V106.934L27.1971 108.852V108.729C27.1971 108.688 27.1854 108.647 27.168 108.624L30.5378 106.677Z" fill="#999999"/>
<path d="M34.4557 104.285C34.5371 104.238 34.6012 104.25 34.6419 104.303C34.6594 104.326 34.671 104.361 34.671 104.408V104.531V105.548V105.794V106.443C34.671 106.577 34.5779 106.741 34.4615 106.811C34.3451 106.881 34.252 106.823 34.252 106.689V106.039V105.794V104.776V104.654C34.252 104.613 34.2636 104.56 34.2811 104.519C34.3102 104.42 34.3742 104.332 34.4557 104.285Z" fill="#797979"/>
<path d="M37.9757 103.624L37.9815 103.87L34.6699 105.788V105.542L37.9757 103.624Z" fill="#999999"/>
<path d="M41.735 100.186C41.7176 100.232 41.7059 100.279 41.7059 100.32V100.443L38.3943 102.361V102.238C38.3943 102.191 38.3827 102.156 38.3652 102.133L41.735 100.186Z" fill="#999999"/>
<path d="M38.1861 102.121C38.2676 102.074 38.3316 102.086 38.3723 102.139C38.3898 102.162 38.4014 102.197 38.4014 102.244V102.367V103.384V103.63V104.279C38.4014 104.413 38.3083 104.577 38.1919 104.647C38.0755 104.717 37.9824 104.659 37.9824 104.524V103.875V103.63L37.9766 102.612V102.49C37.9766 102.443 37.9882 102.396 38.0057 102.355C38.0406 102.256 38.1104 102.162 38.1861 102.121Z" fill="#797979"/>
<path d="M38.0046 102.35C37.9871 102.396 37.9755 102.443 37.9755 102.484V102.607L34.6639 104.525V104.402C34.6639 104.361 34.6522 104.32 34.6348 104.297L38.0046 102.35Z" fill="#999999"/>
<path d="M41.712 101.461V101.707L38.4004 103.625V103.379L41.712 101.461Z" fill="#999999"/>
<path d="M49.1749 97.127V97.3726L45.8691 99.2906V99.0508L49.1749 97.127Z" fill="#999999"/>
<path d="M45.6471 97.7881C45.7286 97.7413 45.7926 97.753 45.8333 97.8056C45.8508 97.829 45.8624 97.8641 45.8624 97.9109V98.0337L45.8683 99.0512V99.2968V99.9458C45.8683 100.08 45.7751 100.244 45.6587 100.314C45.5423 100.384 45.4492 100.326 45.4492 100.191V99.5424V99.2968V98.2793V98.1565C45.4492 98.1097 45.4609 98.0629 45.4783 98.022C45.5016 97.9226 45.5714 97.8349 45.6471 97.7881Z" fill="#797979"/>
<path d="M45.4425 99.2969V99.5366L42.1309 101.46V101.215L45.4425 99.2969Z" fill="#999999"/>
<path d="M45.4675 98.0166C45.45 98.0634 45.4384 98.1102 45.4384 98.1511V98.2739L42.1268 100.192V100.069C42.1268 100.028 42.1151 99.9872 42.0977 99.9638L45.4675 98.0166Z" fill="#999999"/>
<path d="M49.198 95.8525C49.1805 95.8993 49.1689 95.9461 49.1689 95.987V96.1098L45.8631 98.0278V97.905C45.8631 97.8583 45.8514 97.8232 45.834 97.7998L49.198 95.8525Z" fill="#999999"/>
<path d="M56.6647 91.5254C56.6473 91.5722 56.6356 91.619 56.6356 91.6599V91.7827L53.324 93.7007V93.5779C53.324 93.5311 53.3124 93.496 53.2949 93.4726L56.6647 91.5254Z" fill="#999999"/>
<path d="M56.6417 92.7998V93.0396L53.3301 94.9634V94.7178L56.6417 92.7998Z" fill="#999999"/>
<path d="M53.1138 93.4609C53.1894 93.4142 53.2593 93.4259 53.3 93.4785C53.3175 93.5019 53.3291 93.537 53.3291 93.5837V93.7065V94.724V94.9696V95.6187C53.3291 95.7532 53.236 95.9169 53.1196 95.9871C53.0032 96.0573 52.9043 95.9988 52.9043 95.8643V95.2152V94.9696L52.8984 93.9521V93.8293C52.8984 93.7826 52.9101 93.7358 52.9275 93.6949C52.9683 93.5954 53.0381 93.5019 53.1138 93.4609Z" fill="#797979"/>
<path d="M52.9054 94.9639V95.2095L49.5996 97.1275V96.8819L52.9054 94.9639Z" fill="#999999"/>
<path d="M52.9343 93.6895C52.9168 93.7362 52.9052 93.783 52.9052 93.8239V93.9467L49.5994 95.8648V95.742C49.5994 95.701 49.5878 95.6601 49.5703 95.6367L52.9343 93.6895Z" fill="#999999"/>
<path d="M49.3833 95.625C49.4648 95.5782 49.5289 95.5899 49.5696 95.6426C49.5871 95.6659 49.5987 95.701 49.5987 95.7478V95.8706V96.8881V97.1337V97.7828C49.5987 97.9173 49.5056 98.081 49.3892 98.1512C49.2728 98.2155 49.1796 98.1629 49.1796 98.0284V97.3793V97.1337L49.1738 96.1162V95.9934C49.1738 95.9466 49.1855 95.8998 49.2029 95.8589C49.2379 95.7595 49.3019 95.6718 49.3833 95.625Z" fill="#797979"/>
<path d="M64.1027 88.4668L64.1085 88.7124L60.7969 90.6304V90.3906L64.1027 88.4668Z" fill="#999999"/>
<path d="M64.1315 87.1924C64.1141 87.2392 64.1024 87.2859 64.1024 87.3269V87.4497L60.7908 89.3677V89.2449C60.7908 89.1981 60.7792 89.163 60.7617 89.1396L64.1315 87.1924Z" fill="#999999"/>
<path d="M60.5807 89.1279C60.6563 89.0812 60.7262 89.0929 60.7669 89.1455C60.7844 89.1689 60.796 89.204 60.796 89.2507V89.3735V90.391V90.6366V91.2857C60.796 91.4202 60.7029 91.5839 60.5865 91.6541C60.4701 91.7243 60.377 91.6658 60.377 91.5313V90.8822V90.6366V89.6191V89.4963C60.377 89.4496 60.3886 89.4028 60.4061 89.3618C60.4293 89.2624 60.4992 89.1747 60.5807 89.1279Z" fill="#797979"/>
<path d="M60.3721 90.6367V90.8765L57.0664 92.8003L57.0605 92.5547L60.3721 90.6367Z" fill="#999999"/>
<path d="M60.3952 89.3564C60.3777 89.4032 60.3661 89.45 60.3661 89.4909V89.6137L57.0545 91.5317V91.4089C57.0545 91.368 57.0429 91.3271 57.0254 91.3037L60.3952 89.3564Z" fill="#999999"/>
<path d="M56.8501 91.292C56.9258 91.2452 56.9956 91.2569 57.0306 91.3095C57.048 91.3329 57.0597 91.368 57.0597 91.4148V91.5376V92.5551V92.8007V93.4498C57.0597 93.5842 56.9665 93.748 56.8501 93.8182C56.7337 93.8883 56.6406 93.8298 56.6406 93.6954V93.0463V92.8007V91.7832V91.6604C56.6406 91.6136 56.6523 91.5668 56.6697 91.5259C56.6988 91.4323 56.7687 91.3388 56.8501 91.292Z" fill="#797979"/>
<path d="M67.8389 86.3027V86.5483L64.5273 88.4663V88.2266L67.8389 86.3027Z" fill="#999999"/>
<path d="M67.862 85.0283C67.8445 85.0751 67.8329 85.1219 67.8329 85.1628V85.2856L64.5213 87.2036V87.0808C64.5213 87.034 64.5096 86.999 64.4922 86.9756L67.862 85.0283Z" fill="#999999"/>
<path d="M64.3111 86.9639C64.3868 86.9171 64.4566 86.9288 64.4974 86.9814C64.5148 87.0048 64.5265 87.0399 64.5265 87.0867V87.2095V88.227V88.4726V89.1216C64.5265 89.2561 64.4333 89.4199 64.3169 89.49C64.2005 89.5602 64.1074 89.5017 64.1074 89.3672V88.7181V88.4726V87.4551V87.3323C64.1074 87.2913 64.1191 87.2387 64.1365 87.1978C64.1656 87.0984 64.2296 87.0107 64.3111 86.9639Z" fill="#797979"/>
<path d="M41.9166 99.9522C41.9981 99.9054 42.0621 99.9171 42.1028 99.9697C42.1203 99.9931 42.1319 100.028 42.1319 100.075V100.198V101.215V101.461V102.11C42.1319 102.244 42.0388 102.408 41.9224 102.478C41.806 102.543 41.7129 102.49 41.7129 102.356V101.706V101.461V100.443V100.321C41.7129 100.274 41.7245 100.227 41.742 100.186C41.7711 100.092 41.8409 99.9989 41.9166 99.9522Z" fill="#797979"/>
<path d="M68.0416 84.8007C68.158 84.7364 68.2511 84.7891 68.2511 84.9235L68.2569 86.9585C68.2569 87.093 68.1638 87.2567 68.0474 87.3269C67.931 87.3912 67.8379 87.3386 67.8379 87.2041V86.555V86.3094V85.2919V85.1691C67.8379 85.1282 67.8495 85.0756 67.867 85.0347C67.8961 84.9352 67.9659 84.8417 68.0416 84.8007Z" fill="#797979"/>
<path d="M7.99081 109.641C7.99663 109.472 7.82203 109.255 7.51356 109.074C7.05378 108.805 6.46014 108.717 6.1866 108.875C6.09347 108.928 6.05273 109.01 6.05273 109.097C6.05273 109.086 6.05273 109.419 6.05273 109.419C6.05273 109.589 6.22152 109.799 6.52998 109.98C6.98976 110.249 7.5834 110.337 7.85695 110.179C7.94425 110.127 7.99081 110.056 7.99081 109.969V109.635C7.99081 109.635 7.99081 109.635 7.99081 109.641Z" fill="#B2B2B2"/>
<path d="M11.4185 127.208C11.1741 127.067 10.7783 127.067 10.5339 127.208C10.4116 127.278 10.3534 127.372 10.3534 127.465L10.3418 132.038C10.3418 132.131 10.4058 132.225 10.528 132.295C10.7725 132.436 11.1682 132.436 11.4127 132.295C11.5349 132.225 11.5931 132.131 11.5931 132.038L11.6047 127.459C11.6047 127.471 11.5989 127.483 11.5989 127.5C11.6164 127.401 11.5582 127.29 11.4185 127.208ZM10.3825 127.576C10.3884 127.588 10.3884 127.594 10.3942 127.605C10.3942 127.594 10.3884 127.588 10.3825 127.576ZM11.5698 127.576C11.5756 127.564 11.5873 127.547 11.5931 127.535C11.5873 127.553 11.5756 127.564 11.5698 127.576ZM11.5174 127.646C11.5291 127.635 11.5465 127.617 11.5524 127.605C11.5465 127.617 11.5349 127.635 11.5174 127.646Z" fill="#9D9D9C"/>
<path d="M10.9718 127.577C10.8961 127.577 10.8379 127.518 10.8379 127.442V114.162C10.8379 113.501 11.0649 113.004 11.4839 112.759C11.903 112.519 12.4442 112.566 13.0146 112.899L14.3998 113.7C14.4638 113.735 14.4871 113.823 14.4521 113.887C14.4172 113.952 14.3299 113.975 14.2659 113.94L12.8807 113.139C12.3977 112.858 11.9495 112.811 11.6178 112.999C11.286 113.192 11.1056 113.601 11.1056 114.162V127.442C11.1056 127.512 11.0474 127.577 10.9718 127.577Z" fill="#575756"/>
<path d="M10.9712 127.576C10.8956 127.576 10.8374 127.518 10.8374 127.442V114.162C10.8374 112.94 9.98181 111.454 8.92838 110.846L7.54321 110.045C7.47919 110.01 7.45591 109.922 7.49083 109.858C7.52575 109.794 7.61305 109.77 7.67707 109.805L9.06224 110.606C10.1855 111.261 11.1051 112.852 11.1051 114.162V127.442C11.1051 127.512 11.0469 127.576 10.9712 127.576Z" fill="#575756"/>
<path d="M16.0338 114.296C16.0396 114.126 15.865 113.91 15.5565 113.728C15.0967 113.459 14.5031 113.372 14.2296 113.53C14.1364 113.582 14.0957 113.664 14.0957 113.752C14.0957 113.74 14.0957 114.073 14.0957 114.073C14.0957 114.243 14.2645 114.453 14.5729 114.635C15.0327 114.904 15.6264 114.991 15.8999 114.834C15.9872 114.781 16.0338 114.711 16.0338 114.623V114.29C16.0338 114.29 16.0338 114.29 16.0338 114.296Z" fill="#B2B2B2"/>
<path d="M30.2467 96.7067C30.2525 96.5372 30.0779 96.3208 29.7694 96.1395C29.3096 95.8705 28.716 95.7828 28.4425 95.9407C28.3493 95.9933 28.3086 96.0752 28.3086 96.1629C28.3086 96.1512 28.3086 96.4845 28.3086 96.4845C28.3086 96.6541 28.4774 96.8646 28.7858 97.0459C29.2456 97.3149 29.8393 97.4026 30.1128 97.2447C30.2001 97.1921 30.2467 97.1219 30.2467 97.0342V96.7009C30.2467 96.7067 30.2467 96.7067 30.2467 96.7067Z" fill="#B2B2B2"/>
<path d="M33.6744 114.279C33.4299 114.139 33.0342 114.139 32.7897 114.279C32.6675 114.349 32.6093 114.443 32.6093 114.536L32.5977 119.109C32.5977 119.203 32.6617 119.296 32.7839 119.366C33.0283 119.507 33.4241 119.507 33.6685 119.366C33.7908 119.296 33.849 119.203 33.849 119.109L33.8606 114.531C33.8606 114.542 33.8548 114.554 33.8548 114.571C33.8722 114.472 33.814 114.361 33.6744 114.279ZM32.6151 114.577C32.6151 114.589 32.6151 114.595 32.6209 114.607C32.6209 114.595 32.6209 114.583 32.6151 114.577ZM33.6802 114.794C33.7093 114.776 33.7384 114.759 33.7617 114.735C33.7326 114.759 33.7093 114.776 33.6802 114.794ZM33.8257 114.647C33.8315 114.636 33.8431 114.618 33.849 114.607C33.8431 114.618 33.8373 114.636 33.8257 114.647ZM33.7791 114.712C33.7908 114.7 33.8082 114.683 33.814 114.671C33.8024 114.688 33.7908 114.7 33.7791 114.712Z" fill="#9D9D9C"/>
<path d="M33.2276 114.642C33.152 114.642 33.0938 114.584 33.0938 114.508V101.228C33.0938 100.567 33.3207 100.07 33.7398 99.8243C34.1588 99.5845 34.7001 99.6313 35.2704 99.9646L36.6556 100.766C36.7196 100.801 36.7429 100.889 36.708 100.953C36.6731 101.017 36.5858 101.041 36.5218 101.005L35.1366 100.204C34.6535 99.9237 34.2054 99.8769 33.8736 100.064C33.5419 100.257 33.3615 100.666 33.3615 101.228V114.508C33.3673 114.584 33.3033 114.642 33.2276 114.642Z" fill="#575756"/>
<path d="M33.2271 114.642C33.1514 114.642 33.0932 114.583 33.0932 114.507V101.227C33.0932 100.005 32.2377 98.5198 31.1842 97.9117L29.7991 97.1105C29.735 97.0755 29.7118 96.9877 29.7467 96.9234C29.7816 96.8591 29.8689 96.8357 29.9329 96.8708L31.3181 97.6719C32.4414 98.3268 33.3609 99.9174 33.3609 101.227V114.507C33.3668 114.583 33.3027 114.642 33.2271 114.642Z" fill="#575756"/>
<path d="M38.2955 101.361C38.3013 101.191 38.1267 100.975 37.8183 100.794C37.3585 100.525 36.7648 100.437 36.4913 100.595C36.3982 100.648 36.3574 100.73 36.3574 100.817C36.3574 100.806 36.3574 101.139 36.3574 101.139C36.3574 101.308 36.5262 101.519 36.8347 101.7C37.2944 101.969 37.8881 102.057 38.1616 101.899C38.2489 101.846 38.2955 101.776 38.2955 101.689V101.361Z" fill="#B2B2B2"/>
<path d="M52.5084 83.7771C52.5142 83.6075 52.3396 83.3911 52.0311 83.2098C51.5714 82.9409 50.9777 82.8531 50.7042 83.011C50.6111 83.0637 50.5703 83.1455 50.5703 83.2332C50.5703 83.2215 50.5703 83.5548 50.5703 83.5548C50.5703 83.7244 50.7391 83.9349 51.0476 84.1162C51.5073 84.3852 52.101 84.4729 52.3745 84.315C52.4618 84.2624 52.5084 84.1922 52.5084 84.1045V83.7712C52.5084 83.7712 52.5084 83.7712 52.5084 83.7771Z" fill="#B2B2B2"/>
<path d="M55.9361 101.344C55.6916 101.203 55.2959 101.203 55.0514 101.344C54.9292 101.414 54.871 101.507 54.871 101.601L54.8594 106.174C54.8594 106.267 54.9234 106.361 55.0456 106.431C55.2901 106.571 55.6858 106.571 55.9303 106.431C56.0525 106.361 56.1107 106.267 56.1107 106.174L56.1223 101.595C56.1223 101.607 56.1165 101.618 56.1165 101.636C56.134 101.537 56.0758 101.425 55.9361 101.344ZM54.9001 101.712C54.9059 101.718 54.9059 101.729 54.9118 101.741C54.9118 101.729 54.9059 101.724 54.9001 101.712ZM56.0874 101.712C56.0932 101.7 56.1049 101.683 56.1107 101.671C56.1049 101.689 56.0932 101.7 56.0874 101.712Z" fill="#9D9D9C"/>
<path d="M55.4893 101.712C55.4137 101.712 55.3555 101.654 55.3555 101.578V88.298C55.3555 87.6372 55.5825 87.1402 56.0015 86.8946C56.4205 86.6548 56.9618 86.7016 57.5322 87.0349L58.9173 87.8361C58.9814 87.8711 59.0046 87.9589 58.9697 88.0232C58.9348 88.0875 58.8475 88.1109 58.7835 88.0758L57.3983 87.2747C56.9152 86.994 56.4671 86.9472 56.1354 87.1343C55.8036 87.3273 55.6232 87.7366 55.6232 88.298V101.578C55.6232 101.648 55.565 101.712 55.4893 101.712Z" fill="#575756"/>
<path d="M55.4888 101.712C55.4131 101.712 55.3549 101.653 55.3549 101.577V88.2975C55.3549 87.0754 54.4994 85.5901 53.446 84.982L52.0608 84.1809C51.9968 84.1458 51.9735 84.0581 52.0084 83.9937C52.0433 83.9294 52.1306 83.906 52.1946 83.9411L53.5798 84.7422C54.7031 85.3971 55.6227 86.9877 55.6227 88.2975V101.577C55.6227 101.648 55.5644 101.712 55.4888 101.712Z" fill="#575756"/>
<path d="M60.5514 88.4255C60.5572 88.2559 60.3826 88.0396 60.0741 87.8583C59.6143 87.5893 59.0207 87.5016 58.7471 87.6595C58.654 87.7121 58.6133 87.794 58.6133 87.8817C58.6133 87.87 58.6133 88.2033 58.6133 88.2033C58.6133 88.3729 58.7821 88.5834 59.0905 88.7647C59.5503 89.0336 60.1439 89.1214 60.4175 88.9635C60.5048 88.9108 60.5514 88.8407 60.5514 88.753V88.4196C60.5514 88.4255 60.5514 88.4255 60.5514 88.4255Z" fill="#B2B2B2"/>
<path d="M74.7642 70.8425C74.7701 70.6729 74.5955 70.4565 74.287 70.2753C73.8272 70.0063 73.2336 69.9186 72.96 70.0765C72.8669 70.1291 72.8262 70.2109 72.8262 70.2987C72.8262 70.287 72.8262 70.6203 72.8262 70.6203C72.8262 70.7899 72.995 71.0004 73.3034 71.1816C73.7632 71.4506 74.3568 71.5383 74.6304 71.3805C74.7177 71.3278 74.7642 71.2577 74.7642 71.1699V70.8366V70.8425Z" fill="#B2B2B2"/>
<path d="M78.1919 88.4148C77.9475 88.2745 77.5517 88.2745 77.3073 88.4148C77.1851 88.485 77.1269 88.5786 77.1269 88.6721L77.1152 93.2449C77.1152 93.3385 77.1793 93.432 77.3015 93.5022C77.5459 93.6426 77.9417 93.6426 78.1861 93.5022C78.3083 93.432 78.3665 93.3385 78.3665 93.2449L78.3782 88.6663C78.3782 88.678 78.3724 88.6897 78.3724 88.7072C78.3898 88.6078 78.3316 88.4967 78.1919 88.4148ZM77.1327 88.7072C77.1327 88.7189 77.1327 88.7247 77.1385 88.7364C77.1385 88.7306 77.1385 88.7189 77.1327 88.7072ZM78.1978 88.9294C78.2269 88.9119 78.256 88.8943 78.2792 88.8709C78.2501 88.8885 78.2269 88.9119 78.1978 88.9294ZM78.3433 88.7832C78.3491 88.7715 78.3607 88.754 78.3665 88.7423C78.3607 88.754 78.3549 88.7657 78.3433 88.7832ZM78.2967 88.8475C78.3083 88.8359 78.3258 88.8183 78.3316 88.8066C78.32 88.8242 78.3083 88.8359 78.2967 88.8475Z" fill="#9D9D9C"/>
<path d="M77.7452 88.7778C77.6695 88.7778 77.6113 88.7193 77.6113 88.6433V75.3634C77.6113 74.7027 77.8383 74.2056 78.2574 73.96C78.6764 73.7203 79.2177 73.7671 79.788 74.1004L81.1732 74.9015C81.2372 74.9366 81.2605 75.0243 81.2256 75.0886C81.1906 75.1529 81.1033 75.1763 81.0393 75.1412L79.6542 74.3401C79.1711 74.0594 78.723 74.0127 78.3912 74.1998C78.0595 74.3927 77.879 74.8021 77.879 75.3634V88.6433C77.8849 88.7193 77.8208 88.7778 77.7452 88.7778Z" fill="#575756"/>
<path d="M77.7447 88.7773C77.669 88.7773 77.6108 88.7188 77.6108 88.6428V75.363C77.6108 74.1408 76.7552 72.6555 75.7018 72.0474L74.3166 71.2463C74.2526 71.2112 74.2293 71.1235 74.2643 71.0592C74.2992 70.9948 74.3865 70.9714 74.4505 71.0065L75.8357 71.8076C76.9589 72.4626 77.8785 74.0531 77.8785 75.363V88.6428C77.8843 88.7188 77.8203 88.7773 77.7447 88.7773Z" fill="#575756"/>
<path d="M82.8131 75.4968C82.8189 75.3272 82.6443 75.1108 82.3358 74.9296C81.876 74.6606 81.2824 74.5729 81.0089 74.7308C80.9157 74.7834 80.875 74.8652 80.875 74.953C80.875 74.9413 80.875 75.2746 80.875 75.2746C80.875 75.4442 81.0438 75.6547 81.3522 75.8359C81.812 76.1049 82.4057 76.1926 82.6792 76.0348C82.7665 75.9821 82.8131 75.912 82.8131 75.8242V75.4909V75.4968Z" fill="#B2B2B2"/>
</g>
<defs>
<clipPath id="clip0_146_9004">
<rect width="83" height="90" fill="white" transform="translate(0 69)"/>
</clipPath>
</defs>
</svg>
