<svg width="385" height="217" viewBox="0 0 385 217" fill="none" xmlns="http://www.w3.org/2000/svg">
<rect x="164" width="221" height="92" rx="18" fill="#006DB7"/>
<path d="M108 102L219.5 66.026L187.5 42L108 102Z" fill="#006DB7"/>
<rect x="189.048" y="25.0476" width="41.9048" height="41.9048" rx="20.9524" fill="#283036"/>
<rect x="189.048" y="25.0476" width="41.9048" height="41.9048" rx="20.9524" stroke="white" stroke-width="2.09524"/>
<g clip-path="url(#clip0_422_2313)">
<path d="M220.65 55.2985H219.86V49.1544C220.619 49.2919 220.921 49.8463 220.937 49.8783C220.999 50.0004 221.123 50.0709 221.252 50.0709C221.305 50.0709 221.358 50.0589 221.409 50.0336C221.583 49.9466 221.653 49.7351 221.566 49.561C221.547 49.522 221.147 48.7476 220.154 48.497C220.643 48.0912 221.382 48.0503 221.391 48.0498C221.585 48.0411 221.735 47.8771 221.727 47.683C221.719 47.4887 221.553 47.3367 221.36 47.346C221.315 47.3479 220.56 47.3862 219.918 47.7978C219.774 46.8369 219.076 46.3572 219.037 46.3314C218.875 46.2234 218.655 46.2664 218.547 46.4283C218.439 46.5902 218.482 46.8081 218.644 46.916C218.669 46.9333 219.107 47.2453 219.213 47.8784C218.549 47.3915 217.703 47.348 217.654 47.346C217.461 47.3368 217.297 47.4881 217.288 47.6822C217.279 47.8761 217.43 48.0406 217.624 48.0498C217.633 48.0503 218.371 48.0913 218.861 48.497C217.867 48.7477 217.468 49.522 217.448 49.5611C217.361 49.7351 217.431 49.948 217.605 50.035C217.656 50.0605 217.71 50.0725 217.763 50.0725C217.892 50.0725 218.016 50.0019 218.077 49.8788C218.091 49.8518 218.392 49.2928 219.155 49.1545V55.2986H216.875V44.9703C216.875 44.7757 216.717 44.618 216.523 44.618C216.328 44.618 216.171 44.7757 216.171 44.9703V55.2985H213.502V50.1693C213.502 49.9747 213.344 49.817 213.15 49.817H206.85C206.656 49.817 206.498 49.9747 206.498 50.1693V52.2055C206.498 52.4 206.656 52.5578 206.85 52.5578C207.045 52.5578 207.203 52.4 207.203 52.2055V50.5215H209.648V55.2985H207.203V53.6145C207.203 53.4199 207.045 53.2622 206.85 53.2622C206.656 53.2622 206.498 53.4199 206.498 53.6145V55.2985H203.829V40.2058C203.829 40.0113 203.672 39.8535 203.477 39.8535C203.283 39.8535 203.125 40.0113 203.125 40.2058V55.2985H200.845V49.1544C201.605 49.2921 201.906 49.847 201.923 49.8783C201.985 50.0004 202.109 50.0709 202.237 50.0709C202.29 50.0709 202.344 50.0589 202.394 50.0336C202.568 49.9466 202.639 49.7351 202.552 49.561C202.532 49.522 202.133 48.7476 201.139 48.497C201.629 48.0912 202.367 48.0503 202.376 48.0498C202.57 48.0411 202.721 47.8771 202.713 47.683C202.704 47.4887 202.54 47.3371 202.346 47.346C202.297 47.348 201.451 47.3915 200.787 47.8783C200.893 47.2479 201.328 46.9359 201.356 46.9162C201.516 46.8078 201.559 46.5902 201.452 46.429C201.344 46.2672 201.125 46.2235 200.963 46.3314C200.925 46.3572 200.226 46.8369 200.082 47.7978C199.44 47.3862 198.685 47.3479 198.64 47.346C198.446 47.3372 198.282 47.4881 198.273 47.6821C198.265 47.8761 198.415 48.0406 198.609 48.0498C198.618 48.0502 199.357 48.0912 199.846 48.497C198.853 48.7476 198.453 49.522 198.434 49.561C198.347 49.735 198.417 49.9466 198.591 50.0336C198.642 50.0589 198.696 50.0709 198.748 50.0709C198.878 50.0709 199.002 49.9995 199.064 49.876C199.067 49.8694 199.364 49.2947 200.141 49.1544V55.2985H199.35C198.606 55.2985 198 55.9042 198 56.6499C198 57.3943 198.606 58 199.35 58H220.65C221.394 58 222 57.3943 222 56.6486C222 55.9042 221.394 55.2985 220.65 55.2985ZM210.352 50.5215H212.797V55.2985H210.352V50.5215ZM220.65 57.2955H199.35C198.994 57.2955 198.704 57.0059 198.704 56.6486C198.704 56.2927 198.994 56.003 199.35 56.003H220.65C221.006 56.003 221.296 56.2927 221.296 56.6499C221.296 57.0058 221.006 57.2955 220.65 57.2955Z" fill="white"/>
<path d="M203.125 36.6954H203.125V38.7968C203.125 38.9913 203.283 39.1491 203.477 39.1491C203.672 39.1491 203.829 38.9913 203.829 38.7968V36.6954H216.17V43.5613C216.17 43.7558 216.328 43.9135 216.523 43.9135C216.717 43.9135 216.875 43.7559 216.875 43.5613V36.6954H216.875C217.328 36.6954 217.697 36.3267 217.697 35.8735V34.8219C217.697 34.3687 217.328 34 216.875 34H203.125C202.671 34 202.303 34.3687 202.303 34.8219V35.8735C202.303 36.3267 202.671 36.6954 203.125 36.6954ZM203.007 34.8219C203.007 34.7572 203.06 34.7045 203.125 34.7045H216.875C216.94 34.7045 216.993 34.7572 216.993 34.8219V35.8735C216.993 35.9382 216.94 35.9909 216.875 35.9909H203.125C203.06 35.9909 203.007 35.9382 203.007 35.8735V34.8219Z" fill="white"/>
<path d="M210.711 45.8418H209.29C208.966 45.8418 208.703 46.1051 208.703 46.4289V47.8497C208.703 48.1734 208.966 48.4368 209.29 48.4368H210.711C211.035 48.4368 211.298 48.1734 211.298 47.8497V46.4289C211.298 46.1051 211.035 45.8418 210.711 45.8418ZM210.594 47.7323H209.408V46.5463H210.594V47.7323Z" fill="white"/>
<path d="M207.213 45.8418H205.792C205.468 45.8418 205.205 46.1051 205.205 46.4289V47.8497C205.205 48.1734 205.468 48.4368 205.792 48.4368H207.213C207.537 48.4368 207.8 48.1734 207.8 47.8497V46.4289C207.8 46.1051 207.537 45.8418 207.213 45.8418ZM207.096 47.7323H205.91V46.5463H207.096V47.7323Z" fill="white"/>
<path d="M214.209 45.8418H212.788C212.465 45.8418 212.201 46.1051 212.201 46.4289V47.8497C212.201 48.1734 212.465 48.4368 212.788 48.4368H214.209C214.533 48.4368 214.796 48.1734 214.796 47.8497V46.4289C214.796 46.1051 214.533 45.8418 214.209 45.8418ZM214.092 47.7323H212.906V46.5463H214.092V47.7323Z" fill="white"/>
<path d="M211.298 42.6105C211.298 42.2868 211.035 42.0234 210.711 42.0234H209.29C208.966 42.0234 208.703 42.2868 208.703 42.6105V44.0313C208.703 44.355 208.966 44.6184 209.29 44.6184H210.711C211.035 44.6184 211.298 44.355 211.298 44.0313V42.6105ZM210.594 43.914H209.408V42.728H210.594V43.914Z" fill="white"/>
<path d="M207.8 42.6105C207.8 42.2868 207.537 42.0234 207.213 42.0234H205.792C205.468 42.0234 205.205 42.2868 205.205 42.6105V44.0313C205.205 44.355 205.468 44.6184 205.792 44.6184H207.213C207.537 44.6184 207.8 44.355 207.8 44.0313V42.6105ZM207.096 43.914H205.91V42.728H207.096V43.914Z" fill="white"/>
<path d="M214.796 42.6105C214.796 42.2868 214.533 42.0234 214.209 42.0234H212.788C212.465 42.0234 212.201 42.2868 212.201 42.6105V44.0313C212.201 44.355 212.465 44.6184 212.788 44.6184H214.209C214.533 44.6184 214.796 44.355 214.796 44.0313V42.6105ZM214.092 43.914H212.906V42.728H214.092V43.914Z" fill="white"/>
<path d="M211.298 38.7912C211.298 38.4674 211.035 38.2041 210.711 38.2041H209.29C208.966 38.2041 208.703 38.4674 208.703 38.7912V40.212C208.703 40.5357 208.966 40.7991 209.29 40.7991H210.711C211.035 40.7991 211.298 40.5357 211.298 40.212V38.7912ZM210.594 40.0946H209.408V38.9086H210.594V40.0946Z" fill="white"/>
<path d="M207.8 38.7912C207.8 38.4674 207.537 38.2041 207.213 38.2041H205.792C205.468 38.2041 205.205 38.4674 205.205 38.7912V40.212C205.205 40.5357 205.468 40.7991 205.792 40.7991H207.213C207.537 40.7991 207.8 40.5357 207.8 40.212V38.7912ZM207.096 40.0946H205.91V38.9086H207.096V40.0946Z" fill="white"/>
<path d="M214.796 38.7912C214.796 38.4674 214.533 38.2041 214.209 38.2041H212.788C212.465 38.2041 212.201 38.4674 212.201 38.7912V40.212C212.201 40.5357 212.465 40.7991 212.788 40.7991H214.209C214.533 40.7991 214.796 40.5357 214.796 40.212V38.7912ZM214.092 40.0946H212.906V38.9086H214.092V40.0946Z" fill="white"/>
</g>
<path d="M264.779 55.5H261.122L267.779 36.5909H272.008L278.674 55.5H275.018L269.968 40.4688H269.82L264.779 55.5ZM264.899 48.0859H274.87V50.8374H264.899V48.0859ZM280.832 55.5V53.3764L288.145 44.2081V44.0881H281.073V41.3182H292.235V43.5987L285.274 52.6101V52.7301H292.475V55.5H280.832ZM295.617 60.8182V41.3182H298.904V43.6634H299.098C299.27 43.3187 299.513 42.9524 299.827 42.5646C300.141 42.1707 300.566 41.8352 301.101 41.5582C301.637 41.2751 302.32 41.1335 303.151 41.1335C304.246 41.1335 305.234 41.4136 306.115 41.9737C307.001 42.5277 307.703 43.3494 308.22 44.4389C308.743 45.5223 309.005 46.8518 309.005 48.4276C309.005 49.9848 308.749 51.3082 308.238 52.3977C307.727 53.4872 307.032 54.3182 306.152 54.8906C305.271 55.4631 304.274 55.7493 303.16 55.7493C302.348 55.7493 301.674 55.6139 301.138 55.343C300.603 55.0722 300.172 54.746 299.845 54.3643C299.525 53.9766 299.276 53.6103 299.098 53.2656H298.959V60.8182H295.617ZM298.894 48.4091C298.894 49.3262 299.024 50.1295 299.282 50.8189C299.547 51.5083 299.925 52.0469 300.418 52.4347C300.916 52.8163 301.52 53.0071 302.228 53.0071C302.966 53.0071 303.585 52.8101 304.083 52.4162C304.582 52.0161 304.957 51.4714 305.21 50.782C305.468 50.0864 305.598 49.2955 305.598 48.4091C305.598 47.5289 305.471 46.7472 305.219 46.0639C304.967 45.3807 304.591 44.8452 304.093 44.4574C303.594 44.0696 302.972 43.8757 302.228 43.8757C301.514 43.8757 300.907 44.0634 300.409 44.4389C299.91 44.8144 299.532 45.3407 299.273 46.0178C299.021 46.6948 298.894 47.492 298.894 48.4091ZM311.867 55.5V41.3182H315.209V55.5H311.867ZM313.547 39.3054C313.018 39.3054 312.562 39.13 312.181 38.7791C311.799 38.4221 311.608 37.9943 311.608 37.4957C311.608 36.991 311.799 36.5632 312.181 36.2124C312.562 35.8553 313.018 35.6768 313.547 35.6768C314.083 35.6768 314.538 35.8553 314.914 36.2124C315.295 36.5632 315.486 36.991 315.486 37.4957C315.486 37.9943 315.295 38.4221 314.914 38.7791C314.538 39.13 314.083 39.3054 313.547 39.3054ZM325.728 41.3182V43.9034H317.575V41.3182H325.728ZM319.588 37.9205H322.93V51.2344C322.93 51.6837 322.998 52.0284 323.133 52.2685C323.275 52.5024 323.459 52.6624 323.687 52.7486C323.915 52.8348 324.167 52.8778 324.444 52.8778C324.654 52.8778 324.844 52.8625 325.017 52.8317C325.195 52.8009 325.331 52.7732 325.423 52.7486L325.986 55.3615C325.808 55.4231 325.552 55.4908 325.22 55.5646C324.894 55.6385 324.494 55.6816 324.02 55.6939C323.182 55.7185 322.428 55.5923 321.758 55.3153C321.087 55.0322 320.554 54.5952 320.16 54.0043C319.772 53.4134 319.582 52.6747 319.588 51.7884V37.9205ZM328.523 55.5V41.3182H331.865V55.5H328.523ZM330.203 39.3054C329.674 39.3054 329.219 39.13 328.837 38.7791C328.455 38.4221 328.264 37.9943 328.264 37.4957C328.264 36.991 328.455 36.5632 328.837 36.2124C329.219 35.8553 329.674 35.6768 330.203 35.6768C330.739 35.6768 331.194 35.8553 331.57 36.2124C331.951 36.5632 332.142 36.991 332.142 37.4957C332.142 37.9943 331.951 38.4221 331.57 38.7791C331.194 39.13 330.739 39.3054 330.203 39.3054ZM339.383 55.7862C338.485 55.7862 337.675 55.6262 336.955 55.3061C336.241 54.9799 335.675 54.4998 335.256 53.8658C334.844 53.2318 334.638 52.45 334.638 51.5206C334.638 50.7204 334.785 50.0587 335.081 49.5355C335.376 49.0123 335.779 48.5938 336.29 48.2798C336.801 47.9659 337.377 47.7289 338.017 47.5689C338.663 47.4027 339.331 47.2827 340.02 47.2088C340.851 47.1226 341.525 47.0457 342.042 46.978C342.559 46.9041 342.935 46.7933 343.169 46.6456C343.409 46.4917 343.529 46.2547 343.529 45.9347V45.8793C343.529 45.1837 343.323 44.6451 342.91 44.2635C342.498 43.8819 341.904 43.6911 341.128 43.6911C340.31 43.6911 339.66 43.8696 339.18 44.2266C338.706 44.5836 338.386 45.0052 338.22 45.4915L335.099 45.0483C335.345 44.1866 335.752 43.4664 336.318 42.8878C336.884 42.303 337.577 41.866 338.395 41.5767C339.214 41.2812 340.119 41.1335 341.11 41.1335C341.793 41.1335 342.473 41.2135 343.15 41.3736C343.827 41.5336 344.446 41.7983 345.006 42.1676C345.566 42.5308 346.016 43.0263 346.354 43.6541C346.699 44.282 346.871 45.0668 346.871 46.0085V55.5H343.658V53.5518H343.547C343.344 53.9458 343.058 54.3151 342.689 54.6598C342.325 54.9983 341.867 55.2723 341.313 55.4815C340.765 55.6847 340.122 55.7862 339.383 55.7862ZM340.251 53.3303C340.922 53.3303 341.504 53.1979 341.996 52.9332C342.489 52.6624 342.867 52.3054 343.132 51.8622C343.403 51.419 343.538 50.9358 343.538 50.4126V48.7415C343.433 48.8277 343.255 48.9077 343.003 48.9815C342.756 49.0554 342.479 49.12 342.172 49.1754C341.864 49.2308 341.559 49.2801 341.258 49.3232C340.956 49.3662 340.694 49.4032 340.473 49.4339C339.974 49.5017 339.528 49.6125 339.134 49.7663C338.74 49.9202 338.429 50.1357 338.201 50.4126C337.974 50.6835 337.86 51.0343 337.86 51.4652C337.86 52.0807 338.084 52.5455 338.534 52.8594C338.983 53.1733 339.556 53.3303 340.251 53.3303Z" fill="white"/>
<path d="M66.2386 168.227C64.4572 169.258 61.5428 169.258 59.7614 168.227L13.3378 141.373C11.5541 140.342 11.5541 138.655 13.3378 137.625L59.7614 110.773C61.5428 109.742 64.4572 109.742 66.2386 110.773L112.662 137.627C114.446 138.658 114.446 140.345 112.662 141.375L66.2386 168.227Z" fill="#17A64D"/>
<path d="M63.6055 141L60 142.208L84 158L87 156.222L63.6055 141Z" fill="#A7A9AC"/>
<path d="M53.5751 155.799L26.7285 140.579V138.414L41.9082 147.022L53.5751 153.634V155.613V155.799Z" fill="#D1C699"/>
<path d="M53.5723 155.799L85.8303 137.512V135.351L65.2427 147.021L53.5723 153.634V155.799Z" fill="#BDAF83"/>
<path d="M53.5723 153.634L85.8303 135.351V121.608L53.5723 139.895V153.634Z" fill="#B56745"/>
<path opacity="0.2" d="M53.5723 141.483L85.8303 123.197V121.608L53.5723 139.895V141.483Z" fill="black"/>
<path d="M25.4395 124.388L40.1303 124.899L72.3849 106.409L57.694 106.102L25.4395 124.388Z" fill="#754C29"/>
<path d="M40.1289 124.899L54.8128 141.042L87.0673 122.755L72.3834 106.409L40.1289 124.899Z" fill="#603913"/>
<path d="M26.7285 124.675V138.414L53.5751 153.634V139.895L40.1325 125.541L26.7285 124.675Z" fill="#E08056"/>
<path opacity="0.2" d="M26.7285 124.675V126.218L39.9426 126.764L53.5751 141.483V139.895L40.1325 125.541L26.7285 124.675Z" fill="black"/>
<path d="M25.4395 124.388V125.268L40.1303 125.783L54.8142 141.921V141.041L40.1303 124.899L25.4395 124.388Z" fill="#3C2415"/>
<path d="M54.8125 141.922L87.067 123.635V122.755L54.8125 141.041V141.922Z" fill="#3C2415"/>
<path d="M59.2949 147.916L59.7802 148.188V148.043L59.2949 147.771V147.916Z" fill="#3C2415"/>
<path d="M59.7793 148.188L63.7175 145.958V145.812L59.7793 148.043V148.188Z" fill="#603913"/>
<path d="M59.2949 147.771L63.2366 145.54L63.7184 145.813L59.7802 148.043L59.2949 147.771Z" fill="#754C29"/>
<path d="M62.9737 140.257V145.685L59.5488 147.629V142.197L62.9737 140.257Z" fill="#603913"/>
<path d="M59.7246 143.614V143.8L62.7978 142.06V140.596L62.6325 140.692V141.967L59.7246 143.614Z" fill="#2B5E85"/>
<path opacity="0.1" d="M59.7246 143.8V143.617L59.8688 143.721L59.7246 143.8Z" fill="white"/>
<path d="M59.7246 142.338V143.613L62.6325 141.966V140.691L59.7246 142.338Z" fill="#3576AB"/>
<path opacity="0.1" d="M61.5248 141.316L62.6781 142.124L61.6514 142.708L60.498 141.9L61.5248 141.316Z" fill="white"/>
<path d="M61.3496 146.161V146.348L62.7983 145.526V142.256L62.633 142.349V145.433L61.3496 146.161Z" fill="#2B5E85"/>
<path d="M61.3496 143.078V146.162L62.633 145.433V142.35L61.3496 143.078Z" fill="#3576AB"/>
<path opacity="0.1" d="M62.5994 145.64L61.5692 146.224L61.3477 146.065V144.76L62.5994 145.64Z" fill="white"/>
<path opacity="0.1" d="M62.7963 142.256V143.516L61.8047 142.819L62.7963 142.256Z" fill="white"/>
<path d="M59.7246 147.083V147.269L61.1733 146.448V143.178L61.008 143.271V146.354L59.7246 147.083Z" fill="#2B5E85"/>
<path d="M59.7246 144V147.083L61.008 146.355V143.271L59.7246 144Z" fill="#3576AB"/>
<path opacity="0.1" d="M61.1753 144.635V145.944L59.7266 144.922V144L60.0254 143.827L61.1753 144.635Z" fill="white"/>
<path d="M76.1797 138.334L76.6614 138.606V138.461L76.1797 138.188V138.334Z" fill="#3C2415"/>
<path d="M76.6621 138.607L80.6003 136.373V136.228L76.6621 138.462V138.607Z" fill="#603913"/>
<path d="M76.1797 138.189L80.1179 135.955L80.5996 136.228L76.6614 138.462L76.1797 138.189Z" fill="#754C29"/>
<path d="M79.8584 130.672V136.103L76.4336 138.044V132.612L79.8584 130.672Z" fill="#603913"/>
<path d="M76.6094 134.028V134.218L79.6826 132.474V131.01L79.5173 131.106V132.381L76.6094 134.028Z" fill="#2B5E85"/>
<path opacity="0.1" d="M76.6094 134.218V134.031L76.7571 134.135L76.6094 134.218Z" fill="white"/>
<path d="M76.6094 132.753V134.028L79.5173 132.381V131.106L76.6094 132.753Z" fill="#3576AB"/>
<path opacity="0.1" d="M78.4131 131.731L79.5629 132.543L78.5361 133.126L77.3828 132.315L78.4131 131.731Z" fill="white"/>
<path d="M78.2402 136.576V136.763L79.6854 135.944V132.671L79.5201 132.768V135.851L78.2402 136.576Z" fill="#2B5E85"/>
<path d="M78.2402 133.494V136.577L79.5201 135.852V132.769L78.2402 133.494Z" fill="#3576AB"/>
<path opacity="0.1" d="M79.4905 136.054L78.4637 136.638L78.2422 136.482V135.174L79.4905 136.054Z" fill="white"/>
<path opacity="0.1" d="M79.6869 132.671V133.931L78.6953 133.234L79.6869 132.671Z" fill="white"/>
<path d="M76.6094 137.498V137.684L78.0616 136.863V133.593L77.8963 133.686V136.769L76.6094 137.498Z" fill="#2B5E85"/>
<path d="M76.6094 134.415V137.499L77.8963 136.77V133.687L76.6094 134.415Z" fill="#3576AB"/>
<path opacity="0.1" d="M78.0616 135.053V136.358L76.6094 135.34V134.414L76.9118 134.245L78.0616 135.053Z" fill="white"/>
<path opacity="0.3" d="M67.5566 147.868L71.537 145.609L71.7902 145.744L67.8063 148.002L67.5566 147.868Z" fill="black"/>
<path d="M71.0273 145.747L71.3227 145.912L71.5653 144.997L71.4704 139.152L71.3333 138.654L71.0273 138.886V145.747Z" fill="#3C2415"/>
<path d="M71.1904 145.84L67.9238 147.691V140.626L71.1904 138.775V145.84Z" fill="#754C29"/>
<path d="M69.3086 144.062L69.8079 143.778V143.623L69.3086 143.906V144.062Z" fill="#FF8400"/>
<path d="M69.3711 143.972L69.7508 143.758V143.717L69.3711 143.927V143.972Z" fill="#BA6000"/>
<path d="M69.1465 143.382V143.53L69.9693 143.064V139.953L69.8392 140.026V142.992L69.1465 143.382Z" fill="#2B5E85"/>
<path d="M69.1465 140.42V143.383L69.8392 142.992V140.026L69.1465 140.42Z" fill="#3576AB"/>
<path opacity="0.1" d="M69.1465 140.736L69.9693 141.32V142.849L69.1465 142.266V140.736Z" fill="white"/>
<path d="M68.1465 144V144.093L68.9693 143.627V140.516L68.8884 140.564V143.582L68.1465 144Z" fill="#3C2415"/>
<path d="M68.1465 140.982V144L68.8884 143.582V140.564L68.1465 140.982Z" fill="#603913"/>
<path d="M70.1582 142.86V142.954L70.9775 142.487V139.38L70.8966 139.425V142.443L70.1582 142.86Z" fill="#3C2415"/>
<path d="M70.1582 139.843V142.86L70.8966 142.443V139.425L70.1582 139.843Z" fill="#603913"/>
<path d="M69.1465 146.403V146.496L69.9693 146.03V143.962L69.8849 144.007V145.985L69.1465 146.403Z" fill="#3C2415"/>
<path d="M69.1465 144.428V146.403L69.8849 145.985V144.007L69.1465 144.428Z" fill="#603913"/>
<path d="M68.1465 146.966V147.059L68.9693 146.593V144.524L68.8884 144.573V146.548L68.1465 146.966Z" fill="#3C2415"/>
<path d="M68.1465 144.991V146.966L68.8884 146.548V144.573L68.1465 144.991Z" fill="#603913"/>
<path d="M70.1582 145.827V145.92L70.9775 145.454V143.386L70.8966 143.434V145.409L70.1582 145.827Z" fill="#3C2415"/>
<path d="M70.1582 143.851V145.826L70.8966 145.409V143.434L70.1582 143.851Z" fill="#603913"/>
<path opacity="0.3" d="M70.8141 143.043C70.8 143.03 70.793 143.005 70.793 142.978C70.793 142.909 70.8422 142.822 70.9055 142.791C70.9512 142.767 70.9934 142.771 71.018 142.802C71.0321 142.819 71.0391 142.84 71.0391 142.867C71.0391 142.94 70.9899 143.023 70.9266 143.057C70.909 143.067 70.8879 143.074 70.8703 143.074C70.8492 143.067 70.8281 143.061 70.8141 143.043Z" fill="black"/>
<path d="M71.0078 142.83C71.0114 142.84 71.0149 142.85 71.0149 142.864C71.0149 142.926 70.9692 143.002 70.9129 143.037C70.8988 143.044 70.8883 143.047 70.8777 143.051L70.8707 143.061L70.8426 143.044C70.825 143.033 70.8145 143.013 70.8145 142.978C70.8145 142.916 70.8602 142.84 70.9129 142.809C70.941 142.795 70.9657 142.792 70.9832 142.802L71.0114 142.819L71.0078 142.83Z" fill="#BA6000"/>
<path d="M70.9457 142.822C70.8895 142.853 70.8438 142.929 70.8438 142.995C70.8438 143.057 70.8895 143.081 70.9457 143.05C71.002 143.019 71.0477 142.943 71.0477 142.881C71.0477 142.819 71.002 142.791 70.9457 142.822Z" fill="#FF8400"/>
<path d="M71.1153 142.967C71.1188 142.971 71.1188 142.978 71.1188 142.985C71.1188 143.012 71.0977 143.05 71.0731 143.064C71.066 143.068 71.0625 143.071 71.0555 143.071L71.052 143.078L70.9184 143.002C70.9078 142.995 70.9043 142.988 70.9043 142.971C70.9043 142.94 70.9254 142.905 70.9535 142.891C70.9676 142.885 70.9781 142.885 70.9852 142.888L71.1188 142.964L71.1153 142.967Z" fill="#BA6000"/>
<path d="M71.2442 142.85C71.1668 142.805 71.0543 142.857 70.991 142.961C70.9277 143.064 70.9418 143.185 71.0192 143.23C71.0965 143.275 71.209 143.223 71.2723 143.12C71.3321 143.016 71.318 142.895 71.2442 142.85Z" fill="#FF8400"/>
<path d="M71.2202 142.951C71.2343 142.968 71.2519 142.979 71.2659 142.972C71.2765 142.965 71.2765 142.944 71.2624 142.923C71.2519 142.906 71.2308 142.896 71.2202 142.903C71.2061 142.913 71.2097 142.934 71.2202 142.951Z" fill="#F5F5F5"/>
<path d="M71.5406 138.13L71.7023 138.223L67.8626 140.526L67.7219 147.96L67.5566 147.867V140.388L71.5406 138.13Z" fill="#3C2415"/>
<path d="M71.7011 138.224V145.703L71.3284 145.913V138.849L68.0618 140.703V147.767L67.7207 147.961V140.478L71.7011 138.224Z" fill="#754C29"/>
<path d="M67.5427 152.138L67.2262 152.318L67.1172 152.107L67.0996 151.669H67.2262L67.5427 151.489V152.138Z" fill="#603913"/>
<path d="M67.2247 152.318L66.9082 152.138V151.489L67.2247 151.669V152.318Z" fill="#3C2415"/>
<path d="M67.5411 151.489L67.2247 151.669L66.9082 151.489L67.2247 151.31L67.5411 151.489Z" fill="#754C29"/>
<path d="M67.4403 151.493L67.2223 151.617L67.1133 151.158V143.752L67.2223 143.676L67.4403 143.555V151.493Z" fill="#603913"/>
<path d="M67.4403 143.676L67.2223 143.8L67.1133 143.752L67.2223 143.676L67.4403 143.555V143.676Z" fill="#3C2415"/>
<path d="M67.2239 151.617L67.0059 151.493V143.555L67.2239 143.676V151.617Z" fill="#3C2415"/>
<path d="M67.4419 143.555L67.2239 143.676L67.0059 143.555L67.2239 143.431L67.4419 143.555Z" fill="#754C29"/>
<path d="M67.5403 143.572L67.2239 143.752L67.0656 143.52L67.0059 143.213L67.2239 143.102L67.5403 142.923V143.572Z" fill="#603913"/>
<path d="M67.5438 143.095L67.2274 143.275L67.1465 143.327V143.089L67.2274 143.102L67.5438 142.923V143.095Z" fill="#3C2415"/>
<path d="M67.2247 143.752L66.9082 143.572V142.923L67.2247 143.102V143.752Z" fill="#3C2415"/>
<path d="M67.5411 142.923L67.2247 143.102L66.9082 142.923L67.2247 142.743L67.5411 142.923Z" fill="#754C29"/>
<path d="M67.6731 142.957L67.2231 143.213L67.1562 143.119V142.998L67.2231 142.974L67.6731 142.719V142.957Z" fill="#603913"/>
<path d="M67.2255 143.213L66.7754 142.957V142.719L67.2255 142.974V143.213Z" fill="#3C2415"/>
<path d="M67.6755 142.719L67.2255 142.974L66.7754 142.719L67.2255 142.467L67.6755 142.719Z" fill="#754C29"/>
<path d="M78.8532 145.722L78.5367 145.902L78.4277 145.695L78.4102 145.253H78.5367L78.8532 145.073V145.722Z" fill="#603913"/>
<path d="M78.5352 145.902L78.2188 145.722V145.073L78.5352 145.253V145.902Z" fill="#3C2415"/>
<path d="M78.8517 145.075L78.5352 145.254L78.2188 145.075L78.5352 144.898L78.8517 145.075Z" fill="#754C29"/>
<path d="M78.7551 145.078L78.5406 145.202L78.4316 144.743V137.336L78.5406 137.264L78.7551 137.14V145.078Z" fill="#603913"/>
<path d="M78.7551 137.264L78.5406 137.385L78.4316 137.336L78.5406 137.264L78.7551 137.14V137.264Z" fill="#3C2415"/>
<path d="M78.5422 145.202L78.3242 145.078V137.14L78.5422 137.264V145.202Z" fill="#3C2415"/>
<path d="M78.7567 137.139L78.5422 137.263L78.3242 137.139L78.5422 137.015L78.7567 137.139Z" fill="#754C29"/>
<path d="M78.8548 137.156L78.5383 137.336L78.3801 137.105L78.3203 136.797L78.5383 136.69L78.8548 136.511V137.156Z" fill="#603913"/>
<path d="M78.854 136.683L78.5375 136.863L78.4531 136.915L78.4566 136.676L78.5375 136.69L78.854 136.511V136.683Z" fill="#3C2415"/>
<path d="M78.5352 137.336L78.2188 137.156V136.511L78.5352 136.69V137.336Z" fill="#3C2415"/>
<path d="M78.8517 136.512L78.5352 136.691L78.2188 136.512L78.5352 136.332L78.8517 136.512Z" fill="#754C29"/>
<path d="M78.9876 136.541L78.5375 136.797L78.4707 136.704V136.586L78.5375 136.562L78.9876 136.307V136.541Z" fill="#603913"/>
<path d="M78.536 136.797L78.0859 136.541V136.307L78.536 136.562V136.797Z" fill="#3C2415"/>
<path d="M78.9861 136.307L78.536 136.563L78.0859 136.307L78.536 136.052L78.9861 136.307Z" fill="#754C29"/>
<path d="M67.2246 142.976L78.99 136.308L72.5095 135.873L67.2246 142.976Z" fill="#D1C699"/>
<path d="M68.168 142.205L78.0486 136.601L77.3946 136.625L68.822 141.483L68.168 142.205Z" fill="#E6DAB0"/>
<path d="M68.8223 141.483L77.3949 136.625L73.1086 136.77L68.8223 141.483Z" fill="#BDAF83"/>
<path d="M72.98 136.304L79.2354 136.169L78.9928 136.307L73.1101 136.504L67.2274 142.975L66.9883 143.113L72.98 136.304Z" fill="#3C2415"/>
<path d="M63.6465 141.218L66.9869 143.114L73.1087 136.377L69.7683 134.481L63.6465 141.218Z" fill="#754C29"/>
<path d="M75.8929 134.273L79.2333 136.169L73.108 136.376L69.7676 134.481L75.8929 134.273Z" fill="#603913"/>
<path d="M40.2002 129.795C38.2628 128.697 36.6875 129.588 36.6875 131.788V132.029L43.7094 136.01V135.769C43.713 133.569 42.1412 130.893 40.2002 129.795Z" fill="#603913"/>
<path d="M40.6692 130.51V133.197L40.3809 133.362V130.313C40.4758 130.372 40.5743 130.438 40.6692 130.51Z" fill="#2B5E85"/>
<path d="M42.2815 132.278L40.6641 133.193V130.507C41.2829 130.963 41.8385 131.581 42.2815 132.278Z" fill="#3576AB"/>
<path d="M40.0214 132.499V133.155L38.1191 129.916C38.2211 129.871 38.3301 129.837 38.4462 129.812L40.0214 132.499Z" fill="#2B5E85"/>
<path d="M40.0202 130.107V132.499L38.4414 129.817C38.895 129.727 39.4365 129.817 40.0202 130.107Z" fill="#3576AB"/>
<path d="M39.7677 133.3L37.0566 131.764C37.1024 130.963 37.4012 130.379 37.8619 130.062L37.8935 130.117C37.5806 130.455 37.3801 130.956 37.345 131.598L39.4758 132.807L39.7677 133.3Z" fill="#2B5E85"/>
<path d="M39.4766 132.806L37.3457 131.598C37.3809 130.955 37.5813 130.455 37.8942 130.116L39.4766 132.806Z" fill="#3576AB"/>
<path d="M43.347 135.33L40.6289 133.79L40.9172 133.628L43.3118 134.985C43.3329 135.099 43.3399 135.216 43.347 135.33Z" fill="#2B5E85"/>
<path d="M43.3184 134.982L40.9238 133.625L42.5413 132.706C42.9422 133.438 43.2199 134.229 43.3184 134.982Z" fill="#3576AB"/>
<path opacity="0.1" d="M43.3519 135.332C43.3448 135.218 43.3343 135.104 43.3202 134.986C43.2534 134.461 43.0987 133.923 42.8737 133.395L41.5586 134.316L43.3519 135.332Z" fill="white"/>
<path opacity="0.1" d="M39.3775 129.861L38.4668 130.51L39.599 132.437L40.0245 132.144V130.11C39.803 129.996 39.585 129.913 39.3775 129.861Z" fill="white"/>
<path opacity="0.1" d="M40.6731 130.51C40.5782 130.441 40.4797 130.372 40.3848 130.313V131.895L41.4221 131.173C41.183 130.925 40.9333 130.7 40.6731 130.51Z" fill="white"/>
<path opacity="0.1" d="M39.3617 132.603L38.2295 130.68L37.0867 131.491C37.0727 131.581 37.0656 131.671 37.0586 131.764L38.9925 132.858L39.3617 132.603Z" fill="white"/>
<path d="M46.9317 147.243L33.3555 139.546V134.118L46.9317 141.818V147.243Z" fill="#603913"/>
<path d="M38.2355 141.807V142.063L36.0273 140.809V135.882L36.2524 136.01V140.681L38.2355 141.807Z" fill="#2B5E85"/>
<path d="M38.2371 137.133V141.808L36.2539 140.683V136.011L38.2371 137.133Z" fill="#3576AB"/>
<path opacity="0.1" d="M36.0273 138.786L38.2813 137.16L37.1842 136.535L36.0273 137.374V138.786Z" fill="white"/>
<path d="M46.7258 146.62V146.876L44.4824 145.602V140.671L44.7039 140.799V145.474L46.7258 146.62Z" fill="#2B5E85"/>
<path d="M46.723 141.946V146.621L44.7012 145.475V140.8L46.723 141.946Z" fill="#3576AB"/>
<path opacity="0.1" d="M46.7258 141.945L46.4656 141.797L44.4824 143.233V145.602L45.147 145.978L46.7258 144.839V141.945Z" fill="white"/>
<path d="M41.851 143.858V144.11L38.4473 142.18V137.253L38.6688 137.377V142.056L41.851 143.858Z" fill="#2B5E85"/>
<path d="M41.8521 139.179V143.858L38.6699 142.056V137.377L41.8521 139.179Z" fill="#3576AB"/>
<path opacity="0.1" d="M38.7461 142.353L39.8396 142.971L41.8509 141.518V140.105L38.7461 142.353Z" fill="white"/>
<path d="M35.8172 140.437V140.692L33.5703 139.418V134.487L33.7954 134.615V139.29L35.8172 140.437Z" fill="#2B5E85"/>
<path d="M35.8187 135.762V140.437L33.7969 139.29V134.615L35.8187 135.762Z" fill="#3576AB"/>
<path opacity="0.1" d="M33.5703 139.418L34.4564 139.922L35.8172 138.938V137.525L33.5703 139.152V139.418Z" fill="white"/>
<path d="M44.2672 145.225V145.48L42.0625 144.231V139.3L42.2875 139.428V144.103L44.2672 145.225Z" fill="#2B5E85"/>
<path d="M44.2687 140.55V145.225L42.2891 144.103V139.428L44.2687 140.55Z" fill="#3576AB"/>
<path opacity="0.1" d="M44.264 145.481V143.371L42.6289 144.555L44.264 145.481Z" fill="white"/>
<path opacity="0.1" d="M42.5653 139.587L42.0625 139.953V141.365L43.6624 140.208L42.5653 139.587Z" fill="white"/>
<path d="M62.5628 157.586C62.714 157.696 62.7913 157.675 62.8265 157.751C62.8617 157.827 62.7316 157.91 62.7351 157.955C62.7456 158 62.4116 157.475 62.5628 157.586Z" fill="#3C2415"/>
<path d="M61.3758 157.568C61.2316 157.789 61.1085 157.692 61.0699 157.768C61.0312 157.844 61.1578 157.979 61.1542 158.024C61.1472 158.069 61.527 157.458 61.3758 157.568Z" fill="#3C2415"/>
<path d="M62.8113 157.958C62.8042 157.948 62.7972 157.941 62.7867 157.934C62.4421 157.568 62.4385 151.384 62.4385 148.701L61.4083 148.725C61.4083 150.863 61.3485 156.664 61.2079 157.762C61.1692 158.062 60.9512 158.21 60.9512 158.235C60.9652 158.342 61.2817 158.255 61.345 158.328C61.4153 158.414 61.338 158.59 61.447 158.639C61.5349 158.677 61.7001 158.542 61.7951 158.583C62.0588 158.69 62.3999 158.704 62.6284 158.58C62.7445 158.518 62.653 158.425 62.6882 158.331C62.6882 158.331 62.748 158.317 62.7902 158.304C62.9238 158.259 62.9308 158.065 62.8113 157.958Z" fill="#603913"/>
<path d="M62.6863 158.404C62.6863 158.404 62.5597 158.09 62.6125 158.024C62.6898 158.19 62.8305 158.276 62.8375 158.28C62.8023 158.318 62.7039 158.325 62.7004 158.335C62.6898 158.363 62.6863 158.404 62.6863 158.404Z" fill="#3C2415"/>
<path d="M61.5742 158.628C61.6551 158.49 61.7078 158.293 61.7535 158.286C61.7993 158.283 61.7852 158.542 61.8063 158.587C61.7254 158.555 61.6164 158.628 61.5742 158.628Z" fill="#3C2415"/>
<path d="M61.1309 158.294C61.1274 158.273 61.3348 158.111 61.3841 158.128C61.4333 158.146 61.3735 158.346 61.3665 158.363C61.3313 158.277 61.2153 158.304 61.1309 158.294Z" fill="#3C2415"/>
<path d="M59.7009 150.727C59.6903 150.717 59.6833 150.706 59.6763 150.696C59.5637 150.724 59.4196 150.71 59.3282 150.648C59.2508 150.596 59.2367 150.53 59.2754 150.475C59.2297 150.444 59.2016 150.406 59.1875 150.371C59.0187 150.375 58.8429 150.334 58.7198 150.251C58.5511 150.133 58.537 149.978 58.6776 149.871C58.6741 149.867 58.6706 149.867 58.6671 149.864C58.3401 149.643 58.3506 149.339 58.6671 149.156C58.6636 149.156 58.6636 149.153 58.6601 149.153C58.3577 148.945 58.3823 148.655 58.7128 148.5C58.8499 148.438 59.0187 148.407 59.191 148.407C59.1805 148.334 59.2156 148.265 59.3141 148.217C59.4372 148.162 59.6059 148.158 59.7501 148.2C59.7677 148.131 59.8275 148.065 59.9294 148.017C60.0068 147.979 60.1017 147.961 60.2002 147.951C60.1791 147.875 60.2142 147.799 60.3197 147.747C60.485 147.671 60.7452 147.692 60.8964 147.792C60.9069 147.799 60.9105 147.809 60.921 147.816C61.0335 147.775 61.1601 147.751 61.2902 147.744C61.3078 147.72 61.3324 147.692 61.3711 147.675C61.4977 147.616 61.6946 147.63 61.8106 147.709C61.8528 147.737 61.8704 147.768 61.881 147.803C61.8845 147.803 61.888 147.799 61.8915 147.799C62.0779 147.713 62.3627 147.733 62.5315 147.851C62.5807 147.882 62.6088 147.916 62.6299 147.954C62.6897 147.944 62.7495 147.941 62.8128 147.944C62.8268 147.934 62.8374 147.92 62.855 147.913C62.964 147.861 63.1327 147.875 63.2312 147.941C63.2558 147.958 63.2734 147.975 63.2839 147.996C63.5688 147.913 63.9415 147.958 64.1735 148.117C64.3529 148.238 64.3986 148.396 64.3177 148.528C64.4548 148.535 64.5955 148.573 64.694 148.642C64.8838 148.769 64.8698 148.952 64.6623 149.049C64.6658 149.052 64.6693 149.052 64.6764 149.056C64.8241 149.156 64.8522 149.287 64.7608 149.387C64.8065 149.401 64.8451 149.422 64.8803 149.443C65.021 149.536 65.0104 149.674 64.8557 149.743C64.8522 149.743 64.8451 149.743 64.8416 149.747C64.8627 149.757 64.8909 149.764 64.9084 149.778C65.0421 149.867 65.0315 149.999 64.8873 150.064C64.8416 150.088 64.7854 150.095 64.7291 150.102C64.7291 150.102 64.7291 150.102 64.7326 150.102C64.8803 150.202 64.8662 150.34 64.7045 150.416C64.6412 150.444 64.5638 150.458 64.4865 150.458C64.5744 150.572 64.5357 150.703 64.3705 150.779C64.2544 150.834 64.1032 150.848 63.9591 150.827C63.9274 150.876 63.8747 150.921 63.8008 150.955C63.6778 151.014 63.516 151.034 63.3613 151.021C63.3789 151.104 63.3296 151.19 63.2101 151.245C63.0167 151.335 62.7143 151.311 62.5385 151.193C62.5174 151.179 62.4998 151.162 62.4822 151.148C62.3627 151.204 62.2009 151.204 62.0638 151.166C62.0427 151.197 62.0111 151.224 61.9653 151.249C61.8036 151.324 61.5539 151.304 61.4063 151.204C61.3746 151.179 61.35 151.155 61.3324 151.131C61.3043 151.166 61.2656 151.197 61.2129 151.221C61.0124 151.314 60.703 151.29 60.5237 151.166C60.4745 151.131 60.4393 151.093 60.4182 151.055C60.3725 151.048 60.3268 151.038 60.2881 151.024C60.1299 151.083 59.9083 151.062 59.7747 150.969C59.6552 150.9 59.6376 150.8 59.7009 150.727Z" fill="#0A4F26"/>
<path d="M64.6902 149.781C64.7078 149.767 64.7219 149.75 64.7324 149.736C64.9047 149.795 65.1297 149.788 65.2774 149.702C65.404 149.633 65.4357 149.529 65.3794 149.439C65.4532 149.394 65.5025 149.342 65.5271 149.287C65.7873 149.315 66.0686 149.273 66.269 149.159C66.5468 149.001 66.5855 148.755 66.3815 148.576C66.385 148.572 66.3921 148.572 66.3956 148.569C66.9265 148.265 66.9547 147.792 66.487 147.468C66.4905 147.464 66.494 147.464 66.5011 147.464C66.9969 147.181 66.9969 146.729 66.5011 146.446C66.2971 146.328 66.0369 146.266 65.7732 146.245C65.8013 146.138 65.7521 146.021 65.6044 145.938C65.4216 145.834 65.1579 145.81 64.9328 145.859C64.9117 145.748 64.8273 145.638 64.6761 145.551C64.5601 145.486 64.4159 145.444 64.2647 145.42C64.3069 145.306 64.2647 145.182 64.103 145.092C63.8569 144.954 63.4525 144.954 63.2064 145.092C63.1888 145.102 63.1782 145.116 63.1642 145.126C62.9954 145.051 62.802 144.999 62.6051 144.971C62.584 144.93 62.5488 144.888 62.489 144.854C62.2992 144.747 61.9932 144.747 61.8034 144.854C61.7366 144.892 61.7014 144.94 61.6838 144.988C61.6803 144.985 61.6733 144.981 61.6698 144.978C61.392 144.823 60.9454 144.823 60.6711 144.978C60.5938 145.023 60.541 145.071 60.5059 145.126C60.4144 145.102 60.3195 145.092 60.2211 145.085C60.2035 145.068 60.1859 145.047 60.1578 145.03C59.996 144.937 59.7358 144.937 59.5706 145.03C59.5319 145.054 59.5002 145.078 59.4791 145.106C59.0501 144.943 58.4629 144.968 58.0832 145.182C57.7878 145.347 57.6999 145.586 57.8089 145.8C57.5944 145.793 57.3764 145.834 57.2111 145.928C56.9017 146.104 56.9017 146.387 57.2111 146.563H57.2147C57.2076 146.566 57.2006 146.57 57.1936 146.573C56.9545 146.711 56.8947 146.912 57.0178 147.077C56.9474 147.095 56.8806 147.119 56.8244 147.15C56.5958 147.281 56.5958 147.492 56.8244 147.619C56.8314 147.623 56.8384 147.623 56.8455 147.63C56.8068 147.644 56.7681 147.651 56.7365 147.671C56.5149 147.796 56.5149 147.996 56.7365 148.12C56.8068 148.162 56.8912 148.182 56.9791 148.196C56.9791 148.196 56.9756 148.196 56.972 148.2C56.7329 148.334 56.7329 148.555 56.972 148.69C57.067 148.742 57.183 148.769 57.3061 148.78C57.1549 148.945 57.1971 149.156 57.4467 149.294C57.619 149.394 57.8546 149.432 58.0797 149.418C58.1254 149.498 58.1992 149.574 58.3082 149.636C58.4946 149.74 58.7372 149.795 58.9798 149.795C58.9447 149.923 59.0115 150.061 59.1873 150.161C59.4756 150.327 59.9468 150.327 60.2351 150.161C60.2703 150.14 60.2984 150.119 60.3265 150.099C60.5024 150.195 60.7555 150.22 60.9735 150.175C61.0017 150.226 61.0474 150.271 61.1177 150.313C61.3603 150.451 61.7506 150.451 61.9897 150.313C62.046 150.282 62.0812 150.244 62.1128 150.209C62.1515 150.264 62.2077 150.316 62.2851 150.361C62.584 150.53 63.0657 150.53 63.3646 150.361C63.4455 150.313 63.5052 150.261 63.5404 150.202C63.6107 150.199 63.681 150.188 63.7479 150.171C63.987 150.278 64.3316 150.275 64.5531 150.15C64.7394 150.054 64.7816 149.902 64.6902 149.781Z" fill="#0B592B"/>
<path d="M58.2558 148.508C58.2382 148.49 58.2241 148.473 58.2136 148.456C58.0167 148.504 57.7705 148.477 57.6158 148.369C57.4822 148.28 57.4576 148.166 57.5244 148.073C57.4506 148.017 57.3978 147.955 57.3732 147.893C57.0813 147.9 56.779 147.831 56.5645 147.686C56.2691 147.486 56.2515 147.213 56.4941 147.03C56.4906 147.026 56.4836 147.023 56.4766 147.019C55.9175 146.64 55.9315 146.111 56.4766 145.797C56.473 145.794 56.4695 145.794 56.4625 145.79C55.9421 145.438 55.9843 144.934 56.5539 144.668C56.7895 144.557 57.0814 144.509 57.3767 144.509C57.3556 144.388 57.4189 144.264 57.5912 144.185C57.8022 144.088 58.094 144.081 58.3402 144.153C58.3753 144.033 58.4738 143.919 58.6496 143.836C58.7867 143.774 58.945 143.739 59.1137 143.725C59.0751 143.594 59.1384 143.463 59.3212 143.377C59.606 143.245 60.0526 143.28 60.3128 143.456C60.3304 143.47 60.3409 143.487 60.355 143.501C60.5484 143.432 60.7664 143.39 60.9879 143.377C61.016 143.332 61.0582 143.29 61.125 143.259C61.343 143.156 61.6806 143.183 61.881 143.318C61.9514 143.366 61.9865 143.421 62.0006 143.477C62.0076 143.473 62.0111 143.47 62.0146 143.47C62.3346 143.321 62.8269 143.359 63.1152 143.556C63.1961 143.611 63.2488 143.67 63.284 143.736C63.386 143.718 63.4915 143.712 63.6005 143.715C63.6216 143.694 63.6427 143.677 63.6743 143.66C63.8607 143.573 64.149 143.594 64.3213 143.712C64.3635 143.739 64.3951 143.77 64.4127 143.805C64.9015 143.66 65.5485 143.739 65.9458 144.012C66.2588 144.223 66.3326 144.492 66.1955 144.716C66.4346 144.73 66.6702 144.792 66.8425 144.91C67.1659 145.131 67.1413 145.445 66.7862 145.611C66.7932 145.614 66.8003 145.618 66.8073 145.624C67.0605 145.797 67.1062 146.022 66.955 146.198C67.0323 146.222 67.1027 146.256 67.1624 146.294C67.4051 146.457 67.384 146.691 67.1202 146.812C67.1132 146.816 67.1027 146.816 67.0956 146.819C67.1343 146.836 67.18 146.85 67.2117 146.874C67.4437 147.03 67.4226 147.254 67.173 147.372C67.0921 147.41 66.9972 147.427 66.8987 147.434C66.8987 147.434 66.9022 147.434 66.9057 147.437C67.1554 147.606 67.1378 147.852 66.86 147.979C66.751 148.031 66.6174 148.048 66.4838 148.052C66.635 148.249 66.5682 148.477 66.2834 148.608C66.0829 148.701 65.8192 148.725 65.5731 148.691C65.5168 148.773 65.4289 148.849 65.2988 148.912C65.0843 149.012 64.8101 149.05 64.5428 149.029C64.571 149.174 64.4831 149.319 64.2826 149.412C63.9486 149.568 63.4282 149.526 63.1258 149.322C63.0871 149.298 63.059 149.271 63.0308 149.243C62.8269 149.336 62.5456 149.34 62.31 149.271C62.2713 149.322 62.2221 149.374 62.1377 149.412C61.8599 149.543 61.4274 149.509 61.1743 149.336C61.118 149.298 61.0793 149.253 61.0512 149.212C61.0055 149.271 60.9387 149.322 60.8473 149.364C60.5027 149.523 59.9682 149.481 59.6552 149.271C59.5673 149.212 59.5111 149.146 59.4759 149.081C59.3986 149.07 59.3212 149.053 59.2474 149.026C58.9731 149.126 58.5933 149.091 58.3613 148.932C58.1784 148.808 58.1433 148.639 58.2558 148.508Z" fill="#0C612E"/>
<path d="M64.8695 147.637C64.8871 147.62 64.9047 147.606 64.9153 147.589C65.1051 147.654 65.3478 147.644 65.513 147.554C65.6501 147.478 65.6853 147.364 65.6255 147.268C65.7029 147.219 65.7592 147.164 65.7873 147.102C66.0721 147.133 66.378 147.088 66.596 146.96C66.9019 146.788 66.9441 146.518 66.7191 146.322C66.7226 146.318 66.7296 146.318 66.7367 146.315C67.3204 145.983 67.3485 145.465 66.8351 145.113C66.8386 145.11 66.8457 145.11 66.8492 145.106C67.3907 144.799 67.3907 144.302 66.8492 143.994C66.6241 143.867 66.3428 143.798 66.051 143.773C66.0826 143.656 66.0299 143.528 65.8682 143.438C65.6677 143.328 65.3794 143.297 65.1333 143.352C65.1086 143.228 65.0172 143.11 64.852 143.014C64.7219 142.941 64.5671 142.896 64.4019 142.869C64.4476 142.744 64.3984 142.606 64.2261 142.51C63.9553 142.358 63.5158 142.358 63.245 142.51C63.2239 142.52 63.2169 142.537 63.1993 142.548C63.013 142.465 62.8055 142.406 62.5875 142.375C62.5629 142.33 62.5242 142.285 62.4609 142.247C62.2535 142.13 61.9194 142.13 61.7119 142.247C61.6381 142.289 61.5994 142.34 61.5783 142.396C61.5713 142.392 61.5678 142.389 61.5643 142.385C61.2619 142.216 60.7731 142.213 60.4742 142.385C60.3898 142.434 60.3301 142.489 60.2949 142.548C60.1964 142.52 60.091 142.51 59.9855 142.503C59.9679 142.482 59.9468 142.461 59.9187 142.444C59.7429 142.344 59.4545 142.344 59.2787 142.444C59.2365 142.468 59.2013 142.499 59.1803 142.53C58.7126 142.351 58.0691 142.378 57.6542 142.613C57.3307 142.796 57.2323 143.055 57.3518 143.29C57.1162 143.283 56.8771 143.328 56.6978 143.432C56.3602 143.625 56.3602 143.936 56.6978 144.126C56.6907 144.129 56.6837 144.133 56.6767 144.136C56.413 144.284 56.3497 144.505 56.4868 144.688C56.4094 144.706 56.3356 144.733 56.2723 144.768C56.0227 144.909 56.0227 145.141 56.2723 145.282C56.2793 145.286 56.2899 145.289 56.2969 145.293C56.2582 145.306 56.2125 145.317 56.1774 145.338C55.9383 145.472 55.9383 145.693 56.1774 145.828C56.2547 145.873 56.3462 145.897 56.4411 145.911C56.4411 145.911 56.4376 145.911 56.4341 145.914C56.1739 146.063 56.1739 146.304 56.4341 146.453C56.536 146.512 56.6661 146.539 56.7998 146.553C56.6345 146.736 56.6837 146.964 56.951 147.116C57.1408 147.223 57.3975 147.268 57.6437 147.254C57.6929 147.34 57.7738 147.423 57.8933 147.492C58.0972 147.606 58.361 147.665 58.6282 147.665C58.5895 147.806 58.6634 147.955 58.8532 148.065C59.1697 148.245 59.6831 148.245 59.9995 148.065C60.0382 148.045 60.0699 148.02 60.098 147.996C60.2914 148.103 60.5692 148.131 60.8048 148.083C60.8364 148.138 60.8856 148.19 60.963 148.235C61.2267 148.383 61.6522 148.383 61.9194 148.235C61.9792 148.2 62.0214 148.162 62.053 148.121C62.0952 148.183 62.155 148.238 62.2429 148.286C62.5699 148.473 63.0974 148.473 63.4244 148.286C63.5158 148.235 63.5791 148.176 63.6178 148.11C63.6951 148.107 63.7725 148.096 63.8463 148.076C64.1065 148.193 64.4863 148.19 64.7254 148.052C64.9223 147.938 64.968 147.772 64.8695 147.637Z" fill="#0E6B32"/>
<path d="M58.7126 146.322C58.6985 146.304 58.6844 146.29 58.6739 146.273C58.4981 146.318 58.273 146.294 58.1324 146.197C58.0128 146.118 57.9882 146.011 58.0515 145.928C57.9812 145.876 57.939 145.821 57.9144 145.766C57.6507 145.773 57.3764 145.707 57.183 145.579C56.9158 145.4 56.8982 145.151 57.1197 144.985C57.1162 144.982 57.1092 144.982 57.1057 144.978C56.5958 144.633 56.6099 144.157 57.1057 143.87C57.1021 143.867 57.0986 143.867 57.0951 143.863C56.6239 143.542 56.6626 143.086 57.1795 142.844C57.394 142.744 57.6577 142.699 57.9249 142.699C57.9074 142.589 57.9636 142.478 58.1183 142.406C58.3082 142.316 58.5754 142.313 58.797 142.378C58.8286 142.268 58.92 142.164 59.0783 142.092C59.2013 142.033 59.3455 142.002 59.5002 141.992C59.4651 141.874 59.5213 141.753 59.6866 141.677C59.9468 141.557 60.3476 141.588 60.5832 141.75C60.6008 141.764 60.6078 141.778 60.6219 141.788C60.7977 141.726 60.9946 141.688 61.195 141.677C61.2197 141.636 61.2583 141.598 61.3216 141.57C61.5185 141.477 61.8245 141.501 62.0073 141.626C62.0706 141.67 62.1022 141.719 62.1163 141.771C62.1233 141.767 62.1269 141.764 62.1304 141.764C62.4187 141.629 62.8653 141.664 63.129 141.843C63.2028 141.891 63.2521 141.947 63.2802 142.005C63.3716 141.988 63.4701 141.985 63.5685 141.988C63.5861 141.971 63.6072 141.954 63.6353 141.94C63.8041 141.86 64.0678 141.881 64.2225 141.985C64.2612 142.012 64.2858 142.04 64.3069 142.068C64.75 141.936 65.3337 142.009 65.6958 142.254C65.9771 142.444 66.0475 142.689 65.9209 142.893C66.1354 142.903 66.3499 142.962 66.5081 143.069C66.8035 143.269 66.7789 143.552 66.4554 143.704H66.4518C66.4589 143.708 66.4659 143.711 66.4729 143.715C66.7015 143.87 66.7437 144.074 66.6066 144.233C66.6769 144.257 66.7402 144.284 66.7964 144.322C67.018 144.471 66.9969 144.681 66.7578 144.792C66.7507 144.795 66.7437 144.795 66.7367 144.799C66.7718 144.813 66.8105 144.826 66.8421 144.847C67.0531 144.989 67.0355 145.189 66.807 145.296C66.7331 145.331 66.6452 145.348 66.5573 145.355C66.5573 145.355 66.5608 145.355 66.5608 145.358C66.7894 145.514 66.7683 145.735 66.5186 145.848C66.4202 145.893 66.3006 145.911 66.1776 145.914C66.3147 146.094 66.2549 146.297 65.9947 146.418C65.8154 146.505 65.5763 146.525 65.3513 146.494C65.2985 146.57 65.2212 146.639 65.1051 146.694C64.9117 146.784 64.6621 146.819 64.4194 146.798C64.4441 146.929 64.3667 147.06 64.1839 147.147C63.8815 147.288 63.4103 147.25 63.136 147.064C63.1044 147.04 63.0727 147.019 63.0481 146.991C62.8618 147.074 62.6086 147.081 62.3941 147.019C62.3589 147.067 62.3132 147.112 62.2394 147.147C61.9862 147.264 61.5959 147.233 61.3638 147.078C61.3111 147.043 61.2759 147.002 61.2513 146.964C61.2091 147.016 61.1493 147.064 61.0649 147.102C60.752 147.247 60.2703 147.209 59.9855 147.016C59.9081 146.96 59.8518 146.902 59.8237 146.843C59.7534 146.833 59.6831 146.819 59.6198 146.795C59.3736 146.884 59.029 146.853 58.8181 146.712C58.6423 146.594 58.6106 146.439 58.7126 146.322Z" fill="#0F7336"/>
<path d="M64.31 145.493C64.3241 145.48 64.3382 145.469 64.3452 145.455C64.4929 145.507 64.6898 145.5 64.8164 145.428C64.9254 145.366 64.9535 145.279 64.9043 145.2C64.9676 145.162 65.0098 145.117 65.0344 145.069C65.2594 145.093 65.502 145.055 65.6743 144.958C65.917 144.82 65.9486 144.609 65.7728 144.454C65.7763 144.451 65.7833 144.451 65.7869 144.447C66.2475 144.185 66.2686 143.774 65.8642 143.494C65.8677 143.494 65.8712 143.491 65.8748 143.491C66.3037 143.246 66.3037 142.852 65.8748 142.61C65.6989 142.51 65.4739 142.455 65.2454 142.438C65.27 142.344 65.2278 142.244 65.1012 142.172C64.943 142.082 64.7144 142.061 64.521 142.103C64.5034 142.006 64.4296 141.913 64.2995 141.837C64.1975 141.778 64.0744 141.744 63.9443 141.723C63.983 141.623 63.9443 141.516 63.8072 141.44C63.5927 141.319 63.2446 141.319 63.0301 141.44C63.0125 141.45 63.0055 141.46 62.995 141.471C62.8473 141.405 62.682 141.36 62.5097 141.336C62.4921 141.298 62.4605 141.264 62.4113 141.236C62.246 141.143 61.9823 141.143 61.8205 141.236C61.7608 141.27 61.7326 141.308 61.715 141.353C61.7115 141.35 61.708 141.346 61.7045 141.346C61.4654 141.212 61.0786 141.212 60.8395 141.346C60.7727 141.384 60.727 141.429 60.6953 141.478C60.618 141.457 60.5371 141.447 60.4492 141.443C60.4351 141.426 60.4175 141.412 60.3964 141.395C60.2558 141.315 60.0308 141.315 59.8901 141.395C59.8549 141.415 59.8303 141.436 59.8128 141.46C59.44 141.319 58.9337 141.34 58.6067 141.526C58.35 141.671 58.2726 141.875 58.3676 142.061C58.1812 142.054 57.9913 142.092 57.8507 142.172C57.5834 142.324 57.5834 142.569 57.8507 142.721H57.8542C57.8472 142.724 57.8437 142.724 57.8366 142.728C57.6292 142.845 57.5799 143.018 57.6854 143.163C57.6256 143.176 57.5659 143.197 57.5166 143.228C57.3197 143.339 57.3197 143.522 57.5166 143.636C57.5237 143.639 57.5307 143.639 57.5342 143.643C57.5026 143.653 57.4674 143.663 57.4393 143.677C57.2494 143.784 57.2494 143.96 57.4393 144.067C57.4991 144.102 57.5729 144.123 57.6503 144.133H57.6467C57.4393 144.25 57.4393 144.44 57.6467 144.558C57.7276 144.603 57.8296 144.627 57.9351 144.637C57.805 144.782 57.8437 144.962 58.0546 145.082C58.2058 145.169 58.4063 145.203 58.6032 145.193C58.6418 145.262 58.7051 145.328 58.8001 145.379C58.9618 145.469 59.1728 145.514 59.3838 145.514C59.3521 145.625 59.4084 145.742 59.5596 145.828C59.8092 145.97 60.2171 145.97 60.4668 145.828C60.4949 145.811 60.523 145.794 60.5441 145.773C60.6988 145.856 60.9133 145.88 61.1032 145.839C61.1278 145.884 61.1665 145.925 61.2263 145.959C61.4337 146.077 61.7713 146.077 61.9823 145.959C62.028 145.932 62.0631 145.901 62.0878 145.87C62.1194 145.918 62.1686 145.963 62.2354 146.001C62.4921 146.146 62.9106 146.146 63.1708 146.001C63.2411 145.959 63.2938 145.915 63.322 145.863C63.3853 145.859 63.445 145.852 63.5013 145.835C63.7088 145.928 64.0076 145.925 64.1975 145.818C64.3522 145.728 64.3874 145.6 64.31 145.493Z" fill="#117D3A"/>
<path d="M59.3755 144.623C59.365 144.609 59.3544 144.599 59.3474 144.585C59.2138 144.619 59.045 144.599 58.9395 144.526C58.8481 144.464 58.8305 144.385 58.8797 144.322C58.827 144.284 58.7953 144.243 58.7742 144.202C58.5773 144.208 58.3699 144.16 58.2222 144.06C58.0218 143.925 58.0077 143.739 58.173 143.615C58.1694 143.611 58.1659 143.611 58.1624 143.608C57.7791 143.349 57.7897 142.99 58.1624 142.772C58.1589 142.769 58.1554 142.769 58.1519 142.769C57.7967 142.527 57.8249 142.185 58.2152 142.002C58.3769 141.926 58.5738 141.892 58.7778 141.895C58.7637 141.812 58.8059 141.729 58.9219 141.674C59.0661 141.608 59.2665 141.605 59.4353 141.653C59.4599 141.57 59.5267 141.494 59.6463 141.436C59.7377 141.391 59.8502 141.37 59.9627 141.36C59.9381 141.27 59.9803 141.18 60.1034 141.122C60.2968 141.032 60.6027 141.056 60.7785 141.177C60.7926 141.187 60.7961 141.198 60.8066 141.204C60.9403 141.16 61.0879 141.128 61.2391 141.122C61.2567 141.09 61.2884 141.063 61.3341 141.042C61.4818 140.973 61.7138 140.99 61.851 141.084C61.9002 141.118 61.9248 141.153 61.9318 141.191C61.9354 141.187 61.9389 141.187 61.9424 141.184C62.1604 141.084 62.498 141.108 62.6949 141.242C62.7511 141.28 62.7863 141.322 62.8109 141.367C62.8812 141.353 62.9515 141.349 63.0289 141.353C63.043 141.339 63.057 141.325 63.0781 141.315C63.2047 141.256 63.4016 141.27 63.5177 141.349C63.5458 141.37 63.5669 141.391 63.581 141.412C63.915 141.315 64.3545 141.367 64.6288 141.553C64.8398 141.698 64.8925 141.881 64.7976 142.037C64.9593 142.043 65.1211 142.088 65.2406 142.168C65.4621 142.32 65.4446 142.534 65.2019 142.644C65.2055 142.648 65.2125 142.651 65.216 142.655C65.3883 142.772 65.42 142.927 65.318 143.045C65.3707 143.062 65.42 143.083 65.4586 143.11C65.6239 143.221 65.6098 143.38 65.4305 143.466C65.427 143.47 65.42 143.47 65.4129 143.473C65.4411 143.483 65.4692 143.494 65.4903 143.511C65.6485 143.618 65.6344 143.77 65.4621 143.849C65.4059 143.877 65.3426 143.887 65.2758 143.894H65.2793C65.4516 144.012 65.4375 144.177 65.2477 144.264C65.1738 144.298 65.0824 144.312 64.991 144.312C65.0965 144.447 65.0507 144.602 64.8538 144.692C64.7167 144.754 64.5374 144.771 64.3686 144.751C64.3299 144.806 64.2701 144.861 64.1822 144.899C64.0381 144.968 63.8482 144.992 63.6653 144.978C63.6864 145.079 63.6267 145.175 63.4895 145.241C63.261 145.348 62.9094 145.32 62.6984 145.179C62.6738 145.161 62.6527 145.144 62.6351 145.127C62.4944 145.189 62.3046 145.193 62.1428 145.148C62.1182 145.182 62.083 145.217 62.0268 145.244C61.8369 145.334 61.5415 145.31 61.3692 145.193C61.3306 145.165 61.3024 145.137 61.2848 145.106C61.2532 145.144 61.2075 145.182 61.1442 145.21C60.9086 145.32 60.5429 145.289 60.3319 145.144C60.2722 145.103 60.23 145.058 60.2089 145.013C60.1526 145.006 60.1034 144.992 60.0542 144.975C59.8678 145.044 59.6076 145.02 59.4494 144.913C59.3228 144.826 59.3017 144.709 59.3755 144.623Z" fill="#12873F"/>
<path d="M63.4904 144.015C63.4975 144.008 63.508 143.998 63.5115 143.991C63.6065 144.022 63.7295 144.018 63.8139 143.973C63.8843 143.935 63.9018 143.877 63.8702 143.828C63.9089 143.804 63.937 143.777 63.9511 143.746C64.0952 143.759 64.25 143.739 64.359 143.673C64.5137 143.587 64.5348 143.452 64.4222 143.352C64.4258 143.352 64.4258 143.352 64.4293 143.348C64.7211 143.183 64.7387 142.92 64.4785 142.741C64.4785 142.741 64.482 142.737 64.4855 142.737C64.7598 142.582 64.7598 142.33 64.4855 142.178C64.373 142.116 64.2324 142.078 64.0847 142.067C64.1023 142.009 64.0741 141.947 63.9933 141.898C63.8913 141.843 63.7471 141.826 63.6241 141.853C63.6135 141.791 63.5678 141.732 63.4834 141.684C63.4166 141.646 63.3392 141.625 63.2584 141.612C63.283 141.549 63.2584 141.48 63.1705 141.432C63.0333 141.356 62.8118 141.356 62.6747 141.432C62.6641 141.439 62.6606 141.446 62.6501 141.453C62.5551 141.411 62.4531 141.38 62.3406 141.366C62.3301 141.342 62.309 141.322 62.2773 141.301C62.1718 141.242 62.0031 141.242 61.9011 141.301C61.8659 141.322 61.8448 141.349 61.8343 141.373C61.8308 141.373 61.8273 141.37 61.8273 141.37C61.6761 141.284 61.4299 141.284 61.2787 141.37C61.2365 141.394 61.2084 141.422 61.1873 141.453C61.1381 141.439 61.0853 141.432 61.0291 141.432C61.0185 141.422 61.0115 141.411 60.9939 141.401C60.906 141.349 60.7583 141.349 60.6704 141.401C60.6493 141.415 60.6317 141.429 60.6212 141.442C60.3856 141.353 60.0621 141.366 59.8511 141.484C59.6894 141.577 59.6401 141.708 59.6999 141.826C59.5804 141.822 59.4608 141.846 59.3694 141.895C59.2006 141.991 59.2006 142.147 59.3694 142.244C59.3659 142.244 59.3624 142.247 59.3588 142.25C59.2252 142.326 59.1936 142.437 59.2639 142.53C59.2252 142.54 59.1901 142.554 59.1584 142.572C59.0318 142.644 59.0318 142.758 59.1584 142.83C59.1619 142.834 59.1655 142.834 59.169 142.834C59.1479 142.841 59.1268 142.848 59.1092 142.855C58.9896 142.924 58.9896 143.034 59.1092 143.103C59.1479 143.124 59.1936 143.138 59.2428 143.145H59.2393C59.1057 143.221 59.1057 143.342 59.2393 143.417C59.292 143.445 59.3553 143.462 59.4221 143.469C59.3378 143.563 59.3624 143.676 59.4995 143.752C59.5944 143.808 59.7245 143.828 59.8476 143.821C59.8722 143.866 59.9109 143.908 59.9742 143.942C60.0762 144.001 60.2098 144.029 60.3469 144.029C60.3258 144.101 60.3645 144.174 60.4594 144.229C60.6177 144.319 60.8779 144.319 61.0361 144.229C61.0537 144.219 61.0713 144.205 61.0853 144.194C61.1838 144.25 61.3209 144.263 61.4405 144.236C61.4581 144.263 61.4791 144.291 61.5178 144.312C61.6514 144.388 61.8659 144.388 61.9996 144.312C62.0277 144.295 62.0488 144.274 62.0664 144.253C62.0875 144.284 62.1191 144.312 62.1613 144.336C62.3266 144.429 62.5903 144.429 62.7555 144.336C62.8013 144.308 62.8329 144.281 62.854 144.246C62.8927 144.243 62.9314 144.239 62.97 144.229C63.1001 144.288 63.2935 144.288 63.4131 144.219C63.5151 144.167 63.5397 144.084 63.4904 144.015Z" fill="#138F43"/>
<path d="M60.6644 143.442C60.6574 143.435 60.6539 143.428 60.6503 143.424C60.5835 143.442 60.4991 143.431 60.4464 143.397C60.4007 143.366 60.3937 143.324 60.4147 143.293C60.3901 143.276 60.3726 143.255 60.362 143.231C60.2636 143.234 60.1581 143.21 60.0842 143.159C59.9823 143.089 59.9787 142.996 60.0596 142.934C60.0561 142.934 60.0561 142.934 60.0526 142.931C59.8592 142.799 59.8662 142.62 60.0526 142.513C60.0526 142.513 60.0491 142.513 60.0491 142.509C59.8697 142.389 59.8838 142.216 60.0807 142.123C60.1616 142.085 60.2636 142.067 60.362 142.067C60.355 142.026 60.3761 141.985 60.4358 141.957C60.5097 141.922 60.6081 141.922 60.6925 141.947C60.7031 141.905 60.7382 141.867 60.8015 141.836C60.8472 141.815 60.9035 141.802 60.9598 141.798C60.9457 141.753 60.9668 141.708 61.0301 141.677C61.1285 141.632 61.2797 141.643 61.3712 141.705C61.3782 141.708 61.3817 141.715 61.3852 141.719C61.452 141.694 61.5259 141.681 61.6032 141.677C61.6138 141.663 61.6279 141.646 61.6525 141.636C61.7263 141.601 61.8423 141.612 61.9127 141.657C61.9373 141.674 61.9478 141.691 61.9549 141.712L61.9584 141.708C62.0674 141.657 62.2362 141.67 62.3381 141.739C62.3663 141.757 62.3838 141.781 62.3944 141.802C62.4296 141.795 62.4647 141.795 62.5034 141.795C62.5104 141.788 62.5175 141.781 62.528 141.777C62.5913 141.746 62.6898 141.757 62.7495 141.795C62.7636 141.805 62.7742 141.815 62.7812 141.826C62.95 141.777 63.1715 141.805 63.3086 141.898C63.4141 141.971 63.4422 142.064 63.393 142.14C63.4739 142.143 63.5548 142.168 63.6145 142.206C63.7271 142.281 63.7165 142.389 63.5934 142.447C63.597 142.447 63.597 142.451 63.6005 142.451C63.6884 142.509 63.7024 142.589 63.6497 142.647C63.6778 142.654 63.7024 142.668 63.72 142.682C63.8009 142.737 63.7974 142.817 63.706 142.862C63.7024 142.862 63.6989 142.862 63.6989 142.865C63.713 142.872 63.7271 142.875 63.7376 142.882C63.815 142.938 63.8114 143.013 63.7235 143.051C63.6954 143.065 63.6638 143.072 63.6286 143.072C63.6286 143.072 63.6286 143.072 63.6321 143.072C63.7165 143.131 63.7095 143.214 63.6145 143.259C63.5759 143.276 63.5301 143.283 63.4844 143.283C63.5372 143.352 63.5126 143.428 63.4141 143.473C63.3438 143.504 63.2559 143.514 63.168 143.5C63.1504 143.528 63.1187 143.556 63.073 143.576C62.9992 143.611 62.9043 143.621 62.8128 143.614C62.8234 143.663 62.7917 143.714 62.7249 143.746C62.6089 143.797 62.4331 143.783 62.3276 143.714C62.317 143.704 62.303 143.697 62.2959 143.687C62.2256 143.718 62.1307 143.721 62.0498 143.697C62.0357 143.714 62.0182 143.732 61.99 143.746C61.8951 143.79 61.7474 143.777 61.6595 143.718C61.6419 143.704 61.6279 143.69 61.6173 143.673C61.5997 143.694 61.5786 143.711 61.547 143.725C61.4274 143.78 61.2446 143.766 61.1391 143.69C61.111 143.67 61.0899 143.649 61.0793 143.625C61.0512 143.621 61.0266 143.614 61.002 143.607C60.907 143.642 60.7769 143.628 60.696 143.576C60.6363 143.545 60.6257 143.487 60.6644 143.442Z" fill="#159947"/>
<path d="M61.1298 142.962C61.1263 142.959 61.1228 142.955 61.1192 142.948C61.0735 142.959 61.0173 142.952 60.9821 142.928C60.954 142.907 60.947 142.879 60.961 142.859C60.9434 142.845 60.9329 142.831 60.9259 142.817C60.859 142.817 60.7887 142.803 60.7395 142.769C60.6727 142.724 60.6692 142.662 60.7254 142.617C60.7254 142.617 60.7219 142.617 60.7219 142.614C60.5918 142.527 60.5988 142.406 60.7219 142.334C60.7219 142.334 60.7219 142.334 60.7184 142.334C60.5988 142.251 60.6094 142.137 60.7395 142.075C60.7922 142.051 60.859 142.037 60.9294 142.04C60.9259 142.013 60.9399 141.985 60.9786 141.964C61.0278 141.944 61.0946 141.94 61.1509 141.958C61.1579 141.93 61.1825 141.902 61.2212 141.885C61.2529 141.871 61.288 141.864 61.3267 141.861C61.3197 141.83 61.3337 141.799 61.3759 141.781C61.4427 141.75 61.5447 141.761 61.6045 141.799C61.608 141.802 61.6115 141.806 61.615 141.809C61.6607 141.795 61.71 141.785 61.7627 141.781C61.7698 141.771 61.7768 141.761 61.7944 141.754C61.8436 141.73 61.921 141.737 61.9667 141.768C61.9842 141.778 61.9913 141.792 61.9948 141.806C61.9948 141.806 61.9983 141.806 61.9983 141.802C62.0721 141.768 62.1847 141.778 62.2515 141.823C62.2691 141.837 62.2831 141.85 62.2902 141.864C62.3148 141.861 62.3359 141.857 62.364 141.861C62.3675 141.857 62.3745 141.85 62.3816 141.847C62.4238 141.826 62.4906 141.833 62.5293 141.857C62.5398 141.864 62.5468 141.871 62.5504 141.878C62.6629 141.844 62.8106 141.864 62.902 141.926C62.9723 141.975 62.9899 142.037 62.9582 142.089C63.011 142.092 63.0672 142.106 63.1059 142.134C63.1798 142.185 63.1727 142.258 63.0919 142.296C63.0919 142.296 63.0954 142.296 63.0954 142.299C63.1552 142.337 63.1622 142.389 63.127 142.431C63.1446 142.437 63.1622 142.444 63.1763 142.455C63.2325 142.493 63.2255 142.545 63.1657 142.576C63.1657 142.576 63.1622 142.576 63.1587 142.576C63.1692 142.579 63.1763 142.582 63.1868 142.589C63.2395 142.624 63.236 142.676 63.1763 142.703C63.1587 142.714 63.1341 142.717 63.113 142.717C63.1692 142.755 63.1657 142.814 63.1024 142.841C63.0778 142.852 63.0462 142.855 63.0145 142.859C63.0497 142.904 63.0321 142.955 62.9688 142.986C62.9231 143.007 62.8633 143.014 62.8035 143.004C62.7895 143.024 62.7719 143.042 62.7402 143.056C62.691 143.08 62.6277 143.087 62.5644 143.083C62.5715 143.118 62.5504 143.149 62.5046 143.173C62.4273 143.207 62.3077 143.197 62.2374 143.152C62.2304 143.145 62.2233 143.142 62.2163 143.135C62.1706 143.156 62.1038 143.156 62.0511 143.142C62.044 143.156 62.03 143.166 62.0124 143.173C61.9491 143.204 61.8506 143.194 61.7908 143.156C61.7768 143.145 61.7698 143.138 61.7627 143.128C61.7522 143.142 61.7381 143.152 61.717 143.163C61.6397 143.201 61.5166 143.19 61.4427 143.142C61.4216 143.128 61.4076 143.114 61.4005 143.097C61.383 143.094 61.3654 143.09 61.3478 143.083C61.2845 143.107 61.1966 143.097 61.1439 143.062C61.1122 143.031 61.1052 142.993 61.1298 142.962Z" fill="#16A34C"/>
<path d="M92.5644 141.586C92.7156 141.696 92.7929 141.675 92.8281 141.751C92.8633 141.827 92.7332 141.91 92.7367 141.955C92.7437 142 92.4097 141.475 92.5644 141.586Z" fill="#3C2415"/>
<path d="M91.3758 141.567C91.2316 141.788 91.1085 141.691 91.0699 141.767C91.0312 141.843 91.1578 141.978 91.1542 142.023C91.1507 142.068 91.5305 141.457 91.3758 141.567Z" fill="#3C2415"/>
<path d="M92.8113 141.958C92.8042 141.948 92.7972 141.941 92.7867 141.934C92.4421 141.568 92.4385 135.384 92.4385 132.701L91.4083 132.725C91.4083 134.863 91.3485 140.664 91.2079 141.762C91.1692 142.062 90.9512 142.21 90.9512 142.235C90.9652 142.342 91.2817 142.255 91.345 142.328C91.4153 142.414 91.338 142.59 91.447 142.639C91.5349 142.677 91.7001 142.542 91.7951 142.583C92.0588 142.69 92.3999 142.704 92.6284 142.58C92.7445 142.518 92.653 142.425 92.6882 142.331C92.6882 142.331 92.748 142.317 92.7902 142.304C92.9273 142.259 92.9343 142.065 92.8113 141.958Z" fill="#603913"/>
<path d="M92.6863 142.403C92.6863 142.403 92.5597 142.089 92.6125 142.023C92.6898 142.189 92.8305 142.276 92.8375 142.279C92.8023 142.317 92.7039 142.324 92.7004 142.334C92.6898 142.358 92.6863 142.403 92.6863 142.403Z" fill="#3C2415"/>
<path d="M91.5742 142.628C91.6551 142.49 91.7078 142.293 91.7535 142.286C91.7993 142.283 91.7852 142.542 91.8063 142.587C91.7254 142.555 91.6199 142.625 91.5742 142.628Z" fill="#3C2415"/>
<path d="M91.1309 142.293C91.1274 142.272 91.3348 142.11 91.3841 142.127C91.4333 142.145 91.3735 142.345 91.3665 142.362C91.3313 142.276 91.2188 142.303 91.1309 142.293Z" fill="#3C2415"/>
<path d="M89.7048 134.723C89.6942 134.713 89.6872 134.703 89.6802 134.692C89.5677 134.72 89.4235 134.706 89.3321 134.644C89.2547 134.592 89.2406 134.526 89.2793 134.471C89.2336 134.44 89.2055 134.402 89.1914 134.368C89.0226 134.371 88.8468 134.33 88.7238 134.247C88.555 134.129 88.5409 133.974 88.6816 133.867C88.678 133.863 88.6745 133.863 88.671 133.86C88.344 133.639 88.3545 133.335 88.671 133.152C88.6675 133.152 88.6675 133.149 88.664 133.149C88.3616 132.942 88.3862 132.651 88.7167 132.496C88.8539 132.434 89.0226 132.403 89.1949 132.403C89.1844 132.33 89.2195 132.261 89.318 132.213C89.4411 132.158 89.6098 132.154 89.754 132.196C89.7716 132.127 89.8314 132.061 89.9333 132.013C90.0107 131.975 90.1056 131.957 90.2041 131.947C90.183 131.871 90.2182 131.795 90.3236 131.743C90.4889 131.667 90.7491 131.688 90.9003 131.788C90.9109 131.795 90.9144 131.806 90.9249 131.812C91.0374 131.771 91.164 131.747 91.2941 131.74C91.3117 131.716 91.3363 131.688 91.375 131.671C91.5016 131.612 91.6985 131.626 91.8145 131.705C91.8567 131.733 91.8743 131.764 91.8849 131.799C91.8884 131.799 91.8919 131.795 91.8954 131.795C92.0818 131.709 92.3666 131.73 92.5354 131.847C92.5846 131.878 92.6127 131.913 92.6338 131.951C92.6936 131.94 92.7534 131.937 92.8167 131.94C92.8307 131.93 92.8413 131.916 92.8589 131.909C92.9679 131.857 93.1366 131.871 93.2351 131.937C93.2597 131.954 93.2773 131.971 93.2878 131.992C93.5727 131.909 93.9454 131.954 94.1775 132.113C94.3568 132.234 94.4025 132.393 94.3216 132.524C94.4588 132.531 94.5994 132.569 94.6979 132.638C94.8877 132.765 94.8737 132.948 94.6662 133.045C94.6697 133.049 94.6732 133.049 94.6803 133.052C94.828 133.152 94.8561 133.283 94.7647 133.384C94.8104 133.397 94.8491 133.418 94.8842 133.439C95.0249 133.532 95.0143 133.67 94.8596 133.739C94.8561 133.739 94.8491 133.739 94.8455 133.743C94.8666 133.753 94.8948 133.76 94.9123 133.774C95.046 133.863 95.0354 133.995 94.8913 134.06C94.8455 134.084 94.7893 134.091 94.733 134.098C94.733 134.098 94.733 134.098 94.7365 134.098C94.8842 134.198 94.8702 134.337 94.7084 134.412C94.6451 134.44 94.5678 134.454 94.4904 134.454C94.5783 134.568 94.5396 134.699 94.3744 134.775C94.2583 134.83 94.1071 134.844 93.963 134.823C93.9313 134.872 93.8786 134.917 93.8047 134.951C93.6817 135.01 93.5199 135.031 93.3652 135.017C93.3828 135.1 93.3336 135.186 93.214 135.241C93.0206 135.331 92.7182 135.307 92.5424 135.189C92.5213 135.176 92.5037 135.158 92.4861 135.144C92.3666 135.2 92.2048 135.2 92.0677 135.162C92.0466 135.193 92.015 135.22 91.9692 135.245C91.8075 135.321 91.5578 135.3 91.4102 135.2C91.3785 135.176 91.3539 135.151 91.3363 135.127C91.3082 135.162 91.2695 135.193 91.2168 135.217C91.0163 135.31 90.7069 135.286 90.5276 135.162C90.4784 135.127 90.4432 135.089 90.4221 135.051C90.3764 135.044 90.3307 135.034 90.292 135.02C90.1338 135.079 89.9122 135.058 89.7786 134.965C89.6591 134.899 89.638 134.799 89.7048 134.723Z" fill="#0A4F26"/>
<path d="M94.6883 133.777C94.7058 133.763 94.7199 133.746 94.7304 133.732C94.9027 133.791 95.1278 133.784 95.2755 133.698C95.4021 133.629 95.4337 133.525 95.3774 133.435C95.4513 133.39 95.5005 133.339 95.5251 133.283C95.7853 133.311 96.0666 133.27 96.267 133.156C96.5448 132.997 96.5835 132.755 96.3796 132.572C96.3831 132.569 96.3901 132.569 96.3936 132.565C96.9246 132.261 96.9527 131.788 96.4851 131.464C96.4886 131.46 96.4921 131.46 96.4991 131.46C96.9949 131.177 96.9949 130.725 96.4991 130.442C96.2952 130.324 96.035 130.262 95.7713 130.241C95.7994 130.134 95.7502 130.017 95.6025 129.934C95.4196 129.83 95.1559 129.806 94.9309 129.855C94.9098 129.744 94.8254 129.634 94.6742 129.547C94.5582 129.482 94.414 129.44 94.2628 129.416C94.305 129.302 94.2628 129.178 94.101 129.088C93.8549 128.95 93.4505 128.95 93.2044 129.088C93.1868 129.098 93.1763 129.112 93.1622 129.123C92.9934 129.047 92.8 128.995 92.6031 128.967C92.582 128.926 92.5469 128.884 92.4871 128.85C92.2972 128.743 91.9913 128.743 91.8014 128.85C91.7346 128.888 91.6994 128.936 91.6819 128.984C91.6783 128.981 91.6713 128.978 91.6678 128.974C91.39 128.819 90.9434 128.819 90.6692 128.974C90.5918 129.019 90.5391 129.067 90.5039 129.123C90.4125 129.098 90.3176 129.088 90.2191 129.081C90.2015 129.064 90.1839 129.043 90.1558 129.026C89.9941 128.933 89.7303 128.933 89.5686 129.026C89.5299 129.05 89.4983 129.074 89.4772 129.102C89.0482 128.94 88.461 128.964 88.0812 129.178C87.7859 129.344 87.698 129.582 87.807 129.796C87.5925 129.789 87.3745 129.83 87.2092 129.924C86.8998 130.1 86.8998 130.383 87.2092 130.559H87.2127C87.2057 130.562 87.1986 130.566 87.1916 130.569C86.9525 130.707 86.8927 130.908 87.0158 131.073C86.9455 131.091 86.8787 131.115 86.8224 131.146C86.5939 131.277 86.5939 131.488 86.8224 131.616C86.8294 131.619 86.8365 131.619 86.8435 131.626C86.8048 131.64 86.7661 131.647 86.7345 131.667C86.513 131.792 86.513 131.992 86.7345 132.116C86.8048 132.158 86.8892 132.178 86.9771 132.192C86.9771 132.192 86.9736 132.192 86.9701 132.196C86.731 132.33 86.731 132.551 86.9701 132.686C87.065 132.738 87.1811 132.765 87.3041 132.776C87.1529 132.941 87.1951 133.152 87.4448 133.29C87.6171 133.39 87.8527 133.428 88.0777 133.415C88.1234 133.494 88.1973 133.57 88.3063 133.632C88.4926 133.736 88.7352 133.791 88.9779 133.791C88.9427 133.919 89.0095 134.057 89.1853 134.157C89.4737 134.323 89.9448 134.323 90.2332 134.157C90.2683 134.136 90.2965 134.115 90.3246 134.095C90.5004 134.191 90.7536 134.216 90.9716 134.171C90.9997 134.223 91.0454 134.267 91.1157 134.309C91.3584 134.447 91.7487 134.447 91.9878 134.309C92.044 134.278 92.0792 134.24 92.1108 134.205C92.1495 134.26 92.2058 134.312 92.2831 134.357C92.582 134.526 93.0637 134.526 93.3626 134.357C93.4435 134.309 93.5033 134.257 93.5384 134.198C93.6088 134.195 93.6791 134.185 93.7459 134.167C93.985 134.274 94.3296 134.271 94.5511 134.147C94.7375 134.053 94.7797 133.901 94.6883 133.777Z" fill="#0B592B"/>
<path d="M88.2558 132.507C88.2382 132.489 88.2241 132.472 88.2136 132.455C88.0167 132.503 87.7705 132.476 87.6158 132.369C87.4822 132.279 87.4576 132.165 87.5244 132.072C87.4506 132.016 87.3978 131.954 87.3732 131.892C87.0813 131.899 86.779 131.83 86.5645 131.685C86.2691 131.485 86.2515 131.212 86.4941 131.029C86.4906 131.025 86.4836 131.022 86.4766 131.018C85.9175 130.639 85.9315 130.11 86.4766 129.796C86.473 129.793 86.4695 129.793 86.4625 129.789C85.9421 129.437 85.9843 128.933 86.5539 128.667C86.7895 128.557 87.0813 128.508 87.3767 128.508C87.3556 128.387 87.4189 128.263 87.5912 128.184C87.8022 128.087 88.094 128.08 88.3402 128.153C88.3753 128.032 88.4738 127.918 88.6496 127.835C88.7867 127.773 88.945 127.738 89.1137 127.724C89.0751 127.593 89.1384 127.462 89.3212 127.376C89.606 127.244 90.0526 127.279 90.3128 127.455C90.3304 127.469 90.3409 127.486 90.355 127.5C90.5484 127.431 90.7629 127.389 90.9879 127.376C91.016 127.331 91.0582 127.289 91.125 127.258C91.343 127.155 91.6806 127.182 91.881 127.317C91.9514 127.365 91.9865 127.421 92.0006 127.476C92.0076 127.472 92.0111 127.469 92.0146 127.469C92.3346 127.32 92.8269 127.358 93.1152 127.555C93.1961 127.61 93.2488 127.669 93.284 127.735C93.386 127.717 93.4915 127.711 93.6005 127.714C93.6216 127.693 93.6427 127.676 93.6743 127.659C93.8607 127.572 94.149 127.593 94.3213 127.711C94.3635 127.738 94.3951 127.769 94.4127 127.804C94.9015 127.659 95.5485 127.738 95.9458 128.011C96.2588 128.222 96.3326 128.491 96.1955 128.715C96.4346 128.729 96.6702 128.791 96.8425 128.909C97.1659 129.13 97.1413 129.444 96.7862 129.61C96.7932 129.613 96.8003 129.617 96.8073 129.623C97.0605 129.796 97.1062 130.021 96.955 130.197C97.0323 130.221 97.1027 130.255 97.1624 130.293C97.4051 130.456 97.384 130.69 97.1202 130.811C97.1132 130.815 97.1027 130.815 97.0956 130.818C97.1343 130.835 97.18 130.849 97.2117 130.873C97.4437 131.029 97.4226 131.253 97.173 131.371C97.0921 131.409 96.9972 131.426 96.8987 131.433C96.8987 131.433 96.9022 131.433 96.9057 131.436C97.1554 131.605 97.1378 131.851 96.86 131.978C96.751 132.03 96.6174 132.047 96.4838 132.051C96.635 132.248 96.5682 132.476 96.2834 132.607C96.0829 132.7 95.8192 132.724 95.5731 132.69C95.5168 132.772 95.4289 132.848 95.2988 132.911C95.0843 133.011 94.8101 133.049 94.5428 133.028C94.571 133.173 94.4831 133.318 94.2826 133.411C93.9486 133.567 93.4282 133.525 93.1258 133.322C93.0871 133.297 93.059 133.27 93.0308 133.242C92.8269 133.335 92.5456 133.339 92.31 133.27C92.2713 133.322 92.2221 133.373 92.1377 133.411C91.8599 133.542 91.4274 133.508 91.1743 133.335C91.118 133.297 91.0793 133.252 91.0512 133.211C91.0055 133.27 90.9387 133.322 90.8472 133.363C90.5027 133.522 89.9682 133.48 89.6552 133.27C89.5673 133.211 89.5111 133.145 89.4759 133.08C89.3986 133.069 89.3212 133.052 89.2474 133.025C88.9731 133.125 88.5933 133.09 88.3613 132.931C88.1784 132.804 88.1433 132.634 88.2558 132.507Z" fill="#0C612E"/>
<path d="M94.8695 131.638C94.8871 131.62 94.9047 131.607 94.9153 131.589C95.1051 131.655 95.3478 131.645 95.513 131.555C95.6501 131.479 95.6853 131.365 95.6255 131.268C95.7029 131.22 95.7592 131.165 95.7873 131.102C96.0721 131.134 96.378 131.089 96.596 130.961C96.9019 130.788 96.9441 130.519 96.7191 130.322C96.7226 130.319 96.7296 130.319 96.7367 130.315C97.3204 129.984 97.3485 129.466 96.8351 129.114C96.8386 129.11 96.8457 129.11 96.8492 129.107C97.3907 128.799 97.3907 128.302 96.8492 127.995C96.6242 127.867 96.3428 127.798 96.051 127.774C96.0826 127.656 96.0299 127.529 95.8682 127.439C95.6677 127.328 95.3794 127.297 95.1333 127.353C95.1086 127.228 95.0172 127.111 94.852 127.018C94.7219 126.945 94.5671 126.9 94.4019 126.873C94.4476 126.748 94.3984 126.61 94.2261 126.514C93.9553 126.362 93.5158 126.362 93.245 126.514C93.2239 126.524 93.2169 126.541 93.1993 126.552C93.013 126.469 92.8055 126.41 92.5875 126.379C92.5629 126.334 92.5242 126.289 92.4609 126.251C92.2535 126.134 91.9194 126.134 91.712 126.251C91.6381 126.293 91.5994 126.344 91.5783 126.4C91.5713 126.396 91.5678 126.393 91.5643 126.389C91.2619 126.22 90.7731 126.217 90.4742 126.389C90.3898 126.438 90.3301 126.493 90.2949 126.552C90.1964 126.524 90.091 126.514 89.9855 126.507C89.9679 126.486 89.9468 126.465 89.9187 126.448C89.7429 126.348 89.4545 126.348 89.2787 126.448C89.2365 126.472 89.2014 126.503 89.1803 126.534C88.7126 126.355 88.0691 126.382 87.6542 126.617C87.3307 126.8 87.2323 127.059 87.3518 127.294C87.1162 127.287 86.8771 127.332 86.6978 127.435C86.3602 127.629 86.3602 127.94 86.6978 128.13C86.6907 128.133 86.6837 128.136 86.6767 128.14C86.413 128.288 86.3497 128.509 86.4868 128.692C86.4094 128.71 86.3356 128.737 86.2723 128.772C86.0227 128.913 86.0227 129.145 86.2723 129.286C86.2793 129.29 86.2899 129.293 86.2969 129.297C86.2583 129.31 86.2125 129.321 86.1774 129.341C85.9383 129.476 85.9383 129.697 86.1774 129.832C86.2547 129.877 86.3462 129.901 86.4411 129.915C86.4411 129.915 86.4376 129.915 86.4341 129.918C86.1739 130.067 86.1739 130.308 86.4341 130.457C86.536 130.515 86.6661 130.543 86.7998 130.557C86.6345 130.74 86.6837 130.968 86.951 131.12C87.1408 131.227 87.3975 131.272 87.6437 131.258C87.6929 131.344 87.7738 131.427 87.8933 131.496C88.0972 131.61 88.361 131.669 88.6282 131.669C88.5895 131.81 88.6634 131.959 88.8532 132.069C89.1697 132.249 89.6831 132.249 89.9995 132.069C90.0382 132.049 90.0699 132.024 90.098 132C90.2914 132.107 90.5692 132.135 90.8048 132.087C90.8364 132.142 90.8856 132.194 90.963 132.238C91.2267 132.387 91.6522 132.387 91.9194 132.238C91.9792 132.204 92.0214 132.166 92.053 132.125C92.0952 132.187 92.155 132.242 92.2429 132.29C92.5699 132.477 93.0974 132.477 93.4244 132.29C93.5158 132.238 93.5791 132.18 93.6178 132.114C93.6951 132.111 93.7725 132.1 93.8463 132.08C94.1065 132.197 94.4863 132.194 94.7254 132.055C94.9223 131.938 94.9715 131.772 94.8695 131.638Z" fill="#0E6B32"/>
<path d="M88.7126 130.322C88.6985 130.304 88.6844 130.29 88.6739 130.273C88.4981 130.318 88.273 130.294 88.1324 130.197C88.0128 130.118 87.9882 130.011 88.0515 129.928C87.9812 129.876 87.939 129.821 87.9144 129.766C87.6507 129.773 87.3764 129.71 87.183 129.579C86.9158 129.4 86.8982 129.151 87.1197 128.985C87.1162 128.982 87.1092 128.982 87.1057 128.978C86.5958 128.633 86.6099 128.157 87.1057 127.87C87.1021 127.867 87.0986 127.867 87.0951 127.863C86.6239 127.542 86.6626 127.086 87.1795 126.844C87.394 126.744 87.6577 126.699 87.9249 126.699C87.9074 126.589 87.9636 126.478 88.1183 126.406C88.3082 126.316 88.5754 126.313 88.797 126.378C88.8286 126.268 88.92 126.164 89.0783 126.092C89.2013 126.033 89.3455 126.002 89.5002 125.992C89.4651 125.874 89.5213 125.753 89.6866 125.677C89.9468 125.557 90.3476 125.588 90.5832 125.75C90.6008 125.764 90.6078 125.778 90.6219 125.788C90.7977 125.726 90.9946 125.688 91.1951 125.677C91.2197 125.636 91.2583 125.598 91.3216 125.57C91.5185 125.477 91.8245 125.501 92.0073 125.626C92.0706 125.67 92.1022 125.719 92.1163 125.771C92.1233 125.767 92.1269 125.767 92.1304 125.764C92.4187 125.629 92.8653 125.664 93.129 125.843C93.2028 125.891 93.2521 125.947 93.2802 126.005C93.3716 125.988 93.4701 125.985 93.5685 125.988C93.5861 125.971 93.6072 125.954 93.6353 125.94C93.8041 125.86 94.0678 125.881 94.2225 125.985C94.2612 126.012 94.2858 126.04 94.3069 126.068C94.75 125.936 95.3337 126.009 95.6958 126.254C95.9771 126.444 96.0475 126.689 95.9209 126.893C96.1354 126.903 96.3499 126.965 96.5081 127.069C96.8035 127.269 96.7788 127.552 96.4554 127.704H96.4518C96.4589 127.708 96.4659 127.711 96.4729 127.715C96.7015 127.87 96.7437 128.074 96.6066 128.233C96.6769 128.257 96.7402 128.284 96.7964 128.322C97.018 128.471 96.9969 128.681 96.7578 128.792C96.7507 128.795 96.7437 128.795 96.7367 128.799C96.7718 128.813 96.8105 128.826 96.8421 128.847C97.0531 128.989 97.0355 129.189 96.807 129.296C96.7331 129.331 96.6452 129.348 96.5573 129.355C96.5573 129.355 96.5608 129.355 96.5608 129.358C96.7894 129.514 96.7683 129.735 96.5186 129.848C96.4202 129.893 96.3006 129.911 96.1776 129.914C96.3147 130.094 96.2549 130.297 95.9947 130.418C95.8154 130.505 95.5763 130.525 95.3513 130.494C95.2985 130.57 95.2212 130.639 95.1051 130.694C94.9117 130.784 94.6621 130.819 94.4194 130.798C94.4441 130.929 94.3667 131.06 94.1839 131.147C93.8815 131.288 93.4103 131.25 93.136 131.064C93.1044 131.04 93.0727 131.019 93.0481 130.991C92.8618 131.074 92.6086 131.081 92.3941 131.019C92.3589 131.067 92.3132 131.112 92.2394 131.147C91.9862 131.264 91.5959 131.233 91.3638 131.078C91.3111 131.043 91.2759 131.002 91.2513 130.964C91.2091 131.016 91.1493 131.064 91.065 131.102C90.752 131.247 90.2703 131.209 89.9855 131.016C89.9081 130.96 89.8518 130.902 89.8237 130.843C89.7534 130.833 89.6831 130.819 89.6198 130.795C89.3736 130.884 89.029 130.853 88.8181 130.712C88.6423 130.591 88.6106 130.439 88.7126 130.322Z" fill="#0F7336"/>
<path d="M94.3081 129.489C94.3221 129.476 94.3362 129.465 94.3432 129.451C94.4909 129.503 94.6878 129.496 94.8144 129.424C94.9234 129.362 94.9516 129.275 94.9023 129.196C94.9656 129.158 95.0078 129.113 95.0324 129.065C95.2575 129.089 95.5001 129.051 95.6724 128.954C95.915 128.816 95.9467 128.606 95.7708 128.45C95.7744 128.447 95.7814 128.447 95.7849 128.443C96.2455 128.181 96.2666 127.77 95.8623 127.49C95.8658 127.49 95.8693 127.487 95.8728 127.487C96.3018 127.242 96.3018 126.848 95.8728 126.606C95.697 126.506 95.472 126.451 95.2434 126.434C95.268 126.34 95.2258 126.24 95.0992 126.168C94.941 126.078 94.7124 126.057 94.5191 126.099C94.5015 126.002 94.4276 125.909 94.2975 125.833C94.1956 125.778 94.0725 125.74 93.9424 125.719C93.9811 125.619 93.9424 125.512 93.8053 125.436C93.5908 125.315 93.2427 125.315 93.0282 125.436C93.0106 125.446 93.0036 125.456 92.993 125.467C92.8453 125.401 92.6801 125.356 92.5078 125.332C92.4902 125.298 92.4585 125.26 92.4093 125.232C92.244 125.139 91.9803 125.139 91.8186 125.232C91.7588 125.267 91.7307 125.305 91.7131 125.349C91.7096 125.346 91.7061 125.343 91.7025 125.343C91.4634 125.208 91.0766 125.208 90.8375 125.343C90.7707 125.381 90.725 125.425 90.6934 125.474C90.616 125.453 90.5351 125.443 90.4472 125.439C90.4332 125.422 90.4191 125.408 90.3945 125.391C90.2538 125.311 90.0288 125.311 89.8882 125.391C89.853 125.412 89.8284 125.432 89.8108 125.46C89.4381 125.318 88.9317 125.339 88.6047 125.526C88.348 125.671 88.2707 125.874 88.3656 126.061C88.1793 126.054 87.9894 126.092 87.8487 126.171C87.5815 126.323 87.5815 126.568 87.8487 126.72H87.8522C87.8452 126.724 87.8417 126.724 87.8347 126.727C87.6272 126.845 87.578 127.017 87.6835 127.162C87.6237 127.176 87.5639 127.197 87.5147 127.228C87.3178 127.338 87.3178 127.521 87.5147 127.635C87.5217 127.639 87.5288 127.639 87.5323 127.642C87.5006 127.653 87.4655 127.663 87.4373 127.677C87.2475 127.784 87.2475 127.96 87.4373 128.067C87.4971 128.101 87.5709 128.122 87.6483 128.132H87.6448C87.4373 128.25 87.4373 128.44 87.6448 128.557C87.7257 128.602 87.8276 128.626 87.9331 128.637C87.803 128.782 87.8417 128.961 88.0527 129.082C88.2039 129.168 88.4043 129.203 88.6012 129.193C88.6399 129.262 88.7032 129.327 88.7981 129.379C88.9599 129.469 89.1708 129.514 89.3818 129.514C89.3502 129.624 89.4064 129.742 89.5576 129.828C89.8073 129.969 90.2152 129.969 90.4648 129.828C90.4929 129.811 90.5211 129.793 90.5422 129.773C90.6969 129.855 90.9114 129.88 91.1013 129.838C91.1259 129.883 91.1646 129.925 91.2243 129.959C91.4318 130.076 91.7694 130.076 91.9803 129.959C92.026 129.931 92.0612 129.9 92.0858 129.869C92.1175 129.918 92.1667 129.962 92.2335 130C92.4902 130.145 92.9086 130.145 93.1688 130C93.2391 129.959 93.2919 129.914 93.32 129.862C93.3833 129.859 93.4431 129.852 93.4993 129.835C93.7068 129.928 94.0057 129.925 94.1956 129.817C94.3503 129.728 94.3854 129.6 94.3081 129.489Z" fill="#117D3A"/>
<path d="M89.3759 128.623C89.3654 128.609 89.3548 128.599 89.3478 128.585C89.2142 128.619 89.0454 128.599 88.9399 128.526C88.8485 128.464 88.8309 128.385 88.8801 128.322C88.8274 128.284 88.7957 128.243 88.7782 128.202C88.5812 128.208 88.3738 128.16 88.2261 128.06C88.0257 127.925 88.0116 127.739 88.1769 127.615C88.1734 127.611 88.1698 127.611 88.1663 127.608C87.7831 127.349 87.7936 126.99 88.1663 126.772C88.1628 126.769 88.1593 126.769 88.1558 126.769C87.8006 126.527 87.8288 126.185 88.2191 126.002C88.3808 125.926 88.5777 125.895 88.7817 125.895C88.7676 125.812 88.8098 125.729 88.9258 125.674C89.07 125.608 89.2704 125.605 89.4392 125.653C89.4638 125.57 89.5306 125.494 89.6502 125.436C89.7416 125.391 89.8541 125.37 89.9666 125.36C89.942 125.27 89.9807 125.18 90.1073 125.122C90.3007 125.032 90.6066 125.056 90.7824 125.177C90.7965 125.187 90.8 125.198 90.8105 125.204C90.9442 125.16 91.0918 125.128 91.243 125.122C91.2606 125.09 91.2923 125.063 91.338 125.042C91.4857 124.973 91.7177 124.99 91.8549 125.084C91.9041 125.118 91.9287 125.156 91.9357 125.191C91.9393 125.191 91.9428 125.187 91.9463 125.184C92.1643 125.084 92.5019 125.108 92.6988 125.242C92.755 125.28 92.7902 125.322 92.8148 125.363C92.8851 125.349 92.9555 125.349 93.0328 125.349C93.0469 125.336 93.0609 125.322 93.082 125.311C93.2086 125.253 93.4055 125.267 93.5216 125.346C93.5497 125.367 93.5708 125.387 93.5849 125.412C93.9189 125.315 94.3584 125.367 94.6327 125.553C94.8437 125.698 94.8964 125.881 94.8015 126.037C94.9632 126.043 95.125 126.088 95.2445 126.168C95.4661 126.32 95.4485 126.534 95.2059 126.644C95.2094 126.648 95.2164 126.651 95.2199 126.655C95.3922 126.772 95.4239 126.927 95.3219 127.045C95.3746 127.062 95.4239 127.083 95.4625 127.11C95.6278 127.221 95.6137 127.38 95.4344 127.466C95.4309 127.47 95.4239 127.47 95.4168 127.473C95.445 127.483 95.4731 127.494 95.4942 127.511C95.6524 127.618 95.6384 127.77 95.4661 127.849C95.4098 127.877 95.3465 127.887 95.2797 127.894H95.2832C95.4555 128.012 95.4414 128.177 95.2516 128.264C95.1777 128.298 95.0863 128.312 94.9949 128.312C95.1004 128.447 95.0547 128.602 94.8577 128.692C94.7206 128.754 94.5413 128.771 94.3725 128.747C94.3338 128.802 94.274 128.858 94.1861 128.896C94.042 128.965 93.8521 128.989 93.6693 128.975C93.6903 129.075 93.6306 129.172 93.4934 129.237C93.2649 129.344 92.9133 129.317 92.7023 129.175C92.6777 129.158 92.6566 129.141 92.639 129.123C92.4983 129.186 92.3085 129.189 92.1467 129.144C92.1221 129.179 92.0869 129.213 92.0307 129.241C91.8408 129.331 91.5454 129.306 91.3731 129.189C91.3345 129.161 91.3063 129.134 91.2888 129.103C91.2571 129.141 91.2114 129.179 91.1481 129.206C90.9125 129.317 90.5468 129.286 90.3358 129.141C90.2761 129.099 90.2339 129.054 90.2128 129.009C90.1565 129.003 90.1073 128.989 90.0581 128.972C89.8717 129.041 89.6115 129.016 89.4533 128.909C89.3197 128.823 89.2986 128.709 89.3759 128.623Z" fill="#12873F"/>
<path d="M93.4924 128.015C93.4994 128.008 93.51 127.998 93.5135 127.991C93.6084 128.022 93.7315 128.018 93.8159 127.973C93.8862 127.935 93.9038 127.877 93.8722 127.828C93.9108 127.804 93.939 127.777 93.953 127.746C94.0972 127.759 94.2519 127.739 94.3609 127.673C94.5156 127.587 94.5367 127.452 94.4242 127.352C94.4277 127.352 94.4277 127.352 94.4312 127.348C94.7231 127.183 94.7407 126.92 94.4805 126.741C94.4805 126.741 94.484 126.737 94.4875 126.737C94.7618 126.582 94.7618 126.33 94.4875 126.178C94.375 126.116 94.2343 126.078 94.0866 126.067C94.1042 126.009 94.0761 125.947 93.9952 125.898C93.8932 125.843 93.7491 125.826 93.626 125.853C93.6155 125.791 93.5698 125.732 93.4854 125.684C93.4186 125.646 93.3412 125.625 93.2603 125.612C93.2849 125.549 93.2603 125.48 93.1724 125.432C93.0353 125.356 92.8138 125.356 92.6766 125.432C92.6661 125.439 92.6626 125.446 92.652 125.453C92.5571 125.411 92.4551 125.38 92.3426 125.366C92.332 125.342 92.3109 125.322 92.2793 125.301C92.1738 125.242 92.005 125.242 91.9031 125.301C91.8679 125.322 91.8468 125.349 91.8362 125.373C91.8327 125.373 91.8292 125.37 91.8292 125.37C91.678 125.284 91.4319 125.284 91.2807 125.37C91.2385 125.394 91.2104 125.422 91.1893 125.453C91.14 125.439 91.0873 125.432 91.031 125.432C91.0205 125.422 91.0134 125.411 90.9959 125.401C90.908 125.349 90.7638 125.349 90.6724 125.401C90.6513 125.415 90.6337 125.429 90.6231 125.442C90.3875 125.353 90.0641 125.366 89.8531 125.484C89.6913 125.574 89.6421 125.708 89.7019 125.826C89.5823 125.822 89.4628 125.846 89.3714 125.895C89.2026 125.991 89.2026 126.147 89.3714 126.244C89.3678 126.244 89.3643 126.247 89.3608 126.25C89.2272 126.326 89.1955 126.437 89.2659 126.527C89.2272 126.537 89.192 126.551 89.1604 126.568C89.0338 126.641 89.0338 126.755 89.1604 126.827C89.1639 126.83 89.1674 126.83 89.1709 126.83C89.1498 126.837 89.1287 126.844 89.1111 126.851C88.9916 126.92 88.9916 127.031 89.1111 127.1C89.1498 127.121 89.1955 127.134 89.2448 127.141H89.2413C89.1076 127.217 89.1076 127.338 89.2413 127.414C89.294 127.442 89.3573 127.459 89.4241 127.466C89.3397 127.559 89.3643 127.673 89.5015 127.749C89.5964 127.804 89.7265 127.825 89.8496 127.818C89.8742 127.863 89.9129 127.904 89.9761 127.939C90.0781 127.998 90.2117 128.025 90.3489 128.025C90.3278 128.098 90.3665 128.17 90.4614 128.225C90.6196 128.315 90.8798 128.315 91.0381 128.225C91.0556 128.215 91.0732 128.201 91.0873 128.191C91.1857 128.246 91.3229 128.26 91.4424 128.232C91.46 128.26 91.4811 128.288 91.5198 128.308C91.6534 128.384 91.8679 128.384 92.0015 128.308C92.0296 128.291 92.0507 128.27 92.0683 128.25C92.0894 128.281 92.1211 128.308 92.1633 128.333C92.3285 128.426 92.5922 128.426 92.7575 128.333C92.8032 128.305 92.8349 128.277 92.856 128.243C92.8946 128.239 92.9333 128.236 92.972 128.225C93.1021 128.284 93.2955 128.284 93.415 128.215C93.517 128.167 93.5416 128.084 93.4924 128.015Z" fill="#138F43"/>
<path d="M90.6644 127.442C90.6574 127.435 90.6539 127.428 90.6503 127.424C90.5835 127.442 90.4991 127.431 90.4464 127.397C90.4007 127.366 90.3937 127.324 90.4147 127.293C90.3901 127.276 90.3726 127.255 90.362 127.231C90.2636 127.234 90.1581 127.21 90.0842 127.159C89.9823 127.089 89.9787 126.996 90.0596 126.934C90.0561 126.934 90.0561 126.934 90.0526 126.931C89.8592 126.799 89.8662 126.62 90.0526 126.513C90.0526 126.513 90.0491 126.513 90.0491 126.509C89.8697 126.389 89.8838 126.216 90.0807 126.123C90.1616 126.085 90.2636 126.067 90.362 126.067C90.355 126.026 90.3761 125.985 90.4358 125.957C90.5097 125.922 90.6081 125.922 90.6925 125.947C90.7031 125.905 90.7382 125.864 90.8015 125.836C90.8473 125.815 90.9035 125.802 90.9598 125.798C90.9457 125.753 90.9668 125.708 91.0301 125.677C91.1285 125.632 91.2797 125.643 91.3712 125.705C91.3782 125.708 91.3817 125.715 91.3852 125.719C91.452 125.694 91.5259 125.681 91.6032 125.677C91.6138 125.663 91.6279 125.646 91.6525 125.636C91.7263 125.601 91.8423 125.612 91.9127 125.657C91.9373 125.674 91.9478 125.691 91.9549 125.712L91.9584 125.708C92.0674 125.657 92.2362 125.67 92.3381 125.739C92.3663 125.757 92.3839 125.781 92.3944 125.802C92.4296 125.795 92.4647 125.795 92.5034 125.795C92.5104 125.788 92.5175 125.781 92.528 125.777C92.5913 125.746 92.6898 125.757 92.7495 125.795C92.7636 125.805 92.7742 125.815 92.7812 125.826C92.95 125.777 93.1715 125.805 93.3086 125.898C93.4141 125.971 93.4422 126.064 93.393 126.14C93.4739 126.143 93.5548 126.168 93.6145 126.206C93.7271 126.281 93.7165 126.389 93.5934 126.447C93.597 126.447 93.597 126.451 93.6005 126.451C93.6884 126.509 93.7024 126.589 93.6497 126.647C93.6778 126.654 93.7024 126.668 93.72 126.682C93.8009 126.737 93.7974 126.817 93.706 126.862C93.7024 126.862 93.6989 126.862 93.6989 126.865C93.713 126.872 93.7271 126.875 93.7376 126.882C93.815 126.938 93.8114 127.013 93.7235 127.051C93.6954 127.065 93.6638 127.072 93.6286 127.072C93.6286 127.072 93.6286 127.072 93.6321 127.072C93.7165 127.131 93.7095 127.214 93.6145 127.259C93.5759 127.276 93.5301 127.283 93.4844 127.283C93.5372 127.352 93.5126 127.428 93.4141 127.473C93.3438 127.504 93.2559 127.514 93.168 127.5C93.1504 127.528 93.1187 127.556 93.073 127.576C92.9992 127.611 92.9043 127.621 92.8128 127.614C92.8234 127.663 92.7917 127.714 92.7249 127.746C92.6089 127.797 92.4331 127.783 92.3276 127.714C92.317 127.704 92.303 127.697 92.2959 127.687C92.2256 127.718 92.1307 127.721 92.0498 127.697C92.0357 127.714 92.0182 127.732 91.99 127.746C91.8951 127.79 91.7474 127.777 91.6595 127.718C91.6419 127.704 91.6279 127.69 91.6173 127.673C91.5997 127.694 91.5786 127.711 91.547 127.725C91.4274 127.78 91.2446 127.766 91.1391 127.69C91.111 127.67 91.0899 127.649 91.0793 127.625C91.0512 127.621 91.0266 127.614 91.002 127.607C90.907 127.642 90.7769 127.628 90.6961 127.576C90.6363 127.542 90.6257 127.487 90.6644 127.442Z" fill="#159947"/>
<path d="M91.1317 126.962C91.1282 126.959 91.1247 126.955 91.1212 126.948C91.0755 126.959 91.0192 126.952 90.9841 126.928C90.9559 126.907 90.9489 126.879 90.963 126.859C90.9454 126.845 90.9348 126.831 90.9278 126.817C90.861 126.817 90.7907 126.803 90.7414 126.769C90.6746 126.724 90.6711 126.662 90.7274 126.617C90.7274 126.617 90.7239 126.617 90.7239 126.614C90.5938 126.527 90.6008 126.406 90.7239 126.334C90.7239 126.334 90.7239 126.334 90.7203 126.334C90.6008 126.251 90.6113 126.137 90.7414 126.075C90.7942 126.051 90.861 126.037 90.9313 126.04C90.9278 126.013 90.9419 125.985 90.9805 125.964C91.0298 125.944 91.0966 125.94 91.1528 125.958C91.1599 125.93 91.1845 125.902 91.2232 125.885C91.2548 125.871 91.29 125.864 91.3287 125.861C91.3216 125.83 91.3357 125.799 91.3779 125.781C91.4447 125.75 91.5467 125.761 91.6064 125.799C91.61 125.802 91.6135 125.806 91.617 125.809C91.6627 125.795 91.7119 125.785 91.7647 125.781C91.7717 125.771 91.7787 125.761 91.7963 125.754C91.8455 125.73 91.9229 125.737 91.9686 125.768C91.9862 125.778 91.9932 125.792 91.9967 125.806H92.0003C92.0741 125.771 92.1866 125.781 92.2534 125.826C92.271 125.84 92.2851 125.854 92.2921 125.868C92.3167 125.864 92.3378 125.864 92.366 125.864C92.3695 125.861 92.3765 125.854 92.3835 125.85C92.4257 125.83 92.4925 125.837 92.5312 125.861C92.5418 125.868 92.5488 125.875 92.5523 125.882C92.6648 125.85 92.8125 125.868 92.9039 125.93C92.9743 125.978 92.9918 126.04 92.9602 126.092C93.0129 126.096 93.0692 126.109 93.1079 126.137C93.1817 126.189 93.1747 126.261 93.0938 126.299C93.0938 126.299 93.0973 126.299 93.0973 126.303C93.1571 126.344 93.1641 126.393 93.129 126.434C93.1466 126.441 93.1641 126.448 93.1782 126.458C93.2345 126.496 93.2274 126.548 93.1677 126.576C93.1677 126.576 93.1641 126.576 93.1606 126.576C93.1712 126.579 93.1782 126.582 93.1888 126.589C93.2415 126.624 93.238 126.676 93.1782 126.703C93.1606 126.714 93.136 126.717 93.1149 126.717C93.1712 126.755 93.1677 126.814 93.1044 126.841C93.0797 126.852 93.0481 126.855 93.0165 126.859C93.0516 126.904 93.034 126.955 92.9707 126.986C92.925 127.007 92.8653 127.014 92.8055 127.004C92.7914 127.024 92.7738 127.042 92.7422 127.056C92.693 127.08 92.6297 127.087 92.5664 127.083C92.5734 127.118 92.5523 127.149 92.5066 127.173C92.4292 127.207 92.3097 127.197 92.2394 127.152C92.2323 127.145 92.2253 127.142 92.2183 127.135C92.1726 127.156 92.1057 127.156 92.053 127.142C92.046 127.156 92.0319 127.166 92.0143 127.173C91.951 127.204 91.8526 127.194 91.7928 127.156C91.7787 127.145 91.7717 127.138 91.7647 127.128C91.7541 127.142 91.7401 127.152 91.719 127.163C91.6416 127.201 91.5185 127.19 91.4447 127.142C91.4236 127.128 91.4095 127.114 91.4025 127.097C91.3849 127.094 91.3673 127.09 91.3498 127.083C91.2865 127.107 91.1986 127.097 91.1458 127.062C91.1142 127.031 91.1036 126.99 91.1317 126.962Z" fill="#16A34C"/>
<defs>
<clipPath id="clip0_422_2313">
<rect width="24" height="24" fill="white" transform="translate(198 34)"/>
</clipPath>
</defs>
</svg>
