<svg width="512" height="125" viewBox="0 0 584 142" fill="none" xmlns="http://www.w3.org/2000/svg">
<rect x="211" width="373" height="110" rx="18" fill="#006DB7"/>
<path d="M155 102L266.5 66.026L234.5 42L155 102Z" fill="#006DB7"/>
<rect x="236.048" y="34.0476" width="41.9048" height="41.9048" rx="20.9524" fill="#34A853"/>
<rect x="236.048" y="34.0476" width="41.9048" height="41.9048" rx="20.9524" stroke="white" stroke-width="2.09524"/>
<g clip-path="url(#clip0_146_12550)">
<path d="M263.483 48.157C263.168 48.09 262.892 47.786 262.78 47.385C262.06 44.803 259.683 43 257 43C254.317 43 251.94 44.803 251.22 47.385C251.108 47.786 250.832 48.09 250.517 48.157C247.221 48.869 244.902 51.837 245.003 55.215C245.115 58.956 248.367 62 252.251 62H256V66C256 66.553 256.448 67 257 67C257.552 67 258 66.553 258 66V62H260.784C265.425 62 268.879 59.146 268.997 55.215C269.099 51.837 266.78 48.869 263.483 48.157ZM266.998 55.154C266.912 58.008 264.357 60 260.784 60H258V58.414L261.707 54.707C262.098 54.316 262.098 53.684 261.707 53.293C261.316 52.902 260.684 52.902 260.293 53.293L258 55.586V52C258 51.447 257.552 51 257 51C256.448 51 256 51.447 256 52V55.586L253.707 53.293C253.316 52.902 252.684 52.902 252.293 53.293C251.902 53.684 251.902 54.316 252.293 54.707L256 58.414V60H252.251C249.437 60 247.082 57.826 247.002 55.154C246.93 52.741 248.585 50.62 250.938 50.112C251.986 49.886 252.833 49.048 253.146 47.922C253.626 46.201 255.21 45 256.999 45C258.788 45 260.372 46.201 260.852 47.922C261.166 49.048 262.012 49.887 263.06 50.112C265.414 50.62 267.07 52.741 266.998 55.154Z" fill="white"/>
</g>
<path d="M296.865 49V30.0909H304.104C305.47 30.0909 306.606 30.3063 307.511 30.7372C308.422 31.1619 309.102 31.7436 309.551 32.4822C310.007 33.2209 310.234 34.058 310.234 34.9936C310.234 35.763 310.087 36.4216 309.791 36.9695C309.496 37.5111 309.099 37.9512 308.6 38.2898C308.102 38.6283 307.545 38.8714 306.929 39.0192V39.2038C307.6 39.2408 308.243 39.447 308.859 39.8224C309.48 40.1918 309.988 40.715 310.382 41.392C310.776 42.0691 310.973 42.8878 310.973 43.848C310.973 44.8267 310.736 45.7069 310.262 46.4886C309.788 47.2642 309.074 47.8767 308.12 48.326C307.166 48.7753 305.966 49 304.519 49H296.865ZM300.29 46.1378H303.974C305.218 46.1378 306.113 45.9008 306.661 45.4268C307.215 44.9467 307.492 44.3312 307.492 43.5803C307.492 43.0201 307.354 42.5154 307.077 42.0661C306.8 41.6106 306.406 41.2536 305.895 40.995C305.384 40.7304 304.775 40.598 304.067 40.598H300.29V46.1378ZM300.29 38.1328H303.679C304.27 38.1328 304.802 38.0251 305.276 37.8097C305.75 37.5881 306.123 37.2772 306.393 36.8771C306.67 36.4709 306.809 35.9908 306.809 35.4368C306.809 34.7043 306.55 34.1011 306.033 33.6271C305.522 33.1532 304.762 32.9162 303.753 32.9162H300.29V38.1328ZM319.991 49.277C318.606 49.277 317.406 48.9723 316.39 48.3629C315.375 47.7536 314.587 46.901 314.027 45.8054C313.473 44.7098 313.196 43.4295 313.196 41.9645C313.196 40.4995 313.473 39.2161 314.027 38.1143C314.587 37.0125 315.375 36.157 316.39 35.5476C317.406 34.9382 318.606 34.6335 319.991 34.6335C321.376 34.6335 322.577 34.9382 323.592 35.5476C324.608 36.157 325.393 37.0125 325.947 38.1143C326.507 39.2161 326.787 40.4995 326.787 41.9645C326.787 43.4295 326.507 44.7098 325.947 45.8054C325.393 46.901 324.608 47.7536 323.592 48.3629C322.577 48.9723 321.376 49.277 319.991 49.277ZM320.01 46.5994C320.761 46.5994 321.389 46.3932 321.893 45.9808C322.398 45.5623 322.773 45.0021 323.02 44.3004C323.272 43.5987 323.398 42.817 323.398 41.9553C323.398 41.0874 323.272 40.3026 323.02 39.6009C322.773 38.893 322.398 38.3298 321.893 37.9112C321.389 37.4927 320.761 37.2834 320.01 37.2834C319.24 37.2834 318.6 37.4927 318.089 37.9112C317.585 38.3298 317.206 38.893 316.954 39.6009C316.707 40.3026 316.584 41.0874 316.584 41.9553C316.584 42.817 316.707 43.5987 316.954 44.3004C317.206 45.0021 317.585 45.5623 318.089 45.9808C318.6 46.3932 319.24 46.5994 320.01 46.5994ZM338.663 43.0355V34.8182H342.005V49H338.764V46.4794H338.616C338.296 47.2734 337.77 47.9228 337.038 48.4276C336.311 48.9323 335.416 49.1847 334.351 49.1847C333.421 49.1847 332.6 48.9785 331.886 48.5661C331.178 48.1475 330.624 47.5412 330.224 46.7472C329.824 45.947 329.624 44.9806 329.624 43.848V34.8182H332.966V43.331C332.966 44.2296 333.212 44.9437 333.705 45.473C334.197 46.0024 334.843 46.267 335.643 46.267C336.136 46.267 336.613 46.147 337.075 45.907C337.536 45.6669 337.915 45.3099 338.21 44.8359C338.512 44.3558 338.663 43.7557 338.663 43.0355ZM348.784 30.0909V49H345.442V30.0909H348.784ZM358.5 49.277C357.078 49.277 355.85 48.9815 354.816 48.3906C353.788 47.7936 352.997 46.9503 352.443 45.8608C351.889 44.7652 351.612 43.4756 351.612 41.9922C351.612 40.5334 351.889 39.2531 352.443 38.1513C353.003 37.0433 353.785 36.1816 354.788 35.5661C355.791 34.9444 356.97 34.6335 358.324 34.6335C359.198 34.6335 360.023 34.7751 360.799 35.0582C361.58 35.3352 362.27 35.7661 362.867 36.3509C363.47 36.9356 363.944 37.6804 364.289 38.5852C364.633 39.4839 364.806 40.5549 364.806 41.7983V42.8232H353.181V40.5703H361.602C361.596 39.9302 361.457 39.3608 361.186 38.8622C360.916 38.3575 360.537 37.9605 360.051 37.6712C359.571 37.3819 359.011 37.2372 358.37 37.2372C357.687 37.2372 357.087 37.4034 356.57 37.7358C356.053 38.062 355.65 38.4929 355.36 39.0284C355.077 39.5578 354.933 40.1394 354.926 40.7734V42.7401C354.926 43.5649 355.077 44.2727 355.379 44.8636C355.681 45.4484 356.102 45.8977 356.644 46.2116C357.185 46.5194 357.819 46.6733 358.546 46.6733C359.032 46.6733 359.472 46.6056 359.866 46.4702C360.26 46.3286 360.602 46.1224 360.891 45.8516C361.18 45.5807 361.399 45.2453 361.547 44.8452L364.667 45.196C364.47 46.0208 364.095 46.741 363.541 47.3565C362.993 47.9659 362.291 48.4399 361.436 48.7784C360.58 49.1108 359.601 49.277 358.5 49.277ZM379.895 34.8182L374.844 49H371.151L366.101 34.8182H369.665L372.924 45.353H373.072L376.34 34.8182H379.895ZM385.882 49.2862C384.984 49.2862 384.174 49.1262 383.454 48.8061C382.74 48.4799 382.174 47.9998 381.755 47.3658C381.343 46.7318 381.137 45.95 381.137 45.0206C381.137 44.2204 381.284 43.5587 381.58 43.0355C381.875 42.5123 382.278 42.0938 382.789 41.7798C383.3 41.4659 383.876 41.2289 384.516 41.0689C385.162 40.9027 385.83 40.7827 386.519 40.7088C387.35 40.6226 388.024 40.5457 388.541 40.478C389.058 40.4041 389.434 40.2933 389.668 40.1456C389.908 39.9917 390.028 39.7547 390.028 39.4347V39.3793C390.028 38.6837 389.822 38.1451 389.409 37.7635C388.997 37.3819 388.403 37.1911 387.627 37.1911C386.809 37.1911 386.159 37.3696 385.679 37.7266C385.205 38.0836 384.885 38.5052 384.719 38.9915L381.598 38.5483C381.844 37.6866 382.251 36.9664 382.817 36.3878C383.383 35.803 384.076 35.366 384.894 35.0767C385.713 34.7812 386.618 34.6335 387.609 34.6335C388.292 34.6335 388.972 34.7135 389.649 34.8736C390.326 35.0336 390.945 35.2983 391.505 35.6676C392.065 36.0308 392.515 36.5263 392.853 37.1541C393.198 37.782 393.37 38.5668 393.37 39.5085V49H390.157V47.0518H390.046C389.843 47.4458 389.557 47.8151 389.188 48.1598C388.825 48.4983 388.366 48.7723 387.812 48.9815C387.264 49.1847 386.621 49.2862 385.882 49.2862ZM386.75 46.8303C387.421 46.8303 388.003 46.6979 388.495 46.4332C388.988 46.1624 389.366 45.8054 389.631 45.3622C389.902 44.919 390.037 44.4358 390.037 43.9126V42.2415C389.932 42.3277 389.754 42.4077 389.502 42.4815C389.255 42.5554 388.978 42.62 388.671 42.6754C388.363 42.7308 388.058 42.7801 387.757 42.8232C387.455 42.8662 387.193 42.9032 386.972 42.9339C386.473 43.0017 386.027 43.1125 385.633 43.2663C385.239 43.4202 384.928 43.6357 384.7 43.9126C384.473 44.1835 384.359 44.5343 384.359 44.9652C384.359 45.5807 384.584 46.0455 385.033 46.3594C385.482 46.6733 386.055 46.8303 386.75 46.8303ZM396.731 49V34.8182H399.972V37.1818H400.119C400.378 36.3632 400.821 35.7322 401.449 35.2891C402.083 34.8397 402.806 34.6151 403.619 34.6151C403.803 34.6151 404.01 34.6243 404.237 34.6428C404.471 34.6551 404.665 34.6766 404.819 34.7074V37.782C404.677 37.7327 404.453 37.6896 404.145 37.6527C403.843 37.6096 403.551 37.5881 403.268 37.5881C402.659 37.5881 402.111 37.7204 401.624 37.9851C401.144 38.2436 400.766 38.6037 400.489 39.0653C400.212 39.527 400.073 40.0594 400.073 40.6626V49H396.731ZM411.718 49.2493C410.604 49.2493 409.607 48.9631 408.727 48.3906C407.847 47.8182 407.151 46.9872 406.64 45.8977C406.129 44.8082 405.874 43.4848 405.874 41.9276C405.874 40.3518 406.132 39.0223 406.65 37.9389C407.173 36.8494 407.877 36.0277 408.764 35.4737C409.65 34.9136 410.638 34.6335 411.728 34.6335C412.559 34.6335 413.242 34.7751 413.777 35.0582C414.313 35.3352 414.738 35.6707 415.051 36.0646C415.365 36.4524 415.609 36.8187 415.781 37.1634H415.919V30.0909H419.271V49H415.984V46.7656H415.781C415.609 47.1103 415.359 47.4766 415.033 47.8643C414.707 48.246 414.276 48.5722 413.74 48.843C413.205 49.1139 412.531 49.2493 411.718 49.2493ZM412.651 46.5071C413.359 46.5071 413.962 46.3163 414.461 45.9347C414.959 45.5469 415.338 45.0083 415.596 44.3189C415.855 43.6295 415.984 42.8262 415.984 41.9091C415.984 40.992 415.855 40.1948 415.596 39.5178C415.344 38.8407 414.968 38.3144 414.47 37.9389C413.977 37.5634 413.371 37.3757 412.651 37.3757C411.906 37.3757 411.284 37.5696 410.786 37.9574C410.287 38.3452 409.912 38.8807 409.659 39.5639C409.407 40.2472 409.281 41.0289 409.281 41.9091C409.281 42.7955 409.407 43.5864 409.659 44.282C409.918 44.9714 410.297 45.5161 410.795 45.9162C411.3 46.3101 411.918 46.5071 412.651 46.5071ZM434.545 49.2493C433.43 49.2493 432.433 48.9631 431.553 48.3906C430.673 47.8182 429.977 46.9872 429.466 45.8977C428.956 44.8082 428.7 43.4848 428.7 41.9276C428.7 40.3518 428.959 39.0223 429.476 37.9389C429.999 36.8494 430.704 36.0277 431.59 35.4737C432.476 34.9136 433.464 34.6335 434.554 34.6335C435.385 34.6335 436.068 34.7751 436.604 35.0582C437.139 35.3352 437.564 35.6707 437.878 36.0646C438.192 36.4524 438.435 36.8187 438.607 37.1634H438.746V30.0909H442.097V49H438.81V46.7656H438.607C438.435 47.1103 438.185 47.4766 437.859 47.8643C437.533 48.246 437.102 48.5722 436.567 48.843C436.031 49.1139 435.357 49.2493 434.545 49.2493ZM435.477 46.5071C436.185 46.5071 436.788 46.3163 437.287 45.9347C437.785 45.5469 438.164 45.0083 438.422 44.3189C438.681 43.6295 438.81 42.8262 438.81 41.9091C438.81 40.992 438.681 40.1948 438.422 39.5178C438.17 38.8407 437.795 38.3144 437.296 37.9389C436.804 37.5634 436.197 37.3757 435.477 37.3757C434.732 37.3757 434.111 37.5696 433.612 37.9574C433.113 38.3452 432.738 38.8807 432.486 39.5639C432.233 40.2472 432.107 41.0289 432.107 41.9091C432.107 42.7955 432.233 43.5864 432.486 44.282C432.744 44.9714 433.123 45.5161 433.621 45.9162C434.126 46.3101 434.745 46.5071 435.477 46.5071ZM451.937 49.277C450.515 49.277 449.287 48.9815 448.253 48.3906C447.225 47.7936 446.434 46.9503 445.88 45.8608C445.326 44.7652 445.049 43.4756 445.049 41.9922C445.049 40.5334 445.326 39.2531 445.88 38.1513C446.44 37.0433 447.222 36.1816 448.225 35.5661C449.229 34.9444 450.408 34.6335 451.762 34.6335C452.636 34.6335 453.461 34.7751 454.236 35.0582C455.018 35.3352 455.707 35.7661 456.304 36.3509C456.908 36.9356 457.382 37.6804 457.726 38.5852C458.071 39.4839 458.243 40.5549 458.243 41.7983V42.8232H446.619V40.5703H455.039C455.033 39.9302 454.895 39.3608 454.624 38.8622C454.353 38.3575 453.975 37.9605 453.488 37.6712C453.008 37.3819 452.448 37.2372 451.808 37.2372C451.125 37.2372 450.525 37.4034 450.007 37.7358C449.49 38.062 449.087 38.4929 448.798 39.0284C448.515 39.5578 448.37 40.1394 448.364 40.7734V42.7401C448.364 43.5649 448.515 44.2727 448.816 44.8636C449.118 45.4484 449.54 45.8977 450.081 46.2116C450.623 46.5194 451.257 46.6733 451.983 46.6733C452.47 46.6733 452.91 46.6056 453.304 46.4702C453.698 46.3286 454.039 46.1224 454.328 45.8516C454.618 45.5807 454.836 45.2453 454.984 44.8452L458.105 45.196C457.908 46.0208 457.532 46.741 456.978 47.3565C456.431 47.9659 455.729 48.4399 454.873 48.7784C454.018 49.1108 453.039 49.277 451.937 49.277ZM470.096 49H466.44L473.097 30.0909H477.325L483.992 49H480.335L475.285 33.9688H475.137L470.096 49ZM470.216 41.5859H480.188V44.3374H470.216V41.5859ZM497.315 38.5668L494.268 38.8991C494.182 38.5914 494.031 38.3021 493.816 38.0312C493.606 37.7604 493.323 37.5419 492.966 37.3757C492.609 37.2095 492.172 37.1264 491.655 37.1264C490.959 37.1264 490.375 37.2772 489.901 37.5788C489.433 37.8804 489.202 38.2713 489.208 38.7514C489.202 39.1638 489.353 39.4993 489.661 39.7578C489.975 40.0163 490.492 40.2287 491.212 40.3949L493.631 40.9119C494.973 41.2012 495.97 41.6598 496.622 42.2876C497.281 42.9155 497.613 43.7372 497.619 44.7528C497.613 45.6454 497.352 46.4332 496.835 47.1165C496.324 47.7936 495.613 48.3229 494.702 48.7045C493.791 49.0862 492.744 49.277 491.563 49.277C489.827 49.277 488.43 48.9138 487.371 48.1875C486.312 47.455 485.681 46.4363 485.478 45.1314L488.737 44.8175C488.885 45.4576 489.199 45.9408 489.679 46.267C490.159 46.5933 490.784 46.7564 491.553 46.7564C492.347 46.7564 492.985 46.5933 493.465 46.267C493.951 45.9408 494.194 45.5376 494.194 45.0575C494.194 44.6513 494.037 44.3158 493.723 44.0511C493.415 43.7865 492.935 43.5833 492.283 43.4418L489.864 42.9339C488.503 42.6508 487.497 42.1738 486.845 41.5028C486.192 40.8258 485.869 39.9702 485.875 38.9361C485.869 38.062 486.106 37.3049 486.586 36.6648C487.072 36.0185 487.746 35.5199 488.608 35.169C489.476 34.812 490.476 34.6335 491.609 34.6335C493.271 34.6335 494.579 34.9875 495.533 35.6953C496.493 36.4032 497.087 37.3603 497.315 38.5668ZM500.376 49V34.8182H503.718V49H500.376ZM502.056 32.8054C501.527 32.8054 501.071 32.63 500.689 32.2791C500.308 31.9221 500.117 31.4943 500.117 30.9957C500.117 30.491 500.308 30.0632 500.689 29.7124C501.071 29.3553 501.527 29.1768 502.056 29.1768C502.591 29.1768 503.047 29.3553 503.422 29.7124C503.804 30.0632 503.995 30.491 503.995 30.9957C503.995 31.4943 503.804 31.9221 503.422 32.2791C503.047 32.63 502.591 32.8054 502.056 32.8054ZM511.236 49.2862C510.337 49.2862 509.528 49.1262 508.808 48.8061C508.094 48.4799 507.527 47.9998 507.109 47.3658C506.696 46.7318 506.49 45.95 506.49 45.0206C506.49 44.2204 506.638 43.5587 506.933 43.0355C507.229 42.5123 507.632 42.0938 508.143 41.7798C508.654 41.4659 509.229 41.2289 509.869 41.0689C510.516 40.9027 511.183 40.7827 511.873 40.7088C512.704 40.6226 513.378 40.5457 513.895 40.478C514.412 40.4041 514.787 40.2933 515.021 40.1456C515.261 39.9917 515.381 39.7547 515.381 39.4347V39.3793C515.381 38.6837 515.175 38.1451 514.763 37.7635C514.35 37.3819 513.756 37.1911 512.981 37.1911C512.162 37.1911 511.513 37.3696 511.033 37.7266C510.559 38.0836 510.239 38.5052 510.072 38.9915L506.952 38.5483C507.198 37.6866 507.604 36.9664 508.17 36.3878C508.737 35.803 509.429 35.366 510.248 35.0767C511.067 34.7812 511.971 34.6335 512.962 34.6335C513.646 34.6335 514.326 34.7135 515.003 34.8736C515.68 35.0336 516.299 35.2983 516.859 35.6676C517.419 36.0308 517.868 36.5263 518.207 37.1541C518.551 37.782 518.724 38.5668 518.724 39.5085V49H515.511V47.0518H515.4C515.197 47.4458 514.911 47.8151 514.541 48.1598C514.178 48.4983 513.719 48.7723 513.165 48.9815C512.618 49.1847 511.974 49.2862 511.236 49.2862ZM512.104 46.8303C512.775 46.8303 513.356 46.6979 513.849 46.4332C514.341 46.1624 514.72 45.8054 514.984 45.3622C515.255 44.919 515.391 44.4358 515.391 43.9126V42.2415C515.286 42.3277 515.107 42.4077 514.855 42.4815C514.609 42.5554 514.332 42.62 514.024 42.6754C513.716 42.7308 513.412 42.7801 513.11 42.8232C512.808 42.8662 512.547 42.9032 512.325 42.9339C511.827 43.0017 511.38 43.1125 510.987 43.2663C510.593 43.4202 510.282 43.6357 510.054 43.9126C509.826 44.1835 509.712 44.5343 509.712 44.9652C509.712 45.5807 509.937 46.0455 510.386 46.3594C510.836 46.6733 511.408 46.8303 512.104 46.8303ZM532.615 49.2862C531.716 49.2862 530.907 49.1262 530.186 48.8061C529.472 48.4799 528.906 47.9998 528.488 47.3658C528.075 46.7318 527.869 45.95 527.869 45.0206C527.869 44.2204 528.017 43.5587 528.312 43.0355C528.608 42.5123 529.011 42.0938 529.522 41.7798C530.033 41.4659 530.608 41.2289 531.248 41.0689C531.895 40.9027 532.562 40.7827 533.252 40.7088C534.083 40.6226 534.757 40.5457 535.274 40.478C535.791 40.4041 536.166 40.2933 536.4 40.1456C536.64 39.9917 536.76 39.7547 536.76 39.4347V39.3793C536.76 38.6837 536.554 38.1451 536.142 37.7635C535.729 37.3819 535.135 37.1911 534.36 37.1911C533.541 37.1911 532.892 37.3696 532.412 37.7266C531.938 38.0836 531.618 38.5052 531.451 38.9915L528.331 38.5483C528.577 37.6866 528.983 36.9664 529.549 36.3878C530.116 35.803 530.808 35.366 531.627 35.0767C532.445 34.7812 533.35 34.6335 534.341 34.6335C535.025 34.6335 535.705 34.7135 536.382 34.8736C537.059 35.0336 537.677 35.2983 538.238 35.6676C538.798 36.0308 539.247 36.5263 539.586 37.1541C539.93 37.782 540.103 38.5668 540.103 39.5085V49H536.89V47.0518H536.779C536.576 47.4458 536.289 47.8151 535.92 48.1598C535.557 48.4983 535.098 48.7723 534.544 48.9815C533.997 49.1847 533.353 49.2862 532.615 49.2862ZM533.483 46.8303C534.154 46.8303 534.735 46.6979 535.228 46.4332C535.72 46.1624 536.099 45.8054 536.363 45.3622C536.634 44.919 536.77 44.4358 536.77 43.9126V42.2415C536.665 42.3277 536.486 42.4077 536.234 42.4815C535.988 42.5554 535.711 42.62 535.403 42.6754C535.095 42.7308 534.791 42.7801 534.489 42.8232C534.187 42.8662 533.926 42.9032 533.704 42.9339C533.206 43.0017 532.759 43.1125 532.365 43.2663C531.971 43.4202 531.661 43.6357 531.433 43.9126C531.205 44.1835 531.091 44.5343 531.091 44.9652C531.091 45.5807 531.316 46.0455 531.765 46.3594C532.215 46.6733 532.787 46.8303 533.483 46.8303ZM304.371 61.0909V80H300.946V64.424H300.835L296.413 67.2493V64.1101L301.112 61.0909H304.371ZM316.162 80.3601C314.642 80.3601 313.337 79.9754 312.247 79.206C311.164 78.4304 310.33 77.3132 309.745 75.8544C309.166 74.3894 308.877 72.6259 308.877 70.5639C308.883 68.5019 309.176 66.7476 309.754 65.3011C310.339 63.8485 311.173 62.7405 312.256 61.9773C313.346 61.214 314.648 60.8324 316.162 60.8324C317.676 60.8324 318.978 61.214 320.067 61.9773C321.157 62.7405 321.991 63.8485 322.57 65.3011C323.154 66.7538 323.447 68.508 323.447 70.5639C323.447 72.6321 323.154 74.3987 322.57 75.8636C321.991 77.3224 321.157 78.4366 320.067 79.206C318.984 79.9754 317.682 80.3601 316.162 80.3601ZM316.162 77.4702C317.344 77.4702 318.276 76.8885 318.96 75.7251C319.649 74.5556 319.994 72.8352 319.994 70.5639C319.994 69.062 319.837 67.8002 319.523 66.7784C319.209 65.7566 318.766 64.9872 318.193 64.4702C317.621 63.947 316.944 63.6854 316.162 63.6854C314.986 63.6854 314.057 64.2701 313.374 65.4396C312.69 66.603 312.346 68.3111 312.339 70.5639C312.333 72.072 312.484 73.34 312.792 74.3679C313.106 75.3958 313.549 76.1714 314.121 76.6946C314.694 77.2116 315.374 77.4702 316.162 77.4702ZM333.001 80V65.8182H336.195V68.228H336.361C336.657 67.4155 337.146 66.7815 337.829 66.326C338.513 65.8643 339.328 65.6335 340.276 65.6335C341.236 65.6335 342.046 65.8674 342.704 66.3352C343.369 66.7969 343.837 67.4278 344.108 68.228H344.256C344.569 67.4401 345.099 66.8123 345.844 66.3445C346.595 65.8705 347.484 65.6335 348.512 65.6335C349.817 65.6335 350.882 66.0459 351.706 66.8707C352.531 67.6955 352.944 68.8989 352.944 70.4808V80H349.592V70.9979C349.592 70.1177 349.358 69.4744 348.89 69.0682C348.423 68.6558 347.85 68.4496 347.173 68.4496C346.367 68.4496 345.736 68.7019 345.28 69.2067C344.831 69.7053 344.606 70.3546 344.606 71.1548V80H341.329V70.8594C341.329 70.1269 341.107 69.5421 340.664 69.1051C340.227 68.6681 339.654 68.4496 338.947 68.4496C338.466 68.4496 338.029 68.5727 337.635 68.8189C337.242 69.0589 336.928 69.4006 336.694 69.8438C336.46 70.2808 336.343 70.7917 336.343 71.3764V80H333.001ZM356.335 80V65.8182H359.677V80H356.335ZM358.015 63.8054C357.486 63.8054 357.03 63.63 356.648 63.2791C356.267 62.9221 356.076 62.4943 356.076 61.9957C356.076 61.491 356.267 61.0632 356.648 60.7124C357.03 60.3553 357.486 60.1768 358.015 60.1768C358.55 60.1768 359.006 60.3553 359.381 60.7124C359.763 61.0632 359.954 61.491 359.954 61.9957C359.954 62.4943 359.763 62.9221 359.381 63.2791C359.006 63.63 358.55 63.8054 358.015 63.8054ZM366.456 71.6903V80H363.114V65.8182H366.308V68.228H366.475C366.801 67.4339 367.321 66.803 368.035 66.3352C368.755 65.8674 369.645 65.6335 370.703 65.6335C371.682 65.6335 372.535 65.8428 373.261 66.2614C373.993 66.6799 374.56 67.2862 374.96 68.0803C375.366 68.8743 375.566 69.8376 375.56 70.9702V80H372.218V71.4872C372.218 70.5393 371.971 69.7976 371.479 69.2621C370.993 68.7266 370.319 68.4588 369.457 68.4588C368.872 68.4588 368.352 68.5881 367.896 68.8466C367.447 69.099 367.093 69.4652 366.835 69.9453C366.582 70.4254 366.456 71.0071 366.456 71.6903ZM387.997 74.0355V65.8182H391.339V80H388.098V77.4794H387.95C387.63 78.2734 387.104 78.9228 386.372 79.4276C385.645 79.9323 384.75 80.1847 383.685 80.1847C382.755 80.1847 381.934 79.9785 381.22 79.5661C380.512 79.1475 379.958 78.5412 379.558 77.7472C379.158 76.947 378.958 75.9806 378.958 74.848V65.8182H382.3V74.331C382.3 75.2296 382.546 75.9437 383.039 76.473C383.531 77.0024 384.177 77.267 384.977 77.267C385.47 77.267 385.947 77.147 386.409 76.907C386.87 76.6669 387.249 76.3099 387.544 75.8359C387.846 75.3558 387.997 74.7557 387.997 74.0355ZM401.858 65.8182V68.4034H393.705V65.8182H401.858ZM395.718 62.4205H399.06V75.7344C399.06 76.1837 399.128 76.5284 399.263 76.7685C399.405 77.0024 399.589 77.1624 399.817 77.2486C400.045 77.3348 400.297 77.3778 400.574 77.3778C400.783 77.3778 400.974 77.3625 401.147 77.3317C401.325 77.3009 401.461 77.2732 401.553 77.2486L402.116 79.8615C401.938 79.9231 401.682 79.9908 401.35 80.0646C401.024 80.1385 400.623 80.1816 400.15 80.1939C399.312 80.2185 398.558 80.0923 397.887 79.8153C397.217 79.5322 396.684 79.0952 396.29 78.5043C395.902 77.9134 395.712 77.1747 395.718 76.2884V62.4205ZM410.687 80.277C409.302 80.277 408.101 79.9723 407.086 79.3629C406.07 78.7536 405.282 77.901 404.722 76.8054C404.168 75.7098 403.891 74.4295 403.891 72.9645C403.891 71.4995 404.168 70.2161 404.722 69.1143C405.282 68.0125 406.07 67.157 407.086 66.5476C408.101 65.9382 409.302 65.6335 410.687 65.6335C412.072 65.6335 413.272 65.9382 414.287 66.5476C415.303 67.157 416.088 68.0125 416.642 69.1143C417.202 70.2161 417.482 71.4995 417.482 72.9645C417.482 74.4295 417.202 75.7098 416.642 76.8054C416.088 77.901 415.303 78.7536 414.287 79.3629C413.272 79.9723 412.072 80.277 410.687 80.277ZM410.705 77.5994C411.456 77.5994 412.084 77.3932 412.589 76.9808C413.093 76.5623 413.469 76.0021 413.715 75.3004C413.967 74.5987 414.094 73.817 414.094 72.9553C414.094 72.0874 413.967 71.3026 413.715 70.6009C413.469 69.893 413.093 69.3298 412.589 68.9112C412.084 68.4927 411.456 68.2834 410.705 68.2834C409.936 68.2834 409.296 68.4927 408.785 68.9112C408.28 69.3298 407.901 69.893 407.649 70.6009C407.403 71.3026 407.28 72.0874 407.28 72.9553C407.28 73.817 407.403 74.5987 407.649 75.3004C407.901 76.0021 408.28 76.5623 408.785 76.9808C409.296 77.3932 409.936 77.5994 410.705 77.5994ZM431.528 69.5668L428.481 69.8991C428.395 69.5914 428.244 69.3021 428.028 69.0312C427.819 68.7604 427.536 68.5419 427.179 68.3757C426.822 68.2095 426.385 68.1264 425.868 68.1264C425.172 68.1264 424.588 68.2772 424.114 68.5788C423.646 68.8804 423.415 69.2713 423.421 69.7514C423.415 70.1638 423.566 70.4993 423.874 70.7578C424.188 71.0163 424.705 71.2287 425.425 71.3949L427.844 71.9119C429.186 72.2012 430.183 72.6598 430.835 73.2876C431.494 73.9155 431.826 74.7372 431.832 75.7528C431.826 76.6454 431.565 77.4332 431.048 78.1165C430.537 78.7936 429.826 79.3229 428.915 79.7045C428.004 80.0862 426.957 80.277 425.776 80.277C424.04 80.277 422.643 79.9138 421.584 79.1875C420.525 78.455 419.894 77.4363 419.691 76.1314L422.95 75.8175C423.098 76.4576 423.412 76.9408 423.892 77.267C424.372 77.5933 424.997 77.7564 425.766 77.7564C426.56 77.7564 427.197 77.5933 427.678 77.267C428.164 76.9408 428.407 76.5376 428.407 76.0575C428.407 75.6513 428.25 75.3158 427.936 75.0511C427.628 74.7865 427.148 74.5833 426.496 74.4418L424.077 73.9339C422.716 73.6508 421.71 73.1738 421.058 72.5028C420.405 71.8258 420.082 70.9702 420.088 69.9361C420.082 69.062 420.319 68.3049 420.799 67.6648C421.285 67.0185 421.959 66.5199 422.821 66.169C423.689 65.812 424.689 65.6335 425.822 65.6335C427.484 65.6335 428.792 65.9875 429.746 66.6953C430.706 67.4032 431.3 68.3603 431.528 69.5668Z" fill="white"/>
<defs>
<clipPath id="clip0_146_12550">
<rect width="24" height="24" fill="white" transform="translate(245 43)"/>
</clipPath>
</defs>
</svg>
