<svg width="512" height="150" viewBox="0 0 543 159" fill="none" xmlns="http://www.w3.org/2000/svg">
<rect x="147" width="396" height="92" rx="18" fill="#006DB7"/>
<path d="M91 102L202.5 66.026L170.5 42L91 102Z" fill="#006DB7"/>
<rect x="172.048" y="25.0476" width="41.9048" height="41.9048" rx="20.9524" fill="#D01111"/>
<rect x="172.048" y="25.0476" width="41.9048" height="41.9048" rx="20.9524" stroke="white" stroke-width="2.09524"/>
<path d="M202.251 57.0037C202.258 57.1588 202.138 57.2901 201.983 57.2971C201.979 57.2971 201.974 57.2976 201.97 57.2976C201.821 57.2976 201.696 57.1794 201.689 57.0285L200.724 34.9973C200.717 34.8421 200.838 34.7108 200.993 34.7038C201.148 34.6973 201.279 34.8173 201.286 34.9724L202.251 57.0037ZM199.491 34.7033C199.336 34.7094 199.215 34.8398 199.221 34.9949L200.062 57.0262C200.068 57.1776 200.193 57.2966 200.343 57.2966H200.354C200.509 57.2905 200.63 57.1602 200.624 57.0051L199.783 34.9738C199.777 34.8187 199.648 34.6973 199.491 34.7033ZM195.661 37.3485C195.506 37.3485 195.38 37.4746 195.38 37.6298V39.3027C195.38 39.4579 195.506 39.584 195.661 39.584C195.816 39.584 195.943 39.4579 195.943 39.3027V37.6298C195.943 37.4746 195.816 37.3485 195.661 37.3485ZM195.661 41.1154C195.506 41.1154 195.38 41.2415 195.38 41.3966V43.0701C195.38 43.2252 195.506 43.3513 195.661 43.3513C195.816 43.3513 195.943 43.2252 195.943 43.0701V41.3966C195.943 41.2415 195.816 41.1154 195.661 41.1154ZM195.661 44.8823C195.506 44.8823 195.38 45.0083 195.38 45.1635V46.8369C195.38 46.9921 195.506 47.1182 195.661 47.1182C195.816 47.1182 195.943 46.9921 195.943 46.8369V45.1635C195.943 45.0083 195.816 44.8823 195.661 44.8823ZM195.661 48.6491C195.506 48.6491 195.38 48.7752 195.38 48.9304V50.6033C195.38 50.7585 195.506 50.8846 195.661 50.8846C195.816 50.8846 195.943 50.7585 195.943 50.6033V48.9304C195.943 48.7752 195.816 48.6491 195.661 48.6491ZM195.661 52.4165C195.506 52.4165 195.38 52.5426 195.38 52.6977V54.3707C195.38 54.5258 195.506 54.6519 195.661 54.6519C195.816 54.6519 195.943 54.5258 195.943 54.3707V52.6977C195.943 52.5421 195.816 52.4165 195.661 52.4165ZM192.328 48.6651C192.473 48.9163 192.473 49.2163 192.328 49.4676C192.184 49.7188 191.924 49.8688 191.634 49.8688H191.533L191.26 57.0271C191.254 57.1785 191.129 57.2976 190.979 57.2976C190.975 57.2976 190.971 57.2976 190.968 57.2976C190.813 57.2915 190.692 57.1612 190.698 57.006L190.971 49.8693H189.947L189.634 57.029C189.627 57.1799 189.502 57.298 189.353 57.298C189.349 57.298 189.344 57.298 189.34 57.2976C189.185 57.291 189.065 57.1593 189.072 57.0041L189.384 49.8693H184.553C184.263 49.8693 184.003 49.7193 183.859 49.468C183.714 49.2168 183.714 48.9173 183.859 48.666L187.399 42.5343C187.544 42.283 187.804 42.133 188.094 42.133C188.384 42.133 188.644 42.283 188.788 42.5343L189.641 44.0104L190.037 34.9733C190.043 34.8182 190.174 34.6977 190.33 34.7048C190.485 34.7113 190.606 34.843 190.599 34.9982L190.164 44.9169L191.098 46.5341L191.54 34.9752C191.545 34.8238 191.67 34.7048 191.82 34.7048H191.831C191.986 34.7108 192.107 34.8412 192.102 34.9963L191.626 47.4482L192.328 48.6651ZM191.841 48.9463L188.301 42.8146C188.256 42.7363 188.184 42.6946 188.093 42.6946C188.003 42.6946 187.931 42.7358 187.886 42.8146L184.346 48.9463C184.3 49.0246 184.3 49.1076 184.346 49.1858C184.391 49.2641 184.463 49.3058 184.553 49.3058H191.634C191.724 49.3058 191.796 49.2646 191.841 49.1858C191.886 49.1076 191.886 49.0246 191.841 48.9463ZM188.627 44.4299C188.76 44.5705 188.828 44.7515 188.818 44.9394L188.706 46.9766C188.688 47.3019 188.431 47.5382 188.094 47.5382C187.757 47.5382 187.499 47.3019 187.482 46.9766L187.37 44.9394C187.36 44.751 187.427 44.5701 187.56 44.4299C187.699 44.2837 187.893 44.1998 188.094 44.1998C188.295 44.1998 188.489 44.2841 188.627 44.4299ZM188.256 44.909C188.258 44.8673 188.237 44.8358 188.218 44.8166C188.186 44.7824 188.139 44.7623 188.093 44.7623C188.047 44.7623 188 44.7824 187.968 44.8166C187.95 44.8358 187.929 44.8673 187.931 44.909L188.043 46.9462C188.043 46.956 188.044 46.9762 188.093 46.9762C188.143 46.9762 188.143 46.956 188.144 46.9462L188.256 44.909ZM188.772 48.4799C188.772 48.8544 188.467 49.1587 188.093 49.1587C187.719 49.1587 187.415 48.854 187.415 48.4799C187.415 48.1058 187.719 47.8012 188.093 47.8012C188.467 47.8012 188.772 48.1058 188.772 48.4799ZM188.21 48.4799C188.21 48.4157 188.158 48.3637 188.093 48.3637C188.029 48.3637 187.977 48.4157 187.977 48.4799C187.977 48.5441 188.029 48.5962 188.093 48.5962C188.158 48.5962 188.21 48.5441 188.21 48.4799Z" fill="white"/>
<path d="M239.273 55.5H232.865V36.5909H239.402C241.279 36.5909 242.892 36.9695 244.24 37.7266C245.594 38.4775 246.634 39.5578 247.361 40.9673C248.087 42.3769 248.45 44.0634 248.45 46.027C248.45 47.9967 248.084 49.6894 247.352 51.1051C246.625 52.5208 245.576 53.6072 244.203 54.3643C242.837 55.1214 241.193 55.5 239.273 55.5ZM236.29 52.5362H239.107C240.424 52.5362 241.522 52.2962 242.403 51.8161C243.283 51.3298 243.945 50.6065 244.388 49.6463C244.831 48.6799 245.053 47.4735 245.053 46.027C245.053 44.5805 244.831 43.3802 244.388 42.4261C243.945 41.4659 243.289 40.7488 242.421 40.2749C241.559 39.7947 240.488 39.5547 239.208 39.5547H236.29V52.5362ZM257.836 55.777C256.414 55.777 255.186 55.4815 254.152 54.8906C253.124 54.2936 252.333 53.4503 251.779 52.3608C251.225 51.2652 250.948 49.9756 250.948 48.4922C250.948 47.0334 251.225 45.7531 251.779 44.6513C252.339 43.5433 253.121 42.6816 254.124 42.0661C255.127 41.4444 256.306 41.1335 257.66 41.1335C258.534 41.1335 259.359 41.2751 260.135 41.5582C260.916 41.8352 261.606 42.2661 262.203 42.8509C262.806 43.4356 263.28 44.1804 263.625 45.0852C263.969 45.9839 264.142 47.0549 264.142 48.2983V49.3232H252.517V47.0703H260.938C260.932 46.4302 260.793 45.8608 260.522 45.3622C260.252 44.8575 259.873 44.4605 259.387 44.1712C258.907 43.8819 258.346 43.7372 257.706 43.7372C257.023 43.7372 256.423 43.9034 255.906 44.2358C255.389 44.562 254.986 44.9929 254.696 45.5284C254.413 46.0578 254.269 46.6394 254.262 47.2734V49.2401C254.262 50.0649 254.413 50.7727 254.715 51.3636C255.016 51.9484 255.438 52.3977 255.98 52.7116C256.521 53.0194 257.155 53.1733 257.882 53.1733C258.368 53.1733 258.808 53.1056 259.202 52.9702C259.596 52.8286 259.938 52.6224 260.227 52.3516C260.516 52.0807 260.735 51.7453 260.882 51.3452L264.003 51.696C263.806 52.5208 263.431 53.241 262.877 53.8565C262.329 54.4659 261.627 54.9399 260.772 55.2784C259.916 55.6108 258.937 55.777 257.836 55.777ZM278.178 45.0668L275.131 45.3991C275.045 45.0914 274.894 44.8021 274.679 44.5312C274.47 44.2604 274.186 44.0419 273.829 43.8757C273.472 43.7095 273.035 43.6264 272.518 43.6264C271.823 43.6264 271.238 43.7772 270.764 44.0788C270.296 44.3804 270.065 44.7713 270.072 45.2514C270.065 45.6638 270.216 45.9993 270.524 46.2578C270.838 46.5163 271.355 46.7287 272.075 46.8949L274.494 47.4119C275.836 47.7012 276.833 48.1598 277.486 48.7876C278.144 49.4155 278.477 50.2372 278.483 51.2528C278.477 52.1454 278.215 52.9332 277.698 53.6165C277.187 54.2936 276.476 54.8229 275.565 55.2045C274.654 55.5862 273.608 55.777 272.426 55.777C270.69 55.777 269.293 55.4138 268.234 54.6875C267.175 53.955 266.545 52.9363 266.341 51.6314L269.601 51.3175C269.748 51.9576 270.062 52.4408 270.542 52.767C271.023 53.0933 271.647 53.2564 272.417 53.2564C273.211 53.2564 273.848 53.0933 274.328 52.767C274.814 52.4408 275.057 52.0376 275.057 51.5575C275.057 51.1513 274.9 50.8158 274.586 50.5511C274.279 50.2865 273.799 50.0833 273.146 49.9418L270.727 49.4339C269.367 49.1508 268.36 48.6738 267.708 48.0028C267.055 47.3258 266.732 46.4702 266.738 45.4361C266.732 44.562 266.969 43.8049 267.449 43.1648C267.936 42.5185 268.61 42.0199 269.471 41.669C270.339 41.312 271.34 41.1335 272.472 41.1335C274.134 41.1335 275.442 41.4875 276.396 42.1953C277.356 42.9032 277.95 43.8603 278.178 45.0668ZM293.906 41.3182L288.856 55.5H285.163L280.112 41.3182H283.676L286.936 51.853H287.083L290.352 41.3182H293.906ZM296.219 55.5V41.3182H299.562V55.5H296.219ZM296.616 39.4531L298.684 35.2337H301.953L299.118 39.4531H296.616ZM309.185 55.777C307.8 55.777 306.599 55.4723 305.584 54.8629C304.568 54.2536 303.78 53.401 303.22 52.3054C302.666 51.2098 302.389 49.9295 302.389 48.4645C302.389 46.9995 302.666 45.7161 303.22 44.6143C303.78 43.5125 304.568 42.657 305.584 42.0476C306.599 41.4382 307.8 41.1335 309.185 41.1335C310.57 41.1335 311.77 41.4382 312.786 42.0476C313.801 42.657 314.586 43.5125 315.14 44.6143C315.7 45.7161 315.98 46.9995 315.98 48.4645C315.98 49.9295 315.7 51.2098 315.14 52.3054C314.586 53.401 313.801 54.2536 312.786 54.8629C311.77 55.4723 310.57 55.777 309.185 55.777ZM309.203 53.0994C309.954 53.0994 310.582 52.8932 311.087 52.4808C311.591 52.0623 311.967 51.5021 312.213 50.8004C312.465 50.0987 312.592 49.317 312.592 48.4553C312.592 47.5874 312.465 46.8026 312.213 46.1009C311.967 45.393 311.591 44.8298 311.087 44.4112C310.582 43.9927 309.954 43.7834 309.203 43.7834C308.434 43.7834 307.794 43.9927 307.283 44.4112C306.778 44.8298 306.399 45.393 306.147 46.1009C305.901 46.8026 305.778 47.5874 305.778 48.4553C305.778 49.317 305.901 50.0987 306.147 50.8004C306.399 51.5021 306.778 52.0623 307.283 52.4808C307.794 52.8932 308.434 53.0994 309.203 53.0994ZM337.934 41.3182L332.883 55.5H329.19L324.14 41.3182H327.704L330.963 51.853H331.111L334.379 41.3182H337.934ZM340.247 55.5V41.3182H343.589V55.5H340.247ZM341.927 39.3054C341.398 39.3054 340.942 39.13 340.561 38.7791C340.179 38.4221 339.988 37.9943 339.988 37.4957C339.988 36.991 340.179 36.5632 340.561 36.2124C340.942 35.8553 341.398 35.6768 341.927 35.6768C342.463 35.6768 342.918 35.8553 343.294 36.2124C343.675 36.5632 343.866 36.991 343.866 37.4957C343.866 37.9943 343.675 38.4221 343.294 38.7791C342.918 39.13 342.463 39.3054 341.927 39.3054ZM351.107 55.7862C350.208 55.7862 349.399 55.6262 348.679 55.3061C347.965 54.9799 347.398 54.4998 346.98 53.8658C346.567 53.2318 346.361 52.45 346.361 51.5206C346.361 50.7204 346.509 50.0587 346.804 49.5355C347.1 49.0123 347.503 48.5938 348.014 48.2798C348.525 47.9659 349.1 47.7289 349.74 47.5689C350.387 47.4027 351.055 47.2827 351.744 47.2088C352.575 47.1226 353.249 47.0457 353.766 46.978C354.283 46.9041 354.658 46.7933 354.892 46.6456C355.132 46.4917 355.252 46.2547 355.252 45.9347V45.8793C355.252 45.1837 355.046 44.6451 354.634 44.2635C354.221 43.8819 353.627 43.6911 352.852 43.6911C352.033 43.6911 351.384 43.8696 350.904 44.2266C350.43 44.5836 350.11 45.0052 349.944 45.4915L346.823 45.0483C347.069 44.1866 347.475 43.4664 348.042 42.8878C348.608 42.303 349.3 41.866 350.119 41.5767C350.938 41.2812 351.842 41.1335 352.833 41.1335C353.517 41.1335 354.197 41.2135 354.874 41.3736C355.551 41.5336 356.17 41.7983 356.73 42.1676C357.29 42.5308 357.739 43.0263 358.078 43.6541C358.422 44.282 358.595 45.0668 358.595 46.0085V55.5H355.382V53.5518H355.271C355.068 53.9458 354.782 54.3151 354.412 54.6598C354.049 54.9983 353.591 55.2723 353.037 55.4815C352.489 55.6847 351.846 55.7862 351.107 55.7862ZM351.975 53.3303C352.646 53.3303 353.227 53.1979 353.72 52.9332C354.212 52.6624 354.591 52.3054 354.855 51.8622C355.126 51.419 355.262 50.9358 355.262 50.4126V48.7415C355.157 48.8277 354.979 48.9077 354.726 48.9815C354.48 49.0554 354.203 49.12 353.895 49.1754C353.587 49.2308 353.283 49.2801 352.981 49.3232C352.68 49.3662 352.418 49.4032 352.196 49.4339C351.698 49.5017 351.252 49.6125 350.858 49.7663C350.464 49.9202 350.153 50.1357 349.925 50.4126C349.697 50.6835 349.583 51.0343 349.583 51.4652C349.583 52.0807 349.808 52.5455 350.257 52.8594C350.707 53.1733 351.279 53.3303 351.975 53.3303ZM365.298 36.5909V55.5H361.956V36.5909H365.298ZM385.608 41.7891C385.522 40.9827 385.159 40.3549 384.519 39.9055C383.885 39.4562 383.06 39.2315 382.044 39.2315C381.33 39.2315 380.718 39.3393 380.207 39.5547C379.696 39.7701 379.305 40.0625 379.034 40.4318C378.763 40.8011 378.625 41.2228 378.619 41.6967C378.619 42.0907 378.708 42.4323 378.887 42.7216C379.071 43.0109 379.32 43.2571 379.634 43.4602C379.948 43.6572 380.296 43.8234 380.678 43.9588C381.059 44.0942 381.444 44.2081 381.832 44.3004L383.605 44.7436C384.319 44.9098 385.005 45.1345 385.664 45.4176C386.328 45.7008 386.922 46.0578 387.445 46.4886C387.975 46.9195 388.393 47.4396 388.701 48.049C389.009 48.6584 389.163 49.3724 389.163 50.1911C389.163 51.299 388.88 52.2746 388.313 53.1179C387.747 53.955 386.928 54.6106 385.857 55.0845C384.793 55.5523 383.503 55.7862 381.989 55.7862C380.518 55.7862 379.24 55.5585 378.157 55.103C377.08 54.6475 376.237 53.9827 375.627 53.1087C375.024 52.2346 374.698 51.1697 374.649 49.9141H378.019C378.068 50.5727 378.271 51.1205 378.628 51.5575C378.985 51.9946 379.45 52.3208 380.022 52.5362C380.601 52.7517 381.247 52.8594 381.961 52.8594C382.706 52.8594 383.358 52.7486 383.919 52.527C384.485 52.2992 384.928 51.9853 385.248 51.5852C385.568 51.179 385.731 50.705 385.737 50.1634C385.731 49.6709 385.587 49.2647 385.303 48.9446C385.02 48.6184 384.623 48.3475 384.112 48.1321C383.608 47.9105 383.017 47.7135 382.34 47.5412L380.188 46.9872C378.631 46.5871 377.4 45.9808 376.495 45.1683C375.597 44.3497 375.147 43.2633 375.147 41.9091C375.147 40.795 375.449 39.8194 376.052 38.9822C376.661 38.1451 377.489 37.4957 378.536 37.0341C379.582 36.5663 380.767 36.3324 382.09 36.3324C383.432 36.3324 384.608 36.5663 385.617 37.0341C386.633 37.4957 387.43 38.139 388.009 38.9638C388.587 39.7824 388.886 40.7242 388.904 41.7891H385.608ZM396.15 55.7862C395.251 55.7862 394.442 55.6262 393.722 55.3061C393.008 54.9799 392.441 54.4998 392.023 53.8658C391.61 53.2318 391.404 52.45 391.404 51.5206C391.404 50.7204 391.552 50.0587 391.847 49.5355C392.143 49.0123 392.546 48.5938 393.057 48.2798C393.568 47.9659 394.143 47.7289 394.783 47.5689C395.43 47.4027 396.098 47.2827 396.787 47.2088C397.618 47.1226 398.292 47.0457 398.809 46.978C399.326 46.9041 399.701 46.7933 399.935 46.6456C400.175 46.4917 400.295 46.2547 400.295 45.9347V45.8793C400.295 45.1837 400.089 44.6451 399.677 44.2635C399.264 43.8819 398.67 43.6911 397.895 43.6911C397.076 43.6911 396.427 43.8696 395.947 44.2266C395.473 44.5836 395.153 45.0052 394.987 45.4915L391.866 45.0483C392.112 44.1866 392.518 43.4664 393.085 42.8878C393.651 42.303 394.343 41.866 395.162 41.5767C395.981 41.2812 396.885 41.1335 397.876 41.1335C398.56 41.1335 399.24 41.2135 399.917 41.3736C400.594 41.5336 401.213 41.7983 401.773 42.1676C402.333 42.5308 402.782 43.0263 403.121 43.6541C403.465 44.282 403.638 45.0668 403.638 46.0085V55.5H400.425V53.5518H400.314C400.111 53.9458 399.825 54.3151 399.455 54.6598C399.092 54.9983 398.634 55.2723 398.08 55.4815C397.532 55.6847 396.888 55.7862 396.15 55.7862ZM397.018 53.3303C397.689 53.3303 398.27 53.1979 398.763 52.9332C399.255 52.6624 399.634 52.3054 399.898 51.8622C400.169 51.419 400.305 50.9358 400.305 50.4126V48.7415C400.2 48.8277 400.022 48.9077 399.769 48.9815C399.523 49.0554 399.246 49.12 398.938 49.1754C398.63 49.2308 398.326 49.2801 398.024 49.3232C397.723 49.3662 397.461 49.4032 397.239 49.4339C396.741 49.5017 396.295 49.6125 395.901 49.7663C395.507 49.9202 395.196 50.1357 394.968 50.4126C394.74 50.6835 394.626 51.0343 394.626 51.4652C394.626 52.0807 394.851 52.5455 395.3 52.8594C395.75 53.1733 396.322 53.3303 397.018 53.3303ZM410.341 47.1903V55.5H406.999V41.3182H410.193V43.728H410.359C410.686 42.9339 411.206 42.303 411.92 41.8352C412.64 41.3674 413.529 41.1335 414.588 41.1335C415.567 41.1335 416.419 41.3428 417.146 41.7614C417.878 42.1799 418.444 42.7862 418.844 43.5803C419.251 44.3743 419.451 45.3376 419.445 46.4702V55.5H416.102V46.9872C416.102 46.0393 415.856 45.2976 415.364 44.7621C414.877 44.2266 414.203 43.9588 413.342 43.9588C412.757 43.9588 412.237 44.0881 411.781 44.3466C411.332 44.599 410.978 44.9652 410.719 45.4453C410.467 45.9254 410.341 46.5071 410.341 47.1903ZM431.868 55.5H428.211L434.868 36.5909H439.097L445.763 55.5H442.107L437.056 40.4688H436.909L431.868 55.5ZM431.988 48.0859H441.959V50.8374H431.988V48.0859ZM451.448 47.1903V55.5H448.106V41.3182H451.301V43.728H451.467C451.793 42.9339 452.313 42.303 453.027 41.8352C453.747 41.3674 454.637 41.1335 455.695 41.1335C456.674 41.1335 457.527 41.3428 458.253 41.7614C458.985 42.1799 459.552 42.7862 459.952 43.5803C460.358 44.3743 460.558 45.3376 460.552 46.4702V55.5H457.21V46.9872C457.21 46.0393 456.963 45.2976 456.471 44.7621C455.985 44.2266 455.311 43.9588 454.449 43.9588C453.864 43.9588 453.344 44.0881 452.889 44.3466C452.439 44.599 452.085 44.9652 451.827 45.4453C451.575 45.9254 451.448 46.5071 451.448 47.1903ZM469.213 55.7493C468.098 55.7493 467.101 55.4631 466.221 54.8906C465.341 54.3182 464.645 53.4872 464.134 52.3977C463.624 51.3082 463.368 49.9848 463.368 48.4276C463.368 46.8518 463.627 45.5223 464.144 44.4389C464.667 43.3494 465.372 42.5277 466.258 41.9737C467.144 41.4136 468.132 41.1335 469.222 41.1335C470.053 41.1335 470.736 41.2751 471.271 41.5582C471.807 41.8352 472.232 42.1707 472.546 42.5646C472.86 42.9524 473.103 43.3187 473.275 43.6634H473.414V36.5909H476.765V55.5H473.478V53.2656H473.275C473.103 53.6103 472.853 53.9766 472.527 54.3643C472.201 54.746 471.77 55.0722 471.235 55.343C470.699 55.6139 470.025 55.7493 469.213 55.7493ZM470.145 53.0071C470.853 53.0071 471.456 52.8163 471.955 52.4347C472.453 52.0469 472.832 51.5083 473.09 50.8189C473.349 50.1295 473.478 49.3262 473.478 48.4091C473.478 47.492 473.349 46.6948 473.09 46.0178C472.838 45.3407 472.463 44.8144 471.964 44.4389C471.472 44.0634 470.865 43.8757 470.145 43.8757C469.4 43.8757 468.779 44.0696 468.28 44.4574C467.781 44.8452 467.406 45.3807 467.154 46.0639C466.901 46.7472 466.775 47.5289 466.775 48.4091C466.775 49.2955 466.901 50.0864 467.154 50.782C467.412 51.4714 467.791 52.0161 468.289 52.4162C468.794 52.8101 469.413 53.0071 470.145 53.0071ZM480.327 55.5V41.3182H483.567V43.6818H483.715C483.974 42.8632 484.417 42.2322 485.045 41.7891C485.679 41.3397 486.402 41.1151 487.214 41.1151C487.399 41.1151 487.605 41.1243 487.833 41.1428C488.067 41.1551 488.261 41.1766 488.415 41.2074V44.282C488.273 44.2327 488.049 44.1896 487.741 44.1527C487.439 44.1096 487.147 44.0881 486.864 44.0881C486.254 44.0881 485.706 44.2204 485.22 44.4851C484.74 44.7436 484.362 45.1037 484.085 45.5653C483.808 46.027 483.669 46.5594 483.669 47.1626V55.5H480.327ZM496.33 55.777C494.908 55.777 493.68 55.4815 492.646 54.8906C491.618 54.2936 490.827 53.4503 490.273 52.3608C489.719 51.2652 489.442 49.9756 489.442 48.4922C489.442 47.0334 489.719 45.7531 490.273 44.6513C490.833 43.5433 491.615 42.6816 492.618 42.0661C493.621 41.4444 494.8 41.1335 496.154 41.1335C497.028 41.1335 497.853 41.2751 498.629 41.5582C499.41 41.8352 500.1 42.2661 500.697 42.8509C501.3 43.4356 501.774 44.1804 502.119 45.0852C502.463 45.9839 502.636 47.0549 502.636 48.2983V49.3232H491.012V47.0703H499.432C499.426 46.4302 499.287 45.8608 499.017 45.3622C498.746 44.8575 498.367 44.4605 497.881 44.1712C497.401 43.8819 496.841 43.7372 496.2 43.7372C495.517 43.7372 494.917 43.9034 494.4 44.2358C493.883 44.562 493.48 44.9929 493.191 45.5284C492.907 46.0578 492.763 46.6394 492.757 47.2734V49.2401C492.757 50.0649 492.907 50.7727 493.209 51.3636C493.511 51.9484 493.932 52.3977 494.474 52.7116C495.016 53.0194 495.65 53.1733 496.376 53.1733C496.862 53.1733 497.302 53.1056 497.696 52.9702C498.09 52.8286 498.432 52.6224 498.721 52.3516C499.01 52.0807 499.229 51.7453 499.377 51.3452L502.497 51.696C502.3 52.5208 501.925 53.241 501.371 53.8565C500.823 54.4659 500.121 54.9399 499.266 55.2784C498.41 55.6108 497.432 55.777 496.33 55.777ZM494.779 39.4531L496.847 35.2337H500.115L497.281 39.4531H494.779ZM516.672 45.0668L513.625 45.3991C513.539 45.0914 513.388 44.8021 513.173 44.5312C512.964 44.2604 512.681 44.0419 512.324 43.8757C511.967 43.7095 511.529 43.6264 511.012 43.6264C510.317 43.6264 509.732 43.7772 509.258 44.0788C508.79 44.3804 508.56 44.7713 508.566 45.2514C508.56 45.6638 508.71 45.9993 509.018 46.2578C509.332 46.5163 509.849 46.7287 510.569 46.8949L512.988 47.4119C514.33 47.7012 515.327 48.1598 515.98 48.7876C516.638 49.4155 516.971 50.2372 516.977 51.2528C516.971 52.1454 516.709 52.9332 516.192 53.6165C515.681 54.2936 514.97 54.8229 514.059 55.2045C513.148 55.5862 512.102 55.777 510.92 55.777C509.184 55.777 507.787 55.4138 506.728 54.6875C505.67 53.955 505.039 52.9363 504.836 51.6314L508.095 51.3175C508.243 51.9576 508.556 52.4408 509.037 52.767C509.517 53.0933 510.141 53.2564 510.911 53.2564C511.705 53.2564 512.342 53.0933 512.822 52.767C513.308 52.4408 513.551 52.0376 513.551 51.5575C513.551 51.1513 513.395 50.8158 513.081 50.5511C512.773 50.2865 512.293 50.0833 511.64 49.9418L509.221 49.4339C507.861 49.1508 506.855 48.6738 506.202 48.0028C505.55 47.3258 505.226 46.4702 505.233 45.4361C505.226 44.562 505.463 43.8049 505.944 43.1648C506.43 42.5185 507.104 42.0199 507.966 41.669C508.833 41.312 509.834 41.1335 510.966 41.1335C512.628 41.1335 513.936 41.4875 514.89 42.1953C515.85 42.9032 516.444 43.8603 516.672 45.0668Z" fill="white"/>
<g clip-path="url(#clip0_146_9004)">
<path d="M79.4791 120.002C79.811 119.779 80.1574 119.707 80.4099 119.858C80.9294 120.161 81.4562 120.464 81.9829 120.767C81.5211 120.5 80.7707 120.933 80.3089 121.733C79.8471 122.533 79.8471 123.398 80.3089 123.665C79.7894 123.362 79.2627 123.059 78.7431 122.764C78.505 122.627 78.3896 122.324 78.3968 121.956C78.404 121.617 78.5195 121.214 78.7431 120.832C78.9452 120.471 79.2049 120.183 79.4791 120.002Z" fill="white"/>
<path d="M81.9754 120.766C82.4372 121.033 82.4372 121.898 81.9754 122.699C81.5136 123.499 80.7632 123.931 80.3014 123.665C79.8396 123.398 79.8396 122.533 80.3014 121.732C80.7704 120.932 81.5136 120.5 81.9754 120.766Z" fill="#E4E4F2"/>
<path d="M65.0546 111.682C66.8946 112.742 68.7345 113.802 70.5745 114.861C70.5745 115.287 70.5745 115.712 70.5745 116.145C70.5745 116.476 70.6827 116.866 70.8992 117.241L72.8041 116.145C75.0264 117.428 77.256 118.711 79.4784 119.995C79.2114 120.175 78.9444 120.456 78.7424 120.817C78.5187 121.199 78.4033 121.603 78.3961 121.941C75.9789 120.543 73.5545 119.151 71.1301 117.753C68.7201 116.361 66.3173 114.977 63.9073 113.585C63.6981 113.463 63.4888 113.347 63.2796 113.225C62.9693 113.045 62.9693 112.475 63.2796 111.941C63.5898 111.408 64.0877 111.12 64.3908 111.3C64.6144 111.43 64.8381 111.559 65.0546 111.682Z" fill="#E4E4F2"/>
<path d="M72.8036 76.3398C73.085 76.4408 73.049 76.7869 73.049 76.7869C73.049 77.5006 71.5626 77.8179 70.7328 77.342C70.473 77.1906 70.3359 76.9887 70.3359 76.7869C70.3359 76.6282 70.4153 76.4768 70.5813 76.3398C70.5813 76.4912 70.5813 76.6354 70.5813 76.7869C70.5813 76.7869 70.5019 77.0031 70.906 77.2411C71.5914 77.6376 72.8109 77.3708 72.8109 76.7869C72.8036 76.6354 72.8036 76.4912 72.8036 76.3398Z" fill="white"/>
<path d="M72.8036 98.3656C73.0706 98.5026 73.049 98.8054 73.049 98.8054C73.049 99.5192 71.5626 99.8364 70.7328 99.3606C70.473 99.2092 70.3359 99.0073 70.3359 98.8054C70.3359 98.6468 70.4153 98.4954 70.5813 98.3584C70.5813 98.5098 70.5813 98.654 70.5813 98.8054C70.5813 98.8054 70.6029 99.1371 70.906 99.2596C71.5914 99.6562 72.8109 99.3894 72.8109 98.8054C72.8036 98.654 72.8036 98.5098 72.8036 98.3656Z" fill="white"/>
<path d="M72.8038 98.3655C72.8038 98.5097 72.8038 98.6611 72.8038 98.8053C72.8038 99.3893 71.5844 99.6561 70.8989 99.2596C70.5959 99.137 70.5742 98.8053 70.5742 98.8053C70.5742 98.6539 70.5742 98.5097 70.5742 98.3583C70.5742 92.54 70.5742 87.0173 70.5742 81.1846C70.6536 81.2567 70.7257 81.2999 70.7257 81.2999C71.3463 81.6604 72.342 81.5739 72.7966 81.199C72.8038 86.9236 72.8038 92.641 72.8038 98.3655Z" fill="#E4E4F2"/>
<path d="M70.4519 103.066C70.3076 103.153 70.156 103.232 70.0117 103.319C70.1128 103.247 70.1921 103.139 70.2282 102.98C70.4807 102.035 69.3118 100.586 68.6191 100.983C69.1892 100.651 69.7592 100.327 70.3292 99.9951L72.6454 101.329C72.3784 101.79 72.0321 102.144 71.6857 102.338C71.2744 102.591 70.8632 102.829 70.4519 103.066Z" fill="white"/>
<path d="M71.6854 72.1074C72.2987 72.1074 72.7966 72.3958 72.7966 72.7491C72.7966 73.1024 72.2987 73.3908 71.6854 73.3908C71.0721 73.3908 70.5742 73.1024 70.5742 72.7491C70.5742 72.3958 71.0721 72.1074 71.6854 72.1074Z" fill="white"/>
<path d="M70.5742 116.153C70.5742 115.72 70.5742 115.295 70.5742 114.869C70.5742 110.925 70.5742 107.205 70.5742 103.211C70.6608 103.283 70.7257 103.319 70.7257 103.319C71.3463 103.68 72.342 103.593 72.7966 103.218C72.7966 107.53 72.7966 111.841 72.7966 116.153L70.8917 117.248C70.6825 116.874 70.5742 116.484 70.5742 116.153Z" fill="#E4E4F2"/>
<path d="M70.5754 72.749C70.5754 73.1023 71.0732 73.3907 71.6865 73.3907C72.2999 73.3907 72.7977 73.1023 72.7977 72.749C72.7977 73.9459 72.7977 75.1427 72.7977 76.3395C72.7977 76.4909 72.7977 76.6351 72.7977 76.7865C72.7977 77.3777 71.5783 77.6373 70.8928 77.2407C70.4816 77.0028 70.5681 76.7865 70.5681 76.7865C70.5681 76.6351 70.5681 76.4909 70.5681 76.3395C70.5754 75.1427 70.5754 73.9459 70.5754 72.749Z" fill="#E4E4F2"/>
<path d="M70.5754 103.211C70.5321 103.175 70.4888 103.124 70.4527 103.067C70.864 102.829 71.2825 102.591 71.6938 102.353C72.0402 102.151 72.3865 101.798 72.6535 101.344L70.3301 100.002C70.3301 99.606 70.3301 99.2022 70.3301 98.8057C70.3301 99.0075 70.4672 99.2094 70.7269 99.3608C71.5567 99.8439 73.0431 99.5194 73.0431 98.8057C73.0431 99.469 73.0431 100.125 73.0431 100.788C73.0431 101.444 73.0431 102.108 73.0431 102.764C73.0431 102.944 72.9493 103.095 72.7978 103.218C72.3432 103.586 71.3475 103.679 70.7269 103.319C70.7269 103.319 70.662 103.283 70.5754 103.211Z" fill="white"/>
<path d="M72.7978 81.1991C72.3432 81.5668 71.3475 81.6606 70.7269 81.3001C70.7269 81.3001 70.6476 81.2568 70.5754 81.1847C70.5321 81.1487 70.4888 81.0982 70.46 81.0405C70.8712 80.8026 71.2825 80.5647 71.6938 80.334C72.0546 80.1249 72.4009 79.7644 72.6535 79.3246L70.7341 78.2143C70.7197 78.2071 70.7053 78.1926 70.6836 78.1854C70.6692 78.1782 70.6548 78.171 70.6403 78.1566C70.6259 78.1494 70.6115 78.1422 70.597 78.135C70.5826 78.1278 70.5682 78.1205 70.561 78.1133C70.5393 78.0989 70.5105 78.0845 70.4888 78.0773C70.4816 78.0701 70.4672 78.0629 70.46 78.0629C70.4527 78.0557 70.4383 78.0557 70.4311 78.0485C70.4239 78.0412 70.4167 78.0412 70.4094 78.034C70.3589 78.0052 70.3301 77.9908 70.3301 77.9908C70.3301 77.5942 70.3301 77.1905 70.3301 76.7939C70.3301 76.9958 70.4672 77.1977 70.7269 77.3491C71.5567 77.8322 73.0431 77.5077 73.0431 76.7939C73.0431 77.45 73.0431 78.1133 73.0431 78.7694C73.0431 79.4327 73.0431 80.0888 73.0431 80.7521C73.0431 80.9252 72.9493 81.0766 72.7978 81.1991Z" fill="white"/>
<path d="M70.3292 77.9834C70.3292 77.9834 70.3509 77.9978 70.4086 78.0267C70.4158 78.0267 70.423 78.0339 70.4302 78.0411C70.4375 78.0483 70.4447 78.0483 70.4591 78.0555C70.4663 78.0627 70.4735 78.0627 70.488 78.0699C70.5096 78.0843 70.5313 78.0915 70.5601 78.106C70.5745 78.1132 70.5818 78.1204 70.5962 78.1276C70.6106 78.1348 70.6251 78.142 70.6395 78.1492C70.6539 78.1564 70.6683 78.1636 70.6828 78.1781C70.6972 78.1853 70.7116 78.1925 70.7333 78.2069L72.6526 79.3172C72.4001 79.757 72.0537 80.1247 71.6929 80.3266C71.2817 80.5645 70.8704 80.8024 70.4591 81.0331C70.3076 81.1197 70.156 81.2062 70.0117 81.2927C70.1128 81.2206 70.1921 81.1125 70.2282 80.9538C70.4807 80.0094 69.3118 78.5602 68.6191 78.9567C69.1892 78.6395 69.7592 78.315 70.3292 77.9834Z" fill="white"/>
<path d="M69.3915 81.2995C64.42 84.169 59.4558 87.0313 54.4843 89.9008C54.5132 89.598 54.4193 89.2158 54.2101 88.8481C53.9576 88.4083 53.5968 88.1127 53.2793 88.0262C58.3446 85.1063 63.4099 82.1863 68.4752 79.2591C68.5617 79.2086 68.6555 79.1582 68.7421 79.1077C69.0524 78.9274 69.5503 79.2231 69.8533 79.7494C70.1636 80.2829 70.1636 80.8597 69.8533 81.0327C69.7018 81.1264 69.5503 81.213 69.3915 81.2995Z" fill="#E4E4F2"/>
<path d="M69.3987 103.319C64.4272 106.188 59.4557 109.058 54.477 111.927C54.578 111.35 54.1595 110.435 53.5318 110.067C53.4813 110.038 53.4236 110.009 53.373 109.995C58.4888 107.039 63.3304 104.249 68.4462 101.3C68.5473 101.242 68.6411 101.185 68.7421 101.127C69.0523 100.947 69.5502 101.235 69.8533 101.769C70.1635 102.302 70.1635 102.879 69.8533 103.052C69.7017 103.146 69.5502 103.232 69.3987 103.319Z" fill="#E4E4F2"/>
<path d="M68.6198 78.9715C69.3125 78.5749 70.4814 80.0241 70.2288 80.9686C70.1855 81.12 70.1134 81.2353 70.0124 81.3074C70.0052 81.3146 69.9907 81.3219 69.9835 81.3219C69.832 81.4084 69.6227 81.4084 69.3991 81.3002C69.5506 81.2137 69.7093 81.12 69.8608 81.0335C70.1711 80.8532 70.1711 80.2836 69.8608 79.7501C69.5506 79.2166 69.0527 78.9282 68.7497 79.1084C68.6631 79.1589 68.5693 79.2094 68.4827 79.2598C68.4755 79.0652 68.6198 78.9715 68.6198 78.9715Z" fill="#797F8D"/>
<path d="M68.6191 100.99C69.3118 100.593 70.4807 102.043 70.2281 102.987C70.1848 103.139 70.1127 103.254 70.0117 103.326C70.0045 103.333 69.99 103.34 69.9828 103.34C69.8313 103.427 69.6293 103.427 69.4056 103.326C69.5571 103.239 69.7086 103.153 69.8601 103.066C70.1704 102.886 70.1704 102.317 69.8601 101.783C69.5499 101.25 69.052 100.961 68.749 101.141C68.6479 101.199 68.5541 101.257 68.4531 101.314C68.4676 101.084 68.6191 100.99 68.6191 100.99Z" fill="#D8D8E6"/>
<path d="M64.6656 110.781C64.9037 110.882 65.0552 111.148 65.0552 111.574V111.689C64.8315 111.559 64.6151 111.437 64.3914 111.307C64.0811 111.127 63.5832 111.415 63.2802 111.949C62.9699 112.482 62.9699 113.059 63.2802 113.232C63.4894 113.355 63.6987 113.477 63.9079 113.593C63.5472 113.809 63.2513 113.823 63.0349 113.693C63.0277 113.686 63.0204 113.686 63.006 113.679C62.6092 113.412 62.5442 112.634 63.0204 111.783C63.5111 110.939 64.2254 110.586 64.6656 110.781Z" fill="#E4E4F2"/>
<path d="M64.6659 110.781C64.2257 110.586 63.5114 110.939 63.0279 111.79C62.5517 112.634 62.6167 113.419 63.0135 113.686C62.5012 113.391 61.9889 113.095 61.4694 112.799C61.0076 112.533 61.0076 111.667 61.4694 110.867C61.9312 110.067 62.6816 109.634 63.1434 109.901C63.6485 110.189 64.1608 110.485 64.6659 110.781Z" fill="white"/>
<path d="M54.4911 89.9015C54.4694 90.1395 54.3756 90.3269 54.2169 90.4207C53.8705 90.6225 53.5242 90.8172 53.1778 91.0191L52.781 90.7884C52.312 91.6031 51.576 92.0861 51.0493 91.9708C51.2224 91.0263 50.0968 89.6636 49.4258 90.053C49.9958 89.7213 50.5658 89.3896 51.1431 89.0652C51.7131 88.7336 52.2903 88.4091 52.8604 88.0775C52.983 88.0054 53.1273 87.9982 53.2861 88.0414C53.6108 88.1279 53.9643 88.4235 54.2169 88.8633C54.4189 89.2166 54.5127 89.5987 54.4911 89.9015Z" fill="white"/>
<path d="M50.5585 111.444C50.5729 111.451 50.5945 111.466 50.6162 111.473C50.6378 111.487 50.6595 111.502 50.6883 111.516C50.7028 111.523 50.71 111.53 50.7244 111.538C50.7388 111.545 50.7533 111.552 50.7677 111.559C50.7821 111.567 50.7966 111.574 50.811 111.581C50.8254 111.588 50.8399 111.595 50.8615 111.61L52.7808 112.72C53.0478 112.259 53.1777 111.783 53.1777 111.386C53.1777 110.903 53.1777 110.427 53.1777 109.944C53.2426 109.952 53.3076 109.966 53.3797 109.995C53.4302 110.016 53.4879 110.038 53.5385 110.067C54.1662 110.427 54.5847 111.343 54.4837 111.927C54.4548 112.114 54.3682 112.266 54.2167 112.352C53.6467 112.684 53.0767 113.009 52.4994 113.34C51.9294 113.672 51.3522 113.996 50.7821 114.328C51.4027 113.967 50.9337 112.525 50.1039 112.042C49.8513 111.898 49.6204 111.877 49.4473 111.963C49.7864 111.768 50.1255 111.574 50.4647 111.379C50.4647 111.379 50.4719 111.386 50.4863 111.394C50.4863 111.394 50.4935 111.401 50.5007 111.401C50.5079 111.401 50.5079 111.408 50.5152 111.408C50.5296 111.422 50.544 111.43 50.5585 111.444Z" fill="white"/>
<path d="M53.1785 109.944C53.1785 110.427 53.1785 110.903 53.1785 111.386C53.1785 111.79 53.0486 112.266 52.7816 112.72L50.8623 111.61C50.8479 111.603 50.8334 111.588 50.8118 111.581C50.7974 111.574 50.7829 111.566 50.7685 111.559C50.7541 111.552 50.7396 111.545 50.7252 111.538C50.7108 111.53 50.7036 111.523 50.6891 111.516C50.6603 111.502 50.6386 111.487 50.617 111.473C50.5953 111.458 50.5809 111.451 50.5665 111.444C50.552 111.437 50.5376 111.43 50.5232 111.422C50.5159 111.415 50.5087 111.415 50.5087 111.415C50.5015 111.415 50.5015 111.408 50.4943 111.408C50.4799 111.401 50.4727 111.393 50.4727 111.393C50.4727 110.737 50.4727 110.074 50.4727 109.418C50.4727 110.211 52.3126 110.499 53.0053 109.807C53.128 109.685 53.1857 109.548 53.1857 109.418C53.1785 109.591 53.1785 109.764 53.1785 109.944Z" fill="white"/>
<path d="M50.6971 93.4345C50.5456 93.3047 50.459 93.1533 50.459 92.9875V92.4539C50.7332 92.4828 50.9496 92.3386 51.029 92.043C51.0362 92.0213 51.0434 91.9925 51.0434 91.9637C51.5702 92.079 52.3062 91.596 52.7752 90.7812L53.172 91.012C53.172 91.6681 53.172 92.3314 53.172 92.9875C53.172 93.1533 53.0782 93.3119 52.9267 93.4417C52.6814 93.6435 52.2773 93.7733 51.8155 93.7733C51.3537 93.7733 50.9424 93.6363 50.6971 93.4345Z" fill="white"/>
<path d="M53.1779 109.411C53.1779 109.548 53.1201 109.678 52.9975 109.8C52.3048 110.492 50.4648 110.204 50.4648 109.411C50.4648 109.404 50.4648 109.166 50.703 109.014C50.703 109.144 50.703 109.281 50.703 109.418C50.703 109.771 51.2008 110.06 51.8141 110.06C52.4275 110.06 52.9253 109.771 52.9253 109.418C52.9253 109.267 52.9253 109.115 52.9253 108.964C53.0913 109.094 53.1779 109.252 53.1779 109.411Z" fill="white"/>
<path d="M52.9255 108.957C52.9255 109.108 52.9255 109.259 52.9255 109.411C52.9255 109.764 52.4276 110.053 51.8143 110.053C51.201 110.053 50.7031 109.764 50.7031 109.411C50.7031 109.281 50.7031 109.144 50.7031 109.007C50.7031 103.816 50.7031 98.6178 50.7031 93.4268C50.9485 93.6286 51.3597 93.7656 51.8215 93.7656C52.2833 93.7656 52.6874 93.6358 52.9327 93.434C52.9255 98.6106 52.9255 103.787 52.9255 108.957Z" fill="#E4E4F2"/>
<path d="M50.1054 112.05C50.9352 112.533 51.4042 113.975 50.7836 114.335C50.7836 114.335 50.6033 114.436 50.3868 114.299C50.4806 114.249 50.5744 114.191 50.661 114.14C50.9713 113.96 50.9713 113.391 50.661 112.857C50.3507 112.324 49.8528 112.035 49.5498 112.215C49.4199 112.288 49.29 112.367 49.1602 112.439C49.1962 112.223 49.29 112.071 49.4271 111.992C49.4343 111.992 49.4416 111.985 49.4488 111.978C49.6219 111.884 49.8528 111.905 50.1054 112.05Z" fill="#797F8D"/>
<path d="M49.2248 90.3623C49.3331 90.2974 49.4413 90.2397 49.5423 90.1748C49.8526 89.9946 50.3504 90.2829 50.6535 90.8165C50.9638 91.35 50.9638 91.9268 50.6535 92.0998C50.502 92.1863 50.3432 92.2801 50.1917 92.3666C44.4987 95.647 38.8056 98.9347 33.1126 102.215C33.1415 101.912 33.0477 101.53 32.8384 101.163C32.5859 100.723 32.2251 100.42 31.9004 100.341C37.6872 97.0241 43.4524 93.6932 49.2248 90.3623Z" fill="#E4E4F2"/>
<path d="M49.1591 112.425C49.289 112.353 49.4188 112.274 49.5487 112.201C49.859 112.021 50.3569 112.317 50.6599 112.843C50.9702 113.377 50.9702 113.953 50.6599 114.126C50.5661 114.177 50.4723 114.235 50.3857 114.285C44.6277 117.602 38.877 120.925 33.119 124.242C33.22 123.665 32.7943 122.749 32.1666 122.389C32.1666 122.389 32.1016 122.346 32.0078 122.317C37.8163 118.971 43.3578 115.778 49.1591 112.425Z" fill="#E4E4F2"/>
<path d="M50.4571 92.4535C50.3705 92.4463 50.2839 92.4174 50.1973 92.3742C50.3489 92.2876 50.5076 92.1939 50.6591 92.1074C50.9694 91.9271 50.9694 91.3504 50.6591 90.824C50.3489 90.2905 49.851 90.0021 49.5479 90.1824C49.4397 90.2473 49.3315 90.3049 49.2305 90.3698C49.2665 90.168 49.4325 90.0526 49.4325 90.0526C50.1035 89.6633 51.2292 91.0259 51.056 91.9704C51.0488 91.9992 51.0488 92.0209 51.0416 92.0497C50.9478 92.3381 50.7313 92.4895 50.4571 92.4535Z" fill="#797F8D"/>
<path d="M33.1194 102.23C33.0977 102.461 33.0039 102.649 32.8452 102.742C32.4988 102.944 32.1525 103.139 31.8062 103.341C31.8062 103.341 31.4237 103.117 31.4093 103.11C31.1423 103.571 30.796 103.925 30.4496 104.119C30.1033 104.321 29.757 104.516 29.4106 104.718C29.5261 104.653 29.6126 104.53 29.6559 104.365C29.9085 103.42 28.7396 101.971 28.0469 102.367C28.6169 102.036 29.1869 101.704 29.7642 101.38C30.3342 101.048 30.9042 100.716 31.4815 100.392C31.6041 100.32 31.7484 100.313 31.9072 100.356C32.2319 100.435 32.5926 100.738 32.8452 101.178C33.0544 101.545 33.1482 101.928 33.1194 102.23Z" fill="white"/>
<path d="M33.1185 124.249C33.0896 124.436 32.9958 124.588 32.8515 124.674C32.2815 125.006 31.7042 125.33 31.1342 125.662C30.5642 125.994 29.9869 126.325 29.4169 126.65C30.0374 126.289 29.5684 124.847 28.7386 124.364C28.4861 124.22 28.2552 124.198 28.082 124.285C28.4212 124.09 28.7603 123.896 29.0994 123.701L31.4156 125.035C31.6826 124.573 31.8125 124.098 31.8125 123.701C31.8125 123.225 31.8125 122.749 31.8125 122.273C31.8846 122.273 31.9495 122.295 32.0073 122.317C32.1011 122.353 32.166 122.389 32.166 122.389C32.7938 122.756 33.2123 123.672 33.1185 124.249Z" fill="white"/>
<path d="M31.8068 122.28C31.8068 122.756 31.8068 123.232 31.8068 123.708C31.8068 124.112 31.6769 124.588 31.4099 125.042L29.0938 123.708C29.0938 123.052 29.0938 122.396 29.0938 121.732C29.0938 121.934 29.2308 122.136 29.4906 122.288C30.3204 122.771 31.8068 122.446 31.8068 121.732C31.8068 121.92 31.8068 122.1 31.8068 122.28Z" fill="white"/>
<path d="M31.5975 121.278C31.814 121.466 31.8068 121.74 31.8068 121.74C31.8068 122.453 30.3204 122.771 29.4906 122.295C29.2308 122.143 29.0938 121.941 29.0938 121.74C29.0938 121.574 29.1876 121.408 29.3679 121.264C29.3679 121.415 29.3679 121.566 29.3679 121.718C29.3679 121.718 29.4184 122.057 29.6926 122.172C30.3781 122.569 31.5975 122.302 31.5975 121.718C31.5975 121.574 31.5975 121.422 31.5975 121.278Z" fill="white"/>
<path d="M31.596 105.741C31.1559 106.131 30.1313 106.239 29.4891 105.864C29.4458 105.835 29.4025 105.806 29.3664 105.77C29.1427 105.568 29.1211 105.309 29.1211 105.309V104.775C29.2293 104.782 29.3303 104.761 29.4097 104.71C29.7561 104.508 30.1024 104.314 30.4487 104.112C30.7951 103.91 31.1414 103.557 31.4084 103.103C31.4228 103.11 31.8053 103.333 31.8053 103.333C31.8053 103.989 31.8053 104.653 31.8053 105.309C31.8053 105.482 31.7259 105.626 31.596 105.741Z" fill="white"/>
<path d="M31.5968 121.278C31.5968 121.422 31.5968 121.574 31.5968 121.718C31.5968 122.309 30.3774 122.569 29.6919 122.172C29.4177 122.057 29.3672 121.718 29.3672 121.718C29.3672 121.566 29.3672 121.415 29.3672 121.264C29.3672 116.101 29.3672 110.939 29.3672 105.777C29.4033 105.806 29.4393 105.842 29.4898 105.871C30.132 106.238 31.1566 106.137 31.5968 105.748C31.5968 110.917 31.5968 116.101 31.5968 121.278Z" fill="#E4E4F2"/>
<path d="M28.7323 124.378C29.5621 124.861 30.0311 126.303 29.4106 126.664C29.4106 126.664 29.1941 126.765 28.9416 126.664C29.057 126.599 29.1725 126.534 29.2879 126.462C29.5982 126.282 29.5982 125.712 29.2879 125.179C28.9777 124.645 28.4798 124.357 28.1767 124.537C28.0469 124.609 27.917 124.688 27.7871 124.76C27.8232 124.544 27.917 124.393 28.0541 124.313C28.0613 124.306 28.0685 124.306 28.0757 124.299C28.2489 124.213 28.4798 124.234 28.7323 124.378Z" fill="#797F8D"/>
<path d="M28.8334 104.703C23.8763 107.565 18.9193 110.427 13.955 113.289C13.9839 112.987 13.89 112.604 13.6808 112.237C13.4283 111.797 13.0675 111.501 12.75 111.415C17.8081 108.495 22.8734 105.575 27.9314 102.655C28.018 102.604 28.0974 102.561 28.184 102.511C28.4942 102.33 28.9921 102.619 29.2952 103.152C29.6054 103.686 29.6054 104.263 29.2952 104.436C29.1364 104.522 28.9849 104.616 28.8334 104.703Z" fill="#E4E4F2"/>
<path d="M29.2958 125.171C29.606 125.705 29.606 126.281 29.2958 126.454C29.1803 126.519 29.0649 126.584 28.9494 126.656C23.9491 129.54 18.9559 132.424 13.9556 135.308C13.9844 135.005 13.8906 134.616 13.6814 134.248C13.4289 133.816 13.0753 133.513 12.7578 133.426C17.7726 130.535 22.7802 127.644 27.7949 124.753C27.9248 124.681 28.0547 124.602 28.1846 124.529C28.4876 124.356 28.9855 124.638 29.2958 125.171Z" fill="#E4E4F2"/>
<path d="M28.0543 102.374C28.747 101.977 29.9159 103.426 29.6634 104.371C29.6201 104.537 29.5335 104.659 29.418 104.724C29.3315 104.775 29.2376 104.796 29.1294 104.789C29.0356 104.782 28.9418 104.76 28.8336 104.71C28.9851 104.623 29.1438 104.53 29.2954 104.443C29.6056 104.263 29.6056 103.693 29.2954 103.16C28.9851 102.626 28.4872 102.338 28.1842 102.518C28.0976 102.568 28.0182 102.612 27.9316 102.662C27.9461 102.424 28.0543 102.374 28.0543 102.374Z" fill="#797F8D"/>
<path d="M20.8524 156.03C21.3142 156.296 21.3142 157.161 20.8524 157.962C20.3906 158.762 19.6402 159.195 19.1784 158.928C18.7166 158.661 18.7166 157.796 19.1784 156.996C19.6257 156.217 20.3545 155.784 20.8163 156.015C20.8307 156.015 20.8452 156.022 20.8524 156.03Z" fill="#E4E4F2"/>
<path d="M11.7255 151.394C13.9479 152.677 16.1703 153.961 18.3927 155.237C17.8298 155.604 17.3103 156.412 17.2742 157.162C14.8715 155.77 12.4615 154.386 10.0587 152.994C7.64876 151.603 5.23878 150.219 2.83601 148.827C2.62676 148.705 2.41751 148.589 2.20826 148.467C1.91964 148.265 1.97737 147.955 1.97737 147.955C1.97737 147.169 2.81437 146.246 3.31945 146.535C3.5287 146.657 3.73074 146.772 3.93277 146.888C5.78716 147.955 7.64154 149.029 9.49593 150.096C9.49593 150.522 9.49593 150.954 9.49593 151.379C9.49593 151.718 9.61138 152.115 9.82063 152.475L11.7255 151.394Z" fill="#E4E4F2"/>
<path d="M17.2676 157.162C17.3037 156.412 17.8232 155.604 18.386 155.237C18.6962 155.035 19.0209 154.97 19.2807 155.121C19.793 155.417 20.3053 155.713 20.8176 156.008C20.3558 155.785 19.627 156.217 19.1797 156.989C18.7179 157.789 18.7179 158.654 19.1797 158.921C18.6602 158.618 18.1334 158.315 17.6139 158.02C17.3902 157.89 17.2676 157.616 17.2676 157.255C17.2676 157.219 17.2676 157.191 17.2676 157.162Z" fill="white"/>
<path d="M13.9553 113.282C13.9337 113.52 13.8399 113.7 13.6811 113.794C13.1111 114.126 12.5411 114.45 11.9711 114.782L11.5742 114.551C11.8268 114.111 11.9711 113.628 11.9711 113.217C11.9711 112.821 11.9711 112.417 11.9711 112.02C11.9711 111.912 11.935 111.811 11.8628 111.71C12.0144 111.624 12.1731 111.53 12.3246 111.444C12.4473 111.372 12.5916 111.364 12.7503 111.408C13.075 111.494 13.4286 111.79 13.6811 112.23C13.8904 112.597 13.9842 112.979 13.9553 113.282Z" fill="white"/>
<path d="M13.9553 135.309C13.9337 135.54 13.8399 135.727 13.6811 135.821C13.1111 136.152 12.5411 136.477 11.9711 136.809L11.5742 136.578C11.8268 136.138 11.9711 135.655 11.9711 135.237C11.9711 134.84 11.9711 134.437 11.9711 134.04C11.9711 133.932 11.935 133.831 11.8628 133.73C12.0144 133.643 12.1731 133.55 12.3246 133.463C12.4473 133.391 12.5988 133.384 12.7576 133.427C13.075 133.514 13.4358 133.816 13.6811 134.249C13.8904 134.617 13.9842 135.006 13.9553 135.309Z" fill="white"/>
<path d="M9.49533 138.445C9.3438 138.315 9.25 138.164 9.25 137.998C9.25 137.342 9.25 136.679 9.25 136.023C9.25 135.359 9.25 134.703 9.25 134.04C9.25 134.84 11.09 135.129 11.7826 134.429C11.9053 134.307 11.963 134.17 11.963 134.04C11.963 134.437 11.963 134.84 11.963 135.237C11.963 135.655 11.8187 136.131 11.5662 136.578L11.963 136.809C11.963 137.205 11.963 137.609 11.963 138.005C11.963 138.171 11.8692 138.33 11.7177 138.452C11.4724 138.654 11.0683 138.791 10.6065 138.791C10.1447 138.784 9.74065 138.647 9.49533 138.445Z" fill="white"/>
<path d="M9.49533 116.434C9.3438 116.304 9.25 116.152 9.25 115.987C9.25 115.323 9.25 114.667 9.25 114.004C9.25 113.348 9.25 112.684 9.25 112.028C9.25 112.8 10.9889 113.095 11.7249 112.475C11.7466 112.461 11.761 112.439 11.7826 112.425C11.9053 112.302 11.963 112.165 11.963 112.036C11.963 112.432 11.963 112.836 11.963 113.232C11.963 113.651 11.8187 114.126 11.5662 114.566L11.963 114.797C11.963 115.193 11.963 115.597 11.963 115.994C11.963 116.16 11.8692 116.318 11.7177 116.441C11.4724 116.643 11.0683 116.772 10.6065 116.772C10.1447 116.765 9.74065 116.635 9.49533 116.434Z" fill="white"/>
<path d="M11.8548 111.718C11.927 111.819 11.963 111.92 11.963 112.028C11.963 112.165 11.9053 112.295 11.7826 112.418C11.761 112.439 11.7466 112.454 11.7249 112.468C10.9889 113.088 9.25 112.8 9.25 112.021C9.25 112.021 9.25 111.754 9.49533 111.632C9.49533 111.762 9.49533 111.891 9.49533 112.021C9.49533 112.021 9.53862 112.31 9.82003 112.475C10.3612 112.785 11.2343 112.692 11.5806 112.346C11.6744 112.252 11.7249 112.144 11.7249 112.021C11.7249 111.87 11.7249 111.726 11.7249 111.574C11.7754 111.617 11.8187 111.668 11.8548 111.718Z" fill="white"/>
<path d="M11.8548 133.737C11.927 133.838 11.963 133.939 11.963 134.047C11.963 134.184 11.9053 134.314 11.7826 134.436C11.09 135.128 9.25 134.84 9.25 134.047C9.25 134.047 9.26443 133.759 9.49533 133.593C9.49533 133.744 9.49533 133.896 9.49533 134.047C9.49533 134.047 9.56748 134.393 9.82003 134.501C10.5055 134.898 11.7249 134.631 11.7249 134.047C11.7249 133.896 11.7249 133.751 11.7249 133.6C11.7754 133.636 11.8187 133.687 11.8548 133.737Z" fill="white"/>
<path d="M11.7257 138.445C11.7257 142.757 11.7257 147.075 11.7257 151.387L9.82079 152.483C9.61154 152.122 9.49609 151.726 9.49609 151.387C9.49609 150.962 9.49609 150.529 9.49609 150.104C9.49609 146.217 9.49609 142.331 9.49609 138.445C9.74142 138.647 10.1455 138.784 10.6073 138.784C11.0691 138.784 11.4804 138.647 11.7257 138.445Z" fill="#E4E4F2"/>
<path d="M11.7257 133.592C11.7257 133.744 11.7257 133.888 11.7257 134.039C11.7257 134.623 10.5063 134.89 9.82079 134.494C9.56825 134.385 9.49609 134.039 9.49609 134.039C9.49609 133.888 9.49609 133.737 9.49609 133.585C9.49609 127.868 9.49609 122.15 9.49609 116.426C9.74142 116.628 10.1455 116.765 10.6073 116.765C11.0691 116.765 11.4731 116.635 11.7185 116.433C11.7257 122.15 11.7257 127.875 11.7257 133.592Z" fill="#E4E4F2"/>
<path d="M10.6073 107.342C11.2206 107.342 11.7185 107.63 11.7185 107.983C11.7185 108.337 11.2206 108.625 10.6073 108.625C9.99396 108.625 9.49609 108.337 9.49609 107.983C9.49609 107.63 9.99396 107.342 10.6073 107.342Z" fill="white"/>
<path d="M9.4955 111.638C9.4955 110.42 9.4955 109.209 9.4955 107.99C9.4955 108.344 9.99337 108.632 10.6067 108.632C11.22 108.632 11.7179 108.344 11.7179 107.99C11.7179 109.187 11.7179 110.384 11.7179 111.581C11.7179 111.732 11.7179 111.876 11.7179 112.028C11.7179 112.15 11.6674 112.258 11.5736 112.352C11.2272 112.698 10.3541 112.799 9.81298 112.482C9.53157 112.316 9.48828 112.028 9.48828 112.028C9.4955 111.898 9.4955 111.768 9.4955 111.638Z" fill="#E4E4F2"/>
<path d="M3.58599 146.066C3.80967 146.189 3.94676 146.47 3.93233 146.895C3.72308 146.773 3.52105 146.657 3.31902 146.542C2.81393 146.246 1.97693 147.169 1.97693 147.962C1.97693 147.962 1.91921 148.272 2.20783 148.474C2.41708 148.597 2.62633 148.712 2.83558 148.835C2.48202 149.065 2.15732 149.094 1.92642 148.964C1.91921 148.957 1.91921 148.957 1.91199 148.957C1.70996 148.835 1.58008 148.568 1.58008 148.2C1.58008 147.703 1.81097 147.111 2.18618 146.657C2.67684 146.059 3.23243 145.879 3.58599 146.066Z" fill="#E4E4F2"/>
<path d="M2.02034 145.157C2.53986 145.46 3.05938 145.756 3.57889 146.059C3.22533 145.871 2.66974 146.051 2.17908 146.65C1.80388 147.104 1.57298 147.695 1.57298 148.193C1.57298 148.56 1.69564 148.82 1.90489 148.95C1.38538 148.654 0.873077 148.351 0.35356 148.056C0.122664 147.926 0 147.652 0 147.291C0 146.109 1.2555 144.718 2.02034 145.157Z" fill="white"/>
<path d="M9.25045 134.039C9.25045 134.198 9.32982 134.342 9.44527 134.45C9.56072 134.558 9.70503 134.63 9.84934 134.688C10.1452 134.796 10.4627 134.832 10.7729 134.811C10.9317 134.803 11.0832 134.775 11.2347 134.731C11.3862 134.688 11.5306 134.623 11.6532 134.529C11.7759 134.443 11.8913 134.328 11.9418 134.176C11.9923 134.025 11.9491 133.859 11.8625 133.736C11.913 133.801 11.9491 133.866 11.9635 133.945C11.9779 134.025 11.9779 134.104 11.9563 134.183C11.913 134.335 11.7903 134.457 11.6676 134.551C11.4079 134.738 11.0904 134.811 10.7801 134.832C10.4699 134.847 10.1452 134.811 9.85656 134.702C9.71225 134.645 9.56794 134.573 9.45249 134.465C9.32261 134.349 9.24324 134.198 9.25045 134.039Z" fill="white"/>
<path d="M51.041 91.9625C51.2214 91.9985 51.409 91.9697 51.5822 91.8976C51.7554 91.8327 51.9141 91.7317 52.0584 91.6164C52.347 91.3857 52.5779 91.0901 52.7655 90.7728L52.7727 90.7656L52.78 90.7728C52.9098 90.8521 53.0469 90.9315 53.1768 91.0108C53.0397 90.9387 52.9098 90.8594 52.7727 90.7873H52.7872C52.6068 91.1117 52.3687 91.4001 52.0728 91.6308C51.9285 91.7462 51.7698 91.8399 51.5966 91.912C51.4162 91.9769 51.2214 92.0057 51.041 91.9625Z" fill="#E4E4F2"/>
<path d="M73.0425 76.7861C73.0425 76.9303 72.9848 77.0745 72.8766 77.1755C72.7755 77.2836 72.6529 77.3557 72.523 77.4134C72.256 77.5287 71.9674 77.5792 71.686 77.572C71.3974 77.572 71.1088 77.5215 70.849 77.4062C70.7191 77.3485 70.5965 77.2692 70.4954 77.1683C70.3944 77.0673 70.3223 76.9303 70.3223 76.7861C70.3223 76.9303 70.3944 77.0673 70.4954 77.161C70.5965 77.262 70.7191 77.3341 70.849 77.3918C71.1088 77.5071 71.3974 77.5504 71.6788 77.5504C71.9602 77.5504 72.2488 77.4999 72.5086 77.3845C72.6384 77.3269 72.7611 77.2548 72.8621 77.1538C72.9704 77.0673 73.0353 76.9303 73.0425 76.7861Z" fill="white"/>
<path d="M73.0427 98.8047C73.0427 98.92 73.0067 99.0354 72.9417 99.1219C72.8768 99.2156 72.783 99.2877 72.6892 99.3526C72.4944 99.468 72.2707 99.5329 72.047 99.5689C71.8233 99.605 71.5924 99.605 71.3687 99.5761C71.1451 99.5401 70.9214 99.4752 70.7266 99.3671C70.9214 99.4752 71.1451 99.5401 71.3687 99.5689C71.5924 99.5978 71.8233 99.5906 72.0398 99.5617C72.2635 99.5257 72.4799 99.4608 72.6748 99.3454C72.7686 99.2877 72.8624 99.2156 72.9273 99.1291C72.9922 99.0282 73.0355 98.9128 73.0427 98.8047Z" fill="white"/>
<path d="M80.3008 121.732C80.3802 121.573 80.4812 121.429 80.5894 121.292C80.6976 121.155 80.8347 121.033 80.9718 120.925C81.1161 120.824 81.2749 120.737 81.448 120.694C81.6212 120.651 81.816 120.665 81.9676 120.766C81.8088 120.687 81.6284 120.687 81.4625 120.73C81.2965 120.773 81.1378 120.86 81.0007 120.961C80.7193 121.163 80.4956 121.437 80.3008 121.732Z" fill="white"/>
<path d="M63.0195 111.79C63.0989 111.638 63.1927 111.487 63.3009 111.35C63.4092 111.213 63.5391 111.091 63.6761 110.982C63.8205 110.881 63.972 110.795 64.1452 110.744C64.3111 110.694 64.4987 110.701 64.6575 110.773C64.4915 110.716 64.3111 110.723 64.1524 110.781C63.9864 110.831 63.8349 110.917 63.705 111.018C63.5679 111.119 63.4452 111.242 63.3298 111.372C63.2144 111.501 63.1133 111.646 63.0195 111.79Z" fill="white"/>
<path d="M31.8045 121.739C31.8045 121.855 31.7684 121.97 31.7034 122.056C31.6385 122.15 31.5447 122.222 31.4509 122.287C31.2561 122.403 31.0324 122.467 30.8087 122.503C30.585 122.54 30.3541 122.54 30.1305 122.511C29.9068 122.475 29.6831 122.41 29.4883 122.302C29.6831 122.41 29.9068 122.475 30.1305 122.503C30.3541 122.532 30.585 122.525 30.8015 122.496C31.0252 122.46 31.2417 122.395 31.4365 122.28C31.5303 122.222 31.6241 122.15 31.689 122.064C31.754 121.963 31.7972 121.847 31.8045 121.739Z" fill="white"/>
<path d="M50.4569 109.41C50.4569 109.482 50.4713 109.554 50.5074 109.619C50.5363 109.684 50.5796 109.742 50.6301 109.792C50.7311 109.893 50.8538 109.965 50.9837 110.023C51.2434 110.131 51.532 110.182 51.8134 110.182C52.0948 110.182 52.3835 110.131 52.636 110.016C52.7659 109.958 52.8885 109.886 52.9823 109.785C53.0834 109.691 53.1555 109.562 53.1627 109.417H53.1699C53.1772 109.562 53.105 109.706 53.004 109.807C52.903 109.915 52.7803 109.994 52.6504 110.059C52.3835 110.182 52.0948 110.225 51.8062 110.218C51.5176 110.21 51.229 110.16 50.9692 110.045C50.8393 109.987 50.7167 109.908 50.6157 109.807C50.5652 109.756 50.5219 109.691 50.493 109.626C50.4641 109.554 50.4497 109.482 50.4569 109.41Z" fill="white"/>
<path d="M20.8157 156.007C20.6569 155.935 20.4765 155.942 20.3106 155.993C20.1446 156.043 19.9931 156.13 19.856 156.231C19.7189 156.331 19.589 156.447 19.4808 156.577C19.3726 156.706 19.2715 156.843 19.1777 156.995C19.3437 156.692 19.5674 156.418 19.8488 156.209C19.9859 156.108 20.1446 156.021 20.3106 155.978C20.4693 155.928 20.6569 155.928 20.8157 156.007Z" fill="white"/>
<path d="M3.57168 146.058C3.44902 146.007 3.31193 145.985 3.17483 146.007C3.04495 146.029 2.91507 146.072 2.79962 146.137C2.56151 146.259 2.35948 146.447 2.17188 146.642C2.25125 146.533 2.34505 146.425 2.44606 146.332C2.54708 146.238 2.66253 146.158 2.77798 146.094C2.90064 146.029 3.03052 145.978 3.17483 145.971C3.31193 145.964 3.45624 145.985 3.57168 146.058Z" fill="white"/>
<path d="M13.7598 134.451L15.7007 133.304L17.6489 132.165L21.5597 129.901L25.4778 127.652L27.4404 126.534L29.4102 125.424L27.462 126.57L25.5138 127.709L21.603 129.98L17.685 132.223L15.7224 133.34L13.7598 134.451Z" fill="white"/>
<path d="M11.9627 134.039L11.9699 134.688C11.9699 134.904 11.9771 135.121 11.9699 135.337C11.941 135.769 11.7967 136.195 11.573 136.57V136.555C11.7029 136.635 11.84 136.714 11.9699 136.793C11.8328 136.721 11.7029 136.642 11.5658 136.57L11.5586 136.562L11.5658 136.555C11.674 136.368 11.7606 136.166 11.8328 135.964C11.8977 135.762 11.9482 135.546 11.9627 135.33C11.9699 135.113 11.9699 134.897 11.9699 134.681L11.9627 134.039Z" fill="#E4E4F2"/>
<path d="M11.9627 112.027L11.9699 112.676C11.9699 112.893 11.9771 113.109 11.9699 113.325C11.941 113.758 11.7967 114.183 11.573 114.558V114.544C11.7029 114.623 11.84 114.702 11.9699 114.781C11.8328 114.709 11.7029 114.637 11.5658 114.558L11.5586 114.551L11.5658 114.544C11.674 114.356 11.7606 114.154 11.8328 113.952C11.8977 113.75 11.9482 113.534 11.9627 113.318C11.9699 113.102 11.9699 112.885 11.9699 112.669L11.9627 112.027Z" fill="#E4E4F2"/>
<path d="M13.7734 112.417L15.7144 111.271L17.6626 110.131L21.5662 107.868L25.4842 105.625L27.4396 104.508L29.4094 103.397L27.4613 104.544L25.5131 105.683L21.6095 107.947L17.6987 110.196L15.7361 111.314L13.7734 112.417Z" fill="white"/>
<path d="M29.4102 104.724L29.973 104.392C30.1606 104.284 30.3482 104.176 30.5358 104.06C30.7162 103.938 30.8749 103.794 31.0192 103.635C31.1635 103.476 31.2862 103.296 31.4016 103.109L31.4089 103.102L31.4161 103.109C31.5459 103.188 31.683 103.267 31.8129 103.347C31.6758 103.275 31.5459 103.195 31.4089 103.123H31.4233C31.214 103.505 30.9182 103.844 30.5502 104.082C30.3626 104.197 30.175 104.298 29.9874 104.407L29.4102 104.724Z" fill="#E4E4F2"/>
<path d="M32.9375 101.365L35.1527 100.06L37.3823 98.7618L41.8342 96.1807L46.2934 93.614L48.5302 92.3379L50.7742 91.0762L48.5519 92.3811L46.3295 93.6789L41.8775 96.26L37.4111 98.8195L35.1743 100.096L32.9375 101.365Z" fill="white"/>
<path d="M54.3184 89.0286L56.2666 87.8823L58.2147 86.7431L62.1255 84.4792L66.0436 82.2298L68.0062 81.1123L69.9688 80.002L68.0278 81.1483L66.0724 82.2875L62.1688 84.5513L58.2508 86.8008L56.2882 87.9183L54.3184 89.0286Z" fill="white"/>
<path d="M69.9746 81.3212C70.458 81.0328 70.9487 80.7516 71.4394 80.4704C71.562 80.3983 71.6847 80.3334 71.8001 80.2541C71.9156 80.1748 72.0238 80.0811 72.1248 79.9874C72.3269 79.7927 72.4928 79.562 72.6371 79.324L72.6443 79.3385C71.8723 78.8915 71.1002 78.4445 70.3354 77.9902C71.1147 78.43 71.8867 78.877 72.6588 79.3168L72.666 79.324L72.6588 79.3313C72.5145 79.5764 72.3485 79.8071 72.1393 80.0018C72.0382 80.1027 71.93 80.1892 71.8146 80.2685C71.6991 80.3478 71.5692 80.4127 71.4466 80.4848L69.9746 81.3212Z" fill="#E4E4F2"/>
<path d="M70.5669 114.868L70.5741 116.087C70.5668 116.498 70.6967 116.894 70.906 117.24H70.8915L71.844 116.692C72.1615 116.512 72.479 116.332 72.7964 116.152C72.479 116.339 72.1687 116.519 71.8512 116.707L70.8988 117.255L70.8915 117.262L70.8843 117.255C70.6823 116.901 70.5452 116.498 70.5596 116.087L70.5669 114.868Z" fill="#D8D8E6"/>
<path d="M63.9003 113.592L63.4313 113.325C63.3519 113.282 63.2725 113.246 63.2004 113.181C63.1354 113.123 63.0849 113.037 63.0633 112.95C63.0128 112.777 63.0272 112.59 63.0705 112.417C63.1138 112.244 63.1787 112.071 63.2725 111.919C63.3663 111.768 63.4746 111.624 63.6117 111.501C63.7488 111.386 63.9003 111.278 64.0807 111.249C64.1672 111.234 64.2611 111.234 64.3476 111.278C64.427 111.314 64.5064 111.364 64.5785 111.407L65.0403 111.681L64.5713 111.415C64.4919 111.371 64.4198 111.321 64.3404 111.285C64.2611 111.249 64.1672 111.249 64.0807 111.263C63.9075 111.299 63.7487 111.4 63.6189 111.516C63.489 111.638 63.3735 111.775 63.287 111.927C63.1932 112.078 63.1282 112.244 63.0849 112.417C63.0416 112.59 63.0272 112.77 63.0777 112.943C63.0994 113.03 63.1426 113.109 63.2076 113.167C63.2725 113.224 63.3591 113.26 63.4313 113.311L63.9003 113.592Z" fill="#797F8D"/>
<path d="M70.4436 103.066C70.8549 102.82 71.2661 102.582 71.6774 102.345L71.6702 102.352V102.345H71.6774C71.8795 102.229 72.0598 102.071 72.2186 101.898C72.3773 101.724 72.5144 101.53 72.6299 101.328L72.6371 101.342C71.865 100.895 71.093 100.448 70.3281 99.9941C71.1074 100.434 71.8795 100.881 72.6515 101.321L72.6587 101.328L72.6515 101.335C72.5361 101.537 72.3918 101.732 72.233 101.905C72.0743 102.078 71.8939 102.229 71.6846 102.352L71.6919 102.345V102.352H71.6846C71.2734 102.597 70.8549 102.828 70.4436 103.066Z" fill="#E4E4F2"/>
<path d="M54.3457 111.04L56.2867 109.894L58.2349 108.754L62.1312 106.491L66.0493 104.248L68.0047 103.131L69.9673 102.021L68.0263 103.167L66.0781 104.306L62.1817 106.57L58.2709 108.812L56.3083 109.93L54.3457 111.04Z" fill="white"/>
<path d="M32.9238 123.39L35.1462 122.085L37.3686 120.788L41.8278 118.206L46.2942 115.64L48.531 114.364L50.775 113.095L48.5526 114.4L46.3302 115.697L41.8711 118.286L37.4047 120.845L35.1679 122.121L32.9238 123.39Z" fill="white"/>
<path d="M31.8048 122.28C31.812 122.756 31.812 123.225 31.812 123.701C31.812 123.939 31.7688 124.176 31.7038 124.4C31.6317 124.623 31.5379 124.847 31.4224 125.049L31.4152 125.056L31.408 125.049C30.6359 124.602 29.8639 124.155 29.0918 123.701C29.8711 124.14 30.6431 124.587 31.4152 125.027L31.4008 125.034C31.5162 124.833 31.6172 124.616 31.6894 124.386C31.7615 124.162 31.8048 123.924 31.8048 123.693C31.7976 123.225 31.7976 122.756 31.8048 122.28Z" fill="#E4E4F2"/>
<path d="M53.1695 109.944C53.1767 110.42 53.1767 110.896 53.1767 111.372C53.1767 111.61 53.1334 111.848 53.0685 112.078C52.9963 112.309 52.9025 112.525 52.7798 112.735L52.7726 112.742L52.7654 112.735C51.9933 112.288 51.2213 111.841 50.4492 111.386C51.2285 111.826 52.0006 112.273 52.7726 112.713L52.7582 112.72C52.8736 112.518 52.9746 112.295 53.0468 112.071C53.119 111.848 53.1623 111.61 53.1623 111.372C53.1623 110.896 53.1623 110.42 53.1695 109.944Z" fill="#E4E4F2"/>
<path d="M3.92446 146.894L3.28228 146.534C3.17405 146.476 3.04417 146.483 2.92872 146.519C2.81328 146.555 2.70504 146.62 2.61124 146.699C2.42364 146.851 2.27211 147.053 2.15666 147.269C2.04122 147.485 1.96906 147.723 1.96185 147.968C1.94741 148.062 1.96185 148.163 2.00514 148.25C2.02679 148.293 2.04843 148.336 2.08451 148.372C2.11337 148.408 2.14945 148.444 2.19274 148.473L2.81328 148.841L2.18553 148.487C2.14945 148.459 2.10616 148.43 2.07729 148.387C2.04122 148.35 2.01957 148.307 1.99792 148.264C1.95463 148.17 1.9402 148.069 1.95463 147.976C1.95463 147.73 2.034 147.485 2.14223 147.269C2.25768 147.053 2.40921 146.851 2.60403 146.699C2.69783 146.62 2.80606 146.555 2.92872 146.519C3.04417 146.483 3.18127 146.483 3.2895 146.541C3.50596 146.642 3.71521 146.772 3.92446 146.894Z" fill="#D8D8E6"/>
<path d="M11.8542 111.718C11.9047 111.783 11.9408 111.855 11.9552 111.927C11.9696 112.006 11.9696 112.085 11.948 112.165C11.9047 112.316 11.7893 112.439 11.6594 112.532C11.3996 112.72 11.0821 112.792 10.7719 112.814C10.4616 112.828 10.1369 112.792 9.84107 112.684C9.69676 112.626 9.55245 112.554 9.43701 112.446C9.32156 112.345 9.24219 112.186 9.24219 112.035C9.24219 112.194 9.32156 112.345 9.43701 112.446C9.55245 112.554 9.69676 112.626 9.84107 112.684C10.1369 112.792 10.4544 112.828 10.7647 112.806C11.0749 112.785 11.3852 112.706 11.645 112.525C11.7676 112.432 11.8831 112.323 11.9336 112.172C11.9913 112.013 11.948 111.84 11.8542 111.718Z" fill="white"/>
<path d="M9.49654 150.104L9.50375 151.322C9.49654 151.733 9.63363 152.129 9.83567 152.476H9.82124L10.7737 151.928C11.0912 151.747 11.4086 151.567 11.7261 151.387C11.4159 151.574 11.0984 151.755 10.7809 151.942L9.82845 152.49L9.82124 152.497L9.81402 152.49C9.61199 152.137 9.47489 151.733 9.48932 151.322L9.49654 150.104Z" fill="#D8D8E6"/>
<path d="M74.9967 71.2306C79.6146 73.8982 79.6146 82.5572 74.9967 90.56C72.6012 94.7057 69.4335 97.8636 66.2948 99.5723C65.263 100.135 64.2384 100.538 63.2354 100.776C61.4099 101.209 59.6854 101.058 58.2423 100.221C53.6172 97.5536 53.6172 88.8946 58.2423 80.8917C62.8674 72.896 70.3788 68.5629 74.9967 71.2306ZM73.3949 89.6372C77.1325 83.17 77.1325 76.1621 73.3949 74.0063C69.6572 71.8506 63.589 75.3546 59.8514 81.8218C56.1137 88.289 56.1137 95.2969 59.8514 97.4526C63.589 99.6083 69.6572 96.1044 73.3949 89.6372Z" fill="#FF6417"/>
<path d="M73.3956 74.0069C77.1332 76.1627 77.1332 83.1706 73.3956 89.6378C69.6579 96.105 63.5897 99.609 59.8521 97.4532C56.1144 95.2975 56.1144 88.2896 59.8521 81.8224C63.5897 75.3552 69.6579 71.8512 73.3956 74.0069Z" fill="#FFD442"/>
<path d="M74.2251 70.7839C74.4848 70.9353 74.7374 71.0795 74.9971 71.2309C70.372 68.5633 62.8679 72.8964 58.2427 80.8992C53.6176 88.9021 53.6176 97.5611 58.2427 100.229C57.983 100.077 57.7304 99.9331 57.4707 99.7817C55.2483 98.4984 54 95.7442 54 92.1177C54 86.5878 56.8862 79.9403 61.3165 75.2684C65.7468 70.6036 70.841 68.83 74.2251 70.7839Z" fill="#E4E4F2"/>
<path d="M74.9972 71.2385L74.7014 71.0943L74.5571 71.0222L74.4055 70.9645L74.1025 70.8491L73.785 70.7554L73.6262 70.7121L73.4675 70.6761L73.15 70.6112L72.8253 70.5679L72.6666 70.5463C72.6089 70.5391 72.5584 70.5391 72.5006 70.5391C71.6276 70.4886 70.7545 70.5752 69.9103 70.8059C68.2218 71.2457 66.6416 72.0676 65.213 73.077C64.4986 73.5888 63.8204 74.144 63.171 74.7352C62.5216 75.3264 61.9155 75.9609 61.3382 76.6242C60.761 77.2875 60.2126 77.9724 59.7003 78.6862C59.188 79.4 58.7118 80.1426 58.2644 80.8996L58.25 80.8924C58.6901 80.1281 59.1592 79.3855 59.657 78.6573C60.1621 77.9364 60.7033 77.237 61.2733 76.5665C61.8433 75.896 62.4494 75.2543 63.0916 74.6487C63.7338 74.0431 64.412 73.4735 65.1264 72.9544C65.8407 72.4353 66.5911 71.9594 67.3776 71.5629L67.6735 71.4115C67.7745 71.361 67.8755 71.3178 67.9765 71.2745L68.2796 71.1375L68.5898 71.0149C68.6908 70.9789 68.7991 70.9356 68.9001 70.8996L69.2176 70.7987C69.4268 70.7266 69.6433 70.6761 69.8598 70.6184C70.7184 70.4093 71.6203 70.3228 72.5078 70.4021C73.3954 70.4742 74.254 70.7626 75.0116 71.2168L74.9972 71.2385Z" fill="white"/>
<path d="M65.3218 84.0059C65.3218 85.2965 64.4848 86.551 63.3519 87.4811C64.6291 86.8682 65.6392 87.0845 65.6392 88.613C65.6392 90.3866 64.29 92.4991 62.183 93.7175C60.9708 94.4169 59.9101 94.5899 59.1309 94.1141L59.9679 92.8596C60.6317 93.1696 61.3172 93.0831 62.1397 92.6072C63.4169 91.8718 64.1889 90.639 64.1889 89.4421C64.1889 88.0506 63.4024 88.0795 62.1686 88.786L61.411 89.2258L61.5769 88.0506L62.0892 87.755C63.0922 87.1783 63.922 86.0896 63.922 84.9072C63.922 83.9555 63.2581 83.7464 62.2407 84.3304C61.4398 84.7918 60.8265 85.4191 60.1482 86.4501L59.4195 86.0391C60.2853 84.7341 61.2234 83.7969 62.3201 83.1696C64.2611 82.0449 65.3218 82.6433 65.3218 84.0059Z" fill="#232B3F"/>
<path d="M74.1095 81.5909C74.1095 84.9579 72.9839 87.4813 70.711 88.7935C68.4381 90.1057 67.3125 88.8728 67.3125 85.5058C67.3125 82.1389 68.4381 79.6299 70.711 78.3177C72.9911 77.0055 74.1095 78.2384 74.1095 81.5909ZM68.77 84.6695C68.77 87.6544 69.4339 88.4258 70.711 87.6904C71.9665 86.9622 72.652 85.4193 72.652 82.4345C72.652 79.464 71.9665 78.707 70.711 79.428C69.4411 80.1634 68.77 81.6991 68.77 84.6695Z" fill="#232B3F"/>
<path d="M26.9967 96.2249C31.6146 98.8925 31.6146 107.551 26.9967 115.554C24.6012 119.7 21.4335 122.858 18.2948 124.567C17.263 125.129 16.2384 125.533 15.2354 125.771C13.4099 126.203 11.6854 126.052 10.2423 125.215C5.61715 122.548 5.61715 113.889 10.2423 105.886C14.8674 97.8903 22.3788 93.5644 26.9967 96.2249Z" fill="white"/>
<path d="M25.8134 114.876C23.6487 118.625 20.6687 121.726 17.6382 123.377C16.7074 123.881 15.7982 124.242 14.9252 124.451C14.3696 124.581 13.8284 124.646 13.3161 124.646C12.4214 124.646 11.6205 124.444 10.9278 124.04C9.1311 123.002 8.14258 120.702 8.14258 117.558C8.14258 114.141 9.31149 110.24 11.4256 106.578C14.752 100.824 19.8894 96.8086 23.9229 96.8086C24.8176 96.8086 25.6185 97.0105 26.3112 97.4142C26.4195 97.4791 26.5277 97.544 26.6287 97.6161C27.2276 98.0343 27.711 98.5966 28.0935 99.2816C29.9839 102.685 29.1902 109.036 25.8134 114.876Z" fill="#428AC7"/>
<path d="M26.2251 95.7852C26.4848 95.9366 26.7374 96.0808 26.9971 96.2322C22.3792 93.5646 14.8679 97.8905 10.2427 105.893C5.61758 113.896 5.61758 122.555 10.2427 125.223C9.99018 125.071 9.73042 124.927 9.47066 124.776C7.24828 123.492 6 120.738 6 117.112C6 111.582 8.8862 104.934 13.3165 100.262C17.7396 95.5977 22.841 93.8313 26.2251 95.7852Z" fill="#E4E4F2"/>
<path d="M26.9972 96.2394L26.7014 96.0952L26.557 96.0231L26.4055 95.9655L26.1025 95.8501L25.785 95.7564L25.6263 95.7131L25.4675 95.6771L25.15 95.6122L24.8253 95.5689L24.6666 95.5473C24.6089 95.5401 24.5584 95.5401 24.5006 95.5401C23.6276 95.4896 22.7545 95.5761 21.9103 95.8068C20.2218 96.2466 18.6416 97.0686 17.213 98.0779C16.4986 98.5898 15.8204 99.145 15.171 99.7362C14.5216 100.327 13.9155 100.962 13.3382 101.625C12.761 102.288 12.2126 102.973 11.7003 103.687C11.188 104.401 10.7118 105.144 10.2644 105.901L10.25 105.893C10.6901 105.129 11.1592 104.387 11.657 103.658C12.1621 102.937 12.7033 102.238 13.2733 101.567C13.8433 100.897 14.4494 100.255 15.0916 99.6497C15.7338 99.044 16.412 98.4745 17.1264 97.9554C17.8407 97.4363 18.5911 96.9604 19.3776 96.5639L19.6735 96.4125C19.7745 96.362 19.8755 96.3187 19.9765 96.2755L20.2796 96.1385L20.5898 96.0159C20.6908 95.9799 20.7991 95.9366 20.9001 95.9006L21.2176 95.7996C21.4268 95.7275 21.6433 95.6771 21.8598 95.6194C22.7184 95.4103 23.6203 95.3238 24.5078 95.4031C25.3954 95.4752 26.254 95.7636 27.0116 96.2178L26.9972 96.2394Z" fill="white"/>
<path d="M19.2918 113.161L20.1505 113.521L13.9668 119.57L16.4489 111.964L17.3076 112.324L26.6444 97.6162C27.2433 98.0344 27.7268 98.5967 28.1092 99.2817L19.2918 113.161Z" fill="white"/>
<path d="M64.6573 102.532C64.9098 102.388 65.1407 102.367 65.3067 102.446C65.3211 102.453 65.3283 102.46 65.3428 102.468C65.5159 102.568 65.6242 102.785 65.6242 103.095V114.313C65.6242 114.933 65.1912 115.683 64.6501 115.993L25.7729 138.43C25.4987 138.589 25.2534 138.603 25.073 138.488C24.9071 138.38 24.7988 138.17 24.7988 137.868V126.649C24.7988 126.029 25.2318 125.279 25.7729 124.969L64.6573 102.532Z" fill="white"/>
<path d="M24.7993 126.649L23.4355 125.864C23.4355 125.243 23.8685 124.494 24.4096 124.184L63.3012 101.747C63.561 101.595 63.8063 101.574 63.9867 101.682C64.4269 101.934 64.8742 102.194 65.3144 102.446C65.1412 102.367 64.9103 102.388 64.665 102.533L25.7734 124.97C25.2322 125.28 24.7993 126.029 24.7993 126.649Z" fill="#E4E4F2"/>
<path d="M62.7815 115.957L55.5372 120.139L51.8789 116.635L55.3207 109.043L62.5651 104.861L59.1305 112.453L62.7815 115.957Z" fill="#EB4A00"/>
<path d="M51.6624 122.367L44.4108 126.556L40.7598 123.052L44.1943 115.46L51.4459 111.278L48.0114 118.87L51.6624 122.367Z" fill="#EB4A00"/>
<path d="M40.5433 128.784L33.2917 132.966L29.6406 129.469L33.0752 121.877L40.3268 117.695L36.8922 125.287L40.5433 128.784Z" fill="#EB4A00"/>
<path d="M29.4245 135.2L25.7734 137.306V131.696L29.4245 135.2Z" fill="#EB4A00"/>
<path d="M29.208 124.111L25.7734 131.696V126.094L29.208 124.111Z" fill="#EB4A00"/>
<path d="M25.0735 138.488C24.6261 138.228 24.1715 137.969 23.7242 137.709C23.551 137.608 23.4355 137.392 23.4355 137.082V125.863L24.7993 126.649V137.868C24.7993 138.17 24.9003 138.387 25.0735 138.488Z" fill="#797F8D"/>
<path d="M25.7734 124.969L30.6078 122.128L35.4566 119.302L45.1687 113.671L54.9024 108.084L59.7729 105.301L64.6578 102.532L59.8162 105.38L54.9746 108.206L45.2625 113.83L35.5288 119.418L30.6511 122.201L25.7734 124.969Z" fill="white"/>
<path d="M25.7441 137.349V126.08L25.7586 126.072L64.679 103.621V114.89L62.7958 115.979L25.7441 137.349ZM25.7946 126.101V137.269L64.6357 114.861V103.693L25.7946 126.101Z" fill="#E4E4F2"/>
</g>
<defs>
<clipPath id="clip0_146_9004">
<rect width="83" height="90" fill="white" transform="translate(0 69)"/>
</clipPath>
</defs>
</svg>
