<svg width="512" height="154" viewBox="0 0 528 159" fill="none" xmlns="http://www.w3.org/2000/svg">
<path d="M3.03906 124.306L50.0886 97.8389L106.076 129.744L59.1548 156.802L3.03906 124.306Z" fill="#3B495C"/>
<path d="M106.076 129.744V131.942L59.1543 158.999V156.801L106.076 129.744Z" fill="#233143"/>
<path d="M3.03906 124.307V126.505L59.1548 159V156.802L3.03906 124.307Z" fill="#233143"/>
<path d="M50.6332 73.3643L10.4199 96.1944V123.151L50.6332 100.028V73.3643Z" fill="#C6C3C1"/>
<path d="M12.7361 96.6875L11.123 97.6014V124.563L12.7361 123.635V96.6875Z" fill="#FBAD32"/>
<path opacity="0.5" d="M23.3063 104.169L11.9277 110.713V113.61L25.8424 105.613L23.3063 104.169Z" fill="white"/>
<path opacity="0.5" d="M26.8843 106.202L11.9277 114.802V115.643L27.62 106.618L26.8843 106.202Z" fill="white"/>
<path opacity="0.5" d="M11.9277 97.7119V98.667L12.764 98.1872L11.9277 97.7119Z" fill="white"/>
<path opacity="0.5" d="M11.9277 124.098L30.1973 134.599V108.085L30.1105 108.035L11.9277 118.486V124.098Z" fill="white"/>
<path opacity="0.5" d="M28.141 106.915L11.9277 116.237V117.891L29.585 107.738L28.141 106.915Z" fill="white"/>
<path d="M41.8172 99.0511V98.457L27.6191 106.618L28.1401 106.916L41.8172 99.0511Z" fill="white"/>
<path opacity="0.8" d="M27.62 106.618L11.9277 115.643V116.237L28.141 106.915L27.62 106.618Z" fill="white"/>
<path d="M41.9607 100.623L29.5859 107.738L30.1115 108.035L41.9607 101.217V100.623Z" fill="white"/>
<path opacity="0.8" d="M11.9277 117.891V118.485L30.1105 108.034L29.585 107.737L11.9277 117.891Z" fill="white"/>
<path d="M41.8174 97.6155V96.4229L25.8418 105.612L26.8837 106.202L41.8174 97.6155Z" fill="white"/>
<path opacity="0.8" d="M25.8424 105.613L11.9277 113.61V114.803L26.8843 106.203L25.8424 105.613Z" fill="white"/>
<path d="M35.6212 97.0857V85.04L12.7637 98.187L23.3059 104.169L35.6212 97.0857Z" fill="white"/>
<path opacity="0.8" d="M12.764 98.1875L11.9277 98.6673V110.713L23.3063 104.169L12.764 98.1875Z" fill="white"/>
<path d="M99.4047 102.445L59.1914 125.275V152.232L99.4047 129.109V102.445Z" fill="#FBAD32"/>
<path d="M40.5936 112.736L38.9805 113.655V140.611L40.5936 139.684V112.736Z" fill="#FBAD32"/>
<path d="M11.1511 97.999L9.69336 97.1719V123.767L11.1511 124.608V97.999Z" fill="#FBAD32"/>
<path d="M29.6621 108.51V135.252L38.9797 140.612V113.801L29.6621 108.51Z" fill="#FBAD32"/>
<path opacity="0.5" d="M53.5799 121.446L39.9531 129.283V130.12L54.3157 121.862L53.5799 121.446Z" fill="white"/>
<path opacity="0.5" d="M54.8366 122.159L39.9531 130.714V132.368L56.2852 122.977L54.8366 122.159Z" fill="white"/>
<path opacity="0.5" d="M50.0019 119.413L39.9531 125.189V128.091L52.538 120.853L50.0019 119.413Z" fill="white"/>
<path opacity="0.5" d="M39.9531 140.091L58.2182 150.592V124.079L56.8061 123.274L39.9531 132.967V140.091Z" fill="white"/>
<path opacity="0.8" d="M54.3157 121.862L39.9531 130.12V130.714L54.8366 122.159L54.3157 121.862Z" fill="white"/>
<path opacity="0.8" d="M39.9531 132.367V132.966L56.8061 123.274L56.2852 122.977L39.9531 132.367Z" fill="white"/>
<path opacity="0.8" d="M52.538 120.853L39.9531 128.091V129.284L53.5799 121.447L52.538 120.853Z" fill="white"/>
<path opacity="0.8" d="M39.9531 113.705V125.189L50.0019 119.413L39.9531 113.705Z" fill="white"/>
<path d="M49.1786 119.001L48.6074 118.677V145.058L49.1786 145.387V119.001Z" fill="#888D9A"/>
<path d="M57.2344 124.165V151.108L59.1902 152.232V125.275L57.2344 124.165Z" fill="#FBAD32"/>
<path d="M59.1906 125.888L56.1289 118.677L99.4038 93.8271V103.085L59.1906 125.888Z" fill="#BECCC6"/>
<path d="M99.4053 93.8271L53.4891 120.468L9.74805 95.687L55.5866 69L99.4053 93.8271Z" fill="white"/>
<path d="M93.9581 94.654L95.4707 93.7812L55.8241 70.8643L16.7441 93.5345L18.3618 94.4895L55.9292 72.6967L93.9581 94.654Z" fill="#7C8982"/>
<path d="M93.9569 94.6546L55.928 72.6973L23.4375 91.5427L61.4116 113.473L93.9569 94.6546Z" fill="#A2AAA6"/>
<path d="M56.3263 116.416L61.4123 113.473L23.4383 91.543L18.3613 94.4904L56.3263 116.416Z" fill="#8C9993"/>
<path d="M10.1502 88.499V89.189L3.03516 93.2972V92.6072L10.1502 88.499Z" fill="#243954"/>
<path d="M10.1502 94.9648V95.6594L3.03516 99.7676V99.073L10.1502 94.9648Z" fill="#243954"/>
<path d="M8.7832 87.3154L58.2866 115.419V126.4L8.7832 97.9354V87.3154Z" fill="#243954"/>
<path d="M9.69257 86.8262L8.7832 87.3151L58.2866 115.419L59.1914 114.93L9.69257 86.8262Z" fill="#243954"/>
<path d="M58.2871 126.4L59.1919 125.911V114.93L58.2871 115.419V126.4Z" fill="#243954"/>
<path d="M31.8594 118.782L37.4572 122.013V120.153L31.8594 117.005V118.782Z" fill="white"/>
<path d="M54.2155 138.761L50.8613 136.841V130.878L54.2155 132.797V138.761Z" fill="#243954"/>
<path d="M53.8908 133.104L51.1855 131.555V131.92L53.8908 133.469V133.104Z" fill="white"/>
<path d="M53.8908 133.839L51.1855 132.29V132.66L53.8908 134.209V133.839Z" fill="white"/>
<path d="M51.3223 134.25C51.3223 133.729 51.5279 133.542 51.8112 133.706C52.0945 133.871 52.3002 134.296 52.3002 134.817C52.3002 135.342 52.0945 135.534 51.8112 135.37C51.5233 135.205 51.3223 134.776 51.3223 134.25ZM51.9894 134.639C51.9894 134.268 51.9072 134.095 51.8067 134.035C51.7061 133.976 51.6284 134.058 51.6284 134.428C51.6284 134.803 51.7107 134.981 51.8067 135.041C51.9072 135.096 51.9894 135.009 51.9894 134.639ZM51.8798 136.462L52.9399 134.36L53.1913 134.506L52.1357 136.613L51.8798 136.462ZM52.7663 136.137C52.7663 135.616 52.9765 135.429 53.2552 135.594C53.5386 135.758 53.7442 136.183 53.7442 136.704C53.7442 137.23 53.5386 137.422 53.2552 137.257C52.9719 137.092 52.7663 136.663 52.7663 136.137ZM53.438 136.526C53.438 136.151 53.3558 135.982 53.2598 135.923C53.1593 135.863 53.077 135.941 53.077 136.316C53.077 136.69 53.1593 136.869 53.2598 136.928C53.3558 136.983 53.438 136.901 53.438 136.526Z" fill="white"/>
<path d="M47.2188 130.316L45.2676 129.201V125.729L47.2188 126.844V130.316Z" fill="#243954"/>
<path d="M28.0859 127.396L21.1445 123.421V111.073L28.0859 115.049V127.396Z" fill="#243954"/>
<path d="M27.6697 117.279L21.7383 113.884V114.574L27.6697 117.969V117.279Z" fill="white"/>
<path d="M27.6697 116.041L21.7383 112.646V113.336L27.6697 116.731V116.041Z" fill="white"/>
<path d="M8.36203 87.2881L0.662109 91.6613V102.642L8.36203 98.2142V87.2881Z" fill="#243954"/>
<path d="M8.36203 92.1221L0.662109 96.4953V97.1487L8.36203 92.7253V92.1221Z" fill="white"/>
<path d="M8.36203 93.6035L0.662109 97.9721V98.6302L8.36203 94.2021V93.6035Z" fill="white"/>
<path d="M8.36203 95.0107L0.662109 99.3839V100.037L8.36203 95.6094V95.0107Z" fill="white"/>
<path d="M0 102.249L0.662605 102.642V91.6606L0 91.2676V102.249Z" fill="#243954"/>
<path d="M8.36253 87.2878L7.69992 86.8994L0 91.268L0.662605 91.661L8.36253 87.2878Z" fill="#243954"/>
<rect x="166" width="362" height="110" rx="18" fill="#006DB7"/>
<path d="M110 102L221.5 66.026L189.5 42L110 102Z" fill="#006DB7"/>
<rect x="191.048" y="34.0476" width="41.9048" height="41.9048" rx="20.9524" fill="#FFB600"/>
<rect x="191.048" y="34.0476" width="41.9048" height="41.9048" rx="20.9524" stroke="white" stroke-width="2.09524"/>
<g clip-path="url(#clip0_424_2559)">
<path d="M200.375 63.3886C200.375 63.4261 200.379 63.4599 200.39 63.4936C200.39 63.5049 200.398 63.5161 200.401 63.5274C200.413 63.5574 200.431 63.5874 200.454 63.6136C200.458 63.6211 200.461 63.6249 200.465 63.6324C200.465 63.6324 200.469 63.6324 200.472 63.6361C200.499 63.6661 200.529 63.6924 200.566 63.7111C202.205 64.5699 206.255 66.0661 206.424 66.1261C206.439 66.1299 206.45 66.1299 206.465 66.1336C206.472 66.1336 206.48 66.1411 206.491 66.1449C206.589 66.1599 206.713 66.1674 206.855 66.1674C209.938 66.1674 222.789 62.5411 223.359 62.3799C223.531 62.3311 223.644 62.1624 223.621 61.9824C223.014 57.2236 221.375 49.4574 221.36 49.3786C221.36 49.3749 221.356 49.3711 221.356 49.3674C221.345 49.3299 221.33 49.2961 221.311 49.2624C221.308 49.2549 221.304 49.2474 221.3 49.2436C221.278 49.2099 221.244 49.1799 221.21 49.1574C221.195 49.1461 221.176 49.1386 221.157 49.1311C221.142 49.1236 221.128 49.1124 221.109 49.1086L217.625 48.0849C216.267 45.0474 214.318 43.5849 211.989 43.8586C211.501 43.9149 211.051 44.0499 210.642 44.2561C210.436 44.2186 210.222 44.1961 210.001 44.1924C208.899 44.1811 207.961 44.6161 207.226 45.4824C206.341 46.5136 205.786 48.1674 205.561 50.3911C203.615 50.7361 202.186 50.9799 202.164 50.9836C202.149 50.9836 202.141 50.9949 202.126 50.9986C202.119 50.9986 202.107 50.9986 202.1 50.9986C202.089 50.9986 202.081 51.0099 202.074 51.0174C202.044 51.0324 202.018 51.0474 201.995 51.0661C201.98 51.0774 201.969 51.0886 201.957 51.1036C201.935 51.1261 201.92 51.1524 201.905 51.1824C201.901 51.1936 201.89 51.2011 201.886 51.2124C201.159 53.1249 200.409 62.9461 200.379 63.3624V63.3661V63.3849L200.375 63.3886ZM206.533 50.9574C206.574 50.9499 206.615 50.9424 206.66 50.9349C207.151 50.8449 207.661 50.7549 208.182 50.6574C208.197 51.0436 208.227 51.4411 208.273 51.8536C206.499 52.1986 205.344 52.3899 204.837 52.4199L203.281 51.5274C204.054 51.3924 205.213 51.1936 206.536 50.9536L206.533 50.9574ZM208.16 49.9224C207.995 49.9524 207.83 49.9824 207.665 50.0124C207.823 48.8986 208.081 48.0099 208.422 47.3911C208.246 48.1261 208.156 48.9736 208.156 49.9224H208.16ZM203.416 61.4686L205.674 65.0724C204.504 64.6261 202.584 63.8761 201.38 63.3061L203.42 61.4724L203.416 61.4686ZM203.859 60.8049V52.7011L204.406 53.0161C204.552 54.4261 205.201 60.4861 205.749 63.8236L203.859 60.8086V60.8049ZM202.438 51.8874L203.131 52.2849V60.7486L201.17 62.5149C201.361 60.1749 201.905 53.9724 202.434 51.8874H202.438ZM206.806 65.4511C206.405 64.1761 205.606 57.5086 205.145 53.1286C205.76 53.0611 206.803 52.8849 208.351 52.5811C208.475 53.4549 208.621 54.1336 208.707 54.5049C208.831 54.9849 209.262 55.3224 209.757 55.3224C209.847 55.3224 209.938 55.3111 210.024 55.2886C210.597 55.1424 210.954 54.5574 210.811 53.9761C210.688 53.4774 210.568 52.8174 210.477 52.1499C212.142 51.8049 214.108 51.3849 216.331 50.8899C216.519 51.5536 216.68 52.2474 216.796 52.9111C216.796 52.9261 216.8 52.9374 216.804 52.9486C216.845 53.2336 216.995 53.4849 217.227 53.6574C217.46 53.8299 217.741 53.9049 218.03 53.8599C218.319 53.8186 218.57 53.6649 218.743 53.4324C218.915 53.1999 218.986 52.9149 218.945 52.6299C218.93 52.5211 218.791 51.6099 218.454 50.4099C219.481 50.1774 220.287 49.9936 220.722 49.8924C221.045 51.4449 222.305 57.6174 222.856 61.7649C218.761 62.9161 208.955 65.5261 206.802 65.4399L206.806 65.4511ZM211.805 46.1161C211.839 46.1049 211.869 46.0899 211.903 46.0824C212.007 46.0524 212.12 46.0261 212.236 46.0111C212.263 46.0111 212.292 46.0111 212.319 46.0074C212.911 46.6636 213.395 47.6049 213.755 48.8161C213.736 48.8199 213.714 48.8236 213.695 48.8311C213.523 48.8686 213.342 48.9061 213.159 48.9474C212.773 47.6799 212.236 46.7724 211.565 46.2286C211.58 46.2211 211.591 46.2136 211.602 46.2061C211.666 46.1724 211.734 46.1461 211.805 46.1199V46.1161ZM210.403 51.4261C210.365 51.0286 210.339 50.6349 210.331 50.2524C211.318 50.0611 212.199 49.8849 212.971 49.7236H212.979C213.069 49.7049 213.155 49.6861 213.245 49.6674C213.372 49.6411 213.492 49.6149 213.612 49.5886C213.627 49.5886 213.642 49.5811 213.657 49.5774C213.815 49.5436 213.969 49.5099 214.115 49.4761C214.171 49.4649 214.231 49.4499 214.287 49.4386C214.842 49.3149 215.319 49.2024 215.709 49.1011C215.851 49.4349 215.99 49.7986 216.118 50.1886C213.95 50.6724 212.03 51.0849 210.399 51.4224L210.403 51.4261ZM214.464 48.6586C214.171 47.6649 213.8 46.8286 213.35 46.1574C214.111 46.4724 214.801 47.2374 215.401 48.4336C215.127 48.5011 214.813 48.5761 214.46 48.6586H214.464ZM211.003 46.7424C211.003 46.7424 211.014 46.7311 211.017 46.7236C211.599 47.1474 212.086 47.9574 212.443 49.0936C211.805 49.2249 211.1 49.3636 210.328 49.5136C210.369 48.2799 210.597 47.3236 211.003 46.7424ZM218.24 49.7236C218.154 49.4611 218.068 49.2024 217.974 48.9511L219.575 49.4236C219.193 49.5099 218.743 49.6149 218.244 49.7274L218.24 49.7236ZM212.071 44.5861C212.229 44.5674 212.382 44.5599 212.536 44.5599C214.378 44.5599 215.885 45.8949 217.029 48.5386C217.257 49.0786 217.468 49.6599 217.651 50.2599C218.052 51.5874 218.21 52.6299 218.225 52.7461C218.24 52.8399 218.214 52.9336 218.157 53.0124C218.101 53.0874 218.019 53.1399 217.921 53.1511C217.827 53.1661 217.737 53.1399 217.659 53.0836C217.584 53.0274 217.535 52.9449 217.52 52.8474C217.52 52.8361 217.513 52.8061 217.513 52.7949C217.374 51.9886 217.175 51.1486 216.935 50.3574C216.721 49.6674 216.5 49.0711 216.249 48.5274C215.266 46.3674 214.01 45.2724 212.517 45.2724C212.499 45.2724 212.484 45.2724 212.465 45.2724C212.364 45.2649 212.255 45.2799 212.15 45.2911C211.554 45.3624 211.055 45.5986 210.68 45.9924C210.68 45.9924 210.68 45.9924 210.676 45.9961C210.579 46.0936 210.489 46.2061 210.403 46.3261C209.859 47.1099 209.585 48.3324 209.589 49.9561C209.589 50.5824 209.634 51.2386 209.712 51.9061C209.806 52.7049 209.953 53.5449 210.106 54.1486C210.151 54.3399 210.035 54.5311 209.847 54.5799C209.671 54.6249 209.461 54.5086 209.413 54.3099C209.341 53.9986 209.158 53.1624 209.023 52.1011C208.94 51.4374 208.895 50.8036 208.884 50.2149C208.85 48.5386 209.094 47.2111 209.604 46.2699C209.682 46.1236 209.746 46.0186 209.818 45.9174C209.889 45.8124 209.968 45.7149 210.046 45.6211C210.286 45.3436 210.564 45.1186 210.868 44.9499C211.227 44.7549 211.629 44.6274 212.071 44.5786V44.5861ZM207.774 45.9586C208.299 45.3399 208.944 44.9986 209.698 44.9349C209.653 44.9799 209.611 45.0286 209.566 45.0774C209.536 45.1111 209.506 45.1411 209.476 45.1749C209.386 45.2799 209.3 45.3924 209.217 45.5086C209.18 45.5611 209.142 45.6211 209.105 45.6811C209.094 45.6999 209.083 45.7186 209.071 45.7374C209.056 45.7636 209.041 45.7861 209.026 45.8124C208.715 45.9474 208.434 46.1611 208.182 46.4499C207.549 47.1924 207.121 48.4374 206.908 50.1549C206.758 50.1811 206.611 50.2074 206.461 50.2374C206.405 50.2486 206.349 50.2561 206.293 50.2674C206.51 48.3211 207.016 46.8399 207.77 45.9624L207.774 45.9586Z" fill="white"/>
<path d="M216.514 57.3254C216.158 57.0217 215.64 56.8567 214.984 56.8267L213.975 56.7854C213.645 56.7704 213.552 56.7104 213.54 56.7029C213.529 56.6954 213.507 56.6804 213.507 56.5979C213.507 56.5154 213.518 56.3879 213.668 56.2417C213.799 56.1142 214.005 56.0204 214.275 55.9717C214.515 55.9267 214.714 55.9117 214.868 55.9304C215.033 55.9492 215.19 55.9792 215.322 56.0204C215.558 56.0954 215.775 56.0992 215.967 56.0279C216.15 55.9604 216.297 55.8442 216.402 55.6867C216.499 55.5442 216.555 55.3867 216.574 55.2142C216.593 55.0304 216.559 54.8579 216.473 54.6967C216.383 54.5242 216.24 54.3967 216.072 54.3254C215.82 54.1979 215.532 54.1154 215.213 54.0817C215.13 54.0742 215.052 54.0667 214.969 54.0629L214.958 53.8904C214.943 53.6467 214.842 53.4404 214.658 53.2942C214.474 53.1479 214.249 53.0954 214.009 53.1367C213.777 53.1779 213.578 53.2942 213.432 53.4779C213.285 53.6617 213.21 53.8754 213.222 54.1042L213.233 54.3854C212.978 54.4904 212.745 54.6217 212.543 54.7754C212.198 55.0342 211.924 55.3454 211.729 55.7054C211.527 56.0804 211.425 56.4892 211.425 56.9204C211.425 57.5129 211.605 57.9854 211.954 58.3192C212.299 58.6492 212.809 58.8292 213.469 58.8592L214.5 58.9042C214.718 58.9117 214.838 58.9379 214.902 58.9642C214.984 58.9942 215.003 59.0204 215.007 59.0242C215.025 59.0542 215.04 59.0954 215.044 59.1517C215.052 59.2342 215.033 59.3092 214.995 59.3842C214.954 59.4592 214.875 59.5379 214.759 59.6092C214.624 59.6954 214.433 59.7629 214.185 59.8117C213.837 59.8829 213.54 59.8979 213.304 59.8642C213.057 59.8267 212.865 59.7817 212.734 59.7292C212.415 59.6092 212.172 59.6692 212.022 59.7404C211.834 59.8304 211.68 59.9692 211.568 60.1567C211.463 60.3329 211.399 60.5242 211.38 60.7267C211.362 60.9367 211.392 61.1354 211.47 61.3229C211.564 61.5442 211.74 61.7054 211.969 61.7879C212.22 61.8892 212.524 61.9604 212.892 62.0092C213.079 62.0354 213.282 62.0392 213.503 62.0317L213.514 62.3242C213.525 62.6092 213.627 62.8529 213.814 63.0292C213.972 63.1792 214.17 63.2579 214.384 63.2579C214.448 63.2579 214.512 63.2504 214.575 63.2392C214.842 63.1829 215.063 63.0292 215.217 62.7892C215.359 62.5679 215.427 62.3204 215.408 62.0542L215.382 61.5967C215.674 61.4579 215.937 61.2854 216.162 61.0904C216.51 60.7904 216.777 60.4304 216.953 60.0217C217.129 59.6167 217.197 59.1742 217.155 58.7129C217.103 58.1167 216.885 57.6554 216.51 57.3367L216.514 57.3254ZM216.289 59.7179C216.154 60.0254 215.955 60.2954 215.689 60.5242C215.464 60.7192 215.187 60.8842 214.872 61.0117C214.725 61.0717 214.635 61.2142 214.647 61.3679L214.688 62.0767C214.695 62.1892 214.669 62.2867 214.609 62.3767C214.545 62.4742 214.478 62.4967 214.429 62.5079C214.358 62.5229 214.335 62.5042 214.317 62.4854C214.287 62.4592 214.249 62.4067 214.242 62.2829L214.219 61.6117C214.219 61.5104 214.17 61.4129 214.092 61.3492C214.024 61.2929 213.942 61.2629 213.855 61.2629C213.84 61.2629 213.825 61.2629 213.81 61.2629C213.495 61.3004 213.222 61.3042 212.989 61.2742C212.685 61.2329 212.434 61.1729 212.228 61.0942C212.164 61.0717 212.149 61.0454 212.138 61.0192C212.108 60.9479 212.097 60.8654 212.104 60.7754C212.112 60.6817 212.138 60.5992 212.187 60.5204C212.228 60.4529 212.273 60.4117 212.333 60.3817C212.363 60.3667 212.412 60.3704 212.464 60.3929C212.644 60.4642 212.884 60.5242 213.192 60.5692C213.51 60.6179 213.889 60.5992 214.32 60.5129C214.658 60.4454 214.928 60.3479 215.138 60.2129C215.363 60.0704 215.528 59.9017 215.629 59.7142C215.73 59.5192 215.775 59.3129 215.76 59.0954C215.749 58.9079 215.693 58.7392 215.595 58.6004C215.494 58.4504 215.337 58.3417 215.134 58.2704C214.969 58.2104 214.763 58.1804 214.515 58.1729L213.488 58.1279C213.012 58.1092 212.659 57.9929 212.445 57.7904C212.243 57.5954 212.142 57.3104 212.142 56.9167C212.142 56.6017 212.213 56.3167 212.359 56.0467C212.505 55.7767 212.708 55.5479 212.97 55.3492C213.18 55.1917 213.428 55.0642 213.713 54.9704C213.867 54.9179 213.968 54.7754 213.96 54.6142L213.942 54.0704C213.942 54.0179 213.957 53.9729 213.994 53.9279C214.032 53.8829 214.073 53.8567 214.129 53.8492C214.178 53.8417 214.189 53.8492 214.2 53.8567C214.212 53.8679 214.227 53.8754 214.227 53.9242L214.257 54.4454C214.268 54.6442 214.44 54.7979 214.639 54.7867C214.819 54.7754 214.973 54.7792 215.13 54.7979C215.359 54.8204 215.562 54.8804 215.753 54.9742C215.809 54.9967 215.82 55.0229 215.828 55.0342C215.847 55.0679 215.854 55.1017 215.847 55.1392C215.843 55.1917 215.824 55.2367 215.794 55.2817C215.779 55.3042 215.757 55.3267 215.708 55.3492C215.697 55.3529 215.652 55.3642 215.539 55.3304C215.355 55.2742 215.157 55.2367 214.943 55.2142C214.718 55.1917 214.455 55.2067 214.144 55.2629C213.728 55.3379 213.398 55.4954 213.162 55.7242C212.903 55.9754 212.772 56.2867 212.779 56.6204C212.79 56.9879 212.97 57.1942 213.117 57.2992C213.3 57.4304 213.559 57.4979 213.942 57.5167L214.95 57.5579C215.445 57.5804 215.813 57.6929 216.045 57.8879C216.27 58.0792 216.402 58.3679 216.435 58.7729C216.465 59.1179 216.417 59.4292 216.289 59.7254V59.7179Z" fill="white"/>
</g>
<path d="M262.141 35.2891C262.055 34.4827 261.692 33.8549 261.052 33.4055C260.418 32.9562 259.593 32.7315 258.577 32.7315C257.863 32.7315 257.251 32.8393 256.74 33.0547C256.229 33.2701 255.838 33.5625 255.567 33.9318C255.297 34.3011 255.158 34.7228 255.152 35.1967C255.152 35.5907 255.241 35.9323 255.42 36.2216C255.604 36.5109 255.854 36.7571 256.168 36.9602C256.482 37.1572 256.829 37.3234 257.211 37.4588C257.593 37.5942 257.977 37.7081 258.365 37.8004L260.138 38.2436C260.852 38.4098 261.538 38.6345 262.197 38.9176C262.862 39.2008 263.455 39.5578 263.979 39.9886C264.508 40.4195 264.927 40.9396 265.234 41.549C265.542 42.1584 265.696 42.8724 265.696 43.6911C265.696 44.799 265.413 45.7746 264.847 46.6179C264.28 47.455 263.462 48.1106 262.391 48.5845C261.326 49.0523 260.036 49.2862 258.522 49.2862C257.051 49.2862 255.774 49.0585 254.69 48.603C253.613 48.1475 252.77 47.4827 252.161 46.6087C251.557 45.7346 251.231 44.6697 251.182 43.4141H254.552C254.601 44.0727 254.804 44.6205 255.161 45.0575C255.518 45.4946 255.983 45.8208 256.555 46.0362C257.134 46.2517 257.78 46.3594 258.494 46.3594C259.239 46.3594 259.892 46.2486 260.452 46.027C261.018 45.7992 261.461 45.4853 261.781 45.0852C262.101 44.679 262.264 44.205 262.271 43.6634C262.264 43.1709 262.12 42.7647 261.837 42.4446C261.554 42.1184 261.156 41.8475 260.646 41.6321C260.141 41.4105 259.55 41.2135 258.873 41.0412L256.722 40.4872C255.164 40.0871 253.933 39.4808 253.028 38.6683C252.13 37.8497 251.68 36.7633 251.68 35.4091C251.68 34.295 251.982 33.3194 252.585 32.4822C253.195 31.6451 254.022 30.9957 255.069 30.5341C256.115 30.0663 257.3 29.8324 258.624 29.8324C259.965 29.8324 261.141 30.0663 262.151 30.5341C263.166 30.9957 263.963 31.639 264.542 32.4638C265.121 33.2824 265.419 34.2242 265.438 35.2891H262.141ZM272.683 49.2862C271.784 49.2862 270.975 49.1262 270.255 48.8061C269.541 48.4799 268.974 47.9998 268.556 47.3658C268.144 46.7318 267.937 45.95 267.937 45.0206C267.937 44.2204 268.085 43.5587 268.381 43.0355C268.676 42.5123 269.079 42.0938 269.59 41.7798C270.101 41.4659 270.676 41.2289 271.317 41.0689C271.963 40.9027 272.631 40.7827 273.32 40.7088C274.151 40.6226 274.825 40.5457 275.342 40.478C275.859 40.4041 276.235 40.2933 276.469 40.1456C276.709 39.9917 276.829 39.7547 276.829 39.4347V39.3793C276.829 38.6837 276.622 38.1451 276.21 37.7635C275.798 37.3819 275.204 37.1911 274.428 37.1911C273.609 37.1911 272.96 37.3696 272.48 37.7266C272.006 38.0836 271.686 38.5052 271.52 38.9915L268.399 38.5483C268.645 37.6866 269.051 36.9664 269.618 36.3878C270.184 35.803 270.876 35.366 271.695 35.0767C272.514 34.7812 273.419 34.6335 274.41 34.6335C275.093 34.6335 275.773 34.7135 276.45 34.8736C277.127 35.0336 277.746 35.2983 278.306 35.6676C278.866 36.0308 279.315 36.5263 279.654 37.1541C279.999 37.782 280.171 38.5668 280.171 39.5085V49H276.958V47.0518H276.847C276.644 47.4458 276.358 47.8151 275.988 48.1598C275.625 48.4983 275.167 48.7723 274.613 48.9815C274.065 49.1847 273.422 49.2862 272.683 49.2862ZM273.551 46.8303C274.222 46.8303 274.804 46.6979 275.296 46.4332C275.788 46.1624 276.167 45.8054 276.432 45.3622C276.702 44.919 276.838 44.4358 276.838 43.9126V42.2415C276.733 42.3277 276.555 42.4077 276.302 42.4815C276.056 42.5554 275.779 42.62 275.471 42.6754C275.164 42.7308 274.859 42.7801 274.557 42.8232C274.256 42.8662 273.994 42.9032 273.773 42.9339C273.274 43.0017 272.828 43.1125 272.434 43.2663C272.04 43.4202 271.729 43.6357 271.501 43.9126C271.273 44.1835 271.16 44.5343 271.16 44.9652C271.16 45.5807 271.384 46.0455 271.834 46.3594C272.283 46.6733 272.855 46.8303 273.551 46.8303ZM286.874 30.0909V49H283.532V30.0909H286.874ZM294.392 49.2862C293.493 49.2862 292.684 49.1262 291.964 48.8061C291.25 48.4799 290.683 47.9998 290.265 47.3658C289.853 46.7318 289.646 45.95 289.646 45.0206C289.646 44.2204 289.794 43.5587 290.089 43.0355C290.385 42.5123 290.788 42.0938 291.299 41.7798C291.81 41.4659 292.385 41.2289 293.026 41.0689C293.672 40.9027 294.34 40.7827 295.029 40.7088C295.86 40.6226 296.534 40.5457 297.051 40.478C297.568 40.4041 297.944 40.2933 298.178 40.1456C298.418 39.9917 298.538 39.7547 298.538 39.4347V39.3793C298.538 38.6837 298.331 38.1451 297.919 37.7635C297.507 37.3819 296.913 37.1911 296.137 37.1911C295.318 37.1911 294.669 37.3696 294.189 37.7266C293.715 38.0836 293.395 38.5052 293.229 38.9915L290.108 38.5483C290.354 37.6866 290.76 36.9664 291.327 36.3878C291.893 35.803 292.585 35.366 293.404 35.0767C294.223 34.7812 295.128 34.6335 296.119 34.6335C296.802 34.6335 297.482 34.7135 298.159 34.8736C298.836 35.0336 299.455 35.2983 300.015 35.6676C300.575 36.0308 301.024 36.5263 301.363 37.1541C301.708 37.782 301.88 38.5668 301.88 39.5085V49H298.667V47.0518H298.556C298.353 47.4458 298.067 47.8151 297.697 48.1598C297.334 48.4983 296.876 48.7723 296.322 48.9815C295.774 49.1847 295.131 49.2862 294.392 49.2862ZM295.26 46.8303C295.931 46.8303 296.513 46.6979 297.005 46.4332C297.497 46.1624 297.876 45.8054 298.141 45.3622C298.411 44.919 298.547 44.4358 298.547 43.9126V42.2415C298.442 42.3277 298.264 42.4077 298.011 42.4815C297.765 42.5554 297.488 42.62 297.18 42.6754C296.873 42.7308 296.568 42.7801 296.266 42.8232C295.965 42.8662 295.703 42.9032 295.482 42.9339C294.983 43.0017 294.537 43.1125 294.143 43.2663C293.749 43.4202 293.438 43.6357 293.21 43.9126C292.982 44.1835 292.869 44.5343 292.869 44.9652C292.869 45.5807 293.093 46.0455 293.543 46.3594C293.992 46.6733 294.564 46.8303 295.26 46.8303ZM316.953 49.2493C315.839 49.2493 314.842 48.9631 313.961 48.3906C313.081 47.8182 312.386 46.9872 311.875 45.8977C311.364 44.8082 311.108 43.4848 311.108 41.9276C311.108 40.3518 311.367 39.0223 311.884 37.9389C312.407 36.8494 313.112 36.0277 313.998 35.4737C314.885 34.9136 315.873 34.6335 316.962 34.6335C317.793 34.6335 318.476 34.7751 319.012 35.0582C319.547 35.3352 319.972 35.6707 320.286 36.0646C320.6 36.4524 320.843 36.8187 321.015 37.1634H321.154V30.0909H324.505V49H321.218V46.7656H321.015C320.843 47.1103 320.594 47.4766 320.267 47.8643C319.941 48.246 319.51 48.5722 318.975 48.843C318.439 49.1139 317.765 49.2493 316.953 49.2493ZM317.885 46.5071C318.593 46.5071 319.196 46.3163 319.695 45.9347C320.194 45.5469 320.572 45.0083 320.831 44.3189C321.089 43.6295 321.218 42.8262 321.218 41.9091C321.218 40.992 321.089 40.1948 320.831 39.5178C320.578 38.8407 320.203 38.3144 319.704 37.9389C319.212 37.5634 318.605 37.3757 317.885 37.3757C317.141 37.3757 316.519 37.5696 316.02 37.9574C315.522 38.3452 315.146 38.8807 314.894 39.5639C314.641 40.2472 314.515 41.0289 314.515 41.9091C314.515 42.7955 314.641 43.5864 314.894 44.282C315.152 44.9714 315.531 45.5161 316.029 45.9162C316.534 46.3101 317.153 46.5071 317.885 46.5071ZM334.345 49.277C332.923 49.277 331.695 48.9815 330.661 48.3906C329.633 47.7936 328.843 46.9503 328.289 45.8608C327.735 44.7652 327.458 43.4756 327.458 41.9922C327.458 40.5334 327.735 39.2531 328.289 38.1513C328.849 37.0433 329.63 36.1816 330.634 35.5661C331.637 34.9444 332.816 34.6335 334.17 34.6335C335.044 34.6335 335.869 34.7751 336.644 35.0582C337.426 35.3352 338.115 35.7661 338.713 36.3509C339.316 36.9356 339.79 37.6804 340.134 38.5852C340.479 39.4839 340.651 40.5549 340.651 41.7983V42.8232H329.027V40.5703H337.448C337.441 39.9302 337.303 39.3608 337.032 38.8622C336.761 38.3575 336.383 37.9605 335.896 37.6712C335.416 37.3819 334.856 37.2372 334.216 37.2372C333.533 37.2372 332.933 37.4034 332.416 37.7358C331.899 38.062 331.495 38.4929 331.206 39.0284C330.923 39.5578 330.778 40.1394 330.772 40.7734V42.7401C330.772 43.5649 330.923 44.2727 331.225 44.8636C331.526 45.4484 331.948 45.8977 332.49 46.2116C333.031 46.5194 333.665 46.6733 334.392 46.6733C334.878 46.6733 335.318 46.6056 335.712 46.4702C336.106 46.3286 336.447 46.1224 336.737 45.8516C337.026 45.5807 337.244 45.2453 337.392 44.8452L340.513 45.196C340.316 46.0208 339.941 46.741 339.387 47.3565C338.839 47.9659 338.137 48.4399 337.281 48.7784C336.426 49.1108 335.447 49.277 334.345 49.277ZM362.596 34.8182L357.545 49H353.852L348.802 34.8182H352.366L355.625 45.353H355.773L359.041 34.8182H362.596ZM370.705 49.277C369.283 49.277 368.055 48.9815 367.021 48.3906C365.993 47.7936 365.202 46.9503 364.648 45.8608C364.094 44.7652 363.817 43.4756 363.817 41.9922C363.817 40.5334 364.094 39.2531 364.648 38.1513C365.208 37.0433 365.99 36.1816 366.993 35.5661C367.996 34.9444 369.175 34.6335 370.529 34.6335C371.403 34.6335 372.228 34.7751 373.004 35.0582C373.785 35.3352 374.475 35.7661 375.072 36.3509C375.675 36.9356 376.149 37.6804 376.494 38.5852C376.838 39.4839 377.011 40.5549 377.011 41.7983V42.8232H365.387V40.5703H373.807C373.801 39.9302 373.662 39.3608 373.392 38.8622C373.121 38.3575 372.742 37.9605 372.256 37.6712C371.776 37.3819 371.216 37.2372 370.575 37.2372C369.892 37.2372 369.292 37.4034 368.775 37.7358C368.258 38.062 367.855 38.4929 367.566 39.0284C367.282 39.5578 367.138 40.1394 367.132 40.7734V42.7401C367.132 43.5649 367.282 44.2727 367.584 44.8636C367.886 45.4484 368.307 45.8977 368.849 46.2116C369.391 46.5194 370.025 46.6733 370.751 46.6733C371.237 46.6733 371.677 46.6056 372.071 46.4702C372.465 46.3286 372.807 46.1224 373.096 45.8516C373.385 45.5807 373.604 45.2453 373.752 44.8452L376.872 45.196C376.675 46.0208 376.3 46.741 375.746 47.3565C375.198 47.9659 374.496 48.4399 373.641 48.7784C372.785 49.1108 371.807 49.277 370.705 49.277ZM383.181 40.6903V49H379.838V34.8182H383.033V37.228H383.199C383.525 36.4339 384.046 35.803 384.76 35.3352C385.48 34.8674 386.369 34.6335 387.428 34.6335C388.407 34.6335 389.259 34.8428 389.985 35.2614C390.718 35.6799 391.284 36.2862 391.684 37.0803C392.091 37.8743 392.291 38.8376 392.284 39.9702V49H388.942V40.4872C388.942 39.5393 388.696 38.7976 388.203 38.2621C387.717 37.7266 387.043 37.4588 386.181 37.4588C385.597 37.4588 385.077 37.5881 384.621 37.8466C384.172 38.099 383.818 38.4652 383.559 38.9453C383.307 39.4254 383.181 40.0071 383.181 40.6903ZM402.764 34.8182V37.4034H394.611V34.8182H402.764ZM396.624 31.4205H399.966V44.7344C399.966 45.1837 400.034 45.5284 400.169 45.7685C400.311 46.0024 400.496 46.1624 400.723 46.2486C400.951 46.3348 401.203 46.3778 401.48 46.3778C401.69 46.3778 401.881 46.3625 402.053 46.3317C402.231 46.3009 402.367 46.2732 402.459 46.2486L403.022 48.8615C402.844 48.9231 402.588 48.9908 402.256 49.0646C401.93 49.1385 401.53 49.1816 401.056 49.1939C400.219 49.2185 399.465 49.0923 398.794 48.8153C398.123 48.5322 397.59 48.0952 397.196 47.5043C396.809 46.9134 396.618 46.1747 396.624 45.2884V31.4205ZM409.64 49.2862C408.741 49.2862 407.932 49.1262 407.212 48.8061C406.498 48.4799 405.932 47.9998 405.513 47.3658C405.101 46.7318 404.894 45.95 404.894 45.0206C404.894 44.2204 405.042 43.5587 405.338 43.0355C405.633 42.5123 406.036 42.0938 406.547 41.7798C407.058 41.4659 407.633 41.2289 408.274 41.0689C408.92 40.9027 409.588 40.7827 410.277 40.7088C411.108 40.6226 411.782 40.5457 412.299 40.478C412.816 40.4041 413.192 40.2933 413.426 40.1456C413.666 39.9917 413.786 39.7547 413.786 39.4347V39.3793C413.786 38.6837 413.579 38.1451 413.167 37.7635C412.755 37.3819 412.161 37.1911 411.385 37.1911C410.566 37.1911 409.917 37.3696 409.437 37.7266C408.963 38.0836 408.643 38.5052 408.477 38.9915L405.356 38.5483C405.602 37.6866 406.008 36.9664 406.575 36.3878C407.141 35.803 407.834 35.366 408.652 35.0767C409.471 34.7812 410.376 34.6335 411.367 34.6335C412.05 34.6335 412.73 34.7135 413.407 34.8736C414.084 35.0336 414.703 35.2983 415.263 35.6676C415.823 36.0308 416.272 36.5263 416.611 37.1541C416.956 37.782 417.128 38.5668 417.128 39.5085V49H413.915V47.0518H413.804C413.601 47.4458 413.315 47.8151 412.945 48.1598C412.582 48.4983 412.124 48.7723 411.57 48.9815C411.022 49.1847 410.379 49.2862 409.64 49.2862ZM410.508 46.8303C411.179 46.8303 411.761 46.6979 412.253 46.4332C412.745 46.1624 413.124 45.8054 413.389 45.3622C413.66 44.919 413.795 44.4358 413.795 43.9126V42.2415C413.69 42.3277 413.512 42.4077 413.259 42.4815C413.013 42.5554 412.736 42.62 412.428 42.6754C412.121 42.7308 411.816 42.7801 411.514 42.8232C411.213 42.8662 410.951 42.9032 410.73 42.9339C410.231 43.0017 409.785 43.1125 409.391 43.2663C408.997 43.4202 408.686 43.6357 408.458 43.9126C408.231 44.1835 408.117 44.5343 408.117 44.9652C408.117 45.5807 408.341 46.0455 408.791 46.3594C409.24 46.6733 409.812 46.8303 410.508 46.8303ZM431.698 38.5668L428.651 38.8991C428.565 38.5914 428.414 38.3021 428.198 38.0312C427.989 37.7604 427.706 37.5419 427.349 37.3757C426.992 37.2095 426.555 37.1264 426.038 37.1264C425.342 37.1264 424.758 37.2772 424.284 37.5788C423.816 37.8804 423.585 38.2713 423.591 38.7514C423.585 39.1638 423.736 39.4993 424.044 39.7578C424.357 40.0163 424.874 40.2287 425.595 40.3949L428.014 40.9119C429.356 41.2012 430.353 41.6598 431.005 42.2876C431.664 42.9155 431.996 43.7372 432.002 44.7528C431.996 45.6454 431.735 46.4332 431.218 47.1165C430.707 47.7936 429.996 48.3229 429.085 48.7045C428.174 49.0862 427.127 49.277 425.945 49.277C424.21 49.277 422.812 48.9138 421.754 48.1875C420.695 47.455 420.064 46.4363 419.861 45.1314L423.12 44.8175C423.268 45.4576 423.582 45.9408 424.062 46.267C424.542 46.5933 425.167 46.7564 425.936 46.7564C426.73 46.7564 427.367 46.5933 427.847 46.267C428.334 45.9408 428.577 45.5376 428.577 45.0575C428.577 44.6513 428.42 44.3158 428.106 44.0511C427.798 43.7865 427.318 43.5833 426.666 43.4418L424.247 42.9339C422.886 42.6508 421.88 42.1738 421.227 41.5028C420.575 40.8258 420.252 39.9702 420.258 38.9361C420.252 38.062 420.489 37.3049 420.969 36.6648C421.455 36.0185 422.129 35.5199 422.991 35.169C423.859 34.812 424.859 34.6335 425.992 34.6335C427.654 34.6335 428.962 34.9875 429.916 35.6953C430.876 36.4032 431.47 37.3603 431.698 38.5668ZM251.865 80V61.0909H255.29V69.7791H255.521L262.898 61.0909H267.081L259.768 69.576L267.146 80H263.028L257.386 71.8935L255.29 74.3679V80H251.865ZM269.461 61.0909H273.653L279.266 74.7926H279.488L285.101 61.0909H289.293V80H286.006V67.0092H285.831L280.605 79.9446H278.149L272.923 66.9815H272.748V80H269.461V61.0909ZM306.213 80.2585C305.308 80.2524 304.424 80.0954 303.563 79.7876C302.701 79.4737 301.925 78.9659 301.236 78.2642C300.547 77.5563 299.999 76.6177 299.593 75.4482C299.186 74.2725 298.986 72.8168 298.992 71.081C298.992 69.4621 299.165 68.0187 299.509 66.7507C299.854 65.4827 300.35 64.4117 300.996 63.5376C301.642 62.6574 302.421 61.9865 303.332 61.5249C304.249 61.0632 305.274 60.8324 306.406 60.8324C307.594 60.8324 308.647 61.0663 309.564 61.5341C310.487 62.0019 311.232 62.642 311.798 63.4545C312.365 64.2609 312.716 65.1719 312.851 66.1875H309.481C309.309 65.4612 308.955 64.8826 308.419 64.4517C307.89 64.0147 307.219 63.7962 306.406 63.7962C305.095 63.7962 304.086 64.3655 303.378 65.5043C302.676 66.643 302.322 68.2064 302.316 70.1946H302.445C302.747 69.6529 303.138 69.1882 303.618 68.8004C304.098 68.4126 304.64 68.1141 305.243 67.9048C305.852 67.6894 306.496 67.5817 307.173 67.5817C308.281 67.5817 309.275 67.8464 310.155 68.3757C311.041 68.9051 311.743 69.6345 312.26 70.5639C312.777 71.4872 313.033 72.5459 313.026 73.7401C313.033 74.9834 312.749 76.1006 312.177 77.0916C311.605 78.0765 310.807 78.852 309.786 79.4183C308.764 79.9846 307.573 80.2647 306.213 80.2585ZM306.194 77.4886C306.865 77.4886 307.465 77.3255 307.994 76.9993C308.524 76.6731 308.942 76.233 309.25 75.679C309.558 75.125 309.709 74.5033 309.703 73.8139C309.709 73.1368 309.561 72.5244 309.259 71.9766C308.964 71.4287 308.555 70.9948 308.031 70.6747C307.508 70.3546 306.911 70.1946 306.24 70.1946C305.742 70.1946 305.277 70.29 304.846 70.4808C304.415 70.6716 304.04 70.9363 303.72 71.2749C303.4 71.6072 303.147 71.995 302.963 72.4382C302.784 72.8752 302.692 73.343 302.686 73.8416C302.692 74.5002 302.846 75.1065 303.147 75.6605C303.449 76.2145 303.864 76.6577 304.394 76.9901C304.923 77.3224 305.523 77.4886 306.194 77.4886ZM316.147 80V77.5256L322.712 71.0902C323.34 70.4562 323.863 69.893 324.281 69.4006C324.7 68.9081 325.014 68.4311 325.223 67.9695C325.432 67.5078 325.537 67.0154 325.537 66.4922C325.537 65.8951 325.402 65.3842 325.131 64.9595C324.86 64.5286 324.488 64.1963 324.014 63.9624C323.54 63.7285 323.001 63.6115 322.398 63.6115C321.776 63.6115 321.231 63.7408 320.764 63.9993C320.296 64.2517 319.933 64.6117 319.674 65.0795C319.422 65.5473 319.296 66.1044 319.296 66.7507H316.036C316.036 65.5504 316.31 64.5071 316.858 63.6207C317.406 62.7344 318.16 62.0481 319.12 61.5618C320.087 61.0755 321.195 60.8324 322.444 60.8324C323.712 60.8324 324.826 61.0694 325.786 61.5433C326.747 62.0173 327.491 62.6667 328.021 63.4915C328.556 64.3163 328.824 65.258 328.824 66.3168C328.824 67.0246 328.689 67.7202 328.418 68.4034C328.147 69.0866 327.67 69.8437 326.987 70.6747C326.31 71.5057 325.359 72.5121 324.134 73.6939L320.874 77.0085V77.1378H329.11V80H316.147ZM338.93 80V61.0909H346.02C347.473 61.0909 348.692 61.3617 349.677 61.9034C350.668 62.4451 351.416 63.1899 351.92 64.1378C352.431 65.0795 352.687 66.1506 352.687 67.3509C352.687 68.5634 352.431 69.6406 351.92 70.5824C351.409 71.5241 350.655 72.2659 349.658 72.8075C348.661 73.343 347.433 73.6108 345.974 73.6108H341.275V70.7947H345.513C346.362 70.7947 347.058 70.647 347.599 70.3516C348.141 70.0561 348.541 69.6499 348.8 69.1328C349.064 68.6158 349.197 68.0218 349.197 67.3509C349.197 66.6799 349.064 66.089 348.8 65.5781C348.541 65.0672 348.138 64.6702 347.59 64.3871C347.048 64.0978 346.35 63.9531 345.494 63.9531H342.355V80H338.93ZM359.341 80.2862C358.443 80.2862 357.633 80.1262 356.913 79.8061C356.199 79.4799 355.633 78.9998 355.214 78.3658C354.802 77.7318 354.596 76.95 354.596 76.0206C354.596 75.2204 354.743 74.5587 355.039 74.0355C355.334 73.5123 355.737 73.0938 356.248 72.7798C356.759 72.4659 357.335 72.2289 357.975 72.0689C358.621 71.9027 359.289 71.7827 359.978 71.7088C360.809 71.6226 361.483 71.5457 362 71.478C362.517 71.4041 362.893 71.2933 363.127 71.1456C363.367 70.9917 363.487 70.7547 363.487 70.4347V70.3793C363.487 69.6837 363.281 69.1451 362.868 68.7635C362.456 68.3819 361.862 68.1911 361.086 68.1911C360.268 68.1911 359.618 68.3696 359.138 68.7266C358.664 69.0836 358.344 69.5052 358.178 69.9915L355.057 69.5483C355.303 68.6866 355.71 67.9664 356.276 67.3878C356.842 66.803 357.535 66.366 358.353 66.0767C359.172 65.7812 360.077 65.6335 361.068 65.6335C361.751 65.6335 362.431 65.7135 363.108 65.8736C363.785 66.0336 364.404 66.2983 364.964 66.6676C365.524 67.0308 365.974 67.5263 366.312 68.1541C366.657 68.782 366.829 69.5668 366.829 70.5085V80H363.616V78.0518H363.505C363.302 78.4458 363.016 78.8151 362.647 79.1598C362.283 79.4983 361.825 79.7723 361.271 79.9815C360.723 80.1847 360.08 80.2862 359.341 80.2862ZM360.209 77.8303C360.88 77.8303 361.462 77.6979 361.954 77.4332C362.447 77.1624 362.825 76.8054 363.09 76.3622C363.361 75.919 363.496 75.4358 363.496 74.9126V73.2415C363.391 73.3277 363.213 73.4077 362.961 73.4815C362.714 73.5554 362.437 73.62 362.13 73.6754C361.822 73.7308 361.517 73.7801 361.216 73.8232C360.914 73.8662 360.652 73.9032 360.431 73.9339C359.932 74.0017 359.486 74.1125 359.092 74.2663C358.698 74.4202 358.387 74.6357 358.159 74.9126C357.932 75.1835 357.818 75.5343 357.818 75.9652C357.818 76.5807 358.042 77.0455 358.492 77.3594C358.941 77.6733 359.514 77.8303 360.209 77.8303ZM373.532 71.6903V80H370.19V65.8182H373.385V68.228H373.551C373.877 67.4339 374.397 66.803 375.111 66.3352C375.831 65.8674 376.721 65.6335 377.779 65.6335C378.758 65.6335 379.611 65.8428 380.337 66.2614C381.069 66.6799 381.636 67.2862 382.036 68.0803C382.442 68.8743 382.642 69.8376 382.636 70.9702V80H379.294V71.4872C379.294 70.5393 379.047 69.7976 378.555 69.2621C378.069 68.7266 377.395 68.4588 376.533 68.4588C375.948 68.4588 375.428 68.5881 374.973 68.8466C374.523 69.099 374.169 69.4652 373.911 69.9453C373.658 70.4254 373.532 71.0071 373.532 71.6903ZM390.115 80.2862C389.216 80.2862 388.407 80.1262 387.686 79.8061C386.972 79.4799 386.406 78.9998 385.988 78.3658C385.575 77.7318 385.369 76.95 385.369 76.0206C385.369 75.2204 385.517 74.5587 385.812 74.0355C386.108 73.5123 386.511 73.0938 387.022 72.7798C387.533 72.4659 388.108 72.2289 388.748 72.0689C389.395 71.9027 390.062 71.7827 390.752 71.7088C391.583 71.6226 392.257 71.5457 392.774 71.478C393.291 71.4041 393.666 71.2933 393.9 71.1456C394.14 70.9917 394.26 70.7547 394.26 70.4347V70.3793C394.26 69.6837 394.054 69.1451 393.642 68.7635C393.229 68.3819 392.635 68.1911 391.86 68.1911C391.041 68.1911 390.392 68.3696 389.912 68.7266C389.438 69.0836 389.118 69.5052 388.951 69.9915L385.831 69.5483C386.077 68.6866 386.483 67.9664 387.049 67.3878C387.616 66.803 388.308 66.366 389.127 66.0767C389.945 65.7812 390.85 65.6335 391.841 65.6335C392.525 65.6335 393.205 65.7135 393.882 65.8736C394.559 66.0336 395.177 66.2983 395.738 66.6676C396.298 67.0308 396.747 67.5263 397.086 68.1541C397.43 68.782 397.603 69.5668 397.603 70.5085V80H394.39V78.0518H394.279C394.076 78.4458 393.789 78.8151 393.42 79.1598C393.057 79.4983 392.598 79.7723 392.044 79.9815C391.497 80.1847 390.853 80.2862 390.115 80.2862ZM390.983 77.8303C391.654 77.8303 392.235 77.6979 392.728 77.4332C393.22 77.1624 393.599 76.8054 393.863 76.3622C394.134 75.919 394.27 75.4358 394.27 74.9126V73.2415C394.165 73.3277 393.986 73.4077 393.734 73.4815C393.488 73.5554 393.211 73.62 392.903 73.6754C392.595 73.7308 392.291 73.7801 391.989 73.8232C391.687 73.8662 391.426 73.9032 391.204 73.9339C390.706 74.0017 390.259 74.1125 389.865 74.2663C389.471 74.4202 389.161 74.6357 388.933 74.9126C388.705 75.1835 388.591 75.5343 388.591 75.9652C388.591 76.5807 388.816 77.0455 389.265 77.3594C389.715 77.6733 390.287 77.8303 390.983 77.8303ZM400.963 80V65.8182H404.158V68.228H404.324C404.62 67.4155 405.109 66.7815 405.792 66.326C406.475 65.8643 407.291 65.6335 408.239 65.6335C409.199 65.6335 410.009 65.8674 410.667 66.3352C411.332 66.7969 411.8 67.4278 412.071 68.228H412.218C412.532 67.4401 413.062 66.8123 413.806 66.3445C414.557 65.8705 415.447 65.6335 416.475 65.6335C417.78 65.6335 418.845 66.0459 419.669 66.8707C420.494 67.6955 420.907 68.8989 420.907 70.4808V80H417.555V70.9979C417.555 70.1177 417.321 69.4744 416.853 69.0682C416.386 68.6558 415.813 68.4496 415.136 68.4496C414.33 68.4496 413.699 68.7019 413.243 69.2067C412.794 69.7053 412.569 70.3546 412.569 71.1548V80H409.292V70.8594C409.292 70.1269 409.07 69.5421 408.627 69.1051C408.19 68.6681 407.617 68.4496 406.909 68.4496C406.429 68.4496 405.992 68.5727 405.598 68.8189C405.204 69.0589 404.891 69.4006 404.657 69.8438C404.423 70.2808 404.306 70.7917 404.306 71.3764V80H400.963ZM430.576 80.277C429.154 80.277 427.926 79.9815 426.892 79.3906C425.864 78.7936 425.073 77.9503 424.519 76.8608C423.965 75.7652 423.688 74.4756 423.688 72.9922C423.688 71.5334 423.965 70.2531 424.519 69.1513C425.079 68.0433 425.861 67.1816 426.864 66.5661C427.867 65.9444 429.046 65.6335 430.4 65.6335C431.274 65.6335 432.099 65.7751 432.875 66.0582C433.657 66.3352 434.346 66.7661 434.943 67.3509C435.546 67.9356 436.02 68.6804 436.365 69.5852C436.71 70.4839 436.882 71.5549 436.882 72.7983V73.8232H425.258V71.5703H433.678C433.672 70.9302 433.533 70.3608 433.263 69.8622C432.992 69.3575 432.613 68.9605 432.127 68.6712C431.647 68.3819 431.087 68.2372 430.447 68.2372C429.763 68.2372 429.163 68.4034 428.646 68.7358C428.129 69.062 427.726 69.4929 427.437 70.0284C427.153 70.5578 427.009 71.1394 427.003 71.7734V73.7401C427.003 74.5649 427.153 75.2727 427.455 75.8636C427.757 76.4484 428.178 76.8977 428.72 77.2116C429.262 77.5194 429.896 77.6733 430.622 77.6733C431.108 77.6733 431.548 77.6056 431.942 77.4702C432.336 77.3286 432.678 77.1224 432.967 76.8516C433.256 76.5807 433.475 76.2453 433.623 75.8452L436.743 76.196C436.546 77.0208 436.171 77.741 435.617 78.3565C435.069 78.9659 434.367 79.4399 433.512 79.7784C432.656 80.1108 431.678 80.277 430.576 80.277ZM439.71 80V65.8182H442.95V68.1818H443.098C443.357 67.3632 443.8 66.7322 444.428 66.2891C445.062 65.8397 445.785 65.6151 446.597 65.6151C446.782 65.6151 446.988 65.6243 447.216 65.6428C447.45 65.6551 447.644 65.6766 447.798 65.7074V68.782C447.656 68.7327 447.431 68.6896 447.124 68.6527C446.822 68.6096 446.53 68.5881 446.246 68.5881C445.637 68.5881 445.089 68.7204 444.603 68.9851C444.123 69.2436 443.744 69.6037 443.467 70.0653C443.19 70.527 443.052 71.0594 443.052 71.6626V80H439.71ZM450.452 80.2031C449.892 80.2031 449.412 80.0062 449.012 79.6122C448.612 79.2183 448.415 78.7382 448.421 78.1719C448.415 77.6179 448.612 77.1439 449.012 76.75C449.412 76.3561 449.892 76.1591 450.452 76.1591C450.994 76.1591 451.465 76.3561 451.865 76.75C452.271 77.1439 452.477 77.6179 452.483 78.1719C452.477 78.5473 452.379 78.889 452.188 79.1967C452.003 79.5045 451.757 79.7507 451.449 79.9354C451.148 80.1139 450.815 80.2031 450.452 80.2031ZM472.223 66.2891C472.137 65.4827 471.774 64.8549 471.134 64.4055C470.5 63.9562 469.675 63.7315 468.659 63.7315C467.945 63.7315 467.333 63.8393 466.822 64.0547C466.311 64.2701 465.92 64.5625 465.65 64.9318C465.379 65.3011 465.24 65.7228 465.234 66.1967C465.234 66.5907 465.323 66.9323 465.502 67.2216C465.686 67.5109 465.936 67.7571 466.25 67.9602C466.564 68.1572 466.911 68.3234 467.293 68.4588C467.675 68.5942 468.059 68.7081 468.447 68.8004L470.22 69.2436C470.934 69.4098 471.62 69.6345 472.279 69.9176C472.944 70.2008 473.538 70.5578 474.061 70.9886C474.59 71.4195 475.009 71.9396 475.316 72.549C475.624 73.1584 475.778 73.8724 475.778 74.6911C475.778 75.799 475.495 76.7746 474.929 77.6179C474.362 78.455 473.544 79.1106 472.473 79.5845C471.408 80.0523 470.118 80.2862 468.604 80.2862C467.133 80.2862 465.856 80.0585 464.772 79.603C463.695 79.1475 462.852 78.4827 462.243 77.6087C461.639 76.7346 461.313 75.6697 461.264 74.4141H464.634C464.683 75.0727 464.886 75.6205 465.243 76.0575C465.6 76.4946 466.065 76.8208 466.637 77.0362C467.216 77.2517 467.862 77.3594 468.576 77.3594C469.321 77.3594 469.974 77.2486 470.534 77.027C471.1 76.7992 471.543 76.4853 471.863 76.0852C472.183 75.679 472.346 75.205 472.353 74.6634C472.346 74.1709 472.202 73.7647 471.919 73.4446C471.636 73.1184 471.239 72.8475 470.728 72.6321C470.223 72.4105 469.632 72.2135 468.955 72.0412L466.804 71.4872C465.246 71.0871 464.015 70.4808 463.11 69.6683C462.212 68.8497 461.762 67.7633 461.762 66.4091C461.762 65.295 462.064 64.3194 462.667 63.4822C463.277 62.6451 464.105 61.9957 465.151 61.5341C466.197 61.0663 467.382 60.8324 468.706 60.8324C470.047 60.8324 471.223 61.0663 472.233 61.5341C473.248 61.9957 474.045 62.639 474.624 63.4638C475.203 64.2824 475.501 65.2242 475.52 66.2891H472.223ZM487.723 74.0355V65.8182H491.066V80H487.825V77.4794H487.677C487.357 78.2734 486.831 78.9228 486.098 79.4276C485.372 79.9323 484.476 80.1847 483.411 80.1847C482.482 80.1847 481.66 79.9785 480.946 79.5661C480.238 79.1475 479.684 78.5412 479.284 77.7472C478.884 76.947 478.684 75.9806 478.684 74.848V65.8182H482.026V74.331C482.026 75.2296 482.273 75.9437 482.765 76.473C483.258 77.0024 483.904 77.267 484.704 77.267C485.196 77.267 485.673 77.147 486.135 76.907C486.597 76.6669 486.975 76.3099 487.271 75.8359C487.572 75.3558 487.723 74.7557 487.723 74.0355ZM494.502 80V65.8182H497.743V68.1818H497.891C498.15 67.3632 498.593 66.7322 499.221 66.2891C499.855 65.8397 500.578 65.6151 501.39 65.6151C501.575 65.6151 501.781 65.6243 502.009 65.6428C502.243 65.6551 502.437 65.6766 502.591 65.7074V68.782C502.449 68.7327 502.224 68.6896 501.917 68.6527C501.615 68.6096 501.323 68.5881 501.039 68.5881C500.43 68.5881 499.882 68.7204 499.396 68.9851C498.916 69.2436 498.537 69.6037 498.26 70.0653C497.983 70.527 497.845 71.0594 497.845 71.6626V80H494.502Z" fill="white"/>
<defs>
<clipPath id="clip0_424_2559">
<rect width="24" height="24" fill="white" transform="translate(200 43)"/>
</clipPath>
</defs>
</svg>
