<svg width="357" height="138" viewBox="0 0 357 138" fill="none" xmlns="http://www.w3.org/2000/svg">
<rect x="124" width="233" height="110" rx="18" fill="#006DB7"/>
<path d="M68 102L179.5 66.026L147.5 42L68 102Z" fill="#006DB7"/>
<rect x="149.048" y="34.0476" width="41.9048" height="41.9048" rx="20.9524" fill="#407C1D"/>
<rect x="149.048" y="34.0476" width="41.9048" height="41.9048" rx="20.9524" stroke="white" stroke-width="2.09524"/>
<g clip-path="url(#clip0_176_127291)">
<path d="M177 63H163V64C163 64.2652 162.895 64.5196 162.707 64.7071C162.52 64.8946 162.265 65 162 65H161C160.735 65 160.48 64.8946 160.293 64.7071C160.105 64.5196 160 64.2652 160 64V54L162.48 48.212C162.634 47.852 162.891 47.5452 163.218 47.3298C163.545 47.1143 163.928 46.9997 164.32 47H175.68C176.071 47 176.454 47.1149 176.781 47.3303C177.107 47.5458 177.364 47.8523 177.518 48.212L180 54V64C180 64.2652 179.895 64.5196 179.707 64.7071C179.52 64.8946 179.265 65 179 65H178C177.735 65 177.48 64.8946 177.293 64.7071C177.105 64.5196 177 64.2652 177 64V63ZM178 56H162V61H178V56ZM162.176 54H177.824L175.681 49H164.32L162.177 54H162.176ZM164.5 60C164.102 60 163.721 59.842 163.439 59.5607C163.158 59.2794 163 58.8978 163 58.5C163 58.1022 163.158 57.7206 163.439 57.4393C163.721 57.158 164.102 57 164.5 57C164.898 57 165.279 57.158 165.561 57.4393C165.842 57.7206 166 58.1022 166 58.5C166 58.8978 165.842 59.2794 165.561 59.5607C165.279 59.842 164.898 60 164.5 60ZM175.5 60C175.102 60 174.721 59.842 174.439 59.5607C174.158 59.2794 174 58.8978 174 58.5C174 58.1022 174.158 57.7206 174.439 57.4393C174.721 57.158 175.102 57 175.5 57C175.898 57 176.279 57.158 176.561 57.4393C176.842 57.7206 177 58.1022 177 58.5C177 58.8978 176.842 59.2794 176.561 59.5607C176.279 59.842 175.898 60 175.5 60Z" fill="white"/>
</g>
<path d="M226.761 39.5455C226.761 41.5829 226.38 43.3279 225.616 44.7805C224.859 46.227 223.825 47.335 222.514 48.1044C221.209 48.8738 219.729 49.2585 218.073 49.2585C216.417 49.2585 214.934 48.8738 213.623 48.1044C212.318 47.3288 211.284 46.2178 210.521 44.7713C209.763 43.3187 209.385 41.5767 209.385 39.5455C209.385 37.508 209.763 35.7661 210.521 34.3196C211.284 32.867 212.318 31.7559 213.623 30.9865C214.934 30.2171 216.417 29.8324 218.073 29.8324C219.729 29.8324 221.209 30.2171 222.514 30.9865C223.825 31.7559 224.859 32.867 225.616 34.3196C226.38 35.7661 226.761 37.508 226.761 39.5455ZM223.317 39.5455C223.317 38.1113 223.093 36.9018 222.643 35.9169C222.2 34.9259 221.585 34.178 220.797 33.6733C220.009 33.1624 219.101 32.907 218.073 32.907C217.045 32.907 216.137 33.1624 215.349 33.6733C214.562 34.178 213.943 34.9259 213.494 35.9169C213.05 36.9018 212.829 38.1113 212.829 39.5455C212.829 40.9796 213.05 42.1922 213.494 43.1832C213.943 44.1681 214.562 44.916 215.349 45.4268C216.137 45.9316 217.045 46.1839 218.073 46.1839C219.101 46.1839 220.009 45.9316 220.797 45.4268C221.585 44.916 222.2 44.1681 222.643 43.1832C223.093 42.1922 223.317 40.9796 223.317 39.5455ZM216.79 28.2259L218.858 24.0064H222.126L219.292 28.2259H216.79ZM242.52 34.8182L237.469 49H233.776L228.726 34.8182H232.29L235.549 45.353H235.697L238.965 34.8182H242.52ZM248.507 49.2862C247.609 49.2862 246.799 49.1262 246.079 48.8061C245.365 48.4799 244.799 47.9998 244.38 47.3658C243.968 46.7318 243.762 45.95 243.762 45.0206C243.762 44.2204 243.909 43.5587 244.205 43.0355C244.5 42.5123 244.903 42.0938 245.414 41.7798C245.925 41.4659 246.501 41.2289 247.141 41.0689C247.787 40.9027 248.455 40.7827 249.144 40.7088C249.975 40.6226 250.649 40.5457 251.166 40.478C251.683 40.4041 252.059 40.2933 252.293 40.1456C252.533 39.9917 252.653 39.7547 252.653 39.4347V39.3793C252.653 38.6837 252.447 38.1451 252.034 37.7635C251.622 37.3819 251.028 37.1911 250.252 37.1911C249.434 37.1911 248.784 37.3696 248.304 37.7266C247.83 38.0836 247.51 38.5052 247.344 38.9915L244.223 38.5483C244.469 37.6866 244.876 36.9664 245.442 36.3878C246.008 35.803 246.701 35.366 247.519 35.0767C248.338 34.7812 249.243 34.6335 250.234 34.6335C250.917 34.6335 251.597 34.7135 252.274 34.8736C252.951 35.0336 253.57 35.2983 254.13 35.6676C254.69 36.0308 255.14 36.5263 255.478 37.1541C255.823 37.782 255.995 38.5668 255.995 39.5085V49H252.782V47.0518H252.671C252.468 47.4458 252.182 47.8151 251.813 48.1598C251.45 48.4983 250.991 48.7723 250.437 48.9815C249.889 49.1847 249.246 49.2862 248.507 49.2862ZM249.375 46.8303C250.046 46.8303 250.628 46.6979 251.12 46.4332C251.613 46.1624 251.991 45.8054 252.256 45.3622C252.527 44.919 252.662 44.4358 252.662 43.9126V42.2415C252.557 42.3277 252.379 42.4077 252.127 42.4815C251.88 42.5554 251.603 42.62 251.296 42.6754C250.988 42.7308 250.683 42.7801 250.382 42.8232C250.08 42.8662 249.818 42.9032 249.597 42.9339C249.098 43.0017 248.652 43.1125 248.258 43.2663C247.864 43.4202 247.553 43.6357 247.325 43.9126C247.098 44.1835 246.984 44.5343 246.984 44.9652C246.984 45.5807 247.209 46.0455 247.658 46.3594C248.107 46.6733 248.68 46.8303 249.375 46.8303ZM262.698 30.0909V49H259.356V30.0909H262.698ZM272.321 49.277C270.936 49.277 269.736 48.9723 268.721 48.3629C267.705 47.7536 266.917 46.901 266.357 45.8054C265.803 44.7098 265.526 43.4295 265.526 41.9645C265.526 40.4995 265.803 39.2161 266.357 38.1143C266.917 37.0125 267.705 36.157 268.721 35.5476C269.736 34.9382 270.936 34.6335 272.321 34.6335C273.706 34.6335 274.907 34.9382 275.922 35.5476C276.938 36.157 277.723 37.0125 278.277 38.1143C278.837 39.2161 279.117 40.4995 279.117 41.9645C279.117 43.4295 278.837 44.7098 278.277 45.8054C277.723 46.901 276.938 47.7536 275.922 48.3629C274.907 48.9723 273.706 49.277 272.321 49.277ZM272.34 46.5994C273.091 46.5994 273.719 46.3932 274.223 45.9808C274.728 45.5623 275.104 45.0021 275.35 44.3004C275.602 43.5987 275.728 42.817 275.728 41.9553C275.728 41.0874 275.602 40.3026 275.35 39.6009C275.104 38.893 274.728 38.3298 274.223 37.9112C273.719 37.4927 273.091 37.2834 272.34 37.2834C271.57 37.2834 270.93 37.4927 270.419 37.9112C269.915 38.3298 269.536 38.893 269.284 39.6009C269.038 40.3026 268.914 41.0874 268.914 41.9553C268.914 42.817 269.038 43.5987 269.284 44.3004C269.536 45.0021 269.915 45.5623 270.419 45.9808C270.93 46.3932 271.57 46.5994 272.34 46.5994ZM209.865 80V61.0909H213.29V77.1286H221.619V80H209.865ZM228.525 80.2862C227.626 80.2862 226.817 80.1262 226.097 79.8061C225.383 79.4799 224.816 78.9998 224.398 78.3658C223.985 77.7318 223.779 76.95 223.779 76.0206C223.779 75.2204 223.927 74.5587 224.222 74.0355C224.518 73.5123 224.921 73.0938 225.432 72.7798C225.943 72.4659 226.518 72.2289 227.158 72.0689C227.805 71.9027 228.473 71.7827 229.162 71.7088C229.993 71.6226 230.667 71.5457 231.184 71.478C231.701 71.4041 232.076 71.2933 232.31 71.1456C232.55 70.9917 232.67 70.7547 232.67 70.4347V70.3793C232.67 69.6837 232.464 69.1451 232.052 68.7635C231.639 68.3819 231.045 68.1911 230.27 68.1911C229.451 68.1911 228.802 68.3696 228.322 68.7266C227.848 69.0836 227.528 69.5052 227.362 69.9915L224.241 69.5483C224.487 68.6866 224.893 67.9664 225.46 67.3878C226.026 66.803 226.718 66.366 227.537 66.0767C228.356 65.7812 229.26 65.6335 230.251 65.6335C230.935 65.6335 231.615 65.7135 232.292 65.8736C232.969 66.0336 233.588 66.2983 234.148 66.6676C234.708 67.0308 235.157 67.5263 235.496 68.1541C235.84 68.782 236.013 69.5668 236.013 70.5085V80H232.8V78.0518H232.689C232.486 78.4458 232.2 78.8151 231.83 79.1598C231.467 79.4983 231.009 79.7723 230.455 79.9815C229.907 80.1847 229.263 80.2862 228.525 80.2862ZM229.393 77.8303C230.064 77.8303 230.645 77.6979 231.138 77.4332C231.63 77.1624 232.009 76.8054 232.273 76.3622C232.544 75.919 232.68 75.4358 232.68 74.9126V73.2415C232.575 73.3277 232.397 73.4077 232.144 73.4815C231.898 73.5554 231.621 73.62 231.313 73.6754C231.005 73.7308 230.701 73.7801 230.399 73.8232C230.098 73.8662 229.836 73.9032 229.614 73.9339C229.116 74.0017 228.67 74.1125 228.276 74.2663C227.882 74.4202 227.571 74.6357 227.343 74.9126C227.115 75.1835 227.001 75.5343 227.001 75.9652C227.001 76.5807 227.226 77.0455 227.675 77.3594C228.125 77.6733 228.697 77.8303 229.393 77.8303ZM245.971 80V61.0909H258.084V63.9624H249.396V69.0959H257.253V71.9673H249.396V80H245.971ZM265.011 80.2862C264.113 80.2862 263.303 80.1262 262.583 79.8061C261.869 79.4799 261.303 78.9998 260.884 78.3658C260.472 77.7318 260.265 76.95 260.265 76.0206C260.265 75.2204 260.413 74.5587 260.709 74.0355C261.004 73.5123 261.407 73.0938 261.918 72.7798C262.429 72.4659 263.005 72.2289 263.645 72.0689C264.291 71.9027 264.959 71.7827 265.648 71.7088C266.479 71.6226 267.153 71.5457 267.67 71.478C268.187 71.4041 268.563 71.2933 268.797 71.1456C269.037 70.9917 269.157 70.7547 269.157 70.4347V70.3793C269.157 69.6837 268.951 69.1451 268.538 68.7635C268.126 68.3819 267.532 68.1911 266.756 68.1911C265.938 68.1911 265.288 68.3696 264.808 68.7266C264.334 69.0836 264.014 69.5052 263.848 69.9915L260.727 69.5483C260.973 68.6866 261.38 67.9664 261.946 67.3878C262.512 66.803 263.205 66.366 264.023 66.0767C264.842 65.7812 265.747 65.6335 266.738 65.6335C267.421 65.6335 268.101 65.7135 268.778 65.8736C269.455 66.0336 270.074 66.2983 270.634 66.6676C271.194 67.0308 271.644 67.5263 271.982 68.1541C272.327 68.782 272.499 69.5668 272.499 70.5085V80H269.286V78.0518H269.175C268.972 78.4458 268.686 78.8151 268.317 79.1598C267.953 79.4983 267.495 79.7723 266.941 79.9815C266.393 80.1847 265.75 80.2862 265.011 80.2862ZM265.879 77.8303C266.55 77.8303 267.132 77.6979 267.624 77.4332C268.117 77.1624 268.495 76.8054 268.76 76.3622C269.031 75.919 269.166 75.4358 269.166 74.9126V73.2415C269.061 73.3277 268.883 73.4077 268.631 73.4815C268.384 73.5554 268.107 73.62 267.8 73.6754C267.492 73.7308 267.187 73.7801 266.885 73.8232C266.584 73.8662 266.322 73.9032 266.101 73.9339C265.602 74.0017 265.156 74.1125 264.762 74.2663C264.368 74.4202 264.057 74.6357 263.829 74.9126C263.602 75.1835 263.488 75.5343 263.488 75.9652C263.488 76.5807 263.712 77.0455 264.162 77.3594C264.611 77.6733 265.184 77.8303 265.879 77.8303ZM275.86 80V65.8182H279.055V68.228H279.221C279.516 67.4155 280.006 66.7815 280.689 66.326C281.372 65.8643 282.188 65.6335 283.135 65.6335C284.096 65.6335 284.905 65.8674 285.564 66.3352C286.229 66.7969 286.696 67.4278 286.967 68.228H287.115C287.429 67.4401 287.958 66.8123 288.703 66.3445C289.454 65.8705 290.343 65.6335 291.371 65.6335C292.676 65.6335 293.741 66.0459 294.566 66.8707C295.391 67.6955 295.803 68.8989 295.803 70.4808V80H292.452V70.9979C292.452 70.1177 292.218 69.4744 291.75 69.0682C291.282 68.6558 290.71 68.4496 290.032 68.4496C289.226 68.4496 288.595 68.7019 288.14 69.2067C287.69 69.7053 287.466 70.3546 287.466 71.1548V80H284.188V70.8594C284.188 70.1269 283.966 69.5421 283.523 69.1051C283.086 68.6681 282.514 68.4496 281.806 68.4496C281.326 68.4496 280.889 68.5727 280.495 68.8189C280.101 69.0589 279.787 69.4006 279.553 69.8438C279.319 70.2808 279.202 70.7917 279.202 71.3764V80H275.86ZM299.194 80V65.8182H302.536V80H299.194ZM300.874 63.8054C300.345 63.8054 299.889 63.63 299.508 63.2791C299.126 62.9221 298.935 62.4943 298.935 61.9957C298.935 61.491 299.126 61.0632 299.508 60.7124C299.889 60.3553 300.345 60.1768 300.874 60.1768C301.41 60.1768 301.865 60.3553 302.241 60.7124C302.622 61.0632 302.813 61.491 302.813 61.9957C302.813 62.4943 302.622 62.9221 302.241 63.2791C301.865 63.63 301.41 63.8054 300.874 63.8054ZM309.316 61.0909V80H305.973V61.0909H309.316ZM312.752 80V65.8182H316.095V80H312.752ZM314.433 63.8054C313.904 63.8054 313.448 63.63 313.066 63.2791C312.685 62.9221 312.494 62.4943 312.494 61.9957C312.494 61.491 312.685 61.0632 313.066 60.7124C313.448 60.3553 313.904 60.1768 314.433 60.1768C314.968 60.1768 315.424 60.3553 315.799 60.7124C316.181 61.0632 316.372 61.491 316.372 61.9957C316.372 62.4943 316.181 62.9221 315.799 63.2791C315.424 63.63 314.968 63.8054 314.433 63.8054ZM323.613 80.2862C322.714 80.2862 321.905 80.1262 321.184 79.8061C320.47 79.4799 319.904 78.9998 319.486 78.3658C319.073 77.7318 318.867 76.95 318.867 76.0206C318.867 75.2204 319.015 74.5587 319.31 74.0355C319.606 73.5123 320.009 73.0938 320.52 72.7798C321.031 72.4659 321.606 72.2289 322.246 72.0689C322.893 71.9027 323.56 71.7827 324.25 71.7088C325.081 71.6226 325.755 71.5457 326.272 71.478C326.789 71.4041 327.164 71.2933 327.398 71.1456C327.638 70.9917 327.758 70.7547 327.758 70.4347V70.3793C327.758 69.6837 327.552 69.1451 327.14 68.7635C326.727 68.3819 326.133 68.1911 325.358 68.1911C324.539 68.1911 323.89 68.3696 323.41 68.7266C322.936 69.0836 322.616 69.5052 322.449 69.9915L319.329 69.5483C319.575 68.6866 319.981 67.9664 320.547 67.3878C321.114 66.803 321.806 66.366 322.625 66.0767C323.443 65.7812 324.348 65.6335 325.339 65.6335C326.023 65.6335 326.703 65.7135 327.38 65.8736C328.057 66.0336 328.675 66.2983 329.236 66.6676C329.796 67.0308 330.245 67.5263 330.584 68.1541C330.928 68.782 331.101 69.5668 331.101 70.5085V80H327.888V78.0518H327.777C327.574 78.4458 327.287 78.8151 326.918 79.1598C326.555 79.4983 326.096 79.7723 325.542 79.9815C324.995 80.1847 324.351 80.2862 323.613 80.2862ZM324.481 77.8303C325.152 77.8303 325.733 77.6979 326.226 77.4332C326.718 77.1624 327.097 76.8054 327.361 76.3622C327.632 75.919 327.768 75.4358 327.768 74.9126V73.2415C327.663 73.3277 327.484 73.4077 327.232 73.4815C326.986 73.5554 326.709 73.62 326.401 73.6754C326.093 73.7308 325.789 73.7801 325.487 73.8232C325.185 73.8662 324.924 73.9032 324.702 73.9339C324.204 74.0017 323.757 74.1125 323.363 74.2663C322.97 74.4202 322.659 74.6357 322.431 74.9126C322.203 75.1835 322.089 75.5343 322.089 75.9652C322.089 76.5807 322.314 77.0455 322.763 77.3594C323.213 77.6733 323.785 77.8303 324.481 77.8303Z" fill="white"/>
<path d="M65.1996 19.532L62.5605 18L68.6876 20.576L71.3266 22.111L65.1996 19.532Z" fill="#98D343"/>
<path d="M38.4044 46.6213L35.7644 45.0873L35.7324 33.4883L38.3714 35.0233L38.4044 46.6213Z" fill="#705E2C"/>
<path d="M38.3714 35.023L35.7324 33.488L62.5614 18L65.2004 19.532L38.3714 35.023Z" fill="#8DC63F"/>
<path d="M65.2001 19.5312L71.3271 22.1103L65.2341 31.1302L38.4041 46.6202L38.3711 35.0222L65.2001 19.5312Z" fill="#518524"/>
<path d="M8.24905 21.1932L10.8881 19.6582L4.76105 22.2372L2.12305 23.7712L8.24905 21.1932Z" fill="#98D343"/>
<path d="M35.0469 48.2804L37.6849 46.7464L37.7179 35.1484L35.0799 36.6824L35.0469 48.2804Z" fill="#705E2C"/>
<path d="M35.08 36.6832L37.718 35.1492L10.889 19.6582L8.25 21.1932L35.08 36.6832Z" fill="#8DC63F"/>
<path d="M8.24905 21.1934L2.12305 23.7713L8.21506 32.7914L35.0461 48.2813L35.079 36.6833L8.24905 21.1934Z" fill="#217F1C"/>
<path d="M30.3105 131.741C30.3105 131.741 30.3106 131.813 30.3456 131.888C30.3456 131.888 30.3456 131.965 30.3456 132.035C30.3876 132.113 30.4196 132.185 30.4606 132.223C30.4606 132.261 30.4606 132.336 30.4966 132.371C30.5356 132.407 30.5356 132.521 30.6066 132.556C30.6066 132.594 30.6456 132.671 30.6456 132.707C30.7196 132.743 30.7576 132.857 30.7576 132.928C30.8296 132.968 30.9036 133.005 30.9036 133.041C30.9436 133.075 31.0926 133.231 31.1666 133.302C31.2006 133.335 31.2376 133.335 31.2786 133.448C31.3156 133.488 31.3886 133.524 31.4636 133.598C31.5336 133.671 31.5706 133.671 31.6096 133.747C31.7226 133.747 31.7606 133.817 31.8726 133.895C31.9056 133.935 32.0196 133.935 32.0556 133.971C32.2406 134.117 32.4666 134.229 32.6526 134.303C32.7276 134.343 32.7636 134.374 32.7966 134.374C32.9486 134.454 33.1386 134.528 33.3216 134.563C33.3536 134.599 33.4326 134.599 33.5096 134.635C33.5816 134.635 33.6946 134.717 33.7666 134.717C33.8416 134.746 33.9546 134.746 34.0276 134.79C34.1746 134.79 34.2506 134.79 34.3606 134.862C34.4386 134.862 34.5086 134.862 34.5856 134.934C34.8426 134.934 35.0676 135.012 35.2916 135.012C35.3586 135.012 35.4766 135.012 35.5496 135.012C35.6656 135.012 35.8096 135.012 35.8876 135.046C36.0366 135.046 36.1076 135.046 36.1826 135.046C36.2936 135.046 36.3706 135.046 36.5156 135.046C36.6306 135.046 36.7425 135.046 36.8495 135.046C36.8905 135.012 37.0025 135.012 37.1125 135.012C37.1865 135.012 37.2976 135.012 37.4456 135.012C37.4866 135.012 37.5965 135.012 37.6725 135.012C37.7795 134.934 37.8556 134.934 37.9676 134.934C38.1156 134.934 38.1916 134.934 38.3016 134.862C38.3766 134.862 38.4876 134.862 38.5256 134.79C38.6716 134.79 38.7856 134.746 38.9726 134.746C39.0096 134.717 39.0836 134.717 39.1576 134.717C39.3816 134.599 39.6016 134.563 39.7886 134.454C39.9006 134.414 40.0136 134.374 40.1276 134.343C40.1606 134.303 40.1966 134.265 40.2746 134.265C40.4216 134.117 40.5686 134.117 40.7166 133.971C41.9076 133.301 42.5016 132.37 42.5016 131.479V133.447C42.5016 134.375 41.9436 135.307 40.7166 135.977C40.5686 136.049 40.4216 136.125 40.2746 136.233C40.1966 136.271 40.1605 136.271 40.0865 136.311C40.0125 136.385 39.9006 136.385 39.8616 136.421C39.8236 136.421 39.8235 136.421 39.8235 136.421C39.6005 136.496 39.3806 136.564 39.1566 136.643C39.1196 136.643 39.1196 136.643 39.1196 136.643C39.0416 136.717 39.0096 136.717 38.9726 136.717C38.7846 136.717 38.6716 136.793 38.5626 136.793C38.5256 136.793 38.4875 136.793 38.4525 136.793C38.4525 136.793 38.3776 136.868 38.3026 136.868C38.1926 136.868 38.1166 136.904 37.9686 136.904C37.9316 136.904 37.8926 136.938 37.8566 136.938C37.8196 136.938 37.7486 136.938 37.7486 136.938C37.5996 136.938 37.4886 136.938 37.4476 137.014C37.2996 137.014 37.2996 137.014 37.2626 137.014H37.1516C37.0046 137.014 36.8926 137.014 36.8516 137.014C36.7436 137.014 36.7046 137.014 36.6656 137.014C36.5946 137.014 36.5586 137.014 36.5586 137.014C36.3726 137.014 36.2956 137.014 36.1846 137.014C36.1446 137.014 36.0756 137.014 36.0756 137.014C36.0016 137.014 35.9626 137.014 35.8896 137.014C35.8116 137.014 35.6285 137.014 35.4785 137.014C35.4435 137.014 35.4036 137.014 35.3326 137.014L35.2935 136.938C35.0695 136.938 34.8446 136.938 34.5876 136.868C34.4736 136.868 34.4415 136.868 34.3625 136.793C34.2525 136.793 34.1766 136.793 34.0296 136.793C33.9576 136.717 33.8436 136.717 33.7686 136.717C33.6976 136.643 33.5836 136.643 33.5116 136.565C33.4736 136.565 33.4355 136.565 33.4355 136.565C33.3565 136.565 33.3566 136.565 33.3246 136.565C33.1736 136.497 32.9516 136.422 32.7996 136.385C32.7666 136.349 32.7305 136.311 32.6555 136.311C32.4695 136.195 32.2826 136.125 32.0986 135.977C32.0586 135.977 32.0236 135.977 32.0236 135.977C31.9466 135.899 31.9096 135.899 31.8766 135.827C31.7996 135.789 31.7276 135.756 31.6136 135.678C31.5746 135.642 31.5376 135.606 31.4676 135.53C31.3936 135.494 31.3196 135.452 31.2826 135.385C31.2826 135.385 31.2415 135.385 31.2415 135.343C31.2415 135.343 31.2046 135.309 31.1706 135.309C31.0976 135.197 31.0196 135.086 30.9476 135.015C30.9076 135.015 30.9076 135.015 30.8716 134.937C30.8346 134.937 30.8346 134.937 30.8346 134.865C30.7626 134.793 30.7626 134.749 30.6846 134.719C30.6506 134.637 30.6506 134.637 30.6506 134.601C30.6116 134.565 30.6116 134.565 30.6116 134.565C30.5406 134.457 30.5406 134.417 30.5016 134.376C30.5016 134.305 30.4655 134.267 30.4655 134.267C30.4655 134.231 30.4655 134.231 30.4655 134.195C30.4245 134.119 30.3925 134.119 30.3925 133.973C30.3505 133.937 30.3506 133.937 30.3506 133.897C30.3506 133.787 30.3156 133.749 30.3156 133.672C30.3156 133.637 30.3156 133.599 30.3156 133.525C30.3156 133.489 30.3156 133.489 30.3156 133.489V131.521C30.3106 131.594 30.3105 131.594 30.3105 131.741Z" fill="#2B2B2B"/>
<path d="M32.1313 128.993C29.7163 130.365 29.7163 132.593 32.0563 133.971C34.4393 135.45 38.3003 135.45 40.7153 133.971C43.0943 132.593 43.1343 130.364 40.7523 128.993C38.3763 127.542 34.4713 127.542 32.1313 128.993Z" fill="#979797"/>
<path d="M31.7246 99.4799C31.7246 99.5579 31.7246 99.5959 31.7246 99.6339C31.7246 99.7049 31.7246 99.7049 31.7246 99.7809C31.7246 99.7809 31.7626 99.8509 31.7626 99.8909C31.7966 99.9269 31.7966 99.9269 31.8366 100.005C31.8736 100.076 31.8736 100.076 31.8736 100.153C31.9066 100.189 31.9066 100.223 31.9436 100.299C32.0206 100.339 32.0206 100.372 32.0556 100.445C32.0956 100.445 32.1306 100.525 32.1306 100.525C32.1676 100.599 32.2786 100.67 32.3146 100.749C32.3556 100.749 32.4266 100.749 32.4266 100.815C32.4666 100.859 32.5006 100.893 32.6116 100.969C32.6116 100.969 32.6526 101.005 32.7276 101.045C32.7636 101.12 32.7966 101.149 32.8746 101.191C32.9126 101.191 32.9486 101.265 33.0206 101.307C33.2436 101.417 33.4706 101.487 33.6946 101.597C33.7276 101.641 33.8416 101.641 33.8416 101.641C34.0996 101.749 34.3236 101.785 34.5496 101.899C34.5846 101.899 34.5846 101.899 34.6546 101.899C34.8806 101.933 35.1026 101.933 35.3296 102.045C35.3996 102.045 35.4756 102.045 35.4756 102.045C35.7726 102.045 36.0366 102.078 36.2926 102.078H36.3686C36.6626 102.078 36.8886 102.045 37.1846 102.045C37.2586 102.045 37.2586 102.045 37.2956 102.045C37.5586 101.933 37.8156 101.933 37.9996 101.899C38.1126 101.899 38.1496 101.861 38.1886 101.861C38.4496 101.785 38.5946 101.75 38.8566 101.641C38.8566 101.641 38.8946 101.641 38.9696 101.641C39.1936 101.487 39.4496 101.417 39.6766 101.307C40.5656 100.748 41.0126 100.005 41.0126 99.2949L41.1626 130.918C41.1626 131.594 40.6766 132.37 39.7496 132.857C39.5646 133.004 39.3036 133.075 39.0806 133.191C39.0806 133.231 39.0386 133.231 39.0386 133.231C39.0066 133.231 38.9696 133.231 38.8936 133.231C38.7816 133.301 38.6676 133.335 38.5216 133.375C38.4486 133.447 38.3736 133.447 38.2616 133.447C38.1876 133.447 38.1876 133.487 38.1496 133.487C38.1126 133.487 38.0406 133.487 37.9996 133.487C37.8526 133.523 37.7436 133.597 37.5586 133.597C37.4846 133.635 37.4436 133.635 37.4436 133.635C37.2956 133.67 37.2956 133.67 37.2586 133.67C37.1846 133.67 37.1476 133.67 37.1106 133.67C36.9626 133.67 36.8476 133.67 36.6626 133.67C36.5916 133.67 36.5556 133.67 36.4746 133.67C36.4446 133.67 36.3686 133.67 36.3686 133.67C36.2926 133.67 36.1806 133.67 36.1406 133.67C35.9966 133.67 35.8476 133.67 35.6246 133.67C35.5866 133.67 35.5866 133.67 35.5866 133.67C35.5476 133.67 35.4746 133.635 35.4396 133.635C35.2896 133.597 35.1416 133.597 35.0276 133.523C34.9196 133.523 34.8406 133.487 34.7336 133.487C34.7336 133.487 34.6956 133.487 34.6546 133.487C34.4696 133.447 34.3236 133.335 34.1746 133.301C34.0996 133.301 34.0276 133.231 33.9886 133.231C33.8806 133.231 33.8416 133.231 33.7656 133.191C33.5406 133.075 33.3536 133.005 33.1376 132.857C33.0976 132.857 33.0976 132.857 33.0976 132.857C33.0206 132.815 33.0206 132.783 32.9486 132.743C32.8746 132.707 32.8366 132.707 32.7626 132.634C32.7266 132.594 32.7266 132.556 32.6516 132.556C32.6106 132.522 32.6106 132.482 32.5006 132.407H32.4666C32.4666 132.371 32.4666 132.371 32.4266 132.371C32.3556 132.262 32.2796 132.223 32.2406 132.113C32.1676 132.113 32.1676 132.113 32.1676 132.113V132.035C32.1306 131.965 32.0956 131.93 32.0206 131.888C32.0206 131.888 32.0206 131.814 32.0206 131.778C32.0206 131.778 31.9836 131.778 31.9836 131.742C31.9436 131.742 31.9066 131.664 31.9066 131.595L31.8736 131.52C31.8736 131.52 31.8736 131.52 31.8736 131.48C31.8736 131.44 31.8736 131.44 31.8366 131.37C31.8366 131.294 31.7966 131.294 31.7966 131.294C31.7966 131.256 31.7966 131.221 31.7966 131.221C31.7966 131.185 31.7966 131.147 31.7966 131.073C31.7626 131.073 31.7626 130.999 31.7626 130.999V130.961L31.7246 99.3369C31.7246 99.4089 31.7246 99.4459 31.7246 99.4799Z" fill="#3B3B3B"/>
<path d="M33.0609 97.406C31.2389 98.442 31.2389 100.188 33.0219 101.306C34.8809 102.306 37.8539 102.306 39.6779 101.306C41.5329 100.188 41.5329 98.442 39.7129 97.406C37.8539 96.323 34.8809 96.323 33.0609 97.406Z" fill="#979797"/>
<path d="M38.1907 101.861C38.4517 101.785 38.5967 101.75 38.8587 101.641C38.8587 101.641 38.8967 101.641 38.9717 101.641C39.1957 101.487 39.4517 101.417 39.6787 101.307C40.5677 100.748 41.0147 100.005 41.0147 99.2949L41.1647 130.918C41.1647 131.594 40.6787 132.37 39.7517 132.857C39.5667 133.004 39.3057 133.075 39.0827 133.191C39.0827 133.231 39.0407 133.231 39.0407 133.231C39.0087 133.231 38.9717 133.231 38.8957 133.231C38.7837 133.301 38.6697 133.335 38.5237 133.375C38.4507 133.447 38.3757 133.447 38.2637 133.447C38.1897 133.447 38.1897 133.487 38.1517 133.487C38.1147 133.487 38.0427 133.487 38.0017 133.487C38.0017 133.523 37.9667 133.523 37.9297 133.523V101.933C37.9667 101.899 38.0017 101.899 38.0017 101.899C38.1157 101.899 38.1527 101.861 38.1907 101.861Z" fill="#2B2B2B"/>
<path d="M34.1747 28.1303C34.1747 28.2373 34.2147 28.2763 34.2497 28.3163C34.2497 28.3943 34.2497 28.3943 34.2497 28.4263C34.3237 28.4643 34.4387 28.5373 34.4387 28.5753C34.4707 28.6453 34.5497 28.6453 34.5847 28.7233C34.6547 28.7233 34.6957 28.7573 34.7337 28.7573C34.8807 28.8683 35.0277 28.9463 35.1417 29.0233C35.2137 29.0233 35.2897 29.0233 35.2897 29.0233C35.3987 29.0233 35.4747 29.0593 35.5867 29.0973C35.5867 29.0973 35.7347 29.0973 35.8077 29.0973C35.8477 29.0973 35.8477 29.0973 35.8857 29.1693C35.9967 29.1693 36.1057 29.1693 36.1807 29.1693C36.2567 29.1693 36.2567 29.1693 36.2917 29.1693C36.3677 29.1693 36.5137 29.1693 36.6617 29.1693L36.7007 29.0973C36.8477 29.0973 36.9237 29.0973 37.0007 29.0593C37.0727 29.0593 37.0727 29.0593 37.1097 29.0233C37.1837 29.0233 37.2947 29.0233 37.4427 28.9473C37.5577 28.9093 37.6697 28.8693 37.7767 28.7583C38.1877 28.5373 38.4487 28.2373 38.4487 27.9043L38.5947 99.0003C38.5947 99.2953 38.4487 99.6333 37.9647 99.8913C37.8527 99.9273 37.7767 100.005 37.6697 100.077C37.6697 100.077 37.6697 100.077 37.5947 100.077C37.5587 100.077 37.4847 100.077 37.4437 100.113C37.3717 100.113 37.2957 100.153 37.2957 100.153C37.2587 100.153 37.2587 100.153 37.2587 100.189H37.1847C37.1107 100.189 37.0007 100.223 36.9617 100.223H36.8887C36.8887 100.223 36.8887 100.223 36.8477 100.223C36.8477 100.223 36.8477 100.223 36.7397 100.223C36.7007 100.223 36.6287 100.265 36.5547 100.265C36.5137 100.265 36.4747 100.265 36.4747 100.265C36.4747 100.265 36.4447 100.265 36.3687 100.265C36.3687 100.265 36.3687 100.265 36.3297 100.265C36.2577 100.265 36.1417 100.223 36.0717 100.223H36.0357C35.9587 100.223 35.8867 100.223 35.8477 100.189C35.8077 100.189 35.7717 100.189 35.7717 100.189C35.6647 100.153 35.5867 100.153 35.5127 100.113C35.4747 100.077 35.4397 100.077 35.3997 100.077C35.3997 100.077 35.3577 100.077 35.3297 100.077C35.2147 100.006 35.0667 99.9283 34.9197 99.8913C34.9197 99.8513 34.8807 99.8513 34.8807 99.8513L34.8417 99.7813C34.7347 99.7813 34.6957 99.7053 34.6557 99.7053C34.5857 99.6343 34.5507 99.5963 34.4707 99.5583C34.4707 99.4803 34.4707 99.4803 34.4707 99.4803V99.4463C34.4387 99.4463 34.4387 99.4103 34.4387 99.4103C34.4387 99.3363 34.3607 99.2973 34.3607 99.2633L34.3247 99.1873C34.3247 99.1113 34.3247 99.0413 34.3247 99.0023L34.1367 27.9443V27.9063C34.1367 27.9823 34.1367 28.0903 34.1747 28.1303Z" fill="#3B3B3B"/>
<path d="M34.7355 27.0158C33.8825 27.4937 33.8825 28.3177 34.7355 28.7597C35.5895 29.2427 36.9255 29.2427 37.7795 28.7597C38.5965 28.3177 38.5965 27.4928 37.7795 27.0158C36.9635 26.4947 35.5885 26.4947 34.7355 27.0158Z" fill="#434351"/>
<path d="M36.6637 29.1713L36.7026 29.0992C36.8496 29.0992 36.9257 29.0992 37.0027 29.0612C37.0747 29.0612 37.0747 29.0612 37.1117 29.0252C37.1857 29.0252 37.2966 29.0252 37.4446 28.9492C37.5596 28.9112 37.6717 28.8713 37.7787 28.7603C38.1897 28.5393 38.4507 28.2393 38.4507 27.9062L38.5966 99.0023C38.5966 99.2973 38.4506 99.6352 37.9666 99.8932C37.8546 99.9293 37.7787 100.007 37.6717 100.079C37.6717 100.079 37.6716 100.079 37.5966 100.079C37.5606 100.079 37.4866 100.079 37.4456 100.115C37.3736 100.115 37.2976 100.155 37.2976 100.155C37.2606 100.155 37.2607 100.155 37.2607 100.191H37.1866C37.1126 100.191 37.0027 100.225 36.9637 100.225H36.8907C36.8907 100.225 36.8906 100.225 36.8496 100.225C36.8496 100.225 36.8496 100.225 36.7416 100.225C36.7026 100.225 36.6306 100.267 36.5566 100.267V29.1732C36.5916 29.1712 36.5917 29.1713 36.6637 29.1713Z" fill="#2B2B2B"/>
<path d="M33.1402 25.7479C33.1402 25.7879 33.1402 25.8319 33.1402 25.8979C33.1402 25.8979 33.1722 25.8979 33.1722 25.9759V26.0469C33.2092 26.0849 33.2092 26.1209 33.2092 26.1209C33.2092 26.1209 33.2452 26.1909 33.2452 26.2309C33.2842 26.2689 33.3232 26.2689 33.3232 26.3449C33.3232 26.3449 33.3552 26.3449 33.3552 26.3809C33.3552 26.3809 33.3962 26.4179 33.4342 26.4179C33.4722 26.4919 33.5102 26.5629 33.5422 26.6029C33.5822 26.6029 33.5822 26.6029 33.6192 26.6409C33.6542 26.7189 33.6542 26.7189 33.6952 26.7189C33.7282 26.7499 33.7282 26.7499 33.7662 26.7879C33.8412 26.8279 33.8412 26.8659 33.8802 26.9039C33.9542 26.9039 33.9882 26.9039 34.0272 26.9339C34.1742 27.0499 34.3242 27.0879 34.4702 27.1599C34.5082 27.1999 34.5492 27.1999 34.5842 27.1999C34.6952 27.2379 34.7702 27.3099 34.8802 27.3099C34.9972 27.3459 35.1032 27.3839 35.2142 27.3839C35.2902 27.4589 35.4752 27.4589 35.5872 27.4589C35.5872 27.4589 35.6252 27.4589 35.6642 27.4889C35.8482 27.4889 36.0712 27.4889 36.1812 27.4889C36.1812 27.4889 36.2572 27.4889 36.2922 27.4889C36.4752 27.4889 36.6622 27.4889 36.8482 27.4889C36.8482 27.4589 36.8892 27.4589 36.8892 27.4589C37.0742 27.4589 37.2592 27.4589 37.4442 27.3839C37.4442 27.3839 37.4442 27.3839 37.4852 27.3839C37.6712 27.3099 37.7782 27.3099 37.9282 27.1989C37.9652 27.1989 37.9652 27.1989 37.9652 27.1989C38.1512 27.0879 38.2992 27.0499 38.4852 26.9329C39.0822 26.5609 39.4152 26.1189 39.4152 25.6699V27.6059C39.4152 28.0859 39.1182 28.5719 38.4852 28.9439C38.3752 29.0199 38.1892 29.0939 38.0012 29.1669C37.9662 29.2019 37.9662 29.2019 37.9292 29.2019C37.8542 29.2019 37.7452 29.2379 37.6712 29.2379C37.5962 29.3119 37.5602 29.3119 37.4852 29.3539H37.4442C37.3722 29.3539 37.2962 29.3539 37.2962 29.3539C37.2592 29.3879 37.1112 29.3879 37.0012 29.3879C36.9622 29.3879 36.9242 29.3879 36.8892 29.3879H36.8482C36.7792 29.3879 36.7402 29.3879 36.7012 29.4639C36.5912 29.4639 36.4742 29.4639 36.3682 29.4639C36.3682 29.4639 36.3292 29.4639 36.2922 29.4639H36.1812C36.1412 29.4639 36.1062 29.4639 36.0722 29.4639C35.9592 29.4639 35.8482 29.4639 35.7362 29.3879C35.7362 29.3879 35.7362 29.3879 35.7012 29.3879C35.6652 29.3879 35.5882 29.3879 35.5882 29.3879C35.4762 29.3879 35.4002 29.3879 35.2912 29.3879C35.2912 29.3879 35.2152 29.3879 35.2152 29.3539C35.1042 29.3539 34.9982 29.3119 34.8812 29.2379C34.8422 29.2379 34.7722 29.2379 34.7342 29.2379C34.6962 29.2019 34.6552 29.2019 34.5852 29.2019C34.5502 29.2019 34.5092 29.1669 34.4712 29.1669C34.3252 29.0949 34.1752 29.0209 34.0282 28.9439V28.9059L33.9562 28.8659C33.8432 28.7949 33.8432 28.7949 33.7682 28.7549C33.7302 28.7549 33.7302 28.7209 33.6972 28.7209C33.6972 28.6429 33.6562 28.6429 33.6212 28.6429C33.6212 28.6429 33.5842 28.6429 33.5842 28.6069V28.5729C33.5122 28.5349 33.4742 28.4619 33.4362 28.4239H33.3982C33.3982 28.3919 33.3572 28.3919 33.3572 28.3919C33.3572 28.3139 33.3252 28.2739 33.3252 28.2739C33.3252 28.2359 33.3252 28.2359 33.2862 28.2019L33.2472 28.1679C33.2472 28.1679 33.2472 28.0889 33.2112 28.0889V28.0529L33.1742 27.9809C33.1742 27.9809 33.1742 27.9809 33.1742 27.9029C33.1422 27.8329 33.1422 27.8329 33.1422 27.8329C33.1422 27.8329 33.1422 27.7599 33.1422 27.6819C33.1422 27.6819 33.1422 27.6819 33.1422 27.6479C33.1022 27.6479 33.1022 27.6479 33.1022 27.6479V25.6729C33.1002 25.6739 33.1002 25.7479 33.1402 25.7479Z" fill="#2B2B2B"/>
<path d="M34.0287 24.3441C32.7977 25.0481 32.7977 26.2711 34.0287 26.9371C35.2927 27.6831 37.2607 27.6831 38.4867 26.9371C39.7147 26.2711 39.7147 25.0481 38.4867 24.3441C37.2607 23.6301 35.2917 23.6301 34.0287 24.3441Z" fill="#3B3B3B"/>
<path d="M8.73383 52.1753L6.0918 50.6433L32.9218 35.1523L35.5598 36.6863L8.73383 52.1753Z" fill="#8DC63F"/>
<path d="M2.638 61.8096L0 60.2776L6.09198 50.6426L8.73401 52.1746L2.638 61.8096Z" fill="#98D343"/>
<path d="M35.5607 36.6855L35.5937 48.2856L8.76566 63.7776L2.63867 61.8095L8.73468 52.1745L35.5607 36.6855Z" fill="#518524"/>
<path d="M62.409 52.316L65.05 50.781L38.221 35.291L35.584 36.825L62.409 52.316Z" fill="#8DC63F"/>
<path d="M68.5032 61.9503L71.1422 60.4163L65.0492 50.7812L62.4082 52.3163L68.5032 61.9503Z" fill="#98D343"/>
<path d="M35.5838 36.8242L35.5488 48.4272L62.3778 63.9152L68.5038 61.9492L62.4088 52.3152L35.5838 36.8242Z" fill="#217F1C"/>
<defs>
<clipPath id="clip0_176_127291">
<rect width="24" height="24" fill="white" transform="translate(158 43)"/>
</clipPath>
</defs>
</svg>
