<svg width="464" height="193" viewBox="0 0 464 193" fill="none" xmlns="http://www.w3.org/2000/svg">
<g clip-path="url(#clip0_171_112961)">
<path d="M69.282 123.281L69.2349 139.223C66.4924 137.645 62.0584 137.645 59.3301 139.223L59.3772 123.281C62.1008 121.703 66.5396 121.703 69.282 123.281Z" fill="#A3A3A3"/>
<path d="M104.184 143.37L104.141 159.312L69.2344 139.223L69.2815 123.281L104.184 143.37Z" fill="#ADADAD"/>
<path d="M106.252 146.25L106.205 162.192C106.21 161.149 105.517 160.107 104.137 159.313L104.184 143.371C105.564 144.165 106.252 145.208 106.252 146.25Z" fill="#BABABA"/>
<path d="M59.3773 123.281L59.3302 139.223L13.7832 165.611L13.8256 149.669L59.3773 123.281Z" fill="#BFBFBF"/>
<path d="M118 146.949L117.953 156.508C117.949 158.001 116.964 159.495 114.994 160.636L115.041 151.078C117.011 149.941 117.996 148.448 118 146.949Z" fill="#BABABA"/>
<path d="M11.748 168.449L11.7952 152.507C11.7999 151.478 12.4737 150.454 13.8308 149.67L13.7837 165.612C12.4313 166.396 11.7528 167.42 11.748 168.449Z" fill="#BABABA"/>
<path d="M1.65144e-05 161.361L0.0471374 151.803C0.0424253 153.315 1.0461 154.832 3.05345 155.992L3.00633 165.551C0.998978 164.395 -0.00469557 162.878 1.65144e-05 161.361Z" fill="#A3A3A3"/>
<path d="M115.04 151.084L114.993 160.642L62.1094 191.277L62.1518 181.718L115.04 151.084Z" fill="#BFBFBF"/>
<path d="M47.7518 181.718L47.7047 191.276L3.00586 165.551L3.05298 155.992L47.7518 181.718Z" fill="#ADADAD"/>
<path d="M114.994 142.765C118.985 145.062 119.004 148.786 115.041 151.083L62.1528 181.717C58.1899 184.014 51.7438 184.014 47.7527 181.717L3.05383 155.992C-0.937303 153.695 -0.956151 149.97 3.002 147.678L55.8904 117.039C59.8533 114.742 66.3041 114.742 70.2953 117.039L114.994 142.765ZM58.6658 175.475L104.218 149.087C106.941 147.509 106.927 144.949 104.185 143.371L69.2822 123.281C66.5397 121.703 62.1057 121.703 59.3774 123.281L13.8257 149.669C11.1021 151.248 11.1162 153.807 13.8586 155.386L48.761 175.475C51.5082 177.053 55.9423 177.053 58.6658 175.475Z" fill="#D6D6D6"/>
<path d="M62.1523 181.717L62.1052 191.275C58.1423 193.572 51.6962 193.572 47.7051 191.275L47.7522 181.717C51.7433 184.014 58.1895 184.014 62.1523 181.717Z" fill="#A3A3A3"/>
<path d="M97.3709 140.383L54.1234 165.574L23.2168 147.786L66.4643 122.596L97.3709 140.383Z" fill="#724017"/>
<path d="M90.2794 142.051L54.3827 162.85L27.75 147.523L63.6467 126.725L90.2794 142.051Z" fill="#72A848"/>
<path d="M90.2663 142.061L87.9432 143.409L61.3105 128.082L63.6336 126.734L90.2663 142.061Z" fill="#669E3A"/>
<path d="M85.4733 144.836L83.1503 146.184L56.5176 130.858L58.8406 129.51L85.4733 144.836Z" fill="#669E3A"/>
<path d="M80.6823 147.614L78.3593 148.962L51.7266 133.63L54.0496 132.287L80.6823 147.614Z" fill="#669E3A"/>
<path d="M75.8894 150.389L73.5663 151.737L46.9336 136.411L49.2567 135.062L75.8894 150.389Z" fill="#669E3A"/>
<path d="M71.0964 153.164L68.7733 154.508L42.1406 139.181L44.4684 137.838L71.0964 153.164Z" fill="#669E3A"/>
<path d="M56.7253 161.492L54.3975 162.836L27.7695 147.509L30.0926 146.166L56.7253 161.492Z" fill="#669E3A"/>
<path d="M66.3054 155.94L63.9823 157.283L37.3496 141.957L39.6774 140.613L66.3054 155.94Z" fill="#669E3A"/>
<path d="M61.5183 158.717L59.1905 160.06L32.5625 144.734L34.8856 143.391L61.5183 158.717Z" fill="#669E3A"/>
<path d="M70.412 138.186C70.5298 138.251 70.5298 138.364 70.412 138.43C70.2989 138.496 70.1105 138.496 69.9926 138.43C69.8748 138.364 69.8748 138.251 69.9926 138.186C70.1057 138.115 70.2989 138.115 70.412 138.186Z" fill="#FCFCFC"/>
<path d="M70.2711 132.732L79.8555 138.247L79.7613 138.303L75.8832 140.548L66.2988 135.034L70.1769 132.789L70.2711 132.732ZM75.8832 140.44L79.6623 138.251L70.2664 132.845L66.4873 135.034L75.8832 140.44Z" fill="#FCFCFC"/>
<path d="M65.1104 138.006L70.7366 141.242L70.6 141.252C70.5906 141.252 70.5811 141.252 70.567 141.252C69.0686 141.345 67.5937 141.045 66.524 140.43C65.4544 139.814 64.9361 138.964 65.0916 138.1C65.0916 138.095 65.0916 138.086 65.0963 138.081L65.1104 138.006ZM66.623 140.378C67.6361 140.96 69.0214 141.252 70.4445 141.181L65.2188 138.175C65.0963 138.997 65.6099 139.795 66.623 140.378Z" fill="#FCFCFC"/>
<path d="M47.8466 138.302L55.5461 142.736C55.532 142.745 55.5131 142.755 55.499 142.764C55.4848 142.774 55.466 142.783 55.4519 142.792L47.7523 138.358L47.6816 138.316L47.7759 138.26L47.8466 138.302Z" fill="#FCFCFC"/>
<path d="M62.5753 146.78C62.5612 146.79 62.5423 146.799 62.5282 146.808C62.514 146.818 62.4952 146.827 62.4811 146.837C60.5538 147.926 57.4438 147.917 55.526 146.808C53.6035 145.7 53.5752 143.906 55.4553 142.792C55.4695 142.783 55.4883 142.774 55.5025 142.764C55.5166 142.755 55.5355 142.745 55.5496 142.736C57.4815 141.646 60.5868 141.656 62.5093 142.764C64.4272 143.868 64.4554 145.662 62.5753 146.78ZM62.3868 146.78C62.401 146.771 62.4198 146.761 62.4339 146.752C62.4481 146.743 62.4669 146.733 62.4811 146.724C64.3046 145.634 64.2811 143.892 62.4104 142.816C60.5397 141.74 57.5192 141.731 55.6438 142.788C55.6297 142.797 55.6108 142.807 55.5967 142.816C55.5826 142.825 55.5637 142.835 55.5496 142.844C53.726 143.929 53.7496 145.676 55.6203 146.752C57.4863 147.828 60.5114 147.837 62.3868 146.78Z" fill="#FCFCFC"/>
<path d="M86.3722 141.999L54.2829 160.59L31.6602 147.569L63.7494 128.979L67.6558 131.228L67.5615 131.285L63.7494 129.091L47.8462 138.302L47.6812 138.316L31.8486 147.569L35.6607 149.763L35.5665 149.819L50.3718 158.34L50.4708 158.283L54.2782 160.477L70.1814 151.266L70.3511 151.252L86.179 141.999L82.3669 139.805L82.4611 139.749L86.3722 141.999Z" fill="#FCFCFC"/>
<path d="M70.2762 151.209L70.3469 151.252L70.2526 151.308L70.182 151.266L62.4824 146.832C62.4966 146.822 62.5154 146.813 62.5295 146.804C62.5437 146.794 62.5625 146.785 62.5767 146.775L70.2762 151.209Z" fill="#FCFCFC"/>
<path d="M55.645 142.787L62.4823 146.723C62.4681 146.733 62.4493 146.742 62.4351 146.751C62.421 146.761 62.4021 146.77 62.388 146.78L55.5508 142.843C55.5649 142.834 55.5838 142.825 55.5979 142.815C55.612 142.806 55.6262 142.797 55.645 142.787Z" fill="#FCFCFC"/>
<path d="M48.039 151.145C48.1568 151.211 48.1568 151.324 48.039 151.389C47.9259 151.455 47.7374 151.455 47.6196 151.389C47.5018 151.324 47.5018 151.211 47.6196 151.145C47.7327 151.079 47.9212 151.079 48.039 151.145Z" fill="#FCFCFC"/>
<path d="M42.1492 149.021L51.7336 154.536L47.8603 156.781L47.766 156.837L38.1816 151.323L38.2759 151.267L42.1492 149.021ZM47.7613 156.729L51.5404 154.541L42.1492 149.13L38.3701 151.318L47.7613 156.729Z" fill="#FCFCFC"/>
<path d="M52.9356 151.469L57.6005 154.155L50.4665 158.289L50.3722 158.345L47.7617 156.842L47.856 156.786L50.3722 158.232L57.4121 154.155L52.9167 151.567L52.9356 151.488C52.9356 151.478 52.9356 151.473 52.9356 151.469Z" fill="#FCFCFC"/>
<path d="M35.7588 149.819L38.2751 151.265L38.1808 151.322L35.5703 149.819L35.6646 149.762L42.7987 145.629L47.4636 148.316C47.4542 148.316 47.4448 148.316 47.4306 148.316L47.2893 148.325L42.7939 145.742L35.7588 149.819Z" fill="#FCFCFC"/>
<path d="M52.9361 151.488L52.9172 151.567L47.291 148.331L47.4324 148.322C47.4418 148.322 47.4512 148.322 47.4654 148.322C48.9638 148.228 50.434 148.524 51.5083 149.144C52.578 149.759 53.0963 150.609 52.9408 151.473C52.9361 151.473 52.9361 151.478 52.9361 151.488ZM47.5879 148.388L52.8136 151.394C52.9314 150.572 52.4225 149.773 51.4094 149.191C50.3963 148.608 49.0109 148.317 47.5879 148.388Z" fill="#FCFCFC"/>
<path d="M65.1115 138.006L65.0974 138.086C65.0974 138.091 65.0974 138.1 65.0927 138.105L60.4277 135.418L67.5618 131.285L67.6561 131.229L70.2666 132.732L70.1723 132.788L67.6561 131.341L60.6162 135.418L65.1115 138.006Z" fill="#FCFCFC"/>
<path d="M79.8512 138.25L82.4617 139.753L82.3674 139.809L75.2333 143.943L70.5684 141.256C70.5778 141.256 70.5872 141.256 70.6013 141.256L70.738 141.247L75.2333 143.835L82.2732 139.758L79.7569 138.311L79.8512 138.25Z" fill="#FCFCFC"/>
<path d="M69.0001 111.304L68.9577 126.814C66.2906 125.278 61.9744 125.278 59.3262 126.814L59.3686 111.304C62.0168 109.768 66.333 109.768 69.0001 111.304Z" fill="#A3A3A3"/>
<path d="M59.3677 111.305L59.3206 126.814L15.0176 152.479L15.06 136.974L59.3677 111.305Z" fill="#BFBFBF"/>
<path d="M102.955 130.844L102.908 146.354L68.957 126.814L68.9994 111.305L102.955 130.844Z" fill="#ADADAD"/>
<path d="M104.963 133.649L104.92 149.159C104.925 148.144 104.251 147.13 102.908 146.359L102.951 130.85C104.298 131.62 104.967 132.634 104.963 133.649Z" fill="#BABABA"/>
<path d="M13.0391 155.24L13.0815 139.731C13.0862 138.73 13.7412 137.734 15.0605 136.969L15.0181 152.478C13.6988 153.244 13.0391 154.24 13.0391 155.24Z" fill="#BABABA"/>
<path d="M116.394 134.33L116.352 143.63C116.347 145.086 115.39 146.538 113.473 147.646L113.515 138.346C115.428 137.238 116.389 135.786 116.394 134.33Z" fill="#BABABA"/>
<path d="M1.60742 148.345L1.64983 139.045C1.64512 140.52 2.62052 141.995 4.57603 143.117L4.53363 152.417C2.58282 151.295 1.60742 149.82 1.60742 148.345Z" fill="#A3A3A3"/>
<path d="M113.514 138.346L113.467 147.646L62.0254 177.444L62.0678 168.148L113.514 138.346Z" fill="#BFBFBF"/>
<path d="M48.0587 168.149L48.0163 177.444L4.5332 152.423L4.58032 143.123L48.0587 168.149Z" fill="#ADADAD"/>
<path d="M62.069 168.148L62.0266 177.449C58.1721 179.68 51.9003 179.68 48.0176 177.449L48.06 168.148C51.9427 170.38 58.2145 170.38 62.069 168.148Z" fill="#A3A3A3"/>
<path d="M15.0602 143.711L59.3679 118.046C62.0209 116.51 66.3324 116.51 68.9994 118.046L102.95 137.586C103.473 137.886 103.888 138.224 104.208 138.581C105.528 137.102 105.108 135.232 102.95 133.992L68.9994 114.453C66.3324 112.917 62.0161 112.917 59.3679 114.453L15.0602 140.117C12.9256 141.353 12.5251 143.203 13.8351 144.683C14.1461 144.331 14.556 144.002 15.0602 143.711Z" fill="#D6D6D6"/>
<path d="M99.2611 141.038C100.237 140.432 101.188 139.793 102.14 139.14L69.0048 120.07C66.3378 118.534 62.0215 118.534 59.3733 120.07L15.0609 145.73C14.6886 145.946 14.3682 146.181 14.0996 146.434C14.1326 146.481 14.1703 146.524 14.2033 146.571C14.7357 147.35 15.3295 148.097 15.9703 148.797L59.3639 123.658C62.0168 122.123 66.3283 122.123 68.9954 123.658L99.214 141.052C99.2328 141.047 99.247 141.042 99.2611 141.038Z" fill="#D6D6D6"/>
<path d="M113.468 130.257C117.351 132.493 117.37 136.115 113.515 138.346L62.0688 168.148C58.2143 170.379 51.9425 170.379 48.0597 168.148L4.58133 143.123C0.698572 140.887 0.679723 137.265 4.53421 135.034L55.976 105.232C59.8352 102.996 66.107 102.996 69.9851 105.232L113.468 130.257ZM58.676 162.075L102.984 136.41C105.637 134.875 105.623 132.385 102.951 130.849L69.0002 111.31C66.3332 109.774 62.0169 109.774 59.3687 111.31L15.061 136.974C12.4081 138.51 12.4269 140.999 15.094 142.535L49.0446 162.075C51.7163 163.611 56.0279 163.611 58.676 162.075Z" fill="#D6D6D6"/>
<path d="M115.04 151.084L114.993 160.642L62.1094 191.277L62.1518 181.718L115.04 151.084Z" fill="#BFBFBF"/>
<path d="M74.2139 177.632C73.1537 178.243 72.2961 179.722 72.3008 180.939L72.3149 185.368L76.16 183.142L76.1459 178.727C76.1412 177.51 75.2788 177.022 74.2139 177.632Z" fill="#4F4F4F"/>
<path d="M91.6299 168.181C90.5697 168.792 89.7121 170.271 89.7168 171.488L89.7262 175.278L93.5713 173.052L93.5619 169.275C93.5572 168.059 92.6901 167.57 91.6299 168.181Z" fill="#4F4F4F"/>
<path d="M109.046 158.281C107.986 158.891 107.128 160.371 107.133 161.587L107.142 165.19L110.987 162.964L110.978 159.375C110.968 158.158 110.106 157.67 109.046 158.281Z" fill="#4F4F4F"/>
<path d="M31.0722 175.372C30.012 174.762 29.145 175.25 29.1403 176.467L29.1309 180.586L32.9759 182.798L32.9853 178.679C32.9948 177.463 32.1325 175.983 31.0722 175.372Z" fill="#4F4F4F"/>
<path d="M13.6601 165.921C12.5999 165.311 11.7329 165.799 11.7282 167.016L11.7188 170.567L15.5638 172.779L15.5732 169.228C15.5779 168.011 14.7203 166.532 13.6601 165.921Z" fill="#4F4F4F"/>
<path d="M68.0947 168.476C67.5858 168.767 67.1711 169.481 67.1758 170.063L67.1805 171.796L69.0277 170.725L69.023 169.002C69.023 168.414 68.6036 168.18 68.0947 168.476Z" fill="#4F4F4F"/>
<path d="M73.538 165.306C73.0291 165.597 72.6145 166.311 72.6192 166.893L72.6239 168.626L74.471 167.556L74.4663 165.832C74.4663 165.245 74.0517 165.01 73.538 165.306Z" fill="#4F4F4F"/>
<path d="M78.9833 162.136C78.4744 162.427 78.0598 163.141 78.0645 163.723L78.0692 165.457L79.9163 164.386L79.9116 162.662C79.9069 162.075 79.4923 161.84 78.9833 162.136Z" fill="#4F4F4F"/>
<path d="M84.4267 158.964C83.9178 159.255 83.5031 159.969 83.5079 160.551L83.5126 162.285L85.3597 161.214L85.355 159.49C85.3503 158.903 84.9356 158.668 84.4267 158.964Z" fill="#4F4F4F"/>
<path d="M89.8701 155.794C89.3612 156.085 88.9465 156.799 88.9512 157.382L88.9559 159.115L90.8031 158.044L90.7983 156.32C90.7983 155.733 90.379 155.498 89.8701 155.794Z" fill="#4F4F4F"/>
<path d="M95.3115 152.624C94.8026 152.915 94.3879 153.629 94.3926 154.212L94.3973 155.945L96.2445 154.874L96.2398 153.15C96.2398 152.563 95.8251 152.328 95.3115 152.624Z" fill="#4F4F4F"/>
<path d="M100.755 149.454C100.246 149.745 99.8313 150.459 99.836 151.042L99.8407 152.775L101.688 151.704L101.683 149.98C101.683 149.393 101.268 149.158 100.755 149.454Z" fill="#4F4F4F"/>
<path d="M106.202 146.277C105.693 146.569 105.279 147.282 105.283 147.865L105.288 149.598L107.135 148.527L107.13 146.803C107.126 146.221 106.711 145.986 106.202 146.277Z" fill="#4F4F4F"/>
<path d="M111.644 143.107C111.135 143.399 110.72 144.113 110.725 144.695L110.729 146.428L112.577 145.357L112.572 143.633C112.567 143.051 112.152 142.816 111.644 143.107Z" fill="#4F4F4F"/>
<path d="M45.3588 170.389C45.8677 170.68 46.2823 171.394 46.2776 171.976L46.2729 173.709L44.4258 172.639L44.4305 170.915C44.4352 170.332 44.8499 170.097 45.3588 170.389Z" fill="#4F4F4F"/>
<path d="M39.9174 167.217C40.4263 167.508 40.8409 168.222 40.8362 168.804L40.8315 170.538L38.9844 169.467L38.9891 167.743C38.9938 167.16 39.4085 166.926 39.9174 167.217Z" fill="#4F4F4F"/>
<path d="M34.474 164.047C34.9829 164.338 35.3976 165.052 35.3929 165.634L35.3882 167.368L33.541 166.297L33.5457 164.573C33.5457 163.99 33.9651 163.756 34.474 164.047Z" fill="#4F4F4F"/>
<path d="M29.0326 160.877C29.5415 161.168 29.9562 161.882 29.9515 162.465L29.9467 164.198L28.0996 163.127L28.1043 161.403C28.1043 160.821 28.519 160.586 29.0326 160.877Z" fill="#4F4F4F"/>
<path d="M23.5892 157.705C24.0981 157.996 24.5128 158.71 24.5081 159.293L24.5034 161.026L22.6562 159.955L22.661 158.231C22.661 157.649 23.0756 157.414 23.5892 157.705Z" fill="#4F4F4F"/>
<path d="M18.142 154.536C18.6509 154.827 19.0655 155.541 19.0608 156.124L19.0561 157.857L17.209 156.786L17.2137 155.062C17.2184 154.475 17.6331 154.245 18.142 154.536Z" fill="#4F4F4F"/>
<path d="M12.7006 151.364C13.2095 151.655 13.6241 152.369 13.6194 152.952L13.6147 154.685L11.7676 153.614L11.7723 151.89C11.777 151.303 12.1917 151.068 12.7006 151.364Z" fill="#4F4F4F"/>
<path d="M7.25721 148.194C7.76612 148.486 8.18078 149.199 8.17607 149.782L8.17136 151.515L6.32422 150.444L6.32893 148.72C6.32893 148.133 6.74831 147.898 7.25721 148.194Z" fill="#4F4F4F"/>
<path d="M78.1736 103.385L78.1406 113.601L94.1099 122.793L94.1381 112.572L78.1736 103.385Z" fill="#A6A6A6"/>
<path d="M79.5645 112.789L79.5833 105.828L92.7206 113.39L92.7017 120.347L79.5645 112.789Z" fill="#CECECE"/>
<path d="M94.1094 122.793L94.7738 122.408L94.8021 112.188L94.1376 112.573L94.1094 122.793Z" fill="#727272"/>
<path d="M94.1384 112.573L94.8028 112.187L78.8382 103L78.1738 103.385L94.1384 112.573Z" fill="#B8B8B8"/>
<path d="M19.2244 138.975L19.1914 149.195L35.1607 158.383L35.1889 148.167L19.2244 138.975Z" fill="#A6A6A6"/>
<path d="M35.1602 158.382L35.8246 157.997L35.8528 147.781L35.1884 148.166L35.1602 158.382Z" fill="#727272"/>
<path d="M35.1891 148.167L35.8536 147.782L19.889 138.59L19.2246 138.975L35.1891 148.167Z" fill="#B8B8B8"/>
<path d="M23.203 145.142L23.1794 153.066L22.2559 152.535L22.2794 144.611L23.203 145.142Z" fill="#818181"/>
<path d="M23.2032 145.142L24.0656 144.645L24.042 152.564L23.1797 153.066L23.2032 145.142Z" fill="#BAB9B9"/>
<path d="M22.2793 144.611L23.1463 144.113L24.0652 144.644L23.2029 145.142L22.2793 144.611Z" fill="#D0CFCF"/>
<path d="M28.6963 148.359L28.6775 156.283L27.7539 155.752L27.7775 147.828L28.6963 148.359Z" fill="#818181"/>
<path d="M28.6966 148.36L29.5636 147.857L29.54 155.781L28.6777 156.284L28.6966 148.36Z" fill="#BAB9B9"/>
<path d="M27.7773 147.829L28.6397 147.326L29.5632 147.857L28.6962 148.36L27.7773 147.829Z" fill="#D0CFCF"/>
</g>
<rect x="118" width="346" height="92" rx="16" fill="#006DB7"/>
<rect x="133.048" y="25.0476" width="41.9048" height="41.9048" rx="20.9524" fill="#81C995"/>
<rect x="133.048" y="25.0476" width="41.9048" height="41.9048" rx="20.9524" stroke="white" stroke-width="2.09524"/>
<g clip-path="url(#clip1_171_112961)">
<path d="M141.99 53.313C141.99 48.4378 141.99 43.562 141.99 38.6862C142.003 38.6505 142.021 38.6154 142.03 38.5778C142.287 37.4987 143.081 36.8586 144.177 36.8586C150.723 36.8574 157.269 36.8567 163.815 36.8586C165.077 36.8592 165.992 37.7686 165.993 39.0281C165.996 43.676 165.995 48.3232 165.991 52.971C165.991 53.1714 165.967 53.3781 165.916 53.5723C165.661 54.543 164.836 55.1418 163.768 55.1418C158.542 55.1424 153.317 55.1418 148.091 55.1418C146.763 55.1418 145.436 55.1462 144.107 55.1399C143.181 55.1355 142.38 54.5531 142.097 53.6938C142.056 53.5685 142.025 53.4401 141.99 53.313ZM154.708 38.264C154.708 39.7121 154.708 41.1307 154.708 42.5461C156.54 42.9983 157.434 44.462 157.503 45.8211C157.541 46.567 157.357 47.261 156.95 47.8904C156.417 48.7165 155.656 49.2232 154.71 49.4468C154.71 50.8829 154.71 52.3009 154.71 53.7245C154.754 53.7288 154.784 53.7345 154.814 53.7345C157.83 53.7351 160.845 53.7364 163.861 53.7332C164.287 53.7326 164.581 53.4345 164.586 53.0086C164.592 52.4931 164.587 51.9771 164.588 51.4616C164.588 51.2856 164.588 51.109 164.588 50.9205C163.844 50.9205 163.134 50.9317 162.424 50.918C161.313 50.8967 160.385 49.9898 160.375 48.8843C160.359 46.9628 160.362 45.0407 160.374 43.1192C160.38 42.2029 161.024 41.3987 161.914 41.1651C162.137 41.1062 162.375 41.0843 162.607 41.0805C163.261 41.0693 163.915 41.0768 164.589 41.0768C164.589 40.4129 164.589 39.7747 164.589 39.1359C164.589 38.5196 164.336 38.264 163.726 38.264C160.812 38.264 157.898 38.264 154.984 38.264C154.898 38.264 154.813 38.264 154.708 38.264ZM153.281 49.4524C151.508 49.0209 150.571 47.6073 150.484 46.2219C150.437 45.4841 150.607 44.7946 150.997 44.1657C151.53 43.3083 152.304 42.7816 153.273 42.5524C153.273 41.1144 153.273 39.6964 153.273 38.2747C153.228 38.2703 153.197 38.2653 153.167 38.2653C150.152 38.2647 147.136 38.2634 144.12 38.2665C143.696 38.2672 143.401 38.5672 143.398 38.9937C143.393 39.6419 143.396 40.2908 143.398 40.939C143.398 40.9828 143.411 41.0261 143.42 41.0793C144.142 41.0793 144.853 41.0686 145.563 41.0818C146.666 41.1025 147.596 41.9981 147.608 43.0941C147.628 45.0313 147.626 46.9691 147.608 48.9063C147.599 49.8789 146.85 50.7551 145.887 50.8691C145.186 50.9524 144.469 50.9092 143.759 50.9223C143.644 50.9242 143.53 50.9223 143.397 50.9223C143.397 51.5956 143.397 52.2426 143.397 52.8896C143.398 53.4702 143.661 53.7351 144.238 53.7351C147.168 53.7351 150.097 53.7351 153.027 53.7351C153.11 53.7351 153.192 53.7351 153.281 53.7351C153.281 52.2915 153.281 50.8791 153.281 49.4524ZM164.579 42.4835C163.878 42.4835 163.2 42.481 162.521 42.4847C162.068 42.4872 161.776 42.7797 161.775 43.235C161.773 45.0776 161.773 46.9202 161.775 48.7622C161.776 49.2269 162.07 49.5132 162.543 49.515C163.16 49.5175 163.776 49.5163 164.393 49.515C164.453 49.515 164.513 49.5063 164.579 49.5006C164.579 47.162 164.579 44.8384 164.579 42.4835ZM143.406 49.5157C144.11 49.5157 144.789 49.5188 145.467 49.5144C145.917 49.5113 146.208 49.215 146.208 48.7585C146.21 46.9159 146.211 45.0739 146.208 43.2313C146.208 42.7772 145.913 42.4866 145.459 42.4841C144.826 42.481 144.194 42.4829 143.562 42.4841C143.51 42.4841 143.459 42.496 143.406 42.5023C143.406 44.8409 143.406 47.1645 143.406 49.5157ZM154.001 43.8908C152.845 43.887 151.892 44.8271 151.883 45.9789C151.874 47.1457 152.82 48.1046 153.983 48.109C155.139 48.1127 156.092 47.1733 156.1 46.0209C156.11 44.8522 155.165 43.8945 154.001 43.8908Z" fill="#40654A"/>
</g>
<path d="M206.662 42.9347H203.474C203.384 42.4119 203.216 41.9489 202.972 41.5455C202.727 41.1364 202.423 40.7898 202.06 40.5057C201.696 40.2216 201.281 40.0085 200.815 39.8665C200.355 39.7188 199.858 39.6449 199.324 39.6449C198.375 39.6449 197.534 39.8835 196.801 40.3608C196.068 40.8324 195.494 41.5256 195.08 42.4403C194.665 43.3494 194.457 44.4602 194.457 45.7727C194.457 47.108 194.665 48.233 195.08 49.1477C195.5 50.0568 196.074 50.7443 196.801 51.2102C197.534 51.6705 198.372 51.9006 199.315 51.9006C199.838 51.9006 200.327 51.8324 200.781 51.696C201.241 51.554 201.653 51.3466 202.017 51.0739C202.386 50.8011 202.696 50.4659 202.946 50.0682C203.202 49.6705 203.378 49.2159 203.474 48.7045L206.662 48.7216C206.543 49.5511 206.284 50.3295 205.886 51.0568C205.494 51.7841 204.98 52.4261 204.344 52.983C203.707 53.5341 202.963 53.9659 202.111 54.2784C201.259 54.5852 200.313 54.7386 199.273 54.7386C197.739 54.7386 196.369 54.3835 195.165 53.6733C193.96 52.9631 193.011 51.9375 192.318 50.5966C191.625 49.2557 191.278 47.6477 191.278 45.7727C191.278 43.892 191.628 42.2841 192.327 40.9489C193.026 39.608 193.977 38.5824 195.182 37.8722C196.386 37.1619 197.75 36.8068 199.273 36.8068C200.244 36.8068 201.148 36.9432 201.983 37.2159C202.818 37.4886 203.563 37.8892 204.216 38.4176C204.869 38.9403 205.406 39.5824 205.827 40.3438C206.253 41.0994 206.531 41.9631 206.662 42.9347ZM215.131 54.7557C213.853 54.7557 212.745 54.4744 211.808 53.9119C210.87 53.3494 210.143 52.5625 209.626 51.5511C209.114 50.5398 208.859 49.358 208.859 48.0057C208.859 46.6534 209.114 45.4687 209.626 44.4517C210.143 43.4347 210.87 42.6449 211.808 42.0824C212.745 41.5199 213.853 41.2386 215.131 41.2386C216.41 41.2386 217.518 41.5199 218.455 42.0824C219.393 42.6449 220.117 43.4347 220.629 44.4517C221.146 45.4687 221.404 46.6534 221.404 48.0057C221.404 49.358 221.146 50.5398 220.629 51.5511C220.117 52.5625 219.393 53.3494 218.455 53.9119C217.518 54.4744 216.41 54.7557 215.131 54.7557ZM215.148 52.2841C215.842 52.2841 216.421 52.0937 216.887 51.7131C217.353 51.3267 217.7 50.8097 217.927 50.1619C218.16 49.5142 218.276 48.7926 218.276 47.9972C218.276 47.196 218.16 46.4716 217.927 45.8239C217.7 45.1705 217.353 44.6506 216.887 44.2642C216.421 43.8778 215.842 43.6847 215.148 43.6847C214.438 43.6847 213.847 43.8778 213.376 44.2642C212.91 44.6506 212.56 45.1705 212.327 45.8239C212.1 46.4716 211.987 47.196 211.987 47.9972C211.987 48.7926 212.1 49.5142 212.327 50.1619C212.56 50.8097 212.91 51.3267 213.376 51.7131C213.847 52.0937 214.438 52.2841 215.148 52.2841ZM227.108 37.0455V54.5H224.023V37.0455H227.108ZM230.281 54.5V41.4091H233.366V54.5H230.281ZM231.832 39.5511C231.343 39.5511 230.923 39.3892 230.57 39.0653C230.218 38.7358 230.042 38.3409 230.042 37.8807C230.042 37.4148 230.218 37.0199 230.57 36.696C230.923 36.3665 231.343 36.2017 231.832 36.2017C232.326 36.2017 232.746 36.3665 233.093 36.696C233.445 37.0199 233.621 37.4148 233.621 37.8807C233.621 38.3409 233.445 38.7358 233.093 39.0653C232.746 39.3892 232.326 39.5511 231.832 39.5511ZM246.885 44.8693L244.072 45.1761C243.993 44.892 243.854 44.625 243.655 44.375C243.462 44.125 243.2 43.9233 242.871 43.7699C242.541 43.6165 242.138 43.5398 241.661 43.5398C241.018 43.5398 240.479 43.679 240.041 43.9574C239.609 44.2358 239.396 44.5966 239.402 45.0398C239.396 45.4205 239.536 45.7301 239.82 45.9688C240.109 46.2074 240.587 46.4034 241.251 46.5568L243.484 47.0341C244.723 47.3011 245.643 47.7244 246.246 48.304C246.854 48.8835 247.161 49.642 247.166 50.5795C247.161 51.4034 246.919 52.1307 246.442 52.7614C245.97 53.3864 245.314 53.875 244.473 54.2273C243.632 54.5795 242.666 54.7557 241.575 54.7557C239.973 54.7557 238.683 54.4205 237.706 53.75C236.729 53.0739 236.146 52.1335 235.959 50.929L238.967 50.6392C239.104 51.2301 239.393 51.6761 239.837 51.9773C240.28 52.2784 240.857 52.429 241.567 52.429C242.3 52.429 242.888 52.2784 243.331 51.9773C243.78 51.6761 244.004 51.304 244.004 50.8608C244.004 50.4858 243.859 50.1761 243.57 49.9318C243.286 49.6875 242.842 49.5 242.24 49.3693L240.007 48.9006C238.751 48.6392 237.822 48.1989 237.22 47.5795C236.618 46.9545 236.32 46.1648 236.325 45.2102C236.32 44.4034 236.538 43.7045 236.982 43.1136C237.43 42.517 238.053 42.0568 238.848 41.733C239.649 41.4034 240.572 41.2386 241.618 41.2386C243.152 41.2386 244.359 41.5653 245.24 42.2188C246.126 42.8722 246.675 43.7557 246.885 44.8693ZM255.506 54.7557C254.193 54.7557 253.06 54.483 252.105 53.9375C251.156 53.3864 250.426 52.608 249.915 51.6023C249.403 50.5909 249.148 49.4006 249.148 48.0312C249.148 46.6847 249.403 45.5028 249.915 44.4858C250.432 43.4631 251.153 42.6676 252.08 42.0994C253.006 41.5256 254.094 41.2386 255.344 41.2386C256.151 41.2386 256.912 41.3693 257.628 41.6307C258.349 41.8864 258.986 42.2841 259.537 42.8239C260.094 43.3636 260.531 44.0511 260.849 44.8864C261.168 45.7159 261.327 46.7045 261.327 47.8523V48.7983H250.597V46.7188H258.369C258.364 46.1278 258.236 45.6023 257.986 45.142C257.736 44.6761 257.386 44.3097 256.938 44.0426C256.494 43.7756 255.977 43.642 255.386 43.642C254.756 43.642 254.202 43.7955 253.724 44.1023C253.247 44.4034 252.875 44.8011 252.608 45.2955C252.347 45.7841 252.213 46.321 252.207 46.9062V48.7216C252.207 49.483 252.347 50.1364 252.625 50.6818C252.903 51.2216 253.293 51.6364 253.793 51.9261C254.293 52.2102 254.878 52.3523 255.548 52.3523C255.997 52.3523 256.403 52.2898 256.767 52.1648C257.131 52.0341 257.446 51.8438 257.713 51.5938C257.98 51.3438 258.182 51.0341 258.318 50.6648L261.199 50.9886C261.017 51.75 260.67 52.4148 260.159 52.983C259.653 53.5455 259.006 53.983 258.216 54.2955C257.426 54.6023 256.523 54.7557 255.506 54.7557ZM269.647 54.7557C268.369 54.7557 267.261 54.4744 266.323 53.9119C265.386 53.3494 264.658 52.5625 264.141 51.5511C263.63 50.5398 263.374 49.358 263.374 48.0057C263.374 46.6534 263.63 45.4687 264.141 44.4517C264.658 43.4347 265.386 42.6449 266.323 42.0824C267.261 41.5199 268.369 41.2386 269.647 41.2386C270.925 41.2386 272.033 41.5199 272.971 42.0824C273.908 42.6449 274.633 43.4347 275.144 44.4517C275.661 45.4687 275.92 46.6534 275.92 48.0057C275.92 49.358 275.661 50.5398 275.144 51.5511C274.633 52.5625 273.908 53.3494 272.971 53.9119C272.033 54.4744 270.925 54.7557 269.647 54.7557ZM269.664 52.2841C270.357 52.2841 270.937 52.0937 271.403 51.7131C271.869 51.3267 272.215 50.8097 272.442 50.1619C272.675 49.5142 272.792 48.7926 272.792 47.9972C272.792 47.196 272.675 46.4716 272.442 45.8239C272.215 45.1705 271.869 44.6506 271.403 44.2642C270.937 43.8778 270.357 43.6847 269.664 43.6847C268.954 43.6847 268.363 43.8778 267.891 44.2642C267.425 44.6506 267.076 45.1705 266.843 45.8239C266.616 46.4716 266.502 47.196 266.502 47.9972C266.502 48.7926 266.616 49.5142 266.843 50.1619C267.076 50.8097 267.425 51.3267 267.891 51.7131C268.363 52.0937 268.954 52.2841 269.664 52.2841ZM284.628 54.5V37.0455H287.79V51.8494H295.477V54.5H284.628ZM301.852 54.7642C301.023 54.7642 300.276 54.6165 299.611 54.321C298.952 54.0199 298.429 53.5767 298.043 52.9915C297.662 52.4062 297.472 51.6847 297.472 50.8267C297.472 50.0881 297.608 49.4773 297.881 48.9943C298.153 48.5114 298.526 48.125 298.997 47.8352C299.469 47.5455 300 47.3267 300.591 47.179C301.188 47.0256 301.804 46.9148 302.44 46.8466C303.207 46.767 303.83 46.696 304.307 46.6335C304.784 46.5653 305.131 46.4631 305.347 46.3267C305.568 46.1847 305.679 45.9659 305.679 45.6705V45.6193C305.679 44.9773 305.489 44.4801 305.108 44.1278C304.727 43.7756 304.179 43.5994 303.463 43.5994C302.707 43.5994 302.108 43.7642 301.665 44.0938C301.227 44.4233 300.932 44.8125 300.778 45.2614L297.898 44.8523C298.125 44.0568 298.5 43.392 299.023 42.858C299.545 42.3182 300.185 41.9148 300.94 41.6477C301.696 41.375 302.531 41.2386 303.446 41.2386C304.077 41.2386 304.705 41.3125 305.33 41.4602C305.955 41.608 306.526 41.8523 307.043 42.1932C307.56 42.5284 307.974 42.9858 308.287 43.5653C308.605 44.1449 308.764 44.8693 308.764 45.7386V54.5H305.798V52.7017H305.696C305.509 53.0653 305.244 53.4062 304.903 53.7244C304.568 54.0369 304.145 54.2898 303.634 54.483C303.128 54.6705 302.534 54.7642 301.852 54.7642ZM302.653 52.4972C303.273 52.4972 303.81 52.375 304.264 52.1307C304.719 51.8807 305.068 51.5511 305.312 51.142C305.562 50.733 305.688 50.2869 305.688 49.804V48.2614C305.591 48.3409 305.426 48.4148 305.193 48.483C304.966 48.5511 304.71 48.6108 304.426 48.6619C304.142 48.7131 303.861 48.7585 303.582 48.7983C303.304 48.8381 303.063 48.8722 302.858 48.9006C302.398 48.9631 301.986 49.0653 301.622 49.2074C301.259 49.3494 300.972 49.5483 300.761 49.804C300.551 50.054 300.446 50.3778 300.446 50.7756C300.446 51.3438 300.653 51.7727 301.068 52.0625C301.483 52.3523 302.011 52.4972 302.653 52.4972ZM317.956 54.5V37.0455H324.638C325.899 37.0455 326.947 37.2443 327.783 37.642C328.624 38.0341 329.251 38.571 329.666 39.2528C330.087 39.9347 330.297 40.7074 330.297 41.571C330.297 42.2812 330.161 42.8892 329.888 43.3949C329.615 43.8949 329.249 44.3011 328.788 44.6136C328.328 44.9261 327.814 45.1506 327.246 45.2869V45.4574C327.865 45.4915 328.459 45.6818 329.027 46.0284C329.601 46.3693 330.07 46.8523 330.433 47.4773C330.797 48.1023 330.979 48.858 330.979 49.7443C330.979 50.6477 330.76 51.4602 330.322 52.1818C329.885 52.8977 329.226 53.4631 328.345 53.8778C327.464 54.2926 326.357 54.5 325.021 54.5H317.956ZM321.118 51.858H324.518C325.666 51.858 326.493 51.6392 326.999 51.2017C327.51 50.7585 327.766 50.1903 327.766 49.4972C327.766 48.9801 327.638 48.5142 327.382 48.0994C327.126 47.679 326.763 47.3494 326.291 47.1108C325.82 46.8665 325.257 46.7443 324.604 46.7443H321.118V51.858ZM321.118 44.4688H324.246C324.791 44.4688 325.283 44.3693 325.72 44.1705C326.158 43.9659 326.501 43.679 326.751 43.3097C327.007 42.9347 327.135 42.4915 327.135 41.9801C327.135 41.304 326.896 40.7472 326.419 40.3097C325.947 39.8722 325.246 39.6534 324.314 39.6534H321.118V44.4688ZM339.303 54.7557C338.025 54.7557 336.917 54.4744 335.979 53.9119C335.042 53.3494 334.315 52.5625 333.798 51.5511C333.286 50.5398 333.031 49.358 333.031 48.0057C333.031 46.6534 333.286 45.4687 333.798 44.4517C334.315 43.4347 335.042 42.6449 335.979 42.0824C336.917 41.5199 338.025 41.2386 339.303 41.2386C340.582 41.2386 341.69 41.5199 342.627 42.0824C343.565 42.6449 344.289 43.4347 344.8 44.4517C345.317 45.4687 345.576 46.6534 345.576 48.0057C345.576 49.358 345.317 50.5398 344.8 51.5511C344.289 52.5625 343.565 53.3494 342.627 53.9119C341.69 54.4744 340.582 54.7557 339.303 54.7557ZM339.32 52.2841C340.013 52.2841 340.593 52.0937 341.059 51.7131C341.525 51.3267 341.871 50.8097 342.099 50.1619C342.332 49.5142 342.448 48.7926 342.448 47.9972C342.448 47.196 342.332 46.4716 342.099 45.8239C341.871 45.1705 341.525 44.6506 341.059 44.2642C340.593 43.8778 340.013 43.6847 339.32 43.6847C338.61 43.6847 338.019 43.8778 337.548 44.2642C337.082 44.6506 336.732 45.1705 336.499 45.8239C336.272 46.4716 336.158 47.196 336.158 47.9972C336.158 48.7926 336.272 49.5142 336.499 50.1619C336.732 50.8097 337.082 51.3267 337.548 51.7131C338.019 52.0937 338.61 52.2841 339.32 52.2841ZM348.195 54.5V41.4091H351.143V43.6335H351.297C351.57 42.8835 352.021 42.2983 352.652 41.8778C353.283 41.4517 354.036 41.2386 354.911 41.2386C355.797 41.2386 356.544 41.4545 357.152 41.8864C357.766 42.3125 358.197 42.8949 358.447 43.6335H358.584C358.874 42.9062 359.362 42.3267 360.05 41.8949C360.743 41.4574 361.564 41.2386 362.513 41.2386C363.717 41.2386 364.7 41.6193 365.462 42.3807C366.223 43.142 366.604 44.2528 366.604 45.7131V54.5H363.51V46.1903C363.51 45.3778 363.294 44.7841 362.862 44.4091C362.43 44.0284 361.902 43.8381 361.277 43.8381C360.533 43.8381 359.95 44.071 359.53 44.5369C359.115 44.9972 358.908 45.5966 358.908 46.3352V54.5H355.882V46.0625C355.882 45.3864 355.678 44.8466 355.268 44.4432C354.865 44.0398 354.337 43.8381 353.683 43.8381C353.24 43.8381 352.837 43.9517 352.473 44.179C352.109 44.4006 351.82 44.7159 351.604 45.125C351.388 45.5284 351.28 46 351.28 46.5398V54.5H348.195ZM369.87 54.5V37.0455H372.955V43.5739H373.083C373.242 43.2557 373.467 42.9176 373.756 42.5597C374.046 42.196 374.438 41.8864 374.933 41.6307C375.427 41.3693 376.058 41.2386 376.825 41.2386C377.836 41.2386 378.748 41.4972 379.56 42.0142C380.379 42.5256 381.026 43.2841 381.504 44.2898C381.987 45.2898 382.228 46.517 382.228 47.9716C382.228 49.4091 381.992 50.6307 381.521 51.6364C381.049 52.642 380.407 53.4091 379.594 53.9375C378.782 54.4659 377.862 54.7301 376.833 54.7301C376.083 54.7301 375.461 54.6051 374.967 54.3551C374.472 54.1051 374.075 53.804 373.773 53.4517C373.478 53.0937 373.248 52.7557 373.083 52.4375H372.904V54.5H369.87ZM372.896 47.9545C372.896 48.8011 373.015 49.5426 373.254 50.179C373.498 50.8153 373.847 51.3125 374.302 51.6705C374.762 52.0227 375.319 52.1989 375.972 52.1989C376.654 52.1989 377.225 52.017 377.685 51.6534C378.146 51.2841 378.492 50.7812 378.725 50.1449C378.964 49.5028 379.083 48.7727 379.083 47.9545C379.083 47.142 378.967 46.4205 378.734 45.7898C378.501 45.1591 378.154 44.6648 377.694 44.3068C377.234 43.9489 376.66 43.7699 375.972 43.7699C375.313 43.7699 374.754 43.9432 374.293 44.2898C373.833 44.6364 373.484 45.1222 373.245 45.7472C373.012 46.3722 372.896 47.108 372.896 47.9545ZM390.561 54.7557C389.283 54.7557 388.175 54.4744 387.237 53.9119C386.3 53.3494 385.572 52.5625 385.055 51.5511C384.544 50.5398 384.288 49.358 384.288 48.0057C384.288 46.6534 384.544 45.4687 385.055 44.4517C385.572 43.4347 386.3 42.6449 387.237 42.0824C388.175 41.5199 389.283 41.2386 390.561 41.2386C391.839 41.2386 392.947 41.5199 393.885 42.0824C394.822 42.6449 395.547 43.4347 396.058 44.4517C396.575 45.4687 396.834 46.6534 396.834 48.0057C396.834 49.358 396.575 50.5398 396.058 51.5511C395.547 52.5625 394.822 53.3494 393.885 53.9119C392.947 54.4744 391.839 54.7557 390.561 54.7557ZM390.578 52.2841C391.271 52.2841 391.851 52.0937 392.317 51.7131C392.783 51.3267 393.129 50.8097 393.357 50.1619C393.589 49.5142 393.706 48.7926 393.706 47.9972C393.706 47.196 393.589 46.4716 393.357 45.8239C393.129 45.1705 392.783 44.6506 392.317 44.2642C391.851 43.8778 391.271 43.6847 390.578 43.6847C389.868 43.6847 389.277 43.8778 388.805 44.2642C388.339 44.6506 387.99 45.1705 387.757 45.8239C387.53 46.4716 387.416 47.196 387.416 47.9972C387.416 48.7926 387.53 49.5142 387.757 50.1619C387.99 50.8097 388.339 51.3267 388.805 51.7131C389.277 52.0937 389.868 52.2841 390.578 52.2841ZM402.538 46.8295V54.5H399.452V41.4091H402.401V43.6335H402.555C402.856 42.9006 403.336 42.3182 403.995 41.8864C404.66 41.4545 405.481 41.2386 406.458 41.2386C407.362 41.2386 408.148 41.4318 408.819 41.8182C409.495 42.2045 410.018 42.7642 410.387 43.4972C410.762 44.2301 410.947 45.1193 410.941 46.1648V54.5H407.856V46.642C407.856 45.767 407.629 45.0824 407.174 44.5881C406.725 44.0937 406.103 43.8466 405.308 43.8466C404.768 43.8466 404.288 43.9659 403.867 44.2045C403.452 44.4375 403.126 44.7756 402.887 45.2188C402.654 45.6619 402.538 46.1989 402.538 46.8295ZM419.873 54.7557C418.56 54.7557 417.427 54.483 416.472 53.9375C415.523 53.3864 414.793 52.608 414.282 51.6023C413.771 50.5909 413.515 49.4006 413.515 48.0312C413.515 46.6847 413.771 45.5028 414.282 44.4858C414.799 43.4631 415.521 42.6676 416.447 42.0994C417.373 41.5256 418.461 41.2386 419.711 41.2386C420.518 41.2386 421.279 41.3693 421.995 41.6307C422.717 41.8864 423.353 42.2841 423.904 42.8239C424.461 43.3636 424.898 44.0511 425.217 44.8864C425.535 45.7159 425.694 46.7045 425.694 47.8523V48.7983H414.964V46.7188H422.737C422.731 46.1278 422.603 45.6023 422.353 45.142C422.103 44.6761 421.754 44.3097 421.305 44.0426C420.862 43.7756 420.344 43.642 419.754 43.642C419.123 43.642 418.569 43.7955 418.092 44.1023C417.614 44.4034 417.242 44.8011 416.975 45.2955C416.714 45.7841 416.58 46.321 416.575 46.9062V48.7216C416.575 49.483 416.714 50.1364 416.992 50.6818C417.271 51.2216 417.66 51.6364 418.16 51.9261C418.66 52.2102 419.245 52.3523 419.915 52.3523C420.364 52.3523 420.771 52.2898 421.134 52.1648C421.498 52.0341 421.813 51.8438 422.08 51.5938C422.347 51.3438 422.549 51.0341 422.685 50.6648L425.566 50.9886C425.384 51.75 425.038 52.4148 424.526 52.983C424.021 53.5455 423.373 53.983 422.583 54.2955C421.793 54.6023 420.89 54.7557 419.873 54.7557ZM428.304 54.5V41.4091H431.295V43.5909H431.432C431.67 42.8352 432.08 42.2528 432.659 41.8438C433.244 41.429 433.912 41.2216 434.662 41.2216C434.832 41.2216 435.023 41.2301 435.233 41.2472C435.449 41.2585 435.628 41.2784 435.77 41.3068V44.1449C435.639 44.0994 435.432 44.0597 435.148 44.0256C434.869 43.9858 434.599 43.9659 434.338 43.9659C433.776 43.9659 433.27 44.0881 432.821 44.3324C432.378 44.571 432.028 44.9034 431.773 45.3295C431.517 45.7557 431.389 46.2472 431.389 46.804V54.5H428.304ZM441.352 54.7642C440.523 54.7642 439.776 54.6165 439.111 54.321C438.452 54.0199 437.929 53.5767 437.543 52.9915C437.162 52.4062 436.972 51.6847 436.972 50.8267C436.972 50.0881 437.108 49.4773 437.381 48.9943C437.653 48.5114 438.026 48.125 438.497 47.8352C438.969 47.5455 439.5 47.3267 440.091 47.179C440.688 47.0256 441.304 46.9148 441.94 46.8466C442.707 46.767 443.33 46.696 443.807 46.6335C444.284 46.5653 444.631 46.4631 444.847 46.3267C445.068 46.1847 445.179 45.9659 445.179 45.6705V45.6193C445.179 44.9773 444.989 44.4801 444.608 44.1278C444.227 43.7756 443.679 43.5994 442.963 43.5994C442.207 43.5994 441.608 43.7642 441.165 44.0938C440.727 44.4233 440.432 44.8125 440.278 45.2614L437.398 44.8523C437.625 44.0568 438 43.392 438.523 42.858C439.045 42.3182 439.685 41.9148 440.44 41.6477C441.196 41.375 442.031 41.2386 442.946 41.2386C443.577 41.2386 444.205 41.3125 444.83 41.4602C445.455 41.608 446.026 41.8523 446.543 42.1932C447.06 42.5284 447.474 42.9858 447.787 43.5653C448.105 44.1449 448.264 44.8693 448.264 45.7386V54.5H445.298V52.7017H445.196C445.009 53.0653 444.744 53.4062 444.403 53.7244C444.068 54.0369 443.645 54.2898 443.134 54.483C442.628 54.6705 442.034 54.7642 441.352 54.7642ZM442.153 52.4972C442.773 52.4972 443.31 52.375 443.764 52.1307C444.219 51.8807 444.568 51.5511 444.812 51.142C445.062 50.733 445.188 50.2869 445.188 49.804V48.2614C445.091 48.3409 444.926 48.4148 444.693 48.483C444.466 48.5511 444.21 48.6108 443.926 48.6619C443.642 48.7131 443.361 48.7585 443.082 48.7983C442.804 48.8381 442.563 48.8722 442.358 48.9006C441.898 48.9631 441.486 49.0653 441.122 49.2074C440.759 49.3494 440.472 49.5483 440.261 49.804C440.051 50.054 439.946 50.3778 439.946 50.7756C439.946 51.3438 440.153 51.7727 440.568 52.0625C440.983 52.3523 441.511 52.4972 442.153 52.4972Z" fill="white"/>
<path d="M122.6 123.006L148.5 78H192L125.498 125.63C123.75 126.882 121.528 124.87 122.6 123.006Z" fill="#006DB7"/>
<defs>
<clipPath id="clip0_171_112961">
<rect width="118" height="90" fill="white" transform="translate(0 103)"/>
</clipPath>
<clipPath id="clip1_171_112961">
<rect width="24.0039" height="18.2857" fill="white" transform="translate(141.998 36.8574)"/>
</clipPath>
</defs>
</svg>
