<svg width="486" height="192" viewBox="0 0 486 192" fill="none" xmlns="http://www.w3.org/2000/svg">
<g clip-path="url(#clip0_229_5519)">
<path d="M19.4116 164.963V168.801L0 180.105V176.267L19.4116 164.963Z" fill="#E1BD9A"/>
<path d="M87.5109 152.346L20.8906 190.534V151.395L87.5109 113.207V152.346Z" fill="#823130"/>
<path opacity="0.3" d="M87.5109 152.346L20.8906 190.534V151.395L87.5109 113.207V152.346Z" fill="#823130"/>
<path d="M87.5159 113.207L20.8956 151.395L1.34375 140.188L67.964 102L87.5159 113.207Z" fill="#823130"/>
<path d="M1.34375 140.188L20.8956 151.395V190.533L1.34375 179.322V140.188Z" fill="#823130"/>
<path opacity="0.3" d="M1.34375 140.188L20.8956 151.395V190.533L1.34375 179.322V140.188Z" fill="#823130"/>
<path d="M0 176.254V180.092L19.4116 191.206V187.368L0 176.254Z" fill="#E1BD9A"/>
<path d="M20.8933 186.695L1.34147 175.488L0 176.268L1.34147 179.321L20.8933 190.533L89 149.12L87.5136 148.508L20.8933 186.695Z" fill="#E1BD9A"/>
<path d="M88.9973 152.959L20.8906 192V188.167L88.9973 149.121V152.959Z" fill="#E1BD9A"/>
<path opacity="0.3" d="M88.9973 152.959L20.8906 192V188.167L88.9973 149.121V152.959Z" fill="#E1BD9A"/>
<path d="M1.34375 176.959V180.792L20.8956 191.999V188.166L1.34375 176.959Z" fill="#E1BD9A"/>
<path opacity="0.3" d="M0 176.254V180.092L20.8933 192V188.166L0 176.254Z" fill="#E1BD9A"/>
<path d="M3.35938 172.699V166.109L7.07063 168.235V174.824L3.35938 172.699Z" fill="#283036"/>
<path d="M6.81429 174.379L3.61719 172.55V166.555L6.81429 168.388V174.379Z" fill="#72B8CF"/>
<path opacity="0.5" d="M3.61719 171.07L6.81429 169.242V168.388L6.78157 168.369L3.61719 170.179V171.07Z" fill="#72B8CF"/>
<path opacity="0.5" d="M6.81429 169.85L3.61719 171.683V172.55L4.57071 173.093L6.81429 171.808V169.85Z" fill="#72B8CF"/>
<path d="M6.81429 171.102L3.61719 169.269V168.814L6.81429 170.643V171.102Z" fill="#283036"/>
<path d="M9.21094 176.082V169.492L12.9269 171.622V178.212L9.21094 176.082Z" fill="#283036"/>
<path d="M12.6659 177.768L9.46875 175.935V169.939L12.6659 171.772V177.768Z" fill="#72B8CF"/>
<path opacity="0.5" d="M9.46875 174.457L12.6659 172.624V171.771L12.6331 171.752L9.46875 173.566V174.457Z" fill="#72B8CF"/>
<path opacity="0.5" d="M12.6659 173.238L9.46875 175.071V175.934L10.4223 176.482L12.6659 175.197V173.238Z" fill="#72B8CF"/>
<path d="M12.6659 174.487L9.46875 172.659V172.199L12.6659 174.032V174.487Z" fill="#283036"/>
<path d="M15.0703 179.431V172.842L18.7862 174.972V181.562L15.0703 179.431Z" fill="#283036"/>
<path d="M18.5206 181.116L15.3281 179.283V173.287L18.5206 175.12V181.116Z" fill="#72B8CF"/>
<path opacity="0.5" d="M15.3281 177.807L18.5206 175.974V175.12L18.4878 175.102L15.3281 176.916V177.807Z" fill="#72B8CF"/>
<path opacity="0.5" d="M18.5206 176.588L15.3281 178.416V179.284L16.277 179.832L18.5206 178.546V176.588Z" fill="#72B8CF"/>
<path d="M18.5206 177.835L15.3281 176.006V175.547L18.5206 177.38V177.835Z" fill="#283036"/>
<path d="M3.35938 162.903V156.309L7.07063 158.439V165.028L3.35938 162.903Z" fill="#283036"/>
<path d="M6.81429 164.582L3.61719 162.749V156.758L6.81429 158.586V164.582Z" fill="#72B8CF"/>
<path opacity="0.5" d="M3.61719 161.274L6.81429 159.441V158.587L6.78157 158.568L3.61719 160.383V161.274Z" fill="#72B8CF"/>
<path opacity="0.5" d="M6.81429 160.053L3.61719 161.886V162.749L4.57071 163.297L6.81429 162.011V160.053Z" fill="#72B8CF"/>
<path d="M6.81429 161.306L3.61719 159.473V159.014L6.81429 160.847V161.306Z" fill="#283036"/>
<path d="M9.21094 166.285V159.695L12.9269 161.825V168.415L9.21094 166.285Z" fill="#283036"/>
<path d="M12.6659 167.965L9.46875 166.136V160.141L12.6659 161.974V167.965Z" fill="#72B8CF"/>
<path opacity="0.5" d="M9.46875 164.656L12.6659 162.828V161.974L12.6331 161.955L9.46875 163.77V164.656Z" fill="#72B8CF"/>
<path opacity="0.5" d="M12.6659 163.439L9.46875 165.268V166.136L10.4223 166.679L12.6659 165.398V163.439Z" fill="#72B8CF"/>
<path d="M12.6659 164.688L9.46875 162.855V162.4L12.6659 164.229V164.688Z" fill="#283036"/>
<path d="M15.0703 169.637V163.047L18.7862 165.177V171.767L15.0703 169.637Z" fill="#283036"/>
<path d="M18.5206 171.316L15.3281 169.488V163.492L18.5206 165.325V171.316Z" fill="#72B8CF"/>
<path opacity="0.5" d="M15.3281 168.007L18.5206 166.179V165.325L18.4878 165.307L15.3281 167.121V168.007Z" fill="#72B8CF"/>
<path opacity="0.5" d="M18.5206 166.793L15.3281 168.621V169.489L16.277 170.032L18.5206 168.751V166.793Z" fill="#72B8CF"/>
<path d="M18.5206 168.04L15.3281 166.211V165.752L18.5206 167.58V168.04Z" fill="#283036"/>
<path d="M3.35938 153.103V146.514L7.07063 148.644V155.233L3.35938 153.103Z" fill="#283036"/>
<path d="M6.81429 154.789L3.61719 152.956V146.965L6.81429 148.793V154.789Z" fill="#72B8CF"/>
<path opacity="0.5" d="M3.61719 151.479L6.81429 149.646V148.792L6.78157 148.773L3.61719 150.588V151.479Z" fill="#72B8CF"/>
<path opacity="0.5" d="M6.81429 150.26L3.61719 152.093V152.956L4.57071 153.504L6.81429 152.218V150.26Z" fill="#72B8CF"/>
<path d="M6.81429 151.511L3.61719 149.678V149.219L6.81429 151.052V151.511Z" fill="#283036"/>
<path d="M9.21094 156.492V149.902L12.9269 152.032V158.622L9.21094 156.492Z" fill="#283036"/>
<path d="M12.6659 158.174L9.46875 156.345V150.35L12.6659 152.183V158.174Z" fill="#72B8CF"/>
<path opacity="0.5" d="M9.46875 154.863L12.6659 153.035V152.181L12.6331 152.162L9.46875 153.972V154.863Z" fill="#72B8CF"/>
<path opacity="0.5" d="M12.6659 153.648L9.46875 155.477V156.345L10.4223 156.888L12.6659 155.602V153.648Z" fill="#72B8CF"/>
<path d="M12.6659 154.897L9.46875 153.064V152.609L12.6659 154.438V154.897Z" fill="#283036"/>
<path d="M15.0703 159.842V153.252L18.7862 155.377V161.972L15.0703 159.842Z" fill="#283036"/>
<path d="M18.5206 161.521L15.3281 159.693V153.697L18.5206 155.53V161.521Z" fill="#72B8CF"/>
<path opacity="0.5" d="M15.3281 158.213L18.5206 156.384V155.53L18.4878 155.512L15.3281 157.322V158.213Z" fill="#72B8CF"/>
<path opacity="0.5" d="M18.5206 156.996L15.3281 158.824V159.692L16.277 160.235L18.5206 158.95V156.996Z" fill="#72B8CF"/>
<path d="M18.5206 158.245L15.3281 156.412V155.957L18.5206 157.785V158.245Z" fill="#283036"/>
<path d="M32.5753 176.082V169.492L28.8594 171.622V178.212L32.5753 176.082Z" fill="#283036"/>
<path d="M29.125 177.768L32.3174 175.935V169.939L29.125 171.772V177.768Z" fill="#72B8CF"/>
<path opacity="0.5" d="M32.3174 174.457L29.125 172.624V171.771L29.153 171.752L32.3174 173.566V174.457Z" fill="#72B8CF"/>
<path opacity="0.5" d="M29.125 173.238L32.3174 175.071V175.934L31.3639 176.482L29.125 175.197V173.238Z" fill="#72B8CF"/>
<path d="M29.125 174.487L32.3174 172.659V172.199L29.125 174.032V174.487Z" fill="#283036"/>
<path d="M26.7159 179.433V172.844L23 174.974V181.563L26.7159 179.433Z" fill="#283036"/>
<path d="M23.2656 181.118L26.4581 179.285V173.289L23.2656 175.122V181.118Z" fill="#72B8CF"/>
<path opacity="0.5" d="M26.4581 177.809L23.2656 175.976V175.122L23.2983 175.104L26.4581 176.918V177.809Z" fill="#72B8CF"/>
<path opacity="0.5" d="M23.2656 176.59L26.4581 178.418V179.286L25.5092 179.834L23.2656 178.548V176.59Z" fill="#72B8CF"/>
<path d="M23.2656 177.837L26.4581 176.008V175.549L23.2656 177.382V177.837Z" fill="#283036"/>
<path d="M32.5753 166.287V159.697L28.8594 161.827V168.417L32.5753 166.287Z" fill="#283036"/>
<path d="M29.125 167.967L32.3174 166.138V160.143L29.125 161.976V167.967Z" fill="#72B8CF"/>
<path opacity="0.5" d="M32.3174 164.658L29.125 162.829V161.976L29.153 161.957L32.3174 163.772V164.658Z" fill="#72B8CF"/>
<path opacity="0.5" d="M29.125 163.441L32.3174 165.27V166.138L31.3639 166.681L29.125 165.4V163.441Z" fill="#72B8CF"/>
<path d="M29.125 164.69L32.3174 162.857V162.402L29.125 164.231V164.69Z" fill="#283036"/>
<path d="M26.7159 169.638V163.049L23 165.179V171.769L26.7159 169.638Z" fill="#283036"/>
<path d="M23.2656 171.318L26.4581 169.49V163.494L23.2656 165.327V171.318Z" fill="#72B8CF"/>
<path opacity="0.5" d="M26.4581 168.009L23.2656 166.181V165.327L23.2983 165.309L26.4581 167.123V168.009Z" fill="#72B8CF"/>
<path opacity="0.5" d="M23.2656 166.793L26.4581 168.621V169.489L25.5092 170.032L23.2656 168.751V166.793Z" fill="#72B8CF"/>
<path d="M23.2656 168.042L26.4581 166.213V165.754L23.2656 167.582V168.042Z" fill="#283036"/>
<path d="M32.5753 156.49V149.9L28.8594 152.03V158.62L32.5753 156.49Z" fill="#283036"/>
<path d="M29.125 158.172L32.3174 156.343V150.348L29.125 152.181V158.172Z" fill="#72B8CF"/>
<path opacity="0.5" d="M32.3174 154.861L29.125 153.033V152.179L29.153 152.16L32.3174 153.97V154.861Z" fill="#72B8CF"/>
<path opacity="0.5" d="M29.125 153.646L32.3174 155.475V156.343L31.3639 156.886L29.125 155.6V153.646Z" fill="#72B8CF"/>
<path d="M29.125 154.895L32.3174 153.062V152.607L29.125 154.436V154.895Z" fill="#283036"/>
<path d="M26.7159 159.842V153.252L23 155.377V161.972L26.7159 159.842Z" fill="#283036"/>
<path d="M23.2656 161.521L26.4581 159.693V153.697L23.2656 155.53V161.521Z" fill="#72B8CF"/>
<path opacity="0.5" d="M26.4581 158.213L23.2656 156.384V155.53L23.2983 155.512L26.4581 157.322V158.213Z" fill="#72B8CF"/>
<path opacity="0.5" d="M23.2656 156.998L26.4581 158.826V159.694L25.5092 160.237L23.2656 158.952V156.998Z" fill="#72B8CF"/>
<path d="M23.2656 158.245L26.4581 156.412V155.957L23.2656 157.785V158.245Z" fill="#283036"/>
<path d="M85.3097 145.971V139.381L81.5938 141.511V148.101L85.3097 145.971Z" fill="#283036"/>
<path d="M81.8516 147.655L85.0487 145.822V139.826L81.8516 141.659V147.655Z" fill="#72B8CF"/>
<path opacity="0.5" d="M85.0487 144.346L81.8516 142.513V141.659L81.8843 141.641L85.0487 143.455V144.346Z" fill="#72B8CF"/>
<path opacity="0.5" d="M81.8516 143.125L85.0487 144.958V145.821L84.0951 146.369L81.8516 145.083V143.125Z" fill="#72B8CF"/>
<path d="M81.8516 144.374L85.0487 142.545V142.086L81.8516 143.919V144.374Z" fill="#283036"/>
<path d="M79.4503 149.32V142.73L75.7344 144.861V151.45L79.4503 149.32Z" fill="#283036"/>
<path d="M76 151.004L79.1924 149.171V143.176L76 145.009V151.004Z" fill="#72B8CF"/>
<path opacity="0.5" d="M79.1924 147.696L76 145.863V145.009L76.0327 144.99L79.1924 146.805V147.696Z" fill="#72B8CF"/>
<path opacity="0.5" d="M76 146.475L79.1924 148.303V149.171L78.2436 149.718L76 148.433V146.475Z" fill="#72B8CF"/>
<path d="M76 147.723L79.1924 145.895V145.436L76 147.269V147.723Z" fill="#283036"/>
<path d="M85.3097 136.174V129.584L81.5938 131.714V138.304L85.3097 136.174Z" fill="#283036"/>
<path d="M81.8516 137.853L85.0487 136.025V130.029L81.8516 131.862V137.853Z" fill="#72B8CF"/>
<path opacity="0.5" d="M85.0487 134.545L81.8516 132.716V131.862L81.8843 131.844L85.0487 133.658V134.545Z" fill="#72B8CF"/>
<path opacity="0.5" d="M81.8516 133.328L85.0487 135.157V136.024L84.0951 136.572L81.8516 135.286V133.328Z" fill="#72B8CF"/>
<path d="M81.8516 134.577L85.0487 132.744V132.289L81.8516 134.117V134.577Z" fill="#283036"/>
<path d="M79.4503 139.523V132.934L75.7344 135.064V141.653L79.4503 139.523Z" fill="#283036"/>
<path d="M76 141.205L79.1924 139.377V133.381L76 135.214V141.205Z" fill="#72B8CF"/>
<path opacity="0.5" d="M79.1924 137.894L76 136.066V135.212L76.0327 135.193L79.1924 137.008V137.894Z" fill="#72B8CF"/>
<path opacity="0.5" d="M76 136.68L79.1924 138.508V139.376L78.2436 139.919L76 138.633V136.68Z" fill="#72B8CF"/>
<path d="M76 137.928L79.1924 136.095V135.641L76 137.469V137.928Z" fill="#283036"/>
<path d="M85.3097 126.377V119.787L81.5938 121.917V128.507L85.3097 126.377Z" fill="#283036"/>
<path d="M81.8516 128.056L85.0487 126.228V120.232L81.8516 122.065V128.056Z" fill="#72B8CF"/>
<path opacity="0.5" d="M85.0487 124.748L81.8516 122.919V122.065L81.8843 122.047L85.0487 123.857V124.748Z" fill="#72B8CF"/>
<path opacity="0.5" d="M81.8516 123.533L85.0487 125.362V126.229L84.0951 126.772L81.8516 125.487V123.533Z" fill="#72B8CF"/>
<path d="M81.8516 124.78L85.0487 122.947V122.492L81.8516 124.321V124.78Z" fill="#283036"/>
<path d="M79.4503 129.728V123.139L75.7344 125.264V131.858L79.4503 129.728Z" fill="#283036"/>
<path d="M76 131.408L79.1924 129.58V123.584L76 125.417V131.408Z" fill="#72B8CF"/>
<path opacity="0.5" d="M79.1924 128.099L76 126.271V125.417L76.0327 125.398L79.1924 127.208V128.099Z" fill="#72B8CF"/>
<path opacity="0.5" d="M76 126.883L79.1924 128.711V129.579L78.2436 130.122L76 128.837V126.883Z" fill="#72B8CF"/>
<path d="M76 128.132L79.1924 126.299V125.844L76 127.672V128.132Z" fill="#283036"/>
<path d="M82.7132 167.805L43.6562 190.256V149.651L82.7132 127.246V167.805Z" fill="#823130"/>
<path opacity="0.3" d="M82.7132 167.805L43.6562 190.256V149.651L82.7132 127.246V167.805Z" fill="#823130"/>
<path d="M82.7103 127.246L43.6533 149.65L33.875 143.989L72.932 121.584L82.7103 127.246Z" fill="#823130"/>
<path d="M33.875 143.988L43.6533 149.65V190.255L33.875 184.598V143.988Z" fill="#823130"/>
<path opacity="0.3" d="M33.875 143.988L43.6533 149.65V190.255L33.875 184.598V143.988Z" fill="#823130"/>
<path d="M56.8019 173.748V167.158L53.0859 169.288V175.878L56.8019 173.748Z" fill="#283036"/>
<path d="M53.3438 175.433L56.5362 173.6V167.609L53.3438 169.438V175.433Z" fill="#72B8CF"/>
<path opacity="0.5" d="M56.5362 172.123L53.3438 170.29V169.437L53.3718 169.418L56.5362 171.232V172.123Z" fill="#72B8CF"/>
<path opacity="0.5" d="M53.3438 170.904L56.5362 172.737V173.6L55.5873 174.148L53.3438 172.863V170.904Z" fill="#72B8CF"/>
<path d="M53.3438 172.158L56.5362 170.325V169.865L53.3438 171.698V172.158Z" fill="#283036"/>
<path d="M50.9456 177.099V170.51L47.2344 172.64V179.229L50.9456 177.099Z" fill="#283036"/>
<path d="M47.4922 178.785L50.6893 176.952V170.961L47.4922 172.789V178.785Z" fill="#72B8CF"/>
<path opacity="0.5" d="M50.6893 175.475L47.4922 173.642V172.788L47.5249 172.77L50.6893 174.584V175.475Z" fill="#72B8CF"/>
<path opacity="0.5" d="M47.4922 174.256L50.6893 176.089V176.952L49.7358 177.5L47.4922 176.214V174.256Z" fill="#72B8CF"/>
<path d="M47.4922 175.507L50.6893 173.674V173.215L47.4922 175.048V175.507Z" fill="#283036"/>
<path d="M62.6566 160.568V153.979L58.9453 156.109V162.698L62.6566 160.568Z" fill="#283036"/>
<path d="M59.2031 162.254L62.4002 160.421V154.426L59.2031 156.259V162.254Z" fill="#72B8CF"/>
<path opacity="0.5" d="M62.4002 158.944L59.2031 157.111V156.257L59.2358 156.238L62.4002 158.053V158.944Z" fill="#72B8CF"/>
<path opacity="0.5" d="M59.2031 157.725L62.4002 159.553V160.421L61.4467 160.968L59.2031 159.683V157.725Z" fill="#72B8CF"/>
<path d="M59.2031 158.973L62.4002 157.145V156.686L59.2031 158.519V158.973Z" fill="#283036"/>
<path d="M56.8019 163.951V157.361L53.0859 159.491V166.081L56.8019 163.951Z" fill="#283036"/>
<path d="M53.3438 165.637L56.5362 163.804V157.812L53.3438 159.641V165.637Z" fill="#72B8CF"/>
<path opacity="0.5" d="M56.5362 162.327L53.3438 160.494V159.64L53.3718 159.621L56.5362 161.436V162.327Z" fill="#72B8CF"/>
<path opacity="0.5" d="M53.3438 161.107L56.5362 162.94V163.804L55.5873 164.351L53.3438 163.066V161.107Z" fill="#72B8CF"/>
<path d="M53.3438 162.359L56.5362 160.526V160.066L53.3438 161.899V162.359Z" fill="#283036"/>
<path d="M50.9456 167.303V160.713L47.2344 162.843V169.433L50.9456 167.303Z" fill="#283036"/>
<path d="M47.4922 168.988L50.6893 167.155V161.164L47.4922 162.992V168.988Z" fill="#72B8CF"/>
<path opacity="0.5" d="M50.6893 165.678L47.4922 163.845V162.991L47.5249 162.973L50.6893 164.787V165.678Z" fill="#72B8CF"/>
<path opacity="0.5" d="M47.4922 164.459L50.6893 166.292V167.155L49.7358 167.703L47.4922 166.417V164.459Z" fill="#72B8CF"/>
<path d="M47.4922 165.71L50.6893 163.877V163.418L47.4922 165.251V165.71Z" fill="#283036"/>
<path d="M74.3722 153.836V147.246L70.6562 149.371V155.961L74.3722 153.836Z" fill="#283036"/>
<path d="M70.9219 155.515L74.1143 153.687V147.691L70.9219 149.52V155.515Z" fill="#72B8CF"/>
<path opacity="0.5" d="M74.1143 152.207L70.9219 150.374V149.52L70.9499 149.506L74.1143 151.316V152.207Z" fill="#72B8CF"/>
<path opacity="0.5" d="M70.9219 150.986L74.1143 152.819V153.687L73.1608 154.23L70.9219 152.945V150.986Z" fill="#72B8CF"/>
<path d="M70.9219 152.24L74.1143 150.407V149.947L70.9219 151.78V152.24Z" fill="#283036"/>
<path d="M68.5128 157.219V150.629L64.7969 152.759V159.349L68.5128 157.219Z" fill="#283036"/>
<path d="M65.0625 158.903L68.2549 157.07V151.074L65.0625 152.907V158.903Z" fill="#72B8CF"/>
<path opacity="0.5" d="M68.2549 155.594L65.0625 153.761V152.907L65.0952 152.889L68.2549 154.703V155.594Z" fill="#72B8CF"/>
<path opacity="0.5" d="M65.0625 154.373L68.2549 156.201V157.069L67.3061 157.617L65.0625 156.331V154.373Z" fill="#72B8CF"/>
<path d="M65.0625 155.622L68.2549 153.793V153.334L65.0625 155.167V155.622Z" fill="#283036"/>
<path d="M80.2269 150.484V143.895L76.5156 146.025V152.614L80.2269 150.484Z" fill="#283036"/>
<path d="M76.7734 152.17L79.9705 150.337V144.346L76.7734 146.174V152.17Z" fill="#72B8CF"/>
<path opacity="0.5" d="M79.9705 148.86L76.7734 147.027V146.173L76.8062 146.154L79.9705 147.969V148.86Z" fill="#72B8CF"/>
<path opacity="0.5" d="M76.7734 147.641L79.9705 149.474V150.337L79.017 150.884L76.7734 149.599V147.641Z" fill="#72B8CF"/>
<path d="M76.7734 148.892L79.9705 147.059V146.6L76.7734 148.433V148.892Z" fill="#283036"/>
<path d="M74.3566 163.637V157.047L70.6406 159.172V165.767L74.3566 163.637Z" fill="#283036"/>
<path d="M70.8984 165.318L74.0955 163.49V157.494L70.8984 159.327V165.318Z" fill="#72B8CF"/>
<path opacity="0.5" d="M74.0955 162.007L70.8984 160.179V159.325L70.9312 159.307L74.0955 161.116V162.007Z" fill="#72B8CF"/>
<path opacity="0.5" d="M70.8984 160.787L74.0955 162.62V163.488L73.142 164.031L70.8984 162.745V160.787Z" fill="#72B8CF"/>
<path d="M70.8984 162.04L74.0955 160.207V159.752L70.8984 161.58V162.04Z" fill="#283036"/>
<path d="M80.2113 160.287V153.697L76.5 155.827V162.417L80.2113 160.287Z" fill="#283036"/>
<path d="M76.7578 161.973L79.9549 160.139V154.148L76.7578 155.977V161.973Z" fill="#72B8CF"/>
<path opacity="0.5" d="M79.9549 158.663L76.7578 156.829V155.976L76.7905 155.957L79.9549 157.772V158.663Z" fill="#72B8CF"/>
<path opacity="0.5" d="M76.7578 157.443L79.9549 159.276V160.14L79.0014 160.687L76.7578 159.402V157.443Z" fill="#72B8CF"/>
<path d="M76.7578 158.695L79.9549 156.862V156.402L76.7578 158.235V158.695Z" fill="#283036"/>
<path d="M62.6566 150.791V144.201L58.9453 146.331V152.921L62.6566 150.791Z" fill="#283036"/>
<path d="M59.2031 152.473L62.4002 150.644V144.648L59.2031 146.481V152.473Z" fill="#72B8CF"/>
<path opacity="0.5" d="M62.4002 149.162L59.2031 147.333V146.48L59.2358 146.461L62.4002 148.275V149.162Z" fill="#72B8CF"/>
<path opacity="0.5" d="M59.2031 147.947L62.4002 149.776V150.643L61.4467 151.191L59.2031 149.906V147.947Z" fill="#72B8CF"/>
<path d="M59.2031 149.196L62.4002 147.363V146.908L59.2031 148.737V149.196Z" fill="#283036"/>
<path d="M56.8019 154.174V147.584L53.0859 149.714V156.304L56.8019 154.174Z" fill="#283036"/>
<path d="M53.3438 155.86L56.5362 154.027V148.031L53.3438 149.864V155.86Z" fill="#72B8CF"/>
<path opacity="0.5" d="M56.5362 152.549L53.3438 150.716V149.862L53.3718 149.844L56.5362 151.658V152.549Z" fill="#72B8CF"/>
<path opacity="0.5" d="M53.3438 151.33L56.5362 153.163V154.026L55.5873 154.574L53.3438 153.288V151.33Z" fill="#72B8CF"/>
<path d="M53.3438 152.582L56.5362 150.748V150.289L53.3438 152.122V152.582Z" fill="#283036"/>
<path d="M50.9456 157.525V150.936L47.2344 153.066V159.655L50.9456 157.525Z" fill="#283036"/>
<path d="M47.4922 159.21L50.6893 157.377V151.381L47.4922 153.214V159.21Z" fill="#72B8CF"/>
<path opacity="0.5" d="M50.6893 155.901L47.4922 154.068V153.214L47.5249 153.195L50.6893 155.01V155.901Z" fill="#72B8CF"/>
<path opacity="0.5" d="M47.4922 154.682L50.6893 156.515V157.378L49.7358 157.925L47.4922 156.64V154.682Z" fill="#72B8CF"/>
<path d="M47.4922 155.928L50.6893 154.1V153.641L47.4922 155.474V155.928Z" fill="#283036"/>
<path d="M74.3722 144.057V137.463L70.6562 139.593V146.183L74.3722 144.057Z" fill="#283036"/>
<path d="M70.9219 145.738L74.1143 143.905V137.914L70.9219 139.742V145.738Z" fill="#72B8CF"/>
<path opacity="0.5" d="M74.1143 142.428L70.9219 140.595V139.741L70.9499 139.723L74.1143 141.537V142.428Z" fill="#72B8CF"/>
<path opacity="0.5" d="M70.9219 141.207L74.1143 143.04V143.903L73.1608 144.451L70.9219 143.165V141.207Z" fill="#72B8CF"/>
<path d="M70.9219 142.46L74.1143 140.627V140.168L70.9219 142.001V142.46Z" fill="#283036"/>
<path d="M68.5128 147.441V140.852L64.7969 142.982V149.571L68.5128 147.441Z" fill="#283036"/>
<path d="M65.0625 149.121L68.2549 147.293V141.297L65.0625 143.13V149.121Z" fill="#72B8CF"/>
<path opacity="0.5" d="M68.2549 145.812L65.0625 143.984V143.13L65.0952 143.111L68.2549 144.926V145.812Z" fill="#72B8CF"/>
<path opacity="0.5" d="M65.0625 144.598L68.2549 146.426V147.294L67.3061 147.841L65.0625 146.556V144.598Z" fill="#72B8CF"/>
<path d="M65.0625 145.844L68.2549 144.016V143.557L65.0625 145.385V145.844Z" fill="#283036"/>
<path d="M80.2269 140.707V134.117L76.5156 136.247V142.837L80.2269 140.707Z" fill="#283036"/>
<path d="M76.7734 142.39L79.9705 140.557V134.566L76.7734 136.395V142.39Z" fill="#72B8CF"/>
<path opacity="0.5" d="M79.9705 139.082L76.7734 137.249V136.396L76.8062 136.377L79.9705 138.191V139.082Z" fill="#72B8CF"/>
<path opacity="0.5" d="M76.7734 137.861L79.9705 139.694V140.558L79.017 141.105L76.7734 139.82V137.861Z" fill="#72B8CF"/>
<path d="M76.7734 139.115L79.9705 137.282V136.822L76.7734 138.655V139.115Z" fill="#283036"/>
<path d="M45.7557 145.493L45.0312 145.896V142.931L45.7557 142.527V145.493Z" fill="#283036"/>
<path opacity="0.3" d="M45.7557 145.493L45.0312 145.896V142.931L45.7557 142.527V145.493Z" fill="#283036"/>
<path d="M45.7593 142.527L45.0349 142.931L44.1094 142.415L44.8339 142.012L45.7593 142.527Z" fill="#283036"/>
<path d="M44.1094 142.416L45.0349 142.931V145.896L44.1094 145.381V142.416Z" fill="#283036"/>
<path opacity="0.3" d="M44.1094 142.416L45.0349 142.931V145.896L44.1094 145.381V142.416Z" fill="#283036"/>
<path d="M51.7198 142.066L51 142.47V139.505L51.7198 139.105V142.066Z" fill="#283036"/>
<path opacity="0.3" d="M51.7198 142.066L51 142.47V139.505L51.7198 139.105V142.066Z" fill="#283036"/>
<path d="M51.7234 139.106L51.0036 139.505L50.0781 138.99L50.8026 138.586L51.7234 139.106Z" fill="#283036"/>
<path d="M50.0781 138.988L51.0036 139.503V142.469L50.0781 141.954V138.988Z" fill="#283036"/>
<path opacity="0.3" d="M50.0781 138.988L51.0036 139.503V142.469L50.0781 141.954V138.988Z" fill="#283036"/>
<path d="M57.701 138.647L56.9766 139.046V136.085L57.701 135.682V138.647Z" fill="#283036"/>
<path opacity="0.3" d="M57.701 138.647L56.9766 139.046V136.085L57.701 135.682V138.647Z" fill="#283036"/>
<path d="M57.7 135.681L56.9755 136.085L56.0547 135.565L56.7745 135.166L57.7 135.681Z" fill="#283036"/>
<path d="M56.0547 135.566L56.9755 136.086V139.047L56.0547 138.532V135.566Z" fill="#283036"/>
<path opacity="0.3" d="M56.0547 135.566L56.9755 136.086V139.047L56.0547 138.532V135.566Z" fill="#283036"/>
<path d="M63.6776 135.221L62.9531 135.625V132.66L63.6776 132.256V135.221Z" fill="#283036"/>
<path opacity="0.3" d="M63.6776 135.221L62.9531 135.625V132.66L63.6776 132.256V135.221Z" fill="#283036"/>
<path d="M63.6734 132.257L62.9489 132.661L62.0234 132.146L62.7479 131.742L63.6734 132.257Z" fill="#283036"/>
<path d="M62.0234 132.145L62.9489 132.66V135.625L62.0234 135.105V132.145Z" fill="#283036"/>
<path opacity="0.3" d="M62.0234 132.145L62.9489 132.66V135.625L62.0234 135.105V132.145Z" fill="#283036"/>
<path d="M69.6417 131.797L68.9219 132.201V129.236L69.6417 128.832V131.797Z" fill="#283036"/>
<path opacity="0.3" d="M69.6417 131.797L68.9219 132.201V129.236L69.6417 128.832V131.797Z" fill="#283036"/>
<path d="M69.6453 128.833L68.9255 129.237L68 128.722L68.7245 128.318L69.6453 128.833Z" fill="#283036"/>
<path d="M68 128.721L68.9255 129.236V132.201L68 131.686V128.721Z" fill="#283036"/>
<path opacity="0.3" d="M68 128.721L68.9255 129.236V132.201L68 131.686V128.721Z" fill="#283036"/>
<path d="M75.6151 128.372L74.8906 128.775V125.81L75.6151 125.406V128.372Z" fill="#283036"/>
<path opacity="0.3" d="M75.6151 128.372L74.8906 128.775V125.81L75.6151 125.406V128.372Z" fill="#283036"/>
<path d="M75.614 125.408L74.8896 125.811L73.9688 125.296L74.6886 124.893L75.614 125.408Z" fill="#283036"/>
<path d="M73.9688 125.295L74.8896 125.81V128.775L73.9688 128.26V125.295Z" fill="#283036"/>
<path opacity="0.3" d="M73.9688 125.295L74.8896 125.81V128.775L73.9688 128.26V125.295Z" fill="#283036"/>
<path d="M33.8828 180.824V184.657L43.6471 190.249L42.17 185.618L33.8828 180.824Z" fill="#E1BD9A"/>
<path d="M43.6471 184.946L33.8828 179.279V180.834L35.2243 183.892L43.6471 188.783L84.1998 163.093L82.7134 162.48L43.6471 184.946Z" fill="#E1BD9A"/>
<path d="M84.2011 166.932L43.6484 190.251V186.417L84.2011 163.094V166.932Z" fill="#E1BD9A"/>
<path opacity="0.3" d="M84.2011 166.932L43.6484 190.251V186.417L84.2011 163.094V166.932Z" fill="#E1BD9A"/>
<path d="M35.2266 181.525V185.359L43.6493 190.25V186.417L35.2266 181.525Z" fill="#E1BD9A"/>
<path opacity="0.3" d="M33.8828 180.824V184.657L43.6471 190.249V186.416L33.8828 180.824Z" fill="#E1BD9A"/>
<path d="M68.6603 170.561L60.2656 175.391V180.204H61.1163L68.6603 175.865V170.561Z" fill="#823130"/>
<path opacity="0.3" d="M68.6603 170.561L60.2656 175.391V180.204H61.1163L68.6603 175.865V170.561Z" fill="#823130"/>
<path d="M67.2181 176.708V168.531L62.6094 171.172V179.349L67.2181 176.708Z" fill="#283036"/>
<path d="M62.9375 178.797L66.9012 176.523V169.084L62.9375 171.358V178.797Z" fill="#72B8CF"/>
<path opacity="0.5" d="M66.9012 174.689L62.9375 172.415V171.357L62.9749 171.334L66.9012 173.585V174.689Z" fill="#72B8CF"/>
<path opacity="0.5" d="M62.9375 173.176L66.9012 175.45V176.522L65.7186 177.199L62.9375 175.603V173.176Z" fill="#72B8CF"/>
<path d="M64.6641 177.803L65.1595 177.515V170.076L64.6641 170.364V177.803Z" fill="#283036"/>
<path d="M76.0244 173.016C76.0244 172.209 75.3841 171.55 74.5801 171.513C74.2763 171.207 73.8556 171.012 73.3882 171.012C73.0517 171.012 72.7432 171.109 72.4814 171.281C72.3505 171.225 72.2056 171.193 72.0561 171.193C71.4625 171.193 70.9857 171.666 70.9764 172.251C70.5978 172.608 70.3594 173.114 70.3594 173.675C70.3594 174.126 70.5136 174.539 70.7707 174.873C70.7707 174.887 70.766 174.901 70.766 174.914C70.766 175.624 71.3456 176.195 72.0561 176.195C72.2804 176.195 72.4908 176.135 72.6731 176.033C72.8741 176.14 73.1031 176.195 73.3461 176.195C73.5658 176.195 73.7715 176.144 73.9538 176.061C74.0847 176.116 74.2295 176.144 74.3838 176.144C74.9727 176.144 75.4542 175.694 75.5103 175.123C75.529 175.105 75.5476 175.086 75.5617 175.068C75.8374 174.803 76.0104 174.436 76.0104 174.023C76.0104 173.852 75.9777 173.689 75.9263 173.536C75.9917 173.378 76.0244 173.202 76.0244 173.016Z" fill="#005750"/>
<path opacity="0.3" d="M74.5294 172.445C74.5294 171.963 74.1461 171.568 73.6646 171.545C73.4824 171.359 73.23 171.248 72.9495 171.248C72.7485 171.248 72.5616 171.308 72.4073 171.41C72.3278 171.378 72.2437 171.359 72.1549 171.359C71.7997 171.359 71.5146 171.643 71.5099 171.991C71.2808 172.204 71.1406 172.506 71.1406 172.84C71.1406 173.109 71.2341 173.36 71.3884 173.554C71.3884 173.564 71.3837 173.573 71.3837 173.578C71.3837 174 71.7296 174.343 72.1549 174.343C72.2905 174.343 72.412 174.306 72.5242 174.246C72.6457 174.306 72.7812 174.343 72.9261 174.343C73.057 174.343 73.1785 174.315 73.2907 174.264C73.3702 174.297 73.459 174.315 73.5478 174.315C73.903 174.315 74.1882 174.046 74.2209 173.703C74.2302 173.694 74.2396 173.68 74.2536 173.67C74.4172 173.513 74.52 173.29 74.52 173.049C74.52 172.947 74.5013 172.849 74.4686 172.756C74.506 172.663 74.5294 172.557 74.5294 172.445Z" fill="#005750"/>
<g opacity="0.3">
<path d="M76.0213 173.016C76.0213 172.214 75.3903 171.564 74.5957 171.518C74.7359 171.648 74.8574 171.801 74.9462 171.982C75.1425 172.385 75.1519 172.826 75.0023 173.216C75.1986 173.638 75.021 174.144 74.5957 174.348C74.4882 174.399 74.376 174.427 74.2591 174.432C74.1329 174.645 73.9413 174.822 73.7029 174.938C73.3664 175.1 72.9971 175.109 72.6746 174.993C72.0857 175.244 71.3939 174.993 71.1134 174.418C71.048 174.283 71.0106 174.144 70.9966 174.005C70.9031 173.917 70.8237 173.81 70.7629 173.685C70.618 173.392 70.6133 173.068 70.7161 172.784C70.7208 172.766 70.7302 172.747 70.7348 172.729C70.7208 172.687 70.7021 172.636 70.6881 172.59C70.4731 172.9 70.3516 173.276 70.3516 173.685C70.3516 174.135 70.5058 174.548 70.7629 174.882C70.7629 174.896 70.7582 174.91 70.7582 174.924C70.7582 175.634 71.3378 176.205 72.0483 176.205C72.2726 176.205 72.483 176.144 72.6653 176.042C72.8662 176.149 73.0953 176.205 73.3383 176.205C73.558 176.205 73.7637 176.154 73.946 176.07C74.0768 176.126 74.2217 176.154 74.376 176.154C74.9649 176.154 75.4464 175.703 75.5024 175.133C75.5211 175.114 75.5398 175.095 75.5539 175.077C75.8296 174.812 76.0026 174.446 76.0026 174.033C76.0026 173.861 75.9699 173.699 75.9184 173.546C75.9886 173.378 76.0213 173.202 76.0213 173.016Z" fill="#005750"/>
<path d="M74.2188 171.238C74.2234 171.248 74.2234 171.252 74.2281 171.261C74.2935 171.294 74.359 171.336 74.4197 171.378C74.359 171.326 74.2889 171.28 74.2188 171.238Z" fill="#005750"/>
</g>
<g opacity="0.3">
<path d="M76.0197 173.017C76.0197 172.441 75.6926 171.94 75.2111 171.689C75.4916 171.945 75.6739 172.307 75.6739 172.72C75.6739 172.891 75.6411 173.058 75.585 173.212C75.6365 173.355 75.6645 173.504 75.6645 173.666C75.6645 174.047 75.5056 174.39 75.2485 174.636C75.2345 174.655 75.2158 174.669 75.2018 174.687C75.1504 175.221 74.7016 175.639 74.1501 175.639C74.0099 175.639 73.8743 175.611 73.7481 175.56C73.5752 175.639 73.3835 175.685 73.1825 175.685C72.9535 175.685 72.7432 175.629 72.5562 175.532C72.3833 175.625 72.1916 175.685 71.9813 175.685C71.3176 175.685 70.78 175.151 70.78 174.492C70.78 174.478 70.7847 174.469 70.7847 174.455C70.5463 174.149 70.4014 173.759 70.4014 173.342C70.4014 173.314 70.4061 173.286 70.4061 173.258C70.3734 173.397 70.3594 173.541 70.3594 173.685C70.3594 174.135 70.5136 174.548 70.7707 174.882C70.7707 174.896 70.766 174.91 70.766 174.924C70.766 175.634 71.3456 176.205 72.0561 176.205C72.2804 176.205 72.4908 176.144 72.6731 176.042C72.8741 176.149 73.1031 176.205 73.3461 176.205C73.5658 176.205 73.7715 176.154 73.9538 176.07C74.0847 176.126 74.2296 176.154 74.3838 176.154C74.9727 176.154 75.4542 175.704 75.5103 175.133C75.529 175.114 75.5477 175.096 75.5617 175.077C75.8375 174.813 76.0104 174.446 76.0104 174.033C76.0104 173.861 75.9777 173.699 75.9263 173.546C75.987 173.379 76.0197 173.202 76.0197 173.017Z" fill="#005750"/>
<path d="M74.2891 171.279C74.3031 171.293 74.3124 171.303 74.3265 171.312C74.3311 171.312 74.3405 171.312 74.3451 171.316C74.3265 171.307 74.3078 171.293 74.2891 171.279Z" fill="#005750"/>
</g>
<path d="M76.8461 125.324L43.2812 144.476V137.32L76.8461 118.168V125.324Z" fill="#E1BD9A"/>
<path opacity="0.3" d="M76.8461 125.324L43.2812 144.476V137.32L76.8461 118.168V125.324Z" fill="#E1BD9A"/>
<path d="M76.8413 118.168L43.2764 137.319L41.0469 136.076L74.6071 116.924L76.8413 118.168Z" fill="#E1BD9A"/>
<path d="M41.0469 136.076L43.2764 137.32V144.476L41.0469 143.232V136.076Z" fill="#E1BD9A"/>
<path opacity="0.3" d="M41.0469 136.076L43.2764 137.32V144.476L41.0469 143.232V136.076Z" fill="#E1BD9A"/>
<path d="M47.1271 137.21V137.786L46.8841 137.925V138.89C46.8841 139.609 47.0477 139.67 47.3328 139.503C47.6086 139.345 47.7862 139.136 47.7862 138.366V137.419L47.5431 137.558V136.969L48.8753 136.203V136.779L48.6322 136.918V138.004C48.6322 139.066 48.1882 139.8 47.3375 140.287C46.426 140.783 45.9399 140.589 45.9399 139.572V138.468L45.6875 138.612V138.032L47.1271 137.21Z" fill="#823130"/>
<path d="M52.2175 134.872V137.424L51.25 137.981L50.1002 136.937V138.064L50.446 137.865V138.44L49.0625 139.234V138.658L49.3289 138.505V136.528L49.0672 136.677V136.097L50.3619 135.354L51.465 136.366V135.299L51.1565 135.475V134.895L52.512 134.115V134.695L52.2175 134.872Z" fill="#823130"/>
<path d="M54.2301 133.137V133.726L53.9496 133.884V135.828L54.2301 135.666V136.26L52.7344 137.118V136.524L53.0195 136.362V134.418L52.7344 134.58V133.991L54.2301 133.137Z" fill="#823130"/>
<path d="M56.2663 134.096C56.2756 133.966 56.3364 133.711 56.4299 133.432L56.8412 132.221L56.6028 132.36V131.78L57.8835 131.047V131.627L57.6638 131.752L56.5841 134.917L55.7568 135.39L54.5602 133.53L54.3125 133.673V133.093L55.9718 132.142V132.722L55.7288 132.861L56.112 133.646C56.1821 133.822 56.2429 133.989 56.2523 134.105L56.2663 134.096Z" fill="#823130"/>
<path d="M60.6688 129.445V130.434L59.8882 130.879V130.48L59.1684 130.893V131.51L60.0238 131.018V131.612L59.1684 132.104V132.833L59.8882 132.42V132.002L60.6688 131.557V132.568L57.9531 134.132V133.538L58.2382 133.376V131.431L57.9531 131.594V131.005L60.6688 129.445Z" fill="#823130"/>
<path d="M62.3583 128.476C63.4053 127.878 63.6063 128.17 63.6063 128.681C63.6063 129.029 63.3258 129.437 62.9519 129.706C63.2651 129.572 63.5409 129.683 63.5409 130.003C63.5409 130.193 63.5689 130.291 63.6484 130.244C63.7138 130.207 63.7512 130.133 63.7512 130.04V129.892L64.055 129.72V129.966C64.055 130.337 63.8961 130.773 63.396 131.061C62.807 131.4 62.5219 131.251 62.5219 130.732C62.5219 130.323 62.4705 130.254 62.0732 130.486V131.182L62.349 131.024V131.613L60.8906 132.449V131.859L61.143 131.716V129.762L60.8906 129.906V129.321L62.3583 128.476ZM62.0732 129.985L62.2742 129.869C62.5359 129.72 62.7089 129.497 62.7089 129.256C62.7089 128.991 62.5593 128.945 62.2975 129.094L62.0732 129.224V129.985Z" fill="#823130"/>
<path d="M64.2203 129.414L65.057 128.932C65.057 129.307 65.4356 129.154 65.6225 129.052C65.7814 128.964 66.0058 128.797 66.0058 128.607C66.0058 128.259 64.2764 129.4 64.2764 128.259C64.2764 127.595 64.9074 126.936 65.3468 126.681C65.7254 126.463 66.1086 126.365 66.2909 126.597L66.3377 126.194L67.1136 125.748V126.871L66.2956 127.34C66.2956 127.01 66.0338 126.969 65.7207 127.15C65.5898 127.224 65.4075 127.409 65.4075 127.567C65.4075 128.027 67.193 126.899 67.193 127.948C67.193 128.644 66.534 129.275 65.9965 129.581C65.5431 129.841 65.2252 129.813 65.0523 129.711L65.0009 130.082L64.2109 130.533V129.414H64.2203Z" fill="#823130"/>
<path d="M68.9176 124.717V125.306L68.6372 125.469V127.413L68.9176 127.251V127.845L67.4219 128.703V128.109L67.707 127.947V126.002L67.4219 126.165V125.575L68.9176 124.717Z" fill="#823130"/>
<path d="M72.1226 124.044L71.4589 124.425V123.854L71.0803 124.072V126.017L71.4542 125.803V126.397L69.7762 127.358V126.764L70.1454 126.55V124.601L69.7575 124.824V125.395L69.0938 125.775V124.611L72.1179 122.875V124.044H72.1226Z" fill="#823130"/>
<path d="M73.881 123.288C73.8997 123.185 73.9978 122.944 74.0493 122.805L74.297 122.211L74.0493 122.355V121.784L75.2599 121.088V121.659L75.0168 121.798L74.1848 123.733V124.253L74.4372 124.109V124.689L72.9929 125.515V124.935L73.25 124.786V124.257L72.3759 123.311L72.1562 123.436V122.865L73.6987 121.984V122.554L73.465 122.689L73.7268 123.014C73.7548 123.083 73.8483 123.232 73.867 123.297L73.881 123.288Z" fill="#823130"/>
<path d="M61.9594 181.764L60.3281 182.701V170.028L61.9594 169.086V181.764Z" fill="#E1BD9A"/>
<path opacity="0.3" d="M61.9594 181.764L60.3281 182.701V170.028L61.9594 169.086V181.764Z" fill="#E1BD9A"/>
<path d="M61.9528 169.085L60.3216 170.027L58.5781 169.029L60.2141 168.092L61.9528 169.085Z" fill="#E1BD9A"/>
<path d="M58.5781 169.029L60.3216 170.027V182.701L58.5781 181.703V169.029Z" fill="#E1BD9A"/>
<path opacity="0.3" d="M58.5781 169.029L60.3216 170.027V182.701L58.5781 181.703V169.029Z" fill="#E1BD9A"/>
<path opacity="0.3" d="M61.9528 169.085L60.2141 168.092L58.5781 169.029V181.703L60.3216 182.7L61.9528 181.763V169.085Z" fill="#E1BD9A"/>
<path d="M71.175 176.502L69.5391 177.439V164.766L71.175 163.828V176.502Z" fill="#E1BD9A"/>
<path opacity="0.3" d="M71.175 176.502L69.5391 177.439V164.766L71.175 163.828V176.502Z" fill="#E1BD9A"/>
<path d="M71.1763 163.828L69.5403 164.765L67.7969 163.767L69.4328 162.83L71.1763 163.828Z" fill="#E1BD9A"/>
<path d="M67.7969 163.768L69.5403 164.765V177.439L67.7969 176.446V163.768Z" fill="#E1BD9A"/>
<path opacity="0.3" d="M67.7969 163.768L69.5403 164.765V177.439L67.7969 176.446V163.768Z" fill="#E1BD9A"/>
<path opacity="0.3" d="M71.1716 163.828L69.4328 162.83L67.7969 163.767V176.446L69.5403 177.439L71.1763 176.501V163.828H71.1716Z" fill="#E1BD9A"/>
<path d="M67.9797 185.179L66.3438 186.117V173.443L67.9797 172.506V185.179Z" fill="#E1BD9A"/>
<path opacity="0.3" d="M67.9797 185.179L66.3438 186.117V173.443L67.9797 172.506V185.179Z" fill="#E1BD9A"/>
<path d="M67.9731 172.506L66.3372 173.443L64.5938 172.445L66.2297 171.508L67.9731 172.506Z" fill="#E1BD9A"/>
<path d="M64.5938 172.445L66.3372 173.443V186.117L64.5938 185.123V172.445Z" fill="#E1BD9A"/>
<path opacity="0.3" d="M64.5938 172.445L66.3372 173.443V186.117L64.5938 185.123V172.445Z" fill="#E1BD9A"/>
<path opacity="0.3" d="M67.9731 172.506L66.2297 171.508L64.5938 172.445V185.123L66.3372 186.116L67.9731 185.179V172.506Z" fill="#E1BD9A"/>
<path d="M77.2219 179.972L75.5859 180.91V168.236L77.2219 167.299V179.972Z" fill="#E1BD9A"/>
<path opacity="0.3" d="M77.2219 179.972L75.5859 180.91V168.236L77.2219 167.299V179.972Z" fill="#E1BD9A"/>
<path d="M77.2231 167.299L75.5872 168.236L73.8438 167.238L75.4797 166.301L77.2231 167.299Z" fill="#E1BD9A"/>
<path d="M73.8438 167.238L75.5872 168.236V180.91L73.8438 179.912V167.238Z" fill="#E1BD9A"/>
<path opacity="0.3" d="M73.8438 167.238L75.5872 168.236V180.91L73.8438 179.912V167.238Z" fill="#E1BD9A"/>
<path opacity="0.3" d="M77.2231 167.299L75.4797 166.301L73.8438 167.238V179.912L75.5872 180.909L77.2231 179.972V167.299Z" fill="#E1BD9A"/>
<path d="M77.2283 167.351L66.375 173.486V171.588L77.2283 165.453V167.351Z" fill="#E1BD9A"/>
<path opacity="0.3" d="M77.2283 167.351L66.375 173.486V171.588L77.2283 165.453V167.351Z" fill="#E1BD9A"/>
<path d="M77.2232 165.452L66.3699 171.587L58.5781 167.188L69.4314 161.053L77.2232 165.452Z" fill="#E1BD9A"/>
<path d="M58.5781 167.188L66.3699 171.587V173.485L58.5781 169.086V167.188Z" fill="#E1BD9A"/>
<path opacity="0.3" d="M58.5781 167.188L66.3699 171.587V173.485L58.5781 169.086V167.188Z" fill="#E1BD9A"/>
<path opacity="0.3" d="M77.2232 165.452L69.4314 161.053L58.5781 167.188V169.086L66.3699 173.485L77.2232 167.35V165.452Z" fill="#E1BD9A"/>
<path d="M60.1572 181.893C60.1572 181.086 59.5169 180.432 58.7129 180.39C58.4091 180.084 57.9884 179.889 57.521 179.889C57.1845 179.889 56.876 179.986 56.6142 180.158C56.4834 180.102 56.3385 180.07 56.1889 180.07C55.5953 180.07 55.1185 180.543 55.1092 181.128C54.7306 181.485 54.4922 181.991 54.4922 182.552C54.4922 183.003 54.6464 183.416 54.9035 183.75C54.9035 183.764 54.8988 183.778 54.8988 183.791C54.8988 184.501 55.4784 185.072 56.1889 185.072C56.4133 185.072 56.6236 185.012 56.8059 184.91C57.0069 185.017 57.2359 185.072 57.479 185.072C57.6986 185.072 57.9043 185.026 58.0866 184.938C58.2221 184.993 58.3624 185.021 58.5166 185.021C59.1055 185.021 59.587 184.571 59.6431 184C59.6618 183.982 59.6805 183.963 59.6945 183.945C59.9703 183.68 60.1432 183.313 60.1432 182.9C60.1432 182.729 60.1105 182.566 60.0591 182.413C60.1198 182.255 60.1572 182.079 60.1572 181.893Z" fill="#005750"/>
<path opacity="0.3" d="M58.6544 181.322C58.6544 180.84 58.2711 180.445 57.7896 180.422C57.6074 180.236 57.355 180.125 57.0745 180.125C56.8735 180.125 56.6866 180.185 56.5323 180.287C56.4529 180.255 56.3687 180.236 56.2799 180.236C55.9247 180.236 55.6396 180.519 55.6349 180.867C55.4058 181.081 55.2656 181.383 55.2656 181.717C55.2656 181.986 55.3591 182.236 55.5134 182.431C55.5134 182.441 55.5087 182.45 55.5087 182.455C55.5087 182.877 55.8546 183.22 56.2799 183.22C56.4155 183.22 56.537 183.183 56.6492 183.123C56.7707 183.183 56.9062 183.22 57.0511 183.22C57.182 183.22 57.3035 183.192 57.4157 183.141C57.4952 183.174 57.584 183.192 57.6728 183.192C58.028 183.192 58.3132 182.923 58.3459 182.58C58.3552 182.571 58.3646 182.557 58.3786 182.547C58.5422 182.39 58.645 182.172 58.645 181.926C58.645 181.823 58.6263 181.726 58.5936 181.633C58.6357 181.54 58.6544 181.434 58.6544 181.322Z" fill="#005750"/>
<g opacity="0.3">
<path d="M60.1541 181.893C60.1541 181.091 59.5231 180.441 58.7285 180.395C58.8687 180.524 58.9902 180.678 59.079 180.859C59.2754 181.262 59.28 181.703 59.1351 182.093C59.3314 182.515 59.1538 183.021 58.7285 183.225C58.621 183.276 58.5088 183.304 58.3919 183.309C58.2657 183.522 58.0741 183.699 57.8357 183.815C57.4992 183.977 57.1299 183.986 56.8074 183.87C56.2185 184.121 55.5267 183.87 55.2463 183.295C55.1808 183.16 55.1434 183.021 55.1294 182.882C55.0359 182.794 54.9565 182.687 54.8957 182.562C54.7508 182.269 54.7461 181.945 54.849 181.661C54.8536 181.643 54.863 181.624 54.8677 181.606C54.8536 181.564 54.8349 181.513 54.8209 181.467C54.6059 181.777 54.4844 182.153 54.4844 182.562C54.4844 183.012 54.6386 183.425 54.8957 183.759C54.8957 183.773 54.891 183.787 54.891 183.801C54.891 184.511 55.4706 185.082 56.1811 185.082C56.4054 185.082 56.6158 185.021 56.7981 184.919C56.9991 185.026 57.2281 185.082 57.4711 185.082C57.6908 185.082 57.8965 185.035 58.0788 184.947C58.2143 185.003 58.3546 185.031 58.5088 185.031C59.0977 185.031 59.5792 184.58 59.6353 184.01C59.654 183.991 59.6727 183.972 59.6867 183.954C59.9625 183.689 60.1354 183.323 60.1354 182.91C60.1354 182.738 60.1027 182.576 60.0513 182.422C60.1167 182.255 60.1541 182.079 60.1541 181.893Z" fill="#005750"/>
<path d="M58.3594 180.117C58.364 180.126 58.3641 180.131 58.3687 180.14C58.4342 180.173 58.4996 180.215 58.5604 180.256C58.4996 180.205 58.4295 180.159 58.3594 180.117Z" fill="#005750"/>
</g>
<g opacity="0.3">
<path d="M60.1557 181.894C60.1557 181.318 59.8285 180.817 59.3471 180.566C59.6275 180.822 59.8098 181.184 59.8098 181.597C59.8098 181.768 59.7771 181.935 59.721 182.089C59.7724 182.232 59.8005 182.381 59.8005 182.543C59.8005 182.924 59.6415 183.267 59.3845 183.513C59.3704 183.532 59.3517 183.546 59.3377 183.564C59.2863 184.098 58.8376 184.516 58.2907 184.516C58.1505 184.516 58.0149 184.488 57.8887 184.437C57.7158 184.516 57.5242 184.562 57.3232 184.562C57.0941 184.562 56.8838 184.506 56.6968 184.409C56.5239 184.502 56.3323 184.562 56.1219 184.562C55.4582 184.562 54.9207 184.028 54.9207 183.369C54.9207 183.355 54.9253 183.346 54.9253 183.332C54.687 183.026 54.5421 182.636 54.5421 182.218C54.5421 182.191 54.5467 182.163 54.5467 182.135C54.514 182.274 54.5 182.413 54.5 182.562C54.5 183.012 54.6542 183.425 54.9113 183.759C54.9113 183.773 54.9067 183.787 54.9067 183.801C54.9067 184.511 55.4862 185.082 56.1967 185.082C56.4211 185.082 56.6314 185.021 56.8137 184.919C57.0147 185.026 57.2437 185.082 57.4868 185.082C57.7065 185.082 57.9121 185.035 58.0944 184.947C58.23 185.003 58.3702 185.031 58.5244 185.031C59.1134 185.031 59.5948 184.581 59.6509 184.01C59.6696 183.991 59.6883 183.973 59.7023 183.954C59.9781 183.69 60.151 183.323 60.151 182.91C60.151 182.738 60.1183 182.576 60.0669 182.423C60.1183 182.256 60.1557 182.079 60.1557 181.894Z" fill="#005750"/>
<path d="M58.4219 180.158C58.4359 180.172 58.4452 180.181 58.4593 180.191C58.4639 180.191 58.4733 180.191 58.478 180.195C58.4593 180.186 58.4406 180.172 58.4219 180.158Z" fill="#005750"/>
</g>
</g>
<path d="M122.6 137.006L148.5 92H192L125.498 139.63C123.75 140.882 121.528 138.87 122.6 137.006Z" fill="#006DB7"/>
<rect x="103" width="383" height="92" rx="16" fill="#006DB7"/>
<rect x="118.048" y="21.5476" width="41.9048" height="41.9048" rx="20.9524" fill="#4285F4"/>
<rect x="118.048" y="21.5476" width="41.9048" height="41.9048" rx="20.9524" stroke="white" stroke-width="2.09524"/>
<g clip-path="url(#clip1_229_5519)">
<path d="M149.058 35.731L141.684 32.218C140.06 31.2484 138.04 31.2312 136.401 32.173L128.944 35.731C128.916 35.745 128.887 35.76 128.86 35.776C127.09 36.7878 126.476 39.0426 127.487 40.8123C127.83 41.4122 128.335 41.9037 128.944 42.231L131.001 43.211V48.111C131.002 50.302 132.427 52.2378 134.52 52.889C135.975 53.3102 137.485 53.5164 139.001 53.501C140.516 53.518 142.025 53.3135 143.482 52.894C145.574 52.2429 146.999 50.3071 147.001 48.116V43.209L149.001 42.253V50.5009C149.001 51.0532 149.448 51.5009 150.001 51.5009C150.553 51.5009 151.001 51.0532 151.001 50.5009V38.5009C151.007 37.3267 150.08 36.2419 149.058 35.731ZM145.001 48.116C145.001 49.4266 144.151 50.5858 142.901 50.979C141.633 51.3412 140.319 51.517 139.001 51.501C137.682 51.517 136.368 51.3412 135.101 50.979C133.85 50.5858 133 49.4266 133.001 48.116V44.164L136.318 45.744C137.136 46.23 138.071 46.4854 139.023 46.483C139.929 46.4894 140.819 46.2496 141.6 45.789L145.001 44.164V48.116ZM148.201 40.426L140.659 44.026C139.607 44.6383 138.304 44.6209 137.269 43.981L129.89 40.471C129.067 40.0274 128.76 39.0011 129.203 38.1786C129.353 37.9005 129.578 37.6699 129.853 37.513L137.348 33.933C138.399 33.322 139.702 33.3393 140.738 33.978L148.112 37.491C148.654 37.7921 148.993 38.3607 149.001 38.981C149.002 39.5685 148.699 40.1149 148.201 40.426Z" fill="white"/>
</g>
<path d="M187.724 33.5455H190.886V44.9489C190.886 46.1989 190.591 47.2983 190 48.2472C189.415 49.196 188.591 49.9375 187.528 50.4716C186.466 51 185.224 51.2642 183.804 51.2642C182.378 51.2642 181.134 51 180.071 50.4716C179.009 49.9375 178.185 49.196 177.599 48.2472C177.014 47.2983 176.722 46.1989 176.722 44.9489V33.5455H179.884V44.6847C179.884 45.4119 180.043 46.0597 180.361 46.6278C180.685 47.196 181.139 47.642 181.724 47.9659C182.31 48.2841 183.003 48.4432 183.804 48.4432C184.605 48.4432 185.298 48.2841 185.884 47.9659C186.474 47.642 186.929 47.196 187.247 46.6278C187.565 46.0597 187.724 45.4119 187.724 44.6847V33.5455ZM197.272 43.3295V51H194.187V37.9091H197.136V40.1335H197.289C197.59 39.4006 198.07 38.8182 198.729 38.3864C199.394 37.9545 200.215 37.7386 201.192 37.7386C202.096 37.7386 202.883 37.9318 203.553 38.3182C204.229 38.7045 204.752 39.2642 205.121 39.9972C205.496 40.7301 205.681 41.6193 205.675 42.6648V51H202.59V43.142C202.59 42.267 202.363 41.5824 201.908 41.0881C201.46 40.5937 200.837 40.3466 200.042 40.3466C199.502 40.3466 199.022 40.4659 198.602 40.7045C198.187 40.9375 197.86 41.2756 197.621 41.7188C197.388 42.1619 197.272 42.6989 197.272 43.3295ZM208.812 51V37.9091H211.897V51H208.812ZM210.363 36.0511C209.874 36.0511 209.454 35.8892 209.102 35.5653C208.749 35.2358 208.573 34.8409 208.573 34.3807C208.573 33.9148 208.749 33.5199 209.102 33.196C209.454 32.8665 209.874 32.7017 210.363 32.7017C210.857 32.7017 211.278 32.8665 211.624 33.196C211.977 33.5199 212.153 33.9148 212.153 34.3807C212.153 34.8409 211.977 35.2358 211.624 35.5653C211.278 35.8892 210.857 36.0511 210.363 36.0511ZM226.763 37.9091L222.101 51H218.692L214.03 37.9091H217.32L220.328 47.6335H220.464L223.482 37.9091H226.763ZM234.248 51.2557C232.935 51.2557 231.802 50.983 230.847 50.4375C229.898 49.8864 229.168 49.108 228.657 48.1023C228.146 47.0909 227.89 45.9006 227.89 44.5312C227.89 43.1847 228.146 42.0028 228.657 40.9858C229.174 39.9631 229.896 39.1676 230.822 38.5994C231.748 38.0256 232.836 37.7386 234.086 37.7386C234.893 37.7386 235.654 37.8693 236.37 38.1307C237.092 38.3864 237.728 38.7841 238.279 39.3239C238.836 39.8636 239.273 40.5511 239.592 41.3864C239.91 42.2159 240.069 43.2045 240.069 44.3523V45.2983H229.339V43.2188H237.112C237.106 42.6278 236.978 42.1023 236.728 41.642C236.478 41.1761 236.129 40.8097 235.68 40.5426C235.237 40.2756 234.719 40.142 234.129 40.142C233.498 40.142 232.944 40.2955 232.467 40.6023C231.989 40.9034 231.617 41.3011 231.35 41.7955C231.089 42.2841 230.955 42.821 230.95 43.4062V45.2216C230.95 45.983 231.089 46.6364 231.367 47.1818C231.646 47.7216 232.035 48.1364 232.535 48.4261C233.035 48.7102 233.62 48.8523 234.29 48.8523C234.739 48.8523 235.146 48.7898 235.509 48.6648C235.873 48.5341 236.188 48.3438 236.455 48.0938C236.722 47.8438 236.924 47.5341 237.06 47.1648L239.941 47.4886C239.759 48.25 239.413 48.9148 238.901 49.483C238.396 50.0455 237.748 50.483 236.958 50.7955C236.168 51.1023 235.265 51.2557 234.248 51.2557ZM242.679 51V37.9091H245.67V40.0909H245.807C246.045 39.3352 246.455 38.7528 247.034 38.3438C247.619 37.929 248.287 37.7216 249.037 37.7216C249.207 37.7216 249.398 37.7301 249.608 37.7472C249.824 37.7585 250.003 37.7784 250.145 37.8068V40.6449C250.014 40.5994 249.807 40.5597 249.523 40.5256C249.244 40.4858 248.974 40.4659 248.713 40.4659C248.151 40.4659 247.645 40.5881 247.196 40.8324C246.753 41.071 246.403 41.4034 246.148 41.8295C245.892 42.2557 245.764 42.7472 245.764 43.304V51H242.679ZM262.541 41.3693L259.729 41.6761C259.649 41.392 259.51 41.125 259.311 40.875C259.118 40.625 258.857 40.4233 258.527 40.2699C258.197 40.1165 257.794 40.0398 257.317 40.0398C256.675 40.0398 256.135 40.179 255.697 40.4574C255.266 40.7358 255.053 41.0966 255.058 41.5398C255.053 41.9205 255.192 42.2301 255.476 42.4688C255.766 42.7074 256.243 42.9034 256.908 43.0568L259.141 43.5341C260.379 43.8011 261.3 44.2244 261.902 44.804C262.51 45.3835 262.817 46.142 262.822 47.0795C262.817 47.9034 262.575 48.6307 262.098 49.2614C261.626 49.8864 260.97 50.375 260.129 50.7273C259.288 51.0795 258.322 51.2557 257.232 51.2557C255.629 51.2557 254.339 50.9205 253.362 50.25C252.385 49.5739 251.803 48.6335 251.615 47.429L254.624 47.1392C254.76 47.7301 255.05 48.1761 255.493 48.4773C255.936 48.7784 256.513 48.929 257.223 48.929C257.956 48.929 258.544 48.7784 258.987 48.4773C259.436 48.1761 259.661 47.804 259.661 47.3608C259.661 46.9858 259.516 46.6761 259.226 46.4318C258.942 46.1875 258.499 46 257.896 45.8693L255.663 45.4006C254.408 45.1392 253.479 44.6989 252.876 44.0795C252.274 43.4545 251.976 42.6648 251.982 41.7102C251.976 40.9034 252.195 40.2045 252.638 39.6136C253.087 39.017 253.709 38.5568 254.504 38.233C255.305 37.9034 256.229 37.7386 257.274 37.7386C258.808 37.7386 260.016 38.0653 260.896 38.7188C261.783 39.3722 262.331 40.2557 262.541 41.3693ZM265.366 51V37.9091H268.452V51H265.366ZM266.918 36.0511C266.429 36.0511 266.009 35.8892 265.656 35.5653C265.304 35.2358 265.128 34.8409 265.128 34.3807C265.128 33.9148 265.304 33.5199 265.656 33.196C266.009 32.8665 266.429 32.7017 266.918 32.7017C267.412 32.7017 267.832 32.8665 268.179 33.196C268.531 33.5199 268.707 33.9148 268.707 34.3807C268.707 34.8409 268.531 35.2358 268.179 35.5653C267.832 35.8892 267.412 36.0511 266.918 36.0511ZM276.482 51.2301C275.454 51.2301 274.533 50.9659 273.721 50.4375C272.908 49.9091 272.266 49.142 271.795 48.1364C271.323 47.1307 271.087 45.9091 271.087 44.4716C271.087 43.017 271.326 41.7898 271.803 40.7898C272.286 39.7841 272.937 39.0256 273.755 38.5142C274.573 37.9972 275.485 37.7386 276.491 37.7386C277.258 37.7386 277.888 37.8693 278.383 38.1307C278.877 38.3864 279.269 38.696 279.559 39.0597C279.849 39.4176 280.073 39.7557 280.232 40.0739H280.36V33.5455H283.454V51H280.42V48.9375H280.232C280.073 49.2557 279.843 49.5937 279.542 49.9517C279.241 50.304 278.843 50.6051 278.349 50.8551C277.854 51.1051 277.232 51.2301 276.482 51.2301ZM277.343 48.6989C277.996 48.6989 278.553 48.5227 279.013 48.1705C279.474 47.8125 279.823 47.3153 280.062 46.679C280.3 46.0426 280.42 45.3011 280.42 44.4545C280.42 43.608 280.3 42.8722 280.062 42.2472C279.829 41.6222 279.482 41.1364 279.022 40.7898C278.567 40.4432 278.008 40.2699 277.343 40.2699C276.656 40.2699 276.082 40.4489 275.621 40.8068C275.161 41.1648 274.815 41.6591 274.582 42.2898C274.349 42.9205 274.232 43.642 274.232 44.4545C274.232 45.2727 274.349 46.0028 274.582 46.6449C274.82 47.2812 275.17 47.7841 275.63 48.1534C276.096 48.517 276.667 48.6989 277.343 48.6989ZM290.509 51.2642C289.679 51.2642 288.932 51.1165 288.267 50.821C287.608 50.5199 287.085 50.0767 286.699 49.4915C286.318 48.9062 286.128 48.1847 286.128 47.3267C286.128 46.5881 286.264 45.9773 286.537 45.4943C286.81 45.0114 287.182 44.625 287.653 44.3352C288.125 44.0455 288.656 43.8267 289.247 43.679C289.844 43.5256 290.46 43.4148 291.097 43.3466C291.864 43.267 292.486 43.196 292.963 43.1335C293.44 43.0653 293.787 42.9631 294.003 42.8267C294.224 42.6847 294.335 42.4659 294.335 42.1705V42.1193C294.335 41.4773 294.145 40.9801 293.764 40.6278C293.384 40.2756 292.835 40.0994 292.119 40.0994C291.364 40.0994 290.764 40.2642 290.321 40.5938C289.884 40.9233 289.588 41.3125 289.435 41.7614L286.554 41.3523C286.781 40.5568 287.156 39.892 287.679 39.358C288.202 38.8182 288.841 38.4148 289.597 38.1477C290.352 37.875 291.188 37.7386 292.102 37.7386C292.733 37.7386 293.361 37.8125 293.986 37.9602C294.611 38.108 295.182 38.3523 295.699 38.6932C296.216 39.0284 296.631 39.4858 296.943 40.0653C297.261 40.6449 297.42 41.3693 297.42 42.2386V51H294.455V49.2017H294.352C294.165 49.5653 293.901 49.9062 293.56 50.2244C293.224 50.5369 292.801 50.7898 292.29 50.983C291.784 51.1705 291.19 51.2642 290.509 51.2642ZM291.31 48.9972C291.929 48.9972 292.466 48.875 292.92 48.6307C293.375 48.3807 293.724 48.0511 293.969 47.642C294.219 47.233 294.344 46.7869 294.344 46.304V44.7614C294.247 44.8409 294.082 44.9148 293.849 44.983C293.622 45.0511 293.366 45.1108 293.082 45.1619C292.798 45.2131 292.517 45.2585 292.239 45.2983C291.96 45.3381 291.719 45.3722 291.514 45.4006C291.054 45.4631 290.642 45.5653 290.278 45.7074C289.915 45.8494 289.628 46.0483 289.418 46.304C289.207 46.554 289.102 46.8778 289.102 47.2756C289.102 47.8438 289.31 48.2727 289.724 48.5625C290.139 48.8523 290.668 48.9972 291.31 48.9972ZM305.381 51.2301C304.352 51.2301 303.432 50.9659 302.619 50.4375C301.807 49.9091 301.165 49.142 300.693 48.1364C300.222 47.1307 299.986 45.9091 299.986 44.4716C299.986 43.017 300.224 41.7898 300.702 40.7898C301.185 39.7841 301.835 39.0256 302.653 38.5142C303.472 37.9972 304.384 37.7386 305.389 37.7386C306.156 37.7386 306.787 37.8693 307.281 38.1307C307.776 38.3864 308.168 38.696 308.457 39.0597C308.747 39.4176 308.972 39.7557 309.131 40.0739H309.259V33.5455H312.352V51H309.318V48.9375H309.131C308.972 49.2557 308.741 49.5937 308.44 49.9517C308.139 50.304 307.741 50.6051 307.247 50.8551C306.753 51.1051 306.131 51.2301 305.381 51.2301ZM306.241 48.6989C306.895 48.6989 307.452 48.5227 307.912 48.1705C308.372 47.8125 308.722 47.3153 308.96 46.679C309.199 46.0426 309.318 45.3011 309.318 44.4545C309.318 43.608 309.199 42.8722 308.96 42.2472C308.727 41.6222 308.381 41.1364 307.92 40.7898C307.466 40.4432 306.906 40.2699 306.241 40.2699C305.554 40.2699 304.98 40.4489 304.52 40.8068C304.06 41.1648 303.713 41.6591 303.48 42.2898C303.247 42.9205 303.131 43.642 303.131 44.4545C303.131 45.2727 303.247 46.0028 303.48 46.6449C303.719 47.2812 304.068 47.7841 304.528 48.1534C304.994 48.517 305.565 48.6989 306.241 48.6989ZM336.67 39.4347H333.482C333.391 38.9119 333.224 38.4489 332.979 38.0455C332.735 37.6364 332.431 37.2898 332.067 37.0057C331.704 36.7216 331.289 36.5085 330.823 36.3665C330.363 36.2188 329.866 36.1449 329.332 36.1449C328.383 36.1449 327.542 36.3835 326.809 36.8608C326.076 37.3324 325.502 38.0256 325.087 38.9403C324.673 39.8494 324.465 40.9602 324.465 42.2727C324.465 43.608 324.673 44.733 325.087 45.6477C325.508 46.5568 326.082 47.2443 326.809 47.7102C327.542 48.1705 328.38 48.4006 329.323 48.4006C329.846 48.4006 330.335 48.3324 330.789 48.196C331.249 48.054 331.661 47.8466 332.025 47.5739C332.394 47.3011 332.704 46.9659 332.954 46.5682C333.21 46.1705 333.386 45.7159 333.482 45.2045L336.67 45.2216C336.55 46.0511 336.292 46.8295 335.894 47.5568C335.502 48.2841 334.988 48.9261 334.352 49.483C333.715 50.0341 332.971 50.4659 332.119 50.7784C331.266 51.0852 330.32 51.2386 329.281 51.2386C327.746 51.2386 326.377 50.8835 325.173 50.1733C323.968 49.4631 323.019 48.4375 322.326 47.0966C321.633 45.7557 321.286 44.1477 321.286 42.2727C321.286 40.392 321.636 38.7841 322.335 37.4489C323.033 36.108 323.985 35.0824 325.19 34.3722C326.394 33.6619 327.758 33.3068 329.281 33.3068C330.252 33.3068 331.156 33.4432 331.991 33.7159C332.826 33.9886 333.57 34.3892 334.224 34.9176C334.877 35.4403 335.414 36.0824 335.835 36.8438C336.261 37.5994 336.539 38.4631 336.67 39.4347ZM345.224 51.2557C343.912 51.2557 342.778 50.983 341.824 50.4375C340.875 49.8864 340.145 49.108 339.634 48.1023C339.122 47.0909 338.866 45.9006 338.866 44.5312C338.866 43.1847 339.122 42.0028 339.634 40.9858C340.151 39.9631 340.872 39.1676 341.798 38.5994C342.724 38.0256 343.812 37.7386 345.062 37.7386C345.869 37.7386 346.631 37.8693 347.347 38.1307C348.068 38.3864 348.705 38.7841 349.256 39.3239C349.813 39.8636 350.25 40.5511 350.568 41.3864C350.886 42.2159 351.045 43.2045 351.045 44.3523V45.2983H340.315V43.2188H348.088C348.082 42.6278 347.955 42.1023 347.705 41.642C347.455 41.1761 347.105 40.8097 346.656 40.5426C346.213 40.2756 345.696 40.142 345.105 40.142C344.474 40.142 343.92 40.2955 343.443 40.6023C342.966 40.9034 342.594 41.3011 342.327 41.7955C342.065 42.2841 341.932 42.821 341.926 43.4062V45.2216C341.926 45.983 342.065 46.6364 342.344 47.1818C342.622 47.7216 343.011 48.1364 343.511 48.4261C344.011 48.7102 344.597 48.8523 345.267 48.8523C345.716 48.8523 346.122 48.7898 346.486 48.6648C346.849 48.5341 347.165 48.3438 347.432 48.0938C347.699 47.8438 347.901 47.5341 348.037 47.1648L350.918 47.4886C350.736 48.25 350.389 48.9148 349.878 49.483C349.372 50.0455 348.724 50.483 347.935 50.7955C347.145 51.1023 346.241 51.2557 345.224 51.2557ZM364.002 41.3693L361.19 41.6761C361.11 41.392 360.971 41.125 360.772 40.875C360.579 40.625 360.317 40.4233 359.988 40.2699C359.658 40.1165 359.255 40.0398 358.778 40.0398C358.136 40.0398 357.596 40.179 357.158 40.4574C356.727 40.7358 356.513 41.0966 356.519 41.5398C356.513 41.9205 356.653 42.2301 356.937 42.4688C357.227 42.7074 357.704 42.9034 358.369 43.0568L360.602 43.5341C361.84 43.8011 362.761 44.2244 363.363 44.804C363.971 45.3835 364.278 46.142 364.283 47.0795C364.278 47.9034 364.036 48.6307 363.559 49.2614C363.087 49.8864 362.431 50.375 361.59 50.7273C360.749 51.0795 359.783 51.2557 358.692 51.2557C357.09 51.2557 355.8 50.9205 354.823 50.25C353.846 49.5739 353.263 48.6335 353.076 47.429L356.085 47.1392C356.221 47.7301 356.511 48.1761 356.954 48.4773C357.397 48.7784 357.974 48.929 358.684 48.929C359.417 48.929 360.005 48.7784 360.448 48.4773C360.897 48.1761 361.121 47.804 361.121 47.3608C361.121 46.9858 360.977 46.6761 360.687 46.4318C360.403 46.1875 359.96 46 359.357 45.8693L357.124 45.4006C355.869 45.1392 354.94 44.6989 354.337 44.0795C353.735 43.4545 353.437 42.6648 353.442 41.7102C353.437 40.9034 353.656 40.2045 354.099 39.6136C354.548 39.017 355.17 38.5568 355.965 38.233C356.766 37.9034 357.69 37.7386 358.735 37.7386C360.269 37.7386 361.477 38.0653 362.357 38.7188C363.244 39.3722 363.792 40.2557 364.002 41.3693ZM370.594 51.2642C369.765 51.2642 369.018 51.1165 368.353 50.821C367.694 50.5199 367.171 50.0767 366.785 49.4915C366.404 48.9062 366.214 48.1847 366.214 47.3267C366.214 46.5881 366.35 45.9773 366.623 45.4943C366.896 45.0114 367.268 44.625 367.739 44.3352C368.211 44.0455 368.742 43.8267 369.333 43.679C369.93 43.5256 370.546 43.4148 371.183 43.3466C371.95 43.267 372.572 43.196 373.049 43.1335C373.526 43.0653 373.873 42.9631 374.089 42.8267C374.31 42.6847 374.421 42.4659 374.421 42.1705V42.1193C374.421 41.4773 374.231 40.9801 373.85 40.6278C373.469 40.2756 372.921 40.0994 372.205 40.0994C371.45 40.0994 370.85 40.2642 370.407 40.5938C369.969 40.9233 369.674 41.3125 369.521 41.7614L366.64 41.3523C366.867 40.5568 367.242 39.892 367.765 39.358C368.288 38.8182 368.927 38.4148 369.683 38.1477C370.438 37.875 371.273 37.7386 372.188 37.7386C372.819 37.7386 373.447 37.8125 374.072 37.9602C374.697 38.108 375.268 38.3523 375.785 38.6932C376.302 39.0284 376.717 39.4858 377.029 40.0653C377.347 40.6449 377.506 41.3693 377.506 42.2386V51H374.54V49.2017H374.438C374.251 49.5653 373.987 49.9062 373.646 50.2244C373.31 50.5369 372.887 50.7898 372.376 50.983C371.87 51.1705 371.276 51.2642 370.594 51.2642ZM371.396 48.9972C372.015 48.9972 372.552 48.875 373.006 48.6307C373.461 48.3807 373.81 48.0511 374.055 47.642C374.305 47.233 374.43 46.7869 374.43 46.304V44.7614C374.333 44.8409 374.168 44.9148 373.935 44.983C373.708 45.0511 373.452 45.1108 373.168 45.1619C372.884 45.2131 372.603 45.2585 372.325 45.2983C372.046 45.3381 371.805 45.3722 371.6 45.4006C371.14 45.4631 370.728 45.5653 370.364 45.7074C370.001 45.8494 369.714 46.0483 369.504 46.304C369.293 46.554 369.188 46.8778 369.188 47.2756C369.188 47.8438 369.396 48.2727 369.81 48.5625C370.225 48.8523 370.754 48.9972 371.396 48.9972ZM380.609 51V37.9091H383.6V40.0909H383.737C383.975 39.3352 384.384 38.7528 384.964 38.3438C385.549 37.929 386.217 37.7216 386.967 37.7216C387.137 37.7216 387.327 37.7301 387.538 37.7472C387.754 37.7585 387.933 37.7784 388.075 37.8068V40.6449C387.944 40.5994 387.737 40.5597 387.452 40.5256C387.174 40.4858 386.904 40.4659 386.643 40.4659C386.08 40.4659 385.575 40.5881 385.126 40.8324C384.683 41.071 384.333 41.4034 384.077 41.8295C383.822 42.2557 383.694 42.7472 383.694 43.304V51H380.609ZM398.549 33.5455L403.092 47.2841H403.271L407.805 33.5455H411.282L405.129 51H401.225L395.08 33.5455H398.549ZM415.852 51.2642C415.023 51.2642 414.276 51.1165 413.611 50.821C412.952 50.5199 412.429 50.0767 412.043 49.4915C411.662 48.9062 411.472 48.1847 411.472 47.3267C411.472 46.5881 411.608 45.9773 411.881 45.4943C412.153 45.0114 412.526 44.625 412.997 44.3352C413.469 44.0455 414 43.8267 414.591 43.679C415.188 43.5256 415.804 43.4148 416.44 43.3466C417.207 43.267 417.83 43.196 418.307 43.1335C418.784 43.0653 419.131 42.9631 419.347 42.8267C419.568 42.6847 419.679 42.4659 419.679 42.1705V42.1193C419.679 41.4773 419.489 40.9801 419.108 40.6278C418.727 40.2756 418.179 40.0994 417.463 40.0994C416.707 40.0994 416.108 40.2642 415.665 40.5938C415.227 40.9233 414.932 41.3125 414.778 41.7614L411.898 41.3523C412.125 40.5568 412.5 39.892 413.023 39.358C413.545 38.8182 414.185 38.4148 414.94 38.1477C415.696 37.875 416.531 37.7386 417.446 37.7386C418.077 37.7386 418.705 37.8125 419.33 37.9602C419.955 38.108 420.526 38.3523 421.043 38.6932C421.56 39.0284 421.974 39.4858 422.287 40.0653C422.605 40.6449 422.764 41.3693 422.764 42.2386V51H419.798V49.2017H419.696C419.509 49.5653 419.244 49.9062 418.903 50.2244C418.568 50.5369 418.145 50.7898 417.634 50.983C417.128 51.1705 416.534 51.2642 415.852 51.2642ZM416.653 48.9972C417.273 48.9972 417.81 48.875 418.264 48.6307C418.719 48.3807 419.068 48.0511 419.312 47.642C419.562 47.233 419.688 46.7869 419.688 46.304V44.7614C419.591 44.8409 419.426 44.9148 419.193 44.983C418.966 45.0511 418.71 45.1108 418.426 45.1619C418.142 45.2131 417.861 45.2585 417.582 45.2983C417.304 45.3381 417.063 45.3722 416.858 45.4006C416.398 45.4631 415.986 45.5653 415.622 45.7074C415.259 45.8494 414.972 46.0483 414.761 46.304C414.551 46.554 414.446 46.8778 414.446 47.2756C414.446 47.8438 414.653 48.2727 415.068 48.5625C415.483 48.8523 416.011 48.9972 416.653 48.9972ZM428.952 33.5455V51H425.866V33.5455H428.952ZM435.21 33.5455V51H432.124V33.5455H435.21ZM444.178 51.2557C442.865 51.2557 441.732 50.983 440.777 50.4375C439.828 49.8864 439.098 49.108 438.587 48.1023C438.075 47.0909 437.82 45.9006 437.82 44.5312C437.82 43.1847 438.075 42.0028 438.587 40.9858C439.104 39.9631 439.825 39.1676 440.751 38.5994C441.678 38.0256 442.766 37.7386 444.016 37.7386C444.822 37.7386 445.584 37.8693 446.3 38.1307C447.021 38.3864 447.658 38.7841 448.209 39.3239C448.766 39.8636 449.203 40.5511 449.521 41.3864C449.839 42.2159 449.999 43.2045 449.999 44.3523V45.2983H439.268V43.2188H447.041C447.036 42.6278 446.908 42.1023 446.658 41.642C446.408 41.1761 446.058 40.8097 445.609 40.5426C445.166 40.2756 444.649 40.142 444.058 40.142C443.428 40.142 442.874 40.2955 442.396 40.6023C441.919 40.9034 441.547 41.3011 441.28 41.7955C441.018 42.2841 440.885 42.821 440.879 43.4062V45.2216C440.879 45.983 441.018 46.6364 441.297 47.1818C441.575 47.7216 441.964 48.1364 442.464 48.4261C442.964 48.7102 443.55 48.8523 444.22 48.8523C444.669 48.8523 445.075 48.7898 445.439 48.6648C445.803 48.5341 446.118 48.3438 446.385 48.0938C446.652 47.8438 446.854 47.5341 446.99 47.1648L449.871 47.4886C449.689 48.25 449.342 48.9148 448.831 49.483C448.325 50.0455 447.678 50.483 446.888 50.7955C446.098 51.1023 445.195 51.2557 444.178 51.2557ZM452.609 37.9091H455.694V51.75C455.694 52.6932 455.515 53.4716 455.157 54.0852C454.799 54.6989 454.282 55.1563 453.606 55.4574C452.93 55.7585 452.109 55.9091 451.143 55.9091C451.029 55.9091 450.924 55.9063 450.827 55.9006C450.731 55.9006 450.626 55.8977 450.512 55.892V53.3778C450.597 53.3835 450.674 53.3864 450.742 53.3864C450.81 53.392 450.881 53.3949 450.955 53.3949C451.546 53.3949 451.969 53.25 452.225 52.9602C452.481 52.6761 452.609 52.2585 452.609 51.7074V37.9091ZM454.143 36.0511C453.648 36.0511 453.225 35.8892 452.873 35.5653C452.526 35.2358 452.353 34.8409 452.353 34.3807C452.353 33.9148 452.526 33.5199 452.873 33.196C453.225 32.8665 453.648 32.7017 454.143 32.7017C454.631 32.7017 455.049 32.8665 455.396 33.196C455.748 33.5199 455.924 33.9148 455.924 34.3807C455.924 34.8409 455.748 35.2358 455.396 35.5653C455.049 35.8892 454.631 36.0511 454.143 36.0511ZM464.577 51.2557C463.298 51.2557 462.19 50.9744 461.253 50.4119C460.315 49.8494 459.588 49.0625 459.071 48.0511C458.56 47.0398 458.304 45.858 458.304 44.5057C458.304 43.1534 458.56 41.9687 459.071 40.9517C459.588 39.9347 460.315 39.1449 461.253 38.5824C462.19 38.0199 463.298 37.7386 464.577 37.7386C465.855 37.7386 466.963 38.0199 467.901 38.5824C468.838 39.1449 469.563 39.9347 470.074 40.9517C470.591 41.9687 470.849 43.1534 470.849 44.5057C470.849 45.858 470.591 47.0398 470.074 48.0511C469.563 49.0625 468.838 49.8494 467.901 50.4119C466.963 50.9744 465.855 51.2557 464.577 51.2557ZM464.594 48.7841C465.287 48.7841 465.866 48.5937 466.332 48.2131C466.798 47.8267 467.145 47.3097 467.372 46.6619C467.605 46.0142 467.722 45.2926 467.722 44.4972C467.722 43.696 467.605 42.9716 467.372 42.3239C467.145 41.6705 466.798 41.1506 466.332 40.7642C465.866 40.3778 465.287 40.1847 464.594 40.1847C463.884 40.1847 463.293 40.3778 462.821 40.7642C462.355 41.1506 462.006 41.6705 461.773 42.3239C461.545 42.9716 461.432 43.696 461.432 44.4972C461.432 45.2926 461.545 46.0142 461.773 46.6619C462.006 47.3097 462.355 47.8267 462.821 48.2131C463.293 48.5937 463.884 48.7841 464.594 48.7841Z" fill="white"/>
<defs>
<clipPath id="clip0_229_5519">
<rect width="89" height="90" fill="white" transform="translate(0 102)"/>
</clipPath>
<clipPath id="clip1_229_5519">
<rect width="24" height="24" fill="white" transform="translate(127 30.5)"/>
</clipPath>
</defs>
</svg>
