<svg width="512" height="139" viewBox="0 0 586 159" fill="none" xmlns="http://www.w3.org/2000/svg">
<path d="M3.03906 124.306L50.0886 97.8389L106.076 129.744L59.1548 156.802L3.03906 124.306Z" fill="#3B495C"/>
<path d="M106.076 129.744V131.942L59.1543 158.999V156.801L106.076 129.744Z" fill="#233143"/>
<path d="M3.03906 124.307V126.505L59.1548 159V156.802L3.03906 124.307Z" fill="#233143"/>
<path d="M50.6332 73.3643L10.4199 96.1944V123.151L50.6332 100.028V73.3643Z" fill="#C6C3C1"/>
<path d="M12.7361 96.6875L11.123 97.6014V124.563L12.7361 123.635V96.6875Z" fill="#FBAD32"/>
<path opacity="0.5" d="M23.3063 104.169L11.9277 110.713V113.61L25.8424 105.613L23.3063 104.169Z" fill="white"/>
<path opacity="0.5" d="M26.8843 106.202L11.9277 114.802V115.643L27.62 106.618L26.8843 106.202Z" fill="white"/>
<path opacity="0.5" d="M11.9277 97.7119V98.667L12.764 98.1872L11.9277 97.7119Z" fill="white"/>
<path opacity="0.5" d="M11.9277 124.098L30.1973 134.599V108.085L30.1105 108.035L11.9277 118.486V124.098Z" fill="white"/>
<path opacity="0.5" d="M28.141 106.915L11.9277 116.237V117.891L29.585 107.738L28.141 106.915Z" fill="white"/>
<path d="M41.8172 99.0511V98.457L27.6191 106.618L28.1401 106.916L41.8172 99.0511Z" fill="white"/>
<path opacity="0.8" d="M27.62 106.618L11.9277 115.643V116.237L28.141 106.915L27.62 106.618Z" fill="white"/>
<path d="M41.9607 100.623L29.5859 107.738L30.1115 108.035L41.9607 101.217V100.623Z" fill="white"/>
<path opacity="0.8" d="M11.9277 117.891V118.485L30.1105 108.034L29.585 107.737L11.9277 117.891Z" fill="white"/>
<path d="M41.8174 97.6155V96.4229L25.8418 105.612L26.8837 106.202L41.8174 97.6155Z" fill="white"/>
<path opacity="0.8" d="M25.8424 105.613L11.9277 113.61V114.803L26.8843 106.203L25.8424 105.613Z" fill="white"/>
<path d="M35.6212 97.0857V85.04L12.7637 98.187L23.3059 104.169L35.6212 97.0857Z" fill="white"/>
<path opacity="0.8" d="M12.764 98.1875L11.9277 98.6673V110.713L23.3063 104.169L12.764 98.1875Z" fill="white"/>
<path d="M99.4047 102.445L59.1914 125.275V152.232L99.4047 129.109V102.445Z" fill="#FBAD32"/>
<path d="M40.5936 112.736L38.9805 113.655V140.611L40.5936 139.684V112.736Z" fill="#FBAD32"/>
<path d="M11.1511 97.999L9.69336 97.1719V123.767L11.1511 124.608V97.999Z" fill="#FBAD32"/>
<path d="M29.6621 108.51V135.252L38.9797 140.612V113.801L29.6621 108.51Z" fill="#FBAD32"/>
<path opacity="0.5" d="M53.5799 121.446L39.9531 129.283V130.12L54.3157 121.862L53.5799 121.446Z" fill="white"/>
<path opacity="0.5" d="M54.8366 122.159L39.9531 130.714V132.368L56.2852 122.977L54.8366 122.159Z" fill="white"/>
<path opacity="0.5" d="M50.0019 119.412L39.9531 125.188V128.09L52.538 120.852L50.0019 119.412Z" fill="white"/>
<path opacity="0.5" d="M39.9531 140.09L58.2182 150.591V124.078L56.8061 123.273L39.9531 132.966V140.09Z" fill="white"/>
<path opacity="0.8" d="M54.3157 121.862L39.9531 130.12V130.714L54.8366 122.159L54.3157 121.862Z" fill="white"/>
<path opacity="0.8" d="M39.9531 132.367V132.966L56.8061 123.274L56.2852 122.977L39.9531 132.367Z" fill="white"/>
<path opacity="0.8" d="M52.538 120.852L39.9531 128.09V129.283L53.5799 121.446L52.538 120.852Z" fill="white"/>
<path opacity="0.8" d="M39.9531 113.705V125.189L50.0019 119.413L39.9531 113.705Z" fill="white"/>
<path d="M49.1786 119.001L48.6074 118.677V145.058L49.1786 145.387V119.001Z" fill="#888D9A"/>
<path d="M57.2344 124.165V151.108L59.1902 152.232V125.275L57.2344 124.165Z" fill="#FBAD32"/>
<path d="M59.1906 125.888L56.1289 118.677L99.4038 93.8271V103.085L59.1906 125.888Z" fill="#BECCC6"/>
<path d="M99.4053 93.8271L53.4891 120.468L9.74805 95.687L55.5866 69L99.4053 93.8271Z" fill="white"/>
<path d="M93.9581 94.654L95.4707 93.7812L55.8241 70.8643L16.7441 93.5345L18.3618 94.4895L55.9292 72.6967L93.9581 94.654Z" fill="#7C8982"/>
<path d="M93.9569 94.6546L55.928 72.6973L23.4375 91.5427L61.4116 113.473L93.9569 94.6546Z" fill="#A2AAA6"/>
<path d="M56.3263 116.416L61.4123 113.473L23.4383 91.543L18.3613 94.4904L56.3263 116.416Z" fill="#8C9993"/>
<path d="M10.1502 88.499V89.189L3.03516 93.2972V92.6072L10.1502 88.499Z" fill="#243954"/>
<path d="M10.1502 94.9648V95.6594L3.03516 99.7676V99.073L10.1502 94.9648Z" fill="#243954"/>
<path d="M8.7832 87.3154L58.2866 115.419V126.4L8.7832 97.9354V87.3154Z" fill="#243954"/>
<path d="M9.69257 86.8262L8.7832 87.3151L58.2866 115.419L59.1914 114.93L9.69257 86.8262Z" fill="#243954"/>
<path d="M58.2871 126.4L59.1919 125.911V114.93L58.2871 115.419V126.4Z" fill="#243954"/>
<path d="M31.8594 118.782L37.4572 122.013V120.153L31.8594 117.005V118.782Z" fill="white"/>
<path d="M54.2155 138.761L50.8613 136.841V130.878L54.2155 132.797V138.761Z" fill="#243954"/>
<path d="M53.8908 133.104L51.1855 131.555V131.92L53.8908 133.469V133.104Z" fill="white"/>
<path d="M53.8908 133.839L51.1855 132.29V132.66L53.8908 134.209V133.839Z" fill="white"/>
<path d="M51.3223 134.25C51.3223 133.729 51.5279 133.542 51.8112 133.706C52.0945 133.871 52.3002 134.296 52.3002 134.817C52.3002 135.342 52.0945 135.534 51.8112 135.37C51.5233 135.205 51.3223 134.776 51.3223 134.25ZM51.9894 134.639C51.9894 134.268 51.9072 134.095 51.8067 134.035C51.7061 133.976 51.6284 134.058 51.6284 134.428C51.6284 134.803 51.7107 134.981 51.8067 135.041C51.9072 135.096 51.9894 135.009 51.9894 134.639ZM51.8798 136.462L52.9399 134.36L53.1913 134.506L52.1357 136.613L51.8798 136.462ZM52.7663 136.137C52.7663 135.616 52.9765 135.429 53.2552 135.594C53.5386 135.758 53.7442 136.183 53.7442 136.704C53.7442 137.23 53.5386 137.422 53.2552 137.257C52.9719 137.092 52.7663 136.663 52.7663 136.137ZM53.438 136.526C53.438 136.151 53.3558 135.982 53.2598 135.923C53.1593 135.863 53.077 135.941 53.077 136.316C53.077 136.69 53.1593 136.869 53.2598 136.928C53.3558 136.983 53.438 136.901 53.438 136.526Z" fill="white"/>
<path d="M47.2188 130.316L45.2676 129.201V125.729L47.2188 126.844V130.316Z" fill="#243954"/>
<path d="M28.0859 127.396L21.1445 123.421V111.073L28.0859 115.049V127.396Z" fill="#243954"/>
<path d="M27.6697 117.279L21.7383 113.884V114.574L27.6697 117.969V117.279Z" fill="white"/>
<path d="M27.6697 116.041L21.7383 112.646V113.336L27.6697 116.731V116.041Z" fill="white"/>
<path d="M8.36203 87.2881L0.662109 91.6613V102.642L8.36203 98.2142V87.2881Z" fill="#243954"/>
<path d="M8.36203 92.1221L0.662109 96.4953V97.1487L8.36203 92.7253V92.1221Z" fill="white"/>
<path d="M8.36203 93.6035L0.662109 97.9721V98.6302L8.36203 94.2021V93.6035Z" fill="white"/>
<path d="M8.36203 95.0107L0.662109 99.3839V100.037L8.36203 95.6094V95.0107Z" fill="white"/>
<path d="M0 102.249L0.662605 102.642V91.6606L0 91.2676V102.249Z" fill="#243954"/>
<path d="M8.36253 87.2878L7.69992 86.8994L0 91.268L0.662605 91.661L8.36253 87.2878Z" fill="#243954"/>
<rect x="166" width="420" height="141" rx="18" fill="#006DB7"/>
<path d="M110 102L221.5 66.026L189.5 42L110 102Z" fill="#006DB7"/>
<rect x="191.048" y="49.5476" width="41.9048" height="41.9048" rx="20.9524" fill="#FFB600"/>
<rect x="191.048" y="49.5476" width="41.9048" height="41.9048" rx="20.9524" stroke="white" stroke-width="2.09524"/>
<path d="M200.375 78.8886C200.375 78.9261 200.379 78.9599 200.39 78.9936C200.39 79.0049 200.398 79.0161 200.401 79.0274C200.413 79.0574 200.431 79.0874 200.454 79.1136C200.458 79.1211 200.461 79.1249 200.465 79.1324C200.465 79.1324 200.469 79.1324 200.472 79.1361C200.499 79.1661 200.529 79.1924 200.566 79.2111C202.205 80.0699 206.255 81.5661 206.424 81.6261C206.439 81.6299 206.45 81.6299 206.465 81.6336C206.472 81.6336 206.48 81.6411 206.491 81.6449C206.589 81.6599 206.713 81.6674 206.855 81.6674C209.938 81.6674 222.789 78.0411 223.359 77.8799C223.531 77.8311 223.644 77.6624 223.621 77.4824C223.014 72.7236 221.375 64.9574 221.36 64.8786C221.36 64.8749 221.356 64.8711 221.356 64.8674C221.345 64.8299 221.33 64.7961 221.311 64.7624C221.308 64.7549 221.304 64.7474 221.3 64.7436C221.278 64.7099 221.244 64.6799 221.21 64.6574C221.195 64.6461 221.176 64.6386 221.157 64.6311C221.142 64.6236 221.128 64.6124 221.109 64.6086L217.625 63.5849C216.267 60.5474 214.318 59.0849 211.989 59.3586C211.501 59.4149 211.051 59.5499 210.642 59.7561C210.436 59.7186 210.222 59.6961 210.001 59.6924C208.899 59.6811 207.961 60.1161 207.226 60.9824C206.341 62.0136 205.786 63.6674 205.561 65.8911C203.615 66.2361 202.186 66.4799 202.164 66.4836C202.149 66.4836 202.141 66.4949 202.126 66.4986C202.119 66.4986 202.107 66.4986 202.1 66.4986C202.089 66.4986 202.081 66.5099 202.074 66.5174C202.044 66.5324 202.018 66.5474 201.995 66.5661C201.98 66.5774 201.969 66.5886 201.957 66.6036C201.935 66.6261 201.92 66.6524 201.905 66.6824C201.901 66.6936 201.89 66.7011 201.886 66.7124C201.159 68.6249 200.409 78.4461 200.379 78.8624V78.8661V78.8849L200.375 78.8886ZM206.533 66.4574C206.574 66.4499 206.615 66.4424 206.66 66.4349C207.151 66.3449 207.661 66.2549 208.182 66.1574C208.197 66.5436 208.227 66.9411 208.273 67.3536C206.499 67.6986 205.344 67.8899 204.837 67.9199L203.281 67.0274C204.054 66.8924 205.213 66.6936 206.536 66.4536L206.533 66.4574ZM208.16 65.4224C207.995 65.4524 207.83 65.4824 207.665 65.5124C207.823 64.3986 208.081 63.5099 208.422 62.8911C208.246 63.6261 208.156 64.4736 208.156 65.4224H208.16ZM203.416 76.9686L205.674 80.5724C204.504 80.1261 202.584 79.3761 201.38 78.8061L203.42 76.9724L203.416 76.9686ZM203.859 76.3049V68.2011L204.406 68.5161C204.552 69.9261 205.201 75.9861 205.749 79.3236L203.859 76.3086V76.3049ZM202.438 67.3874L203.131 67.7849V76.2486L201.17 78.0149C201.361 75.6749 201.905 69.4724 202.434 67.3874H202.438ZM206.806 80.9511C206.405 79.6761 205.606 73.0086 205.145 68.6286C205.76 68.5611 206.803 68.3849 208.351 68.0811C208.475 68.9549 208.621 69.6336 208.707 70.0049C208.831 70.4849 209.262 70.8224 209.757 70.8224C209.847 70.8224 209.938 70.8111 210.024 70.7886C210.597 70.6424 210.954 70.0574 210.811 69.4761C210.688 68.9774 210.568 68.3174 210.477 67.6499C212.142 67.3049 214.108 66.8849 216.331 66.3899C216.519 67.0536 216.68 67.7474 216.796 68.4111C216.796 68.4261 216.8 68.4374 216.804 68.4486C216.845 68.7336 216.995 68.9849 217.227 69.1574C217.46 69.3299 217.741 69.4049 218.03 69.3599C218.319 69.3186 218.57 69.1649 218.743 68.9324C218.915 68.6999 218.986 68.4149 218.945 68.1299C218.93 68.0211 218.791 67.1099 218.454 65.9099C219.481 65.6774 220.287 65.4936 220.722 65.3924C221.045 66.9449 222.305 73.1174 222.856 77.2649C218.761 78.4161 208.955 81.0261 206.802 80.9399L206.806 80.9511ZM211.805 61.6161C211.839 61.6049 211.869 61.5899 211.903 61.5824C212.007 61.5524 212.12 61.5261 212.236 61.5111C212.263 61.5111 212.292 61.5111 212.319 61.5074C212.911 62.1636 213.395 63.1049 213.755 64.3161C213.736 64.3199 213.714 64.3236 213.695 64.3311C213.523 64.3686 213.342 64.4061 213.159 64.4474C212.773 63.1799 212.236 62.2724 211.565 61.7286C211.58 61.7211 211.591 61.7136 211.602 61.7061C211.666 61.6724 211.734 61.6461 211.805 61.6199V61.6161ZM210.403 66.9261C210.365 66.5286 210.339 66.1349 210.331 65.7524C211.318 65.5611 212.199 65.3849 212.971 65.2236H212.979C213.069 65.2049 213.155 65.1861 213.245 65.1674C213.372 65.1411 213.492 65.1149 213.612 65.0886C213.627 65.0886 213.642 65.0811 213.657 65.0774C213.815 65.0436 213.969 65.0099 214.115 64.9761C214.171 64.9649 214.231 64.9499 214.287 64.9386C214.842 64.8149 215.319 64.7024 215.709 64.6011C215.851 64.9349 215.99 65.2986 216.118 65.6886C213.95 66.1724 212.03 66.5849 210.399 66.9224L210.403 66.9261ZM214.464 64.1586C214.171 63.1649 213.8 62.3286 213.35 61.6574C214.111 61.9724 214.801 62.7374 215.401 63.9336C215.127 64.0011 214.813 64.0761 214.46 64.1586H214.464ZM211.003 62.2424C211.003 62.2424 211.014 62.2311 211.017 62.2236C211.599 62.6474 212.086 63.4574 212.443 64.5936C211.805 64.7249 211.1 64.8636 210.328 65.0136C210.369 63.7799 210.597 62.8236 211.003 62.2424ZM218.24 65.2236C218.154 64.9611 218.068 64.7024 217.974 64.4511L219.575 64.9236C219.193 65.0099 218.743 65.1149 218.244 65.2274L218.24 65.2236ZM212.071 60.0861C212.229 60.0674 212.382 60.0599 212.536 60.0599C214.378 60.0599 215.885 61.3949 217.029 64.0386C217.257 64.5786 217.468 65.1599 217.651 65.7599C218.052 67.0874 218.21 68.1299 218.225 68.2461C218.24 68.3399 218.214 68.4336 218.157 68.5124C218.101 68.5874 218.019 68.6399 217.921 68.6511C217.827 68.6661 217.737 68.6399 217.659 68.5836C217.584 68.5274 217.535 68.4449 217.52 68.3474C217.52 68.3361 217.513 68.3061 217.513 68.2949C217.374 67.4886 217.175 66.6486 216.935 65.8574C216.721 65.1674 216.5 64.5711 216.249 64.0274C215.266 61.8674 214.01 60.7724 212.517 60.7724C212.499 60.7724 212.484 60.7724 212.465 60.7724C212.364 60.7649 212.255 60.7799 212.15 60.7911C211.554 60.8624 211.055 61.0986 210.68 61.4924C210.68 61.4924 210.68 61.4924 210.676 61.4961C210.579 61.5936 210.489 61.7061 210.403 61.8261C209.859 62.6099 209.585 63.8324 209.589 65.4561C209.589 66.0824 209.634 66.7386 209.712 67.4061C209.806 68.2049 209.953 69.0449 210.106 69.6486C210.151 69.8399 210.035 70.0311 209.847 70.0799C209.671 70.1249 209.461 70.0086 209.413 69.8099C209.341 69.4986 209.158 68.6624 209.023 67.6011C208.94 66.9374 208.895 66.3036 208.884 65.7149C208.85 64.0386 209.094 62.7111 209.604 61.7699C209.682 61.6236 209.746 61.5186 209.818 61.4174C209.889 61.3124 209.968 61.2149 210.046 61.1211C210.286 60.8436 210.564 60.6186 210.868 60.4499C211.227 60.2549 211.629 60.1274 212.071 60.0786V60.0861ZM207.774 61.4586C208.299 60.8399 208.944 60.4986 209.698 60.4349C209.653 60.4799 209.611 60.5286 209.566 60.5774C209.536 60.6111 209.506 60.6411 209.476 60.6749C209.386 60.7799 209.3 60.8924 209.217 61.0086C209.18 61.0611 209.142 61.1211 209.105 61.1811C209.094 61.1999 209.083 61.2186 209.071 61.2374C209.056 61.2636 209.041 61.2861 209.026 61.3124C208.715 61.4474 208.434 61.6611 208.182 61.9499C207.549 62.6924 207.121 63.9374 206.908 65.6549C206.758 65.6811 206.611 65.7074 206.461 65.7374C206.405 65.7486 206.349 65.7561 206.293 65.7674C206.51 63.8211 207.016 62.3399 207.77 61.4624L207.774 61.4586Z" fill="white"/>
<path d="M216.514 72.8254C216.158 72.5217 215.64 72.3567 214.984 72.3267L213.975 72.2854C213.645 72.2704 213.552 72.2104 213.54 72.2029C213.529 72.1954 213.507 72.1804 213.507 72.0979C213.507 72.0154 213.518 71.8879 213.668 71.7417C213.799 71.6142 214.005 71.5204 214.275 71.4717C214.515 71.4267 214.714 71.4117 214.868 71.4304C215.033 71.4492 215.19 71.4792 215.322 71.5204C215.558 71.5954 215.775 71.5992 215.967 71.5279C216.15 71.4604 216.297 71.3442 216.402 71.1867C216.499 71.0442 216.555 70.8867 216.574 70.7142C216.593 70.5304 216.559 70.3579 216.473 70.1967C216.383 70.0242 216.24 69.8967 216.072 69.8254C215.82 69.6979 215.532 69.6154 215.213 69.5817C215.13 69.5742 215.052 69.5667 214.969 69.5629L214.958 69.3904C214.943 69.1467 214.842 68.9404 214.658 68.7942C214.474 68.6479 214.249 68.5954 214.009 68.6367C213.777 68.6779 213.578 68.7942 213.432 68.9779C213.285 69.1617 213.21 69.3754 213.222 69.6042L213.233 69.8854C212.978 69.9904 212.745 70.1217 212.543 70.2754C212.198 70.5342 211.924 70.8454 211.729 71.2054C211.527 71.5804 211.425 71.9892 211.425 72.4204C211.425 73.0129 211.605 73.4854 211.954 73.8192C212.299 74.1492 212.809 74.3292 213.469 74.3592L214.5 74.4042C214.718 74.4117 214.838 74.4379 214.902 74.4642C214.984 74.4942 215.003 74.5204 215.007 74.5242C215.025 74.5542 215.04 74.5954 215.044 74.6517C215.052 74.7342 215.033 74.8092 214.995 74.8842C214.954 74.9592 214.875 75.0379 214.759 75.1092C214.624 75.1954 214.433 75.2629 214.185 75.3117C213.837 75.3829 213.54 75.3979 213.304 75.3642C213.057 75.3267 212.865 75.2817 212.734 75.2292C212.415 75.1092 212.172 75.1692 212.022 75.2404C211.834 75.3304 211.68 75.4692 211.568 75.6567C211.463 75.8329 211.399 76.0242 211.38 76.2267C211.362 76.4367 211.392 76.6354 211.47 76.8229C211.564 77.0442 211.74 77.2054 211.969 77.2879C212.22 77.3892 212.524 77.4604 212.892 77.5092C213.079 77.5354 213.282 77.5392 213.503 77.5317L213.514 77.8242C213.525 78.1092 213.627 78.3529 213.814 78.5292C213.972 78.6792 214.17 78.7579 214.384 78.7579C214.448 78.7579 214.512 78.7504 214.575 78.7392C214.842 78.6829 215.063 78.5292 215.217 78.2892C215.359 78.0679 215.427 77.8204 215.408 77.5542L215.382 77.0967C215.674 76.9579 215.937 76.7854 216.162 76.5904C216.51 76.2904 216.777 75.9304 216.953 75.5217C217.129 75.1167 217.197 74.6742 217.155 74.2129C217.103 73.6167 216.885 73.1554 216.51 72.8367L216.514 72.8254ZM216.289 75.2179C216.154 75.5254 215.955 75.7954 215.689 76.0242C215.464 76.2192 215.187 76.3842 214.872 76.5117C214.725 76.5717 214.635 76.7142 214.647 76.8679L214.688 77.5767C214.695 77.6892 214.669 77.7867 214.609 77.8767C214.545 77.9742 214.478 77.9967 214.429 78.0079C214.358 78.0229 214.335 78.0042 214.317 77.9854C214.287 77.9592 214.249 77.9067 214.242 77.7829L214.219 77.1117C214.219 77.0104 214.17 76.9129 214.092 76.8492C214.024 76.7929 213.942 76.7629 213.855 76.7629C213.84 76.7629 213.825 76.7629 213.81 76.7629C213.495 76.8004 213.222 76.8042 212.989 76.7742C212.685 76.7329 212.434 76.6729 212.228 76.5942C212.164 76.5717 212.149 76.5454 212.138 76.5192C212.108 76.4479 212.097 76.3654 212.104 76.2754C212.112 76.1817 212.138 76.0992 212.187 76.0204C212.228 75.9529 212.273 75.9117 212.333 75.8817C212.363 75.8667 212.412 75.8704 212.464 75.8929C212.644 75.9642 212.884 76.0242 213.192 76.0692C213.51 76.1179 213.889 76.0992 214.32 76.0129C214.658 75.9454 214.928 75.8479 215.138 75.7129C215.363 75.5704 215.528 75.4017 215.629 75.2142C215.73 75.0192 215.775 74.8129 215.76 74.5954C215.749 74.4079 215.693 74.2392 215.595 74.1004C215.494 73.9504 215.337 73.8417 215.134 73.7704C214.969 73.7104 214.763 73.6804 214.515 73.6729L213.488 73.6279C213.012 73.6092 212.659 73.4929 212.445 73.2904C212.243 73.0954 212.142 72.8104 212.142 72.4167C212.142 72.1017 212.213 71.8167 212.359 71.5467C212.505 71.2767 212.708 71.0479 212.97 70.8492C213.18 70.6917 213.428 70.5642 213.713 70.4704C213.867 70.4179 213.968 70.2754 213.96 70.1142L213.942 69.5704C213.942 69.5179 213.957 69.4729 213.994 69.4279C214.032 69.3829 214.073 69.3567 214.129 69.3492C214.178 69.3417 214.189 69.3492 214.2 69.3567C214.212 69.3679 214.227 69.3754 214.227 69.4242L214.257 69.9454C214.268 70.1442 214.44 70.2979 214.639 70.2867C214.819 70.2754 214.973 70.2792 215.13 70.2979C215.359 70.3204 215.562 70.3804 215.753 70.4742C215.809 70.4967 215.82 70.5229 215.828 70.5342C215.847 70.5679 215.854 70.6017 215.847 70.6392C215.843 70.6917 215.824 70.7367 215.794 70.7817C215.779 70.8042 215.757 70.8267 215.708 70.8492C215.697 70.8529 215.652 70.8642 215.539 70.8304C215.355 70.7742 215.157 70.7367 214.943 70.7142C214.718 70.6917 214.455 70.7067 214.144 70.7629C213.728 70.8379 213.398 70.9954 213.162 71.2242C212.903 71.4754 212.772 71.7867 212.779 72.1204C212.79 72.4879 212.97 72.6942 213.117 72.7992C213.3 72.9304 213.559 72.9979 213.942 73.0167L214.95 73.0579C215.445 73.0804 215.813 73.1929 216.045 73.3879C216.27 73.5792 216.402 73.8679 216.435 74.2729C216.465 74.6179 216.417 74.9292 216.289 75.2254V75.2179Z" fill="white"/>
<path d="M262.141 35.2891C262.055 34.4827 261.692 33.8549 261.052 33.4055C260.418 32.9562 259.593 32.7315 258.577 32.7315C257.863 32.7315 257.251 32.8393 256.74 33.0547C256.229 33.2701 255.838 33.5625 255.567 33.9318C255.297 34.3011 255.158 34.7228 255.152 35.1967C255.152 35.5907 255.241 35.9323 255.42 36.2216C255.604 36.5109 255.854 36.7571 256.168 36.9602C256.482 37.1572 256.829 37.3234 257.211 37.4588C257.593 37.5942 257.977 37.7081 258.365 37.8004L260.138 38.2436C260.852 38.4098 261.538 38.6345 262.197 38.9176C262.862 39.2008 263.455 39.5578 263.979 39.9886C264.508 40.4195 264.927 40.9396 265.234 41.549C265.542 42.1584 265.696 42.8724 265.696 43.6911C265.696 44.799 265.413 45.7746 264.847 46.6179C264.28 47.455 263.462 48.1106 262.391 48.5845C261.326 49.0523 260.036 49.2862 258.522 49.2862C257.051 49.2862 255.774 49.0585 254.69 48.603C253.613 48.1475 252.77 47.4827 252.161 46.6087C251.557 45.7346 251.231 44.6697 251.182 43.4141H254.552C254.601 44.0727 254.804 44.6205 255.161 45.0575C255.518 45.4946 255.983 45.8208 256.555 46.0362C257.134 46.2517 257.78 46.3594 258.494 46.3594C259.239 46.3594 259.892 46.2486 260.452 46.027C261.018 45.7992 261.461 45.4853 261.781 45.0852C262.101 44.679 262.264 44.205 262.271 43.6634C262.264 43.1709 262.12 42.7647 261.837 42.4446C261.554 42.1184 261.156 41.8475 260.646 41.6321C260.141 41.4105 259.55 41.2135 258.873 41.0412L256.722 40.4872C255.164 40.0871 253.933 39.4808 253.028 38.6683C252.13 37.8497 251.68 36.7633 251.68 35.4091C251.68 34.295 251.982 33.3194 252.585 32.4822C253.195 31.6451 254.022 30.9957 255.069 30.5341C256.115 30.0663 257.3 29.8324 258.624 29.8324C259.965 29.8324 261.141 30.0663 262.151 30.5341C263.166 30.9957 263.963 31.639 264.542 32.4638C265.121 33.2824 265.419 34.2242 265.438 35.2891H262.141ZM272.683 49.2862C271.784 49.2862 270.975 49.1262 270.255 48.8061C269.541 48.4799 268.974 47.9998 268.556 47.3658C268.144 46.7318 267.937 45.95 267.937 45.0206C267.937 44.2204 268.085 43.5587 268.381 43.0355C268.676 42.5123 269.079 42.0938 269.59 41.7798C270.101 41.4659 270.676 41.2289 271.317 41.0689C271.963 40.9027 272.631 40.7827 273.32 40.7088C274.151 40.6226 274.825 40.5457 275.342 40.478C275.859 40.4041 276.235 40.2933 276.469 40.1456C276.709 39.9917 276.829 39.7547 276.829 39.4347V39.3793C276.829 38.6837 276.622 38.1451 276.21 37.7635C275.798 37.3819 275.204 37.1911 274.428 37.1911C273.609 37.1911 272.96 37.3696 272.48 37.7266C272.006 38.0836 271.686 38.5052 271.52 38.9915L268.399 38.5483C268.645 37.6866 269.051 36.9664 269.618 36.3878C270.184 35.803 270.876 35.366 271.695 35.0767C272.514 34.7812 273.419 34.6335 274.41 34.6335C275.093 34.6335 275.773 34.7135 276.45 34.8736C277.127 35.0336 277.746 35.2983 278.306 35.6676C278.866 36.0308 279.315 36.5263 279.654 37.1541C279.999 37.782 280.171 38.5668 280.171 39.5085V49H276.958V47.0518H276.847C276.644 47.4458 276.358 47.8151 275.988 48.1598C275.625 48.4983 275.167 48.7723 274.613 48.9815C274.065 49.1847 273.422 49.2862 272.683 49.2862ZM273.551 46.8303C274.222 46.8303 274.804 46.6979 275.296 46.4332C275.788 46.1624 276.167 45.8054 276.432 45.3622C276.702 44.919 276.838 44.4358 276.838 43.9126V42.2415C276.733 42.3277 276.555 42.4077 276.302 42.4815C276.056 42.5554 275.779 42.62 275.471 42.6754C275.164 42.7308 274.859 42.7801 274.557 42.8232C274.256 42.8662 273.994 42.9032 273.773 42.9339C273.274 43.0017 272.828 43.1125 272.434 43.2663C272.04 43.4202 271.729 43.6357 271.501 43.9126C271.273 44.1835 271.16 44.5343 271.16 44.9652C271.16 45.5807 271.384 46.0455 271.834 46.3594C272.283 46.6733 272.855 46.8303 273.551 46.8303ZM286.874 30.0909V49H283.532V30.0909H286.874ZM294.392 49.2862C293.493 49.2862 292.684 49.1262 291.964 48.8061C291.25 48.4799 290.683 47.9998 290.265 47.3658C289.853 46.7318 289.646 45.95 289.646 45.0206C289.646 44.2204 289.794 43.5587 290.089 43.0355C290.385 42.5123 290.788 42.0938 291.299 41.7798C291.81 41.4659 292.385 41.2289 293.026 41.0689C293.672 40.9027 294.34 40.7827 295.029 40.7088C295.86 40.6226 296.534 40.5457 297.051 40.478C297.568 40.4041 297.944 40.2933 298.178 40.1456C298.418 39.9917 298.538 39.7547 298.538 39.4347V39.3793C298.538 38.6837 298.331 38.1451 297.919 37.7635C297.507 37.3819 296.913 37.1911 296.137 37.1911C295.318 37.1911 294.669 37.3696 294.189 37.7266C293.715 38.0836 293.395 38.5052 293.229 38.9915L290.108 38.5483C290.354 37.6866 290.76 36.9664 291.327 36.3878C291.893 35.803 292.585 35.366 293.404 35.0767C294.223 34.7812 295.128 34.6335 296.119 34.6335C296.802 34.6335 297.482 34.7135 298.159 34.8736C298.836 35.0336 299.455 35.2983 300.015 35.6676C300.575 36.0308 301.024 36.5263 301.363 37.1541C301.708 37.782 301.88 38.5668 301.88 39.5085V49H298.667V47.0518H298.556C298.353 47.4458 298.067 47.8151 297.697 48.1598C297.334 48.4983 296.876 48.7723 296.322 48.9815C295.774 49.1847 295.131 49.2862 294.392 49.2862ZM295.26 46.8303C295.931 46.8303 296.513 46.6979 297.005 46.4332C297.497 46.1624 297.876 45.8054 298.141 45.3622C298.411 44.919 298.547 44.4358 298.547 43.9126V42.2415C298.442 42.3277 298.264 42.4077 298.011 42.4815C297.765 42.5554 297.488 42.62 297.18 42.6754C296.873 42.7308 296.568 42.7801 296.266 42.8232C295.965 42.8662 295.703 42.9032 295.482 42.9339C294.983 43.0017 294.537 43.1125 294.143 43.2663C293.749 43.4202 293.438 43.6357 293.21 43.9126C292.982 44.1835 292.869 44.5343 292.869 44.9652C292.869 45.5807 293.093 46.0455 293.543 46.3594C293.992 46.6733 294.564 46.8303 295.26 46.8303ZM316.953 49.2493C315.839 49.2493 314.842 48.9631 313.961 48.3906C313.081 47.8182 312.386 46.9872 311.875 45.8977C311.364 44.8082 311.108 43.4848 311.108 41.9276C311.108 40.3518 311.367 39.0223 311.884 37.9389C312.407 36.8494 313.112 36.0277 313.998 35.4737C314.885 34.9136 315.873 34.6335 316.962 34.6335C317.793 34.6335 318.476 34.7751 319.012 35.0582C319.547 35.3352 319.972 35.6707 320.286 36.0646C320.6 36.4524 320.843 36.8187 321.015 37.1634H321.154V30.0909H324.505V49H321.218V46.7656H321.015C320.843 47.1103 320.594 47.4766 320.267 47.8643C319.941 48.246 319.51 48.5722 318.975 48.843C318.439 49.1139 317.765 49.2493 316.953 49.2493ZM317.885 46.5071C318.593 46.5071 319.196 46.3163 319.695 45.9347C320.194 45.5469 320.572 45.0083 320.831 44.3189C321.089 43.6295 321.218 42.8262 321.218 41.9091C321.218 40.992 321.089 40.1948 320.831 39.5178C320.578 38.8407 320.203 38.3144 319.704 37.9389C319.212 37.5634 318.605 37.3757 317.885 37.3757C317.141 37.3757 316.519 37.5696 316.02 37.9574C315.522 38.3452 315.146 38.8807 314.894 39.5639C314.641 40.2472 314.515 41.0289 314.515 41.9091C314.515 42.7955 314.641 43.5864 314.894 44.282C315.152 44.9714 315.531 45.5161 316.029 45.9162C316.534 46.3101 317.153 46.5071 317.885 46.5071ZM334.345 49.277C332.923 49.277 331.695 48.9815 330.661 48.3906C329.633 47.7936 328.843 46.9503 328.289 45.8608C327.735 44.7652 327.458 43.4756 327.458 41.9922C327.458 40.5334 327.735 39.2531 328.289 38.1513C328.849 37.0433 329.63 36.1816 330.634 35.5661C331.637 34.9444 332.816 34.6335 334.17 34.6335C335.044 34.6335 335.869 34.7751 336.644 35.0582C337.426 35.3352 338.115 35.7661 338.713 36.3509C339.316 36.9356 339.79 37.6804 340.134 38.5852C340.479 39.4839 340.651 40.5549 340.651 41.7983V42.8232H329.027V40.5703H337.448C337.441 39.9302 337.303 39.3608 337.032 38.8622C336.761 38.3575 336.383 37.9605 335.896 37.6712C335.416 37.3819 334.856 37.2372 334.216 37.2372C333.533 37.2372 332.933 37.4034 332.416 37.7358C331.899 38.062 331.495 38.4929 331.206 39.0284C330.923 39.5578 330.778 40.1394 330.772 40.7734V42.7401C330.772 43.5649 330.923 44.2727 331.225 44.8636C331.526 45.4484 331.948 45.8977 332.49 46.2116C333.031 46.5194 333.665 46.6733 334.392 46.6733C334.878 46.6733 335.318 46.6056 335.712 46.4702C336.106 46.3286 336.447 46.1224 336.737 45.8516C337.026 45.5807 337.244 45.2453 337.392 44.8452L340.513 45.196C340.316 46.0208 339.941 46.741 339.387 47.3565C338.839 47.9659 338.137 48.4399 337.281 48.7784C336.426 49.1108 335.447 49.277 334.345 49.277ZM352.606 30.0909L357.527 44.9744H357.721L362.633 30.0909H366.4L359.734 49H355.505L348.848 30.0909H352.606ZM373.498 49.277C372.076 49.277 370.848 48.9815 369.814 48.3906C368.786 47.7936 367.995 46.9503 367.441 45.8608C366.887 44.7652 366.61 43.4756 366.61 41.9922C366.61 40.5334 366.887 39.2531 367.441 38.1513C368.001 37.0433 368.783 36.1816 369.786 35.5661C370.789 34.9444 371.968 34.6335 373.322 34.6335C374.196 34.6335 375.021 34.7751 375.797 35.0582C376.578 35.3352 377.268 35.7661 377.865 36.3509C378.468 36.9356 378.942 37.6804 379.287 38.5852C379.631 39.4839 379.804 40.5549 379.804 41.7983V42.8232H368.18V40.5703H376.6C376.594 39.9302 376.455 39.3608 376.184 38.8622C375.914 38.3575 375.535 37.9605 375.049 37.6712C374.569 37.3819 374.009 37.2372 373.368 37.2372C372.685 37.2372 372.085 37.4034 371.568 37.7358C371.051 38.062 370.648 38.4929 370.358 39.0284C370.075 39.5578 369.931 40.1394 369.925 40.7734V42.7401C369.925 43.5649 370.075 44.2727 370.377 44.8636C370.679 45.4484 371.1 45.8977 371.642 46.2116C372.184 46.5194 372.818 46.6733 373.544 46.6733C374.03 46.6733 374.47 46.6056 374.864 46.4702C375.258 46.3286 375.6 46.1224 375.889 45.8516C376.178 45.5807 376.397 45.2453 376.545 44.8452L379.665 45.196C379.468 46.0208 379.093 46.741 378.539 47.3565C377.991 47.9659 377.289 48.4399 376.434 48.7784C375.578 49.1108 374.599 49.277 373.498 49.277ZM385.974 40.6903V49H382.631V34.8182H385.826V37.228H385.992C386.318 36.4339 386.839 35.803 387.553 35.3352C388.273 34.8674 389.162 34.6335 390.221 34.6335C391.2 34.6335 392.052 34.8428 392.778 35.2614C393.511 35.6799 394.077 36.2862 394.477 37.0803C394.884 37.8743 395.084 38.8376 395.077 39.9702V49H391.735V40.4872C391.735 39.5393 391.489 38.7976 390.996 38.2621C390.51 37.7266 389.836 37.4588 388.974 37.4588C388.39 37.4588 387.87 37.5881 387.414 37.8466C386.965 38.099 386.611 38.4652 386.352 38.9453C386.1 39.4254 385.974 40.0071 385.974 40.6903ZM405.557 34.8182V37.4034H397.404V34.8182H405.557ZM399.417 31.4205H402.759V44.7344C402.759 45.1837 402.827 45.5284 402.962 45.7685C403.104 46.0024 403.289 46.1624 403.516 46.2486C403.744 46.3348 403.996 46.3778 404.273 46.3778C404.483 46.3778 404.674 46.3625 404.846 46.3317C405.024 46.3009 405.16 46.2732 405.252 46.2486L405.815 48.8615C405.637 48.9231 405.381 48.9908 405.049 49.0646C404.723 49.1385 404.323 49.1816 403.849 49.1939C403.012 49.2185 402.258 49.0923 401.587 48.8153C400.916 48.5322 400.383 48.0952 399.989 47.5043C399.602 46.9134 399.411 46.1747 399.417 45.2884V31.4205ZM412.433 49.2862C411.534 49.2862 410.725 49.1262 410.005 48.8061C409.291 48.4799 408.724 47.9998 408.306 47.3658C407.894 46.7318 407.687 45.95 407.687 45.0206C407.687 44.2204 407.835 43.5587 408.131 43.0355C408.426 42.5123 408.829 42.0938 409.34 41.7798C409.851 41.4659 410.426 41.2289 411.067 41.0689C411.713 40.9027 412.381 40.7827 413.07 40.7088C413.901 40.6226 414.575 40.5457 415.092 40.478C415.609 40.4041 415.985 40.2933 416.219 40.1456C416.459 39.9917 416.579 39.7547 416.579 39.4347V39.3793C416.579 38.6837 416.372 38.1451 415.96 37.7635C415.548 37.3819 414.954 37.1911 414.178 37.1911C413.359 37.1911 412.71 37.3696 412.23 37.7266C411.756 38.0836 411.436 38.5052 411.27 38.9915L408.149 38.5483C408.395 37.6866 408.801 36.9664 409.368 36.3878C409.934 35.803 410.626 35.366 411.445 35.0767C412.264 34.7812 413.169 34.6335 414.16 34.6335C414.843 34.6335 415.523 34.7135 416.2 34.8736C416.877 35.0336 417.496 35.2983 418.056 35.6676C418.616 36.0308 419.065 36.5263 419.404 37.1541C419.749 37.782 419.921 38.5668 419.921 39.5085V49H416.708V47.0518H416.597C416.394 47.4458 416.108 47.8151 415.738 48.1598C415.375 48.4983 414.917 48.7723 414.363 48.9815C413.815 49.1847 413.172 49.2862 412.433 49.2862ZM413.301 46.8303C413.972 46.8303 414.554 46.6979 415.046 46.4332C415.538 46.1624 415.917 45.8054 416.182 45.3622C416.452 44.919 416.588 44.4358 416.588 43.9126V42.2415C416.483 42.3277 416.305 42.4077 416.052 42.4815C415.806 42.5554 415.529 42.62 415.221 42.6754C414.914 42.7308 414.609 42.7801 414.307 42.8232C414.006 42.8662 413.744 42.9032 413.523 42.9339C413.024 43.0017 412.578 43.1125 412.184 43.2663C411.79 43.4202 411.479 43.6357 411.251 43.9126C411.023 44.1835 410.91 44.5343 410.91 44.9652C410.91 45.5807 411.134 46.0455 411.584 46.3594C412.033 46.6733 412.605 46.8303 413.301 46.8303ZM434.491 38.5668L431.444 38.8991C431.358 38.5914 431.207 38.3021 430.991 38.0312C430.782 37.7604 430.499 37.5419 430.142 37.3757C429.785 37.2095 429.348 37.1264 428.831 37.1264C428.135 37.1264 427.55 37.2772 427.077 37.5788C426.609 37.8804 426.378 38.2713 426.384 38.7514C426.378 39.1638 426.529 39.4993 426.836 39.7578C427.15 40.0163 427.667 40.2287 428.388 40.3949L430.807 40.9119C432.148 41.2012 433.146 41.6598 433.798 42.2876C434.457 42.9155 434.789 43.7372 434.795 44.7528C434.789 45.6454 434.528 46.4332 434.01 47.1165C433.5 47.7936 432.789 48.3229 431.878 48.7045C430.967 49.0862 429.92 49.277 428.738 49.277C427.003 49.277 425.605 48.9138 424.547 48.1875C423.488 47.455 422.857 46.4363 422.654 45.1314L425.913 44.8175C426.061 45.4576 426.375 45.9408 426.855 46.267C427.335 46.5933 427.96 46.7564 428.729 46.7564C429.523 46.7564 430.16 46.5933 430.64 46.267C431.127 45.9408 431.37 45.5376 431.37 45.0575C431.37 44.6513 431.213 44.3158 430.899 44.0511C430.591 43.7865 430.111 43.5833 429.459 43.4418L427.04 42.9339C425.679 42.6508 424.673 42.1738 424.02 41.5028C423.368 40.8258 423.045 39.9702 423.051 38.9361C423.045 38.062 423.282 37.3049 423.762 36.6648C424.248 36.0185 424.922 35.5199 425.784 35.169C426.652 34.812 427.652 34.6335 428.785 34.6335C430.447 34.6335 431.755 34.9875 432.709 35.6953C433.669 36.4032 434.263 37.3603 434.491 38.5668ZM254.293 80H250.637L257.294 61.0909H261.523L268.189 80H264.533L259.482 64.9688H259.335L254.293 80ZM254.413 72.5859H264.385V75.3374H254.413V72.5859ZM281.422 65.8182L276.372 80H272.678L267.628 65.8182H271.192L274.451 76.353H274.599L277.867 65.8182H281.422ZM284.905 80.2031C284.345 80.2031 283.865 80.0062 283.465 79.6122C283.065 79.2183 282.868 78.7382 282.874 78.1719C282.868 77.6179 283.065 77.1439 283.465 76.75C283.865 76.3561 284.345 76.1591 284.905 76.1591C285.447 76.1591 285.918 76.3561 286.318 76.75C286.724 77.1439 286.93 77.6179 286.936 78.1719C286.93 78.5473 286.832 78.889 286.641 79.1967C286.456 79.5045 286.21 79.7507 285.902 79.9354C285.601 80.1139 285.268 80.2031 284.905 80.2031ZM312.586 67.4709H309.132C309.034 66.9046 308.852 66.4029 308.588 65.9659C308.323 65.5227 307.994 65.1473 307.6 64.8395C307.206 64.5317 306.757 64.3009 306.252 64.147C305.753 63.987 305.215 63.907 304.636 63.907C303.608 63.907 302.697 64.1655 301.903 64.6825C301.109 65.1934 300.487 65.9444 300.038 66.9354C299.589 67.9202 299.364 69.1236 299.364 70.5455C299.364 71.992 299.589 73.2107 300.038 74.2017C300.493 75.1866 301.115 75.9313 301.903 76.4361C302.697 76.9347 303.605 77.1839 304.627 77.1839C305.193 77.1839 305.722 77.1101 306.215 76.9624C306.713 76.8085 307.16 76.5838 307.554 76.2884C307.954 75.9929 308.289 75.6297 308.56 75.1989C308.837 74.768 309.028 74.2756 309.132 73.7216L312.586 73.7401C312.456 74.6387 312.176 75.482 311.745 76.2699C311.321 77.0578 310.764 77.7533 310.074 78.3565C309.385 78.9536 308.578 79.4214 307.655 79.7599C306.732 80.0923 305.707 80.2585 304.581 80.2585C302.919 80.2585 301.435 79.8738 300.13 79.1044C298.825 78.335 297.797 77.224 297.047 75.7713C296.296 74.3187 295.92 72.5767 295.92 70.5455C295.92 68.508 296.299 66.7661 297.056 65.3196C297.813 63.867 298.844 62.7559 300.149 61.9865C301.454 61.2171 302.931 60.8324 304.581 60.8324C305.633 60.8324 306.612 60.9801 307.517 61.2756C308.422 61.571 309.228 62.005 309.936 62.5774C310.644 63.1437 311.225 63.8393 311.681 64.6641C312.142 65.4827 312.444 66.4183 312.586 67.4709ZM321.761 80.277C320.376 80.277 319.176 79.9723 318.16 79.3629C317.144 78.7536 316.356 77.901 315.796 76.8054C315.242 75.7098 314.965 74.4295 314.965 72.9645C314.965 71.4995 315.242 70.2161 315.796 69.1143C316.356 68.0125 317.144 67.157 318.16 66.5476C319.176 65.9382 320.376 65.6335 321.761 65.6335C323.146 65.6335 324.346 65.9382 325.362 66.5476C326.377 67.157 327.162 68.0125 327.716 69.1143C328.276 70.2161 328.556 71.4995 328.556 72.9645C328.556 74.4295 328.276 75.7098 327.716 76.8054C327.162 77.901 326.377 78.7536 325.362 79.3629C324.346 79.9723 323.146 80.277 321.761 80.277ZM321.779 77.5994C322.53 77.5994 323.158 77.3932 323.663 76.9808C324.168 76.5623 324.543 76.0021 324.789 75.3004C325.042 74.5987 325.168 73.817 325.168 72.9553C325.168 72.0874 325.042 71.3026 324.789 70.6009C324.543 69.893 324.168 69.3298 323.663 68.9112C323.158 68.4927 322.53 68.2834 321.779 68.2834C321.01 68.2834 320.37 68.4927 319.859 68.9112C319.354 69.3298 318.976 69.893 318.723 70.6009C318.477 71.3026 318.354 72.0874 318.354 72.9553C318.354 73.817 318.477 74.5987 318.723 75.3004C318.976 76.0021 319.354 76.5623 319.859 76.9808C320.37 77.3932 321.01 77.5994 321.779 77.5994ZM334.735 61.0909V80H331.393V61.0909H334.735ZM344.451 80.277C343.029 80.277 341.801 79.9815 340.767 79.3906C339.739 78.7936 338.948 77.9503 338.394 76.8608C337.84 75.7652 337.563 74.4756 337.563 72.9922C337.563 71.5334 337.84 70.2531 338.394 69.1513C338.954 68.0433 339.736 67.1816 340.739 66.5661C341.742 65.9444 342.921 65.6335 344.275 65.6335C345.149 65.6335 345.974 65.7751 346.75 66.0582C347.532 66.3352 348.221 66.7661 348.818 67.3509C349.421 67.9356 349.895 68.6804 350.24 69.5852C350.585 70.4839 350.757 71.5549 350.757 72.7983V73.8232H339.133V71.5703H347.553C347.547 70.9302 347.408 70.3608 347.138 69.8622C346.867 69.3575 346.488 68.9605 346.002 68.6712C345.522 68.3819 344.962 68.2372 344.322 68.2372C343.638 68.2372 343.038 68.4034 342.521 68.7358C342.004 69.062 341.601 69.4929 341.312 70.0284C341.028 70.5578 340.884 71.1394 340.878 71.7734V73.7401C340.878 74.5649 341.028 75.2727 341.33 75.8636C341.632 76.4484 342.053 76.8977 342.595 77.2116C343.137 77.5194 343.771 77.6733 344.497 77.6733C344.983 77.6733 345.423 77.6056 345.817 77.4702C346.211 77.3286 346.553 77.1224 346.842 76.8516C347.131 76.5807 347.35 76.2453 347.498 75.8452L350.618 76.196C350.421 77.0208 350.046 77.741 349.492 78.3565C348.944 78.9659 348.242 79.4399 347.387 79.7784C346.531 80.1108 345.553 80.277 344.451 80.277ZM359.771 80.277C358.355 80.277 357.139 79.9661 356.124 79.3445C355.114 78.7228 354.335 77.8641 353.788 76.7685C353.246 75.6667 352.975 74.3987 352.975 72.9645C352.975 71.5241 353.252 70.2531 353.806 69.1513C354.36 68.0433 355.142 67.1816 356.151 66.5661C357.167 65.9444 358.367 65.6335 359.752 65.6335C360.903 65.6335 361.922 65.8459 362.808 66.2706C363.701 66.6892 364.412 67.2831 364.941 68.0526C365.47 68.8158 365.772 69.7083 365.846 70.7301H362.651C362.522 70.0469 362.214 69.4775 361.728 69.022C361.248 68.5604 360.605 68.3295 359.798 68.3295C359.115 68.3295 358.515 68.5142 357.998 68.8835C357.481 69.2467 357.078 69.7699 356.788 70.4531C356.505 71.1364 356.364 71.955 356.364 72.9091C356.364 73.8755 356.505 74.7064 356.788 75.402C357.071 76.0914 357.469 76.6238 357.979 76.9993C358.496 77.3686 359.103 77.5533 359.798 77.5533C360.291 77.5533 360.731 77.4609 361.119 77.2763C361.513 77.0855 361.842 76.8116 362.107 76.4545C362.371 76.0975 362.553 75.6636 362.651 75.1527H365.846C365.766 76.156 365.47 77.0455 364.96 77.821C364.449 78.5904 363.753 79.1937 362.873 79.6307C361.993 80.0616 360.959 80.277 359.771 80.277ZM375.672 65.8182V68.4034H367.519V65.8182H375.672ZM369.532 62.4205H372.874V75.7344C372.874 76.1837 372.942 76.5284 373.078 76.7685C373.219 77.0024 373.404 77.1624 373.632 77.2486C373.859 77.3348 374.112 77.3778 374.389 77.3778C374.598 77.3778 374.789 77.3625 374.961 77.3317C375.14 77.3009 375.275 77.2732 375.367 77.2486L375.931 79.8615C375.752 79.9231 375.497 79.9908 375.164 80.0646C374.838 80.1385 374.438 80.1816 373.964 80.1939C373.127 80.2185 372.373 80.0923 371.702 79.8153C371.031 79.5322 370.499 79.0952 370.105 78.5043C369.717 77.9134 369.526 77.1747 369.532 76.2884V62.4205ZM384.501 80.277C383.116 80.277 381.916 79.9723 380.9 79.3629C379.885 78.7536 379.097 77.901 378.537 76.8054C377.983 75.7098 377.706 74.4295 377.706 72.9645C377.706 71.4995 377.983 70.2161 378.537 69.1143C379.097 68.0125 379.885 67.157 380.9 66.5476C381.916 65.9382 383.116 65.6335 384.501 65.6335C385.886 65.6335 387.086 65.9382 388.102 66.5476C389.118 67.157 389.902 68.0125 390.456 69.1143C391.016 70.2161 391.297 71.4995 391.297 72.9645C391.297 74.4295 391.016 75.7098 390.456 76.8054C389.902 77.901 389.118 78.7536 388.102 79.3629C387.086 79.9723 385.886 80.277 384.501 80.277ZM384.52 77.5994C385.27 77.5994 385.898 77.3932 386.403 76.9808C386.908 76.5623 387.283 76.0021 387.529 75.3004C387.782 74.5987 387.908 73.817 387.908 72.9553C387.908 72.0874 387.782 71.3026 387.529 70.6009C387.283 69.893 386.908 69.3298 386.403 68.9112C385.898 68.4927 385.27 68.2834 384.52 68.2834C383.75 68.2834 383.11 68.4927 382.599 68.9112C382.094 69.3298 381.716 69.893 381.463 70.6009C381.217 71.3026 381.094 72.0874 381.094 72.9553C381.094 73.817 381.217 74.5987 381.463 75.3004C381.716 76.0021 382.094 76.5623 382.599 76.9808C383.11 77.3932 383.75 77.5994 384.52 77.5994ZM394.133 80V65.8182H397.374V68.1818H397.522C397.78 67.3632 398.224 66.7322 398.851 66.2891C399.485 65.8397 400.209 65.6151 401.021 65.6151C401.206 65.6151 401.412 65.6243 401.64 65.6428C401.874 65.6551 402.068 65.6766 402.221 65.7074V68.782C402.08 68.7327 401.855 68.6896 401.547 68.6527C401.246 68.6096 400.953 68.5881 400.67 68.5881C400.061 68.5881 399.513 68.7204 399.027 68.9851C398.547 69.2436 398.168 69.6037 397.891 70.0653C397.614 70.527 397.476 71.0594 397.476 71.6626V80H394.133ZM408.269 80.2862C407.37 80.2862 406.561 80.1262 405.841 79.8061C405.127 79.4799 404.56 78.9998 404.142 78.3658C403.729 77.7318 403.523 76.95 403.523 76.0206C403.523 75.2204 403.671 74.5587 403.966 74.0355C404.262 73.5123 404.665 73.0938 405.176 72.7798C405.687 72.4659 406.262 72.2289 406.903 72.0689C407.549 71.9027 408.217 71.7827 408.906 71.7088C409.737 71.6226 410.411 71.5457 410.928 71.478C411.445 71.4041 411.821 71.2933 412.055 71.1456C412.295 70.9917 412.415 70.7547 412.415 70.4347V70.3793C412.415 69.6837 412.208 69.1451 411.796 68.7635C411.384 68.3819 410.79 68.1911 410.014 68.1911C409.195 68.1911 408.546 68.3696 408.066 68.7266C407.592 69.0836 407.272 69.5052 407.106 69.9915L403.985 69.5483C404.231 68.6866 404.637 67.9664 405.204 67.3878C405.77 66.803 406.462 66.366 407.281 66.0767C408.1 65.7812 409.005 65.6335 409.996 65.6335C410.679 65.6335 411.359 65.7135 412.036 65.8736C412.713 66.0336 413.332 66.2983 413.892 66.6676C414.452 67.0308 414.901 67.5263 415.24 68.1541C415.585 68.782 415.757 69.5668 415.757 70.5085V80H412.544V78.0518H412.433C412.23 78.4458 411.944 78.8151 411.574 79.1598C411.211 79.4983 410.753 79.7723 410.199 79.9815C409.651 80.1847 409.008 80.2862 408.269 80.2862ZM409.137 77.8303C409.808 77.8303 410.39 77.6979 410.882 77.4332C411.374 77.1624 411.753 76.8054 412.018 76.3622C412.288 75.919 412.424 75.4358 412.424 74.9126V73.2415C412.319 73.3277 412.141 73.4077 411.888 73.4815C411.642 73.5554 411.365 73.62 411.057 73.6754C410.75 73.7308 410.445 73.7801 410.143 73.8232C409.842 73.8662 409.58 73.9032 409.358 73.9339C408.86 74.0017 408.414 74.1125 408.02 74.2663C407.626 74.4202 407.315 74.6357 407.087 74.9126C406.859 75.1835 406.746 75.5343 406.746 75.9652C406.746 76.5807 406.97 77.0455 407.42 77.3594C407.869 77.6733 408.441 77.8303 409.137 77.8303ZM441.254 61.0909V80H438.207L429.297 67.12H429.14V80H425.715V61.0909H428.78L437.681 73.9801H437.847V61.0909H441.254ZM451.025 80.277C449.64 80.277 448.439 79.9723 447.424 79.3629C446.408 78.7536 445.62 77.901 445.06 76.8054C444.506 75.7098 444.229 74.4295 444.229 72.9645C444.229 71.4995 444.506 70.2161 445.06 69.1143C445.62 68.0125 446.408 67.157 447.424 66.5476C448.439 65.9382 449.64 65.6335 451.025 65.6335C452.409 65.6335 453.61 65.9382 454.625 66.5476C455.641 67.157 456.426 68.0125 456.98 69.1143C457.54 70.2161 457.82 71.4995 457.82 72.9645C457.82 74.4295 457.54 75.7098 456.98 76.8054C456.426 77.901 455.641 78.7536 454.625 79.3629C453.61 79.9723 452.409 80.277 451.025 80.277ZM451.043 77.5994C451.794 77.5994 452.422 77.3932 452.926 76.9808C453.431 76.5623 453.807 76.0021 454.053 75.3004C454.305 74.5987 454.431 73.817 454.431 72.9553C454.431 72.0874 454.305 71.3026 454.053 70.6009C453.807 69.893 453.431 69.3298 452.926 68.9112C452.422 68.4927 451.794 68.2834 451.043 68.2834C450.274 68.2834 449.633 68.4927 449.123 68.9112C448.618 69.3298 448.239 69.893 447.987 70.6009C447.741 71.3026 447.618 72.0874 447.618 72.9553C447.618 73.817 447.741 74.5987 447.987 75.3004C448.239 76.0021 448.618 76.5623 449.123 76.9808C449.633 77.3932 450.274 77.5994 451.043 77.5994ZM460.657 80V65.8182H463.898V68.1818H464.045C464.304 67.3632 464.747 66.7322 465.375 66.2891C466.009 65.8397 466.732 65.6151 467.545 65.6151C467.729 65.6151 467.935 65.6243 468.163 65.6428C468.397 65.6551 468.591 65.6766 468.745 65.7074V68.782C468.603 68.7327 468.379 68.6896 468.071 68.6527C467.769 68.6096 467.477 68.5881 467.194 68.5881C466.584 68.5881 466.037 68.7204 465.55 68.9851C465.07 69.2436 464.692 69.6037 464.415 70.0653C464.138 70.527 463.999 71.0594 463.999 71.6626V80H460.657ZM478.809 65.8182V68.4034H470.656V65.8182H478.809ZM472.669 62.4205H476.011V75.7344C476.011 76.1837 476.079 76.5284 476.214 76.7685C476.356 77.0024 476.541 77.1624 476.768 77.2486C476.996 77.3348 477.248 77.3778 477.525 77.3778C477.735 77.3778 477.925 77.3625 478.098 77.3317C478.276 77.3009 478.412 77.2732 478.504 77.2486L479.067 79.8615C478.889 79.9231 478.633 79.9908 478.301 80.0646C477.975 80.1385 477.575 80.1816 477.101 80.1939C476.264 80.2185 475.51 80.0923 474.839 79.8153C474.168 79.5322 473.635 79.0952 473.241 78.5043C472.854 77.9134 472.663 77.1747 472.669 76.2884V62.4205ZM487.73 80.277C486.308 80.277 485.08 79.9815 484.046 79.3906C483.018 78.7936 482.227 77.9503 481.673 76.8608C481.119 75.7652 480.842 74.4756 480.842 72.9922C480.842 71.5334 481.119 70.2531 481.673 69.1513C482.233 68.0433 483.015 67.1816 484.018 66.5661C485.022 65.9444 486.201 65.6335 487.555 65.6335C488.429 65.6335 489.254 65.7751 490.029 66.0582C490.811 66.3352 491.5 66.7661 492.097 67.3509C492.701 67.9356 493.174 68.6804 493.519 69.5852C493.864 70.4839 494.036 71.5549 494.036 72.7983V73.8232H482.412V71.5703H490.832C490.826 70.9302 490.688 70.3608 490.417 69.8622C490.146 69.3575 489.768 68.9605 489.281 68.6712C488.801 68.3819 488.241 68.2372 487.601 68.2372C486.918 68.2372 486.317 68.4034 485.8 68.7358C485.283 69.062 484.88 69.4929 484.591 70.0284C484.308 70.5578 484.163 71.1394 484.157 71.7734V73.7401C484.157 74.5649 484.308 75.2727 484.609 75.8636C484.911 76.4484 485.333 76.8977 485.874 77.2116C486.416 77.5194 487.05 77.6733 487.776 77.6733C488.263 77.6733 488.703 77.6056 489.097 77.4702C489.491 77.3286 489.832 77.1224 490.121 76.8516C490.411 76.5807 490.629 76.2453 490.777 75.8452L493.898 76.196C493.701 77.0208 493.325 77.741 492.771 78.3565C492.223 78.9659 491.522 79.4399 490.666 79.7784C489.811 80.1108 488.832 80.277 487.73 80.277ZM513.737 66.2891C513.651 65.4827 513.288 64.8549 512.648 64.4055C512.014 63.9562 511.189 63.7315 510.173 63.7315C509.459 63.7315 508.847 63.8393 508.336 64.0547C507.825 64.2701 507.434 64.5625 507.163 64.9318C506.892 65.3011 506.754 65.7228 506.748 66.1967C506.748 66.5907 506.837 66.9323 507.015 67.2216C507.2 67.5109 507.449 67.7571 507.763 67.9602C508.077 68.1572 508.425 68.3234 508.807 68.4588C509.188 68.5942 509.573 68.7081 509.961 68.8004L511.733 69.2436C512.448 69.4098 513.134 69.6345 513.792 69.9176C514.457 70.2008 515.051 70.5578 515.574 70.9886C516.104 71.4195 516.522 71.9396 516.83 72.549C517.138 73.1584 517.292 73.8724 517.292 74.6911C517.292 75.799 517.009 76.7746 516.442 77.6179C515.876 78.455 515.057 79.1106 513.986 79.5845C512.921 80.0523 511.632 80.2862 510.118 80.2862C508.647 80.2862 507.369 80.0585 506.286 79.603C505.209 79.1475 504.366 78.4827 503.756 77.6087C503.153 76.7346 502.827 75.6697 502.778 74.4141H506.148C506.197 75.0727 506.4 75.6205 506.757 76.0575C507.114 76.4946 507.579 76.8208 508.151 77.0362C508.73 77.2517 509.376 77.3594 510.09 77.3594C510.835 77.3594 511.487 77.2486 512.047 77.027C512.614 76.7992 513.057 76.4853 513.377 76.0852C513.697 75.679 513.86 75.205 513.866 74.6634C513.86 74.1709 513.715 73.7647 513.432 73.4446C513.149 73.1184 512.752 72.8475 512.241 72.6321C511.737 72.4105 511.146 72.2135 510.469 72.0412L508.317 71.4872C506.76 71.0871 505.529 70.4808 504.624 69.6683C503.725 68.8497 503.276 67.7633 503.276 66.4091C503.276 65.295 503.578 64.3194 504.181 63.4822C504.79 62.6451 505.618 61.9957 506.665 61.5341C507.711 61.0663 508.896 60.8324 510.219 60.8324C511.561 60.8324 512.737 61.0663 513.746 61.5341C514.762 61.9957 515.559 62.639 516.138 63.4638C516.716 64.2824 517.015 65.2242 517.033 66.2891H513.737ZM527.917 60.2045L521.823 82.8438H518.896L524.99 60.2045H527.917ZM545.736 61.0909V80H542.689L533.779 67.12H533.623V80H530.197V61.0909H533.262L542.163 73.9801H542.329V61.0909H545.736ZM553.245 77.4148L553.125 78.4304C553.039 79.206 552.885 79.9938 552.663 80.794C552.448 81.6004 552.22 82.3421 551.98 83.0192C551.74 83.6963 551.546 84.2287 551.398 84.6165H549.145C549.232 84.241 549.349 83.7301 549.496 83.0838C549.65 82.4375 549.798 81.7112 549.939 80.9048C550.081 80.0985 550.176 79.2798 550.226 78.4489L550.29 77.4148H553.245ZM251.68 111V108.526L258.245 102.09C258.873 101.456 259.396 100.893 259.815 100.401C260.233 99.9081 260.547 99.4311 260.756 98.9695C260.966 98.5078 261.07 98.0154 261.07 97.4922C261.07 96.8951 260.935 96.3842 260.664 95.9595C260.393 95.5286 260.021 95.1963 259.547 94.9624C259.073 94.7285 258.534 94.6115 257.931 94.6115C257.309 94.6115 256.765 94.7408 256.297 94.9993C255.829 95.2517 255.466 95.6117 255.207 96.0795C254.955 96.5473 254.829 97.1044 254.829 97.7507H251.57C251.57 96.5504 251.844 95.5071 252.391 94.6207C252.939 93.7344 253.693 93.0481 254.653 92.5618C255.62 92.0755 256.728 91.8324 257.977 91.8324C259.245 91.8324 260.359 92.0694 261.32 92.5433C262.28 93.0173 263.025 93.6667 263.554 94.4915C264.089 95.3163 264.357 96.258 264.357 97.3168C264.357 98.0246 264.222 98.7202 263.951 99.4034C263.68 100.087 263.203 100.844 262.52 101.675C261.843 102.506 260.892 103.512 259.667 104.694L256.408 108.009V108.138H264.643V111H251.68ZM274.754 111.259C273.849 111.252 272.965 111.095 272.104 110.788C271.242 110.474 270.466 109.966 269.777 109.264C269.088 108.556 268.54 107.618 268.134 106.448C267.727 105.272 267.527 103.817 267.533 102.081C267.533 100.462 267.706 99.0187 268.05 97.7507C268.395 96.4827 268.891 95.4117 269.537 94.5376C270.183 93.6574 270.962 92.9865 271.873 92.5249C272.79 92.0632 273.815 91.8324 274.947 91.8324C276.135 91.8324 277.188 92.0663 278.105 92.5341C279.028 93.0019 279.773 93.642 280.339 94.4545C280.906 95.2609 281.257 96.1719 281.392 97.1875H278.022C277.85 96.4612 277.496 95.8826 276.96 95.4517C276.431 95.0147 275.76 94.7962 274.947 94.7962C273.636 94.7962 272.627 95.3655 271.919 96.5043C271.217 97.643 270.863 99.2064 270.857 101.195H270.987C271.288 100.653 271.679 100.188 272.159 99.8004C272.639 99.4126 273.181 99.1141 273.784 98.9048C274.393 98.6894 275.037 98.5817 275.714 98.5817C276.822 98.5817 277.816 98.8464 278.696 99.3757C279.582 99.9051 280.284 100.634 280.801 101.564C281.318 102.487 281.574 103.546 281.567 104.74C281.574 105.983 281.29 107.101 280.718 108.092C280.146 109.076 279.348 109.852 278.327 110.418C277.305 110.985 276.114 111.265 274.754 111.259ZM274.735 108.489C275.406 108.489 276.006 108.326 276.536 107.999C277.065 107.673 277.483 107.233 277.791 106.679C278.099 106.125 278.25 105.503 278.244 104.814C278.25 104.137 278.102 103.524 277.8 102.977C277.505 102.429 277.096 101.995 276.572 101.675C276.049 101.355 275.452 101.195 274.781 101.195C274.283 101.195 273.818 101.29 273.387 101.481C272.956 101.672 272.581 101.936 272.261 102.275C271.941 102.607 271.688 102.995 271.504 103.438C271.325 103.875 271.233 104.343 271.227 104.842C271.233 105.5 271.387 106.107 271.688 106.661C271.99 107.214 272.405 107.658 272.935 107.99C273.464 108.322 274.064 108.489 274.735 108.489ZM296.437 111.249C295.323 111.249 294.326 110.963 293.446 110.391C292.565 109.818 291.87 108.987 291.359 107.898C290.848 106.808 290.593 105.485 290.593 103.928C290.593 102.352 290.851 101.022 291.368 99.9389C291.891 98.8494 292.596 98.0277 293.483 97.4737C294.369 96.9136 295.357 96.6335 296.446 96.6335C297.277 96.6335 297.961 96.7751 298.496 97.0582C299.032 97.3352 299.456 97.6707 299.77 98.0646C300.084 98.4524 300.327 98.8187 300.5 99.1634H300.638V92.0909H303.99V111H300.703V108.766H300.5C300.327 109.11 300.078 109.477 299.752 109.864C299.426 110.246 298.995 110.572 298.459 110.843C297.924 111.114 297.25 111.249 296.437 111.249ZM297.37 108.507C298.078 108.507 298.681 108.316 299.179 107.935C299.678 107.547 300.056 107.008 300.315 106.319C300.574 105.629 300.703 104.826 300.703 103.909C300.703 102.992 300.574 102.195 300.315 101.518C300.063 100.841 299.687 100.314 299.189 99.9389C298.696 99.5634 298.09 99.3757 297.37 99.3757C296.625 99.3757 296.003 99.5696 295.505 99.9574C295.006 100.345 294.631 100.881 294.378 101.564C294.126 102.247 294 103.029 294 103.909C294 104.795 294.126 105.586 294.378 106.282C294.637 106.971 295.015 107.516 295.514 107.916C296.019 108.31 296.637 108.507 297.37 108.507ZM313.83 111.277C312.408 111.277 311.18 110.982 310.146 110.391C309.118 109.794 308.327 108.95 307.773 107.861C307.219 106.765 306.942 105.476 306.942 103.992C306.942 102.533 307.219 101.253 307.773 100.151C308.333 99.0433 309.115 98.1816 310.118 97.5661C311.121 96.9444 312.3 96.6335 313.654 96.6335C314.528 96.6335 315.353 96.7751 316.129 97.0582C316.91 97.3352 317.6 97.7661 318.197 98.3509C318.8 98.9356 319.274 99.6804 319.619 100.585C319.963 101.484 320.136 102.555 320.136 103.798V104.823H308.512V102.57H316.932C316.926 101.93 316.787 101.361 316.517 100.862C316.246 100.357 315.867 99.9605 315.381 99.6712C314.901 99.3819 314.341 99.2372 313.7 99.2372C313.017 99.2372 312.417 99.4034 311.9 99.7358C311.383 100.062 310.98 100.493 310.691 101.028C310.407 101.558 310.263 102.139 310.257 102.773V104.74C310.257 105.565 310.407 106.273 310.709 106.864C311.011 107.448 311.432 107.898 311.974 108.212C312.516 108.519 313.15 108.673 313.876 108.673C314.362 108.673 314.802 108.606 315.196 108.47C315.59 108.329 315.932 108.122 316.221 107.852C316.51 107.581 316.729 107.245 316.877 106.845L319.997 107.196C319.8 108.021 319.425 108.741 318.871 109.357C318.323 109.966 317.621 110.44 316.766 110.778C315.91 111.111 314.932 111.277 313.83 111.277ZM346.457 101.545C346.457 103.583 346.075 105.328 345.312 106.781C344.555 108.227 343.521 109.335 342.21 110.104C340.905 110.874 339.424 111.259 337.768 111.259C336.113 111.259 334.629 110.874 333.318 110.104C332.013 109.329 330.979 108.218 330.216 106.771C329.459 105.319 329.08 103.577 329.08 101.545C329.08 99.508 329.459 97.7661 330.216 96.3196C330.979 94.867 332.013 93.7559 333.318 92.9865C334.629 92.2171 336.113 91.8324 337.768 91.8324C339.424 91.8324 340.905 92.2171 342.21 92.9865C343.521 93.7559 344.555 94.867 345.312 96.3196C346.075 97.7661 346.457 99.508 346.457 101.545ZM343.013 101.545C343.013 100.111 342.788 98.9018 342.339 97.9169C341.896 96.9259 341.28 96.178 340.492 95.6733C339.704 95.1624 338.796 94.907 337.768 94.907C336.741 94.907 335.833 95.1624 335.045 95.6733C334.257 96.178 333.638 96.9259 333.189 97.9169C332.746 98.9018 332.524 100.111 332.524 101.545C332.524 102.98 332.746 104.192 333.189 105.183C333.638 106.168 334.257 106.916 335.045 107.427C335.833 107.932 336.741 108.184 337.768 108.184C338.796 108.184 339.704 107.932 340.492 107.427C341.28 106.916 341.896 106.168 342.339 105.183C342.788 104.192 343.013 102.98 343.013 101.545ZM355.733 111.277C354.318 111.277 353.102 110.966 352.086 110.344C351.077 109.723 350.298 108.864 349.751 107.768C349.209 106.667 348.938 105.399 348.938 103.964C348.938 102.524 349.215 101.253 349.769 100.151C350.323 99.0433 351.105 98.1816 352.114 97.5661C353.13 96.9444 354.33 96.6335 355.715 96.6335C356.866 96.6335 357.885 96.8459 358.771 97.2706C359.664 97.6892 360.375 98.2831 360.904 99.0526C361.433 99.8158 361.735 100.708 361.809 101.73H358.614C358.485 101.047 358.177 100.478 357.691 100.022C357.211 99.5604 356.568 99.3295 355.761 99.3295C355.078 99.3295 354.478 99.5142 353.961 99.8835C353.444 100.247 353.041 100.77 352.751 101.453C352.468 102.136 352.327 102.955 352.327 103.909C352.327 104.875 352.468 105.706 352.751 106.402C353.034 107.091 353.431 107.624 353.942 107.999C354.459 108.369 355.066 108.553 355.761 108.553C356.254 108.553 356.694 108.461 357.081 108.276C357.475 108.085 357.805 107.812 358.069 107.455C358.334 107.098 358.516 106.664 358.614 106.153H361.809C361.729 107.156 361.433 108.045 360.922 108.821C360.412 109.59 359.716 110.194 358.836 110.631C357.956 111.062 356.921 111.277 355.733 111.277ZM371.635 96.8182V99.4034H363.482V96.8182H371.635ZM365.495 93.4205H368.837V106.734C368.837 107.184 368.905 107.528 369.04 107.768C369.182 108.002 369.367 108.162 369.594 108.249C369.822 108.335 370.075 108.378 370.352 108.378C370.561 108.378 370.752 108.362 370.924 108.332C371.103 108.301 371.238 108.273 371.33 108.249L371.893 110.862C371.715 110.923 371.46 110.991 371.127 111.065C370.801 111.138 370.401 111.182 369.927 111.194C369.09 111.219 368.336 111.092 367.665 110.815C366.994 110.532 366.461 110.095 366.067 109.504C365.68 108.913 365.489 108.175 365.495 107.288V93.4205ZM383.469 105.036V96.8182H386.812V111H383.571V108.479H383.423C383.103 109.273 382.577 109.923 381.844 110.428C381.118 110.932 380.222 111.185 379.157 111.185C378.228 111.185 377.406 110.978 376.692 110.566C375.984 110.147 375.43 109.541 375.03 108.747C374.63 107.947 374.43 106.981 374.43 105.848V96.8182H377.773V105.331C377.773 106.23 378.019 106.944 378.511 107.473C379.004 108.002 379.65 108.267 380.45 108.267C380.943 108.267 381.42 108.147 381.881 107.907C382.343 107.667 382.721 107.31 383.017 106.836C383.318 106.356 383.469 105.756 383.469 105.036ZM390.396 111V92.0909H393.739V99.1634H393.877C394.049 98.8187 394.293 98.4524 394.607 98.0646C394.92 97.6707 395.345 97.3352 395.881 97.0582C396.416 96.7751 397.099 96.6335 397.93 96.6335C399.026 96.6335 400.014 96.9136 400.894 97.4737C401.781 98.0277 402.482 98.8494 402.999 99.9389C403.522 101.022 403.784 102.352 403.784 103.928C403.784 105.485 403.529 106.808 403.018 107.898C402.507 108.987 401.811 109.818 400.931 110.391C400.051 110.963 399.054 111.249 397.94 111.249C397.127 111.249 396.453 111.114 395.918 110.843C395.382 110.572 394.951 110.246 394.625 109.864C394.305 109.477 394.056 109.11 393.877 108.766H393.683V111H390.396ZM393.674 103.909C393.674 104.826 393.803 105.629 394.062 106.319C394.326 107.008 394.705 107.547 395.197 107.935C395.696 108.316 396.299 108.507 397.007 108.507C397.746 108.507 398.364 108.31 398.863 107.916C399.362 107.516 399.737 106.971 399.989 106.282C400.248 105.586 400.377 104.795 400.377 103.909C400.377 103.029 400.251 102.247 399.999 101.564C399.746 100.881 399.371 100.345 398.872 99.9574C398.374 99.5696 397.752 99.3757 397.007 99.3757C396.293 99.3757 395.687 99.5634 395.188 99.9389C394.69 100.314 394.311 100.841 394.053 101.518C393.8 102.195 393.674 102.992 393.674 103.909ZM406.626 111V96.8182H409.866V99.1818H410.014C410.273 98.3632 410.716 97.7322 411.344 97.2891C411.978 96.8397 412.701 96.6151 413.513 96.6151C413.698 96.6151 413.904 96.6243 414.132 96.6428C414.366 96.6551 414.56 96.6766 414.714 96.7074V99.782C414.572 99.7327 414.347 99.6896 414.04 99.6527C413.738 99.6096 413.446 99.5881 413.162 99.5881C412.553 99.5881 412.005 99.7204 411.519 99.9851C411.039 100.244 410.66 100.604 410.383 101.065C410.106 101.527 409.968 102.059 409.968 102.663V111H406.626ZM422.629 111.277C421.207 111.277 419.979 110.982 418.945 110.391C417.917 109.794 417.126 108.95 416.572 107.861C416.018 106.765 415.741 105.476 415.741 103.992C415.741 102.533 416.018 101.253 416.572 100.151C417.132 99.0433 417.914 98.1816 418.917 97.5661C419.92 96.9444 421.099 96.6335 422.453 96.6335C423.327 96.6335 424.152 96.7751 424.928 97.0582C425.709 97.3352 426.399 97.7661 426.996 98.3509C427.599 98.9356 428.073 99.6804 428.418 100.585C428.762 101.484 428.935 102.555 428.935 103.798V104.823H417.31V102.57H425.731C425.725 101.93 425.586 101.361 425.315 100.862C425.045 100.357 424.666 99.9605 424.18 99.6712C423.7 99.3819 423.139 99.2372 422.499 99.2372C421.816 99.2372 421.216 99.4034 420.699 99.7358C420.182 100.062 419.779 100.493 419.489 101.028C419.206 101.558 419.062 102.139 419.055 102.773V104.74C419.055 105.565 419.206 106.273 419.508 106.864C419.809 107.448 420.231 107.898 420.773 108.212C421.314 108.519 421.948 108.673 422.675 108.673C423.161 108.673 423.601 108.606 423.995 108.47C424.389 108.329 424.731 108.122 425.02 107.852C425.309 107.581 425.528 107.245 425.675 106.845L428.796 107.196C428.599 108.021 428.224 108.741 427.67 109.357C427.122 109.966 426.42 110.44 425.565 110.778C424.709 111.111 423.73 111.277 422.629 111.277Z" fill="white"/>
</svg>
