<svg width="512" height="151" viewBox="0 0 572 169" fill="none" xmlns="http://www.w3.org/2000/svg">
<rect x="216" width="356" height="101" rx="18" fill="#006DB7"/>
<path d="M160 122L271.5 86.026L239.5 62L160 122Z" fill="#006DB7"/>
<rect x="229.048" y="25.0476" width="41.9048" height="41.9048" rx="20.9524" fill="#0699BA"/>
<rect x="229.048" y="25.0476" width="41.9048" height="41.9048" rx="20.9524" stroke="white" stroke-width="2.09524"/>
<g clip-path="url(#clip0_176_146050)">
<path d="M239.971 57.8938C239.536 57.8938 239.236 57.7215 239.081 57.3831C238.96 57.1199 238.972 56.8285 239.114 56.5842C239.258 56.3366 239.521 56.1737 239.82 56.1476C239.841 56.1455 239.861 56.1445 239.883 56.1434V47.0962C239.335 47.0659 239.007 46.7202 239.002 46.1605C238.997 45.5516 238.997 44.9856 239.003 44.432C239.008 43.8597 239.353 43.513 239.926 43.5047C240.139 43.5015 240.352 43.4994 240.565 43.4994C240.692 43.4994 240.82 43.5005 240.947 43.5015C241.673 39.9204 243.805 37.5038 247.293 36.308C247.454 36.2527 247.616 36.2088 247.776 36.1691C247.839 35.5216 248.112 34.9973 248.591 34.6068C248.998 34.2736 249.475 34.1055 250.008 34.1055C250.044 34.1055 250.08 34.1065 250.118 34.1076C251.24 34.1556 251.985 34.8981 252.198 36.1618C252.202 36.1628 252.205 36.1639 252.209 36.1649C252.473 36.236 252.744 36.308 253.015 36.4114C256.332 37.6667 258.362 40.052 259.05 43.5026C259.162 43.5005 259.281 43.5005 259.407 43.5005C259.62 43.5005 259.833 43.5026 260.045 43.5047C260.645 43.512 260.991 43.8587 260.997 44.4561C261.001 44.9897 261.001 45.5391 260.997 46.1354C260.992 46.7181 260.683 47.0565 260.125 47.0941V56.1455C260.453 56.1737 260.651 56.3084 260.761 56.4223C260.917 56.5842 260.997 56.7972 260.991 57.0384C260.983 57.4322 260.724 57.8927 260.022 57.8927C259.351 57.8938 258.679 57.8938 258.008 57.8938H241.536C241.016 57.8938 240.496 57.8938 239.977 57.8959H239.971V57.8938ZM256.524 56.1267V47.1087H254.875V56.1267H256.524ZM251.274 56.1257V47.1098H248.722V56.1257H251.274ZM245.13 56.1257V47.1108H243.473V56.1257H245.13ZM246.932 56.1194V47.1139H246.918V56.1194H246.932ZM253.083 56.1121V47.115H253.067V56.1121H253.083ZM241.683 56.1121V47.115H241.667V56.1121H241.683ZM258.333 56.1121V47.116H258.317V56.1121H258.333ZM257.263 43.4932C256.914 41.7188 255.68 39.6332 253.503 38.5398C252.299 37.9351 251.098 37.6281 249.934 37.6281C248.463 37.6281 247.015 38.1168 245.629 39.0818C244.125 40.1283 243.153 41.6102 242.731 43.4932H257.263ZM250.206 35.9091C250.135 35.8704 250.067 35.8516 250.001 35.8516C249.935 35.8516 249.865 35.8715 249.792 35.9091H250.206Z" fill="white"/>
</g>
<path d="M289.865 25.0909H294.057L299.67 38.7926H299.892L305.506 25.0909H309.697V44H306.411V31.0092H306.235L301.009 43.9446H298.553L293.327 30.9815H293.152V44H289.865V25.0909ZM322.319 38.0355V29.8182H325.661V44H322.42V41.4794H322.273C321.953 42.2734 321.426 42.9228 320.694 43.4276C319.968 43.9323 319.072 44.1847 318.007 44.1847C317.078 44.1847 316.256 43.9785 315.542 43.5661C314.834 43.1475 314.28 42.5412 313.88 41.7472C313.48 40.947 313.28 39.9806 313.28 38.848V29.8182H316.622V38.331C316.622 39.2296 316.868 39.9437 317.361 40.473C317.853 41.0024 318.5 41.267 319.3 41.267C319.792 41.267 320.269 41.147 320.731 40.907C321.192 40.6669 321.571 40.3099 321.866 39.8359C322.168 39.3558 322.319 38.7557 322.319 38.0355ZM332.441 35.6903V44H329.098V29.8182H332.293V32.228H332.459C332.785 31.4339 333.305 30.803 334.019 30.3352C334.74 29.8674 335.629 29.6335 336.688 29.6335C337.666 29.6335 338.519 29.8428 339.245 30.2614C339.978 30.6799 340.544 31.2862 340.944 32.0803C341.35 32.8743 341.55 33.8376 341.544 34.9702V44H338.202V35.4872C338.202 34.5393 337.956 33.7976 337.463 33.2621C336.977 32.7266 336.303 32.4588 335.441 32.4588C334.856 32.4588 334.336 32.5881 333.881 32.8466C333.432 33.099 333.078 33.4652 332.819 33.9453C332.567 34.4254 332.441 35.0071 332.441 35.6903ZM344.942 44V29.8182H348.284V44H344.942ZM346.622 27.8054C346.093 27.8054 345.637 27.63 345.256 27.2791C344.874 26.9221 344.683 26.4943 344.683 25.9957C344.683 25.491 344.874 25.0632 345.256 24.7124C345.637 24.3553 346.093 24.1768 346.622 24.1768C347.158 24.1768 347.613 24.3553 347.989 24.7124C348.37 25.0632 348.561 25.491 348.561 25.9957C348.561 26.4943 348.37 26.9221 347.989 27.2791C347.613 27.63 347.158 27.8054 346.622 27.8054ZM357.907 44.277C356.492 44.277 355.276 43.9661 354.26 43.3445C353.251 42.7228 352.472 41.8641 351.924 40.7685C351.383 39.6667 351.112 38.3987 351.112 36.9645C351.112 35.5241 351.389 34.2531 351.943 33.1513C352.497 32.0433 353.279 31.1816 354.288 30.5661C355.304 29.9444 356.504 29.6335 357.889 29.6335C359.04 29.6335 360.059 29.8459 360.945 30.2706C361.837 30.6892 362.548 31.2831 363.078 32.0526C363.607 32.8158 363.909 33.7083 363.983 34.7301H360.788C360.659 34.0469 360.351 33.4775 359.865 33.022C359.385 32.5604 358.741 32.3295 357.935 32.3295C357.252 32.3295 356.652 32.5142 356.135 32.8835C355.618 33.2467 355.214 33.7699 354.925 34.4531C354.642 35.1364 354.5 35.955 354.5 36.9091C354.5 37.8755 354.642 38.7064 354.925 39.402C355.208 40.0914 355.605 40.6238 356.116 40.9993C356.633 41.3686 357.239 41.5533 357.935 41.5533C358.427 41.5533 358.868 41.4609 359.255 41.2763C359.649 41.0855 359.979 40.8116 360.243 40.4545C360.508 40.0975 360.69 39.6636 360.788 39.1527H363.983C363.903 40.156 363.607 41.0455 363.096 41.821C362.585 42.5904 361.89 43.1937 361.01 43.6307C360.129 44.0616 359.095 44.277 357.907 44.277ZM366.727 44V29.8182H370.069V44H366.727ZM368.407 27.8054C367.878 27.8054 367.423 27.63 367.041 27.2791C366.659 26.9221 366.469 26.4943 366.469 25.9957C366.469 25.491 366.659 25.0632 367.041 24.7124C367.423 24.3553 367.878 24.1768 368.407 24.1768C368.943 24.1768 369.398 24.3553 369.774 24.7124C370.156 25.0632 370.346 25.491 370.346 25.9957C370.346 26.4943 370.156 26.9221 369.774 27.2791C369.398 27.63 368.943 27.8054 368.407 27.8054ZM373.506 49.3182V29.8182H376.793V32.1634H376.987C377.16 31.8187 377.403 31.4524 377.717 31.0646C378.031 30.6707 378.455 30.3352 378.991 30.0582C379.526 29.7751 380.21 29.6335 381.04 29.6335C382.136 29.6335 383.124 29.9136 384.004 30.4737C384.891 31.0277 385.592 31.8494 386.109 32.9389C386.633 34.0223 386.894 35.3518 386.894 36.9276C386.894 38.4848 386.639 39.8082 386.128 40.8977C385.617 41.9872 384.921 42.8182 384.041 43.3906C383.161 43.9631 382.164 44.2493 381.05 44.2493C380.237 44.2493 379.563 44.1139 379.028 43.843C378.492 43.5722 378.061 43.246 377.735 42.8643C377.415 42.4766 377.166 42.1103 376.987 41.7656H376.849V49.3182H373.506ZM376.784 36.9091C376.784 37.8262 376.913 38.6295 377.172 39.3189C377.437 40.0083 377.815 40.5469 378.308 40.9347C378.806 41.3163 379.409 41.5071 380.117 41.5071C380.856 41.5071 381.474 41.3101 381.973 40.9162C382.472 40.5161 382.847 39.9714 383.099 39.282C383.358 38.5864 383.487 37.7955 383.487 36.9091C383.487 36.0289 383.361 35.2472 383.109 34.5639C382.856 33.8807 382.481 33.3452 381.982 32.9574C381.484 32.5696 380.862 32.3757 380.117 32.3757C379.403 32.3757 378.797 32.5634 378.298 32.9389C377.8 33.3144 377.421 33.8407 377.163 34.5178C376.91 35.1948 376.784 35.992 376.784 36.9091ZM393.837 44.2862C392.939 44.2862 392.129 44.1262 391.409 43.8061C390.695 43.4799 390.129 42.9998 389.71 42.3658C389.298 41.7318 389.092 40.95 389.092 40.0206C389.092 39.2204 389.239 38.5587 389.535 38.0355C389.83 37.5123 390.233 37.0938 390.744 36.7798C391.255 36.4659 391.831 36.2289 392.471 36.0689C393.117 35.9027 393.785 35.7827 394.474 35.7088C395.305 35.6226 395.979 35.5457 396.496 35.478C397.013 35.4041 397.389 35.2933 397.623 35.1456C397.863 34.9917 397.983 34.7547 397.983 34.4347V34.3793C397.983 33.6837 397.777 33.1451 397.364 32.7635C396.952 32.3819 396.358 32.1911 395.582 32.1911C394.764 32.1911 394.114 32.3696 393.634 32.7266C393.16 33.0836 392.84 33.5052 392.674 33.9915L389.553 33.5483C389.799 32.6866 390.206 31.9664 390.772 31.3878C391.338 30.803 392.031 30.366 392.849 30.0767C393.668 29.7812 394.573 29.6335 395.564 29.6335C396.247 29.6335 396.927 29.7135 397.604 29.8736C398.281 30.0336 398.9 30.2983 399.46 30.6676C400.02 31.0308 400.47 31.5263 400.808 32.1541C401.153 32.782 401.325 33.5668 401.325 34.5085V44H398.112V42.0518H398.001C397.798 42.4458 397.512 42.8151 397.143 43.1598C396.78 43.4983 396.321 43.7723 395.767 43.9815C395.219 44.1847 394.576 44.2862 393.837 44.2862ZM394.705 41.8303C395.376 41.8303 395.958 41.6979 396.45 41.4332C396.943 41.1624 397.321 40.8054 397.586 40.3622C397.857 39.919 397.992 39.4358 397.992 38.9126V37.2415C397.888 37.3277 397.709 37.4077 397.457 37.4815C397.21 37.5554 396.933 37.62 396.626 37.6754C396.318 37.7308 396.013 37.7801 395.712 37.8232C395.41 37.8662 395.148 37.9032 394.927 37.9339C394.428 38.0017 393.982 38.1125 393.588 38.2663C393.194 38.4202 392.883 38.6357 392.656 38.9126C392.428 39.1835 392.314 39.5343 392.314 39.9652C392.314 40.5807 392.539 41.0455 392.988 41.3594C393.437 41.6733 394.01 41.8303 394.705 41.8303ZM408.028 25.0909V44H404.686V25.0909H408.028ZM411.465 44V29.8182H414.808V44H411.465ZM413.146 27.8054C412.616 27.8054 412.161 27.63 411.779 27.2791C411.398 26.9221 411.207 26.4943 411.207 25.9957C411.207 25.491 411.398 25.0632 411.779 24.7124C412.161 24.3553 412.616 24.1768 413.146 24.1768C413.681 24.1768 414.137 24.3553 414.512 24.7124C414.894 25.0632 415.085 25.491 415.085 25.9957C415.085 26.4943 414.894 26.9221 414.512 27.2791C414.137 27.63 413.681 27.8054 413.146 27.8054ZM423.507 44.2493C422.393 44.2493 421.396 43.9631 420.516 43.3906C419.636 42.8182 418.94 41.9872 418.429 40.8977C417.918 39.8082 417.663 38.4848 417.663 36.9276C417.663 35.3518 417.922 34.0223 418.439 32.9389C418.962 31.8494 419.667 31.0277 420.553 30.4737C421.439 29.9136 422.427 29.6335 423.517 29.6335C424.348 29.6335 425.031 29.7751 425.566 30.0582C426.102 30.3352 426.527 30.6707 426.841 31.0646C427.154 31.4524 427.398 31.8187 427.57 32.1634H427.708V25.0909H431.06V44H427.773V41.7656H427.57C427.398 42.1103 427.148 42.4766 426.822 42.8643C426.496 43.246 426.065 43.5722 425.529 43.843C424.994 44.1139 424.32 44.2493 423.507 44.2493ZM424.44 41.5071C425.148 41.5071 425.751 41.3163 426.25 40.9347C426.748 40.5469 427.127 40.0083 427.385 39.3189C427.644 38.6295 427.773 37.8262 427.773 36.9091C427.773 35.992 427.644 35.1948 427.385 34.5178C427.133 33.8407 426.757 33.3144 426.259 32.9389C425.766 32.5634 425.16 32.3757 424.44 32.3757C423.695 32.3757 423.074 32.5696 422.575 32.9574C422.076 33.3452 421.701 33.8807 421.449 34.5639C421.196 35.2472 421.07 36.0289 421.07 36.9091C421.07 37.7955 421.196 38.5864 421.449 39.282C421.707 39.9714 422.086 40.5161 422.584 40.9162C423.089 41.3101 423.708 41.5071 424.44 41.5071ZM438.703 44.2862C437.804 44.2862 436.994 44.1262 436.274 43.8061C435.56 43.4799 434.994 42.9998 434.575 42.3658C434.163 41.7318 433.957 40.95 433.957 40.0206C433.957 39.2204 434.105 38.5587 434.4 38.0355C434.695 37.5123 435.099 37.0938 435.61 36.7798C436.12 36.4659 436.696 36.2289 437.336 36.0689C437.982 35.9027 438.65 35.7827 439.34 35.7088C440.171 35.6226 440.845 35.5457 441.362 35.478C441.879 35.4041 442.254 35.2933 442.488 35.1456C442.728 34.9917 442.848 34.7547 442.848 34.4347V34.3793C442.848 33.6837 442.642 33.1451 442.23 32.7635C441.817 32.3819 441.223 32.1911 440.448 32.1911C439.629 32.1911 438.98 32.3696 438.499 32.7266C438.026 33.0836 437.705 33.5052 437.539 33.9915L434.419 33.5483C434.665 32.6866 435.071 31.9664 435.637 31.3878C436.204 30.803 436.896 30.366 437.715 30.0767C438.533 29.7812 439.438 29.6335 440.429 29.6335C441.112 29.6335 441.793 29.7135 442.47 29.8736C443.147 30.0336 443.765 30.2983 444.325 30.6676C444.886 31.0308 445.335 31.5263 445.673 32.1541C446.018 32.782 446.191 33.5668 446.191 34.5085V44H442.977V42.0518H442.867C442.664 42.4458 442.377 42.8151 442.008 43.1598C441.645 43.4983 441.186 43.7723 440.632 43.9815C440.084 44.1847 439.441 44.2862 438.703 44.2862ZM439.57 41.8303C440.241 41.8303 440.823 41.6979 441.316 41.4332C441.808 41.1624 442.186 40.8054 442.451 40.3622C442.722 39.919 442.857 39.4358 442.857 38.9126V37.2415C442.753 37.3277 442.574 37.4077 442.322 37.4815C442.076 37.5554 441.799 37.62 441.491 37.6754C441.183 37.7308 440.878 37.7801 440.577 37.8232C440.275 37.8662 440.014 37.9032 439.792 37.9339C439.294 38.0017 438.847 38.1125 438.453 38.2663C438.059 38.4202 437.749 38.6357 437.521 38.9126C437.293 39.1835 437.179 39.5343 437.179 39.9652C437.179 40.5807 437.404 41.0455 437.853 41.3594C438.302 41.6733 438.875 41.8303 439.57 41.8303ZM454.814 44.2493C453.7 44.2493 452.703 43.9631 451.823 43.3906C450.942 42.8182 450.247 41.9872 449.736 40.8977C449.225 39.8082 448.97 38.4848 448.97 36.9276C448.97 35.3518 449.228 34.0223 449.745 32.9389C450.268 31.8494 450.973 31.0277 451.86 30.4737C452.746 29.9136 453.734 29.6335 454.823 29.6335C455.654 29.6335 456.338 29.7751 456.873 30.0582C457.409 30.3352 457.833 30.6707 458.147 31.0646C458.461 31.4524 458.704 31.8187 458.877 32.1634H459.015V25.0909H462.367V44H459.08V41.7656H458.877C458.704 42.1103 458.455 42.4766 458.129 42.8643C457.802 43.246 457.372 43.5722 456.836 43.843C456.301 44.1139 455.627 44.2493 454.814 44.2493ZM455.747 41.5071C456.454 41.5071 457.058 41.3163 457.556 40.9347C458.055 40.5469 458.433 40.0083 458.692 39.3189C458.95 38.6295 459.08 37.8262 459.08 36.9091C459.08 35.992 458.95 35.1948 458.692 34.5178C458.44 33.8407 458.064 33.3144 457.566 32.9389C457.073 32.5634 456.467 32.3757 455.747 32.3757C455.002 32.3757 454.38 32.5696 453.882 32.9574C453.383 33.3452 453.008 33.8807 452.755 34.5639C452.503 35.2472 452.377 36.0289 452.377 36.9091C452.377 37.7955 452.503 38.5864 452.755 39.282C453.014 39.9714 453.392 40.5161 453.891 40.9162C454.396 41.3101 455.014 41.5071 455.747 41.5071ZM479.985 25.0909H483.383V38.3864C483.377 39.6051 483.118 40.6546 482.608 41.5348C482.097 42.4089 481.383 43.0829 480.466 43.5568C479.555 44.0246 478.493 44.2585 477.28 44.2585C476.172 44.2585 475.175 44.0616 474.289 43.6676C473.408 43.2675 472.71 42.6766 472.193 41.8949C471.676 41.1132 471.417 40.1406 471.417 38.9773H474.824C474.83 39.4882 474.941 39.9283 475.157 40.2976C475.378 40.6669 475.683 40.95 476.071 41.147C476.458 41.344 476.905 41.4425 477.409 41.4425C477.957 41.4425 478.422 41.3286 478.804 41.1009C479.185 40.867 479.475 40.5223 479.672 40.0668C479.875 39.6113 479.979 39.0511 479.985 38.3864V25.0909ZM493.138 44.277C491.753 44.277 490.553 43.9723 489.537 43.3629C488.521 42.7536 487.733 41.901 487.173 40.8054C486.619 39.7098 486.342 38.4295 486.342 36.9645C486.342 35.4995 486.619 34.2161 487.173 33.1143C487.733 32.0125 488.521 31.157 489.537 30.5476C490.553 29.9382 491.753 29.6335 493.138 29.6335C494.523 29.6335 495.723 29.9382 496.739 30.5476C497.754 31.157 498.539 32.0125 499.093 33.1143C499.653 34.2161 499.933 35.4995 499.933 36.9645C499.933 38.4295 499.653 39.7098 499.093 40.8054C498.539 41.901 497.754 42.7536 496.739 43.3629C495.723 43.9723 494.523 44.277 493.138 44.277ZM493.156 41.5994C493.907 41.5994 494.535 41.3932 495.04 40.9808C495.545 40.5623 495.92 40.0021 496.166 39.3004C496.419 38.5987 496.545 37.817 496.545 36.9553C496.545 36.0874 496.419 35.3026 496.166 34.6009C495.92 33.893 495.545 33.3298 495.04 32.9112C494.535 32.4927 493.907 32.2834 493.156 32.2834C492.387 32.2834 491.747 32.4927 491.236 32.9112C490.731 33.3298 490.353 33.893 490.1 34.6009C489.854 35.3026 489.731 36.0874 489.731 36.9553C489.731 37.817 489.854 38.5987 490.1 39.3004C490.353 40.0021 490.731 40.5623 491.236 40.9808C491.747 41.3932 492.387 41.5994 493.156 41.5994ZM513.979 33.5668L510.932 33.8991C510.846 33.5914 510.695 33.3021 510.48 33.0312C510.27 32.7604 509.987 32.5419 509.63 32.3757C509.273 32.2095 508.836 32.1264 508.319 32.1264C507.624 32.1264 507.039 32.2772 506.565 32.5788C506.097 32.8804 505.866 33.2713 505.872 33.7514C505.866 34.1638 506.017 34.4993 506.325 34.7578C506.639 35.0163 507.156 35.2287 507.876 35.3949L510.295 35.9119C511.637 36.2012 512.634 36.6598 513.286 37.2876C513.945 37.9155 514.277 38.7372 514.284 39.7528C514.277 40.6454 514.016 41.4332 513.499 42.1165C512.988 42.7936 512.277 43.3229 511.366 43.7045C510.455 44.0862 509.409 44.277 508.227 44.277C506.491 44.277 505.094 43.9138 504.035 43.1875C502.976 42.455 502.345 41.4363 502.142 40.1314L505.401 39.8175C505.549 40.4576 505.863 40.9408 506.343 41.267C506.823 41.5933 507.448 41.7564 508.218 41.7564C509.012 41.7564 509.649 41.5933 510.129 41.267C510.615 40.9408 510.858 40.5376 510.858 40.0575C510.858 39.6513 510.701 39.3158 510.387 39.0511C510.079 38.7865 509.599 38.5833 508.947 38.4418L506.528 37.9339C505.168 37.6508 504.161 37.1738 503.509 36.5028C502.856 35.8258 502.533 34.9702 502.539 33.9361C502.533 33.062 502.77 32.3049 503.25 31.6648C503.736 31.0185 504.41 30.5199 505.272 30.169C506.14 29.812 507.14 29.6335 508.273 29.6335C509.935 29.6335 511.243 29.9875 512.197 30.6953C513.157 31.4032 513.751 32.3603 513.979 33.5668ZM523.318 44.277C521.896 44.277 520.668 43.9815 519.634 43.3906C518.606 42.7936 517.815 41.9503 517.261 40.8608C516.707 39.7652 516.43 38.4756 516.43 36.9922C516.43 35.5334 516.707 34.2531 517.261 33.1513C517.821 32.0433 518.603 31.1816 519.606 30.5661C520.61 29.9444 521.788 29.6335 523.143 29.6335C524.017 29.6335 524.841 29.7751 525.617 30.0582C526.399 30.3352 527.088 30.7661 527.685 31.3509C528.288 31.9356 528.762 32.6804 529.107 33.5852C529.452 34.4839 529.624 35.5549 529.624 36.7983V37.8232H518V35.5703H526.42C526.414 34.9302 526.276 34.3608 526.005 33.8622C525.734 33.3575 525.355 32.9605 524.869 32.6712C524.389 32.3819 523.829 32.2372 523.189 32.2372C522.506 32.2372 521.905 32.4034 521.388 32.7358C520.871 33.062 520.468 33.4929 520.179 34.0284C519.896 34.5578 519.751 35.1394 519.745 35.7734V37.7401C519.745 38.5649 519.896 39.2727 520.197 39.8636C520.499 40.4484 520.921 40.8977 521.462 41.2116C522.004 41.5194 522.638 41.6733 523.364 41.6733C523.85 41.6733 524.291 41.6056 524.684 41.4702C525.078 41.3286 525.42 41.1224 525.709 40.8516C525.999 40.5807 526.217 40.2453 526.365 39.8452L529.486 40.196C529.289 41.0208 528.913 41.741 528.359 42.3565C527.811 42.9659 527.11 43.4399 526.254 43.7784C525.398 44.1108 524.42 44.277 523.318 44.277ZM521.767 27.9531L523.835 23.7337H527.104L524.269 27.9531H521.767ZM289.865 75V56.0909H293.29V72.1286H301.619V75H289.865ZM306.503 75.2031C305.943 75.2031 305.463 75.0062 305.062 74.6122C304.662 74.2183 304.465 73.7382 304.472 73.1719C304.465 72.6179 304.662 72.1439 305.062 71.75C305.463 71.3561 305.943 71.1591 306.503 71.1591C307.045 71.1591 307.515 71.3561 307.915 71.75C308.322 72.1439 308.528 72.6179 308.534 73.1719C308.528 73.5473 308.429 73.889 308.239 74.1967C308.054 74.5045 307.808 74.7507 307.5 74.9354C307.198 75.1139 306.866 75.2031 306.503 75.2031ZM329.029 65.5455C329.029 67.5829 328.647 69.3279 327.884 70.7805C327.127 72.227 326.093 73.335 324.782 74.1044C323.477 74.8738 321.997 75.2585 320.341 75.2585C318.685 75.2585 317.202 74.8738 315.89 74.1044C314.586 73.3288 313.551 72.2178 312.788 70.7713C312.031 69.3187 311.653 67.5767 311.653 65.5455C311.653 63.508 312.031 61.7661 312.788 60.3196C313.551 58.867 314.586 57.7559 315.89 56.9865C317.202 56.2171 318.685 55.8324 320.341 55.8324C321.997 55.8324 323.477 56.2171 324.782 56.9865C326.093 57.7559 327.127 58.867 327.884 60.3196C328.647 61.7661 329.029 63.508 329.029 65.5455ZM325.585 65.5455C325.585 64.1113 325.36 62.9018 324.911 61.9169C324.468 60.9259 323.852 60.178 323.064 59.6733C322.277 59.1624 321.369 58.907 320.341 58.907C319.313 58.907 318.405 59.1624 317.617 59.6733C316.829 60.178 316.211 60.9259 315.761 61.9169C315.318 62.9018 315.096 64.1113 315.096 65.5455C315.096 66.9796 315.318 68.1922 315.761 69.1832C316.211 70.1681 316.829 70.916 317.617 71.4268C318.405 71.9316 319.313 72.1839 320.341 72.1839C321.369 72.1839 322.277 71.9316 323.064 71.4268C323.852 70.916 324.468 70.1681 324.911 69.1832C325.36 68.1922 325.585 66.9796 325.585 65.5455ZM332.12 75V60.8182H335.36V63.1818H335.508C335.767 62.3632 336.21 61.7322 336.838 61.2891C337.472 60.8397 338.195 60.6151 339.007 60.6151C339.192 60.6151 339.398 60.6243 339.626 60.6428C339.86 60.6551 340.054 60.6766 340.208 60.7074V63.782C340.066 63.7327 339.842 63.6896 339.534 63.6527C339.232 63.6096 338.94 63.5881 338.657 63.5881C338.047 63.5881 337.499 63.7204 337.013 63.9851C336.533 64.2436 336.154 64.6037 335.877 65.0653C335.6 65.527 335.462 66.0594 335.462 66.6626V75H332.12ZM350.272 60.8182V63.4034H342.119V60.8182H350.272ZM344.132 57.4205H347.474V70.7344C347.474 71.1837 347.542 71.5284 347.677 71.7685C347.819 72.0024 348.003 72.1624 348.231 72.2486C348.459 72.3348 348.711 72.3778 348.988 72.3778C349.198 72.3778 349.388 72.3625 349.561 72.3317C349.739 72.3009 349.875 72.2732 349.967 72.2486L350.53 74.8615C350.352 74.9231 350.096 74.9908 349.764 75.0646C349.438 75.1385 349.038 75.1816 348.564 75.1939C347.726 75.2185 346.972 75.0923 346.301 74.8153C345.631 74.5322 345.098 74.0952 344.704 73.5043C344.316 72.9134 344.126 72.1747 344.132 71.2884V57.4205ZM353.067 75V60.8182H356.409V75H353.067ZM354.747 58.8054C354.218 58.8054 353.762 58.63 353.381 58.2791C352.999 57.9221 352.808 57.4943 352.808 56.9957C352.808 56.491 352.999 56.0632 353.381 55.7124C353.762 55.3553 354.218 55.1768 354.747 55.1768C355.283 55.1768 355.738 55.3553 356.114 55.7124C356.495 56.0632 356.686 56.491 356.686 56.9957C356.686 57.4943 356.495 57.9221 356.114 58.2791C355.738 58.63 355.283 58.8054 354.747 58.8054ZM359.662 75V72.8764L366.974 63.7081V63.5881H359.902V60.8182H371.064V63.0987L364.103 72.1101V72.2301H371.304V75H359.662Z" fill="white"/>
<g clip-path="url(#clip1_176_146050)">
<path opacity="0.05" d="M34.1373 162.379L0 152.1L22.537 141.053L34.1373 162.379Z" fill="black"/>
<path d="M38.3594 164.48L113.063 127.304V121.674L38.3594 158.849V164.48Z" fill="#CBC1C0"/>
<path d="M38.3685 158.853L113.069 121.683L88.4724 109.457L13.7715 146.627L38.3685 158.853Z" fill="#F2EAE8"/>
<path d="M13.7617 152.251L38.3587 164.48V158.85L13.7617 146.621V152.251Z" fill="#ABA2A1"/>
<path d="M66.2969 163.56L116.206 138.773V133.143L66.2969 157.93V163.56Z" fill="#E0DCD1"/>
<path d="M66.3032 157.934L116.212 133.149L102.918 126.643L53.1504 151.427L66.3032 157.934Z" fill="#F2EAE8"/>
<path d="M53.1445 157.052L66.2974 163.561V157.931L53.1445 151.422V157.052Z" fill="#ABA2A1"/>
<path d="M114.66 133.889V139.1L125.399 144.538V139.327L114.66 133.889Z" fill="#ABA2A1"/>
<path d="M126.999 138.526L125.399 139.328L114.66 133.901L116.18 133.145L126.999 138.526Z" fill="#F2EAE8"/>
<path d="M126.999 143.758L125.398 144.538V139.327L126.999 138.525V143.758Z" fill="#CBC1C0"/>
<path d="M120.521 138.438L73.4199 161.778V160.175L120.521 136.838V138.438Z" fill="#CBC1C0"/>
<path d="M122.657 139.506L75.5589 162.84L73.4238 161.775L120.522 138.441L122.657 139.506Z" fill="#F2EAE8"/>
<path d="M122.656 141.187L75.5547 164.527V162.857L122.656 139.518V141.187Z" fill="#CBC1C0"/>
<path d="M124.792 142.254L77.6937 165.588L75.5586 164.523L122.657 141.189L124.792 142.254Z" fill="#F2EAE8"/>
<path d="M124.79 144.272L77.6895 167.941V165.607L124.79 142.268V144.272Z" fill="#CBC1C0"/>
<path d="M120.52 136.83L73.6712 160.086L67.8125 157.184L114.661 133.928L120.52 136.83Z" fill="#F2EAE8"/>
<path d="M38.3613 157.36L113.065 120.184V91.1035L38.3613 128.279V157.36Z" fill="#E4C7B5"/>
<path d="M38.3693 128.283L113.07 91.1128L91.4071 80.3164L16.7031 117.486L38.3693 128.283Z" fill="#EDE3E2"/>
<path d="M16.6973 146.561L38.3604 157.36V128.28L16.6973 117.48V146.561Z" fill="#C1977E"/>
<path d="M66.4395 156.44L113.213 133.112V104.031L66.4395 127.362V156.44Z" fill="#E4C7B5"/>
<path d="M66.3052 127.365L113.079 104.04L99.926 97.5332L53.1523 120.858L66.3052 127.365Z" fill="#EDE3E2"/>
<path d="M53.2871 149.929L66.44 156.439V127.361L53.2871 120.852V149.929Z" fill="#C1977E"/>
<path d="M74.7768 130.987L74.1582 130.102L74.6387 130.269L74.8549 130.481L74.7768 130.987Z" fill="#C1977E"/>
<path d="M74.0528 133.056C74.8867 131.992 75.0349 130.719 74.3839 130.212C73.7329 129.706 72.5292 130.158 71.6954 131.222C70.8615 132.286 70.7133 133.559 71.3643 134.065C72.0153 134.572 73.219 134.12 74.0528 133.056Z" fill="#B8B8B8"/>
<path d="M70.959 138.701V133.092L74.7907 131.184V136.793L70.959 138.701Z" fill="#B8B8B8"/>
<path d="M74.5526 136.673L71.1953 138.345V132.975L74.5526 131.303V136.673Z" fill="#DBECFF"/>
<path d="M71.9316 135.169L74.6613 133.811V133.562L71.9316 134.924V135.169Z" fill="#B8B8B8"/>
<path d="M72.8759 130.465C71.948 130.926 71.1973 132.05 71.1973 132.972C71.1973 133.052 71.2093 133.124 71.2213 133.196L74.5305 131.548C74.5425 131.464 74.5545 131.38 74.5545 131.299C74.5545 130.378 73.8008 130.004 72.8759 130.465Z" fill="#DBECFF"/>
<path d="M73.0075 137.444L72.7402 137.576V130.504L73.0075 130.369V137.444Z" fill="#B8B8B8"/>
<path d="M75.6559 137.222L74.791 136.791V131.018L75.6559 131.448V137.222Z" fill="#C1977E"/>
<path d="M71.935 132.137H70.5176V139.535H71.935V132.137Z" fill="#E4C7B5"/>
<path d="M75.6562 137.222L71.9355 139.083V138.218L74.7913 136.791L75.6562 137.222Z" fill="#F7D8C4"/>
<path d="M73.7553 130.491C74.0736 130.333 74.3739 130.261 74.6382 130.27C74.3559 129.716 73.6742 129.564 72.8755 129.962C71.8244 130.485 70.9746 131.757 70.9746 132.804C70.9746 133.531 71.2659 133.898 71.8695 133.913C71.7794 133.74 71.8515 133.584 71.8515 133.333C71.8545 132.286 72.7043 131.015 73.7553 130.491Z" fill="#E4C7B5"/>
<path d="M74.6387 130.27C74.7258 130.443 74.7738 130.652 74.7768 130.898C74.7768 130.901 74.7768 130.904 74.7768 130.907C74.7768 130.913 74.7768 130.919 74.7768 130.925L74.7918 133.456C75.3113 132.857 75.6567 132.103 75.6567 131.436C75.6567 130.709 75.2423 130.284 74.6387 130.27Z" fill="#C1977E"/>
<path d="M74.4609 130.276C74.4609 130.276 75.1275 130.407 75.5059 130.775C75.5059 130.775 75.0254 129.878 73.8633 129.746L74.4609 130.276Z" fill="#E4C7B5"/>
<path d="M83.3374 126.69L82.7188 125.805L83.1992 125.972L83.4184 126.185L83.3374 126.69Z" fill="#C1977E"/>
<path d="M83.3532 126.885C83.3532 127.938 82.4944 129.221 81.4374 129.748C80.3803 130.274 79.5215 129.846 79.5215 128.793C79.5215 127.74 80.3803 126.457 81.4374 125.93C82.4944 125.404 83.3532 125.832 83.3532 126.885Z" fill="#B8B8B8"/>
<path d="M79.5215 134.402V128.796L83.3532 126.885V132.494L79.5215 134.402Z" fill="#B8B8B8"/>
<path d="M83.1151 132.377L79.7578 134.049V128.676L83.1151 127.004V132.377Z" fill="#DBECFF"/>
<path d="M80.4941 130.872L83.2268 129.511V129.266L80.4941 130.624V130.872Z" fill="#B8B8B8"/>
<path d="M81.4365 126.17C80.5085 126.63 79.7578 127.755 79.7578 128.677C79.7578 128.757 79.7698 128.829 79.7818 128.901L83.0911 127.253C83.1031 127.169 83.1151 127.085 83.1151 127.004C83.1151 126.08 82.3644 125.706 81.4365 126.17Z" fill="#DBECFF"/>
<path d="M81.57 133.146L81.3027 133.278V126.206L81.57 126.074V133.146Z" fill="#B8B8B8"/>
<path d="M84.2184 132.925L83.3535 132.494V126.721L84.2184 127.151V132.925Z" fill="#C1977E"/>
<path d="M80.4975 127.84H79.0801V135.238H80.4975V127.84Z" fill="#E4C7B5"/>
<path d="M84.2187 132.925L80.498 134.786V133.921L83.3538 132.494L84.2187 132.925Z" fill="#F7D8C4"/>
<path d="M82.3178 126.194C82.6361 126.036 82.9364 125.964 83.2007 125.973C82.9184 125.419 82.2368 125.267 81.438 125.665C80.3869 126.188 79.5371 127.46 79.5371 128.507C79.5371 129.234 79.8284 129.602 80.432 129.617C80.3419 129.443 80.414 129.287 80.414 129.036C80.417 127.989 81.2668 126.718 82.3178 126.194Z" fill="#E4C7B5"/>
<path d="M83.1992 125.973C83.2863 126.146 83.3343 126.356 83.3374 126.601C83.3374 126.604 83.3374 126.607 83.3374 126.61C83.3374 126.616 83.3374 126.622 83.3374 126.628L83.3524 129.159C83.8719 128.56 84.2172 127.806 84.2172 127.139C84.2172 126.412 83.8028 125.988 83.1992 125.973Z" fill="#C1977E"/>
<path d="M83.0234 125.979C83.0234 125.979 83.69 126.11 84.0684 126.478C84.0684 126.478 83.5879 125.581 82.4258 125.449L83.0234 125.979Z" fill="#E4C7B5"/>
<path d="M91.8999 122.396L91.2812 121.514L91.7617 121.678L91.9809 121.891L91.8999 122.396Z" fill="#C1977E"/>
<path d="M91.1778 124.468C92.0117 123.404 92.1599 122.131 91.5089 121.625C90.8579 121.118 89.6542 121.57 88.8204 122.634C87.9865 123.698 87.8383 124.971 88.4893 125.477C89.1403 125.984 90.344 125.532 91.1778 124.468Z" fill="#B8B8B8"/>
<path d="M88.082 130.111V124.502L91.9138 122.594V128.203L88.082 130.111Z" fill="#B8B8B8"/>
<path d="M91.6756 128.084L88.3184 129.756V124.383L91.6756 122.711V128.084Z" fill="#DBECFF"/>
<path d="M89.0586 126.579L91.7883 125.218V124.973L89.0586 126.334V126.579Z" fill="#B8B8B8"/>
<path d="M89.999 121.876C89.0711 122.337 88.3203 123.462 88.3203 124.383C88.3203 124.464 88.3323 124.536 88.3443 124.608L91.6536 122.959C91.6656 122.875 91.6776 122.792 91.6776 122.711C91.6776 121.79 90.9269 121.413 89.999 121.876Z" fill="#DBECFF"/>
<path d="M90.1344 128.853L89.8672 128.988V121.916L90.1344 121.781V128.853Z" fill="#B8B8B8"/>
<path d="M92.7789 128.634L91.9141 128.203V122.43L92.7789 122.86V128.634Z" fill="#C1977E"/>
<path d="M89.0619 123.547H87.6445V130.945H89.0619V123.547Z" fill="#E4C7B5"/>
<path d="M92.7801 128.634L89.0625 130.495V129.627L91.9153 128.203L92.7801 128.634Z" fill="#F7D8C4"/>
<path d="M90.8784 121.903C91.1967 121.745 91.497 121.673 91.7612 121.682C91.479 121.128 90.7973 120.976 89.9985 121.374C88.9475 121.897 88.0977 123.169 88.0977 124.216C88.0977 124.943 88.3889 125.311 88.9925 125.326C88.9024 125.152 88.9745 124.996 88.9745 124.745C88.9775 123.698 89.8304 122.424 90.8784 121.903Z" fill="#E4C7B5"/>
<path d="M91.7617 121.678C91.8488 121.851 91.8968 122.061 91.8999 122.306C91.8999 122.309 91.8999 122.312 91.8999 122.315C91.8999 122.321 91.8999 122.327 91.8999 122.333L91.9149 124.864C92.4344 124.265 92.7797 123.512 92.7797 122.844C92.7797 122.12 92.3683 121.693 91.7617 121.678Z" fill="#C1977E"/>
<path d="M91.5839 121.684C91.5839 121.684 92.2506 121.815 92.6289 122.183C92.6289 122.183 92.1485 121.286 90.9863 121.154L91.5839 121.684Z" fill="#E4C7B5"/>
<path d="M100.461 118.102L99.8457 117.217L100.323 117.384L100.542 117.597L100.461 118.102Z" fill="#C1977E"/>
<path d="M99.7384 120.173C100.572 119.109 100.72 117.836 100.069 117.33C99.4185 116.823 98.2148 117.275 97.3809 118.339C96.5471 119.403 96.3988 120.676 97.0498 121.182C97.7008 121.689 98.9045 121.237 99.7384 120.173Z" fill="#B8B8B8"/>
<path d="M96.6445 125.817V120.207L100.479 118.299V123.908L96.6445 125.817Z" fill="#B8B8B8"/>
<path d="M100.239 123.788L96.8848 125.46V120.09L100.239 118.418V123.788Z" fill="#DBECFF"/>
<path d="M97.6211 122.284L100.351 120.926V120.678L97.6211 122.039V122.284Z" fill="#B8B8B8"/>
<path d="M98.5595 117.58C97.6316 118.041 96.8809 119.166 96.8809 120.087C96.8809 120.168 96.8929 120.24 96.9049 120.311L100.214 118.663C100.226 118.579 100.238 118.495 100.238 118.415C100.238 117.493 99.4874 117.119 98.5595 117.58Z" fill="#DBECFF"/>
<path d="M98.695 124.559L98.4277 124.691V117.619L98.695 117.484V124.559Z" fill="#B8B8B8"/>
<path d="M101.34 124.337L100.479 123.906V118.133L101.34 118.564V124.337Z" fill="#C1977E"/>
<path d="M97.6225 119.252H96.2051V126.65H97.6225V119.252Z" fill="#E4C7B5"/>
<path d="M101.341 124.337L97.623 126.198V125.333L100.479 123.906L101.341 124.337Z" fill="#F7D8C4"/>
<path d="M99.4389 117.606C99.7572 117.448 100.058 117.376 100.322 117.385C100.039 116.832 99.3578 116.679 98.5591 117.077C97.508 117.6 96.6582 118.872 96.6582 119.919C96.6582 120.646 96.9495 121.014 97.5531 121.029C97.463 120.855 97.5351 120.7 97.5351 120.448C97.5381 119.401 98.3909 118.13 99.4389 117.606Z" fill="#E4C7B5"/>
<path d="M100.322 117.385C100.409 117.558 100.457 117.768 100.46 118.013C100.46 118.016 100.46 118.019 100.46 118.022C100.46 118.028 100.46 118.034 100.46 118.04L100.475 120.571C100.995 119.972 101.34 119.219 101.34 118.551C101.34 117.825 100.929 117.4 100.322 117.385Z" fill="#C1977E"/>
<path d="M100.148 117.391C100.148 117.391 100.815 117.522 101.193 117.89C101.193 117.89 100.713 116.993 99.5508 116.861L100.148 117.391Z" fill="#E4C7B5"/>
<path d="M109.025 113.807L108.406 112.922L108.887 113.089L109.103 113.302L109.025 113.807Z" fill="#C1977E"/>
<path d="M108.301 115.876C109.135 114.812 109.283 113.539 108.632 113.033C107.981 112.526 106.777 112.978 105.943 114.042C105.11 115.106 104.961 116.379 105.612 116.886C106.263 117.392 107.467 116.94 108.301 115.876Z" fill="#B8B8B8"/>
<path d="M105.207 121.52V115.914L109.039 114.002V119.611L105.207 121.52Z" fill="#B8B8B8"/>
<path d="M108.801 119.494L105.443 121.166V115.793L108.801 114.121V119.494Z" fill="#DBECFF"/>
<path d="M106.18 117.989L108.909 116.628V116.383L106.18 117.744V117.989Z" fill="#B8B8B8"/>
<path d="M107.124 113.287C106.196 113.748 105.445 114.872 105.445 115.797C105.445 115.878 105.457 115.949 105.469 116.021L108.779 114.373C108.791 114.289 108.803 114.205 108.803 114.125C108.803 113.197 108.049 112.823 107.124 113.287Z" fill="#DBECFF"/>
<path d="M107.256 120.263L106.988 120.395V113.323L107.256 113.191V120.263Z" fill="#B8B8B8"/>
<path d="M109.904 120.042L109.039 119.612V113.838L109.904 114.269V120.042Z" fill="#C1977E"/>
<path d="M106.183 114.955H104.766V122.353H106.183V114.955Z" fill="#E4C7B5"/>
<path d="M109.904 120.042L106.184 121.903V121.038L109.039 119.611L109.904 120.042Z" fill="#F7D8C4"/>
<path d="M108.003 113.311C108.322 113.153 108.622 113.081 108.886 113.09C108.604 112.537 107.922 112.384 107.124 112.782C106.072 113.305 105.223 114.577 105.223 115.624C105.223 116.351 105.514 116.719 106.118 116.734C106.027 116.56 106.1 116.405 106.1 116.153C106.103 115.106 106.952 113.835 108.003 113.311Z" fill="#E4C7B5"/>
<path d="M108.887 113.09C108.974 113.263 109.022 113.473 109.025 113.718C109.025 113.721 109.025 113.724 109.025 113.727C109.025 113.733 109.025 113.739 109.025 113.745L109.04 116.276C109.559 115.678 109.905 114.924 109.905 114.257C109.905 113.53 109.49 113.105 108.887 113.09Z" fill="#C1977E"/>
<path d="M108.709 113.096C108.709 113.096 109.376 113.228 109.754 113.595C109.754 113.595 109.273 112.698 108.111 112.566L108.709 113.096Z" fill="#E4C7B5"/>
<path opacity="0.05" d="M66.4395 139.311L71.9348 136.79V138.217L75.6555 137.22V135.644L80.4932 133.278L80.4962 133.921L84.2168 132.925V131.351L89.0605 128.985V129.625L92.7782 128.632V127.244L97.6219 124.865V125.332L101.34 124.336V122.708L106.183 120.57V121.036L109.904 120.04V118.721L113.213 117.177L113.246 113.189L72.154 133.684L66.4395 130.771V139.311Z" fill="black"/>
<path d="M83.7824 147.803L79.6504 149.861V141.505L83.7824 139.447V147.803Z" fill="#69504C"/>
<path d="M83.1523 139.761V147.542L83.783 147.803V139.447L83.1523 139.761Z" fill="#C1977E"/>
<path d="M79.6504 149.861L83.7824 147.803L83.1518 147.543L79.6504 149.236V149.861Z" fill="#F2EAE8"/>
<path d="M92.9387 143.249L88.8066 145.307V136.949L92.9387 134.891V143.249Z" fill="#69504C"/>
<path d="M92.3086 135.205V142.989L92.9392 143.249V134.891L92.3086 135.205Z" fill="#C1977E"/>
<path d="M88.8066 145.307L92.9387 143.249L92.3081 142.988L88.8066 144.678V145.307Z" fill="#F2EAE8"/>
<path d="M101.437 138.986L97.3047 141.122V132.763L101.437 130.705V138.986Z" fill="#69504C"/>
<path d="M100.807 131.019V138.803L101.437 138.986V130.705L100.807 131.019Z" fill="#C1977E"/>
<path d="M97.3047 141.121L101.512 139.006L100.806 138.803L97.3047 140.493V141.121Z" fill="#F2EAE8"/>
<path opacity="0.05" d="M95.0006 145.211H92.2019L89.7155 144.227L89.4902 136.61L89.8266 136.443L89.8656 130.089L91.7605 129.158L91.8836 135.416L91.5713 135.575L91.8926 143.188L93.1658 143.724L94.4841 143.742L94.0757 143.945V144.765L95.0006 145.211Z" fill="black"/>
<path opacity="0.05" d="M86.343 149.633L82.9466 149.764L80.283 148.894L80.25 141.2L80.6044 141.026L80.6134 134.729L82.6493 133.709L82.6403 140.03L82.7364 139.961L82.8295 147.697L84.1808 148.242L85.7634 148.128L85.355 148.335V149.139L86.343 149.633Z" fill="black"/>
<path d="M97.1672 119.092L99.4825 120.238L98.984 120.279L96.957 119.277L97.1672 119.092Z" fill="#E0DCD1"/>
<path d="M96.6827 146.071L94.0762 144.77V143.965L96.6827 145.266V146.071Z" fill="#C1977E"/>
<path d="M96.6827 145.263L94.0762 143.964L96.6827 142.666L99.2923 143.964L96.6827 145.263Z" fill="#F0F0F0"/>
<path d="M99.2931 144.77L96.6836 146.071V145.266L99.2931 143.965V144.77Z" fill="#E4C7B5"/>
<path d="M96.6825 145.016L94.4844 143.921V143.242L96.6825 144.337V145.016Z" fill="#C1977E"/>
<path d="M96.6825 144.337L94.4844 143.242L96.6825 142.145L98.8837 143.242L96.6825 144.337Z" fill="#F0F0F0"/>
<path d="M98.8828 143.921L96.6816 145.016V144.337L98.8828 143.242V143.921Z" fill="#E4C7B5"/>
<path d="M96.6828 142.031H95.2324V143.147H98.1363V142.031H96.6828Z" fill="#E6E6E6"/>
<path d="M97.7082 142.635C98.2757 142.916 98.2757 143.377 97.7082 143.658C97.1406 143.939 96.2217 143.939 95.6542 143.658C95.0866 143.377 95.0866 142.916 95.6542 142.635C96.2217 142.354 97.1406 142.354 97.7082 142.635Z" fill="#E6E6E6"/>
<path d="M96.6819 142.755C97.4846 142.755 98.1354 142.43 98.1354 142.031C98.1354 141.631 97.4846 141.307 96.6819 141.307C95.8792 141.307 95.2285 141.631 95.2285 142.031C95.2285 142.43 95.8792 142.755 96.6819 142.755Z" fill="#F0F0F0"/>
<path d="M96.6807 122.781H95.3984V141.78H97.9629V122.781H96.6807Z" fill="#E6E6E6"/>
<path d="M97.5883 141.329C98.0898 141.577 98.0898 141.984 97.5883 142.232C97.0868 142.481 96.276 142.481 95.7746 142.232C95.2731 141.984 95.2731 141.577 95.7746 141.329C96.276 141.081 97.0868 141.081 97.5883 141.329Z" fill="#E6E6E6"/>
<path d="M96.6807 123.421C97.3889 123.421 97.9629 123.134 97.9629 122.781C97.9629 122.427 97.3889 122.141 96.6807 122.141C95.9725 122.141 95.3984 122.427 95.3984 122.781C95.3984 123.134 95.9725 123.421 96.6807 123.421Z" fill="#D9CBBC"/>
<path d="M96.6828 121.918H95.2324V123.034H98.1363V121.918H96.6828Z" fill="#D9D9D9"/>
<path d="M97.7082 122.522C98.2757 122.803 98.2757 123.264 97.7082 123.545C97.1406 123.826 96.2217 123.826 95.6542 123.545C95.0866 123.264 95.0866 122.803 95.6542 122.522C96.2217 122.238 97.1406 122.238 97.7082 122.522Z" fill="#D9D9D9"/>
<path d="M96.6819 122.641C97.4846 122.641 98.1354 122.317 98.1354 121.917C98.1354 121.517 97.4846 121.193 96.6819 121.193C95.8792 121.193 95.2285 121.517 95.2285 121.917C95.2285 122.317 95.8792 122.641 96.6819 122.641Z" fill="#D9CBBC"/>
<path d="M96.6825 123.141L94.4844 122.046V121.193L96.6825 122.288V123.141Z" fill="#C1977E"/>
<path d="M96.6825 122.287L94.4844 121.193L96.6825 120.098L98.8837 121.193L96.6825 122.287Z" fill="#D9CBBC"/>
<path d="M98.8828 122.046L96.6816 123.141V122.288L98.8828 121.193V122.046Z" fill="#E8CBB8"/>
<path d="M99.2912 121.143L96.6816 122.441V121.636L99.2912 120.338V121.143Z" fill="#F0ECE0"/>
<path d="M95.1968 120.545C95.1968 120.937 94.8785 121.413 94.4851 121.607C94.0918 121.802 93.7734 121.643 93.7734 121.254C93.7734 120.863 94.0918 120.387 94.4851 120.192C94.8785 119.998 95.1968 120.157 95.1968 120.545Z" fill="#D1CDC3"/>
<path d="M97.3492 119.475C97.3492 119.867 97.0309 120.343 96.6375 120.537C96.2441 120.732 95.9258 120.573 95.9258 120.184C95.9258 119.792 96.2441 119.317 96.6375 119.122C97.0309 118.925 97.3492 119.083 97.3492 119.475Z" fill="#E0DCD1"/>
<path d="M94.4844 121.222V120.193L96.6375 119.119V120.151L94.4844 121.222Z" fill="#E0DCD1"/>
<path d="M94.4844 120.193L96.8297 121.354L98.9828 120.28L96.6375 119.119L94.4844 120.193Z" fill="#D9D9D9"/>
<path d="M93.9688 121.644L96.314 122.808L96.8305 121.354L94.4853 120.193L93.9688 121.644Z" fill="#D9D9D9"/>
<path d="M98.9839 120.28L96.8308 121.354C96.4375 121.549 96.1191 122.024 96.1191 122.416C96.1191 122.808 96.4375 122.967 96.8308 122.769C97.1071 122.632 97.3413 122.356 97.4615 122.069L98.3563 121.624C98.4734 121.794 98.7107 121.833 98.9869 121.695C99.3803 121.501 99.6986 121.025 99.6986 120.633C99.6956 120.244 99.3773 120.086 98.9839 120.28Z" fill="#F2F2F2"/>
<path d="M99.4474 120.381C99.4774 120.438 99.4864 120.507 99.4864 120.557C99.4864 120.892 99.1981 121.323 98.8558 121.494C98.7657 121.539 98.6816 121.563 98.6066 121.563C98.5375 121.563 98.4834 121.536 98.4414 121.497L98.4744 121.545C98.5165 121.607 98.5855 121.637 98.6726 121.637C98.7477 121.637 98.8348 121.613 98.9219 121.568C99.2642 121.398 99.5525 120.97 99.5525 120.632C99.5525 120.554 99.5345 120.441 99.4474 120.381Z" fill="#C9C9C9"/>
<path d="M97.2808 121.888L97.2598 121.939C97.1487 122.208 96.9355 122.447 96.6982 122.564C96.6081 122.609 96.521 122.633 96.443 122.633C96.3799 122.633 96.3349 122.615 96.2988 122.591C96.3319 122.657 96.3949 122.711 96.512 122.711C96.5871 122.711 96.6742 122.687 96.7673 122.642C97.0045 122.525 97.2177 122.283 97.3288 122.016L97.3499 121.966L98.3919 121.445L98.3348 121.361L97.2808 121.888Z" fill="#C9C9C9"/>
<path d="M98.8522 121.491C99.1945 121.32 99.4828 120.892 99.4828 120.554C99.4828 120.503 99.4738 120.435 99.4438 120.378C99.4077 120.354 99.3627 120.336 99.2996 120.336C99.2246 120.336 99.1375 120.36 99.0474 120.405L96.8943 121.479C96.552 121.649 96.2637 122.077 96.2637 122.415C96.2637 122.466 96.2727 122.535 96.3027 122.592C96.3387 122.615 96.3838 122.633 96.4469 122.633C96.5219 122.633 96.609 122.609 96.7021 122.565C96.9393 122.448 97.1525 122.206 97.2637 121.939L97.2847 121.889L98.2907 121.386L98.3958 121.446L98.4438 121.494C98.4858 121.533 98.5369 121.559 98.609 121.559C98.678 121.559 98.7621 121.536 98.8522 121.491Z" fill="#E6E6E6"/>
<path opacity="0.05" d="M96.2983 122.948V123.729L96.6827 123.756V142.42L96.4275 142.746V143.859L96.2983 144.131L95.7488 144.553L95.5386 144.693L95.0011 145.232L94.0762 144.771V143.966L94.4846 143.763V143.245L95.2323 142.874V142.037C95.2323 142.037 95.2353 141.777 95.4185 141.684L95.4005 123.376C95.4005 123.376 95.2053 123.175 95.2323 123.038V122.445L96.2983 122.948Z" fill="black"/>
<path d="M74.7006 143.043L74.082 142.16L74.5625 142.325L74.7817 142.54L74.7006 143.043Z" fill="#C1977E"/>
<path d="M73.9786 145.114C74.8124 144.05 74.9607 142.777 74.3097 142.271C73.6587 141.765 72.455 142.217 71.6211 143.281C70.7873 144.345 70.6391 145.618 71.29 146.124C71.941 146.63 73.1447 146.178 73.9786 145.114Z" fill="#B8B8B8"/>
<path d="M70.8848 150.758V145.149L74.7165 143.24V148.849L70.8848 150.758Z" fill="#B8B8B8"/>
<path d="M74.4784 148.73L71.1211 150.402V145.03L74.4784 143.357V148.73Z" fill="#DBECFF"/>
<path d="M71.8613 147.226L74.591 145.864V145.619L71.8613 146.98V147.226Z" fill="#B8B8B8"/>
<path d="M72.7997 142.523C71.8718 142.984 71.1211 144.109 71.1211 145.03C71.1211 145.111 71.1331 145.183 71.1451 145.255L74.4543 143.606C74.4664 143.523 74.4784 143.439 74.4784 143.358C74.4784 142.437 73.7276 142.063 72.7997 142.523Z" fill="#DBECFF"/>
<path d="M72.9352 149.5L72.668 149.634V142.562L72.9352 142.428V149.5Z" fill="#B8B8B8"/>
<path d="M75.5816 149.281L74.7168 148.85V143.076L75.5816 143.507V149.281Z" fill="#C1977E"/>
<path d="M71.8607 144.195H70.4434V151.593H71.8607V144.195Z" fill="#E4C7B5"/>
<path d="M75.58 149.28L71.8594 151.141V150.274L74.7152 148.85L75.58 149.28Z" fill="#F7D8C4"/>
<path d="M73.6792 142.55C73.9975 142.391 74.2978 142.319 74.562 142.328C74.2797 141.775 73.5981 141.622 72.7993 142.02C71.7483 142.544 70.8984 143.815 70.8984 144.862C70.8984 145.589 71.1897 145.957 71.7933 145.972C71.7032 145.799 71.7753 145.643 71.7753 145.392C71.7783 144.345 72.6281 143.073 73.6792 142.55Z" fill="#E4C7B5"/>
<path d="M74.5625 142.324C74.6496 142.498 74.6976 142.707 74.7006 142.952C74.7006 142.955 74.7006 142.958 74.7006 142.961C74.7006 142.967 74.7006 142.973 74.7006 142.979L74.7156 145.51C75.2352 144.912 75.5805 144.158 75.5805 143.491C75.5805 142.767 75.1661 142.339 74.5625 142.324Z" fill="#C1977E"/>
<path d="M74.3866 142.334C74.3866 142.334 75.0533 142.466 75.4317 142.834C75.4317 142.834 74.9512 141.936 73.7891 141.805L74.3866 142.334Z" fill="#E4C7B5"/>
<path d="M109.195 125.563L108.576 124.678L109.057 124.845L109.276 125.058L109.195 125.563Z" fill="#C1977E"/>
<path d="M108.473 127.632C109.307 126.568 109.455 125.295 108.804 124.789C108.153 124.282 106.949 124.734 106.115 125.798C105.281 126.862 105.133 128.135 105.784 128.641C106.435 129.148 107.639 128.696 108.473 127.632Z" fill="#B8B8B8"/>
<path d="M105.379 133.276V127.666L109.211 125.758V131.367L105.379 133.276Z" fill="#B8B8B8"/>
<path d="M108.973 131.247L105.615 132.919V127.549L108.973 125.877V131.247Z" fill="#DBECFF"/>
<path d="M106.355 129.742L109.085 128.384V128.139L106.355 129.497V129.742Z" fill="#B8B8B8"/>
<path d="M107.294 125.039C106.366 125.5 105.615 126.624 105.615 127.549C105.615 127.63 105.627 127.701 105.639 127.773L108.948 126.125C108.961 126.041 108.973 125.957 108.973 125.877C108.973 124.952 108.222 124.578 107.294 125.039Z" fill="#DBECFF"/>
<path d="M107.429 132.019L107.162 132.151V125.079L107.429 124.947V132.019Z" fill="#B8B8B8"/>
<path d="M110.076 131.796L109.211 131.365V125.592L110.076 126.023V131.796Z" fill="#C1977E"/>
<path d="M106.355 126.711H104.938V134.109H106.355V126.711Z" fill="#E4C7B5"/>
<path d="M110.076 131.796L106.355 133.657V132.792L109.211 131.365L110.076 131.796Z" fill="#F7D8C4"/>
<path d="M108.175 125.065C108.494 124.907 108.794 124.835 109.058 124.844C108.776 124.291 108.094 124.138 107.295 124.536C106.244 125.059 105.395 126.331 105.395 127.378C105.395 128.105 105.686 128.473 106.289 128.488C106.199 128.314 106.271 128.159 106.271 127.907C106.274 126.86 107.124 125.589 108.175 125.065Z" fill="#E4C7B5"/>
<path d="M109.057 124.844C109.144 125.017 109.192 125.227 109.195 125.472C109.195 125.475 109.195 125.478 109.195 125.481C109.195 125.487 109.195 125.493 109.195 125.499L109.21 128.03C109.729 127.431 110.075 126.678 110.075 126.01C110.075 125.284 109.66 124.859 109.057 124.844Z" fill="#C1977E"/>
<path d="M108.881 124.85C108.881 124.85 109.547 124.981 109.926 125.349C109.926 125.349 109.445 124.452 108.283 124.32L108.881 124.85Z" fill="#E4C7B5"/>
<path opacity="0.05" d="M106.355 132.818L110.076 131.821L110.049 126.359C110.049 126.359 110.13 125.653 109.926 125.375C109.926 125.375 109.415 124.89 108.881 124.875C108.346 124.863 106.355 132.818 106.355 132.818Z" fill="black"/>
<path opacity="0.05" d="M71.8594 150.273L75.58 149.276L75.553 143.814C75.553 143.814 75.6341 143.108 75.4299 142.83C75.4299 142.83 74.9194 142.345 74.3848 142.33C73.8503 142.318 71.8594 150.273 71.8594 150.273Z" fill="black"/>
<path d="M88.4465 123.459L90.7618 124.605L90.2633 124.65L88.2363 123.644L88.4465 123.459Z" fill="#E0DCD1"/>
<path d="M87.962 150.437L85.3555 149.139V148.334L87.962 149.632V150.437Z" fill="#C1977E"/>
<path d="M87.962 149.633L85.3555 148.335L87.962 147.033L90.5716 148.335L87.962 149.633Z" fill="#F0F0F0"/>
<path d="M90.5724 149.139L87.9629 150.437V149.632L90.5724 148.334V149.139Z" fill="#E4C7B5"/>
<path d="M87.9618 149.385L85.7637 148.29V147.611L87.9618 148.706V149.385Z" fill="#C1977E"/>
<path d="M87.9618 148.705L85.7637 147.611L87.9618 146.516L90.163 147.611L87.9618 148.705Z" fill="#F0F0F0"/>
<path d="M90.1621 148.29L87.9609 149.385V148.706L90.1621 147.611V148.29Z" fill="#E4C7B5"/>
<path d="M87.9612 146.402H86.5078V147.518H89.4147V146.402H87.9612Z" fill="#E6E6E6"/>
<path d="M87.9612 148.241C88.7639 148.241 89.4147 147.917 89.4147 147.517C89.4147 147.117 88.7639 146.793 87.9612 146.793C87.1585 146.793 86.5078 147.117 86.5078 147.517C86.5078 147.917 87.1585 148.241 87.9612 148.241Z" fill="#E6E6E6"/>
<path d="M87.9612 147.126C88.7639 147.126 89.4147 146.802 89.4147 146.402C89.4147 146.002 88.7639 145.678 87.9612 145.678C87.1585 145.678 86.5078 146.002 86.5078 146.402C86.5078 146.802 87.1585 147.126 87.9612 147.126Z" fill="#F0F0F0"/>
<path d="M87.9619 127.148H86.6797V146.151H89.2442V127.148H87.9619Z" fill="#E6E6E6"/>
<path d="M87.9619 146.79C88.6701 146.79 89.2442 146.504 89.2442 146.15C89.2442 145.796 88.6701 145.51 87.9619 145.51C87.2538 145.51 86.6797 145.796 86.6797 146.15C86.6797 146.504 87.2538 146.79 87.9619 146.79Z" fill="#E6E6E6"/>
<path d="M87.9619 127.788C88.6701 127.788 89.2442 127.502 89.2442 127.148C89.2442 126.794 88.6701 126.508 87.9619 126.508C87.2538 126.508 86.6797 126.794 86.6797 127.148C86.6797 127.502 87.2538 127.788 87.9619 127.788Z" fill="#D9CBBC"/>
<path d="M87.9612 126.285H86.5078V127.401H89.4147V126.285H87.9612Z" fill="#D9D9D9"/>
<path d="M87.9612 128.124C88.7639 128.124 89.4147 127.8 89.4147 127.4C89.4147 127 88.7639 126.676 87.9612 126.676C87.1585 126.676 86.5078 127 86.5078 127.4C86.5078 127.8 87.1585 128.124 87.9612 128.124Z" fill="#D9D9D9"/>
<path d="M87.9612 127.008C88.7639 127.008 89.4147 126.684 89.4147 126.284C89.4147 125.885 88.7639 125.561 87.9612 125.561C87.1585 125.561 86.5078 125.885 86.5078 126.284C86.5078 126.684 87.1585 127.008 87.9612 127.008Z" fill="#D9CBBC"/>
<path d="M87.9618 127.508L85.7637 126.413V125.561L87.9618 126.658V127.508Z" fill="#C1977E"/>
<path d="M87.9618 126.658L85.7637 125.56L87.9618 124.465L90.163 125.56L87.9618 126.658Z" fill="#D9CBBC"/>
<path d="M90.1621 126.413L87.9609 127.508V126.658L90.1621 125.561V126.413Z" fill="#E8CBB8"/>
<path d="M90.5705 125.51L87.9609 126.811V126.003L90.5705 124.705V125.51Z" fill="#F0ECE0"/>
<path d="M86.4761 124.916C86.4761 125.308 86.1578 125.784 85.7644 125.978C85.371 126.173 85.0527 126.014 85.0527 125.625C85.0527 125.234 85.371 124.758 85.7644 124.563C86.1578 124.366 86.4761 124.525 86.4761 124.916Z" fill="#D1CDC3"/>
<path d="M88.6285 123.842C88.6285 124.234 88.3102 124.71 87.9168 124.904C87.5234 125.099 87.2051 124.94 87.2051 124.551C87.2051 124.159 87.5234 123.684 87.9168 123.489C88.3102 123.292 88.6285 123.45 88.6285 123.842Z" fill="#E0DCD1"/>
<path d="M85.7637 125.591V124.559L87.9168 123.488V124.517L85.7637 125.591Z" fill="#E0DCD1"/>
<path d="M85.7637 124.559L88.109 125.72L90.2621 124.649L87.9168 123.488L85.7637 124.559Z" fill="#D9D9D9"/>
<path d="M85.248 126.014L87.5933 127.175L88.1098 125.721L85.7646 124.561L85.248 126.014Z" fill="#D9D9D9"/>
<path d="M90.2632 124.649L88.1101 125.723C87.7167 125.918 87.3984 126.393 87.3984 126.785C87.3984 127.177 87.7167 127.336 88.1101 127.138C88.3864 127.001 88.6236 126.726 88.7407 126.438L89.6356 125.993C89.7527 126.163 89.99 126.202 90.2662 126.064C90.6596 125.87 90.9779 125.394 90.9779 125.002C90.9749 124.611 90.6566 124.452 90.2632 124.649Z" fill="#F2F2F2"/>
<path d="M90.7267 124.748C90.7567 124.805 90.7657 124.874 90.7657 124.925C90.7657 125.26 90.4774 125.69 90.1351 125.861C90.045 125.906 89.9609 125.93 89.8859 125.93C89.8168 125.93 89.7627 125.903 89.7207 125.864L89.7537 125.912C89.7958 125.975 89.8648 126.004 89.9519 126.004C90.027 126.004 90.1141 125.981 90.2012 125.936C90.5435 125.765 90.8318 125.337 90.8318 124.999C90.8318 124.925 90.8138 124.808 90.7267 124.748Z" fill="#C9C9C9"/>
<path d="M88.5601 126.257L88.5391 126.308C88.4279 126.577 88.2147 126.816 87.9775 126.933C87.8874 126.978 87.8003 127.002 87.7223 127.002C87.6592 127.002 87.6142 126.984 87.5781 126.96C87.6112 127.026 87.6742 127.08 87.7913 127.08C87.8664 127.08 87.9535 127.056 88.0466 127.011C88.2838 126.894 88.497 126.652 88.6081 126.386L88.6292 126.335L89.6712 125.814L89.6141 125.73L88.5601 126.257Z" fill="#C9C9C9"/>
<path d="M90.1315 125.862C90.4738 125.691 90.7621 125.263 90.7621 124.925C90.7621 124.875 90.7531 124.806 90.7231 124.749C90.687 124.725 90.642 124.707 90.5789 124.707C90.5039 124.707 90.4168 124.731 90.3267 124.776L88.1736 125.85C87.8313 126.02 87.543 126.448 87.543 126.786C87.543 126.837 87.552 126.906 87.582 126.963C87.618 126.987 87.6631 127.005 87.7262 127.005C87.8012 127.005 87.8883 126.981 87.9814 126.936C88.2186 126.819 88.4318 126.577 88.543 126.31L88.564 126.26L89.5699 125.757L89.6751 125.817L89.7231 125.865C89.7651 125.904 89.8162 125.931 89.8883 125.931C89.9573 125.928 90.0414 125.907 90.1315 125.862Z" fill="#E6E6E6"/>
<path opacity="0.05" d="M87.5776 127.315V128.096L87.962 128.123V146.787L87.7068 147.113V148.229L87.5776 148.501L87.0281 148.923L86.8179 149.063L86.2804 149.602L85.3555 149.141V148.336L85.7639 148.133V147.615L86.5116 147.244V146.407C86.5116 146.407 86.5146 146.147 86.6978 146.054L86.6798 127.749C86.6798 127.749 86.4846 127.548 86.5116 127.411V126.818L87.5776 127.315Z" fill="black"/>
<path d="M106.787 114.521L109.103 115.667L108.601 115.709L106.574 114.707L106.787 114.521Z" fill="#E0DCD1"/>
<path d="M106.303 141.501L103.693 140.202V139.395L106.303 140.696V141.501Z" fill="#C1977E"/>
<path d="M106.303 140.695L103.693 139.394L106.303 138.096L108.909 139.394L106.303 140.695Z" fill="#F0F0F0"/>
<path d="M108.909 140.202L106.303 141.501V140.696L108.909 139.395V140.202Z" fill="#E4C7B5"/>
<path d="M106.303 140.448L104.102 139.353V138.674L106.303 139.769V140.448Z" fill="#C1977E"/>
<path d="M106.303 139.768L104.102 138.673L106.303 137.578L108.501 138.673L106.303 139.768Z" fill="#F0F0F0"/>
<path d="M108.501 139.353L106.303 140.448V139.769L108.501 138.674V139.353Z" fill="#E4C7B5"/>
<path d="M106.303 137.461H104.85V138.58H107.753V137.461H106.303Z" fill="#E6E6E6"/>
<path d="M107.329 138.069C107.897 138.35 107.897 138.811 107.329 139.092C106.762 139.373 105.843 139.373 105.275 139.092C104.708 138.811 104.708 138.35 105.275 138.069C105.843 137.784 106.762 137.784 107.329 138.069Z" fill="#E6E6E6"/>
<path d="M107.329 136.949C107.897 137.23 107.897 137.691 107.329 137.972C106.762 138.253 105.843 138.253 105.275 137.972C104.708 137.691 104.708 137.23 105.275 136.949C105.843 136.668 106.762 136.668 107.329 136.949Z" fill="#F0F0F0"/>
<path d="M106.303 118.211H105.018V137.21H107.585V118.211H106.303Z" fill="#E6E6E6"/>
<path d="M106.304 137.851C107.012 137.851 107.586 137.564 107.586 137.21C107.586 136.857 107.012 136.57 106.304 136.57C105.596 136.57 105.021 136.857 105.021 137.21C105.021 137.564 105.596 137.851 106.304 137.851Z" fill="#E6E6E6"/>
<path d="M106.304 118.851C107.012 118.851 107.586 118.564 107.586 118.211C107.586 117.857 107.012 117.57 106.304 117.57C105.596 117.57 105.021 117.857 105.021 118.211C105.021 118.564 105.596 118.851 106.304 118.851Z" fill="#D9CBBC"/>
<path d="M106.303 117.346H104.85V118.462H107.753V117.346H106.303Z" fill="#D9D9D9"/>
<path d="M107.329 117.949C107.897 118.23 107.897 118.691 107.329 118.972C106.762 119.253 105.843 119.253 105.275 118.972C104.708 118.691 104.708 118.23 105.275 117.949C105.843 117.668 106.762 117.668 107.329 117.949Z" fill="#D9D9D9"/>
<path d="M107.329 116.834C107.897 117.115 107.897 117.576 107.329 117.857C106.762 118.138 105.843 118.138 105.275 117.857C104.708 117.576 104.708 117.115 105.275 116.834C105.843 116.553 106.762 116.553 107.329 116.834Z" fill="#D9CBBC"/>
<path d="M106.303 118.571L104.102 117.476V116.623L106.303 117.721V118.571Z" fill="#C1977E"/>
<path d="M106.303 117.717L104.102 116.622L106.303 115.527L108.501 116.622L106.303 117.717Z" fill="#D9CBBC"/>
<path d="M108.501 117.476L106.303 118.571V117.721L108.501 116.623V117.476Z" fill="#E8CBB8"/>
<path d="M108.909 116.572L106.303 117.871V117.066L108.909 115.768V116.572Z" fill="#F0ECE0"/>
<path d="M104.814 115.979C104.814 116.371 104.496 116.847 104.102 117.041C103.709 117.235 103.391 117.077 103.391 116.688C103.391 116.299 103.709 115.82 104.102 115.626C104.496 115.429 104.814 115.587 104.814 115.979Z" fill="#D1CDC3"/>
<path d="M106.97 114.905C106.97 115.297 106.652 115.772 106.259 115.967C105.865 116.161 105.547 116.003 105.547 115.614C105.547 115.225 105.865 114.746 106.259 114.552C106.652 114.354 106.97 114.513 106.97 114.905Z" fill="#E0DCD1"/>
<path d="M104.105 116.654V115.622L106.259 114.551V115.58L104.105 116.654Z" fill="#E0DCD1"/>
<path d="M104.105 115.622L106.448 116.782L108.601 115.709L106.259 114.551L104.105 115.622Z" fill="#D9D9D9"/>
<path d="M103.586 117.074L105.934 118.238L106.448 116.784L104.105 115.623L103.586 117.074Z" fill="#D9D9D9"/>
<path d="M108.601 115.709L106.448 116.783C106.055 116.977 105.736 117.453 105.736 117.845C105.736 118.236 106.055 118.395 106.448 118.198C106.724 118.06 106.959 117.785 107.079 117.498L107.974 117.052C108.091 117.222 108.328 117.261 108.604 117.124C108.998 116.929 109.316 116.454 109.316 116.062C109.316 115.67 108.995 115.514 108.601 115.709Z" fill="#F2F2F2"/>
<path d="M109.063 115.811C109.093 115.867 109.102 115.936 109.102 115.987C109.102 116.322 108.813 116.753 108.471 116.923C108.381 116.968 108.297 116.992 108.222 116.992C108.153 116.992 108.099 116.965 108.057 116.926L108.09 116.974C108.132 117.037 108.201 117.067 108.288 117.067C108.363 117.067 108.45 117.043 108.537 116.998C108.879 116.828 109.168 116.4 109.168 116.062C109.171 115.984 109.153 115.87 109.063 115.811Z" fill="#C9C9C9"/>
<path d="M106.898 117.319L106.877 117.37C106.766 117.64 106.553 117.879 106.315 117.996C106.225 118.04 106.138 118.064 106.06 118.064C105.997 118.064 105.952 118.046 105.916 118.022C105.949 118.088 106.012 118.142 106.129 118.142C106.204 118.142 106.291 118.118 106.384 118.073C106.622 117.957 106.835 117.714 106.946 117.448L106.967 117.397L108.009 116.877L107.952 116.793L106.898 117.319Z" fill="#C9C9C9"/>
<path d="M108.471 116.924C108.814 116.754 109.102 116.326 109.102 115.988C109.102 115.937 109.093 115.868 109.063 115.811C109.027 115.787 108.982 115.77 108.919 115.77C108.844 115.77 108.757 115.793 108.667 115.838L106.513 116.912C106.171 117.083 105.883 117.511 105.883 117.849C105.883 117.899 105.892 117.968 105.922 118.025C105.958 118.049 106.003 118.067 106.066 118.067C106.141 118.067 106.228 118.043 106.321 117.998C106.558 117.882 106.772 117.639 106.883 117.373L106.904 117.322L107.91 116.82L108.015 116.879L108.063 116.927C108.105 116.966 108.156 116.993 108.228 116.993C108.294 116.99 108.381 116.966 108.471 116.924Z" fill="#E6E6E6"/>
<path opacity="0.05" d="M105.919 118.378V119.159L106.304 119.186V137.85L106.049 138.176V139.289L105.919 139.561L105.37 139.983L105.16 140.124L104.622 140.662L103.697 140.202V139.397L104.106 139.194V138.676L104.853 138.305V137.467C104.853 137.467 104.856 137.207 105.04 137.114L105.022 118.809C105.022 118.809 104.826 118.609 104.853 118.471V117.879L105.919 118.378Z" fill="black"/>
<path d="M79.2835 128.047L81.5988 129.19L81.0973 129.235L79.0703 128.229L79.2835 128.047Z" fill="#E0DCD1"/>
<path d="M78.799 155.021L76.1895 153.723V152.918L78.799 154.216V155.021Z" fill="#C1977E"/>
<path d="M78.799 154.217L76.1895 152.918L78.799 151.617L81.4055 152.918L78.799 154.217Z" fill="#F0F0F0"/>
<path d="M81.4054 153.723L78.7988 155.021V154.216L81.4054 152.918V153.723Z" fill="#E4C7B5"/>
<path d="M78.7988 153.972L76.5977 152.874V152.195L78.7988 153.293V153.972Z" fill="#C1977E"/>
<path d="M78.7988 153.289L76.5977 152.195L78.7988 151.1L80.997 152.195L78.7988 153.289Z" fill="#F0F0F0"/>
<path d="M80.997 152.874L78.7988 153.972V153.293L80.997 152.195V152.874Z" fill="#E4C7B5"/>
<path d="M78.7991 150.986H77.3457V152.102H80.2495V150.986H78.7991Z" fill="#E6E6E6"/>
<path d="M78.7991 152.825C79.6018 152.825 80.2525 152.501 80.2525 152.101C80.2525 151.701 79.6018 151.377 78.7991 151.377C77.9964 151.377 77.3457 151.701 77.3457 152.101C77.3457 152.501 77.9964 152.825 78.7991 152.825Z" fill="#E6E6E6"/>
<path d="M78.7991 151.71C79.6018 151.71 80.2525 151.385 80.2525 150.986C80.2525 150.586 79.6018 150.262 78.7991 150.262C77.9964 150.262 77.3457 150.586 77.3457 150.986C77.3457 151.385 77.9964 151.71 78.7991 151.71Z" fill="#F0F0F0"/>
<path d="M78.7989 131.736H77.5137V150.735H80.0812V131.736H78.7989Z" fill="#E6E6E6"/>
<path d="M79.7055 150.284C80.207 150.532 80.207 150.939 79.7055 151.188C79.204 151.436 78.3932 151.436 77.8917 151.188C77.3903 150.939 77.3903 150.532 77.8917 150.284C78.3902 150.033 79.204 150.033 79.7055 150.284Z" fill="#E6E6E6"/>
<path d="M78.7998 132.376C79.508 132.376 80.0821 132.089 80.0821 131.736C80.0821 131.382 79.508 131.096 78.7998 131.096C78.0917 131.096 77.5176 131.382 77.5176 131.736C77.5176 132.089 78.0917 132.376 78.7998 132.376Z" fill="#D9CBBC"/>
<path d="M78.7991 130.871H77.3457V131.987H80.2495V130.871H78.7991Z" fill="#D9D9D9"/>
<path d="M78.7991 132.71C79.6018 132.71 80.2525 132.385 80.2525 131.986C80.2525 131.586 79.6018 131.262 78.7991 131.262C77.9964 131.262 77.3457 131.586 77.3457 131.986C77.3457 132.385 77.9964 132.71 78.7991 132.71Z" fill="#D9D9D9"/>
<path d="M78.7991 131.594C79.6018 131.594 80.2525 131.27 80.2525 130.87C80.2525 130.471 79.6018 130.146 78.7991 130.146C77.9964 130.146 77.3457 130.471 77.3457 130.87C77.3457 131.27 77.9964 131.594 78.7991 131.594Z" fill="#D9CBBC"/>
<path d="M78.7988 132.094L76.5977 130.996V130.146L78.7988 131.241V132.094Z" fill="#C1977E"/>
<path d="M78.7988 131.242L76.5977 130.147L78.7988 129.049L80.997 130.147L78.7988 131.242Z" fill="#D9CBBC"/>
<path d="M80.997 130.996L78.7988 132.094V131.241L80.997 130.146V130.996Z" fill="#E8CBB8"/>
<path d="M81.4054 130.097L78.7988 131.395V130.59L81.4054 129.289V130.097Z" fill="#F0ECE0"/>
<path d="M77.3101 129.5C77.3101 129.892 76.9918 130.368 76.5984 130.562C76.205 130.757 75.8867 130.598 75.8867 130.209C75.8867 129.818 76.205 129.342 76.5984 129.147C76.9918 128.95 77.3101 129.109 77.3101 129.5Z" fill="#D1CDC3"/>
<path d="M79.4624 128.426C79.4624 128.818 79.1441 129.294 78.7508 129.488C78.3574 129.683 78.0391 129.524 78.0391 129.135C78.0391 128.743 78.3574 128.268 78.7508 128.073C79.1441 127.879 79.4624 128.037 79.4624 128.426Z" fill="#E0DCD1"/>
<path d="M76.5977 130.177V129.148L78.7538 128.074V129.103L76.5977 130.177Z" fill="#E0DCD1"/>
<path d="M76.5977 129.148L78.9429 130.306L81.096 129.235L78.7538 128.074L76.5977 129.148Z" fill="#D9D9D9"/>
<path d="M76.082 130.597L78.4303 131.758L78.9438 130.304L76.5985 129.146L76.082 130.597Z" fill="#D9D9D9"/>
<path d="M81.0972 129.233L78.9441 130.307C78.5507 130.502 78.2324 130.977 78.2324 131.369C78.2324 131.761 78.5507 131.92 78.9441 131.722C79.2204 131.585 79.4546 131.31 79.5747 131.022L80.4696 130.577C80.5867 130.747 80.824 130.786 81.1002 130.648C81.4936 130.454 81.8119 129.978 81.8119 129.586C81.8119 129.195 81.4906 129.036 81.0972 129.233Z" fill="#F2F2F2"/>
<path d="M81.5607 129.332C81.5907 129.389 81.5997 129.458 81.5997 129.509C81.5997 129.844 81.3114 130.274 80.9691 130.445C80.879 130.49 80.7949 130.514 80.7198 130.514C80.6508 130.514 80.5967 130.49 80.5547 130.448L80.5877 130.496C80.6298 130.559 80.6988 130.588 80.7859 130.588C80.861 130.588 80.9481 130.565 81.0352 130.52C81.3775 130.349 81.6658 129.921 81.6658 129.583C81.6658 129.509 81.6478 129.392 81.5607 129.332Z" fill="#C9C9C9"/>
<path d="M79.3941 130.843L79.3731 130.894C79.2619 131.163 79.0487 131.402 78.8115 131.519C78.7214 131.564 78.6343 131.588 78.5563 131.588C78.4932 131.588 78.4481 131.57 78.4121 131.546C78.4451 131.612 78.5082 131.666 78.6253 131.666C78.7004 131.666 78.7875 131.642 78.8806 131.597C79.1178 131.48 79.331 131.238 79.4421 130.972L79.4631 130.921L80.5052 130.4L80.4481 130.316L79.3941 130.843Z" fill="#C9C9C9"/>
<path d="M80.9655 130.446C81.3078 130.275 81.5961 129.847 81.5961 129.509C81.5961 129.459 81.5871 129.39 81.5571 129.333C81.521 129.309 81.476 129.291 81.4129 129.291C81.3378 129.291 81.2508 129.315 81.1607 129.36L79.0076 130.434C78.6652 130.604 78.377 131.032 78.377 131.37C78.377 131.421 78.386 131.49 78.416 131.547C78.452 131.571 78.4971 131.589 78.5601 131.589C78.6352 131.589 78.7223 131.565 78.8154 131.52C79.0526 131.403 79.2658 131.161 79.3769 130.894L79.3979 130.844L80.4039 130.341L80.509 130.401L80.5571 130.449C80.5991 130.488 80.6502 130.515 80.7222 130.515C80.7913 130.515 80.8784 130.491 80.9655 130.446Z" fill="#E6E6E6"/>
<path opacity="0.05" d="M78.4116 131.902V132.683L78.796 132.71V151.374L78.5407 151.7V152.813L78.4116 153.085L77.8621 153.507L77.6519 153.647L77.1144 154.186L76.1895 153.725V152.92L76.5979 152.717V152.199L77.3456 151.828V150.991C77.3456 150.991 77.3486 150.731 77.5318 150.638L77.5137 132.333C77.5137 132.333 77.3186 132.132 77.3456 131.995V131.402L78.4116 131.902Z" fill="black"/>
<path d="M72.1543 133.685L118.925 110.357V107.016L72.1543 130.344V133.685Z" fill="#E8CBB8"/>
<path d="M72.1604 130.349L118.934 107.021L113.078 104.051L66.3047 127.376L72.1604 130.349Z" fill="#EDE3E2"/>
<path d="M66.2988 130.711L72.1545 133.684V130.343L66.2988 127.369V130.711Z" fill="#C1977E"/>
<path d="M61.7074 137.675V129.506L58.1309 127.723V135.893L61.7074 137.675Z" fill="#B8B8B8"/>
<path d="M58.3535 135.782L61.4856 137.343V129.616L58.3535 128.055V135.782Z" fill="#DBECFF"/>
<path d="M59.7949 136.504L60.0442 136.626V128.899L59.7949 128.773V136.504Z" fill="#B8B8B8"/>
<path d="M57.3223 136.293L58.1301 135.889V127.729L57.3223 128.129V136.293Z" fill="#9E7C67"/>
<path d="M60.7948 138.453H62.1191V128.776H60.7948V138.453Z" fill="#C1977E"/>
<path d="M57.3223 136.293L60.7937 138.028V137.22L58.1301 135.889L57.3223 136.293Z" fill="#D9AA8E"/>
<path d="M57.3223 128.129L62.1179 130.523V128.773L58.1301 127.729L57.3223 128.129Z" fill="#C1977E"/>
<path d="M60.7965 131.444L58.25 130.173V129.945L60.7965 131.214V131.444Z" fill="#B8B8B8"/>
<path d="M60.7965 135.384L58.25 134.115V133.885L60.7965 135.156V135.384Z" fill="#B8B8B8"/>
<path d="M61.7074 149.804V141.635L58.1309 139.852V148.021L61.7074 149.804Z" fill="#B8B8B8"/>
<path d="M58.3535 147.914L61.4856 149.472V141.745L58.3535 140.184V147.914Z" fill="#DBECFF"/>
<path d="M59.7949 148.632L60.0442 148.755V141.028L59.7949 140.902V148.632Z" fill="#B8B8B8"/>
<path d="M57.3223 148.422L58.1301 148.018V139.857L57.3223 140.261V148.422Z" fill="#9E7C67"/>
<path d="M60.7948 150.582H62.1191V140.904H60.7948V150.582Z" fill="#C1977E"/>
<path d="M57.3223 148.421L60.7937 150.157V149.349L58.1301 148.018L57.3223 148.421Z" fill="#D9AA8E"/>
<path d="M57.3223 140.261L62.1179 142.652V140.901L58.1301 139.857L57.3223 140.261Z" fill="#C1977E"/>
<path d="M60.7965 143.573L58.25 142.302V142.074L60.7965 143.343V143.573Z" fill="#B8B8B8"/>
<path d="M60.7965 147.512L58.25 146.244V146.014L60.7965 147.285V147.512Z" fill="#B8B8B8"/>
<path d="M66.2988 157.934V163.561L77.0373 168.999V163.372L66.2988 157.934Z" fill="#ABA2A1"/>
<path d="M78.6349 162.571L77.0373 163.373L66.2988 157.946L67.8153 157.189L78.6349 162.571Z" fill="#F2EAE8"/>
<path d="M78.6347 168.218L77.0371 168.999V163.372L78.6347 162.57V168.218Z" fill="#CBC1C0"/>
<path d="M113.384 133.928L110.922 135.248L113.51 135.765L118.258 135.248L114.309 133.381L113.384 133.928Z" fill="#F2EAE8"/>
<path d="M15.9922 118.553L91.1976 81.309V80.0137L15.9922 117.258V118.553Z" fill="#969389"/>
<path d="M15.9913 117.259L91.1938 80.0175L90.2598 79.5508L15.1055 116.768L15.9913 117.259Z" fill="#FAF6EA"/>
<path d="M15.9913 118.554L15.2406 118.129L15.1055 116.768L15.9913 117.258V118.554Z" fill="#969389"/>
<path d="M38.2124 129.688L15.0508 118.09V116.795L37.7139 128.091L38.2124 129.688Z" fill="#ABA2A1"/>
<path d="M37.7139 128.095L15.0508 116.796L15.9877 116.332L38.6508 127.628L37.7139 128.095Z" fill="#F2EAE8"/>
<path d="M38.2129 129.688L53.4498 122.086V120.791L38.2129 128.389V129.688Z" fill="#CBC1C0"/>
<path d="M38.212 128.39L54.2237 120.402L53.2868 119.936L37.3262 127.899L38.212 128.39Z" fill="#F2EAE8"/>
<path d="M38.212 129.687L37.4613 129.263L37.3262 127.898L38.212 128.389V129.687Z" fill="#ABA2A1"/>
<path d="M72.1545 131.587L53.2871 122.164V120.865L72.1545 130.289V131.587Z" fill="#ABA2A1"/>
<path d="M72.1545 130.292L53.2871 120.869L54.224 120.402L73.0914 129.826L72.1545 130.292Z" fill="#F2EAE8"/>
<path d="M113.078 93.2791L90.25 81.7797V80.4844L113.078 91.9838V93.2791Z" fill="#969389"/>
<path d="M113.079 91.9836L89.332 80.0175L90.2689 79.5508L114.016 91.5169L113.079 91.9836Z" fill="#FAF6EA"/>
<path d="M100.488 99.5239L114.016 92.811V91.5156L100.488 98.2256V99.5239Z" fill="#CBC1C0"/>
<path d="M100.487 98.2293L113.905 91.5702L112.968 91.1035L99.6016 97.7357L100.487 98.2293Z" fill="#F2EAE8"/>
<path d="M100.487 99.5253L99.7367 99.1005L99.6016 97.7363L100.487 98.2299V99.5253Z" fill="#969389"/>
<path d="M118.264 108.558L99.3965 99.1352V97.8398L118.264 107.263V108.558Z" fill="#969389"/>
<path d="M118.265 107.264L99.4004 97.8436L100.334 97.377L119.202 106.797L118.265 107.264Z" fill="#FAF6EA"/>
<path d="M72.1465 131.591L119.404 108.188V106.893L72.1465 130.295V131.591Z" fill="#CBC1C0"/>
<path d="M72.1456 130.296L119.403 106.896L118.466 106.43L71.2598 129.805L72.1456 130.296Z" fill="#F2EAE8"/>
<path d="M72.1456 131.591L71.3949 131.169L71.2598 129.805L72.1456 130.295V131.591Z" fill="#ABA2A1"/>
<path d="M18.3085 117.659L90.9584 81.7727V79.4453L17.1523 115.936L18.3085 117.659Z" fill="#CBC1C0"/>
<path d="M17.1496 115.936L90.9586 79.4457L90.0607 79L16.3027 115.467L17.1496 115.936Z" fill="#F2EAE8"/>
<path d="M17.1526 117.181L16.4319 116.774L16.3027 115.467L17.1496 115.936L17.1526 117.181Z" fill="#969389"/>
<path d="M37.695 127.389L16.248 116.737V115.492L37.695 126.145V127.389Z" fill="#ABA2A1"/>
<path d="M37.698 126.144L16.248 115.495L17.1459 115.049L38.5959 125.699L37.698 126.144Z" fill="#F2EAE8"/>
<path d="M38.1758 127.676L53.4427 120.057V118.812L38.1758 126.432V127.676Z" fill="#CBC1C0"/>
<path d="M38.176 126.431L54.1876 118.441L53.2898 117.992L37.3262 125.962L38.176 126.431Z" fill="#F2EAE8"/>
<path d="M38.176 127.675L37.4553 127.268L37.3262 125.961L38.176 126.431V127.675Z" fill="#ABA2A1"/>
<path d="M72.1185 129.523L53.2871 120.126V118.885L72.1185 128.278V129.523Z" fill="#ABA2A1"/>
<path d="M72.1194 128.282L53.291 118.885L54.1889 118.439L73.0173 127.833L72.1194 128.282Z" fill="#F2EAE8"/>
<path d="M109.819 92.1119L90.0508 82.192V79.8945L111.66 90.7388L109.819 92.1119Z" fill="#ABA2A1"/>
<path d="M111.661 90.7417L89.1719 79.4457L90.0697 79L112.559 90.293L111.661 90.7417Z" fill="#F2EAE8"/>
<path d="M99.0078 98.2534L112.557 91.5374V90.293L99.0078 97.0089V98.2534Z" fill="#CBC1C0"/>
<path d="M99.008 97.0123L112.449 90.3442L111.551 89.8984L98.1582 96.5396L99.008 97.0123Z" fill="#F2EAE8"/>
<path d="M99.008 98.2532L98.2873 97.8464L98.1582 96.5391L99.008 97.0117V98.2532Z" fill="#969389"/>
<path d="M116.792 107.28L114.789 107.016L97.9219 98.6011L97.9639 96.6387L116.792 106.035V107.28Z" fill="#ABA2A1"/>
<path d="M116.796 106.034L97.9648 96.6411L98.8627 96.1953L117.694 105.589L116.796 106.034Z" fill="#F2EAE8"/>
<path d="M72.1074 129.531L117.884 106.924V105.68L72.1074 128.287V129.531Z" fill="#CBC1C0"/>
<path d="M72.1076 128.286L117.884 105.682L116.986 105.236L71.2578 127.816L72.1076 128.286Z" fill="#F2EAE8"/>
<path d="M72.1085 129.531L71.3878 129.124L71.2617 127.855L72.1085 128.286V129.531Z" fill="#ABA2A1"/>
<path d="M24.2015 145.417V137.247L20.625 135.467V143.637L24.2015 145.417Z" fill="#B8B8B8"/>
<path d="M20.8477 143.526L23.9797 145.088V137.357L20.8477 135.799V143.526Z" fill="#DBECFF"/>
<path d="M22.2891 144.245L22.5383 144.367V136.64L22.2891 136.518V144.245Z" fill="#B8B8B8"/>
<path d="M19.8164 144.035L20.6242 143.635V135.471L19.8164 135.875V144.035Z" fill="#9E7C67"/>
<path d="M23.287 146.193H24.6113V136.516H23.287V146.193Z" fill="#C1977E"/>
<path d="M19.8164 144.034L23.2878 145.772V144.964L20.6242 143.633L19.8164 144.034Z" fill="#D9AA8E"/>
<path d="M19.8164 135.875L24.6121 138.265V136.518L20.6242 135.471L19.8164 135.875Z" fill="#C1977E"/>
<path d="M23.2917 139.184L20.7422 137.916V137.686L23.2917 138.957V139.184Z" fill="#B8B8B8"/>
<path d="M23.2917 143.128L20.7422 141.856V141.629L23.2917 142.897V143.128Z" fill="#B8B8B8"/>
<path d="M24.2015 133.379V125.21L20.625 123.43V131.6L24.2015 133.379Z" fill="#B8B8B8"/>
<path d="M20.8477 131.489L23.9797 133.05V125.32L20.8477 123.762V131.489Z" fill="#DBECFF"/>
<path d="M22.2891 132.208L22.5383 132.33V124.603L22.2891 124.48V132.208Z" fill="#B8B8B8"/>
<path d="M19.8164 131.998L20.6242 131.597V123.434L19.8164 123.837V131.998Z" fill="#9E7C67"/>
<path d="M23.287 134.156H24.6113V124.479H23.287V134.156Z" fill="#C1977E"/>
<path d="M19.8164 131.997L23.2878 133.735V132.927L20.6242 131.596L19.8164 131.997Z" fill="#D9AA8E"/>
<path d="M19.8164 123.837L24.6121 126.228V124.481L20.6242 123.434L19.8164 123.837Z" fill="#C1977E"/>
<path d="M23.2917 127.147L20.7422 125.879V125.648L23.2917 126.92V127.147Z" fill="#B8B8B8"/>
<path d="M23.2917 131.091L20.7422 129.819V129.592L23.2917 130.86V131.091Z" fill="#B8B8B8"/>
<path d="M34.5609 138.654V130.484L30.9844 128.701V136.871L34.5609 138.654Z" fill="#B8B8B8"/>
<path d="M31.207 136.76L34.3391 138.322V130.595L31.207 129.033V136.76Z" fill="#DBECFF"/>
<path d="M32.6484 137.479L32.8977 137.605V129.878L32.6484 129.752V137.479Z" fill="#B8B8B8"/>
<path d="M30.1758 137.269L30.9836 136.868V128.707L30.1758 129.108V137.269Z" fill="#9E7C67"/>
<path d="M33.6464 139.43H34.9707V129.752H33.6464V139.43Z" fill="#C1977E"/>
<path d="M30.1758 137.268L33.6472 139.006V138.198L30.9836 136.867L30.1758 137.268Z" fill="#D9AA8E"/>
<path d="M30.1758 129.108L34.9715 131.498V129.751L30.9836 128.707L30.1758 129.108Z" fill="#C1977E"/>
<path d="M33.6511 132.419L31.1016 131.15V130.92L33.6511 132.191V132.419Z" fill="#B8B8B8"/>
<path d="M33.6511 136.362L31.1016 135.091V134.863L33.6511 136.132V136.362Z" fill="#B8B8B8"/>
<path d="M34.5609 150.715V142.546L30.9844 140.766V148.935L34.5609 150.715Z" fill="#B8B8B8"/>
<path d="M31.207 148.825L34.3391 150.386V142.656L31.207 141.098V148.825Z" fill="#DBECFF"/>
<path d="M32.6484 149.544L32.8977 149.669V141.939L32.6484 141.816V149.544Z" fill="#B8B8B8"/>
<path d="M30.1758 149.334L30.9836 148.933V140.77L30.1758 141.173V149.334Z" fill="#9E7C67"/>
<path d="M33.6464 151.492H34.9707V141.815H33.6464V151.492Z" fill="#C1977E"/>
<path d="M30.1758 149.333L33.6472 151.071V150.263L30.9836 148.932L30.1758 149.333Z" fill="#D9AA8E"/>
<path d="M30.1758 141.173L34.9715 143.564V141.817L30.9836 140.77L30.1758 141.173Z" fill="#C1977E"/>
<path d="M33.6511 144.483L31.1016 143.215V142.984L33.6511 144.256V144.483Z" fill="#B8B8B8"/>
<path d="M33.6511 148.426L31.1016 147.155V146.928L33.6511 148.196V148.426Z" fill="#B8B8B8"/>
<path opacity="0.05" d="M104.619 140.661L101.121 140.565L98.7754 139.784V132.03L99.0306 131.904L98.8925 125.562L101.34 124.336L100.91 124.551L101.031 130.908L100.805 131.019V138.803L101.472 138.994L104.103 139.189L103.694 139.392V140.2L104.619 140.661Z" fill="black"/>
<path d="M43.6973 138.128V129.958L47.2738 128.178V136.348L43.6973 138.128Z" fill="#B8B8B8"/>
<path d="M47.052 136.236L43.9199 137.795V130.067L47.052 128.506V136.236Z" fill="#DBECFF"/>
<path d="M45.6106 136.955L45.3613 137.077V129.35L45.6106 129.225V136.955Z" fill="#B8B8B8"/>
<path d="M48.0812 136.746L47.2734 136.343V128.182L48.0812 128.585V136.746Z" fill="#C1977E"/>
<path d="M44.6095 129.225H43.2852V138.902H44.6095V129.225Z" fill="#E4C7B5"/>
<path d="M48.0808 136.746L44.6094 138.481V137.673L47.273 136.342L48.0808 136.746Z" fill="#F7D8C4"/>
<path d="M48.0808 128.585L43.2852 130.976V129.226L47.273 128.182L48.0808 128.585Z" fill="#E4C7B5"/>
<path d="M44.6055 131.895L47.155 130.627V130.396L44.6055 131.665V131.895Z" fill="#B8B8B8"/>
<path d="M44.6055 135.837L47.155 134.568V134.338L44.6055 135.609V135.837Z" fill="#B8B8B8"/>
<path opacity="0.05" d="M46.7925 129.224L44.6094 137.672L48.0808 136.745V128.584L46.7925 129.224Z" fill="black"/>
<path d="M43.6973 150.193V142.023L47.2738 140.24V148.41L43.6973 150.193Z" fill="#B8B8B8"/>
<path d="M47.052 148.299L43.9199 149.861V142.134L47.052 140.572V148.299Z" fill="#DBECFF"/>
<path d="M45.6106 149.018L45.3613 149.144V141.417L45.6106 141.291V149.018Z" fill="#B8B8B8"/>
<path d="M48.0812 148.811L47.2734 148.407V140.246L48.0812 140.647V148.811Z" fill="#C1977E"/>
<path d="M44.6095 141.291H43.2852V150.969H44.6095V141.291Z" fill="#E4C7B5"/>
<path d="M48.0808 148.81L44.6094 150.545V149.737L47.273 148.406L48.0808 148.81Z" fill="#F7D8C4"/>
<path d="M48.0808 140.647L43.2852 143.04V141.29L47.273 140.246L48.0808 140.647Z" fill="#E4C7B5"/>
<path d="M44.6055 143.962L47.155 142.69V142.463L44.6055 143.731V143.962Z" fill="#B8B8B8"/>
<path d="M44.6055 147.901L47.155 146.633V146.402L44.6055 147.674V147.901Z" fill="#B8B8B8"/>
<path opacity="0.05" d="M46.7925 141.315L44.6094 149.763L48.0808 148.836V140.672L46.7925 141.315Z" fill="black"/>
<path opacity="0.05" d="M120.519 136.83L118.895 137.644V139.25L120.828 140.411V142.068L122.672 143.307V145.338L125.399 144.539V139.328L120.519 136.83Z" fill="black"/>
<path opacity="0.05" d="M77.0367 169.001L39.1367 164.14L53.1454 157.053L77.0367 169.001Z" fill="black"/>
<path opacity="0.05" d="M38.3594 131.731L53.29 123.762L72.1454 132.736V131.59L53.287 122.164L38.3594 129.613V131.731Z" fill="black"/>
<path opacity="0.05" d="M38.3603 131.732L16.7271 121.285L16.7031 118.916L38.0209 129.578L38.2131 129.688L38.3603 129.614V131.732Z" fill="black"/>
<path opacity="0.05" d="M72.1465 132.736L118.935 109.244L118.926 108.424L72.1465 131.59V132.736Z" fill="black"/>
<path opacity="0.05" d="M112.876 107.264L88.0391 102.786L97.9217 97.6523V98.6007L114.086 106.666L112.876 107.264Z" fill="black"/>
<path opacity="0.05" d="M79.5325 87.5169L107.346 91.9833L110.757 90.2931L90.0518 79.8945L79.4395 85.2374L79.5325 87.5169Z" fill="black"/>
<path opacity="0.05" d="M76.1901 153.723V152.918L74.8478 153.083L73.028 153.17L72.995 150.573L71.8629 151.138V144.796C71.938 144.102 72.8449 143.157 72.8449 143.157L72.7397 138.679L71.935 139.083L71.9139 139.178L71.935 136.791L70.5176 137.44L70.8839 154.226L73.3674 154.707L77.115 154.184L76.1901 153.723Z" fill="black"/>
</g>
<defs>
<clipPath id="clip0_176_146050">
<rect width="22.0014" height="23.7883" fill="white" transform="translate(239 34.1055)"/>
</clipPath>
<clipPath id="clip1_176_146050">
<rect width="127" height="90" fill="white" transform="translate(0 79)"/>
</clipPath>
</defs>
</svg>
