<svg width="488" height="159" viewBox="0 0 488 159" fill="none" xmlns="http://www.w3.org/2000/svg">
<path d="M3.03906 124.307L50.0886 97.8398L106.076 129.745L59.1548 156.803L3.03906 124.307Z" fill="#3B495C"/>
<path d="M106.076 129.746V131.944L59.1543 159.001V156.803L106.076 129.746Z" fill="#233143"/>
<path d="M3.03906 124.307V126.505L59.1548 159V156.802L3.03906 124.307Z" fill="#233143"/>
<path d="M50.6332 73.3633L10.4199 96.1934V123.15L50.6332 100.027V73.3633Z" fill="#C6C3C1"/>
<path d="M12.7361 96.6875L11.123 97.6014V124.563L12.7361 123.635V96.6875Z" fill="#FBAD32"/>
<path opacity="0.5" d="M23.3063 104.168L11.9277 110.712V113.609L25.8424 105.612L23.3063 104.168Z" fill="white"/>
<path opacity="0.5" d="M26.8843 106.201L11.9277 114.801V115.642L27.62 106.617L26.8843 106.201Z" fill="white"/>
<path opacity="0.5" d="M11.9277 97.7109V98.666L12.764 98.1862L11.9277 97.7109Z" fill="white"/>
<path opacity="0.5" d="M11.9277 124.096L30.1973 134.597V108.083L30.1105 108.033L11.9277 118.484V124.096Z" fill="white"/>
<path opacity="0.5" d="M28.141 106.914L11.9277 116.236V117.89L29.585 107.737L28.141 106.914Z" fill="white"/>
<path d="M41.8172 99.0491V98.4551L27.6191 106.617L28.1401 106.914L41.8172 99.0491Z" fill="white"/>
<path opacity="0.8" d="M27.62 106.617L11.9277 115.642V116.236L28.141 106.914L27.62 106.617Z" fill="white"/>
<path d="M41.9607 100.621L29.5859 107.736L30.1115 108.033L41.9607 101.215V100.621Z" fill="white"/>
<path opacity="0.8" d="M11.9277 117.89V118.484L30.1105 108.033L29.585 107.736L11.9277 117.89Z" fill="white"/>
<path d="M41.8174 97.6146V96.4219L25.8418 105.612L26.8837 106.201L41.8174 97.6146Z" fill="white"/>
<path opacity="0.8" d="M25.8424 105.611L11.9277 113.608V114.801L26.8843 106.201L25.8424 105.611Z" fill="white"/>
<path d="M35.6212 97.0848V85.0391L12.7637 98.1861L23.3059 104.168L35.6212 97.0848Z" fill="white"/>
<path opacity="0.8" d="M12.764 98.1855L11.9277 98.6654V110.711L23.3063 104.167L12.764 98.1855Z" fill="white"/>
<path d="M99.4047 102.445L59.1914 125.275V152.232L99.4047 129.109V102.445Z" fill="#FBAD32"/>
<path d="M40.5936 112.736L38.9805 113.655V140.611L40.5936 139.684V112.736Z" fill="#FBAD32"/>
<path d="M11.1511 97.999L9.69336 97.1719V123.767L11.1511 124.608V97.999Z" fill="#FBAD32"/>
<path d="M29.6621 108.51V135.252L38.9797 140.612V113.801L29.6621 108.51Z" fill="#FBAD32"/>
<path opacity="0.5" d="M53.5799 121.445L39.9531 129.282V130.119L54.3157 121.861L53.5799 121.445Z" fill="white"/>
<path opacity="0.5" d="M54.8366 122.158L39.9531 130.713V132.367L56.2852 122.976L54.8366 122.158Z" fill="white"/>
<path opacity="0.5" d="M50.0019 119.412L39.9531 125.188V128.09L52.538 120.852L50.0019 119.412Z" fill="white"/>
<path opacity="0.5" d="M39.9531 140.09L58.2182 150.591V124.078L56.8061 123.273L39.9531 132.966V140.09Z" fill="white"/>
<path opacity="0.8" d="M54.3157 121.861L39.9531 130.119V130.713L54.8366 122.158L54.3157 121.861Z" fill="white"/>
<path opacity="0.8" d="M39.9531 132.367V132.966L56.8061 123.274L56.2852 122.977L39.9531 132.367Z" fill="white"/>
<path opacity="0.8" d="M52.538 120.852L39.9531 128.09V129.283L53.5799 121.446L52.538 120.852Z" fill="white"/>
<path opacity="0.8" d="M39.9531 113.705V125.189L50.0019 119.413L39.9531 113.705Z" fill="white"/>
<path d="M49.1786 119.002L48.6074 118.678V145.059L49.1786 145.388V119.002Z" fill="#888D9A"/>
<path d="M57.2344 124.166V151.109L59.1902 152.233V125.276L57.2344 124.166Z" fill="#FBAD32"/>
<path d="M59.1906 125.889L56.1289 118.678L99.4038 93.8281V103.086L59.1906 125.889Z" fill="#BECCC6"/>
<path d="M99.4053 93.8271L53.4891 120.468L9.74805 95.687L55.5866 69L99.4053 93.8271Z" fill="white"/>
<path d="M93.9581 94.655L95.4707 93.7822L55.8241 70.8652L16.7441 93.5355L18.3618 94.4905L55.9292 72.6977L93.9581 94.655Z" fill="#7C8982"/>
<path d="M93.9569 94.6546L55.928 72.6973L23.4375 91.5427L61.4116 113.473L93.9569 94.6546Z" fill="#A2AAA6"/>
<path d="M56.3263 116.416L61.4123 113.473L23.4383 91.543L18.3613 94.4904L56.3263 116.416Z" fill="#8C9993"/>
<path d="M10.1502 88.498V89.1881L3.03516 93.2962V92.6062L10.1502 88.498Z" fill="#243954"/>
<path d="M10.1502 94.9648V95.6594L3.03516 99.7676V99.073L10.1502 94.9648Z" fill="#243954"/>
<path d="M8.7832 87.3145L58.2866 115.418V126.399L8.7832 97.9344V87.3145Z" fill="#243954"/>
<path d="M9.69257 86.8262L8.7832 87.3151L58.2866 115.419L59.1914 114.93L9.69257 86.8262Z" fill="#243954"/>
<path d="M58.2871 126.4L59.1919 125.911V114.93L58.2871 115.419V126.4Z" fill="#243954"/>
<path d="M31.8594 118.782L37.4572 122.012V120.152L31.8594 117.004V118.782Z" fill="white"/>
<path d="M54.2155 138.762L50.8613 136.842V130.879L54.2155 132.798V138.762Z" fill="#243954"/>
<path d="M53.8908 133.104L51.1855 131.555V131.92L53.8908 133.469V133.104Z" fill="white"/>
<path d="M53.8908 133.84L51.1855 132.291V132.661L53.8908 134.21V133.84Z" fill="white"/>
<path d="M51.3223 134.252C51.3223 133.731 51.5279 133.544 51.8112 133.708C52.0945 133.873 52.3002 134.298 52.3002 134.819C52.3002 135.344 52.0945 135.536 51.8112 135.372C51.5233 135.207 51.3223 134.778 51.3223 134.252ZM51.9894 134.641C51.9894 134.27 51.9072 134.097 51.8067 134.037C51.7061 133.978 51.6284 134.06 51.6284 134.43C51.6284 134.805 51.7107 134.983 51.8067 135.043C51.9072 135.097 51.9894 135.011 51.9894 134.641ZM51.8798 136.464L52.9399 134.362L53.1913 134.508L52.1357 136.615L51.8798 136.464ZM52.7663 136.139C52.7663 135.618 52.9765 135.431 53.2552 135.596C53.5386 135.76 53.7442 136.185 53.7442 136.706C53.7442 137.232 53.5386 137.423 53.2552 137.259C52.9719 137.094 52.7663 136.665 52.7663 136.139ZM53.438 136.528C53.438 136.153 53.3558 135.984 53.2598 135.925C53.1593 135.865 53.077 135.943 53.077 136.318C53.077 136.692 53.1593 136.871 53.2598 136.93C53.3558 136.985 53.438 136.903 53.438 136.528Z" fill="white"/>
<path d="M47.2188 130.316L45.2676 129.201V125.729L47.2188 126.844V130.316Z" fill="#243954"/>
<path d="M28.0859 127.395L21.1445 123.42V111.072L28.0859 115.048V127.395Z" fill="#243954"/>
<path d="M27.6697 117.278L21.7383 113.883V114.573L27.6697 117.968V117.278Z" fill="white"/>
<path d="M27.6697 116.04L21.7383 112.645V113.335L27.6697 116.73V116.04Z" fill="white"/>
<path d="M8.36203 87.2891L0.662109 91.6623V102.643L8.36203 98.2152V87.2891Z" fill="#243954"/>
<path d="M8.36203 92.123L0.662109 96.4962V97.1497L8.36203 92.7262V92.123Z" fill="white"/>
<path d="M8.36203 93.6035L0.662109 97.9721V98.6302L8.36203 94.2021V93.6035Z" fill="white"/>
<path d="M8.36203 95.0117L0.662109 99.3849V100.038L8.36203 95.6103V95.0117Z" fill="white"/>
<path d="M0 102.25L0.662605 102.643V91.6625L0 91.2695V102.25Z" fill="#243954"/>
<path d="M8.36253 87.2888L7.69992 86.9004L0 91.269L0.662605 91.662L8.36253 87.2888Z" fill="#243954"/>
<rect x="166" width="322" height="141" rx="18" fill="#006DB7"/>
<path d="M110 102L221.5 66.026L189.5 42L110 102Z" fill="#006DB7"/>
<rect x="191.048" y="49.5476" width="41.9048" height="41.9048" rx="20.9524" fill="#FFB600"/>
<rect x="191.048" y="49.5476" width="41.9048" height="41.9048" rx="20.9524" stroke="white" stroke-width="2.09524"/>
<path d="M200.375 78.8886C200.375 78.9261 200.379 78.9599 200.39 78.9936C200.39 79.0049 200.398 79.0161 200.401 79.0274C200.413 79.0574 200.431 79.0874 200.454 79.1136C200.458 79.1211 200.461 79.1249 200.465 79.1324C200.465 79.1324 200.469 79.1324 200.472 79.1361C200.499 79.1661 200.529 79.1924 200.566 79.2111C202.205 80.0699 206.255 81.5661 206.424 81.6261C206.439 81.6299 206.45 81.6299 206.465 81.6336C206.472 81.6336 206.48 81.6411 206.491 81.6449C206.589 81.6599 206.713 81.6674 206.855 81.6674C209.938 81.6674 222.789 78.0411 223.359 77.8799C223.531 77.8311 223.644 77.6624 223.621 77.4824C223.014 72.7236 221.375 64.9574 221.36 64.8786C221.36 64.8749 221.356 64.8711 221.356 64.8674C221.345 64.8299 221.33 64.7961 221.311 64.7624C221.308 64.7549 221.304 64.7474 221.3 64.7436C221.278 64.7099 221.244 64.6799 221.21 64.6574C221.195 64.6461 221.176 64.6386 221.157 64.6311C221.142 64.6236 221.128 64.6124 221.109 64.6086L217.625 63.5849C216.267 60.5474 214.318 59.0849 211.989 59.3586C211.501 59.4149 211.051 59.5499 210.642 59.7561C210.436 59.7186 210.222 59.6961 210.001 59.6924C208.899 59.6811 207.961 60.1161 207.226 60.9824C206.341 62.0136 205.786 63.6674 205.561 65.8911C203.615 66.2361 202.186 66.4799 202.164 66.4836C202.149 66.4836 202.141 66.4949 202.126 66.4986C202.119 66.4986 202.107 66.4986 202.1 66.4986C202.089 66.4986 202.081 66.5099 202.074 66.5174C202.044 66.5324 202.018 66.5474 201.995 66.5661C201.98 66.5774 201.969 66.5886 201.957 66.6036C201.935 66.6261 201.92 66.6524 201.905 66.6824C201.901 66.6936 201.89 66.7011 201.886 66.7124C201.159 68.6249 200.409 78.4461 200.379 78.8624V78.8661V78.8849L200.375 78.8886ZM206.533 66.4574C206.574 66.4499 206.615 66.4424 206.66 66.4349C207.151 66.3449 207.661 66.2549 208.182 66.1574C208.197 66.5436 208.227 66.9411 208.273 67.3536C206.499 67.6986 205.344 67.8899 204.837 67.9199L203.281 67.0274C204.054 66.8924 205.213 66.6936 206.536 66.4536L206.533 66.4574ZM208.16 65.4224C207.995 65.4524 207.83 65.4824 207.665 65.5124C207.823 64.3986 208.081 63.5099 208.422 62.8911C208.246 63.6261 208.156 64.4736 208.156 65.4224H208.16ZM203.416 76.9686L205.674 80.5724C204.504 80.1261 202.584 79.3761 201.38 78.8061L203.42 76.9724L203.416 76.9686ZM203.859 76.3049V68.2011L204.406 68.5161C204.552 69.9261 205.201 75.9861 205.749 79.3236L203.859 76.3086V76.3049ZM202.438 67.3874L203.131 67.7849V76.2486L201.17 78.0149C201.361 75.6749 201.905 69.4724 202.434 67.3874H202.438ZM206.806 80.9511C206.405 79.6761 205.606 73.0086 205.145 68.6286C205.76 68.5611 206.803 68.3849 208.351 68.0811C208.475 68.9549 208.621 69.6336 208.707 70.0049C208.831 70.4849 209.262 70.8224 209.757 70.8224C209.847 70.8224 209.938 70.8111 210.024 70.7886C210.597 70.6424 210.954 70.0574 210.811 69.4761C210.688 68.9774 210.568 68.3174 210.477 67.6499C212.142 67.3049 214.108 66.8849 216.331 66.3899C216.519 67.0536 216.68 67.7474 216.796 68.4111C216.796 68.4261 216.8 68.4374 216.804 68.4486C216.845 68.7336 216.995 68.9849 217.227 69.1574C217.46 69.3299 217.741 69.4049 218.03 69.3599C218.319 69.3186 218.57 69.1649 218.743 68.9324C218.915 68.6999 218.986 68.4149 218.945 68.1299C218.93 68.0211 218.791 67.1099 218.454 65.9099C219.481 65.6774 220.287 65.4936 220.722 65.3924C221.045 66.9449 222.305 73.1174 222.856 77.2649C218.761 78.4161 208.955 81.0261 206.802 80.9399L206.806 80.9511ZM211.805 61.6161C211.839 61.6049 211.869 61.5899 211.903 61.5824C212.007 61.5524 212.12 61.5261 212.236 61.5111C212.263 61.5111 212.292 61.5111 212.319 61.5074C212.911 62.1636 213.395 63.1049 213.755 64.3161C213.736 64.3199 213.714 64.3236 213.695 64.3311C213.523 64.3686 213.342 64.4061 213.159 64.4474C212.773 63.1799 212.236 62.2724 211.565 61.7286C211.58 61.7211 211.591 61.7136 211.602 61.7061C211.666 61.6724 211.734 61.6461 211.805 61.6199V61.6161ZM210.403 66.9261C210.365 66.5286 210.339 66.1349 210.331 65.7524C211.318 65.5611 212.199 65.3849 212.971 65.2236H212.979C213.069 65.2049 213.155 65.1861 213.245 65.1674C213.372 65.1411 213.492 65.1149 213.612 65.0886C213.627 65.0886 213.642 65.0811 213.657 65.0774C213.815 65.0436 213.969 65.0099 214.115 64.9761C214.171 64.9649 214.231 64.9499 214.287 64.9386C214.842 64.8149 215.319 64.7024 215.709 64.6011C215.851 64.9349 215.99 65.2986 216.118 65.6886C213.95 66.1724 212.03 66.5849 210.399 66.9224L210.403 66.9261ZM214.464 64.1586C214.171 63.1649 213.8 62.3286 213.35 61.6574C214.111 61.9724 214.801 62.7374 215.401 63.9336C215.127 64.0011 214.813 64.0761 214.46 64.1586H214.464ZM211.003 62.2424C211.003 62.2424 211.014 62.2311 211.017 62.2236C211.599 62.6474 212.086 63.4574 212.443 64.5936C211.805 64.7249 211.1 64.8636 210.328 65.0136C210.369 63.7799 210.597 62.8236 211.003 62.2424ZM218.24 65.2236C218.154 64.9611 218.068 64.7024 217.974 64.4511L219.575 64.9236C219.193 65.0099 218.743 65.1149 218.244 65.2274L218.24 65.2236ZM212.071 60.0861C212.229 60.0674 212.382 60.0599 212.536 60.0599C214.378 60.0599 215.885 61.3949 217.029 64.0386C217.257 64.5786 217.468 65.1599 217.651 65.7599C218.052 67.0874 218.21 68.1299 218.225 68.2461C218.24 68.3399 218.214 68.4336 218.157 68.5124C218.101 68.5874 218.019 68.6399 217.921 68.6511C217.827 68.6661 217.737 68.6399 217.659 68.5836C217.584 68.5274 217.535 68.4449 217.52 68.3474C217.52 68.3361 217.513 68.3061 217.513 68.2949C217.374 67.4886 217.175 66.6486 216.935 65.8574C216.721 65.1674 216.5 64.5711 216.249 64.0274C215.266 61.8674 214.01 60.7724 212.517 60.7724C212.499 60.7724 212.484 60.7724 212.465 60.7724C212.364 60.7649 212.255 60.7799 212.15 60.7911C211.554 60.8624 211.055 61.0986 210.68 61.4924C210.68 61.4924 210.68 61.4924 210.676 61.4961C210.579 61.5936 210.489 61.7061 210.403 61.8261C209.859 62.6099 209.585 63.8324 209.589 65.4561C209.589 66.0824 209.634 66.7386 209.712 67.4061C209.806 68.2049 209.953 69.0449 210.106 69.6486C210.151 69.8399 210.035 70.0311 209.847 70.0799C209.671 70.1249 209.461 70.0086 209.413 69.8099C209.341 69.4986 209.158 68.6624 209.023 67.6011C208.94 66.9374 208.895 66.3036 208.884 65.7149C208.85 64.0386 209.094 62.7111 209.604 61.7699C209.682 61.6236 209.746 61.5186 209.818 61.4174C209.889 61.3124 209.968 61.2149 210.046 61.1211C210.286 60.8436 210.564 60.6186 210.868 60.4499C211.227 60.2549 211.629 60.1274 212.071 60.0786V60.0861ZM207.774 61.4586C208.299 60.8399 208.944 60.4986 209.698 60.4349C209.653 60.4799 209.611 60.5286 209.566 60.5774C209.536 60.6111 209.506 60.6411 209.476 60.6749C209.386 60.7799 209.3 60.8924 209.217 61.0086C209.18 61.0611 209.142 61.1211 209.105 61.1811C209.094 61.1999 209.083 61.2186 209.071 61.2374C209.056 61.2636 209.041 61.2861 209.026 61.3124C208.715 61.4474 208.434 61.6611 208.182 61.9499C207.549 62.6924 207.121 63.9374 206.908 65.6549C206.758 65.6811 206.611 65.7074 206.461 65.7374C206.405 65.7486 206.349 65.7561 206.293 65.7674C206.51 63.8211 207.016 62.3399 207.77 61.4624L207.774 61.4586Z" fill="white"/>
<path d="M216.514 72.8254C216.158 72.5217 215.64 72.3567 214.984 72.3267L213.975 72.2854C213.645 72.2704 213.552 72.2104 213.54 72.2029C213.529 72.1954 213.507 72.1804 213.507 72.0979C213.507 72.0154 213.518 71.8879 213.668 71.7417C213.799 71.6142 214.005 71.5204 214.275 71.4717C214.515 71.4267 214.714 71.4117 214.868 71.4304C215.033 71.4492 215.19 71.4792 215.322 71.5204C215.558 71.5954 215.775 71.5992 215.967 71.5279C216.15 71.4604 216.297 71.3442 216.402 71.1867C216.499 71.0442 216.555 70.8867 216.574 70.7142C216.593 70.5304 216.559 70.3579 216.473 70.1967C216.383 70.0242 216.24 69.8967 216.072 69.8254C215.82 69.6979 215.532 69.6154 215.213 69.5817C215.13 69.5742 215.052 69.5667 214.969 69.5629L214.958 69.3904C214.943 69.1467 214.842 68.9404 214.658 68.7942C214.474 68.6479 214.249 68.5954 214.009 68.6367C213.777 68.6779 213.578 68.7942 213.432 68.9779C213.285 69.1617 213.21 69.3754 213.222 69.6042L213.233 69.8854C212.978 69.9904 212.745 70.1217 212.543 70.2754C212.198 70.5342 211.924 70.8454 211.729 71.2054C211.527 71.5804 211.425 71.9892 211.425 72.4204C211.425 73.0129 211.605 73.4854 211.954 73.8192C212.299 74.1492 212.809 74.3292 213.469 74.3592L214.5 74.4042C214.718 74.4117 214.838 74.4379 214.902 74.4642C214.984 74.4942 215.003 74.5204 215.007 74.5242C215.025 74.5542 215.04 74.5954 215.044 74.6517C215.052 74.7342 215.033 74.8092 214.995 74.8842C214.954 74.9592 214.875 75.0379 214.759 75.1092C214.624 75.1954 214.433 75.2629 214.185 75.3117C213.837 75.3829 213.54 75.3979 213.304 75.3642C213.057 75.3267 212.865 75.2817 212.734 75.2292C212.415 75.1092 212.172 75.1692 212.022 75.2404C211.834 75.3304 211.68 75.4692 211.568 75.6567C211.463 75.8329 211.399 76.0242 211.38 76.2267C211.362 76.4367 211.392 76.6354 211.47 76.8229C211.564 77.0442 211.74 77.2054 211.969 77.2879C212.22 77.3892 212.524 77.4604 212.892 77.5092C213.079 77.5354 213.282 77.5392 213.503 77.5317L213.514 77.8242C213.525 78.1092 213.627 78.3529 213.814 78.5292C213.972 78.6792 214.17 78.7579 214.384 78.7579C214.448 78.7579 214.512 78.7504 214.575 78.7392C214.842 78.6829 215.063 78.5292 215.217 78.2892C215.359 78.0679 215.427 77.8204 215.408 77.5542L215.382 77.0967C215.674 76.9579 215.937 76.7854 216.162 76.5904C216.51 76.2904 216.777 75.9304 216.953 75.5217C217.129 75.1167 217.197 74.6742 217.155 74.2129C217.103 73.6167 216.885 73.1554 216.51 72.8367L216.514 72.8254ZM216.289 75.2179C216.154 75.5254 215.955 75.7954 215.689 76.0242C215.464 76.2192 215.187 76.3842 214.872 76.5117C214.725 76.5717 214.635 76.7142 214.647 76.8679L214.688 77.5767C214.695 77.6892 214.669 77.7867 214.609 77.8767C214.545 77.9742 214.478 77.9967 214.429 78.0079C214.358 78.0229 214.335 78.0042 214.317 77.9854C214.287 77.9592 214.249 77.9067 214.242 77.7829L214.219 77.1117C214.219 77.0104 214.17 76.9129 214.092 76.8492C214.024 76.7929 213.942 76.7629 213.855 76.7629C213.84 76.7629 213.825 76.7629 213.81 76.7629C213.495 76.8004 213.222 76.8042 212.989 76.7742C212.685 76.7329 212.434 76.6729 212.228 76.5942C212.164 76.5717 212.149 76.5454 212.138 76.5192C212.108 76.4479 212.097 76.3654 212.104 76.2754C212.112 76.1817 212.138 76.0992 212.187 76.0204C212.228 75.9529 212.273 75.9117 212.333 75.8817C212.363 75.8667 212.412 75.8704 212.464 75.8929C212.644 75.9642 212.884 76.0242 213.192 76.0692C213.51 76.1179 213.889 76.0992 214.32 76.0129C214.658 75.9454 214.928 75.8479 215.138 75.7129C215.363 75.5704 215.528 75.4017 215.629 75.2142C215.73 75.0192 215.775 74.8129 215.76 74.5954C215.749 74.4079 215.693 74.2392 215.595 74.1004C215.494 73.9504 215.337 73.8417 215.134 73.7704C214.969 73.7104 214.763 73.6804 214.515 73.6729L213.488 73.6279C213.012 73.6092 212.659 73.4929 212.445 73.2904C212.243 73.0954 212.142 72.8104 212.142 72.4167C212.142 72.1017 212.213 71.8167 212.359 71.5467C212.505 71.2767 212.708 71.0479 212.97 70.8492C213.18 70.6917 213.428 70.5642 213.713 70.4704C213.867 70.4179 213.968 70.2754 213.96 70.1142L213.942 69.5704C213.942 69.5179 213.957 69.4729 213.994 69.4279C214.032 69.3829 214.073 69.3567 214.129 69.3492C214.178 69.3417 214.189 69.3492 214.2 69.3567C214.212 69.3679 214.227 69.3754 214.227 69.4242L214.257 69.9454C214.268 70.1442 214.44 70.2979 214.639 70.2867C214.819 70.2754 214.973 70.2792 215.13 70.2979C215.359 70.3204 215.562 70.3804 215.753 70.4742C215.809 70.4967 215.82 70.5229 215.828 70.5342C215.847 70.5679 215.854 70.6017 215.847 70.6392C215.843 70.6917 215.824 70.7367 215.794 70.7817C215.779 70.8042 215.757 70.8267 215.708 70.8492C215.697 70.8529 215.652 70.8642 215.539 70.8304C215.355 70.7742 215.157 70.7367 214.943 70.7142C214.718 70.6917 214.455 70.7067 214.144 70.7629C213.728 70.8379 213.398 70.9954 213.162 71.2242C212.903 71.4754 212.772 71.7867 212.779 72.1204C212.79 72.4879 212.97 72.6942 213.117 72.7992C213.3 72.9304 213.559 72.9979 213.942 73.0167L214.95 73.0579C215.445 73.0804 215.813 73.1929 216.045 73.3879C216.27 73.5792 216.402 73.8679 216.435 74.2729C216.465 74.6179 216.417 74.9292 216.289 75.2254V75.2179Z" fill="white"/>
<path d="M262.141 35.2891C262.055 34.4827 261.692 33.8549 261.052 33.4055C260.418 32.9562 259.593 32.7315 258.577 32.7315C257.863 32.7315 257.251 32.8393 256.74 33.0547C256.229 33.2701 255.838 33.5625 255.567 33.9318C255.297 34.3011 255.158 34.7228 255.152 35.1967C255.152 35.5907 255.241 35.9323 255.42 36.2216C255.604 36.5109 255.854 36.7571 256.168 36.9602C256.482 37.1572 256.829 37.3234 257.211 37.4588C257.593 37.5942 257.977 37.7081 258.365 37.8004L260.138 38.2436C260.852 38.4098 261.538 38.6345 262.197 38.9176C262.862 39.2008 263.455 39.5578 263.979 39.9886C264.508 40.4195 264.927 40.9396 265.234 41.549C265.542 42.1584 265.696 42.8724 265.696 43.6911C265.696 44.799 265.413 45.7746 264.847 46.6179C264.28 47.455 263.462 48.1106 262.391 48.5845C261.326 49.0523 260.036 49.2862 258.522 49.2862C257.051 49.2862 255.774 49.0585 254.69 48.603C253.613 48.1475 252.77 47.4827 252.161 46.6087C251.557 45.7346 251.231 44.6697 251.182 43.4141H254.552C254.601 44.0727 254.804 44.6205 255.161 45.0575C255.518 45.4946 255.983 45.8208 256.555 46.0362C257.134 46.2517 257.78 46.3594 258.494 46.3594C259.239 46.3594 259.892 46.2486 260.452 46.027C261.018 45.7992 261.461 45.4853 261.781 45.0852C262.101 44.679 262.264 44.205 262.271 43.6634C262.264 43.1709 262.12 42.7647 261.837 42.4446C261.554 42.1184 261.156 41.8475 260.646 41.6321C260.141 41.4105 259.55 41.2135 258.873 41.0412L256.722 40.4872C255.164 40.0871 253.933 39.4808 253.028 38.6683C252.13 37.8497 251.68 36.7633 251.68 35.4091C251.68 34.295 251.982 33.3194 252.585 32.4822C253.195 31.6451 254.022 30.9957 255.069 30.5341C256.115 30.0663 257.3 29.8324 258.624 29.8324C259.965 29.8324 261.141 30.0663 262.151 30.5341C263.166 30.9957 263.963 31.639 264.542 32.4638C265.121 33.2824 265.419 34.2242 265.438 35.2891H262.141ZM272.683 49.2862C271.784 49.2862 270.975 49.1262 270.255 48.8061C269.541 48.4799 268.974 47.9998 268.556 47.3658C268.144 46.7318 267.937 45.95 267.937 45.0206C267.937 44.2204 268.085 43.5587 268.381 43.0355C268.676 42.5123 269.079 42.0938 269.59 41.7798C270.101 41.4659 270.676 41.2289 271.317 41.0689C271.963 40.9027 272.631 40.7827 273.32 40.7088C274.151 40.6226 274.825 40.5457 275.342 40.478C275.859 40.4041 276.235 40.2933 276.469 40.1456C276.709 39.9917 276.829 39.7547 276.829 39.4347V39.3793C276.829 38.6837 276.622 38.1451 276.21 37.7635C275.798 37.3819 275.204 37.1911 274.428 37.1911C273.609 37.1911 272.96 37.3696 272.48 37.7266C272.006 38.0836 271.686 38.5052 271.52 38.9915L268.399 38.5483C268.645 37.6866 269.051 36.9664 269.618 36.3878C270.184 35.803 270.876 35.366 271.695 35.0767C272.514 34.7812 273.419 34.6335 274.41 34.6335C275.093 34.6335 275.773 34.7135 276.45 34.8736C277.127 35.0336 277.746 35.2983 278.306 35.6676C278.866 36.0308 279.315 36.5263 279.654 37.1541C279.999 37.782 280.171 38.5668 280.171 39.5085V49H276.958V47.0518H276.847C276.644 47.4458 276.358 47.8151 275.988 48.1598C275.625 48.4983 275.167 48.7723 274.613 48.9815C274.065 49.1847 273.422 49.2862 272.683 49.2862ZM273.551 46.8303C274.222 46.8303 274.804 46.6979 275.296 46.4332C275.788 46.1624 276.167 45.8054 276.432 45.3622C276.702 44.919 276.838 44.4358 276.838 43.9126V42.2415C276.733 42.3277 276.555 42.4077 276.302 42.4815C276.056 42.5554 275.779 42.62 275.471 42.6754C275.164 42.7308 274.859 42.7801 274.557 42.8232C274.256 42.8662 273.994 42.9032 273.773 42.9339C273.274 43.0017 272.828 43.1125 272.434 43.2663C272.04 43.4202 271.729 43.6357 271.501 43.9126C271.273 44.1835 271.16 44.5343 271.16 44.9652C271.16 45.5807 271.384 46.0455 271.834 46.3594C272.283 46.6733 272.855 46.8303 273.551 46.8303ZM286.874 30.0909V49H283.532V30.0909H286.874ZM294.392 49.2862C293.493 49.2862 292.684 49.1262 291.964 48.8061C291.25 48.4799 290.683 47.9998 290.265 47.3658C289.853 46.7318 289.646 45.95 289.646 45.0206C289.646 44.2204 289.794 43.5587 290.089 43.0355C290.385 42.5123 290.788 42.0938 291.299 41.7798C291.81 41.4659 292.385 41.2289 293.026 41.0689C293.672 40.9027 294.34 40.7827 295.029 40.7088C295.86 40.6226 296.534 40.5457 297.051 40.478C297.568 40.4041 297.944 40.2933 298.178 40.1456C298.418 39.9917 298.538 39.7547 298.538 39.4347V39.3793C298.538 38.6837 298.331 38.1451 297.919 37.7635C297.507 37.3819 296.913 37.1911 296.137 37.1911C295.318 37.1911 294.669 37.3696 294.189 37.7266C293.715 38.0836 293.395 38.5052 293.229 38.9915L290.108 38.5483C290.354 37.6866 290.76 36.9664 291.327 36.3878C291.893 35.803 292.585 35.366 293.404 35.0767C294.223 34.7812 295.128 34.6335 296.119 34.6335C296.802 34.6335 297.482 34.7135 298.159 34.8736C298.836 35.0336 299.455 35.2983 300.015 35.6676C300.575 36.0308 301.024 36.5263 301.363 37.1541C301.708 37.782 301.88 38.5668 301.88 39.5085V49H298.667V47.0518H298.556C298.353 47.4458 298.067 47.8151 297.697 48.1598C297.334 48.4983 296.876 48.7723 296.322 48.9815C295.774 49.1847 295.131 49.2862 294.392 49.2862ZM295.26 46.8303C295.931 46.8303 296.513 46.6979 297.005 46.4332C297.497 46.1624 297.876 45.8054 298.141 45.3622C298.411 44.919 298.547 44.4358 298.547 43.9126V42.2415C298.442 42.3277 298.264 42.4077 298.011 42.4815C297.765 42.5554 297.488 42.62 297.18 42.6754C296.873 42.7308 296.568 42.7801 296.266 42.8232C295.965 42.8662 295.703 42.9032 295.482 42.9339C294.983 43.0017 294.537 43.1125 294.143 43.2663C293.749 43.4202 293.438 43.6357 293.21 43.9126C292.982 44.1835 292.869 44.5343 292.869 44.9652C292.869 45.5807 293.093 46.0455 293.543 46.3594C293.992 46.6733 294.564 46.8303 295.26 46.8303ZM316.953 49.2493C315.839 49.2493 314.842 48.9631 313.961 48.3906C313.081 47.8182 312.386 46.9872 311.875 45.8977C311.364 44.8082 311.108 43.4848 311.108 41.9276C311.108 40.3518 311.367 39.0223 311.884 37.9389C312.407 36.8494 313.112 36.0277 313.998 35.4737C314.885 34.9136 315.873 34.6335 316.962 34.6335C317.793 34.6335 318.476 34.7751 319.012 35.0582C319.547 35.3352 319.972 35.6707 320.286 36.0646C320.6 36.4524 320.843 36.8187 321.015 37.1634H321.154V30.0909H324.505V49H321.218V46.7656H321.015C320.843 47.1103 320.594 47.4766 320.267 47.8643C319.941 48.246 319.51 48.5722 318.975 48.843C318.439 49.1139 317.765 49.2493 316.953 49.2493ZM317.885 46.5071C318.593 46.5071 319.196 46.3163 319.695 45.9347C320.194 45.5469 320.572 45.0083 320.831 44.3189C321.089 43.6295 321.218 42.8262 321.218 41.9091C321.218 40.992 321.089 40.1948 320.831 39.5178C320.578 38.8407 320.203 38.3144 319.704 37.9389C319.212 37.5634 318.605 37.3757 317.885 37.3757C317.141 37.3757 316.519 37.5696 316.02 37.9574C315.522 38.3452 315.146 38.8807 314.894 39.5639C314.641 40.2472 314.515 41.0289 314.515 41.9091C314.515 42.7955 314.641 43.5864 314.894 44.282C315.152 44.9714 315.531 45.5161 316.029 45.9162C316.534 46.3101 317.153 46.5071 317.885 46.5071ZM334.345 49.277C332.923 49.277 331.695 48.9815 330.661 48.3906C329.633 47.7936 328.843 46.9503 328.289 45.8608C327.735 44.7652 327.458 43.4756 327.458 41.9922C327.458 40.5334 327.735 39.2531 328.289 38.1513C328.849 37.0433 329.63 36.1816 330.634 35.5661C331.637 34.9444 332.816 34.6335 334.17 34.6335C335.044 34.6335 335.869 34.7751 336.644 35.0582C337.426 35.3352 338.115 35.7661 338.713 36.3509C339.316 36.9356 339.79 37.6804 340.134 38.5852C340.479 39.4839 340.651 40.5549 340.651 41.7983V42.8232H329.027V40.5703H337.448C337.441 39.9302 337.303 39.3608 337.032 38.8622C336.761 38.3575 336.383 37.9605 335.896 37.6712C335.416 37.3819 334.856 37.2372 334.216 37.2372C333.533 37.2372 332.933 37.4034 332.416 37.7358C331.899 38.062 331.495 38.4929 331.206 39.0284C330.923 39.5578 330.778 40.1394 330.772 40.7734V42.7401C330.772 43.5649 330.923 44.2727 331.225 44.8636C331.526 45.4484 331.948 45.8977 332.49 46.2116C333.031 46.5194 333.665 46.6733 334.392 46.6733C334.878 46.6733 335.318 46.6056 335.712 46.4702C336.106 46.3286 336.447 46.1224 336.737 45.8516C337.026 45.5807 337.244 45.2453 337.392 44.8452L340.513 45.196C340.316 46.0208 339.941 46.741 339.387 47.3565C338.839 47.9659 338.137 48.4399 337.281 48.7784C336.426 49.1108 335.447 49.277 334.345 49.277ZM352.606 30.0909L357.527 44.9744H357.721L362.633 30.0909H366.4L359.734 49H355.505L348.848 30.0909H352.606ZM373.498 49.277C372.076 49.277 370.848 48.9815 369.814 48.3906C368.786 47.7936 367.995 46.9503 367.441 45.8608C366.887 44.7652 366.61 43.4756 366.61 41.9922C366.61 40.5334 366.887 39.2531 367.441 38.1513C368.001 37.0433 368.783 36.1816 369.786 35.5661C370.789 34.9444 371.968 34.6335 373.322 34.6335C374.196 34.6335 375.021 34.7751 375.797 35.0582C376.578 35.3352 377.268 35.7661 377.865 36.3509C378.468 36.9356 378.942 37.6804 379.287 38.5852C379.631 39.4839 379.804 40.5549 379.804 41.7983V42.8232H368.18V40.5703H376.6C376.594 39.9302 376.455 39.3608 376.184 38.8622C375.914 38.3575 375.535 37.9605 375.049 37.6712C374.569 37.3819 374.009 37.2372 373.368 37.2372C372.685 37.2372 372.085 37.4034 371.568 37.7358C371.051 38.062 370.648 38.4929 370.358 39.0284C370.075 39.5578 369.931 40.1394 369.925 40.7734V42.7401C369.925 43.5649 370.075 44.2727 370.377 44.8636C370.679 45.4484 371.1 45.8977 371.642 46.2116C372.184 46.5194 372.818 46.6733 373.544 46.6733C374.03 46.6733 374.47 46.6056 374.864 46.4702C375.258 46.3286 375.6 46.1224 375.889 45.8516C376.178 45.5807 376.397 45.2453 376.545 44.8452L379.665 45.196C379.468 46.0208 379.093 46.741 378.539 47.3565C377.991 47.9659 377.289 48.4399 376.434 48.7784C375.578 49.1108 374.599 49.277 373.498 49.277ZM385.974 40.6903V49H382.631V34.8182H385.826V37.228H385.992C386.318 36.4339 386.839 35.803 387.553 35.3352C388.273 34.8674 389.162 34.6335 390.221 34.6335C391.2 34.6335 392.052 34.8428 392.778 35.2614C393.511 35.6799 394.077 36.2862 394.477 37.0803C394.884 37.8743 395.084 38.8376 395.077 39.9702V49H391.735V40.4872C391.735 39.5393 391.489 38.7976 390.996 38.2621C390.51 37.7266 389.836 37.4588 388.974 37.4588C388.39 37.4588 387.87 37.5881 387.414 37.8466C386.965 38.099 386.611 38.4652 386.352 38.9453C386.1 39.4254 385.974 40.0071 385.974 40.6903ZM405.557 34.8182V37.4034H397.404V34.8182H405.557ZM399.417 31.4205H402.759V44.7344C402.759 45.1837 402.827 45.5284 402.962 45.7685C403.104 46.0024 403.289 46.1624 403.516 46.2486C403.744 46.3348 403.996 46.3778 404.273 46.3778C404.483 46.3778 404.674 46.3625 404.846 46.3317C405.024 46.3009 405.16 46.2732 405.252 46.2486L405.815 48.8615C405.637 48.9231 405.381 48.9908 405.049 49.0646C404.723 49.1385 404.323 49.1816 403.849 49.1939C403.012 49.2185 402.258 49.0923 401.587 48.8153C400.916 48.5322 400.383 48.0952 399.989 47.5043C399.602 46.9134 399.411 46.1747 399.417 45.2884V31.4205ZM412.433 49.2862C411.534 49.2862 410.725 49.1262 410.005 48.8061C409.291 48.4799 408.724 47.9998 408.306 47.3658C407.894 46.7318 407.687 45.95 407.687 45.0206C407.687 44.2204 407.835 43.5587 408.131 43.0355C408.426 42.5123 408.829 42.0938 409.34 41.7798C409.851 41.4659 410.426 41.2289 411.067 41.0689C411.713 40.9027 412.381 40.7827 413.07 40.7088C413.901 40.6226 414.575 40.5457 415.092 40.478C415.609 40.4041 415.985 40.2933 416.219 40.1456C416.459 39.9917 416.579 39.7547 416.579 39.4347V39.3793C416.579 38.6837 416.372 38.1451 415.96 37.7635C415.548 37.3819 414.954 37.1911 414.178 37.1911C413.359 37.1911 412.71 37.3696 412.23 37.7266C411.756 38.0836 411.436 38.5052 411.27 38.9915L408.149 38.5483C408.395 37.6866 408.801 36.9664 409.368 36.3878C409.934 35.803 410.626 35.366 411.445 35.0767C412.264 34.7812 413.169 34.6335 414.16 34.6335C414.843 34.6335 415.523 34.7135 416.2 34.8736C416.877 35.0336 417.496 35.2983 418.056 35.6676C418.616 36.0308 419.065 36.5263 419.404 37.1541C419.749 37.782 419.921 38.5668 419.921 39.5085V49H416.708V47.0518H416.597C416.394 47.4458 416.108 47.8151 415.738 48.1598C415.375 48.4983 414.917 48.7723 414.363 48.9815C413.815 49.1847 413.172 49.2862 412.433 49.2862ZM413.301 46.8303C413.972 46.8303 414.554 46.6979 415.046 46.4332C415.538 46.1624 415.917 45.8054 416.182 45.3622C416.452 44.919 416.588 44.4358 416.588 43.9126V42.2415C416.483 42.3277 416.305 42.4077 416.052 42.4815C415.806 42.5554 415.529 42.62 415.221 42.6754C414.914 42.7308 414.609 42.7801 414.307 42.8232C414.006 42.8662 413.744 42.9032 413.523 42.9339C413.024 43.0017 412.578 43.1125 412.184 43.2663C411.79 43.4202 411.479 43.6357 411.251 43.9126C411.023 44.1835 410.91 44.5343 410.91 44.9652C410.91 45.5807 411.134 46.0455 411.584 46.3594C412.033 46.6733 412.605 46.8303 413.301 46.8303ZM434.491 38.5668L431.444 38.8991C431.358 38.5914 431.207 38.3021 430.991 38.0312C430.782 37.7604 430.499 37.5419 430.142 37.3757C429.785 37.2095 429.348 37.1264 428.831 37.1264C428.135 37.1264 427.55 37.2772 427.077 37.5788C426.609 37.8804 426.378 38.2713 426.384 38.7514C426.378 39.1638 426.529 39.4993 426.836 39.7578C427.15 40.0163 427.667 40.2287 428.388 40.3949L430.807 40.9119C432.148 41.2012 433.146 41.6598 433.798 42.2876C434.457 42.9155 434.789 43.7372 434.795 44.7528C434.789 45.6454 434.528 46.4332 434.01 47.1165C433.5 47.7936 432.789 48.3229 431.878 48.7045C430.967 49.0862 429.92 49.277 428.738 49.277C427.003 49.277 425.605 48.9138 424.547 48.1875C423.488 47.455 422.857 46.4363 422.654 45.1314L425.913 44.8175C426.061 45.4576 426.375 45.9408 426.855 46.267C427.335 46.5933 427.96 46.7564 428.729 46.7564C429.523 46.7564 430.16 46.5933 430.64 46.267C431.127 45.9408 431.37 45.5376 431.37 45.0575C431.37 44.6513 431.213 44.3158 430.899 44.0511C430.591 43.7865 430.111 43.5833 429.459 43.4418L427.04 42.9339C425.679 42.6508 424.673 42.1738 424.02 41.5028C423.368 40.8258 423.045 39.9702 423.051 38.9361C423.045 38.062 423.282 37.3049 423.762 36.6648C424.248 36.0185 424.922 35.5199 425.784 35.169C426.652 34.812 427.652 34.6335 428.785 34.6335C430.447 34.6335 431.755 34.9875 432.709 35.6953C433.669 36.4032 434.263 37.3603 434.491 38.5668ZM254.293 80H250.637L257.294 61.0909H261.523L268.189 80H264.533L259.482 64.9688H259.335L254.293 80ZM254.413 72.5859H264.385V75.3374H254.413V72.5859ZM281.422 65.8182L276.372 80H272.678L267.628 65.8182H271.192L274.451 76.353H274.599L277.867 65.8182H281.422ZM289.531 80.277C288.109 80.277 286.881 79.9815 285.847 79.3906C284.819 78.7936 284.028 77.9503 283.474 76.8608C282.92 75.7652 282.643 74.4756 282.643 72.9922C282.643 71.5334 282.92 70.2531 283.474 69.1513C284.034 68.0433 284.816 67.1816 285.819 66.5661C286.823 65.9444 288.001 65.6335 289.355 65.6335C290.23 65.6335 291.054 65.7751 291.83 66.0582C292.612 66.3352 293.301 66.7661 293.898 67.3509C294.501 67.9356 294.975 68.6804 295.32 69.5852C295.665 70.4839 295.837 71.5549 295.837 72.7983V73.8232H284.213V71.5703H292.633C292.627 70.9302 292.489 70.3608 292.218 69.8622C291.947 69.3575 291.568 68.9605 291.082 68.6712C290.602 68.3819 290.042 68.2372 289.402 68.2372C288.718 68.2372 288.118 68.4034 287.601 68.7358C287.084 69.062 286.681 69.4929 286.392 70.0284C286.109 70.5578 285.964 71.1394 285.958 71.7734V73.7401C285.958 74.5649 286.109 75.2727 286.41 75.8636C286.712 76.4484 287.133 76.8977 287.675 77.2116C288.217 77.5194 288.851 77.6733 289.577 77.6733C290.063 77.6733 290.503 77.6056 290.897 77.4702C291.291 77.3286 291.633 77.1224 291.922 76.8516C292.212 76.5807 292.43 76.2453 292.578 75.8452L295.699 76.196C295.502 77.0208 295.126 77.741 294.572 78.3565C294.024 78.9659 293.323 79.4399 292.467 79.7784C291.611 80.1108 290.633 80.277 289.531 80.277ZM302.007 71.6903V80H298.665V65.8182H301.859V68.228H302.025C302.352 67.4339 302.872 66.803 303.586 66.3352C304.306 65.8674 305.195 65.6335 306.254 65.6335C307.233 65.6335 308.085 65.8428 308.812 66.2614C309.544 66.6799 310.11 67.2862 310.51 68.0803C310.917 68.8743 311.117 69.8376 311.111 70.9702V80H307.768V71.4872C307.768 70.5393 307.522 69.7976 307.03 69.2621C306.543 68.7266 305.869 68.4588 305.008 68.4588C304.423 68.4588 303.903 68.5881 303.447 68.8466C302.998 69.099 302.644 69.4652 302.385 69.9453C302.133 70.4254 302.007 71.0071 302.007 71.6903ZM314.508 80V65.8182H317.851V80H314.508ZM316.189 63.8054C315.659 63.8054 315.204 63.63 314.822 63.2791C314.441 62.9221 314.25 62.4943 314.25 61.9957C314.25 61.491 314.441 61.0632 314.822 60.7124C315.204 60.3553 315.659 60.1768 316.189 60.1768C316.724 60.1768 317.18 60.3553 317.555 60.7124C317.937 61.0632 318.128 61.491 318.128 61.9957C318.128 62.4943 317.937 62.9221 317.555 63.2791C317.18 63.63 316.724 63.8054 316.189 63.8054ZM326.55 80.2493C325.436 80.2493 324.439 79.9631 323.559 79.3906C322.679 78.8182 321.983 77.9872 321.472 76.8977C320.961 75.8082 320.706 74.4848 320.706 72.9276C320.706 71.3518 320.964 70.0223 321.482 68.9389C322.005 67.8494 322.71 67.0277 323.596 66.4737C324.482 65.9136 325.47 65.6335 326.56 65.6335C327.391 65.6335 328.074 65.7751 328.609 66.0582C329.145 66.3352 329.57 66.6707 329.884 67.0646C330.197 67.4524 330.441 67.8187 330.613 68.1634H330.751V61.0909H334.103V80H330.816V77.7656H330.613C330.441 78.1103 330.191 78.4766 329.865 78.8643C329.539 79.246 329.108 79.5722 328.572 79.843C328.037 80.1139 327.363 80.2493 326.55 80.2493ZM327.483 77.5071C328.191 77.5071 328.794 77.3163 329.293 76.9347C329.791 76.5469 330.17 76.0083 330.428 75.3189C330.687 74.6295 330.816 73.8262 330.816 72.9091C330.816 71.992 330.687 71.1948 330.428 70.5178C330.176 69.8407 329.8 69.3144 329.302 68.9389C328.809 68.5634 328.203 68.3757 327.483 68.3757C326.738 68.3757 326.116 68.5696 325.618 68.9574C325.119 69.3452 324.744 69.8807 324.491 70.5639C324.239 71.2472 324.113 72.0289 324.113 72.9091C324.113 73.7955 324.239 74.5864 324.491 75.282C324.75 75.9714 325.129 76.5161 325.627 76.9162C326.132 77.3101 326.75 77.5071 327.483 77.5071ZM341.746 80.2862C340.847 80.2862 340.037 80.1262 339.317 79.8061C338.603 79.4799 338.037 78.9998 337.618 78.3658C337.206 77.7318 337 76.95 337 76.0206C337 75.2204 337.148 74.5587 337.443 74.0355C337.738 73.5123 338.142 73.0938 338.653 72.7798C339.163 72.4659 339.739 72.2289 340.379 72.0689C341.025 71.9027 341.693 71.7827 342.383 71.7088C343.214 71.6226 343.888 71.5457 344.405 71.478C344.922 71.4041 345.297 71.2933 345.531 71.1456C345.771 70.9917 345.891 70.7547 345.891 70.4347V70.3793C345.891 69.6837 345.685 69.1451 345.273 68.7635C344.86 68.3819 344.266 68.1911 343.491 68.1911C342.672 68.1911 342.023 68.3696 341.542 68.7266C341.068 69.0836 340.748 69.5052 340.582 69.9915L337.461 69.5483C337.708 68.6866 338.114 67.9664 338.68 67.3878C339.247 66.803 339.939 66.366 340.758 66.0767C341.576 65.7812 342.481 65.6335 343.472 65.6335C344.155 65.6335 344.836 65.7135 345.513 65.8736C346.19 66.0336 346.808 66.2983 347.368 66.6676C347.929 67.0308 348.378 67.5263 348.716 68.1541C349.061 68.782 349.233 69.5668 349.233 70.5085V80H346.02V78.0518H345.91C345.706 78.4458 345.42 78.8151 345.051 79.1598C344.688 79.4983 344.229 79.7723 343.675 79.9815C343.127 80.1847 342.484 80.2862 341.746 80.2862ZM342.613 77.8303C343.284 77.8303 343.866 77.6979 344.358 77.4332C344.851 77.1624 345.229 76.8054 345.494 76.3622C345.765 75.919 345.9 75.4358 345.9 74.9126V73.2415C345.796 73.3277 345.617 73.4077 345.365 73.4815C345.119 73.5554 344.842 73.62 344.534 73.6754C344.226 73.7308 343.921 73.7801 343.62 73.8232C343.318 73.8662 343.057 73.9032 342.835 73.9339C342.336 74.0017 341.89 74.1125 341.496 74.2663C341.102 74.4202 340.791 74.6357 340.564 74.9126C340.336 75.1835 340.222 75.5343 340.222 75.9652C340.222 76.5807 340.447 77.0455 340.896 77.3594C341.345 77.6733 341.918 77.8303 342.613 77.8303ZM359.191 61.0909H363.383L368.997 74.7926H369.218L374.832 61.0909H379.024V80H375.737V67.0092H375.561L370.335 79.9446H367.879L362.654 66.9815H362.478V80H359.191V61.0909ZM386.687 80.2862C385.788 80.2862 384.979 80.1262 384.259 79.8061C383.545 79.4799 382.978 78.9998 382.56 78.3658C382.147 77.7318 381.941 76.95 381.941 76.0206C381.941 75.2204 382.089 74.5587 382.384 74.0355C382.68 73.5123 383.083 73.0938 383.594 72.7798C384.105 72.4659 384.68 72.2289 385.32 72.0689C385.967 71.9027 386.635 71.7827 387.324 71.7088C388.155 71.6226 388.829 71.5457 389.346 71.478C389.863 71.4041 390.239 71.2933 390.472 71.1456C390.713 70.9917 390.833 70.7547 390.833 70.4347V70.3793C390.833 69.6837 390.626 69.1451 390.214 68.7635C389.802 68.3819 389.208 68.1911 388.432 68.1911C387.613 68.1911 386.964 68.3696 386.484 68.7266C386.01 69.0836 385.69 69.5052 385.524 69.9915L382.403 69.5483C382.649 68.6866 383.055 67.9664 383.622 67.3878C384.188 66.803 384.88 66.366 385.699 66.0767C386.518 65.7812 387.423 65.6335 388.414 65.6335C389.097 65.6335 389.777 65.7135 390.454 65.8736C391.131 66.0336 391.75 66.2983 392.31 66.6676C392.87 67.0308 393.319 67.5263 393.658 68.1541C394.003 68.782 394.175 69.5668 394.175 70.5085V80H390.962V78.0518H390.851C390.648 78.4458 390.362 78.8151 389.992 79.1598C389.629 79.4983 389.171 79.7723 388.617 79.9815C388.069 80.1847 387.426 80.2862 386.687 80.2862ZM387.555 77.8303C388.226 77.8303 388.807 77.6979 389.3 77.4332C389.792 77.1624 390.171 76.8054 390.436 76.3622C390.706 75.919 390.842 75.4358 390.842 74.9126V73.2415C390.737 73.3277 390.559 73.4077 390.306 73.4815C390.06 73.5554 389.783 73.62 389.475 73.6754C389.168 73.7308 388.863 73.7801 388.561 73.8232C388.26 73.8662 387.998 73.9032 387.776 73.9339C387.278 74.0017 386.832 74.1125 386.438 74.2663C386.044 74.4202 385.733 74.6357 385.505 74.9126C385.277 75.1835 385.164 75.5343 385.164 75.9652C385.164 76.5807 385.388 77.0455 385.838 77.3594C386.287 77.6733 386.859 77.8303 387.555 77.8303ZM397.536 80V65.8182H400.776V68.1818H400.924C401.183 67.3632 401.626 66.7322 402.254 66.2891C402.888 65.8397 403.611 65.6151 404.423 65.6151C404.608 65.6151 404.814 65.6243 405.042 65.6428C405.276 65.6551 405.47 65.6766 405.624 65.7074V68.782C405.482 68.7327 405.258 68.6896 404.95 68.6527C404.648 68.6096 404.356 68.5881 404.073 68.5881C403.463 68.5881 402.915 68.7204 402.429 68.9851C401.949 69.2436 401.57 69.6037 401.294 70.0653C401.017 70.527 400.878 71.0594 400.878 71.6626V80H397.536ZM407.844 80V65.8182H411.187V80H407.844ZM409.525 63.8054C408.995 63.8054 408.54 63.63 408.158 63.2791C407.777 62.9221 407.586 62.4943 407.586 61.9957C407.586 61.491 407.777 61.0632 408.158 60.7124C408.54 60.3553 408.995 60.1768 409.525 60.1768C410.06 60.1768 410.516 60.3553 410.891 60.7124C411.273 61.0632 411.464 61.491 411.464 61.9957C411.464 62.4943 411.273 62.9221 410.891 63.2791C410.516 63.63 410.06 63.8054 409.525 63.8054ZM425.832 69.5668L422.786 69.8991C422.699 69.5914 422.549 69.3021 422.333 69.0312C422.124 68.7604 421.841 68.5419 421.484 68.3757C421.127 68.2095 420.69 68.1264 420.173 68.1264C419.477 68.1264 418.892 68.2772 418.418 68.5788C417.951 68.8804 417.72 69.2713 417.726 69.7514C417.72 70.1638 417.871 70.4993 418.178 70.7578C418.492 71.0163 419.009 71.2287 419.729 71.3949L422.148 71.9119C423.49 72.2012 424.487 72.6598 425.14 73.2876C425.799 73.9155 426.131 74.7372 426.137 75.7528C426.131 76.6454 425.869 77.4332 425.352 78.1165C424.841 78.7936 424.13 79.3229 423.219 79.7045C422.308 80.0862 421.262 80.277 420.08 80.277C418.344 80.277 416.947 79.9138 415.888 79.1875C414.83 78.455 414.199 77.4363 413.996 76.1314L417.255 75.8175C417.403 76.4576 417.717 76.9408 418.197 77.267C418.677 77.5933 419.302 77.7564 420.071 77.7564C420.865 77.7564 421.502 77.5933 421.982 77.267C422.469 76.9408 422.712 76.5376 422.712 76.0575C422.712 75.6513 422.555 75.3158 422.241 75.0511C421.933 74.7865 421.453 74.5833 420.8 74.4418L418.381 73.9339C417.021 73.6508 416.015 73.1738 415.362 72.5028C414.71 71.8258 414.387 70.9702 414.393 69.9361C414.387 69.062 414.624 68.3049 415.104 67.6648C415.59 67.0185 416.264 66.5199 417.126 66.169C417.994 65.812 418.994 65.6335 420.126 65.6335C421.788 65.6335 423.096 65.9875 424.05 66.6953C425.011 67.4032 425.605 68.3603 425.832 69.5668ZM435.079 80.277C433.663 80.277 432.448 79.9661 431.432 79.3445C430.423 78.7228 429.644 77.8641 429.096 76.7685C428.555 75.6667 428.284 74.3987 428.284 72.9645C428.284 71.5241 428.561 70.2531 429.115 69.1513C429.669 68.0433 430.45 67.1816 431.46 66.5661C432.475 65.9444 433.676 65.6335 435.061 65.6335C436.212 65.6335 437.23 65.8459 438.117 66.2706C439.009 66.6892 439.72 67.2831 440.25 68.0526C440.779 68.8158 441.081 69.7083 441.154 70.7301H437.96C437.831 70.0469 437.523 69.4775 437.037 69.022C436.556 68.5604 435.913 68.3295 435.107 68.3295C434.424 68.3295 433.824 68.5142 433.306 68.8835C432.789 69.2467 432.386 69.7699 432.097 70.4531C431.814 71.1364 431.672 71.955 431.672 72.9091C431.672 73.8755 431.814 74.7064 432.097 75.402C432.38 76.0914 432.777 76.6238 433.288 76.9993C433.805 77.3686 434.411 77.5533 435.107 77.5533C435.599 77.5533 436.039 77.4609 436.427 77.2763C436.821 77.0855 437.15 76.8116 437.415 76.4545C437.68 76.0975 437.861 75.6636 437.96 75.1527H441.154C441.074 76.156 440.779 77.0455 440.268 77.821C439.757 78.5904 439.062 79.1937 438.181 79.6307C437.301 80.0616 436.267 80.277 435.079 80.277ZM447.98 80.2862C447.081 80.2862 446.272 80.1262 445.552 79.8061C444.838 79.4799 444.271 78.9998 443.853 78.3658C443.44 77.7318 443.234 76.95 443.234 76.0206C443.234 75.2204 443.382 74.5587 443.677 74.0355C443.973 73.5123 444.376 73.0938 444.887 72.7798C445.398 72.4659 445.973 72.2289 446.613 72.0689C447.26 71.9027 447.928 71.7827 448.617 71.7088C449.448 71.6226 450.122 71.5457 450.639 71.478C451.156 71.4041 451.532 71.2933 451.765 71.1456C452.006 70.9917 452.126 70.7547 452.126 70.4347V70.3793C452.126 69.6837 451.919 69.1451 451.507 68.7635C451.095 68.3819 450.501 68.1911 449.725 68.1911C448.906 68.1911 448.257 68.3696 447.777 68.7266C447.303 69.0836 446.983 69.5052 446.817 69.9915L443.696 69.5483C443.942 68.6866 444.348 67.9664 444.915 67.3878C445.481 66.803 446.173 66.366 446.992 66.0767C447.811 65.7812 448.715 65.6335 449.706 65.6335C450.39 65.6335 451.07 65.7135 451.747 65.8736C452.424 66.0336 453.043 66.2983 453.603 66.6676C454.163 67.0308 454.612 67.5263 454.951 68.1541C455.296 68.782 455.468 69.5668 455.468 70.5085V80H452.255V78.0518H452.144C451.941 78.4458 451.655 78.8151 451.285 79.1598C450.922 79.4983 450.464 79.7723 449.91 79.9815C449.362 80.1847 448.719 80.2862 447.98 80.2862ZM448.848 77.8303C449.519 77.8303 450.1 77.6979 450.593 77.4332C451.085 77.1624 451.464 76.8054 451.729 76.3622C451.999 75.919 452.135 75.4358 452.135 74.9126V73.2415C452.03 73.3277 451.852 73.4077 451.599 73.4815C451.353 73.5554 451.076 73.62 450.768 73.6754C450.461 73.7308 450.156 73.7801 449.854 73.8232C449.553 73.8662 449.291 73.9032 449.069 73.9339C448.571 74.0017 448.125 74.1125 447.731 74.2663C447.337 74.4202 447.026 74.6357 446.798 74.9126C446.57 75.1835 446.456 75.5343 446.456 75.9652C446.456 76.5807 446.681 77.0455 447.131 77.3594C447.58 77.6733 448.152 77.8303 448.848 77.8303ZM462.171 61.0909V80H458.829V61.0909H462.171ZM268.05 98.4709H264.597C264.499 97.9046 264.317 97.4029 264.053 96.9659C263.788 96.5227 263.459 96.1473 263.065 95.8395C262.671 95.5317 262.221 95.3009 261.717 95.147C261.218 94.987 260.679 94.907 260.101 94.907C259.073 94.907 258.162 95.1655 257.368 95.6825C256.574 96.1934 255.952 96.9444 255.503 97.9354C255.054 98.9202 254.829 100.124 254.829 101.545C254.829 102.992 255.054 104.211 255.503 105.202C255.958 106.187 256.58 106.931 257.368 107.436C258.162 107.935 259.07 108.184 260.092 108.184C260.658 108.184 261.187 108.11 261.68 107.962C262.178 107.808 262.625 107.584 263.018 107.288C263.419 106.993 263.754 106.63 264.025 106.199C264.302 105.768 264.493 105.276 264.597 104.722L268.05 104.74C267.921 105.639 267.641 106.482 267.21 107.27C266.786 108.058 266.228 108.753 265.539 109.357C264.85 109.954 264.043 110.421 263.12 110.76C262.197 111.092 261.172 111.259 260.045 111.259C258.384 111.259 256.9 110.874 255.595 110.104C254.29 109.335 253.262 108.224 252.511 106.771C251.76 105.319 251.385 103.577 251.385 101.545C251.385 99.508 251.763 97.7661 252.521 96.3196C253.278 94.867 254.309 93.7559 255.614 92.9865C256.919 92.2171 258.396 91.8324 260.045 91.8324C261.098 91.8324 262.077 91.9801 262.982 92.2756C263.886 92.571 264.693 93.005 265.401 93.5774C266.108 94.1437 266.69 94.8393 267.146 95.6641C267.607 96.4827 267.909 97.4183 268.05 98.4709ZM275.121 111.286C274.222 111.286 273.412 111.126 272.692 110.806C271.978 110.48 271.412 110 270.993 109.366C270.581 108.732 270.375 107.95 270.375 107.021C270.375 106.22 270.523 105.559 270.818 105.036C271.113 104.512 271.517 104.094 272.028 103.78C272.538 103.466 273.114 103.229 273.754 103.069C274.4 102.903 275.068 102.783 275.758 102.709C276.589 102.623 277.263 102.546 277.78 102.478C278.297 102.404 278.672 102.293 278.906 102.146C279.146 101.992 279.266 101.755 279.266 101.435V101.379C279.266 100.684 279.06 100.145 278.648 99.7635C278.235 99.3819 277.641 99.1911 276.866 99.1911C276.047 99.1911 275.398 99.3696 274.917 99.7266C274.443 100.084 274.123 100.505 273.957 100.991L270.836 100.548C271.083 99.6866 271.489 98.9664 272.055 98.3878C272.622 97.803 273.314 97.366 274.133 97.0767C274.951 96.7812 275.856 96.6335 276.847 96.6335C277.53 96.6335 278.211 96.7135 278.888 96.8736C279.565 97.0336 280.183 97.2983 280.743 97.6676C281.304 98.0308 281.753 98.5263 282.091 99.1541C282.436 99.782 282.608 100.567 282.608 101.509V111H279.395V109.052H279.285C279.081 109.446 278.795 109.815 278.426 110.16C278.063 110.498 277.604 110.772 277.05 110.982C276.502 111.185 275.859 111.286 275.121 111.286ZM275.988 108.83C276.659 108.83 277.241 108.698 277.733 108.433C278.226 108.162 278.604 107.805 278.869 107.362C279.14 106.919 279.275 106.436 279.275 105.913V104.241C279.171 104.328 278.992 104.408 278.74 104.482C278.494 104.555 278.217 104.62 277.909 104.675C277.601 104.731 277.296 104.78 276.995 104.823C276.693 104.866 276.432 104.903 276.21 104.934C275.711 105.002 275.265 105.112 274.871 105.266C274.477 105.42 274.166 105.636 273.939 105.913C273.711 106.183 273.597 106.534 273.597 106.965C273.597 107.581 273.822 108.045 274.271 108.359C274.72 108.673 275.293 108.83 275.988 108.83ZM297.178 100.567L294.131 100.899C294.045 100.591 293.894 100.302 293.679 100.031C293.47 99.7604 293.186 99.5419 292.829 99.3757C292.472 99.2095 292.035 99.1264 291.518 99.1264C290.823 99.1264 290.238 99.2772 289.764 99.5788C289.296 99.8804 289.065 100.271 289.072 100.751C289.065 101.164 289.216 101.499 289.524 101.758C289.838 102.016 290.355 102.229 291.075 102.395L293.494 102.912C294.836 103.201 295.833 103.66 296.486 104.288C297.144 104.915 297.477 105.737 297.483 106.753C297.477 107.645 297.215 108.433 296.698 109.116C296.187 109.794 295.476 110.323 294.565 110.705C293.654 111.086 292.608 111.277 291.426 111.277C289.69 111.277 288.293 110.914 287.234 110.188C286.175 109.455 285.545 108.436 285.341 107.131L288.601 106.817C288.748 107.458 289.062 107.941 289.542 108.267C290.023 108.593 290.647 108.756 291.417 108.756C292.211 108.756 292.848 108.593 293.328 108.267C293.814 107.941 294.057 107.538 294.057 107.058C294.057 106.651 293.9 106.316 293.586 106.051C293.279 105.786 292.799 105.583 292.146 105.442L289.727 104.934C288.367 104.651 287.36 104.174 286.708 103.503C286.055 102.826 285.732 101.97 285.738 100.936C285.732 100.062 285.969 99.3049 286.449 98.6648C286.936 98.0185 287.61 97.5199 288.471 97.169C289.339 96.812 290.34 96.6335 291.472 96.6335C293.134 96.6335 294.442 96.9875 295.396 97.6953C296.356 98.4032 296.95 99.3603 297.178 100.567ZM307.32 96.8182V99.4034H299.168V96.8182H307.32ZM301.181 93.4205H304.523V106.734C304.523 107.184 304.591 107.528 304.726 107.768C304.868 108.002 305.052 108.162 305.28 108.249C305.508 108.335 305.76 108.378 306.037 108.378C306.246 108.378 306.437 108.362 306.61 108.332C306.788 108.301 306.923 108.273 307.016 108.249L307.579 110.862C307.401 110.923 307.145 110.991 306.813 111.065C306.486 111.138 306.086 111.182 305.612 111.194C304.775 111.219 304.021 111.092 303.35 110.815C302.679 110.532 302.147 110.095 301.753 109.504C301.365 108.913 301.174 108.175 301.181 107.288V93.4205ZM310.116 111V96.8182H313.458V111H310.116ZM311.796 94.8054C311.267 94.8054 310.811 94.63 310.43 94.2791C310.048 93.9221 309.857 93.4943 309.857 92.9957C309.857 92.491 310.048 92.0632 310.43 91.7124C310.811 91.3553 311.267 91.1768 311.796 91.1768C312.332 91.1768 312.787 91.3553 313.163 91.7124C313.544 92.0632 313.735 92.491 313.735 92.9957C313.735 93.4943 313.544 93.9221 313.163 94.2791C312.787 94.63 312.332 94.8054 311.796 94.8054ZM320.237 92.0909V111H316.895V92.0909H320.237ZM327.017 92.0909V111H323.674V92.0909H327.017ZM334.535 111.286C333.636 111.286 332.827 111.126 332.106 110.806C331.392 110.48 330.826 110 330.407 109.366C329.995 108.732 329.789 107.95 329.789 107.021C329.789 106.22 329.937 105.559 330.232 105.036C330.528 104.512 330.931 104.094 331.442 103.78C331.952 103.466 332.528 103.229 333.168 103.069C333.814 102.903 334.482 102.783 335.172 102.709C336.003 102.623 336.677 102.546 337.194 102.478C337.711 102.404 338.086 102.293 338.32 102.146C338.56 101.992 338.68 101.755 338.68 101.435V101.379C338.68 100.684 338.474 100.145 338.062 99.7635C337.649 99.3819 337.055 99.1911 336.28 99.1911C335.461 99.1911 334.812 99.3696 334.331 99.7266C333.858 100.084 333.537 100.505 333.371 100.991L330.251 100.548C330.497 99.6866 330.903 98.9664 331.469 98.3878C332.036 97.803 332.728 97.366 333.547 97.0767C334.365 96.7812 335.27 96.6335 336.261 96.6335C336.944 96.6335 337.625 96.7135 338.302 96.8736C338.979 97.0336 339.597 97.2983 340.157 97.6676C340.718 98.0308 341.167 98.5263 341.506 99.1541C341.85 99.782 342.023 100.567 342.023 101.509V111H338.809V109.052H338.699C338.496 109.446 338.209 109.815 337.84 110.16C337.477 110.498 337.018 110.772 336.464 110.982C335.916 111.185 335.273 111.286 334.535 111.286ZM335.403 108.83C336.073 108.83 336.655 108.698 337.148 108.433C337.64 108.162 338.019 107.805 338.283 107.362C338.554 106.919 338.689 106.436 338.689 105.913V104.241C338.585 104.328 338.406 104.408 338.154 104.482C337.908 104.555 337.631 104.62 337.323 104.675C337.015 104.731 336.711 104.78 336.409 104.823C336.107 104.866 335.846 104.903 335.624 104.934C335.126 105.002 334.679 105.112 334.285 105.266C333.891 105.42 333.581 105.636 333.353 105.913C333.125 106.183 333.011 106.534 333.011 106.965C333.011 107.581 333.236 108.045 333.685 108.359C334.135 108.673 334.707 108.83 335.403 108.83ZM351.454 107.491V104.768L359.477 92.0909H361.749V95.9688H360.364L354.963 104.528V104.675H366.162V107.491H351.454ZM360.475 111V106.661L360.512 105.442V92.0909H363.743V111H360.475ZM368.77 107.491V104.768L376.794 92.0909H379.065V95.9688H377.68L372.279 104.528V104.675H383.479V107.491H368.77ZM377.791 111V106.661L377.828 105.442V92.0909H381.059V111H377.791ZM386.087 107.491V104.768L394.11 92.0909H396.382V95.9688H394.997L389.595 104.528V104.675H400.795V107.491H386.087ZM395.107 111V106.661L395.144 105.442V92.0909H398.376V111H395.107ZM410.67 111.259C409.765 111.252 408.881 111.095 408.02 110.788C407.158 110.474 406.382 109.966 405.693 109.264C405.004 108.556 404.456 107.618 404.05 106.448C403.643 105.272 403.443 103.817 403.449 102.081C403.449 100.462 403.622 99.0187 403.966 97.7507C404.311 96.4827 404.807 95.4117 405.453 94.5376C406.099 93.6574 406.878 92.9865 407.789 92.5249C408.706 92.0632 409.731 91.8324 410.863 91.8324C412.051 91.8324 413.104 92.0663 414.021 92.5341C414.944 93.0019 415.689 93.642 416.256 94.4545C416.822 95.2609 417.173 96.1719 417.308 97.1875H413.938C413.766 96.4612 413.412 95.8826 412.876 95.4517C412.347 95.0147 411.676 94.7962 410.863 94.7962C409.552 94.7962 408.543 95.3655 407.835 96.5043C407.133 97.643 406.779 99.2064 406.773 101.195H406.903C407.204 100.653 407.595 100.188 408.075 99.8004C408.555 99.4126 409.097 99.1141 409.7 98.9048C410.309 98.6894 410.953 98.5817 411.63 98.5817C412.738 98.5817 413.732 98.8464 414.612 99.3757C415.498 99.9051 416.2 100.634 416.717 101.564C417.234 102.487 417.49 103.546 417.483 104.74C417.49 105.983 417.206 107.101 416.634 108.092C416.062 109.076 415.265 109.852 414.243 110.418C413.221 110.985 412.03 111.265 410.67 111.259ZM410.651 108.489C411.322 108.489 411.922 108.326 412.452 107.999C412.981 107.673 413.399 107.233 413.707 106.679C414.015 106.125 414.166 105.503 414.16 104.814C414.166 104.137 414.018 103.524 413.716 102.977C413.421 102.429 413.012 101.995 412.488 101.675C411.965 101.355 411.368 101.195 410.697 101.195C410.199 101.195 409.734 101.29 409.303 101.481C408.872 101.672 408.497 101.936 408.177 102.275C407.857 102.607 407.604 102.995 407.42 103.438C407.241 103.875 407.149 104.343 407.143 104.842C407.149 105.5 407.303 106.107 407.604 106.661C407.906 107.214 408.321 107.658 408.851 107.99C409.38 108.322 409.98 108.489 410.651 108.489Z" fill="white"/>
</svg>
