<svg width="440" height="168" viewBox="0 0 440 168" fill="none" xmlns="http://www.w3.org/2000/svg">
<rect x="150" width="290" height="110" rx="18" fill="#006DB7"/>
<path d="M94 122L205.5 86.026L173.5 62L94 122Z" fill="#006DB7"/>
<rect x="162" y="24" width="44" height="44" rx="22" fill="#F15B5B"/>
<path d="M191 39H188V38C188 37.2044 187.684 36.4413 187.121 35.8787C186.559 35.3161 185.796 35 185 35H183C182.204 35 181.441 35.3161 180.879 35.8787C180.316 36.4413 180 37.2044 180 38V39H177C175.674 39.0016 174.404 39.5289 173.466 40.4662C172.529 41.4036 172.002 42.6744 172 44V52C172.002 53.3256 172.529 54.5964 173.466 55.5338C174.404 56.4711 175.674 56.9984 177 57H191C192.326 56.9984 193.596 56.4711 194.534 55.5338C195.471 54.5964 195.998 53.3256 196 52V44C195.998 42.6744 195.471 41.4036 194.534 40.4662C193.596 39.5289 192.326 39.0016 191 39ZM182 38C182 37.7348 182.105 37.4804 182.293 37.2929C182.48 37.1054 182.735 37 183 37H185C185.265 37 185.52 37.1054 185.707 37.2929C185.895 37.4804 186 37.7348 186 38V39H182V38ZM194 52C194 52.7956 193.684 53.5587 193.121 54.1213C192.559 54.6839 191.796 55 191 55H177C176.204 55 175.441 54.6839 174.879 54.1213C174.316 53.5587 174 52.7956 174 52V44C174 43.2044 174.316 42.4413 174.879 41.8787C175.441 41.3161 176.204 41 177 41H191C191.796 41 192.559 41.3161 193.121 41.8787C193.684 42.4413 194 43.2044 194 44V52ZM188 48C188 48.2652 187.895 48.5196 187.707 48.7071C187.52 48.8946 187.265 49 187 49H185V51C185 51.2652 184.895 51.5196 184.707 51.7071C184.52 51.8946 184.265 52 184 52C183.735 52 183.48 51.8946 183.293 51.7071C183.105 51.5196 183 51.2652 183 51V49H181C180.735 49 180.48 48.8946 180.293 48.7071C180.105 48.5196 180 48.2652 180 48C180 47.7348 180.105 47.4804 180.293 47.2929C180.48 47.1054 180.735 47 181 47H183V45C183 44.7348 183.105 44.4804 183.293 44.2929C183.48 44.1054 183.735 44 184 44C184.265 44 184.52 44.1054 184.707 44.2929C184.895 44.4804 185 44.7348 185 45V47H187C187.265 47 187.52 47.1054 187.707 47.2929C187.895 47.4804 188 47.7348 188 48Z" fill="white"/>
<path d="M223.865 49V30.0909H227.29V38.0959H236.053V30.0909H239.487V49H236.053V40.9673H227.29V49H223.865ZM249.251 49.277C247.866 49.277 246.666 48.9723 245.65 48.3629C244.635 47.7536 243.847 46.901 243.287 45.8054C242.733 44.7098 242.456 43.4295 242.456 41.9645C242.456 40.4995 242.733 39.2161 243.287 38.1143C243.847 37.0125 244.635 36.157 245.65 35.5476C246.666 34.9382 247.866 34.6335 249.251 34.6335C250.636 34.6335 251.836 34.9382 252.852 35.5476C253.868 36.157 254.652 37.0125 255.206 38.1143C255.766 39.2161 256.047 40.4995 256.047 41.9645C256.047 43.4295 255.766 44.7098 255.206 45.8054C254.652 46.901 253.868 47.7536 252.852 48.3629C251.836 48.9723 250.636 49.277 249.251 49.277ZM249.27 46.5994C250.02 46.5994 250.648 46.3932 251.153 45.9808C251.658 45.5623 252.033 45.0021 252.279 44.3004C252.532 43.5987 252.658 42.817 252.658 41.9553C252.658 41.0874 252.532 40.3026 252.279 39.6009C252.033 38.893 251.658 38.3298 251.153 37.9112C250.648 37.4927 250.02 37.2834 249.27 37.2834C248.5 37.2834 247.86 37.4927 247.349 37.9112C246.844 38.3298 246.466 38.893 246.213 39.6009C245.967 40.3026 245.844 41.0874 245.844 41.9553C245.844 42.817 245.967 43.5987 246.213 44.3004C246.466 45.0021 246.844 45.5623 247.349 45.9808C247.86 46.3932 248.5 46.5994 249.27 46.5994ZM270.092 38.5668L267.045 38.8991C266.959 38.5914 266.808 38.3021 266.593 38.0312C266.384 37.7604 266.1 37.5419 265.743 37.3757C265.386 37.2095 264.949 37.1264 264.432 37.1264C263.737 37.1264 263.152 37.2772 262.678 37.5788C262.21 37.8804 261.979 38.2713 261.986 38.7514C261.979 39.1638 262.13 39.4993 262.438 39.7578C262.752 40.0163 263.269 40.2287 263.989 40.3949L266.408 40.9119C267.75 41.2012 268.747 41.6598 269.4 42.2876C270.058 42.9155 270.391 43.7372 270.397 44.7528C270.391 45.6454 270.129 46.4332 269.612 47.1165C269.101 47.7936 268.39 48.3229 267.479 48.7045C266.568 49.0862 265.522 49.277 264.34 49.277C262.604 49.277 261.207 48.9138 260.148 48.1875C259.09 47.455 258.459 46.4363 258.256 45.1314L261.515 44.8175C261.662 45.4576 261.976 45.9408 262.456 46.267C262.937 46.5933 263.561 46.7564 264.331 46.7564C265.125 46.7564 265.762 46.5933 266.242 46.267C266.728 45.9408 266.971 45.5376 266.971 45.0575C266.971 44.6513 266.814 44.3158 266.501 44.0511C266.193 43.7865 265.713 43.5833 265.06 43.4418L262.641 42.9339C261.281 42.6508 260.274 42.1738 259.622 41.5028C258.97 40.8258 258.646 39.9702 258.653 38.9361C258.646 38.062 258.883 37.3049 259.363 36.6648C259.85 36.0185 260.524 35.5199 261.385 35.169C262.253 34.812 263.254 34.6335 264.386 34.6335C266.048 34.6335 267.356 34.9875 268.31 35.6953C269.27 36.4032 269.864 37.3603 270.092 38.5668ZM273.153 54.3182V34.8182H276.44V37.1634H276.634C276.806 36.8187 277.049 36.4524 277.363 36.0646C277.677 35.6707 278.102 35.3352 278.637 35.0582C279.173 34.7751 279.856 34.6335 280.687 34.6335C281.783 34.6335 282.771 34.9136 283.651 35.4737C284.537 36.0277 285.239 36.8494 285.756 37.9389C286.279 39.0223 286.541 40.3518 286.541 41.9276C286.541 43.4848 286.285 44.8082 285.774 45.8977C285.263 46.9872 284.568 47.8182 283.688 48.3906C282.807 48.9631 281.81 49.2493 280.696 49.2493C279.884 49.2493 279.21 49.1139 278.674 48.843C278.139 48.5722 277.708 48.246 277.382 47.8643C277.061 47.4766 276.812 47.1103 276.634 46.7656H276.495V54.3182H273.153ZM276.431 41.9091C276.431 42.8262 276.56 43.6295 276.818 44.3189C277.083 45.0083 277.462 45.5469 277.954 45.9347C278.453 46.3163 279.056 46.5071 279.764 46.5071C280.502 46.5071 281.121 46.3101 281.619 45.9162C282.118 45.5161 282.494 44.9714 282.746 44.282C283.004 43.5864 283.134 42.7955 283.134 41.9091C283.134 41.0289 283.008 40.2472 282.755 39.5639C282.503 38.8807 282.127 38.3452 281.629 37.9574C281.13 37.5696 280.508 37.3757 279.764 37.3757C279.05 37.3757 278.443 37.5634 277.945 37.9389C277.446 38.3144 277.068 38.8407 276.809 39.5178C276.557 40.1948 276.431 40.992 276.431 41.9091ZM289.403 49V34.8182H292.745V49H289.403ZM291.083 32.8054C290.554 32.8054 290.098 32.63 289.717 32.2791C289.335 31.9221 289.144 31.4943 289.144 30.9957C289.144 30.491 289.335 30.0632 289.717 29.7124C290.098 29.3553 290.554 29.1768 291.083 29.1768C291.619 29.1768 292.074 29.3553 292.45 29.7124C292.831 30.0632 293.022 30.491 293.022 30.9957C293.022 31.4943 292.831 31.9221 292.45 32.2791C292.074 32.63 291.619 32.8054 291.083 32.8054ZM303.264 34.8182V37.4034H295.111V34.8182H303.264ZM297.124 31.4205H300.466V44.7344C300.466 45.1837 300.534 45.5284 300.669 45.7685C300.811 46.0024 300.996 46.1624 301.223 46.2486C301.451 46.3348 301.703 46.3778 301.98 46.3778C302.19 46.3778 302.381 46.3625 302.553 46.3317C302.731 46.3009 302.867 46.2732 302.959 46.2486L303.522 48.8615C303.344 48.9231 303.088 48.9908 302.756 49.0646C302.43 49.1385 302.03 49.1816 301.556 49.1939C300.719 49.2185 299.965 49.0923 299.294 48.8153C298.623 48.5322 298.09 48.0952 297.696 47.5043C297.309 46.9134 297.118 46.1747 297.124 45.2884V31.4205ZM310.14 49.2862C309.241 49.2862 308.432 49.1262 307.712 48.8061C306.998 48.4799 306.432 47.9998 306.013 47.3658C305.601 46.7318 305.394 45.95 305.394 45.0206C305.394 44.2204 305.542 43.5587 305.838 43.0355C306.133 42.5123 306.536 42.0938 307.047 41.7798C307.558 41.4659 308.133 41.2289 308.774 41.0689C309.42 40.9027 310.088 40.7827 310.777 40.7088C311.608 40.6226 312.282 40.5457 312.799 40.478C313.316 40.4041 313.692 40.2933 313.926 40.1456C314.166 39.9917 314.286 39.7547 314.286 39.4347V39.3793C314.286 38.6837 314.079 38.1451 313.667 37.7635C313.255 37.3819 312.661 37.1911 311.885 37.1911C311.066 37.1911 310.417 37.3696 309.937 37.7266C309.463 38.0836 309.143 38.5052 308.977 38.9915L305.856 38.5483C306.102 37.6866 306.508 36.9664 307.075 36.3878C307.641 35.803 308.334 35.366 309.152 35.0767C309.971 34.7812 310.876 34.6335 311.867 34.6335C312.55 34.6335 313.23 34.7135 313.907 34.8736C314.584 35.0336 315.203 35.2983 315.763 35.6676C316.323 36.0308 316.772 36.5263 317.111 37.1541C317.456 37.782 317.628 38.5668 317.628 39.5085V49H314.415V47.0518H314.304C314.101 47.4458 313.815 47.8151 313.445 48.1598C313.082 48.4983 312.624 48.7723 312.07 48.9815C311.522 49.1847 310.879 49.2862 310.14 49.2862ZM311.008 46.8303C311.679 46.8303 312.261 46.6979 312.753 46.4332C313.245 46.1624 313.624 45.8054 313.889 45.3622C314.16 44.919 314.295 44.4358 314.295 43.9126V42.2415C314.19 42.3277 314.012 42.4077 313.759 42.4815C313.513 42.5554 313.236 42.62 312.928 42.6754C312.621 42.7308 312.316 42.7801 312.014 42.8232C311.713 42.8662 311.451 42.9032 311.23 42.9339C310.731 43.0017 310.285 43.1125 309.891 43.2663C309.497 43.4202 309.186 43.6357 308.958 43.9126C308.731 44.1835 308.617 44.5343 308.617 44.9652C308.617 45.5807 308.841 46.0455 309.291 46.3594C309.74 46.6733 310.312 46.8303 311.008 46.8303ZM324.331 30.0909V49H320.989V30.0909H324.331ZM223.865 80V61.0909H230.956C232.409 61.0909 233.627 61.3433 234.612 61.848C235.603 62.3527 236.351 63.0606 236.856 63.9716C237.367 64.8764 237.622 65.9321 237.622 67.1385C237.622 68.3511 237.364 69.4036 236.847 70.2962C236.336 71.1825 235.582 71.8688 234.585 72.3551C233.587 72.8352 232.362 73.0753 230.91 73.0753H225.859V70.2315H230.448C231.298 70.2315 231.993 70.1146 232.535 69.8807C233.076 69.6406 233.477 69.2928 233.735 68.8374C234 68.3757 234.132 67.8094 234.132 67.1385C234.132 66.4676 234 65.8951 233.735 65.4212C233.47 64.9411 233.067 64.5779 232.526 64.3317C231.984 64.0793 231.285 63.9531 230.43 63.9531H227.29V80H223.865ZM233.634 71.4318L238.315 80H234.492L229.894 71.4318H233.634ZM246.703 80.277C245.281 80.277 244.053 79.9815 243.019 79.3906C241.991 78.7936 241.2 77.9503 240.646 76.8608C240.092 75.7652 239.815 74.4756 239.815 72.9922C239.815 71.5334 240.092 70.2531 240.646 69.1513C241.206 68.0433 241.988 67.1816 242.991 66.5661C243.994 65.9444 245.173 65.6335 246.527 65.6335C247.401 65.6335 248.226 65.7751 249.002 66.0582C249.783 66.3352 250.473 66.7661 251.07 67.3509C251.673 67.9356 252.147 68.6804 252.492 69.5852C252.837 70.4839 253.009 71.5549 253.009 72.7983V73.8232H241.385V71.5703H249.805C249.799 70.9302 249.66 70.3608 249.39 69.8622C249.119 69.3575 248.74 68.9605 248.254 68.6712C247.774 68.3819 247.214 68.2372 246.574 68.2372C245.89 68.2372 245.29 68.4034 244.773 68.7358C244.256 69.062 243.853 69.4929 243.564 70.0284C243.28 70.5578 243.136 71.1394 243.13 71.7734V73.7401C243.13 74.5649 243.28 75.2727 243.582 75.8636C243.884 76.4484 244.305 76.8977 244.847 77.2116C245.389 77.5194 246.023 77.6733 246.749 77.6733C247.235 77.6733 247.675 77.6056 248.069 77.4702C248.463 77.3286 248.805 77.1224 249.094 76.8516C249.383 76.5807 249.602 76.2453 249.75 75.8452L252.87 76.196C252.673 77.0208 252.298 77.741 251.744 78.3565C251.196 78.9659 250.494 79.4399 249.639 79.7784C248.783 80.1108 247.805 80.277 246.703 80.277ZM262.004 85.6136C260.804 85.6136 259.773 85.4505 258.911 85.1243C258.049 84.8042 257.357 84.3733 256.834 83.8317C256.31 83.29 255.947 82.6899 255.744 82.0312L258.754 81.3018C258.89 81.5788 259.086 81.8527 259.345 82.1236C259.604 82.4006 259.951 82.6283 260.388 82.8068C260.831 82.9915 261.389 83.0838 262.059 83.0838C263.007 83.0838 263.792 82.853 264.414 82.3913C265.036 81.9358 265.346 81.1849 265.346 80.1385V77.4517H265.18C265.008 77.7964 264.756 78.1503 264.423 78.5135C264.097 78.8767 263.663 79.1813 263.121 79.4276C262.586 79.6738 261.912 79.7969 261.099 79.7969C260.01 79.7969 259.022 79.5414 258.135 79.0305C257.255 78.5135 256.554 77.7441 256.03 76.7223C255.513 75.6944 255.255 74.4079 255.255 72.8629C255.255 71.3056 255.513 69.9915 256.03 68.9205C256.554 67.8433 257.258 67.0277 258.145 66.4737C259.031 65.9136 260.019 65.6335 261.108 65.6335C261.939 65.6335 262.623 65.7751 263.158 66.0582C263.7 66.3352 264.131 66.6707 264.451 67.0646C264.771 67.4524 265.014 67.8187 265.18 68.1634H265.365V65.8182H268.661V80.2308C268.661 81.4434 268.372 82.4467 267.793 83.2408C267.215 84.0348 266.424 84.6288 265.42 85.0227C264.417 85.4167 263.278 85.6136 262.004 85.6136ZM262.032 77.1747C262.74 77.1747 263.343 77.0024 263.841 76.6577C264.34 76.313 264.719 75.8175 264.977 75.1712C265.236 74.5249 265.365 73.7493 265.365 72.8445C265.365 71.9519 265.236 71.1702 264.977 70.4993C264.725 69.8284 264.349 69.3082 263.851 68.9389C263.358 68.5634 262.752 68.3757 262.032 68.3757C261.287 68.3757 260.665 68.5696 260.167 68.9574C259.668 69.3452 259.293 69.8776 259.04 70.5547C258.788 71.2256 258.662 71.9889 258.662 72.8445C258.662 73.7124 258.788 74.4725 259.04 75.125C259.299 75.7713 259.677 76.276 260.176 76.6392C260.681 76.9962 261.299 77.1747 262.032 77.1747ZM272.086 80V65.8182H275.429V80H272.086ZM273.767 63.8054C273.238 63.8054 272.782 63.63 272.4 63.2791C272.019 62.9221 271.828 62.4943 271.828 61.9957C271.828 61.491 272.019 61.0632 272.4 60.7124C272.782 60.3553 273.238 60.1768 273.767 60.1768C274.302 60.1768 274.758 60.3553 275.133 60.7124C275.515 61.0632 275.706 61.491 275.706 61.9957C275.706 62.4943 275.515 62.9221 275.133 63.2791C274.758 63.63 274.302 63.8054 273.767 63.8054ZM285.052 80.277C283.667 80.277 282.467 79.9723 281.451 79.3629C280.435 78.7536 279.647 77.901 279.087 76.8054C278.533 75.7098 278.256 74.4295 278.256 72.9645C278.256 71.4995 278.533 70.2161 279.087 69.1143C279.647 68.0125 280.435 67.157 281.451 66.5476C282.467 65.9382 283.667 65.6335 285.052 65.6335C286.437 65.6335 287.637 65.9382 288.653 66.5476C289.668 67.157 290.453 68.0125 291.007 69.1143C291.567 70.2161 291.847 71.4995 291.847 72.9645C291.847 74.4295 291.567 75.7098 291.007 76.8054C290.453 77.901 289.668 78.7536 288.653 79.3629C287.637 79.9723 286.437 80.277 285.052 80.277ZM285.07 77.5994C285.821 77.5994 286.449 77.3932 286.954 76.9808C287.459 76.5623 287.834 76.0021 288.08 75.3004C288.333 74.5987 288.459 73.817 288.459 72.9553C288.459 72.0874 288.333 71.3026 288.08 70.6009C287.834 69.893 287.459 69.3298 286.954 68.9112C286.449 68.4927 285.821 68.2834 285.07 68.2834C284.301 68.2834 283.661 68.4927 283.15 68.9112C282.645 69.3298 282.267 69.893 282.014 70.6009C281.768 71.3026 281.645 72.0874 281.645 72.9553C281.645 73.817 281.768 74.5987 282.014 75.3004C282.267 76.0021 282.645 76.5623 283.15 76.9808C283.661 77.3932 284.301 77.5994 285.07 77.5994ZM298.026 71.6903V80H294.684V65.8182H297.879V68.228H298.045C298.371 67.4339 298.891 66.803 299.605 66.3352C300.325 65.8674 301.215 65.6335 302.274 65.6335C303.252 65.6335 304.105 65.8428 304.831 66.2614C305.564 66.6799 306.13 67.2862 306.53 68.0803C306.936 68.8743 307.136 69.8376 307.13 70.9702V80H303.788V71.4872C303.788 70.5393 303.542 69.7976 303.049 69.2621C302.563 68.7266 301.889 68.4588 301.027 68.4588C300.442 68.4588 299.922 68.5881 299.467 68.8466C299.017 69.099 298.664 69.4652 298.405 69.9453C298.153 70.4254 298.026 71.0071 298.026 71.6903ZM314.609 80.2862C313.71 80.2862 312.901 80.1262 312.181 79.8061C311.467 79.4799 310.9 78.9998 310.482 78.3658C310.069 77.7318 309.863 76.95 309.863 76.0206C309.863 75.2204 310.011 74.5587 310.306 74.0355C310.602 73.5123 311.005 73.0938 311.516 72.7798C312.027 72.4659 312.602 72.2289 313.242 72.0689C313.889 71.9027 314.557 71.7827 315.246 71.7088C316.077 71.6226 316.751 71.5457 317.268 71.478C317.785 71.4041 318.16 71.2933 318.394 71.1456C318.634 70.9917 318.754 70.7547 318.754 70.4347V70.3793C318.754 69.6837 318.548 69.1451 318.136 68.7635C317.723 68.3819 317.129 68.1911 316.354 68.1911C315.535 68.1911 314.886 68.3696 314.406 68.7266C313.932 69.0836 313.612 69.5052 313.445 69.9915L310.325 69.5483C310.571 68.6866 310.977 67.9664 311.544 67.3878C312.11 66.803 312.802 66.366 313.621 66.0767C314.44 65.7812 315.344 65.6335 316.335 65.6335C317.019 65.6335 317.699 65.7135 318.376 65.8736C319.053 66.0336 319.672 66.2983 320.232 66.6676C320.792 67.0308 321.241 67.5263 321.58 68.1541C321.924 68.782 322.097 69.5668 322.097 70.5085V80H318.884V78.0518H318.773C318.57 78.4458 318.284 78.8151 317.914 79.1598C317.551 79.4983 317.093 79.7723 316.539 79.9815C315.991 80.1847 315.347 80.2862 314.609 80.2862ZM315.477 77.8303C316.148 77.8303 316.729 77.6979 317.222 77.4332C317.714 77.1624 318.093 76.8054 318.357 76.3622C318.628 75.919 318.764 75.4358 318.764 74.9126V73.2415C318.659 73.3277 318.481 73.4077 318.228 73.4815C317.982 73.5554 317.705 73.62 317.397 73.6754C317.089 73.7308 316.785 73.7801 316.483 73.8232C316.182 73.8662 315.92 73.9032 315.698 73.9339C315.2 74.0017 314.753 74.1125 314.36 74.2663C313.966 74.4202 313.655 74.6357 313.427 74.9126C313.199 75.1835 313.085 75.5343 313.085 75.9652C313.085 76.5807 313.31 77.0455 313.759 77.3594C314.209 77.6733 314.781 77.8303 315.477 77.8303ZM328.8 61.0909V80H325.458V61.0909H328.8Z" fill="white"/>
<g clip-path="url(#clip0_171_126924)">
<path d="M87 138.988L49.8688 114.07L0 143.084L37.1326 168L87 138.988Z" fill="#C4C443"/>
<path d="M34.5528 157.603L27.1551 161.948L7.94922 149.144L15.2851 144.759L8.61905 140.316L44.7011 118.744L77.917 141.269L41.8362 162.459L34.5528 157.603Z" fill="#807E89"/>
<path d="M44.6789 119.424L76.8402 141.235L41.8543 161.782L34.5709 156.927L27.1732 161.272L9.02047 149.171L16.3563 144.786L9.6903 140.343L44.6789 119.424ZM44.7179 118.064L44.0871 118.441L9.09983 139.358L7.54227 140.289L9.05141 141.295L14.2083 144.732L8.42865 148.187L6.87109 149.118L8.38023 150.123L26.5316 162.223L27.1315 162.623L27.7542 162.256L34.5305 158.277L41.2141 162.733L41.8139 163.132L42.4367 162.766L77.4239 142.219L78.9882 141.3L77.4871 140.282L45.3258 118.476L44.7179 118.064Z" fill="#EAE3E1"/>
<path opacity="0.4" d="M44.0664 158.164L55.549 157.107L83.4398 140.936L72.892 134.346L56.079 140.298L48.7727 143.025L47.0174 145.792L44.1189 151.694L44.0664 158.164Z" fill="#382C36"/>
<path d="M44.0676 158.089L15.3281 139.088V96.6152L44.0676 115.616V158.089Z" fill="#F4F5F7"/>
<path d="M44.0676 158.11L15.3281 139.109V136.207L44.0676 155.209V158.11Z" fill="#CAE2EF"/>
<path opacity="0.1" d="M38.8242 154.642L38.9399 134.156L41.7483 140.651V144.721L39.5774 143.388L39.5922 155.157L38.8242 154.642Z" fill="#382C36"/>
<path d="M44.0676 117.029L15.3281 97.9899V96.6152L44.0676 115.616V117.029Z" fill="#BDCAD3"/>
<path d="M44.0664 158.093L73.0332 141.264V98.791L44.0664 115.62V158.093Z" fill="#BDCAD3"/>
<path d="M37.8594 155.385L38.9004 154.63V138.607L37.8594 139.134V155.385Z" fill="#CACAC8"/>
<path d="M73.0353 98.7917L44.2958 79.791L15.3438 96.6151L44.0833 115.616L73.0353 98.7917Z" fill="#F99770"/>
<path d="M44.0676 121.528L15.3281 102.528V99.627L44.0676 118.626V121.528Z" fill="#CAE2EF"/>
<path d="M44.0703 121.535L73.0371 104.705V101.805L44.0703 118.633V121.535Z" fill="#4B7CA4"/>
<path d="M44.0703 158.115L73.0371 141.286V138.385L44.0703 155.214V158.115Z" fill="#4B7CA4" stroke="#4B7CA4" stroke-width="0.172131" stroke-miterlimit="10"/>
<path d="M73.753 98.7912V97.43L44.3316 79.3613L14.625 95.2534V96.6146L44.0478 116.044L73.753 98.7912Z" fill="#EBF2FA"/>
<path d="M44.3316 79.3613L44.0478 115.055L44.0195 116.397L44.0478 116.044L73.753 98.7912V97.43L44.3316 79.3613Z" fill="#CACAC8"/>
<path d="M73.753 97.4299L44.3316 78L14.625 95.2533L44.0478 114.684L73.753 97.4299Z" fill="white"/>
<path d="M71.344 97.4309L44.2105 79.4414L17.0312 95.253L44.1648 113.243L71.344 97.4309Z" fill="#D4D4D4"/>
<path d="M44.2105 79.4414L17.0312 95.253L18.8202 96.3782L44.2105 81.5872V79.4414Z" fill="#C7C7C7"/>
<path d="M44.2109 81.5872L69.5556 98.4502L71.3445 97.4309L44.2109 79.4414V81.5872Z" fill="#F4F5F7"/>
<path opacity="0.1" d="M20.0781 142.198V121.713L22.8879 128.208V132.279L20.717 130.946L20.7305 142.715L20.0781 142.198Z" fill="#7466A4"/>
<path d="M21.793 143.064V127.355L35.7626 136.527V152.244L21.793 143.064Z" fill="#435A5E"/>
<path d="M22.0936 127.915L35.4565 136.69V151.682L22.0936 142.901V127.915ZM21.4883 126.793V127.915V142.9V143.225L21.7613 143.405L35.1243 152.187L36.0645 152.805V151.682V136.69V136.364L35.7915 136.185L22.4285 127.41L21.4883 126.793Z" fill="#EAE3E1"/>
<path opacity="0.6" d="M31.57 148.736L31.8283 141.855L25.5859 139.533V144.798L31.57 148.736Z" fill="#435A5E"/>
<path opacity="0.1" d="M45.0907 112.716L19.5833 95.827L17.0156 95.2383L44.1599 113.248L45.0907 112.716Z" fill="#382C36"/>
<g opacity="0.8">
<path d="M16.7566 112.943L42.1309 129.636V132.632L16.7566 116.064V112.943ZM16.2227 111.953V112.942L16.567 116.58L43.1248 133.844V122.989L42.7644 122.167L17.0499 112.498L16.2227 111.953Z" fill="#BDCAD3"/>
</g>
<path d="M16.4531 115.763V105.262L42.434 122.354V132.726L16.4531 115.763Z" fill="#435A5E"/>
<path d="M16.7551 105.823L42.1293 122.516V132.166L16.7551 115.598V105.823ZM16.1484 104.699V105.823V115.598V115.926L16.4228 116.105L41.797 132.672L42.7359 133.285V132.166V122.516V122.19L42.4628 122.01L17.0886 105.319L16.1484 104.699Z" fill="#EAE3E1"/>
<path d="M18.1054 116.862L16.4375 115.732V105.352L18.1054 106.483V116.862Z" fill="#EAE3E1"/>
<path d="M26.1809 122.142L24.5117 121.011V110.631L26.1809 111.763V122.142Z" fill="#EAE3E1"/>
<path d="M34.2551 127.419L32.5859 126.288V115.908L34.2551 117.04V127.419Z" fill="#EAE3E1"/>
<path d="M42.328 132.698L40.6602 131.568V121.188L42.328 122.319V132.698Z" fill="#EAE3E1"/>
<path d="M19.7747 115.598L18.1055 116.489V106.715L19.7747 107.821V115.598Z" fill="#BDCAD3"/>
<path d="M19.7747 115.598L18.1055 116.488L24.5119 120.683V118.614L19.7747 115.598Z" fill="white"/>
<path d="M27.8514 120.9L26.1836 121.79V112.018L27.8514 113.124V120.9Z" fill="#BDCAD3"/>
<path d="M27.8514 120.898L26.1836 121.789L32.5887 125.985L32.59 123.916L27.8514 120.898Z" fill="white"/>
<path d="M35.9179 126.21L34.25 127.101V117.328L35.9179 118.435V126.21Z" fill="#BDCAD3"/>
<path d="M35.9179 126.211L34.25 127.101L40.6551 131.298L40.6564 129.227L35.9179 126.211Z" fill="white"/>
<path d="M24.6379 145.313L24.0312 144.927V137.055H24.6379V145.313Z" fill="#EAE3E1"/>
<path d="M33.1183 150.56L32.5117 150.172V141.023H33.1183V150.56Z" fill="#EAE3E1"/>
<path d="M25.5871 144.796L24.9805 144.41V135.26H25.5871V144.796Z" fill="#EAE3E1"/>
<path d="M32.1144 149.068L31.5078 148.682V139.531H32.1144V149.068Z" fill="#EAE3E1"/>
<path d="M22.2472 117.171L21.6406 116.783V108.912H22.2472V117.171Z" fill="#EAE3E1"/>
<path d="M30.3215 122.525L29.7148 122.138V114.266H30.3215V122.525Z" fill="#EAE3E1"/>
<path d="M38.4959 127.883L37.8906 127.495V119.623H38.4959V127.883Z" fill="#EAE3E1"/>
<g opacity="0.8">
<path opacity="0.5" d="M71.3769 115.303V118.443L46.0027 132.822V129.826L71.3769 115.303ZM71.9109 114.354L71.0824 114.831L45.7082 129.355L45.4688 129.492V129.779V132.775V133.759L46.2946 133.294L71.6688 118.916L71.9096 118.778V118.488V115.349V114.354H71.9109Z" fill="#ADA17C"/>
</g>
<path d="M45.6953 122.515L71.6775 107.602V118.164L45.6953 132.888V122.515Z" fill="#303A3A"/>
<path d="M71.3754 108.142V117.975L46.0011 132.356V122.705L71.3754 108.142ZM71.982 107.062L71.0418 107.606L45.6676 122.17L45.3945 122.326V122.651V132.302V133.421L46.3334 132.892L71.7076 118.513L71.982 118.356V118.027V108.193V107.062Z" fill="#D1CAC8"/>
<path d="M70.0234 119.128L71.6913 118.136V107.695L70.0234 108.692V119.128Z" fill="#D1CAC8"/>
<path d="M61.9492 123.728L63.6184 122.738V112.316L61.9492 113.31V123.728Z" fill="#D1CAC8"/>
<path d="M53.875 128.309L55.5442 127.323V116.92L53.875 117.91V128.309Z" fill="#D1CAC8"/>
<path d="M45.8008 132.87L47.4686 131.889V121.504L45.8008 122.49V132.87Z" fill="#D1CAC8"/>
<path d="M68.3555 117.713L70.0247 118.752V108.926L68.3555 109.874V117.713Z" fill="#A4B1BA"/>
<path d="M68.3544 117.713L70.0236 118.752L63.6172 122.412V120.333L68.3544 117.713Z" fill="#E6E6E6"/>
<path d="M60.2816 122.335L61.9495 123.374V113.551L60.2695 114.52L60.2816 122.335Z" fill="#A4B1BA"/>
<path d="M60.2802 122.336L61.9481 123.375L55.543 127.019V124.946L60.2802 122.336Z" fill="#E6E6E6"/>
<path d="M52.2109 126.949L53.8788 127.988V118.184L52.2109 119.148V126.949Z" fill="#A4B1BA"/>
<path d="M52.2112 126.949L53.8791 127.989L47.474 131.618L47.4727 129.547L52.2112 126.949Z" fill="#E6E6E6"/>
<path d="M65.8867 119.079L66.492 118.743V110.834L65.8867 110.783V119.079Z" fill="#D1CAC8"/>
<path d="M57.8086 123.751L58.4152 123.416V115.521L57.8086 115.469V123.751Z" fill="#D1CAC8"/>
<path d="M49.6367 128.395L50.2433 128.062V120.181L49.6367 120.129V128.395Z" fill="#D1CAC8"/>
<path d="M37.857 155.385L37.3203 155.047V139.675L37.857 139.369V155.385Z" fill="#F4F5F7"/>
<g opacity="0.1">
<path d="M37.8572 142.93V139.133L38.2055 138.956L38.1248 138.604L37.1658 138.719C37.1658 138.719 35.7091 139.254 35.5168 139.292C35.3258 139.33 33.5234 140.171 33.5234 140.171L37.0891 141.853V142.58L37.8572 142.93Z" fill="#7466A4"/>
</g>
<g opacity="0.8">
<path opacity="0.5" d="M71.3769 130.872V134.012L46.0027 148.391V145.395L71.3769 130.872ZM71.9109 129.924L71.0824 130.401L45.7082 144.925L45.4688 145.062V145.349V148.345V149.33L46.2946 148.864L71.6688 134.486L71.9096 134.348V134.058V130.919V129.924H71.9109Z" fill="#ADA17C"/>
</g>
<path d="M45.6953 138.085L71.6775 123.172V133.734L45.6953 148.457V138.085Z" fill="#303A3A"/>
<path d="M71.3754 123.711V133.544L46.0011 147.926V138.274L71.3754 123.711ZM71.982 122.633L71.0418 123.176L45.6676 137.74L45.3945 137.896V138.222V147.872V148.991L46.3334 148.462L71.7076 134.082L71.982 133.925V133.596V123.762V122.633Z" fill="#D1CAC8"/>
<path d="M70.0234 134.698L71.6913 133.704V123.264L70.0234 124.261V134.698Z" fill="#D1CAC8"/>
<path d="M61.9492 139.298L63.6184 138.308V127.887L61.9492 128.88V139.298Z" fill="#D1CAC8"/>
<path d="M53.875 143.878L55.5442 142.893V132.488L53.875 133.478V143.878Z" fill="#D1CAC8"/>
<path d="M45.8008 148.44L47.4686 147.458V137.074L45.8008 138.059V148.44Z" fill="#D1CAC8"/>
<path d="M68.3555 133.283L70.0247 134.322V124.496L68.3555 125.467V133.283Z" fill="#A4B1BA"/>
<path d="M68.3544 133.283L70.0236 134.323L63.6172 137.981V135.904L68.3544 133.283Z" fill="#E6E6E6"/>
<path d="M60.2812 137.906L61.9491 138.946V129.137L60.2812 130.104V137.906Z" fill="#A4B1BA"/>
<path d="M60.2802 137.906L61.9481 138.946L55.543 142.589V140.515L60.2802 137.906Z" fill="#E6E6E6"/>
<path d="M52.2109 142.52L53.8788 143.559V133.768L52.2109 134.73V142.52Z" fill="#A4B1BA"/>
<path d="M52.2112 142.52L53.8791 143.559L47.474 147.188L47.4727 145.117L52.2112 142.52Z" fill="#E6E6E6"/>
<path d="M65.8867 134.649L66.492 134.312V126.404L65.8867 126.352V134.649Z" fill="#D1CAC8"/>
<path d="M57.8086 139.32L58.4152 138.986V131.091L57.8086 131.039V139.32Z" fill="#D1CAC8"/>
<path d="M49.6367 143.964L50.2433 143.631V135.75L49.6367 135.697V143.964Z" fill="#D1CAC8"/>
<path d="M19.1094 142.829L20.1504 142.302V126.281L19.1094 126.808V142.829Z" fill="#CACAC8"/>
<path d="M19.1109 142.829L18.5742 142.491V127.349L19.1109 127.043V142.829Z" fill="#F4F5F7"/>
<path d="M38.9437 138.77V135.133L11.8008 130.664L30.8641 143.34L38.9437 138.77Z" fill="#CACAC8"/>
<path d="M30.8789 138.088L11.8008 127.025V130.662L30.8641 143.339L30.8789 138.088Z" fill="#F4F5F7"/>
<path d="M38.9419 135.131L19.65 122.34L11.5703 126.91L30.8622 139.702L38.9419 135.131Z" fill="#DCDEE2"/>
<path d="M39.171 134.991V134.204L19.7553 122.787L11.5586 126.179V126.966L30.9743 139.744L39.171 134.991Z" fill="#EBF2FA"/>
<path d="M19.7539 122.9L30.9729 139.071L30.9433 139.84L30.9729 139.859L39.1696 135.106V134.319L19.7539 122.9Z" fill="#CACAC8"/>
<path d="M39.171 134.204L19.7553 121.426L11.5586 126.179L30.9743 138.957L39.171 134.204Z" fill="white"/>
<path d="M36.7606 134.205L19.6342 122.867L13.9648 126.178L31.0913 137.516L36.7606 134.205Z" fill="#D4D4D4"/>
<path d="M19.6342 122.867L13.9648 126.178L14.749 126.717L19.6342 123.865V122.867Z" fill="#C7C7C7"/>
<path d="M19.6367 123.865L35.8566 134.717L36.7631 134.205L19.6367 122.867V123.865Z" fill="#F4F5F7"/>
<path d="M15.0367 131.214L14.9372 131.683L14.6211 131.47L15.0461 129.666L15.4483 129.938L15.8518 132.297L15.5236 132.076L15.4241 131.472L15.0367 131.214ZM15.381 131.094L15.3003 130.597C15.2775 130.457 15.2546 130.287 15.2344 130.149L15.2304 130.146C15.2089 130.256 15.1887 130.4 15.1658 130.506L15.0824 130.893L15.381 131.094Z" fill="#00A200"/>
<path d="M17.3033 132.479C17.3006 132.227 17.2979 131.924 17.3006 131.623L17.2952 131.619C17.2495 131.854 17.1903 132.109 17.1365 132.317L16.963 133.011L16.7249 132.852L16.589 131.955C16.5473 131.682 16.5043 131.357 16.4747 131.066L16.4707 131.063C16.4599 131.336 16.4505 131.652 16.4384 131.902L16.4075 132.672L16.125 132.482L16.2299 130.469L16.6375 130.745L16.7625 131.524C16.8029 131.792 16.8419 132.078 16.8688 132.34L16.8742 132.344C16.9145 132.13 16.9643 131.889 17.01 131.689L17.162 131.102L17.5615 131.373L17.6113 133.482L17.3127 133.281L17.3033 132.479Z" fill="#00A200"/>
<path d="M17.993 131.693C18.0737 131.723 18.2364 131.815 18.3897 131.919C18.5767 132.046 18.691 132.151 18.7879 132.305C18.8807 132.444 18.9479 132.631 18.9452 132.816C18.9426 132.998 18.8699 133.12 18.7166 133.103V133.108C18.8699 133.276 18.9816 133.529 18.9775 133.794C18.9748 133.979 18.917 134.087 18.8309 134.134C18.7314 134.186 18.5659 134.144 18.2983 133.963C18.1476 133.862 18.036 133.771 17.9688 133.71L17.993 131.693ZM18.2727 133.595C18.3023 133.622 18.3386 133.646 18.3911 133.681C18.5296 133.773 18.652 133.777 18.6561 133.562C18.6588 133.355 18.5377 133.19 18.3857 133.087L18.2808 133.016L18.2727 133.595ZM18.2862 132.684L18.3871 132.753C18.5471 132.861 18.6345 132.82 18.6372 132.667C18.6399 132.511 18.5619 132.377 18.4234 132.283C18.3575 132.238 18.3185 132.219 18.2929 132.207L18.2862 132.684Z" fill="#00A200"/>
<path d="M19.6305 132.78L19.6117 133.954C19.6063 134.306 19.691 134.544 19.8471 134.649C20.0071 134.756 20.0986 134.648 20.104 134.287L20.1241 133.115L20.4295 133.321L20.4093 134.463C20.3985 135.09 20.182 135.248 19.8309 135.011C19.4906 134.782 19.2956 134.362 19.305 133.71L19.3225 132.57L19.6305 132.78Z" fill="#00A200"/>
<path d="M20.8189 133.584L21.1269 133.792L21.0946 135.435L21.6313 135.795L21.6232 136.18L20.7812 135.614L20.8189 133.584Z" fill="#00A200"/>
<path d="M22.2596 136.085L22.152 136.539L21.8359 136.327L22.2933 134.586L22.6954 134.858L23.0667 137.154L22.7385 136.934L22.6457 136.347L22.2596 136.085ZM22.6107 135.975L22.5367 135.491C22.5152 135.356 22.495 135.189 22.4775 135.057L22.4735 135.054C22.4506 135.16 22.4278 135.299 22.4022 135.401L22.3121 135.775L22.6107 135.975Z" fill="#00A200"/>
<path d="M23.3672 137.355L23.417 135.346L23.7747 135.588L24.037 136.512C24.1123 136.778 24.185 137.081 24.2388 137.348L24.2442 137.352C24.2307 137.074 24.2321 136.799 24.2401 136.5L24.2563 135.916L24.5374 136.106L24.4822 138.104L24.1621 137.89L23.8944 136.923C23.8205 136.655 23.7384 136.337 23.6779 136.056L23.6725 136.055C23.6739 136.325 23.6712 136.61 23.6618 136.938L23.647 137.542L23.3672 137.355Z" fill="#00A200"/>
<path d="M25.8591 138.974C25.8013 138.978 25.6748 138.938 25.5107 138.826C25.0453 138.514 24.8167 137.922 24.8328 137.354C24.8517 136.673 25.192 136.517 25.6022 136.795C25.7609 136.902 25.8793 137.031 25.9331 137.108L25.8604 137.424C25.7999 137.343 25.7138 137.249 25.6062 137.175C25.3628 137.011 25.1691 137.099 25.1556 137.543C25.1435 137.943 25.2969 138.301 25.5686 138.484C25.66 138.546 25.7636 138.585 25.8241 138.59L25.8591 138.974Z" fill="#00A200"/>
<path d="M27.0082 138.947L26.5119 138.612L26.4971 139.082L27.0513 139.455L27.0392 139.821L26.1797 139.243L26.2416 137.26L27.0768 137.826L27.0647 138.192L26.5375 137.835L26.524 138.247L27.0217 138.582L27.0082 138.947Z" fill="#00A200"/>
<path opacity="0.2" d="M27.4688 128.51V129.105L30.4588 131.106V130.489L27.4688 128.51Z" fill="#435A5E"/>
<g opacity="0.5">
<path d="M23.1762 117.756L22.4688 117.315L23.6188 110.348L24.3949 110.849L23.1762 117.756Z" fill="#BDCAD3"/>
</g>
<g opacity="0.5">
<path d="M31.9116 123.481L30.5195 122.589L31.6695 115.623L32.5949 116.243L32.5882 119.365L31.9116 123.481Z" fill="#BDCAD3"/>
</g>
<g opacity="0.5">
<path d="M39.9927 128.807L39.2422 128.324L40.3882 121.395L40.6854 121.555L40.6787 124.678L39.9927 128.807Z" fill="#BDCAD3"/>
</g>
<g opacity="0.4">
<path d="M32.0602 136.953L26.6558 133.48L27.3781 133.069L28.2363 133.599L30.6708 132.414L29.3123 131.539L30.3641 131.077L27.4884 129.089L25.5072 129.971L23.1708 128.109L20.7121 129.275L22.6772 130.484L22.7081 130.942L15.4705 126.289L13.9492 126.164L22.7081 131.97V132.64L23.6268 133.398L24.9301 133.413L31.0864 137.522L32.0602 136.953Z" fill="#C6BA95"/>
</g>
<path d="M27.6439 127.787L25.0533 126.083V122.963L22.3727 121.111L21.033 121.964L22.4695 124.42L19.9691 122.719L18.6133 123.548L19.7862 126.716L22.1413 128.266L23.6962 133.467L25.0533 132.638V129.669L26.2881 132.078L27.6439 131.249V127.787Z" fill="#008035"/>
<path d="M21.1887 131.526V128.609C21.1887 128.551 21.1605 128.498 21.1121 128.465L18.7852 126.918V123.871L20.9197 125.291C20.948 125.31 20.9816 125.321 21.0152 125.321C21.0435 125.321 21.0704 125.314 21.0959 125.3C21.1524 125.271 21.1874 125.212 21.1874 125.149V122.27L23.5224 123.883V126.912C23.5224 126.97 23.552 127.024 23.6004 127.056L26.1143 128.711V131.759L23.7914 130.23C23.7632 130.212 23.7295 130.202 23.6959 130.202C23.6677 130.202 23.6394 130.209 23.6139 130.222C23.5574 130.252 23.5237 130.311 23.5237 130.374V133.141L21.1887 131.526Z" fill="#00B535"/>
<path d="M21.3612 122.599L23.3519 123.973V126.913C23.3519 127.028 23.4097 127.137 23.5065 127.2L25.9424 128.804V131.439L23.8872 130.086C23.8294 130.048 23.7634 130.03 23.6975 130.03C23.641 130.03 23.5859 130.043 23.5334 130.071C23.4218 130.132 23.3519 130.248 23.3519 130.374V132.812L21.3612 131.438V128.611C21.3612 128.495 21.3034 128.388 21.2079 128.325L18.9576 126.828V124.194L20.8245 125.436C20.8824 125.475 20.9496 125.494 21.0155 125.494C21.0707 125.494 21.1272 125.481 21.1783 125.454C21.2899 125.393 21.3612 125.277 21.3612 125.151V122.599ZM21.0169 121.941V125.149L18.6133 123.551V127.011L21.0169 128.609V131.616L23.6975 133.468V130.373L26.2881 132.079V128.619L23.6975 126.913V123.793L21.0169 121.941Z" fill="white"/>
<path d="M26.2911 128.618L27.1627 128.151L24.5722 126.445L23.6992 126.912L26.2911 128.618Z" fill="#00B535"/>
<path d="M23.7172 123.784L25.0555 122.963L22.3748 121.111L21.0352 121.964L23.7172 123.784Z" fill="#00B535"/>
<path d="M21.0279 125.218L21.0225 123.43L19.9707 122.721L18.6055 123.554L21.0279 125.218Z" fill="#00B535"/>
<path opacity="0.4" d="M45.3926 122.338L71.9827 107.063L71.5174 106.746L45.3711 121.762L45.3926 122.338Z" fill="white"/>
<path opacity="0.4" d="M45.3756 137.904L71.9658 122.629L71.5004 122.312L45.3555 137.329L45.3756 137.904Z" fill="white"/>
<path opacity="0.3" d="M16.0536 150.431C16.0415 150.431 16.0307 150.431 16.0186 150.429L12.9398 150.256C12.6049 150.238 12.3493 149.952 12.3682 149.618C12.387 149.284 12.6775 149.028 13.0084 149.048L16.0872 149.221C16.4221 149.24 16.6777 149.525 16.6588 149.859C16.6414 150.183 16.3737 150.431 16.0536 150.431Z" fill="#382C36"/>
<path opacity="0.3" d="M29.538 159.425C29.5258 159.425 29.5151 159.425 29.503 159.423L26.4242 159.25C26.0893 159.232 25.8337 158.946 25.8525 158.612C25.8714 158.278 26.1565 158.022 26.4928 158.042L29.5716 158.215C29.9065 158.234 30.1621 158.52 30.1432 158.853C30.1257 159.175 29.8581 159.425 29.538 159.425Z" fill="#382C36"/>
<path d="M13.3702 143.305C13.5074 143.189 13.5962 143.018 13.5962 142.824C13.5962 142.474 13.3124 142.189 12.96 142.189C12.6089 142.189 12.3238 142.474 12.3238 142.824C12.3238 143.018 12.4125 143.189 12.5511 143.305C12.2794 143.451 12.0938 143.734 12.0938 144.063V149.511C12.0938 149.988 12.4825 150.232 12.9613 150.232C13.4401 150.232 13.8289 149.989 13.8289 149.511V144.063C13.8275 143.733 13.6405 143.451 13.3702 143.305Z" fill="#4C4949"/>
<path d="M26.9366 152.337C27.0738 152.22 27.1626 152.048 27.1626 151.855C27.1626 151.505 26.8774 151.221 26.5264 151.221C26.1753 151.221 25.8902 151.505 25.8902 151.855C25.8902 152.05 25.9789 152.22 26.1175 152.337C25.8458 152.483 25.6602 152.766 25.6602 153.094V158.542C25.6602 159.019 26.0489 159.262 26.5277 159.262C27.0065 159.262 27.3953 159.019 27.3953 158.542V153.094C27.3953 152.766 27.2083 152.483 26.9366 152.337Z" fill="#4C4949"/>
<path d="M47.217 97.2337L51.0665 99.767L47.79 101.7L43.9203 99.1515L39.3512 101.81L36.0599 99.6544L40.6384 96.9909L36.8373 94.4884L40.1125 92.5559L43.9351 95.0732L48.5136 92.4097L51.8063 94.5649L47.217 97.2337ZM43.9741 89.4258C37.1493 89.4258 31.6172 92.8872 31.6172 97.1572C31.6172 101.427 37.1493 104.889 43.9741 104.889C50.7988 104.889 56.331 101.427 56.331 97.1572C56.3323 92.8872 50.8002 89.4258 43.9741 89.4258Z" fill="#00B535"/>
<path opacity="0.95" d="M47.2171 97.2341L51.0666 99.7674L47.7901 101.7L43.9204 99.1519L39.3513 101.811L36.0586 99.6561L40.6385 96.9914L36.836 94.4889L40.1125 92.5577L43.9352 95.0736L48.5137 92.4102L51.8063 94.564L47.2171 97.2341Z" fill="white"/>
</g>
<defs>
<clipPath id="clip0_171_126924">
<rect width="87" height="90" fill="white" transform="translate(0 78)"/>
</clipPath>
</defs>
</svg>
