<svg width="467" height="159" viewBox="0 0 467 159" fill="none" xmlns="http://www.w3.org/2000/svg">
<path d="M3.03906 124.307L50.0886 97.8398L106.076 129.745L59.1548 156.803L3.03906 124.307Z" fill="#3B495C"/>
<path d="M106.076 129.746V131.944L59.1543 159.001V156.803L106.076 129.746Z" fill="#233143"/>
<path d="M3.03906 124.307V126.505L59.1548 159V156.802L3.03906 124.307Z" fill="#233143"/>
<path d="M50.6332 73.3633L10.4199 96.1934V123.15L50.6332 100.027V73.3633Z" fill="#C6C3C1"/>
<path d="M12.7361 96.6875L11.123 97.6014V124.563L12.7361 123.635V96.6875Z" fill="#FBAD32"/>
<path opacity="0.5" d="M23.3063 104.168L11.9277 110.712V113.609L25.8424 105.612L23.3063 104.168Z" fill="white"/>
<path opacity="0.5" d="M26.8843 106.201L11.9277 114.801V115.642L27.62 106.617L26.8843 106.201Z" fill="white"/>
<path opacity="0.5" d="M11.9277 97.7109V98.666L12.764 98.1862L11.9277 97.7109Z" fill="white"/>
<path opacity="0.5" d="M11.9277 124.096L30.1973 134.597V108.083L30.1105 108.033L11.9277 118.484V124.096Z" fill="white"/>
<path opacity="0.5" d="M28.141 106.914L11.9277 116.236V117.89L29.585 107.737L28.141 106.914Z" fill="white"/>
<path d="M41.8172 99.0491V98.4551L27.6191 106.617L28.1401 106.914L41.8172 99.0491Z" fill="white"/>
<path opacity="0.8" d="M27.62 106.617L11.9277 115.642V116.236L28.141 106.914L27.62 106.617Z" fill="white"/>
<path d="M41.9607 100.621L29.5859 107.736L30.1115 108.033L41.9607 101.215V100.621Z" fill="white"/>
<path opacity="0.8" d="M11.9277 117.89V118.484L30.1105 108.033L29.585 107.736L11.9277 117.89Z" fill="white"/>
<path d="M41.8174 97.6146V96.4219L25.8418 105.612L26.8837 106.201L41.8174 97.6146Z" fill="white"/>
<path opacity="0.8" d="M25.8424 105.611L11.9277 113.608V114.801L26.8843 106.201L25.8424 105.611Z" fill="white"/>
<path d="M35.6212 97.0848V85.0391L12.7637 98.1861L23.3059 104.168L35.6212 97.0848Z" fill="white"/>
<path opacity="0.8" d="M12.764 98.1855L11.9277 98.6654V110.711L23.3063 104.167L12.764 98.1855Z" fill="white"/>
<path d="M99.4047 102.445L59.1914 125.275V152.232L99.4047 129.109V102.445Z" fill="#FBAD32"/>
<path d="M40.5936 112.736L38.9805 113.655V140.611L40.5936 139.684V112.736Z" fill="#FBAD32"/>
<path d="M11.1511 97.999L9.69336 97.1719V123.767L11.1511 124.608V97.999Z" fill="#FBAD32"/>
<path d="M29.6621 108.51V135.252L38.9797 140.612V113.801L29.6621 108.51Z" fill="#FBAD32"/>
<path opacity="0.5" d="M53.5799 121.445L39.9531 129.282V130.119L54.3157 121.861L53.5799 121.445Z" fill="white"/>
<path opacity="0.5" d="M54.8366 122.158L39.9531 130.713V132.367L56.2852 122.976L54.8366 122.158Z" fill="white"/>
<path opacity="0.5" d="M50.0019 119.412L39.9531 125.188V128.09L52.538 120.852L50.0019 119.412Z" fill="white"/>
<path opacity="0.5" d="M39.9531 140.09L58.2182 150.591V124.078L56.8061 123.273L39.9531 132.966V140.09Z" fill="white"/>
<path opacity="0.8" d="M54.3157 121.861L39.9531 130.119V130.713L54.8366 122.158L54.3157 121.861Z" fill="white"/>
<path opacity="0.8" d="M39.9531 132.367V132.966L56.8061 123.274L56.2852 122.977L39.9531 132.367Z" fill="white"/>
<path opacity="0.8" d="M52.538 120.852L39.9531 128.09V129.283L53.5799 121.446L52.538 120.852Z" fill="white"/>
<path opacity="0.8" d="M39.9531 113.705V125.189L50.0019 119.413L39.9531 113.705Z" fill="white"/>
<path d="M49.1786 119.002L48.6074 118.678V145.059L49.1786 145.388V119.002Z" fill="#888D9A"/>
<path d="M57.2344 124.166V151.109L59.1902 152.233V125.276L57.2344 124.166Z" fill="#FBAD32"/>
<path d="M59.1906 125.889L56.1289 118.678L99.4038 93.8281V103.086L59.1906 125.889Z" fill="#BECCC6"/>
<path d="M99.4053 93.8271L53.4891 120.468L9.74805 95.687L55.5866 69L99.4053 93.8271Z" fill="white"/>
<path d="M93.9581 94.655L95.4707 93.7822L55.8241 70.8652L16.7441 93.5355L18.3618 94.4905L55.9292 72.6977L93.9581 94.655Z" fill="#7C8982"/>
<path d="M93.9569 94.6546L55.928 72.6973L23.4375 91.5427L61.4116 113.473L93.9569 94.6546Z" fill="#A2AAA6"/>
<path d="M56.3263 116.416L61.4123 113.473L23.4383 91.543L18.3613 94.4904L56.3263 116.416Z" fill="#8C9993"/>
<path d="M10.1502 88.498V89.1881L3.03516 93.2962V92.6062L10.1502 88.498Z" fill="#243954"/>
<path d="M10.1502 94.9648V95.6594L3.03516 99.7676V99.073L10.1502 94.9648Z" fill="#243954"/>
<path d="M8.7832 87.3145L58.2866 115.418V126.399L8.7832 97.9344V87.3145Z" fill="#243954"/>
<path d="M9.69257 86.8262L8.7832 87.3151L58.2866 115.419L59.1914 114.93L9.69257 86.8262Z" fill="#243954"/>
<path d="M58.2871 126.4L59.1919 125.911V114.93L58.2871 115.419V126.4Z" fill="#243954"/>
<path d="M31.8594 118.782L37.4572 122.012V120.152L31.8594 117.004V118.782Z" fill="white"/>
<path d="M54.2155 138.762L50.8613 136.842V130.879L54.2155 132.798V138.762Z" fill="#243954"/>
<path d="M53.8908 133.104L51.1855 131.555V131.92L53.8908 133.469V133.104Z" fill="white"/>
<path d="M53.8908 133.84L51.1855 132.291V132.661L53.8908 134.21V133.84Z" fill="white"/>
<path d="M51.3223 134.252C51.3223 133.731 51.5279 133.544 51.8112 133.708C52.0945 133.873 52.3002 134.298 52.3002 134.819C52.3002 135.344 52.0945 135.536 51.8112 135.372C51.5233 135.207 51.3223 134.778 51.3223 134.252ZM51.9894 134.641C51.9894 134.27 51.9072 134.097 51.8067 134.037C51.7061 133.978 51.6284 134.06 51.6284 134.43C51.6284 134.805 51.7107 134.983 51.8067 135.043C51.9072 135.097 51.9894 135.011 51.9894 134.641ZM51.8798 136.464L52.9399 134.362L53.1913 134.508L52.1357 136.615L51.8798 136.464ZM52.7663 136.139C52.7663 135.618 52.9765 135.431 53.2552 135.596C53.5386 135.76 53.7442 136.185 53.7442 136.706C53.7442 137.232 53.5386 137.423 53.2552 137.259C52.9719 137.094 52.7663 136.665 52.7663 136.139ZM53.438 136.528C53.438 136.153 53.3558 135.984 53.2598 135.925C53.1593 135.865 53.077 135.943 53.077 136.318C53.077 136.692 53.1593 136.871 53.2598 136.93C53.3558 136.985 53.438 136.903 53.438 136.528Z" fill="white"/>
<path d="M47.2188 130.316L45.2676 129.201V125.729L47.2188 126.844V130.316Z" fill="#243954"/>
<path d="M28.0859 127.395L21.1445 123.42V111.072L28.0859 115.048V127.395Z" fill="#243954"/>
<path d="M27.6697 117.278L21.7383 113.883V114.573L27.6697 117.968V117.278Z" fill="white"/>
<path d="M27.6697 116.04L21.7383 112.645V113.335L27.6697 116.73V116.04Z" fill="white"/>
<path d="M8.36203 87.2891L0.662109 91.6623V102.643L8.36203 98.2152V87.2891Z" fill="#243954"/>
<path d="M8.36203 92.123L0.662109 96.4962V97.1497L8.36203 92.7262V92.123Z" fill="white"/>
<path d="M8.36203 93.6035L0.662109 97.9721V98.6302L8.36203 94.2021V93.6035Z" fill="white"/>
<path d="M8.36203 95.0117L0.662109 99.3849V100.038L8.36203 95.6103V95.0117Z" fill="white"/>
<path d="M0 102.25L0.662605 102.643V91.6625L0 91.2695V102.25Z" fill="#243954"/>
<path d="M8.36253 87.2888L7.69992 86.9004L0 91.269L0.662605 91.662L8.36253 87.2888Z" fill="#243954"/>
<rect x="166" width="301" height="141" rx="18" fill="#006DB7"/>
<path d="M110 102L221.5 66.026L189.5 42L110 102Z" fill="#006DB7"/>
<rect x="191.048" y="49.5476" width="41.9048" height="41.9048" rx="20.9524" fill="#FFB600"/>
<rect x="191.048" y="49.5476" width="41.9048" height="41.9048" rx="20.9524" stroke="white" stroke-width="2.09524"/>
<path d="M200.375 78.8886C200.375 78.9261 200.379 78.9599 200.39 78.9936C200.39 79.0049 200.398 79.0161 200.401 79.0274C200.413 79.0574 200.431 79.0874 200.454 79.1136C200.458 79.1211 200.461 79.1249 200.465 79.1324C200.465 79.1324 200.469 79.1324 200.472 79.1361C200.499 79.1661 200.529 79.1924 200.566 79.2111C202.205 80.0699 206.255 81.5661 206.424 81.6261C206.439 81.6299 206.45 81.6299 206.465 81.6336C206.472 81.6336 206.48 81.6411 206.491 81.6449C206.589 81.6599 206.713 81.6674 206.855 81.6674C209.938 81.6674 222.789 78.0411 223.359 77.8799C223.531 77.8311 223.644 77.6624 223.621 77.4824C223.014 72.7236 221.375 64.9574 221.36 64.8786C221.36 64.8749 221.356 64.8711 221.356 64.8674C221.345 64.8299 221.33 64.7961 221.311 64.7624C221.308 64.7549 221.304 64.7474 221.3 64.7436C221.278 64.7099 221.244 64.6799 221.21 64.6574C221.195 64.6461 221.176 64.6386 221.157 64.6311C221.142 64.6236 221.128 64.6124 221.109 64.6086L217.625 63.5849C216.267 60.5474 214.318 59.0849 211.989 59.3586C211.501 59.4149 211.051 59.5499 210.642 59.7561C210.436 59.7186 210.222 59.6961 210.001 59.6924C208.899 59.6811 207.961 60.1161 207.226 60.9824C206.341 62.0136 205.786 63.6674 205.561 65.8911C203.615 66.2361 202.186 66.4799 202.164 66.4836C202.149 66.4836 202.141 66.4949 202.126 66.4986C202.119 66.4986 202.107 66.4986 202.1 66.4986C202.089 66.4986 202.081 66.5099 202.074 66.5174C202.044 66.5324 202.018 66.5474 201.995 66.5661C201.98 66.5774 201.969 66.5886 201.957 66.6036C201.935 66.6261 201.92 66.6524 201.905 66.6824C201.901 66.6936 201.89 66.7011 201.886 66.7124C201.159 68.6249 200.409 78.4461 200.379 78.8624V78.8661V78.8849L200.375 78.8886ZM206.533 66.4574C206.574 66.4499 206.615 66.4424 206.66 66.4349C207.151 66.3449 207.661 66.2549 208.182 66.1574C208.197 66.5436 208.227 66.9411 208.273 67.3536C206.499 67.6986 205.344 67.8899 204.837 67.9199L203.281 67.0274C204.054 66.8924 205.213 66.6936 206.536 66.4536L206.533 66.4574ZM208.16 65.4224C207.995 65.4524 207.83 65.4824 207.665 65.5124C207.823 64.3986 208.081 63.5099 208.422 62.8911C208.246 63.6261 208.156 64.4736 208.156 65.4224H208.16ZM203.416 76.9686L205.674 80.5724C204.504 80.1261 202.584 79.3761 201.38 78.8061L203.42 76.9724L203.416 76.9686ZM203.859 76.3049V68.2011L204.406 68.5161C204.552 69.9261 205.201 75.9861 205.749 79.3236L203.859 76.3086V76.3049ZM202.438 67.3874L203.131 67.7849V76.2486L201.17 78.0149C201.361 75.6749 201.905 69.4724 202.434 67.3874H202.438ZM206.806 80.9511C206.405 79.6761 205.606 73.0086 205.145 68.6286C205.76 68.5611 206.803 68.3849 208.351 68.0811C208.475 68.9549 208.621 69.6336 208.707 70.0049C208.831 70.4849 209.262 70.8224 209.757 70.8224C209.847 70.8224 209.938 70.8111 210.024 70.7886C210.597 70.6424 210.954 70.0574 210.811 69.4761C210.688 68.9774 210.568 68.3174 210.477 67.6499C212.142 67.3049 214.108 66.8849 216.331 66.3899C216.519 67.0536 216.68 67.7474 216.796 68.4111C216.796 68.4261 216.8 68.4374 216.804 68.4486C216.845 68.7336 216.995 68.9849 217.227 69.1574C217.46 69.3299 217.741 69.4049 218.03 69.3599C218.319 69.3186 218.57 69.1649 218.743 68.9324C218.915 68.6999 218.986 68.4149 218.945 68.1299C218.93 68.0211 218.791 67.1099 218.454 65.9099C219.481 65.6774 220.287 65.4936 220.722 65.3924C221.045 66.9449 222.305 73.1174 222.856 77.2649C218.761 78.4161 208.955 81.0261 206.802 80.9399L206.806 80.9511ZM211.805 61.6161C211.839 61.6049 211.869 61.5899 211.903 61.5824C212.007 61.5524 212.12 61.5261 212.236 61.5111C212.263 61.5111 212.292 61.5111 212.319 61.5074C212.911 62.1636 213.395 63.1049 213.755 64.3161C213.736 64.3199 213.714 64.3236 213.695 64.3311C213.523 64.3686 213.342 64.4061 213.159 64.4474C212.773 63.1799 212.236 62.2724 211.565 61.7286C211.58 61.7211 211.591 61.7136 211.602 61.7061C211.666 61.6724 211.734 61.6461 211.805 61.6199V61.6161ZM210.403 66.9261C210.365 66.5286 210.339 66.1349 210.331 65.7524C211.318 65.5611 212.199 65.3849 212.971 65.2236H212.979C213.069 65.2049 213.155 65.1861 213.245 65.1674C213.372 65.1411 213.492 65.1149 213.612 65.0886C213.627 65.0886 213.642 65.0811 213.657 65.0774C213.815 65.0436 213.969 65.0099 214.115 64.9761C214.171 64.9649 214.231 64.9499 214.287 64.9386C214.842 64.8149 215.319 64.7024 215.709 64.6011C215.851 64.9349 215.99 65.2986 216.118 65.6886C213.95 66.1724 212.03 66.5849 210.399 66.9224L210.403 66.9261ZM214.464 64.1586C214.171 63.1649 213.8 62.3286 213.35 61.6574C214.111 61.9724 214.801 62.7374 215.401 63.9336C215.127 64.0011 214.813 64.0761 214.46 64.1586H214.464ZM211.003 62.2424C211.003 62.2424 211.014 62.2311 211.017 62.2236C211.599 62.6474 212.086 63.4574 212.443 64.5936C211.805 64.7249 211.1 64.8636 210.328 65.0136C210.369 63.7799 210.597 62.8236 211.003 62.2424ZM218.24 65.2236C218.154 64.9611 218.068 64.7024 217.974 64.4511L219.575 64.9236C219.193 65.0099 218.743 65.1149 218.244 65.2274L218.24 65.2236ZM212.071 60.0861C212.229 60.0674 212.382 60.0599 212.536 60.0599C214.378 60.0599 215.885 61.3949 217.029 64.0386C217.257 64.5786 217.468 65.1599 217.651 65.7599C218.052 67.0874 218.21 68.1299 218.225 68.2461C218.24 68.3399 218.214 68.4336 218.157 68.5124C218.101 68.5874 218.019 68.6399 217.921 68.6511C217.827 68.6661 217.737 68.6399 217.659 68.5836C217.584 68.5274 217.535 68.4449 217.52 68.3474C217.52 68.3361 217.513 68.3061 217.513 68.2949C217.374 67.4886 217.175 66.6486 216.935 65.8574C216.721 65.1674 216.5 64.5711 216.249 64.0274C215.266 61.8674 214.01 60.7724 212.517 60.7724C212.499 60.7724 212.484 60.7724 212.465 60.7724C212.364 60.7649 212.255 60.7799 212.15 60.7911C211.554 60.8624 211.055 61.0986 210.68 61.4924C210.68 61.4924 210.68 61.4924 210.676 61.4961C210.579 61.5936 210.489 61.7061 210.403 61.8261C209.859 62.6099 209.585 63.8324 209.589 65.4561C209.589 66.0824 209.634 66.7386 209.712 67.4061C209.806 68.2049 209.953 69.0449 210.106 69.6486C210.151 69.8399 210.035 70.0311 209.847 70.0799C209.671 70.1249 209.461 70.0086 209.413 69.8099C209.341 69.4986 209.158 68.6624 209.023 67.6011C208.94 66.9374 208.895 66.3036 208.884 65.7149C208.85 64.0386 209.094 62.7111 209.604 61.7699C209.682 61.6236 209.746 61.5186 209.818 61.4174C209.889 61.3124 209.968 61.2149 210.046 61.1211C210.286 60.8436 210.564 60.6186 210.868 60.4499C211.227 60.2549 211.629 60.1274 212.071 60.0786V60.0861ZM207.774 61.4586C208.299 60.8399 208.944 60.4986 209.698 60.4349C209.653 60.4799 209.611 60.5286 209.566 60.5774C209.536 60.6111 209.506 60.6411 209.476 60.6749C209.386 60.7799 209.3 60.8924 209.217 61.0086C209.18 61.0611 209.142 61.1211 209.105 61.1811C209.094 61.1999 209.083 61.2186 209.071 61.2374C209.056 61.2636 209.041 61.2861 209.026 61.3124C208.715 61.4474 208.434 61.6611 208.182 61.9499C207.549 62.6924 207.121 63.9374 206.908 65.6549C206.758 65.6811 206.611 65.7074 206.461 65.7374C206.405 65.7486 206.349 65.7561 206.293 65.7674C206.51 63.8211 207.016 62.3399 207.77 61.4624L207.774 61.4586Z" fill="white"/>
<path d="M216.514 72.8254C216.158 72.5217 215.64 72.3567 214.984 72.3267L213.975 72.2854C213.645 72.2704 213.552 72.2104 213.54 72.2029C213.529 72.1954 213.507 72.1804 213.507 72.0979C213.507 72.0154 213.518 71.8879 213.668 71.7417C213.799 71.6142 214.005 71.5204 214.275 71.4717C214.515 71.4267 214.714 71.4117 214.868 71.4304C215.033 71.4492 215.19 71.4792 215.322 71.5204C215.558 71.5954 215.775 71.5992 215.967 71.5279C216.15 71.4604 216.297 71.3442 216.402 71.1867C216.499 71.0442 216.555 70.8867 216.574 70.7142C216.593 70.5304 216.559 70.3579 216.473 70.1967C216.383 70.0242 216.24 69.8967 216.072 69.8254C215.82 69.6979 215.532 69.6154 215.213 69.5817C215.13 69.5742 215.052 69.5667 214.969 69.5629L214.958 69.3904C214.943 69.1467 214.842 68.9404 214.658 68.7942C214.474 68.6479 214.249 68.5954 214.009 68.6367C213.777 68.6779 213.578 68.7942 213.432 68.9779C213.285 69.1617 213.21 69.3754 213.222 69.6042L213.233 69.8854C212.978 69.9904 212.745 70.1217 212.543 70.2754C212.198 70.5342 211.924 70.8454 211.729 71.2054C211.527 71.5804 211.425 71.9892 211.425 72.4204C211.425 73.0129 211.605 73.4854 211.954 73.8192C212.299 74.1492 212.809 74.3292 213.469 74.3592L214.5 74.4042C214.718 74.4117 214.838 74.4379 214.902 74.4642C214.984 74.4942 215.003 74.5204 215.007 74.5242C215.025 74.5542 215.04 74.5954 215.044 74.6517C215.052 74.7342 215.033 74.8092 214.995 74.8842C214.954 74.9592 214.875 75.0379 214.759 75.1092C214.624 75.1954 214.433 75.2629 214.185 75.3117C213.837 75.3829 213.54 75.3979 213.304 75.3642C213.057 75.3267 212.865 75.2817 212.734 75.2292C212.415 75.1092 212.172 75.1692 212.022 75.2404C211.834 75.3304 211.68 75.4692 211.568 75.6567C211.463 75.8329 211.399 76.0242 211.38 76.2267C211.362 76.4367 211.392 76.6354 211.47 76.8229C211.564 77.0442 211.74 77.2054 211.969 77.2879C212.22 77.3892 212.524 77.4604 212.892 77.5092C213.079 77.5354 213.282 77.5392 213.503 77.5317L213.514 77.8242C213.525 78.1092 213.627 78.3529 213.814 78.5292C213.972 78.6792 214.17 78.7579 214.384 78.7579C214.448 78.7579 214.512 78.7504 214.575 78.7392C214.842 78.6829 215.063 78.5292 215.217 78.2892C215.359 78.0679 215.427 77.8204 215.408 77.5542L215.382 77.0967C215.674 76.9579 215.937 76.7854 216.162 76.5904C216.51 76.2904 216.777 75.9304 216.953 75.5217C217.129 75.1167 217.197 74.6742 217.155 74.2129C217.103 73.6167 216.885 73.1554 216.51 72.8367L216.514 72.8254ZM216.289 75.2179C216.154 75.5254 215.955 75.7954 215.689 76.0242C215.464 76.2192 215.187 76.3842 214.872 76.5117C214.725 76.5717 214.635 76.7142 214.647 76.8679L214.688 77.5767C214.695 77.6892 214.669 77.7867 214.609 77.8767C214.545 77.9742 214.478 77.9967 214.429 78.0079C214.358 78.0229 214.335 78.0042 214.317 77.9854C214.287 77.9592 214.249 77.9067 214.242 77.7829L214.219 77.1117C214.219 77.0104 214.17 76.9129 214.092 76.8492C214.024 76.7929 213.942 76.7629 213.855 76.7629C213.84 76.7629 213.825 76.7629 213.81 76.7629C213.495 76.8004 213.222 76.8042 212.989 76.7742C212.685 76.7329 212.434 76.6729 212.228 76.5942C212.164 76.5717 212.149 76.5454 212.138 76.5192C212.108 76.4479 212.097 76.3654 212.104 76.2754C212.112 76.1817 212.138 76.0992 212.187 76.0204C212.228 75.9529 212.273 75.9117 212.333 75.8817C212.363 75.8667 212.412 75.8704 212.464 75.8929C212.644 75.9642 212.884 76.0242 213.192 76.0692C213.51 76.1179 213.889 76.0992 214.32 76.0129C214.658 75.9454 214.928 75.8479 215.138 75.7129C215.363 75.5704 215.528 75.4017 215.629 75.2142C215.73 75.0192 215.775 74.8129 215.76 74.5954C215.749 74.4079 215.693 74.2392 215.595 74.1004C215.494 73.9504 215.337 73.8417 215.134 73.7704C214.969 73.7104 214.763 73.6804 214.515 73.6729L213.488 73.6279C213.012 73.6092 212.659 73.4929 212.445 73.2904C212.243 73.0954 212.142 72.8104 212.142 72.4167C212.142 72.1017 212.213 71.8167 212.359 71.5467C212.505 71.2767 212.708 71.0479 212.97 70.8492C213.18 70.6917 213.428 70.5642 213.713 70.4704C213.867 70.4179 213.968 70.2754 213.96 70.1142L213.942 69.5704C213.942 69.5179 213.957 69.4729 213.994 69.4279C214.032 69.3829 214.073 69.3567 214.129 69.3492C214.178 69.3417 214.189 69.3492 214.2 69.3567C214.212 69.3679 214.227 69.3754 214.227 69.4242L214.257 69.9454C214.268 70.1442 214.44 70.2979 214.639 70.2867C214.819 70.2754 214.973 70.2792 215.13 70.2979C215.359 70.3204 215.562 70.3804 215.753 70.4742C215.809 70.4967 215.82 70.5229 215.828 70.5342C215.847 70.5679 215.854 70.6017 215.847 70.6392C215.843 70.6917 215.824 70.7367 215.794 70.7817C215.779 70.8042 215.757 70.8267 215.708 70.8492C215.697 70.8529 215.652 70.8642 215.539 70.8304C215.355 70.7742 215.157 70.7367 214.943 70.7142C214.718 70.6917 214.455 70.7067 214.144 70.7629C213.728 70.8379 213.398 70.9954 213.162 71.2242C212.903 71.4754 212.772 71.7867 212.779 72.1204C212.79 72.4879 212.97 72.6942 213.117 72.7992C213.3 72.9304 213.559 72.9979 213.942 73.0167L214.95 73.0579C215.445 73.0804 215.813 73.1929 216.045 73.3879C216.27 73.5792 216.402 73.8679 216.435 74.2729C216.465 74.6179 216.417 74.9292 216.289 75.2254V75.2179Z" fill="white"/>
<path d="M262.141 35.2891C262.055 34.4827 261.692 33.8549 261.052 33.4055C260.418 32.9562 259.593 32.7315 258.577 32.7315C257.863 32.7315 257.251 32.8393 256.74 33.0547C256.229 33.2701 255.838 33.5625 255.567 33.9318C255.297 34.3011 255.158 34.7228 255.152 35.1967C255.152 35.5907 255.241 35.9323 255.42 36.2216C255.604 36.5109 255.854 36.7571 256.168 36.9602C256.482 37.1572 256.829 37.3234 257.211 37.4588C257.593 37.5942 257.977 37.7081 258.365 37.8004L260.138 38.2436C260.852 38.4098 261.538 38.6345 262.197 38.9176C262.862 39.2008 263.455 39.5578 263.979 39.9886C264.508 40.4195 264.927 40.9396 265.234 41.549C265.542 42.1584 265.696 42.8724 265.696 43.6911C265.696 44.799 265.413 45.7746 264.847 46.6179C264.28 47.455 263.462 48.1106 262.391 48.5845C261.326 49.0523 260.036 49.2862 258.522 49.2862C257.051 49.2862 255.774 49.0585 254.69 48.603C253.613 48.1475 252.77 47.4827 252.161 46.6087C251.557 45.7346 251.231 44.6697 251.182 43.4141H254.552C254.601 44.0727 254.804 44.6205 255.161 45.0575C255.518 45.4946 255.983 45.8208 256.555 46.0362C257.134 46.2517 257.78 46.3594 258.494 46.3594C259.239 46.3594 259.892 46.2486 260.452 46.027C261.018 45.7992 261.461 45.4853 261.781 45.0852C262.101 44.679 262.264 44.205 262.271 43.6634C262.264 43.1709 262.12 42.7647 261.837 42.4446C261.554 42.1184 261.156 41.8475 260.646 41.6321C260.141 41.4105 259.55 41.2135 258.873 41.0412L256.722 40.4872C255.164 40.0871 253.933 39.4808 253.028 38.6683C252.13 37.8497 251.68 36.7633 251.68 35.4091C251.68 34.295 251.982 33.3194 252.585 32.4822C253.195 31.6451 254.022 30.9957 255.069 30.5341C256.115 30.0663 257.3 29.8324 258.624 29.8324C259.965 29.8324 261.141 30.0663 262.151 30.5341C263.166 30.9957 263.963 31.639 264.542 32.4638C265.121 33.2824 265.419 34.2242 265.438 35.2891H262.141ZM272.683 49.2862C271.784 49.2862 270.975 49.1262 270.255 48.8061C269.541 48.4799 268.974 47.9998 268.556 47.3658C268.144 46.7318 267.937 45.95 267.937 45.0206C267.937 44.2204 268.085 43.5587 268.381 43.0355C268.676 42.5123 269.079 42.0938 269.59 41.7798C270.101 41.4659 270.676 41.2289 271.317 41.0689C271.963 40.9027 272.631 40.7827 273.32 40.7088C274.151 40.6226 274.825 40.5457 275.342 40.478C275.859 40.4041 276.235 40.2933 276.469 40.1456C276.709 39.9917 276.829 39.7547 276.829 39.4347V39.3793C276.829 38.6837 276.622 38.1451 276.21 37.7635C275.798 37.3819 275.204 37.1911 274.428 37.1911C273.609 37.1911 272.96 37.3696 272.48 37.7266C272.006 38.0836 271.686 38.5052 271.52 38.9915L268.399 38.5483C268.645 37.6866 269.051 36.9664 269.618 36.3878C270.184 35.803 270.876 35.366 271.695 35.0767C272.514 34.7812 273.419 34.6335 274.41 34.6335C275.093 34.6335 275.773 34.7135 276.45 34.8736C277.127 35.0336 277.746 35.2983 278.306 35.6676C278.866 36.0308 279.315 36.5263 279.654 37.1541C279.999 37.782 280.171 38.5668 280.171 39.5085V49H276.958V47.0518H276.847C276.644 47.4458 276.358 47.8151 275.988 48.1598C275.625 48.4983 275.167 48.7723 274.613 48.9815C274.065 49.1847 273.422 49.2862 272.683 49.2862ZM273.551 46.8303C274.222 46.8303 274.804 46.6979 275.296 46.4332C275.788 46.1624 276.167 45.8054 276.432 45.3622C276.702 44.919 276.838 44.4358 276.838 43.9126V42.2415C276.733 42.3277 276.555 42.4077 276.302 42.4815C276.056 42.5554 275.779 42.62 275.471 42.6754C275.164 42.7308 274.859 42.7801 274.557 42.8232C274.256 42.8662 273.994 42.9032 273.773 42.9339C273.274 43.0017 272.828 43.1125 272.434 43.2663C272.04 43.4202 271.729 43.6357 271.501 43.9126C271.273 44.1835 271.16 44.5343 271.16 44.9652C271.16 45.5807 271.384 46.0455 271.834 46.3594C272.283 46.6733 272.855 46.8303 273.551 46.8303ZM286.874 30.0909V49H283.532V30.0909H286.874ZM294.392 49.2862C293.493 49.2862 292.684 49.1262 291.964 48.8061C291.25 48.4799 290.683 47.9998 290.265 47.3658C289.853 46.7318 289.646 45.95 289.646 45.0206C289.646 44.2204 289.794 43.5587 290.089 43.0355C290.385 42.5123 290.788 42.0938 291.299 41.7798C291.81 41.4659 292.385 41.2289 293.026 41.0689C293.672 40.9027 294.34 40.7827 295.029 40.7088C295.86 40.6226 296.534 40.5457 297.051 40.478C297.568 40.4041 297.944 40.2933 298.178 40.1456C298.418 39.9917 298.538 39.7547 298.538 39.4347V39.3793C298.538 38.6837 298.331 38.1451 297.919 37.7635C297.507 37.3819 296.913 37.1911 296.137 37.1911C295.318 37.1911 294.669 37.3696 294.189 37.7266C293.715 38.0836 293.395 38.5052 293.229 38.9915L290.108 38.5483C290.354 37.6866 290.76 36.9664 291.327 36.3878C291.893 35.803 292.585 35.366 293.404 35.0767C294.223 34.7812 295.128 34.6335 296.119 34.6335C296.802 34.6335 297.482 34.7135 298.159 34.8736C298.836 35.0336 299.455 35.2983 300.015 35.6676C300.575 36.0308 301.024 36.5263 301.363 37.1541C301.708 37.782 301.88 38.5668 301.88 39.5085V49H298.667V47.0518H298.556C298.353 47.4458 298.067 47.8151 297.697 48.1598C297.334 48.4983 296.876 48.7723 296.322 48.9815C295.774 49.1847 295.131 49.2862 294.392 49.2862ZM295.26 46.8303C295.931 46.8303 296.513 46.6979 297.005 46.4332C297.497 46.1624 297.876 45.8054 298.141 45.3622C298.411 44.919 298.547 44.4358 298.547 43.9126V42.2415C298.442 42.3277 298.264 42.4077 298.011 42.4815C297.765 42.5554 297.488 42.62 297.18 42.6754C296.873 42.7308 296.568 42.7801 296.266 42.8232C295.965 42.8662 295.703 42.9032 295.482 42.9339C294.983 43.0017 294.537 43.1125 294.143 43.2663C293.749 43.4202 293.438 43.6357 293.21 43.9126C292.982 44.1835 292.869 44.5343 292.869 44.9652C292.869 45.5807 293.093 46.0455 293.543 46.3594C293.992 46.6733 294.564 46.8303 295.26 46.8303ZM316.953 49.2493C315.839 49.2493 314.842 48.9631 313.961 48.3906C313.081 47.8182 312.386 46.9872 311.875 45.8977C311.364 44.8082 311.108 43.4848 311.108 41.9276C311.108 40.3518 311.367 39.0223 311.884 37.9389C312.407 36.8494 313.112 36.0277 313.998 35.4737C314.885 34.9136 315.873 34.6335 316.962 34.6335C317.793 34.6335 318.476 34.7751 319.012 35.0582C319.547 35.3352 319.972 35.6707 320.286 36.0646C320.6 36.4524 320.843 36.8187 321.015 37.1634H321.154V30.0909H324.505V49H321.218V46.7656H321.015C320.843 47.1103 320.594 47.4766 320.267 47.8643C319.941 48.246 319.51 48.5722 318.975 48.843C318.439 49.1139 317.765 49.2493 316.953 49.2493ZM317.885 46.5071C318.593 46.5071 319.196 46.3163 319.695 45.9347C320.194 45.5469 320.572 45.0083 320.831 44.3189C321.089 43.6295 321.218 42.8262 321.218 41.9091C321.218 40.992 321.089 40.1948 320.831 39.5178C320.578 38.8407 320.203 38.3144 319.704 37.9389C319.212 37.5634 318.605 37.3757 317.885 37.3757C317.141 37.3757 316.519 37.5696 316.02 37.9574C315.522 38.3452 315.146 38.8807 314.894 39.5639C314.641 40.2472 314.515 41.0289 314.515 41.9091C314.515 42.7955 314.641 43.5864 314.894 44.282C315.152 44.9714 315.531 45.5161 316.029 45.9162C316.534 46.3101 317.153 46.5071 317.885 46.5071ZM334.345 49.277C332.923 49.277 331.695 48.9815 330.661 48.3906C329.633 47.7936 328.843 46.9503 328.289 45.8608C327.735 44.7652 327.458 43.4756 327.458 41.9922C327.458 40.5334 327.735 39.2531 328.289 38.1513C328.849 37.0433 329.63 36.1816 330.634 35.5661C331.637 34.9444 332.816 34.6335 334.17 34.6335C335.044 34.6335 335.869 34.7751 336.644 35.0582C337.426 35.3352 338.115 35.7661 338.713 36.3509C339.316 36.9356 339.79 37.6804 340.134 38.5852C340.479 39.4839 340.651 40.5549 340.651 41.7983V42.8232H329.027V40.5703H337.448C337.441 39.9302 337.303 39.3608 337.032 38.8622C336.761 38.3575 336.383 37.9605 335.896 37.6712C335.416 37.3819 334.856 37.2372 334.216 37.2372C333.533 37.2372 332.933 37.4034 332.416 37.7358C331.899 38.062 331.495 38.4929 331.206 39.0284C330.923 39.5578 330.778 40.1394 330.772 40.7734V42.7401C330.772 43.5649 330.923 44.2727 331.225 44.8636C331.526 45.4484 331.948 45.8977 332.49 46.2116C333.031 46.5194 333.665 46.6733 334.392 46.6733C334.878 46.6733 335.318 46.6056 335.712 46.4702C336.106 46.3286 336.447 46.1224 336.737 45.8516C337.026 45.5807 337.244 45.2453 337.392 44.8452L340.513 45.196C340.316 46.0208 339.941 46.741 339.387 47.3565C338.839 47.9659 338.137 48.4399 337.281 48.7784C336.426 49.1108 335.447 49.277 334.345 49.277ZM352.606 30.0909L357.527 44.9744H357.721L362.633 30.0909H366.4L359.734 49H355.505L348.848 30.0909H352.606ZM373.498 49.277C372.076 49.277 370.848 48.9815 369.814 48.3906C368.786 47.7936 367.995 46.9503 367.441 45.8608C366.887 44.7652 366.61 43.4756 366.61 41.9922C366.61 40.5334 366.887 39.2531 367.441 38.1513C368.001 37.0433 368.783 36.1816 369.786 35.5661C370.789 34.9444 371.968 34.6335 373.322 34.6335C374.196 34.6335 375.021 34.7751 375.797 35.0582C376.578 35.3352 377.268 35.7661 377.865 36.3509C378.468 36.9356 378.942 37.6804 379.287 38.5852C379.631 39.4839 379.804 40.5549 379.804 41.7983V42.8232H368.18V40.5703H376.6C376.594 39.9302 376.455 39.3608 376.184 38.8622C375.914 38.3575 375.535 37.9605 375.049 37.6712C374.569 37.3819 374.009 37.2372 373.368 37.2372C372.685 37.2372 372.085 37.4034 371.568 37.7358C371.051 38.062 370.648 38.4929 370.358 39.0284C370.075 39.5578 369.931 40.1394 369.925 40.7734V42.7401C369.925 43.5649 370.075 44.2727 370.377 44.8636C370.679 45.4484 371.1 45.8977 371.642 46.2116C372.184 46.5194 372.818 46.6733 373.544 46.6733C374.03 46.6733 374.47 46.6056 374.864 46.4702C375.258 46.3286 375.6 46.1224 375.889 45.8516C376.178 45.5807 376.397 45.2453 376.545 44.8452L379.665 45.196C379.468 46.0208 379.093 46.741 378.539 47.3565C377.991 47.9659 377.289 48.4399 376.434 48.7784C375.578 49.1108 374.599 49.277 373.498 49.277ZM385.974 40.6903V49H382.631V34.8182H385.826V37.228H385.992C386.318 36.4339 386.839 35.803 387.553 35.3352C388.273 34.8674 389.162 34.6335 390.221 34.6335C391.2 34.6335 392.052 34.8428 392.778 35.2614C393.511 35.6799 394.077 36.2862 394.477 37.0803C394.884 37.8743 395.084 38.8376 395.077 39.9702V49H391.735V40.4872C391.735 39.5393 391.489 38.7976 390.996 38.2621C390.51 37.7266 389.836 37.4588 388.974 37.4588C388.39 37.4588 387.87 37.5881 387.414 37.8466C386.965 38.099 386.611 38.4652 386.352 38.9453C386.1 39.4254 385.974 40.0071 385.974 40.6903ZM405.557 34.8182V37.4034H397.404V34.8182H405.557ZM399.417 31.4205H402.759V44.7344C402.759 45.1837 402.827 45.5284 402.962 45.7685C403.104 46.0024 403.289 46.1624 403.516 46.2486C403.744 46.3348 403.996 46.3778 404.273 46.3778C404.483 46.3778 404.674 46.3625 404.846 46.3317C405.024 46.3009 405.16 46.2732 405.252 46.2486L405.815 48.8615C405.637 48.9231 405.381 48.9908 405.049 49.0646C404.723 49.1385 404.323 49.1816 403.849 49.1939C403.012 49.2185 402.258 49.0923 401.587 48.8153C400.916 48.5322 400.383 48.0952 399.989 47.5043C399.602 46.9134 399.411 46.1747 399.417 45.2884V31.4205ZM412.433 49.2862C411.534 49.2862 410.725 49.1262 410.005 48.8061C409.291 48.4799 408.724 47.9998 408.306 47.3658C407.894 46.7318 407.687 45.95 407.687 45.0206C407.687 44.2204 407.835 43.5587 408.131 43.0355C408.426 42.5123 408.829 42.0938 409.34 41.7798C409.851 41.4659 410.426 41.2289 411.067 41.0689C411.713 40.9027 412.381 40.7827 413.07 40.7088C413.901 40.6226 414.575 40.5457 415.092 40.478C415.609 40.4041 415.985 40.2933 416.219 40.1456C416.459 39.9917 416.579 39.7547 416.579 39.4347V39.3793C416.579 38.6837 416.372 38.1451 415.96 37.7635C415.548 37.3819 414.954 37.1911 414.178 37.1911C413.359 37.1911 412.71 37.3696 412.23 37.7266C411.756 38.0836 411.436 38.5052 411.27 38.9915L408.149 38.5483C408.395 37.6866 408.801 36.9664 409.368 36.3878C409.934 35.803 410.626 35.366 411.445 35.0767C412.264 34.7812 413.169 34.6335 414.16 34.6335C414.843 34.6335 415.523 34.7135 416.2 34.8736C416.877 35.0336 417.496 35.2983 418.056 35.6676C418.616 36.0308 419.065 36.5263 419.404 37.1541C419.749 37.782 419.921 38.5668 419.921 39.5085V49H416.708V47.0518H416.597C416.394 47.4458 416.108 47.8151 415.738 48.1598C415.375 48.4983 414.917 48.7723 414.363 48.9815C413.815 49.1847 413.172 49.2862 412.433 49.2862ZM413.301 46.8303C413.972 46.8303 414.554 46.6979 415.046 46.4332C415.538 46.1624 415.917 45.8054 416.182 45.3622C416.452 44.919 416.588 44.4358 416.588 43.9126V42.2415C416.483 42.3277 416.305 42.4077 416.052 42.4815C415.806 42.5554 415.529 42.62 415.221 42.6754C414.914 42.7308 414.609 42.7801 414.307 42.8232C414.006 42.8662 413.744 42.9032 413.523 42.9339C413.024 43.0017 412.578 43.1125 412.184 43.2663C411.79 43.4202 411.479 43.6357 411.251 43.9126C411.023 44.1835 410.91 44.5343 410.91 44.9652C410.91 45.5807 411.134 46.0455 411.584 46.3594C412.033 46.6733 412.605 46.8303 413.301 46.8303ZM434.491 38.5668L431.444 38.8991C431.358 38.5914 431.207 38.3021 430.991 38.0312C430.782 37.7604 430.499 37.5419 430.142 37.3757C429.785 37.2095 429.348 37.1264 428.831 37.1264C428.135 37.1264 427.55 37.2772 427.077 37.5788C426.609 37.8804 426.378 38.2713 426.384 38.7514C426.378 39.1638 426.529 39.4993 426.836 39.7578C427.15 40.0163 427.667 40.2287 428.388 40.3949L430.807 40.9119C432.148 41.2012 433.146 41.6598 433.798 42.2876C434.457 42.9155 434.789 43.7372 434.795 44.7528C434.789 45.6454 434.528 46.4332 434.01 47.1165C433.5 47.7936 432.789 48.3229 431.878 48.7045C430.967 49.0862 429.92 49.277 428.738 49.277C427.003 49.277 425.605 48.9138 424.547 48.1875C423.488 47.455 422.857 46.4363 422.654 45.1314L425.913 44.8175C426.061 45.4576 426.375 45.9408 426.855 46.267C427.335 46.5933 427.96 46.7564 428.729 46.7564C429.523 46.7564 430.16 46.5933 430.64 46.267C431.127 45.9408 431.37 45.5376 431.37 45.0575C431.37 44.6513 431.213 44.3158 430.899 44.0511C430.591 43.7865 430.111 43.5833 429.459 43.4418L427.04 42.9339C425.679 42.6508 424.673 42.1738 424.02 41.5028C423.368 40.8258 423.045 39.9702 423.051 38.9361C423.045 38.062 423.282 37.3049 423.762 36.6648C424.248 36.0185 424.922 35.5199 425.784 35.169C426.652 34.812 427.652 34.6335 428.785 34.6335C430.447 34.6335 431.755 34.9875 432.709 35.6953C433.669 36.4032 434.263 37.3603 434.491 38.5668ZM268.05 67.4709H264.597C264.499 66.9046 264.317 66.4029 264.053 65.9659C263.788 65.5227 263.459 65.1473 263.065 64.8395C262.671 64.5317 262.221 64.3009 261.717 64.147C261.218 63.987 260.679 63.907 260.101 63.907C259.073 63.907 258.162 64.1655 257.368 64.6825C256.574 65.1934 255.952 65.9444 255.503 66.9354C255.054 67.9202 254.829 69.1236 254.829 70.5455C254.829 71.992 255.054 73.2107 255.503 74.2017C255.958 75.1866 256.58 75.9313 257.368 76.4361C258.162 76.9347 259.07 77.1839 260.092 77.1839C260.658 77.1839 261.187 77.1101 261.68 76.9624C262.178 76.8085 262.625 76.5838 263.018 76.2884C263.419 75.9929 263.754 75.6297 264.025 75.1989C264.302 74.768 264.493 74.2756 264.597 73.7216L268.05 73.7401C267.921 74.6387 267.641 75.482 267.21 76.2699C266.786 77.0578 266.228 77.7533 265.539 78.3565C264.85 78.9536 264.043 79.4214 263.12 79.7599C262.197 80.0923 261.172 80.2585 260.045 80.2585C258.384 80.2585 256.9 79.8738 255.595 79.1044C254.29 78.335 253.262 77.224 252.511 75.7713C251.76 74.3187 251.385 72.5767 251.385 70.5455C251.385 68.508 251.763 66.7661 252.521 65.3196C253.278 63.867 254.309 62.7559 255.614 61.9865C256.919 61.2171 258.396 60.8324 260.045 60.8324C261.098 60.8324 262.077 60.9801 262.982 61.2756C263.886 61.571 264.693 62.005 265.401 62.5774C266.108 63.1437 266.69 63.8393 267.146 64.6641C267.607 65.4827 267.909 66.4183 268.05 67.4709ZM275.121 80.2862C274.222 80.2862 273.412 80.1262 272.692 79.8061C271.978 79.4799 271.412 78.9998 270.993 78.3658C270.581 77.7318 270.375 76.95 270.375 76.0206C270.375 75.2204 270.523 74.5587 270.818 74.0355C271.113 73.5123 271.517 73.0938 272.028 72.7798C272.538 72.4659 273.114 72.2289 273.754 72.0689C274.4 71.9027 275.068 71.7827 275.758 71.7088C276.589 71.6226 277.263 71.5457 277.78 71.478C278.297 71.4041 278.672 71.2933 278.906 71.1456C279.146 70.9917 279.266 70.7547 279.266 70.4347V70.3793C279.266 69.6837 279.06 69.1451 278.648 68.7635C278.235 68.3819 277.641 68.1911 276.866 68.1911C276.047 68.1911 275.398 68.3696 274.917 68.7266C274.443 69.0836 274.123 69.5052 273.957 69.9915L270.836 69.5483C271.083 68.6866 271.489 67.9664 272.055 67.3878C272.622 66.803 273.314 66.366 274.133 66.0767C274.951 65.7812 275.856 65.6335 276.847 65.6335C277.53 65.6335 278.211 65.7135 278.888 65.8736C279.565 66.0336 280.183 66.2983 280.743 66.6676C281.304 67.0308 281.753 67.5263 282.091 68.1541C282.436 68.782 282.608 69.5668 282.608 70.5085V80H279.395V78.0518H279.285C279.081 78.4458 278.795 78.8151 278.426 79.1598C278.063 79.4983 277.604 79.7723 277.05 79.9815C276.502 80.1847 275.859 80.2862 275.121 80.2862ZM275.988 77.8303C276.659 77.8303 277.241 77.6979 277.733 77.4332C278.226 77.1624 278.604 76.8054 278.869 76.3622C279.14 75.919 279.275 75.4358 279.275 74.9126V73.2415C279.171 73.3277 278.992 73.4077 278.74 73.4815C278.494 73.5554 278.217 73.62 277.909 73.6754C277.601 73.7308 277.296 73.7801 276.995 73.8232C276.693 73.8662 276.432 73.9032 276.21 73.9339C275.711 74.0017 275.265 74.1125 274.871 74.2663C274.477 74.4202 274.166 74.6357 273.939 74.9126C273.711 75.1835 273.597 75.5343 273.597 75.9652C273.597 76.5807 273.822 77.0455 274.271 77.3594C274.72 77.6733 275.293 77.8303 275.988 77.8303ZM289.312 61.0909V80H285.969V61.0909H289.312ZM296.091 61.0909V80H292.749V61.0909H296.091ZM305.806 80.277C304.384 80.277 303.156 79.9815 302.122 79.3906C301.094 78.7936 300.303 77.9503 299.749 76.8608C299.195 75.7652 298.919 74.4756 298.919 72.9922C298.919 71.5334 299.195 70.2531 299.749 69.1513C300.31 68.0433 301.091 67.1816 302.095 66.5661C303.098 65.9444 304.277 65.6335 305.631 65.6335C306.505 65.6335 307.33 65.7751 308.105 66.0582C308.887 66.3352 309.576 66.7661 310.173 67.3509C310.777 67.9356 311.251 68.6804 311.595 69.5852C311.94 70.4839 312.112 71.5549 312.112 72.7983V73.8232H300.488V71.5703H308.909C308.902 70.9302 308.764 70.3608 308.493 69.8622C308.222 69.3575 307.844 68.9605 307.357 68.6712C306.877 68.3819 306.317 68.2372 305.677 68.2372C304.994 68.2372 304.394 68.4034 303.877 68.7358C303.36 69.062 302.956 69.4929 302.667 70.0284C302.384 70.5578 302.239 71.1394 302.233 71.7734V73.7401C302.233 74.5649 302.384 75.2727 302.686 75.8636C302.987 76.4484 303.409 76.8977 303.95 77.2116C304.492 77.5194 305.126 77.6733 305.852 77.6733C306.339 77.6733 306.779 77.6056 307.173 77.4702C307.567 77.3286 307.908 77.1224 308.198 76.8516C308.487 76.5807 308.705 76.2453 308.853 75.8452L311.974 76.196C311.777 77.0208 311.401 77.741 310.847 78.3565C310.3 78.9659 309.598 79.4399 308.742 79.7784C307.887 80.1108 306.908 80.277 305.806 80.277ZM324.962 61.0909V80H321.537V61.0909H324.962ZM331.866 71.6903V80H328.524V65.8182H331.719V68.228H331.885C332.211 67.4339 332.731 66.803 333.445 66.3352C334.165 65.8674 335.055 65.6335 336.113 65.6335C337.092 65.6335 337.945 65.8428 338.671 66.2614C339.403 66.6799 339.97 67.2862 340.37 68.0803C340.776 68.8743 340.976 69.8376 340.97 70.9702V80H337.628V71.4872C337.628 70.5393 337.381 69.7976 336.889 69.2621C336.403 68.7266 335.729 68.4588 334.867 68.4588C334.282 68.4588 333.762 68.5881 333.307 68.8466C332.857 69.099 332.503 69.4652 332.245 69.9453C331.992 70.4254 331.866 71.0071 331.866 71.6903ZM351.449 65.8182V68.4034H343.297V65.8182H351.449ZM345.309 62.4205H348.652V75.7344C348.652 76.1837 348.72 76.5284 348.855 76.7685C348.997 77.0024 349.181 77.1624 349.409 77.2486C349.637 77.3348 349.889 77.3778 350.166 77.3778C350.375 77.3778 350.566 77.3625 350.738 77.3317C350.917 77.3009 351.052 77.2732 351.145 77.2486L351.708 79.8615C351.529 79.9231 351.274 79.9908 350.942 80.0646C350.615 80.1385 350.215 80.1816 349.741 80.1939C348.904 80.2185 348.15 80.0923 347.479 79.8153C346.808 79.5322 346.276 79.0952 345.882 78.5043C345.494 77.9134 345.303 77.1747 345.309 76.2884V62.4205ZM354.245 80V65.8182H357.587V80H354.245ZM355.925 63.8054C355.396 63.8054 354.94 63.63 354.559 63.2791C354.177 62.9221 353.986 62.4943 353.986 61.9957C353.986 61.491 354.177 61.0632 354.559 60.7124C354.94 60.3553 355.396 60.1768 355.925 60.1768C356.461 60.1768 356.916 60.3553 357.292 60.7124C357.673 61.0632 357.864 61.491 357.864 61.9957C357.864 62.4943 357.673 62.9221 357.292 63.2791C356.916 63.63 356.461 63.8054 355.925 63.8054ZM367.621 80V61.0909H374.712C376.164 61.0909 377.383 61.3433 378.368 61.848C379.359 62.3527 380.107 63.0606 380.612 63.9716C381.123 64.8764 381.378 65.9321 381.378 67.1385C381.378 68.3511 381.119 69.4036 380.602 70.2962C380.092 71.1825 379.338 71.8688 378.34 72.3551C377.343 72.8352 376.118 73.0753 374.666 73.0753H369.615V70.2315H374.204C375.053 70.2315 375.749 70.1146 376.291 69.8807C376.832 69.6406 377.232 69.2928 377.491 68.8374C377.756 68.3757 377.888 67.8094 377.888 67.1385C377.888 66.4676 377.756 65.8951 377.491 65.4212C377.226 64.9411 376.823 64.5779 376.281 64.3317C375.74 64.0793 375.041 63.9531 374.186 63.9531H371.046V80H367.621ZM377.389 71.4318L382.07 80H378.248L373.65 71.4318H377.389ZM388.464 80.2862C387.566 80.2862 386.756 80.1262 386.036 79.8061C385.322 79.4799 384.756 78.9998 384.337 78.3658C383.925 77.7318 383.719 76.95 383.719 76.0206C383.719 75.2204 383.866 74.5587 384.162 74.0355C384.457 73.5123 384.86 73.0938 385.371 72.7798C385.882 72.4659 386.458 72.2289 387.098 72.0689C387.744 71.9027 388.412 71.7827 389.101 71.7088C389.932 71.6226 390.606 71.5457 391.123 71.478C391.64 71.4041 392.016 71.2933 392.25 71.1456C392.49 70.9917 392.61 70.7547 392.61 70.4347V70.3793C392.61 69.6837 392.404 69.1451 391.991 68.7635C391.579 68.3819 390.985 68.1911 390.209 68.1911C389.391 68.1911 388.741 68.3696 388.261 68.7266C387.787 69.0836 387.467 69.5052 387.301 69.9915L384.18 69.5483C384.426 68.6866 384.833 67.9664 385.399 67.3878C385.965 66.803 386.658 66.366 387.476 66.0767C388.295 65.7812 389.2 65.6335 390.191 65.6335C390.874 65.6335 391.554 65.7135 392.231 65.8736C392.908 66.0336 393.527 66.2983 394.087 66.6676C394.647 67.0308 395.097 67.5263 395.435 68.1541C395.78 68.782 395.952 69.5668 395.952 70.5085V80H392.739V78.0518H392.628C392.425 78.4458 392.139 78.8151 391.77 79.1598C391.407 79.4983 390.948 79.7723 390.394 79.9815C389.846 80.1847 389.203 80.2862 388.464 80.2862ZM389.332 77.8303C390.003 77.8303 390.585 77.6979 391.077 77.4332C391.57 77.1624 391.948 76.8054 392.213 76.3622C392.484 75.919 392.619 75.4358 392.619 74.9126V73.2415C392.515 73.3277 392.336 73.4077 392.084 73.4815C391.837 73.5554 391.56 73.62 391.253 73.6754C390.945 73.7308 390.64 73.7801 390.339 73.8232C390.037 73.8662 389.775 73.9032 389.554 73.9339C389.055 74.0017 388.609 74.1125 388.215 74.2663C387.821 74.4202 387.51 74.6357 387.282 74.9126C387.055 75.1835 386.941 75.5343 386.941 75.9652C386.941 76.5807 387.166 77.0455 387.615 77.3594C388.064 77.6733 388.637 77.8303 389.332 77.8303ZM400.883 85.3182C400.427 85.3182 400.006 85.2813 399.618 85.2074C399.236 85.1397 398.931 85.0597 398.704 84.9673L399.479 82.3636C399.965 82.5052 400.399 82.5729 400.781 82.5668C401.163 82.5606 401.498 82.4406 401.787 82.2067C402.083 81.9789 402.332 81.5973 402.535 81.0618L402.822 80.2955L397.679 65.8182H401.224L404.493 76.5284H404.64L407.918 65.8182H411.473L405.795 81.7173C405.53 82.4683 405.179 83.1115 404.742 83.647C404.305 84.1887 403.769 84.6011 403.135 84.8842C402.508 85.1735 401.757 85.3182 400.883 85.3182ZM413.786 80V65.8182H416.98V68.228H417.146C417.442 67.4155 417.931 66.7815 418.615 66.326C419.298 65.8643 420.113 65.6335 421.061 65.6335C422.021 65.6335 422.831 65.8674 423.49 66.3352C424.154 66.7969 424.622 67.4278 424.893 68.228H425.041C425.355 67.4401 425.884 66.8123 426.629 66.3445C427.38 65.8705 428.269 65.6335 429.297 65.6335C430.602 65.6335 431.667 66.0459 432.492 66.8707C433.316 67.6955 433.729 68.8989 433.729 70.4808V80H430.377V70.9979C430.377 70.1177 430.143 69.4744 429.676 69.0682C429.208 68.6558 428.635 68.4496 427.958 68.4496C427.152 68.4496 426.521 68.7019 426.066 69.2067C425.616 69.7053 425.392 70.3546 425.392 71.1548V80H422.114V70.8594C422.114 70.1269 421.892 69.5421 421.449 69.1051C421.012 68.6681 420.44 68.4496 419.732 68.4496C419.252 68.4496 418.815 68.5727 418.421 68.8189C418.027 69.0589 417.713 69.4006 417.479 69.8438C417.245 70.2808 417.128 70.7917 417.128 71.3764V80H413.786ZM437.12 80V65.8182H440.462V80H437.12ZM438.8 63.8054C438.271 63.8054 437.815 63.63 437.434 63.2791C437.052 62.9221 436.861 62.4943 436.861 61.9957C436.861 61.491 437.052 61.0632 437.434 60.7124C437.815 60.3553 438.271 60.1768 438.8 60.1768C439.336 60.1768 439.791 60.3553 440.167 60.7124C440.548 61.0632 440.739 61.491 440.739 61.9957C440.739 62.4943 440.548 62.9221 440.167 63.2791C439.791 63.63 439.336 63.8054 438.8 63.8054ZM258.314 92.0909H262.506L268.12 105.793H268.341L273.955 92.0909H278.147V111H274.86V98.0092H274.684L269.458 110.945H267.002L261.777 97.9815H261.601V111H258.314V92.0909ZM281.544 111V108.876L288.857 99.7081V99.5881H281.784V96.8182H292.947V99.0987L285.985 108.11V108.23H293.187V111H281.544ZM298.388 111.203C297.827 111.203 297.347 111.006 296.947 110.612C296.547 110.218 296.35 109.738 296.356 109.172C296.35 108.618 296.547 108.144 296.947 107.75C297.347 107.356 297.827 107.159 298.388 107.159C298.929 107.159 299.4 107.356 299.8 107.75C300.206 108.144 300.413 108.618 300.419 109.172C300.413 109.547 300.314 109.889 300.123 110.197C299.939 110.504 299.693 110.751 299.385 110.935C299.083 111.114 298.751 111.203 298.388 111.203ZM316.29 111H309.883V92.0909H316.42C318.297 92.0909 319.91 92.4695 321.258 93.2266C322.612 93.9775 323.652 95.0578 324.378 96.4673C325.105 97.8769 325.468 99.5634 325.468 101.527C325.468 103.497 325.102 105.189 324.369 106.605C323.643 108.021 322.593 109.107 321.221 109.864C319.854 110.621 318.211 111 316.29 111ZM313.308 108.036H316.124C317.441 108.036 318.54 107.796 319.42 107.316C320.3 106.83 320.962 106.107 321.405 105.146C321.849 104.18 322.07 102.973 322.07 101.527C322.07 100.08 321.849 98.8802 321.405 97.9261C320.962 96.9659 320.307 96.2488 319.439 95.7749C318.577 95.2947 317.506 95.0547 316.226 95.0547H313.308V108.036ZM341.976 111.36C340.456 111.36 339.151 110.975 338.062 110.206C336.978 109.43 336.144 108.313 335.559 106.854C334.981 105.389 334.692 103.626 334.692 101.564C334.698 99.5019 334.99 97.7476 335.569 96.3011C336.153 94.8485 336.988 93.7405 338.071 92.9773C339.16 92.214 340.462 91.8324 341.976 91.8324C343.491 91.8324 344.792 92.214 345.882 92.9773C346.971 93.7405 347.805 94.8485 348.384 96.3011C348.969 97.7538 349.261 99.508 349.261 101.564C349.261 103.632 348.969 105.399 348.384 106.864C347.805 108.322 346.971 109.437 345.882 110.206C344.799 110.975 343.497 111.36 341.976 111.36ZM341.976 108.47C343.158 108.47 344.091 107.888 344.774 106.725C345.463 105.556 345.808 103.835 345.808 101.564C345.808 100.062 345.651 98.8002 345.337 97.7784C345.023 96.7566 344.58 95.9872 344.008 95.4702C343.435 94.947 342.758 94.6854 341.976 94.6854C340.801 94.6854 339.871 95.2701 339.188 96.4396C338.505 97.603 338.16 99.3111 338.154 101.564C338.148 103.072 338.299 104.34 338.606 105.368C338.92 106.396 339.363 107.171 339.936 107.695C340.508 108.212 341.189 108.47 341.976 108.47ZM359.318 111.36C357.798 111.36 356.493 110.975 355.403 110.206C354.32 109.43 353.486 108.313 352.901 106.854C352.323 105.389 352.033 103.626 352.033 101.564C352.04 99.5019 352.332 97.7476 352.911 96.3011C353.495 94.8485 354.329 93.7405 355.413 92.9773C356.502 92.214 357.804 91.8324 359.318 91.8324C360.832 91.8324 362.134 92.214 363.224 92.9773C364.313 93.7405 365.147 94.8485 365.726 96.3011C366.311 97.7538 366.603 99.508 366.603 101.564C366.603 103.632 366.311 105.399 365.726 106.864C365.147 108.322 364.313 109.437 363.224 110.206C362.14 110.975 360.839 111.36 359.318 111.36ZM359.318 108.47C360.5 108.47 361.433 107.888 362.116 106.725C362.805 105.556 363.15 103.835 363.15 101.564C363.15 100.062 362.993 98.8002 362.679 97.7784C362.365 96.7566 361.922 95.9872 361.349 95.4702C360.777 94.947 360.1 94.6854 359.318 94.6854C358.143 94.6854 357.213 95.2701 356.53 96.4396C355.847 97.603 355.502 99.3111 355.496 101.564C355.49 103.072 355.64 104.34 355.948 105.368C356.262 106.396 356.705 107.171 357.278 107.695C357.85 108.212 358.53 108.47 359.318 108.47ZM377.362 92.0909V111H373.936V95.424H373.825L369.403 98.2493V95.1101L374.102 92.0909H377.362ZM389.152 111.36C387.632 111.36 386.327 110.975 385.237 110.206C384.154 109.43 383.32 108.313 382.735 106.854C382.157 105.389 381.867 103.626 381.867 101.564C381.874 99.5019 382.166 97.7476 382.744 96.3011C383.329 94.8485 384.163 93.7405 385.247 92.9773C386.336 92.214 387.638 91.8324 389.152 91.8324C390.666 91.8324 391.968 92.214 393.058 92.9773C394.147 93.7405 394.981 94.8485 395.56 96.3011C396.145 97.7538 396.437 99.508 396.437 101.564C396.437 103.632 396.145 105.399 395.56 106.864C394.981 108.322 394.147 109.437 393.058 110.206C391.974 110.975 390.673 111.36 389.152 111.36ZM389.152 108.47C390.334 108.47 391.267 107.888 391.95 106.725C392.639 105.556 392.984 103.835 392.984 101.564C392.984 100.062 392.827 98.8002 392.513 97.7784C392.199 96.7566 391.756 95.9872 391.183 95.4702C390.611 94.947 389.934 94.6854 389.152 94.6854C387.977 94.6854 387.047 95.2701 386.364 96.4396C385.681 97.603 385.336 99.3111 385.33 101.564C385.324 103.072 385.474 104.34 385.782 105.368C386.096 106.396 386.539 107.171 387.112 107.695C387.684 108.212 388.364 108.47 389.152 108.47ZM402.118 111H398.461L405.118 92.0909H409.347L416.013 111H412.357L407.306 95.9688H407.159L402.118 111ZM402.238 103.586H412.209V106.337H402.238V103.586Z" fill="white"/>
</svg>
