<svg width="512" height="139" viewBox="0 0 620 168" fill="none" xmlns="http://www.w3.org/2000/svg">
<g clip-path="url(#clip0_171_7003)">
<path d="M19.4116 140.963V144.801L0 156.105V152.267L19.4116 140.963Z" fill="#E1BD9A"/>
<path d="M87.5109 128.346L20.8906 166.534V127.395L87.5109 89.207V128.346Z" fill="#823130"/>
<path opacity="0.3" d="M87.5109 128.346L20.8906 166.534V127.395L87.5109 89.207V128.346Z" fill="#823130"/>
<path d="M87.5159 89.2071L20.8956 127.395L1.34375 116.188L67.964 78L87.5159 89.2071Z" fill="#823130"/>
<path d="M1.34375 116.188L20.8956 127.395V166.533L1.34375 155.322V116.188Z" fill="#823130"/>
<path opacity="0.3" d="M1.34375 116.188L20.8956 127.395V166.533L1.34375 155.322V116.188Z" fill="#823130"/>
<path d="M0 152.254V156.092L19.4116 167.206V163.368L0 152.254Z" fill="#E1BD9A"/>
<path d="M20.8933 162.695L1.34147 151.488L0 152.268L1.34147 155.321L20.8933 166.533L89 125.12L87.5136 124.508L20.8933 162.695Z" fill="#E1BD9A"/>
<path d="M88.9973 128.959L20.8906 168V164.167L88.9973 125.121V128.959Z" fill="#E1BD9A"/>
<path opacity="0.3" d="M88.9973 128.959L20.8906 168V164.167L88.9973 125.121V128.959Z" fill="#E1BD9A"/>
<path d="M1.34375 152.959V156.792L20.8956 167.999V164.166L1.34375 152.959Z" fill="#E1BD9A"/>
<path opacity="0.3" d="M0 152.254V156.092L20.8933 168V164.166L0 152.254Z" fill="#E1BD9A"/>
<path d="M3.35938 148.699V142.109L7.07063 144.235V150.824L3.35938 148.699Z" fill="#283036"/>
<path d="M6.81429 150.379L3.61719 148.55V142.555L6.81429 144.388V150.379Z" fill="#72B8CF"/>
<path opacity="0.5" d="M3.61719 147.07L6.81429 145.242V144.388L6.78157 144.369L3.61719 146.179V147.07Z" fill="#72B8CF"/>
<path opacity="0.5" d="M6.81429 145.85L3.61719 147.683V148.55L4.57071 149.093L6.81429 147.808V145.85Z" fill="#72B8CF"/>
<path d="M6.81429 147.102L3.61719 145.269V144.814L6.81429 146.643V147.102Z" fill="#283036"/>
<path d="M9.21094 152.082V145.492L12.9269 147.622V154.212L9.21094 152.082Z" fill="#283036"/>
<path d="M12.6659 153.768L9.46875 151.935V145.939L12.6659 147.772V153.768Z" fill="#72B8CF"/>
<path opacity="0.5" d="M9.46875 150.457L12.6659 148.624V147.771L12.6331 147.752L9.46875 149.566V150.457Z" fill="#72B8CF"/>
<path opacity="0.5" d="M12.6659 149.238L9.46875 151.071V151.934L10.4223 152.482L12.6659 151.197V149.238Z" fill="#72B8CF"/>
<path d="M12.6659 150.487L9.46875 148.659V148.199L12.6659 150.032V150.487Z" fill="#283036"/>
<path d="M15.0703 155.431V148.842L18.7862 150.972V157.562L15.0703 155.431Z" fill="#283036"/>
<path d="M18.5206 157.116L15.3281 155.283V149.287L18.5206 151.12V157.116Z" fill="#72B8CF"/>
<path opacity="0.5" d="M15.3281 153.807L18.5206 151.974V151.12L18.4878 151.102L15.3281 152.916V153.807Z" fill="#72B8CF"/>
<path opacity="0.5" d="M18.5206 152.588L15.3281 154.416V155.284L16.277 155.832L18.5206 154.546V152.588Z" fill="#72B8CF"/>
<path d="M18.5206 153.835L15.3281 152.006V151.547L18.5206 153.38V153.835Z" fill="#283036"/>
<path d="M3.35938 138.903V132.309L7.07063 134.439V141.028L3.35938 138.903Z" fill="#283036"/>
<path d="M6.81429 140.582L3.61719 138.749V132.758L6.81429 134.586V140.582Z" fill="#72B8CF"/>
<path opacity="0.5" d="M3.61719 137.274L6.81429 135.441V134.587L6.78157 134.568L3.61719 136.383V137.274Z" fill="#72B8CF"/>
<path opacity="0.5" d="M6.81429 136.053L3.61719 137.886V138.749L4.57071 139.297L6.81429 138.011V136.053Z" fill="#72B8CF"/>
<path d="M6.81429 137.306L3.61719 135.473V135.014L6.81429 136.847V137.306Z" fill="#283036"/>
<path d="M9.21094 142.285V135.695L12.9269 137.825V144.415L9.21094 142.285Z" fill="#283036"/>
<path d="M12.6659 143.965L9.46875 142.136V136.141L12.6659 137.974V143.965Z" fill="#72B8CF"/>
<path opacity="0.5" d="M9.46875 140.656L12.6659 138.828V137.974L12.6331 137.955L9.46875 139.77V140.656Z" fill="#72B8CF"/>
<path opacity="0.5" d="M12.6659 139.439L9.46875 141.268V142.136L10.4223 142.679L12.6659 141.398V139.439Z" fill="#72B8CF"/>
<path d="M12.6659 140.688L9.46875 138.855V138.4L12.6659 140.229V140.688Z" fill="#283036"/>
<path d="M15.0703 145.637V139.047L18.7862 141.177V147.767L15.0703 145.637Z" fill="#283036"/>
<path d="M18.5206 147.316L15.3281 145.488V139.492L18.5206 141.325V147.316Z" fill="#72B8CF"/>
<path opacity="0.5" d="M15.3281 144.007L18.5206 142.179V141.325L18.4878 141.307L15.3281 143.121V144.007Z" fill="#72B8CF"/>
<path opacity="0.5" d="M18.5206 142.793L15.3281 144.621V145.489L16.277 146.032L18.5206 144.751V142.793Z" fill="#72B8CF"/>
<path d="M18.5206 144.04L15.3281 142.211V141.752L18.5206 143.58V144.04Z" fill="#283036"/>
<path d="M3.35938 129.103V122.514L7.07063 124.644V131.233L3.35938 129.103Z" fill="#283036"/>
<path d="M6.81429 130.789L3.61719 128.956V122.965L6.81429 124.793V130.789Z" fill="#72B8CF"/>
<path opacity="0.5" d="M3.61719 127.479L6.81429 125.646V124.792L6.78157 124.773L3.61719 126.588V127.479Z" fill="#72B8CF"/>
<path opacity="0.5" d="M6.81429 126.26L3.61719 128.093V128.956L4.57071 129.504L6.81429 128.218V126.26Z" fill="#72B8CF"/>
<path d="M6.81429 127.511L3.61719 125.678V125.219L6.81429 127.052V127.511Z" fill="#283036"/>
<path d="M9.21094 132.492V125.902L12.9269 128.032V134.622L9.21094 132.492Z" fill="#283036"/>
<path d="M12.6659 134.174L9.46875 132.345V126.35L12.6659 128.183V134.174Z" fill="#72B8CF"/>
<path opacity="0.5" d="M9.46875 130.863L12.6659 129.035V128.181L12.6331 128.162L9.46875 129.972V130.863Z" fill="#72B8CF"/>
<path opacity="0.5" d="M12.6659 129.648L9.46875 131.477V132.345L10.4223 132.888L12.6659 131.602V129.648Z" fill="#72B8CF"/>
<path d="M12.6659 130.897L9.46875 129.064V128.609L12.6659 130.438V130.897Z" fill="#283036"/>
<path d="M15.0703 135.842V129.252L18.7862 131.377V137.972L15.0703 135.842Z" fill="#283036"/>
<path d="M18.5206 137.521L15.3281 135.693V129.697L18.5206 131.53V137.521Z" fill="#72B8CF"/>
<path opacity="0.5" d="M15.3281 134.213L18.5206 132.384V131.53L18.4878 131.512L15.3281 133.322V134.213Z" fill="#72B8CF"/>
<path opacity="0.5" d="M18.5206 132.996L15.3281 134.824V135.692L16.277 136.235L18.5206 134.95V132.996Z" fill="#72B8CF"/>
<path d="M18.5206 134.245L15.3281 132.412V131.957L18.5206 133.785V134.245Z" fill="#283036"/>
<path d="M32.5753 152.082V145.492L28.8594 147.622V154.212L32.5753 152.082Z" fill="#283036"/>
<path d="M29.125 153.768L32.3174 151.935V145.939L29.125 147.772V153.768Z" fill="#72B8CF"/>
<path opacity="0.5" d="M32.3174 150.457L29.125 148.624V147.771L29.153 147.752L32.3174 149.566V150.457Z" fill="#72B8CF"/>
<path opacity="0.5" d="M29.125 149.238L32.3174 151.071V151.934L31.3639 152.482L29.125 151.197V149.238Z" fill="#72B8CF"/>
<path d="M29.125 150.487L32.3174 148.659V148.199L29.125 150.032V150.487Z" fill="#283036"/>
<path d="M26.7159 155.433V148.844L23 150.974V157.563L26.7159 155.433Z" fill="#283036"/>
<path d="M23.2656 157.118L26.4581 155.285V149.289L23.2656 151.122V157.118Z" fill="#72B8CF"/>
<path opacity="0.5" d="M26.4581 153.809L23.2656 151.976V151.122L23.2983 151.104L26.4581 152.918V153.809Z" fill="#72B8CF"/>
<path opacity="0.5" d="M23.2656 152.59L26.4581 154.418V155.286L25.5092 155.834L23.2656 154.548V152.59Z" fill="#72B8CF"/>
<path d="M23.2656 153.837L26.4581 152.008V151.549L23.2656 153.382V153.837Z" fill="#283036"/>
<path d="M32.5753 142.287V135.697L28.8594 137.827V144.417L32.5753 142.287Z" fill="#283036"/>
<path d="M29.125 143.967L32.3174 142.138V136.143L29.125 137.976V143.967Z" fill="#72B8CF"/>
<path opacity="0.5" d="M32.3174 140.658L29.125 138.829V137.976L29.153 137.957L32.3174 139.772V140.658Z" fill="#72B8CF"/>
<path opacity="0.5" d="M29.125 139.441L32.3174 141.27V142.138L31.3639 142.681L29.125 141.4V139.441Z" fill="#72B8CF"/>
<path d="M29.125 140.69L32.3174 138.857V138.402L29.125 140.231V140.69Z" fill="#283036"/>
<path d="M26.7159 145.638V139.049L23 141.179V147.769L26.7159 145.638Z" fill="#283036"/>
<path d="M23.2656 147.318L26.4581 145.49V139.494L23.2656 141.327V147.318Z" fill="#72B8CF"/>
<path opacity="0.5" d="M26.4581 144.009L23.2656 142.181V141.327L23.2983 141.309L26.4581 143.123V144.009Z" fill="#72B8CF"/>
<path opacity="0.5" d="M23.2656 142.793L26.4581 144.621V145.489L25.5092 146.032L23.2656 144.751V142.793Z" fill="#72B8CF"/>
<path d="M23.2656 144.042L26.4581 142.213V141.754L23.2656 143.582V144.042Z" fill="#283036"/>
<path d="M32.5753 132.49V125.9L28.8594 128.03V134.62L32.5753 132.49Z" fill="#283036"/>
<path d="M29.125 134.172L32.3174 132.343V126.348L29.125 128.181V134.172Z" fill="#72B8CF"/>
<path opacity="0.5" d="M32.3174 130.861L29.125 129.033V128.179L29.153 128.16L32.3174 129.97V130.861Z" fill="#72B8CF"/>
<path opacity="0.5" d="M29.125 129.646L32.3174 131.475V132.343L31.3639 132.886L29.125 131.6V129.646Z" fill="#72B8CF"/>
<path d="M29.125 130.895L32.3174 129.062V128.607L29.125 130.436V130.895Z" fill="#283036"/>
<path d="M26.7159 135.842V129.252L23 131.377V137.972L26.7159 135.842Z" fill="#283036"/>
<path d="M23.2656 137.521L26.4581 135.693V129.697L23.2656 131.53V137.521Z" fill="#72B8CF"/>
<path opacity="0.5" d="M26.4581 134.213L23.2656 132.384V131.53L23.2983 131.512L26.4581 133.322V134.213Z" fill="#72B8CF"/>
<path opacity="0.5" d="M23.2656 132.998L26.4581 134.826V135.694L25.5092 136.237L23.2656 134.952V132.998Z" fill="#72B8CF"/>
<path d="M23.2656 134.245L26.4581 132.412V131.957L23.2656 133.785V134.245Z" fill="#283036"/>
<path d="M85.3097 121.971V115.381L81.5938 117.511V124.101L85.3097 121.971Z" fill="#283036"/>
<path d="M81.8516 123.655L85.0487 121.822V115.826L81.8516 117.659V123.655Z" fill="#72B8CF"/>
<path opacity="0.5" d="M85.0487 120.346L81.8516 118.513V117.659L81.8843 117.641L85.0487 119.455V120.346Z" fill="#72B8CF"/>
<path opacity="0.5" d="M81.8516 119.125L85.0487 120.958V121.821L84.0951 122.369L81.8516 121.083V119.125Z" fill="#72B8CF"/>
<path d="M81.8516 120.374L85.0487 118.545V118.086L81.8516 119.919V120.374Z" fill="#283036"/>
<path d="M79.4503 125.32V118.73L75.7344 120.861V127.45L79.4503 125.32Z" fill="#283036"/>
<path d="M76 127.004L79.1924 125.171V119.176L76 121.009V127.004Z" fill="#72B8CF"/>
<path opacity="0.5" d="M79.1924 123.696L76 121.863V121.009L76.0327 120.99L79.1924 122.805V123.696Z" fill="#72B8CF"/>
<path opacity="0.5" d="M76 122.475L79.1924 124.303V125.171L78.2436 125.718L76 124.433V122.475Z" fill="#72B8CF"/>
<path d="M76 123.723L79.1924 121.895V121.436L76 123.269V123.723Z" fill="#283036"/>
<path d="M85.3097 112.174V105.584L81.5938 107.714V114.304L85.3097 112.174Z" fill="#283036"/>
<path d="M81.8516 113.853L85.0487 112.025V106.029L81.8516 107.862V113.853Z" fill="#72B8CF"/>
<path opacity="0.5" d="M85.0487 110.545L81.8516 108.716V107.862L81.8843 107.844L85.0487 109.658V110.545Z" fill="#72B8CF"/>
<path opacity="0.5" d="M81.8516 109.328L85.0487 111.157V112.024L84.0951 112.572L81.8516 111.286V109.328Z" fill="#72B8CF"/>
<path d="M81.8516 110.577L85.0487 108.744V108.289L81.8516 110.117V110.577Z" fill="#283036"/>
<path d="M79.4503 115.523V108.934L75.7344 111.064V117.653L79.4503 115.523Z" fill="#283036"/>
<path d="M76 117.205L79.1924 115.377V109.381L76 111.214V117.205Z" fill="#72B8CF"/>
<path opacity="0.5" d="M79.1924 113.894L76 112.066V111.212L76.0327 111.193L79.1924 113.008V113.894Z" fill="#72B8CF"/>
<path opacity="0.5" d="M76 112.68L79.1924 114.508V115.376L78.2436 115.919L76 114.633V112.68Z" fill="#72B8CF"/>
<path d="M76 113.928L79.1924 112.095V111.641L76 113.469V113.928Z" fill="#283036"/>
<path d="M85.3097 102.377V95.7871L81.5938 97.9171V104.507L85.3097 102.377Z" fill="#283036"/>
<path d="M81.8516 104.056L85.0487 102.228V96.2324L81.8516 98.0655V104.056Z" fill="#72B8CF"/>
<path opacity="0.5" d="M85.0487 100.748L81.8516 98.9193V98.0654L81.8843 98.0469L85.0487 99.8567V100.748Z" fill="#72B8CF"/>
<path opacity="0.5" d="M81.8516 99.5332L85.0487 101.362V102.229L84.0951 102.772L81.8516 101.487V99.5332Z" fill="#72B8CF"/>
<path d="M81.8516 100.78L85.0487 98.947V98.4922L81.8516 100.321V100.78Z" fill="#283036"/>
<path d="M79.4503 105.728V99.1387L75.7344 101.264V107.858L79.4503 105.728Z" fill="#283036"/>
<path d="M76 107.408L79.1924 105.58V99.584L76 101.417V107.408Z" fill="#72B8CF"/>
<path opacity="0.5" d="M79.1924 104.099L76 102.271V101.417L76.0327 101.398L79.1924 103.208V104.099Z" fill="#72B8CF"/>
<path opacity="0.5" d="M76 102.883L79.1924 104.711V105.579L78.2436 106.122L76 104.837V102.883Z" fill="#72B8CF"/>
<path d="M76 104.132L79.1924 102.299V101.844L76 103.672V104.132Z" fill="#283036"/>
<path d="M82.7132 143.805L43.6562 166.256V125.651L82.7132 103.246V143.805Z" fill="#823130"/>
<path opacity="0.3" d="M82.7132 143.805L43.6562 166.256V125.651L82.7132 103.246V143.805Z" fill="#823130"/>
<path d="M82.7103 103.246L43.6533 125.65L33.875 119.989L72.932 97.584L82.7103 103.246Z" fill="#823130"/>
<path d="M33.875 119.988L43.6533 125.65V166.255L33.875 160.598V119.988Z" fill="#823130"/>
<path opacity="0.3" d="M33.875 119.988L43.6533 125.65V166.255L33.875 160.598V119.988Z" fill="#823130"/>
<path d="M56.8019 149.748V143.158L53.0859 145.288V151.878L56.8019 149.748Z" fill="#283036"/>
<path d="M53.3438 151.433L56.5362 149.6V143.609L53.3438 145.438V151.433Z" fill="#72B8CF"/>
<path opacity="0.5" d="M56.5362 148.123L53.3438 146.29V145.437L53.3718 145.418L56.5362 147.232V148.123Z" fill="#72B8CF"/>
<path opacity="0.5" d="M53.3438 146.904L56.5362 148.737V149.6L55.5873 150.148L53.3438 148.863V146.904Z" fill="#72B8CF"/>
<path d="M53.3438 148.158L56.5362 146.325V145.865L53.3438 147.698V148.158Z" fill="#283036"/>
<path d="M50.9456 153.099V146.51L47.2344 148.64V155.229L50.9456 153.099Z" fill="#283036"/>
<path d="M47.4922 154.785L50.6893 152.952V146.961L47.4922 148.789V154.785Z" fill="#72B8CF"/>
<path opacity="0.5" d="M50.6893 151.475L47.4922 149.642V148.788L47.5249 148.77L50.6893 150.584V151.475Z" fill="#72B8CF"/>
<path opacity="0.5" d="M47.4922 150.256L50.6893 152.089V152.952L49.7358 153.5L47.4922 152.214V150.256Z" fill="#72B8CF"/>
<path d="M47.4922 151.507L50.6893 149.674V149.215L47.4922 151.048V151.507Z" fill="#283036"/>
<path d="M62.6566 136.568V129.979L58.9453 132.109V138.698L62.6566 136.568Z" fill="#283036"/>
<path d="M59.2031 138.254L62.4002 136.421V130.426L59.2031 132.259V138.254Z" fill="#72B8CF"/>
<path opacity="0.5" d="M62.4002 134.944L59.2031 133.111V132.257L59.2358 132.238L62.4002 134.053V134.944Z" fill="#72B8CF"/>
<path opacity="0.5" d="M59.2031 133.725L62.4002 135.553V136.421L61.4467 136.968L59.2031 135.683V133.725Z" fill="#72B8CF"/>
<path d="M59.2031 134.973L62.4002 133.145V132.686L59.2031 134.519V134.973Z" fill="#283036"/>
<path d="M56.8019 139.951V133.361L53.0859 135.491V142.081L56.8019 139.951Z" fill="#283036"/>
<path d="M53.3438 141.637L56.5362 139.804V133.812L53.3438 135.641V141.637Z" fill="#72B8CF"/>
<path opacity="0.5" d="M56.5362 138.327L53.3438 136.494V135.64L53.3718 135.621L56.5362 137.436V138.327Z" fill="#72B8CF"/>
<path opacity="0.5" d="M53.3438 137.107L56.5362 138.94V139.804L55.5873 140.351L53.3438 139.066V137.107Z" fill="#72B8CF"/>
<path d="M53.3438 138.359L56.5362 136.526V136.066L53.3438 137.899V138.359Z" fill="#283036"/>
<path d="M50.9456 143.303V136.713L47.2344 138.843V145.433L50.9456 143.303Z" fill="#283036"/>
<path d="M47.4922 144.988L50.6893 143.155V137.164L47.4922 138.992V144.988Z" fill="#72B8CF"/>
<path opacity="0.5" d="M50.6893 141.678L47.4922 139.845V138.991L47.5249 138.973L50.6893 140.787V141.678Z" fill="#72B8CF"/>
<path opacity="0.5" d="M47.4922 140.459L50.6893 142.292V143.155L49.7358 143.703L47.4922 142.417V140.459Z" fill="#72B8CF"/>
<path d="M47.4922 141.71L50.6893 139.877V139.418L47.4922 141.251V141.71Z" fill="#283036"/>
<path d="M74.3722 129.836V123.246L70.6562 125.371V131.961L74.3722 129.836Z" fill="#283036"/>
<path d="M70.9219 131.515L74.1143 129.687V123.691L70.9219 125.52V131.515Z" fill="#72B8CF"/>
<path opacity="0.5" d="M74.1143 128.207L70.9219 126.374V125.52L70.9499 125.506L74.1143 127.316V128.207Z" fill="#72B8CF"/>
<path opacity="0.5" d="M70.9219 126.986L74.1143 128.819V129.687L73.1608 130.23L70.9219 128.945V126.986Z" fill="#72B8CF"/>
<path d="M70.9219 128.24L74.1143 126.407V125.947L70.9219 127.78V128.24Z" fill="#283036"/>
<path d="M68.5128 133.219V126.629L64.7969 128.759V135.349L68.5128 133.219Z" fill="#283036"/>
<path d="M65.0625 134.903L68.2549 133.07V127.074L65.0625 128.907V134.903Z" fill="#72B8CF"/>
<path opacity="0.5" d="M68.2549 131.594L65.0625 129.761V128.907L65.0952 128.889L68.2549 130.703V131.594Z" fill="#72B8CF"/>
<path opacity="0.5" d="M65.0625 130.373L68.2549 132.201V133.069L67.3061 133.617L65.0625 132.331V130.373Z" fill="#72B8CF"/>
<path d="M65.0625 131.622L68.2549 129.793V129.334L65.0625 131.167V131.622Z" fill="#283036"/>
<path d="M80.2269 126.484V119.895L76.5156 122.025V128.614L80.2269 126.484Z" fill="#283036"/>
<path d="M76.7734 128.17L79.9705 126.337V120.346L76.7734 122.174V128.17Z" fill="#72B8CF"/>
<path opacity="0.5" d="M79.9705 124.86L76.7734 123.027V122.173L76.8062 122.154L79.9705 123.969V124.86Z" fill="#72B8CF"/>
<path opacity="0.5" d="M76.7734 123.641L79.9705 125.474V126.337L79.017 126.884L76.7734 125.599V123.641Z" fill="#72B8CF"/>
<path d="M76.7734 124.892L79.9705 123.059V122.6L76.7734 124.433V124.892Z" fill="#283036"/>
<path d="M74.3566 139.637V133.047L70.6406 135.172V141.767L74.3566 139.637Z" fill="#283036"/>
<path d="M70.8984 141.318L74.0955 139.49V133.494L70.8984 135.327V141.318Z" fill="#72B8CF"/>
<path opacity="0.5" d="M74.0955 138.007L70.8984 136.179V135.325L70.9312 135.307L74.0955 137.116V138.007Z" fill="#72B8CF"/>
<path opacity="0.5" d="M70.8984 136.787L74.0955 138.62V139.488L73.142 140.031L70.8984 138.745V136.787Z" fill="#72B8CF"/>
<path d="M70.8984 138.04L74.0955 136.207V135.752L70.8984 137.58V138.04Z" fill="#283036"/>
<path d="M80.2113 136.287V129.697L76.5 131.827V138.417L80.2113 136.287Z" fill="#283036"/>
<path d="M76.7578 137.973L79.9549 136.139V130.148L76.7578 131.977V137.973Z" fill="#72B8CF"/>
<path opacity="0.5" d="M79.9549 134.663L76.7578 132.829V131.976L76.7905 131.957L79.9549 133.772V134.663Z" fill="#72B8CF"/>
<path opacity="0.5" d="M76.7578 133.443L79.9549 135.276V136.14L79.0014 136.687L76.7578 135.402V133.443Z" fill="#72B8CF"/>
<path d="M76.7578 134.695L79.9549 132.862V132.402L76.7578 134.235V134.695Z" fill="#283036"/>
<path d="M62.6566 126.791V120.201L58.9453 122.331V128.921L62.6566 126.791Z" fill="#283036"/>
<path d="M59.2031 128.473L62.4002 126.644V120.648L59.2031 122.481V128.473Z" fill="#72B8CF"/>
<path opacity="0.5" d="M62.4002 125.162L59.2031 123.333V122.48L59.2358 122.461L62.4002 124.275V125.162Z" fill="#72B8CF"/>
<path opacity="0.5" d="M59.2031 123.947L62.4002 125.776V126.643L61.4467 127.191L59.2031 125.906V123.947Z" fill="#72B8CF"/>
<path d="M59.2031 125.196L62.4002 123.363V122.908L59.2031 124.737V125.196Z" fill="#283036"/>
<path d="M56.8019 130.174V123.584L53.0859 125.714V132.304L56.8019 130.174Z" fill="#283036"/>
<path d="M53.3438 131.86L56.5362 130.027V124.031L53.3438 125.864V131.86Z" fill="#72B8CF"/>
<path opacity="0.5" d="M56.5362 128.549L53.3438 126.716V125.862L53.3718 125.844L56.5362 127.658V128.549Z" fill="#72B8CF"/>
<path opacity="0.5" d="M53.3438 127.33L56.5362 129.163V130.026L55.5873 130.574L53.3438 129.288V127.33Z" fill="#72B8CF"/>
<path d="M53.3438 128.582L56.5362 126.748V126.289L53.3438 128.122V128.582Z" fill="#283036"/>
<path d="M50.9456 133.525V126.936L47.2344 129.066V135.655L50.9456 133.525Z" fill="#283036"/>
<path d="M47.4922 135.21L50.6893 133.377V127.381L47.4922 129.214V135.21Z" fill="#72B8CF"/>
<path opacity="0.5" d="M50.6893 131.901L47.4922 130.068V129.214L47.5249 129.195L50.6893 131.01V131.901Z" fill="#72B8CF"/>
<path opacity="0.5" d="M47.4922 130.682L50.6893 132.515V133.378L49.7358 133.925L47.4922 132.64V130.682Z" fill="#72B8CF"/>
<path d="M47.4922 131.928L50.6893 130.1V129.641L47.4922 131.474V131.928Z" fill="#283036"/>
<path d="M74.3722 120.057V113.463L70.6562 115.593V122.183L74.3722 120.057Z" fill="#283036"/>
<path d="M70.9219 121.738L74.1143 119.905V113.914L70.9219 115.742V121.738Z" fill="#72B8CF"/>
<path opacity="0.5" d="M74.1143 118.428L70.9219 116.595V115.741L70.9499 115.723L74.1143 117.537V118.428Z" fill="#72B8CF"/>
<path opacity="0.5" d="M70.9219 117.207L74.1143 119.04V119.903L73.1608 120.451L70.9219 119.165V117.207Z" fill="#72B8CF"/>
<path d="M70.9219 118.46L74.1143 116.627V116.168L70.9219 118.001V118.46Z" fill="#283036"/>
<path d="M68.5128 123.441V116.852L64.7969 118.982V125.571L68.5128 123.441Z" fill="#283036"/>
<path d="M65.0625 125.121L68.2549 123.293V117.297L65.0625 119.13V125.121Z" fill="#72B8CF"/>
<path opacity="0.5" d="M68.2549 121.812L65.0625 119.984V119.13L65.0952 119.111L68.2549 120.926V121.812Z" fill="#72B8CF"/>
<path opacity="0.5" d="M65.0625 120.598L68.2549 122.426V123.294L67.3061 123.841L65.0625 122.556V120.598Z" fill="#72B8CF"/>
<path d="M65.0625 121.844L68.2549 120.016V119.557L65.0625 121.385V121.844Z" fill="#283036"/>
<path d="M80.2269 116.707V110.117L76.5156 112.247V118.837L80.2269 116.707Z" fill="#283036"/>
<path d="M76.7734 118.39L79.9705 116.557V110.566L76.7734 112.395V118.39Z" fill="#72B8CF"/>
<path opacity="0.5" d="M79.9705 115.082L76.7734 113.249V112.396L76.8062 112.377L79.9705 114.191V115.082Z" fill="#72B8CF"/>
<path opacity="0.5" d="M76.7734 113.861L79.9705 115.694V116.558L79.017 117.105L76.7734 115.82V113.861Z" fill="#72B8CF"/>
<path d="M76.7734 115.115L79.9705 113.282V112.822L76.7734 114.655V115.115Z" fill="#283036"/>
<path d="M45.7557 121.493L45.0312 121.896V118.931L45.7557 118.527V121.493Z" fill="#283036"/>
<path opacity="0.3" d="M45.7557 121.493L45.0312 121.896V118.931L45.7557 118.527V121.493Z" fill="#283036"/>
<path d="M45.7593 118.527L45.0349 118.931L44.1094 118.415L44.8339 118.012L45.7593 118.527Z" fill="#283036"/>
<path d="M44.1094 118.416L45.0349 118.931V121.896L44.1094 121.381V118.416Z" fill="#283036"/>
<path opacity="0.3" d="M44.1094 118.416L45.0349 118.931V121.896L44.1094 121.381V118.416Z" fill="#283036"/>
<path d="M51.7198 118.066L51 118.47V115.505L51.7198 115.105V118.066Z" fill="#283036"/>
<path opacity="0.3" d="M51.7198 118.066L51 118.47V115.505L51.7198 115.105V118.066Z" fill="#283036"/>
<path d="M51.7234 115.106L51.0036 115.505L50.0781 114.99L50.8026 114.586L51.7234 115.106Z" fill="#283036"/>
<path d="M50.0781 114.988L51.0036 115.503V118.469L50.0781 117.954V114.988Z" fill="#283036"/>
<path opacity="0.3" d="M50.0781 114.988L51.0036 115.503V118.469L50.0781 117.954V114.988Z" fill="#283036"/>
<path d="M57.701 114.647L56.9766 115.046V112.085L57.701 111.682V114.647Z" fill="#283036"/>
<path opacity="0.3" d="M57.701 114.647L56.9766 115.046V112.085L57.701 111.682V114.647Z" fill="#283036"/>
<path d="M57.7 111.681L56.9755 112.085L56.0547 111.565L56.7745 111.166L57.7 111.681Z" fill="#283036"/>
<path d="M56.0547 111.566L56.9755 112.086V115.047L56.0547 114.532V111.566Z" fill="#283036"/>
<path opacity="0.3" d="M56.0547 111.566L56.9755 112.086V115.047L56.0547 114.532V111.566Z" fill="#283036"/>
<path d="M63.6776 111.221L62.9531 111.625V108.66L63.6776 108.256V111.221Z" fill="#283036"/>
<path opacity="0.3" d="M63.6776 111.221L62.9531 111.625V108.66L63.6776 108.256V111.221Z" fill="#283036"/>
<path d="M63.6734 108.257L62.9489 108.661L62.0234 108.146L62.7479 107.742L63.6734 108.257Z" fill="#283036"/>
<path d="M62.0234 108.145L62.9489 108.66V111.625L62.0234 111.105V108.145Z" fill="#283036"/>
<path opacity="0.3" d="M62.0234 108.145L62.9489 108.66V111.625L62.0234 111.105V108.145Z" fill="#283036"/>
<path d="M69.6417 107.797L68.9219 108.201V105.236L69.6417 104.832V107.797Z" fill="#283036"/>
<path opacity="0.3" d="M69.6417 107.797L68.9219 108.201V105.236L69.6417 104.832V107.797Z" fill="#283036"/>
<path d="M69.6453 104.833L68.9255 105.237L68 104.722L68.7245 104.318L69.6453 104.833Z" fill="#283036"/>
<path d="M68 104.721L68.9255 105.236V108.201L68 107.686V104.721Z" fill="#283036"/>
<path opacity="0.3" d="M68 104.721L68.9255 105.236V108.201L68 107.686V104.721Z" fill="#283036"/>
<path d="M75.6151 104.372L74.8906 104.775V101.81L75.6151 101.406V104.372Z" fill="#283036"/>
<path opacity="0.3" d="M75.6151 104.372L74.8906 104.775V101.81L75.6151 101.406V104.372Z" fill="#283036"/>
<path d="M75.614 101.408L74.8896 101.811L73.9688 101.296L74.6886 100.893L75.614 101.408Z" fill="#283036"/>
<path d="M73.9688 101.295L74.8896 101.81V104.775L73.9688 104.26V101.295Z" fill="#283036"/>
<path opacity="0.3" d="M73.9688 101.295L74.8896 101.81V104.775L73.9688 104.26V101.295Z" fill="#283036"/>
<path d="M33.8828 156.824V160.657L43.6471 166.249L42.17 161.618L33.8828 156.824Z" fill="#E1BD9A"/>
<path d="M43.6471 160.946L33.8828 155.279V156.834L35.2243 159.892L43.6471 164.783L84.1998 139.093L82.7134 138.48L43.6471 160.946Z" fill="#E1BD9A"/>
<path d="M84.2011 142.932L43.6484 166.251V162.417L84.2011 139.094V142.932Z" fill="#E1BD9A"/>
<path opacity="0.3" d="M84.2011 142.932L43.6484 166.251V162.417L84.2011 139.094V142.932Z" fill="#E1BD9A"/>
<path d="M35.2266 157.525V161.359L43.6493 166.25V162.417L35.2266 157.525Z" fill="#E1BD9A"/>
<path opacity="0.3" d="M33.8828 156.824V160.657L43.6471 166.249V162.416L33.8828 156.824Z" fill="#E1BD9A"/>
<path d="M68.6603 146.561L60.2656 151.391V156.204H61.1163L68.6603 151.865V146.561Z" fill="#823130"/>
<path opacity="0.3" d="M68.6603 146.561L60.2656 151.391V156.204H61.1163L68.6603 151.865V146.561Z" fill="#823130"/>
<path d="M67.2181 152.708V144.531L62.6094 147.172V155.349L67.2181 152.708Z" fill="#283036"/>
<path d="M62.9375 154.797L66.9012 152.523V145.084L62.9375 147.358V154.797Z" fill="#72B8CF"/>
<path opacity="0.5" d="M66.9012 150.689L62.9375 148.415V147.357L62.9749 147.334L66.9012 149.585V150.689Z" fill="#72B8CF"/>
<path opacity="0.5" d="M62.9375 149.176L66.9012 151.45V152.522L65.7186 153.199L62.9375 151.603V149.176Z" fill="#72B8CF"/>
<path d="M64.6641 153.803L65.1595 153.515V146.076L64.6641 146.364V153.803Z" fill="#283036"/>
<path d="M76.0244 149.016C76.0244 148.209 75.3841 147.55 74.5801 147.513C74.2763 147.207 73.8556 147.012 73.3882 147.012C73.0517 147.012 72.7432 147.109 72.4814 147.281C72.3505 147.225 72.2056 147.193 72.0561 147.193C71.4625 147.193 70.9857 147.666 70.9764 148.251C70.5978 148.608 70.3594 149.114 70.3594 149.675C70.3594 150.126 70.5136 150.539 70.7707 150.873C70.7707 150.887 70.766 150.901 70.766 150.914C70.766 151.624 71.3456 152.195 72.0561 152.195C72.2804 152.195 72.4908 152.135 72.6731 152.033C72.8741 152.14 73.1031 152.195 73.3461 152.195C73.5658 152.195 73.7715 152.144 73.9538 152.061C74.0847 152.116 74.2295 152.144 74.3838 152.144C74.9727 152.144 75.4542 151.694 75.5103 151.123C75.529 151.105 75.5476 151.086 75.5617 151.068C75.8374 150.803 76.0104 150.436 76.0104 150.023C76.0104 149.852 75.9777 149.689 75.9263 149.536C75.9917 149.378 76.0244 149.202 76.0244 149.016Z" fill="#005750"/>
<path opacity="0.3" d="M74.5294 148.445C74.5294 147.963 74.1461 147.568 73.6646 147.545C73.4824 147.359 73.23 147.248 72.9495 147.248C72.7485 147.248 72.5616 147.308 72.4073 147.41C72.3278 147.378 72.2437 147.359 72.1549 147.359C71.7997 147.359 71.5146 147.643 71.5099 147.991C71.2808 148.204 71.1406 148.506 71.1406 148.84C71.1406 149.109 71.2341 149.36 71.3884 149.554C71.3884 149.564 71.3837 149.573 71.3837 149.578C71.3837 150 71.7296 150.343 72.1549 150.343C72.2905 150.343 72.412 150.306 72.5242 150.246C72.6457 150.306 72.7812 150.343 72.9261 150.343C73.057 150.343 73.1785 150.315 73.2907 150.264C73.3702 150.297 73.459 150.315 73.5478 150.315C73.903 150.315 74.1882 150.046 74.2209 149.703C74.2302 149.694 74.2396 149.68 74.2536 149.67C74.4172 149.513 74.52 149.29 74.52 149.049C74.52 148.947 74.5013 148.849 74.4686 148.756C74.506 148.663 74.5294 148.557 74.5294 148.445Z" fill="#005750"/>
<g opacity="0.3">
<path d="M76.0213 149.016C76.0213 148.214 75.3903 147.564 74.5957 147.518C74.7359 147.648 74.8574 147.801 74.9462 147.982C75.1425 148.385 75.1519 148.826 75.0023 149.216C75.1986 149.638 75.021 150.144 74.5957 150.348C74.4882 150.399 74.376 150.427 74.2591 150.432C74.1329 150.645 73.9413 150.822 73.7029 150.938C73.3664 151.1 72.9971 151.109 72.6746 150.993C72.0857 151.244 71.3939 150.993 71.1134 150.418C71.048 150.283 71.0106 150.144 70.9966 150.005C70.9031 149.917 70.8237 149.81 70.7629 149.685C70.618 149.392 70.6133 149.068 70.7161 148.784C70.7208 148.766 70.7302 148.747 70.7348 148.729C70.7208 148.687 70.7021 148.636 70.6881 148.59C70.4731 148.9 70.3516 149.276 70.3516 149.685C70.3516 150.135 70.5058 150.548 70.7629 150.882C70.7629 150.896 70.7582 150.91 70.7582 150.924C70.7582 151.634 71.3378 152.205 72.0483 152.205C72.2726 152.205 72.483 152.144 72.6653 152.042C72.8662 152.149 73.0953 152.205 73.3383 152.205C73.558 152.205 73.7637 152.154 73.946 152.07C74.0768 152.126 74.2217 152.154 74.376 152.154C74.9649 152.154 75.4464 151.703 75.5024 151.133C75.5211 151.114 75.5398 151.095 75.5539 151.077C75.8296 150.812 76.0026 150.446 76.0026 150.033C76.0026 149.861 75.9699 149.699 75.9184 149.546C75.9886 149.378 76.0213 149.202 76.0213 149.016Z" fill="#005750"/>
<path d="M74.2188 147.238C74.2234 147.248 74.2234 147.252 74.2281 147.261C74.2935 147.294 74.359 147.336 74.4197 147.378C74.359 147.326 74.2889 147.28 74.2188 147.238Z" fill="#005750"/>
</g>
<g opacity="0.3">
<path d="M76.0197 149.017C76.0197 148.441 75.6926 147.94 75.2111 147.689C75.4916 147.945 75.6739 148.307 75.6739 148.72C75.6739 148.891 75.6411 149.058 75.585 149.212C75.6365 149.355 75.6645 149.504 75.6645 149.666C75.6645 150.047 75.5056 150.39 75.2485 150.636C75.2345 150.655 75.2158 150.669 75.2018 150.687C75.1504 151.221 74.7016 151.639 74.1501 151.639C74.0099 151.639 73.8743 151.611 73.7481 151.56C73.5752 151.639 73.3835 151.685 73.1825 151.685C72.9535 151.685 72.7432 151.629 72.5562 151.532C72.3833 151.625 72.1916 151.685 71.9813 151.685C71.3176 151.685 70.78 151.151 70.78 150.492C70.78 150.478 70.7847 150.469 70.7847 150.455C70.5463 150.149 70.4014 149.759 70.4014 149.342C70.4014 149.314 70.4061 149.286 70.4061 149.258C70.3734 149.397 70.3594 149.541 70.3594 149.685C70.3594 150.135 70.5136 150.548 70.7707 150.882C70.7707 150.896 70.766 150.91 70.766 150.924C70.766 151.634 71.3456 152.205 72.0561 152.205C72.2804 152.205 72.4908 152.144 72.6731 152.042C72.8741 152.149 73.1031 152.205 73.3461 152.205C73.5658 152.205 73.7715 152.154 73.9538 152.07C74.0847 152.126 74.2296 152.154 74.3838 152.154C74.9727 152.154 75.4542 151.704 75.5103 151.133C75.529 151.114 75.5477 151.096 75.5617 151.077C75.8375 150.813 76.0104 150.446 76.0104 150.033C76.0104 149.861 75.9777 149.699 75.9263 149.546C75.987 149.379 76.0197 149.202 76.0197 149.017Z" fill="#005750"/>
<path d="M74.2891 147.279C74.3031 147.293 74.3124 147.303 74.3265 147.312C74.3311 147.312 74.3405 147.312 74.3451 147.316C74.3265 147.307 74.3078 147.293 74.2891 147.279Z" fill="#005750"/>
</g>
<path d="M76.8461 101.324L43.2812 120.476V113.32L76.8461 94.168V101.324Z" fill="#E1BD9A"/>
<path opacity="0.3" d="M76.8461 101.324L43.2812 120.476V113.32L76.8461 94.168V101.324Z" fill="#E1BD9A"/>
<path d="M76.8413 94.1675L43.2764 113.319L41.0469 112.076L74.6071 92.9238L76.8413 94.1675Z" fill="#E1BD9A"/>
<path d="M41.0469 112.076L43.2764 113.32V120.476L41.0469 119.232V112.076Z" fill="#E1BD9A"/>
<path opacity="0.3" d="M41.0469 112.076L43.2764 113.32V120.476L41.0469 119.232V112.076Z" fill="#E1BD9A"/>
<path d="M47.1271 113.21V113.786L46.8841 113.925V114.89C46.8841 115.609 47.0477 115.67 47.3328 115.503C47.6086 115.345 47.7862 115.136 47.7862 114.366V113.419L47.5431 113.558V112.969L48.8753 112.203V112.779L48.6322 112.918V114.004C48.6322 115.066 48.1882 115.8 47.3375 116.287C46.426 116.783 45.9399 116.589 45.9399 115.572V114.468L45.6875 114.612V114.032L47.1271 113.21Z" fill="#823130"/>
<path d="M52.2175 110.872V113.424L51.25 113.981L50.1002 112.937V114.064L50.446 113.865V114.44L49.0625 115.234V114.658L49.3289 114.505V112.528L49.0672 112.677V112.097L50.3619 111.354L51.465 112.366V111.299L51.1565 111.475V110.895L52.512 110.115V110.695L52.2175 110.872Z" fill="#823130"/>
<path d="M54.2301 109.137V109.726L53.9496 109.884V111.828L54.2301 111.666V112.26L52.7344 113.118V112.524L53.0195 112.362V110.418L52.7344 110.58V109.991L54.2301 109.137Z" fill="#823130"/>
<path d="M56.2663 110.096C56.2756 109.966 56.3364 109.711 56.4299 109.432L56.8412 108.221L56.6028 108.36V107.78L57.8835 107.047V107.627L57.6638 107.752L56.5841 110.917L55.7568 111.39L54.5602 109.53L54.3125 109.673V109.093L55.9718 108.142V108.722L55.7288 108.861L56.112 109.646C56.1821 109.822 56.2429 109.989 56.2523 110.105L56.2663 110.096Z" fill="#823130"/>
<path d="M60.6688 105.445V106.434L59.8882 106.879V106.48L59.1684 106.893V107.51L60.0238 107.018V107.612L59.1684 108.104V108.833L59.8882 108.42V108.002L60.6688 107.557V108.568L57.9531 110.132V109.538L58.2382 109.376V107.431L57.9531 107.594V107.005L60.6688 105.445Z" fill="#823130"/>
<path d="M62.3583 104.476C63.4053 103.878 63.6063 104.17 63.6063 104.681C63.6063 105.029 63.3258 105.437 62.9519 105.706C63.2651 105.572 63.5409 105.683 63.5409 106.003C63.5409 106.193 63.5689 106.291 63.6484 106.244C63.7138 106.207 63.7512 106.133 63.7512 106.04V105.892L64.055 105.72V105.966C64.055 106.337 63.8961 106.773 63.396 107.061C62.807 107.4 62.5219 107.251 62.5219 106.732C62.5219 106.323 62.4705 106.254 62.0732 106.486V107.182L62.349 107.024V107.613L60.8906 108.449V107.859L61.143 107.716V105.762L60.8906 105.906V105.321L62.3583 104.476ZM62.0732 105.985L62.2742 105.869C62.5359 105.72 62.7089 105.497 62.7089 105.256C62.7089 104.991 62.5593 104.945 62.2975 105.094L62.0732 105.224V105.985Z" fill="#823130"/>
<path d="M64.2203 105.414L65.057 104.932C65.057 105.307 65.4356 105.154 65.6225 105.052C65.7814 104.964 66.0058 104.797 66.0058 104.607C66.0058 104.259 64.2764 105.4 64.2764 104.259C64.2764 103.595 64.9074 102.936 65.3468 102.681C65.7254 102.463 66.1086 102.365 66.2909 102.597L66.3377 102.194L67.1136 101.748V102.871L66.2956 103.34C66.2956 103.01 66.0338 102.969 65.7207 103.15C65.5898 103.224 65.4075 103.409 65.4075 103.567C65.4075 104.027 67.193 102.899 67.193 103.948C67.193 104.644 66.534 105.275 65.9965 105.581C65.5431 105.841 65.2252 105.813 65.0523 105.711L65.0009 106.082L64.2109 106.533V105.414H64.2203Z" fill="#823130"/>
<path d="M68.9176 100.717V101.306L68.6372 101.469V103.413L68.9176 103.251V103.845L67.4219 104.703V104.109L67.707 103.947V102.002L67.4219 102.165V101.575L68.9176 100.717Z" fill="#823130"/>
<path d="M72.1226 100.044L71.4589 100.425V99.8542L71.0803 100.072V102.017L71.4542 101.803V102.397L69.7762 103.358V102.764L70.1454 102.55V100.601L69.7575 100.824V101.395L69.0938 101.775V100.611L72.1179 98.875V100.044H72.1226Z" fill="#823130"/>
<path d="M73.881 99.2875C73.8997 99.1854 73.9978 98.9441 74.0493 98.8049L74.297 98.2109L74.0493 98.3548V97.784L75.2599 97.0879V97.6587L75.0168 97.7979L74.1848 99.733V100.253L74.4372 100.109V100.689L72.9929 101.515V100.935L73.25 100.786V100.257L72.3759 99.3107L72.1562 99.436V98.8652L73.6987 97.9835V98.5543L73.465 98.6889L73.7268 99.0137C73.7548 99.0834 73.8483 99.2319 73.867 99.2968L73.881 99.2875Z" fill="#823130"/>
<path d="M61.9594 157.764L60.3281 158.701V146.028L61.9594 145.086V157.764Z" fill="#E1BD9A"/>
<path opacity="0.3" d="M61.9594 157.764L60.3281 158.701V146.028L61.9594 145.086V157.764Z" fill="#E1BD9A"/>
<path d="M61.9528 145.085L60.3216 146.027L58.5781 145.029L60.2141 144.092L61.9528 145.085Z" fill="#E1BD9A"/>
<path d="M58.5781 145.029L60.3216 146.027V158.701L58.5781 157.703V145.029Z" fill="#E1BD9A"/>
<path opacity="0.3" d="M58.5781 145.029L60.3216 146.027V158.701L58.5781 157.703V145.029Z" fill="#E1BD9A"/>
<path opacity="0.3" d="M61.9528 145.085L60.2141 144.092L58.5781 145.029V157.703L60.3216 158.7L61.9528 157.763V145.085Z" fill="#E1BD9A"/>
<path d="M71.175 152.502L69.5391 153.439V140.766L71.175 139.828V152.502Z" fill="#E1BD9A"/>
<path opacity="0.3" d="M71.175 152.502L69.5391 153.439V140.766L71.175 139.828V152.502Z" fill="#E1BD9A"/>
<path d="M71.1763 139.828L69.5403 140.765L67.7969 139.767L69.4328 138.83L71.1763 139.828Z" fill="#E1BD9A"/>
<path d="M67.7969 139.768L69.5403 140.765V153.439L67.7969 152.446V139.768Z" fill="#E1BD9A"/>
<path opacity="0.3" d="M67.7969 139.768L69.5403 140.765V153.439L67.7969 152.446V139.768Z" fill="#E1BD9A"/>
<path opacity="0.3" d="M71.1716 139.828L69.4328 138.83L67.7969 139.767V152.446L69.5403 153.439L71.1763 152.501V139.828H71.1716Z" fill="#E1BD9A"/>
<path d="M67.9797 161.179L66.3438 162.117V149.443L67.9797 148.506V161.179Z" fill="#E1BD9A"/>
<path opacity="0.3" d="M67.9797 161.179L66.3438 162.117V149.443L67.9797 148.506V161.179Z" fill="#E1BD9A"/>
<path d="M67.9731 148.506L66.3372 149.443L64.5938 148.445L66.2297 147.508L67.9731 148.506Z" fill="#E1BD9A"/>
<path d="M64.5938 148.445L66.3372 149.443V162.117L64.5938 161.123V148.445Z" fill="#E1BD9A"/>
<path opacity="0.3" d="M64.5938 148.445L66.3372 149.443V162.117L64.5938 161.123V148.445Z" fill="#E1BD9A"/>
<path opacity="0.3" d="M67.9731 148.506L66.2297 147.508L64.5938 148.445V161.123L66.3372 162.116L67.9731 161.179V148.506Z" fill="#E1BD9A"/>
<path d="M77.2219 155.972L75.5859 156.91V144.236L77.2219 143.299V155.972Z" fill="#E1BD9A"/>
<path opacity="0.3" d="M77.2219 155.972L75.5859 156.91V144.236L77.2219 143.299V155.972Z" fill="#E1BD9A"/>
<path d="M77.2231 143.299L75.5872 144.236L73.8438 143.238L75.4797 142.301L77.2231 143.299Z" fill="#E1BD9A"/>
<path d="M73.8438 143.238L75.5872 144.236V156.91L73.8438 155.912V143.238Z" fill="#E1BD9A"/>
<path opacity="0.3" d="M73.8438 143.238L75.5872 144.236V156.91L73.8438 155.912V143.238Z" fill="#E1BD9A"/>
<path opacity="0.3" d="M77.2231 143.299L75.4797 142.301L73.8438 143.238V155.912L75.5872 156.909L77.2231 155.972V143.299Z" fill="#E1BD9A"/>
<path d="M77.2283 143.351L66.375 149.486V147.588L77.2283 141.453V143.351Z" fill="#E1BD9A"/>
<path opacity="0.3" d="M77.2283 143.351L66.375 149.486V147.588L77.2283 141.453V143.351Z" fill="#E1BD9A"/>
<path d="M77.2232 141.452L66.3699 147.587L58.5781 143.188L69.4314 137.053L77.2232 141.452Z" fill="#E1BD9A"/>
<path d="M58.5781 143.188L66.3699 147.587V149.485L58.5781 145.086V143.188Z" fill="#E1BD9A"/>
<path opacity="0.3" d="M58.5781 143.188L66.3699 147.587V149.485L58.5781 145.086V143.188Z" fill="#E1BD9A"/>
<path opacity="0.3" d="M77.2232 141.452L69.4314 137.053L58.5781 143.188V145.086L66.3699 149.485L77.2232 143.35V141.452Z" fill="#E1BD9A"/>
<path d="M60.1572 157.893C60.1572 157.086 59.5169 156.432 58.7129 156.39C58.4091 156.084 57.9884 155.889 57.521 155.889C57.1845 155.889 56.876 155.986 56.6142 156.158C56.4834 156.102 56.3385 156.07 56.1889 156.07C55.5953 156.07 55.1185 156.543 55.1092 157.128C54.7306 157.485 54.4922 157.991 54.4922 158.552C54.4922 159.003 54.6464 159.416 54.9035 159.75C54.9035 159.764 54.8988 159.778 54.8988 159.791C54.8988 160.501 55.4784 161.072 56.1889 161.072C56.4133 161.072 56.6236 161.012 56.8059 160.91C57.0069 161.017 57.2359 161.072 57.479 161.072C57.6986 161.072 57.9043 161.026 58.0866 160.938C58.2221 160.993 58.3624 161.021 58.5166 161.021C59.1055 161.021 59.587 160.571 59.6431 160C59.6618 159.982 59.6805 159.963 59.6945 159.945C59.9703 159.68 60.1432 159.313 60.1432 158.9C60.1432 158.729 60.1105 158.566 60.0591 158.413C60.1198 158.255 60.1572 158.079 60.1572 157.893Z" fill="#005750"/>
<path opacity="0.3" d="M58.6544 157.322C58.6544 156.84 58.2711 156.445 57.7896 156.422C57.6074 156.236 57.355 156.125 57.0745 156.125C56.8735 156.125 56.6866 156.185 56.5323 156.287C56.4529 156.255 56.3687 156.236 56.2799 156.236C55.9247 156.236 55.6396 156.519 55.6349 156.867C55.4058 157.081 55.2656 157.383 55.2656 157.717C55.2656 157.986 55.3591 158.236 55.5134 158.431C55.5134 158.441 55.5087 158.45 55.5087 158.455C55.5087 158.877 55.8546 159.22 56.2799 159.22C56.4155 159.22 56.537 159.183 56.6492 159.123C56.7707 159.183 56.9062 159.22 57.0511 159.22C57.182 159.22 57.3035 159.192 57.4157 159.141C57.4952 159.174 57.584 159.192 57.6728 159.192C58.028 159.192 58.3132 158.923 58.3459 158.58C58.3552 158.571 58.3646 158.557 58.3786 158.547C58.5422 158.39 58.645 158.172 58.645 157.926C58.645 157.823 58.6263 157.726 58.5936 157.633C58.6357 157.54 58.6544 157.434 58.6544 157.322Z" fill="#005750"/>
<g opacity="0.3">
<path d="M60.1541 157.893C60.1541 157.091 59.5231 156.441 58.7285 156.395C58.8687 156.524 58.9902 156.678 59.079 156.859C59.2754 157.262 59.28 157.703 59.1351 158.093C59.3314 158.515 59.1538 159.021 58.7285 159.225C58.621 159.276 58.5088 159.304 58.3919 159.309C58.2657 159.522 58.0741 159.699 57.8357 159.815C57.4992 159.977 57.1299 159.986 56.8074 159.87C56.2185 160.121 55.5267 159.87 55.2463 159.295C55.1808 159.16 55.1434 159.021 55.1294 158.882C55.0359 158.794 54.9565 158.687 54.8957 158.562C54.7508 158.269 54.7461 157.945 54.849 157.661C54.8536 157.643 54.863 157.624 54.8677 157.606C54.8536 157.564 54.8349 157.513 54.8209 157.467C54.6059 157.777 54.4844 158.153 54.4844 158.562C54.4844 159.012 54.6386 159.425 54.8957 159.759C54.8957 159.773 54.891 159.787 54.891 159.801C54.891 160.511 55.4706 161.082 56.1811 161.082C56.4054 161.082 56.6158 161.021 56.7981 160.919C56.9991 161.026 57.2281 161.082 57.4711 161.082C57.6908 161.082 57.8965 161.035 58.0788 160.947C58.2143 161.003 58.3546 161.031 58.5088 161.031C59.0977 161.031 59.5792 160.58 59.6353 160.01C59.654 159.991 59.6727 159.972 59.6867 159.954C59.9625 159.689 60.1354 159.323 60.1354 158.91C60.1354 158.738 60.1027 158.576 60.0513 158.422C60.1167 158.255 60.1541 158.079 60.1541 157.893Z" fill="#005750"/>
<path d="M58.3594 156.117C58.364 156.126 58.3641 156.131 58.3687 156.14C58.4342 156.173 58.4996 156.215 58.5604 156.256C58.4996 156.205 58.4295 156.159 58.3594 156.117Z" fill="#005750"/>
</g>
<g opacity="0.3">
<path d="M60.1557 157.894C60.1557 157.318 59.8285 156.817 59.3471 156.566C59.6275 156.822 59.8098 157.184 59.8098 157.597C59.8098 157.768 59.7771 157.935 59.721 158.089C59.7724 158.232 59.8005 158.381 59.8005 158.543C59.8005 158.924 59.6415 159.267 59.3845 159.513C59.3704 159.532 59.3517 159.546 59.3377 159.564C59.2863 160.098 58.8376 160.516 58.2907 160.516C58.1505 160.516 58.0149 160.488 57.8887 160.437C57.7158 160.516 57.5242 160.562 57.3232 160.562C57.0941 160.562 56.8838 160.506 56.6968 160.409C56.5239 160.502 56.3323 160.562 56.1219 160.562C55.4582 160.562 54.9207 160.028 54.9207 159.369C54.9207 159.355 54.9253 159.346 54.9253 159.332C54.687 159.026 54.5421 158.636 54.5421 158.218C54.5421 158.191 54.5467 158.163 54.5467 158.135C54.514 158.274 54.5 158.413 54.5 158.562C54.5 159.012 54.6542 159.425 54.9113 159.759C54.9113 159.773 54.9067 159.787 54.9067 159.801C54.9067 160.511 55.4862 161.082 56.1967 161.082C56.4211 161.082 56.6314 161.021 56.8137 160.919C57.0147 161.026 57.2437 161.082 57.4868 161.082C57.7065 161.082 57.9121 161.035 58.0944 160.947C58.23 161.003 58.3702 161.031 58.5244 161.031C59.1134 161.031 59.5948 160.581 59.6509 160.01C59.6696 159.991 59.6883 159.973 59.7023 159.954C59.9781 159.69 60.151 159.323 60.151 158.91C60.151 158.738 60.1183 158.576 60.0669 158.423C60.1183 158.256 60.1557 158.079 60.1557 157.894Z" fill="#005750"/>
<path d="M58.4219 156.158C58.4359 156.172 58.4452 156.181 58.4593 156.191C58.4639 156.191 58.4733 156.191 58.478 156.195C58.4593 156.186 58.4406 156.172 58.4219 156.158Z" fill="#005750"/>
</g>
</g>
<rect x="153" width="467" height="99" rx="18" fill="#006DB7"/>
<path d="M97 122L208.5 86.026L176.5 62L97 122Z" fill="#006DB7"/>
<rect x="166.048" y="28.5476" width="41.9048" height="41.9048" rx="20.9524" fill="#4285F4"/>
<rect x="166.048" y="28.5476" width="41.9048" height="41.9048" rx="20.9524" stroke="white" stroke-width="2.09524"/>
<g clip-path="url(#clip1_171_7003)">
<path d="M197.058 42.731L189.684 39.218C188.06 38.2484 186.04 38.2312 184.401 39.173L176.944 42.731C176.916 42.745 176.887 42.76 176.86 42.776C175.09 43.7878 174.476 46.0426 175.487 47.8123C175.83 48.4122 176.335 48.9037 176.944 49.231L179.001 50.211V55.111C179.002 57.302 180.427 59.2378 182.52 59.889C183.975 60.3102 185.485 60.5164 187.001 60.501C188.516 60.518 190.025 60.3135 191.482 59.894C193.574 59.2429 194.999 57.3071 195.001 55.116V50.209L197.001 49.253V57.5009C197.001 58.0532 197.448 58.5009 198.001 58.5009C198.553 58.5009 199.001 58.0532 199.001 57.5009V45.5009C199.007 44.3267 198.08 43.2419 197.058 42.731ZM193.001 55.116C193.001 56.4266 192.151 57.5858 190.901 57.979C189.633 58.3412 188.319 58.517 187.001 58.501C185.682 58.517 184.368 58.3412 183.101 57.979C181.85 57.5858 181 56.4266 181.001 55.116V51.164L184.318 52.744C185.136 53.23 186.071 53.4854 187.023 53.483C187.929 53.4894 188.819 53.2496 189.6 52.789L193.001 51.164V55.116ZM196.201 47.426L188.659 51.026C187.607 51.6383 186.304 51.6209 185.269 50.981L177.89 47.471C177.067 47.0274 176.76 46.0011 177.203 45.1786C177.353 44.9005 177.578 44.6699 177.853 44.513L185.348 40.933C186.399 40.322 187.702 40.3393 188.738 40.978L196.112 44.491C196.654 44.7921 196.993 45.3607 197.001 45.981C197.002 46.5685 196.699 47.1149 196.201 47.426Z" fill="white"/>
</g>
<path d="M239.093 40.0909H242.519V52.4446C242.519 53.7988 242.199 54.9898 241.559 56.0178C240.925 57.0457 240.032 57.849 238.881 58.4276C237.73 59 236.385 59.2862 234.846 59.2862C233.301 59.2862 231.953 59 230.802 58.4276C229.651 57.849 228.759 57.0457 228.125 56.0178C227.491 54.9898 227.174 53.7988 227.174 52.4446V40.0909H230.599V52.1584C230.599 52.9463 230.771 53.648 231.116 54.2635C231.467 54.879 231.959 55.3622 232.593 55.7131C233.227 56.0578 233.978 56.2301 234.846 56.2301C235.714 56.2301 236.465 56.0578 237.099 55.7131C237.739 55.3622 238.232 54.879 238.576 54.2635C238.921 53.648 239.093 52.9463 239.093 52.1584V40.0909ZM249.437 50.6903V59H246.094V44.8182H249.289V47.228H249.455C249.781 46.4339 250.301 45.803 251.015 45.3352C251.736 44.8674 252.625 44.6335 253.684 44.6335C254.662 44.6335 255.515 44.8428 256.241 45.2614C256.974 45.6799 257.54 46.2862 257.94 47.0803C258.346 47.8743 258.546 48.8376 258.54 49.9702V59H255.198V50.4872C255.198 49.5393 254.952 48.7976 254.459 48.2621C253.973 47.7266 253.299 47.4588 252.437 47.4588C251.853 47.4588 251.332 47.5881 250.877 47.8466C250.428 48.099 250.074 48.4652 249.815 48.9453C249.563 49.4254 249.437 50.0071 249.437 50.6903ZM261.938 59V44.8182H265.28V59H261.938ZM263.618 42.8054C263.089 42.8054 262.634 42.63 262.252 42.2791C261.87 41.9221 261.68 41.4943 261.68 40.9957C261.68 40.491 261.87 40.0632 262.252 39.7124C262.634 39.3553 263.089 39.1768 263.618 39.1768C264.154 39.1768 264.609 39.3553 264.985 39.7124C265.367 40.0632 265.557 40.491 265.557 40.9957C265.557 41.4943 265.367 41.9221 264.985 42.2791C264.609 42.63 264.154 42.8054 263.618 42.8054ZM281.385 44.8182L276.335 59H272.641L267.591 44.8182H271.155L274.414 55.353H274.562L277.83 44.8182H281.385ZM289.494 59.277C288.072 59.277 286.844 58.9815 285.81 58.3906C284.782 57.7936 283.991 56.9503 283.437 55.8608C282.883 54.7652 282.606 53.4756 282.606 51.9922C282.606 50.5334 282.883 49.2531 283.437 48.1513C283.997 47.0433 284.779 46.1816 285.782 45.5661C286.785 44.9444 287.964 44.6335 289.318 44.6335C290.192 44.6335 291.017 44.7751 291.793 45.0582C292.575 45.3352 293.264 45.7661 293.861 46.3509C294.464 46.9356 294.938 47.6804 295.283 48.5852C295.628 49.4839 295.8 50.5549 295.8 51.7983V52.8232H284.176V50.5703H292.596C292.59 49.9302 292.451 49.3608 292.181 48.8622C291.91 48.3575 291.531 47.9605 291.045 47.6712C290.565 47.3819 290.005 47.2372 289.365 47.2372C288.681 47.2372 288.081 47.4034 287.564 47.7358C287.047 48.062 286.644 48.4929 286.355 49.0284C286.071 49.5578 285.927 50.1394 285.921 50.7734V52.7401C285.921 53.5649 286.071 54.2727 286.373 54.8636C286.675 55.4484 287.096 55.8977 287.638 56.2116C288.18 56.5194 288.814 56.6733 289.54 56.6733C290.026 56.6733 290.466 56.6056 290.86 56.4702C291.254 56.3286 291.596 56.1224 291.885 55.8516C292.174 55.5807 292.393 55.2453 292.541 54.8452L295.661 55.196C295.464 56.0208 295.089 56.741 294.535 57.3565C293.987 57.9659 293.285 58.4399 292.43 58.7784C291.574 59.1108 290.596 59.277 289.494 59.277ZM298.627 59V44.8182H301.868V47.1818H302.016C302.275 46.3632 302.718 45.7322 303.346 45.2891C303.98 44.8397 304.703 44.6151 305.515 44.6151C305.7 44.6151 305.906 44.6243 306.134 44.6428C306.368 44.6551 306.562 44.6766 306.716 44.7074V47.782C306.574 47.7327 306.349 47.6896 306.042 47.6527C305.74 47.6096 305.448 47.5881 305.164 47.5881C304.555 47.5881 304.007 47.7204 303.521 47.9851C303.041 48.2436 302.662 48.6037 302.385 49.0653C302.108 49.527 301.97 50.0594 301.97 50.6626V59H298.627ZM320.145 48.5668L317.098 48.8991C317.012 48.5914 316.861 48.3021 316.646 48.0312C316.436 47.7604 316.153 47.5419 315.796 47.3757C315.439 47.2095 315.002 47.1264 314.485 47.1264C313.79 47.1264 313.205 47.2772 312.731 47.5788C312.263 47.8804 312.032 48.2713 312.038 48.7514C312.032 49.1638 312.183 49.4993 312.491 49.7578C312.805 50.0163 313.322 50.2287 314.042 50.3949L316.461 50.9119C317.803 51.2012 318.8 51.6598 319.452 52.2876C320.111 52.9155 320.443 53.7372 320.45 54.7528C320.443 55.6454 320.182 56.4332 319.665 57.1165C319.154 57.7936 318.443 58.3229 317.532 58.7045C316.621 59.0862 315.575 59.277 314.393 59.277C312.657 59.277 311.26 58.9138 310.201 58.1875C309.142 57.455 308.511 56.4363 308.308 55.1314L311.567 54.8175C311.715 55.4576 312.029 55.9408 312.509 56.267C312.989 56.5933 313.614 56.7564 314.384 56.7564C315.178 56.7564 315.815 56.5933 316.295 56.267C316.781 55.9408 317.024 55.5376 317.024 55.0575C317.024 54.6513 316.867 54.3158 316.553 54.0511C316.246 53.7865 315.765 53.5833 315.113 53.4418L312.694 52.9339C311.334 52.6508 310.327 52.1738 309.675 51.5028C309.022 50.8258 308.699 49.9702 308.705 48.9361C308.699 48.062 308.936 47.3049 309.416 46.6648C309.902 46.0185 310.576 45.5199 311.438 45.169C312.306 44.812 313.306 44.6335 314.439 44.6335C316.101 44.6335 317.409 44.9875 318.363 45.6953C319.323 46.4032 319.917 47.3603 320.145 48.5668ZM323.206 59V44.8182H326.548V59H323.206ZM324.886 42.8054C324.357 42.8054 323.901 42.63 323.52 42.2791C323.138 41.9221 322.947 41.4943 322.947 40.9957C322.947 40.491 323.138 40.0632 323.52 39.7124C323.901 39.3553 324.357 39.1768 324.886 39.1768C325.422 39.1768 325.877 39.3553 326.252 39.7124C326.634 40.0632 326.825 40.491 326.825 40.9957C326.825 41.4943 326.634 41.9221 326.252 42.2791C325.877 42.63 325.422 42.8054 324.886 42.8054ZM335.248 59.2493C334.134 59.2493 333.136 58.9631 332.256 58.3906C331.376 57.8182 330.68 56.9872 330.17 55.8977C329.659 54.8082 329.403 53.4848 329.403 51.9276C329.403 50.3518 329.662 49.0223 330.179 47.9389C330.702 46.8494 331.407 46.0277 332.293 45.4737C333.18 44.9136 334.167 44.6335 335.257 44.6335C336.088 44.6335 336.771 44.7751 337.307 45.0582C337.842 45.3352 338.267 45.6707 338.581 46.0646C338.895 46.4524 339.138 46.8187 339.31 47.1634H339.449V40.0909H342.8V59H339.513V56.7656H339.31C339.138 57.1103 338.889 57.4766 338.562 57.8643C338.236 58.246 337.805 58.5722 337.27 58.843C336.734 59.1139 336.06 59.2493 335.248 59.2493ZM336.18 56.5071C336.888 56.5071 337.491 56.3163 337.99 55.9347C338.488 55.5469 338.867 55.0083 339.126 54.3189C339.384 53.6295 339.513 52.8262 339.513 51.9091C339.513 50.992 339.384 50.1948 339.126 49.5178C338.873 48.8407 338.498 48.3144 337.999 47.9389C337.507 47.5634 336.9 47.3757 336.18 47.3757C335.435 47.3757 334.814 47.5696 334.315 47.9574C333.817 48.3452 333.441 48.8807 333.189 49.5639C332.936 50.2472 332.81 51.0289 332.81 51.9091C332.81 52.7955 332.936 53.5864 333.189 54.282C333.447 54.9714 333.826 55.5161 334.324 55.9162C334.829 56.3101 335.448 56.5071 336.18 56.5071ZM350.443 59.2862C349.544 59.2862 348.735 59.1262 348.015 58.8061C347.301 58.4799 346.734 57.9998 346.316 57.3658C345.903 56.7318 345.697 55.95 345.697 55.0206C345.697 54.2204 345.845 53.5587 346.14 53.0355C346.436 52.5123 346.839 52.0938 347.35 51.7798C347.861 51.4659 348.436 51.2289 349.076 51.0689C349.723 50.9027 350.391 50.7827 351.08 50.7088C351.911 50.6226 352.585 50.5457 353.102 50.478C353.619 50.4041 353.994 50.2933 354.228 50.1456C354.468 49.9917 354.588 49.7547 354.588 49.4347V49.3793C354.588 48.6837 354.382 48.1451 353.97 47.7635C353.557 47.3819 352.963 47.1911 352.188 47.1911C351.369 47.1911 350.72 47.3696 350.24 47.7266C349.766 48.0836 349.446 48.5052 349.279 48.9915L346.159 48.5483C346.405 47.6866 346.811 46.9664 347.377 46.3878C347.944 45.803 348.636 45.366 349.455 45.0767C350.274 44.7812 351.178 44.6335 352.169 44.6335C352.853 44.6335 353.533 44.7135 354.21 44.8736C354.887 45.0336 355.506 45.2983 356.066 45.6676C356.626 46.0308 357.075 46.5263 357.414 47.1541C357.758 47.782 357.931 48.5668 357.931 49.5085V59H354.718V57.0518H354.607C354.404 57.4458 354.118 57.8151 353.748 58.1598C353.385 58.4983 352.926 58.7723 352.373 58.9815C351.825 59.1847 351.181 59.2862 350.443 59.2862ZM351.311 56.8303C351.982 56.8303 352.563 56.6979 353.056 56.4332C353.548 56.1624 353.927 55.8054 354.191 55.3622C354.462 54.919 354.598 54.4358 354.598 53.9126V52.2415C354.493 52.3277 354.315 52.4077 354.062 52.4815C353.816 52.5554 353.539 52.62 353.231 52.6754C352.923 52.7308 352.619 52.7801 352.317 52.8232C352.016 52.8662 351.754 52.9032 351.532 52.9339C351.034 53.0017 350.587 53.1125 350.194 53.2663C349.8 53.4202 349.489 53.6357 349.261 53.9126C349.033 54.1835 348.919 54.5343 348.919 54.9652C348.919 55.5807 349.144 56.0455 349.593 56.3594C350.043 56.6733 350.615 56.8303 351.311 56.8303ZM366.554 59.2493C365.44 59.2493 364.443 58.9631 363.563 58.3906C362.683 57.8182 361.987 56.9872 361.476 55.8977C360.965 54.8082 360.71 53.4848 360.71 51.9276C360.71 50.3518 360.968 49.0223 361.485 47.9389C362.009 46.8494 362.713 46.0277 363.6 45.4737C364.486 44.9136 365.474 44.6335 366.564 44.6335C367.395 44.6335 368.078 44.7751 368.613 45.0582C369.149 45.3352 369.574 45.6707 369.887 46.0646C370.201 46.4524 370.444 46.8187 370.617 47.1634H370.755V40.0909H374.107V59H370.82V56.7656H370.617C370.444 57.1103 370.195 57.4766 369.869 57.8643C369.543 58.246 369.112 58.5722 368.576 58.843C368.041 59.1139 367.367 59.2493 366.554 59.2493ZM367.487 56.5071C368.195 56.5071 368.798 56.3163 369.297 55.9347C369.795 55.5469 370.174 55.0083 370.432 54.3189C370.691 53.6295 370.82 52.8262 370.82 51.9091C370.82 50.992 370.691 50.1948 370.432 49.5178C370.18 48.8407 369.804 48.3144 369.306 47.9389C368.813 47.5634 368.207 47.3757 367.487 47.3757C366.742 47.3757 366.12 47.5696 365.622 47.9574C365.123 48.3452 364.748 48.8807 364.495 49.5639C364.243 50.2472 364.117 51.0289 364.117 51.9091C364.117 52.7955 364.243 53.5864 364.495 54.282C364.754 54.9714 365.132 55.5161 365.631 55.9162C366.136 56.3101 366.754 56.5071 367.487 56.5071ZM394.542 45.2891C394.456 44.4827 394.092 43.8549 393.452 43.4055C392.818 42.9562 391.993 42.7315 390.978 42.7315C390.264 42.7315 389.651 42.8393 389.14 43.0547C388.63 43.2701 388.239 43.5625 387.968 43.9318C387.697 44.3011 387.559 44.7228 387.552 45.1967C387.552 45.5907 387.642 45.9323 387.82 46.2216C388.005 46.5109 388.254 46.7571 388.568 46.9602C388.882 47.1572 389.23 47.3234 389.611 47.4588C389.993 47.5942 390.378 47.7081 390.765 47.8004L392.538 48.2436C393.252 48.4098 393.939 48.6345 394.597 48.9176C395.262 49.2008 395.856 49.5578 396.379 49.9886C396.908 50.4195 397.327 50.9396 397.635 51.549C397.943 52.1584 398.096 52.8724 398.096 53.6911C398.096 54.799 397.813 55.7746 397.247 56.6179C396.681 57.455 395.862 58.1106 394.791 58.5845C393.726 59.0523 392.437 59.2862 390.922 59.2862C389.451 59.2862 388.174 59.0585 387.091 58.603C386.014 58.1475 385.17 57.4827 384.561 56.6087C383.958 55.7346 383.631 54.6697 383.582 53.4141H386.952C387.001 54.0727 387.205 54.6205 387.562 55.0575C387.919 55.4946 388.383 55.8208 388.956 56.0362C389.534 56.2517 390.181 56.3594 390.895 56.3594C391.64 56.3594 392.292 56.2486 392.852 56.027C393.418 55.7992 393.862 55.4853 394.182 55.0852C394.502 54.679 394.665 54.205 394.671 53.6634C394.665 53.1709 394.52 52.7647 394.237 52.4446C393.954 52.1184 393.557 51.8475 393.046 51.6321C392.541 51.4105 391.95 51.2135 391.273 51.0412L389.122 50.4872C387.565 50.0871 386.334 49.4808 385.429 48.6683C384.53 47.8497 384.081 46.7633 384.081 45.4091C384.081 44.295 384.382 43.3194 384.986 42.4822C385.595 41.6451 386.423 40.9957 387.469 40.5341C388.516 40.0663 389.701 39.8324 391.024 39.8324C392.366 39.8324 393.541 40.0663 394.551 40.5341C395.567 40.9957 396.364 41.639 396.942 42.4638C397.521 43.2824 397.819 44.2242 397.838 45.2891H394.542ZM405.083 59.2862C404.185 59.2862 403.375 59.1262 402.655 58.8061C401.941 58.4799 401.375 57.9998 400.956 57.3658C400.544 56.7318 400.338 55.95 400.338 55.0206C400.338 54.2204 400.485 53.5587 400.781 53.0355C401.076 52.5123 401.48 52.0938 401.99 51.7798C402.501 51.4659 403.077 51.2289 403.717 51.0689C404.363 50.9027 405.031 50.7827 405.721 50.7088C406.551 50.6226 407.225 50.5457 407.743 50.478C408.26 50.4041 408.635 50.2933 408.869 50.1456C409.109 49.9917 409.229 49.7547 409.229 49.4347V49.3793C409.229 48.6837 409.023 48.1451 408.61 47.7635C408.198 47.3819 407.604 47.1911 406.828 47.1911C406.01 47.1911 405.36 47.3696 404.88 47.7266C404.406 48.0836 404.086 48.5052 403.92 48.9915L400.799 48.5483C401.046 47.6866 401.452 46.9664 402.018 46.3878C402.584 45.803 403.277 45.366 404.096 45.0767C404.914 44.7812 405.819 44.6335 406.81 44.6335C407.493 44.6335 408.173 44.7135 408.85 44.8736C409.528 45.0336 410.146 45.2983 410.706 45.6676C411.266 46.0308 411.716 46.5263 412.054 47.1541C412.399 47.782 412.571 48.5668 412.571 49.5085V59H409.358V57.0518H409.248C409.044 57.4458 408.758 57.8151 408.389 58.1598C408.026 58.4983 407.567 58.7723 407.013 58.9815C406.465 59.1847 405.822 59.2862 405.083 59.2862ZM405.951 56.8303C406.622 56.8303 407.204 56.6979 407.696 56.4332C408.189 56.1624 408.567 55.8054 408.832 55.3622C409.103 54.919 409.238 54.4358 409.238 53.9126V52.2415C409.134 52.3277 408.955 52.4077 408.703 52.4815C408.457 52.5554 408.18 52.62 407.872 52.6754C407.564 52.7308 407.259 52.7801 406.958 52.8232C406.656 52.8662 406.395 52.9032 406.173 52.9339C405.674 53.0017 405.228 53.1125 404.834 53.2663C404.44 53.4202 404.129 53.6357 403.902 53.9126C403.674 54.1835 403.56 54.5343 403.56 54.9652C403.56 55.5807 403.785 56.0455 404.234 56.3594C404.683 56.6733 405.256 56.8303 405.951 56.8303ZM419.275 50.6903V59H415.932V44.8182H419.127V47.228H419.293C419.619 46.4339 420.139 45.803 420.853 45.3352C421.574 44.8674 422.463 44.6335 423.522 44.6335C424.5 44.6335 425.353 44.8428 426.079 45.2614C426.812 45.6799 427.378 46.2862 427.778 47.0803C428.184 47.8743 428.384 48.8376 428.378 49.9702V59H425.036V50.4872C425.036 49.5393 424.79 48.7976 424.297 48.2621C423.811 47.7266 423.137 47.4588 422.275 47.4588C421.69 47.4588 421.17 47.5881 420.715 47.8466C420.266 48.099 419.912 48.4652 419.653 48.9453C419.401 49.4254 419.275 50.0071 419.275 50.6903ZM445.833 40.0909H449.231V53.3864C449.225 54.6051 448.966 55.6546 448.455 56.5348C447.944 57.4089 447.23 58.0829 446.313 58.5568C445.402 59.0246 444.34 59.2585 443.128 59.2585C442.02 59.2585 441.023 59.0616 440.136 58.6676C439.256 58.2675 438.558 57.6766 438.04 56.8949C437.523 56.1132 437.265 55.1406 437.265 53.9773H440.672C440.678 54.4882 440.789 54.9283 441.004 55.2976C441.226 55.6669 441.531 55.95 441.918 56.147C442.306 56.344 442.752 56.4425 443.257 56.4425C443.805 56.4425 444.27 56.3286 444.651 56.1009C445.033 55.867 445.322 55.5223 445.519 55.0668C445.722 54.6113 445.827 54.0511 445.833 53.3864V40.0909ZM461.838 53.0355V44.8182H465.181V59H461.94V56.4794H461.792C461.472 57.2734 460.946 57.9228 460.213 58.4276C459.487 58.9323 458.592 59.1847 457.527 59.1847C456.597 59.1847 455.775 58.9785 455.061 58.5661C454.354 58.1475 453.8 57.5412 453.4 56.7472C452.999 55.947 452.799 54.9806 452.799 53.848V44.8182H456.142V53.331C456.142 54.2296 456.388 54.9437 456.88 55.473C457.373 56.0024 458.019 56.267 458.819 56.267C459.312 56.267 459.789 56.147 460.25 55.907C460.712 55.6669 461.091 55.3099 461.386 54.8359C461.688 54.3558 461.838 53.7557 461.838 53.0355ZM472.699 59.2862C471.8 59.2862 470.991 59.1262 470.27 58.8061C469.556 58.4799 468.99 57.9998 468.572 57.3658C468.159 56.7318 467.953 55.95 467.953 55.0206C467.953 54.2204 468.101 53.5587 468.396 53.0355C468.692 52.5123 469.095 52.0938 469.606 51.7798C470.117 51.4659 470.692 51.2289 471.332 51.0689C471.979 50.9027 472.646 50.7827 473.336 50.7088C474.167 50.6226 474.841 50.5457 475.358 50.478C475.875 50.4041 476.25 50.2933 476.484 50.1456C476.724 49.9917 476.844 49.7547 476.844 49.4347V49.3793C476.844 48.6837 476.638 48.1451 476.226 47.7635C475.813 47.3819 475.219 47.1911 474.444 47.1911C473.625 47.1911 472.976 47.3696 472.496 47.7266C472.022 48.0836 471.702 48.5052 471.535 48.9915L468.415 48.5483C468.661 47.6866 469.067 46.9664 469.633 46.3878C470.2 45.803 470.892 45.366 471.711 45.0767C472.529 44.7812 473.434 44.6335 474.425 44.6335C475.108 44.6335 475.789 44.7135 476.466 44.8736C477.143 45.0336 477.761 45.2983 478.322 45.6676C478.882 46.0308 479.331 46.5263 479.67 47.1541C480.014 47.782 480.187 48.5668 480.187 49.5085V59H476.974V57.0518H476.863C476.66 57.4458 476.373 57.8151 476.004 58.1598C475.641 58.4983 475.182 58.7723 474.628 58.9815C474.081 59.1847 473.437 59.2862 472.699 59.2862ZM473.567 56.8303C474.238 56.8303 474.819 56.6979 475.312 56.4332C475.804 56.1624 476.183 55.8054 476.447 55.3622C476.718 54.919 476.854 54.4358 476.854 53.9126V52.2415C476.749 52.3277 476.57 52.4077 476.318 52.4815C476.072 52.5554 475.795 52.62 475.487 52.6754C475.179 52.7308 474.875 52.7801 474.573 52.8232C474.271 52.8662 474.01 52.9032 473.788 52.9339C473.29 53.0017 472.843 53.1125 472.449 53.2663C472.055 53.4202 471.745 53.6357 471.517 53.9126C471.289 54.1835 471.175 54.5343 471.175 54.9652C471.175 55.5807 471.4 56.0455 471.849 56.3594C472.299 56.6733 472.871 56.8303 473.567 56.8303ZM486.89 50.6903V59H483.547V44.8182H486.742V47.228H486.908C487.234 46.4339 487.755 45.803 488.469 45.3352C489.189 44.8674 490.078 44.6335 491.137 44.6335C492.116 44.6335 492.968 44.8428 493.694 45.2614C494.427 45.6799 494.993 46.2862 495.393 47.0803C495.8 47.8743 496 48.8376 495.993 49.9702V59H492.651V50.4872C492.651 49.5393 492.405 48.7976 491.912 48.2621C491.426 47.7266 490.752 47.4588 489.89 47.4588C489.306 47.4588 488.786 47.5881 488.33 47.8466C487.881 48.099 487.527 48.4652 487.268 48.9453C487.016 49.4254 486.89 50.0071 486.89 50.6903ZM505.988 59V40.0909H513.227C514.593 40.0909 515.729 40.3063 516.634 40.7372C517.545 41.1619 518.225 41.7436 518.674 42.4822C519.13 43.2209 519.357 44.058 519.357 44.9936C519.357 45.763 519.21 46.4216 518.914 46.9695C518.619 47.5111 518.222 47.9512 517.723 48.2898C517.225 48.6283 516.668 48.8714 516.052 49.0192V49.2038C516.723 49.2408 517.366 49.447 517.982 49.8224C518.603 50.1918 519.111 50.715 519.505 51.392C519.899 52.0691 520.096 52.8878 520.096 53.848C520.096 54.8267 519.859 55.7069 519.385 56.4886C518.911 57.2642 518.197 57.8767 517.243 58.326C516.289 58.7753 515.089 59 513.642 59H505.988ZM509.414 56.1378H513.097C514.341 56.1378 515.236 55.9008 515.784 55.4268C516.338 54.9467 516.615 54.3312 516.615 53.5803C516.615 53.0201 516.477 52.5154 516.2 52.0661C515.923 51.6106 515.529 51.2536 515.018 50.995C514.507 50.7304 513.898 50.598 513.19 50.598H509.414V56.1378ZM509.414 48.1328H512.802C513.393 48.1328 513.925 48.0251 514.399 47.8097C514.873 47.5881 515.246 47.2772 515.517 46.8771C515.794 46.4709 515.932 45.9908 515.932 45.4368C515.932 44.7043 515.673 44.1011 515.156 43.6271C514.646 43.1532 513.885 42.9162 512.876 42.9162H509.414V48.1328ZM527.009 59.2862C526.111 59.2862 525.301 59.1262 524.581 58.8061C523.867 58.4799 523.301 57.9998 522.882 57.3658C522.47 56.7318 522.263 55.95 522.263 55.0206C522.263 54.2204 522.411 53.5587 522.707 53.0355C523.002 52.5123 523.405 52.0938 523.916 51.7798C524.427 51.4659 525.003 51.2289 525.643 51.0689C526.289 50.9027 526.957 50.7827 527.646 50.7088C528.477 50.6226 529.151 50.5457 529.668 50.478C530.185 50.4041 530.561 50.2933 530.795 50.1456C531.035 49.9917 531.155 49.7547 531.155 49.4347V49.3793C531.155 48.6837 530.949 48.1451 530.536 47.7635C530.124 47.3819 529.53 47.1911 528.754 47.1911C527.936 47.1911 527.286 47.3696 526.806 47.7266C526.332 48.0836 526.012 48.5052 525.846 48.9915L522.725 48.5483C522.971 47.6866 523.378 46.9664 523.944 46.3878C524.51 45.803 525.203 45.366 526.021 45.0767C526.84 44.7812 527.745 44.6335 528.736 44.6335C529.419 44.6335 530.099 44.7135 530.776 44.8736C531.453 45.0336 532.072 45.2983 532.632 45.6676C533.192 46.0308 533.642 46.5263 533.98 47.1541C534.325 47.782 534.497 48.5668 534.497 49.5085V59H531.284V57.0518H531.173C530.97 57.4458 530.684 57.8151 530.315 58.1598C529.951 58.4983 529.493 58.7723 528.939 58.9815C528.391 59.1847 527.748 59.2862 527.009 59.2862ZM527.877 56.8303C528.548 56.8303 529.13 56.6979 529.622 56.4332C530.115 56.1624 530.493 55.8054 530.758 55.3622C531.029 54.919 531.164 54.4358 531.164 53.9126V52.2415C531.059 52.3277 530.881 52.4077 530.629 52.4815C530.382 52.5554 530.105 52.62 529.798 52.6754C529.49 52.7308 529.185 52.7801 528.884 52.8232C528.582 52.8662 528.32 52.9032 528.099 52.9339C527.6 53.0017 527.154 53.1125 526.76 53.2663C526.366 53.4202 526.055 53.6357 525.827 53.9126C525.6 54.1835 525.486 54.5343 525.486 54.9652C525.486 55.5807 525.71 56.0455 526.16 56.3594C526.609 56.6733 527.182 56.8303 527.877 56.8303ZM546.897 53.0355V44.8182H550.239V59H546.999V56.4794H546.851C546.531 57.2734 546.004 57.9228 545.272 58.4276C544.546 58.9323 543.65 59.1847 542.585 59.1847C541.656 59.1847 540.834 58.9785 540.12 58.5661C539.412 58.1475 538.858 57.5412 538.458 56.7472C538.058 55.947 537.858 54.9806 537.858 53.848V44.8182H541.2V53.331C541.2 54.2296 541.446 54.9437 541.939 55.473C542.431 56.0024 543.078 56.267 543.878 56.267C544.37 56.267 544.847 56.147 545.309 55.907C545.771 55.6669 546.149 55.3099 546.445 54.8359C546.746 54.3558 546.897 53.7557 546.897 53.0355ZM560.758 44.8182V47.4034H552.605V44.8182H560.758ZM554.618 41.4205H557.96V54.7344C557.96 55.1837 558.028 55.5284 558.164 55.7685C558.305 56.0024 558.49 56.1624 558.718 56.2486C558.945 56.3348 559.198 56.3778 559.475 56.3778C559.684 56.3778 559.875 56.3625 560.047 56.3317C560.226 56.3009 560.361 56.2732 560.453 56.2486L561.017 58.8615C560.838 58.9231 560.583 58.9908 560.25 59.0646C559.924 59.1385 559.524 59.1816 559.05 59.1939C558.213 59.2185 557.459 59.0923 556.788 58.8153C556.117 58.5322 555.584 58.0952 555.191 57.5043C554.803 56.9134 554.612 56.1747 554.618 55.2884V41.4205ZM563.553 59V44.8182H566.896V59H563.553ZM565.234 42.8054C564.704 42.8054 564.249 42.63 563.867 42.2791C563.486 41.9221 563.295 41.4943 563.295 40.9957C563.295 40.491 563.486 40.0632 563.867 39.7124C564.249 39.3553 564.704 39.1768 565.234 39.1768C565.769 39.1768 566.225 39.3553 566.6 39.7124C566.982 40.0632 567.173 40.491 567.173 40.9957C567.173 41.4943 566.982 41.9221 566.6 42.2791C566.225 42.63 565.769 42.8054 565.234 42.8054ZM581.541 48.5668L578.494 48.8991C578.408 48.5914 578.258 48.3021 578.042 48.0312C577.833 47.7604 577.55 47.5419 577.193 47.3757C576.836 47.2095 576.399 47.1264 575.882 47.1264C575.186 47.1264 574.601 47.2772 574.127 47.5788C573.66 47.8804 573.429 48.2713 573.435 48.7514C573.429 49.1638 573.579 49.4993 573.887 49.7578C574.201 50.0163 574.718 50.2287 575.438 50.3949L577.857 50.9119C579.199 51.2012 580.196 51.6598 580.849 52.2876C581.508 52.9155 581.84 53.7372 581.846 54.7528C581.84 55.6454 581.578 56.4332 581.061 57.1165C580.55 57.7936 579.839 58.3229 578.928 58.7045C578.017 59.0862 576.971 59.277 575.789 59.277C574.053 59.277 572.656 58.9138 571.597 58.1875C570.539 57.455 569.908 56.4363 569.705 55.1314L572.964 54.8175C573.112 55.4576 573.426 55.9408 573.906 56.267C574.386 56.5933 575.011 56.7564 575.78 56.7564C576.574 56.7564 577.211 56.5933 577.691 56.267C578.177 55.9408 578.421 55.5376 578.421 55.0575C578.421 54.6513 578.264 54.3158 577.95 54.0511C577.642 53.7865 577.162 53.5833 576.509 53.4418L574.09 52.9339C572.73 52.6508 571.724 52.1738 571.071 51.5028C570.419 50.8258 570.096 49.9702 570.102 48.9361C570.096 48.062 570.333 47.3049 570.813 46.6648C571.299 46.0185 571.973 45.5199 572.835 45.169C573.703 44.812 574.703 44.6335 575.835 44.6335C577.497 44.6335 578.805 44.9875 579.759 45.6953C580.72 46.4032 581.314 47.3603 581.541 48.5668ZM591.684 44.8182V47.4034H583.531V44.8182H591.684ZM585.544 41.4205H588.886V54.7344C588.886 55.1837 588.954 55.5284 589.089 55.7685C589.231 56.0024 589.416 56.1624 589.643 56.2486C589.871 56.3348 590.123 56.3778 590.4 56.3778C590.61 56.3778 590.8 56.3625 590.973 56.3317C591.151 56.3009 591.287 56.2732 591.379 56.2486L591.942 58.8615C591.764 58.9231 591.508 58.9908 591.176 59.0646C590.85 59.1385 590.45 59.1816 589.976 59.1939C589.139 59.2185 588.385 59.0923 587.714 58.8153C587.043 58.5322 586.51 58.0952 586.116 57.5043C585.729 56.9134 585.538 56.1747 585.544 55.2884V41.4205ZM598.56 59.2862C597.661 59.2862 596.852 59.1262 596.132 58.8061C595.418 58.4799 594.851 57.9998 594.433 57.3658C594.02 56.7318 593.814 55.95 593.814 55.0206C593.814 54.2204 593.962 53.5587 594.257 53.0355C594.553 52.5123 594.956 52.0938 595.467 51.7798C595.978 51.4659 596.553 51.2289 597.194 51.0689C597.84 50.9027 598.508 50.7827 599.197 50.7088C600.028 50.6226 600.702 50.5457 601.219 50.478C601.736 50.4041 602.112 50.2933 602.346 50.1456C602.586 49.9917 602.706 49.7547 602.706 49.4347V49.3793C602.706 48.6837 602.499 48.1451 602.087 47.7635C601.675 47.3819 601.081 47.1911 600.305 47.1911C599.486 47.1911 598.837 47.3696 598.357 47.7266C597.883 48.0836 597.563 48.5052 597.397 48.9915L594.276 48.5483C594.522 47.6866 594.928 46.9664 595.495 46.3878C596.061 45.803 596.753 45.366 597.572 45.0767C598.391 44.7812 599.296 44.6335 600.287 44.6335C600.97 44.6335 601.65 44.7135 602.327 44.8736C603.004 45.0336 603.623 45.2983 604.183 45.6676C604.743 46.0308 605.192 46.5263 605.531 47.1541C605.876 47.782 606.048 48.5668 606.048 49.5085V59H602.835V57.0518H602.724C602.521 57.4458 602.235 57.8151 601.865 58.1598C601.502 58.4983 601.044 58.7723 600.49 58.9815C599.942 59.1847 599.299 59.2862 598.56 59.2862ZM599.428 56.8303C600.099 56.8303 600.681 56.6979 601.173 56.4332C601.665 56.1624 602.044 55.8054 602.309 55.3622C602.579 54.919 602.715 54.4358 602.715 53.9126V52.2415C602.61 52.3277 602.432 52.4077 602.179 52.4815C601.933 52.5554 601.656 52.62 601.348 52.6754C601.041 52.7308 600.736 52.7801 600.434 52.8232C600.133 52.8662 599.871 52.9032 599.65 52.9339C599.151 53.0017 598.705 53.1125 598.311 53.2663C597.917 53.4202 597.606 53.6357 597.378 53.9126C597.15 54.1835 597.037 54.5343 597.037 54.9652C597.037 55.5807 597.261 56.0455 597.711 56.3594C598.16 56.6733 598.732 56.8303 599.428 56.8303Z" fill="white"/>
<defs>
<clipPath id="clip0_171_7003">
<rect width="89" height="90" fill="white" transform="translate(0 78)"/>
</clipPath>
<clipPath id="clip1_171_7003">
<rect width="24" height="24" fill="white" transform="translate(175 37.5)"/>
</clipPath>
</defs>
</svg>
