<svg width="426" height="138" viewBox="0 0 426 138" fill="none" xmlns="http://www.w3.org/2000/svg">
<rect x="124" width="302" height="92" rx="18" fill="#006DB7"/>
<path d="M68 102L179.5 66.026L147.5 42L68 102Z" fill="#006DB7"/>
<rect x="149.048" y="25.0476" width="41.9048" height="41.9048" rx="20.9524" fill="#407C1D"/>
<rect x="149.048" y="25.0476" width="41.9048" height="41.9048" rx="20.9524" stroke="white" stroke-width="2.09524"/>
<g clip-path="url(#clip0_176_68930)">
<path d="M177 54H163V55C163 55.2652 162.895 55.5196 162.707 55.7071C162.52 55.8946 162.265 56 162 56H161C160.735 56 160.48 55.8946 160.293 55.7071C160.105 55.5196 160 55.2652 160 55V45L162.48 39.212C162.634 38.852 162.891 38.5452 163.218 38.3298C163.545 38.1143 163.928 37.9997 164.32 38H175.68C176.071 38 176.454 38.1149 176.781 38.3303C177.107 38.5458 177.364 38.8523 177.518 39.212L180 45V55C180 55.2652 179.895 55.5196 179.707 55.7071C179.52 55.8946 179.265 56 179 56H178C177.735 56 177.48 55.8946 177.293 55.7071C177.105 55.5196 177 55.2652 177 55V54ZM178 47H162V52H178V47ZM162.176 45H177.824L175.681 40H164.32L162.177 45H162.176ZM164.5 51C164.102 51 163.721 50.842 163.439 50.5607C163.158 50.2794 163 49.8978 163 49.5C163 49.1022 163.158 48.7206 163.439 48.4393C163.721 48.158 164.102 48 164.5 48C164.898 48 165.279 48.158 165.561 48.4393C165.842 48.7206 166 49.1022 166 49.5C166 49.8978 165.842 50.2794 165.561 50.5607C165.279 50.842 164.898 51 164.5 51ZM175.5 51C175.102 51 174.721 50.842 174.439 50.5607C174.158 50.2794 174 49.8978 174 49.5C174 49.1022 174.158 48.7206 174.439 48.4393C174.721 48.158 175.102 48 175.5 48C175.898 48 176.279 48.158 176.561 48.4393C176.842 48.7206 177 49.1022 177 49.5C177 49.8978 176.842 50.2794 176.561 50.5607C176.279 50.842 175.898 51 175.5 51Z" fill="white"/>
</g>
<path d="M209.865 55.5V36.5909H213.29V44.5959H222.053V36.5909H225.487V55.5H222.053V47.4673H213.29V55.5H209.865ZM233.146 55.7862C232.247 55.7862 231.438 55.6262 230.718 55.3061C230.004 54.9799 229.437 54.4998 229.019 53.8658C228.606 53.2318 228.4 52.45 228.4 51.5206C228.4 50.7204 228.548 50.0587 228.843 49.5355C229.139 49.0123 229.542 48.5938 230.053 48.2798C230.564 47.9659 231.139 47.7289 231.779 47.5689C232.426 47.4027 233.094 47.2827 233.783 47.2088C234.614 47.1226 235.288 47.0457 235.805 46.978C236.322 46.9041 236.698 46.7933 236.931 46.6456C237.172 46.4917 237.292 46.2547 237.292 45.9347V45.8793C237.292 45.1837 237.085 44.6451 236.673 44.2635C236.261 43.8819 235.667 43.6911 234.891 43.6911C234.072 43.6911 233.423 43.8696 232.943 44.2266C232.469 44.5836 232.149 45.0052 231.983 45.4915L228.862 45.0483C229.108 44.1866 229.514 43.4664 230.081 42.8878C230.647 42.303 231.339 41.866 232.158 41.5767C232.977 41.2812 233.882 41.1335 234.873 41.1335C235.556 41.1335 236.236 41.2135 236.913 41.3736C237.59 41.5336 238.209 41.7983 238.769 42.1676C239.329 42.5308 239.778 43.0263 240.117 43.6541C240.462 44.282 240.634 45.0668 240.634 46.0085V55.5H237.421V53.5518H237.31C237.107 53.9458 236.821 54.3151 236.451 54.6598C236.088 54.9983 235.63 55.2723 235.076 55.4815C234.528 55.6847 233.885 55.7862 233.146 55.7862ZM234.014 53.3303C234.685 53.3303 235.266 53.1979 235.759 52.9332C236.251 52.6624 236.63 52.3054 236.895 51.8622C237.165 51.419 237.301 50.9358 237.301 50.4126V48.7415C237.196 48.8277 237.018 48.9077 236.765 48.9815C236.519 49.0554 236.242 49.12 235.934 49.1754C235.627 49.2308 235.322 49.2801 235.02 49.3232C234.719 49.3662 234.457 49.4032 234.235 49.4339C233.737 49.5017 233.291 49.6125 232.897 49.7663C232.503 49.9202 232.192 50.1357 231.964 50.4126C231.736 50.6835 231.623 51.0343 231.623 51.4652C231.623 52.0807 231.847 52.5455 232.297 52.8594C232.746 53.1733 233.318 53.3303 234.014 53.3303ZM250.181 55.777C248.765 55.777 247.549 55.4661 246.534 54.8445C245.524 54.2228 244.746 53.3641 244.198 52.2685C243.656 51.1667 243.385 49.8987 243.385 48.4645C243.385 47.0241 243.662 45.7531 244.216 44.6513C244.77 43.5433 245.552 42.6816 246.561 42.0661C247.577 41.4444 248.777 41.1335 250.162 41.1335C251.313 41.1335 252.332 41.3459 253.218 41.7706C254.111 42.1892 254.822 42.7831 255.351 43.5526C255.881 44.3158 256.182 45.2083 256.256 46.2301H253.061C252.932 45.5469 252.624 44.9775 252.138 44.522C251.658 44.0604 251.015 43.8295 250.208 43.8295C249.525 43.8295 248.925 44.0142 248.408 44.3835C247.891 44.7467 247.488 45.2699 247.199 45.9531C246.915 46.6364 246.774 47.455 246.774 48.4091C246.774 49.3755 246.915 50.2064 247.199 50.902C247.482 51.5914 247.879 52.1238 248.39 52.4993C248.907 52.8686 249.513 53.0533 250.208 53.0533C250.701 53.0533 251.141 52.9609 251.529 52.7763C251.923 52.5855 252.252 52.3116 252.517 51.9545C252.781 51.5975 252.963 51.1636 253.061 50.6527H256.256C256.176 51.656 255.881 52.5455 255.37 53.321C254.859 54.0904 254.163 54.6937 253.283 55.1307C252.403 55.5616 251.369 55.777 250.181 55.777ZM259.001 55.5V41.3182H262.343V55.5H259.001ZM260.681 39.3054C260.152 39.3054 259.696 39.13 259.314 38.7791C258.933 38.4221 258.742 37.9943 258.742 37.4957C258.742 36.991 258.933 36.5632 259.314 36.2124C259.696 35.8553 260.152 35.6768 260.681 35.6768C261.216 35.6768 261.672 35.8553 262.047 36.2124C262.429 36.5632 262.62 36.991 262.62 37.4957C262.62 37.9943 262.429 38.4221 262.047 38.7791C261.672 39.13 261.216 39.3054 260.681 39.3054ZM269.861 55.7862C268.962 55.7862 268.153 55.6262 267.433 55.3061C266.719 54.9799 266.152 54.4998 265.734 53.8658C265.321 53.2318 265.115 52.45 265.115 51.5206C265.115 50.7204 265.263 50.0587 265.558 49.5355C265.854 49.0123 266.257 48.5938 266.768 48.2798C267.279 47.9659 267.854 47.7289 268.494 47.5689C269.141 47.4027 269.808 47.2827 270.498 47.2088C271.329 47.1226 272.003 47.0457 272.52 46.978C273.037 46.9041 273.412 46.7933 273.646 46.6456C273.886 46.4917 274.006 46.2547 274.006 45.9347V45.8793C274.006 45.1837 273.8 44.6451 273.388 44.2635C272.975 43.8819 272.381 43.6911 271.606 43.6911C270.787 43.6911 270.138 43.8696 269.658 44.2266C269.184 44.5836 268.864 45.0052 268.697 45.4915L265.577 45.0483C265.823 44.1866 266.229 43.4664 266.795 42.8878C267.362 42.303 268.054 41.866 268.873 41.5767C269.692 41.2812 270.596 41.1335 271.587 41.1335C272.271 41.1335 272.951 41.2135 273.628 41.3736C274.305 41.5336 274.924 41.7983 275.484 42.1676C276.044 42.5308 276.493 43.0263 276.832 43.6541C277.176 44.282 277.349 45.0668 277.349 46.0085V55.5H274.136V53.5518H274.025C273.822 53.9458 273.536 54.3151 273.166 54.6598C272.803 54.9983 272.344 55.2723 271.79 55.4815C271.243 55.6847 270.599 55.7862 269.861 55.7862ZM270.729 53.3303C271.4 53.3303 271.981 53.1979 272.474 52.9332C272.966 52.6624 273.345 52.3054 273.609 51.8622C273.88 51.419 274.016 50.9358 274.016 50.4126V48.7415C273.911 48.8277 273.732 48.9077 273.48 48.9815C273.234 49.0554 272.957 49.12 272.649 49.1754C272.341 49.2308 272.037 49.2801 271.735 49.3232C271.433 49.3662 271.172 49.4032 270.95 49.4339C270.452 49.5017 270.005 49.6125 269.612 49.7663C269.218 49.9202 268.907 50.1357 268.679 50.4126C268.451 50.6835 268.337 51.0343 268.337 51.4652C268.337 52.0807 268.562 52.5455 269.011 52.8594C269.461 53.1733 270.033 53.3303 270.729 53.3303ZM287.306 36.5909H291.498L297.112 50.2926H297.333L302.947 36.5909H307.139V55.5H303.852V42.5092H303.676L298.451 55.4446H295.995L290.769 42.4815H290.593V55.5H287.306V36.5909ZM316.907 55.777C315.522 55.777 314.322 55.4723 313.306 54.8629C312.291 54.2536 311.503 53.401 310.943 52.3054C310.389 51.2098 310.112 49.9295 310.112 48.4645C310.112 46.9995 310.389 45.7161 310.943 44.6143C311.503 43.5125 312.291 42.657 313.306 42.0476C314.322 41.4382 315.522 41.1335 316.907 41.1335C318.292 41.1335 319.493 41.4382 320.508 42.0476C321.524 42.657 322.309 43.5125 322.863 44.6143C323.423 45.7161 323.703 46.9995 323.703 48.4645C323.703 49.9295 323.423 51.2098 322.863 52.3054C322.309 53.401 321.524 54.2536 320.508 54.8629C319.493 55.4723 318.292 55.777 316.907 55.777ZM316.926 53.0994C317.677 53.0994 318.305 52.8932 318.809 52.4808C319.314 52.0623 319.69 51.5021 319.936 50.8004C320.188 50.0987 320.314 49.317 320.314 48.4553C320.314 47.5874 320.188 46.8026 319.936 46.1009C319.69 45.393 319.314 44.8298 318.809 44.4112C318.305 43.9927 317.677 43.7834 316.926 43.7834C316.156 43.7834 315.516 43.9927 315.005 44.4112C314.501 44.8298 314.122 45.393 313.87 46.1009C313.623 46.8026 313.5 47.5874 313.5 48.4553C313.5 49.317 313.623 50.0987 313.87 50.8004C314.122 51.5021 314.501 52.0623 315.005 52.4808C315.516 52.8932 316.156 53.0994 316.926 53.0994ZM332.726 55.777C331.31 55.777 330.094 55.4661 329.079 54.8445C328.069 54.2228 327.291 53.3641 326.743 52.2685C326.201 51.1667 325.93 49.8987 325.93 48.4645C325.93 47.0241 326.207 45.7531 326.761 44.6513C327.315 43.5433 328.097 42.6816 329.106 42.0661C330.122 41.4444 331.322 41.1335 332.707 41.1335C333.858 41.1335 334.877 41.3459 335.763 41.7706C336.656 42.1892 337.367 42.7831 337.896 43.5526C338.425 44.3158 338.727 45.2083 338.801 46.2301H335.606C335.477 45.5469 335.169 44.9775 334.683 44.522C334.203 44.0604 333.56 43.8295 332.753 43.8295C332.07 43.8295 331.47 44.0142 330.953 44.3835C330.436 44.7467 330.033 45.2699 329.743 45.9531C329.46 46.6364 329.319 47.455 329.319 48.4091C329.319 49.3755 329.46 50.2064 329.743 50.902C330.027 51.5914 330.424 52.1238 330.934 52.4993C331.452 52.8686 332.058 53.0533 332.753 53.0533C333.246 53.0533 333.686 52.9609 334.074 52.7763C334.468 52.5855 334.797 52.3116 335.062 51.9545C335.326 51.5975 335.508 51.1636 335.606 50.6527H338.801C338.721 51.656 338.425 52.5455 337.915 53.321C337.404 54.0904 336.708 54.6937 335.828 55.1307C334.948 55.5616 333.914 55.777 332.726 55.777ZM344.888 47.1903V55.5H341.545V36.5909H344.814V43.728H344.98C345.313 42.9278 345.826 42.2969 346.522 41.8352C347.224 41.3674 348.116 41.1335 349.2 41.1335C350.184 41.1335 351.043 41.3397 351.776 41.7521C352.508 42.1645 353.074 42.7678 353.474 43.5618C353.881 44.3558 354.084 45.3253 354.084 46.4702V55.5H350.741V46.9872C350.741 46.0331 350.495 45.2914 350.003 44.7621C349.517 44.2266 348.833 43.9588 347.953 43.9588C347.362 43.9588 346.833 44.0881 346.365 44.3466C345.903 44.599 345.54 44.9652 345.276 45.4453C345.017 45.9254 344.888 46.5071 344.888 47.1903ZM366.53 49.5355V41.3182H369.872V55.5H366.631V52.9794H366.484C366.164 53.7734 365.637 54.4228 364.905 54.9276C364.179 55.4323 363.283 55.6847 362.218 55.6847C361.289 55.6847 360.467 55.4785 359.753 55.0661C359.045 54.6475 358.491 54.0412 358.091 53.2472C357.691 52.447 357.491 51.4806 357.491 50.348V41.3182H360.833V49.831C360.833 50.7296 361.079 51.4437 361.572 51.973C362.064 52.5024 362.71 52.767 363.511 52.767C364.003 52.767 364.48 52.647 364.942 52.407C365.403 52.1669 365.782 51.8099 366.077 51.3359C366.379 50.8558 366.53 50.2557 366.53 49.5355ZM373.309 55.5V41.3182H376.504V43.728H376.67C376.965 42.9155 377.455 42.2815 378.138 41.826C378.821 41.3643 379.637 41.1335 380.585 41.1335C381.545 41.1335 382.354 41.3674 383.013 41.8352C383.678 42.2969 384.146 42.9278 384.416 43.728H384.564C384.878 42.9401 385.407 42.3123 386.152 41.8445C386.903 41.3705 387.793 41.1335 388.82 41.1335C390.125 41.1335 391.19 41.5459 392.015 42.3707C392.84 43.1955 393.252 44.3989 393.252 45.9808V55.5H389.901V46.4979C389.901 45.6177 389.667 44.9744 389.199 44.5682C388.731 44.1558 388.159 43.9496 387.482 43.9496C386.675 43.9496 386.044 44.2019 385.589 44.7067C385.14 45.2053 384.915 45.8546 384.915 46.6548V55.5H381.637V46.3594C381.637 45.6269 381.416 45.0421 380.972 44.6051C380.535 44.1681 379.963 43.9496 379.255 43.9496C378.775 43.9496 378.338 44.0727 377.944 44.3189C377.55 44.5589 377.236 44.9006 377.002 45.3438C376.768 45.7808 376.651 46.2917 376.651 46.8764V55.5H373.309ZM396.643 55.5V41.3182H399.985V55.5H396.643ZM398.324 39.3054C397.794 39.3054 397.339 39.13 396.957 38.7791C396.575 38.4221 396.385 37.9943 396.385 37.4957C396.385 36.991 396.575 36.5632 396.957 36.2124C397.339 35.8553 397.794 35.6768 398.324 35.6768C398.859 35.6768 399.315 35.8553 399.69 36.2124C400.072 36.5632 400.262 36.991 400.262 37.4957C400.262 37.9943 400.072 38.4221 399.69 38.7791C399.315 39.13 398.859 39.3054 398.324 39.3054Z" fill="white"/>
<path d="M65.1996 19.532L62.5605 18L68.6876 20.576L71.3266 22.111L65.1996 19.532Z" fill="#98D343"/>
<path d="M38.4044 46.6213L35.7644 45.0873L35.7324 33.4883L38.3714 35.0233L38.4044 46.6213Z" fill="#705E2C"/>
<path d="M38.3714 35.023L35.7324 33.488L62.5614 18L65.2004 19.532L38.3714 35.023Z" fill="#8DC63F"/>
<path d="M65.2001 19.5312L71.3271 22.1103L65.2341 31.1302L38.4041 46.6202L38.3711 35.0222L65.2001 19.5312Z" fill="#518524"/>
<path d="M8.24905 21.1932L10.8881 19.6582L4.76105 22.2372L2.12305 23.7712L8.24905 21.1932Z" fill="#98D343"/>
<path d="M35.0469 48.2804L37.6849 46.7464L37.7179 35.1484L35.0799 36.6824L35.0469 48.2804Z" fill="#705E2C"/>
<path d="M35.08 36.6832L37.718 35.1492L10.889 19.6582L8.25 21.1932L35.08 36.6832Z" fill="#8DC63F"/>
<path d="M8.24905 21.1934L2.12305 23.7713L8.21506 32.7914L35.0461 48.2813L35.079 36.6833L8.24905 21.1934Z" fill="#217F1C"/>
<path d="M30.3105 131.741C30.3105 131.741 30.3106 131.813 30.3456 131.888C30.3456 131.888 30.3456 131.965 30.3456 132.035C30.3876 132.113 30.4196 132.185 30.4606 132.223C30.4606 132.261 30.4606 132.336 30.4966 132.371C30.5356 132.407 30.5356 132.521 30.6066 132.556C30.6066 132.594 30.6456 132.671 30.6456 132.707C30.7196 132.743 30.7576 132.857 30.7576 132.928C30.8296 132.968 30.9036 133.005 30.9036 133.041C30.9436 133.075 31.0926 133.231 31.1666 133.302C31.2006 133.335 31.2376 133.335 31.2786 133.448C31.3156 133.488 31.3886 133.524 31.4636 133.598C31.5336 133.671 31.5706 133.671 31.6096 133.747C31.7226 133.747 31.7606 133.817 31.8726 133.895C31.9056 133.935 32.0196 133.935 32.0556 133.971C32.2406 134.117 32.4666 134.229 32.6526 134.303C32.7276 134.343 32.7636 134.374 32.7966 134.374C32.9486 134.454 33.1386 134.528 33.3216 134.563C33.3536 134.599 33.4326 134.599 33.5096 134.635C33.5816 134.635 33.6946 134.717 33.7666 134.717C33.8416 134.746 33.9546 134.746 34.0276 134.79C34.1746 134.79 34.2506 134.79 34.3606 134.862C34.4386 134.862 34.5086 134.862 34.5856 134.934C34.8426 134.934 35.0676 135.012 35.2916 135.012C35.3586 135.012 35.4766 135.012 35.5496 135.012C35.6656 135.012 35.8096 135.012 35.8876 135.046C36.0366 135.046 36.1076 135.046 36.1826 135.046C36.2936 135.046 36.3706 135.046 36.5156 135.046C36.6306 135.046 36.7425 135.046 36.8495 135.046C36.8905 135.012 37.0025 135.012 37.1125 135.012C37.1865 135.012 37.2976 135.012 37.4456 135.012C37.4866 135.012 37.5965 135.012 37.6725 135.012C37.7795 134.934 37.8556 134.934 37.9676 134.934C38.1156 134.934 38.1916 134.934 38.3016 134.862C38.3766 134.862 38.4876 134.862 38.5256 134.79C38.6716 134.79 38.7856 134.746 38.9726 134.746C39.0096 134.717 39.0836 134.717 39.1576 134.717C39.3816 134.599 39.6016 134.563 39.7886 134.454C39.9006 134.414 40.0136 134.374 40.1276 134.343C40.1606 134.303 40.1966 134.265 40.2746 134.265C40.4216 134.117 40.5686 134.117 40.7166 133.971C41.9076 133.301 42.5016 132.37 42.5016 131.479V133.447C42.5016 134.375 41.9436 135.307 40.7166 135.977C40.5686 136.049 40.4216 136.125 40.2746 136.233C40.1966 136.271 40.1605 136.271 40.0865 136.311C40.0125 136.385 39.9006 136.385 39.8616 136.421C39.8236 136.421 39.8235 136.421 39.8235 136.421C39.6005 136.496 39.3806 136.564 39.1566 136.643C39.1196 136.643 39.1196 136.643 39.1196 136.643C39.0416 136.717 39.0096 136.717 38.9726 136.717C38.7846 136.717 38.6716 136.793 38.5626 136.793C38.5256 136.793 38.4875 136.793 38.4525 136.793C38.4525 136.793 38.3776 136.868 38.3026 136.868C38.1926 136.868 38.1166 136.904 37.9686 136.904C37.9316 136.904 37.8926 136.938 37.8566 136.938C37.8196 136.938 37.7486 136.938 37.7486 136.938C37.5996 136.938 37.4886 136.938 37.4476 137.014C37.2996 137.014 37.2996 137.014 37.2626 137.014H37.1516C37.0046 137.014 36.8926 137.014 36.8516 137.014C36.7436 137.014 36.7046 137.014 36.6656 137.014C36.5946 137.014 36.5586 137.014 36.5586 137.014C36.3726 137.014 36.2956 137.014 36.1846 137.014C36.1446 137.014 36.0756 137.014 36.0756 137.014C36.0016 137.014 35.9626 137.014 35.8896 137.014C35.8116 137.014 35.6285 137.014 35.4785 137.014C35.4435 137.014 35.4036 137.014 35.3326 137.014L35.2935 136.938C35.0695 136.938 34.8446 136.938 34.5876 136.868C34.4736 136.868 34.4415 136.868 34.3625 136.793C34.2525 136.793 34.1766 136.793 34.0296 136.793C33.9576 136.717 33.8436 136.717 33.7686 136.717C33.6976 136.643 33.5836 136.643 33.5116 136.565C33.4736 136.565 33.4355 136.565 33.4355 136.565C33.3565 136.565 33.3566 136.565 33.3246 136.565C33.1736 136.497 32.9516 136.422 32.7996 136.385C32.7666 136.349 32.7305 136.311 32.6555 136.311C32.4695 136.195 32.2826 136.125 32.0986 135.977C32.0586 135.977 32.0236 135.977 32.0236 135.977C31.9466 135.899 31.9096 135.899 31.8766 135.827C31.7996 135.789 31.7276 135.756 31.6136 135.678C31.5746 135.642 31.5376 135.606 31.4676 135.53C31.3936 135.494 31.3196 135.452 31.2826 135.385C31.2826 135.385 31.2415 135.385 31.2415 135.343C31.2415 135.343 31.2046 135.309 31.1706 135.309C31.0976 135.197 31.0196 135.086 30.9476 135.015C30.9076 135.015 30.9076 135.015 30.8716 134.937C30.8346 134.937 30.8346 134.937 30.8346 134.865C30.7626 134.793 30.7626 134.749 30.6846 134.719C30.6506 134.637 30.6506 134.637 30.6506 134.601C30.6116 134.565 30.6116 134.565 30.6116 134.565C30.5406 134.457 30.5406 134.417 30.5016 134.376C30.5016 134.305 30.4655 134.267 30.4655 134.267C30.4655 134.231 30.4655 134.231 30.4655 134.195C30.4245 134.119 30.3925 134.119 30.3925 133.973C30.3505 133.937 30.3506 133.937 30.3506 133.897C30.3506 133.787 30.3156 133.749 30.3156 133.672C30.3156 133.637 30.3156 133.599 30.3156 133.525C30.3156 133.489 30.3156 133.489 30.3156 133.489V131.521C30.3106 131.594 30.3105 131.594 30.3105 131.741Z" fill="#2B2B2B"/>
<path d="M32.1313 128.993C29.7163 130.365 29.7163 132.593 32.0563 133.971C34.4393 135.45 38.3003 135.45 40.7153 133.971C43.0943 132.593 43.1343 130.364 40.7523 128.993C38.3763 127.542 34.4713 127.542 32.1313 128.993Z" fill="#979797"/>
<path d="M31.7246 99.4799C31.7246 99.5579 31.7246 99.5959 31.7246 99.6339C31.7246 99.7049 31.7246 99.7049 31.7246 99.7809C31.7246 99.7809 31.7626 99.8509 31.7626 99.8909C31.7966 99.9269 31.7966 99.9269 31.8366 100.005C31.8736 100.076 31.8736 100.076 31.8736 100.153C31.9066 100.189 31.9066 100.223 31.9436 100.299C32.0206 100.339 32.0206 100.372 32.0556 100.445C32.0956 100.445 32.1306 100.525 32.1306 100.525C32.1676 100.599 32.2786 100.67 32.3146 100.749C32.3556 100.749 32.4266 100.749 32.4266 100.815C32.4666 100.859 32.5006 100.893 32.6116 100.969C32.6116 100.969 32.6526 101.005 32.7276 101.045C32.7636 101.12 32.7966 101.149 32.8746 101.191C32.9126 101.191 32.9486 101.265 33.0206 101.307C33.2436 101.417 33.4706 101.487 33.6946 101.597C33.7276 101.641 33.8416 101.641 33.8416 101.641C34.0996 101.749 34.3236 101.785 34.5496 101.899C34.5846 101.899 34.5846 101.899 34.6546 101.899C34.8806 101.933 35.1026 101.933 35.3296 102.045C35.3996 102.045 35.4756 102.045 35.4756 102.045C35.7726 102.045 36.0366 102.078 36.2926 102.078H36.3686C36.6626 102.078 36.8886 102.045 37.1846 102.045C37.2586 102.045 37.2586 102.045 37.2956 102.045C37.5586 101.933 37.8156 101.933 37.9996 101.899C38.1126 101.899 38.1496 101.861 38.1886 101.861C38.4496 101.785 38.5946 101.75 38.8566 101.641C38.8566 101.641 38.8946 101.641 38.9696 101.641C39.1936 101.487 39.4496 101.417 39.6766 101.307C40.5656 100.748 41.0126 100.005 41.0126 99.2949L41.1626 130.918C41.1626 131.594 40.6766 132.37 39.7496 132.857C39.5646 133.004 39.3036 133.075 39.0806 133.191C39.0806 133.231 39.0386 133.231 39.0386 133.231C39.0066 133.231 38.9696 133.231 38.8936 133.231C38.7816 133.301 38.6676 133.335 38.5216 133.375C38.4486 133.447 38.3736 133.447 38.2616 133.447C38.1876 133.447 38.1876 133.487 38.1496 133.487C38.1126 133.487 38.0406 133.487 37.9996 133.487C37.8526 133.523 37.7436 133.597 37.5586 133.597C37.4846 133.635 37.4436 133.635 37.4436 133.635C37.2956 133.67 37.2956 133.67 37.2586 133.67C37.1846 133.67 37.1476 133.67 37.1106 133.67C36.9626 133.67 36.8476 133.67 36.6626 133.67C36.5916 133.67 36.5556 133.67 36.4746 133.67C36.4446 133.67 36.3686 133.67 36.3686 133.67C36.2926 133.67 36.1806 133.67 36.1406 133.67C35.9966 133.67 35.8476 133.67 35.6246 133.67C35.5866 133.67 35.5866 133.67 35.5866 133.67C35.5476 133.67 35.4746 133.635 35.4396 133.635C35.2896 133.597 35.1416 133.597 35.0276 133.523C34.9196 133.523 34.8406 133.487 34.7336 133.487C34.7336 133.487 34.6956 133.487 34.6546 133.487C34.4696 133.447 34.3236 133.335 34.1746 133.301C34.0996 133.301 34.0276 133.231 33.9886 133.231C33.8806 133.231 33.8416 133.231 33.7656 133.191C33.5406 133.075 33.3536 133.005 33.1376 132.857C33.0976 132.857 33.0976 132.857 33.0976 132.857C33.0206 132.815 33.0206 132.783 32.9486 132.743C32.8746 132.707 32.8366 132.707 32.7626 132.634C32.7266 132.594 32.7266 132.556 32.6516 132.556C32.6106 132.522 32.6106 132.482 32.5006 132.407H32.4666C32.4666 132.371 32.4666 132.371 32.4266 132.371C32.3556 132.262 32.2796 132.223 32.2406 132.113C32.1676 132.113 32.1676 132.113 32.1676 132.113V132.035C32.1306 131.965 32.0956 131.93 32.0206 131.888C32.0206 131.888 32.0206 131.814 32.0206 131.778C32.0206 131.778 31.9836 131.778 31.9836 131.742C31.9436 131.742 31.9066 131.664 31.9066 131.595L31.8736 131.52C31.8736 131.52 31.8736 131.52 31.8736 131.48C31.8736 131.44 31.8736 131.44 31.8366 131.37C31.8366 131.294 31.7966 131.294 31.7966 131.294C31.7966 131.256 31.7966 131.221 31.7966 131.221C31.7966 131.185 31.7966 131.147 31.7966 131.073C31.7626 131.073 31.7626 130.999 31.7626 130.999V130.961L31.7246 99.3369C31.7246 99.4089 31.7246 99.4459 31.7246 99.4799Z" fill="#3B3B3B"/>
<path d="M33.0609 97.406C31.2389 98.442 31.2389 100.188 33.0219 101.306C34.8809 102.306 37.8539 102.306 39.6779 101.306C41.5329 100.188 41.5329 98.442 39.7129 97.406C37.8539 96.323 34.8809 96.323 33.0609 97.406Z" fill="#979797"/>
<path d="M38.1907 101.861C38.4517 101.785 38.5967 101.75 38.8587 101.641C38.8587 101.641 38.8967 101.641 38.9717 101.641C39.1957 101.487 39.4517 101.417 39.6787 101.307C40.5677 100.748 41.0147 100.005 41.0147 99.2949L41.1647 130.918C41.1647 131.594 40.6787 132.37 39.7517 132.857C39.5667 133.004 39.3057 133.075 39.0827 133.191C39.0827 133.231 39.0407 133.231 39.0407 133.231C39.0087 133.231 38.9717 133.231 38.8957 133.231C38.7837 133.301 38.6697 133.335 38.5237 133.375C38.4507 133.447 38.3757 133.447 38.2637 133.447C38.1897 133.447 38.1897 133.487 38.1517 133.487C38.1147 133.487 38.0427 133.487 38.0017 133.487C38.0017 133.523 37.9667 133.523 37.9297 133.523V101.933C37.9667 101.899 38.0017 101.899 38.0017 101.899C38.1157 101.899 38.1527 101.861 38.1907 101.861Z" fill="#2B2B2B"/>
<path d="M34.1747 28.1303C34.1747 28.2373 34.2147 28.2763 34.2497 28.3163C34.2497 28.3943 34.2497 28.3943 34.2497 28.4263C34.3237 28.4643 34.4387 28.5373 34.4387 28.5753C34.4707 28.6453 34.5497 28.6453 34.5847 28.7233C34.6547 28.7233 34.6957 28.7573 34.7337 28.7573C34.8807 28.8683 35.0277 28.9463 35.1417 29.0233C35.2137 29.0233 35.2897 29.0233 35.2897 29.0233C35.3987 29.0233 35.4747 29.0593 35.5867 29.0973C35.5867 29.0973 35.7347 29.0973 35.8077 29.0973C35.8477 29.0973 35.8477 29.0973 35.8857 29.1693C35.9967 29.1693 36.1057 29.1693 36.1807 29.1693C36.2567 29.1693 36.2567 29.1693 36.2917 29.1693C36.3677 29.1693 36.5137 29.1693 36.6617 29.1693L36.7007 29.0973C36.8477 29.0973 36.9237 29.0973 37.0007 29.0593C37.0727 29.0593 37.0727 29.0593 37.1097 29.0233C37.1837 29.0233 37.2947 29.0233 37.4427 28.9473C37.5577 28.9093 37.6697 28.8693 37.7767 28.7583C38.1877 28.5373 38.4487 28.2373 38.4487 27.9043L38.5947 99.0003C38.5947 99.2953 38.4487 99.6333 37.9647 99.8913C37.8527 99.9273 37.7767 100.005 37.6697 100.077C37.6697 100.077 37.6697 100.077 37.5947 100.077C37.5587 100.077 37.4847 100.077 37.4437 100.113C37.3717 100.113 37.2957 100.153 37.2957 100.153C37.2587 100.153 37.2587 100.153 37.2587 100.189H37.1847C37.1107 100.189 37.0007 100.223 36.9617 100.223H36.8887C36.8887 100.223 36.8887 100.223 36.8477 100.223C36.8477 100.223 36.8477 100.223 36.7397 100.223C36.7007 100.223 36.6287 100.265 36.5547 100.265C36.5137 100.265 36.4747 100.265 36.4747 100.265C36.4747 100.265 36.4447 100.265 36.3687 100.265C36.3687 100.265 36.3687 100.265 36.3297 100.265C36.2577 100.265 36.1417 100.223 36.0717 100.223H36.0357C35.9587 100.223 35.8867 100.223 35.8477 100.189C35.8077 100.189 35.7717 100.189 35.7717 100.189C35.6647 100.153 35.5867 100.153 35.5127 100.113C35.4747 100.077 35.4397 100.077 35.3997 100.077C35.3997 100.077 35.3577 100.077 35.3297 100.077C35.2147 100.006 35.0667 99.9283 34.9197 99.8913C34.9197 99.8513 34.8807 99.8513 34.8807 99.8513L34.8417 99.7813C34.7347 99.7813 34.6957 99.7053 34.6557 99.7053C34.5857 99.6343 34.5507 99.5963 34.4707 99.5583C34.4707 99.4803 34.4707 99.4803 34.4707 99.4803V99.4463C34.4387 99.4463 34.4387 99.4103 34.4387 99.4103C34.4387 99.3363 34.3607 99.2973 34.3607 99.2633L34.3247 99.1873C34.3247 99.1113 34.3247 99.0413 34.3247 99.0023L34.1367 27.9443V27.9063C34.1367 27.9823 34.1367 28.0903 34.1747 28.1303Z" fill="#3B3B3B"/>
<path d="M34.7355 27.0158C33.8825 27.4937 33.8825 28.3177 34.7355 28.7597C35.5895 29.2427 36.9255 29.2427 37.7795 28.7597C38.5965 28.3177 38.5965 27.4928 37.7795 27.0158C36.9635 26.4947 35.5885 26.4947 34.7355 27.0158Z" fill="#434351"/>
<path d="M36.6637 29.1713L36.7026 29.0992C36.8496 29.0992 36.9257 29.0992 37.0027 29.0612C37.0747 29.0612 37.0747 29.0612 37.1117 29.0252C37.1857 29.0252 37.2966 29.0252 37.4446 28.9492C37.5596 28.9112 37.6717 28.8713 37.7787 28.7603C38.1897 28.5393 38.4507 28.2393 38.4507 27.9062L38.5966 99.0023C38.5966 99.2973 38.4506 99.6352 37.9666 99.8932C37.8546 99.9293 37.7787 100.007 37.6717 100.079C37.6717 100.079 37.6716 100.079 37.5966 100.079C37.5606 100.079 37.4866 100.079 37.4456 100.115C37.3736 100.115 37.2976 100.155 37.2976 100.155C37.2606 100.155 37.2607 100.155 37.2607 100.191H37.1866C37.1126 100.191 37.0027 100.225 36.9637 100.225H36.8907C36.8907 100.225 36.8906 100.225 36.8496 100.225C36.8496 100.225 36.8496 100.225 36.7416 100.225C36.7026 100.225 36.6306 100.267 36.5566 100.267V29.1732C36.5916 29.1712 36.5917 29.1713 36.6637 29.1713Z" fill="#2B2B2B"/>
<path d="M33.1402 25.7479C33.1402 25.7879 33.1402 25.8319 33.1402 25.8979C33.1402 25.8979 33.1722 25.8979 33.1722 25.9759V26.0469C33.2092 26.0849 33.2092 26.1209 33.2092 26.1209C33.2092 26.1209 33.2452 26.1909 33.2452 26.2309C33.2842 26.2689 33.3232 26.2689 33.3232 26.3449C33.3232 26.3449 33.3552 26.3449 33.3552 26.3809C33.3552 26.3809 33.3962 26.4179 33.4342 26.4179C33.4722 26.4919 33.5102 26.5629 33.5422 26.6029C33.5822 26.6029 33.5822 26.6029 33.6192 26.6409C33.6542 26.7189 33.6542 26.7189 33.6952 26.7189C33.7282 26.7499 33.7282 26.7499 33.7662 26.7879C33.8412 26.8279 33.8412 26.8659 33.8802 26.9039C33.9542 26.9039 33.9882 26.9039 34.0272 26.9339C34.1742 27.0499 34.3242 27.0879 34.4702 27.1599C34.5082 27.1999 34.5492 27.1999 34.5842 27.1999C34.6952 27.2379 34.7702 27.3099 34.8802 27.3099C34.9972 27.3459 35.1032 27.3839 35.2142 27.3839C35.2902 27.4589 35.4752 27.4589 35.5872 27.4589C35.5872 27.4589 35.6252 27.4589 35.6642 27.4889C35.8482 27.4889 36.0712 27.4889 36.1812 27.4889C36.1812 27.4889 36.2572 27.4889 36.2922 27.4889C36.4752 27.4889 36.6622 27.4889 36.8482 27.4889C36.8482 27.4589 36.8892 27.4589 36.8892 27.4589C37.0742 27.4589 37.2592 27.4589 37.4442 27.3839C37.4442 27.3839 37.4442 27.3839 37.4852 27.3839C37.6712 27.3099 37.7782 27.3099 37.9282 27.1989C37.9652 27.1989 37.9652 27.1989 37.9652 27.1989C38.1512 27.0879 38.2992 27.0499 38.4852 26.9329C39.0822 26.5609 39.4152 26.1189 39.4152 25.6699V27.6059C39.4152 28.0859 39.1182 28.5719 38.4852 28.9439C38.3752 29.0199 38.1892 29.0939 38.0012 29.1669C37.9662 29.2019 37.9662 29.2019 37.9292 29.2019C37.8542 29.2019 37.7452 29.2379 37.6712 29.2379C37.5962 29.3119 37.5602 29.3119 37.4852 29.3539H37.4442C37.3722 29.3539 37.2962 29.3539 37.2962 29.3539C37.2592 29.3879 37.1112 29.3879 37.0012 29.3879C36.9622 29.3879 36.9242 29.3879 36.8892 29.3879H36.8482C36.7792 29.3879 36.7402 29.3879 36.7012 29.4639C36.5912 29.4639 36.4742 29.4639 36.3682 29.4639C36.3682 29.4639 36.3292 29.4639 36.2922 29.4639H36.1812C36.1412 29.4639 36.1062 29.4639 36.0722 29.4639C35.9592 29.4639 35.8482 29.4639 35.7362 29.3879C35.7362 29.3879 35.7362 29.3879 35.7012 29.3879C35.6652 29.3879 35.5882 29.3879 35.5882 29.3879C35.4762 29.3879 35.4002 29.3879 35.2912 29.3879C35.2912 29.3879 35.2152 29.3879 35.2152 29.3539C35.1042 29.3539 34.9982 29.3119 34.8812 29.2379C34.8422 29.2379 34.7722 29.2379 34.7342 29.2379C34.6962 29.2019 34.6552 29.2019 34.5852 29.2019C34.5502 29.2019 34.5092 29.1669 34.4712 29.1669C34.3252 29.0949 34.1752 29.0209 34.0282 28.9439V28.9059L33.9562 28.8659C33.8432 28.7949 33.8432 28.7949 33.7682 28.7549C33.7302 28.7549 33.7302 28.7209 33.6972 28.7209C33.6972 28.6429 33.6562 28.6429 33.6212 28.6429C33.6212 28.6429 33.5842 28.6429 33.5842 28.6069V28.5729C33.5122 28.5349 33.4742 28.4619 33.4362 28.4239H33.3982C33.3982 28.3919 33.3572 28.3919 33.3572 28.3919C33.3572 28.3139 33.3252 28.2739 33.3252 28.2739C33.3252 28.2359 33.3252 28.2359 33.2862 28.2019L33.2472 28.1679C33.2472 28.1679 33.2472 28.0889 33.2112 28.0889V28.0529L33.1742 27.9809C33.1742 27.9809 33.1742 27.9809 33.1742 27.9029C33.1422 27.8329 33.1422 27.8329 33.1422 27.8329C33.1422 27.8329 33.1422 27.7599 33.1422 27.6819C33.1422 27.6819 33.1422 27.6819 33.1422 27.6479C33.1022 27.6479 33.1022 27.6479 33.1022 27.6479V25.6729C33.1002 25.6739 33.1002 25.7479 33.1402 25.7479Z" fill="#2B2B2B"/>
<path d="M34.0287 24.3441C32.7977 25.0481 32.7977 26.2711 34.0287 26.9371C35.2927 27.6831 37.2607 27.6831 38.4867 26.9371C39.7147 26.2711 39.7147 25.0481 38.4867 24.3441C37.2607 23.6301 35.2917 23.6301 34.0287 24.3441Z" fill="#3B3B3B"/>
<path d="M8.73383 52.1753L6.0918 50.6433L32.9218 35.1523L35.5598 36.6863L8.73383 52.1753Z" fill="#8DC63F"/>
<path d="M2.638 61.8096L0 60.2776L6.09198 50.6426L8.73401 52.1746L2.638 61.8096Z" fill="#98D343"/>
<path d="M35.5607 36.6855L35.5937 48.2856L8.76566 63.7776L2.63867 61.8095L8.73468 52.1745L35.5607 36.6855Z" fill="#518524"/>
<path d="M62.409 52.316L65.05 50.781L38.221 35.291L35.584 36.825L62.409 52.316Z" fill="#8DC63F"/>
<path d="M68.5032 61.9503L71.1422 60.4163L65.0492 50.7812L62.4082 52.3163L68.5032 61.9503Z" fill="#98D343"/>
<path d="M35.5838 36.8242L35.5488 48.4272L62.3778 63.9152L68.5038 61.9492L62.4088 52.3152L35.5838 36.8242Z" fill="#217F1C"/>
<defs>
<clipPath id="clip0_176_68930">
<rect width="24" height="24" fill="white" transform="translate(158 34)"/>
</clipPath>
</defs>
</svg>
