<svg width="512" height="155" viewBox="0 0 555 168" fill="none" xmlns="http://www.w3.org/2000/svg">
<rect x="189.205" width="365.795" height="110" rx="18" fill="#006DB7"/>
<path d="M133.205 122L244.705 86.026L212.705 62L133.205 122Z" fill="#006DB7"/>
<rect x="201.205" y="24" width="44" height="44" rx="22" fill="#F15B5B"/>
<g clip-path="url(#clip0_210_8444)">
<path d="M230.205 39H227.205V38C227.205 37.2044 226.889 36.4413 226.326 35.8787C225.764 35.3161 225.001 35 224.205 35H222.205C221.409 35 220.646 35.3161 220.084 35.8787C219.521 36.4413 219.205 37.2044 219.205 38V39H216.205C214.879 39.0016 213.609 39.5289 212.671 40.4662C211.734 41.4036 211.207 42.6744 211.205 44V52C211.207 53.3256 211.734 54.5964 212.671 55.5338C213.609 56.4711 214.879 56.9984 216.205 57H230.205C231.531 56.9984 232.802 56.4711 233.739 55.5338C234.676 54.5964 235.203 53.3256 235.205 52V44C235.203 42.6744 234.676 41.4036 233.739 40.4662C232.802 39.5289 231.531 39.0016 230.205 39ZM221.205 38C221.205 37.7348 221.31 37.4804 221.498 37.2929C221.686 37.1054 221.94 37 222.205 37H224.205C224.47 37 224.725 37.1054 224.912 37.2929C225.1 37.4804 225.205 37.7348 225.205 38V39H221.205V38ZM233.205 52C233.205 52.7956 232.889 53.5587 232.326 54.1213C231.764 54.6839 231.001 55 230.205 55H216.205C215.409 55 214.646 54.6839 214.084 54.1213C213.521 53.5587 213.205 52.7956 213.205 52V44C213.205 43.2044 213.521 42.4413 214.084 41.8787C214.646 41.3161 215.409 41 216.205 41H230.205C231.001 41 231.764 41.3161 232.326 41.8787C232.889 42.4413 233.205 43.2044 233.205 44V52ZM227.205 48C227.205 48.2652 227.1 48.5196 226.912 48.7071C226.725 48.8946 226.47 49 226.205 49H224.205V51C224.205 51.2652 224.1 51.5196 223.912 51.7071C223.725 51.8946 223.47 52 223.205 52C222.94 52 222.686 51.8946 222.498 51.7071C222.31 51.5196 222.205 51.2652 222.205 51V49H220.205C219.94 49 219.686 48.8946 219.498 48.7071C219.31 48.5196 219.205 48.2652 219.205 48C219.205 47.7348 219.31 47.4804 219.498 47.2929C219.686 47.1054 219.94 47 220.205 47H222.205V45C222.205 44.7348 222.31 44.4804 222.498 44.2929C222.686 44.1054 222.94 44 223.205 44C223.47 44 223.725 44.1054 223.912 44.2929C224.1 44.4804 224.205 44.7348 224.205 45V47H226.205C226.47 47 226.725 47.1054 226.912 47.2929C227.1 47.4804 227.205 47.7348 227.205 48Z" fill="white"/>
</g>
<path d="M263.07 49V30.0909H266.496V38.0959H275.258V30.0909H278.692V49H275.258V40.9673H266.496V49H263.07ZM288.456 49.277C287.071 49.277 285.871 48.9723 284.855 48.3629C283.84 47.7536 283.052 46.901 282.492 45.8054C281.938 44.7098 281.661 43.4295 281.661 41.9645C281.661 40.4995 281.938 39.2161 282.492 38.1143C283.052 37.0125 283.84 36.157 284.855 35.5476C285.871 34.9382 287.071 34.6335 288.456 34.6335C289.841 34.6335 291.041 34.9382 292.057 35.5476C293.073 36.157 293.857 37.0125 294.411 38.1143C294.972 39.2161 295.252 40.4995 295.252 41.9645C295.252 43.4295 294.972 44.7098 294.411 45.8054C293.857 46.901 293.073 47.7536 292.057 48.3629C291.041 48.9723 289.841 49.277 288.456 49.277ZM288.475 46.5994C289.226 46.5994 289.853 46.3932 290.358 45.9808C290.863 45.5623 291.238 45.0021 291.485 44.3004C291.737 43.5987 291.863 42.817 291.863 41.9553C291.863 41.0874 291.737 40.3026 291.485 39.6009C291.238 38.893 290.863 38.3298 290.358 37.9112C289.853 37.4927 289.226 37.2834 288.475 37.2834C287.705 37.2834 287.065 37.4927 286.554 37.9112C286.049 38.3298 285.671 38.893 285.419 39.6009C285.172 40.3026 285.049 41.0874 285.049 41.9553C285.049 42.817 285.172 43.5987 285.419 44.3004C285.671 45.0021 286.049 45.5623 286.554 45.9808C287.065 46.3932 287.705 46.5994 288.475 46.5994ZM309.297 38.5668L306.25 38.8991C306.164 38.5914 306.013 38.3021 305.798 38.0312C305.589 37.7604 305.306 37.5419 304.949 37.3757C304.592 37.2095 304.154 37.1264 303.637 37.1264C302.942 37.1264 302.357 37.2772 301.883 37.5788C301.415 37.8804 301.185 38.2713 301.191 38.7514C301.185 39.1638 301.335 39.4993 301.643 39.7578C301.957 40.0163 302.474 40.2287 303.194 40.3949L305.613 40.9119C306.955 41.2012 307.952 41.6598 308.605 42.2876C309.263 42.9155 309.596 43.7372 309.602 44.7528C309.596 45.6454 309.334 46.4332 308.817 47.1165C308.306 47.7936 307.595 48.3229 306.684 48.7045C305.773 49.0862 304.727 49.277 303.545 49.277C301.809 49.277 300.412 48.9138 299.353 48.1875C298.295 47.455 297.664 46.4363 297.461 45.1314L300.72 44.8175C300.868 45.4576 301.181 45.9408 301.662 46.267C302.142 46.5933 302.766 46.7564 303.536 46.7564C304.33 46.7564 304.967 46.5933 305.447 46.267C305.933 45.9408 306.176 45.5376 306.176 45.0575C306.176 44.6513 306.02 44.3158 305.706 44.0511C305.398 43.7865 304.918 43.5833 304.265 43.4418L301.846 42.9339C300.486 42.6508 299.48 42.1738 298.827 41.5028C298.175 40.8258 297.851 39.9702 297.858 38.9361C297.851 38.062 298.088 37.3049 298.569 36.6648C299.055 36.0185 299.729 35.5199 300.591 35.169C301.458 34.812 302.459 34.6335 303.591 34.6335C305.253 34.6335 306.561 34.9875 307.515 35.6953C308.475 36.4032 309.069 37.3603 309.297 38.5668ZM312.358 54.3182V34.8182H315.645V37.1634H315.839C316.011 36.8187 316.254 36.4524 316.568 36.0646C316.882 35.6707 317.307 35.3352 317.842 35.0582C318.378 34.7751 319.061 34.6335 319.892 34.6335C320.988 34.6335 321.976 34.9136 322.856 35.4737C323.742 36.0277 324.444 36.8494 324.961 37.9389C325.484 39.0223 325.746 40.3518 325.746 41.9276C325.746 43.4848 325.49 44.8082 324.979 45.8977C324.469 46.9872 323.773 47.8182 322.893 48.3906C322.013 48.9631 321.015 49.2493 319.901 49.2493C319.089 49.2493 318.415 49.1139 317.879 48.843C317.344 48.5722 316.913 48.246 316.587 47.8643C316.267 47.4766 316.017 47.1103 315.839 46.7656H315.7V54.3182H312.358ZM315.636 41.9091C315.636 42.8262 315.765 43.6295 316.023 44.3189C316.288 45.0083 316.667 45.5469 317.159 45.9347C317.658 46.3163 318.261 46.5071 318.969 46.5071C319.707 46.5071 320.326 46.3101 320.825 45.9162C321.323 45.5161 321.699 44.9714 321.951 44.282C322.21 43.5864 322.339 42.7955 322.339 41.9091C322.339 41.0289 322.213 40.2472 321.96 39.5639C321.708 38.8807 321.332 38.3452 320.834 37.9574C320.335 37.5696 319.714 37.3757 318.969 37.3757C318.255 37.3757 317.648 37.5634 317.15 37.9389C316.651 38.3144 316.273 38.8407 316.014 39.5178C315.762 40.1948 315.636 40.992 315.636 41.9091ZM328.608 49V34.8182H331.95V49H328.608ZM330.288 32.8054C329.759 32.8054 329.304 32.63 328.922 32.2791C328.54 31.9221 328.349 31.4943 328.349 30.9957C328.349 30.491 328.54 30.0632 328.922 29.7124C329.304 29.3553 329.759 29.1768 330.288 29.1768C330.824 29.1768 331.279 29.3553 331.655 29.7124C332.036 30.0632 332.227 30.491 332.227 30.9957C332.227 31.4943 332.036 31.9221 331.655 32.2791C331.279 32.63 330.824 32.8054 330.288 32.8054ZM342.469 34.8182V37.4034H334.316V34.8182H342.469ZM336.329 31.4205H339.671V44.7344C339.671 45.1837 339.739 45.5284 339.874 45.7685C340.016 46.0024 340.201 46.1624 340.428 46.2486C340.656 46.3348 340.909 46.3778 341.186 46.3778C341.395 46.3778 341.586 46.3625 341.758 46.3317C341.936 46.3009 342.072 46.2732 342.164 46.2486L342.727 48.8615C342.549 48.9231 342.294 48.9908 341.961 49.0646C341.635 49.1385 341.235 49.1816 340.761 49.1939C339.924 49.2185 339.17 49.0923 338.499 48.8153C337.828 48.5322 337.295 48.0952 336.901 47.5043C336.514 46.9134 336.323 46.1747 336.329 45.2884V31.4205ZM349.345 49.2862C348.446 49.2862 347.637 49.1262 346.917 48.8061C346.203 48.4799 345.637 47.9998 345.218 47.3658C344.806 46.7318 344.599 45.95 344.599 45.0206C344.599 44.2204 344.747 43.5587 345.043 43.0355C345.338 42.5123 345.741 42.0938 346.252 41.7798C346.763 41.4659 347.339 41.2289 347.979 41.0689C348.625 40.9027 349.293 40.7827 349.982 40.7088C350.813 40.6226 351.487 40.5457 352.004 40.478C352.521 40.4041 352.897 40.2933 353.131 40.1456C353.371 39.9917 353.491 39.7547 353.491 39.4347V39.3793C353.491 38.6837 353.285 38.1451 352.872 37.7635C352.46 37.3819 351.866 37.1911 351.09 37.1911C350.272 37.1911 349.622 37.3696 349.142 37.7266C348.668 38.0836 348.348 38.5052 348.182 38.9915L345.061 38.5483C345.307 37.6866 345.714 36.9664 346.28 36.3878C346.846 35.803 347.539 35.366 348.357 35.0767C349.176 34.7812 350.081 34.6335 351.072 34.6335C351.755 34.6335 352.435 34.7135 353.112 34.8736C353.789 35.0336 354.408 35.2983 354.968 35.6676C355.528 36.0308 355.978 36.5263 356.316 37.1541C356.661 37.782 356.833 38.5668 356.833 39.5085V49H353.62V47.0518H353.509C353.306 47.4458 353.02 47.8151 352.651 48.1598C352.287 48.4983 351.829 48.7723 351.275 48.9815C350.727 49.1847 350.084 49.2862 349.345 49.2862ZM350.213 46.8303C350.884 46.8303 351.466 46.6979 351.958 46.4332C352.451 46.1624 352.829 45.8054 353.094 45.3622C353.365 44.919 353.5 44.4358 353.5 43.9126V42.2415C353.395 42.3277 353.217 42.4077 352.964 42.4815C352.718 42.5554 352.441 42.62 352.134 42.6754C351.826 42.7308 351.521 42.7801 351.219 42.8232C350.918 42.8662 350.656 42.9032 350.435 42.9339C349.936 43.0017 349.49 43.1125 349.096 43.2663C348.702 43.4202 348.391 43.6357 348.163 43.9126C347.936 44.1835 347.822 44.5343 347.822 44.9652C347.822 45.5807 348.046 46.0455 348.496 46.3594C348.945 46.6733 349.518 46.8303 350.213 46.8303ZM363.536 30.0909V49H360.194V30.0909H363.536ZM373.57 49V30.0909H376.996V46.1286H385.324V49H373.57ZM397.188 43.0355V34.8182H400.53V49H397.29V46.4794H397.142C396.822 47.2734 396.296 47.9228 395.563 48.4276C394.837 48.9323 393.941 49.1847 392.876 49.1847C391.947 49.1847 391.125 48.9785 390.411 48.5661C389.703 48.1475 389.149 47.5412 388.749 46.7472C388.349 45.947 388.149 44.9806 388.149 43.848V34.8182H391.491V43.331C391.491 44.2296 391.738 44.9437 392.23 45.473C392.722 46.0024 393.369 46.267 394.169 46.267C394.661 46.267 395.138 46.147 395.6 45.907C396.062 45.6669 396.44 45.3099 396.736 44.8359C397.037 44.3558 397.188 43.7557 397.188 43.0355ZM403.967 49V34.8182H407.31V49H403.967ZM405.648 32.8054C405.118 32.8054 404.663 32.63 404.281 32.2791C403.9 31.9221 403.709 31.4943 403.709 30.9957C403.709 30.491 403.9 30.0632 404.281 29.7124C404.663 29.3553 405.118 29.1768 405.648 29.1768C406.183 29.1768 406.639 29.3553 407.014 29.7124C407.396 30.0632 407.587 30.491 407.587 30.9957C407.587 31.4943 407.396 31.9221 407.014 32.2791C406.639 32.63 406.183 32.8054 405.648 32.8054ZM421.955 38.5668L418.909 38.8991C418.822 38.5914 418.672 38.3021 418.456 38.0312C418.247 37.7604 417.964 37.5419 417.607 37.3757C417.25 37.2095 416.813 37.1264 416.296 37.1264C415.6 37.1264 415.015 37.2772 414.541 37.5788C414.074 37.8804 413.843 38.2713 413.849 38.7514C413.843 39.1638 413.994 39.4993 414.301 39.7578C414.615 40.0163 415.132 40.2287 415.852 40.3949L418.271 40.9119C419.613 41.2012 420.61 41.6598 421.263 42.2876C421.922 42.9155 422.254 43.7372 422.26 44.7528C422.254 45.6454 421.992 46.4332 421.475 47.1165C420.964 47.7936 420.253 48.3229 419.343 48.7045C418.432 49.0862 417.385 49.277 416.203 49.277C414.468 49.277 413.07 48.9138 412.012 48.1875C410.953 47.455 410.322 46.4363 410.119 45.1314L413.378 44.8175C413.526 45.4576 413.84 45.9408 414.32 46.267C414.8 46.5933 415.425 46.7564 416.194 46.7564C416.988 46.7564 417.625 46.5933 418.105 46.267C418.592 45.9408 418.835 45.5376 418.835 45.0575C418.835 44.6513 418.678 44.3158 418.364 44.0511C418.056 43.7865 417.576 43.5833 416.923 43.4418L414.504 42.9339C413.144 42.6508 412.138 42.1738 411.485 41.5028C410.833 40.8258 410.51 39.9702 410.516 38.9361C410.51 38.062 410.747 37.3049 411.227 36.6648C411.713 36.0185 412.387 35.5199 413.249 35.169C414.117 34.812 415.117 34.6335 416.249 34.6335C417.911 34.6335 419.219 34.9875 420.173 35.6953C421.134 36.4032 421.728 37.3603 421.955 38.5668ZM431.613 49V30.0909H435.039V38.0959H443.801V30.0909H447.235V49H443.801V40.9673H435.039V49H431.613ZM457.091 49.277C455.67 49.277 454.442 48.9815 453.407 48.3906C452.38 47.7936 451.589 46.9503 451.035 45.8608C450.481 44.7652 450.204 43.4756 450.204 41.9922C450.204 40.5334 450.481 39.2531 451.035 38.1513C451.595 37.0433 452.376 36.1816 453.38 35.5661C454.383 34.9444 455.562 34.6335 456.916 34.6335C457.79 34.6335 458.615 34.7751 459.39 35.0582C460.172 35.3352 460.862 35.7661 461.459 36.3509C462.062 36.9356 462.536 37.6804 462.881 38.5852C463.225 39.4839 463.398 40.5549 463.398 41.7983V42.8232H451.773V40.5703H460.194C460.188 39.9302 460.049 39.3608 459.778 38.8622C459.507 38.3575 459.129 37.9605 458.643 37.6712C458.162 37.3819 457.602 37.2372 456.962 37.2372C456.279 37.2372 455.679 37.4034 455.162 37.7358C454.645 38.062 454.242 38.4929 453.952 39.0284C453.669 39.5578 453.524 40.1394 453.518 40.7734V42.7401C453.518 43.5649 453.669 44.2727 453.971 44.8636C454.272 45.4484 454.694 45.8977 455.236 46.2116C455.777 46.5194 456.411 46.6733 457.138 46.6733C457.624 46.6733 458.064 46.6056 458.458 46.4702C458.852 46.3286 459.193 46.1224 459.483 45.8516C459.772 45.5807 459.991 45.2453 460.138 44.8452L463.259 45.196C463.062 46.0208 462.687 46.741 462.133 47.3565C461.585 47.9659 460.883 48.4399 460.028 48.7784C459.172 49.1108 458.193 49.277 457.091 49.277ZM467.896 54.3182C467.441 54.3182 467.019 54.2813 466.631 54.2074C466.25 54.1397 465.945 54.0597 465.717 53.9673L466.493 51.3636C466.979 51.5052 467.413 51.5729 467.795 51.5668C468.176 51.5606 468.512 51.4406 468.801 51.2067C469.097 50.9789 469.346 50.5973 469.549 50.0618L469.835 49.2955L464.692 34.8182H468.238L471.506 45.5284H471.654L474.932 34.8182H478.487L472.808 50.7173C472.544 51.4683 472.193 52.1115 471.756 52.647C471.319 53.1887 470.783 53.6011 470.149 53.8842C469.521 54.1735 468.77 54.3182 467.896 54.3182ZM492.008 38.5668L488.961 38.8991C488.875 38.5914 488.724 38.3021 488.509 38.0312C488.3 37.7604 488.016 37.5419 487.659 37.3757C487.302 37.2095 486.865 37.1264 486.348 37.1264C485.653 37.1264 485.068 37.2772 484.594 37.5788C484.126 37.8804 483.895 38.2713 483.902 38.7514C483.895 39.1638 484.046 39.4993 484.354 39.7578C484.668 40.0163 485.185 40.2287 485.905 40.3949L488.324 40.9119C489.666 41.2012 490.663 41.6598 491.316 42.2876C491.974 42.9155 492.307 43.7372 492.313 44.7528C492.307 45.6454 492.045 46.4332 491.528 47.1165C491.017 47.7936 490.306 48.3229 489.395 48.7045C488.484 49.0862 487.438 49.277 486.256 49.277C484.52 49.277 483.123 48.9138 482.064 48.1875C481.006 47.455 480.375 46.4363 480.172 45.1314L483.431 44.8175C483.578 45.4576 483.892 45.9408 484.373 46.267C484.853 46.5933 485.477 46.7564 486.247 46.7564C487.041 46.7564 487.678 46.5933 488.158 46.267C488.644 45.9408 488.887 45.5376 488.887 45.0575C488.887 44.6513 488.73 44.3158 488.417 44.0511C488.109 43.7865 487.629 43.5833 486.976 43.4418L484.557 42.9339C483.197 42.6508 482.19 42.1738 481.538 41.5028C480.886 40.8258 480.562 39.9702 480.569 38.9361C480.562 38.062 480.799 37.3049 481.279 36.6648C481.766 36.0185 482.44 35.5199 483.301 35.169C484.169 34.812 485.17 34.6335 486.302 34.6335C487.964 34.6335 489.272 34.9875 490.226 35.6953C491.186 36.4032 491.78 37.3603 492.008 38.5668ZM501.347 49.277C499.925 49.277 498.697 48.9815 497.663 48.3906C496.635 47.7936 495.844 46.9503 495.29 45.8608C494.737 44.7652 494.46 43.4756 494.46 41.9922C494.46 40.5334 494.737 39.2531 495.29 38.1513C495.851 37.0433 496.632 36.1816 497.636 35.5661C498.639 34.9444 499.818 34.6335 501.172 34.6335C502.046 34.6335 502.871 34.7751 503.646 35.0582C504.428 35.3352 505.117 35.7661 505.714 36.3509C506.318 36.9356 506.792 37.6804 507.136 38.5852C507.481 39.4839 507.653 40.5549 507.653 41.7983V42.8232H496.029V40.5703H504.45C504.443 39.9302 504.305 39.3608 504.034 38.8622C503.763 38.3575 503.385 37.9605 502.898 37.6712C502.418 37.3819 501.858 37.2372 501.218 37.2372C500.535 37.2372 499.935 37.4034 499.418 37.7358C498.901 38.062 498.497 38.4929 498.208 39.0284C497.925 39.5578 497.78 40.1394 497.774 40.7734V42.7401C497.774 43.5649 497.925 44.2727 498.227 44.8636C498.528 45.4484 498.95 45.8977 499.491 46.2116C500.033 46.5194 500.667 46.6733 501.393 46.6733C501.88 46.6733 502.32 46.6056 502.714 46.4702C503.108 46.3286 503.449 46.1224 503.739 45.8516C504.028 45.5807 504.246 45.2453 504.394 44.8452L507.515 45.196C507.318 46.0208 506.942 46.741 506.388 47.3565C505.841 47.9659 505.139 48.4399 504.283 48.7784C503.428 49.1108 502.449 49.277 501.347 49.277ZM513.823 40.6903V49H510.481V34.8182H513.676V37.228H513.842C514.168 36.4339 514.688 35.803 515.402 35.3352C516.122 34.8674 517.012 34.6335 518.07 34.6335C519.049 34.6335 519.902 34.8428 520.628 35.2614C521.36 35.6799 521.927 36.2862 522.327 37.0803C522.733 37.8743 522.933 38.8376 522.927 39.9702V49H519.585V40.4872C519.585 39.5393 519.338 38.7976 518.846 38.2621C518.36 37.7266 517.686 37.4588 516.824 37.4588C516.239 37.4588 515.719 37.5881 515.264 37.8466C514.814 38.099 514.46 38.4652 514.202 38.9453C513.95 39.4254 513.823 40.0071 513.823 40.6903ZM266.496 61.0909V80H263.07V61.0909H266.496ZM273.4 71.6903V80H270.057V65.8182H273.252V68.228H273.418C273.744 67.4339 274.264 66.803 274.978 66.3352C275.699 65.8674 276.588 65.6335 277.647 65.6335C278.625 65.6335 279.478 65.8428 280.204 66.2614C280.937 66.6799 281.503 67.2862 281.903 68.0803C282.309 68.8743 282.509 69.8376 282.503 70.9702V80H279.161V71.4872C279.161 70.5393 278.915 69.7976 278.422 69.2621C277.936 68.7266 277.262 68.4588 276.4 68.4588C275.815 68.4588 275.295 68.5881 274.84 68.8466C274.391 69.099 274.037 69.4652 273.778 69.9453C273.526 70.4254 273.4 71.0071 273.4 71.6903ZM292.087 80.277C290.671 80.277 289.456 79.9661 288.44 79.3445C287.431 78.7228 286.652 77.8641 286.104 76.7685C285.562 75.6667 285.292 74.3987 285.292 72.9645C285.292 71.5241 285.569 70.2531 286.123 69.1513C286.676 68.0433 287.458 67.1816 288.468 66.5661C289.483 65.9444 290.684 65.6335 292.069 65.6335C293.22 65.6335 294.238 65.8459 295.125 66.2706C296.017 66.6892 296.728 67.2831 297.257 68.0526C297.787 68.8158 298.088 69.7083 298.162 70.7301H294.968C294.838 70.0469 294.531 69.4775 294.044 69.022C293.564 68.5604 292.921 68.3295 292.115 68.3295C291.431 68.3295 290.831 68.5142 290.314 68.8835C289.797 69.2467 289.394 69.7699 289.105 70.4531C288.822 71.1364 288.68 71.955 288.68 72.9091C288.68 73.8755 288.822 74.7064 289.105 75.402C289.388 76.0914 289.785 76.6238 290.296 76.9993C290.813 77.3686 291.419 77.5533 292.115 77.5533C292.607 77.5533 293.047 77.4609 293.435 77.2763C293.829 77.0855 294.158 76.8116 294.423 76.4545C294.688 76.0975 294.869 75.6636 294.968 75.1527H298.162C298.082 76.156 297.787 77.0455 297.276 77.821C296.765 78.5904 296.069 79.1937 295.189 79.6307C294.309 80.0616 293.275 80.277 292.087 80.277ZM304.249 71.6903V80H300.907V61.0909H304.175V68.228H304.341C304.674 67.4278 305.188 66.7969 305.883 66.3352C306.585 65.8674 307.478 65.6335 308.561 65.6335C309.546 65.6335 310.404 65.8397 311.137 66.2521C311.869 66.6645 312.436 67.2678 312.836 68.0618C313.242 68.8558 313.445 69.8253 313.445 70.9702V80H310.103V71.4872C310.103 70.5331 309.857 69.7914 309.364 69.2621C308.878 68.7266 308.195 68.4588 307.314 68.4588C306.724 68.4588 306.194 68.5881 305.726 68.8466C305.265 69.099 304.902 69.4652 304.637 69.9453C304.378 70.4254 304.249 71.0071 304.249 71.6903ZM320.933 80.2862C320.034 80.2862 319.225 80.1262 318.505 79.8061C317.791 79.4799 317.224 78.9998 316.806 78.3658C316.394 77.7318 316.187 76.95 316.187 76.0206C316.187 75.2204 316.335 74.5587 316.631 74.0355C316.926 73.5123 317.329 73.0938 317.84 72.7798C318.351 72.4659 318.926 72.2289 319.567 72.0689C320.213 71.9027 320.881 71.7827 321.57 71.7088C322.401 71.6226 323.075 71.5457 323.592 71.478C324.109 71.4041 324.485 71.2933 324.719 71.1456C324.959 70.9917 325.079 70.7547 325.079 70.4347V70.3793C325.079 69.6837 324.872 69.1451 324.46 68.7635C324.048 68.3819 323.454 68.1911 322.678 68.1911C321.859 68.1911 321.21 68.3696 320.73 68.7266C320.256 69.0836 319.936 69.5052 319.77 69.9915L316.649 69.5483C316.895 68.6866 317.301 67.9664 317.868 67.3878C318.434 66.803 319.126 66.366 319.945 66.0767C320.764 65.7812 321.669 65.6335 322.66 65.6335C323.343 65.6335 324.023 65.7135 324.7 65.8736C325.377 66.0336 325.996 66.2983 326.556 66.6676C327.116 67.0308 327.565 67.5263 327.904 68.1541C328.249 68.782 328.421 69.5668 328.421 70.5085V80H325.208V78.0518H325.097C324.894 78.4458 324.608 78.8151 324.238 79.1598C323.875 79.4983 323.417 79.7723 322.863 79.9815C322.315 80.1847 321.672 80.2862 320.933 80.2862ZM321.801 77.8303C322.472 77.8303 323.054 77.6979 323.546 77.4332C324.038 77.1624 324.417 76.8054 324.682 76.3622C324.952 75.919 325.088 75.4358 325.088 74.9126V73.2415C324.983 73.3277 324.805 73.4077 324.552 73.4815C324.306 73.5554 324.029 73.62 323.721 73.6754C323.414 73.7308 323.109 73.7801 322.807 73.8232C322.506 73.8662 322.244 73.9032 322.023 73.9339C321.524 74.0017 321.078 74.1125 320.684 74.2663C320.29 74.4202 319.979 74.6357 319.751 74.9126C319.523 75.1835 319.41 75.5343 319.41 75.9652C319.41 76.5807 319.634 77.0455 320.084 77.3594C320.533 77.6733 321.105 77.8303 321.801 77.8303ZM321.524 63.9531L323.592 59.7337H326.861L324.026 63.9531H321.524ZM340.821 74.0355V65.8182H344.163V80H340.922V77.4794H340.775C340.455 78.2734 339.928 78.9228 339.196 79.4276C338.47 79.9323 337.574 80.1847 336.509 80.1847C335.58 80.1847 334.758 79.9785 334.044 79.5661C333.336 79.1475 332.782 78.5412 332.382 77.7472C331.982 76.947 331.782 75.9806 331.782 74.848V65.8182H335.124V74.331C335.124 75.2296 335.37 75.9437 335.863 76.473C336.355 77.0024 337.001 77.267 337.802 77.267C338.294 77.267 338.771 77.147 339.233 76.907C339.694 76.6669 340.073 76.3099 340.368 75.8359C340.67 75.3558 340.821 74.7557 340.821 74.0355ZM358.809 69.5668L355.762 69.8991C355.676 69.5914 355.525 69.3021 355.31 69.0312C355.1 68.7604 354.817 68.5419 354.46 68.3757C354.103 68.2095 353.666 68.1264 353.149 68.1264C352.454 68.1264 351.869 68.2772 351.395 68.5788C350.927 68.8804 350.696 69.2713 350.702 69.7514C350.696 70.1638 350.847 70.4993 351.155 70.7578C351.469 71.0163 351.986 71.2287 352.706 71.3949L355.125 71.9119C356.467 72.2012 357.464 72.6598 358.116 73.2876C358.775 73.9155 359.107 74.7372 359.114 75.7528C359.107 76.6454 358.846 77.4332 358.329 78.1165C357.818 78.7936 357.107 79.3229 356.196 79.7045C355.285 80.0862 354.239 80.277 353.057 80.277C351.321 80.277 349.924 79.9138 348.865 79.1875C347.806 78.455 347.175 77.4363 346.972 76.1314L350.232 75.8175C350.379 76.4576 350.693 76.9408 351.173 77.267C351.653 77.5933 352.278 77.7564 353.048 77.7564C353.842 77.7564 354.479 77.5933 354.959 77.267C355.445 76.9408 355.688 76.5376 355.688 76.0575C355.688 75.6513 355.531 75.3158 355.217 75.0511C354.91 74.7865 354.429 74.5833 353.777 74.4418L351.358 73.9339C349.998 73.6508 348.991 73.1738 348.339 72.5028C347.686 71.8258 347.363 70.9702 347.369 69.9361C347.363 69.062 347.6 68.3049 348.08 67.6648C348.567 67.0185 349.241 66.5199 350.102 66.169C350.97 65.812 351.97 65.6335 353.103 65.6335C354.765 65.6335 356.073 65.9875 357.027 66.6953C357.987 67.4032 358.581 68.3603 358.809 69.5668ZM368.951 65.8182V68.4034H360.799V65.8182H368.951ZM362.811 62.4205H366.154V75.7344C366.154 76.1837 366.221 76.5284 366.357 76.7685C366.498 77.0024 366.683 77.1624 366.911 77.2486C367.139 77.3348 367.391 77.3778 367.668 77.3778C367.877 77.3778 368.068 77.3625 368.24 77.3317C368.419 77.3009 368.554 77.2732 368.647 77.2486L369.21 79.8615C369.031 79.9231 368.776 79.9908 368.444 80.0646C368.117 80.1385 367.717 80.1816 367.243 80.1939C366.406 80.2185 365.652 80.0923 364.981 79.8153C364.31 79.5322 363.778 79.0952 363.384 78.5043C362.996 77.9134 362.805 77.1747 362.811 76.2884V62.4205ZM377.873 80.277C376.451 80.277 375.223 79.9815 374.189 79.3906C373.161 78.7936 372.37 77.9503 371.816 76.8608C371.262 75.7652 370.985 74.4756 370.985 72.9922C370.985 71.5334 371.262 70.2531 371.816 69.1513C372.376 68.0433 373.158 67.1816 374.161 66.5661C375.164 65.9444 376.343 65.6335 377.697 65.6335C378.571 65.6335 379.396 65.7751 380.172 66.0582C380.953 66.3352 381.643 66.7661 382.24 67.3509C382.843 67.9356 383.317 68.6804 383.662 69.5852C384.006 70.4839 384.179 71.5549 384.179 72.7983V73.8232H372.555V71.5703H380.975C380.969 70.9302 380.83 70.3608 380.559 69.8622C380.289 69.3575 379.91 68.9605 379.424 68.6712C378.944 68.3819 378.384 68.2372 377.743 68.2372C377.06 68.2372 376.46 68.4034 375.943 68.7358C375.426 69.062 375.023 69.4929 374.733 70.0284C374.45 70.5578 374.306 71.1394 374.3 71.7734V73.7401C374.3 74.5649 374.45 75.2727 374.752 75.8636C375.054 76.4484 375.475 76.8977 376.017 77.2116C376.559 77.5194 377.193 77.6733 377.919 77.6733C378.405 77.6733 378.845 77.6056 379.239 77.4702C379.633 77.3286 379.975 77.1224 380.264 76.8516C380.553 76.5807 380.772 76.2453 380.92 75.8452L384.04 76.196C383.843 77.0208 383.468 77.741 382.914 78.3565C382.366 78.9659 381.664 79.4399 380.809 79.7784C379.953 80.1108 378.974 80.277 377.873 80.277ZM393.174 85.6136C391.974 85.6136 390.943 85.4505 390.081 85.1243C389.219 84.8042 388.527 84.3733 388.004 83.8317C387.48 83.29 387.117 82.6899 386.914 82.0312L389.924 81.3018C390.059 81.5788 390.256 81.8527 390.515 82.1236C390.773 82.4006 391.121 82.6283 391.558 82.8068C392.001 82.9915 392.558 83.0838 393.229 83.0838C394.177 83.0838 394.962 82.853 395.584 82.3913C396.205 81.9358 396.516 81.1849 396.516 80.1385V77.4517H396.35C396.178 77.7964 395.925 78.1503 395.593 78.5135C395.267 78.8767 394.833 79.1813 394.291 79.4276C393.756 79.6738 393.082 79.7969 392.269 79.7969C391.18 79.7969 390.192 79.5414 389.305 79.0305C388.425 78.5135 387.723 77.7441 387.2 76.7223C386.683 75.6944 386.425 74.4079 386.425 72.8629C386.425 71.3056 386.683 69.9915 387.2 68.9205C387.723 67.8433 388.428 67.0277 389.315 66.4737C390.201 65.9136 391.189 65.6335 392.278 65.6335C393.109 65.6335 393.793 65.7751 394.328 66.0582C394.87 66.3352 395.301 66.6707 395.621 67.0646C395.941 67.4524 396.184 67.8187 396.35 68.1634H396.535V65.8182H399.831V80.2308C399.831 81.4434 399.542 82.4467 398.963 83.2408C398.384 84.0348 397.594 84.6288 396.59 85.0227C395.587 85.4167 394.448 85.6136 393.174 85.6136ZM393.202 77.1747C393.91 77.1747 394.513 77.0024 395.011 76.6577C395.51 76.313 395.888 75.8175 396.147 75.1712C396.406 74.5249 396.535 73.7493 396.535 72.8445C396.535 71.9519 396.406 71.1702 396.147 70.4993C395.895 69.8284 395.519 69.3082 395.021 68.9389C394.528 68.5634 393.922 68.3757 393.202 68.3757C392.457 68.3757 391.835 68.5696 391.337 68.9574C390.838 69.3452 390.463 69.8776 390.21 70.5547C389.958 71.2256 389.832 71.9889 389.832 72.8445C389.832 73.7124 389.958 74.4725 390.21 75.125C390.469 75.7713 390.847 76.276 391.346 76.6392C391.851 76.9962 392.469 77.1747 393.202 77.1747ZM412.295 74.0355V65.8182H415.638V80H412.397V77.4794H412.249C411.929 78.2734 411.403 78.9228 410.67 79.4276C409.944 79.9323 409.049 80.1847 407.984 80.1847C407.054 80.1847 406.232 79.9785 405.518 79.5661C404.811 79.1475 404.257 78.5412 403.857 77.7472C403.456 76.947 403.256 75.9806 403.256 74.848V65.8182H406.599V74.331C406.599 75.2296 406.845 75.9437 407.337 76.473C407.83 77.0024 408.476 77.267 409.276 77.267C409.769 77.267 410.246 77.147 410.707 76.907C411.169 76.6669 411.548 76.3099 411.843 75.8359C412.145 75.3558 412.295 74.7557 412.295 74.0355ZM419.075 80V65.8182H422.417V80H419.075ZM420.755 63.8054C420.226 63.8054 419.77 63.63 419.389 63.2791C419.007 62.9221 418.816 62.4943 418.816 61.9957C418.816 61.491 419.007 61.0632 419.389 60.7124C419.77 60.3553 420.226 60.1768 420.755 60.1768C421.291 60.1768 421.746 60.3553 422.122 60.7124C422.503 61.0632 422.694 61.491 422.694 61.9957C422.694 62.4943 422.503 62.9221 422.122 63.2791C421.746 63.63 421.291 63.8054 420.755 63.8054Z" fill="white"/>
<g clip-path="url(#clip1_210_8444)">
<path d="M97.567 135.369L55.9258 107.343L0 139.976L41.6427 168L97.567 135.369Z" fill="#C4C443"/>
<path d="M38.7489 156.306L30.4527 161.193L8.91406 146.792L17.1409 141.86L9.66525 136.862L50.1299 112.6L87.38 137.935L46.9169 161.768L38.7489 156.306Z" fill="#807E89"/>
<path d="M50.105 113.364L86.1726 137.896L46.9373 161.006L38.7693 155.546L30.473 160.433L10.1155 146.823L18.3424 141.89L10.8667 136.893L50.105 113.364ZM50.1487 111.835L49.4413 112.259L10.2045 135.785L8.45777 136.832L10.1502 137.964L15.9335 141.83L9.45182 145.715L7.70508 146.762L9.39751 147.894L29.7535 161.502L30.4263 161.952L31.1247 161.54L38.724 157.065L46.2193 162.076L46.8921 162.525L47.5905 162.113L86.8272 139.003L88.5815 137.97L86.8981 136.825L50.8305 112.298L50.1487 111.835Z" fill="#EAE3E1"/>
<path opacity="0.4" d="M49.418 156.937L62.2953 155.748L93.5737 137.56L81.7447 130.147L62.8896 136.842L54.6959 139.91L52.7274 143.022L49.4768 149.66L49.418 156.937Z" fill="#382C36"/>
<path d="M49.4197 156.852L17.1895 135.481V87.71L49.4197 109.081V156.852Z" fill="#F4F5F7"/>
<path d="M49.4197 156.877L17.1895 135.505V132.241L49.4197 153.614V156.877Z" fill="#CAE2EF"/>
<path opacity="0.1" d="M43.5391 152.976L43.6688 129.935L46.8183 137.24V141.818L44.3838 140.318L44.4004 153.555L43.5391 152.976Z" fill="#382C36"/>
<path d="M49.4197 110.671L17.1895 89.2561V87.71L49.4197 109.081V110.671Z" fill="#BDCAD3"/>
<path d="M49.418 156.858L81.9031 137.929V90.1572L49.418 109.086V156.858Z" fill="#BDCAD3"/>
<path d="M42.457 153.812L43.6245 152.962V134.941L42.457 135.534V153.812Z" fill="#CACAC8"/>
<path d="M81.9058 90.1583L49.6756 68.7871L17.207 87.7101L49.4372 109.081L81.9058 90.1583Z" fill="#F99770"/>
<path d="M49.4197 115.731L17.1895 94.3603V91.0977L49.4197 112.467V115.731Z" fill="#CAE2EF"/>
<path d="M49.4219 115.739L81.907 96.8096V93.5469L49.4219 112.474V115.739Z" fill="#4B7CA4"/>
<path d="M49.4219 156.882L81.907 137.953V134.69L49.4219 153.619V156.882Z" fill="#4B7CA4" stroke="#4B7CA4" stroke-width="0.172131" stroke-miterlimit="10"/>
<path d="M82.7101 90.1576V88.6265L49.7151 68.3037L16.4004 86.1784V87.7094L49.3969 109.563L82.7101 90.1576Z" fill="#EBF2FA"/>
<path d="M49.7152 68.3037L49.3969 108.45L49.3652 109.96L49.3969 109.563L82.7102 90.1576V88.6265L49.7152 68.3037Z" fill="#CACAC8"/>
<path d="M82.7101 88.6263L49.7151 66.7725L16.4004 86.1782L49.3969 108.034L82.7101 88.6263Z" fill="white"/>
<path d="M80.0092 88.6274L49.5801 68.3936L19.0996 86.1777L49.5288 106.412L80.0092 88.6274Z" fill="#D4D4D4"/>
<path d="M49.5801 68.3936L19.0996 86.1777L21.1058 87.4433L49.5801 70.807V68.3936Z" fill="#C7C7C7"/>
<path d="M49.5801 70.807L78.003 89.7738L80.0092 88.6274L49.5801 68.3936V70.807Z" fill="#F4F5F7"/>
<path opacity="0.1" d="M22.5156 138.979V115.938L25.6667 123.244V127.823L23.2321 126.324L23.2472 139.56L22.5156 138.979Z" fill="#7466A4"/>
<path d="M24.4395 139.953V122.285L40.1058 132.601V150.278L24.4395 139.953Z" fill="#435A5E"/>
<path d="M24.7764 122.915L39.7625 132.784V149.647L24.7764 139.77V122.915ZM24.0977 121.652V122.915V139.768V140.135L24.4039 140.337L39.3899 150.214L40.4443 150.909V149.647V132.784V132.418L40.1381 132.216L25.152 122.346L24.0977 121.652Z" fill="#EAE3E1"/>
<path opacity="0.6" d="M35.4043 146.333L35.6939 138.593L28.6934 135.982V141.904L35.4043 146.333Z" fill="#435A5E"/>
<path opacity="0.1" d="M50.5671 105.819L21.9616 86.8233L19.082 86.1611L49.5233 106.418L50.5671 105.819Z" fill="#382C36"/>
<g opacity="0.8">
<path d="M18.7922 106.075L47.2484 124.85V128.22L18.7922 109.585V106.075ZM18.1934 104.962V106.074L18.5795 110.166L48.3631 129.584V117.375L47.9588 116.45L19.121 105.574L18.1934 104.962Z" fill="#BDCAD3"/>
</g>
<path d="M18.4512 109.246V97.4355L47.5876 116.66V128.326L18.4512 109.246Z" fill="#435A5E"/>
<path d="M18.7897 98.0668L47.2458 116.842V127.696L18.7897 109.062V98.0668ZM18.1094 96.8027V98.0668V109.062V109.43L18.4171 109.632L46.8732 128.265L47.9261 128.954V127.696V116.842V116.475L47.6199 116.273L19.1638 97.4996L18.1094 96.8027Z" fill="#EAE3E1"/>
<path d="M20.304 110.483L18.4336 109.211V97.5361L20.304 98.8092V110.483Z" fill="#EAE3E1"/>
<path d="M29.3602 116.42L27.4883 115.149V103.474L29.3602 104.747V116.42Z" fill="#EAE3E1"/>
<path d="M38.4149 122.357L36.543 121.085V109.41L38.4149 110.683V122.357Z" fill="#EAE3E1"/>
<path d="M47.4681 128.294L45.5977 127.023V115.348L47.4681 116.621V128.294Z" fill="#EAE3E1"/>
<path d="M22.1766 109.061L20.3047 110.063V99.0693L22.1766 100.314V109.061Z" fill="#BDCAD3"/>
<path d="M22.1766 109.061L20.3047 110.062L27.4892 114.78V112.453L22.1766 109.061Z" fill="white"/>
<path d="M31.2337 115.024L29.3633 116.026V105.034L31.2337 106.279V115.024Z" fill="#BDCAD3"/>
<path d="M31.2337 115.022L29.3633 116.024L36.5463 120.744L36.5478 118.416L31.2337 115.022Z" fill="white"/>
<path d="M40.2806 120.997L38.4102 121.999V111.007L40.2806 112.251V120.997Z" fill="#BDCAD3"/>
<path d="M40.2806 120.998L38.4102 122L45.5932 126.719L45.5947 124.39L40.2806 120.998Z" fill="white"/>
<path d="M27.6315 142.483L26.9512 142.049V133.194H27.6315V142.483Z" fill="#EAE3E1"/>
<path d="M37.1412 148.385L36.4609 147.949V137.658H37.1412V148.385Z" fill="#EAE3E1"/>
<path d="M28.6959 141.902L28.0156 141.468V131.176H28.6959V141.902Z" fill="#EAE3E1"/>
<path d="M36.0162 146.707L35.3359 146.272V135.98H36.0162V146.707Z" fill="#EAE3E1"/>
<path d="M24.9498 110.83L24.2695 110.394V101.541H24.9498V110.83Z" fill="#EAE3E1"/>
<path d="M34.0045 116.853L33.3242 116.417V107.562H34.0045V116.853Z" fill="#EAE3E1"/>
<path d="M43.1729 122.878L42.4941 122.442V113.588H43.1729V122.878Z" fill="#EAE3E1"/>
<g opacity="0.8">
<path opacity="0.5" d="M80.0452 108.729V112.26L51.5891 128.433V125.064L80.0452 108.729ZM80.6441 107.661L79.7149 108.198L51.2587 124.534L50.9902 124.688V125.011V128.381V129.488L51.9164 128.964L80.3726 112.793L80.6426 112.637V112.312V108.78V107.661H80.6441Z" fill="#ADA17C"/>
</g>
<path d="M51.2461 116.841L80.3841 100.067V111.948L51.2461 128.508V116.841Z" fill="#303A3A"/>
<path d="M80.0446 100.675V111.735L51.5885 127.91V117.055L80.0446 100.675ZM80.7249 99.4609L79.6706 100.072L51.2144 116.453L50.9082 116.628V116.995V127.849V129.107L51.9611 128.513L80.4172 112.34L80.7249 112.163V111.794V100.733V99.4609Z" fill="#D1CAC8"/>
<path d="M78.5273 113.032L80.3978 111.916V100.173L78.5273 101.294V113.032Z" fill="#D1CAC8"/>
<path d="M69.4727 118.205L71.3446 117.092V105.37L69.4727 106.488V118.205Z" fill="#D1CAC8"/>
<path d="M60.418 123.357L62.2899 122.249V110.548L60.418 111.661V123.357Z" fill="#D1CAC8"/>
<path d="M51.3633 128.488L53.2337 127.385V115.704L51.3633 116.813V128.488Z" fill="#D1CAC8"/>
<path d="M76.6582 111.44L78.5301 112.609V101.557L76.6582 102.623V111.44Z" fill="#A4B1BA"/>
<path d="M76.6564 111.44L78.5283 112.609L71.3438 116.726V114.388L76.6564 111.44Z" fill="#E6E6E6"/>
<path d="M67.6034 116.639L69.4738 117.808V106.759L67.5898 107.849L67.6034 116.639Z" fill="#A4B1BA"/>
<path d="M67.6017 116.64L69.4721 117.809L62.2891 121.907V119.575L67.6017 116.64Z" fill="#E6E6E6"/>
<path d="M58.5527 121.829L60.4232 122.998V111.97L58.5527 113.054V121.829Z" fill="#A4B1BA"/>
<path d="M58.5524 121.828L60.4228 122.997L53.2398 127.079L53.2383 124.75L58.5524 121.828Z" fill="#E6E6E6"/>
<path d="M73.8906 112.977L74.5694 112.598V103.703L73.8906 103.646V112.977Z" fill="#D1CAC8"/>
<path d="M64.8301 118.232L65.5104 117.855V108.975L64.8301 108.916V118.232Z" fill="#D1CAC8"/>
<path d="M55.666 123.455L56.3463 123.079V114.216L55.666 114.157V123.455Z" fill="#D1CAC8"/>
<path d="M42.4554 153.811L41.8535 153.431V136.142L42.4554 135.798V153.811Z" fill="#F4F5F7"/>
<g opacity="0.1">
<path d="M42.4558 139.803V135.532L42.8465 135.333L42.756 134.937L41.6805 135.066C41.6805 135.066 40.0469 135.668 39.8312 135.71C39.617 135.754 37.5957 136.7 37.5957 136.7L41.5945 138.591V139.409L42.4558 139.803Z" fill="#7466A4"/>
</g>
<g opacity="0.8">
<path opacity="0.5" d="M80.0452 126.24V129.771L51.5891 145.945V142.575L80.0452 126.24ZM80.6441 125.174L79.7149 125.711L51.2587 142.047L50.9902 142.201V142.524V145.893V147.001L51.9164 146.477L80.3726 130.305L80.6426 130.15V129.824V126.293V125.174H80.6441Z" fill="#ADA17C"/>
</g>
<path d="M51.2461 134.354L80.3841 117.58V129.46L51.2461 146.02V134.354Z" fill="#303A3A"/>
<path d="M80.0446 118.186V129.246L51.5885 145.422V134.566L80.0446 118.186ZM80.7249 116.974L79.6706 117.585L51.2144 133.966L50.9082 134.141V134.507V145.362V146.62L51.9611 146.026L80.4172 129.851L80.7249 129.674V129.305V118.244V116.974Z" fill="#D1CAC8"/>
<path d="M78.5273 130.544L80.3978 129.427V117.684L78.5273 118.806V130.544Z" fill="#D1CAC8"/>
<path d="M69.4727 135.719L71.3446 134.606V122.884L69.4727 124.002V135.719Z" fill="#D1CAC8"/>
<path d="M60.418 140.87L62.2899 139.761V128.059L60.418 129.172V140.87Z" fill="#D1CAC8"/>
<path d="M51.3633 146.001L53.2337 144.896V133.217L51.3633 134.324V146.001Z" fill="#D1CAC8"/>
<path d="M76.6582 128.952L78.5301 130.121V119.069L76.6582 120.161V128.952Z" fill="#A4B1BA"/>
<path d="M76.6564 128.953L78.5283 130.122L71.3438 134.237V131.901L76.6564 128.953Z" fill="#E6E6E6"/>
<path d="M67.6035 134.153L69.4739 135.322V124.289L67.6035 125.377V134.153Z" fill="#A4B1BA"/>
<path d="M67.6017 134.152L69.4721 135.321L62.2891 139.42V137.086L67.6017 134.152Z" fill="#E6E6E6"/>
<path d="M58.5527 139.341L60.4232 140.51V129.497L58.5527 130.58V139.341Z" fill="#A4B1BA"/>
<path d="M58.5524 139.341L60.4228 140.51L53.2398 144.592L53.2383 142.263L58.5524 139.341Z" fill="#E6E6E6"/>
<path d="M73.8906 130.489L74.5694 130.11V121.215L73.8906 121.156V130.489Z" fill="#D1CAC8"/>
<path d="M64.8301 135.743L65.5104 135.368V126.488L64.8301 126.429V135.743Z" fill="#D1CAC8"/>
<path d="M55.666 140.966L56.3463 140.592V131.727L55.666 131.668V140.966Z" fill="#D1CAC8"/>
<path d="M21.4297 139.689L22.5972 139.097V121.077L21.4297 121.67V139.689Z" fill="#CACAC8"/>
<path d="M21.4319 139.689L20.8301 139.309V122.278L21.4319 121.934V139.689Z" fill="#F4F5F7"/>
<path d="M43.6741 135.123V131.032L13.2344 126.006L34.6131 140.263L43.6741 135.123Z" fill="#CACAC8"/>
<path d="M34.6297 134.357L13.2344 121.914V126.005L34.6131 140.262L34.6297 134.357Z" fill="#F4F5F7"/>
<path d="M43.6727 131.031L22.0376 116.644L12.9766 121.784L34.6117 136.171L43.6727 131.031Z" fill="#DCDEE2"/>
<path d="M43.929 130.874V129.989L22.1551 117.147L12.9629 120.962V121.848L34.7368 136.22L43.929 130.874Z" fill="#EBF2FA"/>
<path d="M22.1543 117.274L34.7359 135.463L34.7028 136.327L34.7359 136.348L43.9282 131.002V130.117L22.1543 117.274Z" fill="#CACAC8"/>
<path d="M43.929 129.988L22.1551 115.616L12.9629 120.962L34.7368 135.334L43.929 129.988Z" fill="white"/>
<path d="M41.2266 129.989L22.0201 117.237L15.6621 120.962L34.8687 133.714L41.2266 129.989Z" fill="#D4D4D4"/>
<path d="M22.0201 117.237L15.6621 120.962L16.5415 121.568L22.0201 118.36V117.237Z" fill="#C7C7C7"/>
<path d="M22.0215 118.36L40.2114 130.566L41.2281 129.989L22.0215 117.237V118.36Z" fill="#F4F5F7"/>
<path d="M16.8626 126.624L16.751 127.152L16.3965 126.913L16.8731 124.884L17.3242 125.19L17.7767 127.843L17.4086 127.594L17.297 126.916L16.8626 126.624ZM17.2487 126.49L17.1582 125.931C17.1326 125.774 17.1069 125.582 17.0843 125.427L17.0798 125.424C17.0557 125.547 17.033 125.709 17.0074 125.828L16.9139 126.264L17.2487 126.49Z" fill="#00A200"/>
<path d="M19.4054 128.048C19.4023 127.765 19.3993 127.424 19.4023 127.086L19.3963 127.081C19.345 127.345 19.2786 127.632 19.2183 127.866L19.0237 128.647L18.7567 128.468L18.6044 127.458C18.5576 127.152 18.5094 126.786 18.4762 126.458L18.4716 126.455C18.4596 126.763 18.449 127.118 18.4354 127.4L18.4008 128.265L18.084 128.051L18.2016 125.787L18.6587 126.098L18.799 126.974C18.8442 127.276 18.888 127.597 18.9181 127.891L18.9242 127.896C18.9694 127.656 19.0252 127.385 19.0765 127.16L19.247 126.499L19.695 126.804L19.7508 129.177L19.4159 128.95L19.4054 128.048Z" fill="#00A200"/>
<path d="M20.1775 127.164C20.268 127.197 20.4506 127.301 20.6225 127.417C20.8322 127.561 20.9604 127.678 21.069 127.852C21.1731 128.009 21.2485 128.218 21.2455 128.427C21.2425 128.632 21.161 128.769 20.9891 128.749V128.755C21.161 128.944 21.2862 129.229 21.2817 129.526C21.2787 129.734 21.2138 129.857 21.1173 129.909C21.0057 129.968 20.8201 129.92 20.52 129.716C20.351 129.603 20.2258 129.501 20.1504 129.433L20.1775 127.164ZM20.4913 129.303C20.5245 129.333 20.5652 129.36 20.624 129.4C20.7794 129.504 20.9167 129.508 20.9212 129.265C20.9242 129.033 20.7884 128.847 20.618 128.731L20.5003 128.651L20.4913 129.303ZM20.5064 128.279L20.6195 128.356C20.799 128.478 20.8971 128.431 20.9001 128.259C20.9031 128.084 20.8156 127.933 20.6602 127.828C20.5863 127.776 20.5426 127.755 20.5139 127.742L20.5064 128.279Z" fill="#00A200"/>
<path d="M22.0138 128.386L21.9927 129.707C21.9867 130.102 22.0817 130.371 22.2567 130.488C22.4362 130.609 22.5388 130.487 22.5448 130.081L22.5674 128.763L22.9098 128.995L22.8872 130.279C22.8751 130.985 22.6323 131.163 22.2386 130.896C21.857 130.638 21.6382 130.166 21.6488 129.433L21.6684 128.15L22.0138 128.386Z" fill="#00A200"/>
<path d="M23.3469 129.291L23.6923 129.525L23.6561 131.373L24.258 131.778L24.249 132.211L23.3047 131.575L23.3469 129.291Z" fill="#00A200"/>
<path d="M24.9634 132.104L24.8428 132.614L24.4883 132.376L25.0011 130.418L25.4522 130.724L25.8685 133.307L25.5004 133.059L25.3963 132.399L24.9634 132.104ZM25.3571 131.981L25.2742 131.436C25.25 131.284 25.2274 131.097 25.2078 130.947L25.2033 130.944C25.1776 131.064 25.152 131.22 25.1233 131.335L25.0223 131.756L25.3571 131.981Z" fill="#00A200"/>
<path d="M26.2051 133.532L26.2609 131.272L26.6621 131.545L26.9563 132.585C27.0407 132.883 27.1222 133.224 27.1825 133.525L27.1886 133.529C27.1735 133.217 27.175 132.908 27.184 132.571L27.2021 131.914L27.5174 132.128L27.4555 134.375L27.0965 134.134L26.7964 133.046C26.7134 132.745 26.6214 132.387 26.5535 132.072L26.5475 132.07C26.549 132.374 26.546 132.695 26.5354 133.063L26.5188 133.743L26.2051 133.532Z" fill="#00A200"/>
<path d="M28.9995 135.353C28.9346 135.357 28.7928 135.312 28.6088 135.187C28.0869 134.835 27.8305 134.17 27.8486 133.531C27.8697 132.764 28.2513 132.589 28.7114 132.902C28.8894 133.022 29.0221 133.167 29.0824 133.255L29.001 133.609C28.9331 133.519 28.8366 133.413 28.7159 133.33C28.4429 133.145 28.2257 133.244 28.2106 133.743C28.197 134.193 28.369 134.596 28.6737 134.802C28.7762 134.872 28.8924 134.915 28.9603 134.921L28.9995 135.353Z" fill="#00A200"/>
<path d="M30.2886 135.322L29.732 134.945L29.7154 135.475L30.3368 135.894L30.3232 136.306L29.3594 135.656L29.4288 133.425L30.3655 134.061L30.3519 134.473L29.7606 134.072L29.7455 134.535L30.3036 134.912L30.2886 135.322Z" fill="#00A200"/>
<path opacity="0.2" d="M30.8047 123.584V124.254L34.1579 126.504V125.81L30.8047 123.584Z" fill="#435A5E"/>
<g opacity="0.5">
<path d="M25.9907 111.488L25.1973 110.991L26.487 103.155L27.3573 103.719L25.9907 111.488Z" fill="#BDCAD3"/>
</g>
<g opacity="0.5">
<path d="M35.7878 117.927L34.2266 116.924L35.5163 109.089L36.554 109.786L36.5465 113.297L35.7878 117.927Z" fill="#BDCAD3"/>
</g>
<g opacity="0.5">
<path d="M44.8495 123.918L44.0078 123.375L45.293 115.581L45.6263 115.762L45.6188 119.274L44.8495 123.918Z" fill="#BDCAD3"/>
</g>
<g opacity="0.4">
<path d="M35.9533 133.079L29.8925 129.173L30.7025 128.711L31.6649 129.307L34.3951 127.974L32.8716 126.99L34.0512 126.47L30.8262 124.234L28.6043 125.227L25.9842 123.132L23.2269 124.444L25.4307 125.803L25.4653 126.319L17.3486 121.085L15.6426 120.944L25.4653 127.474V128.228L26.4956 129.081L27.9572 129.097L34.8612 133.719L35.9533 133.079Z" fill="#C6BA95"/>
</g>
<path d="M31.0005 122.771L28.0953 120.853V117.345L25.0891 115.262L23.5867 116.221L25.1977 118.983L22.3935 117.07L20.873 118.003L22.1884 121.565L24.8296 123.309L26.5733 129.159L28.0953 128.227V124.887L29.48 127.596L31.0005 126.664V122.771Z" fill="#008035"/>
<path d="M23.7619 126.975V123.695C23.7619 123.63 23.7303 123.57 23.676 123.533L21.0664 121.793V118.365L23.4603 119.963C23.4919 119.984 23.5296 119.996 23.5674 119.996C23.599 119.996 23.6292 119.989 23.6579 119.973C23.7212 119.94 23.7604 119.874 23.7604 119.803V116.564L26.379 118.379V121.787C26.379 121.851 26.4122 121.912 26.4665 121.948L29.2857 123.809V127.238L26.6807 125.518C26.649 125.497 26.6113 125.487 26.5736 125.487C26.5419 125.487 26.5103 125.494 26.4816 125.509C26.4182 125.543 26.3805 125.609 26.3805 125.68V128.792L23.7619 126.975Z" fill="#00B535"/>
<path d="M23.9547 116.934L26.1872 118.481V121.787C26.1872 121.917 26.252 122.039 26.3606 122.11L29.0924 123.914V126.878L26.7875 125.356C26.7227 125.314 26.6487 125.293 26.5748 125.293C26.5115 125.293 26.4496 125.308 26.3908 125.339C26.2656 125.407 26.1872 125.538 26.1872 125.68V128.422L23.9547 126.876V123.697C23.9547 123.567 23.8899 123.446 23.7828 123.375L21.2592 121.692V118.729L23.3529 120.126C23.4177 120.17 23.4932 120.191 23.5671 120.191C23.6289 120.191 23.6923 120.176 23.7496 120.146C23.8748 120.078 23.9547 119.947 23.9547 119.805V116.934ZM23.5686 116.195V119.803L20.873 118.005V121.897L23.5686 123.695V127.077L26.5748 129.16V125.679L29.48 127.597V123.706L26.5748 121.787V118.278L23.5686 116.195Z" fill="white"/>
<path d="M29.4829 123.704L30.4603 123.179L27.5551 121.261L26.5762 121.786L29.4829 123.704Z" fill="#00B535"/>
<path d="M26.5976 118.268L28.0985 117.345L25.0922 115.262L23.5898 116.221L26.5976 118.268Z" fill="#00B535"/>
<path d="M23.5819 119.881L23.5758 117.87L22.3963 117.072L20.8652 118.009L23.5819 119.881Z" fill="#00B535"/>
<path opacity="0.4" d="M50.9069 116.641L80.7267 99.4605L80.2048 99.1045L50.8828 115.994L50.9069 116.641Z" fill="white"/>
<path opacity="0.4" d="M50.8879 134.15L80.7076 116.969L80.1857 116.613L50.8652 133.503L50.8879 134.15Z" fill="white"/>
<path opacity="0.3" d="M18.0033 148.239C17.9897 148.239 17.9776 148.239 17.9641 148.238L14.5113 148.043C14.1357 148.022 13.8491 147.701 13.8702 147.325C13.8914 146.949 14.2172 146.661 14.5882 146.684L18.041 146.878C18.4166 146.9 18.7032 147.221 18.6821 147.596C18.6625 147.96 18.3623 148.239 18.0033 148.239Z" fill="#382C36"/>
<path opacity="0.3" d="M33.1263 158.355C33.1128 158.355 33.1007 158.355 33.0871 158.354L29.6344 158.159C29.2588 158.138 28.9722 157.817 28.9933 157.441C29.0144 157.066 29.3342 156.777 29.7113 156.8L33.164 156.995C33.5396 157.016 33.8262 157.337 33.8051 157.713C33.7855 158.075 33.4853 158.355 33.1263 158.355Z" fill="#382C36"/>
<path d="M14.994 140.225C15.1478 140.093 15.2474 139.902 15.2474 139.683C15.2474 139.29 14.9291 138.97 14.5339 138.97C14.1402 138.97 13.8204 139.29 13.8204 139.683C13.8204 139.902 13.92 140.093 14.0754 140.225C13.7707 140.389 13.5625 140.707 13.5625 141.077V147.204C13.5625 147.741 13.9984 148.016 14.5354 148.016C15.0724 148.016 15.5083 147.743 15.5083 147.204V141.077C15.5068 140.706 15.2972 140.389 14.994 140.225Z" fill="#4C4949"/>
<path d="M30.2088 150.383C30.3627 150.252 30.4622 150.059 30.4622 149.841C30.4622 149.448 30.1425 149.128 29.7488 149.128C29.3551 149.128 29.0353 149.448 29.0353 149.841C29.0353 150.06 29.1348 150.252 29.2902 150.383C28.9855 150.547 28.7773 150.866 28.7773 151.235V157.362C28.7773 157.899 29.2133 158.172 29.7503 158.172C30.2873 158.172 30.7232 157.899 30.7232 157.362V151.235C30.7232 150.866 30.5135 150.547 30.2088 150.383Z" fill="#4C4949"/>
<path d="M52.9516 88.406L57.2686 91.2554L53.5942 93.429L49.2545 90.563L44.1304 93.5527L40.4393 91.1287L45.5739 88.133L41.3112 85.3183L44.9841 83.1447L49.2711 85.9759L54.4057 82.9802L58.0983 85.4043L52.9516 88.406ZM49.3148 79.624C41.6611 79.624 35.457 83.5172 35.457 88.32C35.457 93.1228 41.6611 97.016 49.3148 97.016C56.9685 97.016 63.1726 93.1228 63.1726 88.32C63.1741 83.5172 56.97 79.624 49.3148 79.624Z" fill="#00B535"/>
<path opacity="0.95" d="M52.9513 88.4062L57.2683 91.2556L53.5939 93.4292L49.2542 90.5632L44.1301 93.5544L40.4375 91.1304L45.5736 88.1332L41.3094 85.3185L44.9838 83.1464L49.2707 85.9762L54.4054 82.9805L58.098 85.403L52.9513 88.4062Z" fill="white"/>
</g>
<defs>
<clipPath id="clip0_210_8444">
<rect width="24" height="24" fill="white" transform="translate(211.205 34)"/>
</clipPath>
<clipPath id="clip1_210_8444">
<rect width="97.567" height="101.228" fill="white" transform="translate(0 66.7725)"/>
</clipPath>
</defs>
</svg>
