<svg width="512" height="140" viewBox="0 0 582 159" fill="none" xmlns="http://www.w3.org/2000/svg">
<path d="M3.03906 124.306L50.0886 97.8389L106.076 129.744L59.1548 156.802L3.03906 124.306Z" fill="#3B495C"/>
<path d="M106.076 129.744V131.942L59.1543 158.999V156.801L106.076 129.744Z" fill="#233143"/>
<path d="M3.03906 124.307V126.505L59.1548 159V156.802L3.03906 124.307Z" fill="#233143"/>
<path d="M50.6332 73.3643L10.4199 96.1944V123.151L50.6332 100.028V73.3643Z" fill="#C6C3C1"/>
<path d="M12.7361 96.6875L11.123 97.6014V124.563L12.7361 123.635V96.6875Z" fill="#FBAD32"/>
<path opacity="0.5" d="M23.3063 104.169L11.9277 110.713V113.61L25.8424 105.613L23.3063 104.169Z" fill="white"/>
<path opacity="0.5" d="M26.8843 106.202L11.9277 114.802V115.643L27.62 106.618L26.8843 106.202Z" fill="white"/>
<path opacity="0.5" d="M11.9277 97.7119V98.667L12.764 98.1872L11.9277 97.7119Z" fill="white"/>
<path opacity="0.5" d="M11.9277 124.098L30.1973 134.599V108.085L30.1105 108.035L11.9277 118.486V124.098Z" fill="white"/>
<path opacity="0.5" d="M28.141 106.915L11.9277 116.237V117.891L29.585 107.738L28.141 106.915Z" fill="white"/>
<path d="M41.8172 99.0511V98.457L27.6191 106.618L28.1401 106.916L41.8172 99.0511Z" fill="white"/>
<path opacity="0.8" d="M27.62 106.618L11.9277 115.643V116.237L28.141 106.915L27.62 106.618Z" fill="white"/>
<path d="M41.9607 100.623L29.5859 107.738L30.1115 108.035L41.9607 101.217V100.623Z" fill="white"/>
<path opacity="0.8" d="M11.9277 117.891V118.485L30.1105 108.034L29.585 107.737L11.9277 117.891Z" fill="white"/>
<path d="M41.8174 97.6155V96.4229L25.8418 105.612L26.8837 106.202L41.8174 97.6155Z" fill="white"/>
<path opacity="0.8" d="M25.8424 105.613L11.9277 113.61V114.803L26.8843 106.203L25.8424 105.613Z" fill="white"/>
<path d="M35.6212 97.0857V85.04L12.7637 98.187L23.3059 104.169L35.6212 97.0857Z" fill="white"/>
<path opacity="0.8" d="M12.764 98.1875L11.9277 98.6673V110.713L23.3063 104.169L12.764 98.1875Z" fill="white"/>
<path d="M99.4047 102.445L59.1914 125.275V152.232L99.4047 129.109V102.445Z" fill="#FBAD32"/>
<path d="M40.5936 112.736L38.9805 113.655V140.611L40.5936 139.684V112.736Z" fill="#FBAD32"/>
<path d="M11.1511 97.999L9.69336 97.1719V123.767L11.1511 124.608V97.999Z" fill="#FBAD32"/>
<path d="M29.6621 108.51V135.252L38.9797 140.612V113.801L29.6621 108.51Z" fill="#FBAD32"/>
<path opacity="0.5" d="M53.5799 121.446L39.9531 129.283V130.12L54.3157 121.862L53.5799 121.446Z" fill="white"/>
<path opacity="0.5" d="M54.8366 122.159L39.9531 130.714V132.368L56.2852 122.977L54.8366 122.159Z" fill="white"/>
<path opacity="0.5" d="M50.0019 119.412L39.9531 125.188V128.09L52.538 120.852L50.0019 119.412Z" fill="white"/>
<path opacity="0.5" d="M39.9531 140.09L58.2182 150.591V124.078L56.8061 123.273L39.9531 132.966V140.09Z" fill="white"/>
<path opacity="0.8" d="M54.3157 121.862L39.9531 130.12V130.714L54.8366 122.159L54.3157 121.862Z" fill="white"/>
<path opacity="0.8" d="M39.9531 132.367V132.966L56.8061 123.274L56.2852 122.977L39.9531 132.367Z" fill="white"/>
<path opacity="0.8" d="M52.538 120.852L39.9531 128.09V129.283L53.5799 121.446L52.538 120.852Z" fill="white"/>
<path opacity="0.8" d="M39.9531 113.705V125.189L50.0019 119.413L39.9531 113.705Z" fill="white"/>
<path d="M49.1786 119.001L48.6074 118.677V145.058L49.1786 145.387V119.001Z" fill="#888D9A"/>
<path d="M57.2344 124.165V151.108L59.1902 152.232V125.275L57.2344 124.165Z" fill="#FBAD32"/>
<path d="M59.1906 125.888L56.1289 118.677L99.4038 93.8271V103.085L59.1906 125.888Z" fill="#BECCC6"/>
<path d="M99.4053 93.8271L53.4891 120.468L9.74805 95.687L55.5866 69L99.4053 93.8271Z" fill="white"/>
<path d="M93.9581 94.654L95.4707 93.7812L55.8241 70.8643L16.7441 93.5345L18.3618 94.4895L55.9292 72.6967L93.9581 94.654Z" fill="#7C8982"/>
<path d="M93.9569 94.6546L55.928 72.6973L23.4375 91.5427L61.4116 113.473L93.9569 94.6546Z" fill="#A2AAA6"/>
<path d="M56.3263 116.416L61.4123 113.473L23.4383 91.543L18.3613 94.4904L56.3263 116.416Z" fill="#8C9993"/>
<path d="M10.1502 88.499V89.189L3.03516 93.2972V92.6072L10.1502 88.499Z" fill="#243954"/>
<path d="M10.1502 94.9648V95.6594L3.03516 99.7676V99.073L10.1502 94.9648Z" fill="#243954"/>
<path d="M8.7832 87.3154L58.2866 115.419V126.4L8.7832 97.9354V87.3154Z" fill="#243954"/>
<path d="M9.69257 86.8262L8.7832 87.3151L58.2866 115.419L59.1914 114.93L9.69257 86.8262Z" fill="#243954"/>
<path d="M58.2871 126.4L59.1919 125.911V114.93L58.2871 115.419V126.4Z" fill="#243954"/>
<path d="M31.8594 118.782L37.4572 122.013V120.153L31.8594 117.005V118.782Z" fill="white"/>
<path d="M54.2155 138.761L50.8613 136.841V130.878L54.2155 132.797V138.761Z" fill="#243954"/>
<path d="M53.8908 133.104L51.1855 131.555V131.92L53.8908 133.469V133.104Z" fill="white"/>
<path d="M53.8908 133.839L51.1855 132.29V132.66L53.8908 134.209V133.839Z" fill="white"/>
<path d="M51.3223 134.25C51.3223 133.729 51.5279 133.542 51.8112 133.706C52.0945 133.871 52.3002 134.296 52.3002 134.817C52.3002 135.342 52.0945 135.534 51.8112 135.37C51.5233 135.205 51.3223 134.776 51.3223 134.25ZM51.9894 134.639C51.9894 134.268 51.9072 134.095 51.8067 134.035C51.7061 133.976 51.6284 134.058 51.6284 134.428C51.6284 134.803 51.7107 134.981 51.8067 135.041C51.9072 135.096 51.9894 135.009 51.9894 134.639ZM51.8798 136.462L52.9399 134.36L53.1913 134.506L52.1357 136.613L51.8798 136.462ZM52.7663 136.137C52.7663 135.616 52.9765 135.429 53.2552 135.594C53.5386 135.758 53.7442 136.183 53.7442 136.704C53.7442 137.23 53.5386 137.422 53.2552 137.257C52.9719 137.092 52.7663 136.663 52.7663 136.137ZM53.438 136.526C53.438 136.151 53.3558 135.982 53.2598 135.923C53.1593 135.863 53.077 135.941 53.077 136.316C53.077 136.69 53.1593 136.869 53.2598 136.928C53.3558 136.983 53.438 136.901 53.438 136.526Z" fill="white"/>
<path d="M47.2188 130.316L45.2676 129.201V125.729L47.2188 126.844V130.316Z" fill="#243954"/>
<path d="M28.0859 127.396L21.1445 123.421V111.073L28.0859 115.049V127.396Z" fill="#243954"/>
<path d="M27.6697 117.279L21.7383 113.884V114.574L27.6697 117.969V117.279Z" fill="white"/>
<path d="M27.6697 116.041L21.7383 112.646V113.336L27.6697 116.731V116.041Z" fill="white"/>
<path d="M8.36203 87.2881L0.662109 91.6613V102.642L8.36203 98.2142V87.2881Z" fill="#243954"/>
<path d="M8.36203 92.1221L0.662109 96.4953V97.1487L8.36203 92.7253V92.1221Z" fill="white"/>
<path d="M8.36203 93.6035L0.662109 97.9721V98.6302L8.36203 94.2021V93.6035Z" fill="white"/>
<path d="M8.36203 95.0107L0.662109 99.3839V100.037L8.36203 95.6094V95.0107Z" fill="white"/>
<path d="M0 102.249L0.662605 102.642V91.6606L0 91.2676V102.249Z" fill="#243954"/>
<path d="M8.36253 87.2878L7.69992 86.8994L0 91.268L0.662605 91.661L8.36253 87.2878Z" fill="#243954"/>
<rect x="166" width="416" height="110" rx="18" fill="#006DB7"/>
<path d="M110 102L221.5 66.026L189.5 42L110 102Z" fill="#006DB7"/>
<rect x="191.048" y="34.0476" width="41.9048" height="41.9048" rx="20.9524" fill="#FFB600"/>
<rect x="191.048" y="34.0476" width="41.9048" height="41.9048" rx="20.9524" stroke="white" stroke-width="2.09524"/>
<g clip-path="url(#clip0_210_8965)">
<path d="M200.375 63.3886C200.375 63.4261 200.379 63.4599 200.39 63.4936C200.39 63.5049 200.398 63.5161 200.401 63.5274C200.413 63.5574 200.431 63.5874 200.454 63.6136C200.458 63.6211 200.461 63.6249 200.465 63.6324C200.465 63.6324 200.469 63.6324 200.472 63.6361C200.499 63.6661 200.529 63.6924 200.566 63.7111C202.205 64.5699 206.255 66.0661 206.424 66.1261C206.439 66.1299 206.45 66.1299 206.465 66.1336C206.472 66.1336 206.48 66.1411 206.491 66.1449C206.589 66.1599 206.713 66.1674 206.855 66.1674C209.938 66.1674 222.789 62.5411 223.359 62.3799C223.531 62.3311 223.644 62.1624 223.621 61.9824C223.014 57.2236 221.375 49.4574 221.36 49.3786C221.36 49.3749 221.356 49.3711 221.356 49.3674C221.345 49.3299 221.33 49.2961 221.311 49.2624C221.308 49.2549 221.304 49.2474 221.3 49.2436C221.278 49.2099 221.244 49.1799 221.21 49.1574C221.195 49.1461 221.176 49.1386 221.157 49.1311C221.142 49.1236 221.128 49.1124 221.109 49.1086L217.625 48.0849C216.267 45.0474 214.318 43.5849 211.989 43.8586C211.501 43.9149 211.051 44.0499 210.642 44.2561C210.436 44.2186 210.222 44.1961 210.001 44.1924C208.899 44.1811 207.961 44.6161 207.226 45.4824C206.341 46.5136 205.786 48.1674 205.561 50.3911C203.615 50.7361 202.186 50.9799 202.164 50.9836C202.149 50.9836 202.141 50.9949 202.126 50.9986C202.119 50.9986 202.107 50.9986 202.1 50.9986C202.089 50.9986 202.081 51.0099 202.074 51.0174C202.044 51.0324 202.018 51.0474 201.995 51.0661C201.98 51.0774 201.969 51.0886 201.957 51.1036C201.935 51.1261 201.92 51.1524 201.905 51.1824C201.901 51.1936 201.89 51.2011 201.886 51.2124C201.159 53.1249 200.409 62.9461 200.379 63.3624V63.3661V63.3849L200.375 63.3886ZM206.533 50.9574C206.574 50.9499 206.615 50.9424 206.66 50.9349C207.151 50.8449 207.661 50.7549 208.182 50.6574C208.197 51.0436 208.227 51.4411 208.273 51.8536C206.499 52.1986 205.344 52.3899 204.837 52.4199L203.281 51.5274C204.054 51.3924 205.213 51.1936 206.536 50.9536L206.533 50.9574ZM208.16 49.9224C207.995 49.9524 207.83 49.9824 207.665 50.0124C207.823 48.8986 208.081 48.0099 208.422 47.3911C208.246 48.1261 208.156 48.9736 208.156 49.9224H208.16ZM203.416 61.4686L205.674 65.0724C204.504 64.6261 202.584 63.8761 201.38 63.3061L203.42 61.4724L203.416 61.4686ZM203.859 60.8049V52.7011L204.406 53.0161C204.552 54.4261 205.201 60.4861 205.749 63.8236L203.859 60.8086V60.8049ZM202.438 51.8874L203.131 52.2849V60.7486L201.17 62.5149C201.361 60.1749 201.905 53.9724 202.434 51.8874H202.438ZM206.806 65.4511C206.405 64.1761 205.606 57.5086 205.145 53.1286C205.76 53.0611 206.803 52.8849 208.351 52.5811C208.475 53.4549 208.621 54.1336 208.707 54.5049C208.831 54.9849 209.262 55.3224 209.757 55.3224C209.847 55.3224 209.938 55.3111 210.024 55.2886C210.597 55.1424 210.954 54.5574 210.811 53.9761C210.688 53.4774 210.568 52.8174 210.477 52.1499C212.142 51.8049 214.108 51.3849 216.331 50.8899C216.519 51.5536 216.68 52.2474 216.796 52.9111C216.796 52.9261 216.8 52.9374 216.804 52.9486C216.845 53.2336 216.995 53.4849 217.227 53.6574C217.46 53.8299 217.741 53.9049 218.03 53.8599C218.319 53.8186 218.57 53.6649 218.743 53.4324C218.915 53.1999 218.986 52.9149 218.945 52.6299C218.93 52.5211 218.791 51.6099 218.454 50.4099C219.481 50.1774 220.287 49.9936 220.722 49.8924C221.045 51.4449 222.305 57.6174 222.856 61.7649C218.761 62.9161 208.955 65.5261 206.802 65.4399L206.806 65.4511ZM211.805 46.1161C211.839 46.1049 211.869 46.0899 211.903 46.0824C212.007 46.0524 212.12 46.0261 212.236 46.0111C212.263 46.0111 212.292 46.0111 212.319 46.0074C212.911 46.6636 213.395 47.6049 213.755 48.8161C213.736 48.8199 213.714 48.8236 213.695 48.8311C213.523 48.8686 213.342 48.9061 213.159 48.9474C212.773 47.6799 212.236 46.7724 211.565 46.2286C211.58 46.2211 211.591 46.2136 211.602 46.2061C211.666 46.1724 211.734 46.1461 211.805 46.1199V46.1161ZM210.403 51.4261C210.365 51.0286 210.339 50.6349 210.331 50.2524C211.318 50.0611 212.199 49.8849 212.971 49.7236H212.979C213.069 49.7049 213.155 49.6861 213.245 49.6674C213.372 49.6411 213.492 49.6149 213.612 49.5886C213.627 49.5886 213.642 49.5811 213.657 49.5774C213.815 49.5436 213.969 49.5099 214.115 49.4761C214.171 49.4649 214.231 49.4499 214.287 49.4386C214.842 49.3149 215.319 49.2024 215.709 49.1011C215.851 49.4349 215.99 49.7986 216.118 50.1886C213.95 50.6724 212.03 51.0849 210.399 51.4224L210.403 51.4261ZM214.464 48.6586C214.171 47.6649 213.8 46.8286 213.35 46.1574C214.111 46.4724 214.801 47.2374 215.401 48.4336C215.127 48.5011 214.813 48.5761 214.46 48.6586H214.464ZM211.003 46.7424C211.003 46.7424 211.014 46.7311 211.017 46.7236C211.599 47.1474 212.086 47.9574 212.443 49.0936C211.805 49.2249 211.1 49.3636 210.328 49.5136C210.369 48.2799 210.597 47.3236 211.003 46.7424ZM218.24 49.7236C218.154 49.4611 218.068 49.2024 217.974 48.9511L219.575 49.4236C219.193 49.5099 218.743 49.6149 218.244 49.7274L218.24 49.7236ZM212.071 44.5861C212.229 44.5674 212.382 44.5599 212.536 44.5599C214.378 44.5599 215.885 45.8949 217.029 48.5386C217.257 49.0786 217.468 49.6599 217.651 50.2599C218.052 51.5874 218.21 52.6299 218.225 52.7461C218.24 52.8399 218.214 52.9336 218.157 53.0124C218.101 53.0874 218.019 53.1399 217.921 53.1511C217.827 53.1661 217.737 53.1399 217.659 53.0836C217.584 53.0274 217.535 52.9449 217.52 52.8474C217.52 52.8361 217.513 52.8061 217.513 52.7949C217.374 51.9886 217.175 51.1486 216.935 50.3574C216.721 49.6674 216.5 49.0711 216.249 48.5274C215.266 46.3674 214.01 45.2724 212.517 45.2724C212.499 45.2724 212.484 45.2724 212.465 45.2724C212.364 45.2649 212.255 45.2799 212.15 45.2911C211.554 45.3624 211.055 45.5986 210.68 45.9924C210.68 45.9924 210.68 45.9924 210.676 45.9961C210.579 46.0936 210.489 46.2061 210.403 46.3261C209.859 47.1099 209.585 48.3324 209.589 49.9561C209.589 50.5824 209.634 51.2386 209.712 51.9061C209.806 52.7049 209.953 53.5449 210.106 54.1486C210.151 54.3399 210.035 54.5311 209.847 54.5799C209.671 54.6249 209.461 54.5086 209.413 54.3099C209.341 53.9986 209.158 53.1624 209.023 52.1011C208.94 51.4374 208.895 50.8036 208.884 50.2149C208.85 48.5386 209.094 47.2111 209.604 46.2699C209.682 46.1236 209.746 46.0186 209.818 45.9174C209.889 45.8124 209.968 45.7149 210.046 45.6211C210.286 45.3436 210.564 45.1186 210.868 44.9499C211.227 44.7549 211.629 44.6274 212.071 44.5786V44.5861ZM207.774 45.9586C208.299 45.3399 208.944 44.9986 209.698 44.9349C209.653 44.9799 209.611 45.0286 209.566 45.0774C209.536 45.1111 209.506 45.1411 209.476 45.1749C209.386 45.2799 209.3 45.3924 209.217 45.5086C209.18 45.5611 209.142 45.6211 209.105 45.6811C209.094 45.6999 209.083 45.7186 209.071 45.7374C209.056 45.7636 209.041 45.7861 209.026 45.8124C208.715 45.9474 208.434 46.1611 208.182 46.4499C207.549 47.1924 207.121 48.4374 206.908 50.1549C206.758 50.1811 206.611 50.2074 206.461 50.2374C206.405 50.2486 206.349 50.2561 206.293 50.2674C206.51 48.3211 207.016 46.8399 207.77 45.9624L207.774 45.9586Z" fill="white"/>
<path d="M216.514 57.3254C216.158 57.0217 215.64 56.8567 214.984 56.8267L213.975 56.7854C213.645 56.7704 213.552 56.7104 213.54 56.7029C213.529 56.6954 213.507 56.6804 213.507 56.5979C213.507 56.5154 213.518 56.3879 213.668 56.2417C213.799 56.1142 214.005 56.0204 214.275 55.9717C214.515 55.9267 214.714 55.9117 214.868 55.9304C215.033 55.9492 215.19 55.9792 215.322 56.0204C215.558 56.0954 215.775 56.0992 215.967 56.0279C216.15 55.9604 216.297 55.8442 216.402 55.6867C216.499 55.5442 216.555 55.3867 216.574 55.2142C216.593 55.0304 216.559 54.8579 216.473 54.6967C216.383 54.5242 216.24 54.3967 216.072 54.3254C215.82 54.1979 215.532 54.1154 215.213 54.0817C215.13 54.0742 215.052 54.0667 214.969 54.0629L214.958 53.8904C214.943 53.6467 214.842 53.4404 214.658 53.2942C214.474 53.1479 214.249 53.0954 214.009 53.1367C213.777 53.1779 213.578 53.2942 213.432 53.4779C213.285 53.6617 213.21 53.8754 213.222 54.1042L213.233 54.3854C212.978 54.4904 212.745 54.6217 212.543 54.7754C212.198 55.0342 211.924 55.3454 211.729 55.7054C211.527 56.0804 211.425 56.4892 211.425 56.9204C211.425 57.5129 211.605 57.9854 211.954 58.3192C212.299 58.6492 212.809 58.8292 213.469 58.8592L214.5 58.9042C214.718 58.9117 214.838 58.9379 214.902 58.9642C214.984 58.9942 215.003 59.0204 215.007 59.0242C215.025 59.0542 215.04 59.0954 215.044 59.1517C215.052 59.2342 215.033 59.3092 214.995 59.3842C214.954 59.4592 214.875 59.5379 214.759 59.6092C214.624 59.6954 214.433 59.7629 214.185 59.8117C213.837 59.8829 213.54 59.8979 213.304 59.8642C213.057 59.8267 212.865 59.7817 212.734 59.7292C212.415 59.6092 212.172 59.6692 212.022 59.7404C211.834 59.8304 211.68 59.9692 211.568 60.1567C211.463 60.3329 211.399 60.5242 211.38 60.7267C211.362 60.9367 211.392 61.1354 211.47 61.3229C211.564 61.5442 211.74 61.7054 211.969 61.7879C212.22 61.8892 212.524 61.9604 212.892 62.0092C213.079 62.0354 213.282 62.0392 213.503 62.0317L213.514 62.3242C213.525 62.6092 213.627 62.8529 213.814 63.0292C213.972 63.1792 214.17 63.2579 214.384 63.2579C214.448 63.2579 214.512 63.2504 214.575 63.2392C214.842 63.1829 215.063 63.0292 215.217 62.7892C215.359 62.5679 215.427 62.3204 215.408 62.0542L215.382 61.5967C215.674 61.4579 215.937 61.2854 216.162 61.0904C216.51 60.7904 216.777 60.4304 216.953 60.0217C217.129 59.6167 217.197 59.1742 217.155 58.7129C217.103 58.1167 216.885 57.6554 216.51 57.3367L216.514 57.3254ZM216.289 59.7179C216.154 60.0254 215.955 60.2954 215.689 60.5242C215.464 60.7192 215.187 60.8842 214.872 61.0117C214.725 61.0717 214.635 61.2142 214.647 61.3679L214.688 62.0767C214.695 62.1892 214.669 62.2867 214.609 62.3767C214.545 62.4742 214.478 62.4967 214.429 62.5079C214.358 62.5229 214.335 62.5042 214.317 62.4854C214.287 62.4592 214.249 62.4067 214.242 62.2829L214.219 61.6117C214.219 61.5104 214.17 61.4129 214.092 61.3492C214.024 61.2929 213.942 61.2629 213.855 61.2629C213.84 61.2629 213.825 61.2629 213.81 61.2629C213.495 61.3004 213.222 61.3042 212.989 61.2742C212.685 61.2329 212.434 61.1729 212.228 61.0942C212.164 61.0717 212.149 61.0454 212.138 61.0192C212.108 60.9479 212.097 60.8654 212.104 60.7754C212.112 60.6817 212.138 60.5992 212.187 60.5204C212.228 60.4529 212.273 60.4117 212.333 60.3817C212.363 60.3667 212.412 60.3704 212.464 60.3929C212.644 60.4642 212.884 60.5242 213.192 60.5692C213.51 60.6179 213.889 60.5992 214.32 60.5129C214.658 60.4454 214.928 60.3479 215.138 60.2129C215.363 60.0704 215.528 59.9017 215.629 59.7142C215.73 59.5192 215.775 59.3129 215.76 59.0954C215.749 58.9079 215.693 58.7392 215.595 58.6004C215.494 58.4504 215.337 58.3417 215.134 58.2704C214.969 58.2104 214.763 58.1804 214.515 58.1729L213.488 58.1279C213.012 58.1092 212.659 57.9929 212.445 57.7904C212.243 57.5954 212.142 57.3104 212.142 56.9167C212.142 56.6017 212.213 56.3167 212.359 56.0467C212.505 55.7767 212.708 55.5479 212.97 55.3492C213.18 55.1917 213.428 55.0642 213.713 54.9704C213.867 54.9179 213.968 54.7754 213.96 54.6142L213.942 54.0704C213.942 54.0179 213.957 53.9729 213.994 53.9279C214.032 53.8829 214.073 53.8567 214.129 53.8492C214.178 53.8417 214.189 53.8492 214.2 53.8567C214.212 53.8679 214.227 53.8754 214.227 53.9242L214.257 54.4454C214.268 54.6442 214.44 54.7979 214.639 54.7867C214.819 54.7754 214.973 54.7792 215.13 54.7979C215.359 54.8204 215.562 54.8804 215.753 54.9742C215.809 54.9967 215.82 55.0229 215.828 55.0342C215.847 55.0679 215.854 55.1017 215.847 55.1392C215.843 55.1917 215.824 55.2367 215.794 55.2817C215.779 55.3042 215.757 55.3267 215.708 55.3492C215.697 55.3529 215.652 55.3642 215.539 55.3304C215.355 55.2742 215.157 55.2367 214.943 55.2142C214.718 55.1917 214.455 55.2067 214.144 55.2629C213.728 55.3379 213.398 55.4954 213.162 55.7242C212.903 55.9754 212.772 56.2867 212.779 56.6204C212.79 56.9879 212.97 57.1942 213.117 57.2992C213.3 57.4304 213.559 57.4979 213.942 57.5167L214.95 57.5579C215.445 57.5804 215.813 57.6929 216.045 57.8879C216.27 58.0792 216.402 58.3679 216.435 58.7729C216.465 59.1179 216.417 59.4292 216.289 59.7254V59.7179Z" fill="white"/>
</g>
<path d="M262.141 35.2891C262.055 34.4827 261.692 33.8549 261.052 33.4055C260.418 32.9562 259.593 32.7315 258.577 32.7315C257.863 32.7315 257.251 32.8393 256.74 33.0547C256.229 33.2701 255.838 33.5625 255.567 33.9318C255.297 34.3011 255.158 34.7228 255.152 35.1967C255.152 35.5907 255.241 35.9323 255.42 36.2216C255.604 36.5109 255.854 36.7571 256.168 36.9602C256.482 37.1572 256.829 37.3234 257.211 37.4588C257.593 37.5942 257.977 37.7081 258.365 37.8004L260.138 38.2436C260.852 38.4098 261.538 38.6345 262.197 38.9176C262.862 39.2008 263.455 39.5578 263.979 39.9886C264.508 40.4195 264.927 40.9396 265.234 41.549C265.542 42.1584 265.696 42.8724 265.696 43.6911C265.696 44.799 265.413 45.7746 264.847 46.6179C264.28 47.455 263.462 48.1106 262.391 48.5845C261.326 49.0523 260.036 49.2862 258.522 49.2862C257.051 49.2862 255.774 49.0585 254.69 48.603C253.613 48.1475 252.77 47.4827 252.161 46.6087C251.557 45.7346 251.231 44.6697 251.182 43.4141H254.552C254.601 44.0727 254.804 44.6205 255.161 45.0575C255.518 45.4946 255.983 45.8208 256.555 46.0362C257.134 46.2517 257.78 46.3594 258.494 46.3594C259.239 46.3594 259.892 46.2486 260.452 46.027C261.018 45.7992 261.461 45.4853 261.781 45.0852C262.101 44.679 262.264 44.205 262.271 43.6634C262.264 43.1709 262.12 42.7647 261.837 42.4446C261.554 42.1184 261.156 41.8475 260.646 41.6321C260.141 41.4105 259.55 41.2135 258.873 41.0412L256.722 40.4872C255.164 40.0871 253.933 39.4808 253.028 38.6683C252.13 37.8497 251.68 36.7633 251.68 35.4091C251.68 34.295 251.982 33.3194 252.585 32.4822C253.195 31.6451 254.022 30.9957 255.069 30.5341C256.115 30.0663 257.3 29.8324 258.624 29.8324C259.965 29.8324 261.141 30.0663 262.151 30.5341C263.166 30.9957 263.963 31.639 264.542 32.4638C265.121 33.2824 265.419 34.2242 265.438 35.2891H262.141ZM272.683 49.2862C271.784 49.2862 270.975 49.1262 270.255 48.8061C269.541 48.4799 268.974 47.9998 268.556 47.3658C268.144 46.7318 267.937 45.95 267.937 45.0206C267.937 44.2204 268.085 43.5587 268.381 43.0355C268.676 42.5123 269.079 42.0938 269.59 41.7798C270.101 41.4659 270.676 41.2289 271.317 41.0689C271.963 40.9027 272.631 40.7827 273.32 40.7088C274.151 40.6226 274.825 40.5457 275.342 40.478C275.859 40.4041 276.235 40.2933 276.469 40.1456C276.709 39.9917 276.829 39.7547 276.829 39.4347V39.3793C276.829 38.6837 276.622 38.1451 276.21 37.7635C275.798 37.3819 275.204 37.1911 274.428 37.1911C273.609 37.1911 272.96 37.3696 272.48 37.7266C272.006 38.0836 271.686 38.5052 271.52 38.9915L268.399 38.5483C268.645 37.6866 269.051 36.9664 269.618 36.3878C270.184 35.803 270.876 35.366 271.695 35.0767C272.514 34.7812 273.419 34.6335 274.41 34.6335C275.093 34.6335 275.773 34.7135 276.45 34.8736C277.127 35.0336 277.746 35.2983 278.306 35.6676C278.866 36.0308 279.315 36.5263 279.654 37.1541C279.999 37.782 280.171 38.5668 280.171 39.5085V49H276.958V47.0518H276.847C276.644 47.4458 276.358 47.8151 275.988 48.1598C275.625 48.4983 275.167 48.7723 274.613 48.9815C274.065 49.1847 273.422 49.2862 272.683 49.2862ZM273.551 46.8303C274.222 46.8303 274.804 46.6979 275.296 46.4332C275.788 46.1624 276.167 45.8054 276.432 45.3622C276.702 44.919 276.838 44.4358 276.838 43.9126V42.2415C276.733 42.3277 276.555 42.4077 276.302 42.4815C276.056 42.5554 275.779 42.62 275.471 42.6754C275.164 42.7308 274.859 42.7801 274.557 42.8232C274.256 42.8662 273.994 42.9032 273.773 42.9339C273.274 43.0017 272.828 43.1125 272.434 43.2663C272.04 43.4202 271.729 43.6357 271.501 43.9126C271.273 44.1835 271.16 44.5343 271.16 44.9652C271.16 45.5807 271.384 46.0455 271.834 46.3594C272.283 46.6733 272.855 46.8303 273.551 46.8303ZM286.874 30.0909V49H283.532V30.0909H286.874ZM294.392 49.2862C293.493 49.2862 292.684 49.1262 291.964 48.8061C291.25 48.4799 290.683 47.9998 290.265 47.3658C289.853 46.7318 289.646 45.95 289.646 45.0206C289.646 44.2204 289.794 43.5587 290.089 43.0355C290.385 42.5123 290.788 42.0938 291.299 41.7798C291.81 41.4659 292.385 41.2289 293.026 41.0689C293.672 40.9027 294.34 40.7827 295.029 40.7088C295.86 40.6226 296.534 40.5457 297.051 40.478C297.568 40.4041 297.944 40.2933 298.178 40.1456C298.418 39.9917 298.538 39.7547 298.538 39.4347V39.3793C298.538 38.6837 298.331 38.1451 297.919 37.7635C297.507 37.3819 296.913 37.1911 296.137 37.1911C295.318 37.1911 294.669 37.3696 294.189 37.7266C293.715 38.0836 293.395 38.5052 293.229 38.9915L290.108 38.5483C290.354 37.6866 290.76 36.9664 291.327 36.3878C291.893 35.803 292.585 35.366 293.404 35.0767C294.223 34.7812 295.128 34.6335 296.119 34.6335C296.802 34.6335 297.482 34.7135 298.159 34.8736C298.836 35.0336 299.455 35.2983 300.015 35.6676C300.575 36.0308 301.024 36.5263 301.363 37.1541C301.708 37.782 301.88 38.5668 301.88 39.5085V49H298.667V47.0518H298.556C298.353 47.4458 298.067 47.8151 297.697 48.1598C297.334 48.4983 296.876 48.7723 296.322 48.9815C295.774 49.1847 295.131 49.2862 294.392 49.2862ZM295.26 46.8303C295.931 46.8303 296.513 46.6979 297.005 46.4332C297.497 46.1624 297.876 45.8054 298.141 45.3622C298.411 44.919 298.547 44.4358 298.547 43.9126V42.2415C298.442 42.3277 298.264 42.4077 298.011 42.4815C297.765 42.5554 297.488 42.62 297.18 42.6754C296.873 42.7308 296.568 42.7801 296.266 42.8232C295.965 42.8662 295.703 42.9032 295.482 42.9339C294.983 43.0017 294.537 43.1125 294.143 43.2663C293.749 43.4202 293.438 43.6357 293.21 43.9126C292.982 44.1835 292.869 44.5343 292.869 44.9652C292.869 45.5807 293.093 46.0455 293.543 46.3594C293.992 46.6733 294.564 46.8303 295.26 46.8303ZM316.953 49.2493C315.839 49.2493 314.842 48.9631 313.961 48.3906C313.081 47.8182 312.386 46.9872 311.875 45.8977C311.364 44.8082 311.108 43.4848 311.108 41.9276C311.108 40.3518 311.367 39.0223 311.884 37.9389C312.407 36.8494 313.112 36.0277 313.998 35.4737C314.885 34.9136 315.873 34.6335 316.962 34.6335C317.793 34.6335 318.476 34.7751 319.012 35.0582C319.547 35.3352 319.972 35.6707 320.286 36.0646C320.6 36.4524 320.843 36.8187 321.015 37.1634H321.154V30.0909H324.505V49H321.218V46.7656H321.015C320.843 47.1103 320.594 47.4766 320.267 47.8643C319.941 48.246 319.51 48.5722 318.975 48.843C318.439 49.1139 317.765 49.2493 316.953 49.2493ZM317.885 46.5071C318.593 46.5071 319.196 46.3163 319.695 45.9347C320.194 45.5469 320.572 45.0083 320.831 44.3189C321.089 43.6295 321.218 42.8262 321.218 41.9091C321.218 40.992 321.089 40.1948 320.831 39.5178C320.578 38.8407 320.203 38.3144 319.704 37.9389C319.212 37.5634 318.605 37.3757 317.885 37.3757C317.141 37.3757 316.519 37.5696 316.02 37.9574C315.522 38.3452 315.146 38.8807 314.894 39.5639C314.641 40.2472 314.515 41.0289 314.515 41.9091C314.515 42.7955 314.641 43.5864 314.894 44.282C315.152 44.9714 315.531 45.5161 316.029 45.9162C316.534 46.3101 317.153 46.5071 317.885 46.5071ZM334.345 49.277C332.923 49.277 331.695 48.9815 330.661 48.3906C329.633 47.7936 328.843 46.9503 328.289 45.8608C327.735 44.7652 327.458 43.4756 327.458 41.9922C327.458 40.5334 327.735 39.2531 328.289 38.1513C328.849 37.0433 329.63 36.1816 330.634 35.5661C331.637 34.9444 332.816 34.6335 334.17 34.6335C335.044 34.6335 335.869 34.7751 336.644 35.0582C337.426 35.3352 338.115 35.7661 338.713 36.3509C339.316 36.9356 339.79 37.6804 340.134 38.5852C340.479 39.4839 340.651 40.5549 340.651 41.7983V42.8232H329.027V40.5703H337.448C337.441 39.9302 337.303 39.3608 337.032 38.8622C336.761 38.3575 336.383 37.9605 335.896 37.6712C335.416 37.3819 334.856 37.2372 334.216 37.2372C333.533 37.2372 332.933 37.4034 332.416 37.7358C331.899 38.062 331.495 38.4929 331.206 39.0284C330.923 39.5578 330.778 40.1394 330.772 40.7734V42.7401C330.772 43.5649 330.923 44.2727 331.225 44.8636C331.526 45.4484 331.948 45.8977 332.49 46.2116C333.031 46.5194 333.665 46.6733 334.392 46.6733C334.878 46.6733 335.318 46.6056 335.712 46.4702C336.106 46.3286 336.447 46.1224 336.737 45.8516C337.026 45.5807 337.244 45.2453 337.392 44.8452L340.513 45.196C340.316 46.0208 339.941 46.741 339.387 47.3565C338.839 47.9659 338.137 48.4399 337.281 48.7784C336.426 49.1108 335.447 49.277 334.345 49.277ZM352.606 30.0909L357.527 44.9744H357.721L362.633 30.0909H366.4L359.734 49H355.505L348.848 30.0909H352.606ZM373.498 49.277C372.076 49.277 370.848 48.9815 369.814 48.3906C368.786 47.7936 367.995 46.9503 367.441 45.8608C366.887 44.7652 366.61 43.4756 366.61 41.9922C366.61 40.5334 366.887 39.2531 367.441 38.1513C368.001 37.0433 368.783 36.1816 369.786 35.5661C370.789 34.9444 371.968 34.6335 373.322 34.6335C374.196 34.6335 375.021 34.7751 375.797 35.0582C376.578 35.3352 377.268 35.7661 377.865 36.3509C378.468 36.9356 378.942 37.6804 379.287 38.5852C379.631 39.4839 379.804 40.5549 379.804 41.7983V42.8232H368.18V40.5703H376.6C376.594 39.9302 376.455 39.3608 376.184 38.8622C375.914 38.3575 375.535 37.9605 375.049 37.6712C374.569 37.3819 374.009 37.2372 373.368 37.2372C372.685 37.2372 372.085 37.4034 371.568 37.7358C371.051 38.062 370.648 38.4929 370.358 39.0284C370.075 39.5578 369.931 40.1394 369.925 40.7734V42.7401C369.925 43.5649 370.075 44.2727 370.377 44.8636C370.679 45.4484 371.1 45.8977 371.642 46.2116C372.184 46.5194 372.818 46.6733 373.544 46.6733C374.03 46.6733 374.47 46.6056 374.864 46.4702C375.258 46.3286 375.6 46.1224 375.889 45.8516C376.178 45.5807 376.397 45.2453 376.545 44.8452L379.665 45.196C379.468 46.0208 379.093 46.741 378.539 47.3565C377.991 47.9659 377.289 48.4399 376.434 48.7784C375.578 49.1108 374.599 49.277 373.498 49.277ZM385.974 40.6903V49H382.631V34.8182H385.826V37.228H385.992C386.318 36.4339 386.839 35.803 387.553 35.3352C388.273 34.8674 389.162 34.6335 390.221 34.6335C391.2 34.6335 392.052 34.8428 392.778 35.2614C393.511 35.6799 394.077 36.2862 394.477 37.0803C394.884 37.8743 395.084 38.8376 395.077 39.9702V49H391.735V40.4872C391.735 39.5393 391.489 38.7976 390.996 38.2621C390.51 37.7266 389.836 37.4588 388.974 37.4588C388.39 37.4588 387.87 37.5881 387.414 37.8466C386.965 38.099 386.611 38.4652 386.352 38.9453C386.1 39.4254 385.974 40.0071 385.974 40.6903ZM405.557 34.8182V37.4034H397.404V34.8182H405.557ZM399.417 31.4205H402.759V44.7344C402.759 45.1837 402.827 45.5284 402.962 45.7685C403.104 46.0024 403.289 46.1624 403.516 46.2486C403.744 46.3348 403.996 46.3778 404.273 46.3778C404.483 46.3778 404.674 46.3625 404.846 46.3317C405.024 46.3009 405.16 46.2732 405.252 46.2486L405.815 48.8615C405.637 48.9231 405.381 48.9908 405.049 49.0646C404.723 49.1385 404.323 49.1816 403.849 49.1939C403.012 49.2185 402.258 49.0923 401.587 48.8153C400.916 48.5322 400.383 48.0952 399.989 47.5043C399.602 46.9134 399.411 46.1747 399.417 45.2884V31.4205ZM412.433 49.2862C411.534 49.2862 410.725 49.1262 410.005 48.8061C409.291 48.4799 408.724 47.9998 408.306 47.3658C407.894 46.7318 407.687 45.95 407.687 45.0206C407.687 44.2204 407.835 43.5587 408.131 43.0355C408.426 42.5123 408.829 42.0938 409.34 41.7798C409.851 41.4659 410.426 41.2289 411.067 41.0689C411.713 40.9027 412.381 40.7827 413.07 40.7088C413.901 40.6226 414.575 40.5457 415.092 40.478C415.609 40.4041 415.985 40.2933 416.219 40.1456C416.459 39.9917 416.579 39.7547 416.579 39.4347V39.3793C416.579 38.6837 416.372 38.1451 415.96 37.7635C415.548 37.3819 414.954 37.1911 414.178 37.1911C413.359 37.1911 412.71 37.3696 412.23 37.7266C411.756 38.0836 411.436 38.5052 411.27 38.9915L408.149 38.5483C408.395 37.6866 408.801 36.9664 409.368 36.3878C409.934 35.803 410.626 35.366 411.445 35.0767C412.264 34.7812 413.169 34.6335 414.16 34.6335C414.843 34.6335 415.523 34.7135 416.2 34.8736C416.877 35.0336 417.496 35.2983 418.056 35.6676C418.616 36.0308 419.065 36.5263 419.404 37.1541C419.749 37.782 419.921 38.5668 419.921 39.5085V49H416.708V47.0518H416.597C416.394 47.4458 416.108 47.8151 415.738 48.1598C415.375 48.4983 414.917 48.7723 414.363 48.9815C413.815 49.1847 413.172 49.2862 412.433 49.2862ZM413.301 46.8303C413.972 46.8303 414.554 46.6979 415.046 46.4332C415.538 46.1624 415.917 45.8054 416.182 45.3622C416.452 44.919 416.588 44.4358 416.588 43.9126V42.2415C416.483 42.3277 416.305 42.4077 416.052 42.4815C415.806 42.5554 415.529 42.62 415.221 42.6754C414.914 42.7308 414.609 42.7801 414.307 42.8232C414.006 42.8662 413.744 42.9032 413.523 42.9339C413.024 43.0017 412.578 43.1125 412.184 43.2663C411.79 43.4202 411.479 43.6357 411.251 43.9126C411.023 44.1835 410.91 44.5343 410.91 44.9652C410.91 45.5807 411.134 46.0455 411.584 46.3594C412.033 46.6733 412.605 46.8303 413.301 46.8303ZM434.491 38.5668L431.444 38.8991C431.358 38.5914 431.207 38.3021 430.991 38.0312C430.782 37.7604 430.499 37.5419 430.142 37.3757C429.785 37.2095 429.348 37.1264 428.831 37.1264C428.135 37.1264 427.55 37.2772 427.077 37.5788C426.609 37.8804 426.378 38.2713 426.384 38.7514C426.378 39.1638 426.529 39.4993 426.836 39.7578C427.15 40.0163 427.667 40.2287 428.388 40.3949L430.807 40.9119C432.148 41.2012 433.146 41.6598 433.798 42.2876C434.457 42.9155 434.789 43.7372 434.795 44.7528C434.789 45.6454 434.528 46.4332 434.01 47.1165C433.5 47.7936 432.789 48.3229 431.878 48.7045C430.967 49.0862 429.92 49.277 428.738 49.277C427.003 49.277 425.605 48.9138 424.547 48.1875C423.488 47.455 422.857 46.4363 422.654 45.1314L425.913 44.8175C426.061 45.4576 426.375 45.9408 426.855 46.267C427.335 46.5933 427.96 46.7564 428.729 46.7564C429.523 46.7564 430.16 46.5933 430.64 46.267C431.127 45.9408 431.37 45.5376 431.37 45.0575C431.37 44.6513 431.213 44.3158 430.899 44.0511C430.591 43.7865 430.111 43.5833 429.459 43.4418L427.04 42.9339C425.679 42.6508 424.673 42.1738 424.02 41.5028C423.368 40.8258 423.045 39.9702 423.051 38.9361C423.045 38.062 423.282 37.3049 423.762 36.6648C424.248 36.0185 424.922 35.5199 425.784 35.169C426.652 34.812 427.652 34.6335 428.785 34.6335C430.447 34.6335 431.755 34.9875 432.709 35.6953C433.669 36.4032 434.263 37.3603 434.491 38.5668ZM251.865 80V61.0909H255.29V69.7791H255.521L262.898 61.0909H267.081L259.768 69.576L267.146 80H263.028L257.386 71.8935L255.29 74.3679V80H251.865ZM269.461 61.0909H273.653L279.266 74.7926H279.488L285.101 61.0909H289.293V80H286.006V67.0092H285.831L280.605 79.9446H278.149L272.923 66.9815H272.748V80H269.461V61.0909ZM298.946 76.4915V73.7678L306.97 61.0909H309.241V64.9688H307.856L302.455 73.5277V73.6754H313.654V76.4915H298.946ZM307.967 80V75.6605L308.004 74.4418V61.0909H311.235V80H307.967ZM339.423 67.4709H335.97C335.872 66.9046 335.69 66.4029 335.426 65.9659C335.161 65.5227 334.832 65.1473 334.438 64.8395C334.044 64.5317 333.594 64.3009 333.09 64.147C332.591 63.987 332.052 63.907 331.474 63.907C330.446 63.907 329.535 64.1655 328.741 64.6825C327.947 65.1934 327.325 65.9444 326.876 66.9354C326.427 67.9202 326.202 69.1236 326.202 70.5455C326.202 71.992 326.427 73.2107 326.876 74.2017C327.331 75.1866 327.953 75.9313 328.741 76.4361C329.535 76.9347 330.443 77.1839 331.465 77.1839C332.031 77.1839 332.56 77.1101 333.053 76.9624C333.551 76.8085 333.998 76.5838 334.392 76.2884C334.792 75.9929 335.127 75.6297 335.398 75.1989C335.675 74.768 335.866 74.2756 335.97 73.7216L339.423 73.7401C339.294 74.6387 339.014 75.482 338.583 76.2699C338.159 77.0578 337.602 77.7533 336.912 78.3565C336.223 78.9536 335.416 79.4214 334.493 79.7599C333.57 80.0923 332.545 80.2585 331.419 80.2585C329.757 80.2585 328.273 79.8738 326.968 79.1044C325.663 78.335 324.635 77.224 323.884 75.7713C323.133 74.3187 322.758 72.5767 322.758 70.5455C322.758 68.508 323.137 66.7661 323.894 65.3196C324.651 63.867 325.682 62.7559 326.987 61.9865C328.292 61.2171 329.769 60.8324 331.419 60.8324C332.471 60.8324 333.45 60.9801 334.355 61.2756C335.259 61.571 336.066 62.005 336.774 62.5774C337.481 63.1437 338.063 63.8393 338.519 64.6641C338.98 65.4827 339.282 66.4183 339.423 67.4709ZM346.494 80.2862C345.595 80.2862 344.786 80.1262 344.065 79.8061C343.351 79.4799 342.785 78.9998 342.366 78.3658C341.954 77.7318 341.748 76.95 341.748 76.0206C341.748 75.2204 341.896 74.5587 342.191 74.0355C342.487 73.5123 342.89 73.0938 343.401 72.7798C343.911 72.4659 344.487 72.2289 345.127 72.0689C345.773 71.9027 346.441 71.7827 347.131 71.7088C347.962 71.6226 348.636 71.5457 349.153 71.478C349.67 71.4041 350.045 71.2933 350.279 71.1456C350.519 70.9917 350.639 70.7547 350.639 70.4347V70.3793C350.639 69.6837 350.433 69.1451 350.021 68.7635C349.608 68.3819 349.014 68.1911 348.239 68.1911C347.42 68.1911 346.771 68.3696 346.29 68.7266C345.817 69.0836 345.496 69.5052 345.33 69.9915L342.21 69.5483C342.456 68.6866 342.862 67.9664 343.428 67.3878C343.995 66.803 344.687 66.366 345.506 66.0767C346.324 65.7812 347.229 65.6335 348.22 65.6335C348.903 65.6335 349.584 65.7135 350.261 65.8736C350.938 66.0336 351.556 66.2983 352.116 66.6676C352.677 67.0308 353.126 67.5263 353.464 68.1541C353.809 68.782 353.982 69.5668 353.982 70.5085V80H350.768V78.0518H350.658C350.455 78.4458 350.168 78.8151 349.799 79.1598C349.436 79.4983 348.977 79.7723 348.423 79.9815C347.875 80.1847 347.232 80.2862 346.494 80.2862ZM347.362 77.8303C348.032 77.8303 348.614 77.6979 349.107 77.4332C349.599 77.1624 349.978 76.8054 350.242 76.3622C350.513 75.919 350.648 75.4358 350.648 74.9126V73.2415C350.544 73.3277 350.365 73.4077 350.113 73.4815C349.867 73.5554 349.59 73.62 349.282 73.6754C348.974 73.7308 348.67 73.7801 348.368 73.8232C348.066 73.8662 347.805 73.9032 347.583 73.9339C347.085 74.0017 346.638 74.1125 346.244 74.2663C345.85 74.4202 345.54 74.6357 345.312 74.9126C345.084 75.1835 344.97 75.5343 344.97 75.9652C344.97 76.5807 345.195 77.0455 345.644 77.3594C346.094 77.6733 346.666 77.8303 347.362 77.8303ZM357.342 80V65.8182H360.583V68.1818H360.731C360.989 67.3632 361.433 66.7322 362.06 66.2891C362.694 65.8397 363.418 65.6151 364.23 65.6151C364.415 65.6151 364.621 65.6243 364.849 65.6428C365.083 65.6551 365.277 65.6766 365.43 65.7074V68.782C365.289 68.7327 365.064 68.6896 364.756 68.6527C364.455 68.6096 364.162 68.5881 363.879 68.5881C363.27 68.5881 362.722 68.7204 362.236 68.9851C361.756 69.2436 361.377 69.6037 361.1 70.0653C360.823 70.527 360.685 71.0594 360.685 71.6626V80H357.342ZM367.651 80V65.8182H370.892V68.1818H371.039C371.298 67.3632 371.741 66.7322 372.369 66.2891C373.003 65.8397 373.726 65.6151 374.539 65.6151C374.723 65.6151 374.93 65.6243 375.157 65.6428C375.391 65.6551 375.585 65.6766 375.739 65.7074V68.782C375.597 68.7327 375.373 68.6896 375.065 68.6527C374.763 68.6096 374.471 68.5881 374.188 68.5881C373.578 68.5881 373.031 68.7204 372.544 68.9851C372.064 69.2436 371.686 69.6037 371.409 70.0653C371.132 70.527 370.993 71.0594 370.993 71.6626V80H367.651ZM383.654 80.277C382.232 80.277 381.004 79.9815 379.97 79.3906C378.942 78.7936 378.151 77.9503 377.597 76.8608C377.043 75.7652 376.766 74.4756 376.766 72.9922C376.766 71.5334 377.043 70.2531 377.597 69.1513C378.157 68.0433 378.939 67.1816 379.942 66.5661C380.946 65.9444 382.124 65.6335 383.479 65.6335C384.353 65.6335 385.177 65.7751 385.953 66.0582C386.735 66.3352 387.424 66.7661 388.021 67.3509C388.624 67.9356 389.098 68.6804 389.443 69.5852C389.788 70.4839 389.96 71.5549 389.96 72.7983V73.8232H378.336V71.5703H386.756C386.75 70.9302 386.612 70.3608 386.341 69.8622C386.07 69.3575 385.691 68.9605 385.205 68.6712C384.725 68.3819 384.165 68.2372 383.525 68.2372C382.841 68.2372 382.241 68.4034 381.724 68.7358C381.207 69.062 380.804 69.4929 380.515 70.0284C380.232 70.5578 380.087 71.1394 380.081 71.7734V73.7401C380.081 74.5649 380.232 75.2727 380.533 75.8636C380.835 76.4484 381.256 76.8977 381.798 77.2116C382.34 77.5194 382.974 77.6733 383.7 77.6733C384.186 77.6733 384.626 77.6056 385.02 77.4702C385.414 77.3286 385.756 77.1224 386.045 76.8516C386.335 76.5807 386.553 76.2453 386.701 75.8452L389.822 76.196C389.625 77.0208 389.249 77.741 388.695 78.3565C388.147 78.9659 387.446 79.4399 386.59 79.7784C385.734 80.1108 384.756 80.277 383.654 80.277ZM399.869 65.8182V68.4034H391.717V65.8182H399.869ZM393.729 62.4205H397.072V75.7344C397.072 76.1837 397.139 76.5284 397.275 76.7685C397.416 77.0024 397.601 77.1624 397.829 77.2486C398.057 77.3348 398.309 77.3778 398.586 77.3778C398.795 77.3778 398.986 77.3625 399.158 77.3317C399.337 77.3009 399.472 77.2732 399.565 77.2486L400.128 79.8615C399.949 79.9231 399.694 79.9908 399.362 80.0646C399.035 80.1385 398.635 80.1816 398.161 80.1939C397.324 80.2185 396.57 80.0923 395.899 79.8153C395.228 79.5322 394.696 79.0952 394.302 78.5043C393.914 77.9134 393.723 77.1747 393.729 76.2884V62.4205ZM408.791 80.277C407.369 80.277 406.141 79.9815 405.107 79.3906C404.079 78.7936 403.288 77.9503 402.734 76.8608C402.18 75.7652 401.903 74.4756 401.903 72.9922C401.903 71.5334 402.18 70.2531 402.734 69.1513C403.294 68.0433 404.076 67.1816 405.079 66.5661C406.082 65.9444 407.261 65.6335 408.615 65.6335C409.489 65.6335 410.314 65.7751 411.09 66.0582C411.871 66.3352 412.561 66.7661 413.158 67.3509C413.761 67.9356 414.235 68.6804 414.58 69.5852C414.924 70.4839 415.097 71.5549 415.097 72.7983V73.8232H403.472V71.5703H411.893C411.887 70.9302 411.748 70.3608 411.477 69.8622C411.207 69.3575 410.828 68.9605 410.342 68.6712C409.862 68.3819 409.302 68.2372 408.661 68.2372C407.978 68.2372 407.378 68.4034 406.861 68.7358C406.344 69.062 405.941 69.4929 405.651 70.0284C405.368 70.5578 405.224 71.1394 405.218 71.7734V73.7401C405.218 74.5649 405.368 75.2727 405.67 75.8636C405.972 76.4484 406.393 76.8977 406.935 77.2116C407.477 77.5194 408.11 77.6733 408.837 77.6733C409.323 77.6733 409.763 77.6056 410.157 77.4702C410.551 77.3286 410.893 77.1224 411.182 76.8516C411.471 76.5807 411.69 76.2453 411.838 75.8452L414.958 76.196C414.761 77.0208 414.386 77.741 413.832 78.3565C413.284 78.9659 412.582 79.4399 411.727 79.7784C410.871 80.1108 409.892 80.277 408.791 80.277ZM417.924 80V65.8182H421.165V68.1818H421.313C421.571 67.3632 422.015 66.7322 422.642 66.2891C423.276 65.8397 424 65.6151 424.812 65.6151C424.997 65.6151 425.203 65.6243 425.431 65.6428C425.665 65.6551 425.859 65.6766 426.012 65.7074V68.782C425.871 68.7327 425.646 68.6896 425.338 68.6527C425.037 68.6096 424.744 68.5881 424.461 68.5881C423.852 68.5881 423.304 68.7204 422.818 68.9851C422.338 69.2436 421.959 69.6037 421.682 70.0653C421.405 70.527 421.267 71.0594 421.267 71.6626V80H417.924ZM432.06 80.2862C431.161 80.2862 430.352 80.1262 429.632 79.8061C428.918 79.4799 428.351 78.9998 427.933 78.3658C427.52 77.7318 427.314 76.95 427.314 76.0206C427.314 75.2204 427.462 74.5587 427.757 74.0355C428.053 73.5123 428.456 73.0938 428.967 72.7798C429.478 72.4659 430.053 72.2289 430.694 72.0689C431.34 71.9027 432.008 71.7827 432.697 71.7088C433.528 71.6226 434.202 71.5457 434.719 71.478C435.236 71.4041 435.612 71.2933 435.846 71.1456C436.086 70.9917 436.206 70.7547 436.206 70.4347V70.3793C436.206 69.6837 435.999 69.1451 435.587 68.7635C435.175 68.3819 434.581 68.1911 433.805 68.1911C432.986 68.1911 432.337 68.3696 431.857 68.7266C431.383 69.0836 431.063 69.5052 430.897 69.9915L427.776 69.5483C428.022 68.6866 428.428 67.9664 428.995 67.3878C429.561 66.803 430.253 66.366 431.072 66.0767C431.891 65.7812 432.796 65.6335 433.787 65.6335C434.47 65.6335 435.15 65.7135 435.827 65.8736C436.504 66.0336 437.123 66.2983 437.683 66.6676C438.243 67.0308 438.692 67.5263 439.031 68.1541C439.376 68.782 439.548 69.5668 439.548 70.5085V80H436.335V78.0518H436.224C436.021 78.4458 435.735 78.8151 435.365 79.1598C435.002 79.4983 434.544 79.7723 433.99 79.9815C433.442 80.1847 432.799 80.2862 432.06 80.2862ZM432.928 77.8303C433.599 77.8303 434.181 77.6979 434.673 77.4332C435.165 77.1624 435.544 76.8054 435.809 76.3622C436.079 75.919 436.215 75.4358 436.215 74.9126V73.2415C436.11 73.3277 435.932 73.4077 435.679 73.4815C435.433 73.5554 435.156 73.62 434.848 73.6754C434.541 73.7308 434.236 73.7801 433.934 73.8232C433.633 73.8662 433.371 73.9032 433.15 73.9339C432.651 74.0017 432.205 74.1125 431.811 74.2663C431.417 74.4202 431.106 74.6357 430.878 74.9126C430.65 75.1835 430.537 75.5343 430.537 75.9652C430.537 76.5807 430.761 77.0455 431.211 77.3594C431.66 77.6733 432.232 77.8303 432.928 77.8303ZM449.506 80V61.0909H456.597C458.049 61.0909 459.268 61.3617 460.253 61.9034C461.244 62.4451 461.992 63.1899 462.496 64.1378C463.007 65.0795 463.263 66.1506 463.263 67.3509C463.263 68.5634 463.007 69.6406 462.496 70.5824C461.986 71.5241 461.232 72.2659 460.234 72.8075C459.237 73.343 458.009 73.6108 456.55 73.6108H451.851V70.7947H456.089C456.938 70.7947 457.634 70.647 458.175 70.3516C458.717 70.0561 459.117 69.6499 459.376 69.1328C459.64 68.6158 459.773 68.0218 459.773 67.3509C459.773 66.6799 459.64 66.089 459.376 65.5781C459.117 65.0672 458.714 64.6702 458.166 64.3871C457.625 64.0978 456.926 63.9531 456.07 63.9531H452.931V80H449.506ZM466.09 80V65.8182H469.433V80H466.09ZM467.771 63.8054C467.241 63.8054 466.786 63.63 466.404 63.2791C466.023 62.9221 465.832 62.4943 465.832 61.9957C465.832 61.491 466.023 61.0632 466.404 60.7124C466.786 60.3553 467.241 60.1768 467.771 60.1768C468.306 60.1768 468.762 60.3553 469.137 60.7124C469.519 61.0632 469.71 61.491 469.71 61.9957C469.71 62.4943 469.519 62.9221 469.137 63.2791C468.762 63.63 468.306 63.8054 467.771 63.8054ZM472.87 80V65.8182H476.064V68.228H476.23C476.526 67.4155 477.015 66.7815 477.699 66.326C478.382 65.8643 479.197 65.6335 480.145 65.6335C481.105 65.6335 481.915 65.8674 482.574 66.3352C483.238 66.7969 483.706 67.4278 483.977 68.228H484.125C484.439 67.4401 484.968 66.8123 485.713 66.3445C486.464 65.8705 487.353 65.6335 488.381 65.6335C489.686 65.6335 490.751 66.0459 491.576 66.8707C492.4 67.6955 492.813 68.8989 492.813 70.4808V80H489.461V70.9979C489.461 70.1177 489.227 69.4744 488.76 69.0682C488.292 68.6558 487.719 68.4496 487.042 68.4496C486.236 68.4496 485.605 68.7019 485.15 69.2067C484.7 69.7053 484.475 70.3546 484.475 71.1548V80H481.198V70.8594C481.198 70.1269 480.976 69.5421 480.533 69.1051C480.096 68.6681 479.524 68.4496 478.816 68.4496C478.336 68.4496 477.899 68.5727 477.505 68.8189C477.111 69.0589 476.797 69.4006 476.563 69.8438C476.329 70.2808 476.212 70.7917 476.212 71.3764V80H472.87ZM502.482 80.277C501.06 80.277 499.832 79.9815 498.798 79.3906C497.77 78.7936 496.979 77.9503 496.425 76.8608C495.871 75.7652 495.594 74.4756 495.594 72.9922C495.594 71.5334 495.871 70.2531 496.425 69.1513C496.985 68.0433 497.767 67.1816 498.77 66.5661C499.774 65.9444 500.952 65.6335 502.307 65.6335C503.181 65.6335 504.006 65.7751 504.781 66.0582C505.563 66.3352 506.252 66.7661 506.849 67.3509C507.452 67.9356 507.926 68.6804 508.271 69.5852C508.616 70.4839 508.788 71.5549 508.788 72.7983V73.8232H497.164V71.5703H505.584C505.578 70.9302 505.44 70.3608 505.169 69.8622C504.898 69.3575 504.519 68.9605 504.033 68.6712C503.553 68.3819 502.993 68.2372 502.353 68.2372C501.67 68.2372 501.069 68.4034 500.552 68.7358C500.035 69.062 499.632 69.4929 499.343 70.0284C499.06 70.5578 498.915 71.1394 498.909 71.7734V73.7401C498.909 74.5649 499.06 75.2727 499.361 75.8636C499.663 76.4484 500.085 76.8977 500.626 77.2116C501.168 77.5194 501.802 77.6733 502.528 77.6733C503.015 77.6733 503.455 77.6056 503.849 77.4702C504.242 77.3286 504.584 77.1224 504.873 76.8516C505.163 76.5807 505.381 76.2453 505.529 75.8452L508.65 76.196C508.453 77.0208 508.077 77.741 507.523 78.3565C506.975 78.9659 506.274 79.4399 505.418 79.7784C504.563 80.1108 503.584 80.277 502.482 80.277ZM514.958 71.6903V80H511.616V65.8182H514.81V68.228H514.977C515.303 67.4339 515.823 66.803 516.537 66.3352C517.257 65.8674 518.147 65.6335 519.205 65.6335C520.184 65.6335 521.036 65.8428 521.763 66.2614C522.495 66.6799 523.062 67.2862 523.462 68.0803C523.868 68.8743 524.068 69.8376 524.062 70.9702V80H520.719V71.4872C520.719 70.5393 520.473 69.7976 519.981 69.2621C519.495 68.7266 518.821 68.4588 517.959 68.4588C517.374 68.4588 516.854 68.5881 516.398 68.8466C515.949 69.099 515.595 69.4652 515.337 69.9453C515.084 70.4254 514.958 71.0071 514.958 71.6903ZM534.541 65.8182V68.4034H526.388V65.8182H534.541ZM528.401 62.4205H531.744V75.7344C531.744 76.1837 531.811 76.5284 531.947 76.7685C532.088 77.0024 532.273 77.1624 532.501 77.2486C532.728 77.3348 532.981 77.3778 533.258 77.3778C533.467 77.3778 533.658 77.3625 533.83 77.3317C534.009 77.3009 534.144 77.2732 534.237 77.2486L534.8 79.8615C534.621 79.9231 534.366 79.9908 534.033 80.0646C533.707 80.1385 533.307 80.1816 532.833 80.1939C531.996 80.2185 531.242 80.0923 530.571 79.8153C529.9 79.5322 529.368 79.0952 528.974 78.5043C528.586 77.9134 528.395 77.1747 528.401 76.2884V62.4205ZM543.463 80.277C542.041 80.277 540.813 79.9815 539.779 79.3906C538.751 78.7936 537.96 77.9503 537.406 76.8608C536.852 75.7652 536.575 74.4756 536.575 72.9922C536.575 71.5334 536.852 70.2531 537.406 69.1513C537.966 68.0433 538.748 67.1816 539.751 66.5661C540.754 65.9444 541.933 65.6335 543.287 65.6335C544.161 65.6335 544.986 65.7751 545.762 66.0582C546.543 66.3352 547.233 66.7661 547.83 67.3509C548.433 67.9356 548.907 68.6804 549.252 69.5852C549.596 70.4839 549.769 71.5549 549.769 72.7983V73.8232H538.144V71.5703H546.565C546.559 70.9302 546.42 70.3608 546.149 69.8622C545.878 69.3575 545.5 68.9605 545.014 68.6712C544.534 68.3819 543.973 68.2372 543.333 68.2372C542.65 68.2372 542.05 68.4034 541.533 68.7358C541.016 69.062 540.613 69.4929 540.323 70.0284C540.04 70.5578 539.896 71.1394 539.889 71.7734V73.7401C539.889 74.5649 540.04 75.2727 540.342 75.8636C540.643 76.4484 541.065 76.8977 541.607 77.2116C542.148 77.5194 542.782 77.6733 543.509 77.6733C543.995 77.6733 544.435 77.6056 544.829 77.4702C545.223 77.3286 545.565 77.1224 545.854 76.8516C546.143 76.5807 546.362 76.2453 546.509 75.8452L549.63 76.196C549.433 77.0208 549.058 77.741 548.504 78.3565C547.956 78.9659 547.254 79.4399 546.399 79.7784C545.543 80.1108 544.564 80.277 543.463 80.277ZM555.939 61.0909V80H552.596V61.0909H555.939Z" fill="white"/>
<defs>
<clipPath id="clip0_210_8965">
<rect width="24" height="24" fill="white" transform="translate(200 43)"/>
</clipPath>
</defs>
</svg>
