<svg width="443" height="168" viewBox="0 0 443 168" fill="none" xmlns="http://www.w3.org/2000/svg">
<g clip-path="url(#clip0_146_81459)">
<path d="M19.4116 140.963V144.801L0 156.105V152.267L19.4116 140.963Z" fill="#E1BD9A"/>
<path d="M87.5109 128.346L20.8906 166.534V127.395L87.5109 89.207V128.346Z" fill="#823130"/>
<path opacity="0.3" d="M87.5109 128.346L20.8906 166.534V127.395L87.5109 89.207V128.346Z" fill="#823130"/>
<path d="M87.5159 89.2071L20.8956 127.395L1.34375 116.188L67.964 78L87.5159 89.2071Z" fill="#823130"/>
<path d="M1.34375 116.188L20.8956 127.395V166.533L1.34375 155.322V116.188Z" fill="#823130"/>
<path opacity="0.3" d="M1.34375 116.188L20.8956 127.395V166.533L1.34375 155.322V116.188Z" fill="#823130"/>
<path d="M0 152.254V156.092L19.4116 167.206V163.368L0 152.254Z" fill="#E1BD9A"/>
<path d="M20.8933 162.695L1.34147 151.488L0 152.268L1.34147 155.321L20.8933 166.533L89 125.12L87.5136 124.508L20.8933 162.695Z" fill="#E1BD9A"/>
<path d="M88.9973 128.959L20.8906 168V164.167L88.9973 125.121V128.959Z" fill="#E1BD9A"/>
<path opacity="0.3" d="M88.9973 128.959L20.8906 168V164.167L88.9973 125.121V128.959Z" fill="#E1BD9A"/>
<path d="M1.34375 152.959V156.792L20.8956 167.999V164.166L1.34375 152.959Z" fill="#E1BD9A"/>
<path opacity="0.3" d="M0 152.254V156.092L20.8933 168V164.166L0 152.254Z" fill="#E1BD9A"/>
<path d="M3.35938 148.699V142.109L7.07063 144.235V150.824L3.35938 148.699Z" fill="#283036"/>
<path d="M6.81429 150.379L3.61719 148.55V142.555L6.81429 144.388V150.379Z" fill="#72B8CF"/>
<path opacity="0.5" d="M3.61719 147.07L6.81429 145.242V144.388L6.78157 144.369L3.61719 146.179V147.07Z" fill="#72B8CF"/>
<path opacity="0.5" d="M6.81429 145.85L3.61719 147.683V148.55L4.57071 149.093L6.81429 147.808V145.85Z" fill="#72B8CF"/>
<path d="M6.81429 147.102L3.61719 145.269V144.814L6.81429 146.643V147.102Z" fill="#283036"/>
<path d="M9.21094 152.082V145.492L12.9269 147.622V154.212L9.21094 152.082Z" fill="#283036"/>
<path d="M12.6659 153.768L9.46875 151.935V145.939L12.6659 147.772V153.768Z" fill="#72B8CF"/>
<path opacity="0.5" d="M9.46875 150.457L12.6659 148.624V147.771L12.6331 147.752L9.46875 149.566V150.457Z" fill="#72B8CF"/>
<path opacity="0.5" d="M12.6659 149.238L9.46875 151.071V151.934L10.4223 152.482L12.6659 151.197V149.238Z" fill="#72B8CF"/>
<path d="M12.6659 150.487L9.46875 148.659V148.199L12.6659 150.032V150.487Z" fill="#283036"/>
<path d="M15.0703 155.431V148.842L18.7862 150.972V157.562L15.0703 155.431Z" fill="#283036"/>
<path d="M18.5206 157.116L15.3281 155.283V149.287L18.5206 151.12V157.116Z" fill="#72B8CF"/>
<path opacity="0.5" d="M15.3281 153.807L18.5206 151.974V151.12L18.4878 151.102L15.3281 152.916V153.807Z" fill="#72B8CF"/>
<path opacity="0.5" d="M18.5206 152.588L15.3281 154.416V155.284L16.277 155.832L18.5206 154.546V152.588Z" fill="#72B8CF"/>
<path d="M18.5206 153.835L15.3281 152.006V151.547L18.5206 153.38V153.835Z" fill="#283036"/>
<path d="M3.35938 138.903V132.309L7.07063 134.439V141.028L3.35938 138.903Z" fill="#283036"/>
<path d="M6.81429 140.582L3.61719 138.749V132.758L6.81429 134.586V140.582Z" fill="#72B8CF"/>
<path opacity="0.5" d="M3.61719 137.274L6.81429 135.441V134.587L6.78157 134.568L3.61719 136.383V137.274Z" fill="#72B8CF"/>
<path opacity="0.5" d="M6.81429 136.053L3.61719 137.886V138.749L4.57071 139.297L6.81429 138.011V136.053Z" fill="#72B8CF"/>
<path d="M6.81429 137.306L3.61719 135.473V135.014L6.81429 136.847V137.306Z" fill="#283036"/>
<path d="M9.21094 142.285V135.695L12.9269 137.825V144.415L9.21094 142.285Z" fill="#283036"/>
<path d="M12.6659 143.965L9.46875 142.136V136.141L12.6659 137.974V143.965Z" fill="#72B8CF"/>
<path opacity="0.5" d="M9.46875 140.656L12.6659 138.828V137.974L12.6331 137.955L9.46875 139.77V140.656Z" fill="#72B8CF"/>
<path opacity="0.5" d="M12.6659 139.439L9.46875 141.268V142.136L10.4223 142.679L12.6659 141.398V139.439Z" fill="#72B8CF"/>
<path d="M12.6659 140.688L9.46875 138.855V138.4L12.6659 140.229V140.688Z" fill="#283036"/>
<path d="M15.0703 145.637V139.047L18.7862 141.177V147.767L15.0703 145.637Z" fill="#283036"/>
<path d="M18.5206 147.316L15.3281 145.488V139.492L18.5206 141.325V147.316Z" fill="#72B8CF"/>
<path opacity="0.5" d="M15.3281 144.007L18.5206 142.179V141.325L18.4878 141.307L15.3281 143.121V144.007Z" fill="#72B8CF"/>
<path opacity="0.5" d="M18.5206 142.793L15.3281 144.621V145.489L16.277 146.032L18.5206 144.751V142.793Z" fill="#72B8CF"/>
<path d="M18.5206 144.04L15.3281 142.211V141.752L18.5206 143.58V144.04Z" fill="#283036"/>
<path d="M3.35938 129.103V122.514L7.07063 124.644V131.233L3.35938 129.103Z" fill="#283036"/>
<path d="M6.81429 130.789L3.61719 128.956V122.965L6.81429 124.793V130.789Z" fill="#72B8CF"/>
<path opacity="0.5" d="M3.61719 127.479L6.81429 125.646V124.792L6.78157 124.773L3.61719 126.588V127.479Z" fill="#72B8CF"/>
<path opacity="0.5" d="M6.81429 126.26L3.61719 128.093V128.956L4.57071 129.504L6.81429 128.218V126.26Z" fill="#72B8CF"/>
<path d="M6.81429 127.511L3.61719 125.678V125.219L6.81429 127.052V127.511Z" fill="#283036"/>
<path d="M9.21094 132.492V125.902L12.9269 128.032V134.622L9.21094 132.492Z" fill="#283036"/>
<path d="M12.6659 134.174L9.46875 132.345V126.35L12.6659 128.183V134.174Z" fill="#72B8CF"/>
<path opacity="0.5" d="M9.46875 130.863L12.6659 129.035V128.181L12.6331 128.162L9.46875 129.972V130.863Z" fill="#72B8CF"/>
<path opacity="0.5" d="M12.6659 129.648L9.46875 131.477V132.345L10.4223 132.888L12.6659 131.602V129.648Z" fill="#72B8CF"/>
<path d="M12.6659 130.897L9.46875 129.064V128.609L12.6659 130.438V130.897Z" fill="#283036"/>
<path d="M15.0703 135.842V129.252L18.7862 131.377V137.972L15.0703 135.842Z" fill="#283036"/>
<path d="M18.5206 137.521L15.3281 135.693V129.697L18.5206 131.53V137.521Z" fill="#72B8CF"/>
<path opacity="0.5" d="M15.3281 134.213L18.5206 132.384V131.53L18.4878 131.512L15.3281 133.322V134.213Z" fill="#72B8CF"/>
<path opacity="0.5" d="M18.5206 132.996L15.3281 134.824V135.692L16.277 136.235L18.5206 134.95V132.996Z" fill="#72B8CF"/>
<path d="M18.5206 134.245L15.3281 132.412V131.957L18.5206 133.785V134.245Z" fill="#283036"/>
<path d="M32.5753 152.082V145.492L28.8594 147.622V154.212L32.5753 152.082Z" fill="#283036"/>
<path d="M29.125 153.768L32.3174 151.935V145.939L29.125 147.772V153.768Z" fill="#72B8CF"/>
<path opacity="0.5" d="M32.3174 150.457L29.125 148.624V147.771L29.153 147.752L32.3174 149.566V150.457Z" fill="#72B8CF"/>
<path opacity="0.5" d="M29.125 149.238L32.3174 151.071V151.934L31.3639 152.482L29.125 151.197V149.238Z" fill="#72B8CF"/>
<path d="M29.125 150.487L32.3174 148.659V148.199L29.125 150.032V150.487Z" fill="#283036"/>
<path d="M26.7159 155.433V148.844L23 150.974V157.563L26.7159 155.433Z" fill="#283036"/>
<path d="M23.2656 157.118L26.4581 155.285V149.289L23.2656 151.122V157.118Z" fill="#72B8CF"/>
<path opacity="0.5" d="M26.4581 153.809L23.2656 151.976V151.122L23.2983 151.104L26.4581 152.918V153.809Z" fill="#72B8CF"/>
<path opacity="0.5" d="M23.2656 152.59L26.4581 154.418V155.286L25.5092 155.834L23.2656 154.548V152.59Z" fill="#72B8CF"/>
<path d="M23.2656 153.837L26.4581 152.008V151.549L23.2656 153.382V153.837Z" fill="#283036"/>
<path d="M32.5753 142.287V135.697L28.8594 137.827V144.417L32.5753 142.287Z" fill="#283036"/>
<path d="M29.125 143.967L32.3174 142.138V136.143L29.125 137.976V143.967Z" fill="#72B8CF"/>
<path opacity="0.5" d="M32.3174 140.658L29.125 138.829V137.976L29.153 137.957L32.3174 139.772V140.658Z" fill="#72B8CF"/>
<path opacity="0.5" d="M29.125 139.441L32.3174 141.27V142.138L31.3639 142.681L29.125 141.4V139.441Z" fill="#72B8CF"/>
<path d="M29.125 140.69L32.3174 138.857V138.402L29.125 140.231V140.69Z" fill="#283036"/>
<path d="M26.7159 145.638V139.049L23 141.179V147.769L26.7159 145.638Z" fill="#283036"/>
<path d="M23.2656 147.318L26.4581 145.49V139.494L23.2656 141.327V147.318Z" fill="#72B8CF"/>
<path opacity="0.5" d="M26.4581 144.009L23.2656 142.181V141.327L23.2983 141.309L26.4581 143.123V144.009Z" fill="#72B8CF"/>
<path opacity="0.5" d="M23.2656 142.793L26.4581 144.621V145.489L25.5092 146.032L23.2656 144.751V142.793Z" fill="#72B8CF"/>
<path d="M23.2656 144.042L26.4581 142.213V141.754L23.2656 143.582V144.042Z" fill="#283036"/>
<path d="M32.5753 132.49V125.9L28.8594 128.03V134.62L32.5753 132.49Z" fill="#283036"/>
<path d="M29.125 134.172L32.3174 132.343V126.348L29.125 128.181V134.172Z" fill="#72B8CF"/>
<path opacity="0.5" d="M32.3174 130.861L29.125 129.033V128.179L29.153 128.16L32.3174 129.97V130.861Z" fill="#72B8CF"/>
<path opacity="0.5" d="M29.125 129.646L32.3174 131.475V132.343L31.3639 132.886L29.125 131.6V129.646Z" fill="#72B8CF"/>
<path d="M29.125 130.895L32.3174 129.062V128.607L29.125 130.436V130.895Z" fill="#283036"/>
<path d="M26.7159 135.842V129.252L23 131.377V137.972L26.7159 135.842Z" fill="#283036"/>
<path d="M23.2656 137.521L26.4581 135.693V129.697L23.2656 131.53V137.521Z" fill="#72B8CF"/>
<path opacity="0.5" d="M26.4581 134.213L23.2656 132.384V131.53L23.2983 131.512L26.4581 133.322V134.213Z" fill="#72B8CF"/>
<path opacity="0.5" d="M23.2656 132.998L26.4581 134.826V135.694L25.5092 136.237L23.2656 134.952V132.998Z" fill="#72B8CF"/>
<path d="M23.2656 134.245L26.4581 132.412V131.957L23.2656 133.785V134.245Z" fill="#283036"/>
<path d="M85.3097 121.971V115.381L81.5938 117.511V124.101L85.3097 121.971Z" fill="#283036"/>
<path d="M81.8516 123.655L85.0487 121.822V115.826L81.8516 117.659V123.655Z" fill="#72B8CF"/>
<path opacity="0.5" d="M85.0487 120.346L81.8516 118.513V117.659L81.8843 117.641L85.0487 119.455V120.346Z" fill="#72B8CF"/>
<path opacity="0.5" d="M81.8516 119.125L85.0487 120.958V121.821L84.0951 122.369L81.8516 121.083V119.125Z" fill="#72B8CF"/>
<path d="M81.8516 120.374L85.0487 118.545V118.086L81.8516 119.919V120.374Z" fill="#283036"/>
<path d="M79.4503 125.32V118.73L75.7344 120.861V127.45L79.4503 125.32Z" fill="#283036"/>
<path d="M76 127.004L79.1924 125.171V119.176L76 121.009V127.004Z" fill="#72B8CF"/>
<path opacity="0.5" d="M79.1924 123.696L76 121.863V121.009L76.0327 120.99L79.1924 122.805V123.696Z" fill="#72B8CF"/>
<path opacity="0.5" d="M76 122.475L79.1924 124.303V125.171L78.2436 125.718L76 124.433V122.475Z" fill="#72B8CF"/>
<path d="M76 123.723L79.1924 121.895V121.436L76 123.269V123.723Z" fill="#283036"/>
<path d="M85.3097 112.174V105.584L81.5938 107.714V114.304L85.3097 112.174Z" fill="#283036"/>
<path d="M81.8516 113.853L85.0487 112.025V106.029L81.8516 107.862V113.853Z" fill="#72B8CF"/>
<path opacity="0.5" d="M85.0487 110.545L81.8516 108.716V107.862L81.8843 107.844L85.0487 109.658V110.545Z" fill="#72B8CF"/>
<path opacity="0.5" d="M81.8516 109.328L85.0487 111.157V112.024L84.0951 112.572L81.8516 111.286V109.328Z" fill="#72B8CF"/>
<path d="M81.8516 110.577L85.0487 108.744V108.289L81.8516 110.117V110.577Z" fill="#283036"/>
<path d="M79.4503 115.523V108.934L75.7344 111.064V117.653L79.4503 115.523Z" fill="#283036"/>
<path d="M76 117.205L79.1924 115.377V109.381L76 111.214V117.205Z" fill="#72B8CF"/>
<path opacity="0.5" d="M79.1924 113.894L76 112.066V111.212L76.0327 111.193L79.1924 113.008V113.894Z" fill="#72B8CF"/>
<path opacity="0.5" d="M76 112.68L79.1924 114.508V115.376L78.2436 115.919L76 114.633V112.68Z" fill="#72B8CF"/>
<path d="M76 113.928L79.1924 112.095V111.641L76 113.469V113.928Z" fill="#283036"/>
<path d="M85.3097 102.377V95.7871L81.5938 97.9171V104.507L85.3097 102.377Z" fill="#283036"/>
<path d="M81.8516 104.056L85.0487 102.228V96.2324L81.8516 98.0655V104.056Z" fill="#72B8CF"/>
<path opacity="0.5" d="M85.0487 100.748L81.8516 98.9193V98.0654L81.8843 98.0469L85.0487 99.8567V100.748Z" fill="#72B8CF"/>
<path opacity="0.5" d="M81.8516 99.5332L85.0487 101.362V102.229L84.0951 102.772L81.8516 101.487V99.5332Z" fill="#72B8CF"/>
<path d="M81.8516 100.78L85.0487 98.947V98.4922L81.8516 100.321V100.78Z" fill="#283036"/>
<path d="M79.4503 105.728V99.1387L75.7344 101.264V107.858L79.4503 105.728Z" fill="#283036"/>
<path d="M76 107.408L79.1924 105.58V99.584L76 101.417V107.408Z" fill="#72B8CF"/>
<path opacity="0.5" d="M79.1924 104.099L76 102.271V101.417L76.0327 101.398L79.1924 103.208V104.099Z" fill="#72B8CF"/>
<path opacity="0.5" d="M76 102.883L79.1924 104.711V105.579L78.2436 106.122L76 104.837V102.883Z" fill="#72B8CF"/>
<path d="M76 104.132L79.1924 102.299V101.844L76 103.672V104.132Z" fill="#283036"/>
<path d="M82.7132 143.805L43.6562 166.256V125.651L82.7132 103.246V143.805Z" fill="#823130"/>
<path opacity="0.3" d="M82.7132 143.805L43.6562 166.256V125.651L82.7132 103.246V143.805Z" fill="#823130"/>
<path d="M82.7103 103.246L43.6533 125.65L33.875 119.989L72.932 97.584L82.7103 103.246Z" fill="#823130"/>
<path d="M33.875 119.988L43.6533 125.65V166.255L33.875 160.598V119.988Z" fill="#823130"/>
<path opacity="0.3" d="M33.875 119.988L43.6533 125.65V166.255L33.875 160.598V119.988Z" fill="#823130"/>
<path d="M56.8019 149.748V143.158L53.0859 145.288V151.878L56.8019 149.748Z" fill="#283036"/>
<path d="M53.3438 151.433L56.5362 149.6V143.609L53.3438 145.438V151.433Z" fill="#72B8CF"/>
<path opacity="0.5" d="M56.5362 148.123L53.3438 146.29V145.437L53.3718 145.418L56.5362 147.232V148.123Z" fill="#72B8CF"/>
<path opacity="0.5" d="M53.3438 146.904L56.5362 148.737V149.6L55.5873 150.148L53.3438 148.863V146.904Z" fill="#72B8CF"/>
<path d="M53.3438 148.158L56.5362 146.325V145.865L53.3438 147.698V148.158Z" fill="#283036"/>
<path d="M50.9456 153.099V146.51L47.2344 148.64V155.229L50.9456 153.099Z" fill="#283036"/>
<path d="M47.4922 154.785L50.6893 152.952V146.961L47.4922 148.789V154.785Z" fill="#72B8CF"/>
<path opacity="0.5" d="M50.6893 151.475L47.4922 149.642V148.788L47.5249 148.77L50.6893 150.584V151.475Z" fill="#72B8CF"/>
<path opacity="0.5" d="M47.4922 150.256L50.6893 152.089V152.952L49.7358 153.5L47.4922 152.214V150.256Z" fill="#72B8CF"/>
<path d="M47.4922 151.507L50.6893 149.674V149.215L47.4922 151.048V151.507Z" fill="#283036"/>
<path d="M62.6566 136.568V129.979L58.9453 132.109V138.698L62.6566 136.568Z" fill="#283036"/>
<path d="M59.2031 138.254L62.4002 136.421V130.426L59.2031 132.259V138.254Z" fill="#72B8CF"/>
<path opacity="0.5" d="M62.4002 134.944L59.2031 133.111V132.257L59.2358 132.238L62.4002 134.053V134.944Z" fill="#72B8CF"/>
<path opacity="0.5" d="M59.2031 133.725L62.4002 135.553V136.421L61.4467 136.968L59.2031 135.683V133.725Z" fill="#72B8CF"/>
<path d="M59.2031 134.973L62.4002 133.145V132.686L59.2031 134.519V134.973Z" fill="#283036"/>
<path d="M56.8019 139.951V133.361L53.0859 135.491V142.081L56.8019 139.951Z" fill="#283036"/>
<path d="M53.3438 141.637L56.5362 139.804V133.812L53.3438 135.641V141.637Z" fill="#72B8CF"/>
<path opacity="0.5" d="M56.5362 138.327L53.3438 136.494V135.64L53.3718 135.621L56.5362 137.436V138.327Z" fill="#72B8CF"/>
<path opacity="0.5" d="M53.3438 137.107L56.5362 138.94V139.804L55.5873 140.351L53.3438 139.066V137.107Z" fill="#72B8CF"/>
<path d="M53.3438 138.359L56.5362 136.526V136.066L53.3438 137.899V138.359Z" fill="#283036"/>
<path d="M50.9456 143.303V136.713L47.2344 138.843V145.433L50.9456 143.303Z" fill="#283036"/>
<path d="M47.4922 144.988L50.6893 143.155V137.164L47.4922 138.992V144.988Z" fill="#72B8CF"/>
<path opacity="0.5" d="M50.6893 141.678L47.4922 139.845V138.991L47.5249 138.973L50.6893 140.787V141.678Z" fill="#72B8CF"/>
<path opacity="0.5" d="M47.4922 140.459L50.6893 142.292V143.155L49.7358 143.703L47.4922 142.417V140.459Z" fill="#72B8CF"/>
<path d="M47.4922 141.71L50.6893 139.877V139.418L47.4922 141.251V141.71Z" fill="#283036"/>
<path d="M74.3722 129.836V123.246L70.6562 125.371V131.961L74.3722 129.836Z" fill="#283036"/>
<path d="M70.9219 131.515L74.1143 129.687V123.691L70.9219 125.52V131.515Z" fill="#72B8CF"/>
<path opacity="0.5" d="M74.1143 128.207L70.9219 126.374V125.52L70.9499 125.506L74.1143 127.316V128.207Z" fill="#72B8CF"/>
<path opacity="0.5" d="M70.9219 126.986L74.1143 128.819V129.687L73.1608 130.23L70.9219 128.945V126.986Z" fill="#72B8CF"/>
<path d="M70.9219 128.24L74.1143 126.407V125.947L70.9219 127.78V128.24Z" fill="#283036"/>
<path d="M68.5128 133.219V126.629L64.7969 128.759V135.349L68.5128 133.219Z" fill="#283036"/>
<path d="M65.0625 134.903L68.2549 133.07V127.074L65.0625 128.907V134.903Z" fill="#72B8CF"/>
<path opacity="0.5" d="M68.2549 131.594L65.0625 129.761V128.907L65.0952 128.889L68.2549 130.703V131.594Z" fill="#72B8CF"/>
<path opacity="0.5" d="M65.0625 130.373L68.2549 132.201V133.069L67.3061 133.617L65.0625 132.331V130.373Z" fill="#72B8CF"/>
<path d="M65.0625 131.622L68.2549 129.793V129.334L65.0625 131.167V131.622Z" fill="#283036"/>
<path d="M80.2269 126.484V119.895L76.5156 122.025V128.614L80.2269 126.484Z" fill="#283036"/>
<path d="M76.7734 128.17L79.9705 126.337V120.346L76.7734 122.174V128.17Z" fill="#72B8CF"/>
<path opacity="0.5" d="M79.9705 124.86L76.7734 123.027V122.173L76.8062 122.154L79.9705 123.969V124.86Z" fill="#72B8CF"/>
<path opacity="0.5" d="M76.7734 123.641L79.9705 125.474V126.337L79.017 126.884L76.7734 125.599V123.641Z" fill="#72B8CF"/>
<path d="M76.7734 124.892L79.9705 123.059V122.6L76.7734 124.433V124.892Z" fill="#283036"/>
<path d="M74.3566 139.637V133.047L70.6406 135.172V141.767L74.3566 139.637Z" fill="#283036"/>
<path d="M70.8984 141.318L74.0955 139.49V133.494L70.8984 135.327V141.318Z" fill="#72B8CF"/>
<path opacity="0.5" d="M74.0955 138.007L70.8984 136.179V135.325L70.9312 135.307L74.0955 137.116V138.007Z" fill="#72B8CF"/>
<path opacity="0.5" d="M70.8984 136.787L74.0955 138.62V139.488L73.142 140.031L70.8984 138.745V136.787Z" fill="#72B8CF"/>
<path d="M70.8984 138.04L74.0955 136.207V135.752L70.8984 137.58V138.04Z" fill="#283036"/>
<path d="M80.2113 136.287V129.697L76.5 131.827V138.417L80.2113 136.287Z" fill="#283036"/>
<path d="M76.7578 137.973L79.9549 136.139V130.148L76.7578 131.977V137.973Z" fill="#72B8CF"/>
<path opacity="0.5" d="M79.9549 134.663L76.7578 132.829V131.976L76.7905 131.957L79.9549 133.772V134.663Z" fill="#72B8CF"/>
<path opacity="0.5" d="M76.7578 133.443L79.9549 135.276V136.14L79.0014 136.687L76.7578 135.402V133.443Z" fill="#72B8CF"/>
<path d="M76.7578 134.695L79.9549 132.862V132.402L76.7578 134.235V134.695Z" fill="#283036"/>
<path d="M62.6566 126.791V120.201L58.9453 122.331V128.921L62.6566 126.791Z" fill="#283036"/>
<path d="M59.2031 128.473L62.4002 126.644V120.648L59.2031 122.481V128.473Z" fill="#72B8CF"/>
<path opacity="0.5" d="M62.4002 125.162L59.2031 123.333V122.48L59.2358 122.461L62.4002 124.275V125.162Z" fill="#72B8CF"/>
<path opacity="0.5" d="M59.2031 123.947L62.4002 125.776V126.643L61.4467 127.191L59.2031 125.906V123.947Z" fill="#72B8CF"/>
<path d="M59.2031 125.196L62.4002 123.363V122.908L59.2031 124.737V125.196Z" fill="#283036"/>
<path d="M56.8019 130.174V123.584L53.0859 125.714V132.304L56.8019 130.174Z" fill="#283036"/>
<path d="M53.3438 131.86L56.5362 130.027V124.031L53.3438 125.864V131.86Z" fill="#72B8CF"/>
<path opacity="0.5" d="M56.5362 128.549L53.3438 126.716V125.862L53.3718 125.844L56.5362 127.658V128.549Z" fill="#72B8CF"/>
<path opacity="0.5" d="M53.3438 127.33L56.5362 129.163V130.026L55.5873 130.574L53.3438 129.288V127.33Z" fill="#72B8CF"/>
<path d="M53.3438 128.582L56.5362 126.748V126.289L53.3438 128.122V128.582Z" fill="#283036"/>
<path d="M50.9456 133.525V126.936L47.2344 129.066V135.655L50.9456 133.525Z" fill="#283036"/>
<path d="M47.4922 135.21L50.6893 133.377V127.381L47.4922 129.214V135.21Z" fill="#72B8CF"/>
<path opacity="0.5" d="M50.6893 131.901L47.4922 130.068V129.214L47.5249 129.195L50.6893 131.01V131.901Z" fill="#72B8CF"/>
<path opacity="0.5" d="M47.4922 130.682L50.6893 132.515V133.378L49.7358 133.925L47.4922 132.64V130.682Z" fill="#72B8CF"/>
<path d="M47.4922 131.928L50.6893 130.1V129.641L47.4922 131.474V131.928Z" fill="#283036"/>
<path d="M74.3722 120.057V113.463L70.6562 115.593V122.183L74.3722 120.057Z" fill="#283036"/>
<path d="M70.9219 121.738L74.1143 119.905V113.914L70.9219 115.742V121.738Z" fill="#72B8CF"/>
<path opacity="0.5" d="M74.1143 118.428L70.9219 116.595V115.741L70.9499 115.723L74.1143 117.537V118.428Z" fill="#72B8CF"/>
<path opacity="0.5" d="M70.9219 117.207L74.1143 119.04V119.903L73.1608 120.451L70.9219 119.165V117.207Z" fill="#72B8CF"/>
<path d="M70.9219 118.46L74.1143 116.627V116.168L70.9219 118.001V118.46Z" fill="#283036"/>
<path d="M68.5128 123.441V116.852L64.7969 118.982V125.571L68.5128 123.441Z" fill="#283036"/>
<path d="M65.0625 125.121L68.2549 123.293V117.297L65.0625 119.13V125.121Z" fill="#72B8CF"/>
<path opacity="0.5" d="M68.2549 121.812L65.0625 119.984V119.13L65.0952 119.111L68.2549 120.926V121.812Z" fill="#72B8CF"/>
<path opacity="0.5" d="M65.0625 120.598L68.2549 122.426V123.294L67.3061 123.841L65.0625 122.556V120.598Z" fill="#72B8CF"/>
<path d="M65.0625 121.844L68.2549 120.016V119.557L65.0625 121.385V121.844Z" fill="#283036"/>
<path d="M80.2269 116.707V110.117L76.5156 112.247V118.837L80.2269 116.707Z" fill="#283036"/>
<path d="M76.7734 118.39L79.9705 116.557V110.566L76.7734 112.395V118.39Z" fill="#72B8CF"/>
<path opacity="0.5" d="M79.9705 115.082L76.7734 113.249V112.396L76.8062 112.377L79.9705 114.191V115.082Z" fill="#72B8CF"/>
<path opacity="0.5" d="M76.7734 113.861L79.9705 115.694V116.558L79.017 117.105L76.7734 115.82V113.861Z" fill="#72B8CF"/>
<path d="M76.7734 115.115L79.9705 113.282V112.822L76.7734 114.655V115.115Z" fill="#283036"/>
<path d="M45.7557 121.493L45.0312 121.896V118.931L45.7557 118.527V121.493Z" fill="#283036"/>
<path opacity="0.3" d="M45.7557 121.493L45.0312 121.896V118.931L45.7557 118.527V121.493Z" fill="#283036"/>
<path d="M45.7593 118.527L45.0349 118.931L44.1094 118.415L44.8339 118.012L45.7593 118.527Z" fill="#283036"/>
<path d="M44.1094 118.416L45.0349 118.931V121.896L44.1094 121.381V118.416Z" fill="#283036"/>
<path opacity="0.3" d="M44.1094 118.416L45.0349 118.931V121.896L44.1094 121.381V118.416Z" fill="#283036"/>
<path d="M51.7198 118.066L51 118.47V115.505L51.7198 115.105V118.066Z" fill="#283036"/>
<path opacity="0.3" d="M51.7198 118.066L51 118.47V115.505L51.7198 115.105V118.066Z" fill="#283036"/>
<path d="M51.7234 115.106L51.0036 115.505L50.0781 114.99L50.8026 114.586L51.7234 115.106Z" fill="#283036"/>
<path d="M50.0781 114.988L51.0036 115.503V118.469L50.0781 117.954V114.988Z" fill="#283036"/>
<path opacity="0.3" d="M50.0781 114.988L51.0036 115.503V118.469L50.0781 117.954V114.988Z" fill="#283036"/>
<path d="M57.701 114.647L56.9766 115.046V112.085L57.701 111.682V114.647Z" fill="#283036"/>
<path opacity="0.3" d="M57.701 114.647L56.9766 115.046V112.085L57.701 111.682V114.647Z" fill="#283036"/>
<path d="M57.7 111.681L56.9755 112.085L56.0547 111.565L56.7745 111.166L57.7 111.681Z" fill="#283036"/>
<path d="M56.0547 111.566L56.9755 112.086V115.047L56.0547 114.532V111.566Z" fill="#283036"/>
<path opacity="0.3" d="M56.0547 111.566L56.9755 112.086V115.047L56.0547 114.532V111.566Z" fill="#283036"/>
<path d="M63.6776 111.221L62.9531 111.625V108.66L63.6776 108.256V111.221Z" fill="#283036"/>
<path opacity="0.3" d="M63.6776 111.221L62.9531 111.625V108.66L63.6776 108.256V111.221Z" fill="#283036"/>
<path d="M63.6734 108.257L62.9489 108.661L62.0234 108.146L62.7479 107.742L63.6734 108.257Z" fill="#283036"/>
<path d="M62.0234 108.145L62.9489 108.66V111.625L62.0234 111.105V108.145Z" fill="#283036"/>
<path opacity="0.3" d="M62.0234 108.145L62.9489 108.66V111.625L62.0234 111.105V108.145Z" fill="#283036"/>
<path d="M69.6417 107.797L68.9219 108.201V105.236L69.6417 104.832V107.797Z" fill="#283036"/>
<path opacity="0.3" d="M69.6417 107.797L68.9219 108.201V105.236L69.6417 104.832V107.797Z" fill="#283036"/>
<path d="M69.6453 104.833L68.9255 105.237L68 104.722L68.7245 104.318L69.6453 104.833Z" fill="#283036"/>
<path d="M68 104.721L68.9255 105.236V108.201L68 107.686V104.721Z" fill="#283036"/>
<path opacity="0.3" d="M68 104.721L68.9255 105.236V108.201L68 107.686V104.721Z" fill="#283036"/>
<path d="M75.6151 104.372L74.8906 104.775V101.81L75.6151 101.406V104.372Z" fill="#283036"/>
<path opacity="0.3" d="M75.6151 104.372L74.8906 104.775V101.81L75.6151 101.406V104.372Z" fill="#283036"/>
<path d="M75.614 101.408L74.8896 101.811L73.9688 101.296L74.6886 100.893L75.614 101.408Z" fill="#283036"/>
<path d="M73.9688 101.295L74.8896 101.81V104.775L73.9688 104.26V101.295Z" fill="#283036"/>
<path opacity="0.3" d="M73.9688 101.295L74.8896 101.81V104.775L73.9688 104.26V101.295Z" fill="#283036"/>
<path d="M33.8828 156.824V160.657L43.6471 166.249L42.17 161.618L33.8828 156.824Z" fill="#E1BD9A"/>
<path d="M43.6471 160.946L33.8828 155.279V156.834L35.2243 159.892L43.6471 164.783L84.1998 139.093L82.7134 138.48L43.6471 160.946Z" fill="#E1BD9A"/>
<path d="M84.2011 142.932L43.6484 166.251V162.417L84.2011 139.094V142.932Z" fill="#E1BD9A"/>
<path opacity="0.3" d="M84.2011 142.932L43.6484 166.251V162.417L84.2011 139.094V142.932Z" fill="#E1BD9A"/>
<path d="M35.2266 157.525V161.359L43.6493 166.25V162.417L35.2266 157.525Z" fill="#E1BD9A"/>
<path opacity="0.3" d="M33.8828 156.824V160.657L43.6471 166.249V162.416L33.8828 156.824Z" fill="#E1BD9A"/>
<path d="M68.6603 146.561L60.2656 151.391V156.204H61.1163L68.6603 151.865V146.561Z" fill="#823130"/>
<path opacity="0.3" d="M68.6603 146.561L60.2656 151.391V156.204H61.1163L68.6603 151.865V146.561Z" fill="#823130"/>
<path d="M67.2181 152.708V144.531L62.6094 147.172V155.349L67.2181 152.708Z" fill="#283036"/>
<path d="M62.9375 154.797L66.9012 152.523V145.084L62.9375 147.358V154.797Z" fill="#72B8CF"/>
<path opacity="0.5" d="M66.9012 150.689L62.9375 148.415V147.357L62.9749 147.334L66.9012 149.585V150.689Z" fill="#72B8CF"/>
<path opacity="0.5" d="M62.9375 149.176L66.9012 151.45V152.522L65.7186 153.199L62.9375 151.603V149.176Z" fill="#72B8CF"/>
<path d="M64.6641 153.803L65.1595 153.515V146.076L64.6641 146.364V153.803Z" fill="#283036"/>
<path d="M76.0244 149.016C76.0244 148.209 75.3841 147.55 74.5801 147.513C74.2763 147.207 73.8556 147.012 73.3882 147.012C73.0517 147.012 72.7432 147.109 72.4814 147.281C72.3505 147.225 72.2056 147.193 72.0561 147.193C71.4625 147.193 70.9857 147.666 70.9764 148.251C70.5978 148.608 70.3594 149.114 70.3594 149.675C70.3594 150.126 70.5136 150.539 70.7707 150.873C70.7707 150.887 70.766 150.901 70.766 150.914C70.766 151.624 71.3456 152.195 72.0561 152.195C72.2804 152.195 72.4908 152.135 72.6731 152.033C72.8741 152.14 73.1031 152.195 73.3461 152.195C73.5658 152.195 73.7715 152.144 73.9538 152.061C74.0847 152.116 74.2295 152.144 74.3838 152.144C74.9727 152.144 75.4542 151.694 75.5103 151.123C75.529 151.105 75.5476 151.086 75.5617 151.068C75.8374 150.803 76.0104 150.436 76.0104 150.023C76.0104 149.852 75.9777 149.689 75.9263 149.536C75.9917 149.378 76.0244 149.202 76.0244 149.016Z" fill="#005750"/>
<path opacity="0.3" d="M74.5294 148.445C74.5294 147.963 74.1461 147.568 73.6646 147.545C73.4824 147.359 73.23 147.248 72.9495 147.248C72.7485 147.248 72.5616 147.308 72.4073 147.41C72.3278 147.378 72.2437 147.359 72.1549 147.359C71.7997 147.359 71.5146 147.643 71.5099 147.991C71.2808 148.204 71.1406 148.506 71.1406 148.84C71.1406 149.109 71.2341 149.36 71.3884 149.554C71.3884 149.564 71.3837 149.573 71.3837 149.578C71.3837 150 71.7296 150.343 72.1549 150.343C72.2905 150.343 72.412 150.306 72.5242 150.246C72.6457 150.306 72.7812 150.343 72.9261 150.343C73.057 150.343 73.1785 150.315 73.2907 150.264C73.3702 150.297 73.459 150.315 73.5478 150.315C73.903 150.315 74.1882 150.046 74.2209 149.703C74.2302 149.694 74.2396 149.68 74.2536 149.67C74.4172 149.513 74.52 149.29 74.52 149.049C74.52 148.947 74.5013 148.849 74.4686 148.756C74.506 148.663 74.5294 148.557 74.5294 148.445Z" fill="#005750"/>
<g opacity="0.3">
<path d="M76.0213 149.016C76.0213 148.214 75.3903 147.564 74.5957 147.518C74.7359 147.648 74.8574 147.801 74.9462 147.982C75.1425 148.385 75.1519 148.826 75.0023 149.216C75.1986 149.638 75.021 150.144 74.5957 150.348C74.4882 150.399 74.376 150.427 74.2591 150.432C74.1329 150.645 73.9413 150.822 73.7029 150.938C73.3664 151.1 72.9971 151.109 72.6746 150.993C72.0857 151.244 71.3939 150.993 71.1134 150.418C71.048 150.283 71.0106 150.144 70.9966 150.005C70.9031 149.917 70.8237 149.81 70.7629 149.685C70.618 149.392 70.6133 149.068 70.7161 148.784C70.7208 148.766 70.7302 148.747 70.7348 148.729C70.7208 148.687 70.7021 148.636 70.6881 148.59C70.4731 148.9 70.3516 149.276 70.3516 149.685C70.3516 150.135 70.5058 150.548 70.7629 150.882C70.7629 150.896 70.7582 150.91 70.7582 150.924C70.7582 151.634 71.3378 152.205 72.0483 152.205C72.2726 152.205 72.483 152.144 72.6653 152.042C72.8662 152.149 73.0953 152.205 73.3383 152.205C73.558 152.205 73.7637 152.154 73.946 152.07C74.0768 152.126 74.2217 152.154 74.376 152.154C74.9649 152.154 75.4464 151.703 75.5024 151.133C75.5211 151.114 75.5398 151.095 75.5539 151.077C75.8296 150.812 76.0026 150.446 76.0026 150.033C76.0026 149.861 75.9699 149.699 75.9184 149.546C75.9886 149.378 76.0213 149.202 76.0213 149.016Z" fill="#005750"/>
<path d="M74.2188 147.238C74.2234 147.248 74.2234 147.252 74.2281 147.261C74.2935 147.294 74.359 147.336 74.4197 147.378C74.359 147.326 74.2889 147.28 74.2188 147.238Z" fill="#005750"/>
</g>
<g opacity="0.3">
<path d="M76.0197 149.017C76.0197 148.441 75.6926 147.94 75.2111 147.689C75.4916 147.945 75.6739 148.307 75.6739 148.72C75.6739 148.891 75.6411 149.058 75.585 149.212C75.6365 149.355 75.6645 149.504 75.6645 149.666C75.6645 150.047 75.5056 150.39 75.2485 150.636C75.2345 150.655 75.2158 150.669 75.2018 150.687C75.1504 151.221 74.7016 151.639 74.1501 151.639C74.0099 151.639 73.8743 151.611 73.7481 151.56C73.5752 151.639 73.3835 151.685 73.1825 151.685C72.9535 151.685 72.7432 151.629 72.5562 151.532C72.3833 151.625 72.1916 151.685 71.9813 151.685C71.3176 151.685 70.78 151.151 70.78 150.492C70.78 150.478 70.7847 150.469 70.7847 150.455C70.5463 150.149 70.4014 149.759 70.4014 149.342C70.4014 149.314 70.4061 149.286 70.4061 149.258C70.3734 149.397 70.3594 149.541 70.3594 149.685C70.3594 150.135 70.5136 150.548 70.7707 150.882C70.7707 150.896 70.766 150.91 70.766 150.924C70.766 151.634 71.3456 152.205 72.0561 152.205C72.2804 152.205 72.4908 152.144 72.6731 152.042C72.8741 152.149 73.1031 152.205 73.3461 152.205C73.5658 152.205 73.7715 152.154 73.9538 152.07C74.0847 152.126 74.2296 152.154 74.3838 152.154C74.9727 152.154 75.4542 151.704 75.5103 151.133C75.529 151.114 75.5477 151.096 75.5617 151.077C75.8375 150.813 76.0104 150.446 76.0104 150.033C76.0104 149.861 75.9777 149.699 75.9263 149.546C75.987 149.379 76.0197 149.202 76.0197 149.017Z" fill="#005750"/>
<path d="M74.2891 147.279C74.3031 147.293 74.3124 147.303 74.3265 147.312C74.3311 147.312 74.3405 147.312 74.3451 147.316C74.3265 147.307 74.3078 147.293 74.2891 147.279Z" fill="#005750"/>
</g>
<path d="M76.8461 101.324L43.2812 120.476V113.32L76.8461 94.168V101.324Z" fill="#E1BD9A"/>
<path opacity="0.3" d="M76.8461 101.324L43.2812 120.476V113.32L76.8461 94.168V101.324Z" fill="#E1BD9A"/>
<path d="M76.8413 94.1675L43.2764 113.319L41.0469 112.076L74.6071 92.9238L76.8413 94.1675Z" fill="#E1BD9A"/>
<path d="M41.0469 112.076L43.2764 113.32V120.476L41.0469 119.232V112.076Z" fill="#E1BD9A"/>
<path opacity="0.3" d="M41.0469 112.076L43.2764 113.32V120.476L41.0469 119.232V112.076Z" fill="#E1BD9A"/>
<path d="M47.1271 113.21V113.786L46.8841 113.925V114.89C46.8841 115.609 47.0477 115.67 47.3328 115.503C47.6086 115.345 47.7862 115.136 47.7862 114.366V113.419L47.5431 113.558V112.969L48.8753 112.203V112.779L48.6322 112.918V114.004C48.6322 115.066 48.1882 115.8 47.3375 116.287C46.426 116.783 45.9399 116.589 45.9399 115.572V114.468L45.6875 114.612V114.032L47.1271 113.21Z" fill="#823130"/>
<path d="M52.2175 110.872V113.424L51.25 113.981L50.1002 112.937V114.064L50.446 113.865V114.44L49.0625 115.234V114.658L49.3289 114.505V112.528L49.0672 112.677V112.097L50.3619 111.354L51.465 112.366V111.299L51.1565 111.475V110.895L52.512 110.115V110.695L52.2175 110.872Z" fill="#823130"/>
<path d="M54.2301 109.137V109.726L53.9496 109.884V111.828L54.2301 111.666V112.26L52.7344 113.118V112.524L53.0195 112.362V110.418L52.7344 110.58V109.991L54.2301 109.137Z" fill="#823130"/>
<path d="M56.2663 110.096C56.2756 109.966 56.3364 109.711 56.4299 109.432L56.8412 108.221L56.6028 108.36V107.78L57.8835 107.047V107.627L57.6638 107.752L56.5841 110.917L55.7568 111.39L54.5602 109.53L54.3125 109.673V109.093L55.9718 108.142V108.722L55.7288 108.861L56.112 109.646C56.1821 109.822 56.2429 109.989 56.2523 110.105L56.2663 110.096Z" fill="#823130"/>
<path d="M60.6688 105.445V106.434L59.8882 106.879V106.48L59.1684 106.893V107.51L60.0238 107.018V107.612L59.1684 108.104V108.833L59.8882 108.42V108.002L60.6688 107.557V108.568L57.9531 110.132V109.538L58.2382 109.376V107.431L57.9531 107.594V107.005L60.6688 105.445Z" fill="#823130"/>
<path d="M62.3583 104.476C63.4053 103.878 63.6063 104.17 63.6063 104.681C63.6063 105.029 63.3258 105.437 62.9519 105.706C63.2651 105.572 63.5409 105.683 63.5409 106.003C63.5409 106.193 63.5689 106.291 63.6484 106.244C63.7138 106.207 63.7512 106.133 63.7512 106.04V105.892L64.055 105.72V105.966C64.055 106.337 63.8961 106.773 63.396 107.061C62.807 107.4 62.5219 107.251 62.5219 106.732C62.5219 106.323 62.4705 106.254 62.0732 106.486V107.182L62.349 107.024V107.613L60.8906 108.449V107.859L61.143 107.716V105.762L60.8906 105.906V105.321L62.3583 104.476ZM62.0732 105.985L62.2742 105.869C62.5359 105.72 62.7089 105.497 62.7089 105.256C62.7089 104.991 62.5593 104.945 62.2975 105.094L62.0732 105.224V105.985Z" fill="#823130"/>
<path d="M64.2203 105.414L65.057 104.932C65.057 105.307 65.4356 105.154 65.6225 105.052C65.7814 104.964 66.0058 104.797 66.0058 104.607C66.0058 104.259 64.2764 105.4 64.2764 104.259C64.2764 103.595 64.9074 102.936 65.3468 102.681C65.7254 102.463 66.1086 102.365 66.2909 102.597L66.3377 102.194L67.1136 101.748V102.871L66.2956 103.34C66.2956 103.01 66.0338 102.969 65.7207 103.15C65.5898 103.224 65.4075 103.409 65.4075 103.567C65.4075 104.027 67.193 102.899 67.193 103.948C67.193 104.644 66.534 105.275 65.9965 105.581C65.5431 105.841 65.2252 105.813 65.0523 105.711L65.0009 106.082L64.2109 106.533V105.414H64.2203Z" fill="#823130"/>
<path d="M68.9176 100.717V101.306L68.6372 101.469V103.413L68.9176 103.251V103.845L67.4219 104.703V104.109L67.707 103.947V102.002L67.4219 102.165V101.575L68.9176 100.717Z" fill="#823130"/>
<path d="M72.1226 100.044L71.4589 100.425V99.8542L71.0803 100.072V102.017L71.4542 101.803V102.397L69.7762 103.358V102.764L70.1454 102.55V100.601L69.7575 100.824V101.395L69.0938 101.775V100.611L72.1179 98.875V100.044H72.1226Z" fill="#823130"/>
<path d="M73.881 99.2875C73.8997 99.1854 73.9978 98.9441 74.0493 98.8049L74.297 98.2109L74.0493 98.3548V97.784L75.2599 97.0879V97.6587L75.0168 97.7979L74.1848 99.733V100.253L74.4372 100.109V100.689L72.9929 101.515V100.935L73.25 100.786V100.257L72.3759 99.3107L72.1562 99.436V98.8652L73.6987 97.9835V98.5543L73.465 98.6889L73.7268 99.0137C73.7548 99.0834 73.8483 99.2319 73.867 99.2968L73.881 99.2875Z" fill="#823130"/>
<path d="M61.9594 157.764L60.3281 158.701V146.028L61.9594 145.086V157.764Z" fill="#E1BD9A"/>
<path opacity="0.3" d="M61.9594 157.764L60.3281 158.701V146.028L61.9594 145.086V157.764Z" fill="#E1BD9A"/>
<path d="M61.9528 145.085L60.3216 146.027L58.5781 145.029L60.2141 144.092L61.9528 145.085Z" fill="#E1BD9A"/>
<path d="M58.5781 145.029L60.3216 146.027V158.701L58.5781 157.703V145.029Z" fill="#E1BD9A"/>
<path opacity="0.3" d="M58.5781 145.029L60.3216 146.027V158.701L58.5781 157.703V145.029Z" fill="#E1BD9A"/>
<path opacity="0.3" d="M61.9528 145.085L60.2141 144.092L58.5781 145.029V157.703L60.3216 158.7L61.9528 157.763V145.085Z" fill="#E1BD9A"/>
<path d="M71.175 152.502L69.5391 153.439V140.766L71.175 139.828V152.502Z" fill="#E1BD9A"/>
<path opacity="0.3" d="M71.175 152.502L69.5391 153.439V140.766L71.175 139.828V152.502Z" fill="#E1BD9A"/>
<path d="M71.1763 139.828L69.5403 140.765L67.7969 139.767L69.4328 138.83L71.1763 139.828Z" fill="#E1BD9A"/>
<path d="M67.7969 139.768L69.5403 140.765V153.439L67.7969 152.446V139.768Z" fill="#E1BD9A"/>
<path opacity="0.3" d="M67.7969 139.768L69.5403 140.765V153.439L67.7969 152.446V139.768Z" fill="#E1BD9A"/>
<path opacity="0.3" d="M71.1716 139.828L69.4328 138.83L67.7969 139.767V152.446L69.5403 153.439L71.1763 152.501V139.828H71.1716Z" fill="#E1BD9A"/>
<path d="M67.9797 161.179L66.3438 162.117V149.443L67.9797 148.506V161.179Z" fill="#E1BD9A"/>
<path opacity="0.3" d="M67.9797 161.179L66.3438 162.117V149.443L67.9797 148.506V161.179Z" fill="#E1BD9A"/>
<path d="M67.9731 148.506L66.3372 149.443L64.5938 148.445L66.2297 147.508L67.9731 148.506Z" fill="#E1BD9A"/>
<path d="M64.5938 148.445L66.3372 149.443V162.117L64.5938 161.123V148.445Z" fill="#E1BD9A"/>
<path opacity="0.3" d="M64.5938 148.445L66.3372 149.443V162.117L64.5938 161.123V148.445Z" fill="#E1BD9A"/>
<path opacity="0.3" d="M67.9731 148.506L66.2297 147.508L64.5938 148.445V161.123L66.3372 162.116L67.9731 161.179V148.506Z" fill="#E1BD9A"/>
<path d="M77.2219 155.972L75.5859 156.91V144.236L77.2219 143.299V155.972Z" fill="#E1BD9A"/>
<path opacity="0.3" d="M77.2219 155.972L75.5859 156.91V144.236L77.2219 143.299V155.972Z" fill="#E1BD9A"/>
<path d="M77.2231 143.299L75.5872 144.236L73.8438 143.238L75.4797 142.301L77.2231 143.299Z" fill="#E1BD9A"/>
<path d="M73.8438 143.238L75.5872 144.236V156.91L73.8438 155.912V143.238Z" fill="#E1BD9A"/>
<path opacity="0.3" d="M73.8438 143.238L75.5872 144.236V156.91L73.8438 155.912V143.238Z" fill="#E1BD9A"/>
<path opacity="0.3" d="M77.2231 143.299L75.4797 142.301L73.8438 143.238V155.912L75.5872 156.909L77.2231 155.972V143.299Z" fill="#E1BD9A"/>
<path d="M77.2283 143.351L66.375 149.486V147.588L77.2283 141.453V143.351Z" fill="#E1BD9A"/>
<path opacity="0.3" d="M77.2283 143.351L66.375 149.486V147.588L77.2283 141.453V143.351Z" fill="#E1BD9A"/>
<path d="M77.2232 141.452L66.3699 147.587L58.5781 143.188L69.4314 137.053L77.2232 141.452Z" fill="#E1BD9A"/>
<path d="M58.5781 143.188L66.3699 147.587V149.485L58.5781 145.086V143.188Z" fill="#E1BD9A"/>
<path opacity="0.3" d="M58.5781 143.188L66.3699 147.587V149.485L58.5781 145.086V143.188Z" fill="#E1BD9A"/>
<path opacity="0.3" d="M77.2232 141.452L69.4314 137.053L58.5781 143.188V145.086L66.3699 149.485L77.2232 143.35V141.452Z" fill="#E1BD9A"/>
<path d="M60.1572 157.893C60.1572 157.086 59.5169 156.432 58.7129 156.39C58.4091 156.084 57.9884 155.889 57.521 155.889C57.1845 155.889 56.876 155.986 56.6142 156.158C56.4834 156.102 56.3385 156.07 56.1889 156.07C55.5953 156.07 55.1185 156.543 55.1092 157.128C54.7306 157.485 54.4922 157.991 54.4922 158.552C54.4922 159.003 54.6464 159.416 54.9035 159.75C54.9035 159.764 54.8988 159.778 54.8988 159.791C54.8988 160.501 55.4784 161.072 56.1889 161.072C56.4133 161.072 56.6236 161.012 56.8059 160.91C57.0069 161.017 57.2359 161.072 57.479 161.072C57.6986 161.072 57.9043 161.026 58.0866 160.938C58.2221 160.993 58.3624 161.021 58.5166 161.021C59.1055 161.021 59.587 160.571 59.6431 160C59.6618 159.982 59.6805 159.963 59.6945 159.945C59.9703 159.68 60.1432 159.313 60.1432 158.9C60.1432 158.729 60.1105 158.566 60.0591 158.413C60.1198 158.255 60.1572 158.079 60.1572 157.893Z" fill="#005750"/>
<path opacity="0.3" d="M58.6544 157.322C58.6544 156.84 58.2711 156.445 57.7896 156.422C57.6074 156.236 57.355 156.125 57.0745 156.125C56.8735 156.125 56.6866 156.185 56.5323 156.287C56.4529 156.255 56.3687 156.236 56.2799 156.236C55.9247 156.236 55.6396 156.519 55.6349 156.867C55.4058 157.081 55.2656 157.383 55.2656 157.717C55.2656 157.986 55.3591 158.236 55.5134 158.431C55.5134 158.441 55.5087 158.45 55.5087 158.455C55.5087 158.877 55.8546 159.22 56.2799 159.22C56.4155 159.22 56.537 159.183 56.6492 159.123C56.7707 159.183 56.9062 159.22 57.0511 159.22C57.182 159.22 57.3035 159.192 57.4157 159.141C57.4952 159.174 57.584 159.192 57.6728 159.192C58.028 159.192 58.3132 158.923 58.3459 158.58C58.3552 158.571 58.3646 158.557 58.3786 158.547C58.5422 158.39 58.645 158.172 58.645 157.926C58.645 157.823 58.6263 157.726 58.5936 157.633C58.6357 157.54 58.6544 157.434 58.6544 157.322Z" fill="#005750"/>
<g opacity="0.3">
<path d="M60.1541 157.893C60.1541 157.091 59.5231 156.441 58.7285 156.395C58.8687 156.524 58.9902 156.678 59.079 156.859C59.2754 157.262 59.28 157.703 59.1351 158.093C59.3314 158.515 59.1538 159.021 58.7285 159.225C58.621 159.276 58.5088 159.304 58.3919 159.309C58.2657 159.522 58.0741 159.699 57.8357 159.815C57.4992 159.977 57.1299 159.986 56.8074 159.87C56.2185 160.121 55.5267 159.87 55.2463 159.295C55.1808 159.16 55.1434 159.021 55.1294 158.882C55.0359 158.794 54.9565 158.687 54.8957 158.562C54.7508 158.269 54.7461 157.945 54.849 157.661C54.8536 157.643 54.863 157.624 54.8677 157.606C54.8536 157.564 54.8349 157.513 54.8209 157.467C54.6059 157.777 54.4844 158.153 54.4844 158.562C54.4844 159.012 54.6386 159.425 54.8957 159.759C54.8957 159.773 54.891 159.787 54.891 159.801C54.891 160.511 55.4706 161.082 56.1811 161.082C56.4054 161.082 56.6158 161.021 56.7981 160.919C56.9991 161.026 57.2281 161.082 57.4711 161.082C57.6908 161.082 57.8965 161.035 58.0788 160.947C58.2143 161.003 58.3546 161.031 58.5088 161.031C59.0977 161.031 59.5792 160.58 59.6353 160.01C59.654 159.991 59.6727 159.972 59.6867 159.954C59.9625 159.689 60.1354 159.323 60.1354 158.91C60.1354 158.738 60.1027 158.576 60.0513 158.422C60.1167 158.255 60.1541 158.079 60.1541 157.893Z" fill="#005750"/>
<path d="M58.3594 156.117C58.364 156.126 58.3641 156.131 58.3687 156.14C58.4342 156.173 58.4996 156.215 58.5604 156.256C58.4996 156.205 58.4295 156.159 58.3594 156.117Z" fill="#005750"/>
</g>
<g opacity="0.3">
<path d="M60.1557 157.894C60.1557 157.318 59.8285 156.817 59.3471 156.566C59.6275 156.822 59.8098 157.184 59.8098 157.597C59.8098 157.768 59.7771 157.935 59.721 158.089C59.7724 158.232 59.8005 158.381 59.8005 158.543C59.8005 158.924 59.6415 159.267 59.3845 159.513C59.3704 159.532 59.3517 159.546 59.3377 159.564C59.2863 160.098 58.8376 160.516 58.2907 160.516C58.1505 160.516 58.0149 160.488 57.8887 160.437C57.7158 160.516 57.5242 160.562 57.3232 160.562C57.0941 160.562 56.8838 160.506 56.6968 160.409C56.5239 160.502 56.3323 160.562 56.1219 160.562C55.4582 160.562 54.9207 160.028 54.9207 159.369C54.9207 159.355 54.9253 159.346 54.9253 159.332C54.687 159.026 54.5421 158.636 54.5421 158.218C54.5421 158.191 54.5467 158.163 54.5467 158.135C54.514 158.274 54.5 158.413 54.5 158.562C54.5 159.012 54.6542 159.425 54.9113 159.759C54.9113 159.773 54.9067 159.787 54.9067 159.801C54.9067 160.511 55.4862 161.082 56.1967 161.082C56.4211 161.082 56.6314 161.021 56.8137 160.919C57.0147 161.026 57.2437 161.082 57.4868 161.082C57.7065 161.082 57.9121 161.035 58.0944 160.947C58.23 161.003 58.3702 161.031 58.5244 161.031C59.1134 161.031 59.5948 160.581 59.6509 160.01C59.6696 159.991 59.6883 159.973 59.7023 159.954C59.9781 159.69 60.151 159.323 60.151 158.91C60.151 158.738 60.1183 158.576 60.0669 158.423C60.1183 158.256 60.1557 158.079 60.1557 157.894Z" fill="#005750"/>
<path d="M58.4219 156.158C58.4359 156.172 58.4452 156.181 58.4593 156.191C58.4639 156.191 58.4733 156.191 58.478 156.195C58.4593 156.186 58.4406 156.172 58.4219 156.158Z" fill="#005750"/>
</g>
</g>
<rect x="153" width="290" height="99" rx="18" fill="#006DB7"/>
<path d="M97 122L208.5 86.026L176.5 62L97 122Z" fill="#006DB7"/>
<rect x="166.048" y="25.0476" width="41.9048" height="41.9048" rx="20.9524" fill="#4285F4"/>
<rect x="166.048" y="25.0476" width="41.9048" height="41.9048" rx="20.9524" stroke="white" stroke-width="2.09524"/>
<g clip-path="url(#clip1_146_81459)">
<path d="M197.058 39.231L189.684 35.718C188.06 34.7484 186.04 34.7312 184.401 35.673L176.944 39.231C176.916 39.245 176.887 39.26 176.86 39.276C175.09 40.2878 174.476 42.5426 175.487 44.3123C175.83 44.9122 176.335 45.4037 176.944 45.731L179.001 46.711V51.611C179.002 53.802 180.427 55.7378 182.52 56.389C183.975 56.8102 185.485 57.0164 187.001 57.001C188.516 57.018 190.025 56.8135 191.482 56.394C193.574 55.7429 194.999 53.8071 195.001 51.616V46.709L197.001 45.753V54.0009C197.001 54.5532 197.448 55.0009 198.001 55.0009C198.553 55.0009 199.001 54.5532 199.001 54.0009V42.0009C199.007 40.8267 198.08 39.7419 197.058 39.231ZM193.001 51.616C193.001 52.9266 192.151 54.0858 190.901 54.479C189.633 54.8412 188.319 55.017 187.001 55.001C185.682 55.017 184.368 54.8412 183.101 54.479C181.85 54.0858 181 52.9266 181.001 51.616V47.664L184.318 49.244C185.136 49.73 186.071 49.9854 187.023 49.983C187.929 49.9894 188.819 49.7496 189.6 49.289L193.001 47.664V51.616ZM196.201 43.926L188.659 47.526C187.607 48.1383 186.304 48.1209 185.269 47.481L177.89 43.971C177.067 43.5274 176.76 42.5011 177.203 41.6786C177.353 41.4005 177.578 41.1699 177.853 41.013L185.348 37.433C186.399 36.822 187.702 36.8393 188.738 37.478L196.112 40.991C196.654 41.2921 196.993 41.8607 197.001 42.481C197.002 43.0685 196.699 43.6149 196.201 43.926Z" fill="white"/>
</g>
<path d="M247.344 24.0909H250.77V36.4446C250.77 37.7988 250.45 38.9898 249.81 40.0178C249.176 41.0457 248.283 41.849 247.132 42.4276C245.981 43 244.636 43.2862 243.097 43.2862C241.552 43.2862 240.204 43 239.053 42.4276C237.902 41.849 237.01 41.0457 236.376 40.0178C235.742 38.9898 235.425 37.7988 235.425 36.4446V24.0909H238.85V36.1584C238.85 36.9463 239.022 37.648 239.367 38.2635C239.718 38.879 240.21 39.3622 240.844 39.7131C241.478 40.0578 242.229 40.2301 243.097 40.2301C243.965 40.2301 244.716 40.0578 245.35 39.7131C245.99 39.3622 246.483 38.879 246.827 38.2635C247.172 37.648 247.344 36.9463 247.344 36.1584V24.0909ZM257.688 34.6903V43H254.345V28.8182H257.54V31.228H257.706C258.032 30.4339 258.552 29.803 259.266 29.3352C259.987 28.8674 260.876 28.6335 261.935 28.6335C262.913 28.6335 263.766 28.8428 264.492 29.2614C265.225 29.6799 265.791 30.2862 266.191 31.0803C266.597 31.8743 266.797 32.8376 266.791 33.9702V43H263.449V34.4872C263.449 33.5393 263.203 32.7976 262.71 32.2621C262.224 31.7266 261.55 31.4588 260.688 31.4588C260.104 31.4588 259.583 31.5881 259.128 31.8466C258.679 32.099 258.325 32.4652 258.066 32.9453C257.814 33.4254 257.688 34.0071 257.688 34.6903ZM270.189 43V28.8182H273.531V43H270.189ZM271.869 26.8054C271.34 26.8054 270.885 26.63 270.503 26.2791C270.121 25.9221 269.93 25.4943 269.93 24.9957C269.93 24.491 270.121 24.0632 270.503 23.7124C270.885 23.3553 271.34 23.1768 271.869 23.1768C272.405 23.1768 272.86 23.3553 273.236 23.7124C273.618 24.0632 273.808 24.491 273.808 24.9957C273.808 25.4943 273.618 25.9221 273.236 26.2791C272.86 26.63 272.405 26.8054 271.869 26.8054ZM289.636 28.8182L284.585 43H280.892L275.842 28.8182H279.406L282.665 39.353H282.813L286.081 28.8182H289.636ZM297.745 43.277C296.323 43.277 295.095 42.9815 294.061 42.3906C293.033 41.7936 292.242 40.9503 291.688 39.8608C291.134 38.7652 290.857 37.4756 290.857 35.9922C290.857 34.5334 291.134 33.2531 291.688 32.1513C292.248 31.0433 293.03 30.1816 294.033 29.5661C295.036 28.9444 296.215 28.6335 297.569 28.6335C298.443 28.6335 299.268 28.7751 300.044 29.0582C300.825 29.3352 301.515 29.7661 302.112 30.3509C302.715 30.9356 303.189 31.6804 303.534 32.5852C303.879 33.4839 304.051 34.5549 304.051 35.7983V36.8232H292.427V34.5703H300.847C300.841 33.9302 300.702 33.3608 300.432 32.8622C300.161 32.3575 299.782 31.9605 299.296 31.6712C298.816 31.3819 298.256 31.2372 297.616 31.2372C296.932 31.2372 296.332 31.4034 295.815 31.7358C295.298 32.062 294.895 32.4929 294.606 33.0284C294.322 33.5578 294.178 34.1394 294.172 34.7734V36.7401C294.172 37.5649 294.322 38.2727 294.624 38.8636C294.926 39.4484 295.347 39.8977 295.889 40.2116C296.431 40.5194 297.065 40.6733 297.791 40.6733C298.277 40.6733 298.717 40.6056 299.111 40.4702C299.505 40.3286 299.847 40.1224 300.136 39.8516C300.425 39.5807 300.644 39.2453 300.792 38.8452L303.912 39.196C303.715 40.0208 303.34 40.741 302.786 41.3565C302.238 41.9659 301.536 42.4399 300.681 42.7784C299.825 43.1108 298.847 43.277 297.745 43.277ZM306.878 43V28.8182H310.119V31.1818H310.267C310.525 30.3632 310.969 29.7322 311.597 29.2891C312.23 28.8397 312.954 28.6151 313.766 28.6151C313.951 28.6151 314.157 28.6243 314.385 28.6428C314.619 28.6551 314.813 28.6766 314.967 28.7074V31.782C314.825 31.7327 314.6 31.6896 314.293 31.6527C313.991 31.6096 313.699 31.5881 313.415 31.5881C312.806 31.5881 312.258 31.7204 311.772 31.9851C311.292 32.2436 310.913 32.6037 310.636 33.0653C310.359 33.527 310.221 34.0594 310.221 34.6626V43H306.878ZM328.396 32.5668L325.349 32.8991C325.263 32.5914 325.112 32.3021 324.897 32.0312C324.687 31.7604 324.404 31.5419 324.047 31.3757C323.69 31.2095 323.253 31.1264 322.736 31.1264C322.041 31.1264 321.456 31.2772 320.982 31.5788C320.514 31.8804 320.283 32.2713 320.289 32.7514C320.283 33.1638 320.434 33.4993 320.742 33.7578C321.056 34.0163 321.573 34.2287 322.293 34.3949L324.712 34.9119C326.054 35.2012 327.051 35.6598 327.703 36.2876C328.362 36.9155 328.694 37.7372 328.701 38.7528C328.694 39.6454 328.433 40.4332 327.916 41.1165C327.405 41.7936 326.694 42.3229 325.783 42.7045C324.872 43.0862 323.826 43.277 322.644 43.277C320.908 43.277 319.511 42.9138 318.452 42.1875C317.393 41.455 316.762 40.4363 316.559 39.1314L319.818 38.8175C319.966 39.4576 320.28 39.9408 320.76 40.267C321.24 40.5933 321.865 40.7564 322.634 40.7564C323.429 40.7564 324.066 40.5933 324.546 40.267C325.032 39.9408 325.275 39.5376 325.275 39.0575C325.275 38.6513 325.118 38.3158 324.804 38.0511C324.496 37.7865 324.016 37.5833 323.364 37.4418L320.945 36.9339C319.585 36.6508 318.578 36.1738 317.926 35.5028C317.273 34.8258 316.95 33.9702 316.956 32.9361C316.95 32.062 317.187 31.3049 317.667 30.6648C318.153 30.0185 318.827 29.5199 319.689 29.169C320.557 28.812 321.557 28.6335 322.69 28.6335C324.352 28.6335 325.66 28.9875 326.614 29.6953C327.574 30.4032 328.168 31.3603 328.396 32.5668ZM331.457 43V28.8182H334.799V43H331.457ZM333.137 26.8054C332.608 26.8054 332.152 26.63 331.771 26.2791C331.389 25.9221 331.198 25.4943 331.198 24.9957C331.198 24.491 331.389 24.0632 331.771 23.7124C332.152 23.3553 332.608 23.1768 333.137 23.1768C333.672 23.1768 334.128 23.3553 334.503 23.7124C334.885 24.0632 335.076 24.491 335.076 24.9957C335.076 25.4943 334.885 25.9221 334.503 26.2791C334.128 26.63 333.672 26.8054 333.137 26.8054ZM343.499 43.2493C342.385 43.2493 341.387 42.9631 340.507 42.3906C339.627 41.8182 338.931 40.9872 338.421 39.8977C337.91 38.8082 337.654 37.4848 337.654 35.9276C337.654 34.3518 337.913 33.0223 338.43 31.9389C338.953 30.8494 339.658 30.0277 340.544 29.4737C341.43 28.9136 342.418 28.6335 343.508 28.6335C344.339 28.6335 345.022 28.7751 345.558 29.0582C346.093 29.3352 346.518 29.6707 346.832 30.0646C347.146 30.4524 347.389 30.8187 347.561 31.1634H347.7V24.0909H351.051V43H347.764V40.7656H347.561C347.389 41.1103 347.14 41.4766 346.813 41.8643C346.487 42.246 346.056 42.5722 345.521 42.843C344.985 43.1139 344.311 43.2493 343.499 43.2493ZM344.431 40.5071C345.139 40.5071 345.742 40.3163 346.241 39.9347C346.739 39.5469 347.118 39.0083 347.377 38.3189C347.635 37.6295 347.764 36.8262 347.764 35.9091C347.764 34.992 347.635 34.1948 347.377 33.5178C347.124 32.8407 346.749 32.3144 346.25 31.9389C345.758 31.5634 345.151 31.3757 344.431 31.3757C343.686 31.3757 343.065 31.5696 342.566 31.9574C342.068 32.3452 341.692 32.8807 341.44 33.5639C341.187 34.2472 341.061 35.0289 341.061 35.9091C341.061 36.7955 341.187 37.5864 341.44 38.282C341.698 38.9714 342.077 39.5161 342.575 39.9162C343.08 40.3101 343.699 40.5071 344.431 40.5071ZM358.694 43.2862C357.795 43.2862 356.986 43.1262 356.266 42.8061C355.552 42.4799 354.985 41.9998 354.567 41.3658C354.154 40.7318 353.948 39.95 353.948 39.0206C353.948 38.2204 354.096 37.5587 354.391 37.0355C354.687 36.5123 355.09 36.0938 355.601 35.7798C356.112 35.4659 356.687 35.2289 357.327 35.0689C357.974 34.9027 358.641 34.7827 359.331 34.7088C360.162 34.6226 360.836 34.5457 361.353 34.478C361.87 34.4041 362.245 34.2933 362.479 34.1456C362.719 33.9917 362.839 33.7547 362.839 33.4347V33.3793C362.839 32.6837 362.633 32.1451 362.221 31.7635C361.808 31.3819 361.214 31.1911 360.439 31.1911C359.62 31.1911 358.971 31.3696 358.491 31.7266C358.017 32.0836 357.697 32.5052 357.53 32.9915L354.41 32.5483C354.656 31.6866 355.062 30.9664 355.628 30.3878C356.195 29.803 356.887 29.366 357.706 29.0767C358.525 28.7812 359.429 28.6335 360.42 28.6335C361.104 28.6335 361.784 28.7135 362.461 28.8736C363.138 29.0336 363.757 29.2983 364.317 29.6676C364.877 30.0308 365.326 30.5263 365.665 31.1541C366.009 31.782 366.182 32.5668 366.182 33.5085V43H362.969V41.0518H362.858C362.655 41.4458 362.369 41.8151 361.999 42.1598C361.636 42.4983 361.177 42.7723 360.623 42.9815C360.076 43.1847 359.432 43.2862 358.694 43.2862ZM359.562 40.8303C360.233 40.8303 360.814 40.6979 361.307 40.4332C361.799 40.1624 362.178 39.8054 362.442 39.3622C362.713 38.919 362.849 38.4358 362.849 37.9126V36.2415C362.744 36.3277 362.565 36.4077 362.313 36.4815C362.067 36.5554 361.79 36.62 361.482 36.6754C361.174 36.7308 360.87 36.7801 360.568 36.8232C360.266 36.8662 360.005 36.9032 359.783 36.9339C359.285 37.0017 358.838 37.1125 358.445 37.2663C358.051 37.4202 357.74 37.6357 357.512 37.9126C357.284 38.1835 357.17 38.5343 357.17 38.9652C357.17 39.5807 357.395 40.0455 357.844 40.3594C358.294 40.6733 358.866 40.8303 359.562 40.8303ZM374.805 43.2493C373.691 43.2493 372.694 42.9631 371.814 42.3906C370.934 41.8182 370.238 40.9872 369.727 39.8977C369.216 38.8082 368.961 37.4848 368.961 35.9276C368.961 34.3518 369.219 33.0223 369.736 31.9389C370.26 30.8494 370.964 30.0277 371.851 29.4737C372.737 28.9136 373.725 28.6335 374.815 28.6335C375.646 28.6335 376.329 28.7751 376.864 29.0582C377.4 29.3352 377.824 29.6707 378.138 30.0646C378.452 30.4524 378.695 30.8187 378.868 31.1634H379.006V24.0909H382.358V43H379.071V40.7656H378.868C378.695 41.1103 378.446 41.4766 378.12 41.8643C377.794 42.246 377.363 42.5722 376.827 42.843C376.292 43.1139 375.618 43.2493 374.805 43.2493ZM375.738 40.5071C376.446 40.5071 377.049 40.3163 377.547 39.9347C378.046 39.5469 378.425 39.0083 378.683 38.3189C378.942 37.6295 379.071 36.8262 379.071 35.9091C379.071 34.992 378.942 34.1948 378.683 33.5178C378.431 32.8407 378.055 32.3144 377.557 31.9389C377.064 31.5634 376.458 31.3757 375.738 31.3757C374.993 31.3757 374.371 31.5696 373.873 31.9574C373.374 32.3452 372.999 32.8807 372.746 33.5639C372.494 34.2472 372.368 35.0289 372.368 35.9091C372.368 36.7955 372.494 37.5864 372.746 38.282C373.005 38.9714 373.383 39.5161 373.882 39.9162C374.387 40.3101 375.005 40.5071 375.738 40.5071ZM397.631 43.2493C396.517 43.2493 395.52 42.9631 394.64 42.3906C393.76 41.8182 393.064 40.9872 392.553 39.8977C392.042 38.8082 391.787 37.4848 391.787 35.9276C391.787 34.3518 392.046 33.0223 392.563 31.9389C393.086 30.8494 393.791 30.0277 394.677 29.4737C395.563 28.9136 396.551 28.6335 397.641 28.6335C398.472 28.6335 399.155 28.7751 399.69 29.0582C400.226 29.3352 400.651 29.6707 400.965 30.0646C401.278 30.4524 401.522 30.8187 401.694 31.1634H401.832V24.0909H405.184V43H401.897V40.7656H401.694C401.522 41.1103 401.272 41.4766 400.946 41.8643C400.62 42.246 400.189 42.5722 399.653 42.843C399.118 43.1139 398.444 43.2493 397.631 43.2493ZM398.564 40.5071C399.272 40.5071 399.875 40.3163 400.374 39.9347C400.872 39.5469 401.251 39.0083 401.509 38.3189C401.768 37.6295 401.897 36.8262 401.897 35.9091C401.897 34.992 401.768 34.1948 401.509 33.5178C401.257 32.8407 400.881 32.3144 400.383 31.9389C399.89 31.5634 399.284 31.3757 398.564 31.3757C397.819 31.3757 397.198 31.5696 396.699 31.9574C396.2 32.3452 395.825 32.8807 395.573 33.5639C395.32 34.2472 395.194 35.0289 395.194 35.9091C395.194 36.7955 395.32 37.5864 395.573 38.282C395.831 38.9714 396.21 39.5161 396.708 39.9162C397.213 40.3101 397.832 40.5071 398.564 40.5071ZM415.024 43.277C413.602 43.277 412.374 42.9815 411.34 42.3906C410.312 41.7936 409.521 40.9503 408.967 39.8608C408.413 38.7652 408.136 37.4756 408.136 35.9922C408.136 34.5334 408.413 33.2531 408.967 32.1513C409.527 31.0433 410.309 30.1816 411.312 29.5661C412.316 28.9444 413.494 28.6335 414.849 28.6335C415.723 28.6335 416.547 28.7751 417.323 29.0582C418.105 29.3352 418.794 29.7661 419.391 30.3509C419.994 30.9356 420.468 31.6804 420.813 32.5852C421.158 33.4839 421.33 34.5549 421.33 35.7983V36.8232H409.706V34.5703H418.126C418.12 33.9302 417.982 33.3608 417.711 32.8622C417.44 32.3575 417.061 31.9605 416.575 31.6712C416.095 31.3819 415.535 31.2372 414.895 31.2372C414.212 31.2372 413.611 31.4034 413.094 31.7358C412.577 32.062 412.174 32.4929 411.885 33.0284C411.602 33.5578 411.457 34.1394 411.451 34.7734V36.7401C411.451 37.5649 411.602 38.2727 411.903 38.8636C412.205 39.4484 412.627 39.8977 413.168 40.2116C413.71 40.5194 414.344 40.6733 415.07 40.6733C415.556 40.6733 415.997 40.6056 416.391 40.4702C416.784 40.3286 417.126 40.1224 417.415 39.8516C417.705 39.5807 417.923 39.2453 418.071 38.8452L421.192 39.196C420.995 40.0208 420.619 40.741 420.065 41.3565C419.517 41.9659 418.816 42.4399 417.96 42.7784C417.105 43.1108 416.126 43.277 415.024 43.277ZM291.765 61.4709H288.312C288.214 60.9046 288.032 60.4029 287.767 59.9659C287.503 59.5227 287.173 59.1473 286.779 58.8395C286.386 58.5317 285.936 58.3009 285.431 58.147C284.933 57.987 284.394 57.907 283.816 57.907C282.788 57.907 281.877 58.1655 281.083 58.6825C280.289 59.1934 279.667 59.9444 279.218 60.9354C278.768 61.9202 278.544 63.1236 278.544 64.5455C278.544 65.992 278.768 67.2107 279.218 68.2017C279.673 69.1866 280.295 69.9313 281.083 70.4361C281.877 70.9347 282.785 71.1839 283.806 71.1839C284.373 71.1839 284.902 71.1101 285.395 70.9624C285.893 70.8085 286.339 70.5838 286.733 70.2884C287.133 69.9929 287.469 69.6297 287.74 69.1989C288.017 68.768 288.208 68.2756 288.312 67.7216L291.765 67.7401C291.636 68.6387 291.356 69.482 290.925 70.2699C290.5 71.0578 289.943 71.7533 289.254 72.3565C288.565 72.9536 287.758 73.4214 286.835 73.7599C285.912 74.0923 284.887 74.2585 283.76 74.2585C282.098 74.2585 280.615 73.8738 279.31 73.1044C278.005 72.335 276.977 71.224 276.226 69.7713C275.475 68.3187 275.1 66.5767 275.1 64.5455C275.1 62.508 275.478 60.7661 276.235 59.3196C276.993 57.867 278.024 56.7559 279.328 55.9865C280.633 55.2171 282.111 54.8324 283.76 54.8324C284.813 54.8324 285.792 54.9801 286.696 55.2756C287.601 55.571 288.408 56.005 289.115 56.5774C289.823 57.1437 290.405 57.8393 290.86 58.6641C291.322 59.4827 291.624 60.4183 291.765 61.4709ZM298.097 65.6903V74H294.754V55.0909H298.023V62.228H298.189C298.521 61.4278 299.035 60.7969 299.731 60.3352C300.433 59.8674 301.325 59.6335 302.409 59.6335C303.393 59.6335 304.252 59.8397 304.985 60.2521C305.717 60.6645 306.283 61.2678 306.683 62.0618C307.09 62.8558 307.293 63.8253 307.293 64.9702V74H303.95V65.4872C303.95 64.5331 303.704 63.7914 303.212 63.2621C302.726 62.7266 302.042 62.4588 301.162 62.4588C300.571 62.4588 300.042 62.5881 299.574 62.8466C299.112 63.099 298.749 63.4652 298.485 63.9453C298.226 64.4254 298.097 65.0071 298.097 65.6903ZM310.7 74V59.8182H314.042V74H310.7ZM312.38 57.8054C311.851 57.8054 311.395 57.63 311.014 57.2791C310.632 56.9221 310.441 56.4943 310.441 55.9957C310.441 55.491 310.632 55.0632 311.014 54.7124C311.395 54.3553 311.851 54.1768 312.38 54.1768C312.916 54.1768 313.371 54.3553 313.747 54.7124C314.128 55.0632 314.319 55.491 314.319 55.9957C314.319 56.4943 314.128 56.9221 313.747 57.2791C313.371 57.63 312.916 57.8054 312.38 57.8054ZM323.665 74.277C322.249 74.277 321.034 73.9661 320.018 73.3445C319.009 72.7228 318.23 71.8641 317.682 70.7685C317.141 69.6667 316.87 68.3987 316.87 66.9645C316.87 65.5241 317.147 64.2531 317.701 63.1513C318.255 62.0433 319.036 61.1816 320.046 60.5661C321.061 59.9444 322.262 59.6335 323.647 59.6335C324.798 59.6335 325.816 59.8459 326.703 60.2706C327.595 60.6892 328.306 61.2831 328.836 62.0526C329.365 62.8158 329.667 63.7083 329.74 64.7301H326.546C326.417 64.0469 326.109 63.4775 325.623 63.022C325.142 62.5604 324.499 62.3295 323.693 62.3295C323.01 62.3295 322.409 62.5142 321.892 62.8835C321.375 63.2467 320.972 63.7699 320.683 64.4531C320.4 65.1364 320.258 65.955 320.258 66.9091C320.258 67.8755 320.4 68.7064 320.683 69.402C320.966 70.0914 321.363 70.6238 321.874 70.9993C322.391 71.3686 322.997 71.5533 323.693 71.5533C324.185 71.5533 324.625 71.4609 325.013 71.2763C325.407 71.0855 325.736 70.8116 326.001 70.4545C326.266 70.0975 326.447 69.6636 326.546 69.1527H329.74C329.66 70.156 329.365 71.0455 328.854 71.821C328.343 72.5904 327.648 73.1937 326.767 73.6307C325.887 74.0616 324.853 74.277 323.665 74.277ZM335.827 55.0909V74H332.485V55.0909H335.827ZM343.345 74.2862C342.446 74.2862 341.637 74.1262 340.917 73.8061C340.203 73.4799 339.637 72.9998 339.218 72.3658C338.806 71.7318 338.599 70.95 338.599 70.0206C338.599 69.2204 338.747 68.5587 339.043 68.0355C339.338 67.5123 339.741 67.0938 340.252 66.7798C340.763 66.4659 341.339 66.2289 341.979 66.0689C342.625 65.9027 343.293 65.7827 343.982 65.7088C344.813 65.6226 345.487 65.5457 346.004 65.478C346.521 65.4041 346.897 65.2933 347.131 65.1456C347.371 64.9917 347.491 64.7547 347.491 64.4347V64.3793C347.491 63.6837 347.285 63.1451 346.872 62.7635C346.46 62.3819 345.866 62.1911 345.09 62.1911C344.272 62.1911 343.622 62.3696 343.142 62.7266C342.668 63.0836 342.348 63.5052 342.182 63.9915L339.061 63.5483C339.307 62.6866 339.714 61.9664 340.28 61.3878C340.846 60.803 341.539 60.366 342.357 60.0767C343.176 59.7812 344.081 59.6335 345.072 59.6335C345.755 59.6335 346.435 59.7135 347.112 59.8736C347.789 60.0336 348.408 60.2983 348.968 60.6676C349.528 61.0308 349.978 61.5263 350.316 62.1541C350.661 62.782 350.833 63.5668 350.833 64.5085V74H347.62V72.0518H347.509C347.306 72.4458 347.02 72.8151 346.651 73.1598C346.287 73.4983 345.829 73.7723 345.275 73.9815C344.727 74.1847 344.084 74.2862 343.345 74.2862ZM344.213 71.8303C344.884 71.8303 345.466 71.6979 345.958 71.4332C346.451 71.1624 346.829 70.8054 347.094 70.3622C347.365 69.919 347.5 69.4358 347.5 68.9126V67.2415C347.395 67.3277 347.217 67.4077 346.964 67.4815C346.718 67.5554 346.441 67.62 346.134 67.6754C345.826 67.7308 345.521 67.7801 345.219 67.8232C344.918 67.8662 344.656 67.9032 344.435 67.9339C343.936 68.0017 343.49 68.1125 343.096 68.2663C342.702 68.4202 342.391 68.6357 342.163 68.9126C341.936 69.1835 341.822 69.5343 341.822 69.9652C341.822 70.5807 342.046 71.0455 342.496 71.3594C342.945 71.6733 343.518 71.8303 344.213 71.8303ZM355.763 79.3182C355.308 79.3182 354.886 79.2813 354.499 79.2074C354.117 79.1397 353.812 79.0597 353.585 78.9673L354.36 76.3636C354.846 76.5052 355.28 76.5729 355.662 76.5668C356.044 76.5606 356.379 76.4406 356.668 76.2067C356.964 75.9789 357.213 75.5973 357.416 75.0618L357.702 74.2955L352.56 59.8182H356.105L359.374 70.5284H359.521L362.799 59.8182H366.354L360.675 75.7173C360.411 76.4683 360.06 77.1115 359.623 77.647C359.186 78.1887 358.65 78.6011 358.016 78.8842C357.388 79.1735 356.638 79.3182 355.763 79.3182ZM374.37 74.277C372.985 74.277 371.785 73.9723 370.769 73.3629C369.754 72.7536 368.966 71.901 368.406 70.8054C367.852 69.7098 367.575 68.4295 367.575 66.9645C367.575 65.4995 367.852 64.2161 368.406 63.1143C368.966 62.0125 369.754 61.157 370.769 60.5476C371.785 59.9382 372.985 59.6335 374.37 59.6335C375.755 59.6335 376.955 59.9382 377.971 60.5476C378.987 61.157 379.771 62.0125 380.325 63.1143C380.886 64.2161 381.166 65.4995 381.166 66.9645C381.166 68.4295 380.886 69.7098 380.325 70.8054C379.771 71.901 378.987 72.7536 377.971 73.3629C376.955 73.9723 375.755 74.277 374.37 74.277ZM374.389 71.5994C375.14 71.5994 375.767 71.3932 376.272 70.9808C376.777 70.5623 377.152 70.0021 377.399 69.3004C377.651 68.5987 377.777 67.817 377.777 66.9553C377.777 66.0874 377.651 65.3026 377.399 64.6009C377.152 63.893 376.777 63.3298 376.272 62.9112C375.767 62.4927 375.14 62.2834 374.389 62.2834C373.619 62.2834 372.979 62.4927 372.468 62.9112C371.963 63.3298 371.585 63.893 371.333 64.6009C371.086 65.3026 370.963 66.0874 370.963 66.9553C370.963 67.817 371.086 68.5987 371.333 69.3004C371.585 70.0021 371.963 70.5623 372.468 70.9808C372.979 71.3932 373.619 71.5994 374.389 71.5994Z" fill="white"/>
<defs>
<clipPath id="clip0_146_81459">
<rect width="89" height="90" fill="white" transform="translate(0 78)"/>
</clipPath>
<clipPath id="clip1_146_81459">
<rect width="24" height="24" fill="white" transform="translate(175 34)"/>
</clipPath>
</defs>
</svg>
