<svg width="443" height="168" viewBox="0 0 443 168" fill="none" xmlns="http://www.w3.org/2000/svg">
<g clip-path="url(#clip0_146_80244)">
<path d="M19.4116 140.963V144.801L0 156.105V152.267L19.4116 140.963Z" fill="#E1BD9A"/>
<path d="M87.5109 128.346L20.8906 166.534V127.395L87.5109 89.207V128.346Z" fill="#823130"/>
<path opacity="0.3" d="M87.5109 128.346L20.8906 166.534V127.395L87.5109 89.207V128.346Z" fill="#823130"/>
<path d="M87.5159 89.2071L20.8956 127.395L1.34375 116.188L67.964 78L87.5159 89.2071Z" fill="#823130"/>
<path d="M1.34375 116.188L20.8956 127.395V166.533L1.34375 155.322V116.188Z" fill="#823130"/>
<path opacity="0.3" d="M1.34375 116.188L20.8956 127.395V166.533L1.34375 155.322V116.188Z" fill="#823130"/>
<path d="M0 152.254V156.092L19.4116 167.206V163.368L0 152.254Z" fill="#E1BD9A"/>
<path d="M20.8933 162.695L1.34147 151.488L0 152.268L1.34147 155.321L20.8933 166.533L89 125.12L87.5136 124.508L20.8933 162.695Z" fill="#E1BD9A"/>
<path d="M88.9973 128.959L20.8906 168V164.167L88.9973 125.121V128.959Z" fill="#E1BD9A"/>
<path opacity="0.3" d="M88.9973 128.959L20.8906 168V164.167L88.9973 125.121V128.959Z" fill="#E1BD9A"/>
<path d="M1.34375 152.959V156.792L20.8956 167.999V164.166L1.34375 152.959Z" fill="#E1BD9A"/>
<path opacity="0.3" d="M0 152.254V156.092L20.8933 168V164.166L0 152.254Z" fill="#E1BD9A"/>
<path d="M3.35938 148.699V142.109L7.07063 144.235V150.824L3.35938 148.699Z" fill="#283036"/>
<path d="M6.81429 150.379L3.61719 148.55V142.555L6.81429 144.388V150.379Z" fill="#72B8CF"/>
<path opacity="0.5" d="M3.61719 147.07L6.81429 145.242V144.388L6.78157 144.369L3.61719 146.179V147.07Z" fill="#72B8CF"/>
<path opacity="0.5" d="M6.81429 145.85L3.61719 147.683V148.55L4.57071 149.093L6.81429 147.808V145.85Z" fill="#72B8CF"/>
<path d="M6.81429 147.102L3.61719 145.269V144.814L6.81429 146.643V147.102Z" fill="#283036"/>
<path d="M9.21094 152.082V145.492L12.9269 147.622V154.212L9.21094 152.082Z" fill="#283036"/>
<path d="M12.6659 153.768L9.46875 151.935V145.939L12.6659 147.772V153.768Z" fill="#72B8CF"/>
<path opacity="0.5" d="M9.46875 150.457L12.6659 148.624V147.771L12.6331 147.752L9.46875 149.566V150.457Z" fill="#72B8CF"/>
<path opacity="0.5" d="M12.6659 149.238L9.46875 151.071V151.934L10.4223 152.482L12.6659 151.197V149.238Z" fill="#72B8CF"/>
<path d="M12.6659 150.487L9.46875 148.659V148.199L12.6659 150.032V150.487Z" fill="#283036"/>
<path d="M15.0703 155.431V148.842L18.7862 150.972V157.562L15.0703 155.431Z" fill="#283036"/>
<path d="M18.5206 157.116L15.3281 155.283V149.287L18.5206 151.12V157.116Z" fill="#72B8CF"/>
<path opacity="0.5" d="M15.3281 153.807L18.5206 151.974V151.12L18.4878 151.102L15.3281 152.916V153.807Z" fill="#72B8CF"/>
<path opacity="0.5" d="M18.5206 152.588L15.3281 154.416V155.284L16.277 155.832L18.5206 154.546V152.588Z" fill="#72B8CF"/>
<path d="M18.5206 153.835L15.3281 152.006V151.547L18.5206 153.38V153.835Z" fill="#283036"/>
<path d="M3.35938 138.903V132.309L7.07063 134.439V141.028L3.35938 138.903Z" fill="#283036"/>
<path d="M6.81429 140.582L3.61719 138.749V132.758L6.81429 134.586V140.582Z" fill="#72B8CF"/>
<path opacity="0.5" d="M3.61719 137.274L6.81429 135.441V134.587L6.78157 134.568L3.61719 136.383V137.274Z" fill="#72B8CF"/>
<path opacity="0.5" d="M6.81429 136.053L3.61719 137.886V138.749L4.57071 139.297L6.81429 138.011V136.053Z" fill="#72B8CF"/>
<path d="M6.81429 137.306L3.61719 135.473V135.014L6.81429 136.847V137.306Z" fill="#283036"/>
<path d="M9.21094 142.285V135.695L12.9269 137.825V144.415L9.21094 142.285Z" fill="#283036"/>
<path d="M12.6659 143.965L9.46875 142.136V136.141L12.6659 137.974V143.965Z" fill="#72B8CF"/>
<path opacity="0.5" d="M9.46875 140.656L12.6659 138.828V137.974L12.6331 137.955L9.46875 139.77V140.656Z" fill="#72B8CF"/>
<path opacity="0.5" d="M12.6659 139.439L9.46875 141.268V142.136L10.4223 142.679L12.6659 141.398V139.439Z" fill="#72B8CF"/>
<path d="M12.6659 140.688L9.46875 138.855V138.4L12.6659 140.229V140.688Z" fill="#283036"/>
<path d="M15.0703 145.637V139.047L18.7862 141.177V147.767L15.0703 145.637Z" fill="#283036"/>
<path d="M18.5206 147.316L15.3281 145.488V139.492L18.5206 141.325V147.316Z" fill="#72B8CF"/>
<path opacity="0.5" d="M15.3281 144.007L18.5206 142.179V141.325L18.4878 141.307L15.3281 143.121V144.007Z" fill="#72B8CF"/>
<path opacity="0.5" d="M18.5206 142.793L15.3281 144.621V145.489L16.277 146.032L18.5206 144.751V142.793Z" fill="#72B8CF"/>
<path d="M18.5206 144.04L15.3281 142.211V141.752L18.5206 143.58V144.04Z" fill="#283036"/>
<path d="M3.35938 129.103V122.514L7.07063 124.644V131.233L3.35938 129.103Z" fill="#283036"/>
<path d="M6.81429 130.789L3.61719 128.956V122.965L6.81429 124.793V130.789Z" fill="#72B8CF"/>
<path opacity="0.5" d="M3.61719 127.479L6.81429 125.646V124.792L6.78157 124.773L3.61719 126.588V127.479Z" fill="#72B8CF"/>
<path opacity="0.5" d="M6.81429 126.26L3.61719 128.093V128.956L4.57071 129.504L6.81429 128.218V126.26Z" fill="#72B8CF"/>
<path d="M6.81429 127.511L3.61719 125.678V125.219L6.81429 127.052V127.511Z" fill="#283036"/>
<path d="M9.21094 132.492V125.902L12.9269 128.032V134.622L9.21094 132.492Z" fill="#283036"/>
<path d="M12.6659 134.174L9.46875 132.345V126.35L12.6659 128.183V134.174Z" fill="#72B8CF"/>
<path opacity="0.5" d="M9.46875 130.863L12.6659 129.035V128.181L12.6331 128.162L9.46875 129.972V130.863Z" fill="#72B8CF"/>
<path opacity="0.5" d="M12.6659 129.648L9.46875 131.477V132.345L10.4223 132.888L12.6659 131.602V129.648Z" fill="#72B8CF"/>
<path d="M12.6659 130.897L9.46875 129.064V128.609L12.6659 130.438V130.897Z" fill="#283036"/>
<path d="M15.0703 135.842V129.252L18.7862 131.377V137.972L15.0703 135.842Z" fill="#283036"/>
<path d="M18.5206 137.521L15.3281 135.693V129.697L18.5206 131.53V137.521Z" fill="#72B8CF"/>
<path opacity="0.5" d="M15.3281 134.213L18.5206 132.384V131.53L18.4878 131.512L15.3281 133.322V134.213Z" fill="#72B8CF"/>
<path opacity="0.5" d="M18.5206 132.996L15.3281 134.824V135.692L16.277 136.235L18.5206 134.95V132.996Z" fill="#72B8CF"/>
<path d="M18.5206 134.245L15.3281 132.412V131.957L18.5206 133.785V134.245Z" fill="#283036"/>
<path d="M32.5753 152.082V145.492L28.8594 147.622V154.212L32.5753 152.082Z" fill="#283036"/>
<path d="M29.125 153.768L32.3174 151.935V145.939L29.125 147.772V153.768Z" fill="#72B8CF"/>
<path opacity="0.5" d="M32.3174 150.457L29.125 148.624V147.771L29.153 147.752L32.3174 149.566V150.457Z" fill="#72B8CF"/>
<path opacity="0.5" d="M29.125 149.238L32.3174 151.071V151.934L31.3639 152.482L29.125 151.197V149.238Z" fill="#72B8CF"/>
<path d="M29.125 150.487L32.3174 148.659V148.199L29.125 150.032V150.487Z" fill="#283036"/>
<path d="M26.7159 155.433V148.844L23 150.974V157.563L26.7159 155.433Z" fill="#283036"/>
<path d="M23.2656 157.118L26.4581 155.285V149.289L23.2656 151.122V157.118Z" fill="#72B8CF"/>
<path opacity="0.5" d="M26.4581 153.809L23.2656 151.976V151.122L23.2983 151.104L26.4581 152.918V153.809Z" fill="#72B8CF"/>
<path opacity="0.5" d="M23.2656 152.59L26.4581 154.418V155.286L25.5092 155.834L23.2656 154.548V152.59Z" fill="#72B8CF"/>
<path d="M23.2656 153.837L26.4581 152.008V151.549L23.2656 153.382V153.837Z" fill="#283036"/>
<path d="M32.5753 142.287V135.697L28.8594 137.827V144.417L32.5753 142.287Z" fill="#283036"/>
<path d="M29.125 143.967L32.3174 142.138V136.143L29.125 137.976V143.967Z" fill="#72B8CF"/>
<path opacity="0.5" d="M32.3174 140.658L29.125 138.829V137.976L29.153 137.957L32.3174 139.772V140.658Z" fill="#72B8CF"/>
<path opacity="0.5" d="M29.125 139.441L32.3174 141.27V142.138L31.3639 142.681L29.125 141.4V139.441Z" fill="#72B8CF"/>
<path d="M29.125 140.69L32.3174 138.857V138.402L29.125 140.231V140.69Z" fill="#283036"/>
<path d="M26.7159 145.638V139.049L23 141.179V147.769L26.7159 145.638Z" fill="#283036"/>
<path d="M23.2656 147.318L26.4581 145.49V139.494L23.2656 141.327V147.318Z" fill="#72B8CF"/>
<path opacity="0.5" d="M26.4581 144.009L23.2656 142.181V141.327L23.2983 141.309L26.4581 143.123V144.009Z" fill="#72B8CF"/>
<path opacity="0.5" d="M23.2656 142.793L26.4581 144.621V145.489L25.5092 146.032L23.2656 144.751V142.793Z" fill="#72B8CF"/>
<path d="M23.2656 144.042L26.4581 142.213V141.754L23.2656 143.582V144.042Z" fill="#283036"/>
<path d="M32.5753 132.49V125.9L28.8594 128.03V134.62L32.5753 132.49Z" fill="#283036"/>
<path d="M29.125 134.172L32.3174 132.343V126.348L29.125 128.181V134.172Z" fill="#72B8CF"/>
<path opacity="0.5" d="M32.3174 130.861L29.125 129.033V128.179L29.153 128.16L32.3174 129.97V130.861Z" fill="#72B8CF"/>
<path opacity="0.5" d="M29.125 129.646L32.3174 131.475V132.343L31.3639 132.886L29.125 131.6V129.646Z" fill="#72B8CF"/>
<path d="M29.125 130.895L32.3174 129.062V128.607L29.125 130.436V130.895Z" fill="#283036"/>
<path d="M26.7159 135.842V129.252L23 131.377V137.972L26.7159 135.842Z" fill="#283036"/>
<path d="M23.2656 137.521L26.4581 135.693V129.697L23.2656 131.53V137.521Z" fill="#72B8CF"/>
<path opacity="0.5" d="M26.4581 134.213L23.2656 132.384V131.53L23.2983 131.512L26.4581 133.322V134.213Z" fill="#72B8CF"/>
<path opacity="0.5" d="M23.2656 132.998L26.4581 134.826V135.694L25.5092 136.237L23.2656 134.952V132.998Z" fill="#72B8CF"/>
<path d="M23.2656 134.245L26.4581 132.412V131.957L23.2656 133.785V134.245Z" fill="#283036"/>
<path d="M85.3097 121.971V115.381L81.5938 117.511V124.101L85.3097 121.971Z" fill="#283036"/>
<path d="M81.8516 123.655L85.0487 121.822V115.826L81.8516 117.659V123.655Z" fill="#72B8CF"/>
<path opacity="0.5" d="M85.0487 120.346L81.8516 118.513V117.659L81.8843 117.641L85.0487 119.455V120.346Z" fill="#72B8CF"/>
<path opacity="0.5" d="M81.8516 119.125L85.0487 120.958V121.821L84.0951 122.369L81.8516 121.083V119.125Z" fill="#72B8CF"/>
<path d="M81.8516 120.374L85.0487 118.545V118.086L81.8516 119.919V120.374Z" fill="#283036"/>
<path d="M79.4503 125.32V118.73L75.7344 120.861V127.45L79.4503 125.32Z" fill="#283036"/>
<path d="M76 127.004L79.1924 125.171V119.176L76 121.009V127.004Z" fill="#72B8CF"/>
<path opacity="0.5" d="M79.1924 123.696L76 121.863V121.009L76.0327 120.99L79.1924 122.805V123.696Z" fill="#72B8CF"/>
<path opacity="0.5" d="M76 122.475L79.1924 124.303V125.171L78.2436 125.718L76 124.433V122.475Z" fill="#72B8CF"/>
<path d="M76 123.723L79.1924 121.895V121.436L76 123.269V123.723Z" fill="#283036"/>
<path d="M85.3097 112.174V105.584L81.5938 107.714V114.304L85.3097 112.174Z" fill="#283036"/>
<path d="M81.8516 113.853L85.0487 112.025V106.029L81.8516 107.862V113.853Z" fill="#72B8CF"/>
<path opacity="0.5" d="M85.0487 110.545L81.8516 108.716V107.862L81.8843 107.844L85.0487 109.658V110.545Z" fill="#72B8CF"/>
<path opacity="0.5" d="M81.8516 109.328L85.0487 111.157V112.024L84.0951 112.572L81.8516 111.286V109.328Z" fill="#72B8CF"/>
<path d="M81.8516 110.577L85.0487 108.744V108.289L81.8516 110.117V110.577Z" fill="#283036"/>
<path d="M79.4503 115.523V108.934L75.7344 111.064V117.653L79.4503 115.523Z" fill="#283036"/>
<path d="M76 117.205L79.1924 115.377V109.381L76 111.214V117.205Z" fill="#72B8CF"/>
<path opacity="0.5" d="M79.1924 113.894L76 112.066V111.212L76.0327 111.193L79.1924 113.008V113.894Z" fill="#72B8CF"/>
<path opacity="0.5" d="M76 112.68L79.1924 114.508V115.376L78.2436 115.919L76 114.633V112.68Z" fill="#72B8CF"/>
<path d="M76 113.928L79.1924 112.095V111.641L76 113.469V113.928Z" fill="#283036"/>
<path d="M85.3097 102.377V95.7871L81.5938 97.9171V104.507L85.3097 102.377Z" fill="#283036"/>
<path d="M81.8516 104.056L85.0487 102.228V96.2324L81.8516 98.0655V104.056Z" fill="#72B8CF"/>
<path opacity="0.5" d="M85.0487 100.748L81.8516 98.9193V98.0654L81.8843 98.0469L85.0487 99.8567V100.748Z" fill="#72B8CF"/>
<path opacity="0.5" d="M81.8516 99.5332L85.0487 101.362V102.229L84.0951 102.772L81.8516 101.487V99.5332Z" fill="#72B8CF"/>
<path d="M81.8516 100.78L85.0487 98.947V98.4922L81.8516 100.321V100.78Z" fill="#283036"/>
<path d="M79.4503 105.728V99.1387L75.7344 101.264V107.858L79.4503 105.728Z" fill="#283036"/>
<path d="M76 107.408L79.1924 105.58V99.584L76 101.417V107.408Z" fill="#72B8CF"/>
<path opacity="0.5" d="M79.1924 104.099L76 102.271V101.417L76.0327 101.398L79.1924 103.208V104.099Z" fill="#72B8CF"/>
<path opacity="0.5" d="M76 102.883L79.1924 104.711V105.579L78.2436 106.122L76 104.837V102.883Z" fill="#72B8CF"/>
<path d="M76 104.132L79.1924 102.299V101.844L76 103.672V104.132Z" fill="#283036"/>
<path d="M82.7132 143.805L43.6562 166.256V125.651L82.7132 103.246V143.805Z" fill="#823130"/>
<path opacity="0.3" d="M82.7132 143.805L43.6562 166.256V125.651L82.7132 103.246V143.805Z" fill="#823130"/>
<path d="M82.7103 103.246L43.6533 125.65L33.875 119.989L72.932 97.584L82.7103 103.246Z" fill="#823130"/>
<path d="M33.875 119.988L43.6533 125.65V166.255L33.875 160.598V119.988Z" fill="#823130"/>
<path opacity="0.3" d="M33.875 119.988L43.6533 125.65V166.255L33.875 160.598V119.988Z" fill="#823130"/>
<path d="M56.8019 149.748V143.158L53.0859 145.288V151.878L56.8019 149.748Z" fill="#283036"/>
<path d="M53.3438 151.433L56.5362 149.6V143.609L53.3438 145.438V151.433Z" fill="#72B8CF"/>
<path opacity="0.5" d="M56.5362 148.123L53.3438 146.29V145.437L53.3718 145.418L56.5362 147.232V148.123Z" fill="#72B8CF"/>
<path opacity="0.5" d="M53.3438 146.904L56.5362 148.737V149.6L55.5873 150.148L53.3438 148.863V146.904Z" fill="#72B8CF"/>
<path d="M53.3438 148.158L56.5362 146.325V145.865L53.3438 147.698V148.158Z" fill="#283036"/>
<path d="M50.9456 153.099V146.51L47.2344 148.64V155.229L50.9456 153.099Z" fill="#283036"/>
<path d="M47.4922 154.785L50.6893 152.952V146.961L47.4922 148.789V154.785Z" fill="#72B8CF"/>
<path opacity="0.5" d="M50.6893 151.475L47.4922 149.642V148.788L47.5249 148.77L50.6893 150.584V151.475Z" fill="#72B8CF"/>
<path opacity="0.5" d="M47.4922 150.256L50.6893 152.089V152.952L49.7358 153.5L47.4922 152.214V150.256Z" fill="#72B8CF"/>
<path d="M47.4922 151.507L50.6893 149.674V149.215L47.4922 151.048V151.507Z" fill="#283036"/>
<path d="M62.6566 136.568V129.979L58.9453 132.109V138.698L62.6566 136.568Z" fill="#283036"/>
<path d="M59.2031 138.254L62.4002 136.421V130.426L59.2031 132.259V138.254Z" fill="#72B8CF"/>
<path opacity="0.5" d="M62.4002 134.944L59.2031 133.111V132.257L59.2358 132.238L62.4002 134.053V134.944Z" fill="#72B8CF"/>
<path opacity="0.5" d="M59.2031 133.725L62.4002 135.553V136.421L61.4467 136.968L59.2031 135.683V133.725Z" fill="#72B8CF"/>
<path d="M59.2031 134.973L62.4002 133.145V132.686L59.2031 134.519V134.973Z" fill="#283036"/>
<path d="M56.8019 139.951V133.361L53.0859 135.491V142.081L56.8019 139.951Z" fill="#283036"/>
<path d="M53.3438 141.637L56.5362 139.804V133.812L53.3438 135.641V141.637Z" fill="#72B8CF"/>
<path opacity="0.5" d="M56.5362 138.327L53.3438 136.494V135.64L53.3718 135.621L56.5362 137.436V138.327Z" fill="#72B8CF"/>
<path opacity="0.5" d="M53.3438 137.107L56.5362 138.94V139.804L55.5873 140.351L53.3438 139.066V137.107Z" fill="#72B8CF"/>
<path d="M53.3438 138.359L56.5362 136.526V136.066L53.3438 137.899V138.359Z" fill="#283036"/>
<path d="M50.9456 143.303V136.713L47.2344 138.843V145.433L50.9456 143.303Z" fill="#283036"/>
<path d="M47.4922 144.988L50.6893 143.155V137.164L47.4922 138.992V144.988Z" fill="#72B8CF"/>
<path opacity="0.5" d="M50.6893 141.678L47.4922 139.845V138.991L47.5249 138.973L50.6893 140.787V141.678Z" fill="#72B8CF"/>
<path opacity="0.5" d="M47.4922 140.459L50.6893 142.292V143.155L49.7358 143.703L47.4922 142.417V140.459Z" fill="#72B8CF"/>
<path d="M47.4922 141.71L50.6893 139.877V139.418L47.4922 141.251V141.71Z" fill="#283036"/>
<path d="M74.3722 129.836V123.246L70.6562 125.371V131.961L74.3722 129.836Z" fill="#283036"/>
<path d="M70.9219 131.515L74.1143 129.687V123.691L70.9219 125.52V131.515Z" fill="#72B8CF"/>
<path opacity="0.5" d="M74.1143 128.207L70.9219 126.374V125.52L70.9499 125.506L74.1143 127.316V128.207Z" fill="#72B8CF"/>
<path opacity="0.5" d="M70.9219 126.986L74.1143 128.819V129.687L73.1608 130.23L70.9219 128.945V126.986Z" fill="#72B8CF"/>
<path d="M70.9219 128.24L74.1143 126.407V125.947L70.9219 127.78V128.24Z" fill="#283036"/>
<path d="M68.5128 133.219V126.629L64.7969 128.759V135.349L68.5128 133.219Z" fill="#283036"/>
<path d="M65.0625 134.903L68.2549 133.07V127.074L65.0625 128.907V134.903Z" fill="#72B8CF"/>
<path opacity="0.5" d="M68.2549 131.594L65.0625 129.761V128.907L65.0952 128.889L68.2549 130.703V131.594Z" fill="#72B8CF"/>
<path opacity="0.5" d="M65.0625 130.373L68.2549 132.201V133.069L67.3061 133.617L65.0625 132.331V130.373Z" fill="#72B8CF"/>
<path d="M65.0625 131.622L68.2549 129.793V129.334L65.0625 131.167V131.622Z" fill="#283036"/>
<path d="M80.2269 126.484V119.895L76.5156 122.025V128.614L80.2269 126.484Z" fill="#283036"/>
<path d="M76.7734 128.17L79.9705 126.337V120.346L76.7734 122.174V128.17Z" fill="#72B8CF"/>
<path opacity="0.5" d="M79.9705 124.86L76.7734 123.027V122.173L76.8062 122.154L79.9705 123.969V124.86Z" fill="#72B8CF"/>
<path opacity="0.5" d="M76.7734 123.641L79.9705 125.474V126.337L79.017 126.884L76.7734 125.599V123.641Z" fill="#72B8CF"/>
<path d="M76.7734 124.892L79.9705 123.059V122.6L76.7734 124.433V124.892Z" fill="#283036"/>
<path d="M74.3566 139.637V133.047L70.6406 135.172V141.767L74.3566 139.637Z" fill="#283036"/>
<path d="M70.8984 141.318L74.0955 139.49V133.494L70.8984 135.327V141.318Z" fill="#72B8CF"/>
<path opacity="0.5" d="M74.0955 138.007L70.8984 136.179V135.325L70.9312 135.307L74.0955 137.116V138.007Z" fill="#72B8CF"/>
<path opacity="0.5" d="M70.8984 136.787L74.0955 138.62V139.488L73.142 140.031L70.8984 138.745V136.787Z" fill="#72B8CF"/>
<path d="M70.8984 138.04L74.0955 136.207V135.752L70.8984 137.58V138.04Z" fill="#283036"/>
<path d="M80.2113 136.287V129.697L76.5 131.827V138.417L80.2113 136.287Z" fill="#283036"/>
<path d="M76.7578 137.973L79.9549 136.139V130.148L76.7578 131.977V137.973Z" fill="#72B8CF"/>
<path opacity="0.5" d="M79.9549 134.663L76.7578 132.829V131.976L76.7905 131.957L79.9549 133.772V134.663Z" fill="#72B8CF"/>
<path opacity="0.5" d="M76.7578 133.443L79.9549 135.276V136.14L79.0014 136.687L76.7578 135.402V133.443Z" fill="#72B8CF"/>
<path d="M76.7578 134.695L79.9549 132.862V132.402L76.7578 134.235V134.695Z" fill="#283036"/>
<path d="M62.6566 126.791V120.201L58.9453 122.331V128.921L62.6566 126.791Z" fill="#283036"/>
<path d="M59.2031 128.473L62.4002 126.644V120.648L59.2031 122.481V128.473Z" fill="#72B8CF"/>
<path opacity="0.5" d="M62.4002 125.162L59.2031 123.333V122.48L59.2358 122.461L62.4002 124.275V125.162Z" fill="#72B8CF"/>
<path opacity="0.5" d="M59.2031 123.947L62.4002 125.776V126.643L61.4467 127.191L59.2031 125.906V123.947Z" fill="#72B8CF"/>
<path d="M59.2031 125.196L62.4002 123.363V122.908L59.2031 124.737V125.196Z" fill="#283036"/>
<path d="M56.8019 130.174V123.584L53.0859 125.714V132.304L56.8019 130.174Z" fill="#283036"/>
<path d="M53.3438 131.86L56.5362 130.027V124.031L53.3438 125.864V131.86Z" fill="#72B8CF"/>
<path opacity="0.5" d="M56.5362 128.549L53.3438 126.716V125.862L53.3718 125.844L56.5362 127.658V128.549Z" fill="#72B8CF"/>
<path opacity="0.5" d="M53.3438 127.33L56.5362 129.163V130.026L55.5873 130.574L53.3438 129.288V127.33Z" fill="#72B8CF"/>
<path d="M53.3438 128.582L56.5362 126.748V126.289L53.3438 128.122V128.582Z" fill="#283036"/>
<path d="M50.9456 133.525V126.936L47.2344 129.066V135.655L50.9456 133.525Z" fill="#283036"/>
<path d="M47.4922 135.21L50.6893 133.377V127.381L47.4922 129.214V135.21Z" fill="#72B8CF"/>
<path opacity="0.5" d="M50.6893 131.901L47.4922 130.068V129.214L47.5249 129.195L50.6893 131.01V131.901Z" fill="#72B8CF"/>
<path opacity="0.5" d="M47.4922 130.682L50.6893 132.515V133.378L49.7358 133.925L47.4922 132.64V130.682Z" fill="#72B8CF"/>
<path d="M47.4922 131.928L50.6893 130.1V129.641L47.4922 131.474V131.928Z" fill="#283036"/>
<path d="M74.3722 120.057V113.463L70.6562 115.593V122.183L74.3722 120.057Z" fill="#283036"/>
<path d="M70.9219 121.738L74.1143 119.905V113.914L70.9219 115.742V121.738Z" fill="#72B8CF"/>
<path opacity="0.5" d="M74.1143 118.428L70.9219 116.595V115.741L70.9499 115.723L74.1143 117.537V118.428Z" fill="#72B8CF"/>
<path opacity="0.5" d="M70.9219 117.207L74.1143 119.04V119.903L73.1608 120.451L70.9219 119.165V117.207Z" fill="#72B8CF"/>
<path d="M70.9219 118.46L74.1143 116.627V116.168L70.9219 118.001V118.46Z" fill="#283036"/>
<path d="M68.5128 123.441V116.852L64.7969 118.982V125.571L68.5128 123.441Z" fill="#283036"/>
<path d="M65.0625 125.121L68.2549 123.293V117.297L65.0625 119.13V125.121Z" fill="#72B8CF"/>
<path opacity="0.5" d="M68.2549 121.812L65.0625 119.984V119.13L65.0952 119.111L68.2549 120.926V121.812Z" fill="#72B8CF"/>
<path opacity="0.5" d="M65.0625 120.598L68.2549 122.426V123.294L67.3061 123.841L65.0625 122.556V120.598Z" fill="#72B8CF"/>
<path d="M65.0625 121.844L68.2549 120.016V119.557L65.0625 121.385V121.844Z" fill="#283036"/>
<path d="M80.2269 116.707V110.117L76.5156 112.247V118.837L80.2269 116.707Z" fill="#283036"/>
<path d="M76.7734 118.39L79.9705 116.557V110.566L76.7734 112.395V118.39Z" fill="#72B8CF"/>
<path opacity="0.5" d="M79.9705 115.082L76.7734 113.249V112.396L76.8062 112.377L79.9705 114.191V115.082Z" fill="#72B8CF"/>
<path opacity="0.5" d="M76.7734 113.861L79.9705 115.694V116.558L79.017 117.105L76.7734 115.82V113.861Z" fill="#72B8CF"/>
<path d="M76.7734 115.115L79.9705 113.282V112.822L76.7734 114.655V115.115Z" fill="#283036"/>
<path d="M45.7557 121.493L45.0312 121.896V118.931L45.7557 118.527V121.493Z" fill="#283036"/>
<path opacity="0.3" d="M45.7557 121.493L45.0312 121.896V118.931L45.7557 118.527V121.493Z" fill="#283036"/>
<path d="M45.7593 118.527L45.0349 118.931L44.1094 118.415L44.8339 118.012L45.7593 118.527Z" fill="#283036"/>
<path d="M44.1094 118.416L45.0349 118.931V121.896L44.1094 121.381V118.416Z" fill="#283036"/>
<path opacity="0.3" d="M44.1094 118.416L45.0349 118.931V121.896L44.1094 121.381V118.416Z" fill="#283036"/>
<path d="M51.7198 118.066L51 118.47V115.505L51.7198 115.105V118.066Z" fill="#283036"/>
<path opacity="0.3" d="M51.7198 118.066L51 118.47V115.505L51.7198 115.105V118.066Z" fill="#283036"/>
<path d="M51.7234 115.106L51.0036 115.505L50.0781 114.99L50.8026 114.586L51.7234 115.106Z" fill="#283036"/>
<path d="M50.0781 114.988L51.0036 115.503V118.469L50.0781 117.954V114.988Z" fill="#283036"/>
<path opacity="0.3" d="M50.0781 114.988L51.0036 115.503V118.469L50.0781 117.954V114.988Z" fill="#283036"/>
<path d="M57.701 114.647L56.9766 115.046V112.085L57.701 111.682V114.647Z" fill="#283036"/>
<path opacity="0.3" d="M57.701 114.647L56.9766 115.046V112.085L57.701 111.682V114.647Z" fill="#283036"/>
<path d="M57.7 111.681L56.9755 112.085L56.0547 111.565L56.7745 111.166L57.7 111.681Z" fill="#283036"/>
<path d="M56.0547 111.566L56.9755 112.086V115.047L56.0547 114.532V111.566Z" fill="#283036"/>
<path opacity="0.3" d="M56.0547 111.566L56.9755 112.086V115.047L56.0547 114.532V111.566Z" fill="#283036"/>
<path d="M63.6776 111.221L62.9531 111.625V108.66L63.6776 108.256V111.221Z" fill="#283036"/>
<path opacity="0.3" d="M63.6776 111.221L62.9531 111.625V108.66L63.6776 108.256V111.221Z" fill="#283036"/>
<path d="M63.6734 108.257L62.9489 108.661L62.0234 108.146L62.7479 107.742L63.6734 108.257Z" fill="#283036"/>
<path d="M62.0234 108.145L62.9489 108.66V111.625L62.0234 111.105V108.145Z" fill="#283036"/>
<path opacity="0.3" d="M62.0234 108.145L62.9489 108.66V111.625L62.0234 111.105V108.145Z" fill="#283036"/>
<path d="M69.6417 107.797L68.9219 108.201V105.236L69.6417 104.832V107.797Z" fill="#283036"/>
<path opacity="0.3" d="M69.6417 107.797L68.9219 108.201V105.236L69.6417 104.832V107.797Z" fill="#283036"/>
<path d="M69.6453 104.833L68.9255 105.237L68 104.722L68.7245 104.318L69.6453 104.833Z" fill="#283036"/>
<path d="M68 104.721L68.9255 105.236V108.201L68 107.686V104.721Z" fill="#283036"/>
<path opacity="0.3" d="M68 104.721L68.9255 105.236V108.201L68 107.686V104.721Z" fill="#283036"/>
<path d="M75.6151 104.372L74.8906 104.775V101.81L75.6151 101.406V104.372Z" fill="#283036"/>
<path opacity="0.3" d="M75.6151 104.372L74.8906 104.775V101.81L75.6151 101.406V104.372Z" fill="#283036"/>
<path d="M75.614 101.408L74.8896 101.811L73.9688 101.296L74.6886 100.893L75.614 101.408Z" fill="#283036"/>
<path d="M73.9688 101.295L74.8896 101.81V104.775L73.9688 104.26V101.295Z" fill="#283036"/>
<path opacity="0.3" d="M73.9688 101.295L74.8896 101.81V104.775L73.9688 104.26V101.295Z" fill="#283036"/>
<path d="M33.8828 156.824V160.657L43.6471 166.249L42.17 161.618L33.8828 156.824Z" fill="#E1BD9A"/>
<path d="M43.6471 160.946L33.8828 155.279V156.834L35.2243 159.892L43.6471 164.783L84.1998 139.093L82.7134 138.48L43.6471 160.946Z" fill="#E1BD9A"/>
<path d="M84.2011 142.932L43.6484 166.251V162.417L84.2011 139.094V142.932Z" fill="#E1BD9A"/>
<path opacity="0.3" d="M84.2011 142.932L43.6484 166.251V162.417L84.2011 139.094V142.932Z" fill="#E1BD9A"/>
<path d="M35.2266 157.525V161.359L43.6493 166.25V162.417L35.2266 157.525Z" fill="#E1BD9A"/>
<path opacity="0.3" d="M33.8828 156.824V160.657L43.6471 166.249V162.416L33.8828 156.824Z" fill="#E1BD9A"/>
<path d="M68.6603 146.561L60.2656 151.391V156.204H61.1163L68.6603 151.865V146.561Z" fill="#823130"/>
<path opacity="0.3" d="M68.6603 146.561L60.2656 151.391V156.204H61.1163L68.6603 151.865V146.561Z" fill="#823130"/>
<path d="M67.2181 152.708V144.531L62.6094 147.172V155.349L67.2181 152.708Z" fill="#283036"/>
<path d="M62.9375 154.797L66.9012 152.523V145.084L62.9375 147.358V154.797Z" fill="#72B8CF"/>
<path opacity="0.5" d="M66.9012 150.689L62.9375 148.415V147.357L62.9749 147.334L66.9012 149.585V150.689Z" fill="#72B8CF"/>
<path opacity="0.5" d="M62.9375 149.176L66.9012 151.45V152.522L65.7186 153.199L62.9375 151.603V149.176Z" fill="#72B8CF"/>
<path d="M64.6641 153.803L65.1595 153.515V146.076L64.6641 146.364V153.803Z" fill="#283036"/>
<path d="M76.0244 149.016C76.0244 148.209 75.3841 147.55 74.5801 147.513C74.2763 147.207 73.8556 147.012 73.3882 147.012C73.0517 147.012 72.7432 147.109 72.4814 147.281C72.3505 147.225 72.2056 147.193 72.0561 147.193C71.4625 147.193 70.9857 147.666 70.9764 148.251C70.5978 148.608 70.3594 149.114 70.3594 149.675C70.3594 150.126 70.5136 150.539 70.7707 150.873C70.7707 150.887 70.766 150.901 70.766 150.914C70.766 151.624 71.3456 152.195 72.0561 152.195C72.2804 152.195 72.4908 152.135 72.6731 152.033C72.8741 152.14 73.1031 152.195 73.3461 152.195C73.5658 152.195 73.7715 152.144 73.9538 152.061C74.0847 152.116 74.2295 152.144 74.3838 152.144C74.9727 152.144 75.4542 151.694 75.5103 151.123C75.529 151.105 75.5476 151.086 75.5617 151.068C75.8374 150.803 76.0104 150.436 76.0104 150.023C76.0104 149.852 75.9777 149.689 75.9263 149.536C75.9917 149.378 76.0244 149.202 76.0244 149.016Z" fill="#005750"/>
<path opacity="0.3" d="M74.5294 148.445C74.5294 147.963 74.1461 147.568 73.6646 147.545C73.4824 147.359 73.23 147.248 72.9495 147.248C72.7485 147.248 72.5616 147.308 72.4073 147.41C72.3278 147.378 72.2437 147.359 72.1549 147.359C71.7997 147.359 71.5146 147.643 71.5099 147.991C71.2808 148.204 71.1406 148.506 71.1406 148.84C71.1406 149.109 71.2341 149.36 71.3884 149.554C71.3884 149.564 71.3837 149.573 71.3837 149.578C71.3837 150 71.7296 150.343 72.1549 150.343C72.2905 150.343 72.412 150.306 72.5242 150.246C72.6457 150.306 72.7812 150.343 72.9261 150.343C73.057 150.343 73.1785 150.315 73.2907 150.264C73.3702 150.297 73.459 150.315 73.5478 150.315C73.903 150.315 74.1882 150.046 74.2209 149.703C74.2302 149.694 74.2396 149.68 74.2536 149.67C74.4172 149.513 74.52 149.29 74.52 149.049C74.52 148.947 74.5013 148.849 74.4686 148.756C74.506 148.663 74.5294 148.557 74.5294 148.445Z" fill="#005750"/>
<g opacity="0.3">
<path d="M76.0213 149.016C76.0213 148.214 75.3903 147.564 74.5957 147.518C74.7359 147.648 74.8574 147.801 74.9462 147.982C75.1425 148.385 75.1519 148.826 75.0023 149.216C75.1986 149.638 75.021 150.144 74.5957 150.348C74.4882 150.399 74.376 150.427 74.2591 150.432C74.1329 150.645 73.9413 150.822 73.7029 150.938C73.3664 151.1 72.9971 151.109 72.6746 150.993C72.0857 151.244 71.3939 150.993 71.1134 150.418C71.048 150.283 71.0106 150.144 70.9966 150.005C70.9031 149.917 70.8237 149.81 70.7629 149.685C70.618 149.392 70.6133 149.068 70.7161 148.784C70.7208 148.766 70.7302 148.747 70.7348 148.729C70.7208 148.687 70.7021 148.636 70.6881 148.59C70.4731 148.9 70.3516 149.276 70.3516 149.685C70.3516 150.135 70.5058 150.548 70.7629 150.882C70.7629 150.896 70.7582 150.91 70.7582 150.924C70.7582 151.634 71.3378 152.205 72.0483 152.205C72.2726 152.205 72.483 152.144 72.6653 152.042C72.8662 152.149 73.0953 152.205 73.3383 152.205C73.558 152.205 73.7637 152.154 73.946 152.07C74.0768 152.126 74.2217 152.154 74.376 152.154C74.9649 152.154 75.4464 151.703 75.5024 151.133C75.5211 151.114 75.5398 151.095 75.5539 151.077C75.8296 150.812 76.0026 150.446 76.0026 150.033C76.0026 149.861 75.9699 149.699 75.9184 149.546C75.9886 149.378 76.0213 149.202 76.0213 149.016Z" fill="#005750"/>
<path d="M74.2188 147.238C74.2234 147.248 74.2234 147.252 74.2281 147.261C74.2935 147.294 74.359 147.336 74.4197 147.378C74.359 147.326 74.2889 147.28 74.2188 147.238Z" fill="#005750"/>
</g>
<g opacity="0.3">
<path d="M76.0197 149.017C76.0197 148.441 75.6926 147.94 75.2111 147.689C75.4916 147.945 75.6739 148.307 75.6739 148.72C75.6739 148.891 75.6411 149.058 75.585 149.212C75.6365 149.355 75.6645 149.504 75.6645 149.666C75.6645 150.047 75.5056 150.39 75.2485 150.636C75.2345 150.655 75.2158 150.669 75.2018 150.687C75.1504 151.221 74.7016 151.639 74.1501 151.639C74.0099 151.639 73.8743 151.611 73.7481 151.56C73.5752 151.639 73.3835 151.685 73.1825 151.685C72.9535 151.685 72.7432 151.629 72.5562 151.532C72.3833 151.625 72.1916 151.685 71.9813 151.685C71.3176 151.685 70.78 151.151 70.78 150.492C70.78 150.478 70.7847 150.469 70.7847 150.455C70.5463 150.149 70.4014 149.759 70.4014 149.342C70.4014 149.314 70.4061 149.286 70.4061 149.258C70.3734 149.397 70.3594 149.541 70.3594 149.685C70.3594 150.135 70.5136 150.548 70.7707 150.882C70.7707 150.896 70.766 150.91 70.766 150.924C70.766 151.634 71.3456 152.205 72.0561 152.205C72.2804 152.205 72.4908 152.144 72.6731 152.042C72.8741 152.149 73.1031 152.205 73.3461 152.205C73.5658 152.205 73.7715 152.154 73.9538 152.07C74.0847 152.126 74.2296 152.154 74.3838 152.154C74.9727 152.154 75.4542 151.704 75.5103 151.133C75.529 151.114 75.5477 151.096 75.5617 151.077C75.8375 150.813 76.0104 150.446 76.0104 150.033C76.0104 149.861 75.9777 149.699 75.9263 149.546C75.987 149.379 76.0197 149.202 76.0197 149.017Z" fill="#005750"/>
<path d="M74.2891 147.279C74.3031 147.293 74.3124 147.303 74.3265 147.312C74.3311 147.312 74.3405 147.312 74.3451 147.316C74.3265 147.307 74.3078 147.293 74.2891 147.279Z" fill="#005750"/>
</g>
<path d="M76.8461 101.324L43.2812 120.476V113.32L76.8461 94.168V101.324Z" fill="#E1BD9A"/>
<path opacity="0.3" d="M76.8461 101.324L43.2812 120.476V113.32L76.8461 94.168V101.324Z" fill="#E1BD9A"/>
<path d="M76.8413 94.1675L43.2764 113.319L41.0469 112.076L74.6071 92.9238L76.8413 94.1675Z" fill="#E1BD9A"/>
<path d="M41.0469 112.076L43.2764 113.32V120.476L41.0469 119.232V112.076Z" fill="#E1BD9A"/>
<path opacity="0.3" d="M41.0469 112.076L43.2764 113.32V120.476L41.0469 119.232V112.076Z" fill="#E1BD9A"/>
<path d="M47.1271 113.21V113.786L46.8841 113.925V114.89C46.8841 115.609 47.0477 115.67 47.3328 115.503C47.6086 115.345 47.7862 115.136 47.7862 114.366V113.419L47.5431 113.558V112.969L48.8753 112.203V112.779L48.6322 112.918V114.004C48.6322 115.066 48.1882 115.8 47.3375 116.287C46.426 116.783 45.9399 116.589 45.9399 115.572V114.468L45.6875 114.612V114.032L47.1271 113.21Z" fill="#823130"/>
<path d="M52.2175 110.872V113.424L51.25 113.981L50.1002 112.937V114.064L50.446 113.865V114.44L49.0625 115.234V114.658L49.3289 114.505V112.528L49.0672 112.677V112.097L50.3619 111.354L51.465 112.366V111.299L51.1565 111.475V110.895L52.512 110.115V110.695L52.2175 110.872Z" fill="#823130"/>
<path d="M54.2301 109.137V109.726L53.9496 109.884V111.828L54.2301 111.666V112.26L52.7344 113.118V112.524L53.0195 112.362V110.418L52.7344 110.58V109.991L54.2301 109.137Z" fill="#823130"/>
<path d="M56.2663 110.096C56.2756 109.966 56.3364 109.711 56.4299 109.432L56.8412 108.221L56.6028 108.36V107.78L57.8835 107.047V107.627L57.6638 107.752L56.5841 110.917L55.7568 111.39L54.5602 109.53L54.3125 109.673V109.093L55.9718 108.142V108.722L55.7288 108.861L56.112 109.646C56.1821 109.822 56.2429 109.989 56.2523 110.105L56.2663 110.096Z" fill="#823130"/>
<path d="M60.6688 105.445V106.434L59.8882 106.879V106.48L59.1684 106.893V107.51L60.0238 107.018V107.612L59.1684 108.104V108.833L59.8882 108.42V108.002L60.6688 107.557V108.568L57.9531 110.132V109.538L58.2382 109.376V107.431L57.9531 107.594V107.005L60.6688 105.445Z" fill="#823130"/>
<path d="M62.3583 104.476C63.4053 103.878 63.6063 104.17 63.6063 104.681C63.6063 105.029 63.3258 105.437 62.9519 105.706C63.2651 105.572 63.5409 105.683 63.5409 106.003C63.5409 106.193 63.5689 106.291 63.6484 106.244C63.7138 106.207 63.7512 106.133 63.7512 106.04V105.892L64.055 105.72V105.966C64.055 106.337 63.8961 106.773 63.396 107.061C62.807 107.4 62.5219 107.251 62.5219 106.732C62.5219 106.323 62.4705 106.254 62.0732 106.486V107.182L62.349 107.024V107.613L60.8906 108.449V107.859L61.143 107.716V105.762L60.8906 105.906V105.321L62.3583 104.476ZM62.0732 105.985L62.2742 105.869C62.5359 105.72 62.7089 105.497 62.7089 105.256C62.7089 104.991 62.5593 104.945 62.2975 105.094L62.0732 105.224V105.985Z" fill="#823130"/>
<path d="M64.2203 105.414L65.057 104.932C65.057 105.307 65.4356 105.154 65.6225 105.052C65.7814 104.964 66.0058 104.797 66.0058 104.607C66.0058 104.259 64.2764 105.4 64.2764 104.259C64.2764 103.595 64.9074 102.936 65.3468 102.681C65.7254 102.463 66.1086 102.365 66.2909 102.597L66.3377 102.194L67.1136 101.748V102.871L66.2956 103.34C66.2956 103.01 66.0338 102.969 65.7207 103.15C65.5898 103.224 65.4075 103.409 65.4075 103.567C65.4075 104.027 67.193 102.899 67.193 103.948C67.193 104.644 66.534 105.275 65.9965 105.581C65.5431 105.841 65.2252 105.813 65.0523 105.711L65.0009 106.082L64.2109 106.533V105.414H64.2203Z" fill="#823130"/>
<path d="M68.9176 100.717V101.306L68.6372 101.469V103.413L68.9176 103.251V103.845L67.4219 104.703V104.109L67.707 103.947V102.002L67.4219 102.165V101.575L68.9176 100.717Z" fill="#823130"/>
<path d="M72.1226 100.044L71.4589 100.425V99.8542L71.0803 100.072V102.017L71.4542 101.803V102.397L69.7762 103.358V102.764L70.1454 102.55V100.601L69.7575 100.824V101.395L69.0938 101.775V100.611L72.1179 98.875V100.044H72.1226Z" fill="#823130"/>
<path d="M73.881 99.2875C73.8997 99.1854 73.9978 98.9441 74.0493 98.8049L74.297 98.2109L74.0493 98.3548V97.784L75.2599 97.0879V97.6587L75.0168 97.7979L74.1848 99.733V100.253L74.4372 100.109V100.689L72.9929 101.515V100.935L73.25 100.786V100.257L72.3759 99.3107L72.1562 99.436V98.8652L73.6987 97.9835V98.5543L73.465 98.6889L73.7268 99.0137C73.7548 99.0834 73.8483 99.2319 73.867 99.2968L73.881 99.2875Z" fill="#823130"/>
<path d="M61.9594 157.764L60.3281 158.701V146.028L61.9594 145.086V157.764Z" fill="#E1BD9A"/>
<path opacity="0.3" d="M61.9594 157.764L60.3281 158.701V146.028L61.9594 145.086V157.764Z" fill="#E1BD9A"/>
<path d="M61.9528 145.085L60.3216 146.027L58.5781 145.029L60.2141 144.092L61.9528 145.085Z" fill="#E1BD9A"/>
<path d="M58.5781 145.029L60.3216 146.027V158.701L58.5781 157.703V145.029Z" fill="#E1BD9A"/>
<path opacity="0.3" d="M58.5781 145.029L60.3216 146.027V158.701L58.5781 157.703V145.029Z" fill="#E1BD9A"/>
<path opacity="0.3" d="M61.9528 145.085L60.2141 144.092L58.5781 145.029V157.703L60.3216 158.7L61.9528 157.763V145.085Z" fill="#E1BD9A"/>
<path d="M71.175 152.502L69.5391 153.439V140.766L71.175 139.828V152.502Z" fill="#E1BD9A"/>
<path opacity="0.3" d="M71.175 152.502L69.5391 153.439V140.766L71.175 139.828V152.502Z" fill="#E1BD9A"/>
<path d="M71.1763 139.828L69.5403 140.765L67.7969 139.767L69.4328 138.83L71.1763 139.828Z" fill="#E1BD9A"/>
<path d="M67.7969 139.768L69.5403 140.765V153.439L67.7969 152.446V139.768Z" fill="#E1BD9A"/>
<path opacity="0.3" d="M67.7969 139.768L69.5403 140.765V153.439L67.7969 152.446V139.768Z" fill="#E1BD9A"/>
<path opacity="0.3" d="M71.1716 139.828L69.4328 138.83L67.7969 139.767V152.446L69.5403 153.439L71.1763 152.501V139.828H71.1716Z" fill="#E1BD9A"/>
<path d="M67.9797 161.179L66.3438 162.117V149.443L67.9797 148.506V161.179Z" fill="#E1BD9A"/>
<path opacity="0.3" d="M67.9797 161.179L66.3438 162.117V149.443L67.9797 148.506V161.179Z" fill="#E1BD9A"/>
<path d="M67.9731 148.506L66.3372 149.443L64.5938 148.445L66.2297 147.508L67.9731 148.506Z" fill="#E1BD9A"/>
<path d="M64.5938 148.445L66.3372 149.443V162.117L64.5938 161.123V148.445Z" fill="#E1BD9A"/>
<path opacity="0.3" d="M64.5938 148.445L66.3372 149.443V162.117L64.5938 161.123V148.445Z" fill="#E1BD9A"/>
<path opacity="0.3" d="M67.9731 148.506L66.2297 147.508L64.5938 148.445V161.123L66.3372 162.116L67.9731 161.179V148.506Z" fill="#E1BD9A"/>
<path d="M77.2219 155.972L75.5859 156.91V144.236L77.2219 143.299V155.972Z" fill="#E1BD9A"/>
<path opacity="0.3" d="M77.2219 155.972L75.5859 156.91V144.236L77.2219 143.299V155.972Z" fill="#E1BD9A"/>
<path d="M77.2231 143.299L75.5872 144.236L73.8438 143.238L75.4797 142.301L77.2231 143.299Z" fill="#E1BD9A"/>
<path d="M73.8438 143.238L75.5872 144.236V156.91L73.8438 155.912V143.238Z" fill="#E1BD9A"/>
<path opacity="0.3" d="M73.8438 143.238L75.5872 144.236V156.91L73.8438 155.912V143.238Z" fill="#E1BD9A"/>
<path opacity="0.3" d="M77.2231 143.299L75.4797 142.301L73.8438 143.238V155.912L75.5872 156.909L77.2231 155.972V143.299Z" fill="#E1BD9A"/>
<path d="M77.2283 143.351L66.375 149.486V147.588L77.2283 141.453V143.351Z" fill="#E1BD9A"/>
<path opacity="0.3" d="M77.2283 143.351L66.375 149.486V147.588L77.2283 141.453V143.351Z" fill="#E1BD9A"/>
<path d="M77.2232 141.452L66.3699 147.587L58.5781 143.188L69.4314 137.053L77.2232 141.452Z" fill="#E1BD9A"/>
<path d="M58.5781 143.188L66.3699 147.587V149.485L58.5781 145.086V143.188Z" fill="#E1BD9A"/>
<path opacity="0.3" d="M58.5781 143.188L66.3699 147.587V149.485L58.5781 145.086V143.188Z" fill="#E1BD9A"/>
<path opacity="0.3" d="M77.2232 141.452L69.4314 137.053L58.5781 143.188V145.086L66.3699 149.485L77.2232 143.35V141.452Z" fill="#E1BD9A"/>
<path d="M60.1572 157.893C60.1572 157.086 59.5169 156.432 58.7129 156.39C58.4091 156.084 57.9884 155.889 57.521 155.889C57.1845 155.889 56.876 155.986 56.6142 156.158C56.4834 156.102 56.3385 156.07 56.1889 156.07C55.5953 156.07 55.1185 156.543 55.1092 157.128C54.7306 157.485 54.4922 157.991 54.4922 158.552C54.4922 159.003 54.6464 159.416 54.9035 159.75C54.9035 159.764 54.8988 159.778 54.8988 159.791C54.8988 160.501 55.4784 161.072 56.1889 161.072C56.4133 161.072 56.6236 161.012 56.8059 160.91C57.0069 161.017 57.2359 161.072 57.479 161.072C57.6986 161.072 57.9043 161.026 58.0866 160.938C58.2221 160.993 58.3624 161.021 58.5166 161.021C59.1055 161.021 59.587 160.571 59.6431 160C59.6618 159.982 59.6805 159.963 59.6945 159.945C59.9703 159.68 60.1432 159.313 60.1432 158.9C60.1432 158.729 60.1105 158.566 60.0591 158.413C60.1198 158.255 60.1572 158.079 60.1572 157.893Z" fill="#005750"/>
<path opacity="0.3" d="M58.6544 157.322C58.6544 156.84 58.2711 156.445 57.7896 156.422C57.6074 156.236 57.355 156.125 57.0745 156.125C56.8735 156.125 56.6866 156.185 56.5323 156.287C56.4529 156.255 56.3687 156.236 56.2799 156.236C55.9247 156.236 55.6396 156.519 55.6349 156.867C55.4058 157.081 55.2656 157.383 55.2656 157.717C55.2656 157.986 55.3591 158.236 55.5134 158.431C55.5134 158.441 55.5087 158.45 55.5087 158.455C55.5087 158.877 55.8546 159.22 56.2799 159.22C56.4155 159.22 56.537 159.183 56.6492 159.123C56.7707 159.183 56.9062 159.22 57.0511 159.22C57.182 159.22 57.3035 159.192 57.4157 159.141C57.4952 159.174 57.584 159.192 57.6728 159.192C58.028 159.192 58.3132 158.923 58.3459 158.58C58.3552 158.571 58.3646 158.557 58.3786 158.547C58.5422 158.39 58.645 158.172 58.645 157.926C58.645 157.823 58.6263 157.726 58.5936 157.633C58.6357 157.54 58.6544 157.434 58.6544 157.322Z" fill="#005750"/>
<g opacity="0.3">
<path d="M60.1541 157.893C60.1541 157.091 59.5231 156.441 58.7285 156.395C58.8687 156.524 58.9902 156.678 59.079 156.859C59.2754 157.262 59.28 157.703 59.1351 158.093C59.3314 158.515 59.1538 159.021 58.7285 159.225C58.621 159.276 58.5088 159.304 58.3919 159.309C58.2657 159.522 58.0741 159.699 57.8357 159.815C57.4992 159.977 57.1299 159.986 56.8074 159.87C56.2185 160.121 55.5267 159.87 55.2463 159.295C55.1808 159.16 55.1434 159.021 55.1294 158.882C55.0359 158.794 54.9565 158.687 54.8957 158.562C54.7508 158.269 54.7461 157.945 54.849 157.661C54.8536 157.643 54.863 157.624 54.8677 157.606C54.8536 157.564 54.8349 157.513 54.8209 157.467C54.6059 157.777 54.4844 158.153 54.4844 158.562C54.4844 159.012 54.6386 159.425 54.8957 159.759C54.8957 159.773 54.891 159.787 54.891 159.801C54.891 160.511 55.4706 161.082 56.1811 161.082C56.4054 161.082 56.6158 161.021 56.7981 160.919C56.9991 161.026 57.2281 161.082 57.4711 161.082C57.6908 161.082 57.8965 161.035 58.0788 160.947C58.2143 161.003 58.3546 161.031 58.5088 161.031C59.0977 161.031 59.5792 160.58 59.6353 160.01C59.654 159.991 59.6727 159.972 59.6867 159.954C59.9625 159.689 60.1354 159.323 60.1354 158.91C60.1354 158.738 60.1027 158.576 60.0513 158.422C60.1167 158.255 60.1541 158.079 60.1541 157.893Z" fill="#005750"/>
<path d="M58.3594 156.117C58.364 156.126 58.3641 156.131 58.3687 156.14C58.4342 156.173 58.4996 156.215 58.5604 156.256C58.4996 156.205 58.4295 156.159 58.3594 156.117Z" fill="#005750"/>
</g>
<g opacity="0.3">
<path d="M60.1557 157.894C60.1557 157.318 59.8285 156.817 59.3471 156.566C59.6275 156.822 59.8098 157.184 59.8098 157.597C59.8098 157.768 59.7771 157.935 59.721 158.089C59.7724 158.232 59.8005 158.381 59.8005 158.543C59.8005 158.924 59.6415 159.267 59.3845 159.513C59.3704 159.532 59.3517 159.546 59.3377 159.564C59.2863 160.098 58.8376 160.516 58.2907 160.516C58.1505 160.516 58.0149 160.488 57.8887 160.437C57.7158 160.516 57.5242 160.562 57.3232 160.562C57.0941 160.562 56.8838 160.506 56.6968 160.409C56.5239 160.502 56.3323 160.562 56.1219 160.562C55.4582 160.562 54.9207 160.028 54.9207 159.369C54.9207 159.355 54.9253 159.346 54.9253 159.332C54.687 159.026 54.5421 158.636 54.5421 158.218C54.5421 158.191 54.5467 158.163 54.5467 158.135C54.514 158.274 54.5 158.413 54.5 158.562C54.5 159.012 54.6542 159.425 54.9113 159.759C54.9113 159.773 54.9067 159.787 54.9067 159.801C54.9067 160.511 55.4862 161.082 56.1967 161.082C56.4211 161.082 56.6314 161.021 56.8137 160.919C57.0147 161.026 57.2437 161.082 57.4868 161.082C57.7065 161.082 57.9121 161.035 58.0944 160.947C58.23 161.003 58.3702 161.031 58.5244 161.031C59.1134 161.031 59.5948 160.581 59.6509 160.01C59.6696 159.991 59.6883 159.973 59.7023 159.954C59.9781 159.69 60.151 159.323 60.151 158.91C60.151 158.738 60.1183 158.576 60.0669 158.423C60.1183 158.256 60.1557 158.079 60.1557 157.894Z" fill="#005750"/>
<path d="M58.4219 156.158C58.4359 156.172 58.4452 156.181 58.4593 156.191C58.4639 156.191 58.4733 156.191 58.478 156.195C58.4593 156.186 58.4406 156.172 58.4219 156.158Z" fill="#005750"/>
</g>
</g>
<rect x="153" width="290" height="99" rx="18" fill="#006DB7"/>
<path d="M97 122L208.5 86.026L176.5 62L97 122Z" fill="#006DB7"/>
<rect x="166.048" y="25.0476" width="41.9048" height="41.9048" rx="20.9524" fill="#4285F4"/>
<rect x="166.048" y="25.0476" width="41.9048" height="41.9048" rx="20.9524" stroke="white" stroke-width="2.09524"/>
<g clip-path="url(#clip1_146_80244)">
<path d="M197.058 39.231L189.684 35.718C188.06 34.7484 186.04 34.7312 184.401 35.673L176.944 39.231C176.916 39.245 176.887 39.26 176.86 39.276C175.09 40.2878 174.476 42.5426 175.487 44.3123C175.83 44.9122 176.335 45.4037 176.944 45.731L179.001 46.711V51.611C179.002 53.802 180.427 55.7378 182.52 56.389C183.975 56.8102 185.485 57.0164 187.001 57.001C188.516 57.018 190.025 56.8135 191.482 56.394C193.574 55.7429 194.999 53.8071 195.001 51.616V46.709L197.001 45.753V54.0009C197.001 54.5532 197.448 55.0009 198.001 55.0009C198.553 55.0009 199.001 54.5532 199.001 54.0009V42.0009C199.007 40.8267 198.08 39.7419 197.058 39.231ZM193.001 51.616C193.001 52.9266 192.151 54.0858 190.901 54.479C189.633 54.8412 188.319 55.017 187.001 55.001C185.682 55.017 184.368 54.8412 183.101 54.479C181.85 54.0858 181 52.9266 181.001 51.616V47.664L184.318 49.244C185.136 49.73 186.071 49.9854 187.023 49.983C187.929 49.9894 188.819 49.7496 189.6 49.289L193.001 47.664V51.616ZM196.201 43.926L188.659 47.526C187.607 48.1383 186.304 48.1209 185.269 47.481L177.89 43.971C177.067 43.5274 176.76 42.5011 177.203 41.6786C177.353 41.4005 177.578 41.1699 177.853 41.013L185.348 37.433C186.399 36.822 187.702 36.8393 188.738 37.478L196.112 40.991C196.654 41.2921 196.993 41.8607 197.001 42.481C197.002 43.0685 196.699 43.6149 196.201 43.926Z" fill="white"/>
</g>
<path d="M266.464 24.0909H269.889V36.4446C269.889 37.7988 269.569 38.9898 268.929 40.0178C268.295 41.0457 267.402 41.849 266.251 42.4276C265.1 43 263.755 43.2862 262.216 43.2862C260.671 43.2862 259.323 43 258.172 42.4276C257.021 41.849 256.129 41.0457 255.495 40.0178C254.861 38.9898 254.544 37.7988 254.544 36.4446V24.0909H257.969V36.1584C257.969 36.9463 258.142 37.648 258.486 38.2635C258.837 38.879 259.33 39.3622 259.964 39.7131C260.598 40.0578 261.348 40.2301 262.216 40.2301C263.084 40.2301 263.835 40.0578 264.469 39.7131C265.109 39.3622 265.602 38.879 265.946 38.2635C266.291 37.648 266.464 36.9463 266.464 36.1584V24.0909ZM276.807 34.6903V43H273.464V28.8182H276.659V31.228H276.825C277.151 30.4339 277.672 29.803 278.386 29.3352C279.106 28.8674 279.995 28.6335 281.054 28.6335C282.033 28.6335 282.885 28.8428 283.611 29.2614C284.344 29.6799 284.91 30.2862 285.31 31.0803C285.717 31.8743 285.917 32.8376 285.91 33.9702V43H282.568V34.4872C282.568 33.5393 282.322 32.7976 281.829 32.2621C281.343 31.7266 280.669 31.4588 279.807 31.4588C279.223 31.4588 278.703 31.5881 278.247 31.8466C277.798 32.099 277.444 32.4652 277.185 32.9453C276.933 33.4254 276.807 34.0071 276.807 34.6903ZM289.308 43V28.8182H292.65V43H289.308ZM290.989 26.8054C290.459 26.8054 290.004 26.63 289.622 26.2791C289.24 25.9221 289.05 25.4943 289.05 24.9957C289.05 24.491 289.24 24.0632 289.622 23.7124C290.004 23.3553 290.459 23.1768 290.989 23.1768C291.524 23.1768 291.98 23.3553 292.355 23.7124C292.737 24.0632 292.927 24.491 292.927 24.9957C292.927 25.4943 292.737 25.9221 292.355 26.2791C291.98 26.63 291.524 26.8054 290.989 26.8054ZM308.755 28.8182L303.705 43H300.011L294.961 28.8182H298.525L301.784 39.353H301.932L305.2 28.8182H308.755ZM316.864 43.277C315.442 43.277 314.214 42.9815 313.18 42.3906C312.152 41.7936 311.361 40.9503 310.807 39.8608C310.253 38.7652 309.976 37.4756 309.976 35.9922C309.976 34.5334 310.253 33.2531 310.807 32.1513C311.367 31.0433 312.149 30.1816 313.152 29.5661C314.156 28.9444 315.334 28.6335 316.688 28.6335C317.563 28.6335 318.387 28.7751 319.163 29.0582C319.945 29.3352 320.634 29.7661 321.231 30.3509C321.834 30.9356 322.308 31.6804 322.653 32.5852C322.998 33.4839 323.17 34.5549 323.17 35.7983V36.8232H311.546V34.5703H319.966C319.96 33.9302 319.822 33.3608 319.551 32.8622C319.28 32.3575 318.901 31.9605 318.415 31.6712C317.935 31.3819 317.375 31.2372 316.735 31.2372C316.051 31.2372 315.451 31.4034 314.934 31.7358C314.417 32.062 314.014 32.4929 313.725 33.0284C313.442 33.5578 313.297 34.1394 313.291 34.7734V36.7401C313.291 37.5649 313.442 38.2727 313.743 38.8636C314.045 39.4484 314.466 39.8977 315.008 40.2116C315.55 40.5194 316.184 40.6733 316.91 40.6733C317.396 40.6733 317.836 40.6056 318.23 40.4702C318.624 40.3286 318.966 40.1224 319.255 39.8516C319.545 39.5807 319.763 39.2453 319.911 38.8452L323.032 39.196C322.835 40.0208 322.459 40.741 321.905 41.3565C321.357 41.9659 320.656 42.4399 319.8 42.7784C318.944 43.1108 317.966 43.277 316.864 43.277ZM325.998 43V28.8182H329.238V31.1818H329.386C329.645 30.3632 330.088 29.7322 330.716 29.2891C331.35 28.8397 332.073 28.6151 332.885 28.6151C333.07 28.6151 333.276 28.6243 333.504 28.6428C333.738 28.6551 333.932 28.6766 334.086 28.7074V31.782C333.944 31.7327 333.719 31.6896 333.412 31.6527C333.11 31.6096 332.818 31.5881 332.535 31.5881C331.925 31.5881 331.377 31.7204 330.891 31.9851C330.411 32.2436 330.032 32.6037 329.755 33.0653C329.478 33.527 329.34 34.0594 329.34 34.6626V43H325.998ZM347.515 32.5668L344.468 32.8991C344.382 32.5914 344.231 32.3021 344.016 32.0312C343.806 31.7604 343.523 31.5419 343.166 31.3757C342.809 31.2095 342.372 31.1264 341.855 31.1264C341.16 31.1264 340.575 31.2772 340.101 31.5788C339.633 31.8804 339.402 32.2713 339.408 32.7514C339.402 33.1638 339.553 33.4993 339.861 33.7578C340.175 34.0163 340.692 34.2287 341.412 34.3949L343.831 34.9119C345.173 35.2012 346.17 35.6598 346.823 36.2876C347.481 36.9155 347.814 37.7372 347.82 38.7528C347.814 39.6454 347.552 40.4332 347.035 41.1165C346.524 41.7936 345.813 42.3229 344.902 42.7045C343.991 43.0862 342.945 43.277 341.763 43.277C340.027 43.277 338.63 42.9138 337.571 42.1875C336.512 41.455 335.881 40.4363 335.678 39.1314L338.938 38.8175C339.085 39.4576 339.399 39.9408 339.879 40.267C340.359 40.5933 340.984 40.7564 341.754 40.7564C342.548 40.7564 343.185 40.5933 343.665 40.267C344.151 39.9408 344.394 39.5376 344.394 39.0575C344.394 38.6513 344.237 38.3158 343.923 38.0511C343.616 37.7865 343.136 37.5833 342.483 37.4418L340.064 36.9339C338.704 36.6508 337.697 36.1738 337.045 35.5028C336.392 34.8258 336.069 33.9702 336.075 32.9361C336.069 32.062 336.306 31.3049 336.786 30.6648C337.273 30.0185 337.947 29.5199 338.808 29.169C339.676 28.812 340.676 28.6335 341.809 28.6335C343.471 28.6335 344.779 28.9875 345.733 29.6953C346.693 30.4032 347.287 31.3603 347.515 32.5668ZM350.576 43V28.8182H353.918V43H350.576ZM352.256 26.8054C351.727 26.8054 351.271 26.63 350.89 26.2791C350.508 25.9221 350.317 25.4943 350.317 24.9957C350.317 24.491 350.508 24.0632 350.89 23.7124C351.271 23.3553 351.727 23.1768 352.256 23.1768C352.792 23.1768 353.247 23.3553 353.623 23.7124C354.004 24.0632 354.195 24.491 354.195 24.9957C354.195 25.4943 354.004 25.9221 353.623 26.2791C353.247 26.63 352.792 26.8054 352.256 26.8054ZM362.618 43.2493C361.504 43.2493 360.507 42.9631 359.626 42.3906C358.746 41.8182 358.051 40.9872 357.54 39.8977C357.029 38.8082 356.773 37.4848 356.773 35.9276C356.773 34.3518 357.032 33.0223 357.549 31.9389C358.072 30.8494 358.777 30.0277 359.663 29.4737C360.55 28.9136 361.538 28.6335 362.627 28.6335C363.458 28.6335 364.141 28.7751 364.677 29.0582C365.212 29.3352 365.637 29.6707 365.951 30.0646C366.265 30.4524 366.508 30.8187 366.68 31.1634H366.819V24.0909H370.17V43H366.883V40.7656H366.68C366.508 41.1103 366.259 41.4766 365.932 41.8643C365.606 42.246 365.175 42.5722 364.64 42.843C364.104 43.1139 363.43 43.2493 362.618 43.2493ZM363.55 40.5071C364.258 40.5071 364.861 40.3163 365.36 39.9347C365.859 39.5469 366.237 39.0083 366.496 38.3189C366.754 37.6295 366.883 36.8262 366.883 35.9091C366.883 34.992 366.754 34.1948 366.496 33.5178C366.243 32.8407 365.868 32.3144 365.369 31.9389C364.877 31.5634 364.271 31.3757 363.55 31.3757C362.806 31.3757 362.184 31.5696 361.685 31.9574C361.187 32.3452 360.811 32.8807 360.559 33.5639C360.306 34.2472 360.18 35.0289 360.18 35.9091C360.18 36.7955 360.306 37.5864 360.559 38.282C360.817 38.9714 361.196 39.5161 361.695 39.9162C362.199 40.3101 362.818 40.5071 363.55 40.5071ZM377.813 43.2862C376.914 43.2862 376.105 43.1262 375.385 42.8061C374.671 42.4799 374.104 41.9998 373.686 41.3658C373.273 40.7318 373.067 39.95 373.067 39.0206C373.067 38.2204 373.215 37.5587 373.51 37.0355C373.806 36.5123 374.209 36.0938 374.72 35.7798C375.231 35.4659 375.806 35.2289 376.446 35.0689C377.093 34.9027 377.761 34.7827 378.45 34.7088C379.281 34.6226 379.955 34.5457 380.472 34.478C380.989 34.4041 381.365 34.2933 381.598 34.1456C381.839 33.9917 381.959 33.7547 381.959 33.4347V33.3793C381.959 32.6837 381.752 32.1451 381.34 31.7635C380.928 31.3819 380.334 31.1911 379.558 31.1911C378.739 31.1911 378.09 31.3696 377.61 31.7266C377.136 32.0836 376.816 32.5052 376.65 32.9915L373.529 32.5483C373.775 31.6866 374.181 30.9664 374.748 30.3878C375.314 29.803 376.006 29.366 376.825 29.0767C377.644 28.7812 378.549 28.6335 379.54 28.6335C380.223 28.6335 380.903 28.7135 381.58 28.8736C382.257 29.0336 382.876 29.2983 383.436 29.6676C383.996 30.0308 384.445 30.5263 384.784 31.1541C385.129 31.782 385.301 32.5668 385.301 33.5085V43H382.088V41.0518H381.977C381.774 41.4458 381.488 41.8151 381.118 42.1598C380.755 42.4983 380.297 42.7723 379.743 42.9815C379.195 43.1847 378.552 43.2862 377.813 43.2862ZM378.681 40.8303C379.352 40.8303 379.933 40.6979 380.426 40.4332C380.918 40.1624 381.297 39.8054 381.562 39.3622C381.832 38.919 381.968 38.4358 381.968 37.9126V36.2415C381.863 36.3277 381.685 36.4077 381.432 36.4815C381.186 36.5554 380.909 36.62 380.601 36.6754C380.294 36.7308 379.989 36.7801 379.687 36.8232C379.386 36.8662 379.124 36.9032 378.902 36.9339C378.404 37.0017 377.958 37.1125 377.564 37.2663C377.17 37.4202 376.859 37.6357 376.631 37.9126C376.403 38.1835 376.29 38.5343 376.29 38.9652C376.29 39.5807 376.514 40.0455 376.964 40.3594C377.413 40.6733 377.985 40.8303 378.681 40.8303ZM393.924 43.2493C392.81 43.2493 391.813 42.9631 390.933 42.3906C390.053 41.8182 389.357 40.9872 388.846 39.8977C388.335 38.8082 388.08 37.4848 388.08 35.9276C388.08 34.3518 388.339 33.0223 388.856 31.9389C389.379 30.8494 390.084 30.0277 390.97 29.4737C391.856 28.9136 392.844 28.6335 393.934 28.6335C394.765 28.6335 395.448 28.7751 395.983 29.0582C396.519 29.3352 396.944 29.6707 397.258 30.0646C397.571 30.4524 397.815 30.8187 397.987 31.1634H398.125V24.0909H401.477V43H398.19V40.7656H397.987C397.815 41.1103 397.565 41.4766 397.239 41.8643C396.913 42.246 396.482 42.5722 395.946 42.843C395.411 43.1139 394.737 43.2493 393.924 43.2493ZM394.857 40.5071C395.565 40.5071 396.168 40.3163 396.667 39.9347C397.165 39.5469 397.544 39.0083 397.802 38.3189C398.061 37.6295 398.19 36.8262 398.19 35.9091C398.19 34.992 398.061 34.1948 397.802 33.5178C397.55 32.8407 397.174 32.3144 396.676 31.9389C396.183 31.5634 395.577 31.3757 394.857 31.3757C394.112 31.3757 393.491 31.5696 392.992 31.9574C392.493 32.3452 392.118 32.8807 391.866 33.5639C391.613 34.2472 391.487 35.0289 391.487 35.9091C391.487 36.7955 391.613 37.5864 391.866 38.282C392.124 38.9714 392.503 39.5161 393.001 39.9162C393.506 40.3101 394.124 40.5071 394.857 40.5071ZM263.785 61.4709H260.332C260.233 60.9046 260.052 60.4029 259.787 59.9659C259.522 59.5227 259.193 59.1473 258.799 58.8395C258.405 58.5317 257.956 58.3009 257.451 58.147C256.952 57.987 256.414 57.907 255.835 57.907C254.807 57.907 253.896 58.1655 253.102 58.6825C252.308 59.1934 251.687 59.9444 251.237 60.9354C250.788 61.9202 250.563 63.1236 250.563 64.5455C250.563 65.992 250.788 67.2107 251.237 68.2017C251.693 69.1866 252.314 69.9313 253.102 70.4361C253.896 70.9347 254.804 71.1839 255.826 71.1839C256.392 71.1839 256.922 71.1101 257.414 70.9624C257.913 70.8085 258.359 70.5838 258.753 70.2884C259.153 69.9929 259.488 69.6297 259.759 69.1989C260.036 68.768 260.227 68.2756 260.332 67.7216L263.785 67.7401C263.656 68.6387 263.375 69.482 262.945 70.2699C262.52 71.0578 261.963 71.7533 261.273 72.3565C260.584 72.9536 259.778 73.4214 258.854 73.7599C257.931 74.0923 256.906 74.2585 255.78 74.2585C254.118 74.2585 252.634 73.8738 251.33 73.1044C250.025 72.335 248.997 71.224 248.246 69.7713C247.495 68.3187 247.119 66.5767 247.119 64.5455C247.119 62.508 247.498 60.7661 248.255 59.3196C249.012 57.867 250.043 56.7559 251.348 55.9865C252.653 55.2171 254.13 54.8324 255.78 54.8324C256.832 54.8324 257.811 54.9801 258.716 55.2756C259.621 55.571 260.427 56.005 261.135 56.5774C261.843 57.1437 262.424 57.8393 262.88 58.6641C263.342 59.4827 263.643 60.4183 263.785 61.4709ZM273.052 74.277C271.631 74.277 270.403 73.9815 269.368 73.3906C268.34 72.7936 267.55 71.9503 266.996 70.8608C266.442 69.7652 266.165 68.4756 266.165 66.9922C266.165 65.5334 266.442 64.2531 266.996 63.1513C267.556 62.0433 268.337 61.1816 269.341 60.5661C270.344 59.9444 271.523 59.6335 272.877 59.6335C273.751 59.6335 274.576 59.7751 275.351 60.0582C276.133 60.3352 276.823 60.7661 277.42 61.3509C278.023 61.9356 278.497 62.6804 278.841 63.5852C279.186 64.4839 279.358 65.5549 279.358 66.7983V67.8232H267.734V65.5703H276.155C276.148 64.9302 276.01 64.3608 275.739 63.8622C275.468 63.3575 275.09 62.9605 274.604 62.6712C274.123 62.3819 273.563 62.2372 272.923 62.2372C272.24 62.2372 271.64 62.4034 271.123 62.7358C270.606 63.062 270.202 63.4929 269.913 64.0284C269.63 64.5578 269.485 65.1394 269.479 65.7734V67.7401C269.479 68.5649 269.63 69.2727 269.932 69.8636C270.233 70.4484 270.655 70.8977 271.197 71.2116C271.738 71.5194 272.372 71.6733 273.099 71.6733C273.585 71.6733 274.025 71.6056 274.419 71.4702C274.813 71.3286 275.154 71.1224 275.444 70.8516C275.733 70.5807 275.952 70.2453 276.099 69.8452L279.22 70.196C279.023 71.0208 278.648 71.741 278.094 72.3565C277.546 72.9659 276.844 73.4399 275.988 73.7784C275.133 74.1108 274.154 74.277 273.052 74.277ZM293.395 63.5668L290.348 63.8991C290.262 63.5914 290.111 63.3021 289.896 63.0312C289.686 62.7604 289.403 62.5419 289.046 62.3757C288.689 62.2095 288.252 62.1264 287.735 62.1264C287.04 62.1264 286.455 62.2772 285.981 62.5788C285.513 62.8804 285.282 63.2713 285.288 63.7514C285.282 64.1638 285.433 64.4993 285.741 64.7578C286.055 65.0163 286.572 65.2287 287.292 65.3949L289.711 65.9119C291.053 66.2012 292.05 66.6598 292.702 67.2876C293.361 67.9155 293.693 68.7372 293.7 69.7528C293.693 70.6454 293.432 71.4332 292.915 72.1165C292.404 72.7936 291.693 73.3229 290.782 73.7045C289.871 74.0862 288.825 74.277 287.643 74.277C285.907 74.277 284.51 73.9138 283.451 73.1875C282.392 72.455 281.761 71.4363 281.558 70.1314L284.817 69.8175C284.965 70.4576 285.279 70.9408 285.759 71.267C286.239 71.5933 286.864 71.7564 287.634 71.7564C288.428 71.7564 289.065 71.5933 289.545 71.267C290.031 70.9408 290.274 70.5376 290.274 70.0575C290.274 69.6513 290.117 69.3158 289.803 69.0511C289.496 68.7865 289.015 68.5833 288.363 68.4418L285.944 67.9339C284.584 67.6508 283.577 67.1738 282.925 66.5028C282.272 65.8258 281.949 64.9702 281.955 63.9361C281.949 63.062 282.186 62.3049 282.666 61.6648C283.152 61.0185 283.826 60.5199 284.688 60.169C285.556 59.812 286.556 59.6335 287.689 59.6335C289.351 59.6335 290.659 59.9875 291.613 60.6953C292.573 61.4032 293.167 62.3603 293.395 63.5668ZM300.537 74.2862C299.638 74.2862 298.828 74.1262 298.108 73.8061C297.394 73.4799 296.828 72.9998 296.409 72.3658C295.997 71.7318 295.791 70.95 295.791 70.0206C295.791 69.2204 295.939 68.5587 296.234 68.0355C296.529 67.5123 296.933 67.0938 297.444 66.7798C297.954 66.4659 298.53 66.2289 299.17 66.0689C299.816 65.9027 300.484 65.7827 301.174 65.7088C302.005 65.6226 302.679 65.5457 303.196 65.478C303.713 65.4041 304.088 65.2933 304.322 65.1456C304.562 64.9917 304.682 64.7547 304.682 64.4347V64.3793C304.682 63.6837 304.476 63.1451 304.064 62.7635C303.651 62.3819 303.057 62.1911 302.282 62.1911C301.463 62.1911 300.814 62.3696 300.333 62.7266C299.859 63.0836 299.539 63.5052 299.373 63.9915L296.252 63.5483C296.499 62.6866 296.905 61.9664 297.471 61.3878C298.038 60.803 298.73 60.366 299.549 60.0767C300.367 59.7812 301.272 59.6335 302.263 59.6335C302.946 59.6335 303.627 59.7135 304.304 59.8736C304.981 60.0336 305.599 60.2983 306.159 60.6676C306.72 61.0308 307.169 61.5263 307.507 62.1541C307.852 62.782 308.025 63.5668 308.025 64.5085V74H304.811V72.0518H304.701C304.498 72.4458 304.211 72.8151 303.842 73.1598C303.479 73.4983 303.02 73.7723 302.466 73.9815C301.918 74.1847 301.275 74.2862 300.537 74.2862ZM301.404 71.8303C302.075 71.8303 302.657 71.6979 303.15 71.4332C303.642 71.1624 304.02 70.8054 304.285 70.3622C304.556 69.919 304.691 69.4358 304.691 68.9126V67.2415C304.587 67.3277 304.408 67.4077 304.156 67.4815C303.91 67.5554 303.633 67.62 303.325 67.6754C303.017 67.7308 302.712 67.7801 302.411 67.8232C302.109 67.8662 301.848 67.9032 301.626 67.9339C301.127 68.0017 300.681 68.1125 300.287 68.2663C299.893 68.4202 299.583 68.6357 299.355 68.9126C299.127 69.1835 299.013 69.5343 299.013 69.9652C299.013 70.5807 299.238 71.0455 299.687 71.3594C300.136 71.6733 300.709 71.8303 301.404 71.8303ZM311.385 74V59.8182H314.626V62.1818H314.774C315.032 61.3632 315.475 60.7322 316.103 60.2891C316.737 59.8397 317.461 59.6151 318.273 59.6151C318.458 59.6151 318.664 59.6243 318.892 59.6428C319.126 59.6551 319.319 59.6766 319.473 59.7074V62.782C319.332 62.7327 319.107 62.6896 318.799 62.6527C318.498 62.6096 318.205 62.5881 317.922 62.5881C317.313 62.5881 316.765 62.7204 316.279 62.9851C315.799 63.2436 315.42 63.6037 315.143 64.0653C314.866 64.527 314.728 65.0594 314.728 65.6626V74H311.385ZM330.821 55.0909L335.742 69.9744H335.936L340.848 55.0909H344.615L337.949 74H333.72L327.063 55.0909H330.821ZM349.566 74.2862C348.667 74.2862 347.858 74.1262 347.138 73.8061C346.424 73.4799 345.857 72.9998 345.439 72.3658C345.026 71.7318 344.82 70.95 344.82 70.0206C344.82 69.2204 344.968 68.5587 345.263 68.0355C345.559 67.5123 345.962 67.0938 346.473 66.7798C346.984 66.4659 347.559 66.2289 348.199 66.0689C348.846 65.9027 349.514 65.7827 350.203 65.7088C351.034 65.6226 351.708 65.5457 352.225 65.478C352.742 65.4041 353.117 65.2933 353.351 65.1456C353.591 64.9917 353.711 64.7547 353.711 64.4347V64.3793C353.711 63.6837 353.505 63.1451 353.093 62.7635C352.68 62.3819 352.086 62.1911 351.311 62.1911C350.492 62.1911 349.843 62.3696 349.363 62.7266C348.889 63.0836 348.569 63.5052 348.403 63.9915L345.282 63.5483C345.528 62.6866 345.934 61.9664 346.501 61.3878C347.067 60.803 347.759 60.366 348.578 60.0767C349.397 59.7812 350.301 59.6335 351.292 59.6335C351.976 59.6335 352.656 59.7135 353.333 59.8736C354.01 60.0336 354.629 60.2983 355.189 60.6676C355.749 61.0308 356.198 61.5263 356.537 62.1541C356.881 62.782 357.054 63.5668 357.054 64.5085V74H353.841V72.0518H353.73C353.527 72.4458 353.241 72.8151 352.871 73.1598C352.508 73.4983 352.05 73.7723 351.496 73.9815C350.948 74.1847 350.305 74.2862 349.566 74.2862ZM350.434 71.8303C351.105 71.8303 351.686 71.6979 352.179 71.4332C352.671 71.1624 353.05 70.8054 353.314 70.3622C353.585 69.919 353.721 69.4358 353.721 68.9126V67.2415C353.616 67.3277 353.438 67.4077 353.185 67.4815C352.939 67.5554 352.662 67.62 352.354 67.6754C352.046 67.7308 351.742 67.7801 351.44 67.8232C351.139 67.8662 350.877 67.9032 350.655 67.9339C350.157 68.0017 349.711 68.1125 349.317 68.2663C348.923 68.4202 348.612 68.6357 348.384 68.9126C348.156 69.1835 348.042 69.5343 348.042 69.9652C348.042 70.5807 348.267 71.0455 348.716 71.3594C349.166 71.6733 349.738 71.8303 350.434 71.8303ZM363.757 55.0909V74H360.415V55.0909H363.757ZM370.536 55.0909V74H367.194V55.0909H370.536ZM380.252 74.277C378.83 74.277 377.602 73.9815 376.568 73.3906C375.54 72.7936 374.749 71.9503 374.195 70.8608C373.641 69.7652 373.364 68.4756 373.364 66.9922C373.364 65.5334 373.641 64.2531 374.195 63.1513C374.755 62.0433 375.537 61.1816 376.54 60.5661C377.543 59.9444 378.722 59.6335 380.076 59.6335C380.95 59.6335 381.775 59.7751 382.551 60.0582C383.332 60.3352 384.022 60.7661 384.619 61.3509C385.222 61.9356 385.696 62.6804 386.041 63.5852C386.385 64.4839 386.558 65.5549 386.558 66.7983V67.8232H374.933V65.5703H383.354C383.348 64.9302 383.209 64.3608 382.938 63.8622C382.668 63.3575 382.289 62.9605 381.803 62.6712C381.323 62.3819 380.762 62.2372 380.122 62.2372C379.439 62.2372 378.839 62.4034 378.322 62.7358C377.805 63.062 377.402 63.4929 377.112 64.0284C376.829 64.5578 376.685 65.1394 376.678 65.7734V67.7401C376.678 68.5649 376.829 69.2727 377.131 69.8636C377.432 70.4484 377.854 70.8977 378.396 71.2116C378.937 71.5194 379.571 71.6733 380.298 71.6733C380.784 71.6733 381.224 71.6056 381.618 71.4702C382.012 71.3286 382.354 71.1224 382.643 70.8516C382.932 70.5807 383.151 70.2453 383.298 69.8452L386.419 70.196C386.222 71.0208 385.847 71.741 385.293 72.3565C384.745 72.9659 384.043 73.4399 383.188 73.7784C382.332 74.1108 381.353 74.277 380.252 74.277ZM389.385 59.8182H392.728V74.8125C392.728 75.8343 392.534 76.6776 392.146 77.3423C391.758 78.0071 391.198 78.5026 390.466 78.8288C389.733 79.1551 388.844 79.3182 387.797 79.3182C387.674 79.3182 387.56 79.3151 387.456 79.3089C387.351 79.3089 387.237 79.3059 387.114 79.2997V76.576C387.206 76.5821 387.289 76.5852 387.363 76.5852C387.437 76.5914 387.514 76.5945 387.594 76.5945C388.234 76.5945 388.693 76.4375 388.97 76.1236C389.247 75.8158 389.385 75.3634 389.385 74.7663V59.8182ZM391.047 57.8054C390.512 57.8054 390.053 57.63 389.672 57.2791C389.296 56.9221 389.108 56.4943 389.108 55.9957C389.108 55.491 389.296 55.0632 389.672 54.7124C390.053 54.3553 390.512 54.1768 391.047 54.1768C391.577 54.1768 392.029 54.3553 392.404 54.7124C392.786 55.0632 392.977 55.491 392.977 55.9957C392.977 56.4943 392.786 56.9221 392.404 57.2791C392.029 57.63 391.577 57.8054 391.047 57.8054ZM402.351 74.277C400.966 74.277 399.765 73.9723 398.75 73.3629C397.734 72.7536 396.946 71.901 396.386 70.8054C395.832 69.7098 395.555 68.4295 395.555 66.9645C395.555 65.4995 395.832 64.2161 396.386 63.1143C396.946 62.0125 397.734 61.157 398.75 60.5476C399.765 59.9382 400.966 59.6335 402.351 59.6335C403.736 59.6335 404.936 59.9382 405.952 60.5476C406.967 61.157 407.752 62.0125 408.306 63.1143C408.866 64.2161 409.146 65.4995 409.146 66.9645C409.146 68.4295 408.866 69.7098 408.306 70.8054C407.752 71.901 406.967 72.7536 405.952 73.3629C404.936 73.9723 403.736 74.277 402.351 74.277ZM402.369 71.5994C403.12 71.5994 403.748 71.3932 404.253 70.9808C404.757 70.5623 405.133 70.0021 405.379 69.3004C405.631 68.5987 405.758 67.817 405.758 66.9553C405.758 66.0874 405.631 65.3026 405.379 64.6009C405.133 63.893 404.757 63.3298 404.253 62.9112C403.748 62.4927 403.12 62.2834 402.369 62.2834C401.6 62.2834 400.96 62.4927 400.449 62.9112C399.944 63.3298 399.565 63.893 399.313 64.6009C399.067 65.3026 398.944 66.0874 398.944 66.9553C398.944 67.817 399.067 68.5987 399.313 69.3004C399.565 70.0021 399.944 70.5623 400.449 70.9808C400.96 71.3932 401.6 71.5994 402.369 71.5994Z" fill="white"/>
<defs>
<clipPath id="clip0_146_80244">
<rect width="89" height="90" fill="white" transform="translate(0 78)"/>
</clipPath>
<clipPath id="clip1_146_80244">
<rect width="24" height="24" fill="white" transform="translate(175 34)"/>
</clipPath>
</defs>
</svg>
