<svg width="322" height="170" viewBox="0 0 322 170" fill="none" xmlns="http://www.w3.org/2000/svg">
<path d="M65.1996 51.532L62.5605 50L68.6876 52.576L71.3266 54.111L65.1996 51.532Z" fill="#98D343"/>
<path d="M38.4044 78.6213L35.7644 77.0873L35.7324 65.4883L38.3714 67.0233L38.4044 78.6213Z" fill="#705E2C"/>
<path d="M38.3714 67.023L35.7324 65.488L62.5614 50L65.2004 51.532L38.3714 67.023Z" fill="#8DC63F"/>
<path d="M65.2001 51.5312L71.3271 54.1103L65.2341 63.1302L38.4041 78.6202L38.3711 67.0222L65.2001 51.5312Z" fill="#518524"/>
<path d="M8.24905 53.1932L10.8881 51.6582L4.76105 54.2372L2.12305 55.7712L8.24905 53.1932Z" fill="#98D343"/>
<path d="M35.0469 80.2804L37.6849 78.7464L37.7179 67.1484L35.0799 68.6824L35.0469 80.2804Z" fill="#705E2C"/>
<path d="M35.08 68.6832L37.718 67.1492L10.889 51.6582L8.25 53.1932L35.08 68.6832Z" fill="#8DC63F"/>
<path d="M8.24905 53.1934L2.12305 55.7713L8.21506 64.7914L35.0461 80.2813L35.079 68.6833L8.24905 53.1934Z" fill="#217F1C"/>
<path d="M30.3105 163.741C30.3105 163.741 30.3106 163.813 30.3456 163.888C30.3456 163.888 30.3456 163.965 30.3456 164.035C30.3876 164.113 30.4196 164.185 30.4606 164.223C30.4606 164.261 30.4606 164.336 30.4966 164.371C30.5356 164.407 30.5356 164.521 30.6066 164.556C30.6066 164.594 30.6456 164.671 30.6456 164.707C30.7196 164.743 30.7576 164.857 30.7576 164.928C30.8296 164.968 30.9036 165.005 30.9036 165.041C30.9436 165.075 31.0926 165.231 31.1666 165.302C31.2006 165.335 31.2376 165.335 31.2786 165.448C31.3156 165.488 31.3886 165.524 31.4636 165.598C31.5336 165.671 31.5706 165.671 31.6096 165.747C31.7226 165.747 31.7606 165.817 31.8726 165.895C31.9056 165.935 32.0196 165.935 32.0556 165.971C32.2406 166.117 32.4666 166.229 32.6526 166.303C32.7276 166.343 32.7636 166.374 32.7966 166.374C32.9486 166.454 33.1386 166.528 33.3216 166.563C33.3536 166.599 33.4326 166.599 33.5096 166.635C33.5816 166.635 33.6946 166.717 33.7666 166.717C33.8416 166.746 33.9546 166.746 34.0276 166.79C34.1746 166.79 34.2506 166.79 34.3606 166.862C34.4386 166.862 34.5086 166.862 34.5856 166.934C34.8426 166.934 35.0676 167.012 35.2916 167.012C35.3586 167.012 35.4766 167.012 35.5496 167.012C35.6656 167.012 35.8096 167.012 35.8876 167.046C36.0366 167.046 36.1076 167.046 36.1826 167.046C36.2936 167.046 36.3706 167.046 36.5156 167.046C36.6306 167.046 36.7425 167.046 36.8495 167.046C36.8905 167.012 37.0025 167.012 37.1125 167.012C37.1865 167.012 37.2976 167.012 37.4456 167.012C37.4866 167.012 37.5965 167.012 37.6725 167.012C37.7795 166.934 37.8556 166.934 37.9676 166.934C38.1156 166.934 38.1916 166.934 38.3016 166.862C38.3766 166.862 38.4876 166.862 38.5256 166.79C38.6716 166.79 38.7856 166.746 38.9726 166.746C39.0096 166.717 39.0836 166.717 39.1576 166.717C39.3816 166.599 39.6016 166.563 39.7886 166.454C39.9006 166.414 40.0136 166.374 40.1276 166.343C40.1606 166.303 40.1966 166.265 40.2746 166.265C40.4216 166.117 40.5686 166.117 40.7166 165.971C41.9076 165.301 42.5016 164.37 42.5016 163.479V165.447C42.5016 166.375 41.9436 167.307 40.7166 167.977C40.5686 168.049 40.4216 168.125 40.2746 168.233C40.1966 168.271 40.1605 168.271 40.0865 168.311C40.0125 168.385 39.9006 168.385 39.8616 168.421C39.8236 168.421 39.8235 168.421 39.8235 168.421C39.6005 168.496 39.3806 168.564 39.1566 168.643C39.1196 168.643 39.1196 168.643 39.1196 168.643C39.0416 168.717 39.0096 168.717 38.9726 168.717C38.7846 168.717 38.6716 168.793 38.5626 168.793C38.5256 168.793 38.4875 168.793 38.4525 168.793C38.4525 168.793 38.3776 168.868 38.3026 168.868C38.1926 168.868 38.1166 168.904 37.9686 168.904C37.9316 168.904 37.8926 168.938 37.8566 168.938C37.8196 168.938 37.7486 168.938 37.7486 168.938C37.5996 168.938 37.4886 168.938 37.4476 169.014C37.2996 169.014 37.2996 169.014 37.2626 169.014H37.1516C37.0046 169.014 36.8926 169.014 36.8516 169.014C36.7436 169.014 36.7046 169.014 36.6656 169.014C36.5946 169.014 36.5586 169.014 36.5586 169.014C36.3726 169.014 36.2956 169.014 36.1846 169.014C36.1446 169.014 36.0756 169.014 36.0756 169.014C36.0016 169.014 35.9626 169.014 35.8896 169.014C35.8116 169.014 35.6285 169.014 35.4785 169.014C35.4435 169.014 35.4036 169.014 35.3326 169.014L35.2935 168.938C35.0695 168.938 34.8446 168.938 34.5876 168.868C34.4736 168.868 34.4415 168.868 34.3625 168.793C34.2525 168.793 34.1766 168.793 34.0296 168.793C33.9576 168.717 33.8436 168.717 33.7686 168.717C33.6976 168.643 33.5836 168.643 33.5116 168.565C33.4736 168.565 33.4355 168.565 33.4355 168.565C33.3565 168.565 33.3566 168.565 33.3246 168.565C33.1736 168.497 32.9516 168.422 32.7996 168.385C32.7666 168.349 32.7305 168.311 32.6555 168.311C32.4695 168.195 32.2826 168.125 32.0986 167.977C32.0586 167.977 32.0236 167.977 32.0236 167.977C31.9466 167.899 31.9096 167.899 31.8766 167.827C31.7996 167.789 31.7276 167.756 31.6136 167.678C31.5746 167.642 31.5376 167.606 31.4676 167.53C31.3936 167.494 31.3196 167.452 31.2826 167.385C31.2826 167.385 31.2415 167.385 31.2415 167.343C31.2415 167.343 31.2046 167.309 31.1706 167.309C31.0976 167.197 31.0196 167.086 30.9476 167.015C30.9076 167.015 30.9076 167.015 30.8716 166.937C30.8346 166.937 30.8346 166.937 30.8346 166.865C30.7626 166.793 30.7626 166.749 30.6846 166.719C30.6506 166.637 30.6506 166.637 30.6506 166.601C30.6116 166.565 30.6116 166.565 30.6116 166.565C30.5406 166.457 30.5406 166.417 30.5016 166.376C30.5016 166.305 30.4655 166.267 30.4655 166.267C30.4655 166.231 30.4655 166.231 30.4655 166.195C30.4245 166.119 30.3925 166.119 30.3925 165.973C30.3505 165.937 30.3506 165.937 30.3506 165.897C30.3506 165.787 30.3156 165.749 30.3156 165.672C30.3156 165.637 30.3156 165.599 30.3156 165.525C30.3156 165.489 30.3156 165.489 30.3156 165.489V163.521C30.3106 163.594 30.3105 163.594 30.3105 163.741Z" fill="#2B2B2B"/>
<path d="M32.1313 160.993C29.7163 162.365 29.7163 164.593 32.0563 165.971C34.4393 167.45 38.3003 167.45 40.7153 165.971C43.0943 164.593 43.1343 162.364 40.7523 160.993C38.3763 159.542 34.4713 159.542 32.1313 160.993Z" fill="#979797"/>
<path d="M31.7246 131.48C31.7246 131.558 31.7246 131.596 31.7246 131.634C31.7246 131.705 31.7246 131.705 31.7246 131.781C31.7246 131.781 31.7626 131.851 31.7626 131.891C31.7966 131.927 31.7966 131.927 31.8366 132.005C31.8736 132.076 31.8736 132.076 31.8736 132.153C31.9066 132.189 31.9066 132.223 31.9436 132.299C32.0206 132.339 32.0206 132.372 32.0556 132.445C32.0956 132.445 32.1306 132.525 32.1306 132.525C32.1676 132.599 32.2786 132.67 32.3146 132.749C32.3556 132.749 32.4266 132.749 32.4266 132.815C32.4666 132.859 32.5006 132.893 32.6116 132.969C32.6116 132.969 32.6526 133.005 32.7276 133.045C32.7636 133.12 32.7966 133.149 32.8746 133.191C32.9126 133.191 32.9486 133.265 33.0206 133.307C33.2436 133.417 33.4706 133.487 33.6946 133.597C33.7276 133.641 33.8416 133.641 33.8416 133.641C34.0996 133.749 34.3236 133.785 34.5496 133.899C34.5846 133.899 34.5846 133.899 34.6546 133.899C34.8806 133.933 35.1026 133.933 35.3296 134.045C35.3996 134.045 35.4756 134.045 35.4756 134.045C35.7726 134.045 36.0366 134.078 36.2926 134.078H36.3686C36.6626 134.078 36.8886 134.045 37.1846 134.045C37.2586 134.045 37.2586 134.045 37.2956 134.045C37.5586 133.933 37.8156 133.933 37.9996 133.899C38.1126 133.899 38.1496 133.861 38.1886 133.861C38.4496 133.785 38.5946 133.75 38.8566 133.641C38.8566 133.641 38.8946 133.641 38.9696 133.641C39.1936 133.487 39.4496 133.417 39.6766 133.307C40.5656 132.748 41.0126 132.005 41.0126 131.295L41.1626 162.918C41.1626 163.594 40.6766 164.37 39.7496 164.857C39.5646 165.004 39.3036 165.075 39.0806 165.191C39.0806 165.231 39.0386 165.231 39.0386 165.231C39.0066 165.231 38.9696 165.231 38.8936 165.231C38.7816 165.301 38.6676 165.335 38.5216 165.375C38.4486 165.447 38.3736 165.447 38.2616 165.447C38.1876 165.447 38.1876 165.487 38.1496 165.487C38.1126 165.487 38.0406 165.487 37.9996 165.487C37.8526 165.523 37.7436 165.597 37.5586 165.597C37.4846 165.635 37.4436 165.635 37.4436 165.635C37.2956 165.67 37.2956 165.67 37.2586 165.67C37.1846 165.67 37.1476 165.67 37.1106 165.67C36.9626 165.67 36.8476 165.67 36.6626 165.67C36.5916 165.67 36.5556 165.67 36.4746 165.67C36.4446 165.67 36.3686 165.67 36.3686 165.67C36.2926 165.67 36.1806 165.67 36.1406 165.67C35.9966 165.67 35.8476 165.67 35.6246 165.67C35.5866 165.67 35.5866 165.67 35.5866 165.67C35.5476 165.67 35.4746 165.635 35.4396 165.635C35.2896 165.597 35.1416 165.597 35.0276 165.523C34.9196 165.523 34.8406 165.487 34.7336 165.487C34.7336 165.487 34.6956 165.487 34.6546 165.487C34.4696 165.447 34.3236 165.335 34.1746 165.301C34.0996 165.301 34.0276 165.231 33.9886 165.231C33.8806 165.231 33.8416 165.231 33.7656 165.191C33.5406 165.075 33.3536 165.005 33.1376 164.857C33.0976 164.857 33.0976 164.857 33.0976 164.857C33.0206 164.815 33.0206 164.783 32.9486 164.743C32.8746 164.707 32.8366 164.707 32.7626 164.634C32.7266 164.594 32.7266 164.556 32.6516 164.556C32.6106 164.522 32.6106 164.482 32.5006 164.407H32.4666C32.4666 164.371 32.4666 164.371 32.4266 164.371C32.3556 164.262 32.2796 164.223 32.2406 164.113C32.1676 164.113 32.1676 164.113 32.1676 164.113V164.035C32.1306 163.965 32.0956 163.93 32.0206 163.888C32.0206 163.888 32.0206 163.814 32.0206 163.778C32.0206 163.778 31.9836 163.778 31.9836 163.742C31.9436 163.742 31.9066 163.664 31.9066 163.595L31.8736 163.52C31.8736 163.52 31.8736 163.52 31.8736 163.48C31.8736 163.44 31.8736 163.44 31.8366 163.37C31.8366 163.294 31.7966 163.294 31.7966 163.294C31.7966 163.256 31.7966 163.221 31.7966 163.221C31.7966 163.185 31.7966 163.147 31.7966 163.073C31.7626 163.073 31.7626 162.999 31.7626 162.999V162.961L31.7246 131.337C31.7246 131.409 31.7246 131.446 31.7246 131.48Z" fill="#3B3B3B"/>
<path d="M33.0609 129.406C31.2389 130.442 31.2389 132.188 33.0219 133.306C34.8809 134.306 37.8539 134.306 39.6779 133.306C41.5329 132.188 41.5329 130.442 39.7129 129.406C37.8539 128.323 34.8809 128.323 33.0609 129.406Z" fill="#979797"/>
<path d="M38.1907 133.861C38.4517 133.785 38.5967 133.75 38.8587 133.641C38.8587 133.641 38.8967 133.641 38.9717 133.641C39.1957 133.487 39.4517 133.417 39.6787 133.307C40.5677 132.748 41.0147 132.005 41.0147 131.295L41.1647 162.918C41.1647 163.594 40.6787 164.37 39.7517 164.857C39.5667 165.004 39.3057 165.075 39.0827 165.191C39.0827 165.231 39.0407 165.231 39.0407 165.231C39.0087 165.231 38.9717 165.231 38.8957 165.231C38.7837 165.301 38.6697 165.335 38.5237 165.375C38.4507 165.447 38.3757 165.447 38.2637 165.447C38.1897 165.447 38.1897 165.487 38.1517 165.487C38.1147 165.487 38.0427 165.487 38.0017 165.487C38.0017 165.523 37.9667 165.523 37.9297 165.523V133.933C37.9667 133.899 38.0017 133.899 38.0017 133.899C38.1157 133.899 38.1527 133.861 38.1907 133.861Z" fill="#2B2B2B"/>
<path d="M34.1747 60.1303C34.1747 60.2373 34.2147 60.2763 34.2497 60.3163C34.2497 60.3943 34.2497 60.3943 34.2497 60.4263C34.3237 60.4643 34.4387 60.5373 34.4387 60.5753C34.4707 60.6453 34.5497 60.6453 34.5847 60.7233C34.6547 60.7233 34.6957 60.7573 34.7337 60.7573C34.8807 60.8683 35.0277 60.9463 35.1417 61.0233C35.2137 61.0233 35.2897 61.0233 35.2897 61.0233C35.3987 61.0233 35.4747 61.0593 35.5867 61.0973C35.5867 61.0973 35.7347 61.0973 35.8077 61.0973C35.8477 61.0973 35.8477 61.0973 35.8857 61.1693C35.9967 61.1693 36.1057 61.1693 36.1807 61.1693C36.2567 61.1693 36.2567 61.1693 36.2917 61.1693C36.3677 61.1693 36.5137 61.1693 36.6617 61.1693L36.7007 61.0973C36.8477 61.0973 36.9237 61.0973 37.0007 61.0593C37.0727 61.0593 37.0727 61.0593 37.1097 61.0233C37.1837 61.0233 37.2947 61.0233 37.4427 60.9473C37.5577 60.9093 37.6697 60.8693 37.7767 60.7583C38.1877 60.5373 38.4487 60.2373 38.4487 59.9043L38.5947 131C38.5947 131.295 38.4487 131.633 37.9647 131.891C37.8527 131.927 37.7767 132.005 37.6697 132.077C37.6697 132.077 37.6697 132.077 37.5947 132.077C37.5587 132.077 37.4847 132.077 37.4437 132.113C37.3717 132.113 37.2957 132.153 37.2957 132.153C37.2587 132.153 37.2587 132.153 37.2587 132.189H37.1847C37.1107 132.189 37.0007 132.223 36.9617 132.223H36.8887C36.8887 132.223 36.8887 132.223 36.8477 132.223C36.8477 132.223 36.8477 132.223 36.7397 132.223C36.7007 132.223 36.6287 132.265 36.5547 132.265C36.5137 132.265 36.4747 132.265 36.4747 132.265C36.4747 132.265 36.4447 132.265 36.3687 132.265C36.3687 132.265 36.3687 132.265 36.3297 132.265C36.2577 132.265 36.1417 132.223 36.0717 132.223H36.0357C35.9587 132.223 35.8867 132.223 35.8477 132.189C35.8077 132.189 35.7717 132.189 35.7717 132.189C35.6647 132.153 35.5867 132.153 35.5127 132.113C35.4747 132.077 35.4397 132.077 35.3997 132.077C35.3997 132.077 35.3577 132.077 35.3297 132.077C35.2147 132.006 35.0667 131.928 34.9197 131.891C34.9197 131.851 34.8807 131.851 34.8807 131.851L34.8417 131.781C34.7347 131.781 34.6957 131.705 34.6557 131.705C34.5857 131.634 34.5507 131.596 34.4707 131.558C34.4707 131.48 34.4707 131.48 34.4707 131.48V131.446C34.4387 131.446 34.4387 131.41 34.4387 131.41C34.4387 131.336 34.3607 131.297 34.3607 131.263L34.3247 131.187C34.3247 131.111 34.3247 131.041 34.3247 131.002L34.1367 59.9443V59.9063C34.1367 59.9823 34.1367 60.0903 34.1747 60.1303Z" fill="#3B3B3B"/>
<path d="M34.7355 59.0158C33.8825 59.4937 33.8825 60.3177 34.7355 60.7597C35.5895 61.2427 36.9255 61.2427 37.7795 60.7597C38.5965 60.3177 38.5965 59.4928 37.7795 59.0158C36.9635 58.4947 35.5885 58.4947 34.7355 59.0158Z" fill="#434351"/>
<path d="M36.6637 61.1713L36.7026 61.0992C36.8496 61.0992 36.9257 61.0992 37.0027 61.0612C37.0747 61.0612 37.0747 61.0612 37.1117 61.0252C37.1857 61.0252 37.2966 61.0252 37.4446 60.9492C37.5596 60.9112 37.6717 60.8713 37.7787 60.7603C38.1897 60.5393 38.4507 60.2393 38.4507 59.9062L38.5966 131.002C38.5966 131.297 38.4506 131.635 37.9666 131.893C37.8546 131.929 37.7787 132.007 37.6717 132.079C37.6717 132.079 37.6716 132.079 37.5966 132.079C37.5606 132.079 37.4866 132.079 37.4456 132.115C37.3736 132.115 37.2976 132.155 37.2976 132.155C37.2606 132.155 37.2607 132.155 37.2607 132.191H37.1866C37.1126 132.191 37.0027 132.225 36.9637 132.225H36.8907C36.8907 132.225 36.8906 132.225 36.8496 132.225C36.8496 132.225 36.8496 132.225 36.7416 132.225C36.7026 132.225 36.6306 132.267 36.5566 132.267V61.1732C36.5916 61.1712 36.5917 61.1713 36.6637 61.1713Z" fill="#2B2B2B"/>
<path d="M33.1402 57.7479C33.1402 57.7879 33.1402 57.8319 33.1402 57.8979C33.1402 57.8979 33.1722 57.8979 33.1722 57.9759V58.0469C33.2092 58.0849 33.2092 58.1209 33.2092 58.1209C33.2092 58.1209 33.2452 58.1909 33.2452 58.2309C33.2842 58.2689 33.3232 58.2689 33.3232 58.3449C33.3232 58.3449 33.3552 58.3449 33.3552 58.3809C33.3552 58.3809 33.3962 58.4179 33.4342 58.4179C33.4722 58.4919 33.5102 58.5629 33.5422 58.6029C33.5822 58.6029 33.5822 58.6029 33.6192 58.6409C33.6542 58.7189 33.6542 58.7189 33.6952 58.7189C33.7282 58.7499 33.7282 58.7499 33.7662 58.7879C33.8412 58.8279 33.8412 58.8659 33.8802 58.9039C33.9542 58.9039 33.9882 58.9039 34.0272 58.9339C34.1742 59.0499 34.3242 59.0879 34.4702 59.1599C34.5082 59.1999 34.5492 59.1999 34.5842 59.1999C34.6952 59.2379 34.7702 59.3099 34.8802 59.3099C34.9972 59.3459 35.1032 59.3839 35.2142 59.3839C35.2902 59.4589 35.4752 59.4589 35.5872 59.4589C35.5872 59.4589 35.6252 59.4589 35.6642 59.4889C35.8482 59.4889 36.0712 59.4889 36.1812 59.4889C36.1812 59.4889 36.2572 59.4889 36.2922 59.4889C36.4752 59.4889 36.6622 59.4889 36.8482 59.4889C36.8482 59.4589 36.8892 59.4589 36.8892 59.4589C37.0742 59.4589 37.2592 59.4589 37.4442 59.3839C37.4442 59.3839 37.4442 59.3839 37.4852 59.3839C37.6712 59.3099 37.7782 59.3099 37.9282 59.1989C37.9652 59.1989 37.9652 59.1989 37.9652 59.1989C38.1512 59.0879 38.2992 59.0499 38.4852 58.9329C39.0822 58.5609 39.4152 58.1189 39.4152 57.6699V59.6059C39.4152 60.0859 39.1182 60.5719 38.4852 60.9439C38.3752 61.0199 38.1892 61.0939 38.0012 61.1669C37.9662 61.2019 37.9662 61.2019 37.9292 61.2019C37.8542 61.2019 37.7452 61.2379 37.6712 61.2379C37.5962 61.3119 37.5602 61.3119 37.4852 61.3539H37.4442C37.3722 61.3539 37.2962 61.3539 37.2962 61.3539C37.2592 61.3879 37.1112 61.3879 37.0012 61.3879C36.9622 61.3879 36.9242 61.3879 36.8892 61.3879H36.8482C36.7792 61.3879 36.7402 61.3879 36.7012 61.4639C36.5912 61.4639 36.4742 61.4639 36.3682 61.4639C36.3682 61.4639 36.3292 61.4639 36.2922 61.4639H36.1812C36.1412 61.4639 36.1062 61.4639 36.0722 61.4639C35.9592 61.4639 35.8482 61.4639 35.7362 61.3879C35.7362 61.3879 35.7362 61.3879 35.7012 61.3879C35.6652 61.3879 35.5882 61.3879 35.5882 61.3879C35.4762 61.3879 35.4002 61.3879 35.2912 61.3879C35.2912 61.3879 35.2152 61.3879 35.2152 61.3539C35.1042 61.3539 34.9982 61.3119 34.8812 61.2379C34.8422 61.2379 34.7722 61.2379 34.7342 61.2379C34.6962 61.2019 34.6552 61.2019 34.5852 61.2019C34.5502 61.2019 34.5092 61.1669 34.4712 61.1669C34.3252 61.0949 34.1752 61.0209 34.0282 60.9439V60.9059L33.9562 60.8659C33.8432 60.7949 33.8432 60.7949 33.7682 60.7549C33.7302 60.7549 33.7302 60.7209 33.6972 60.7209C33.6972 60.6429 33.6562 60.6429 33.6212 60.6429C33.6212 60.6429 33.5842 60.6429 33.5842 60.6069V60.5729C33.5122 60.5349 33.4742 60.4619 33.4362 60.4239H33.3982C33.3982 60.3919 33.3572 60.3919 33.3572 60.3919C33.3572 60.3139 33.3252 60.2739 33.3252 60.2739C33.3252 60.2359 33.3252 60.2359 33.2862 60.2019L33.2472 60.1679C33.2472 60.1679 33.2472 60.0889 33.2112 60.0889V60.0529L33.1742 59.9809C33.1742 59.9809 33.1742 59.9809 33.1742 59.9029C33.1422 59.8329 33.1422 59.8329 33.1422 59.8329C33.1422 59.8329 33.1422 59.7599 33.1422 59.6819C33.1422 59.6819 33.1422 59.6819 33.1422 59.6479C33.1022 59.6479 33.1022 59.6479 33.1022 59.6479V57.6729C33.1002 57.6739 33.1002 57.7479 33.1402 57.7479Z" fill="#2B2B2B"/>
<path d="M34.0287 56.3441C32.7977 57.0481 32.7977 58.2711 34.0287 58.9371C35.2927 59.6831 37.2607 59.6831 38.4867 58.9371C39.7147 58.2711 39.7147 57.0481 38.4867 56.3441C37.2607 55.6301 35.2917 55.6301 34.0287 56.3441Z" fill="#3B3B3B"/>
<path d="M8.73383 84.1753L6.0918 82.6433L32.9218 67.1523L35.5598 68.6863L8.73383 84.1753Z" fill="#8DC63F"/>
<path d="M2.638 93.8096L0 92.2776L6.09198 82.6426L8.73401 84.1746L2.638 93.8096Z" fill="#98D343"/>
<path d="M35.5607 68.6855L35.5937 80.2856L8.76566 95.7776L2.63867 93.8095L8.73468 84.1745L35.5607 68.6855Z" fill="#518524"/>
<path d="M62.409 84.316L65.05 82.781L38.221 67.291L35.584 68.825L62.409 84.316Z" fill="#8DC63F"/>
<path d="M68.5032 93.9503L71.1422 92.4163L65.0492 82.7812L62.4082 84.3163L68.5032 93.9503Z" fill="#98D343"/>
<path d="M35.5838 68.8242L35.5488 80.4272L62.3778 95.9152L68.5038 93.9492L62.4088 84.3152L35.5838 68.8242Z" fill="#217F1C"/>
<rect x="83" width="239" height="72" rx="16" fill="#006DB7"/>
<rect x="98.0476" y="15.0476" width="41.9048" height="41.9048" rx="20.9524" fill="#407C1D"/>
<rect x="98.0476" y="15.0476" width="41.9048" height="41.9048" rx="20.9524" stroke="white" stroke-width="2.09524"/>
<g clip-path="url(#clip0_176_26881)">
<path d="M126 44H112V45C112 45.2652 111.895 45.5196 111.707 45.7071C111.52 45.8946 111.265 46 111 46H110C109.735 46 109.48 45.8946 109.293 45.7071C109.105 45.5196 109 45.2652 109 45V35L111.48 29.212C111.634 28.852 111.891 28.5452 112.218 28.3298C112.545 28.1143 112.928 27.9997 113.32 28H124.68C125.071 28 125.454 28.1149 125.781 28.3303C126.107 28.5458 126.364 28.8523 126.518 29.212L129 35V45C129 45.2652 128.895 45.5196 128.707 45.7071C128.52 45.8946 128.265 46 128 46H127C126.735 46 126.48 45.8946 126.293 45.7071C126.105 45.5196 126 45.2652 126 45V44ZM127 37H111V42H127V37ZM111.176 35H126.824L124.681 30H113.32L111.177 35H111.176ZM113.5 41C113.102 41 112.721 40.842 112.439 40.5607C112.158 40.2794 112 39.8978 112 39.5C112 39.1022 112.158 38.7206 112.439 38.4393C112.721 38.158 113.102 38 113.5 38C113.898 38 114.279 38.158 114.561 38.4393C114.842 38.7206 115 39.1022 115 39.5C115 39.8978 114.842 40.2794 114.561 40.5607C114.279 40.842 113.898 41 113.5 41ZM124.5 41C124.102 41 123.721 40.842 123.439 40.5607C123.158 40.2794 123 39.8978 123 39.5C123 39.1022 123.158 38.7206 123.439 38.4393C123.721 38.158 124.102 38 124.5 38C124.898 38 125.279 38.158 125.561 38.4393C125.842 38.7206 126 39.1022 126 39.5C126 39.8978 125.842 40.2794 125.561 40.5607C125.279 40.842 124.898 41 124.5 41Z" fill="white"/>
</g>
<path d="M156.551 30V27.7159L162.611 21.7756C163.19 21.1903 163.673 20.6705 164.06 20.2159C164.446 19.7614 164.736 19.321 164.929 18.8949C165.122 18.4687 165.219 18.0142 165.219 17.5312C165.219 16.9801 165.094 16.5085 164.844 16.1165C164.594 15.7188 164.25 15.4119 163.812 15.196C163.375 14.9801 162.878 14.8722 162.321 14.8722C161.747 14.8722 161.244 14.9915 160.812 15.2301C160.381 15.4631 160.045 15.7955 159.807 16.2273C159.574 16.6591 159.457 17.1733 159.457 17.7699H156.449C156.449 16.6619 156.702 15.6989 157.207 14.8807C157.713 14.0625 158.409 13.429 159.295 12.9801C160.188 12.5312 161.21 12.3068 162.364 12.3068C163.534 12.3068 164.563 12.5256 165.449 12.9631C166.335 13.4006 167.023 14 167.511 14.7614C168.006 15.5227 168.253 16.392 168.253 17.3693C168.253 18.0227 168.128 18.6648 167.878 19.2955C167.628 19.9261 167.188 20.625 166.557 21.392C165.932 22.1591 165.054 23.0881 163.923 24.179L160.915 27.2386V27.358H168.517V30H156.551ZM177.526 30.2386C176.389 30.2386 175.372 30.0256 174.474 29.5994C173.577 29.1676 172.864 28.5767 172.335 27.8267C171.813 27.0767 171.534 26.2187 171.5 25.2528H174.568C174.625 25.9687 174.935 26.554 175.497 27.0085C176.06 27.4574 176.736 27.6818 177.526 27.6818C178.145 27.6818 178.696 27.5398 179.179 27.2557C179.662 26.9716 180.043 26.5767 180.321 26.071C180.599 25.5653 180.736 24.9886 180.73 24.3409C180.736 23.6818 180.597 23.0966 180.312 22.5852C180.028 22.0739 179.639 21.6733 179.145 21.3835C178.651 21.0881 178.082 20.9403 177.44 20.9403C176.918 20.9347 176.403 21.0312 175.898 21.2301C175.392 21.429 174.991 21.6903 174.696 22.0142L171.841 21.5455L172.753 12.5455H182.878V15.1875H175.369L174.866 19.8153H174.969C175.293 19.4347 175.75 19.1193 176.341 18.8693C176.932 18.6136 177.58 18.4858 178.284 18.4858C179.341 18.4858 180.284 18.7358 181.114 19.2358C181.943 19.7301 182.597 20.4119 183.074 21.2812C183.551 22.1506 183.79 23.1449 183.79 24.2642C183.79 25.4176 183.523 26.446 182.989 27.3494C182.46 28.2472 181.724 28.9545 180.781 29.4716C179.844 29.983 178.759 30.2386 177.526 30.2386ZM192.632 30V16.9091H195.581V19.1335H195.734C196.007 18.3835 196.459 17.7983 197.089 17.3778C197.72 16.9517 198.473 16.7386 199.348 16.7386C200.234 16.7386 200.982 16.9545 201.589 17.3864C202.203 17.8125 202.635 18.3949 202.885 19.1335H203.021C203.311 18.4062 203.8 17.8267 204.487 17.3949C205.18 16.9574 206.001 16.7386 206.95 16.7386C208.155 16.7386 209.138 17.1193 209.899 17.8807C210.661 18.642 211.041 19.7528 211.041 21.2131V30H207.947V21.6903C207.947 20.8778 207.732 20.2841 207.3 19.9091C206.868 19.5284 206.339 19.3381 205.714 19.3381C204.97 19.3381 204.388 19.571 203.967 20.0369C203.553 20.4972 203.345 21.0966 203.345 21.8352V30H200.32V21.5625C200.32 20.8864 200.115 20.3466 199.706 19.9432C199.303 19.5398 198.774 19.3381 198.121 19.3381C197.678 19.3381 197.274 19.4517 196.911 19.679C196.547 19.9006 196.257 20.2159 196.041 20.625C195.825 21.0284 195.717 21.5 195.717 22.0398V30H192.632ZM214.171 30V16.9091H217.256V30H214.171ZM215.722 15.0511C215.234 15.0511 214.813 14.8892 214.461 14.5653C214.109 14.2358 213.933 13.8409 213.933 13.3807C213.933 12.9148 214.109 12.5199 214.461 12.196C214.813 11.8665 215.234 11.7017 215.722 11.7017C216.217 11.7017 216.637 11.8665 216.984 12.196C217.336 12.5199 217.512 12.9148 217.512 13.3807C217.512 13.8409 217.336 14.2358 216.984 14.5653C216.637 14.8892 216.217 15.0511 215.722 15.0511ZM223.514 22.3295V30H220.429V16.9091H223.378V19.1335H223.531C223.832 18.4006 224.313 17.8182 224.972 17.3864C225.636 16.9545 226.457 16.7386 227.435 16.7386C228.338 16.7386 229.125 16.9318 229.795 17.3182C230.472 17.7045 230.994 18.2642 231.364 18.9972C231.739 19.7301 231.923 20.6193 231.918 21.6648V30H228.832V22.142C228.832 21.267 228.605 20.5824 228.151 20.0881C227.702 19.5937 227.08 19.3466 226.284 19.3466C225.744 19.3466 225.264 19.4659 224.844 19.7045C224.429 19.9375 224.102 20.2756 223.864 20.7188C223.631 21.1619 223.514 21.6989 223.514 22.3295ZM244.092 22.3295V30H241.007V12.5455H244.024V19.1335H244.178C244.484 18.3949 244.959 17.8125 245.601 17.3864C246.249 16.9545 247.072 16.7386 248.072 16.7386C248.982 16.7386 249.774 16.929 250.45 17.3097C251.126 17.6903 251.649 18.2472 252.018 18.9801C252.393 19.7131 252.581 20.608 252.581 21.6648V30H249.496V22.142C249.496 21.2614 249.268 20.5767 248.814 20.0881C248.365 19.5937 247.734 19.3466 246.922 19.3466C246.376 19.3466 245.888 19.4659 245.456 19.7045C245.03 19.9375 244.695 20.2756 244.45 20.7188C244.212 21.1619 244.092 21.6989 244.092 22.3295ZM259.493 30.2642C258.663 30.2642 257.916 30.1165 257.251 29.821C256.592 29.5199 256.07 29.0767 255.683 28.4915C255.303 27.9062 255.112 27.1847 255.112 26.3267C255.112 25.5881 255.249 24.9773 255.521 24.4943C255.794 24.0114 256.166 23.625 256.638 23.3352C257.109 23.0455 257.641 22.8267 258.232 22.679C258.828 22.5256 259.445 22.4148 260.081 22.3466C260.848 22.267 261.47 22.196 261.947 22.1335C262.425 22.0653 262.771 21.9631 262.987 21.8267C263.209 21.6847 263.32 21.4659 263.32 21.1705V21.1193C263.32 20.4773 263.129 19.9801 262.749 19.6278C262.368 19.2756 261.82 19.0994 261.104 19.0994C260.348 19.0994 259.749 19.2642 259.305 19.5938C258.868 19.9233 258.572 20.3125 258.419 20.7614L255.538 20.3523C255.766 19.5568 256.141 18.892 256.663 18.358C257.186 17.8182 257.825 17.4148 258.581 17.1477C259.337 16.875 260.172 16.7386 261.087 16.7386C261.717 16.7386 262.345 16.8125 262.97 16.9602C263.595 17.108 264.166 17.3523 264.683 17.6932C265.2 18.0284 265.615 18.4858 265.928 19.0653C266.246 19.6449 266.405 20.3693 266.405 21.2386V30H263.439V28.2017H263.337C263.149 28.5653 262.885 28.9062 262.544 29.2244C262.209 29.5369 261.786 29.7898 261.274 29.983C260.768 30.1705 260.175 30.2642 259.493 30.2642ZM260.294 27.9972C260.913 27.9972 261.45 27.875 261.905 27.6307C262.359 27.3807 262.709 27.0511 262.953 26.642C263.203 26.233 263.328 25.7869 263.328 25.304V23.7614C263.232 23.8409 263.067 23.9148 262.834 23.983C262.607 24.0511 262.351 24.1108 262.067 24.1619C261.783 24.2131 261.501 24.2585 261.223 24.2983C260.945 24.3381 260.703 24.3722 260.499 24.4006C260.038 24.4631 259.626 24.5653 259.263 24.7074C258.899 24.8494 258.612 25.0483 258.402 25.304C258.192 25.554 258.087 25.8778 258.087 26.2756C258.087 26.8438 258.294 27.2727 258.709 27.5625C259.124 27.8523 259.652 27.9972 260.294 27.9972ZM275.217 30.2557C273.911 30.2557 272.788 29.9688 271.851 29.3949C270.919 28.821 270.2 28.0284 269.695 27.017C269.195 26 268.945 24.8295 268.945 23.5057C268.945 22.1761 269.2 21.0028 269.712 19.9858C270.223 18.9631 270.945 18.1676 271.876 17.5994C272.814 17.0256 273.922 16.7386 275.2 16.7386C276.263 16.7386 277.203 16.9347 278.021 17.3267C278.845 17.7131 279.501 18.2614 279.99 18.9716C280.479 19.6761 280.757 20.5 280.825 21.4432H277.876C277.757 20.8125 277.473 20.2869 277.024 19.8665C276.581 19.4403 275.987 19.2273 275.243 19.2273C274.612 19.2273 274.058 19.3977 273.581 19.7386C273.104 20.0739 272.732 20.5568 272.464 21.1875C272.203 21.8182 272.072 22.5739 272.072 23.4545C272.072 24.3466 272.203 25.1136 272.464 25.7557C272.726 26.392 273.092 26.8835 273.564 27.2301C274.041 27.571 274.601 27.7415 275.243 27.7415C275.697 27.7415 276.104 27.6562 276.462 27.4858C276.825 27.3097 277.129 27.0568 277.374 26.7273C277.618 26.3977 277.786 25.9972 277.876 25.5256H280.825C280.751 26.4517 280.479 27.2727 280.007 27.9886C279.536 28.6989 278.893 29.2557 278.081 29.6591C277.268 30.0568 276.314 30.2557 275.217 30.2557ZM283.359 30V16.9091H286.444V30H283.359ZM284.91 15.0511C284.421 15.0511 284.001 14.8892 283.648 14.5653C283.296 14.2358 283.12 13.8409 283.12 13.3807C283.12 12.9148 283.296 12.5199 283.648 12.196C284.001 11.8665 284.421 11.7017 284.91 11.7017C285.404 11.7017 285.825 11.8665 286.171 12.196C286.523 12.5199 286.7 12.9148 286.7 13.3807C286.7 13.8409 286.523 14.2358 286.171 14.5653C285.825 14.8892 285.404 15.0511 284.91 15.0511ZM293.384 30.2642C292.554 30.2642 291.807 30.1165 291.142 29.821C290.483 29.5199 289.96 29.0767 289.574 28.4915C289.193 27.9062 289.003 27.1847 289.003 26.3267C289.003 25.5881 289.139 24.9773 289.412 24.4943C289.685 24.0114 290.057 23.625 290.528 23.3352C291 23.0455 291.531 22.8267 292.122 22.679C292.719 22.5256 293.335 22.4148 293.972 22.3466C294.739 22.267 295.361 22.196 295.838 22.1335C296.315 22.0653 296.662 21.9631 296.878 21.8267C297.099 21.6847 297.21 21.4659 297.21 21.1705V21.1193C297.21 20.4773 297.02 19.9801 296.639 19.6278C296.259 19.2756 295.71 19.0994 294.994 19.0994C294.239 19.0994 293.639 19.2642 293.196 19.5938C292.759 19.9233 292.463 20.3125 292.31 20.7614L289.429 20.3523C289.656 19.5568 290.031 18.892 290.554 18.358C291.077 17.8182 291.716 17.4148 292.472 17.1477C293.227 16.875 294.063 16.7386 294.977 16.7386C295.608 16.7386 296.236 16.8125 296.861 16.9602C297.486 17.108 298.057 17.3523 298.574 17.6932C299.091 18.0284 299.506 18.4858 299.818 19.0653C300.136 19.6449 300.295 20.3693 300.295 21.2386V30H297.33V28.2017H297.227C297.04 28.5653 296.776 28.9062 296.435 29.2244C296.099 29.5369 295.676 29.7898 295.165 29.983C294.659 30.1705 294.065 30.2642 293.384 30.2642ZM294.185 27.9972C294.804 27.9972 295.341 27.875 295.795 27.6307C296.25 27.3807 296.599 27.0511 296.844 26.642C297.094 26.233 297.219 25.7869 297.219 25.304V23.7614C297.122 23.8409 296.957 23.9148 296.724 23.983C296.497 24.0511 296.241 24.1108 295.957 24.1619C295.673 24.2131 295.392 24.2585 295.114 24.2983C294.835 24.3381 294.594 24.3722 294.389 24.4006C293.929 24.4631 293.517 24.5653 293.153 24.7074C292.79 24.8494 292.503 25.0483 292.293 25.304C292.082 25.554 291.977 25.8778 291.977 26.2756C291.977 26.8438 292.185 27.2727 292.599 27.5625C293.014 27.8523 293.543 27.9972 294.185 27.9972ZM156.722 59V41.5455H159.884V56.3494H167.571V59H156.722ZM170.179 59V45.9091H173.264V59H170.179ZM171.73 44.0511C171.241 44.0511 170.821 43.8892 170.469 43.5653C170.116 43.2358 169.94 42.8409 169.94 42.3807C169.94 41.9148 170.116 41.5199 170.469 41.196C170.821 40.8665 171.241 40.7017 171.73 40.7017C172.224 40.7017 172.645 40.8665 172.991 41.196C173.344 41.5199 173.52 41.9148 173.52 42.3807C173.52 42.8409 173.344 43.2358 172.991 43.5653C172.645 43.8892 172.224 44.0511 171.73 44.0511ZM176.437 59V45.9091H179.386V48.1335H179.539C179.812 47.3835 180.263 46.7983 180.894 46.3778C181.525 45.9517 182.278 45.7386 183.153 45.7386C184.039 45.7386 184.786 45.9545 185.394 46.3864C186.008 46.8125 186.44 47.3949 186.69 48.1335H186.826C187.116 47.4062 187.604 46.8267 188.292 46.3949C188.985 45.9574 189.806 45.7386 190.755 45.7386C191.96 45.7386 192.942 46.1193 193.704 46.8807C194.465 47.642 194.846 48.7528 194.846 50.2131V59H191.752V50.6903C191.752 49.8778 191.536 49.2841 191.104 48.9091C190.673 48.5284 190.144 48.3381 189.519 48.3381C188.775 48.3381 188.192 48.571 187.772 49.0369C187.357 49.4972 187.15 50.0966 187.15 50.8352V59H184.124V50.5625C184.124 49.8864 183.92 49.3466 183.511 48.9432C183.107 48.5398 182.579 48.3381 181.925 48.3381C181.482 48.3381 181.079 48.4517 180.715 48.679C180.352 48.9006 180.062 49.2159 179.846 49.625C179.63 50.0284 179.522 50.5 179.522 51.0398V59H176.437ZM201.743 59.2642C200.913 59.2642 200.166 59.1165 199.501 58.821C198.842 58.5199 198.32 58.0767 197.933 57.4915C197.553 56.9062 197.362 56.1847 197.362 55.3267C197.362 54.5881 197.499 53.9773 197.771 53.4943C198.044 53.0114 198.416 52.625 198.888 52.3352C199.359 52.0455 199.891 51.8267 200.482 51.679C201.078 51.5256 201.695 51.4148 202.331 51.3466C203.098 51.267 203.72 51.196 204.197 51.1335C204.675 51.0653 205.021 50.9631 205.237 50.8267C205.459 50.6847 205.57 50.4659 205.57 50.1705V50.1193C205.57 49.4773 205.379 48.9801 204.999 48.6278C204.618 48.2756 204.07 48.0994 203.354 48.0994C202.598 48.0994 201.999 48.2642 201.555 48.5938C201.118 48.9233 200.822 49.3125 200.669 49.7614L197.788 49.3523C198.016 48.5568 198.391 47.892 198.913 47.358C199.436 46.8182 200.075 46.4148 200.831 46.1477C201.587 45.875 202.422 45.7386 203.337 45.7386C203.967 45.7386 204.595 45.8125 205.22 45.9602C205.845 46.108 206.416 46.3523 206.933 46.6932C207.45 47.0284 207.865 47.4858 208.178 48.0653C208.496 48.6449 208.655 49.3693 208.655 50.2386V59H205.689V57.2017H205.587C205.399 57.5653 205.135 57.9062 204.794 58.2244C204.459 58.5369 204.036 58.7898 203.524 58.983C203.018 59.1705 202.425 59.2642 201.743 59.2642ZM202.544 56.9972C203.163 56.9972 203.7 56.875 204.155 56.6307C204.609 56.3807 204.959 56.0511 205.203 55.642C205.453 55.233 205.578 54.7869 205.578 54.304V52.7614C205.482 52.8409 205.317 52.9148 205.084 52.983C204.857 53.0511 204.601 53.1108 204.317 53.1619C204.033 53.2131 203.751 53.2585 203.473 53.2983C203.195 53.3381 202.953 53.3722 202.749 53.4006C202.288 53.4631 201.876 53.5653 201.513 53.7074C201.149 53.8494 200.862 54.0483 200.652 54.304C200.442 54.554 200.337 54.8778 200.337 55.2756C200.337 55.8438 200.544 56.2727 200.959 56.5625C201.374 56.8523 201.902 56.9972 202.544 56.9972Z" fill="white"/>
<path d="M75.6003 111.006L101.5 66H145L78.4983 113.63C76.7501 114.882 74.5277 112.87 75.6003 111.006Z" fill="#006DB7"/>
<defs>
<clipPath id="clip0_176_26881">
<rect width="24" height="24" fill="white" transform="translate(107 24)"/>
</clipPath>
</defs>
</svg>
