<svg width="507" height="165" viewBox="0 0 507 165" fill="none" xmlns="http://www.w3.org/2000/svg">
<rect x="179" width="328" height="92" rx="18" fill="#006DB7"/>
<path d="M123 102L234.5 66.026L202.5 42L123 102Z" fill="#006DB7"/>
<rect x="204.048" y="25.0476" width="41.9048" height="41.9048" rx="20.9524" fill="#FF9D26"/>
<rect x="204.048" y="25.0476" width="41.9048" height="41.9048" rx="20.9524" stroke="white" stroke-width="2.09524"/>
<path d="M235.538 56.8741C235.538 56.8508 235.515 54.5543 233.571 53.4342C232.453 52.7888 231.318 52.8931 230.677 53.0382C230.583 52.8751 230.476 52.7194 230.354 52.5721C230.099 52.2706 229.806 52.0272 229.478 51.8457C229.361 51.7834 229.237 51.7287 229.09 51.6679C228.189 51.3447 227.397 51.5337 226.953 51.7039L225.39 44.5831C225.63 44.3588 225.814 44.0873 225.932 43.7888C226.034 43.8863 226.146 43.9748 226.268 44.0528C226.626 44.2819 227.033 44.4004 227.448 44.4004C227.607 44.4004 227.766 44.3832 227.925 44.3483C228.499 44.2223 228.989 43.8803 229.306 43.3853C229.385 43.2619 229.451 43.1326 229.503 42.9991C229.907 43.3846 230.445 43.6178 231.021 43.6178C231.177 43.6178 231.335 43.6009 231.494 43.5661C232.068 43.4401 232.558 43.0977 232.875 42.6027C233.192 42.1077 233.297 41.5186 233.171 40.9444L233.035 40.3279C233.034 40.3216 233.029 40.3167 233.028 40.3107C233.021 40.2859 233.009 40.2642 232.997 40.2413C232.987 40.2207 232.978 40.2001 232.964 40.1821C232.949 40.1633 232.931 40.1487 232.913 40.1326C232.898 40.1198 232.888 40.1033 232.871 40.0928C232.866 40.0891 232.859 40.0887 232.853 40.0853C232.847 40.0819 232.844 40.0767 232.838 40.0737L222.329 34.7888C222.323 34.7862 222.317 34.7862 222.311 34.7836C222.297 34.7772 222.282 34.7727 222.267 34.7682C222.258 34.7656 222.252 34.7599 222.243 34.7581C222.236 34.7566 222.23 34.7581 222.224 34.7573C222.212 34.7551 222.2 34.7532 222.188 34.7524C222.172 34.7513 222.156 34.7524 222.141 34.7532C222.126 34.7539 222.112 34.7543 222.097 34.7566C222.086 34.7584 222.075 34.7607 222.064 34.7637C222.048 34.7678 222.035 34.7742 222.02 34.7802C222.006 34.7858 221.993 34.7907 221.979 34.7978C221.969 34.8038 221.958 34.8106 221.948 34.8177C221.943 34.8214 221.936 34.8226 221.931 34.8263C221.924 34.8319 221.919 34.8406 221.912 34.8466C221.901 34.8567 221.89 34.8661 221.88 34.8777C221.876 34.8826 221.87 34.8848 221.866 34.8901L214.542 44.0933C214.538 44.0986 214.538 44.1049 214.534 44.1102C214.518 44.1319 214.509 44.1556 214.498 44.1803C214.489 44.2013 214.478 44.2212 214.473 44.2429C214.468 44.2651 214.469 44.2872 214.468 44.3104C214.467 44.3371 214.465 44.3626 214.47 44.3888C214.471 44.3952 214.469 44.4016 214.47 44.4079L214.605 45.0244C214.831 46.0508 215.744 46.7528 216.754 46.7528C216.91 46.7528 217.068 46.7359 217.227 46.7011C217.972 46.5372 218.546 46.0114 218.805 45.3488C219.208 45.7343 219.747 45.9676 220.322 45.9676C220.478 45.9676 220.636 45.9507 220.794 45.9158C221.536 45.7527 222.108 45.2307 222.369 44.5722C222.602 44.7957 222.884 44.9652 223.197 45.0672L224.499 50.9967C224.336 51.0117 224.175 51.0398 224.018 51.0818C223.731 51.1553 223.454 51.2753 223.192 51.4377C222.943 51.5922 222.711 51.7857 222.512 52.0032C222.297 51.9766 221.973 51.9541 221.588 52.0103C221.102 52.0699 220.644 52.2278 220.227 52.4802C219.499 52.9268 219.096 53.5411 218.885 53.9881C218.449 53.9464 217.705 53.9697 216.979 54.4216C215.638 55.2706 215.577 56.7987 215.575 56.8632C215.572 56.9648 215.61 57.0631 215.681 57.1358C215.751 57.2086 215.849 57.2498 215.95 57.2498H235.164C235.371 57.2498 235.539 57.0822 235.539 56.8748L235.538 56.8741ZM225.741 41.5456L223.325 36.6409L228.294 40.9846L225.741 41.5456ZM229.206 40.7858L224.633 36.7876L231.556 40.2694L229.206 40.7858ZM218.138 43.2177L215.788 43.7341L220.614 37.6703L218.138 43.2177ZM221.738 36.9893L221.601 42.4553L219.048 43.0163L221.738 36.9893ZM222.497 36.6559L224.987 41.7109L222.356 42.2892L222.497 36.6559ZM228.674 42.9811C228.465 43.3077 228.141 43.5331 227.763 43.6159C227.385 43.6992 226.997 43.6302 226.671 43.4209C226.344 43.2121 226.119 42.8888 226.036 42.5104L225.981 42.2599L228.813 41.6378L228.869 41.8883C228.952 42.2667 228.882 42.6548 228.674 42.9811ZM231.331 42.8337C230.954 42.9177 230.565 42.8476 230.238 42.6387C229.911 42.4298 229.686 42.1066 229.603 41.7278L229.548 41.4777L232.382 40.8552L232.437 41.1053C232.608 41.8864 232.112 42.6619 231.331 42.8337ZM217.066 45.9683C216.285 46.1404 215.51 45.6439 215.337 44.8628L215.283 44.6127L218.117 43.9902L218.172 44.2403C218.343 45.0214 217.847 45.7966 217.066 45.9683ZM220.633 45.1831C219.852 45.3533 219.077 44.8587 218.906 44.0779L218.851 43.8271L221.683 43.2049L221.738 43.4554C221.91 44.2362 221.414 45.0113 220.633 45.1831ZM222.471 43.2942L222.416 43.0437L225.248 42.4216L225.303 42.6721C225.426 43.2293 225.209 43.8076 224.746 44.1492C224.591 44.2681 224.402 44.3547 224.198 44.3993C223.995 44.4443 223.788 44.4451 223.589 44.4001C223.032 44.2853 222.593 43.8514 222.471 43.2942ZM224.039 45.1752C224.134 45.1684 224.229 45.1568 224.323 45.1377C224.334 45.1354 224.346 45.1358 224.357 45.1332C224.366 45.1313 224.374 45.1272 224.383 45.1249C224.479 45.1028 224.573 45.0728 224.664 45.0383C224.681 45.0319 224.7 45.0289 224.717 45.0218L226.089 51.2693C226.077 51.2641 226.062 51.2599 226.049 51.2543C225.959 51.2161 225.863 51.1812 225.764 51.1482C225.731 51.1377 225.7 51.1272 225.667 51.1174C225.546 51.0818 225.422 51.0507 225.29 51.0282C225.284 51.0271 225.279 51.0252 225.273 51.0241L223.99 45.1812C224.006 45.1804 224.022 45.1763 224.039 45.1752ZM216.384 56.4991C216.482 56.0952 216.732 55.4641 217.376 55.0561C218.09 54.6121 218.829 54.7227 219.039 54.7669C219.22 54.8052 219.404 54.7043 219.469 54.5299C219.595 54.1891 219.912 53.5523 220.616 53.1196C220.941 52.9238 221.298 52.8001 221.686 52.7524C222.104 52.6913 222.435 52.7468 222.601 52.7742C222.735 52.7956 222.87 52.7434 222.954 52.6377C223.076 52.4839 223.285 52.2616 223.587 52.0737C223.787 51.9499 223.988 51.8629 224.207 51.8067C224.446 51.7429 224.685 51.7204 224.936 51.7381C225.105 51.7508 225.265 51.7812 225.415 51.8224C225.548 51.8592 225.671 51.9057 225.785 51.9552C226.057 52.0737 226.275 52.2147 226.413 52.3174C226.414 52.3174 226.415 52.3178 226.415 52.3182C226.491 52.3744 226.544 52.4172 226.56 52.4326C226.676 52.5496 226.856 52.5769 227.002 52.5004C227.15 52.4221 227.933 52.0493 228.819 52.3669C228.925 52.4112 229.028 52.4554 229.119 52.5042C229.363 52.6388 229.586 52.8244 229.778 53.0528C229.924 53.2291 230.045 53.4229 230.139 53.6314C230.216 53.8043 230.411 53.8909 230.592 53.8358C231.018 53.7038 232.124 53.4649 233.196 54.0833C234.332 54.7381 234.658 55.9021 234.751 56.4983H216.384V56.4991Z" fill="white"/>
<path d="M264.865 55.5V36.5909H271.956C273.409 36.5909 274.627 36.8617 275.612 37.4034C276.603 37.9451 277.351 38.6899 277.856 39.6378C278.367 40.5795 278.622 41.6506 278.622 42.8509C278.622 44.0634 278.367 45.1406 277.856 46.0824C277.345 47.0241 276.591 47.7659 275.594 48.3075C274.597 48.843 273.369 49.1108 271.91 49.1108H267.21V46.2947H271.448C272.298 46.2947 272.993 46.147 273.535 45.8516C274.076 45.5561 274.477 45.1499 274.735 44.6328C275 44.1158 275.132 43.5218 275.132 42.8509C275.132 42.1799 275 41.589 274.735 41.0781C274.477 40.5672 274.073 40.1702 273.526 39.8871C272.984 39.5978 272.285 39.4531 271.43 39.4531H268.29V55.5H264.865ZM284.792 36.5909V55.5H281.45V36.5909H284.792ZM292.31 55.7862C291.411 55.7862 290.602 55.6262 289.882 55.3061C289.168 54.9799 288.601 54.4998 288.183 53.8658C287.77 53.2318 287.564 52.45 287.564 51.5206C287.564 50.7204 287.712 50.0587 288.007 49.5355C288.303 49.0123 288.706 48.5938 289.217 48.2798C289.728 47.9659 290.303 47.7289 290.944 47.5689C291.59 47.4027 292.258 47.2827 292.947 47.2088C293.778 47.1226 294.452 47.0457 294.969 46.978C295.486 46.9041 295.862 46.7933 296.096 46.6456C296.336 46.4917 296.456 46.2547 296.456 45.9347V45.8793C296.456 45.1837 296.249 44.6451 295.837 44.2635C295.425 43.8819 294.831 43.6911 294.055 43.6911C293.236 43.6911 292.587 43.8696 292.107 44.2266C291.633 44.5836 291.313 45.0052 291.147 45.4915L288.026 45.0483C288.272 44.1866 288.678 43.4664 289.245 42.8878C289.811 42.303 290.503 41.866 291.322 41.5767C292.141 41.2812 293.046 41.1335 294.037 41.1335C294.72 41.1335 295.4 41.2135 296.077 41.3736C296.754 41.5336 297.373 41.7983 297.933 42.1676C298.493 42.5308 298.942 43.0263 299.281 43.6541C299.626 44.282 299.798 45.0668 299.798 46.0085V55.5H296.585V53.5518H296.474C296.271 53.9458 295.985 54.3151 295.615 54.6598C295.252 54.9983 294.794 55.2723 294.24 55.4815C293.692 55.6847 293.049 55.7862 292.31 55.7862ZM293.178 53.3303C293.849 53.3303 294.431 53.1979 294.923 52.9332C295.415 52.6624 295.794 52.3054 296.059 51.8622C296.329 51.419 296.465 50.9358 296.465 50.4126V48.7415C296.36 48.8277 296.182 48.9077 295.929 48.9815C295.683 49.0554 295.406 49.12 295.098 49.1754C294.791 49.2308 294.486 49.2801 294.184 49.3232C293.883 49.3662 293.621 49.4032 293.4 49.4339C292.901 49.5017 292.455 49.6125 292.061 49.7663C291.667 49.9202 291.356 50.1357 291.128 50.4126C290.9 50.6835 290.787 51.0343 290.787 51.4652C290.787 52.0807 291.011 52.5455 291.461 52.8594C291.91 53.1733 292.482 53.3303 293.178 53.3303ZM304.728 60.8182C304.273 60.8182 303.851 60.7813 303.463 60.7074C303.082 60.6397 302.777 60.5597 302.549 60.4673L303.325 57.8636C303.811 58.0052 304.245 58.0729 304.627 58.0668C305.008 58.0606 305.344 57.9406 305.633 57.7067C305.929 57.4789 306.178 57.0973 306.381 56.5618L306.667 55.7955L301.525 41.3182H305.07L308.338 52.0284H308.486L311.764 41.3182H315.319L309.64 57.2173C309.376 57.9683 309.025 58.6115 308.588 59.147C308.151 59.6887 307.615 60.1011 306.981 60.3842C306.353 60.6735 305.602 60.8182 304.728 60.8182ZM321.306 55.7862C320.407 55.7862 319.598 55.6262 318.878 55.3061C318.164 54.9799 317.598 54.4998 317.179 53.8658C316.767 53.2318 316.56 52.45 316.56 51.5206C316.56 50.7204 316.708 50.0587 317.004 49.5355C317.299 49.0123 317.702 48.5938 318.213 48.2798C318.724 47.9659 319.299 47.7289 319.94 47.5689C320.586 47.4027 321.254 47.2827 321.943 47.2088C322.774 47.1226 323.448 47.0457 323.965 46.978C324.482 46.9041 324.858 46.7933 325.092 46.6456C325.332 46.4917 325.452 46.2547 325.452 45.9347V45.8793C325.452 45.1837 325.246 44.6451 324.833 44.2635C324.421 43.8819 323.827 43.6911 323.051 43.6911C322.232 43.6911 321.583 43.8696 321.103 44.2266C320.629 44.5836 320.309 45.0052 320.143 45.4915L317.022 45.0483C317.268 44.1866 317.674 43.4664 318.241 42.8878C318.807 42.303 319.5 41.866 320.318 41.5767C321.137 41.2812 322.042 41.1335 323.033 41.1335C323.716 41.1335 324.396 41.2135 325.073 41.3736C325.75 41.5336 326.369 41.7983 326.929 42.1676C327.489 42.5308 327.938 43.0263 328.277 43.6541C328.622 44.282 328.794 45.0668 328.794 46.0085V55.5H325.581V53.5518H325.47C325.267 53.9458 324.981 54.3151 324.612 54.6598C324.248 54.9983 323.79 55.2723 323.236 55.4815C322.688 55.6847 322.045 55.7862 321.306 55.7862ZM322.174 53.3303C322.845 53.3303 323.427 53.1979 323.919 52.9332C324.411 52.6624 324.79 52.3054 325.055 51.8622C325.326 51.419 325.461 50.9358 325.461 50.4126V48.7415C325.356 48.8277 325.178 48.9077 324.925 48.9815C324.679 49.0554 324.402 49.12 324.094 49.1754C323.787 49.2308 323.482 49.2801 323.18 49.3232C322.879 49.3662 322.617 49.4032 322.396 49.4339C321.897 49.5017 321.451 49.6125 321.057 49.7663C320.663 49.9202 320.352 50.1357 320.124 50.4126C319.897 50.6835 319.783 51.0343 319.783 51.4652C319.783 52.0807 320.007 52.5455 320.457 52.8594C320.906 53.1733 321.478 53.3303 322.174 53.3303ZM349.028 41.7891C348.942 40.9827 348.579 40.3549 347.939 39.9055C347.305 39.4562 346.48 39.2315 345.464 39.2315C344.75 39.2315 344.138 39.3393 343.627 39.5547C343.116 39.7701 342.725 40.0625 342.454 40.4318C342.183 40.8011 342.045 41.2228 342.039 41.6967C342.039 42.0907 342.128 42.4323 342.306 42.7216C342.491 43.0109 342.74 43.2571 343.054 43.4602C343.368 43.6572 343.716 43.8234 344.098 43.9588C344.479 44.0942 344.864 44.2081 345.252 44.3004L347.025 44.7436C347.739 44.9098 348.425 45.1345 349.083 45.4176C349.748 45.7008 350.342 46.0578 350.865 46.4886C351.395 46.9195 351.813 47.4396 352.121 48.049C352.429 48.6584 352.583 49.3724 352.583 50.1911C352.583 51.299 352.3 52.2746 351.733 53.1179C351.167 53.955 350.348 54.6106 349.277 55.0845C348.212 55.5523 346.923 55.7862 345.409 55.7862C343.938 55.7862 342.66 55.5585 341.577 55.103C340.5 54.6475 339.657 53.9827 339.047 53.1087C338.444 52.2346 338.118 51.1697 338.069 49.9141H341.439C341.488 50.5727 341.691 51.1205 342.048 51.5575C342.405 51.9946 342.87 52.3208 343.442 52.5362C344.021 52.7517 344.667 52.8594 345.381 52.8594C346.126 52.8594 346.778 52.7486 347.338 52.527C347.905 52.2992 348.348 51.9853 348.668 51.5852C348.988 51.179 349.151 50.705 349.157 50.1634C349.151 49.6709 349.007 49.2647 348.723 48.9446C348.44 48.6184 348.043 48.3475 347.532 48.1321C347.028 47.9105 346.437 47.7135 345.76 47.5412L343.608 46.9872C342.051 46.5871 340.82 45.9808 339.915 45.1683C339.016 44.3497 338.567 43.2633 338.567 41.9091C338.567 40.795 338.869 39.8194 339.472 38.9822C340.081 38.1451 340.909 37.4957 341.956 37.0341C343.002 36.5663 344.187 36.3324 345.51 36.3324C346.852 36.3324 348.028 36.5663 349.037 37.0341C350.053 37.4957 350.85 38.139 351.429 38.9638C352.007 39.7824 352.306 40.7242 352.324 41.7891H349.028ZM359.57 55.7862C358.671 55.7862 357.862 55.6262 357.142 55.3061C356.427 54.9799 355.861 54.4998 355.443 53.8658C355.03 53.2318 354.824 52.45 354.824 51.5206C354.824 50.7204 354.972 50.0587 355.267 49.5355C355.563 49.0123 355.966 48.5938 356.477 48.2798C356.988 47.9659 357.563 47.7289 358.203 47.5689C358.85 47.4027 359.517 47.2827 360.207 47.2088C361.038 47.1226 361.712 47.0457 362.229 46.978C362.746 46.9041 363.121 46.7933 363.355 46.6456C363.595 46.4917 363.715 46.2547 363.715 45.9347V45.8793C363.715 45.1837 363.509 44.6451 363.097 44.2635C362.684 43.8819 362.09 43.6911 361.315 43.6911C360.496 43.6911 359.847 43.8696 359.367 44.2266C358.893 44.5836 358.573 45.0052 358.406 45.4915L355.286 45.0483C355.532 44.1866 355.938 43.4664 356.504 42.8878C357.071 42.303 357.763 41.866 358.582 41.5767C359.401 41.2812 360.305 41.1335 361.296 41.1335C361.98 41.1335 362.66 41.2135 363.337 41.3736C364.014 41.5336 364.633 41.7983 365.193 42.1676C365.753 42.5308 366.202 43.0263 366.541 43.6541C366.885 44.282 367.058 45.0668 367.058 46.0085V55.5H363.845V53.5518H363.734C363.531 53.9458 363.244 54.3151 362.875 54.6598C362.512 54.9983 362.053 55.2723 361.499 55.4815C360.952 55.6847 360.308 55.7862 359.57 55.7862ZM360.438 53.3303C361.109 53.3303 361.69 53.1979 362.183 52.9332C362.675 52.6624 363.054 52.3054 363.318 51.8622C363.589 51.419 363.725 50.9358 363.725 50.4126V48.7415C363.62 48.8277 363.441 48.9077 363.189 48.9815C362.943 49.0554 362.666 49.12 362.358 49.1754C362.05 49.2308 361.746 49.2801 361.444 49.3232C361.142 49.3662 360.881 49.4032 360.659 49.4339C360.161 49.5017 359.714 49.6125 359.32 49.7663C358.927 49.9202 358.616 50.1357 358.388 50.4126C358.16 50.6835 358.046 51.0343 358.046 51.4652C358.046 52.0807 358.271 52.5455 358.72 52.8594C359.17 53.1733 359.742 53.3303 360.438 53.3303ZM373.761 47.1903V55.5H370.419V41.3182H373.613V43.728H373.779C374.106 42.9339 374.626 42.303 375.34 41.8352C376.06 41.3674 376.949 41.1335 378.008 41.1335C378.987 41.1335 379.839 41.3428 380.566 41.7614C381.298 42.1799 381.864 42.7862 382.264 43.5803C382.671 44.3743 382.871 45.3376 382.865 46.4702V55.5H379.522V46.9872C379.522 46.0393 379.276 45.2976 378.784 44.7621C378.297 44.2266 377.623 43.9588 376.762 43.9588C376.177 43.9588 375.657 44.0881 375.201 44.3466C374.752 44.599 374.398 44.9652 374.139 45.4453C373.887 45.9254 373.761 46.5071 373.761 47.1903ZM392.859 55.5V36.5909H400.098C401.464 36.5909 402.6 36.8063 403.505 37.2372C404.416 37.6619 405.096 38.2436 405.545 38.9822C406.001 39.7209 406.229 40.558 406.229 41.4936C406.229 42.263 406.081 42.9216 405.785 43.4695C405.49 44.0111 405.093 44.4512 404.594 44.7898C404.096 45.1283 403.539 45.3714 402.923 45.5192V45.7038C403.594 45.7408 404.237 45.947 404.853 46.3224C405.474 46.6918 405.982 47.215 406.376 47.892C406.77 48.5691 406.967 49.3878 406.967 50.348C406.967 51.3267 406.73 52.2069 406.256 52.9886C405.782 53.7642 405.068 54.3767 404.114 54.826C403.16 55.2753 401.96 55.5 400.513 55.5H392.859ZM396.285 52.6378H399.969C401.212 52.6378 402.108 52.4008 402.655 51.9268C403.209 51.4467 403.486 50.8312 403.486 50.0803C403.486 49.5201 403.348 49.0154 403.071 48.5661C402.794 48.1106 402.4 47.7536 401.889 47.495C401.378 47.2304 400.769 47.098 400.061 47.098H396.285V52.6378ZM396.285 44.6328H399.673C400.264 44.6328 400.796 44.5251 401.27 44.3097C401.744 44.0881 402.117 43.7772 402.388 43.3771C402.665 42.9709 402.803 42.4908 402.803 41.9368C402.803 41.2043 402.545 40.6011 402.028 40.1271C401.517 39.6532 400.756 39.4162 399.747 39.4162H396.285V44.6328ZM413.88 55.7862C412.982 55.7862 412.172 55.6262 411.452 55.3061C410.738 54.9799 410.172 54.4998 409.753 53.8658C409.341 53.2318 409.135 52.45 409.135 51.5206C409.135 50.7204 409.282 50.0587 409.578 49.5355C409.873 49.0123 410.276 48.5938 410.787 48.2798C411.298 47.9659 411.874 47.7289 412.514 47.5689C413.16 47.4027 413.828 47.2827 414.517 47.2088C415.348 47.1226 416.022 47.0457 416.539 46.978C417.056 46.9041 417.432 46.7933 417.666 46.6456C417.906 46.4917 418.026 46.2547 418.026 45.9347V45.8793C418.026 45.1837 417.82 44.6451 417.407 44.2635C416.995 43.8819 416.401 43.6911 415.625 43.6911C414.807 43.6911 414.157 43.8696 413.677 44.2266C413.203 44.5836 412.883 45.0052 412.717 45.4915L409.596 45.0483C409.842 44.1866 410.249 43.4664 410.815 42.8878C411.381 42.303 412.074 41.866 412.892 41.5767C413.711 41.2812 414.616 41.1335 415.607 41.1335C416.29 41.1335 416.97 41.2135 417.647 41.3736C418.324 41.5336 418.943 41.7983 419.503 42.1676C420.063 42.5308 420.513 43.0263 420.851 43.6541C421.196 44.282 421.368 45.0668 421.368 46.0085V55.5H418.155V53.5518H418.044C417.841 53.9458 417.555 54.3151 417.186 54.6598C416.823 54.9983 416.364 55.2723 415.81 55.4815C415.262 55.6847 414.619 55.7862 413.88 55.7862ZM414.748 53.3303C415.419 53.3303 416.001 53.1979 416.493 52.9332C416.986 52.6624 417.364 52.3054 417.629 51.8622C417.9 51.419 418.035 50.9358 418.035 50.4126V48.7415C417.931 48.8277 417.752 48.9077 417.5 48.9815C417.253 49.0554 416.976 49.12 416.669 49.1754C416.361 49.2308 416.056 49.2801 415.755 49.3232C415.453 49.3662 415.191 49.4032 414.97 49.4339C414.471 49.5017 414.025 49.6125 413.631 49.7663C413.237 49.9202 412.926 50.1357 412.699 50.4126C412.471 50.6835 412.357 51.0343 412.357 51.4652C412.357 52.0807 412.582 52.5455 413.031 52.8594C413.48 53.1733 414.053 53.3303 414.748 53.3303ZM424.729 55.5V41.3182H427.97V43.6818H428.118C428.376 42.8632 428.819 42.2322 429.447 41.7891C430.081 41.3397 430.804 41.1151 431.617 41.1151C431.801 41.1151 432.008 41.1243 432.235 41.1428C432.469 41.1551 432.663 41.1766 432.817 41.2074V44.282C432.676 44.2327 432.451 44.1896 432.143 44.1527C431.842 44.1096 431.549 44.0881 431.266 44.0881C430.657 44.0881 430.109 44.2204 429.623 44.4851C429.142 44.7436 428.764 45.1037 428.487 45.5653C428.21 46.027 428.071 46.5594 428.071 47.1626V55.5H424.729ZM442.881 41.3182V43.9034H434.728V41.3182H442.881ZM436.741 37.9205H440.083V51.2344C440.083 51.6837 440.151 52.0284 440.287 52.2685C440.428 52.5024 440.613 52.6624 440.841 52.7486C441.068 52.8348 441.321 52.8778 441.598 52.8778C441.807 52.8778 441.998 52.8625 442.17 52.8317C442.349 52.8009 442.484 52.7732 442.576 52.7486L443.14 55.3615C442.961 55.4231 442.706 55.4908 442.373 55.5646C442.047 55.6385 441.647 55.6816 441.173 55.6939C440.336 55.7185 439.582 55.5923 438.911 55.3153C438.24 55.0322 437.708 54.5952 437.314 54.0043C436.926 53.4134 436.735 52.6747 436.741 51.7884V37.9205ZM451.71 55.777C450.325 55.777 449.125 55.4723 448.109 54.8629C447.094 54.2536 446.306 53.401 445.746 52.3054C445.192 51.2098 444.915 49.9295 444.915 48.4645C444.915 46.9995 445.192 45.7161 445.746 44.6143C446.306 43.5125 447.094 42.657 448.109 42.0476C449.125 41.4382 450.325 41.1335 451.71 41.1335C453.095 41.1335 454.295 41.4382 455.311 42.0476C456.327 42.657 457.111 43.5125 457.665 44.6143C458.225 45.7161 458.506 46.9995 458.506 48.4645C458.506 49.9295 458.225 51.2098 457.665 52.3054C457.111 53.401 456.327 54.2536 455.311 54.8629C454.295 55.4723 453.095 55.777 451.71 55.777ZM451.729 53.0994C452.479 53.0994 453.107 52.8932 453.612 52.4808C454.117 52.0623 454.492 51.5021 454.738 50.8004C454.991 50.0987 455.117 49.317 455.117 48.4553C455.117 47.5874 454.991 46.8026 454.738 46.1009C454.492 45.393 454.117 44.8298 453.612 44.4112C453.107 43.9927 452.479 43.7834 451.729 43.7834C450.959 43.7834 450.319 43.9927 449.808 44.4112C449.303 44.8298 448.925 45.393 448.672 46.1009C448.426 46.8026 448.303 47.5874 448.303 48.4553C448.303 49.317 448.426 50.0987 448.672 50.8004C448.925 51.5021 449.303 52.0623 449.808 52.4808C450.319 52.8932 450.959 53.0994 451.729 53.0994ZM464.685 36.5909V55.5H461.342V36.5909H464.685ZM474.308 55.777C472.923 55.777 471.722 55.4723 470.707 54.8629C469.691 54.2536 468.903 53.401 468.343 52.3054C467.789 51.2098 467.512 49.9295 467.512 48.4645C467.512 46.9995 467.789 45.7161 468.343 44.6143C468.903 43.5125 469.691 42.657 470.707 42.0476C471.722 41.4382 472.923 41.1335 474.308 41.1335C475.693 41.1335 476.893 41.4382 477.909 42.0476C478.924 42.657 479.709 43.5125 480.263 44.6143C480.823 45.7161 481.103 46.9995 481.103 48.4645C481.103 49.9295 480.823 51.2098 480.263 52.3054C479.709 53.401 478.924 54.2536 477.909 54.8629C476.893 55.4723 475.693 55.777 474.308 55.777ZM474.326 53.0994C475.077 53.0994 475.705 52.8932 476.21 52.4808C476.714 52.0623 477.09 51.5021 477.336 50.8004C477.588 50.0987 477.715 49.317 477.715 48.4553C477.715 47.5874 477.588 46.8026 477.336 46.1009C477.09 45.393 476.714 44.8298 476.21 44.4112C475.705 43.9927 475.077 43.7834 474.326 43.7834C473.557 43.7834 472.917 43.9927 472.406 44.4112C471.901 44.8298 471.522 45.393 471.27 46.1009C471.024 46.8026 470.901 47.5874 470.901 48.4553C470.901 49.317 471.024 50.0987 471.27 50.8004C471.522 51.5021 471.901 52.0623 472.406 52.4808C472.917 52.8932 473.557 53.0994 474.326 53.0994Z" fill="white"/>
<path d="M129.997 115.166C130.001 115.17 130.001 115.17 129.997 115.174V122.334C130.021 123.026 129.691 123.727 129.006 124.122L64.5192 161.352L60.7261 163.543L59.9813 163.973C59.6148 164.187 59.2241 164.332 58.8214 164.412C58.7811 164.421 58.7411 164.429 58.7007 164.437C58.6484 164.445 58.6001 164.449 58.5478 164.457C58.4552 164.469 58.3624 164.477 58.274 164.481C57.9478 164.501 57.6216 164.477 57.2995 164.416C57.227 164.4 57.1544 164.384 57.0781 164.364C56.7478 164.28 56.4297 164.147 56.1237 163.973L55.2781 163.482L54.7829 163.196L53.3978 162.395L51.7387 161.433L51.7185 161.421L51.7065 161.413L42.0344 155.812H42.0305L41.0399 155.236L1.2562 132.195C0.676434 131.861 0.314051 131.333 0.164936 130.766L0 130.886V122.962L0.0845268 123.01L0.128741 123.038L5.07758 125.954L11.0089 122.571L16.6744 119.342L20.4716 117.179L58.274 95.6288L70.0642 88.9082C71.256 88.2278 72.7136 88.2318 73.8974 88.9162L124.928 118.331L129.856 115.255L129.997 115.166Z" fill="#FBB465"/>
<path d="M72.7223 149.252C67.8623 154.116 67.5803 158.095 64.52 161.352L60.7269 163.542L59.9821 163.973C59.6156 164.187 59.2249 164.332 58.8222 164.412C58.774 164.445 58.7257 164.477 58.6773 164.513L58.5486 164.457C58.4559 164.469 58.3632 164.477 58.2747 164.481C57.9486 164.501 57.6224 164.477 57.3003 164.416C57.0103 164.114 56.7486 163.768 56.4707 163.531C56.2855 163.382 56.0923 163.277 55.8787 163.269C55.8507 163.269 55.8225 163.269 55.7942 163.273C55.6373 163.285 55.4641 163.349 55.2789 163.482L54.7837 163.196L53.3985 162.395L51.7395 161.433L51.7192 161.42L51.7072 161.412L42.0352 155.811L51.796 153.725L60.7954 151.801L64.0047 151.116V151.112L64.8623 150.931L71.5467 149.502L72.7223 149.252Z" fill="#FFF0C0"/>
<path d="M60.725 163.543L59.9802 163.974C59.6137 164.187 59.2231 164.332 58.8204 164.413C58.7721 164.445 58.7238 164.477 58.6755 164.514L58.5467 164.457C58.4541 164.469 58.3613 164.477 58.2729 164.481C57.9467 164.501 57.6205 164.477 57.2985 164.417C57.226 164.401 57.1533 164.385 57.0771 164.364C56.6381 163.922 56.1951 163.511 55.7924 163.273C55.3978 163.036 55.0434 162.967 54.7817 163.197L53.3966 162.396L51.7376 161.433L51.7173 161.421L51.7053 161.413L42.0332 155.812L51.794 153.726L60.7934 151.801L64.0027 151.113L64.8604 150.932C64.929 151.846 64.7477 152.655 64.8483 153.368C65.388 157.129 62.6619 160.201 60.725 163.543Z" fill="#97EDFF"/>
<path d="M63.6207 154.079C60.3268 158.42 62.646 161.613 58.8207 164.412C58.7725 164.444 58.7242 164.476 58.6758 164.513L58.5471 164.456L56.4692 163.53L55.8772 163.268L51.7379 161.432L51.7176 161.42L51.7056 161.412L42.0336 155.811H42.0297L41.0391 155.235L50.4534 152.948L63.7213 149.727C63.8582 150.218 63.9548 150.677 64.0031 151.112V151.116C64.148 152.28 64.1763 153.351 63.6207 154.079Z" fill="#50C9E4"/>
<path d="M58.7008 164.437C58.5599 164.457 58.415 164.473 58.274 164.481C57.5371 164.525 56.7881 164.356 56.1239 163.973L55.2783 163.482L54.783 163.196L53.3979 162.395L51.7388 161.433L51.7186 161.421L51.7066 161.413L1.2562 132.195C0.676434 131.861 0.314051 131.333 0.164936 130.765L0 130.886V122.962L0.0845268 123.01C0.0845268 122.966 0.0884292 122.921 0.0884292 122.873C0.100675 122.93 0.112595 122.982 0.128741 123.038C0.281757 123.594 0.64403 124.101 1.21188 124.427L2.35148 125.088L2.56084 125.209L2.94327 125.43C2.94327 125.434 2.94739 125.434 2.94739 125.434L3.26946 125.619L56.0792 156.206C56.7557 156.596 57.5208 156.766 58.2738 156.713C58.6324 156.689 58.7008 161.09 58.7008 164.437Z" fill="#3DB2C8"/>
<path d="M129.997 115.167C130 115.171 130 115.171 129.997 115.175V115.3C129.98 115.948 129.646 116.584 129.006 116.955L59.9807 156.807C59.7187 156.956 59.4451 157.072 59.1631 157.157C59.131 157.169 59.0948 157.177 59.0586 157.189C59.0424 157.193 59.0264 157.197 59.0102 157.201C58.7686 157.262 58.523 157.302 58.2733 157.314C57.5364 157.358 56.7875 157.185 56.1232 156.803L3.46225 126.309L3.20054 126.151L1.77507 125.33L1.70669 125.29L1.25566 125.028C0.478445 124.577 0.087994 123.796 0.0839844 123.011C0.0839844 122.966 0.0878868 122.922 0.0878868 122.874C0.124082 122.121 0.522767 121.38 1.2717 120.957L9.34121 116.359L15.7839 112.686L18.8643 110.927L70.0635 81.7372C71.2554 81.0608 72.7129 81.0648 73.8967 81.7453L129.006 113.512C129.517 113.81 129.835 114.277 129.948 114.788C129.98 114.913 129.997 115.038 129.997 115.167Z" fill="white"/>
<path d="M129.949 114.788C129.941 114.949 129.909 115.106 129.856 115.255C129.715 115.694 129.418 116.092 128.962 116.354L72.6573 148.861L64.7814 153.407L63.1908 154.33L59.9372 156.206C59.4219 156.504 58.8541 156.673 58.2742 156.713C57.5212 156.766 56.7562 156.596 56.0797 156.206L3.26991 125.619L2.94784 125.434C2.94784 125.434 2.94372 125.434 2.94372 125.43L2.56129 125.209L2.35193 125.088L1.21233 124.427C0.644483 124.101 0.282099 123.594 0.129192 123.038C0.113045 122.982 0.101126 122.929 0.08888 122.873C-0.0721547 122.08 0.173406 121.218 0.821663 120.642L0.829683 120.634L0.837703 120.63C0.954523 120.53 1.08326 120.437 1.22425 120.356L11.1259 114.715L15.2773 112.347L17.9875 110.801L70.02 81.1406C71.2079 80.4602 72.6696 80.4642 73.8534 81.1487L128.962 112.915C129.675 113.326 130.005 114.071 129.949 114.788Z" fill="#FED39D"/>
<path d="M72.6573 148.861L64.7814 153.407L63.1908 154.329L59.9372 156.206C59.4219 156.504 58.8541 156.673 58.2742 156.713C57.5212 156.765 56.7562 156.596 56.0797 156.206L3.26991 125.619L2.94784 125.434C2.94784 125.434 2.94372 125.434 2.94372 125.43L2.56129 125.208L2.35193 125.087L1.21233 124.427C0.644483 124.101 0.282099 123.594 0.129192 123.038C0.113045 122.981 0.101126 122.929 0.08888 122.873C-0.0721547 122.08 0.173406 121.218 0.821663 120.642L0.829683 120.634L0.837703 120.63L8.4642 116.241H8.46832L11.1259 114.715L15.2572 112.335L17.931 110.797C17.9511 110.797 17.9672 110.797 17.9875 110.801C18.3134 110.817 18.6034 110.861 18.8651 110.926C21.3334 111.522 21.1724 114.018 20.4719 117.179C20.4477 117.292 20.4236 117.405 20.3954 117.521C19.1993 122.728 29.854 116.805 31.513 122.49C33.172 128.176 52.3549 121.069 53.539 129.36C54.5134 136.177 54.6864 139.471 58.2742 140.425C59.0473 140.631 59.9817 140.727 61.117 140.727C65.8523 140.727 71.3731 144.496 72.6573 148.861Z" fill="#FFF0C0"/>
<path d="M64.7814 153.408L63.1908 154.33L59.9372 156.207C59.4219 156.505 58.8541 156.674 58.2742 156.714C57.5212 156.766 56.7562 156.597 56.0797 156.207L3.26991 125.62L2.94784 125.435C2.94784 125.435 2.94372 125.435 2.94372 125.431L2.56129 125.209L2.35193 125.088L1.21233 124.428C0.644483 124.102 0.282099 123.595 0.129192 123.039C0.113045 122.982 0.101126 122.93 0.08888 122.874C-0.0721547 122.081 0.173406 121.219 0.821663 120.643L0.829683 120.635L0.837703 120.631L8.4642 116.242H8.46832L11.1259 114.716L15.2572 112.336C15.2653 112.34 15.2695 112.344 15.2773 112.348C15.4707 112.441 15.6399 112.553 15.7848 112.686C16.5859 113.415 16.6907 114.639 16.5943 115.622C16.4936 116.633 16.3485 118.074 16.6747 119.342C17.1137 121.042 18.4063 122.427 21.8047 122.016C27.7238 121.307 25.3562 123.913 30.5667 125.572C35.7771 127.227 31.9881 131.728 36.0147 135.28C40.0374 138.831 46.1981 133.859 50.9336 135.28C55.2664 136.581 54.4449 143.043 58.2742 143.76C58.6246 143.829 59.0192 143.845 59.458 143.804C64.0202 143.39 66.3236 145.363 64.7814 153.408Z" fill="#97EDFF"/>
<path d="M63.1908 154.33L59.9372 156.207C59.4219 156.505 58.8541 156.674 58.2742 156.714C57.5212 156.767 56.7562 156.597 56.0797 156.207L3.26991 125.62L2.94784 125.435C2.94784 125.435 2.94372 125.435 2.94372 125.431L2.56129 125.21L2.35193 125.089L1.21233 124.428C0.644483 124.102 0.282099 123.595 0.129192 123.039C0.113045 122.983 0.101126 122.93 0.08888 122.874C-0.0721547 122.081 0.173406 121.219 0.821663 120.643L0.829683 120.635L0.837703 120.631L8.4642 116.242H8.46832C8.79039 116.258 9.08038 116.299 9.34209 116.359C11.8468 116.935 11.7058 119.411 11.0092 122.572C10.9809 122.705 10.9528 122.838 10.9206 122.971C9.72474 128.177 20.3833 122.254 22.0423 127.94C23.6972 133.621 23.9347 138.832 34.827 139.545C43.1824 140.088 45.248 146.172 51.6424 146.172C53.8529 146.172 56.2328 146.994 58.2742 148.315C60.6177 149.825 62.5102 151.995 63.1908 154.33Z" fill="#50C9E4"/>
<path d="M107.064 120.22C112.946 120.22 117.715 116.78 117.715 112.537C117.715 108.293 112.946 104.854 107.064 104.854C101.181 104.854 96.4121 108.293 96.4121 112.537C96.4121 116.78 101.181 120.22 107.064 120.22Z" fill="#F7D5E6"/>
<path d="M107.528 103.734C107.875 103.624 108.248 103.663 108.618 103.826C108.928 103.961 108.936 103.734 108.936 103.734C108.936 103.734 111.135 102.424 111.228 102.395C113.015 101.831 115.249 103.861 116.218 106.929C116.276 107.114 116.329 107.3 116.375 107.484C117.331 107.774 118.302 108.916 118.788 110.456C119.007 111.15 119.099 111.833 119.079 112.447L119.18 112.505C119.936 112.939 120.403 113.744 120.403 114.615C120.403 115.509 119.94 116.243 119.281 116.665C118.959 116.87 117.038 118.005 117.038 118.005C117.038 118.005 117.228 116.994 116.76 116.726L104.675 109.794C103.919 109.361 103.453 108.556 103.453 107.684C103.453 106.89 102.643 106.788 102.643 106.788C102.643 106.788 104.838 105.471 105.109 105.379C105.272 105.323 105.322 105.043 105.322 105.043C105.322 105.043 107.454 103.757 107.528 103.734Z" fill="#44B790"/>
<path d="M104.114 106.604C104.289 105.813 104.693 105.229 105.285 105.042C105.923 104.841 106.648 105.143 107.28 105.784C107.575 104.732 108.16 103.964 108.984 103.704C110.771 103.139 113.005 105.169 113.974 108.237C114.033 108.423 114.085 108.608 114.132 108.792C115.087 109.083 116.058 110.224 116.545 111.765C116.763 112.458 116.856 113.141 116.835 113.755L116.937 113.814C117.693 114.247 118.159 115.052 118.159 115.924C118.159 117.793 116.138 118.964 114.516 118.034L102.431 111.103C101.675 110.669 101.209 109.864 101.209 108.993C101.209 107.4 102.677 106.315 104.114 106.604Z" fill="#50C5A2"/>
<path d="M98.1858 102.692C98.45 102.608 98.7337 102.638 99.0148 102.762C99.2505 102.865 99.2571 102.692 99.2571 102.692C99.2571 102.692 100.93 101.695 101.001 101.673C102.36 101.244 104.059 102.788 104.797 105.123C104.841 105.264 104.881 105.405 104.917 105.545C105.643 105.766 106.382 106.634 106.752 107.806C106.919 108.333 106.989 108.853 106.973 109.32L107.051 109.365C107.626 109.695 107.98 110.307 107.98 110.97C107.98 111.65 107.629 112.209 107.127 112.529C106.883 112.685 105.42 113.549 105.42 113.549C105.42 113.549 105.566 112.78 105.209 112.576L96.0149 107.302C95.4397 106.973 95.085 106.36 95.085 105.697C95.085 105.093 94.4688 105.015 94.4688 105.015C94.4688 105.015 96.1388 104.013 96.345 103.943C96.4695 103.901 96.5074 103.688 96.5074 103.688C96.5074 103.688 98.1292 102.71 98.1858 102.692Z" fill="#44B790"/>
<path d="M95.5871 104.876C95.7199 104.274 96.0274 103.83 96.4776 103.688C96.9633 103.534 97.5149 103.765 97.9954 104.252C98.2206 103.452 98.6652 102.867 99.2925 102.669C100.652 102.24 102.351 103.784 103.089 106.119C103.133 106.26 103.173 106.401 103.209 106.541C103.935 106.762 104.674 107.63 105.044 108.802C105.211 109.33 105.281 109.85 105.265 110.317L105.343 110.361C105.918 110.691 106.272 111.303 106.272 111.966C106.272 113.389 104.735 114.279 103.501 113.572L94.3069 108.299C93.7316 107.969 93.377 107.356 93.377 106.693C93.377 105.481 94.4935 104.656 95.5871 104.876Z" fill="#50C5A2"/>
<path d="M105.387 65.0313V114.524H109.612V65.0313C109.612 64.0499 108.97 63.2851 108.146 63.0197C107.884 62.936 107.604 62.901 107.325 62.922C107.052 62.9465 106.78 63.0268 106.515 63.1629C106.165 63.3445 105.886 63.6169 105.69 63.9416C105.495 64.2629 105.387 64.64 105.387 65.0313Z" fill="#D27855"/>
<g opacity="0.17">
<path d="M105.387 65.0313V114.524H107.325V62.9219C107.052 62.9464 106.78 63.0267 106.515 63.1628C106.165 63.3444 105.886 63.6168 105.69 63.9415C105.495 64.2629 105.387 64.64 105.387 65.0313Z" fill="#D27855"/>
</g>
<path d="M107.261 66.6421C108.831 57.9008 97.7257 57 97.7257 57L100.669 60.6352C100.669 60.6352 94.2097 57.3563 87.1699 61.0498C92.5961 61.4295 93.826 64.273 93.826 64.273C89.325 64.908 88.195 66.9298 88.195 66.9298C99.0553 64.7085 98.7909 69.0384 98.7909 69.0384L107.261 66.6421Z" fill="#4EC8A4"/>
<path d="M106.529 66.6421C104.959 57.9008 116.065 57 116.065 57L113.121 60.6352C113.121 60.6352 119.581 57.3563 126.62 61.0498C121.194 61.4295 119.964 64.273 119.964 64.273C124.465 64.908 125.595 66.9298 125.595 66.9298C114.735 64.7085 114.999 69.0384 114.999 69.0384L106.529 66.6421Z" fill="#4EC8A4"/>
<path d="M109.621 65.0683C96.182 56.7605 85.9595 67.7308 85.9595 67.7308L94.3689 67.4113C94.3689 67.4113 83.7997 71.6928 84.4765 81.8964C89.37 76.49 95.1067 77.3657 95.1067 77.3657C92.642 82.5739 95.1484 85.3006 95.1484 85.3006C99.9393 72.2085 106.998 75.7852 106.998 75.7852L109.621 65.0683Z" fill="#4AAA80"/>
<path d="M104.352 65.4159C117.791 57.1081 128.013 68.0784 128.013 68.0784L119.604 67.759C119.604 67.759 130.173 72.0405 129.496 82.2441C124.603 76.8377 118.866 77.7133 118.866 77.7133C121.331 82.9216 118.824 85.6482 118.824 85.6482C114.033 72.5562 106.974 76.1329 106.974 76.1329L104.352 65.4159Z" fill="#4AAA80"/>
<path d="M109.595 69.6612C100.404 66.8515 95.8008 74.2357 95.8008 74.2357L100.79 72.9551C100.79 72.9551 95.0553 76.7012 96.8698 82.2315C99.0519 78.6114 102.606 78.34 102.606 78.34C101.851 81.532 103.727 82.7043 103.727 82.7043C104.786 74.8652 109.505 75.9076 109.505 75.9076L109.595 69.6612Z" fill="#4EC8A4"/>
<path d="M105.558 69.6396C114.828 66.9293 119.219 74.362 119.219 74.362L114.267 73.0278C114.267 73.0278 119.894 76.8352 117.921 82.345C115.843 78.702 112.297 78.3923 112.297 78.3923C112.961 81.5918 111.051 82.7438 111.051 82.7438C110.217 74.8945 105.469 75.8858 105.469 75.8858L105.558 69.6396Z" fill="#4EC8A4"/>
<path opacity="0.53" d="M109.612 104.746H105.387V106.143H109.612V104.746Z" fill="#F0B553"/>
<path opacity="0.53" d="M109.612 100.904H105.387V102.301H109.612V100.904Z" fill="#F0B553"/>
<path opacity="0.53" d="M109.612 97.0625H105.387V98.4595H109.612V97.0625Z" fill="#F0B553"/>
<path opacity="0.53" d="M109.612 93.2207H105.387V94.6177H109.612V93.2207Z" fill="#F0B553"/>
<path opacity="0.53" d="M109.612 89.3789H105.387V90.7758H109.612V89.3789Z" fill="#F0B553"/>
<path opacity="0.53" d="M109.612 85.5371H105.387V86.934H109.612V85.5371Z" fill="#F0B553"/>
<path opacity="0.53" d="M109.612 81.6953H105.387V83.0922H109.612V81.6953Z" fill="#F0B553"/>
<path opacity="0.53" d="M109.612 77.8555H105.387V79.2524H109.612V77.8555Z" fill="#F0B553"/>
<path d="M107.77 108.955C107.944 108.9 108.13 108.919 108.315 109C108.47 109.068 108.474 108.955 108.474 108.955C108.474 108.955 109.573 108.3 109.62 108.285C110.513 108.003 111.629 109.018 112.114 110.552C112.143 110.644 112.169 110.737 112.192 110.829C112.67 110.974 113.155 111.545 113.398 112.315C113.508 112.661 113.554 113.003 113.544 113.31L113.594 113.339C113.972 113.555 114.205 113.958 114.205 114.393C114.205 114.84 113.974 115.207 113.645 115.418C113.484 115.52 112.523 116.088 112.523 116.088C112.523 116.088 112.619 115.582 112.385 115.448L106.344 111.984C105.966 111.767 105.733 111.365 105.733 110.929C105.733 110.532 105.328 110.481 105.328 110.481C105.328 110.481 106.425 109.823 106.561 109.777C106.643 109.749 106.667 109.609 106.667 109.609C106.667 109.609 107.733 108.966 107.77 108.955Z" fill="#44B790"/>
<path d="M106.065 110.39C106.153 109.994 106.355 109.702 106.65 109.609C106.97 109.508 107.332 109.659 107.648 109.98C107.796 109.454 108.088 109.07 108.5 108.94C109.393 108.658 110.509 109.672 110.994 111.206C111.023 111.299 111.049 111.391 111.073 111.483C111.55 111.628 112.035 112.199 112.279 112.969C112.388 113.315 112.434 113.657 112.424 113.964L112.475 113.993C112.852 114.21 113.086 114.612 113.086 115.048C113.086 115.982 112.075 116.567 111.265 116.103L105.224 112.638C104.846 112.421 104.613 112.019 104.613 111.583C104.613 110.787 105.347 110.245 106.065 110.39Z" fill="#50C5A2"/>
<path d="M102.873 110.507C103.085 110.44 103.312 110.464 103.537 110.563C103.725 110.645 103.731 110.507 103.731 110.507C103.731 110.507 105.069 109.71 105.125 109.692C106.213 109.349 107.572 110.584 108.162 112.451C108.197 112.564 108.229 112.677 108.258 112.789C108.839 112.966 109.43 113.661 109.726 114.598C109.859 115.02 109.915 115.436 109.903 115.809L109.965 115.845C110.425 116.109 110.708 116.599 110.708 117.129C110.708 117.673 110.427 118.12 110.026 118.376C109.83 118.501 108.661 119.192 108.661 119.192C108.661 119.192 108.777 118.577 108.492 118.413L101.137 114.195C100.677 113.931 100.393 113.441 100.393 112.911C100.393 112.428 99.9004 112.365 99.9004 112.365C99.9004 112.365 101.236 111.564 101.401 111.508C101.501 111.474 101.531 111.304 101.531 111.304C101.531 111.304 102.828 110.521 102.873 110.507Z" fill="#44B790"/>
<path d="M100.797 112.254C100.904 111.773 101.15 111.417 101.51 111.304C101.898 111.181 102.339 111.365 102.724 111.755C102.904 111.115 103.259 110.647 103.761 110.489C104.849 110.146 106.208 111.381 106.798 113.248C106.833 113.361 106.865 113.474 106.894 113.586C107.475 113.763 108.066 114.457 108.362 115.395C108.495 115.817 108.551 116.233 108.539 116.606L108.601 116.642C109.061 116.906 109.345 117.395 109.345 117.926C109.345 119.064 108.115 119.776 107.128 119.21L99.7731 114.992C99.313 114.728 99.0293 114.238 99.0293 113.708C99.0293 112.738 99.9225 112.078 100.797 112.254Z" fill="#50C5A2"/>
<path d="M54.8522 98.2417C54.8522 98.2901 54.8496 98.3381 54.8446 98.3858C54.8358 98.4698 54.8196 98.5526 54.796 98.634C54.4755 99.7413 52.8212 100.585 50.8285 100.585C48.8339 100.585 47.1781 99.7396 46.86 98.6308C46.836 98.5474 46.8195 98.4624 46.8113 98.3764C46.807 98.3318 46.8047 98.287 46.8047 98.2418C46.8047 98.1966 46.807 98.1517 46.8113 98.1072C46.8195 98.021 46.836 97.9361 46.86 97.8526C46.8962 97.7266 46.9495 97.6038 47.0188 97.4854C47.028 97.4696 47.0376 97.4538 47.0474 97.4381C47.6104 96.5398 49.0908 95.8984 50.8285 95.8984C52.5661 95.8984 54.0464 96.5398 54.6095 97.4381C54.6192 97.4538 54.6288 97.4696 54.6381 97.4854C54.7069 97.6028 54.76 97.7244 54.7961 97.8494C54.8197 97.9307 54.8361 98.0133 54.8447 98.0974C54.8495 98.1451 54.8522 98.1932 54.8522 98.2417Z" fill="#F7D5E6"/>
<path d="M54.0514 98.2276C54.0514 98.2664 54.0494 98.3048 54.0453 98.343C54.0383 98.4103 54.0253 98.4766 54.0063 98.5417C53.7497 99.4283 52.425 100.104 50.8294 100.104C49.2323 100.104 47.9065 99.427 47.6517 98.5392C47.6326 98.4724 47.6193 98.4044 47.6127 98.3355C47.6093 98.2998 47.6074 98.2638 47.6074 98.2277C47.6074 98.1916 47.6092 98.1557 47.6127 98.12C47.6193 98.0511 47.6325 97.983 47.6517 97.9162C47.6807 97.8152 47.7235 97.7169 47.779 97.6222C47.7863 97.6095 47.794 97.5969 47.8018 97.5844C48.2526 96.865 49.438 96.3516 50.8294 96.3516C52.2208 96.3516 53.4061 96.8651 53.8569 97.5844C53.8647 97.5969 53.8724 97.6095 53.8798 97.6222C53.9348 97.7162 53.9774 97.8136 54.0062 97.9137C54.0252 97.9788 54.0382 98.045 54.0452 98.1122C54.0494 98.1503 54.0514 98.1888 54.0514 98.2276Z" fill="#429CD0"/>
<path d="M54.0514 97.5871C54.0514 97.6259 54.0494 97.6643 54.0453 97.7025C54.0383 97.7698 54.0253 97.836 54.0063 97.9012C53.7497 98.7878 52.425 99.4633 50.8294 99.4633C49.2323 99.4633 47.9065 98.7865 47.6517 97.8987C47.6326 97.8319 47.6193 97.7639 47.6127 97.6948C47.6093 97.6592 47.6074 97.6232 47.6074 97.5871C47.6074 97.551 47.6092 97.515 47.6127 97.4794C47.6193 97.4105 47.6325 97.3424 47.6517 97.2757C47.6807 97.1747 47.7235 97.0764 47.779 96.9817C47.7863 96.969 47.794 96.9564 47.8018 96.9438C48.2526 96.2245 49.438 95.7109 50.8294 95.7109C52.2208 95.7109 53.4061 96.2245 53.8569 96.9438C53.8647 96.9564 53.8724 96.969 53.8798 96.9817C53.9348 97.0757 53.9774 97.173 54.0062 97.2732C54.0252 97.3383 54.0382 97.4045 54.0452 97.4718C54.0494 97.5098 54.0514 97.5483 54.0514 97.5871Z" fill="#4182CE"/>
<path d="M51.5149 79.1406H50.2402V97.6226H51.5149V79.1406Z" fill="#429CD0"/>
<path d="M50.8588 83.0703L39.5527 80.5578L34.8867 73.9177L39.5527 66.9187L50.8588 64.4062V83.0703Z" fill="#E2CCD6"/>
<path d="M50.791 83.0703L62.0971 80.5578L66.7631 73.9177L62.0971 66.9187L50.791 64.4062V83.0703Z" fill="#795FB2"/>
<path d="M50.8588 82.5098L39.5527 79.9974L34.8867 73.3573L39.5527 66.3582L50.8588 63.8457V82.5098Z" fill="#50B3FF"/>
<path d="M50.8589 63.8457L39.5527 79.9974L50.8589 82.5098V63.8457Z" fill="white"/>
<path d="M50.8588 63.8457L34.8867 73.3552L39.5527 66.3582L50.8588 63.8457Z" fill="white"/>
<path d="M50.791 82.5098L62.0971 79.9974L66.7631 73.3573L62.0971 66.3582L50.791 63.8457V82.5098Z" fill="white"/>
<path d="M50.791 63.8457L62.0971 79.9974L50.791 82.5098V63.8457Z" fill="#9874D4"/>
<path d="M50.791 63.8457L66.7631 73.3552L62.0971 66.3582L50.791 63.8457Z" fill="#FF4C91"/>
<path d="M39.5267 79.8717V80.5128L34.8789 73.9419V73.3008L39.5267 79.8717Z" fill="#36A3C0"/>
<path d="M66.7707 73.3008V73.9419L62.123 80.5128V79.8717L66.7707 73.3008Z" fill="#E2CCD6"/>
<path d="M88.7412 92.5058L80.6756 106.362L56.4789 120.218L40.3477 110.912L64.5445 97.0556L72.4032 83.1992L88.7412 92.5058Z" fill="#F7D5E6"/>
<path d="M76.0635 81.0723C75.9013 83.9353 80.0766 89.7521 76.8088 95.7792C73.541 101.806 60.0535 109.224 56.6815 109.224C53.3096 109.224 50.9493 106.864 51.9609 104.167C52.9724 101.469 64.6753 94.2099 64.8932 94.1304C65.1112 94.0508 68.4831 87.6443 68.8202 87.3071C69.1575 86.9699 72.1921 82.2493 72.1921 82.2493L76.0635 81.0723Z" fill="#F7D5E6"/>
<path d="M70.8229 83.1807L67.1326 88.2421L67.0144 88.4855L65.1817 92.2512L61.7668 94.0982C61.7562 94.1053 61.7491 94.1089 61.7381 94.1161L60.915 94.56C60.915 94.56 60.7575 96.2208 60.2849 95.4799C59.655 96.3997 58.2626 96.9404 57.9941 96.2423C57.7257 95.5478 58.8032 94.5135 58.8032 94.5135L63.4781 90.6726C63.4781 90.6726 67.5012 83.0804 70.8229 83.1807Z" fill="#FF9F8F"/>
<path d="M67.0152 88.4863L65.1825 92.252L61.7676 94.099C64.291 92.6387 65.2541 90.2618 67.0152 88.4863Z" fill="#F4CAAB"/>
<path d="M46.1643 100.539C45.3484 101.04 45.8027 102.691 49.315 104.562C49.315 104.562 50.7603 104.036 52.7093 103.249C54.5527 102.504 58.4375 100.915 59.6056 100.338C61.9105 100.354 64.006 99.8532 65.611 99.2987C67.479 98.6532 68.6341 96.7844 68.3651 94.8264L68.1647 93.3632C64.6543 92.641 61.189 95.0541 57.9273 97.0539C54.747 98.4297 49.34 101.928 49.34 101.928C49.34 101.928 46.9799 100.04 46.1643 100.539Z" fill="#FF9F8F"/>
<path d="M59.5064 99.1329L52.709 103.249C54.5524 102.504 58.4372 100.915 59.6053 100.338C61.9102 100.354 64.0057 99.8528 65.6107 99.2983C66.3813 99.032 67.0307 98.5575 67.5087 97.9545C68.1893 97.0958 68.5228 95.9764 68.3648 94.8262C62.5896 99.2809 59.5064 99.1329 59.5064 99.1329Z" fill="#F4CAAB"/>
<path d="M48.3127 104.119C47.4968 104.62 47.9511 106.271 51.4634 108.142C51.4634 108.142 54.6985 106.9 56.6475 106.113C58.491 105.368 60.586 104.495 61.7541 103.918C64.0589 103.934 66.1544 103.433 67.7595 102.879C69.6274 102.233 70.7825 100.364 70.5135 98.4065L70.3132 96.9433C66.8027 96.221 63.3373 98.6342 60.0758 100.634C56.8955 102.01 51.4885 105.508 51.4885 105.508C51.4885 105.508 49.1283 103.62 48.3127 104.119Z" fill="#FF9F8F"/>
<path d="M61.656 102.713L56.6484 106.113C58.4919 105.368 60.5869 104.495 61.755 103.918C64.0598 103.934 66.1553 103.433 67.7604 102.878C68.531 102.612 69.1803 102.138 69.6583 101.535C70.339 100.676 70.6724 99.5565 70.5144 98.4062C64.7394 102.861 61.656 102.713 61.656 102.713Z" fill="#F4CAAB"/>
<path d="M73.0264 82.2787L78.3243 80.2734C78.0969 84.1943 74.3092 85.3917 76.4199 89.6205C78.5306 93.8494 65.0968 91.5384 73.0264 82.2787Z" fill="#8E4539"/>
<path d="M63.0332 94.473C64.2947 97.3239 68.4641 98.8221 70.4714 99.3916C70.7216 99.4642 71.2489 96.3018 72.293 94.4677C72.36 94.3493 72.4285 94.2315 72.4996 94.1151C72.5945 93.9542 72.692 93.7946 72.7916 93.6378C73.2525 92.9085 73.7402 92.2248 74.2043 91.6095C74.439 91.2963 74.6691 91.0031 74.8843 90.7296C75.8012 89.5734 76.4927 89.8615 76.4597 89.68C76.3938 89.3069 76.246 87.8739 76.0211 87.5533L75.4897 86.7952L75.2278 86.4223L72.5979 82.6738C71.2618 82.545 69.1454 84.0332 67.8612 85.5256C67.0286 86.497 66.5457 87.4709 66.8596 88.004L66.861 88.0047C66.861 88.0047 66.861 88.0047 66.8616 88.0067C66.8719 88.0237 66.885 88.0422 66.8953 88.0592C66.7882 88.3382 66.6782 88.6296 66.5662 88.9218C66.268 89.694 65.957 90.4649 65.6537 91.0167C64.8677 92.4488 64.0777 93.024 63.1226 94.3505L63.0332 94.473Z" fill="#FF9F8F"/>
<path d="M66.5981 86.7782C66.3369 87.4104 66.2425 88.0874 66.4892 88.7389C66.5121 88.7996 66.5377 88.8616 66.5672 88.9223C66.5948 88.9802 66.6264 89.0401 66.6609 89.098L66.6623 89.0986C66.6623 89.0986 66.6623 89.0986 66.6629 89.1007C66.674 89.1129 66.7488 89.2061 66.8866 89.3372C67.1829 89.6199 67.7655 90.0746 68.587 90.2524C68.6985 90.4472 68.8354 90.6459 68.9865 90.8466C68.9872 90.8487 68.9893 90.8514 68.992 90.8528C69.295 91.2494 69.6635 91.6511 70.0545 92.0351C70.0943 92.0752 70.1355 92.1159 70.1773 92.1554C71.0279 92.9775 71.9551 93.7064 72.5005 94.1156C72.5954 93.9547 72.693 93.7952 72.7925 93.6384C72.0539 93.0861 71.806 92.3539 71.806 92.3539L71.808 92.3532C71.8115 92.3499 71.8196 92.3402 71.8339 92.3285C71.9549 92.2146 72.4415 91.7194 72.7035 90.9514C72.8772 90.4378 72.9513 89.8017 72.7479 89.0763C72.7465 89.0756 72.7465 89.0756 72.7465 89.0756C72.7458 89.0736 72.7465 89.0723 72.7465 89.0723L75.5356 86.8743L75.4908 86.7959L75.2602 86.3975L75.2289 86.423L72.3358 88.8694C71.5822 88.3267 69.7399 88.6086 69.7399 88.6086C69.7399 88.6086 69.742 88.6011 69.7452 88.584C69.7459 88.5827 69.7459 88.5827 69.7465 88.5813C69.7465 88.5779 69.748 88.5751 69.7485 88.5703C69.7886 88.3892 69.9418 87.5794 69.6973 86.837C69.556 86.4062 69.2796 85.997 68.7705 85.7455C68.7705 85.7455 68.7705 85.7455 68.7724 85.7448C68.8356 85.6893 70.9004 83.9507 72.1224 83.4528C72.2675 83.3934 72.3998 83.3531 72.5145 83.3382L71.8301 83C71.7551 83.0311 71.6781 83.0663 71.6019 83.1035C70.138 83.8089 68.36 85.5426 68.36 85.5426C68.347 85.5345 68.334 85.5264 68.321 85.5183C68.3004 85.5047 68.2798 85.4912 68.2599 85.4796C68.1867 85.4349 68.0387 85.4588 67.8621 85.5265C67.4873 85.6716 66.9884 86.0126 66.8374 86.2838C66.8165 86.3228 66.7955 86.3618 66.7765 86.4001C66.7103 86.5237 66.6514 86.6496 66.5981 86.7782Z" fill="#FEDF43"/>
<path d="M66.4883 88.7382C66.5339 88.8596 66.5905 88.9795 66.6599 89.0973L66.6613 89.0979C66.6613 89.0979 66.6613 89.0979 66.662 89.1C66.673 89.1122 66.7478 89.2054 66.8857 89.3365C67.1819 89.6192 67.7645 90.0739 68.5861 90.2517C68.5861 90.2517 69.2685 89.591 69.7478 88.5693C69.7879 88.3882 69.9411 87.5784 69.6966 86.8359C69.7207 89.2064 68.0789 90.5647 66.4883 88.7382Z" fill="#F4CAAB"/>
<path d="M68.7246 90.3188C68.7246 90.3188 68.8097 90.543 68.9872 90.8454C68.9879 90.8474 68.99 90.8501 68.9927 90.8515C69.2088 91.2205 69.56 91.7023 70.0553 92.0338C70.5135 92.3403 71.0954 92.5172 71.8067 92.3527L71.8088 92.352C71.8122 92.3487 71.8204 92.339 71.8347 92.3273C71.9556 92.2134 72.4423 91.7182 72.7042 90.9502C72.8779 90.4366 72.952 89.8005 72.7486 89.0751C72.7493 89.0737 72.7472 89.0744 72.7472 89.0744C72.7504 89.1646 72.7975 91.3301 71.4622 91.6717C70.0982 92.0193 68.7246 90.3188 68.7246 90.3188Z" fill="#F4CAAB"/>
<path d="M71.5996 84.6155C71.5996 84.6155 73.1091 86.034 74.3011 85.5655L76.5242 81.0664L73.5268 82.0972L73.053 82.2599L71.9038 84.1239L71.5996 84.6155Z" fill="#FF9F8F"/>
<path d="M71.9043 84.1242C72.595 84.2186 73.7597 84.0329 75.173 82.4374L73.5272 82.0977L73.0534 82.2603L71.9043 84.1242Z" fill="#F4CAAB"/>
<path d="M74.0941 77.1074C74.0941 77.1074 69.2359 81.6589 71.5661 82.926C73.8962 84.1932 76.4716 82.3358 76.4716 82.3358L76.6666 79.3972L74.0941 77.1074Z" fill="#FF9F8F"/>
<path d="M77.8754 79.0081C79.6401 82.2136 75.8299 82.7186 75.8299 82.7186L75.3763 82.2692C74.9792 81.607 75.348 80.8998 75.348 80.8998C73.0819 80.7887 73.488 78.8987 72.2383 79.145C72.8352 76.4707 76.1106 75.8026 77.8754 79.0081Z" fill="#8E4539"/>
<path d="M75.4825 81.7268C74.9837 81.8846 74.6736 82.3109 74.7901 82.6788C74.9065 83.0469 75.4053 83.2172 75.9042 83.0594C76.403 82.9015 76.713 82.4753 76.5965 82.1073C76.4801 81.7394 75.9814 81.569 75.4825 81.7268Z" fill="#FF9F8F"/>
<path d="M63.5997 93.7285C65.5394 95.4739 65.6739 97.1636 70.7969 98.6454C70.5507 101.559 69.27 101.959 69.27 101.959C69.27 101.959 70.1928 100.485 69.8348 99.4113C69.4769 98.3375 64.8236 97.9796 64.8236 97.9796C64.8236 97.9796 64.3555 97.6441 64.4106 97.4539C64.4656 96.1899 63.3809 94.0066 63.3809 94.0066L63.5997 93.7285Z" fill="#FEDF43"/>
<path d="M76.3099 88.4453C76.6356 92.2522 75.2037 96.9056 75.2037 96.9056L72.698 102.991L70.9082 102.275L72.34 96.1897L72.6979 91.1785" fill="#FF9F8F"/>
<path d="M72.6989 101.916H71.6251C69.1194 102.632 70.5513 103.348 70.5513 103.348C70.5513 103.348 69.4775 104.064 70.1933 105.496C70.9091 106.927 73.4148 105.138 72.6989 101.916Z" fill="#FF9F8F"/>
<path d="M56.9925 114.348L81.1297 100.614L89.2795 86.4044L88.2031 85.7871L80.2217 99.7032L56.3789 113.269L56.9925 114.348Z" fill="#FAB433"/>
<path d="M46.3435 109.302L46.8403 102.098C47.0328 99.3076 48.6055 96.8278 51.0472 95.4642L56.9247 92.1818C60.1305 90.392 64.182 90.9546 66.7783 93.5507L69.2757 96.0482L70.1531 95.1708L67.6556 92.6734C64.6692 89.6867 60.0075 89.039 56.3197 91.0984L50.4422 94.3807C47.633 95.9493 45.8238 98.8024 45.6023 102.013L45.1055 109.216L46.3435 109.302Z" fill="#FAB433"/>
<path d="M88.7412 86.0955L80.6756 99.9517L56.4789 113.808L40.3477 104.502L64.5445 90.6453L72.4032 76.7891L88.7412 86.0955Z" fill="#FC4D91"/>
<path d="M66.4057 91.6785L74.2645 77.8223L76.229 78.9413L68.3305 92.8674L44.202 106.685L42.209 105.535L66.4057 91.6785Z" fill="#FFE6F1"/>
<path d="M77.7802 79.8223L79.7447 80.9412L71.8462 94.8673L47.7176 108.685L45.7246 107.535L69.9213 93.6785L77.7802 79.8223Z" fill="#FFE6F1"/>
<path d="M81.2958 81.8203L83.2603 82.9392L75.3618 96.8654L51.2331 110.683L49.2402 109.533L73.4369 95.6766L81.2958 81.8203Z" fill="#FFE6F1"/>
<path d="M84.8114 83.8203L86.7759 84.9392L78.8774 98.8654L54.7487 112.683L52.7559 111.533L76.9526 97.6766L84.8114 83.8203Z" fill="#FFE6F1"/>
<path d="M61.2341 118.194L61.731 110.99C61.9234 108.2 63.4962 105.72 65.9378 104.357L71.8154 101.074C75.0209 99.2845 79.0729 99.8472 81.6689 102.443L84.1664 104.941L85.0437 104.063L82.5463 101.566C79.5596 98.5791 74.8983 97.9318 71.2103 99.991L65.3328 103.273C62.5237 104.842 60.7145 107.695 60.493 110.905L59.9961 118.109L61.2341 118.194Z" fill="#FAB433"/>
<path d="M69.0586 115.995L79.8697 110.035L90.5423 115.995L79.8697 122.232L69.0586 115.995Z" fill="#F7D5E6"/>
<path d="M69.8071 106.863V116.344L69.0586 115.845V106.863H69.8071Z" fill="#61BAE3"/>
<path d="M69.8086 106.863V116.344L70.5571 115.845V106.863H69.8086Z" fill="#36A3C0"/>
<path d="M79.805 112.195V121.676L79.0566 121.177V112.195H79.805Z" fill="#61BAE3"/>
<path d="M79.8047 112.195V121.676L80.5532 121.177V112.195H79.8047Z" fill="#36A3C0"/>
<path d="M89.7954 106.42V115.9L89.0469 115.401V106.42H89.7954Z" fill="#36A3C0"/>
<path d="M69.0586 107.169V105.644L79.8697 101.209L90.5423 105.644V107.169L79.8697 113.406L69.0586 107.169Z" fill="#36A3C0"/>
<path d="M69.0586 105.644L79.8697 99.6836L90.5423 105.644L79.8697 111.881L69.0586 105.644Z" fill="#61BAE3"/>
<path d="M89.7949 106.42V115.9L90.5434 115.401V106.42H89.7949Z" fill="#61BAE3"/>
<path d="M78.8731 107.502C80.271 107.502 81.4043 106.784 81.4043 105.899C81.4043 105.013 80.271 104.295 78.8731 104.295C77.4751 104.295 76.3418 105.013 76.3418 105.899C76.3418 106.784 77.4751 107.502 78.8731 107.502Z" fill="#F7D5E6"/>
<path d="M80.4727 105.84C80.4727 106.199 80.1792 106.514 79.7365 106.695C79.4864 106.797 79.1885 106.856 78.8688 106.856C77.9836 106.856 77.2656 106.401 77.2656 105.84C77.2656 105.835 77.2656 105.829 77.2663 105.824C77.2794 105.27 77.9917 104.824 78.8688 104.824C79.1541 104.824 79.4218 104.871 79.6538 104.954C80.136 105.126 80.4632 105.451 80.472 105.824C80.4727 105.829 80.4727 105.835 80.4727 105.84Z" fill="#4AAA80"/>
<path d="M79.3786 103.399V104.156C79.3786 104.188 79.3755 104.219 79.3692 104.249C79.3517 104.33 79.3121 104.403 79.2569 104.461C79.1761 104.547 79.0607 104.6 78.9335 104.6C78.7128 104.6 78.529 104.44 78.4946 104.229C78.4901 104.205 78.4883 104.181 78.4883 104.156V103.398H79.3786V103.399Z" fill="#4AAA80"/>
<path d="M80.4727 105.603V105.824H77.2656V105.603C77.2656 104.892 77.8036 104.305 78.4952 104.229C78.5453 104.224 78.5961 104.221 78.6482 104.221H79.0902C79.1861 104.221 79.2795 104.231 79.3699 104.249C79.9993 104.379 80.4727 104.935 80.4727 105.603Z" fill="#4AAA80"/>
<g opacity="0.17">
<path d="M80.4716 105.823H80.471C80.4716 105.828 80.4716 105.834 80.4716 105.839C80.4716 106.198 80.1782 106.513 79.7355 106.694C79.7405 106.551 79.7499 106.188 79.7418 105.823C79.7348 105.469 79.7116 105.113 79.6527 104.953C79.5856 104.773 79.4144 104.595 79.2564 104.461C79.0871 104.316 78.9329 104.22 78.9329 104.22C78.9329 104.22 78.941 104.143 78.9329 103.999C78.9266 103.892 78.6827 103.822 78.5586 103.793C78.9379 103.857 79.3781 103.756 79.3781 103.756V104.155C79.3781 104.187 79.3749 104.218 79.3686 104.248C79.9982 104.378 80.4715 104.935 80.4715 105.602V105.823H80.4716Z" fill="#15A0FF"/>
</g>
<path d="M81.4058 99.1641V101.27C81.4058 101.824 81.2279 102.337 80.9267 102.755C80.8267 102.893 80.7131 103.021 80.5887 103.136C80.2556 103.443 79.8398 103.663 79.3785 103.757C79.2347 103.786 79.087 103.803 78.935 103.807C78.9129 103.808 78.8907 103.808 78.8679 103.808C78.7387 103.808 78.6122 103.799 78.4878 103.78C77.2672 103.597 76.3301 102.542 76.3301 101.27V99.1642L81.4058 99.1641Z" fill="#4AAA80"/>
<g opacity="0.09">
<path d="M81.4063 99.1641V101.27C81.4063 101.824 81.2284 102.337 80.9272 102.755C80.8272 102.893 80.7136 103.021 80.5892 103.136C80.2561 103.443 79.8403 103.663 79.379 103.757C79.2352 103.786 79.0875 103.803 78.9355 103.807C80.0257 103.417 79.6662 102.596 79.7192 100.59C79.7192 100.59 80.4849 99.8423 81.2193 99.1642L81.4063 99.1641Z" fill="#15A0FF"/>
</g>
<path d="M78.8701 100.886C80.2719 100.886 81.4082 100.166 81.4082 99.2779C81.4082 98.3898 80.2719 97.6699 78.8701 97.6699C77.4684 97.6699 76.332 98.3898 76.332 99.2779C76.332 100.166 77.4684 100.886 78.8701 100.886Z" fill="#FFECC7"/>
<path d="M78.8694 100.845C80.2535 100.845 81.3755 100.134 81.3755 99.2576C81.3755 98.3808 80.2535 97.6699 78.8694 97.6699C77.4853 97.6699 76.3633 98.3808 76.3633 99.2576C76.3633 100.134 77.4853 100.845 78.8694 100.845Z" fill="#4EC8A4"/>
<path d="M78.8724 100.617C80.0963 100.617 81.0885 99.988 81.0885 99.2126C81.0885 98.4372 80.0963 97.8086 78.8724 97.8086C77.6484 97.8086 76.6562 98.4372 76.6562 99.2126C76.6562 99.988 77.6484 100.617 78.8724 100.617Z" fill="#FEDF43"/>
<path d="M81.0885 99.213C81.0885 99.4018 81.0295 99.5817 80.9236 99.746C80.5925 99.235 79.7987 98.8745 78.8727 98.8745C77.9466 98.8745 77.1529 99.235 76.8218 99.746C76.7153 99.5817 76.6562 99.4018 76.6562 99.213C76.6562 98.4375 77.6488 97.8086 78.8727 97.8086C80.0965 97.8085 81.0885 98.4375 81.0885 99.213Z" fill="#4AAA80"/>
<path d="M82.0232 101.684C82.0232 101.684 82.0228 101.684 82.0228 101.684L82.023 101.684L81.8562 101.773L81.8319 101.787L81.6364 101.892L81.621 101.9C81.549 101.922 81.4733 101.932 81.3947 101.932H81.3903C81.3655 101.931 81.3403 101.93 81.315 101.927C81.3041 101.927 81.2937 101.925 81.2829 101.924L81.1441 101.665L81.0702 101.527L81.0652 101.518L80.9457 101.295L80.9374 101.28L80.689 100.817L80.644 100.734L80.6355 100.718V99.9748L80.332 100.152L80.331 100.151L80.3109 100.113L80.0172 99.5658L79.9736 99.4846L79.9078 99.3622L79.8863 99.3221L79.7803 99.1241L79.7618 99.0894L79.6792 98.9356L79.5625 98.7183L79.5469 98.6896C79.6136 98.5633 79.705 98.4614 79.8203 98.3921L79.8776 98.3615L80.0423 98.273L80.1463 98.2171C80.1504 98.2149 80.1547 98.2126 80.1586 98.2103C80.717 97.9105 81.5874 98.445 82.1021 99.404C82.617 100.363 82.5817 101.384 82.0232 101.684Z" fill="#4AAA80"/>
<path d="M81.8507 101.771C81.8447 101.776 81.8385 101.781 81.8323 101.786C81.8028 101.809 81.7713 101.829 81.7381 101.847C81.7052 101.865 81.6715 101.879 81.6368 101.891C81.629 101.894 81.6212 101.896 81.6132 101.899C81.5435 101.92 81.4709 101.931 81.3951 101.931H81.3907C81.3622 101.931 81.3332 101.93 81.3041 101.927C81.2931 101.926 81.2827 101.924 81.2718 101.923C81.0672 101.896 80.8491 101.802 80.636 101.652V99.9739L80.3324 100.152L79.8539 100.432L79.8522 100.429L79.8508 100.43L79.71 100.512C79.3766 99.8237 79.3214 99.1216 79.5347 98.6864C79.5393 98.6765 79.5442 98.6671 79.5494 98.6574C79.6168 98.5299 79.7091 98.4271 79.8254 98.3568C79.8354 98.3511 79.8451 98.3453 79.8554 98.3399C79.8644 98.3351 79.8739 98.3303 79.8834 98.3259C79.9343 98.3015 79.9877 98.2837 80.043 98.2721C80.6002 98.1553 81.3528 98.6784 81.818 99.5452C82.3008 100.445 82.3041 101.398 81.8507 101.771Z" fill="#4EC8A4"/>
<path d="M81.6919 99.6139C81.6522 99.5402 81.6104 99.4693 81.5664 99.4017L81.5648 99.399C81.5615 99.394 81.5584 99.3894 81.5551 99.3846C81.3056 99.0056 80.9935 98.7259 80.6893 98.5887C80.6817 98.5853 80.6743 98.5819 80.6668 98.5789C80.4216 98.474 80.183 98.4624 79.9877 98.5672C79.8466 98.6429 79.7439 98.7713 79.6796 98.9356C79.6757 98.9455 79.672 98.9553 79.6686 98.9654C79.664 98.978 79.6599 98.9909 79.656 99.0038C79.6312 99.0834 79.6145 99.1701 79.606 99.2626C79.6048 99.2755 79.6038 99.2887 79.603 99.3018C79.5821 99.6241 79.6578 100.009 79.8328 100.393C79.8359 100.399 79.839 100.406 79.8423 100.413C79.845 100.419 79.8476 100.425 79.8507 100.431L79.8521 100.43L79.8538 100.433L80.3323 100.152L80.6359 99.9746V101.421C80.6388 101.424 80.6414 101.426 80.6443 101.428C80.6517 101.433 80.6593 101.438 80.6667 101.444C80.8027 101.539 80.9407 101.609 81.0751 101.648C81.088 101.651 81.101 101.655 81.1139 101.658C81.1242 101.661 81.1342 101.663 81.1444 101.665C81.2752 101.694 81.4014 101.692 81.5161 101.656C81.5233 101.654 81.5305 101.652 81.5375 101.649C81.5666 101.639 81.595 101.627 81.6223 101.612C81.8721 101.478 82.0025 101.18 82.0105 100.808C82.0107 100.799 82.0109 100.791 82.0107 100.782C82.0129 100.43 81.9076 100.016 81.6919 99.6139Z" fill="#FEDF43"/>
<path d="M82.0228 100.789L82.0109 100.808L81.9988 100.828L80.7385 100.025L81.558 101.639L81.5379 101.65L81.518 101.66L81.5165 101.657L80.6897 100.028V101.444H80.6447V99.97L80.6363 99.975L80.3328 100.153L79.8543 100.433L79.8526 100.43L79.8428 100.413L79.8314 100.394L79.8333 100.393L80.3116 100.113L80.6061 99.9406L80.0179 99.566L79.6035 99.3021L79.5879 99.2923L79.6065 99.2629L79.6121 99.2543L79.9744 99.4849L80.6242 99.8987L79.9602 98.5907L80.0002 98.5703L80.6447 99.8402V98.5792H80.6897V99.8918L81.5555 99.3849L81.5566 99.3843L81.5653 99.3993L81.5669 99.4019L81.5793 99.4228L80.6956 99.9402L80.6988 99.9461L82.0111 100.782L82.0228 100.789Z" fill="#D27855"/>
</svg>
