<svg width="440" height="168" viewBox="0 0 440 168" fill="none" xmlns="http://www.w3.org/2000/svg">
<rect x="150" width="290" height="110" rx="18" fill="#006DB7"/>
<path d="M94 122L205.5 86.026L173.5 62L94 122Z" fill="#006DB7"/>
<rect x="162" y="24" width="44" height="44" rx="22" fill="#F15B5B"/>
<path d="M191 39H188V38C188 37.2044 187.684 36.4413 187.121 35.8787C186.559 35.3161 185.796 35 185 35H183C182.204 35 181.441 35.3161 180.879 35.8787C180.316 36.4413 180 37.2044 180 38V39H177C175.674 39.0016 174.404 39.5289 173.466 40.4662C172.529 41.4036 172.002 42.6744 172 44V52C172.002 53.3256 172.529 54.5964 173.466 55.5338C174.404 56.4711 175.674 56.9984 177 57H191C192.326 56.9984 193.596 56.4711 194.534 55.5338C195.471 54.5964 195.998 53.3256 196 52V44C195.998 42.6744 195.471 41.4036 194.534 40.4662C193.596 39.5289 192.326 39.0016 191 39ZM182 38C182 37.7348 182.105 37.4804 182.293 37.2929C182.48 37.1054 182.735 37 183 37H185C185.265 37 185.52 37.1054 185.707 37.2929C185.895 37.4804 186 37.7348 186 38V39H182V38ZM194 52C194 52.7956 193.684 53.5587 193.121 54.1213C192.559 54.6839 191.796 55 191 55H177C176.204 55 175.441 54.6839 174.879 54.1213C174.316 53.5587 174 52.7956 174 52V44C174 43.2044 174.316 42.4413 174.879 41.8787C175.441 41.3161 176.204 41 177 41H191C191.796 41 192.559 41.3161 193.121 41.8787C193.684 42.4413 194 43.2044 194 44V52ZM188 48C188 48.2652 187.895 48.5196 187.707 48.7071C187.52 48.8946 187.265 49 187 49H185V51C185 51.2652 184.895 51.5196 184.707 51.7071C184.52 51.8946 184.265 52 184 52C183.735 52 183.48 51.8946 183.293 51.7071C183.105 51.5196 183 51.2652 183 51V49H181C180.735 49 180.48 48.8946 180.293 48.7071C180.105 48.5196 180 48.2652 180 48C180 47.7348 180.105 47.4804 180.293 47.2929C180.48 47.1054 180.735 47 181 47H183V45C183 44.7348 183.105 44.4804 183.293 44.2929C183.48 44.1054 183.735 44 184 44C184.265 44 184.52 44.1054 184.707 44.2929C184.895 44.4804 185 44.7348 185 45V47H187C187.265 47 187.52 47.1054 187.707 47.2929C187.895 47.4804 188 47.7348 188 48Z" fill="white"/>
<path d="M240.05 36.4709H236.597C236.499 35.9046 236.317 35.4029 236.053 34.9659C235.788 34.5227 235.459 34.1473 235.065 33.8395C234.671 33.5317 234.221 33.3009 233.717 33.147C233.218 32.987 232.679 32.907 232.101 32.907C231.073 32.907 230.162 33.1655 229.368 33.6825C228.574 34.1934 227.952 34.9444 227.503 35.9354C227.054 36.9202 226.829 38.1236 226.829 39.5455C226.829 40.992 227.054 42.2107 227.503 43.2017C227.958 44.1866 228.58 44.9313 229.368 45.4361C230.162 45.9347 231.07 46.1839 232.092 46.1839C232.658 46.1839 233.187 46.1101 233.68 45.9624C234.178 45.8085 234.625 45.5838 235.018 45.2884C235.419 44.9929 235.754 44.6297 236.025 44.1989C236.302 43.768 236.493 43.2756 236.597 42.7216L240.05 42.7401C239.921 43.6387 239.641 44.482 239.21 45.2699C238.786 46.0578 238.228 46.7533 237.539 47.3565C236.85 47.9536 236.043 48.4214 235.12 48.7599C234.197 49.0923 233.172 49.2585 232.045 49.2585C230.384 49.2585 228.9 48.8738 227.595 48.1044C226.29 47.335 225.262 46.224 224.511 44.7713C223.76 43.3187 223.385 41.5767 223.385 39.5455C223.385 37.508 223.763 35.7661 224.521 34.3196C225.278 32.867 226.309 31.7559 227.614 30.9865C228.919 30.2171 230.396 29.8324 232.045 29.8324C233.098 29.8324 234.077 29.9801 234.982 30.2756C235.886 30.571 236.693 31.005 237.401 31.5774C238.108 32.1437 238.69 32.8393 239.146 33.6641C239.607 34.4827 239.909 35.4183 240.05 36.4709ZM249.318 49.277C247.896 49.277 246.668 48.9815 245.634 48.3906C244.606 47.7936 243.815 46.9503 243.261 45.8608C242.707 44.7652 242.43 43.4756 242.43 41.9922C242.43 40.5334 242.707 39.2531 243.261 38.1513C243.821 37.0433 244.603 36.1816 245.606 35.5661C246.61 34.9444 247.788 34.6335 249.143 34.6335C250.017 34.6335 250.841 34.7751 251.617 35.0582C252.399 35.3352 253.088 35.7661 253.685 36.3509C254.288 36.9356 254.762 37.6804 255.107 38.5852C255.452 39.4839 255.624 40.5549 255.624 41.7983V42.8232H244V40.5703H252.42C252.414 39.9302 252.276 39.3608 252.005 38.8622C251.734 38.3575 251.355 37.9605 250.869 37.6712C250.389 37.3819 249.829 37.2372 249.189 37.2372C248.506 37.2372 247.905 37.4034 247.388 37.7358C246.871 38.062 246.468 38.4929 246.179 39.0284C245.896 39.5578 245.751 40.1394 245.745 40.7734V42.7401C245.745 43.5649 245.896 44.2727 246.197 44.8636C246.499 45.4484 246.921 45.8977 247.462 46.2116C248.004 46.5194 248.638 46.6733 249.364 46.6733C249.85 46.6733 250.291 46.6056 250.684 46.4702C251.078 46.3286 251.42 46.1224 251.709 45.8516C251.999 45.5807 252.217 45.2453 252.365 44.8452L255.486 45.196C255.289 46.0208 254.913 46.741 254.359 47.3565C253.811 47.9659 253.11 48.4399 252.254 48.7784C251.398 49.1108 250.42 49.277 249.318 49.277ZM261.794 40.6903V49H258.452V34.8182H261.646V37.228H261.812C262.139 36.4339 262.659 35.803 263.373 35.3352C264.093 34.8674 264.982 34.6335 266.041 34.6335C267.02 34.6335 267.872 34.8428 268.599 35.2614C269.331 35.6799 269.897 36.2862 270.298 37.0803C270.704 37.8743 270.904 38.8376 270.898 39.9702V49H267.555V40.4872C267.555 39.5393 267.309 38.7976 266.817 38.2621C266.33 37.7266 265.656 37.4588 264.795 37.4588C264.21 37.4588 263.69 37.5881 263.234 37.8466C262.785 38.099 262.431 38.4652 262.173 38.9453C261.92 39.4254 261.794 40.0071 261.794 40.6903ZM281.377 34.8182V37.4034H273.224V34.8182H281.377ZM275.237 31.4205H278.58V44.7344C278.58 45.1837 278.647 45.5284 278.783 45.7685C278.924 46.0024 279.109 46.1624 279.337 46.2486C279.564 46.3348 279.817 46.3778 280.094 46.3778C280.303 46.3778 280.494 46.3625 280.666 46.3317C280.845 46.3009 280.98 46.2732 281.072 46.2486L281.636 48.8615C281.457 48.9231 281.202 48.9908 280.869 49.0646C280.543 49.1385 280.143 49.1816 279.669 49.1939C278.832 49.2185 278.078 49.0923 277.407 48.8153C276.736 48.5322 276.204 48.0952 275.81 47.5043C275.422 46.9134 275.231 46.1747 275.237 45.2884V31.4205ZM284.172 49V34.8182H287.413V37.1818H287.561C287.819 36.3632 288.263 35.7322 288.89 35.2891C289.524 34.8397 290.248 34.6151 291.06 34.6151C291.245 34.6151 291.451 34.6243 291.679 34.6428C291.913 34.6551 292.107 34.6766 292.26 34.7074V37.782C292.119 37.7327 291.894 37.6896 291.586 37.6527C291.285 37.6096 290.992 37.5881 290.709 37.5881C290.1 37.5881 289.552 37.7204 289.066 37.9851C288.586 38.2436 288.207 38.6037 287.93 39.0653C287.653 39.527 287.515 40.0594 287.515 40.6626V49H284.172ZM300.083 49.277C298.698 49.277 297.498 48.9723 296.482 48.3629C295.467 47.7536 294.679 46.901 294.119 45.8054C293.565 44.7098 293.288 43.4295 293.288 41.9645C293.288 40.4995 293.565 39.2161 294.119 38.1143C294.679 37.0125 295.467 36.157 296.482 35.5476C297.498 34.9382 298.698 34.6335 300.083 34.6335C301.468 34.6335 302.668 34.9382 303.684 35.5476C304.7 36.157 305.484 37.0125 306.038 38.1143C306.598 39.2161 306.879 40.4995 306.879 41.9645C306.879 43.4295 306.598 44.7098 306.038 45.8054C305.484 46.901 304.7 47.7536 303.684 48.3629C302.668 48.9723 301.468 49.277 300.083 49.277ZM300.102 46.5994C300.853 46.5994 301.48 46.3932 301.985 45.9808C302.49 45.5623 302.865 45.0021 303.112 44.3004C303.364 43.5987 303.49 42.817 303.49 41.9553C303.49 41.0874 303.364 40.3026 303.112 39.6009C302.865 38.893 302.49 38.3298 301.985 37.9112C301.48 37.4927 300.853 37.2834 300.102 37.2834C299.332 37.2834 298.692 37.4927 298.181 37.9112C297.676 38.3298 297.298 38.893 297.045 39.6009C296.799 40.3026 296.676 41.0874 296.676 41.9553C296.676 42.817 296.799 43.5987 297.045 44.3004C297.298 45.0021 297.676 45.5623 298.181 45.9808C298.692 46.3932 299.332 46.5994 300.102 46.5994ZM316.312 30.0909H320.504L326.118 43.7926H326.339L331.953 30.0909H336.145V49H332.858V36.0092H332.682L327.456 48.9446H325.001L319.775 35.9815H319.599V49H316.312V30.0909ZM346.006 49.277C344.584 49.277 343.356 48.9815 342.322 48.3906C341.294 47.7936 340.503 46.9503 339.949 45.8608C339.395 44.7652 339.118 43.4756 339.118 41.9922C339.118 40.5334 339.395 39.2531 339.949 38.1513C340.509 37.0433 341.291 36.1816 342.294 35.5661C343.297 34.9444 344.476 34.6335 345.83 34.6335C346.704 34.6335 347.529 34.7751 348.305 35.0582C349.086 35.3352 349.776 35.7661 350.373 36.3509C350.976 36.9356 351.45 37.6804 351.795 38.5852C352.139 39.4839 352.312 40.5549 352.312 41.7983V42.8232H340.687V40.5703H349.108C349.102 39.9302 348.963 39.3608 348.692 38.8622C348.421 38.3575 348.043 37.9605 347.557 37.6712C347.077 37.3819 346.516 37.2372 345.876 37.2372C345.193 37.2372 344.593 37.4034 344.076 37.7358C343.559 38.062 343.156 38.4929 342.866 39.0284C342.583 39.5578 342.439 40.1394 342.432 40.7734V42.7401C342.432 43.5649 342.583 44.2727 342.885 44.8636C343.186 45.4484 343.608 45.8977 344.15 46.2116C344.691 46.5194 345.325 46.6733 346.052 46.6733C346.538 46.6733 346.978 46.6056 347.372 46.4702C347.766 46.3286 348.108 46.1224 348.397 45.8516C348.686 45.5807 348.905 45.2453 349.052 44.8452L352.173 45.196C351.976 46.0208 351.601 46.741 351.047 47.3565C350.499 47.9659 349.797 48.4399 348.942 48.7784C348.086 49.1108 347.107 49.277 346.006 49.277ZM344.454 32.9531L346.523 28.7337H349.791L346.956 32.9531H344.454ZM360.402 49.2493C359.288 49.2493 358.291 48.9631 357.411 48.3906C356.53 47.8182 355.835 46.9872 355.324 45.8977C354.813 44.8082 354.558 43.4848 354.558 41.9276C354.558 40.3518 354.816 39.0223 355.333 37.9389C355.856 36.8494 356.561 36.0277 357.447 35.4737C358.334 34.9136 359.322 34.6335 360.411 34.6335C361.242 34.6335 361.925 34.7751 362.461 35.0582C362.996 35.3352 363.421 35.6707 363.735 36.0646C364.049 36.4524 364.292 36.8187 364.464 37.1634H364.603V30.0909H367.955V49H364.668V46.7656H364.464C364.292 47.1103 364.043 47.4766 363.717 47.8643C363.39 48.246 362.96 48.5722 362.424 48.843C361.888 49.1139 361.214 49.2493 360.402 49.2493ZM361.335 46.5071C362.042 46.5071 362.646 46.3163 363.144 45.9347C363.643 45.5469 364.021 45.0083 364.28 44.3189C364.538 43.6295 364.668 42.8262 364.668 41.9091C364.668 40.992 364.538 40.1948 364.28 39.5178C364.027 38.8407 363.652 38.3144 363.153 37.9389C362.661 37.5634 362.055 37.3757 361.335 37.3757C360.59 37.3757 359.968 37.5696 359.469 37.9574C358.971 38.3452 358.595 38.8807 358.343 39.5639C358.091 40.2472 357.964 41.0289 357.964 41.9091C357.964 42.7955 358.091 43.5864 358.343 44.282C358.602 44.9714 358.98 45.5161 359.479 45.9162C359.983 46.3101 360.602 46.5071 361.335 46.5071ZM371.516 49V34.8182H374.858V49H371.516ZM373.197 32.8054C372.667 32.8054 372.212 32.63 371.83 32.2791C371.448 31.9221 371.258 31.4943 371.258 30.9957C371.258 30.491 371.448 30.0632 371.83 29.7124C372.212 29.3553 372.667 29.1768 373.197 29.1768C373.732 29.1768 374.188 29.3553 374.563 29.7124C374.945 30.0632 375.135 30.491 375.135 30.9957C375.135 31.4943 374.945 31.9221 374.563 32.2791C374.188 32.63 373.732 32.8054 373.197 32.8054ZM384.482 49.277C383.066 49.277 381.85 48.9661 380.835 48.3445C379.825 47.7228 379.046 46.8641 378.499 45.7685C377.957 44.6667 377.686 43.3987 377.686 41.9645C377.686 40.5241 377.963 39.2531 378.517 38.1513C379.071 37.0433 379.853 36.1816 380.862 35.5661C381.878 34.9444 383.078 34.6335 384.463 34.6335C385.614 34.6335 386.633 34.8459 387.519 35.2706C388.412 35.6892 389.123 36.2831 389.652 37.0526C390.181 37.8158 390.483 38.7083 390.557 39.7301H387.362C387.233 39.0469 386.925 38.4775 386.439 38.022C385.959 37.5604 385.316 37.3295 384.509 37.3295C383.826 37.3295 383.226 37.5142 382.709 37.8835C382.192 38.2467 381.789 38.7699 381.499 39.4531C381.216 40.1364 381.075 40.955 381.075 41.9091C381.075 42.8755 381.216 43.7064 381.499 44.402C381.782 45.0914 382.179 45.6238 382.69 45.9993C383.207 46.3686 383.814 46.5533 384.509 46.5533C385.002 46.5533 385.442 46.4609 385.83 46.2763C386.223 46.0855 386.553 45.8116 386.817 45.4545C387.082 45.0975 387.264 44.6636 387.362 44.1527H390.557C390.477 45.156 390.181 46.0455 389.67 46.821C389.16 47.5904 388.464 48.1937 387.584 48.6307C386.704 49.0616 385.67 49.277 384.482 49.277ZM399.487 49.277C398.102 49.277 396.902 48.9723 395.887 48.3629C394.871 47.7536 394.083 46.901 393.523 45.8054C392.969 44.7098 392.692 43.4295 392.692 41.9645C392.692 40.4995 392.969 39.2161 393.523 38.1143C394.083 37.0125 394.871 36.157 395.887 35.5476C396.902 34.9382 398.102 34.6335 399.487 34.6335C400.872 34.6335 402.073 34.9382 403.088 35.5476C404.104 36.157 404.889 37.0125 405.443 38.1143C406.003 39.2161 406.283 40.4995 406.283 41.9645C406.283 43.4295 406.003 44.7098 405.443 45.8054C404.889 46.901 404.104 47.7536 403.088 48.3629C402.073 48.9723 400.872 49.277 399.487 49.277ZM399.506 46.5994C400.257 46.5994 400.885 46.3932 401.389 45.9808C401.894 45.5623 402.27 45.0021 402.516 44.3004C402.768 43.5987 402.894 42.817 402.894 41.9553C402.894 41.0874 402.768 40.3026 402.516 39.6009C402.27 38.893 401.894 38.3298 401.389 37.9112C400.885 37.4927 400.257 37.2834 399.506 37.2834C398.736 37.2834 398.096 37.4927 397.585 37.9112C397.081 38.3298 396.702 38.893 396.45 39.6009C396.204 40.3026 396.08 41.0874 396.08 41.9553C396.08 42.817 396.204 43.5987 396.45 44.3004C396.702 45.0021 397.081 45.5623 397.585 45.9808C398.096 46.3932 398.736 46.5994 399.506 46.5994ZM234.141 66.2891C234.055 65.4827 233.692 64.8549 233.052 64.4055C232.418 63.9562 231.593 63.7315 230.577 63.7315C229.863 63.7315 229.251 63.8393 228.74 64.0547C228.229 64.2701 227.838 64.5625 227.567 64.9318C227.297 65.3011 227.158 65.7228 227.152 66.1967C227.152 66.5907 227.241 66.9323 227.42 67.2216C227.604 67.5109 227.854 67.7571 228.168 67.9602C228.482 68.1572 228.829 68.3234 229.211 68.4588C229.593 68.5942 229.977 68.7081 230.365 68.8004L232.138 69.2436C232.852 69.4098 233.538 69.6345 234.197 69.9176C234.862 70.2008 235.455 70.5578 235.979 70.9886C236.508 71.4195 236.927 71.9396 237.234 72.549C237.542 73.1584 237.696 73.8724 237.696 74.6911C237.696 75.799 237.413 76.7746 236.847 77.6179C236.28 78.455 235.462 79.1106 234.391 79.5845C233.326 80.0523 232.036 80.2862 230.522 80.2862C229.051 80.2862 227.774 80.0585 226.69 79.603C225.613 79.1475 224.77 78.4827 224.161 77.6087C223.557 76.7346 223.231 75.6697 223.182 74.4141H226.552C226.601 75.0727 226.804 75.6205 227.161 76.0575C227.518 76.4946 227.983 76.8208 228.555 77.0362C229.134 77.2517 229.78 77.3594 230.494 77.3594C231.239 77.3594 231.892 77.2486 232.452 77.027C233.018 76.7992 233.461 76.4853 233.781 76.0852C234.101 75.679 234.264 75.205 234.271 74.6634C234.264 74.1709 234.12 73.7647 233.837 73.4446C233.554 73.1184 233.156 72.8475 232.646 72.6321C232.141 72.4105 231.55 72.2135 230.873 72.0412L228.722 71.4872C227.164 71.0871 225.933 70.4808 225.028 69.6683C224.13 68.8497 223.68 67.7633 223.68 66.4091C223.68 65.295 223.982 64.3194 224.585 63.4822C225.195 62.6451 226.022 61.9957 227.069 61.5341C228.115 61.0663 229.3 60.8324 230.624 60.8324C231.965 60.8324 233.141 61.0663 234.151 61.5341C235.166 61.9957 235.963 62.639 236.542 63.4638C237.121 64.2824 237.419 65.2242 237.438 66.2891H234.141ZM244.683 80.2862C243.784 80.2862 242.975 80.1262 242.255 79.8061C241.541 79.4799 240.974 78.9998 240.556 78.3658C240.144 77.7318 239.937 76.95 239.937 76.0206C239.937 75.2204 240.085 74.5587 240.381 74.0355C240.676 73.5123 241.079 73.0938 241.59 72.7798C242.101 72.4659 242.676 72.2289 243.317 72.0689C243.963 71.9027 244.631 71.7827 245.32 71.7088C246.151 71.6226 246.825 71.5457 247.342 71.478C247.859 71.4041 248.235 71.2933 248.469 71.1456C248.709 70.9917 248.829 70.7547 248.829 70.4347V70.3793C248.829 69.6837 248.622 69.1451 248.21 68.7635C247.798 68.3819 247.204 68.1911 246.428 68.1911C245.609 68.1911 244.96 68.3696 244.48 68.7266C244.006 69.0836 243.686 69.5052 243.52 69.9915L240.399 69.5483C240.645 68.6866 241.051 67.9664 241.618 67.3878C242.184 66.803 242.876 66.366 243.695 66.0767C244.514 65.7812 245.419 65.6335 246.41 65.6335C247.093 65.6335 247.773 65.7135 248.45 65.8736C249.127 66.0336 249.746 66.2983 250.306 66.6676C250.866 67.0308 251.315 67.5263 251.654 68.1541C251.999 68.782 252.171 69.5668 252.171 70.5085V80H248.958V78.0518H248.847C248.644 78.4458 248.358 78.8151 247.988 79.1598C247.625 79.4983 247.167 79.7723 246.613 79.9815C246.065 80.1847 245.422 80.2862 244.683 80.2862ZM245.551 77.8303C246.222 77.8303 246.804 77.6979 247.296 77.4332C247.788 77.1624 248.167 76.8054 248.432 76.3622C248.702 75.919 248.838 75.4358 248.838 74.9126V73.2415C248.733 73.3277 248.555 73.4077 248.302 73.4815C248.056 73.5554 247.779 73.62 247.471 73.6754C247.164 73.7308 246.859 73.7801 246.557 73.8232C246.256 73.8662 245.994 73.9032 245.773 73.9339C245.274 74.0017 244.828 74.1125 244.434 74.2663C244.04 74.4202 243.729 74.6357 243.501 74.9126C243.273 75.1835 243.16 75.5343 243.16 75.9652C243.16 76.5807 243.384 77.0455 243.834 77.3594C244.283 77.6733 244.855 77.8303 245.551 77.8303ZM258.874 71.6903V80H255.532V65.8182H258.726V68.228H258.893C259.219 67.4339 259.739 66.803 260.453 66.3352C261.173 65.8674 262.063 65.6335 263.121 65.6335C264.1 65.6335 264.952 65.8428 265.679 66.2614C266.411 66.6799 266.978 67.2862 267.378 68.0803C267.784 68.8743 267.984 69.8376 267.978 70.9702V80H264.635V71.4872C264.635 70.5393 264.389 69.7976 263.897 69.2621C263.411 68.7266 262.737 68.4588 261.875 68.4588C261.29 68.4588 260.77 68.5881 260.314 68.8466C259.865 69.099 259.511 69.4652 259.253 69.9453C259 70.4254 258.874 71.0071 258.874 71.6903ZM277.972 80V61.0909H285.211C286.578 61.0909 287.713 61.3063 288.618 61.7372C289.529 62.1619 290.209 62.7436 290.659 63.4822C291.114 64.2209 291.342 65.058 291.342 65.9936C291.342 66.763 291.194 67.4216 290.899 67.9695C290.603 68.5111 290.206 68.9512 289.708 69.2898C289.209 69.6283 288.652 69.8714 288.036 70.0192V70.2038C288.707 70.2408 289.351 70.447 289.966 70.8224C290.588 71.1918 291.096 71.715 291.49 72.392C291.883 73.0691 292.08 73.8878 292.08 74.848C292.08 75.8267 291.843 76.7069 291.369 77.4886C290.896 78.2642 290.182 78.8767 289.227 79.326C288.273 79.7753 287.073 80 285.627 80H277.972ZM281.398 77.1378H285.082C286.325 77.1378 287.221 76.9008 287.769 76.4268C288.323 75.9467 288.6 75.3312 288.6 74.5803C288.6 74.0201 288.461 73.5154 288.184 73.0661C287.907 72.6106 287.513 72.2536 287.002 71.995C286.491 71.7304 285.882 71.598 285.174 71.598H281.398V77.1378ZM281.398 69.1328H284.786C285.377 69.1328 285.91 69.0251 286.384 68.8097C286.858 68.5881 287.23 68.2772 287.501 67.8771C287.778 67.4709 287.916 66.9908 287.916 66.4368C287.916 65.7043 287.658 65.1011 287.141 64.6271C286.63 64.1532 285.87 63.9162 284.86 63.9162H281.398V69.1328ZM298.994 80.2862C298.095 80.2862 297.286 80.1262 296.565 79.8061C295.851 79.4799 295.285 78.9998 294.866 78.3658C294.454 77.7318 294.248 76.95 294.248 76.0206C294.248 75.2204 294.396 74.5587 294.691 74.0355C294.987 73.5123 295.39 73.0938 295.901 72.7798C296.411 72.4659 296.987 72.2289 297.627 72.0689C298.273 71.9027 298.941 71.7827 299.631 71.7088C300.462 71.6226 301.136 71.5457 301.653 71.478C302.17 71.4041 302.545 71.2933 302.779 71.1456C303.019 70.9917 303.139 70.7547 303.139 70.4347V70.3793C303.139 69.6837 302.933 69.1451 302.521 68.7635C302.108 68.3819 301.514 68.1911 300.739 68.1911C299.92 68.1911 299.271 68.3696 298.79 68.7266C298.317 69.0836 297.996 69.5052 297.83 69.9915L294.71 69.5483C294.956 68.6866 295.362 67.9664 295.928 67.3878C296.495 66.803 297.187 66.366 298.006 66.0767C298.824 65.7812 299.729 65.6335 300.72 65.6335C301.403 65.6335 302.084 65.7135 302.761 65.8736C303.438 66.0336 304.056 66.2983 304.616 66.6676C305.177 67.0308 305.626 67.5263 305.964 68.1541C306.309 68.782 306.482 69.5668 306.482 70.5085V80H303.268V78.0518H303.158C302.955 78.4458 302.668 78.8151 302.299 79.1598C301.936 79.4983 301.477 79.7723 300.923 79.9815C300.375 80.1847 299.732 80.2862 298.994 80.2862ZM299.862 77.8303C300.532 77.8303 301.114 77.6979 301.607 77.4332C302.099 77.1624 302.478 76.8054 302.742 76.3622C303.013 75.919 303.148 75.4358 303.148 74.9126V73.2415C303.044 73.3277 302.865 73.4077 302.613 73.4815C302.367 73.5554 302.09 73.62 301.782 73.6754C301.474 73.7308 301.17 73.7801 300.868 73.8232C300.566 73.8662 300.305 73.9032 300.083 73.9339C299.585 74.0017 299.138 74.1125 298.744 74.2663C298.35 74.4202 298.04 74.6357 297.812 74.9126C297.584 75.1835 297.47 75.5343 297.47 75.9652C297.47 76.5807 297.695 77.0455 298.144 77.3594C298.594 77.6733 299.166 77.8303 299.862 77.8303ZM309.842 80V65.8182H313.083V68.1818H313.231C313.489 67.3632 313.933 66.7322 314.56 66.2891C315.194 65.8397 315.918 65.6151 316.73 65.6151C316.915 65.6151 317.121 65.6243 317.349 65.6428C317.583 65.6551 317.777 65.6766 317.93 65.7074V68.782C317.789 68.7327 317.564 68.6896 317.256 68.6527C316.955 68.6096 316.662 68.5881 316.379 68.5881C315.77 68.5881 315.222 68.7204 314.736 68.9851C314.256 69.2436 313.877 69.6037 313.6 70.0653C313.323 70.527 313.185 71.0594 313.185 71.6626V80H309.842ZM327.994 65.8182V68.4034H319.842V65.8182H327.994ZM321.854 62.4205H325.197V75.7344C325.197 76.1837 325.264 76.5284 325.4 76.7685C325.541 77.0024 325.726 77.1624 325.954 77.2486C326.182 77.3348 326.434 77.3778 326.711 77.3778C326.92 77.3778 327.111 77.3625 327.283 77.3317C327.462 77.3009 327.597 77.2732 327.69 77.2486L328.253 79.8615C328.074 79.9231 327.819 79.9908 327.487 80.0646C327.16 80.1385 326.76 80.1816 326.286 80.1939C325.449 80.2185 324.695 80.0923 324.024 79.8153C323.353 79.5322 322.821 79.0952 322.427 78.5043C322.039 77.9134 321.848 77.1747 321.854 76.2884V62.4205ZM336.823 80.277C335.438 80.277 334.238 79.9723 333.222 79.3629C332.207 78.7536 331.419 77.901 330.859 76.8054C330.305 75.7098 330.028 74.4295 330.028 72.9645C330.028 71.4995 330.305 70.2161 330.859 69.1143C331.419 68.0125 332.207 67.157 333.222 66.5476C334.238 65.9382 335.438 65.6335 336.823 65.6335C338.208 65.6335 339.409 65.9382 340.424 66.5476C341.44 67.157 342.225 68.0125 342.779 69.1143C343.339 70.2161 343.619 71.4995 343.619 72.9645C343.619 74.4295 343.339 75.7098 342.779 76.8054C342.225 77.901 341.44 78.7536 340.424 79.3629C339.409 79.9723 338.208 80.277 336.823 80.277ZM336.842 77.5994C337.593 77.5994 338.221 77.3932 338.725 76.9808C339.23 76.5623 339.606 76.0021 339.852 75.3004C340.104 74.5987 340.23 73.817 340.23 72.9553C340.23 72.0874 340.104 71.3026 339.852 70.6009C339.606 69.893 339.23 69.3298 338.725 68.9112C338.221 68.4927 337.593 68.2834 336.842 68.2834C336.072 68.2834 335.432 68.4927 334.921 68.9112C334.417 69.3298 334.038 69.893 333.786 70.6009C333.539 71.3026 333.416 72.0874 333.416 72.9553C333.416 73.817 333.539 74.5987 333.786 75.3004C334.038 76.0021 334.417 76.5623 334.921 76.9808C335.432 77.3932 336.072 77.5994 336.842 77.5994ZM349.798 61.0909V80H346.456V61.0909H349.798ZM359.421 80.277C358.036 80.277 356.836 79.9723 355.82 79.3629C354.805 78.7536 354.017 77.901 353.456 76.8054C352.903 75.7098 352.626 74.4295 352.626 72.9645C352.626 71.4995 352.903 70.2161 353.456 69.1143C354.017 68.0125 354.805 67.157 355.82 66.5476C356.836 65.9382 358.036 65.6335 359.421 65.6335C360.806 65.6335 362.006 65.9382 363.022 66.5476C364.037 67.157 364.822 68.0125 365.376 69.1143C365.936 70.2161 366.216 71.4995 366.216 72.9645C366.216 74.4295 365.936 75.7098 365.376 76.8054C364.822 77.901 364.037 78.7536 363.022 79.3629C362.006 79.9723 360.806 80.277 359.421 80.277ZM359.439 77.5994C360.19 77.5994 360.818 77.3932 361.323 76.9808C361.828 76.5623 362.203 76.0021 362.449 75.3004C362.702 74.5987 362.828 73.817 362.828 72.9553C362.828 72.0874 362.702 71.3026 362.449 70.6009C362.203 69.893 361.828 69.3298 361.323 68.9112C360.818 68.4927 360.19 68.2834 359.439 68.2834C358.67 68.2834 358.03 68.4927 357.519 68.9112C357.014 69.3298 356.636 69.893 356.383 70.6009C356.137 71.3026 356.014 72.0874 356.014 72.9553C356.014 73.817 356.137 74.5987 356.383 75.3004C356.636 76.0021 357.014 76.5623 357.519 76.9808C358.03 77.3932 358.67 77.5994 359.439 77.5994Z" fill="white"/>
<g clip-path="url(#clip0_176_23909)">
<path d="M87 138.988L49.8688 114.07L0 143.084L37.1326 168L87 138.988Z" fill="#C4C443"/>
<path d="M34.5528 157.603L27.1551 161.948L7.94922 149.144L15.2851 144.759L8.61905 140.316L44.7011 118.744L77.917 141.269L41.8362 162.459L34.5528 157.603Z" fill="#807E89"/>
<path d="M44.6789 119.424L76.8402 141.235L41.8543 161.782L34.5709 156.927L27.1732 161.272L9.02047 149.171L16.3563 144.786L9.6903 140.343L44.6789 119.424ZM44.7179 118.064L44.0871 118.441L9.09983 139.358L7.54227 140.289L9.05141 141.295L14.2083 144.732L8.42865 148.187L6.87109 149.118L8.38023 150.123L26.5316 162.223L27.1315 162.623L27.7542 162.256L34.5305 158.277L41.2141 162.733L41.8139 163.132L42.4367 162.766L77.4239 142.219L78.9882 141.3L77.4871 140.282L45.3258 118.476L44.7179 118.064Z" fill="#EAE3E1"/>
<path opacity="0.4" d="M44.0664 158.164L55.549 157.107L83.4398 140.936L72.892 134.346L56.079 140.298L48.7727 143.025L47.0174 145.792L44.1189 151.694L44.0664 158.164Z" fill="#382C36"/>
<path d="M44.0676 158.089L15.3281 139.088V96.6152L44.0676 115.616V158.089Z" fill="#F4F5F7"/>
<path d="M44.0676 158.11L15.3281 139.109V136.207L44.0676 155.209V158.11Z" fill="#CAE2EF"/>
<path opacity="0.1" d="M38.8242 154.642L38.9399 134.156L41.7483 140.651V144.721L39.5774 143.388L39.5922 155.157L38.8242 154.642Z" fill="#382C36"/>
<path d="M44.0676 117.029L15.3281 97.9899V96.6152L44.0676 115.616V117.029Z" fill="#BDCAD3"/>
<path d="M44.0664 158.093L73.0332 141.264V98.791L44.0664 115.62V158.093Z" fill="#BDCAD3"/>
<path d="M37.8594 155.385L38.9004 154.63V138.607L37.8594 139.134V155.385Z" fill="#CACAC8"/>
<path d="M73.0353 98.7917L44.2958 79.791L15.3438 96.6151L44.0833 115.616L73.0353 98.7917Z" fill="#F99770"/>
<path d="M44.0676 121.528L15.3281 102.528V99.627L44.0676 118.626V121.528Z" fill="#CAE2EF"/>
<path d="M44.0703 121.535L73.0371 104.705V101.805L44.0703 118.633V121.535Z" fill="#4B7CA4"/>
<path d="M44.0703 158.115L73.0371 141.286V138.385L44.0703 155.214V158.115Z" fill="#4B7CA4" stroke="#4B7CA4" stroke-width="0.172131" stroke-miterlimit="10"/>
<path d="M73.753 98.7912V97.43L44.3316 79.3613L14.625 95.2534V96.6146L44.0478 116.044L73.753 98.7912Z" fill="#EBF2FA"/>
<path d="M44.3316 79.3613L44.0478 115.055L44.0195 116.397L44.0478 116.044L73.753 98.7912V97.43L44.3316 79.3613Z" fill="#CACAC8"/>
<path d="M73.753 97.4299L44.3316 78L14.625 95.2533L44.0478 114.684L73.753 97.4299Z" fill="white"/>
<path d="M71.344 97.4309L44.2105 79.4414L17.0312 95.253L44.1648 113.243L71.344 97.4309Z" fill="#D4D4D4"/>
<path d="M44.2105 79.4414L17.0312 95.253L18.8202 96.3782L44.2105 81.5872V79.4414Z" fill="#C7C7C7"/>
<path d="M44.2109 81.5872L69.5556 98.4502L71.3445 97.4309L44.2109 79.4414V81.5872Z" fill="#F4F5F7"/>
<path opacity="0.1" d="M20.0781 142.198V121.713L22.8879 128.208V132.279L20.717 130.946L20.7305 142.715L20.0781 142.198Z" fill="#7466A4"/>
<path d="M21.793 143.064V127.355L35.7626 136.527V152.244L21.793 143.064Z" fill="#435A5E"/>
<path d="M22.0936 127.915L35.4565 136.69V151.682L22.0936 142.901V127.915ZM21.4883 126.793V127.915V142.9V143.225L21.7613 143.405L35.1243 152.187L36.0645 152.805V151.682V136.69V136.364L35.7915 136.185L22.4285 127.41L21.4883 126.793Z" fill="#EAE3E1"/>
<path opacity="0.6" d="M31.57 148.736L31.8283 141.855L25.5859 139.533V144.798L31.57 148.736Z" fill="#435A5E"/>
<path opacity="0.1" d="M45.0907 112.716L19.5833 95.827L17.0156 95.2383L44.1599 113.248L45.0907 112.716Z" fill="#382C36"/>
<g opacity="0.8">
<path d="M16.7566 112.943L42.1309 129.636V132.632L16.7566 116.064V112.943ZM16.2227 111.953V112.942L16.567 116.58L43.1248 133.844V122.989L42.7644 122.167L17.0499 112.498L16.2227 111.953Z" fill="#BDCAD3"/>
</g>
<path d="M16.4531 115.763V105.262L42.434 122.354V132.726L16.4531 115.763Z" fill="#435A5E"/>
<path d="M16.7551 105.823L42.1293 122.516V132.166L16.7551 115.598V105.823ZM16.1484 104.699V105.823V115.598V115.926L16.4228 116.105L41.797 132.672L42.7359 133.285V132.166V122.516V122.19L42.4628 122.01L17.0886 105.319L16.1484 104.699Z" fill="#EAE3E1"/>
<path d="M18.1054 116.862L16.4375 115.732V105.352L18.1054 106.483V116.862Z" fill="#EAE3E1"/>
<path d="M26.1809 122.142L24.5117 121.011V110.631L26.1809 111.763V122.142Z" fill="#EAE3E1"/>
<path d="M34.2551 127.419L32.5859 126.288V115.908L34.2551 117.04V127.419Z" fill="#EAE3E1"/>
<path d="M42.328 132.698L40.6602 131.568V121.188L42.328 122.319V132.698Z" fill="#EAE3E1"/>
<path d="M19.7747 115.598L18.1055 116.489V106.715L19.7747 107.821V115.598Z" fill="#BDCAD3"/>
<path d="M19.7747 115.598L18.1055 116.488L24.5119 120.683V118.614L19.7747 115.598Z" fill="white"/>
<path d="M27.8514 120.9L26.1836 121.79V112.018L27.8514 113.124V120.9Z" fill="#BDCAD3"/>
<path d="M27.8514 120.898L26.1836 121.789L32.5887 125.985L32.59 123.916L27.8514 120.898Z" fill="white"/>
<path d="M35.9179 126.21L34.25 127.101V117.328L35.9179 118.435V126.21Z" fill="#BDCAD3"/>
<path d="M35.9179 126.211L34.25 127.101L40.6551 131.298L40.6564 129.227L35.9179 126.211Z" fill="white"/>
<path d="M24.6379 145.313L24.0312 144.927V137.055H24.6379V145.313Z" fill="#EAE3E1"/>
<path d="M33.1183 150.56L32.5117 150.172V141.023H33.1183V150.56Z" fill="#EAE3E1"/>
<path d="M25.5871 144.796L24.9805 144.41V135.26H25.5871V144.796Z" fill="#EAE3E1"/>
<path d="M32.1144 149.068L31.5078 148.682V139.531H32.1144V149.068Z" fill="#EAE3E1"/>
<path d="M22.2472 117.171L21.6406 116.783V108.912H22.2472V117.171Z" fill="#EAE3E1"/>
<path d="M30.3215 122.525L29.7148 122.138V114.266H30.3215V122.525Z" fill="#EAE3E1"/>
<path d="M38.4959 127.883L37.8906 127.495V119.623H38.4959V127.883Z" fill="#EAE3E1"/>
<g opacity="0.8">
<path opacity="0.5" d="M71.3769 115.303V118.443L46.0027 132.822V129.826L71.3769 115.303ZM71.9109 114.354L71.0824 114.831L45.7082 129.355L45.4688 129.492V129.779V132.775V133.759L46.2946 133.294L71.6688 118.916L71.9096 118.778V118.488V115.349V114.354H71.9109Z" fill="#ADA17C"/>
</g>
<path d="M45.6953 122.515L71.6775 107.602V118.164L45.6953 132.888V122.515Z" fill="#303A3A"/>
<path d="M71.3754 108.142V117.975L46.0011 132.356V122.705L71.3754 108.142ZM71.982 107.062L71.0418 107.606L45.6676 122.17L45.3945 122.326V122.651V132.302V133.421L46.3334 132.892L71.7076 118.513L71.982 118.356V118.027V108.193V107.062Z" fill="#D1CAC8"/>
<path d="M70.0234 119.128L71.6913 118.136V107.695L70.0234 108.692V119.128Z" fill="#D1CAC8"/>
<path d="M61.9492 123.728L63.6184 122.738V112.316L61.9492 113.31V123.728Z" fill="#D1CAC8"/>
<path d="M53.875 128.309L55.5442 127.323V116.92L53.875 117.91V128.309Z" fill="#D1CAC8"/>
<path d="M45.8008 132.87L47.4686 131.889V121.504L45.8008 122.49V132.87Z" fill="#D1CAC8"/>
<path d="M68.3555 117.713L70.0247 118.752V108.926L68.3555 109.874V117.713Z" fill="#A4B1BA"/>
<path d="M68.3544 117.713L70.0236 118.752L63.6172 122.412V120.333L68.3544 117.713Z" fill="#E6E6E6"/>
<path d="M60.2816 122.335L61.9495 123.374V113.551L60.2695 114.52L60.2816 122.335Z" fill="#A4B1BA"/>
<path d="M60.2802 122.336L61.9481 123.375L55.543 127.019V124.946L60.2802 122.336Z" fill="#E6E6E6"/>
<path d="M52.2109 126.949L53.8788 127.988V118.184L52.2109 119.148V126.949Z" fill="#A4B1BA"/>
<path d="M52.2112 126.949L53.8791 127.989L47.474 131.618L47.4727 129.547L52.2112 126.949Z" fill="#E6E6E6"/>
<path d="M65.8867 119.079L66.492 118.743V110.834L65.8867 110.783V119.079Z" fill="#D1CAC8"/>
<path d="M57.8086 123.751L58.4152 123.416V115.521L57.8086 115.469V123.751Z" fill="#D1CAC8"/>
<path d="M49.6367 128.395L50.2433 128.062V120.181L49.6367 120.129V128.395Z" fill="#D1CAC8"/>
<path d="M37.857 155.385L37.3203 155.047V139.675L37.857 139.369V155.385Z" fill="#F4F5F7"/>
<g opacity="0.1">
<path d="M37.8572 142.93V139.133L38.2055 138.956L38.1248 138.604L37.1658 138.719C37.1658 138.719 35.7091 139.254 35.5168 139.292C35.3258 139.33 33.5234 140.171 33.5234 140.171L37.0891 141.853V142.58L37.8572 142.93Z" fill="#7466A4"/>
</g>
<g opacity="0.8">
<path opacity="0.5" d="M71.3769 130.872V134.012L46.0027 148.391V145.395L71.3769 130.872ZM71.9109 129.924L71.0824 130.401L45.7082 144.925L45.4688 145.062V145.349V148.345V149.33L46.2946 148.864L71.6688 134.486L71.9096 134.348V134.058V130.919V129.924H71.9109Z" fill="#ADA17C"/>
</g>
<path d="M45.6953 138.085L71.6775 123.172V133.734L45.6953 148.457V138.085Z" fill="#303A3A"/>
<path d="M71.3754 123.711V133.544L46.0011 147.926V138.274L71.3754 123.711ZM71.982 122.633L71.0418 123.176L45.6676 137.74L45.3945 137.896V138.222V147.872V148.991L46.3334 148.462L71.7076 134.082L71.982 133.925V133.596V123.762V122.633Z" fill="#D1CAC8"/>
<path d="M70.0234 134.698L71.6913 133.704V123.264L70.0234 124.261V134.698Z" fill="#D1CAC8"/>
<path d="M61.9492 139.298L63.6184 138.308V127.887L61.9492 128.88V139.298Z" fill="#D1CAC8"/>
<path d="M53.875 143.878L55.5442 142.893V132.488L53.875 133.478V143.878Z" fill="#D1CAC8"/>
<path d="M45.8008 148.44L47.4686 147.458V137.074L45.8008 138.059V148.44Z" fill="#D1CAC8"/>
<path d="M68.3555 133.283L70.0247 134.322V124.496L68.3555 125.467V133.283Z" fill="#A4B1BA"/>
<path d="M68.3544 133.283L70.0236 134.323L63.6172 137.981V135.904L68.3544 133.283Z" fill="#E6E6E6"/>
<path d="M60.2812 137.906L61.9491 138.946V129.137L60.2812 130.104V137.906Z" fill="#A4B1BA"/>
<path d="M60.2802 137.906L61.9481 138.946L55.543 142.589V140.515L60.2802 137.906Z" fill="#E6E6E6"/>
<path d="M52.2109 142.52L53.8788 143.559V133.768L52.2109 134.73V142.52Z" fill="#A4B1BA"/>
<path d="M52.2112 142.52L53.8791 143.559L47.474 147.188L47.4727 145.117L52.2112 142.52Z" fill="#E6E6E6"/>
<path d="M65.8867 134.649L66.492 134.312V126.404L65.8867 126.352V134.649Z" fill="#D1CAC8"/>
<path d="M57.8086 139.32L58.4152 138.986V131.091L57.8086 131.039V139.32Z" fill="#D1CAC8"/>
<path d="M49.6367 143.964L50.2433 143.631V135.75L49.6367 135.697V143.964Z" fill="#D1CAC8"/>
<path d="M19.1094 142.829L20.1504 142.302V126.281L19.1094 126.808V142.829Z" fill="#CACAC8"/>
<path d="M19.1109 142.829L18.5742 142.491V127.349L19.1109 127.043V142.829Z" fill="#F4F5F7"/>
<path d="M38.9437 138.77V135.133L11.8008 130.664L30.8641 143.34L38.9437 138.77Z" fill="#CACAC8"/>
<path d="M30.8789 138.088L11.8008 127.025V130.662L30.8641 143.339L30.8789 138.088Z" fill="#F4F5F7"/>
<path d="M38.9419 135.131L19.65 122.34L11.5703 126.91L30.8622 139.702L38.9419 135.131Z" fill="#DCDEE2"/>
<path d="M39.171 134.991V134.204L19.7553 122.787L11.5586 126.179V126.966L30.9743 139.744L39.171 134.991Z" fill="#EBF2FA"/>
<path d="M19.7539 122.9L30.9729 139.071L30.9433 139.84L30.9729 139.859L39.1696 135.106V134.319L19.7539 122.9Z" fill="#CACAC8"/>
<path d="M39.171 134.204L19.7553 121.426L11.5586 126.179L30.9743 138.957L39.171 134.204Z" fill="white"/>
<path d="M36.7606 134.205L19.6342 122.867L13.9648 126.178L31.0913 137.516L36.7606 134.205Z" fill="#D4D4D4"/>
<path d="M19.6342 122.867L13.9648 126.178L14.749 126.717L19.6342 123.865V122.867Z" fill="#C7C7C7"/>
<path d="M19.6367 123.865L35.8566 134.717L36.7631 134.205L19.6367 122.867V123.865Z" fill="#F4F5F7"/>
<path d="M15.0367 131.214L14.9372 131.683L14.6211 131.47L15.0461 129.666L15.4483 129.938L15.8518 132.297L15.5236 132.076L15.4241 131.472L15.0367 131.214ZM15.381 131.094L15.3003 130.597C15.2775 130.457 15.2546 130.287 15.2344 130.149L15.2304 130.146C15.2089 130.256 15.1887 130.4 15.1658 130.506L15.0824 130.893L15.381 131.094Z" fill="#00A200"/>
<path d="M17.3033 132.479C17.3006 132.227 17.2979 131.924 17.3006 131.623L17.2952 131.619C17.2495 131.854 17.1903 132.109 17.1365 132.317L16.963 133.011L16.7249 132.852L16.589 131.955C16.5473 131.682 16.5043 131.357 16.4747 131.066L16.4707 131.063C16.4599 131.336 16.4505 131.652 16.4384 131.902L16.4075 132.672L16.125 132.482L16.2299 130.469L16.6375 130.745L16.7625 131.524C16.8029 131.792 16.8419 132.078 16.8688 132.34L16.8742 132.344C16.9145 132.13 16.9643 131.889 17.01 131.689L17.162 131.102L17.5615 131.373L17.6113 133.482L17.3127 133.281L17.3033 132.479Z" fill="#00A200"/>
<path d="M17.993 131.693C18.0737 131.723 18.2364 131.815 18.3897 131.919C18.5767 132.046 18.691 132.151 18.7879 132.305C18.8807 132.444 18.9479 132.631 18.9452 132.816C18.9426 132.998 18.8699 133.12 18.7166 133.103V133.108C18.8699 133.276 18.9816 133.529 18.9775 133.794C18.9748 133.979 18.917 134.087 18.8309 134.134C18.7314 134.186 18.5659 134.144 18.2983 133.963C18.1476 133.862 18.036 133.771 17.9688 133.71L17.993 131.693ZM18.2727 133.595C18.3023 133.622 18.3386 133.646 18.3911 133.681C18.5296 133.773 18.652 133.777 18.6561 133.562C18.6588 133.355 18.5377 133.19 18.3857 133.087L18.2808 133.016L18.2727 133.595ZM18.2862 132.684L18.3871 132.753C18.5471 132.861 18.6345 132.82 18.6372 132.667C18.6399 132.511 18.5619 132.377 18.4234 132.283C18.3575 132.238 18.3185 132.219 18.2929 132.207L18.2862 132.684Z" fill="#00A200"/>
<path d="M19.6305 132.78L19.6117 133.954C19.6063 134.306 19.691 134.544 19.8471 134.649C20.0071 134.756 20.0986 134.648 20.104 134.287L20.1241 133.115L20.4295 133.321L20.4093 134.463C20.3985 135.09 20.182 135.248 19.8309 135.011C19.4906 134.782 19.2956 134.362 19.305 133.71L19.3225 132.57L19.6305 132.78Z" fill="#00A200"/>
<path d="M20.8189 133.584L21.1269 133.792L21.0946 135.435L21.6313 135.795L21.6232 136.18L20.7812 135.614L20.8189 133.584Z" fill="#00A200"/>
<path d="M22.2596 136.085L22.152 136.539L21.8359 136.327L22.2933 134.586L22.6954 134.858L23.0667 137.154L22.7385 136.934L22.6457 136.347L22.2596 136.085ZM22.6107 135.975L22.5367 135.491C22.5152 135.356 22.495 135.189 22.4775 135.057L22.4735 135.054C22.4506 135.16 22.4278 135.299 22.4022 135.401L22.3121 135.775L22.6107 135.975Z" fill="#00A200"/>
<path d="M23.3672 137.355L23.417 135.346L23.7747 135.588L24.037 136.512C24.1123 136.778 24.185 137.081 24.2388 137.348L24.2442 137.352C24.2307 137.074 24.2321 136.799 24.2401 136.5L24.2563 135.916L24.5374 136.106L24.4822 138.104L24.1621 137.89L23.8944 136.923C23.8205 136.655 23.7384 136.337 23.6779 136.056L23.6725 136.055C23.6739 136.325 23.6712 136.61 23.6618 136.938L23.647 137.542L23.3672 137.355Z" fill="#00A200"/>
<path d="M25.8591 138.974C25.8013 138.978 25.6748 138.938 25.5107 138.826C25.0453 138.514 24.8167 137.922 24.8328 137.354C24.8517 136.673 25.192 136.517 25.6022 136.795C25.7609 136.902 25.8793 137.031 25.9331 137.108L25.8604 137.424C25.7999 137.343 25.7138 137.249 25.6062 137.175C25.3628 137.011 25.1691 137.099 25.1556 137.543C25.1435 137.943 25.2969 138.301 25.5686 138.484C25.66 138.546 25.7636 138.585 25.8241 138.59L25.8591 138.974Z" fill="#00A200"/>
<path d="M27.0082 138.947L26.5119 138.612L26.4971 139.082L27.0513 139.455L27.0392 139.821L26.1797 139.243L26.2416 137.26L27.0768 137.826L27.0647 138.192L26.5375 137.835L26.524 138.247L27.0217 138.582L27.0082 138.947Z" fill="#00A200"/>
<path opacity="0.2" d="M27.4688 128.51V129.105L30.4588 131.106V130.489L27.4688 128.51Z" fill="#435A5E"/>
<g opacity="0.5">
<path d="M23.1762 117.756L22.4688 117.315L23.6188 110.348L24.3949 110.849L23.1762 117.756Z" fill="#BDCAD3"/>
</g>
<g opacity="0.5">
<path d="M31.9116 123.481L30.5195 122.589L31.6695 115.623L32.5949 116.243L32.5882 119.365L31.9116 123.481Z" fill="#BDCAD3"/>
</g>
<g opacity="0.5">
<path d="M39.9927 128.807L39.2422 128.324L40.3882 121.395L40.6854 121.555L40.6787 124.678L39.9927 128.807Z" fill="#BDCAD3"/>
</g>
<g opacity="0.4">
<path d="M32.0602 136.953L26.6558 133.48L27.3781 133.069L28.2363 133.599L30.6708 132.414L29.3123 131.539L30.3641 131.077L27.4884 129.089L25.5072 129.971L23.1708 128.109L20.7121 129.275L22.6772 130.484L22.7081 130.942L15.4705 126.289L13.9492 126.164L22.7081 131.97V132.64L23.6268 133.398L24.9301 133.413L31.0864 137.522L32.0602 136.953Z" fill="#C6BA95"/>
</g>
<path d="M27.6439 127.787L25.0533 126.083V122.963L22.3727 121.111L21.033 121.964L22.4695 124.42L19.9691 122.719L18.6133 123.548L19.7862 126.716L22.1413 128.266L23.6962 133.467L25.0533 132.638V129.669L26.2881 132.078L27.6439 131.249V127.787Z" fill="#008035"/>
<path d="M21.1887 131.526V128.609C21.1887 128.551 21.1605 128.498 21.1121 128.465L18.7852 126.918V123.871L20.9197 125.291C20.948 125.31 20.9816 125.321 21.0152 125.321C21.0435 125.321 21.0704 125.314 21.0959 125.3C21.1524 125.271 21.1874 125.212 21.1874 125.149V122.27L23.5224 123.883V126.912C23.5224 126.97 23.552 127.024 23.6004 127.056L26.1143 128.711V131.759L23.7914 130.23C23.7632 130.212 23.7295 130.202 23.6959 130.202C23.6677 130.202 23.6394 130.209 23.6139 130.222C23.5574 130.252 23.5237 130.311 23.5237 130.374V133.141L21.1887 131.526Z" fill="#00B535"/>
<path d="M21.3612 122.599L23.3519 123.973V126.913C23.3519 127.028 23.4097 127.137 23.5065 127.2L25.9424 128.804V131.439L23.8872 130.086C23.8294 130.048 23.7634 130.03 23.6975 130.03C23.641 130.03 23.5859 130.043 23.5334 130.071C23.4218 130.132 23.3519 130.248 23.3519 130.374V132.812L21.3612 131.438V128.611C21.3612 128.495 21.3034 128.388 21.2079 128.325L18.9576 126.828V124.194L20.8245 125.436C20.8824 125.475 20.9496 125.494 21.0155 125.494C21.0707 125.494 21.1272 125.481 21.1783 125.454C21.2899 125.393 21.3612 125.277 21.3612 125.151V122.599ZM21.0169 121.941V125.149L18.6133 123.551V127.011L21.0169 128.609V131.616L23.6975 133.468V130.373L26.2881 132.079V128.619L23.6975 126.913V123.793L21.0169 121.941Z" fill="white"/>
<path d="M26.2911 128.618L27.1627 128.151L24.5722 126.445L23.6992 126.912L26.2911 128.618Z" fill="#00B535"/>
<path d="M23.7172 123.784L25.0555 122.963L22.3748 121.111L21.0352 121.964L23.7172 123.784Z" fill="#00B535"/>
<path d="M21.0279 125.218L21.0225 123.43L19.9707 122.721L18.6055 123.554L21.0279 125.218Z" fill="#00B535"/>
<path opacity="0.4" d="M45.3926 122.338L71.9827 107.063L71.5174 106.746L45.3711 121.762L45.3926 122.338Z" fill="white"/>
<path opacity="0.4" d="M45.3756 137.904L71.9658 122.629L71.5004 122.312L45.3555 137.329L45.3756 137.904Z" fill="white"/>
<path opacity="0.3" d="M16.0536 150.431C16.0415 150.431 16.0307 150.431 16.0186 150.429L12.9398 150.256C12.6049 150.238 12.3493 149.952 12.3682 149.618C12.387 149.284 12.6775 149.028 13.0084 149.048L16.0872 149.221C16.4221 149.24 16.6777 149.525 16.6588 149.859C16.6414 150.183 16.3737 150.431 16.0536 150.431Z" fill="#382C36"/>
<path opacity="0.3" d="M29.538 159.425C29.5258 159.425 29.5151 159.425 29.503 159.423L26.4242 159.25C26.0893 159.232 25.8337 158.946 25.8525 158.612C25.8714 158.278 26.1565 158.022 26.4928 158.042L29.5716 158.215C29.9065 158.234 30.1621 158.52 30.1432 158.853C30.1257 159.175 29.8581 159.425 29.538 159.425Z" fill="#382C36"/>
<path d="M13.3702 143.305C13.5074 143.189 13.5962 143.018 13.5962 142.824C13.5962 142.474 13.3124 142.189 12.96 142.189C12.6089 142.189 12.3238 142.474 12.3238 142.824C12.3238 143.018 12.4125 143.189 12.5511 143.305C12.2794 143.451 12.0938 143.734 12.0938 144.063V149.511C12.0938 149.988 12.4825 150.232 12.9613 150.232C13.4401 150.232 13.8289 149.989 13.8289 149.511V144.063C13.8275 143.733 13.6405 143.451 13.3702 143.305Z" fill="#4C4949"/>
<path d="M26.9366 152.337C27.0738 152.22 27.1626 152.048 27.1626 151.855C27.1626 151.505 26.8774 151.221 26.5264 151.221C26.1753 151.221 25.8902 151.505 25.8902 151.855C25.8902 152.05 25.9789 152.22 26.1175 152.337C25.8458 152.483 25.6602 152.766 25.6602 153.094V158.542C25.6602 159.019 26.0489 159.262 26.5277 159.262C27.0065 159.262 27.3953 159.019 27.3953 158.542V153.094C27.3953 152.766 27.2083 152.483 26.9366 152.337Z" fill="#4C4949"/>
<path d="M47.217 97.2337L51.0665 99.767L47.79 101.7L43.9203 99.1515L39.3512 101.81L36.0599 99.6544L40.6384 96.9909L36.8373 94.4884L40.1125 92.5559L43.9351 95.0732L48.5136 92.4097L51.8063 94.5649L47.217 97.2337ZM43.9741 89.4258C37.1493 89.4258 31.6172 92.8872 31.6172 97.1572C31.6172 101.427 37.1493 104.889 43.9741 104.889C50.7988 104.889 56.331 101.427 56.331 97.1572C56.3323 92.8872 50.8002 89.4258 43.9741 89.4258Z" fill="#00B535"/>
<path opacity="0.95" d="M47.2171 97.2341L51.0666 99.7674L47.7901 101.7L43.9204 99.1519L39.3513 101.811L36.0586 99.6561L40.6385 96.9914L36.836 94.4889L40.1125 92.5577L43.9352 95.0736L48.5137 92.4102L51.8063 94.564L47.2171 97.2341Z" fill="white"/>
</g>
<defs>
<clipPath id="clip0_176_23909">
<rect width="87" height="90" fill="white" transform="translate(0 78)"/>
</clipPath>
</defs>
</svg>
