<svg width="387" height="138" viewBox="0 0 387 138" fill="none" xmlns="http://www.w3.org/2000/svg">
<rect x="124" width="263" height="92" rx="18" fill="#006DB7"/>
<path d="M68 102L179.5 66.026L147.5 42L68 102Z" fill="#006DB7"/>
<rect x="149.048" y="25.0476" width="41.9048" height="41.9048" rx="20.9524" fill="#407C1D"/>
<rect x="149.048" y="25.0476" width="41.9048" height="41.9048" rx="20.9524" stroke="white" stroke-width="2.09524"/>
<g clip-path="url(#clip0_176_85838)">
<path d="M177 54H163V55C163 55.2652 162.895 55.5196 162.707 55.7071C162.52 55.8946 162.265 56 162 56H161C160.735 56 160.48 55.8946 160.293 55.7071C160.105 55.5196 160 55.2652 160 55V45L162.48 39.212C162.634 38.852 162.891 38.5452 163.218 38.3298C163.545 38.1143 163.928 37.9997 164.32 38H175.68C176.071 38 176.454 38.1149 176.781 38.3303C177.107 38.5458 177.364 38.8523 177.518 39.212L180 45V55C180 55.2652 179.895 55.5196 179.707 55.7071C179.52 55.8946 179.265 56 179 56H178C177.735 56 177.48 55.8946 177.293 55.7071C177.105 55.5196 177 55.2652 177 55V54ZM178 47H162V52H178V47ZM162.176 45H177.824L175.681 40H164.32L162.177 45H162.176ZM164.5 51C164.102 51 163.721 50.842 163.439 50.5607C163.158 50.2794 163 49.8978 163 49.5C163 49.1022 163.158 48.7206 163.439 48.4393C163.721 48.158 164.102 48 164.5 48C164.898 48 165.279 48.158 165.561 48.4393C165.842 48.7206 166 49.1022 166 49.5C166 49.8978 165.842 50.2794 165.561 50.5607C165.279 50.842 164.898 51 164.5 51ZM175.5 51C175.102 51 174.721 50.842 174.439 50.5607C174.158 50.2794 174 49.8978 174 49.5C174 49.1022 174.158 48.7206 174.439 48.4393C174.721 48.158 175.102 48 175.5 48C175.898 48 176.279 48.158 176.561 48.4393C176.842 48.7206 177 49.1022 177 49.5C177 49.8978 176.842 50.2794 176.561 50.5607C176.279 50.842 175.898 51 175.5 51Z" fill="white"/>
</g>
<path d="M209.865 55.5V36.5909H216.956C218.409 36.5909 219.627 36.8617 220.612 37.4034C221.603 37.9451 222.351 38.6899 222.856 39.6378C223.367 40.5795 223.622 41.6506 223.622 42.8509C223.622 44.0634 223.367 45.1406 222.856 46.0824C222.345 47.0241 221.591 47.7659 220.594 48.3075C219.597 48.843 218.369 49.1108 216.91 49.1108H212.21V46.2947H216.448C217.298 46.2947 217.993 46.147 218.535 45.8516C219.076 45.5561 219.477 45.1499 219.735 44.6328C220 44.1158 220.132 43.5218 220.132 42.8509C220.132 42.1799 220 41.589 219.735 41.0781C219.477 40.5672 219.073 40.1702 218.526 39.8871C217.984 39.5978 217.285 39.4531 216.43 39.4531H213.29V55.5H209.865ZM232.525 55.777C231.103 55.777 229.875 55.4815 228.841 54.8906C227.813 54.2936 227.022 53.4503 226.468 52.3608C225.914 51.2652 225.637 49.9756 225.637 48.4922C225.637 47.0334 225.914 45.7531 226.468 44.6513C227.028 43.5433 227.81 42.6816 228.813 42.0661C229.817 41.4444 230.995 41.1335 232.35 41.1335C233.224 41.1335 234.048 41.2751 234.824 41.5582C235.606 41.8352 236.295 42.2661 236.892 42.8509C237.495 43.4356 237.969 44.1804 238.314 45.0852C238.659 45.9839 238.831 47.0549 238.831 48.2983V49.3232H227.207V47.0703H235.627C235.621 46.4302 235.483 45.8608 235.212 45.3622C234.941 44.8575 234.562 44.4605 234.076 44.1712C233.596 43.8819 233.036 43.7372 232.396 43.7372C231.713 43.7372 231.112 43.9034 230.595 44.2358C230.078 44.562 229.675 44.9929 229.386 45.5284C229.103 46.0578 228.958 46.6394 228.952 47.2734V49.2401C228.952 50.0649 229.103 50.7727 229.404 51.3636C229.706 51.9484 230.128 52.3977 230.669 52.7116C231.211 53.0194 231.845 53.1733 232.571 53.1733C233.057 53.1733 233.498 53.1056 233.892 52.9702C234.285 52.8286 234.627 52.6224 234.916 52.3516C235.206 52.0807 235.424 51.7453 235.572 51.3452L238.693 51.696C238.496 52.5208 238.12 53.241 237.566 53.8565C237.018 54.4659 236.317 54.9399 235.461 55.2784C234.606 55.6108 233.627 55.777 232.525 55.777ZM245.74 55.7862C244.841 55.7862 244.032 55.6262 243.311 55.3061C242.597 54.9799 242.031 54.4998 241.613 53.8658C241.2 53.2318 240.994 52.45 240.994 51.5206C240.994 50.7204 241.142 50.0587 241.437 49.5355C241.733 49.0123 242.136 48.5938 242.647 48.2798C243.158 47.9659 243.733 47.7289 244.373 47.5689C245.02 47.4027 245.687 47.2827 246.377 47.2088C247.208 47.1226 247.882 47.0457 248.399 46.978C248.916 46.9041 249.291 46.7933 249.525 46.6456C249.765 46.4917 249.885 46.2547 249.885 45.9347V45.8793C249.885 45.1837 249.679 44.6451 249.267 44.2635C248.854 43.8819 248.26 43.6911 247.485 43.6911C246.666 43.6911 246.017 43.8696 245.537 44.2266C245.063 44.5836 244.743 45.0052 244.576 45.4915L241.456 45.0483C241.702 44.1866 242.108 43.4664 242.674 42.8878C243.241 42.303 243.933 41.866 244.752 41.5767C245.57 41.2812 246.475 41.1335 247.466 41.1335C248.15 41.1335 248.83 41.2135 249.507 41.3736C250.184 41.5336 250.802 41.7983 251.363 42.1676C251.923 42.5308 252.372 43.0263 252.711 43.6541C253.055 44.282 253.228 45.0668 253.228 46.0085V55.5H250.015V53.5518H249.904C249.701 53.9458 249.414 54.3151 249.045 54.6598C248.682 54.9983 248.223 55.2723 247.669 55.4815C247.122 55.6847 246.478 55.7862 245.74 55.7862ZM246.608 53.3303C247.279 53.3303 247.86 53.1979 248.353 52.9332C248.845 52.6624 249.224 52.3054 249.488 51.8622C249.759 51.419 249.895 50.9358 249.895 50.4126V48.7415C249.79 48.8277 249.611 48.9077 249.359 48.9815C249.113 49.0554 248.836 49.12 248.528 49.1754C248.22 49.2308 247.916 49.2801 247.614 49.3232C247.312 49.3662 247.051 49.4032 246.829 49.4339C246.331 49.5017 245.884 49.6125 245.49 49.7663C245.096 49.9202 244.786 50.1357 244.558 50.4126C244.33 50.6835 244.216 51.0343 244.216 51.4652C244.216 52.0807 244.441 52.5455 244.89 52.8594C245.34 53.1733 245.912 53.3303 246.608 53.3303ZM256.588 41.3182H259.931V56.3125C259.931 57.3343 259.737 58.1776 259.349 58.8423C258.961 59.5071 258.401 60.0026 257.669 60.3288C256.936 60.6551 256.047 60.8182 255 60.8182C254.877 60.8182 254.763 60.8151 254.659 60.8089C254.554 60.8089 254.44 60.8059 254.317 60.7997V58.076C254.409 58.0821 254.493 58.0852 254.566 58.0852C254.64 58.0914 254.717 58.0945 254.797 58.0945C255.437 58.0945 255.896 57.9375 256.173 57.6236C256.45 57.3158 256.588 56.8634 256.588 56.2663V41.3182ZM258.25 39.3054C257.715 39.3054 257.256 39.13 256.875 38.7791C256.499 38.4221 256.311 37.9943 256.311 37.4957C256.311 36.991 256.499 36.5632 256.875 36.2124C257.256 35.8553 257.715 35.6768 258.25 35.6768C258.78 35.6768 259.232 35.8553 259.608 36.2124C259.989 36.5632 260.18 36.991 260.18 37.4957C260.18 37.9943 259.989 38.4221 259.608 38.7791C259.232 39.13 258.78 39.3054 258.25 39.3054ZM269.646 55.777C268.224 55.777 266.996 55.4815 265.962 54.8906C264.934 54.2936 264.143 53.4503 263.589 52.3608C263.035 51.2652 262.758 49.9756 262.758 48.4922C262.758 47.0334 263.035 45.7531 263.589 44.6513C264.149 43.5433 264.931 42.6816 265.934 42.0661C266.938 41.4444 268.117 41.1335 269.471 41.1335C270.345 41.1335 271.17 41.2751 271.945 41.5582C272.727 41.8352 273.416 42.2661 274.013 42.8509C274.617 43.4356 275.09 44.1804 275.435 45.0852C275.78 45.9839 275.952 47.0549 275.952 48.2983V49.3232H264.328V47.0703H272.748C272.742 46.4302 272.604 45.8608 272.333 45.3622C272.062 44.8575 271.684 44.4605 271.197 44.1712C270.717 43.8819 270.157 43.7372 269.517 43.7372C268.834 43.7372 268.233 43.9034 267.716 44.2358C267.199 44.562 266.796 44.9929 266.507 45.5284C266.224 46.0578 266.079 46.6394 266.073 47.2734V49.2401C266.073 50.0649 266.224 50.7727 266.525 51.3636C266.827 51.9484 267.249 52.3977 267.79 52.7116C268.332 53.0194 268.966 53.1733 269.692 53.1733C270.179 53.1733 270.619 53.1056 271.013 52.9702C271.407 52.8286 271.748 52.6224 272.037 52.3516C272.327 52.0807 272.545 51.7453 272.693 51.3452L275.814 51.696C275.617 52.5208 275.241 53.241 274.687 53.8565C274.14 54.4659 273.438 54.9399 272.582 55.2784C271.727 55.6108 270.748 55.777 269.646 55.777ZM301.562 42.9709H298.109C298.011 42.4046 297.829 41.9029 297.564 41.4659C297.3 41.0227 296.97 40.6473 296.576 40.3395C296.182 40.0317 295.733 39.8009 295.228 39.647C294.73 39.487 294.191 39.407 293.613 39.407C292.585 39.407 291.674 39.6655 290.88 40.1825C290.086 40.6934 289.464 41.4444 289.015 42.4354C288.565 43.4202 288.341 44.6236 288.341 46.0455C288.341 47.492 288.565 48.7107 289.015 49.7017C289.47 50.6866 290.092 51.4313 290.88 51.9361C291.674 52.4347 292.582 52.6839 293.603 52.6839C294.17 52.6839 294.699 52.6101 295.191 52.4624C295.69 52.3085 296.136 52.0838 296.53 51.7884C296.93 51.4929 297.266 51.1297 297.537 50.6989C297.814 50.268 298.004 49.7756 298.109 49.2216L301.562 49.2401C301.433 50.1387 301.153 50.982 300.722 51.7699C300.297 52.5578 299.74 53.2533 299.051 53.8565C298.361 54.4536 297.555 54.9214 296.632 55.2599C295.708 55.5923 294.684 55.7585 293.557 55.7585C291.895 55.7585 290.412 55.3738 289.107 54.6044C287.802 53.835 286.774 52.724 286.023 51.2713C285.272 49.8187 284.897 48.0767 284.897 46.0455C284.897 44.008 285.275 42.2661 286.032 40.8196C286.789 39.367 287.82 38.2559 289.125 37.4865C290.43 36.7171 291.908 36.3324 293.557 36.3324C294.61 36.3324 295.588 36.4801 296.493 36.7756C297.398 37.071 298.204 37.505 298.912 38.0774C299.62 38.6437 300.202 39.3393 300.657 40.1641C301.119 40.9827 301.421 41.9183 301.562 42.9709ZM307.894 47.1903V55.5H304.551V36.5909H307.82V43.728H307.986C308.318 42.9278 308.832 42.2969 309.528 41.8352C310.23 41.3674 311.122 41.1335 312.205 41.1335C313.19 41.1335 314.049 41.3397 314.781 41.7521C315.514 42.1645 316.08 42.7678 316.48 43.5618C316.887 44.3558 317.09 45.3253 317.09 46.4702V55.5H313.747V46.9872C313.747 46.0331 313.501 45.2914 313.009 44.7621C312.522 44.2266 311.839 43.9588 310.959 43.9588C310.368 43.9588 309.839 44.0881 309.371 44.3466C308.909 44.599 308.546 44.9652 308.281 45.4453C308.023 45.9254 307.894 46.5071 307.894 47.1903ZM320.497 55.5V41.3182H323.839V55.5H320.497ZM322.177 39.3054C321.648 39.3054 321.192 39.13 320.811 38.7791C320.429 38.4221 320.238 37.9943 320.238 37.4957C320.238 36.991 320.429 36.5632 320.811 36.2124C321.192 35.8553 321.648 35.6768 322.177 35.6768C322.713 35.6768 323.168 35.8553 323.544 36.2124C323.925 36.5632 324.116 36.991 324.116 37.4957C324.116 37.9943 323.925 38.4221 323.544 38.7791C323.168 39.13 322.713 39.3054 322.177 39.3054ZM330.618 36.5909V55.5H327.276V36.5909H330.618ZM340.241 55.777C338.826 55.777 337.61 55.4661 336.594 54.8445C335.585 54.2228 334.806 53.3641 334.258 52.2685C333.717 51.1667 333.446 49.8987 333.446 48.4645C333.446 47.0241 333.723 45.7531 334.277 44.6513C334.831 43.5433 335.613 42.6816 336.622 42.0661C337.638 41.4444 338.838 41.1335 340.223 41.1335C341.374 41.1335 342.393 41.3459 343.279 41.7706C344.171 42.1892 344.882 42.7831 345.412 43.5526C345.941 44.3158 346.243 45.2083 346.317 46.2301H343.122C342.993 45.5469 342.685 44.9775 342.199 44.522C341.719 44.0604 341.075 43.8295 340.269 43.8295C339.586 43.8295 338.986 44.0142 338.469 44.3835C337.952 44.7467 337.548 45.2699 337.259 45.9531C336.976 46.6364 336.834 47.455 336.834 48.4091C336.834 49.3755 336.976 50.2064 337.259 50.902C337.542 51.5914 337.939 52.1238 338.45 52.4993C338.967 52.8686 339.573 53.0533 340.269 53.0533C340.761 53.0533 341.202 52.9609 341.589 52.7763C341.983 52.5855 342.313 52.3116 342.577 51.9545C342.842 51.5975 343.023 51.1636 343.122 50.6527H346.317C346.237 51.656 345.941 52.5455 345.43 53.321C344.919 54.0904 344.224 54.6937 343.344 55.1307C342.463 55.5616 341.429 55.777 340.241 55.777ZM353.142 55.7862C352.243 55.7862 351.434 55.6262 350.714 55.3061C350 54.9799 349.433 54.4998 349.015 53.8658C348.603 53.2318 348.396 52.45 348.396 51.5206C348.396 50.7204 348.544 50.0587 348.839 49.5355C349.135 49.0123 349.538 48.5938 350.049 48.2798C350.56 47.9659 351.135 47.7289 351.776 47.5689C352.422 47.4027 353.09 47.2827 353.779 47.2088C354.61 47.1226 355.284 47.0457 355.801 46.978C356.318 46.9041 356.694 46.7933 356.928 46.6456C357.168 46.4917 357.288 46.2547 357.288 45.9347V45.8793C357.288 45.1837 357.081 44.6451 356.669 44.2635C356.257 43.8819 355.663 43.6911 354.887 43.6911C354.068 43.6911 353.419 43.8696 352.939 44.2266C352.465 44.5836 352.145 45.0052 351.979 45.4915L348.858 45.0483C349.104 44.1866 349.51 43.4664 350.077 42.8878C350.643 42.303 351.335 41.866 352.154 41.5767C352.973 41.2812 353.878 41.1335 354.869 41.1335C355.552 41.1335 356.232 41.2135 356.909 41.3736C357.586 41.5336 358.205 41.7983 358.765 42.1676C359.325 42.5308 359.774 43.0263 360.113 43.6541C360.458 44.282 360.63 45.0668 360.63 46.0085V55.5H357.417V53.5518H357.306C357.103 53.9458 356.817 54.3151 356.447 54.6598C356.084 54.9983 355.626 55.2723 355.072 55.4815C354.524 55.6847 353.881 55.7862 353.142 55.7862ZM354.01 53.3303C354.681 53.3303 355.263 53.1979 355.755 52.9332C356.247 52.6624 356.626 52.3054 356.891 51.8622C357.161 51.419 357.297 50.9358 357.297 50.4126V48.7415C357.192 48.8277 357.014 48.9077 356.761 48.9815C356.515 49.0554 356.238 49.12 355.93 49.1754C355.623 49.2308 355.318 49.2801 355.016 49.3232C354.715 49.3662 354.453 49.4032 354.232 49.4339C353.733 49.5017 353.287 49.6125 352.893 49.7663C352.499 49.9202 352.188 50.1357 351.96 50.4126C351.732 50.6835 351.619 51.0343 351.619 51.4652C351.619 52.0807 351.843 52.5455 352.293 52.8594C352.742 53.1733 353.314 53.3303 354.01 53.3303Z" fill="white"/>
<path d="M65.1996 19.532L62.5605 18L68.6876 20.576L71.3266 22.111L65.1996 19.532Z" fill="#98D343"/>
<path d="M38.4044 46.6213L35.7644 45.0873L35.7324 33.4883L38.3714 35.0233L38.4044 46.6213Z" fill="#705E2C"/>
<path d="M38.3714 35.023L35.7324 33.488L62.5614 18L65.2004 19.532L38.3714 35.023Z" fill="#8DC63F"/>
<path d="M65.2001 19.5312L71.3271 22.1103L65.2341 31.1302L38.4041 46.6202L38.3711 35.0222L65.2001 19.5312Z" fill="#518524"/>
<path d="M8.24905 21.1932L10.8881 19.6582L4.76105 22.2372L2.12305 23.7712L8.24905 21.1932Z" fill="#98D343"/>
<path d="M35.0469 48.2804L37.6849 46.7464L37.7179 35.1484L35.0799 36.6824L35.0469 48.2804Z" fill="#705E2C"/>
<path d="M35.08 36.6832L37.718 35.1492L10.889 19.6582L8.25 21.1932L35.08 36.6832Z" fill="#8DC63F"/>
<path d="M8.24905 21.1934L2.12305 23.7713L8.21506 32.7914L35.0461 48.2813L35.079 36.6833L8.24905 21.1934Z" fill="#217F1C"/>
<path d="M30.3105 131.741C30.3105 131.741 30.3106 131.813 30.3456 131.888C30.3456 131.888 30.3456 131.965 30.3456 132.035C30.3876 132.113 30.4196 132.185 30.4606 132.223C30.4606 132.261 30.4606 132.336 30.4966 132.371C30.5356 132.407 30.5356 132.521 30.6066 132.556C30.6066 132.594 30.6456 132.671 30.6456 132.707C30.7196 132.743 30.7576 132.857 30.7576 132.928C30.8296 132.968 30.9036 133.005 30.9036 133.041C30.9436 133.075 31.0926 133.231 31.1666 133.302C31.2006 133.335 31.2376 133.335 31.2786 133.448C31.3156 133.488 31.3886 133.524 31.4636 133.598C31.5336 133.671 31.5706 133.671 31.6096 133.747C31.7226 133.747 31.7606 133.817 31.8726 133.895C31.9056 133.935 32.0196 133.935 32.0556 133.971C32.2406 134.117 32.4666 134.229 32.6526 134.303C32.7276 134.343 32.7636 134.374 32.7966 134.374C32.9486 134.454 33.1386 134.528 33.3216 134.563C33.3536 134.599 33.4326 134.599 33.5096 134.635C33.5816 134.635 33.6946 134.717 33.7666 134.717C33.8416 134.746 33.9546 134.746 34.0276 134.79C34.1746 134.79 34.2506 134.79 34.3606 134.862C34.4386 134.862 34.5086 134.862 34.5856 134.934C34.8426 134.934 35.0676 135.012 35.2916 135.012C35.3586 135.012 35.4766 135.012 35.5496 135.012C35.6656 135.012 35.8096 135.012 35.8876 135.046C36.0366 135.046 36.1076 135.046 36.1826 135.046C36.2936 135.046 36.3706 135.046 36.5156 135.046C36.6306 135.046 36.7425 135.046 36.8495 135.046C36.8905 135.012 37.0025 135.012 37.1125 135.012C37.1865 135.012 37.2976 135.012 37.4456 135.012C37.4866 135.012 37.5965 135.012 37.6725 135.012C37.7795 134.934 37.8556 134.934 37.9676 134.934C38.1156 134.934 38.1916 134.934 38.3016 134.862C38.3766 134.862 38.4876 134.862 38.5256 134.79C38.6716 134.79 38.7856 134.746 38.9726 134.746C39.0096 134.717 39.0836 134.717 39.1576 134.717C39.3816 134.599 39.6016 134.563 39.7886 134.454C39.9006 134.414 40.0136 134.374 40.1276 134.343C40.1606 134.303 40.1966 134.265 40.2746 134.265C40.4216 134.117 40.5686 134.117 40.7166 133.971C41.9076 133.301 42.5016 132.37 42.5016 131.479V133.447C42.5016 134.375 41.9436 135.307 40.7166 135.977C40.5686 136.049 40.4216 136.125 40.2746 136.233C40.1966 136.271 40.1605 136.271 40.0865 136.311C40.0125 136.385 39.9006 136.385 39.8616 136.421C39.8236 136.421 39.8235 136.421 39.8235 136.421C39.6005 136.496 39.3806 136.564 39.1566 136.643C39.1196 136.643 39.1196 136.643 39.1196 136.643C39.0416 136.717 39.0096 136.717 38.9726 136.717C38.7846 136.717 38.6716 136.793 38.5626 136.793C38.5256 136.793 38.4875 136.793 38.4525 136.793C38.4525 136.793 38.3776 136.868 38.3026 136.868C38.1926 136.868 38.1166 136.904 37.9686 136.904C37.9316 136.904 37.8926 136.938 37.8566 136.938C37.8196 136.938 37.7486 136.938 37.7486 136.938C37.5996 136.938 37.4886 136.938 37.4476 137.014C37.2996 137.014 37.2996 137.014 37.2626 137.014H37.1516C37.0046 137.014 36.8926 137.014 36.8516 137.014C36.7436 137.014 36.7046 137.014 36.6656 137.014C36.5946 137.014 36.5586 137.014 36.5586 137.014C36.3726 137.014 36.2956 137.014 36.1846 137.014C36.1446 137.014 36.0756 137.014 36.0756 137.014C36.0016 137.014 35.9626 137.014 35.8896 137.014C35.8116 137.014 35.6285 137.014 35.4785 137.014C35.4435 137.014 35.4036 137.014 35.3326 137.014L35.2935 136.938C35.0695 136.938 34.8446 136.938 34.5876 136.868C34.4736 136.868 34.4415 136.868 34.3625 136.793C34.2525 136.793 34.1766 136.793 34.0296 136.793C33.9576 136.717 33.8436 136.717 33.7686 136.717C33.6976 136.643 33.5836 136.643 33.5116 136.565C33.4736 136.565 33.4355 136.565 33.4355 136.565C33.3565 136.565 33.3566 136.565 33.3246 136.565C33.1736 136.497 32.9516 136.422 32.7996 136.385C32.7666 136.349 32.7305 136.311 32.6555 136.311C32.4695 136.195 32.2826 136.125 32.0986 135.977C32.0586 135.977 32.0236 135.977 32.0236 135.977C31.9466 135.899 31.9096 135.899 31.8766 135.827C31.7996 135.789 31.7276 135.756 31.6136 135.678C31.5746 135.642 31.5376 135.606 31.4676 135.53C31.3936 135.494 31.3196 135.452 31.2826 135.385C31.2826 135.385 31.2415 135.385 31.2415 135.343C31.2415 135.343 31.2046 135.309 31.1706 135.309C31.0976 135.197 31.0196 135.086 30.9476 135.015C30.9076 135.015 30.9076 135.015 30.8716 134.937C30.8346 134.937 30.8346 134.937 30.8346 134.865C30.7626 134.793 30.7626 134.749 30.6846 134.719C30.6506 134.637 30.6506 134.637 30.6506 134.601C30.6116 134.565 30.6116 134.565 30.6116 134.565C30.5406 134.457 30.5406 134.417 30.5016 134.376C30.5016 134.305 30.4655 134.267 30.4655 134.267C30.4655 134.231 30.4655 134.231 30.4655 134.195C30.4245 134.119 30.3925 134.119 30.3925 133.973C30.3505 133.937 30.3506 133.937 30.3506 133.897C30.3506 133.787 30.3156 133.749 30.3156 133.672C30.3156 133.637 30.3156 133.599 30.3156 133.525C30.3156 133.489 30.3156 133.489 30.3156 133.489V131.521C30.3106 131.594 30.3105 131.594 30.3105 131.741Z" fill="#2B2B2B"/>
<path d="M32.1313 128.993C29.7163 130.365 29.7163 132.593 32.0563 133.971C34.4393 135.45 38.3003 135.45 40.7153 133.971C43.0943 132.593 43.1343 130.364 40.7523 128.993C38.3763 127.542 34.4713 127.542 32.1313 128.993Z" fill="#979797"/>
<path d="M31.7246 99.4799C31.7246 99.5579 31.7246 99.5959 31.7246 99.6339C31.7246 99.7049 31.7246 99.7049 31.7246 99.7809C31.7246 99.7809 31.7626 99.8509 31.7626 99.8909C31.7966 99.9269 31.7966 99.9269 31.8366 100.005C31.8736 100.076 31.8736 100.076 31.8736 100.153C31.9066 100.189 31.9066 100.223 31.9436 100.299C32.0206 100.339 32.0206 100.372 32.0556 100.445C32.0956 100.445 32.1306 100.525 32.1306 100.525C32.1676 100.599 32.2786 100.67 32.3146 100.749C32.3556 100.749 32.4266 100.749 32.4266 100.815C32.4666 100.859 32.5006 100.893 32.6116 100.969C32.6116 100.969 32.6526 101.005 32.7276 101.045C32.7636 101.12 32.7966 101.149 32.8746 101.191C32.9126 101.191 32.9486 101.265 33.0206 101.307C33.2436 101.417 33.4706 101.487 33.6946 101.597C33.7276 101.641 33.8416 101.641 33.8416 101.641C34.0996 101.749 34.3236 101.785 34.5496 101.899C34.5846 101.899 34.5846 101.899 34.6546 101.899C34.8806 101.933 35.1026 101.933 35.3296 102.045C35.3996 102.045 35.4756 102.045 35.4756 102.045C35.7726 102.045 36.0366 102.078 36.2926 102.078H36.3686C36.6626 102.078 36.8886 102.045 37.1846 102.045C37.2586 102.045 37.2586 102.045 37.2956 102.045C37.5586 101.933 37.8156 101.933 37.9996 101.899C38.1126 101.899 38.1496 101.861 38.1886 101.861C38.4496 101.785 38.5946 101.75 38.8566 101.641C38.8566 101.641 38.8946 101.641 38.9696 101.641C39.1936 101.487 39.4496 101.417 39.6766 101.307C40.5656 100.748 41.0126 100.005 41.0126 99.2949L41.1626 130.918C41.1626 131.594 40.6766 132.37 39.7496 132.857C39.5646 133.004 39.3036 133.075 39.0806 133.191C39.0806 133.231 39.0386 133.231 39.0386 133.231C39.0066 133.231 38.9696 133.231 38.8936 133.231C38.7816 133.301 38.6676 133.335 38.5216 133.375C38.4486 133.447 38.3736 133.447 38.2616 133.447C38.1876 133.447 38.1876 133.487 38.1496 133.487C38.1126 133.487 38.0406 133.487 37.9996 133.487C37.8526 133.523 37.7436 133.597 37.5586 133.597C37.4846 133.635 37.4436 133.635 37.4436 133.635C37.2956 133.67 37.2956 133.67 37.2586 133.67C37.1846 133.67 37.1476 133.67 37.1106 133.67C36.9626 133.67 36.8476 133.67 36.6626 133.67C36.5916 133.67 36.5556 133.67 36.4746 133.67C36.4446 133.67 36.3686 133.67 36.3686 133.67C36.2926 133.67 36.1806 133.67 36.1406 133.67C35.9966 133.67 35.8476 133.67 35.6246 133.67C35.5866 133.67 35.5866 133.67 35.5866 133.67C35.5476 133.67 35.4746 133.635 35.4396 133.635C35.2896 133.597 35.1416 133.597 35.0276 133.523C34.9196 133.523 34.8406 133.487 34.7336 133.487C34.7336 133.487 34.6956 133.487 34.6546 133.487C34.4696 133.447 34.3236 133.335 34.1746 133.301C34.0996 133.301 34.0276 133.231 33.9886 133.231C33.8806 133.231 33.8416 133.231 33.7656 133.191C33.5406 133.075 33.3536 133.005 33.1376 132.857C33.0976 132.857 33.0976 132.857 33.0976 132.857C33.0206 132.815 33.0206 132.783 32.9486 132.743C32.8746 132.707 32.8366 132.707 32.7626 132.634C32.7266 132.594 32.7266 132.556 32.6516 132.556C32.6106 132.522 32.6106 132.482 32.5006 132.407H32.4666C32.4666 132.371 32.4666 132.371 32.4266 132.371C32.3556 132.262 32.2796 132.223 32.2406 132.113C32.1676 132.113 32.1676 132.113 32.1676 132.113V132.035C32.1306 131.965 32.0956 131.93 32.0206 131.888C32.0206 131.888 32.0206 131.814 32.0206 131.778C32.0206 131.778 31.9836 131.778 31.9836 131.742C31.9436 131.742 31.9066 131.664 31.9066 131.595L31.8736 131.52C31.8736 131.52 31.8736 131.52 31.8736 131.48C31.8736 131.44 31.8736 131.44 31.8366 131.37C31.8366 131.294 31.7966 131.294 31.7966 131.294C31.7966 131.256 31.7966 131.221 31.7966 131.221C31.7966 131.185 31.7966 131.147 31.7966 131.073C31.7626 131.073 31.7626 130.999 31.7626 130.999V130.961L31.7246 99.3369C31.7246 99.4089 31.7246 99.4459 31.7246 99.4799Z" fill="#3B3B3B"/>
<path d="M33.0609 97.406C31.2389 98.442 31.2389 100.188 33.0219 101.306C34.8809 102.306 37.8539 102.306 39.6779 101.306C41.5329 100.188 41.5329 98.442 39.7129 97.406C37.8539 96.323 34.8809 96.323 33.0609 97.406Z" fill="#979797"/>
<path d="M38.1907 101.861C38.4517 101.785 38.5967 101.75 38.8587 101.641C38.8587 101.641 38.8967 101.641 38.9717 101.641C39.1957 101.487 39.4517 101.417 39.6787 101.307C40.5677 100.748 41.0147 100.005 41.0147 99.2949L41.1647 130.918C41.1647 131.594 40.6787 132.37 39.7517 132.857C39.5667 133.004 39.3057 133.075 39.0827 133.191C39.0827 133.231 39.0407 133.231 39.0407 133.231C39.0087 133.231 38.9717 133.231 38.8957 133.231C38.7837 133.301 38.6697 133.335 38.5237 133.375C38.4507 133.447 38.3757 133.447 38.2637 133.447C38.1897 133.447 38.1897 133.487 38.1517 133.487C38.1147 133.487 38.0427 133.487 38.0017 133.487C38.0017 133.523 37.9667 133.523 37.9297 133.523V101.933C37.9667 101.899 38.0017 101.899 38.0017 101.899C38.1157 101.899 38.1527 101.861 38.1907 101.861Z" fill="#2B2B2B"/>
<path d="M34.1747 28.1303C34.1747 28.2373 34.2147 28.2763 34.2497 28.3163C34.2497 28.3943 34.2497 28.3943 34.2497 28.4263C34.3237 28.4643 34.4387 28.5373 34.4387 28.5753C34.4707 28.6453 34.5497 28.6453 34.5847 28.7233C34.6547 28.7233 34.6957 28.7573 34.7337 28.7573C34.8807 28.8683 35.0277 28.9463 35.1417 29.0233C35.2137 29.0233 35.2897 29.0233 35.2897 29.0233C35.3987 29.0233 35.4747 29.0593 35.5867 29.0973C35.5867 29.0973 35.7347 29.0973 35.8077 29.0973C35.8477 29.0973 35.8477 29.0973 35.8857 29.1693C35.9967 29.1693 36.1057 29.1693 36.1807 29.1693C36.2567 29.1693 36.2567 29.1693 36.2917 29.1693C36.3677 29.1693 36.5137 29.1693 36.6617 29.1693L36.7007 29.0973C36.8477 29.0973 36.9237 29.0973 37.0007 29.0593C37.0727 29.0593 37.0727 29.0593 37.1097 29.0233C37.1837 29.0233 37.2947 29.0233 37.4427 28.9473C37.5577 28.9093 37.6697 28.8693 37.7767 28.7583C38.1877 28.5373 38.4487 28.2373 38.4487 27.9043L38.5947 99.0003C38.5947 99.2953 38.4487 99.6333 37.9647 99.8913C37.8527 99.9273 37.7767 100.005 37.6697 100.077C37.6697 100.077 37.6697 100.077 37.5947 100.077C37.5587 100.077 37.4847 100.077 37.4437 100.113C37.3717 100.113 37.2957 100.153 37.2957 100.153C37.2587 100.153 37.2587 100.153 37.2587 100.189H37.1847C37.1107 100.189 37.0007 100.223 36.9617 100.223H36.8887C36.8887 100.223 36.8887 100.223 36.8477 100.223C36.8477 100.223 36.8477 100.223 36.7397 100.223C36.7007 100.223 36.6287 100.265 36.5547 100.265C36.5137 100.265 36.4747 100.265 36.4747 100.265C36.4747 100.265 36.4447 100.265 36.3687 100.265C36.3687 100.265 36.3687 100.265 36.3297 100.265C36.2577 100.265 36.1417 100.223 36.0717 100.223H36.0357C35.9587 100.223 35.8867 100.223 35.8477 100.189C35.8077 100.189 35.7717 100.189 35.7717 100.189C35.6647 100.153 35.5867 100.153 35.5127 100.113C35.4747 100.077 35.4397 100.077 35.3997 100.077C35.3997 100.077 35.3577 100.077 35.3297 100.077C35.2147 100.006 35.0667 99.9283 34.9197 99.8913C34.9197 99.8513 34.8807 99.8513 34.8807 99.8513L34.8417 99.7813C34.7347 99.7813 34.6957 99.7053 34.6557 99.7053C34.5857 99.6343 34.5507 99.5963 34.4707 99.5583C34.4707 99.4803 34.4707 99.4803 34.4707 99.4803V99.4463C34.4387 99.4463 34.4387 99.4103 34.4387 99.4103C34.4387 99.3363 34.3607 99.2973 34.3607 99.2633L34.3247 99.1873C34.3247 99.1113 34.3247 99.0413 34.3247 99.0023L34.1367 27.9443V27.9063C34.1367 27.9823 34.1367 28.0903 34.1747 28.1303Z" fill="#3B3B3B"/>
<path d="M34.7355 27.0158C33.8825 27.4937 33.8825 28.3177 34.7355 28.7597C35.5895 29.2427 36.9255 29.2427 37.7795 28.7597C38.5965 28.3177 38.5965 27.4928 37.7795 27.0158C36.9635 26.4947 35.5885 26.4947 34.7355 27.0158Z" fill="#434351"/>
<path d="M36.6637 29.1713L36.7026 29.0992C36.8496 29.0992 36.9257 29.0992 37.0027 29.0612C37.0747 29.0612 37.0747 29.0612 37.1117 29.0252C37.1857 29.0252 37.2966 29.0252 37.4446 28.9492C37.5596 28.9112 37.6717 28.8713 37.7787 28.7603C38.1897 28.5393 38.4507 28.2393 38.4507 27.9062L38.5966 99.0023C38.5966 99.2973 38.4506 99.6352 37.9666 99.8932C37.8546 99.9293 37.7787 100.007 37.6717 100.079C37.6717 100.079 37.6716 100.079 37.5966 100.079C37.5606 100.079 37.4866 100.079 37.4456 100.115C37.3736 100.115 37.2976 100.155 37.2976 100.155C37.2606 100.155 37.2607 100.155 37.2607 100.191H37.1866C37.1126 100.191 37.0027 100.225 36.9637 100.225H36.8907C36.8907 100.225 36.8906 100.225 36.8496 100.225C36.8496 100.225 36.8496 100.225 36.7416 100.225C36.7026 100.225 36.6306 100.267 36.5566 100.267V29.1732C36.5916 29.1712 36.5917 29.1713 36.6637 29.1713Z" fill="#2B2B2B"/>
<path d="M33.1402 25.7479C33.1402 25.7879 33.1402 25.8319 33.1402 25.8979C33.1402 25.8979 33.1722 25.8979 33.1722 25.9759V26.0469C33.2092 26.0849 33.2092 26.1209 33.2092 26.1209C33.2092 26.1209 33.2452 26.1909 33.2452 26.2309C33.2842 26.2689 33.3232 26.2689 33.3232 26.3449C33.3232 26.3449 33.3552 26.3449 33.3552 26.3809C33.3552 26.3809 33.3962 26.4179 33.4342 26.4179C33.4722 26.4919 33.5102 26.5629 33.5422 26.6029C33.5822 26.6029 33.5822 26.6029 33.6192 26.6409C33.6542 26.7189 33.6542 26.7189 33.6952 26.7189C33.7282 26.7499 33.7282 26.7499 33.7662 26.7879C33.8412 26.8279 33.8412 26.8659 33.8802 26.9039C33.9542 26.9039 33.9882 26.9039 34.0272 26.9339C34.1742 27.0499 34.3242 27.0879 34.4702 27.1599C34.5082 27.1999 34.5492 27.1999 34.5842 27.1999C34.6952 27.2379 34.7702 27.3099 34.8802 27.3099C34.9972 27.3459 35.1032 27.3839 35.2142 27.3839C35.2902 27.4589 35.4752 27.4589 35.5872 27.4589C35.5872 27.4589 35.6252 27.4589 35.6642 27.4889C35.8482 27.4889 36.0712 27.4889 36.1812 27.4889C36.1812 27.4889 36.2572 27.4889 36.2922 27.4889C36.4752 27.4889 36.6622 27.4889 36.8482 27.4889C36.8482 27.4589 36.8892 27.4589 36.8892 27.4589C37.0742 27.4589 37.2592 27.4589 37.4442 27.3839C37.4442 27.3839 37.4442 27.3839 37.4852 27.3839C37.6712 27.3099 37.7782 27.3099 37.9282 27.1989C37.9652 27.1989 37.9652 27.1989 37.9652 27.1989C38.1512 27.0879 38.2992 27.0499 38.4852 26.9329C39.0822 26.5609 39.4152 26.1189 39.4152 25.6699V27.6059C39.4152 28.0859 39.1182 28.5719 38.4852 28.9439C38.3752 29.0199 38.1892 29.0939 38.0012 29.1669C37.9662 29.2019 37.9662 29.2019 37.9292 29.2019C37.8542 29.2019 37.7452 29.2379 37.6712 29.2379C37.5962 29.3119 37.5602 29.3119 37.4852 29.3539H37.4442C37.3722 29.3539 37.2962 29.3539 37.2962 29.3539C37.2592 29.3879 37.1112 29.3879 37.0012 29.3879C36.9622 29.3879 36.9242 29.3879 36.8892 29.3879H36.8482C36.7792 29.3879 36.7402 29.3879 36.7012 29.4639C36.5912 29.4639 36.4742 29.4639 36.3682 29.4639C36.3682 29.4639 36.3292 29.4639 36.2922 29.4639H36.1812C36.1412 29.4639 36.1062 29.4639 36.0722 29.4639C35.9592 29.4639 35.8482 29.4639 35.7362 29.3879C35.7362 29.3879 35.7362 29.3879 35.7012 29.3879C35.6652 29.3879 35.5882 29.3879 35.5882 29.3879C35.4762 29.3879 35.4002 29.3879 35.2912 29.3879C35.2912 29.3879 35.2152 29.3879 35.2152 29.3539C35.1042 29.3539 34.9982 29.3119 34.8812 29.2379C34.8422 29.2379 34.7722 29.2379 34.7342 29.2379C34.6962 29.2019 34.6552 29.2019 34.5852 29.2019C34.5502 29.2019 34.5092 29.1669 34.4712 29.1669C34.3252 29.0949 34.1752 29.0209 34.0282 28.9439V28.9059L33.9562 28.8659C33.8432 28.7949 33.8432 28.7949 33.7682 28.7549C33.7302 28.7549 33.7302 28.7209 33.6972 28.7209C33.6972 28.6429 33.6562 28.6429 33.6212 28.6429C33.6212 28.6429 33.5842 28.6429 33.5842 28.6069V28.5729C33.5122 28.5349 33.4742 28.4619 33.4362 28.4239H33.3982C33.3982 28.3919 33.3572 28.3919 33.3572 28.3919C33.3572 28.3139 33.3252 28.2739 33.3252 28.2739C33.3252 28.2359 33.3252 28.2359 33.2862 28.2019L33.2472 28.1679C33.2472 28.1679 33.2472 28.0889 33.2112 28.0889V28.0529L33.1742 27.9809C33.1742 27.9809 33.1742 27.9809 33.1742 27.9029C33.1422 27.8329 33.1422 27.8329 33.1422 27.8329C33.1422 27.8329 33.1422 27.7599 33.1422 27.6819C33.1422 27.6819 33.1422 27.6819 33.1422 27.6479C33.1022 27.6479 33.1022 27.6479 33.1022 27.6479V25.6729C33.1002 25.6739 33.1002 25.7479 33.1402 25.7479Z" fill="#2B2B2B"/>
<path d="M34.0287 24.3441C32.7977 25.0481 32.7977 26.2711 34.0287 26.9371C35.2927 27.6831 37.2607 27.6831 38.4867 26.9371C39.7147 26.2711 39.7147 25.0481 38.4867 24.3441C37.2607 23.6301 35.2917 23.6301 34.0287 24.3441Z" fill="#3B3B3B"/>
<path d="M8.73383 52.1753L6.0918 50.6433L32.9218 35.1523L35.5598 36.6863L8.73383 52.1753Z" fill="#8DC63F"/>
<path d="M2.638 61.8096L0 60.2776L6.09198 50.6426L8.73401 52.1746L2.638 61.8096Z" fill="#98D343"/>
<path d="M35.5607 36.6855L35.5937 48.2856L8.76566 63.7776L2.63867 61.8095L8.73468 52.1745L35.5607 36.6855Z" fill="#518524"/>
<path d="M62.409 52.316L65.05 50.781L38.221 35.291L35.584 36.825L62.409 52.316Z" fill="#8DC63F"/>
<path d="M68.5032 61.9503L71.1422 60.4163L65.0492 50.7812L62.4082 52.3163L68.5032 61.9503Z" fill="#98D343"/>
<path d="M35.5838 36.8242L35.5488 48.4272L62.3778 63.9152L68.5038 61.9492L62.4088 52.3152L35.5838 36.8242Z" fill="#217F1C"/>
<defs>
<clipPath id="clip0_176_85838">
<rect width="24" height="24" fill="white" transform="translate(158 34)"/>
</clipPath>
</defs>
</svg>
