<svg width="510" height="168" viewBox="0 0 510 168" fill="none" xmlns="http://www.w3.org/2000/svg">
<g clip-path="url(#clip0_176_57238)">
<path d="M19.4116 140.963V144.801L0 156.105V152.267L19.4116 140.963Z" fill="#E1BD9A"/>
<path d="M87.5109 128.346L20.8906 166.534V127.395L87.5109 89.207V128.346Z" fill="#823130"/>
<path opacity="0.3" d="M87.5109 128.346L20.8906 166.534V127.395L87.5109 89.207V128.346Z" fill="#823130"/>
<path d="M87.5159 89.2071L20.8956 127.395L1.34375 116.188L67.964 78L87.5159 89.2071Z" fill="#823130"/>
<path d="M1.34375 116.188L20.8956 127.395V166.533L1.34375 155.322V116.188Z" fill="#823130"/>
<path opacity="0.3" d="M1.34375 116.188L20.8956 127.395V166.533L1.34375 155.322V116.188Z" fill="#823130"/>
<path d="M0 152.254V156.092L19.4116 167.206V163.368L0 152.254Z" fill="#E1BD9A"/>
<path d="M20.8933 162.695L1.34147 151.488L0 152.268L1.34147 155.321L20.8933 166.533L89 125.12L87.5136 124.508L20.8933 162.695Z" fill="#E1BD9A"/>
<path d="M88.9973 128.959L20.8906 168V164.167L88.9973 125.121V128.959Z" fill="#E1BD9A"/>
<path opacity="0.3" d="M88.9973 128.959L20.8906 168V164.167L88.9973 125.121V128.959Z" fill="#E1BD9A"/>
<path d="M1.34375 152.959V156.792L20.8956 167.999V164.166L1.34375 152.959Z" fill="#E1BD9A"/>
<path opacity="0.3" d="M0 152.254V156.092L20.8933 168V164.166L0 152.254Z" fill="#E1BD9A"/>
<path d="M3.35938 148.699V142.109L7.07063 144.235V150.824L3.35938 148.699Z" fill="#283036"/>
<path d="M6.81429 150.379L3.61719 148.55V142.555L6.81429 144.388V150.379Z" fill="#72B8CF"/>
<path opacity="0.5" d="M3.61719 147.07L6.81429 145.242V144.388L6.78157 144.369L3.61719 146.179V147.07Z" fill="#72B8CF"/>
<path opacity="0.5" d="M6.81429 145.85L3.61719 147.683V148.55L4.57071 149.093L6.81429 147.808V145.85Z" fill="#72B8CF"/>
<path d="M6.81429 147.102L3.61719 145.269V144.814L6.81429 146.643V147.102Z" fill="#283036"/>
<path d="M9.21094 152.082V145.492L12.9269 147.622V154.212L9.21094 152.082Z" fill="#283036"/>
<path d="M12.6659 153.768L9.46875 151.935V145.939L12.6659 147.772V153.768Z" fill="#72B8CF"/>
<path opacity="0.5" d="M9.46875 150.457L12.6659 148.624V147.771L12.6331 147.752L9.46875 149.566V150.457Z" fill="#72B8CF"/>
<path opacity="0.5" d="M12.6659 149.238L9.46875 151.071V151.934L10.4223 152.482L12.6659 151.197V149.238Z" fill="#72B8CF"/>
<path d="M12.6659 150.487L9.46875 148.659V148.199L12.6659 150.032V150.487Z" fill="#283036"/>
<path d="M15.0703 155.431V148.842L18.7862 150.972V157.562L15.0703 155.431Z" fill="#283036"/>
<path d="M18.5206 157.116L15.3281 155.283V149.287L18.5206 151.12V157.116Z" fill="#72B8CF"/>
<path opacity="0.5" d="M15.3281 153.807L18.5206 151.974V151.12L18.4878 151.102L15.3281 152.916V153.807Z" fill="#72B8CF"/>
<path opacity="0.5" d="M18.5206 152.588L15.3281 154.416V155.284L16.277 155.832L18.5206 154.546V152.588Z" fill="#72B8CF"/>
<path d="M18.5206 153.835L15.3281 152.006V151.547L18.5206 153.38V153.835Z" fill="#283036"/>
<path d="M3.35938 138.903V132.309L7.07063 134.439V141.028L3.35938 138.903Z" fill="#283036"/>
<path d="M6.81429 140.582L3.61719 138.749V132.758L6.81429 134.586V140.582Z" fill="#72B8CF"/>
<path opacity="0.5" d="M3.61719 137.274L6.81429 135.441V134.587L6.78157 134.568L3.61719 136.383V137.274Z" fill="#72B8CF"/>
<path opacity="0.5" d="M6.81429 136.053L3.61719 137.886V138.749L4.57071 139.297L6.81429 138.011V136.053Z" fill="#72B8CF"/>
<path d="M6.81429 137.306L3.61719 135.473V135.014L6.81429 136.847V137.306Z" fill="#283036"/>
<path d="M9.21094 142.285V135.695L12.9269 137.825V144.415L9.21094 142.285Z" fill="#283036"/>
<path d="M12.6659 143.965L9.46875 142.136V136.141L12.6659 137.974V143.965Z" fill="#72B8CF"/>
<path opacity="0.5" d="M9.46875 140.656L12.6659 138.828V137.974L12.6331 137.955L9.46875 139.77V140.656Z" fill="#72B8CF"/>
<path opacity="0.5" d="M12.6659 139.439L9.46875 141.268V142.136L10.4223 142.679L12.6659 141.398V139.439Z" fill="#72B8CF"/>
<path d="M12.6659 140.688L9.46875 138.855V138.4L12.6659 140.229V140.688Z" fill="#283036"/>
<path d="M15.0703 145.637V139.047L18.7862 141.177V147.767L15.0703 145.637Z" fill="#283036"/>
<path d="M18.5206 147.316L15.3281 145.488V139.492L18.5206 141.325V147.316Z" fill="#72B8CF"/>
<path opacity="0.5" d="M15.3281 144.007L18.5206 142.179V141.325L18.4878 141.307L15.3281 143.121V144.007Z" fill="#72B8CF"/>
<path opacity="0.5" d="M18.5206 142.793L15.3281 144.621V145.489L16.277 146.032L18.5206 144.751V142.793Z" fill="#72B8CF"/>
<path d="M18.5206 144.04L15.3281 142.211V141.752L18.5206 143.58V144.04Z" fill="#283036"/>
<path d="M3.35938 129.103V122.514L7.07063 124.644V131.233L3.35938 129.103Z" fill="#283036"/>
<path d="M6.81429 130.789L3.61719 128.956V122.965L6.81429 124.793V130.789Z" fill="#72B8CF"/>
<path opacity="0.5" d="M3.61719 127.479L6.81429 125.646V124.792L6.78157 124.773L3.61719 126.588V127.479Z" fill="#72B8CF"/>
<path opacity="0.5" d="M6.81429 126.26L3.61719 128.093V128.956L4.57071 129.504L6.81429 128.218V126.26Z" fill="#72B8CF"/>
<path d="M6.81429 127.511L3.61719 125.678V125.219L6.81429 127.052V127.511Z" fill="#283036"/>
<path d="M9.21094 132.492V125.902L12.9269 128.032V134.622L9.21094 132.492Z" fill="#283036"/>
<path d="M12.6659 134.174L9.46875 132.345V126.35L12.6659 128.183V134.174Z" fill="#72B8CF"/>
<path opacity="0.5" d="M9.46875 130.863L12.6659 129.035V128.181L12.6331 128.162L9.46875 129.972V130.863Z" fill="#72B8CF"/>
<path opacity="0.5" d="M12.6659 129.648L9.46875 131.477V132.345L10.4223 132.888L12.6659 131.602V129.648Z" fill="#72B8CF"/>
<path d="M12.6659 130.897L9.46875 129.064V128.609L12.6659 130.438V130.897Z" fill="#283036"/>
<path d="M15.0703 135.842V129.252L18.7862 131.377V137.972L15.0703 135.842Z" fill="#283036"/>
<path d="M18.5206 137.521L15.3281 135.693V129.697L18.5206 131.53V137.521Z" fill="#72B8CF"/>
<path opacity="0.5" d="M15.3281 134.213L18.5206 132.384V131.53L18.4878 131.512L15.3281 133.322V134.213Z" fill="#72B8CF"/>
<path opacity="0.5" d="M18.5206 132.996L15.3281 134.824V135.692L16.277 136.235L18.5206 134.95V132.996Z" fill="#72B8CF"/>
<path d="M18.5206 134.245L15.3281 132.412V131.957L18.5206 133.785V134.245Z" fill="#283036"/>
<path d="M32.5753 152.082V145.492L28.8594 147.622V154.212L32.5753 152.082Z" fill="#283036"/>
<path d="M29.125 153.768L32.3174 151.935V145.939L29.125 147.772V153.768Z" fill="#72B8CF"/>
<path opacity="0.5" d="M32.3174 150.457L29.125 148.624V147.771L29.153 147.752L32.3174 149.566V150.457Z" fill="#72B8CF"/>
<path opacity="0.5" d="M29.125 149.238L32.3174 151.071V151.934L31.3639 152.482L29.125 151.197V149.238Z" fill="#72B8CF"/>
<path d="M29.125 150.487L32.3174 148.659V148.199L29.125 150.032V150.487Z" fill="#283036"/>
<path d="M26.7159 155.433V148.844L23 150.974V157.563L26.7159 155.433Z" fill="#283036"/>
<path d="M23.2656 157.118L26.4581 155.285V149.289L23.2656 151.122V157.118Z" fill="#72B8CF"/>
<path opacity="0.5" d="M26.4581 153.809L23.2656 151.976V151.122L23.2983 151.104L26.4581 152.918V153.809Z" fill="#72B8CF"/>
<path opacity="0.5" d="M23.2656 152.59L26.4581 154.418V155.286L25.5092 155.834L23.2656 154.548V152.59Z" fill="#72B8CF"/>
<path d="M23.2656 153.837L26.4581 152.008V151.549L23.2656 153.382V153.837Z" fill="#283036"/>
<path d="M32.5753 142.287V135.697L28.8594 137.827V144.417L32.5753 142.287Z" fill="#283036"/>
<path d="M29.125 143.967L32.3174 142.138V136.143L29.125 137.976V143.967Z" fill="#72B8CF"/>
<path opacity="0.5" d="M32.3174 140.658L29.125 138.829V137.976L29.153 137.957L32.3174 139.772V140.658Z" fill="#72B8CF"/>
<path opacity="0.5" d="M29.125 139.441L32.3174 141.27V142.138L31.3639 142.681L29.125 141.4V139.441Z" fill="#72B8CF"/>
<path d="M29.125 140.69L32.3174 138.857V138.402L29.125 140.231V140.69Z" fill="#283036"/>
<path d="M26.7159 145.638V139.049L23 141.179V147.769L26.7159 145.638Z" fill="#283036"/>
<path d="M23.2656 147.318L26.4581 145.49V139.494L23.2656 141.327V147.318Z" fill="#72B8CF"/>
<path opacity="0.5" d="M26.4581 144.009L23.2656 142.181V141.327L23.2983 141.309L26.4581 143.123V144.009Z" fill="#72B8CF"/>
<path opacity="0.5" d="M23.2656 142.793L26.4581 144.621V145.489L25.5092 146.032L23.2656 144.751V142.793Z" fill="#72B8CF"/>
<path d="M23.2656 144.042L26.4581 142.213V141.754L23.2656 143.582V144.042Z" fill="#283036"/>
<path d="M32.5753 132.49V125.9L28.8594 128.03V134.62L32.5753 132.49Z" fill="#283036"/>
<path d="M29.125 134.172L32.3174 132.343V126.348L29.125 128.181V134.172Z" fill="#72B8CF"/>
<path opacity="0.5" d="M32.3174 130.861L29.125 129.033V128.179L29.153 128.16L32.3174 129.97V130.861Z" fill="#72B8CF"/>
<path opacity="0.5" d="M29.125 129.646L32.3174 131.475V132.343L31.3639 132.886L29.125 131.6V129.646Z" fill="#72B8CF"/>
<path d="M29.125 130.895L32.3174 129.062V128.607L29.125 130.436V130.895Z" fill="#283036"/>
<path d="M26.7159 135.842V129.252L23 131.377V137.972L26.7159 135.842Z" fill="#283036"/>
<path d="M23.2656 137.521L26.4581 135.693V129.697L23.2656 131.53V137.521Z" fill="#72B8CF"/>
<path opacity="0.5" d="M26.4581 134.213L23.2656 132.384V131.53L23.2983 131.512L26.4581 133.322V134.213Z" fill="#72B8CF"/>
<path opacity="0.5" d="M23.2656 132.998L26.4581 134.826V135.694L25.5092 136.237L23.2656 134.952V132.998Z" fill="#72B8CF"/>
<path d="M23.2656 134.245L26.4581 132.412V131.957L23.2656 133.785V134.245Z" fill="#283036"/>
<path d="M85.3097 121.971V115.381L81.5938 117.511V124.101L85.3097 121.971Z" fill="#283036"/>
<path d="M81.8516 123.655L85.0487 121.822V115.826L81.8516 117.659V123.655Z" fill="#72B8CF"/>
<path opacity="0.5" d="M85.0487 120.346L81.8516 118.513V117.659L81.8843 117.641L85.0487 119.455V120.346Z" fill="#72B8CF"/>
<path opacity="0.5" d="M81.8516 119.125L85.0487 120.958V121.821L84.0951 122.369L81.8516 121.083V119.125Z" fill="#72B8CF"/>
<path d="M81.8516 120.374L85.0487 118.545V118.086L81.8516 119.919V120.374Z" fill="#283036"/>
<path d="M79.4503 125.32V118.73L75.7344 120.861V127.45L79.4503 125.32Z" fill="#283036"/>
<path d="M76 127.004L79.1924 125.171V119.176L76 121.009V127.004Z" fill="#72B8CF"/>
<path opacity="0.5" d="M79.1924 123.696L76 121.863V121.009L76.0327 120.99L79.1924 122.805V123.696Z" fill="#72B8CF"/>
<path opacity="0.5" d="M76 122.475L79.1924 124.303V125.171L78.2436 125.718L76 124.433V122.475Z" fill="#72B8CF"/>
<path d="M76 123.723L79.1924 121.895V121.436L76 123.269V123.723Z" fill="#283036"/>
<path d="M85.3097 112.174V105.584L81.5938 107.714V114.304L85.3097 112.174Z" fill="#283036"/>
<path d="M81.8516 113.853L85.0487 112.025V106.029L81.8516 107.862V113.853Z" fill="#72B8CF"/>
<path opacity="0.5" d="M85.0487 110.545L81.8516 108.716V107.862L81.8843 107.844L85.0487 109.658V110.545Z" fill="#72B8CF"/>
<path opacity="0.5" d="M81.8516 109.328L85.0487 111.157V112.024L84.0951 112.572L81.8516 111.286V109.328Z" fill="#72B8CF"/>
<path d="M81.8516 110.577L85.0487 108.744V108.289L81.8516 110.117V110.577Z" fill="#283036"/>
<path d="M79.4503 115.523V108.934L75.7344 111.064V117.653L79.4503 115.523Z" fill="#283036"/>
<path d="M76 117.205L79.1924 115.377V109.381L76 111.214V117.205Z" fill="#72B8CF"/>
<path opacity="0.5" d="M79.1924 113.894L76 112.066V111.212L76.0327 111.193L79.1924 113.008V113.894Z" fill="#72B8CF"/>
<path opacity="0.5" d="M76 112.68L79.1924 114.508V115.376L78.2436 115.919L76 114.633V112.68Z" fill="#72B8CF"/>
<path d="M76 113.928L79.1924 112.095V111.641L76 113.469V113.928Z" fill="#283036"/>
<path d="M85.3097 102.377V95.7871L81.5938 97.9171V104.507L85.3097 102.377Z" fill="#283036"/>
<path d="M81.8516 104.056L85.0487 102.228V96.2324L81.8516 98.0655V104.056Z" fill="#72B8CF"/>
<path opacity="0.5" d="M85.0487 100.748L81.8516 98.9193V98.0654L81.8843 98.0469L85.0487 99.8567V100.748Z" fill="#72B8CF"/>
<path opacity="0.5" d="M81.8516 99.5332L85.0487 101.362V102.229L84.0951 102.772L81.8516 101.487V99.5332Z" fill="#72B8CF"/>
<path d="M81.8516 100.78L85.0487 98.947V98.4922L81.8516 100.321V100.78Z" fill="#283036"/>
<path d="M79.4503 105.728V99.1387L75.7344 101.264V107.858L79.4503 105.728Z" fill="#283036"/>
<path d="M76 107.408L79.1924 105.58V99.584L76 101.417V107.408Z" fill="#72B8CF"/>
<path opacity="0.5" d="M79.1924 104.099L76 102.271V101.417L76.0327 101.398L79.1924 103.208V104.099Z" fill="#72B8CF"/>
<path opacity="0.5" d="M76 102.883L79.1924 104.711V105.579L78.2436 106.122L76 104.837V102.883Z" fill="#72B8CF"/>
<path d="M76 104.132L79.1924 102.299V101.844L76 103.672V104.132Z" fill="#283036"/>
<path d="M82.7132 143.805L43.6562 166.256V125.651L82.7132 103.246V143.805Z" fill="#823130"/>
<path opacity="0.3" d="M82.7132 143.805L43.6562 166.256V125.651L82.7132 103.246V143.805Z" fill="#823130"/>
<path d="M82.7103 103.246L43.6533 125.65L33.875 119.989L72.932 97.584L82.7103 103.246Z" fill="#823130"/>
<path d="M33.875 119.988L43.6533 125.65V166.255L33.875 160.598V119.988Z" fill="#823130"/>
<path opacity="0.3" d="M33.875 119.988L43.6533 125.65V166.255L33.875 160.598V119.988Z" fill="#823130"/>
<path d="M56.8019 149.748V143.158L53.0859 145.288V151.878L56.8019 149.748Z" fill="#283036"/>
<path d="M53.3438 151.433L56.5362 149.6V143.609L53.3438 145.438V151.433Z" fill="#72B8CF"/>
<path opacity="0.5" d="M56.5362 148.123L53.3438 146.29V145.437L53.3718 145.418L56.5362 147.232V148.123Z" fill="#72B8CF"/>
<path opacity="0.5" d="M53.3438 146.904L56.5362 148.737V149.6L55.5873 150.148L53.3438 148.863V146.904Z" fill="#72B8CF"/>
<path d="M53.3438 148.158L56.5362 146.325V145.865L53.3438 147.698V148.158Z" fill="#283036"/>
<path d="M50.9456 153.099V146.51L47.2344 148.64V155.229L50.9456 153.099Z" fill="#283036"/>
<path d="M47.4922 154.785L50.6893 152.952V146.961L47.4922 148.789V154.785Z" fill="#72B8CF"/>
<path opacity="0.5" d="M50.6893 151.475L47.4922 149.642V148.788L47.5249 148.77L50.6893 150.584V151.475Z" fill="#72B8CF"/>
<path opacity="0.5" d="M47.4922 150.256L50.6893 152.089V152.952L49.7358 153.5L47.4922 152.214V150.256Z" fill="#72B8CF"/>
<path d="M47.4922 151.507L50.6893 149.674V149.215L47.4922 151.048V151.507Z" fill="#283036"/>
<path d="M62.6566 136.568V129.979L58.9453 132.109V138.698L62.6566 136.568Z" fill="#283036"/>
<path d="M59.2031 138.254L62.4002 136.421V130.426L59.2031 132.259V138.254Z" fill="#72B8CF"/>
<path opacity="0.5" d="M62.4002 134.944L59.2031 133.111V132.257L59.2358 132.238L62.4002 134.053V134.944Z" fill="#72B8CF"/>
<path opacity="0.5" d="M59.2031 133.725L62.4002 135.553V136.421L61.4467 136.968L59.2031 135.683V133.725Z" fill="#72B8CF"/>
<path d="M59.2031 134.973L62.4002 133.145V132.686L59.2031 134.519V134.973Z" fill="#283036"/>
<path d="M56.8019 139.951V133.361L53.0859 135.491V142.081L56.8019 139.951Z" fill="#283036"/>
<path d="M53.3438 141.637L56.5362 139.804V133.812L53.3438 135.641V141.637Z" fill="#72B8CF"/>
<path opacity="0.5" d="M56.5362 138.327L53.3438 136.494V135.64L53.3718 135.621L56.5362 137.436V138.327Z" fill="#72B8CF"/>
<path opacity="0.5" d="M53.3438 137.107L56.5362 138.94V139.804L55.5873 140.351L53.3438 139.066V137.107Z" fill="#72B8CF"/>
<path d="M53.3438 138.359L56.5362 136.526V136.066L53.3438 137.899V138.359Z" fill="#283036"/>
<path d="M50.9456 143.303V136.713L47.2344 138.843V145.433L50.9456 143.303Z" fill="#283036"/>
<path d="M47.4922 144.988L50.6893 143.155V137.164L47.4922 138.992V144.988Z" fill="#72B8CF"/>
<path opacity="0.5" d="M50.6893 141.678L47.4922 139.845V138.991L47.5249 138.973L50.6893 140.787V141.678Z" fill="#72B8CF"/>
<path opacity="0.5" d="M47.4922 140.459L50.6893 142.292V143.155L49.7358 143.703L47.4922 142.417V140.459Z" fill="#72B8CF"/>
<path d="M47.4922 141.71L50.6893 139.877V139.418L47.4922 141.251V141.71Z" fill="#283036"/>
<path d="M74.3722 129.836V123.246L70.6562 125.371V131.961L74.3722 129.836Z" fill="#283036"/>
<path d="M70.9219 131.515L74.1143 129.687V123.691L70.9219 125.52V131.515Z" fill="#72B8CF"/>
<path opacity="0.5" d="M74.1143 128.207L70.9219 126.374V125.52L70.9499 125.506L74.1143 127.316V128.207Z" fill="#72B8CF"/>
<path opacity="0.5" d="M70.9219 126.986L74.1143 128.819V129.687L73.1608 130.23L70.9219 128.945V126.986Z" fill="#72B8CF"/>
<path d="M70.9219 128.24L74.1143 126.407V125.947L70.9219 127.78V128.24Z" fill="#283036"/>
<path d="M68.5128 133.219V126.629L64.7969 128.759V135.349L68.5128 133.219Z" fill="#283036"/>
<path d="M65.0625 134.903L68.2549 133.07V127.074L65.0625 128.907V134.903Z" fill="#72B8CF"/>
<path opacity="0.5" d="M68.2549 131.594L65.0625 129.761V128.907L65.0952 128.889L68.2549 130.703V131.594Z" fill="#72B8CF"/>
<path opacity="0.5" d="M65.0625 130.373L68.2549 132.201V133.069L67.3061 133.617L65.0625 132.331V130.373Z" fill="#72B8CF"/>
<path d="M65.0625 131.622L68.2549 129.793V129.334L65.0625 131.167V131.622Z" fill="#283036"/>
<path d="M80.2269 126.484V119.895L76.5156 122.025V128.614L80.2269 126.484Z" fill="#283036"/>
<path d="M76.7734 128.17L79.9705 126.337V120.346L76.7734 122.174V128.17Z" fill="#72B8CF"/>
<path opacity="0.5" d="M79.9705 124.86L76.7734 123.027V122.173L76.8062 122.154L79.9705 123.969V124.86Z" fill="#72B8CF"/>
<path opacity="0.5" d="M76.7734 123.641L79.9705 125.474V126.337L79.017 126.884L76.7734 125.599V123.641Z" fill="#72B8CF"/>
<path d="M76.7734 124.892L79.9705 123.059V122.6L76.7734 124.433V124.892Z" fill="#283036"/>
<path d="M74.3566 139.637V133.047L70.6406 135.172V141.767L74.3566 139.637Z" fill="#283036"/>
<path d="M70.8984 141.318L74.0955 139.49V133.494L70.8984 135.327V141.318Z" fill="#72B8CF"/>
<path opacity="0.5" d="M74.0955 138.007L70.8984 136.179V135.325L70.9312 135.307L74.0955 137.116V138.007Z" fill="#72B8CF"/>
<path opacity="0.5" d="M70.8984 136.787L74.0955 138.62V139.488L73.142 140.031L70.8984 138.745V136.787Z" fill="#72B8CF"/>
<path d="M70.8984 138.04L74.0955 136.207V135.752L70.8984 137.58V138.04Z" fill="#283036"/>
<path d="M80.2113 136.287V129.697L76.5 131.827V138.417L80.2113 136.287Z" fill="#283036"/>
<path d="M76.7578 137.973L79.9549 136.139V130.148L76.7578 131.977V137.973Z" fill="#72B8CF"/>
<path opacity="0.5" d="M79.9549 134.663L76.7578 132.829V131.976L76.7905 131.957L79.9549 133.772V134.663Z" fill="#72B8CF"/>
<path opacity="0.5" d="M76.7578 133.443L79.9549 135.276V136.14L79.0014 136.687L76.7578 135.402V133.443Z" fill="#72B8CF"/>
<path d="M76.7578 134.695L79.9549 132.862V132.402L76.7578 134.235V134.695Z" fill="#283036"/>
<path d="M62.6566 126.791V120.201L58.9453 122.331V128.921L62.6566 126.791Z" fill="#283036"/>
<path d="M59.2031 128.473L62.4002 126.644V120.648L59.2031 122.481V128.473Z" fill="#72B8CF"/>
<path opacity="0.5" d="M62.4002 125.162L59.2031 123.333V122.48L59.2358 122.461L62.4002 124.275V125.162Z" fill="#72B8CF"/>
<path opacity="0.5" d="M59.2031 123.947L62.4002 125.776V126.643L61.4467 127.191L59.2031 125.906V123.947Z" fill="#72B8CF"/>
<path d="M59.2031 125.196L62.4002 123.363V122.908L59.2031 124.737V125.196Z" fill="#283036"/>
<path d="M56.8019 130.174V123.584L53.0859 125.714V132.304L56.8019 130.174Z" fill="#283036"/>
<path d="M53.3438 131.86L56.5362 130.027V124.031L53.3438 125.864V131.86Z" fill="#72B8CF"/>
<path opacity="0.5" d="M56.5362 128.549L53.3438 126.716V125.862L53.3718 125.844L56.5362 127.658V128.549Z" fill="#72B8CF"/>
<path opacity="0.5" d="M53.3438 127.33L56.5362 129.163V130.026L55.5873 130.574L53.3438 129.288V127.33Z" fill="#72B8CF"/>
<path d="M53.3438 128.582L56.5362 126.748V126.289L53.3438 128.122V128.582Z" fill="#283036"/>
<path d="M50.9456 133.525V126.936L47.2344 129.066V135.655L50.9456 133.525Z" fill="#283036"/>
<path d="M47.4922 135.21L50.6893 133.377V127.381L47.4922 129.214V135.21Z" fill="#72B8CF"/>
<path opacity="0.5" d="M50.6893 131.901L47.4922 130.068V129.214L47.5249 129.195L50.6893 131.01V131.901Z" fill="#72B8CF"/>
<path opacity="0.5" d="M47.4922 130.682L50.6893 132.515V133.378L49.7358 133.925L47.4922 132.64V130.682Z" fill="#72B8CF"/>
<path d="M47.4922 131.928L50.6893 130.1V129.641L47.4922 131.474V131.928Z" fill="#283036"/>
<path d="M74.3722 120.057V113.463L70.6562 115.593V122.183L74.3722 120.057Z" fill="#283036"/>
<path d="M70.9219 121.738L74.1143 119.905V113.914L70.9219 115.742V121.738Z" fill="#72B8CF"/>
<path opacity="0.5" d="M74.1143 118.428L70.9219 116.595V115.741L70.9499 115.723L74.1143 117.537V118.428Z" fill="#72B8CF"/>
<path opacity="0.5" d="M70.9219 117.207L74.1143 119.04V119.903L73.1608 120.451L70.9219 119.165V117.207Z" fill="#72B8CF"/>
<path d="M70.9219 118.46L74.1143 116.627V116.168L70.9219 118.001V118.46Z" fill="#283036"/>
<path d="M68.5128 123.441V116.852L64.7969 118.982V125.571L68.5128 123.441Z" fill="#283036"/>
<path d="M65.0625 125.121L68.2549 123.293V117.297L65.0625 119.13V125.121Z" fill="#72B8CF"/>
<path opacity="0.5" d="M68.2549 121.812L65.0625 119.984V119.13L65.0952 119.111L68.2549 120.926V121.812Z" fill="#72B8CF"/>
<path opacity="0.5" d="M65.0625 120.598L68.2549 122.426V123.294L67.3061 123.841L65.0625 122.556V120.598Z" fill="#72B8CF"/>
<path d="M65.0625 121.844L68.2549 120.016V119.557L65.0625 121.385V121.844Z" fill="#283036"/>
<path d="M80.2269 116.707V110.117L76.5156 112.247V118.837L80.2269 116.707Z" fill="#283036"/>
<path d="M76.7734 118.39L79.9705 116.557V110.566L76.7734 112.395V118.39Z" fill="#72B8CF"/>
<path opacity="0.5" d="M79.9705 115.082L76.7734 113.249V112.396L76.8062 112.377L79.9705 114.191V115.082Z" fill="#72B8CF"/>
<path opacity="0.5" d="M76.7734 113.861L79.9705 115.694V116.558L79.017 117.105L76.7734 115.82V113.861Z" fill="#72B8CF"/>
<path d="M76.7734 115.115L79.9705 113.282V112.822L76.7734 114.655V115.115Z" fill="#283036"/>
<path d="M45.7557 121.493L45.0312 121.896V118.931L45.7557 118.527V121.493Z" fill="#283036"/>
<path opacity="0.3" d="M45.7557 121.493L45.0312 121.896V118.931L45.7557 118.527V121.493Z" fill="#283036"/>
<path d="M45.7593 118.527L45.0349 118.931L44.1094 118.415L44.8339 118.012L45.7593 118.527Z" fill="#283036"/>
<path d="M44.1094 118.416L45.0349 118.931V121.896L44.1094 121.381V118.416Z" fill="#283036"/>
<path opacity="0.3" d="M44.1094 118.416L45.0349 118.931V121.896L44.1094 121.381V118.416Z" fill="#283036"/>
<path d="M51.7198 118.066L51 118.47V115.505L51.7198 115.105V118.066Z" fill="#283036"/>
<path opacity="0.3" d="M51.7198 118.066L51 118.47V115.505L51.7198 115.105V118.066Z" fill="#283036"/>
<path d="M51.7234 115.106L51.0036 115.505L50.0781 114.99L50.8026 114.586L51.7234 115.106Z" fill="#283036"/>
<path d="M50.0781 114.988L51.0036 115.503V118.469L50.0781 117.954V114.988Z" fill="#283036"/>
<path opacity="0.3" d="M50.0781 114.988L51.0036 115.503V118.469L50.0781 117.954V114.988Z" fill="#283036"/>
<path d="M57.701 114.647L56.9766 115.046V112.085L57.701 111.682V114.647Z" fill="#283036"/>
<path opacity="0.3" d="M57.701 114.647L56.9766 115.046V112.085L57.701 111.682V114.647Z" fill="#283036"/>
<path d="M57.7 111.681L56.9755 112.085L56.0547 111.565L56.7745 111.166L57.7 111.681Z" fill="#283036"/>
<path d="M56.0547 111.566L56.9755 112.086V115.047L56.0547 114.532V111.566Z" fill="#283036"/>
<path opacity="0.3" d="M56.0547 111.566L56.9755 112.086V115.047L56.0547 114.532V111.566Z" fill="#283036"/>
<path d="M63.6776 111.221L62.9531 111.625V108.66L63.6776 108.256V111.221Z" fill="#283036"/>
<path opacity="0.3" d="M63.6776 111.221L62.9531 111.625V108.66L63.6776 108.256V111.221Z" fill="#283036"/>
<path d="M63.6734 108.257L62.9489 108.661L62.0234 108.146L62.7479 107.742L63.6734 108.257Z" fill="#283036"/>
<path d="M62.0234 108.145L62.9489 108.66V111.625L62.0234 111.105V108.145Z" fill="#283036"/>
<path opacity="0.3" d="M62.0234 108.145L62.9489 108.66V111.625L62.0234 111.105V108.145Z" fill="#283036"/>
<path d="M69.6417 107.797L68.9219 108.201V105.236L69.6417 104.832V107.797Z" fill="#283036"/>
<path opacity="0.3" d="M69.6417 107.797L68.9219 108.201V105.236L69.6417 104.832V107.797Z" fill="#283036"/>
<path d="M69.6453 104.833L68.9255 105.237L68 104.722L68.7245 104.318L69.6453 104.833Z" fill="#283036"/>
<path d="M68 104.721L68.9255 105.236V108.201L68 107.686V104.721Z" fill="#283036"/>
<path opacity="0.3" d="M68 104.721L68.9255 105.236V108.201L68 107.686V104.721Z" fill="#283036"/>
<path d="M75.6151 104.372L74.8906 104.775V101.81L75.6151 101.406V104.372Z" fill="#283036"/>
<path opacity="0.3" d="M75.6151 104.372L74.8906 104.775V101.81L75.6151 101.406V104.372Z" fill="#283036"/>
<path d="M75.614 101.408L74.8896 101.811L73.9688 101.296L74.6886 100.893L75.614 101.408Z" fill="#283036"/>
<path d="M73.9688 101.295L74.8896 101.81V104.775L73.9688 104.26V101.295Z" fill="#283036"/>
<path opacity="0.3" d="M73.9688 101.295L74.8896 101.81V104.775L73.9688 104.26V101.295Z" fill="#283036"/>
<path d="M33.8828 156.824V160.657L43.6471 166.249L42.17 161.618L33.8828 156.824Z" fill="#E1BD9A"/>
<path d="M43.6471 160.946L33.8828 155.279V156.834L35.2243 159.892L43.6471 164.783L84.1998 139.093L82.7134 138.48L43.6471 160.946Z" fill="#E1BD9A"/>
<path d="M84.2011 142.932L43.6484 166.251V162.417L84.2011 139.094V142.932Z" fill="#E1BD9A"/>
<path opacity="0.3" d="M84.2011 142.932L43.6484 166.251V162.417L84.2011 139.094V142.932Z" fill="#E1BD9A"/>
<path d="M35.2266 157.525V161.359L43.6493 166.25V162.417L35.2266 157.525Z" fill="#E1BD9A"/>
<path opacity="0.3" d="M33.8828 156.824V160.657L43.6471 166.249V162.416L33.8828 156.824Z" fill="#E1BD9A"/>
<path d="M68.6603 146.561L60.2656 151.391V156.204H61.1163L68.6603 151.865V146.561Z" fill="#823130"/>
<path opacity="0.3" d="M68.6603 146.561L60.2656 151.391V156.204H61.1163L68.6603 151.865V146.561Z" fill="#823130"/>
<path d="M67.2181 152.708V144.531L62.6094 147.172V155.349L67.2181 152.708Z" fill="#283036"/>
<path d="M62.9375 154.797L66.9012 152.523V145.084L62.9375 147.358V154.797Z" fill="#72B8CF"/>
<path opacity="0.5" d="M66.9012 150.689L62.9375 148.415V147.357L62.9749 147.334L66.9012 149.585V150.689Z" fill="#72B8CF"/>
<path opacity="0.5" d="M62.9375 149.176L66.9012 151.45V152.522L65.7186 153.199L62.9375 151.603V149.176Z" fill="#72B8CF"/>
<path d="M64.6641 153.803L65.1595 153.515V146.076L64.6641 146.364V153.803Z" fill="#283036"/>
<path d="M76.0244 149.016C76.0244 148.209 75.3841 147.55 74.5801 147.513C74.2763 147.207 73.8556 147.012 73.3882 147.012C73.0517 147.012 72.7432 147.109 72.4814 147.281C72.3505 147.225 72.2056 147.193 72.0561 147.193C71.4625 147.193 70.9857 147.666 70.9764 148.251C70.5978 148.608 70.3594 149.114 70.3594 149.675C70.3594 150.126 70.5136 150.539 70.7707 150.873C70.7707 150.887 70.766 150.901 70.766 150.914C70.766 151.624 71.3456 152.195 72.0561 152.195C72.2804 152.195 72.4908 152.135 72.6731 152.033C72.8741 152.14 73.1031 152.195 73.3461 152.195C73.5658 152.195 73.7715 152.144 73.9538 152.061C74.0847 152.116 74.2295 152.144 74.3838 152.144C74.9727 152.144 75.4542 151.694 75.5103 151.123C75.529 151.105 75.5476 151.086 75.5617 151.068C75.8374 150.803 76.0104 150.436 76.0104 150.023C76.0104 149.852 75.9777 149.689 75.9263 149.536C75.9917 149.378 76.0244 149.202 76.0244 149.016Z" fill="#005750"/>
<path opacity="0.3" d="M74.5294 148.445C74.5294 147.963 74.1461 147.568 73.6646 147.545C73.4824 147.359 73.23 147.248 72.9495 147.248C72.7485 147.248 72.5616 147.308 72.4073 147.41C72.3278 147.378 72.2437 147.359 72.1549 147.359C71.7997 147.359 71.5146 147.643 71.5099 147.991C71.2808 148.204 71.1406 148.506 71.1406 148.84C71.1406 149.109 71.2341 149.36 71.3884 149.554C71.3884 149.564 71.3837 149.573 71.3837 149.578C71.3837 150 71.7296 150.343 72.1549 150.343C72.2905 150.343 72.412 150.306 72.5242 150.246C72.6457 150.306 72.7812 150.343 72.9261 150.343C73.057 150.343 73.1785 150.315 73.2907 150.264C73.3702 150.297 73.459 150.315 73.5478 150.315C73.903 150.315 74.1882 150.046 74.2209 149.703C74.2302 149.694 74.2396 149.68 74.2536 149.67C74.4172 149.513 74.52 149.29 74.52 149.049C74.52 148.947 74.5013 148.849 74.4686 148.756C74.506 148.663 74.5294 148.557 74.5294 148.445Z" fill="#005750"/>
<g opacity="0.3">
<path d="M76.0213 149.016C76.0213 148.214 75.3903 147.564 74.5957 147.518C74.7359 147.648 74.8574 147.801 74.9462 147.982C75.1425 148.385 75.1519 148.826 75.0023 149.216C75.1986 149.638 75.021 150.144 74.5957 150.348C74.4882 150.399 74.376 150.427 74.2591 150.432C74.1329 150.645 73.9413 150.822 73.7029 150.938C73.3664 151.1 72.9971 151.109 72.6746 150.993C72.0857 151.244 71.3939 150.993 71.1134 150.418C71.048 150.283 71.0106 150.144 70.9966 150.005C70.9031 149.917 70.8237 149.81 70.7629 149.685C70.618 149.392 70.6133 149.068 70.7161 148.784C70.7208 148.766 70.7302 148.747 70.7348 148.729C70.7208 148.687 70.7021 148.636 70.6881 148.59C70.4731 148.9 70.3516 149.276 70.3516 149.685C70.3516 150.135 70.5058 150.548 70.7629 150.882C70.7629 150.896 70.7582 150.91 70.7582 150.924C70.7582 151.634 71.3378 152.205 72.0483 152.205C72.2726 152.205 72.483 152.144 72.6653 152.042C72.8662 152.149 73.0953 152.205 73.3383 152.205C73.558 152.205 73.7637 152.154 73.946 152.07C74.0768 152.126 74.2217 152.154 74.376 152.154C74.9649 152.154 75.4464 151.703 75.5024 151.133C75.5211 151.114 75.5398 151.095 75.5539 151.077C75.8296 150.812 76.0026 150.446 76.0026 150.033C76.0026 149.861 75.9699 149.699 75.9184 149.546C75.9886 149.378 76.0213 149.202 76.0213 149.016Z" fill="#005750"/>
<path d="M74.2188 147.238C74.2234 147.248 74.2234 147.252 74.2281 147.261C74.2935 147.294 74.359 147.336 74.4197 147.378C74.359 147.326 74.2889 147.28 74.2188 147.238Z" fill="#005750"/>
</g>
<g opacity="0.3">
<path d="M76.0197 149.017C76.0197 148.441 75.6926 147.94 75.2111 147.689C75.4916 147.945 75.6739 148.307 75.6739 148.72C75.6739 148.891 75.6411 149.058 75.585 149.212C75.6365 149.355 75.6645 149.504 75.6645 149.666C75.6645 150.047 75.5056 150.39 75.2485 150.636C75.2345 150.655 75.2158 150.669 75.2018 150.687C75.1504 151.221 74.7016 151.639 74.1501 151.639C74.0099 151.639 73.8743 151.611 73.7481 151.56C73.5752 151.639 73.3835 151.685 73.1825 151.685C72.9535 151.685 72.7432 151.629 72.5562 151.532C72.3833 151.625 72.1916 151.685 71.9813 151.685C71.3176 151.685 70.78 151.151 70.78 150.492C70.78 150.478 70.7847 150.469 70.7847 150.455C70.5463 150.149 70.4014 149.759 70.4014 149.342C70.4014 149.314 70.4061 149.286 70.4061 149.258C70.3734 149.397 70.3594 149.541 70.3594 149.685C70.3594 150.135 70.5136 150.548 70.7707 150.882C70.7707 150.896 70.766 150.91 70.766 150.924C70.766 151.634 71.3456 152.205 72.0561 152.205C72.2804 152.205 72.4908 152.144 72.6731 152.042C72.8741 152.149 73.1031 152.205 73.3461 152.205C73.5658 152.205 73.7715 152.154 73.9538 152.07C74.0847 152.126 74.2296 152.154 74.3838 152.154C74.9727 152.154 75.4542 151.704 75.5103 151.133C75.529 151.114 75.5477 151.096 75.5617 151.077C75.8375 150.813 76.0104 150.446 76.0104 150.033C76.0104 149.861 75.9777 149.699 75.9263 149.546C75.987 149.379 76.0197 149.202 76.0197 149.017Z" fill="#005750"/>
<path d="M74.2891 147.279C74.3031 147.293 74.3124 147.303 74.3265 147.312C74.3311 147.312 74.3405 147.312 74.3451 147.316C74.3265 147.307 74.3078 147.293 74.2891 147.279Z" fill="#005750"/>
</g>
<path d="M76.8461 101.324L43.2812 120.476V113.32L76.8461 94.168V101.324Z" fill="#E1BD9A"/>
<path opacity="0.3" d="M76.8461 101.324L43.2812 120.476V113.32L76.8461 94.168V101.324Z" fill="#E1BD9A"/>
<path d="M76.8413 94.1675L43.2764 113.319L41.0469 112.076L74.6071 92.9238L76.8413 94.1675Z" fill="#E1BD9A"/>
<path d="M41.0469 112.076L43.2764 113.32V120.476L41.0469 119.232V112.076Z" fill="#E1BD9A"/>
<path opacity="0.3" d="M41.0469 112.076L43.2764 113.32V120.476L41.0469 119.232V112.076Z" fill="#E1BD9A"/>
<path d="M47.1271 113.21V113.786L46.8841 113.925V114.89C46.8841 115.609 47.0477 115.67 47.3328 115.503C47.6086 115.345 47.7862 115.136 47.7862 114.366V113.419L47.5431 113.558V112.969L48.8753 112.203V112.779L48.6322 112.918V114.004C48.6322 115.066 48.1882 115.8 47.3375 116.287C46.426 116.783 45.9399 116.589 45.9399 115.572V114.468L45.6875 114.612V114.032L47.1271 113.21Z" fill="#823130"/>
<path d="M52.2175 110.872V113.424L51.25 113.981L50.1002 112.937V114.064L50.446 113.865V114.44L49.0625 115.234V114.658L49.3289 114.505V112.528L49.0672 112.677V112.097L50.3619 111.354L51.465 112.366V111.299L51.1565 111.475V110.895L52.512 110.115V110.695L52.2175 110.872Z" fill="#823130"/>
<path d="M54.2301 109.137V109.726L53.9496 109.884V111.828L54.2301 111.666V112.26L52.7344 113.118V112.524L53.0195 112.362V110.418L52.7344 110.58V109.991L54.2301 109.137Z" fill="#823130"/>
<path d="M56.2663 110.096C56.2756 109.966 56.3364 109.711 56.4299 109.432L56.8412 108.221L56.6028 108.36V107.78L57.8835 107.047V107.627L57.6638 107.752L56.5841 110.917L55.7568 111.39L54.5602 109.53L54.3125 109.673V109.093L55.9718 108.142V108.722L55.7288 108.861L56.112 109.646C56.1821 109.822 56.2429 109.989 56.2523 110.105L56.2663 110.096Z" fill="#823130"/>
<path d="M60.6688 105.445V106.434L59.8882 106.879V106.48L59.1684 106.893V107.51L60.0238 107.018V107.612L59.1684 108.104V108.833L59.8882 108.42V108.002L60.6688 107.557V108.568L57.9531 110.132V109.538L58.2382 109.376V107.431L57.9531 107.594V107.005L60.6688 105.445Z" fill="#823130"/>
<path d="M62.3583 104.476C63.4053 103.878 63.6063 104.17 63.6063 104.681C63.6063 105.029 63.3258 105.437 62.9519 105.706C63.2651 105.572 63.5409 105.683 63.5409 106.003C63.5409 106.193 63.5689 106.291 63.6484 106.244C63.7138 106.207 63.7512 106.133 63.7512 106.04V105.892L64.055 105.72V105.966C64.055 106.337 63.8961 106.773 63.396 107.061C62.807 107.4 62.5219 107.251 62.5219 106.732C62.5219 106.323 62.4705 106.254 62.0732 106.486V107.182L62.349 107.024V107.613L60.8906 108.449V107.859L61.143 107.716V105.762L60.8906 105.906V105.321L62.3583 104.476ZM62.0732 105.985L62.2742 105.869C62.5359 105.72 62.7089 105.497 62.7089 105.256C62.7089 104.991 62.5593 104.945 62.2975 105.094L62.0732 105.224V105.985Z" fill="#823130"/>
<path d="M64.2203 105.414L65.057 104.932C65.057 105.307 65.4356 105.154 65.6225 105.052C65.7814 104.964 66.0058 104.797 66.0058 104.607C66.0058 104.259 64.2764 105.4 64.2764 104.259C64.2764 103.595 64.9074 102.936 65.3468 102.681C65.7254 102.463 66.1086 102.365 66.2909 102.597L66.3377 102.194L67.1136 101.748V102.871L66.2956 103.34C66.2956 103.01 66.0338 102.969 65.7207 103.15C65.5898 103.224 65.4075 103.409 65.4075 103.567C65.4075 104.027 67.193 102.899 67.193 103.948C67.193 104.644 66.534 105.275 65.9965 105.581C65.5431 105.841 65.2252 105.813 65.0523 105.711L65.0009 106.082L64.2109 106.533V105.414H64.2203Z" fill="#823130"/>
<path d="M68.9176 100.717V101.306L68.6372 101.469V103.413L68.9176 103.251V103.845L67.4219 104.703V104.109L67.707 103.947V102.002L67.4219 102.165V101.575L68.9176 100.717Z" fill="#823130"/>
<path d="M72.1226 100.044L71.4589 100.425V99.8542L71.0803 100.072V102.017L71.4542 101.803V102.397L69.7762 103.358V102.764L70.1454 102.55V100.601L69.7575 100.824V101.395L69.0938 101.775V100.611L72.1179 98.875V100.044H72.1226Z" fill="#823130"/>
<path d="M73.881 99.2875C73.8997 99.1854 73.9978 98.9441 74.0493 98.8049L74.297 98.2109L74.0493 98.3548V97.784L75.2599 97.0879V97.6587L75.0168 97.7979L74.1848 99.733V100.253L74.4372 100.109V100.689L72.9929 101.515V100.935L73.25 100.786V100.257L72.3759 99.3107L72.1562 99.436V98.8652L73.6987 97.9835V98.5543L73.465 98.6889L73.7268 99.0137C73.7548 99.0834 73.8483 99.2319 73.867 99.2968L73.881 99.2875Z" fill="#823130"/>
<path d="M61.9594 157.764L60.3281 158.701V146.028L61.9594 145.086V157.764Z" fill="#E1BD9A"/>
<path opacity="0.3" d="M61.9594 157.764L60.3281 158.701V146.028L61.9594 145.086V157.764Z" fill="#E1BD9A"/>
<path d="M61.9528 145.085L60.3216 146.027L58.5781 145.029L60.2141 144.092L61.9528 145.085Z" fill="#E1BD9A"/>
<path d="M58.5781 145.029L60.3216 146.027V158.701L58.5781 157.703V145.029Z" fill="#E1BD9A"/>
<path opacity="0.3" d="M58.5781 145.029L60.3216 146.027V158.701L58.5781 157.703V145.029Z" fill="#E1BD9A"/>
<path opacity="0.3" d="M61.9528 145.085L60.2141 144.092L58.5781 145.029V157.703L60.3216 158.7L61.9528 157.763V145.085Z" fill="#E1BD9A"/>
<path d="M71.175 152.502L69.5391 153.439V140.766L71.175 139.828V152.502Z" fill="#E1BD9A"/>
<path opacity="0.3" d="M71.175 152.502L69.5391 153.439V140.766L71.175 139.828V152.502Z" fill="#E1BD9A"/>
<path d="M71.1763 139.828L69.5403 140.765L67.7969 139.767L69.4328 138.83L71.1763 139.828Z" fill="#E1BD9A"/>
<path d="M67.7969 139.768L69.5403 140.765V153.439L67.7969 152.446V139.768Z" fill="#E1BD9A"/>
<path opacity="0.3" d="M67.7969 139.768L69.5403 140.765V153.439L67.7969 152.446V139.768Z" fill="#E1BD9A"/>
<path opacity="0.3" d="M71.1716 139.828L69.4328 138.83L67.7969 139.767V152.446L69.5403 153.439L71.1763 152.501V139.828H71.1716Z" fill="#E1BD9A"/>
<path d="M67.9797 161.179L66.3438 162.117V149.443L67.9797 148.506V161.179Z" fill="#E1BD9A"/>
<path opacity="0.3" d="M67.9797 161.179L66.3438 162.117V149.443L67.9797 148.506V161.179Z" fill="#E1BD9A"/>
<path d="M67.9731 148.506L66.3372 149.443L64.5938 148.445L66.2297 147.508L67.9731 148.506Z" fill="#E1BD9A"/>
<path d="M64.5938 148.445L66.3372 149.443V162.117L64.5938 161.123V148.445Z" fill="#E1BD9A"/>
<path opacity="0.3" d="M64.5938 148.445L66.3372 149.443V162.117L64.5938 161.123V148.445Z" fill="#E1BD9A"/>
<path opacity="0.3" d="M67.9731 148.506L66.2297 147.508L64.5938 148.445V161.123L66.3372 162.116L67.9731 161.179V148.506Z" fill="#E1BD9A"/>
<path d="M77.2219 155.972L75.5859 156.91V144.236L77.2219 143.299V155.972Z" fill="#E1BD9A"/>
<path opacity="0.3" d="M77.2219 155.972L75.5859 156.91V144.236L77.2219 143.299V155.972Z" fill="#E1BD9A"/>
<path d="M77.2231 143.299L75.5872 144.236L73.8438 143.238L75.4797 142.301L77.2231 143.299Z" fill="#E1BD9A"/>
<path d="M73.8438 143.238L75.5872 144.236V156.91L73.8438 155.912V143.238Z" fill="#E1BD9A"/>
<path opacity="0.3" d="M73.8438 143.238L75.5872 144.236V156.91L73.8438 155.912V143.238Z" fill="#E1BD9A"/>
<path opacity="0.3" d="M77.2231 143.299L75.4797 142.301L73.8438 143.238V155.912L75.5872 156.909L77.2231 155.972V143.299Z" fill="#E1BD9A"/>
<path d="M77.2283 143.351L66.375 149.486V147.588L77.2283 141.453V143.351Z" fill="#E1BD9A"/>
<path opacity="0.3" d="M77.2283 143.351L66.375 149.486V147.588L77.2283 141.453V143.351Z" fill="#E1BD9A"/>
<path d="M77.2232 141.452L66.3699 147.587L58.5781 143.188L69.4314 137.053L77.2232 141.452Z" fill="#E1BD9A"/>
<path d="M58.5781 143.188L66.3699 147.587V149.485L58.5781 145.086V143.188Z" fill="#E1BD9A"/>
<path opacity="0.3" d="M58.5781 143.188L66.3699 147.587V149.485L58.5781 145.086V143.188Z" fill="#E1BD9A"/>
<path opacity="0.3" d="M77.2232 141.452L69.4314 137.053L58.5781 143.188V145.086L66.3699 149.485L77.2232 143.35V141.452Z" fill="#E1BD9A"/>
<path d="M60.1572 157.893C60.1572 157.086 59.5169 156.432 58.7129 156.39C58.4091 156.084 57.9884 155.889 57.521 155.889C57.1845 155.889 56.876 155.986 56.6142 156.158C56.4834 156.102 56.3385 156.07 56.1889 156.07C55.5953 156.07 55.1185 156.543 55.1092 157.128C54.7306 157.485 54.4922 157.991 54.4922 158.552C54.4922 159.003 54.6464 159.416 54.9035 159.75C54.9035 159.764 54.8988 159.778 54.8988 159.791C54.8988 160.501 55.4784 161.072 56.1889 161.072C56.4133 161.072 56.6236 161.012 56.8059 160.91C57.0069 161.017 57.2359 161.072 57.479 161.072C57.6986 161.072 57.9043 161.026 58.0866 160.938C58.2221 160.993 58.3624 161.021 58.5166 161.021C59.1055 161.021 59.587 160.571 59.6431 160C59.6618 159.982 59.6805 159.963 59.6945 159.945C59.9703 159.68 60.1432 159.313 60.1432 158.9C60.1432 158.729 60.1105 158.566 60.0591 158.413C60.1198 158.255 60.1572 158.079 60.1572 157.893Z" fill="#005750"/>
<path opacity="0.3" d="M58.6544 157.322C58.6544 156.84 58.2711 156.445 57.7896 156.422C57.6074 156.236 57.355 156.125 57.0745 156.125C56.8735 156.125 56.6866 156.185 56.5323 156.287C56.4529 156.255 56.3687 156.236 56.2799 156.236C55.9247 156.236 55.6396 156.519 55.6349 156.867C55.4058 157.081 55.2656 157.383 55.2656 157.717C55.2656 157.986 55.3591 158.236 55.5134 158.431C55.5134 158.441 55.5087 158.45 55.5087 158.455C55.5087 158.877 55.8546 159.22 56.2799 159.22C56.4155 159.22 56.537 159.183 56.6492 159.123C56.7707 159.183 56.9062 159.22 57.0511 159.22C57.182 159.22 57.3035 159.192 57.4157 159.141C57.4952 159.174 57.584 159.192 57.6728 159.192C58.028 159.192 58.3132 158.923 58.3459 158.58C58.3552 158.571 58.3646 158.557 58.3786 158.547C58.5422 158.39 58.645 158.172 58.645 157.926C58.645 157.823 58.6263 157.726 58.5936 157.633C58.6357 157.54 58.6544 157.434 58.6544 157.322Z" fill="#005750"/>
<g opacity="0.3">
<path d="M60.1541 157.893C60.1541 157.091 59.5231 156.441 58.7285 156.395C58.8687 156.524 58.9902 156.678 59.079 156.859C59.2754 157.262 59.28 157.703 59.1351 158.093C59.3314 158.515 59.1538 159.021 58.7285 159.225C58.621 159.276 58.5088 159.304 58.3919 159.309C58.2657 159.522 58.0741 159.699 57.8357 159.815C57.4992 159.977 57.1299 159.986 56.8074 159.87C56.2185 160.121 55.5267 159.87 55.2463 159.295C55.1808 159.16 55.1434 159.021 55.1294 158.882C55.0359 158.794 54.9565 158.687 54.8957 158.562C54.7508 158.269 54.7461 157.945 54.849 157.661C54.8536 157.643 54.863 157.624 54.8677 157.606C54.8536 157.564 54.8349 157.513 54.8209 157.467C54.6059 157.777 54.4844 158.153 54.4844 158.562C54.4844 159.012 54.6386 159.425 54.8957 159.759C54.8957 159.773 54.891 159.787 54.891 159.801C54.891 160.511 55.4706 161.082 56.1811 161.082C56.4054 161.082 56.6158 161.021 56.7981 160.919C56.9991 161.026 57.2281 161.082 57.4711 161.082C57.6908 161.082 57.8965 161.035 58.0788 160.947C58.2143 161.003 58.3546 161.031 58.5088 161.031C59.0977 161.031 59.5792 160.58 59.6353 160.01C59.654 159.991 59.6727 159.972 59.6867 159.954C59.9625 159.689 60.1354 159.323 60.1354 158.91C60.1354 158.738 60.1027 158.576 60.0513 158.422C60.1167 158.255 60.1541 158.079 60.1541 157.893Z" fill="#005750"/>
<path d="M58.3594 156.117C58.364 156.126 58.3641 156.131 58.3687 156.14C58.4342 156.173 58.4996 156.215 58.5604 156.256C58.4996 156.205 58.4295 156.159 58.3594 156.117Z" fill="#005750"/>
</g>
<g opacity="0.3">
<path d="M60.1557 157.894C60.1557 157.318 59.8285 156.817 59.3471 156.566C59.6275 156.822 59.8098 157.184 59.8098 157.597C59.8098 157.768 59.7771 157.935 59.721 158.089C59.7724 158.232 59.8005 158.381 59.8005 158.543C59.8005 158.924 59.6415 159.267 59.3845 159.513C59.3704 159.532 59.3517 159.546 59.3377 159.564C59.2863 160.098 58.8376 160.516 58.2907 160.516C58.1505 160.516 58.0149 160.488 57.8887 160.437C57.7158 160.516 57.5242 160.562 57.3232 160.562C57.0941 160.562 56.8838 160.506 56.6968 160.409C56.5239 160.502 56.3323 160.562 56.1219 160.562C55.4582 160.562 54.9207 160.028 54.9207 159.369C54.9207 159.355 54.9253 159.346 54.9253 159.332C54.687 159.026 54.5421 158.636 54.5421 158.218C54.5421 158.191 54.5467 158.163 54.5467 158.135C54.514 158.274 54.5 158.413 54.5 158.562C54.5 159.012 54.6542 159.425 54.9113 159.759C54.9113 159.773 54.9067 159.787 54.9067 159.801C54.9067 160.511 55.4862 161.082 56.1967 161.082C56.4211 161.082 56.6314 161.021 56.8137 160.919C57.0147 161.026 57.2437 161.082 57.4868 161.082C57.7065 161.082 57.9121 161.035 58.0944 160.947C58.23 161.003 58.3702 161.031 58.5244 161.031C59.1134 161.031 59.5948 160.581 59.6509 160.01C59.6696 159.991 59.6883 159.973 59.7023 159.954C59.9781 159.69 60.151 159.323 60.151 158.91C60.151 158.738 60.1183 158.576 60.0669 158.423C60.1183 158.256 60.1557 158.079 60.1557 157.894Z" fill="#005750"/>
<path d="M58.4219 156.158C58.4359 156.172 58.4452 156.181 58.4593 156.191C58.4639 156.191 58.4733 156.191 58.478 156.195C58.4593 156.186 58.4406 156.172 58.4219 156.158Z" fill="#005750"/>
</g>
</g>
<rect x="153" width="357" height="99" rx="18" fill="#006DB7"/>
<path d="M97 122L208.5 86.026L176.5 62L97 122Z" fill="#006DB7"/>
<rect x="166.048" y="28.5476" width="41.9048" height="41.9048" rx="20.9524" fill="#4285F4"/>
<rect x="166.048" y="28.5476" width="41.9048" height="41.9048" rx="20.9524" stroke="white" stroke-width="2.09524"/>
<g clip-path="url(#clip1_176_57238)">
<path d="M197.058 42.731L189.684 39.218C188.06 38.2484 186.04 38.2312 184.401 39.173L176.944 42.731C176.916 42.745 176.887 42.76 176.86 42.776C175.09 43.7878 174.476 46.0426 175.487 47.8123C175.83 48.4122 176.335 48.9037 176.944 49.231L179.001 50.211V55.111C179.002 57.302 180.427 59.2378 182.52 59.889C183.975 60.3102 185.485 60.5164 187.001 60.501C188.516 60.518 190.025 60.3135 191.482 59.894C193.574 59.2429 194.999 57.3071 195.001 55.116V50.209L197.001 49.253V57.5009C197.001 58.0532 197.448 58.5009 198.001 58.5009C198.553 58.5009 199.001 58.0532 199.001 57.5009V45.5009C199.007 44.3267 198.08 43.2419 197.058 42.731ZM193.001 55.116C193.001 56.4266 192.151 57.5858 190.901 57.979C189.633 58.3412 188.319 58.517 187.001 58.501C185.682 58.517 184.368 58.3412 183.101 57.979C181.85 57.5858 181 56.4266 181.001 55.116V51.164L184.318 52.744C185.136 53.23 186.071 53.4854 187.023 53.483C187.929 53.4894 188.819 53.2496 189.6 52.789L193.001 51.164V55.116ZM196.201 47.426L188.659 51.026C187.607 51.6383 186.304 51.6209 185.269 50.981L177.89 47.471C177.067 47.0274 176.76 46.0011 177.203 45.1786C177.353 44.9005 177.578 44.6699 177.853 44.513L185.348 40.933C186.399 40.322 187.702 40.3393 188.738 40.978L196.112 44.491C196.654 44.7921 196.993 45.3607 197.001 45.981C197.002 46.5685 196.699 47.1149 196.201 47.426Z" fill="white"/>
</g>
<path d="M238.785 24.5909H242.21V36.9446C242.21 38.2988 241.89 39.4898 241.25 40.5178C240.616 41.5457 239.723 42.349 238.572 42.9276C237.421 43.5 236.076 43.7862 234.538 43.7862C232.993 43.7862 231.645 43.5 230.494 42.9276C229.343 42.349 228.45 41.5457 227.816 40.5178C227.182 39.4898 226.865 38.2988 226.865 36.9446V24.5909H230.29V36.6584C230.29 37.4463 230.463 38.148 230.808 38.7635C231.158 39.379 231.651 39.8622 232.285 40.2131C232.919 40.5578 233.67 40.7301 234.538 40.7301C235.406 40.7301 236.156 40.5578 236.79 40.2131C237.431 39.8622 237.923 39.379 238.268 38.7635C238.612 38.148 238.785 37.4463 238.785 36.6584V24.5909ZM249.128 35.1903V43.5H245.786V29.3182H248.98V31.728H249.146C249.473 30.9339 249.993 30.303 250.707 29.8352C251.427 29.3674 252.316 29.1335 253.375 29.1335C254.354 29.1335 255.206 29.3428 255.933 29.7614C256.665 30.1799 257.231 30.7862 257.632 31.5803C258.038 32.3743 258.238 33.3376 258.232 34.4702V43.5H254.889V34.9872C254.889 34.0393 254.643 33.2976 254.151 32.7621C253.664 32.2266 252.99 31.9588 252.129 31.9588C251.544 31.9588 251.024 32.0881 250.568 32.3466C250.119 32.599 249.765 32.9652 249.507 33.4453C249.254 33.9254 249.128 34.5071 249.128 35.1903ZM261.629 43.5V29.3182H264.972V43.5H261.629ZM263.31 27.3054C262.78 27.3054 262.325 27.13 261.943 26.7791C261.562 26.4221 261.371 25.9943 261.371 25.4957C261.371 24.991 261.562 24.5632 261.943 24.2124C262.325 23.8553 262.78 23.6768 263.31 23.6768C263.845 23.6768 264.301 23.8553 264.676 24.2124C265.058 24.5632 265.249 24.991 265.249 25.4957C265.249 25.9943 265.058 26.4221 264.676 26.7791C264.301 27.13 263.845 27.3054 263.31 27.3054ZM281.076 29.3182L276.026 43.5H272.333L267.282 29.3182H270.846L274.105 39.853H274.253L277.522 29.3182H281.076ZM289.185 43.777C287.763 43.777 286.535 43.4815 285.501 42.8906C284.473 42.2936 283.682 41.4503 283.128 40.3608C282.574 39.2652 282.297 37.9756 282.297 36.4922C282.297 35.0334 282.574 33.7531 283.128 32.6513C283.689 31.5433 284.47 30.6816 285.474 30.0661C286.477 29.4444 287.656 29.1335 289.01 29.1335C289.884 29.1335 290.709 29.2751 291.484 29.5582C292.266 29.8352 292.955 30.2661 293.552 30.8509C294.156 31.4356 294.63 32.1804 294.974 33.0852C295.319 33.9839 295.491 35.0549 295.491 36.2983V37.3232H283.867V35.0703H292.287C292.281 34.4302 292.143 33.8608 291.872 33.3622C291.601 32.8575 291.223 32.4605 290.736 32.1712C290.256 31.8819 289.696 31.7372 289.056 31.7372C288.373 31.7372 287.773 31.9034 287.256 32.2358C286.738 32.562 286.335 32.9929 286.046 33.5284C285.763 34.0578 285.618 34.6394 285.612 35.2734V37.2401C285.612 38.0649 285.763 38.7727 286.064 39.3636C286.366 39.9484 286.788 40.3977 287.329 40.7116C287.871 41.0194 288.505 41.1733 289.231 41.1733C289.718 41.1733 290.158 41.1056 290.552 40.9702C290.946 40.8286 291.287 40.6224 291.577 40.3516C291.866 40.0807 292.084 39.7453 292.232 39.3452L295.353 39.696C295.156 40.5208 294.78 41.241 294.226 41.8565C293.679 42.4659 292.977 42.9399 292.121 43.2784C291.266 43.6108 290.287 43.777 289.185 43.777ZM298.319 43.5V29.3182H301.56V31.6818H301.707C301.966 30.8632 302.409 30.2322 303.037 29.7891C303.671 29.3397 304.394 29.1151 305.207 29.1151C305.391 29.1151 305.598 29.1243 305.825 29.1428C306.059 29.1551 306.253 29.1766 306.407 29.2074V32.282C306.265 32.2327 306.041 32.1896 305.733 32.1527C305.431 32.1096 305.139 32.0881 304.856 32.0881C304.246 32.0881 303.699 32.2204 303.212 32.4851C302.732 32.7436 302.354 33.1037 302.077 33.5653C301.8 34.027 301.661 34.5594 301.661 35.1626V43.5H298.319ZM319.836 33.0668L316.789 33.3991C316.703 33.0914 316.552 32.8021 316.337 32.5312C316.128 32.2604 315.845 32.0419 315.488 31.8757C315.131 31.7095 314.694 31.6264 314.176 31.6264C313.481 31.6264 312.896 31.7772 312.422 32.0788C311.954 32.3804 311.724 32.7713 311.73 33.2514C311.724 33.6638 311.874 33.9993 312.182 34.2578C312.496 34.5163 313.013 34.7287 313.733 34.8949L316.152 35.4119C317.494 35.7012 318.491 36.1598 319.144 36.7876C319.802 37.4155 320.135 38.2372 320.141 39.2528C320.135 40.1454 319.873 40.9332 319.356 41.6165C318.845 42.2936 318.134 42.8229 317.223 43.2045C316.312 43.5862 315.266 43.777 314.084 43.777C312.348 43.777 310.951 43.4138 309.892 42.6875C308.834 41.955 308.203 40.9363 308 39.6314L311.259 39.3175C311.407 39.9576 311.721 40.4408 312.201 40.767C312.681 41.0933 313.306 41.2564 314.075 41.2564C314.869 41.2564 315.506 41.0933 315.986 40.767C316.472 40.4408 316.716 40.0376 316.716 39.5575C316.716 39.1513 316.559 38.8158 316.245 38.5511C315.937 38.2865 315.457 38.0833 314.804 37.9418L312.385 37.4339C311.025 37.1508 310.019 36.6738 309.366 36.0028C308.714 35.3258 308.391 34.4702 308.397 33.4361C308.391 32.562 308.627 31.8049 309.108 31.1648C309.594 30.5185 310.268 30.0199 311.13 29.669C311.998 29.312 312.998 29.1335 314.13 29.1335C315.792 29.1335 317.1 29.4875 318.054 30.1953C319.015 30.9032 319.609 31.8603 319.836 33.0668ZM322.897 43.5V29.3182H326.239V43.5H322.897ZM324.577 27.3054C324.048 27.3054 323.593 27.13 323.211 26.7791C322.829 26.4221 322.638 25.9943 322.638 25.4957C322.638 24.991 322.829 24.5632 323.211 24.2124C323.593 23.8553 324.048 23.6768 324.577 23.6768C325.113 23.6768 325.568 23.8553 325.944 24.2124C326.326 24.5632 326.516 24.991 326.516 25.4957C326.516 25.9943 326.326 26.4221 325.944 26.7791C325.568 27.13 325.113 27.3054 324.577 27.3054ZM334.939 43.7493C333.825 43.7493 332.828 43.4631 331.948 42.8906C331.067 42.3182 330.372 41.4872 329.861 40.3977C329.35 39.3082 329.095 37.9848 329.095 36.4276C329.095 34.8518 329.353 33.5223 329.87 32.4389C330.393 31.3494 331.098 30.5277 331.985 29.9737C332.871 29.4136 333.859 29.1335 334.948 29.1335C335.779 29.1335 336.463 29.2751 336.998 29.5582C337.534 29.8352 337.958 30.1707 338.272 30.5646C338.586 30.9524 338.829 31.3187 339.002 31.6634H339.14V24.5909H342.492V43.5H339.205V41.2656H339.002C338.829 41.6103 338.58 41.9766 338.254 42.3643C337.927 42.746 337.497 43.0722 336.961 43.343C336.426 43.6139 335.752 43.7493 334.939 43.7493ZM335.872 41.0071C336.579 41.0071 337.183 40.8163 337.681 40.4347C338.18 40.0469 338.558 39.5083 338.817 38.8189C339.075 38.1295 339.205 37.3262 339.205 36.4091C339.205 35.492 339.075 34.6948 338.817 34.0178C338.565 33.3407 338.189 32.8144 337.691 32.4389C337.198 32.0634 336.592 31.8757 335.872 31.8757C335.127 31.8757 334.505 32.0696 334.007 32.4574C333.508 32.8452 333.133 33.3807 332.88 34.0639C332.628 34.7472 332.502 35.5289 332.502 36.4091C332.502 37.2955 332.628 38.0864 332.88 38.782C333.139 39.4714 333.517 40.0161 334.016 40.4162C334.521 40.8101 335.139 41.0071 335.872 41.0071ZM350.134 43.7862C349.236 43.7862 348.426 43.6262 347.706 43.3061C346.992 42.9799 346.426 42.4998 346.007 41.8658C345.595 41.2318 345.388 40.45 345.388 39.5206C345.388 38.7204 345.536 38.0587 345.832 37.5355C346.127 37.0123 346.53 36.5938 347.041 36.2798C347.552 35.9659 348.128 35.7289 348.768 35.5689C349.414 35.4027 350.082 35.2827 350.771 35.2088C351.602 35.1226 352.276 35.0457 352.793 34.978C353.31 34.9041 353.686 34.7933 353.92 34.6456C354.16 34.4917 354.28 34.2547 354.28 33.9347V33.8793C354.28 33.1837 354.074 32.6451 353.661 32.2635C353.249 31.8819 352.655 31.6911 351.879 31.6911C351.061 31.6911 350.411 31.8696 349.931 32.2266C349.457 32.5836 349.137 33.0052 348.971 33.4915L345.85 33.0483C346.096 32.1866 346.503 31.4664 347.069 30.8878C347.635 30.303 348.328 29.866 349.146 29.5767C349.965 29.2812 350.87 29.1335 351.861 29.1335C352.544 29.1335 353.224 29.2135 353.901 29.3736C354.578 29.5336 355.197 29.7983 355.757 30.1676C356.317 30.5308 356.767 31.0263 357.105 31.6541C357.45 32.282 357.622 33.0668 357.622 34.0085V43.5H354.409V41.5518H354.298C354.095 41.9458 353.809 42.3151 353.44 42.6598C353.076 42.9983 352.618 43.2723 352.064 43.4815C351.516 43.6847 350.873 43.7862 350.134 43.7862ZM351.002 41.3303C351.673 41.3303 352.255 41.1979 352.747 40.9332C353.24 40.6624 353.618 40.3054 353.883 39.8622C354.154 39.419 354.289 38.9358 354.289 38.4126V36.7415C354.184 36.8277 354.006 36.9077 353.754 36.9815C353.507 37.0554 353.23 37.12 352.923 37.1754C352.615 37.2308 352.31 37.2801 352.009 37.3232C351.707 37.3662 351.445 37.4032 351.224 37.4339C350.725 37.5017 350.279 37.6125 349.885 37.7663C349.491 37.9202 349.18 38.1357 348.952 38.4126C348.725 38.6835 348.611 39.0343 348.611 39.4652C348.611 40.0807 348.835 40.5455 349.285 40.8594C349.734 41.1733 350.307 41.3303 351.002 41.3303ZM366.246 43.7493C365.132 43.7493 364.134 43.4631 363.254 42.8906C362.374 42.3182 361.679 41.4872 361.168 40.3977C360.657 39.3082 360.401 37.9848 360.401 36.4276C360.401 34.8518 360.66 33.5223 361.177 32.4389C361.7 31.3494 362.405 30.5277 363.291 29.9737C364.178 29.4136 365.165 29.1335 366.255 29.1335C367.086 29.1335 367.769 29.2751 368.305 29.5582C368.84 29.8352 369.265 30.1707 369.579 30.5646C369.893 30.9524 370.136 31.3187 370.308 31.6634H370.447V24.5909H373.798V43.5H370.511V41.2656H370.308C370.136 41.6103 369.887 41.9766 369.56 42.3643C369.234 42.746 368.803 43.0722 368.268 43.343C367.732 43.6139 367.058 43.7493 366.246 43.7493ZM367.178 41.0071C367.886 41.0071 368.489 40.8163 368.988 40.4347C369.487 40.0469 369.865 39.5083 370.124 38.8189C370.382 38.1295 370.511 37.3262 370.511 36.4091C370.511 35.492 370.382 34.6948 370.124 34.0178C369.871 33.3407 369.496 32.8144 368.997 32.4389C368.505 32.0634 367.898 31.8757 367.178 31.8757C366.433 31.8757 365.812 32.0696 365.313 32.4574C364.815 32.8452 364.439 33.3807 364.187 34.0639C363.934 34.7472 363.808 35.5289 363.808 36.4091C363.808 37.2955 363.934 38.0864 364.187 38.782C364.445 39.4714 364.824 40.0161 365.322 40.4162C365.827 40.8101 366.446 41.0071 367.178 41.0071ZM394.233 29.7891C394.147 28.9827 393.784 28.3549 393.144 27.9055C392.51 27.4562 391.685 27.2315 390.669 27.2315C389.955 27.2315 389.343 27.3393 388.832 27.5547C388.321 27.7701 387.93 28.0625 387.659 28.4318C387.388 28.8011 387.25 29.2228 387.244 29.6967C387.244 30.0907 387.333 30.4323 387.512 30.7216C387.696 31.0109 387.945 31.2571 388.259 31.4602C388.573 31.6572 388.921 31.8234 389.303 31.9588C389.684 32.0942 390.069 32.2081 390.457 32.3004L392.23 32.7436C392.944 32.9098 393.63 33.1345 394.289 33.4176C394.953 33.7008 395.547 34.0578 396.07 34.4886C396.6 34.9195 397.018 35.4396 397.326 36.049C397.634 36.6584 397.788 37.3724 397.788 38.1911C397.788 39.299 397.505 40.2746 396.938 41.1179C396.372 41.955 395.553 42.6106 394.482 43.0845C393.418 43.5523 392.128 43.7862 390.614 43.7862C389.143 43.7862 387.865 43.5585 386.782 43.103C385.705 42.6475 384.862 41.9827 384.252 41.1087C383.649 40.2346 383.323 39.1697 383.274 37.9141H386.644C386.693 38.5727 386.896 39.1205 387.253 39.5575C387.61 39.9946 388.075 40.3208 388.647 40.5362C389.226 40.7517 389.872 40.8594 390.586 40.8594C391.331 40.8594 391.983 40.7486 392.544 40.527C393.11 40.2992 393.553 39.9853 393.873 39.5852C394.193 39.179 394.356 38.705 394.362 38.1634C394.356 37.6709 394.212 37.2647 393.928 36.9446C393.645 36.6184 393.248 36.3475 392.737 36.1321C392.233 35.9105 391.642 35.7135 390.965 35.5412L388.813 34.9872C387.256 34.5871 386.025 33.9808 385.12 33.1683C384.222 32.3497 383.772 31.2633 383.772 29.9091C383.772 28.795 384.074 27.8194 384.677 26.9822C385.286 26.1451 386.114 25.4957 387.161 25.0341C388.207 24.5663 389.392 24.3324 390.715 24.3324C392.057 24.3324 393.233 24.5663 394.242 25.0341C395.258 25.4957 396.055 26.139 396.634 26.9638C397.212 27.7824 397.511 28.7242 397.529 29.7891H394.233ZM404.775 43.7862C403.876 43.7862 403.067 43.6262 402.347 43.3061C401.633 42.9799 401.066 42.4998 400.648 41.8658C400.235 41.2318 400.029 40.45 400.029 39.5206C400.029 38.7204 400.177 38.0587 400.472 37.5355C400.768 37.0123 401.171 36.5938 401.682 36.2798C402.193 35.9659 402.768 35.7289 403.408 35.5689C404.055 35.4027 404.723 35.2827 405.412 35.2088C406.243 35.1226 406.917 35.0457 407.434 34.978C407.951 34.9041 408.326 34.7933 408.56 34.6456C408.8 34.4917 408.92 34.2547 408.92 33.9347V33.8793C408.92 33.1837 408.714 32.6451 408.302 32.2635C407.889 31.8819 407.295 31.6911 406.52 31.6911C405.701 31.6911 405.052 31.8696 404.572 32.2266C404.098 32.5836 403.778 33.0052 403.612 33.4915L400.491 33.0483C400.737 32.1866 401.143 31.4664 401.71 30.8878C402.276 30.303 402.968 29.866 403.787 29.5767C404.606 29.2812 405.51 29.1335 406.501 29.1335C407.185 29.1335 407.865 29.2135 408.542 29.3736C409.219 29.5336 409.838 29.7983 410.398 30.1676C410.958 30.5308 411.407 31.0263 411.746 31.6541C412.09 32.282 412.263 33.0668 412.263 34.0085V43.5H409.05V41.5518H408.939C408.736 41.9458 408.45 42.3151 408.08 42.6598C407.717 42.9983 407.259 43.2723 406.705 43.4815C406.157 43.6847 405.513 43.7862 404.775 43.7862ZM405.643 41.3303C406.314 41.3303 406.895 41.1979 407.388 40.9332C407.88 40.6624 408.259 40.3054 408.523 39.8622C408.794 39.419 408.93 38.9358 408.93 38.4126V36.7415C408.825 36.8277 408.647 36.9077 408.394 36.9815C408.148 37.0554 407.871 37.12 407.563 37.1754C407.255 37.2308 406.951 37.2801 406.649 37.3232C406.348 37.3662 406.086 37.4032 405.864 37.4339C405.366 37.5017 404.92 37.6125 404.526 37.7663C404.132 37.9202 403.821 38.1357 403.593 38.4126C403.365 38.6835 403.251 39.0343 403.251 39.4652C403.251 40.0807 403.476 40.5455 403.925 40.8594C404.375 41.1733 404.947 41.3303 405.643 41.3303ZM418.966 35.1903V43.5H415.624V29.3182H418.818V31.728H418.984C419.311 30.9339 419.831 30.303 420.545 29.8352C421.265 29.3674 422.154 29.1335 423.213 29.1335C424.192 29.1335 425.044 29.3428 425.771 29.7614C426.503 30.1799 427.069 30.7862 427.469 31.5803C427.876 32.3743 428.076 33.3376 428.07 34.4702V43.5H424.727V34.9872C424.727 34.0393 424.481 33.2976 423.989 32.7621C423.502 32.2266 422.828 31.9588 421.967 31.9588C421.382 31.9588 420.862 32.0881 420.406 32.3466C419.957 32.599 419.603 32.9652 419.344 33.4453C419.092 33.9254 418.966 34.5071 418.966 35.1903ZM445.525 24.5909H448.922V37.8864C448.916 39.1051 448.658 40.1546 448.147 41.0348C447.636 41.9089 446.922 42.5829 446.005 43.0568C445.094 43.5246 444.032 43.7585 442.819 43.7585C441.711 43.7585 440.714 43.5616 439.828 43.1676C438.948 42.7675 438.249 42.1766 437.732 41.3949C437.215 40.6132 436.956 39.6406 436.956 38.4773H440.363C440.369 38.9882 440.48 39.4283 440.696 39.7976C440.917 40.1669 441.222 40.45 441.61 40.647C441.998 40.844 442.444 40.9425 442.949 40.9425C443.496 40.9425 443.961 40.8286 444.343 40.6009C444.724 40.367 445.014 40.0223 445.211 39.5668C445.414 39.1113 445.518 38.5511 445.525 37.8864V24.5909ZM461.53 37.5355V29.3182H464.872V43.5H461.631V40.9794H461.484C461.164 41.7734 460.637 42.4228 459.905 42.9276C459.179 43.4323 458.283 43.6847 457.218 43.6847C456.289 43.6847 455.467 43.4785 454.753 43.0661C454.045 42.6475 453.491 42.0412 453.091 41.2472C452.691 40.447 452.491 39.4806 452.491 38.348V29.3182H455.833V37.831C455.833 38.7296 456.079 39.4437 456.572 39.973C457.064 40.5024 457.71 40.767 458.511 40.767C459.003 40.767 459.48 40.647 459.942 40.407C460.403 40.1669 460.782 39.8099 461.077 39.3359C461.379 38.8558 461.53 38.2557 461.53 37.5355ZM472.39 43.7862C471.491 43.7862 470.682 43.6262 469.962 43.3061C469.248 42.9799 468.682 42.4998 468.263 41.8658C467.851 41.2318 467.644 40.45 467.644 39.5206C467.644 38.7204 467.792 38.0587 468.088 37.5355C468.383 37.0123 468.786 36.5938 469.297 36.2798C469.808 35.9659 470.383 35.7289 471.024 35.5689C471.67 35.4027 472.338 35.2827 473.027 35.2088C473.858 35.1226 474.532 35.0457 475.049 34.978C475.566 34.9041 475.942 34.7933 476.176 34.6456C476.416 34.4917 476.536 34.2547 476.536 33.9347V33.8793C476.536 33.1837 476.329 32.6451 475.917 32.2635C475.505 31.8819 474.911 31.6911 474.135 31.6911C473.316 31.6911 472.667 31.8696 472.187 32.2266C471.713 32.5836 471.393 33.0052 471.227 33.4915L468.106 33.0483C468.352 32.1866 468.758 31.4664 469.325 30.8878C469.891 30.303 470.584 29.866 471.402 29.5767C472.221 29.2812 473.126 29.1335 474.117 29.1335C474.8 29.1335 475.48 29.2135 476.157 29.3736C476.834 29.5336 477.453 29.7983 478.013 30.1676C478.573 30.5308 479.022 31.0263 479.361 31.6541C479.706 32.282 479.878 33.0668 479.878 34.0085V43.5H476.665V41.5518H476.554C476.351 41.9458 476.065 42.3151 475.695 42.6598C475.332 42.9983 474.874 43.2723 474.32 43.4815C473.772 43.6847 473.129 43.7862 472.39 43.7862ZM473.258 41.3303C473.929 41.3303 474.511 41.1979 475.003 40.9332C475.495 40.6624 475.874 40.3054 476.139 39.8622C476.41 39.419 476.545 38.9358 476.545 38.4126V36.7415C476.44 36.8277 476.262 36.9077 476.009 36.9815C475.763 37.0554 475.486 37.12 475.178 37.1754C474.871 37.2308 474.566 37.2801 474.264 37.3232C473.963 37.3662 473.701 37.4032 473.48 37.4339C472.981 37.5017 472.535 37.6125 472.141 37.7663C471.747 37.9202 471.436 38.1357 471.208 38.4126C470.981 38.6835 470.867 39.0343 470.867 39.4652C470.867 40.0807 471.091 40.5455 471.541 40.8594C471.99 41.1733 472.562 41.3303 473.258 41.3303ZM486.581 35.1903V43.5H483.239V29.3182H486.433V31.728H486.6C486.926 30.9339 487.446 30.303 488.16 29.8352C488.88 29.3674 489.77 29.1335 490.828 29.1335C491.807 29.1335 492.66 29.3428 493.386 29.7614C494.118 30.1799 494.685 30.7862 495.085 31.5803C495.491 32.3743 495.691 33.3376 495.685 34.4702V43.5H492.343V34.9872C492.343 34.0393 492.096 33.2976 491.604 32.7621C491.118 32.2266 490.444 31.9588 489.582 31.9588C488.997 31.9588 488.477 32.0881 488.021 32.3466C487.572 32.599 487.218 32.9652 486.96 33.4453C486.707 33.9254 486.581 34.5071 486.581 35.1903ZM226.865 74.5V55.5909H234.104C235.47 55.5909 236.606 55.8063 237.511 56.2372C238.422 56.6619 239.102 57.2436 239.551 57.9822C240.007 58.7209 240.234 59.558 240.234 60.4936C240.234 61.263 240.087 61.9216 239.791 62.4695C239.496 63.0111 239.099 63.4512 238.6 63.7898C238.102 64.1283 237.545 64.3714 236.929 64.5192V64.7038C237.6 64.7408 238.243 64.947 238.859 65.3224C239.48 65.6918 239.988 66.215 240.382 66.892C240.776 67.5691 240.973 68.3878 240.973 69.348C240.973 70.3267 240.736 71.2069 240.262 71.9886C239.788 72.7642 239.074 73.3767 238.12 73.826C237.166 74.2753 235.966 74.5 234.519 74.5H226.865ZM230.29 71.6378H233.974C235.218 71.6378 236.113 71.4008 236.661 70.9268C237.215 70.4467 237.492 69.8312 237.492 69.0803C237.492 68.5201 237.354 68.0154 237.077 67.5661C236.8 67.1106 236.406 66.7536 235.895 66.495C235.384 66.2304 234.775 66.098 234.067 66.098H230.29V71.6378ZM230.29 63.6328H233.679C234.27 63.6328 234.802 63.5251 235.276 63.3097C235.75 63.0881 236.123 62.7772 236.393 62.3771C236.67 61.9709 236.809 61.4908 236.809 60.9368C236.809 60.2043 236.55 59.6011 236.033 59.1271C235.522 58.6532 234.762 58.4162 233.753 58.4162H230.29V63.6328ZM247.886 74.7862C246.988 74.7862 246.178 74.6262 245.458 74.3061C244.744 73.9799 244.178 73.4998 243.759 72.8658C243.347 72.2318 243.14 71.45 243.14 70.5206C243.14 69.7204 243.288 69.0587 243.584 68.5355C243.879 68.0123 244.282 67.5938 244.793 67.2798C245.304 66.9659 245.88 66.7289 246.52 66.5689C247.166 66.4027 247.834 66.2827 248.523 66.2088C249.354 66.1226 250.028 66.0457 250.545 65.978C251.062 65.9041 251.438 65.7933 251.672 65.6456C251.912 65.4917 252.032 65.2547 252.032 64.9347V64.8793C252.032 64.1837 251.826 63.6451 251.413 63.2635C251.001 62.8819 250.407 62.6911 249.631 62.6911C248.813 62.6911 248.163 62.8696 247.683 63.2266C247.209 63.5836 246.889 64.0052 246.723 64.4915L243.602 64.0483C243.848 63.1866 244.255 62.4664 244.821 61.8878C245.387 61.303 246.08 60.866 246.898 60.5767C247.717 60.2812 248.622 60.1335 249.613 60.1335C250.296 60.1335 250.976 60.2135 251.653 60.3736C252.33 60.5336 252.949 60.7983 253.509 61.1676C254.069 61.5308 254.519 62.0263 254.857 62.6541C255.202 63.282 255.374 64.0668 255.374 65.0085V74.5H252.161V72.5518H252.05C251.847 72.9458 251.561 73.3151 251.192 73.6598C250.828 73.9983 250.37 74.2723 249.816 74.4815C249.268 74.6847 248.625 74.7862 247.886 74.7862ZM248.754 72.3303C249.425 72.3303 250.007 72.1979 250.499 71.9332C250.992 71.6624 251.37 71.3054 251.635 70.8622C251.906 70.419 252.041 69.9358 252.041 69.4126V67.7415C251.936 67.8277 251.758 67.9077 251.506 67.9815C251.259 68.0554 250.982 68.12 250.675 68.1754C250.367 68.2308 250.062 68.2801 249.76 68.3232C249.459 68.3662 249.197 68.4032 248.976 68.4339C248.477 68.5017 248.031 68.6125 247.637 68.7663C247.243 68.9202 246.932 69.1357 246.704 69.4126C246.477 69.6835 246.363 70.0343 246.363 70.4652C246.363 71.0807 246.587 71.5455 247.037 71.8594C247.486 72.1733 248.059 72.3303 248.754 72.3303ZM267.774 68.5355V60.3182H271.116V74.5H267.876V71.9794H267.728C267.408 72.7734 266.881 73.4228 266.149 73.9276C265.423 74.4323 264.527 74.6847 263.462 74.6847C262.533 74.6847 261.711 74.4785 260.997 74.0661C260.289 73.6475 259.735 73.0412 259.335 72.2472C258.935 71.447 258.735 70.4806 258.735 69.348V60.3182H262.077V68.831C262.077 69.7296 262.323 70.4437 262.816 70.973C263.308 71.5024 263.955 71.767 264.755 71.767C265.247 71.767 265.724 71.647 266.186 71.407C266.648 71.1669 267.026 70.8099 267.322 70.3359C267.623 69.8558 267.774 69.2557 267.774 68.5355ZM281.635 60.3182V62.9034H273.482V60.3182H281.635ZM275.495 56.9205H278.837V70.2344C278.837 70.6837 278.905 71.0284 279.04 71.2685C279.182 71.5024 279.367 71.6624 279.594 71.7486C279.822 71.8348 280.075 71.8778 280.352 71.8778C280.561 71.8778 280.752 71.8625 280.924 71.8317C281.103 71.8009 281.238 71.7732 281.33 71.7486L281.893 74.3615C281.715 74.4231 281.46 74.4908 281.127 74.5646C280.801 74.6385 280.401 74.6816 279.927 74.6939C279.09 74.7185 278.336 74.5923 277.665 74.3153C276.994 74.0322 276.461 73.5952 276.067 73.0043C275.68 72.4134 275.489 71.6747 275.495 70.7884V56.9205ZM284.43 74.5V60.3182H287.773V74.5H284.43ZM286.111 58.3054C285.581 58.3054 285.126 58.13 284.744 57.7791C284.363 57.4221 284.172 56.9943 284.172 56.4957C284.172 55.991 284.363 55.5632 284.744 55.2124C285.126 54.8553 285.581 54.6768 286.111 54.6768C286.646 54.6768 287.102 54.8553 287.477 55.2124C287.859 55.5632 288.05 55.991 288.05 56.4957C288.05 56.9943 287.859 57.4221 287.477 57.7791C287.102 58.13 286.646 58.3054 286.111 58.3054ZM302.418 64.0668L299.371 64.3991C299.285 64.0914 299.134 63.8021 298.919 63.5312C298.71 63.2604 298.427 63.0419 298.07 62.8757C297.713 62.7095 297.276 62.6264 296.759 62.6264C296.063 62.6264 295.478 62.7772 295.004 63.0788C294.536 63.3804 294.306 63.7713 294.312 64.2514C294.306 64.6638 294.456 64.9993 294.764 65.2578C295.078 65.5163 295.595 65.7287 296.315 65.8949L298.734 66.4119C300.076 66.7012 301.073 67.1598 301.726 67.7876C302.384 68.4155 302.717 69.2372 302.723 70.2528C302.717 71.1454 302.455 71.9332 301.938 72.6165C301.427 73.2936 300.716 73.8229 299.805 74.2045C298.894 74.5862 297.848 74.777 296.666 74.777C294.93 74.777 293.533 74.4138 292.474 73.6875C291.416 72.955 290.785 71.9363 290.582 70.6314L293.841 70.3175C293.989 70.9576 294.303 71.4408 294.783 71.767C295.263 72.0933 295.888 72.2564 296.657 72.2564C297.451 72.2564 298.088 72.0933 298.568 71.767C299.054 71.4408 299.298 71.0376 299.298 70.5575C299.298 70.1513 299.141 69.8158 298.827 69.5511C298.519 69.2865 298.039 69.0833 297.386 68.9418L294.967 68.4339C293.607 68.1508 292.601 67.6738 291.948 67.0028C291.296 66.3258 290.973 65.4702 290.979 64.4361C290.973 63.562 291.21 62.8049 291.69 62.1648C292.176 61.5185 292.85 61.0199 293.712 60.669C294.58 60.312 295.58 60.1335 296.712 60.1335C298.374 60.1335 299.682 60.4875 300.636 61.1953C301.597 61.9032 302.191 62.8603 302.418 64.0668ZM312.561 60.3182V62.9034H304.408V60.3182H312.561ZM306.421 56.9205H309.763V70.2344C309.763 70.6837 309.831 71.0284 309.966 71.2685C310.108 71.5024 310.292 71.6624 310.52 71.7486C310.748 71.8348 311 71.8778 311.277 71.8778C311.487 71.8778 311.677 71.8625 311.85 71.8317C312.028 71.8009 312.164 71.7732 312.256 71.7486L312.819 74.3615C312.641 74.4231 312.385 74.4908 312.053 74.5646C311.727 74.6385 311.327 74.6816 310.853 74.6939C310.016 74.7185 309.261 74.5923 308.591 74.3153C307.92 74.0322 307.387 73.5952 306.993 73.0043C306.605 72.4134 306.415 71.6747 306.421 70.7884V56.9205ZM319.437 74.7862C318.538 74.7862 317.729 74.6262 317.009 74.3061C316.295 73.9799 315.728 73.4998 315.31 72.8658C314.897 72.2318 314.691 71.45 314.691 70.5206C314.691 69.7204 314.839 69.0587 315.134 68.5355C315.43 68.0123 315.833 67.5938 316.344 67.2798C316.855 66.9659 317.43 66.7289 318.07 66.5689C318.717 66.4027 319.385 66.2827 320.074 66.2088C320.905 66.1226 321.579 66.0457 322.096 65.978C322.613 65.9041 322.989 65.7933 323.222 65.6456C323.463 65.4917 323.583 65.2547 323.583 64.9347V64.8793C323.583 64.1837 323.376 63.6451 322.964 63.2635C322.552 62.8819 321.958 62.6911 321.182 62.6911C320.363 62.6911 319.714 62.8696 319.234 63.2266C318.76 63.5836 318.44 64.0052 318.274 64.4915L315.153 64.0483C315.399 63.1866 315.805 62.4664 316.372 61.8878C316.938 61.303 317.63 60.866 318.449 60.5767C319.268 60.2812 320.173 60.1335 321.164 60.1335C321.847 60.1335 322.527 60.2135 323.204 60.3736C323.881 60.5336 324.5 60.7983 325.06 61.1676C325.62 61.5308 326.069 62.0263 326.408 62.6541C326.753 63.282 326.925 64.0668 326.925 65.0085V74.5H323.712V72.5518H323.601C323.398 72.9458 323.112 73.3151 322.742 73.6598C322.379 73.9983 321.921 74.2723 321.367 74.4815C320.819 74.6847 320.176 74.7862 319.437 74.7862ZM320.305 72.3303C320.976 72.3303 321.557 72.1979 322.05 71.9332C322.542 71.6624 322.921 71.3054 323.186 70.8622C323.456 70.419 323.592 69.9358 323.592 69.4126V67.7415C323.487 67.8277 323.309 67.9077 323.056 67.9815C322.81 68.0554 322.533 68.12 322.225 68.1754C321.918 68.2308 321.613 68.2801 321.311 68.3232C321.01 68.3662 320.748 68.4032 320.526 68.4339C320.028 68.5017 319.582 68.6125 319.188 68.7663C318.794 68.9202 318.483 69.1357 318.255 69.4126C318.027 69.6835 317.914 70.0343 317.914 70.4652C317.914 71.0807 318.138 71.5455 318.588 71.8594C319.037 72.1733 319.609 72.3303 320.305 72.3303Z" fill="white"/>
<defs>
<clipPath id="clip0_176_57238">
<rect width="89" height="90" fill="white" transform="translate(0 78)"/>
</clipPath>
<clipPath id="clip1_176_57238">
<rect width="24" height="24" fill="white" transform="translate(175 37.5)"/>
</clipPath>
</defs>
</svg>
