<svg width="496" height="168" viewBox="0 0 496 168" fill="none" xmlns="http://www.w3.org/2000/svg">
<g clip-path="url(#clip0_171_34195)">
<path d="M19.4116 140.963V144.801L0 156.105V152.267L19.4116 140.963Z" fill="#E1BD9A"/>
<path d="M87.5109 128.346L20.8906 166.534V127.395L87.5109 89.207V128.346Z" fill="#823130"/>
<path opacity="0.3" d="M87.5109 128.346L20.8906 166.534V127.395L87.5109 89.207V128.346Z" fill="#823130"/>
<path d="M87.5159 89.2071L20.8956 127.395L1.34375 116.188L67.964 78L87.5159 89.2071Z" fill="#823130"/>
<path d="M1.34375 116.188L20.8956 127.395V166.533L1.34375 155.322V116.188Z" fill="#823130"/>
<path opacity="0.3" d="M1.34375 116.188L20.8956 127.395V166.533L1.34375 155.322V116.188Z" fill="#823130"/>
<path d="M0 152.254V156.092L19.4116 167.206V163.368L0 152.254Z" fill="#E1BD9A"/>
<path d="M20.8933 162.695L1.34147 151.488L0 152.268L1.34147 155.321L20.8933 166.533L89 125.12L87.5136 124.508L20.8933 162.695Z" fill="#E1BD9A"/>
<path d="M88.9973 128.959L20.8906 168V164.167L88.9973 125.121V128.959Z" fill="#E1BD9A"/>
<path opacity="0.3" d="M88.9973 128.959L20.8906 168V164.167L88.9973 125.121V128.959Z" fill="#E1BD9A"/>
<path d="M1.34375 152.959V156.792L20.8956 167.999V164.166L1.34375 152.959Z" fill="#E1BD9A"/>
<path opacity="0.3" d="M0 152.254V156.092L20.8933 168V164.166L0 152.254Z" fill="#E1BD9A"/>
<path d="M3.35938 148.699V142.109L7.07063 144.235V150.824L3.35938 148.699Z" fill="#283036"/>
<path d="M6.81429 150.379L3.61719 148.55V142.555L6.81429 144.388V150.379Z" fill="#72B8CF"/>
<path opacity="0.5" d="M3.61719 147.07L6.81429 145.242V144.388L6.78157 144.369L3.61719 146.179V147.07Z" fill="#72B8CF"/>
<path opacity="0.5" d="M6.81429 145.85L3.61719 147.683V148.55L4.57071 149.093L6.81429 147.808V145.85Z" fill="#72B8CF"/>
<path d="M6.81429 147.102L3.61719 145.269V144.814L6.81429 146.643V147.102Z" fill="#283036"/>
<path d="M9.21094 152.082V145.492L12.9269 147.622V154.212L9.21094 152.082Z" fill="#283036"/>
<path d="M12.6659 153.768L9.46875 151.935V145.939L12.6659 147.772V153.768Z" fill="#72B8CF"/>
<path opacity="0.5" d="M9.46875 150.457L12.6659 148.624V147.771L12.6331 147.752L9.46875 149.566V150.457Z" fill="#72B8CF"/>
<path opacity="0.5" d="M12.6659 149.238L9.46875 151.071V151.934L10.4223 152.482L12.6659 151.197V149.238Z" fill="#72B8CF"/>
<path d="M12.6659 150.487L9.46875 148.659V148.199L12.6659 150.032V150.487Z" fill="#283036"/>
<path d="M15.0703 155.431V148.842L18.7862 150.972V157.562L15.0703 155.431Z" fill="#283036"/>
<path d="M18.5206 157.116L15.3281 155.283V149.287L18.5206 151.12V157.116Z" fill="#72B8CF"/>
<path opacity="0.5" d="M15.3281 153.807L18.5206 151.974V151.12L18.4878 151.102L15.3281 152.916V153.807Z" fill="#72B8CF"/>
<path opacity="0.5" d="M18.5206 152.588L15.3281 154.416V155.284L16.277 155.832L18.5206 154.546V152.588Z" fill="#72B8CF"/>
<path d="M18.5206 153.835L15.3281 152.006V151.547L18.5206 153.38V153.835Z" fill="#283036"/>
<path d="M3.35938 138.903V132.309L7.07063 134.439V141.028L3.35938 138.903Z" fill="#283036"/>
<path d="M6.81429 140.582L3.61719 138.749V132.758L6.81429 134.586V140.582Z" fill="#72B8CF"/>
<path opacity="0.5" d="M3.61719 137.274L6.81429 135.441V134.587L6.78157 134.568L3.61719 136.383V137.274Z" fill="#72B8CF"/>
<path opacity="0.5" d="M6.81429 136.053L3.61719 137.886V138.749L4.57071 139.297L6.81429 138.011V136.053Z" fill="#72B8CF"/>
<path d="M6.81429 137.306L3.61719 135.473V135.014L6.81429 136.847V137.306Z" fill="#283036"/>
<path d="M9.21094 142.285V135.695L12.9269 137.825V144.415L9.21094 142.285Z" fill="#283036"/>
<path d="M12.6659 143.965L9.46875 142.136V136.141L12.6659 137.974V143.965Z" fill="#72B8CF"/>
<path opacity="0.5" d="M9.46875 140.656L12.6659 138.828V137.974L12.6331 137.955L9.46875 139.77V140.656Z" fill="#72B8CF"/>
<path opacity="0.5" d="M12.6659 139.439L9.46875 141.268V142.136L10.4223 142.679L12.6659 141.398V139.439Z" fill="#72B8CF"/>
<path d="M12.6659 140.688L9.46875 138.855V138.4L12.6659 140.229V140.688Z" fill="#283036"/>
<path d="M15.0703 145.637V139.047L18.7862 141.177V147.767L15.0703 145.637Z" fill="#283036"/>
<path d="M18.5206 147.316L15.3281 145.488V139.492L18.5206 141.325V147.316Z" fill="#72B8CF"/>
<path opacity="0.5" d="M15.3281 144.007L18.5206 142.179V141.325L18.4878 141.307L15.3281 143.121V144.007Z" fill="#72B8CF"/>
<path opacity="0.5" d="M18.5206 142.793L15.3281 144.621V145.489L16.277 146.032L18.5206 144.751V142.793Z" fill="#72B8CF"/>
<path d="M18.5206 144.04L15.3281 142.211V141.752L18.5206 143.58V144.04Z" fill="#283036"/>
<path d="M3.35938 129.103V122.514L7.07063 124.644V131.233L3.35938 129.103Z" fill="#283036"/>
<path d="M6.81429 130.789L3.61719 128.956V122.965L6.81429 124.793V130.789Z" fill="#72B8CF"/>
<path opacity="0.5" d="M3.61719 127.479L6.81429 125.646V124.792L6.78157 124.773L3.61719 126.588V127.479Z" fill="#72B8CF"/>
<path opacity="0.5" d="M6.81429 126.26L3.61719 128.093V128.956L4.57071 129.504L6.81429 128.218V126.26Z" fill="#72B8CF"/>
<path d="M6.81429 127.511L3.61719 125.678V125.219L6.81429 127.052V127.511Z" fill="#283036"/>
<path d="M9.21094 132.492V125.902L12.9269 128.032V134.622L9.21094 132.492Z" fill="#283036"/>
<path d="M12.6659 134.174L9.46875 132.345V126.35L12.6659 128.183V134.174Z" fill="#72B8CF"/>
<path opacity="0.5" d="M9.46875 130.863L12.6659 129.035V128.181L12.6331 128.162L9.46875 129.972V130.863Z" fill="#72B8CF"/>
<path opacity="0.5" d="M12.6659 129.648L9.46875 131.477V132.345L10.4223 132.888L12.6659 131.602V129.648Z" fill="#72B8CF"/>
<path d="M12.6659 130.897L9.46875 129.064V128.609L12.6659 130.438V130.897Z" fill="#283036"/>
<path d="M15.0703 135.842V129.252L18.7862 131.377V137.972L15.0703 135.842Z" fill="#283036"/>
<path d="M18.5206 137.521L15.3281 135.693V129.697L18.5206 131.53V137.521Z" fill="#72B8CF"/>
<path opacity="0.5" d="M15.3281 134.213L18.5206 132.384V131.53L18.4878 131.512L15.3281 133.322V134.213Z" fill="#72B8CF"/>
<path opacity="0.5" d="M18.5206 132.996L15.3281 134.824V135.692L16.277 136.235L18.5206 134.95V132.996Z" fill="#72B8CF"/>
<path d="M18.5206 134.245L15.3281 132.412V131.957L18.5206 133.785V134.245Z" fill="#283036"/>
<path d="M32.5753 152.082V145.492L28.8594 147.622V154.212L32.5753 152.082Z" fill="#283036"/>
<path d="M29.125 153.768L32.3174 151.935V145.939L29.125 147.772V153.768Z" fill="#72B8CF"/>
<path opacity="0.5" d="M32.3174 150.457L29.125 148.624V147.771L29.153 147.752L32.3174 149.566V150.457Z" fill="#72B8CF"/>
<path opacity="0.5" d="M29.125 149.238L32.3174 151.071V151.934L31.3639 152.482L29.125 151.197V149.238Z" fill="#72B8CF"/>
<path d="M29.125 150.487L32.3174 148.659V148.199L29.125 150.032V150.487Z" fill="#283036"/>
<path d="M26.7159 155.433V148.844L23 150.974V157.563L26.7159 155.433Z" fill="#283036"/>
<path d="M23.2656 157.118L26.4581 155.285V149.289L23.2656 151.122V157.118Z" fill="#72B8CF"/>
<path opacity="0.5" d="M26.4581 153.809L23.2656 151.976V151.122L23.2983 151.104L26.4581 152.918V153.809Z" fill="#72B8CF"/>
<path opacity="0.5" d="M23.2656 152.59L26.4581 154.418V155.286L25.5092 155.834L23.2656 154.548V152.59Z" fill="#72B8CF"/>
<path d="M23.2656 153.837L26.4581 152.008V151.549L23.2656 153.382V153.837Z" fill="#283036"/>
<path d="M32.5753 142.287V135.697L28.8594 137.827V144.417L32.5753 142.287Z" fill="#283036"/>
<path d="M29.125 143.967L32.3174 142.138V136.143L29.125 137.976V143.967Z" fill="#72B8CF"/>
<path opacity="0.5" d="M32.3174 140.658L29.125 138.829V137.976L29.153 137.957L32.3174 139.772V140.658Z" fill="#72B8CF"/>
<path opacity="0.5" d="M29.125 139.441L32.3174 141.27V142.138L31.3639 142.681L29.125 141.4V139.441Z" fill="#72B8CF"/>
<path d="M29.125 140.69L32.3174 138.857V138.402L29.125 140.231V140.69Z" fill="#283036"/>
<path d="M26.7159 145.638V139.049L23 141.179V147.769L26.7159 145.638Z" fill="#283036"/>
<path d="M23.2656 147.318L26.4581 145.49V139.494L23.2656 141.327V147.318Z" fill="#72B8CF"/>
<path opacity="0.5" d="M26.4581 144.009L23.2656 142.181V141.327L23.2983 141.309L26.4581 143.123V144.009Z" fill="#72B8CF"/>
<path opacity="0.5" d="M23.2656 142.793L26.4581 144.621V145.489L25.5092 146.032L23.2656 144.751V142.793Z" fill="#72B8CF"/>
<path d="M23.2656 144.042L26.4581 142.213V141.754L23.2656 143.582V144.042Z" fill="#283036"/>
<path d="M32.5753 132.49V125.9L28.8594 128.03V134.62L32.5753 132.49Z" fill="#283036"/>
<path d="M29.125 134.172L32.3174 132.343V126.348L29.125 128.181V134.172Z" fill="#72B8CF"/>
<path opacity="0.5" d="M32.3174 130.861L29.125 129.033V128.179L29.153 128.16L32.3174 129.97V130.861Z" fill="#72B8CF"/>
<path opacity="0.5" d="M29.125 129.646L32.3174 131.475V132.343L31.3639 132.886L29.125 131.6V129.646Z" fill="#72B8CF"/>
<path d="M29.125 130.895L32.3174 129.062V128.607L29.125 130.436V130.895Z" fill="#283036"/>
<path d="M26.7159 135.842V129.252L23 131.377V137.972L26.7159 135.842Z" fill="#283036"/>
<path d="M23.2656 137.521L26.4581 135.693V129.697L23.2656 131.53V137.521Z" fill="#72B8CF"/>
<path opacity="0.5" d="M26.4581 134.213L23.2656 132.384V131.53L23.2983 131.512L26.4581 133.322V134.213Z" fill="#72B8CF"/>
<path opacity="0.5" d="M23.2656 132.998L26.4581 134.826V135.694L25.5092 136.237L23.2656 134.952V132.998Z" fill="#72B8CF"/>
<path d="M23.2656 134.245L26.4581 132.412V131.957L23.2656 133.785V134.245Z" fill="#283036"/>
<path d="M85.3097 121.971V115.381L81.5938 117.511V124.101L85.3097 121.971Z" fill="#283036"/>
<path d="M81.8516 123.655L85.0487 121.822V115.826L81.8516 117.659V123.655Z" fill="#72B8CF"/>
<path opacity="0.5" d="M85.0487 120.346L81.8516 118.513V117.659L81.8843 117.641L85.0487 119.455V120.346Z" fill="#72B8CF"/>
<path opacity="0.5" d="M81.8516 119.125L85.0487 120.958V121.821L84.0951 122.369L81.8516 121.083V119.125Z" fill="#72B8CF"/>
<path d="M81.8516 120.374L85.0487 118.545V118.086L81.8516 119.919V120.374Z" fill="#283036"/>
<path d="M79.4503 125.32V118.73L75.7344 120.861V127.45L79.4503 125.32Z" fill="#283036"/>
<path d="M76 127.004L79.1924 125.171V119.176L76 121.009V127.004Z" fill="#72B8CF"/>
<path opacity="0.5" d="M79.1924 123.696L76 121.863V121.009L76.0327 120.99L79.1924 122.805V123.696Z" fill="#72B8CF"/>
<path opacity="0.5" d="M76 122.475L79.1924 124.303V125.171L78.2436 125.718L76 124.433V122.475Z" fill="#72B8CF"/>
<path d="M76 123.723L79.1924 121.895V121.436L76 123.269V123.723Z" fill="#283036"/>
<path d="M85.3097 112.174V105.584L81.5938 107.714V114.304L85.3097 112.174Z" fill="#283036"/>
<path d="M81.8516 113.853L85.0487 112.025V106.029L81.8516 107.862V113.853Z" fill="#72B8CF"/>
<path opacity="0.5" d="M85.0487 110.545L81.8516 108.716V107.862L81.8843 107.844L85.0487 109.658V110.545Z" fill="#72B8CF"/>
<path opacity="0.5" d="M81.8516 109.328L85.0487 111.157V112.024L84.0951 112.572L81.8516 111.286V109.328Z" fill="#72B8CF"/>
<path d="M81.8516 110.577L85.0487 108.744V108.289L81.8516 110.117V110.577Z" fill="#283036"/>
<path d="M79.4503 115.523V108.934L75.7344 111.064V117.653L79.4503 115.523Z" fill="#283036"/>
<path d="M76 117.205L79.1924 115.377V109.381L76 111.214V117.205Z" fill="#72B8CF"/>
<path opacity="0.5" d="M79.1924 113.894L76 112.066V111.212L76.0327 111.193L79.1924 113.008V113.894Z" fill="#72B8CF"/>
<path opacity="0.5" d="M76 112.68L79.1924 114.508V115.376L78.2436 115.919L76 114.633V112.68Z" fill="#72B8CF"/>
<path d="M76 113.928L79.1924 112.095V111.641L76 113.469V113.928Z" fill="#283036"/>
<path d="M85.3097 102.377V95.7871L81.5938 97.9171V104.507L85.3097 102.377Z" fill="#283036"/>
<path d="M81.8516 104.056L85.0487 102.228V96.2324L81.8516 98.0655V104.056Z" fill="#72B8CF"/>
<path opacity="0.5" d="M85.0487 100.748L81.8516 98.9193V98.0654L81.8843 98.0469L85.0487 99.8567V100.748Z" fill="#72B8CF"/>
<path opacity="0.5" d="M81.8516 99.5332L85.0487 101.362V102.229L84.0951 102.772L81.8516 101.487V99.5332Z" fill="#72B8CF"/>
<path d="M81.8516 100.78L85.0487 98.947V98.4922L81.8516 100.321V100.78Z" fill="#283036"/>
<path d="M79.4503 105.728V99.1387L75.7344 101.264V107.858L79.4503 105.728Z" fill="#283036"/>
<path d="M76 107.408L79.1924 105.58V99.584L76 101.417V107.408Z" fill="#72B8CF"/>
<path opacity="0.5" d="M79.1924 104.099L76 102.271V101.417L76.0327 101.398L79.1924 103.208V104.099Z" fill="#72B8CF"/>
<path opacity="0.5" d="M76 102.883L79.1924 104.711V105.579L78.2436 106.122L76 104.837V102.883Z" fill="#72B8CF"/>
<path d="M76 104.132L79.1924 102.299V101.844L76 103.672V104.132Z" fill="#283036"/>
<path d="M82.7132 143.805L43.6562 166.256V125.651L82.7132 103.246V143.805Z" fill="#823130"/>
<path opacity="0.3" d="M82.7132 143.805L43.6562 166.256V125.651L82.7132 103.246V143.805Z" fill="#823130"/>
<path d="M82.7103 103.246L43.6533 125.65L33.875 119.989L72.932 97.584L82.7103 103.246Z" fill="#823130"/>
<path d="M33.875 119.988L43.6533 125.65V166.255L33.875 160.598V119.988Z" fill="#823130"/>
<path opacity="0.3" d="M33.875 119.988L43.6533 125.65V166.255L33.875 160.598V119.988Z" fill="#823130"/>
<path d="M56.8019 149.748V143.158L53.0859 145.288V151.878L56.8019 149.748Z" fill="#283036"/>
<path d="M53.3438 151.433L56.5362 149.6V143.609L53.3438 145.438V151.433Z" fill="#72B8CF"/>
<path opacity="0.5" d="M56.5362 148.123L53.3438 146.29V145.437L53.3718 145.418L56.5362 147.232V148.123Z" fill="#72B8CF"/>
<path opacity="0.5" d="M53.3438 146.904L56.5362 148.737V149.6L55.5873 150.148L53.3438 148.863V146.904Z" fill="#72B8CF"/>
<path d="M53.3438 148.158L56.5362 146.325V145.865L53.3438 147.698V148.158Z" fill="#283036"/>
<path d="M50.9456 153.099V146.51L47.2344 148.64V155.229L50.9456 153.099Z" fill="#283036"/>
<path d="M47.4922 154.785L50.6893 152.952V146.961L47.4922 148.789V154.785Z" fill="#72B8CF"/>
<path opacity="0.5" d="M50.6893 151.475L47.4922 149.642V148.788L47.5249 148.77L50.6893 150.584V151.475Z" fill="#72B8CF"/>
<path opacity="0.5" d="M47.4922 150.256L50.6893 152.089V152.952L49.7358 153.5L47.4922 152.214V150.256Z" fill="#72B8CF"/>
<path d="M47.4922 151.507L50.6893 149.674V149.215L47.4922 151.048V151.507Z" fill="#283036"/>
<path d="M62.6566 136.568V129.979L58.9453 132.109V138.698L62.6566 136.568Z" fill="#283036"/>
<path d="M59.2031 138.254L62.4002 136.421V130.426L59.2031 132.259V138.254Z" fill="#72B8CF"/>
<path opacity="0.5" d="M62.4002 134.944L59.2031 133.111V132.257L59.2358 132.238L62.4002 134.053V134.944Z" fill="#72B8CF"/>
<path opacity="0.5" d="M59.2031 133.725L62.4002 135.553V136.421L61.4467 136.968L59.2031 135.683V133.725Z" fill="#72B8CF"/>
<path d="M59.2031 134.973L62.4002 133.145V132.686L59.2031 134.519V134.973Z" fill="#283036"/>
<path d="M56.8019 139.951V133.361L53.0859 135.491V142.081L56.8019 139.951Z" fill="#283036"/>
<path d="M53.3438 141.637L56.5362 139.804V133.812L53.3438 135.641V141.637Z" fill="#72B8CF"/>
<path opacity="0.5" d="M56.5362 138.327L53.3438 136.494V135.64L53.3718 135.621L56.5362 137.436V138.327Z" fill="#72B8CF"/>
<path opacity="0.5" d="M53.3438 137.107L56.5362 138.94V139.804L55.5873 140.351L53.3438 139.066V137.107Z" fill="#72B8CF"/>
<path d="M53.3438 138.359L56.5362 136.526V136.066L53.3438 137.899V138.359Z" fill="#283036"/>
<path d="M50.9456 143.303V136.713L47.2344 138.843V145.433L50.9456 143.303Z" fill="#283036"/>
<path d="M47.4922 144.988L50.6893 143.155V137.164L47.4922 138.992V144.988Z" fill="#72B8CF"/>
<path opacity="0.5" d="M50.6893 141.678L47.4922 139.845V138.991L47.5249 138.973L50.6893 140.787V141.678Z" fill="#72B8CF"/>
<path opacity="0.5" d="M47.4922 140.459L50.6893 142.292V143.155L49.7358 143.703L47.4922 142.417V140.459Z" fill="#72B8CF"/>
<path d="M47.4922 141.71L50.6893 139.877V139.418L47.4922 141.251V141.71Z" fill="#283036"/>
<path d="M74.3722 129.836V123.246L70.6562 125.371V131.961L74.3722 129.836Z" fill="#283036"/>
<path d="M70.9219 131.515L74.1143 129.687V123.691L70.9219 125.52V131.515Z" fill="#72B8CF"/>
<path opacity="0.5" d="M74.1143 128.207L70.9219 126.374V125.52L70.9499 125.506L74.1143 127.316V128.207Z" fill="#72B8CF"/>
<path opacity="0.5" d="M70.9219 126.986L74.1143 128.819V129.687L73.1608 130.23L70.9219 128.945V126.986Z" fill="#72B8CF"/>
<path d="M70.9219 128.24L74.1143 126.407V125.947L70.9219 127.78V128.24Z" fill="#283036"/>
<path d="M68.5128 133.219V126.629L64.7969 128.759V135.349L68.5128 133.219Z" fill="#283036"/>
<path d="M65.0625 134.903L68.2549 133.07V127.074L65.0625 128.907V134.903Z" fill="#72B8CF"/>
<path opacity="0.5" d="M68.2549 131.594L65.0625 129.761V128.907L65.0952 128.889L68.2549 130.703V131.594Z" fill="#72B8CF"/>
<path opacity="0.5" d="M65.0625 130.373L68.2549 132.201V133.069L67.3061 133.617L65.0625 132.331V130.373Z" fill="#72B8CF"/>
<path d="M65.0625 131.622L68.2549 129.793V129.334L65.0625 131.167V131.622Z" fill="#283036"/>
<path d="M80.2269 126.484V119.895L76.5156 122.025V128.614L80.2269 126.484Z" fill="#283036"/>
<path d="M76.7734 128.17L79.9705 126.337V120.346L76.7734 122.174V128.17Z" fill="#72B8CF"/>
<path opacity="0.5" d="M79.9705 124.86L76.7734 123.027V122.173L76.8062 122.154L79.9705 123.969V124.86Z" fill="#72B8CF"/>
<path opacity="0.5" d="M76.7734 123.641L79.9705 125.474V126.337L79.017 126.884L76.7734 125.599V123.641Z" fill="#72B8CF"/>
<path d="M76.7734 124.892L79.9705 123.059V122.6L76.7734 124.433V124.892Z" fill="#283036"/>
<path d="M74.3566 139.637V133.047L70.6406 135.172V141.767L74.3566 139.637Z" fill="#283036"/>
<path d="M70.8984 141.318L74.0955 139.49V133.494L70.8984 135.327V141.318Z" fill="#72B8CF"/>
<path opacity="0.5" d="M74.0955 138.007L70.8984 136.179V135.325L70.9312 135.307L74.0955 137.116V138.007Z" fill="#72B8CF"/>
<path opacity="0.5" d="M70.8984 136.787L74.0955 138.62V139.488L73.142 140.031L70.8984 138.745V136.787Z" fill="#72B8CF"/>
<path d="M70.8984 138.04L74.0955 136.207V135.752L70.8984 137.58V138.04Z" fill="#283036"/>
<path d="M80.2113 136.287V129.697L76.5 131.827V138.417L80.2113 136.287Z" fill="#283036"/>
<path d="M76.7578 137.973L79.9549 136.139V130.148L76.7578 131.977V137.973Z" fill="#72B8CF"/>
<path opacity="0.5" d="M79.9549 134.663L76.7578 132.829V131.976L76.7905 131.957L79.9549 133.772V134.663Z" fill="#72B8CF"/>
<path opacity="0.5" d="M76.7578 133.443L79.9549 135.276V136.14L79.0014 136.687L76.7578 135.402V133.443Z" fill="#72B8CF"/>
<path d="M76.7578 134.695L79.9549 132.862V132.402L76.7578 134.235V134.695Z" fill="#283036"/>
<path d="M62.6566 126.791V120.201L58.9453 122.331V128.921L62.6566 126.791Z" fill="#283036"/>
<path d="M59.2031 128.473L62.4002 126.644V120.648L59.2031 122.481V128.473Z" fill="#72B8CF"/>
<path opacity="0.5" d="M62.4002 125.162L59.2031 123.333V122.48L59.2358 122.461L62.4002 124.275V125.162Z" fill="#72B8CF"/>
<path opacity="0.5" d="M59.2031 123.947L62.4002 125.776V126.643L61.4467 127.191L59.2031 125.906V123.947Z" fill="#72B8CF"/>
<path d="M59.2031 125.196L62.4002 123.363V122.908L59.2031 124.737V125.196Z" fill="#283036"/>
<path d="M56.8019 130.174V123.584L53.0859 125.714V132.304L56.8019 130.174Z" fill="#283036"/>
<path d="M53.3438 131.86L56.5362 130.027V124.031L53.3438 125.864V131.86Z" fill="#72B8CF"/>
<path opacity="0.5" d="M56.5362 128.549L53.3438 126.716V125.862L53.3718 125.844L56.5362 127.658V128.549Z" fill="#72B8CF"/>
<path opacity="0.5" d="M53.3438 127.33L56.5362 129.163V130.026L55.5873 130.574L53.3438 129.288V127.33Z" fill="#72B8CF"/>
<path d="M53.3438 128.582L56.5362 126.748V126.289L53.3438 128.122V128.582Z" fill="#283036"/>
<path d="M50.9456 133.525V126.936L47.2344 129.066V135.655L50.9456 133.525Z" fill="#283036"/>
<path d="M47.4922 135.21L50.6893 133.377V127.381L47.4922 129.214V135.21Z" fill="#72B8CF"/>
<path opacity="0.5" d="M50.6893 131.901L47.4922 130.068V129.214L47.5249 129.195L50.6893 131.01V131.901Z" fill="#72B8CF"/>
<path opacity="0.5" d="M47.4922 130.682L50.6893 132.515V133.378L49.7358 133.925L47.4922 132.64V130.682Z" fill="#72B8CF"/>
<path d="M47.4922 131.928L50.6893 130.1V129.641L47.4922 131.474V131.928Z" fill="#283036"/>
<path d="M74.3722 120.057V113.463L70.6562 115.593V122.183L74.3722 120.057Z" fill="#283036"/>
<path d="M70.9219 121.738L74.1143 119.905V113.914L70.9219 115.742V121.738Z" fill="#72B8CF"/>
<path opacity="0.5" d="M74.1143 118.428L70.9219 116.595V115.741L70.9499 115.723L74.1143 117.537V118.428Z" fill="#72B8CF"/>
<path opacity="0.5" d="M70.9219 117.207L74.1143 119.04V119.903L73.1608 120.451L70.9219 119.165V117.207Z" fill="#72B8CF"/>
<path d="M70.9219 118.46L74.1143 116.627V116.168L70.9219 118.001V118.46Z" fill="#283036"/>
<path d="M68.5128 123.441V116.852L64.7969 118.982V125.571L68.5128 123.441Z" fill="#283036"/>
<path d="M65.0625 125.121L68.2549 123.293V117.297L65.0625 119.13V125.121Z" fill="#72B8CF"/>
<path opacity="0.5" d="M68.2549 121.812L65.0625 119.984V119.13L65.0952 119.111L68.2549 120.926V121.812Z" fill="#72B8CF"/>
<path opacity="0.5" d="M65.0625 120.598L68.2549 122.426V123.294L67.3061 123.841L65.0625 122.556V120.598Z" fill="#72B8CF"/>
<path d="M65.0625 121.844L68.2549 120.016V119.557L65.0625 121.385V121.844Z" fill="#283036"/>
<path d="M80.2269 116.707V110.117L76.5156 112.247V118.837L80.2269 116.707Z" fill="#283036"/>
<path d="M76.7734 118.39L79.9705 116.557V110.566L76.7734 112.395V118.39Z" fill="#72B8CF"/>
<path opacity="0.5" d="M79.9705 115.082L76.7734 113.249V112.396L76.8062 112.377L79.9705 114.191V115.082Z" fill="#72B8CF"/>
<path opacity="0.5" d="M76.7734 113.861L79.9705 115.694V116.558L79.017 117.105L76.7734 115.82V113.861Z" fill="#72B8CF"/>
<path d="M76.7734 115.115L79.9705 113.282V112.822L76.7734 114.655V115.115Z" fill="#283036"/>
<path d="M45.7557 121.493L45.0312 121.896V118.931L45.7557 118.527V121.493Z" fill="#283036"/>
<path opacity="0.3" d="M45.7557 121.493L45.0312 121.896V118.931L45.7557 118.527V121.493Z" fill="#283036"/>
<path d="M45.7593 118.527L45.0349 118.931L44.1094 118.415L44.8339 118.012L45.7593 118.527Z" fill="#283036"/>
<path d="M44.1094 118.416L45.0349 118.931V121.896L44.1094 121.381V118.416Z" fill="#283036"/>
<path opacity="0.3" d="M44.1094 118.416L45.0349 118.931V121.896L44.1094 121.381V118.416Z" fill="#283036"/>
<path d="M51.7198 118.066L51 118.47V115.505L51.7198 115.105V118.066Z" fill="#283036"/>
<path opacity="0.3" d="M51.7198 118.066L51 118.47V115.505L51.7198 115.105V118.066Z" fill="#283036"/>
<path d="M51.7234 115.106L51.0036 115.505L50.0781 114.99L50.8026 114.586L51.7234 115.106Z" fill="#283036"/>
<path d="M50.0781 114.988L51.0036 115.503V118.469L50.0781 117.954V114.988Z" fill="#283036"/>
<path opacity="0.3" d="M50.0781 114.988L51.0036 115.503V118.469L50.0781 117.954V114.988Z" fill="#283036"/>
<path d="M57.701 114.647L56.9766 115.046V112.085L57.701 111.682V114.647Z" fill="#283036"/>
<path opacity="0.3" d="M57.701 114.647L56.9766 115.046V112.085L57.701 111.682V114.647Z" fill="#283036"/>
<path d="M57.7 111.681L56.9755 112.085L56.0547 111.565L56.7745 111.166L57.7 111.681Z" fill="#283036"/>
<path d="M56.0547 111.566L56.9755 112.086V115.047L56.0547 114.532V111.566Z" fill="#283036"/>
<path opacity="0.3" d="M56.0547 111.566L56.9755 112.086V115.047L56.0547 114.532V111.566Z" fill="#283036"/>
<path d="M63.6776 111.221L62.9531 111.625V108.66L63.6776 108.256V111.221Z" fill="#283036"/>
<path opacity="0.3" d="M63.6776 111.221L62.9531 111.625V108.66L63.6776 108.256V111.221Z" fill="#283036"/>
<path d="M63.6734 108.257L62.9489 108.661L62.0234 108.146L62.7479 107.742L63.6734 108.257Z" fill="#283036"/>
<path d="M62.0234 108.145L62.9489 108.66V111.625L62.0234 111.105V108.145Z" fill="#283036"/>
<path opacity="0.3" d="M62.0234 108.145L62.9489 108.66V111.625L62.0234 111.105V108.145Z" fill="#283036"/>
<path d="M69.6417 107.797L68.9219 108.201V105.236L69.6417 104.832V107.797Z" fill="#283036"/>
<path opacity="0.3" d="M69.6417 107.797L68.9219 108.201V105.236L69.6417 104.832V107.797Z" fill="#283036"/>
<path d="M69.6453 104.833L68.9255 105.237L68 104.722L68.7245 104.318L69.6453 104.833Z" fill="#283036"/>
<path d="M68 104.721L68.9255 105.236V108.201L68 107.686V104.721Z" fill="#283036"/>
<path opacity="0.3" d="M68 104.721L68.9255 105.236V108.201L68 107.686V104.721Z" fill="#283036"/>
<path d="M75.6151 104.372L74.8906 104.775V101.81L75.6151 101.406V104.372Z" fill="#283036"/>
<path opacity="0.3" d="M75.6151 104.372L74.8906 104.775V101.81L75.6151 101.406V104.372Z" fill="#283036"/>
<path d="M75.614 101.408L74.8896 101.811L73.9688 101.296L74.6886 100.893L75.614 101.408Z" fill="#283036"/>
<path d="M73.9688 101.295L74.8896 101.81V104.775L73.9688 104.26V101.295Z" fill="#283036"/>
<path opacity="0.3" d="M73.9688 101.295L74.8896 101.81V104.775L73.9688 104.26V101.295Z" fill="#283036"/>
<path d="M33.8828 156.824V160.657L43.6471 166.249L42.17 161.618L33.8828 156.824Z" fill="#E1BD9A"/>
<path d="M43.6471 160.946L33.8828 155.279V156.834L35.2243 159.892L43.6471 164.783L84.1998 139.093L82.7134 138.48L43.6471 160.946Z" fill="#E1BD9A"/>
<path d="M84.2011 142.932L43.6484 166.251V162.417L84.2011 139.094V142.932Z" fill="#E1BD9A"/>
<path opacity="0.3" d="M84.2011 142.932L43.6484 166.251V162.417L84.2011 139.094V142.932Z" fill="#E1BD9A"/>
<path d="M35.2266 157.525V161.359L43.6493 166.25V162.417L35.2266 157.525Z" fill="#E1BD9A"/>
<path opacity="0.3" d="M33.8828 156.824V160.657L43.6471 166.249V162.416L33.8828 156.824Z" fill="#E1BD9A"/>
<path d="M68.6603 146.561L60.2656 151.391V156.204H61.1163L68.6603 151.865V146.561Z" fill="#823130"/>
<path opacity="0.3" d="M68.6603 146.561L60.2656 151.391V156.204H61.1163L68.6603 151.865V146.561Z" fill="#823130"/>
<path d="M67.2181 152.708V144.531L62.6094 147.172V155.349L67.2181 152.708Z" fill="#283036"/>
<path d="M62.9375 154.797L66.9012 152.523V145.084L62.9375 147.358V154.797Z" fill="#72B8CF"/>
<path opacity="0.5" d="M66.9012 150.689L62.9375 148.415V147.357L62.9749 147.334L66.9012 149.585V150.689Z" fill="#72B8CF"/>
<path opacity="0.5" d="M62.9375 149.176L66.9012 151.45V152.522L65.7186 153.199L62.9375 151.603V149.176Z" fill="#72B8CF"/>
<path d="M64.6641 153.803L65.1595 153.515V146.076L64.6641 146.364V153.803Z" fill="#283036"/>
<path d="M76.0244 149.016C76.0244 148.209 75.3841 147.55 74.5801 147.513C74.2763 147.207 73.8556 147.012 73.3882 147.012C73.0517 147.012 72.7432 147.109 72.4814 147.281C72.3505 147.225 72.2056 147.193 72.0561 147.193C71.4625 147.193 70.9857 147.666 70.9764 148.251C70.5978 148.608 70.3594 149.114 70.3594 149.675C70.3594 150.126 70.5136 150.539 70.7707 150.873C70.7707 150.887 70.766 150.901 70.766 150.914C70.766 151.624 71.3456 152.195 72.0561 152.195C72.2804 152.195 72.4908 152.135 72.6731 152.033C72.8741 152.14 73.1031 152.195 73.3461 152.195C73.5658 152.195 73.7715 152.144 73.9538 152.061C74.0847 152.116 74.2295 152.144 74.3838 152.144C74.9727 152.144 75.4542 151.694 75.5103 151.123C75.529 151.105 75.5476 151.086 75.5617 151.068C75.8374 150.803 76.0104 150.436 76.0104 150.023C76.0104 149.852 75.9777 149.689 75.9263 149.536C75.9917 149.378 76.0244 149.202 76.0244 149.016Z" fill="#005750"/>
<path opacity="0.3" d="M74.5294 148.445C74.5294 147.963 74.1461 147.568 73.6646 147.545C73.4824 147.359 73.23 147.248 72.9495 147.248C72.7485 147.248 72.5616 147.308 72.4073 147.41C72.3278 147.378 72.2437 147.359 72.1549 147.359C71.7997 147.359 71.5146 147.643 71.5099 147.991C71.2808 148.204 71.1406 148.506 71.1406 148.84C71.1406 149.109 71.2341 149.36 71.3884 149.554C71.3884 149.564 71.3837 149.573 71.3837 149.578C71.3837 150 71.7296 150.343 72.1549 150.343C72.2905 150.343 72.412 150.306 72.5242 150.246C72.6457 150.306 72.7812 150.343 72.9261 150.343C73.057 150.343 73.1785 150.315 73.2907 150.264C73.3702 150.297 73.459 150.315 73.5478 150.315C73.903 150.315 74.1882 150.046 74.2209 149.703C74.2302 149.694 74.2396 149.68 74.2536 149.67C74.4172 149.513 74.52 149.29 74.52 149.049C74.52 148.947 74.5013 148.849 74.4686 148.756C74.506 148.663 74.5294 148.557 74.5294 148.445Z" fill="#005750"/>
<g opacity="0.3">
<path d="M76.0213 149.016C76.0213 148.214 75.3903 147.564 74.5957 147.518C74.7359 147.648 74.8574 147.801 74.9462 147.982C75.1425 148.385 75.1519 148.826 75.0023 149.216C75.1986 149.638 75.021 150.144 74.5957 150.348C74.4882 150.399 74.376 150.427 74.2591 150.432C74.1329 150.645 73.9413 150.822 73.7029 150.938C73.3664 151.1 72.9971 151.109 72.6746 150.993C72.0857 151.244 71.3939 150.993 71.1134 150.418C71.048 150.283 71.0106 150.144 70.9966 150.005C70.9031 149.917 70.8237 149.81 70.7629 149.685C70.618 149.392 70.6133 149.068 70.7161 148.784C70.7208 148.766 70.7302 148.747 70.7348 148.729C70.7208 148.687 70.7021 148.636 70.6881 148.59C70.4731 148.9 70.3516 149.276 70.3516 149.685C70.3516 150.135 70.5058 150.548 70.7629 150.882C70.7629 150.896 70.7582 150.91 70.7582 150.924C70.7582 151.634 71.3378 152.205 72.0483 152.205C72.2726 152.205 72.483 152.144 72.6653 152.042C72.8662 152.149 73.0953 152.205 73.3383 152.205C73.558 152.205 73.7637 152.154 73.946 152.07C74.0768 152.126 74.2217 152.154 74.376 152.154C74.9649 152.154 75.4464 151.703 75.5024 151.133C75.5211 151.114 75.5398 151.095 75.5539 151.077C75.8296 150.812 76.0026 150.446 76.0026 150.033C76.0026 149.861 75.9699 149.699 75.9184 149.546C75.9886 149.378 76.0213 149.202 76.0213 149.016Z" fill="#005750"/>
<path d="M74.2188 147.238C74.2234 147.248 74.2234 147.252 74.2281 147.261C74.2935 147.294 74.359 147.336 74.4197 147.378C74.359 147.326 74.2889 147.28 74.2188 147.238Z" fill="#005750"/>
</g>
<g opacity="0.3">
<path d="M76.0197 149.017C76.0197 148.441 75.6926 147.94 75.2111 147.689C75.4916 147.945 75.6739 148.307 75.6739 148.72C75.6739 148.891 75.6411 149.058 75.585 149.212C75.6365 149.355 75.6645 149.504 75.6645 149.666C75.6645 150.047 75.5056 150.39 75.2485 150.636C75.2345 150.655 75.2158 150.669 75.2018 150.687C75.1504 151.221 74.7016 151.639 74.1501 151.639C74.0099 151.639 73.8743 151.611 73.7481 151.56C73.5752 151.639 73.3835 151.685 73.1825 151.685C72.9535 151.685 72.7432 151.629 72.5562 151.532C72.3833 151.625 72.1916 151.685 71.9813 151.685C71.3176 151.685 70.78 151.151 70.78 150.492C70.78 150.478 70.7847 150.469 70.7847 150.455C70.5463 150.149 70.4014 149.759 70.4014 149.342C70.4014 149.314 70.4061 149.286 70.4061 149.258C70.3734 149.397 70.3594 149.541 70.3594 149.685C70.3594 150.135 70.5136 150.548 70.7707 150.882C70.7707 150.896 70.766 150.91 70.766 150.924C70.766 151.634 71.3456 152.205 72.0561 152.205C72.2804 152.205 72.4908 152.144 72.6731 152.042C72.8741 152.149 73.1031 152.205 73.3461 152.205C73.5658 152.205 73.7715 152.154 73.9538 152.07C74.0847 152.126 74.2296 152.154 74.3838 152.154C74.9727 152.154 75.4542 151.704 75.5103 151.133C75.529 151.114 75.5477 151.096 75.5617 151.077C75.8375 150.813 76.0104 150.446 76.0104 150.033C76.0104 149.861 75.9777 149.699 75.9263 149.546C75.987 149.379 76.0197 149.202 76.0197 149.017Z" fill="#005750"/>
<path d="M74.2891 147.279C74.3031 147.293 74.3124 147.303 74.3265 147.312C74.3311 147.312 74.3405 147.312 74.3451 147.316C74.3265 147.307 74.3078 147.293 74.2891 147.279Z" fill="#005750"/>
</g>
<path d="M76.8461 101.324L43.2812 120.476V113.32L76.8461 94.168V101.324Z" fill="#E1BD9A"/>
<path opacity="0.3" d="M76.8461 101.324L43.2812 120.476V113.32L76.8461 94.168V101.324Z" fill="#E1BD9A"/>
<path d="M76.8413 94.1675L43.2764 113.319L41.0469 112.076L74.6071 92.9238L76.8413 94.1675Z" fill="#E1BD9A"/>
<path d="M41.0469 112.076L43.2764 113.32V120.476L41.0469 119.232V112.076Z" fill="#E1BD9A"/>
<path opacity="0.3" d="M41.0469 112.076L43.2764 113.32V120.476L41.0469 119.232V112.076Z" fill="#E1BD9A"/>
<path d="M47.1271 113.21V113.786L46.8841 113.925V114.89C46.8841 115.609 47.0477 115.67 47.3328 115.503C47.6086 115.345 47.7862 115.136 47.7862 114.366V113.419L47.5431 113.558V112.969L48.8753 112.203V112.779L48.6322 112.918V114.004C48.6322 115.066 48.1882 115.8 47.3375 116.287C46.426 116.783 45.9399 116.589 45.9399 115.572V114.468L45.6875 114.612V114.032L47.1271 113.21Z" fill="#823130"/>
<path d="M52.2175 110.872V113.424L51.25 113.981L50.1002 112.937V114.064L50.446 113.865V114.44L49.0625 115.234V114.658L49.3289 114.505V112.528L49.0672 112.677V112.097L50.3619 111.354L51.465 112.366V111.299L51.1565 111.475V110.895L52.512 110.115V110.695L52.2175 110.872Z" fill="#823130"/>
<path d="M54.2301 109.137V109.726L53.9496 109.884V111.828L54.2301 111.666V112.26L52.7344 113.118V112.524L53.0195 112.362V110.418L52.7344 110.58V109.991L54.2301 109.137Z" fill="#823130"/>
<path d="M56.2663 110.096C56.2756 109.966 56.3364 109.711 56.4299 109.432L56.8412 108.221L56.6028 108.36V107.78L57.8835 107.047V107.627L57.6638 107.752L56.5841 110.917L55.7568 111.39L54.5602 109.53L54.3125 109.673V109.093L55.9718 108.142V108.722L55.7288 108.861L56.112 109.646C56.1821 109.822 56.2429 109.989 56.2523 110.105L56.2663 110.096Z" fill="#823130"/>
<path d="M60.6688 105.445V106.434L59.8882 106.879V106.48L59.1684 106.893V107.51L60.0238 107.018V107.612L59.1684 108.104V108.833L59.8882 108.42V108.002L60.6688 107.557V108.568L57.9531 110.132V109.538L58.2382 109.376V107.431L57.9531 107.594V107.005L60.6688 105.445Z" fill="#823130"/>
<path d="M62.3583 104.476C63.4053 103.878 63.6063 104.17 63.6063 104.681C63.6063 105.029 63.3258 105.437 62.9519 105.706C63.2651 105.572 63.5409 105.683 63.5409 106.003C63.5409 106.193 63.5689 106.291 63.6484 106.244C63.7138 106.207 63.7512 106.133 63.7512 106.04V105.892L64.055 105.72V105.966C64.055 106.337 63.8961 106.773 63.396 107.061C62.807 107.4 62.5219 107.251 62.5219 106.732C62.5219 106.323 62.4705 106.254 62.0732 106.486V107.182L62.349 107.024V107.613L60.8906 108.449V107.859L61.143 107.716V105.762L60.8906 105.906V105.321L62.3583 104.476ZM62.0732 105.985L62.2742 105.869C62.5359 105.72 62.7089 105.497 62.7089 105.256C62.7089 104.991 62.5593 104.945 62.2975 105.094L62.0732 105.224V105.985Z" fill="#823130"/>
<path d="M64.2203 105.414L65.057 104.932C65.057 105.307 65.4356 105.154 65.6225 105.052C65.7814 104.964 66.0058 104.797 66.0058 104.607C66.0058 104.259 64.2764 105.4 64.2764 104.259C64.2764 103.595 64.9074 102.936 65.3468 102.681C65.7254 102.463 66.1086 102.365 66.2909 102.597L66.3377 102.194L67.1136 101.748V102.871L66.2956 103.34C66.2956 103.01 66.0338 102.969 65.7207 103.15C65.5898 103.224 65.4075 103.409 65.4075 103.567C65.4075 104.027 67.193 102.899 67.193 103.948C67.193 104.644 66.534 105.275 65.9965 105.581C65.5431 105.841 65.2252 105.813 65.0523 105.711L65.0009 106.082L64.2109 106.533V105.414H64.2203Z" fill="#823130"/>
<path d="M68.9176 100.717V101.306L68.6372 101.469V103.413L68.9176 103.251V103.845L67.4219 104.703V104.109L67.707 103.947V102.002L67.4219 102.165V101.575L68.9176 100.717Z" fill="#823130"/>
<path d="M72.1226 100.044L71.4589 100.425V99.8542L71.0803 100.072V102.017L71.4542 101.803V102.397L69.7762 103.358V102.764L70.1454 102.55V100.601L69.7575 100.824V101.395L69.0938 101.775V100.611L72.1179 98.875V100.044H72.1226Z" fill="#823130"/>
<path d="M73.881 99.2875C73.8997 99.1854 73.9978 98.9441 74.0493 98.8049L74.297 98.2109L74.0493 98.3548V97.784L75.2599 97.0879V97.6587L75.0168 97.7979L74.1848 99.733V100.253L74.4372 100.109V100.689L72.9929 101.515V100.935L73.25 100.786V100.257L72.3759 99.3107L72.1562 99.436V98.8652L73.6987 97.9835V98.5543L73.465 98.6889L73.7268 99.0137C73.7548 99.0834 73.8483 99.2319 73.867 99.2968L73.881 99.2875Z" fill="#823130"/>
<path d="M61.9594 157.764L60.3281 158.701V146.028L61.9594 145.086V157.764Z" fill="#E1BD9A"/>
<path opacity="0.3" d="M61.9594 157.764L60.3281 158.701V146.028L61.9594 145.086V157.764Z" fill="#E1BD9A"/>
<path d="M61.9528 145.085L60.3216 146.027L58.5781 145.029L60.2141 144.092L61.9528 145.085Z" fill="#E1BD9A"/>
<path d="M58.5781 145.029L60.3216 146.027V158.701L58.5781 157.703V145.029Z" fill="#E1BD9A"/>
<path opacity="0.3" d="M58.5781 145.029L60.3216 146.027V158.701L58.5781 157.703V145.029Z" fill="#E1BD9A"/>
<path opacity="0.3" d="M61.9528 145.085L60.2141 144.092L58.5781 145.029V157.703L60.3216 158.7L61.9528 157.763V145.085Z" fill="#E1BD9A"/>
<path d="M71.175 152.502L69.5391 153.439V140.766L71.175 139.828V152.502Z" fill="#E1BD9A"/>
<path opacity="0.3" d="M71.175 152.502L69.5391 153.439V140.766L71.175 139.828V152.502Z" fill="#E1BD9A"/>
<path d="M71.1763 139.828L69.5403 140.765L67.7969 139.767L69.4328 138.83L71.1763 139.828Z" fill="#E1BD9A"/>
<path d="M67.7969 139.768L69.5403 140.765V153.439L67.7969 152.446V139.768Z" fill="#E1BD9A"/>
<path opacity="0.3" d="M67.7969 139.768L69.5403 140.765V153.439L67.7969 152.446V139.768Z" fill="#E1BD9A"/>
<path opacity="0.3" d="M71.1716 139.828L69.4328 138.83L67.7969 139.767V152.446L69.5403 153.439L71.1763 152.501V139.828H71.1716Z" fill="#E1BD9A"/>
<path d="M67.9797 161.179L66.3438 162.117V149.443L67.9797 148.506V161.179Z" fill="#E1BD9A"/>
<path opacity="0.3" d="M67.9797 161.179L66.3438 162.117V149.443L67.9797 148.506V161.179Z" fill="#E1BD9A"/>
<path d="M67.9731 148.506L66.3372 149.443L64.5938 148.445L66.2297 147.508L67.9731 148.506Z" fill="#E1BD9A"/>
<path d="M64.5938 148.445L66.3372 149.443V162.117L64.5938 161.123V148.445Z" fill="#E1BD9A"/>
<path opacity="0.3" d="M64.5938 148.445L66.3372 149.443V162.117L64.5938 161.123V148.445Z" fill="#E1BD9A"/>
<path opacity="0.3" d="M67.9731 148.506L66.2297 147.508L64.5938 148.445V161.123L66.3372 162.116L67.9731 161.179V148.506Z" fill="#E1BD9A"/>
<path d="M77.2219 155.972L75.5859 156.91V144.236L77.2219 143.299V155.972Z" fill="#E1BD9A"/>
<path opacity="0.3" d="M77.2219 155.972L75.5859 156.91V144.236L77.2219 143.299V155.972Z" fill="#E1BD9A"/>
<path d="M77.2231 143.299L75.5872 144.236L73.8438 143.238L75.4797 142.301L77.2231 143.299Z" fill="#E1BD9A"/>
<path d="M73.8438 143.238L75.5872 144.236V156.91L73.8438 155.912V143.238Z" fill="#E1BD9A"/>
<path opacity="0.3" d="M73.8438 143.238L75.5872 144.236V156.91L73.8438 155.912V143.238Z" fill="#E1BD9A"/>
<path opacity="0.3" d="M77.2231 143.299L75.4797 142.301L73.8438 143.238V155.912L75.5872 156.909L77.2231 155.972V143.299Z" fill="#E1BD9A"/>
<path d="M77.2283 143.351L66.375 149.486V147.588L77.2283 141.453V143.351Z" fill="#E1BD9A"/>
<path opacity="0.3" d="M77.2283 143.351L66.375 149.486V147.588L77.2283 141.453V143.351Z" fill="#E1BD9A"/>
<path d="M77.2232 141.452L66.3699 147.587L58.5781 143.188L69.4314 137.053L77.2232 141.452Z" fill="#E1BD9A"/>
<path d="M58.5781 143.188L66.3699 147.587V149.485L58.5781 145.086V143.188Z" fill="#E1BD9A"/>
<path opacity="0.3" d="M58.5781 143.188L66.3699 147.587V149.485L58.5781 145.086V143.188Z" fill="#E1BD9A"/>
<path opacity="0.3" d="M77.2232 141.452L69.4314 137.053L58.5781 143.188V145.086L66.3699 149.485L77.2232 143.35V141.452Z" fill="#E1BD9A"/>
<path d="M60.1572 157.893C60.1572 157.086 59.5169 156.432 58.7129 156.39C58.4091 156.084 57.9884 155.889 57.521 155.889C57.1845 155.889 56.876 155.986 56.6142 156.158C56.4834 156.102 56.3385 156.07 56.1889 156.07C55.5953 156.07 55.1185 156.543 55.1092 157.128C54.7306 157.485 54.4922 157.991 54.4922 158.552C54.4922 159.003 54.6464 159.416 54.9035 159.75C54.9035 159.764 54.8988 159.778 54.8988 159.791C54.8988 160.501 55.4784 161.072 56.1889 161.072C56.4133 161.072 56.6236 161.012 56.8059 160.91C57.0069 161.017 57.2359 161.072 57.479 161.072C57.6986 161.072 57.9043 161.026 58.0866 160.938C58.2221 160.993 58.3624 161.021 58.5166 161.021C59.1055 161.021 59.587 160.571 59.6431 160C59.6618 159.982 59.6805 159.963 59.6945 159.945C59.9703 159.68 60.1432 159.313 60.1432 158.9C60.1432 158.729 60.1105 158.566 60.0591 158.413C60.1198 158.255 60.1572 158.079 60.1572 157.893Z" fill="#005750"/>
<path opacity="0.3" d="M58.6544 157.322C58.6544 156.84 58.2711 156.445 57.7896 156.422C57.6074 156.236 57.355 156.125 57.0745 156.125C56.8735 156.125 56.6866 156.185 56.5323 156.287C56.4529 156.255 56.3687 156.236 56.2799 156.236C55.9247 156.236 55.6396 156.519 55.6349 156.867C55.4058 157.081 55.2656 157.383 55.2656 157.717C55.2656 157.986 55.3591 158.236 55.5134 158.431C55.5134 158.441 55.5087 158.45 55.5087 158.455C55.5087 158.877 55.8546 159.22 56.2799 159.22C56.4155 159.22 56.537 159.183 56.6492 159.123C56.7707 159.183 56.9062 159.22 57.0511 159.22C57.182 159.22 57.3035 159.192 57.4157 159.141C57.4952 159.174 57.584 159.192 57.6728 159.192C58.028 159.192 58.3132 158.923 58.3459 158.58C58.3552 158.571 58.3646 158.557 58.3786 158.547C58.5422 158.39 58.645 158.172 58.645 157.926C58.645 157.823 58.6263 157.726 58.5936 157.633C58.6357 157.54 58.6544 157.434 58.6544 157.322Z" fill="#005750"/>
<g opacity="0.3">
<path d="M60.1541 157.893C60.1541 157.091 59.5231 156.441 58.7285 156.395C58.8687 156.524 58.9902 156.678 59.079 156.859C59.2754 157.262 59.28 157.703 59.1351 158.093C59.3314 158.515 59.1538 159.021 58.7285 159.225C58.621 159.276 58.5088 159.304 58.3919 159.309C58.2657 159.522 58.0741 159.699 57.8357 159.815C57.4992 159.977 57.1299 159.986 56.8074 159.87C56.2185 160.121 55.5267 159.87 55.2463 159.295C55.1808 159.16 55.1434 159.021 55.1294 158.882C55.0359 158.794 54.9565 158.687 54.8957 158.562C54.7508 158.269 54.7461 157.945 54.849 157.661C54.8536 157.643 54.863 157.624 54.8677 157.606C54.8536 157.564 54.8349 157.513 54.8209 157.467C54.6059 157.777 54.4844 158.153 54.4844 158.562C54.4844 159.012 54.6386 159.425 54.8957 159.759C54.8957 159.773 54.891 159.787 54.891 159.801C54.891 160.511 55.4706 161.082 56.1811 161.082C56.4054 161.082 56.6158 161.021 56.7981 160.919C56.9991 161.026 57.2281 161.082 57.4711 161.082C57.6908 161.082 57.8965 161.035 58.0788 160.947C58.2143 161.003 58.3546 161.031 58.5088 161.031C59.0977 161.031 59.5792 160.58 59.6353 160.01C59.654 159.991 59.6727 159.972 59.6867 159.954C59.9625 159.689 60.1354 159.323 60.1354 158.91C60.1354 158.738 60.1027 158.576 60.0513 158.422C60.1167 158.255 60.1541 158.079 60.1541 157.893Z" fill="#005750"/>
<path d="M58.3594 156.117C58.364 156.126 58.3641 156.131 58.3687 156.14C58.4342 156.173 58.4996 156.215 58.5604 156.256C58.4996 156.205 58.4295 156.159 58.3594 156.117Z" fill="#005750"/>
</g>
<g opacity="0.3">
<path d="M60.1557 157.894C60.1557 157.318 59.8285 156.817 59.3471 156.566C59.6275 156.822 59.8098 157.184 59.8098 157.597C59.8098 157.768 59.7771 157.935 59.721 158.089C59.7724 158.232 59.8005 158.381 59.8005 158.543C59.8005 158.924 59.6415 159.267 59.3845 159.513C59.3704 159.532 59.3517 159.546 59.3377 159.564C59.2863 160.098 58.8376 160.516 58.2907 160.516C58.1505 160.516 58.0149 160.488 57.8887 160.437C57.7158 160.516 57.5242 160.562 57.3232 160.562C57.0941 160.562 56.8838 160.506 56.6968 160.409C56.5239 160.502 56.3323 160.562 56.1219 160.562C55.4582 160.562 54.9207 160.028 54.9207 159.369C54.9207 159.355 54.9253 159.346 54.9253 159.332C54.687 159.026 54.5421 158.636 54.5421 158.218C54.5421 158.191 54.5467 158.163 54.5467 158.135C54.514 158.274 54.5 158.413 54.5 158.562C54.5 159.012 54.6542 159.425 54.9113 159.759C54.9113 159.773 54.9067 159.787 54.9067 159.801C54.9067 160.511 55.4862 161.082 56.1967 161.082C56.4211 161.082 56.6314 161.021 56.8137 160.919C57.0147 161.026 57.2437 161.082 57.4868 161.082C57.7065 161.082 57.9121 161.035 58.0944 160.947C58.23 161.003 58.3702 161.031 58.5244 161.031C59.1134 161.031 59.5948 160.581 59.6509 160.01C59.6696 159.991 59.6883 159.973 59.7023 159.954C59.9781 159.69 60.151 159.323 60.151 158.91C60.151 158.738 60.1183 158.576 60.0669 158.423C60.1183 158.256 60.1557 158.079 60.1557 157.894Z" fill="#005750"/>
<path d="M58.4219 156.158C58.4359 156.172 58.4452 156.181 58.4593 156.191C58.4639 156.191 58.4733 156.191 58.478 156.195C58.4593 156.186 58.4406 156.172 58.4219 156.158Z" fill="#005750"/>
</g>
</g>
<rect x="153" width="343" height="99" rx="18" fill="#006DB7"/>
<path d="M97 122L208.5 86.026L176.5 62L97 122Z" fill="#006DB7"/>
<rect x="166.048" y="28.5476" width="41.9048" height="41.9048" rx="20.9524" fill="#4285F4"/>
<rect x="166.048" y="28.5476" width="41.9048" height="41.9048" rx="20.9524" stroke="white" stroke-width="2.09524"/>
<g clip-path="url(#clip1_171_34195)">
<path d="M197.058 42.731L189.684 39.218C188.06 38.2484 186.04 38.2312 184.401 39.173L176.944 42.731C176.916 42.745 176.887 42.76 176.86 42.776C175.09 43.7878 174.476 46.0426 175.487 47.8123C175.83 48.4122 176.335 48.9037 176.944 49.231L179.001 50.211V55.111C179.002 57.302 180.427 59.2378 182.52 59.889C183.975 60.3102 185.485 60.5164 187.001 60.501C188.516 60.518 190.025 60.3135 191.482 59.894C193.574 59.2429 194.999 57.3071 195.001 55.116V50.209L197.001 49.253V57.5009C197.001 58.0532 197.448 58.5009 198.001 58.5009C198.553 58.5009 199.001 58.0532 199.001 57.5009V45.5009C199.007 44.3267 198.08 43.2419 197.058 42.731ZM193.001 55.116C193.001 56.4266 192.151 57.5858 190.901 57.979C189.633 58.3412 188.319 58.517 187.001 58.501C185.682 58.517 184.368 58.3412 183.101 57.979C181.85 57.5858 181 56.4266 181.001 55.116V51.164L184.318 52.744C185.136 53.23 186.071 53.4854 187.023 53.483C187.929 53.4894 188.819 53.2496 189.6 52.789L193.001 51.164V55.116ZM196.201 47.426L188.659 51.026C187.607 51.6383 186.304 51.6209 185.269 50.981L177.89 47.471C177.067 47.0274 176.76 46.0011 177.203 45.1786C177.353 44.9005 177.578 44.6699 177.853 44.513L185.348 40.933C186.399 40.322 187.702 40.3393 188.738 40.978L196.112 44.491C196.654 44.7921 196.993 45.3607 197.001 45.981C197.002 46.5685 196.699 47.1149 196.201 47.426Z" fill="white"/>
</g>
<path d="M239.199 24.5909H242.624V36.9446C242.624 38.2988 242.304 39.4898 241.664 40.5178C241.03 41.5457 240.138 42.349 238.987 42.9276C237.835 43.5 236.491 43.7862 234.952 43.7862C233.407 43.7862 232.059 43.5 230.908 42.9276C229.757 42.349 228.864 41.5457 228.23 40.5178C227.596 39.4898 227.279 38.2988 227.279 36.9446V24.5909H230.705V36.6584C230.705 37.4463 230.877 38.148 231.222 38.7635C231.572 39.379 232.065 39.8622 232.699 40.2131C233.333 40.5578 234.084 40.7301 234.952 40.7301C235.82 40.7301 236.571 40.5578 237.205 40.2131C237.845 39.8622 238.337 39.379 238.682 38.7635C239.027 38.148 239.199 37.4463 239.199 36.6584V24.5909ZM249.542 35.1903V43.5H246.2V29.3182H249.394V31.728H249.561C249.887 30.9339 250.407 30.303 251.121 29.8352C251.841 29.3674 252.731 29.1335 253.789 29.1335C254.768 29.1335 255.62 29.3428 256.347 29.7614C257.079 30.1799 257.646 30.7862 258.046 31.5803C258.452 32.3743 258.652 33.3376 258.646 34.4702V43.5H255.303V34.9872C255.303 34.0393 255.057 33.2976 254.565 32.7621C254.079 32.2266 253.405 31.9588 252.543 31.9588C251.958 31.9588 251.438 32.0881 250.982 32.3466C250.533 32.599 250.179 32.9652 249.921 33.4453C249.668 33.9254 249.542 34.5071 249.542 35.1903ZM262.044 43.5V29.3182H265.386V43.5H262.044ZM263.724 27.3054C263.195 27.3054 262.739 27.13 262.357 26.7791C261.976 26.4221 261.785 25.9943 261.785 25.4957C261.785 24.991 261.976 24.5632 262.357 24.2124C262.739 23.8553 263.195 23.6768 263.724 23.6768C264.259 23.6768 264.715 23.8553 265.09 24.2124C265.472 24.5632 265.663 24.991 265.663 25.4957C265.663 25.9943 265.472 26.4221 265.09 26.7791C264.715 27.13 264.259 27.3054 263.724 27.3054ZM281.49 29.3182L276.44 43.5H272.747L267.696 29.3182H271.26L274.52 39.853H274.667L277.936 29.3182H281.49ZM289.599 43.777C288.177 43.777 286.949 43.4815 285.915 42.8906C284.887 42.2936 284.096 41.4503 283.542 40.3608C282.988 39.2652 282.711 37.9756 282.711 36.4922C282.711 35.0334 282.988 33.7531 283.542 32.6513C284.103 31.5433 284.884 30.6816 285.888 30.0661C286.891 29.4444 288.07 29.1335 289.424 29.1335C290.298 29.1335 291.123 29.2751 291.898 29.5582C292.68 29.8352 293.369 30.2661 293.966 30.8509C294.57 31.4356 295.044 32.1804 295.388 33.0852C295.733 33.9839 295.905 35.0549 295.905 36.2983V37.3232H284.281V35.0703H292.702C292.695 34.4302 292.557 33.8608 292.286 33.3622C292.015 32.8575 291.637 32.4605 291.15 32.1712C290.67 31.8819 290.11 31.7372 289.47 31.7372C288.787 31.7372 288.187 31.9034 287.67 32.2358C287.153 32.562 286.749 32.9929 286.46 33.5284C286.177 34.0578 286.032 34.6394 286.026 35.2734V37.2401C286.026 38.0649 286.177 38.7727 286.479 39.3636C286.78 39.9484 287.202 40.3977 287.743 40.7116C288.285 41.0194 288.919 41.1733 289.645 41.1733C290.132 41.1733 290.572 41.1056 290.966 40.9702C291.36 40.8286 291.701 40.6224 291.991 40.3516C292.28 40.0807 292.498 39.7453 292.646 39.3452L295.767 39.696C295.57 40.5208 295.194 41.241 294.64 41.8565C294.093 42.4659 293.391 42.9399 292.535 43.2784C291.68 43.6108 290.701 43.777 289.599 43.777ZM298.733 43.5V29.3182H301.974V31.6818H302.121C302.38 30.8632 302.823 30.2322 303.451 29.7891C304.085 29.3397 304.808 29.1151 305.621 29.1151C305.805 29.1151 306.012 29.1243 306.239 29.1428C306.473 29.1551 306.667 29.1766 306.821 29.2074V32.282C306.679 32.2327 306.455 32.1896 306.147 32.1527C305.845 32.1096 305.553 32.0881 305.27 32.0881C304.661 32.0881 304.113 32.2204 303.626 32.4851C303.146 32.7436 302.768 33.1037 302.491 33.5653C302.214 34.027 302.075 34.5594 302.075 35.1626V43.5H298.733ZM320.25 33.0668L317.203 33.3991C317.117 33.0914 316.967 32.8021 316.751 32.5312C316.542 32.2604 316.259 32.0419 315.902 31.8757C315.545 31.7095 315.108 31.6264 314.591 31.6264C313.895 31.6264 313.31 31.7772 312.836 32.0788C312.368 32.3804 312.138 32.7713 312.144 33.2514C312.138 33.6638 312.288 33.9993 312.596 34.2578C312.91 34.5163 313.427 34.7287 314.147 34.8949L316.566 35.4119C317.908 35.7012 318.905 36.1598 319.558 36.7876C320.217 37.4155 320.549 38.2372 320.555 39.2528C320.549 40.1454 320.287 40.9332 319.77 41.6165C319.259 42.2936 318.548 42.8229 317.637 43.2045C316.726 43.5862 315.68 43.777 314.498 43.777C312.762 43.777 311.365 43.4138 310.306 42.6875C309.248 41.955 308.617 40.9363 308.414 39.6314L311.673 39.3175C311.821 39.9576 312.135 40.4408 312.615 40.767C313.095 41.0933 313.72 41.2564 314.489 41.2564C315.283 41.2564 315.92 41.0933 316.4 40.767C316.886 40.4408 317.13 40.0376 317.13 39.5575C317.13 39.1513 316.973 38.8158 316.659 38.5511C316.351 38.2865 315.871 38.0833 315.218 37.9418L312.799 37.4339C311.439 37.1508 310.433 36.6738 309.78 36.0028C309.128 35.3258 308.805 34.4702 308.811 33.4361C308.805 32.562 309.042 31.8049 309.522 31.1648C310.008 30.5185 310.682 30.0199 311.544 29.669C312.412 29.312 313.412 29.1335 314.544 29.1335C316.206 29.1335 317.514 29.4875 318.468 30.1953C319.429 30.9032 320.023 31.8603 320.25 33.0668ZM323.311 43.5V29.3182H326.653V43.5H323.311ZM324.991 27.3054C324.462 27.3054 324.007 27.13 323.625 26.7791C323.243 26.4221 323.053 25.9943 323.053 25.4957C323.053 24.991 323.243 24.5632 323.625 24.2124C324.007 23.8553 324.462 23.6768 324.991 23.6768C325.527 23.6768 325.982 23.8553 326.358 24.2124C326.74 24.5632 326.93 24.991 326.93 25.4957C326.93 25.9943 326.74 26.4221 326.358 26.7791C325.982 27.13 325.527 27.3054 324.991 27.3054ZM335.353 43.7493C334.239 43.7493 333.242 43.4631 332.362 42.8906C331.481 42.3182 330.786 41.4872 330.275 40.3977C329.764 39.3082 329.509 37.9848 329.509 36.4276C329.509 34.8518 329.767 33.5223 330.284 32.4389C330.807 31.3494 331.512 30.5277 332.399 29.9737C333.285 29.4136 334.273 29.1335 335.362 29.1335C336.193 29.1335 336.877 29.2751 337.412 29.5582C337.948 29.8352 338.372 30.1707 338.686 30.5646C339 30.9524 339.243 31.3187 339.416 31.6634H339.554V24.5909H342.906V43.5H339.619V41.2656H339.416C339.243 41.6103 338.994 41.9766 338.668 42.3643C338.342 42.746 337.911 43.0722 337.375 43.343C336.84 43.6139 336.166 43.7493 335.353 43.7493ZM336.286 41.0071C336.994 41.0071 337.597 40.8163 338.095 40.4347C338.594 40.0469 338.972 39.5083 339.231 38.8189C339.49 38.1295 339.619 37.3262 339.619 36.4091C339.619 35.492 339.49 34.6948 339.231 34.0178C338.979 33.3407 338.603 32.8144 338.105 32.4389C337.612 32.0634 337.006 31.8757 336.286 31.8757C335.541 31.8757 334.919 32.0696 334.421 32.4574C333.922 32.8452 333.547 33.3807 333.294 34.0639C333.042 34.7472 332.916 35.5289 332.916 36.4091C332.916 37.2955 333.042 38.0864 333.294 38.782C333.553 39.4714 333.931 40.0161 334.43 40.4162C334.935 40.8101 335.553 41.0071 336.286 41.0071ZM350.548 43.7862C349.65 43.7862 348.84 43.6262 348.12 43.3061C347.406 42.9799 346.84 42.4998 346.421 41.8658C346.009 41.2318 345.803 40.45 345.803 39.5206C345.803 38.7204 345.95 38.0587 346.246 37.5355C346.541 37.0123 346.944 36.5938 347.455 36.2798C347.966 35.9659 348.542 35.7289 349.182 35.5689C349.828 35.4027 350.496 35.2827 351.185 35.2088C352.016 35.1226 352.69 35.0457 353.207 34.978C353.724 34.9041 354.1 34.7933 354.334 34.6456C354.574 34.4917 354.694 34.2547 354.694 33.9347V33.8793C354.694 33.1837 354.488 32.6451 354.075 32.2635C353.663 31.8819 353.069 31.6911 352.293 31.6911C351.475 31.6911 350.825 31.8696 350.345 32.2266C349.871 32.5836 349.551 33.0052 349.385 33.4915L346.264 33.0483C346.51 32.1866 346.917 31.4664 347.483 30.8878C348.049 30.303 348.742 29.866 349.56 29.5767C350.379 29.2812 351.284 29.1335 352.275 29.1335C352.958 29.1335 353.638 29.2135 354.315 29.3736C354.992 29.5336 355.611 29.7983 356.171 30.1676C356.731 30.5308 357.181 31.0263 357.519 31.6541C357.864 32.282 358.036 33.0668 358.036 34.0085V43.5H354.823V41.5518H354.712C354.509 41.9458 354.223 42.3151 353.854 42.6598C353.491 42.9983 353.032 43.2723 352.478 43.4815C351.93 43.6847 351.287 43.7862 350.548 43.7862ZM351.416 41.3303C352.087 41.3303 352.669 41.1979 353.161 40.9332C353.654 40.6624 354.032 40.3054 354.297 39.8622C354.568 39.419 354.703 38.9358 354.703 38.4126V36.7415C354.598 36.8277 354.42 36.9077 354.168 36.9815C353.921 37.0554 353.644 37.12 353.337 37.1754C353.029 37.2308 352.724 37.2801 352.423 37.3232C352.121 37.3662 351.859 37.4032 351.638 37.4339C351.139 37.5017 350.693 37.6125 350.299 37.7663C349.905 37.9202 349.594 38.1357 349.366 38.4126C349.139 38.6835 349.025 39.0343 349.025 39.4652C349.025 40.0807 349.25 40.5455 349.699 40.8594C350.148 41.1733 350.721 41.3303 351.416 41.3303ZM366.66 43.7493C365.546 43.7493 364.549 43.4631 363.668 42.8906C362.788 42.3182 362.093 41.4872 361.582 40.3977C361.071 39.3082 360.815 37.9848 360.815 36.4276C360.815 34.8518 361.074 33.5223 361.591 32.4389C362.114 31.3494 362.819 30.5277 363.705 29.9737C364.592 29.4136 365.58 29.1335 366.669 29.1335C367.5 29.1335 368.183 29.2751 368.719 29.5582C369.254 29.8352 369.679 30.1707 369.993 30.5646C370.307 30.9524 370.55 31.3187 370.722 31.6634H370.861V24.5909H374.212V43.5H370.925V41.2656H370.722C370.55 41.6103 370.301 41.9766 369.974 42.3643C369.648 42.746 369.217 43.0722 368.682 43.343C368.146 43.6139 367.472 43.7493 366.66 43.7493ZM367.592 41.0071C368.3 41.0071 368.903 40.8163 369.402 40.4347C369.901 40.0469 370.279 39.5083 370.538 38.8189C370.796 38.1295 370.925 37.3262 370.925 36.4091C370.925 35.492 370.796 34.6948 370.538 34.0178C370.285 33.3407 369.91 32.8144 369.411 32.4389C368.919 32.0634 368.313 31.8757 367.592 31.8757C366.848 31.8757 366.226 32.0696 365.727 32.4574C365.229 32.8452 364.853 33.3807 364.601 34.0639C364.348 34.7472 364.222 35.5289 364.222 36.4091C364.222 37.2955 364.348 38.0864 364.601 38.782C364.859 39.4714 365.238 40.0161 365.737 40.4162C366.241 40.8101 366.86 41.0071 367.592 41.0071ZM384.371 43.5V24.5909H391.462C392.914 24.5909 394.133 24.8617 395.118 25.4034C396.109 25.9451 396.857 26.6899 397.362 27.6378C397.873 28.5795 398.128 29.6506 398.128 30.8509C398.128 32.0634 397.873 33.1406 397.362 34.0824C396.851 35.0241 396.097 35.7659 395.1 36.3075C394.102 36.843 392.874 37.1108 391.416 37.1108H386.716V34.2947H390.954C391.803 34.2947 392.499 34.147 393.041 33.8516C393.582 33.5561 393.982 33.1499 394.241 32.6328C394.506 32.1158 394.638 31.5218 394.638 30.8509C394.638 30.1799 394.506 29.589 394.241 29.0781C393.982 28.5672 393.579 28.1702 393.031 27.8871C392.49 27.5978 391.791 27.4531 390.936 27.4531H387.796V43.5H384.371ZM400.956 43.5V29.3182H404.196V31.6818H404.344C404.603 30.8632 405.046 30.2322 405.674 29.7891C406.308 29.3397 407.031 29.1151 407.843 29.1151C408.028 29.1151 408.234 29.1243 408.462 29.1428C408.696 29.1551 408.89 29.1766 409.044 29.2074V32.282C408.902 32.2327 408.677 32.1896 408.37 32.1527C408.068 32.1096 407.776 32.0881 407.493 32.0881C406.883 32.0881 406.335 32.2204 405.849 32.4851C405.369 32.7436 404.99 33.1037 404.713 33.5653C404.436 34.027 404.298 34.5594 404.298 35.1626V43.5H400.956ZM411.264 43.5V29.3182H414.607V43.5H411.264ZM412.945 27.3054C412.415 27.3054 411.96 27.13 411.578 26.7791C411.196 26.4221 411.006 25.9943 411.006 25.4957C411.006 24.991 411.196 24.5632 411.578 24.2124C411.96 23.8553 412.415 23.6768 412.945 23.6768C413.48 23.6768 413.936 23.8553 414.311 24.2124C414.693 24.5632 414.884 24.991 414.884 25.4957C414.884 25.9943 414.693 26.4221 414.311 26.7791C413.936 27.13 413.48 27.3054 412.945 27.3054ZM430.711 29.3182L425.661 43.5H421.968L416.917 29.3182H420.481L423.74 39.853H423.888L427.156 29.3182H430.711ZM436.699 43.7862C435.8 43.7862 434.991 43.6262 434.27 43.3061C433.556 42.9799 432.99 42.4998 432.572 41.8658C432.159 41.2318 431.953 40.45 431.953 39.5206C431.953 38.7204 432.101 38.0587 432.396 37.5355C432.692 37.0123 433.095 36.5938 433.606 36.2798C434.117 35.9659 434.692 35.7289 435.332 35.5689C435.979 35.4027 436.646 35.2827 437.336 35.2088C438.167 35.1226 438.841 35.0457 439.358 34.978C439.875 34.9041 440.25 34.7933 440.484 34.6456C440.724 34.4917 440.844 34.2547 440.844 33.9347V33.8793C440.844 33.1837 440.638 32.6451 440.226 32.2635C439.813 31.8819 439.219 31.6911 438.444 31.6911C437.625 31.6911 436.976 31.8696 436.496 32.2266C436.022 32.5836 435.702 33.0052 435.535 33.4915L432.415 33.0483C432.661 32.1866 433.067 31.4664 433.633 30.8878C434.2 30.303 434.892 29.866 435.711 29.5767C436.529 29.2812 437.434 29.1335 438.425 29.1335C439.108 29.1335 439.789 29.2135 440.466 29.3736C441.143 29.5336 441.761 29.7983 442.322 30.1676C442.882 30.5308 443.331 31.0263 443.67 31.6541C444.014 32.282 444.187 33.0668 444.187 34.0085V43.5H440.974V41.5518H440.863C440.66 41.9458 440.373 42.3151 440.004 42.6598C439.641 42.9983 439.182 43.2723 438.628 43.4815C438.081 43.6847 437.437 43.7862 436.699 43.7862ZM437.567 41.3303C438.238 41.3303 438.819 41.1979 439.312 40.9332C439.804 40.6624 440.183 40.3054 440.447 39.8622C440.718 39.419 440.854 38.9358 440.854 38.4126V36.7415C440.749 36.8277 440.57 36.9077 440.318 36.9815C440.072 37.0554 439.795 37.12 439.487 37.1754C439.179 37.2308 438.875 37.2801 438.573 37.3232C438.271 37.3662 438.01 37.4032 437.788 37.4339C437.29 37.5017 436.843 37.6125 436.449 37.7663C436.055 37.9202 435.745 38.1357 435.517 38.4126C435.289 38.6835 435.175 39.0343 435.175 39.4652C435.175 40.0807 435.4 40.5455 435.849 40.8594C436.299 41.1733 436.871 41.3303 437.567 41.3303ZM452.81 43.7493C451.696 43.7493 450.699 43.4631 449.819 42.8906C448.939 42.3182 448.243 41.4872 447.732 40.3977C447.221 39.3082 446.966 37.9848 446.966 36.4276C446.966 34.8518 447.224 33.5223 447.741 32.4389C448.265 31.3494 448.969 30.5277 449.856 29.9737C450.742 29.4136 451.73 29.1335 452.819 29.1335C453.65 29.1335 454.334 29.2751 454.869 29.5582C455.405 29.8352 455.829 30.1707 456.143 30.5646C456.457 30.9524 456.7 31.3187 456.873 31.6634H457.011V24.5909H460.363V43.5H457.076V41.2656H456.873C456.7 41.6103 456.451 41.9766 456.125 42.3643C455.799 42.746 455.368 43.0722 454.832 43.343C454.297 43.6139 453.623 43.7493 452.81 43.7493ZM453.743 41.0071C454.451 41.0071 455.054 40.8163 455.552 40.4347C456.051 40.0469 456.43 39.5083 456.688 38.8189C456.947 38.1295 457.076 37.3262 457.076 36.4091C457.076 35.492 456.947 34.6948 456.688 34.0178C456.436 33.3407 456.06 32.8144 455.562 32.4389C455.069 32.0634 454.463 31.8757 453.743 31.8757C452.998 31.8757 452.376 32.0696 451.878 32.4574C451.379 32.8452 451.004 33.3807 450.751 34.0639C450.499 34.7472 450.373 35.5289 450.373 36.4091C450.373 37.2955 450.499 38.0864 450.751 38.782C451.01 39.4714 451.388 40.0161 451.887 40.4162C452.392 40.8101 453.01 41.0071 453.743 41.0071ZM468.005 43.7862C467.107 43.7862 466.297 43.6262 465.577 43.3061C464.863 42.9799 464.297 42.4998 463.878 41.8658C463.466 41.2318 463.26 40.45 463.26 39.5206C463.26 38.7204 463.407 38.0587 463.703 37.5355C463.998 37.0123 464.401 36.5938 464.912 36.2798C465.423 35.9659 465.999 35.7289 466.639 35.5689C467.285 35.4027 467.953 35.2827 468.642 35.2088C469.473 35.1226 470.147 35.0457 470.664 34.978C471.181 34.9041 471.557 34.7933 471.791 34.6456C472.031 34.4917 472.151 34.2547 472.151 33.9347V33.8793C472.151 33.1837 471.945 32.6451 471.532 32.2635C471.12 31.8819 470.526 31.6911 469.75 31.6911C468.932 31.6911 468.282 31.8696 467.802 32.2266C467.328 32.5836 467.008 33.0052 466.842 33.4915L463.721 33.0483C463.967 32.1866 464.374 31.4664 464.94 30.8878C465.506 30.303 466.199 29.866 467.017 29.5767C467.836 29.2812 468.741 29.1335 469.732 29.1335C470.415 29.1335 471.095 29.2135 471.772 29.3736C472.449 29.5336 473.068 29.7983 473.628 30.1676C474.188 30.5308 474.638 31.0263 474.976 31.6541C475.321 32.282 475.493 33.0668 475.493 34.0085V43.5H472.28V41.5518H472.169C471.966 41.9458 471.68 42.3151 471.311 42.6598C470.948 42.9983 470.489 43.2723 469.935 43.4815C469.387 43.6847 468.744 43.7862 468.005 43.7862ZM468.873 41.3303C469.544 41.3303 470.126 41.1979 470.618 40.9332C471.111 40.6624 471.489 40.3054 471.754 39.8622C472.025 39.419 472.16 38.9358 472.16 38.4126V36.7415C472.056 36.8277 471.877 36.9077 471.625 36.9815C471.378 37.0554 471.101 37.12 470.794 37.1754C470.486 37.2308 470.181 37.2801 469.88 37.3232C469.578 37.3662 469.316 37.4032 469.095 37.4339C468.596 37.5017 468.15 37.6125 467.756 37.7663C467.362 37.9202 467.051 38.1357 466.824 38.4126C466.596 38.6835 466.482 39.0343 466.482 39.4652C466.482 40.0807 466.707 40.5455 467.156 40.8594C467.605 41.1733 468.178 41.3303 468.873 41.3303ZM267.961 60.7891C267.874 59.9827 267.511 59.3549 266.871 58.9055C266.237 58.4562 265.412 58.2315 264.397 58.2315C263.683 58.2315 263.07 58.3393 262.559 58.5547C262.049 58.7701 261.658 59.0625 261.387 59.4318C261.116 59.8011 260.977 60.2228 260.971 60.6967C260.971 61.0907 261.061 61.4323 261.239 61.7216C261.424 62.0109 261.673 62.2571 261.987 62.4602C262.301 62.6572 262.649 62.8234 263.03 62.9588C263.412 63.0942 263.797 63.2081 264.184 63.3004L265.957 63.7436C266.671 63.9098 267.357 64.1345 268.016 64.4176C268.681 64.7008 269.275 65.0578 269.798 65.4886C270.327 65.9195 270.746 66.4396 271.054 67.049C271.361 67.6584 271.515 68.3724 271.515 69.1911C271.515 70.299 271.232 71.2746 270.666 72.1179C270.1 72.955 269.281 73.6106 268.21 74.0845C267.145 74.5523 265.856 74.7862 264.341 74.7862C262.87 74.7862 261.593 74.5585 260.51 74.103C259.432 73.6475 258.589 72.9827 257.98 72.1087C257.377 71.2346 257.05 70.1697 257.001 68.9141H260.371C260.42 69.5727 260.624 70.1205 260.981 70.5575C261.338 70.9946 261.802 71.3208 262.375 71.5362C262.953 71.7517 263.6 71.8594 264.314 71.8594C265.058 71.8594 265.711 71.7486 266.271 71.527C266.837 71.2992 267.281 70.9853 267.601 70.5852C267.921 70.179 268.084 69.705 268.09 69.1634C268.084 68.6709 267.939 68.2647 267.656 67.9446C267.373 67.6184 266.976 67.3475 266.465 67.1321C265.96 66.9105 265.369 66.7135 264.692 66.5412L262.541 65.9872C260.984 65.5871 259.753 64.9808 258.848 64.1683C257.949 63.3497 257.5 62.2633 257.5 60.9091C257.5 59.795 257.801 58.8194 258.405 57.9822C259.014 57.1451 259.842 56.4957 260.888 56.0341C261.935 55.5663 263.12 55.3324 264.443 55.3324C265.785 55.3324 266.96 55.5663 267.97 56.0341C268.986 56.4957 269.783 57.139 270.361 57.9638C270.94 58.7824 271.238 59.7242 271.257 60.7891H267.961ZM280.7 74.777C279.278 74.777 278.05 74.4815 277.016 73.8906C275.988 73.2936 275.197 72.4503 274.643 71.3608C274.089 70.2652 273.812 68.9756 273.812 67.4922C273.812 66.0334 274.089 64.7531 274.643 63.6513C275.203 62.5433 275.985 61.6816 276.988 61.0661C277.992 60.4444 279.17 60.1335 280.524 60.1335C281.398 60.1335 282.223 60.2751 282.999 60.5582C283.781 60.8352 284.47 61.2661 285.067 61.8509C285.67 62.4356 286.144 63.1804 286.489 64.0852C286.834 64.9839 287.006 66.0549 287.006 67.2983V68.3232H275.382V66.0703H283.802C283.796 65.4302 283.657 64.8608 283.387 64.3622C283.116 63.8575 282.737 63.4605 282.251 63.1712C281.771 62.8819 281.211 62.7372 280.571 62.7372C279.887 62.7372 279.287 62.9034 278.77 63.2358C278.253 63.562 277.85 63.9929 277.561 64.5284C277.277 65.0578 277.133 65.6394 277.127 66.2734V68.2401C277.127 69.0649 277.277 69.7727 277.579 70.3636C277.881 70.9484 278.302 71.3977 278.844 71.7116C279.386 72.0194 280.02 72.1733 280.746 72.1733C281.232 72.1733 281.672 72.1056 282.066 71.9702C282.46 71.8286 282.802 71.6224 283.091 71.3516C283.38 71.0807 283.599 70.7453 283.747 70.3452L286.867 70.696C286.67 71.5208 286.295 72.241 285.741 72.8565C285.193 73.4659 284.492 73.9399 283.636 74.2784C282.78 74.6108 281.802 74.777 280.7 74.777ZM289.834 74.5V60.3182H293.074V62.6818H293.222C293.481 61.8632 293.924 61.2322 294.552 60.7891C295.186 60.3397 295.909 60.1151 296.721 60.1151C296.906 60.1151 297.112 60.1243 297.34 60.1428C297.574 60.1551 297.768 60.1766 297.922 60.2074V63.282C297.78 63.2327 297.555 63.1896 297.248 63.1527C296.946 63.1096 296.654 63.0881 296.37 63.0881C295.761 63.0881 295.213 63.2204 294.727 63.4851C294.247 63.7436 293.868 64.1037 293.591 64.5653C293.314 65.027 293.176 65.5594 293.176 66.1626V74.5H289.834ZM305.726 80.1136C304.525 80.1136 303.494 79.9505 302.633 79.6243C301.771 79.3042 301.079 78.8733 300.555 78.3317C300.032 77.79 299.669 77.1899 299.466 76.5312L302.476 75.8018C302.611 76.0788 302.808 76.3527 303.067 76.6236C303.325 76.9006 303.673 77.1283 304.11 77.3068C304.553 77.4915 305.11 77.5838 305.781 77.5838C306.729 77.5838 307.514 77.353 308.136 76.8913C308.757 76.4358 309.068 75.6849 309.068 74.6385V71.9517H308.902C308.73 72.2964 308.477 72.6503 308.145 73.0135C307.819 73.3767 307.385 73.6813 306.843 73.9276C306.307 74.1738 305.633 74.2969 304.821 74.2969C303.731 74.2969 302.744 74.0414 301.857 73.5305C300.977 73.0135 300.275 72.2441 299.752 71.2223C299.235 70.1944 298.976 68.9079 298.976 67.3629C298.976 65.8056 299.235 64.4915 299.752 63.4205C300.275 62.3433 300.98 61.5277 301.866 60.9737C302.753 60.4136 303.741 60.1335 304.83 60.1335C305.661 60.1335 306.344 60.2751 306.88 60.5582C307.422 60.8352 307.852 61.1707 308.172 61.5646C308.493 61.9524 308.736 62.3187 308.902 62.6634H309.087V60.3182H312.383V74.7308C312.383 75.9434 312.093 76.9467 311.515 77.7408C310.936 78.5348 310.145 79.1288 309.142 79.5227C308.139 79.9167 307 80.1136 305.726 80.1136ZM305.753 71.6747C306.461 71.6747 307.065 71.5024 307.563 71.1577C308.062 70.813 308.44 70.3175 308.699 69.6712C308.957 69.0249 309.087 68.2493 309.087 67.3445C309.087 66.4519 308.957 65.6702 308.699 64.9993C308.446 64.3284 308.071 63.8082 307.572 63.4389C307.08 63.0634 306.474 62.8757 305.753 62.8757C305.009 62.8757 304.387 63.0696 303.888 63.4574C303.39 63.8452 303.014 64.3776 302.762 65.0547C302.51 65.7256 302.383 66.4889 302.383 67.3445C302.383 68.2124 302.51 68.9725 302.762 69.625C303.021 70.2713 303.399 70.776 303.898 71.1392C304.402 71.4962 305.021 71.6747 305.753 71.6747ZM315.808 74.5V60.3182H319.15V74.5H315.808ZM317.489 58.3054C316.959 58.3054 316.504 58.13 316.122 57.7791C315.74 57.4221 315.55 56.9943 315.55 56.4957C315.55 55.991 315.74 55.5632 316.122 55.2124C316.504 54.8553 316.959 54.6768 317.489 54.6768C318.024 54.6768 318.48 54.8553 318.855 55.2124C319.237 55.5632 319.427 55.991 319.427 56.4957C319.427 56.9943 319.237 57.4221 318.855 57.7791C318.48 58.13 318.024 58.3054 317.489 58.3054ZM328.774 74.777C327.389 74.777 326.188 74.4723 325.173 73.8629C324.157 73.2536 323.369 72.401 322.809 71.3054C322.255 70.2098 321.978 68.9295 321.978 67.4645C321.978 65.9995 322.255 64.7161 322.809 63.6143C323.369 62.5125 324.157 61.657 325.173 61.0476C326.188 60.4382 327.389 60.1335 328.774 60.1335C330.158 60.1335 331.359 60.4382 332.374 61.0476C333.39 61.657 334.175 62.5125 334.729 63.6143C335.289 64.7161 335.569 65.9995 335.569 67.4645C335.569 68.9295 335.289 70.2098 334.729 71.3054C334.175 72.401 333.39 73.2536 332.374 73.8629C331.359 74.4723 330.158 74.777 328.774 74.777ZM328.792 72.0994C329.543 72.0994 330.171 71.8932 330.676 71.4808C331.18 71.0623 331.556 70.5021 331.802 69.8004C332.054 69.0987 332.18 68.317 332.18 67.4553C332.18 66.5874 332.054 65.8026 331.802 65.1009C331.556 64.393 331.18 63.8298 330.676 63.4112C330.171 62.9927 329.543 62.7834 328.792 62.7834C328.023 62.7834 327.382 62.9927 326.872 63.4112C326.367 63.8298 325.988 64.393 325.736 65.1009C325.49 65.8026 325.367 66.5874 325.367 67.4553C325.367 68.317 325.49 69.0987 325.736 69.8004C325.988 70.5021 326.367 71.0623 326.872 71.4808C327.382 71.8932 328.023 72.0994 328.792 72.0994ZM345.003 74.5V55.5909H352.241C353.608 55.5909 354.744 55.8063 355.648 56.2372C356.559 56.6619 357.239 57.2436 357.689 57.9822C358.144 58.7209 358.372 59.558 358.372 60.4936C358.372 61.263 358.224 61.9216 357.929 62.4695C357.633 63.0111 357.236 63.4512 356.738 63.7898C356.239 64.1283 355.682 64.3714 355.067 64.5192V64.7038C355.738 64.7408 356.381 64.947 356.996 65.3224C357.618 65.6918 358.126 66.215 358.52 66.892C358.914 67.5691 359.111 68.3878 359.111 69.348C359.111 70.3267 358.874 71.2069 358.4 71.9886C357.926 72.7642 357.212 73.3767 356.258 73.826C355.304 74.2753 354.103 74.5 352.657 74.5H345.003ZM348.428 71.6378H352.112C353.355 71.6378 354.251 71.4008 354.799 70.9268C355.353 70.4467 355.63 69.8312 355.63 69.0803C355.63 68.5201 355.491 68.0154 355.214 67.5661C354.937 67.1106 354.543 66.7536 354.033 66.495C353.522 66.2304 352.912 66.098 352.204 66.098H348.428V71.6378ZM348.428 63.6328H351.817C352.408 63.6328 352.94 63.5251 353.414 63.3097C353.888 63.0881 354.26 62.7772 354.531 62.3771C354.808 61.9709 354.947 61.4908 354.947 60.9368C354.947 60.2043 354.688 59.6011 354.171 59.1271C353.66 58.6532 352.9 58.4162 351.891 58.4162H348.428V63.6328ZM368.221 74.777C366.799 74.777 365.571 74.4815 364.537 73.8906C363.509 73.2936 362.718 72.4503 362.165 71.3608C361.611 70.2652 361.334 68.9756 361.334 67.4922C361.334 66.0334 361.611 64.7531 362.165 63.6513C362.725 62.5433 363.506 61.6816 364.51 61.0661C365.513 60.4444 366.692 60.1335 368.046 60.1335C368.92 60.1335 369.745 60.2751 370.52 60.5582C371.302 60.8352 371.991 61.2661 372.589 61.8509C373.192 62.4356 373.666 63.1804 374.01 64.0852C374.355 64.9839 374.527 66.0549 374.527 67.2983V68.3232H362.903V66.0703H371.324C371.317 65.4302 371.179 64.8608 370.908 64.3622C370.637 63.8575 370.259 63.4605 369.772 63.1712C369.292 62.8819 368.732 62.7372 368.092 62.7372C367.409 62.7372 366.809 62.9034 366.292 63.2358C365.775 63.562 365.371 63.9929 365.082 64.5284C364.799 65.0578 364.654 65.6394 364.648 66.2734V68.2401C364.648 69.0649 364.799 69.7727 365.101 70.3636C365.402 70.9484 365.824 71.3977 366.366 71.7116C366.907 72.0194 367.541 72.1733 368.267 72.1733C368.754 72.1733 369.194 72.1056 369.588 71.9702C369.982 71.8286 370.323 71.6224 370.613 71.3516C370.902 71.0807 371.12 70.7453 371.268 70.3452L374.389 70.696C374.192 71.5208 373.816 72.241 373.263 72.8565C372.715 73.4659 372.013 73.9399 371.157 74.2784C370.302 74.6108 369.323 74.777 368.221 74.777ZM377.355 74.5V60.3182H380.596V62.6818H380.744C381.002 61.8632 381.445 61.2322 382.073 60.7891C382.707 60.3397 383.43 60.1151 384.243 60.1151C384.427 60.1151 384.634 60.1243 384.861 60.1428C385.095 60.1551 385.289 60.1766 385.443 60.2074V63.282C385.302 63.2327 385.077 63.1896 384.769 63.1527C384.467 63.1096 384.175 63.0881 383.892 63.0881C383.283 63.0881 382.735 63.2204 382.248 63.4851C381.768 63.7436 381.39 64.1037 381.113 64.5653C380.836 65.027 380.697 65.5594 380.697 66.1626V74.5H377.355ZM391.006 66.1903V74.5H387.664V60.3182H390.858V62.728H391.024C391.351 61.9339 391.871 61.303 392.585 60.8352C393.305 60.3674 394.194 60.1335 395.253 60.1335C396.232 60.1335 397.084 60.3428 397.811 60.7614C398.543 61.1799 399.109 61.7862 399.509 62.5803C399.916 63.3743 400.116 64.3376 400.11 65.4702V74.5H396.767V65.9872C396.767 65.0393 396.521 64.2976 396.029 63.7621C395.542 63.2266 394.868 62.9588 394.007 62.9588C393.422 62.9588 392.902 63.0881 392.446 63.3466C391.997 63.599 391.643 63.9652 391.384 64.4453C391.132 64.9254 391.006 65.5071 391.006 66.1903ZM407.588 74.7862C406.69 74.7862 405.88 74.6262 405.16 74.3061C404.446 73.9799 403.88 73.4998 403.461 72.8658C403.049 72.2318 402.843 71.45 402.843 70.5206C402.843 69.7204 402.99 69.0587 403.286 68.5355C403.581 68.0123 403.984 67.5938 404.495 67.2798C405.006 66.9659 405.582 66.7289 406.222 66.5689C406.868 66.4027 407.536 66.2827 408.225 66.2088C409.056 66.1226 409.73 66.0457 410.247 65.978C410.764 65.9041 411.14 65.7933 411.374 65.6456C411.614 65.4917 411.734 65.2547 411.734 64.9347V64.8793C411.734 64.1837 411.528 63.6451 411.115 63.2635C410.703 62.8819 410.109 62.6911 409.333 62.6911C408.515 62.6911 407.865 62.8696 407.385 63.2266C406.911 63.5836 406.591 64.0052 406.425 64.4915L403.304 64.0483C403.55 63.1866 403.957 62.4664 404.523 61.8878C405.089 61.303 405.782 60.866 406.6 60.5767C407.419 60.2812 408.324 60.1335 409.315 60.1335C409.998 60.1335 410.678 60.2135 411.355 60.3736C412.032 60.5336 412.651 60.7983 413.211 61.1676C413.771 61.5308 414.221 62.0263 414.559 62.6541C414.904 63.282 415.076 64.0668 415.076 65.0085V74.5H411.863V72.5518H411.752C411.549 72.9458 411.263 73.3151 410.894 73.6598C410.531 73.9983 410.072 74.2723 409.518 74.4815C408.97 74.6847 408.327 74.7862 407.588 74.7862ZM408.456 72.3303C409.127 72.3303 409.709 72.1979 410.201 71.9332C410.694 71.6624 411.072 71.3054 411.337 70.8622C411.608 70.419 411.743 69.9358 411.743 69.4126V67.7415C411.639 67.8277 411.46 67.9077 411.208 67.9815C410.961 68.0554 410.684 68.12 410.377 68.1754C410.069 68.2308 409.764 68.2801 409.463 68.3232C409.161 68.3662 408.899 68.4032 408.678 68.4339C408.179 68.5017 407.733 68.6125 407.339 68.7663C406.945 68.9202 406.634 69.1357 406.407 69.4126C406.179 69.6835 406.065 70.0343 406.065 70.4652C406.065 71.0807 406.29 71.5455 406.739 71.8594C407.188 72.1733 407.761 72.3303 408.456 72.3303ZM421.779 55.5909V74.5H418.437V55.5909H421.779ZM431.495 74.777C430.073 74.777 428.845 74.4815 427.811 73.8906C426.783 73.2936 425.992 72.4503 425.438 71.3608C424.884 70.2652 424.607 68.9756 424.607 67.4922C424.607 66.0334 424.884 64.7531 425.438 63.6513C425.998 62.5433 426.78 61.6816 427.783 61.0661C428.786 60.4444 429.965 60.1335 431.319 60.1335C432.193 60.1335 433.018 60.2751 433.794 60.5582C434.575 60.8352 435.265 61.2661 435.862 61.8509C436.465 62.4356 436.939 63.1804 437.284 64.0852C437.629 64.9839 437.801 66.0549 437.801 67.2983V68.3232H426.177V66.0703H434.597C434.591 65.4302 434.452 64.8608 434.182 64.3622C433.911 63.8575 433.532 63.4605 433.046 63.1712C432.566 62.8819 432.006 62.7372 431.366 62.7372C430.682 62.7372 430.082 62.9034 429.565 63.2358C429.048 63.562 428.645 63.9929 428.356 64.5284C428.072 65.0578 427.928 65.6394 427.922 66.2734V68.2401C427.922 69.0649 428.072 69.7727 428.374 70.3636C428.676 70.9484 429.097 71.3977 429.639 71.7116C430.181 72.0194 430.815 72.1733 431.541 72.1733C432.027 72.1733 432.467 72.1056 432.861 71.9702C433.255 71.8286 433.597 71.6224 433.886 71.3516C434.175 71.0807 434.394 70.7453 434.542 70.3452L437.662 70.696C437.465 71.5208 437.09 72.241 436.536 72.8565C435.988 73.4659 435.286 73.9399 434.431 74.2784C433.575 74.6108 432.597 74.777 431.495 74.777ZM451.837 64.0668L448.79 64.3991C448.704 64.0914 448.553 63.8021 448.338 63.5312C448.129 63.2604 447.846 63.0419 447.489 62.8757C447.132 62.7095 446.695 62.6264 446.177 62.6264C445.482 62.6264 444.897 62.7772 444.423 63.0788C443.955 63.3804 443.725 63.7713 443.731 64.2514C443.725 64.6638 443.875 64.9993 444.183 65.2578C444.497 65.5163 445.014 65.7287 445.734 65.8949L448.153 66.4119C449.495 66.7012 450.492 67.1598 451.145 67.7876C451.803 68.4155 452.136 69.2372 452.142 70.2528C452.136 71.1454 451.874 71.9332 451.357 72.6165C450.846 73.2936 450.135 73.8229 449.224 74.2045C448.313 74.5862 447.267 74.777 446.085 74.777C444.349 74.777 442.952 74.4138 441.893 73.6875C440.835 72.955 440.204 71.9363 440.001 70.6314L443.26 70.3175C443.408 70.9576 443.722 71.4408 444.202 71.767C444.682 72.0933 445.306 72.2564 446.076 72.2564C446.87 72.2564 447.507 72.0933 447.987 71.767C448.473 71.4408 448.717 71.0376 448.717 70.5575C448.717 70.1513 448.56 69.8158 448.246 69.5511C447.938 69.2865 447.458 69.0833 446.805 68.9418L444.386 68.4339C443.026 68.1508 442.02 67.6738 441.367 67.0028C440.715 66.3258 440.391 65.4702 440.398 64.4361C440.391 63.562 440.628 62.8049 441.109 62.1648C441.595 61.5185 442.269 61.0199 443.131 60.669C443.998 60.312 444.999 60.1335 446.131 60.1335C447.793 60.1335 449.101 60.4875 450.055 61.1953C451.016 61.9032 451.61 62.8603 451.837 64.0668Z" fill="white"/>
<defs>
<clipPath id="clip0_171_34195">
<rect width="89" height="90" fill="white" transform="translate(0 78)"/>
</clipPath>
<clipPath id="clip1_171_34195">
<rect width="24" height="24" fill="white" transform="translate(175 37.5)"/>
</clipPath>
</defs>
</svg>
