<svg width="512" height="143" viewBox="0 0 569 159" fill="none" xmlns="http://www.w3.org/2000/svg">
<path d="M3.03906 124.307L50.0886 97.8398L106.076 129.745L59.1548 156.803L3.03906 124.307Z" fill="#3B495C"/>
<path d="M106.076 129.746V131.944L59.1543 159.001V156.803L106.076 129.746Z" fill="#233143"/>
<path d="M3.03906 124.307V126.505L59.1548 159V156.802L3.03906 124.307Z" fill="#233143"/>
<path d="M50.6332 73.3633L10.4199 96.1934V123.15L50.6332 100.027V73.3633Z" fill="#C6C3C1"/>
<path d="M12.7361 96.6875L11.123 97.6014V124.563L12.7361 123.635V96.6875Z" fill="#FBAD32"/>
<path opacity="0.5" d="M23.3063 104.168L11.9277 110.712V113.609L25.8424 105.612L23.3063 104.168Z" fill="white"/>
<path opacity="0.5" d="M26.8843 106.201L11.9277 114.801V115.642L27.62 106.617L26.8843 106.201Z" fill="white"/>
<path opacity="0.5" d="M11.9277 97.7109V98.666L12.764 98.1862L11.9277 97.7109Z" fill="white"/>
<path opacity="0.5" d="M11.9277 124.096L30.1973 134.597V108.083L30.1105 108.033L11.9277 118.484V124.096Z" fill="white"/>
<path opacity="0.5" d="M28.141 106.914L11.9277 116.236V117.89L29.585 107.737L28.141 106.914Z" fill="white"/>
<path d="M41.8172 99.0491V98.4551L27.6191 106.617L28.1401 106.914L41.8172 99.0491Z" fill="white"/>
<path opacity="0.8" d="M27.62 106.617L11.9277 115.642V116.236L28.141 106.914L27.62 106.617Z" fill="white"/>
<path d="M41.9607 100.621L29.5859 107.736L30.1115 108.033L41.9607 101.215V100.621Z" fill="white"/>
<path opacity="0.8" d="M11.9277 117.89V118.484L30.1105 108.033L29.585 107.736L11.9277 117.89Z" fill="white"/>
<path d="M41.8174 97.6146V96.4219L25.8418 105.612L26.8837 106.201L41.8174 97.6146Z" fill="white"/>
<path opacity="0.8" d="M25.8424 105.611L11.9277 113.608V114.801L26.8843 106.201L25.8424 105.611Z" fill="white"/>
<path d="M35.6212 97.0848V85.0391L12.7637 98.1861L23.3059 104.168L35.6212 97.0848Z" fill="white"/>
<path opacity="0.8" d="M12.764 98.1855L11.9277 98.6654V110.711L23.3063 104.167L12.764 98.1855Z" fill="white"/>
<path d="M99.4047 102.445L59.1914 125.275V152.232L99.4047 129.109V102.445Z" fill="#FBAD32"/>
<path d="M40.5936 112.736L38.9805 113.655V140.611L40.5936 139.684V112.736Z" fill="#FBAD32"/>
<path d="M11.1511 97.999L9.69336 97.1719V123.767L11.1511 124.608V97.999Z" fill="#FBAD32"/>
<path d="M29.6621 108.51V135.252L38.9797 140.612V113.801L29.6621 108.51Z" fill="#FBAD32"/>
<path opacity="0.5" d="M53.5799 121.445L39.9531 129.282V130.119L54.3157 121.861L53.5799 121.445Z" fill="white"/>
<path opacity="0.5" d="M54.8366 122.158L39.9531 130.713V132.367L56.2852 122.976L54.8366 122.158Z" fill="white"/>
<path opacity="0.5" d="M50.0019 119.412L39.9531 125.188V128.09L52.538 120.852L50.0019 119.412Z" fill="white"/>
<path opacity="0.5" d="M39.9531 140.09L58.2182 150.591V124.078L56.8061 123.273L39.9531 132.966V140.09Z" fill="white"/>
<path opacity="0.8" d="M54.3157 121.861L39.9531 130.119V130.713L54.8366 122.158L54.3157 121.861Z" fill="white"/>
<path opacity="0.8" d="M39.9531 132.367V132.966L56.8061 123.274L56.2852 122.977L39.9531 132.367Z" fill="white"/>
<path opacity="0.8" d="M52.538 120.852L39.9531 128.09V129.283L53.5799 121.446L52.538 120.852Z" fill="white"/>
<path opacity="0.8" d="M39.9531 113.705V125.189L50.0019 119.413L39.9531 113.705Z" fill="white"/>
<path d="M49.1786 119.002L48.6074 118.678V145.059L49.1786 145.388V119.002Z" fill="#888D9A"/>
<path d="M57.2344 124.166V151.109L59.1902 152.233V125.276L57.2344 124.166Z" fill="#FBAD32"/>
<path d="M59.1906 125.889L56.1289 118.678L99.4038 93.8281V103.086L59.1906 125.889Z" fill="#BECCC6"/>
<path d="M99.4053 93.8271L53.4891 120.468L9.74805 95.687L55.5866 69L99.4053 93.8271Z" fill="white"/>
<path d="M93.9581 94.655L95.4707 93.7822L55.8241 70.8652L16.7441 93.5355L18.3618 94.4905L55.9292 72.6977L93.9581 94.655Z" fill="#7C8982"/>
<path d="M93.9569 94.6546L55.928 72.6973L23.4375 91.5427L61.4116 113.473L93.9569 94.6546Z" fill="#A2AAA6"/>
<path d="M56.3263 116.416L61.4123 113.473L23.4383 91.543L18.3613 94.4904L56.3263 116.416Z" fill="#8C9993"/>
<path d="M10.1502 88.498V89.1881L3.03516 93.2962V92.6062L10.1502 88.498Z" fill="#243954"/>
<path d="M10.1502 94.9648V95.6594L3.03516 99.7676V99.073L10.1502 94.9648Z" fill="#243954"/>
<path d="M8.7832 87.3145L58.2866 115.418V126.399L8.7832 97.9344V87.3145Z" fill="#243954"/>
<path d="M9.69257 86.8262L8.7832 87.3151L58.2866 115.419L59.1914 114.93L9.69257 86.8262Z" fill="#243954"/>
<path d="M58.2871 126.4L59.1919 125.911V114.93L58.2871 115.419V126.4Z" fill="#243954"/>
<path d="M31.8594 118.782L37.4572 122.012V120.152L31.8594 117.004V118.782Z" fill="white"/>
<path d="M54.2155 138.762L50.8613 136.842V130.879L54.2155 132.798V138.762Z" fill="#243954"/>
<path d="M53.8908 133.104L51.1855 131.555V131.92L53.8908 133.469V133.104Z" fill="white"/>
<path d="M53.8908 133.84L51.1855 132.291V132.661L53.8908 134.21V133.84Z" fill="white"/>
<path d="M51.3223 134.252C51.3223 133.731 51.5279 133.544 51.8112 133.708C52.0945 133.873 52.3002 134.298 52.3002 134.819C52.3002 135.344 52.0945 135.536 51.8112 135.372C51.5233 135.207 51.3223 134.778 51.3223 134.252ZM51.9894 134.641C51.9894 134.27 51.9072 134.097 51.8067 134.037C51.7061 133.978 51.6284 134.06 51.6284 134.43C51.6284 134.805 51.7107 134.983 51.8067 135.043C51.9072 135.097 51.9894 135.011 51.9894 134.641ZM51.8798 136.464L52.9399 134.362L53.1913 134.508L52.1357 136.615L51.8798 136.464ZM52.7663 136.139C52.7663 135.618 52.9765 135.431 53.2552 135.596C53.5386 135.76 53.7442 136.185 53.7442 136.706C53.7442 137.232 53.5386 137.423 53.2552 137.259C52.9719 137.094 52.7663 136.665 52.7663 136.139ZM53.438 136.528C53.438 136.153 53.3558 135.984 53.2598 135.925C53.1593 135.865 53.077 135.943 53.077 136.318C53.077 136.692 53.1593 136.871 53.2598 136.93C53.3558 136.985 53.438 136.903 53.438 136.528Z" fill="white"/>
<path d="M47.2188 130.316L45.2676 129.201V125.729L47.2188 126.844V130.316Z" fill="#243954"/>
<path d="M28.0859 127.395L21.1445 123.42V111.072L28.0859 115.048V127.395Z" fill="#243954"/>
<path d="M27.6697 117.278L21.7383 113.883V114.573L27.6697 117.968V117.278Z" fill="white"/>
<path d="M27.6697 116.04L21.7383 112.645V113.335L27.6697 116.73V116.04Z" fill="white"/>
<path d="M8.36203 87.2891L0.662109 91.6623V102.643L8.36203 98.2152V87.2891Z" fill="#243954"/>
<path d="M8.36203 92.123L0.662109 96.4962V97.1497L8.36203 92.7262V92.123Z" fill="white"/>
<path d="M8.36203 93.6035L0.662109 97.9721V98.6302L8.36203 94.2021V93.6035Z" fill="white"/>
<path d="M8.36203 95.0117L0.662109 99.3849V100.038L8.36203 95.6103V95.0117Z" fill="white"/>
<path d="M0 102.25L0.662605 102.643V91.6625L0 91.2695V102.25Z" fill="#243954"/>
<path d="M8.36253 87.2888L7.69992 86.9004L0 91.269L0.662605 91.662L8.36253 87.2888Z" fill="#243954"/>
<rect x="166" width="403" height="141" rx="18" fill="#006DB7"/>
<path d="M110 102L221.5 66.026L189.5 42L110 102Z" fill="#006DB7"/>
<rect x="191.048" y="49.5476" width="41.9048" height="41.9048" rx="20.9524" fill="#FFB600"/>
<rect x="191.048" y="49.5476" width="41.9048" height="41.9048" rx="20.9524" stroke="white" stroke-width="2.09524"/>
<path d="M200.375 78.8886C200.375 78.9261 200.379 78.9599 200.39 78.9936C200.39 79.0049 200.398 79.0161 200.401 79.0274C200.413 79.0574 200.431 79.0874 200.454 79.1136C200.458 79.1211 200.461 79.1249 200.465 79.1324C200.465 79.1324 200.469 79.1324 200.472 79.1361C200.499 79.1661 200.529 79.1924 200.566 79.2111C202.205 80.0699 206.255 81.5661 206.424 81.6261C206.439 81.6299 206.45 81.6299 206.465 81.6336C206.472 81.6336 206.48 81.6411 206.491 81.6449C206.589 81.6599 206.713 81.6674 206.855 81.6674C209.938 81.6674 222.789 78.0411 223.359 77.8799C223.531 77.8311 223.644 77.6624 223.621 77.4824C223.014 72.7236 221.375 64.9574 221.36 64.8786C221.36 64.8749 221.356 64.8711 221.356 64.8674C221.345 64.8299 221.33 64.7961 221.311 64.7624C221.308 64.7549 221.304 64.7474 221.3 64.7436C221.278 64.7099 221.244 64.6799 221.21 64.6574C221.195 64.6461 221.176 64.6386 221.157 64.6311C221.142 64.6236 221.128 64.6124 221.109 64.6086L217.625 63.5849C216.267 60.5474 214.318 59.0849 211.989 59.3586C211.501 59.4149 211.051 59.5499 210.642 59.7561C210.436 59.7186 210.222 59.6961 210.001 59.6924C208.899 59.6811 207.961 60.1161 207.226 60.9824C206.341 62.0136 205.786 63.6674 205.561 65.8911C203.615 66.2361 202.186 66.4799 202.164 66.4836C202.149 66.4836 202.141 66.4949 202.126 66.4986C202.119 66.4986 202.107 66.4986 202.1 66.4986C202.089 66.4986 202.081 66.5099 202.074 66.5174C202.044 66.5324 202.018 66.5474 201.995 66.5661C201.98 66.5774 201.969 66.5886 201.957 66.6036C201.935 66.6261 201.92 66.6524 201.905 66.6824C201.901 66.6936 201.89 66.7011 201.886 66.7124C201.159 68.6249 200.409 78.4461 200.379 78.8624V78.8661V78.8849L200.375 78.8886ZM206.533 66.4574C206.574 66.4499 206.615 66.4424 206.66 66.4349C207.151 66.3449 207.661 66.2549 208.182 66.1574C208.197 66.5436 208.227 66.9411 208.273 67.3536C206.499 67.6986 205.344 67.8899 204.837 67.9199L203.281 67.0274C204.054 66.8924 205.213 66.6936 206.536 66.4536L206.533 66.4574ZM208.16 65.4224C207.995 65.4524 207.83 65.4824 207.665 65.5124C207.823 64.3986 208.081 63.5099 208.422 62.8911C208.246 63.6261 208.156 64.4736 208.156 65.4224H208.16ZM203.416 76.9686L205.674 80.5724C204.504 80.1261 202.584 79.3761 201.38 78.8061L203.42 76.9724L203.416 76.9686ZM203.859 76.3049V68.2011L204.406 68.5161C204.552 69.9261 205.201 75.9861 205.749 79.3236L203.859 76.3086V76.3049ZM202.438 67.3874L203.131 67.7849V76.2486L201.17 78.0149C201.361 75.6749 201.905 69.4724 202.434 67.3874H202.438ZM206.806 80.9511C206.405 79.6761 205.606 73.0086 205.145 68.6286C205.76 68.5611 206.803 68.3849 208.351 68.0811C208.475 68.9549 208.621 69.6336 208.707 70.0049C208.831 70.4849 209.262 70.8224 209.757 70.8224C209.847 70.8224 209.938 70.8111 210.024 70.7886C210.597 70.6424 210.954 70.0574 210.811 69.4761C210.688 68.9774 210.568 68.3174 210.477 67.6499C212.142 67.3049 214.108 66.8849 216.331 66.3899C216.519 67.0536 216.68 67.7474 216.796 68.4111C216.796 68.4261 216.8 68.4374 216.804 68.4486C216.845 68.7336 216.995 68.9849 217.227 69.1574C217.46 69.3299 217.741 69.4049 218.03 69.3599C218.319 69.3186 218.57 69.1649 218.743 68.9324C218.915 68.6999 218.986 68.4149 218.945 68.1299C218.93 68.0211 218.791 67.1099 218.454 65.9099C219.481 65.6774 220.287 65.4936 220.722 65.3924C221.045 66.9449 222.305 73.1174 222.856 77.2649C218.761 78.4161 208.955 81.0261 206.802 80.9399L206.806 80.9511ZM211.805 61.6161C211.839 61.6049 211.869 61.5899 211.903 61.5824C212.007 61.5524 212.12 61.5261 212.236 61.5111C212.263 61.5111 212.292 61.5111 212.319 61.5074C212.911 62.1636 213.395 63.1049 213.755 64.3161C213.736 64.3199 213.714 64.3236 213.695 64.3311C213.523 64.3686 213.342 64.4061 213.159 64.4474C212.773 63.1799 212.236 62.2724 211.565 61.7286C211.58 61.7211 211.591 61.7136 211.602 61.7061C211.666 61.6724 211.734 61.6461 211.805 61.6199V61.6161ZM210.403 66.9261C210.365 66.5286 210.339 66.1349 210.331 65.7524C211.318 65.5611 212.199 65.3849 212.971 65.2236H212.979C213.069 65.2049 213.155 65.1861 213.245 65.1674C213.372 65.1411 213.492 65.1149 213.612 65.0886C213.627 65.0886 213.642 65.0811 213.657 65.0774C213.815 65.0436 213.969 65.0099 214.115 64.9761C214.171 64.9649 214.231 64.9499 214.287 64.9386C214.842 64.8149 215.319 64.7024 215.709 64.6011C215.851 64.9349 215.99 65.2986 216.118 65.6886C213.95 66.1724 212.03 66.5849 210.399 66.9224L210.403 66.9261ZM214.464 64.1586C214.171 63.1649 213.8 62.3286 213.35 61.6574C214.111 61.9724 214.801 62.7374 215.401 63.9336C215.127 64.0011 214.813 64.0761 214.46 64.1586H214.464ZM211.003 62.2424C211.003 62.2424 211.014 62.2311 211.017 62.2236C211.599 62.6474 212.086 63.4574 212.443 64.5936C211.805 64.7249 211.1 64.8636 210.328 65.0136C210.369 63.7799 210.597 62.8236 211.003 62.2424ZM218.24 65.2236C218.154 64.9611 218.068 64.7024 217.974 64.4511L219.575 64.9236C219.193 65.0099 218.743 65.1149 218.244 65.2274L218.24 65.2236ZM212.071 60.0861C212.229 60.0674 212.382 60.0599 212.536 60.0599C214.378 60.0599 215.885 61.3949 217.029 64.0386C217.257 64.5786 217.468 65.1599 217.651 65.7599C218.052 67.0874 218.21 68.1299 218.225 68.2461C218.24 68.3399 218.214 68.4336 218.157 68.5124C218.101 68.5874 218.019 68.6399 217.921 68.6511C217.827 68.6661 217.737 68.6399 217.659 68.5836C217.584 68.5274 217.535 68.4449 217.52 68.3474C217.52 68.3361 217.513 68.3061 217.513 68.2949C217.374 67.4886 217.175 66.6486 216.935 65.8574C216.721 65.1674 216.5 64.5711 216.249 64.0274C215.266 61.8674 214.01 60.7724 212.517 60.7724C212.499 60.7724 212.484 60.7724 212.465 60.7724C212.364 60.7649 212.255 60.7799 212.15 60.7911C211.554 60.8624 211.055 61.0986 210.68 61.4924C210.68 61.4924 210.68 61.4924 210.676 61.4961C210.579 61.5936 210.489 61.7061 210.403 61.8261C209.859 62.6099 209.585 63.8324 209.589 65.4561C209.589 66.0824 209.634 66.7386 209.712 67.4061C209.806 68.2049 209.953 69.0449 210.106 69.6486C210.151 69.8399 210.035 70.0311 209.847 70.0799C209.671 70.1249 209.461 70.0086 209.413 69.8099C209.341 69.4986 209.158 68.6624 209.023 67.6011C208.94 66.9374 208.895 66.3036 208.884 65.7149C208.85 64.0386 209.094 62.7111 209.604 61.7699C209.682 61.6236 209.746 61.5186 209.818 61.4174C209.889 61.3124 209.968 61.2149 210.046 61.1211C210.286 60.8436 210.564 60.6186 210.868 60.4499C211.227 60.2549 211.629 60.1274 212.071 60.0786V60.0861ZM207.774 61.4586C208.299 60.8399 208.944 60.4986 209.698 60.4349C209.653 60.4799 209.611 60.5286 209.566 60.5774C209.536 60.6111 209.506 60.6411 209.476 60.6749C209.386 60.7799 209.3 60.8924 209.217 61.0086C209.18 61.0611 209.142 61.1211 209.105 61.1811C209.094 61.1999 209.083 61.2186 209.071 61.2374C209.056 61.2636 209.041 61.2861 209.026 61.3124C208.715 61.4474 208.434 61.6611 208.182 61.9499C207.549 62.6924 207.121 63.9374 206.908 65.6549C206.758 65.6811 206.611 65.7074 206.461 65.7374C206.405 65.7486 206.349 65.7561 206.293 65.7674C206.51 63.8211 207.016 62.3399 207.77 61.4624L207.774 61.4586Z" fill="white"/>
<path d="M216.514 72.8254C216.158 72.5217 215.64 72.3567 214.984 72.3267L213.975 72.2854C213.645 72.2704 213.552 72.2104 213.54 72.2029C213.529 72.1954 213.507 72.1804 213.507 72.0979C213.507 72.0154 213.518 71.8879 213.668 71.7417C213.799 71.6142 214.005 71.5204 214.275 71.4717C214.515 71.4267 214.714 71.4117 214.868 71.4304C215.033 71.4492 215.19 71.4792 215.322 71.5204C215.558 71.5954 215.775 71.5992 215.967 71.5279C216.15 71.4604 216.297 71.3442 216.402 71.1867C216.499 71.0442 216.555 70.8867 216.574 70.7142C216.593 70.5304 216.559 70.3579 216.473 70.1967C216.383 70.0242 216.24 69.8967 216.072 69.8254C215.82 69.6979 215.532 69.6154 215.213 69.5817C215.13 69.5742 215.052 69.5667 214.969 69.5629L214.958 69.3904C214.943 69.1467 214.842 68.9404 214.658 68.7942C214.474 68.6479 214.249 68.5954 214.009 68.6367C213.777 68.6779 213.578 68.7942 213.432 68.9779C213.285 69.1617 213.21 69.3754 213.222 69.6042L213.233 69.8854C212.978 69.9904 212.745 70.1217 212.543 70.2754C212.198 70.5342 211.924 70.8454 211.729 71.2054C211.527 71.5804 211.425 71.9892 211.425 72.4204C211.425 73.0129 211.605 73.4854 211.954 73.8192C212.299 74.1492 212.809 74.3292 213.469 74.3592L214.5 74.4042C214.718 74.4117 214.838 74.4379 214.902 74.4642C214.984 74.4942 215.003 74.5204 215.007 74.5242C215.025 74.5542 215.04 74.5954 215.044 74.6517C215.052 74.7342 215.033 74.8092 214.995 74.8842C214.954 74.9592 214.875 75.0379 214.759 75.1092C214.624 75.1954 214.433 75.2629 214.185 75.3117C213.837 75.3829 213.54 75.3979 213.304 75.3642C213.057 75.3267 212.865 75.2817 212.734 75.2292C212.415 75.1092 212.172 75.1692 212.022 75.2404C211.834 75.3304 211.68 75.4692 211.568 75.6567C211.463 75.8329 211.399 76.0242 211.38 76.2267C211.362 76.4367 211.392 76.6354 211.47 76.8229C211.564 77.0442 211.74 77.2054 211.969 77.2879C212.22 77.3892 212.524 77.4604 212.892 77.5092C213.079 77.5354 213.282 77.5392 213.503 77.5317L213.514 77.8242C213.525 78.1092 213.627 78.3529 213.814 78.5292C213.972 78.6792 214.17 78.7579 214.384 78.7579C214.448 78.7579 214.512 78.7504 214.575 78.7392C214.842 78.6829 215.063 78.5292 215.217 78.2892C215.359 78.0679 215.427 77.8204 215.408 77.5542L215.382 77.0967C215.674 76.9579 215.937 76.7854 216.162 76.5904C216.51 76.2904 216.777 75.9304 216.953 75.5217C217.129 75.1167 217.197 74.6742 217.155 74.2129C217.103 73.6167 216.885 73.1554 216.51 72.8367L216.514 72.8254ZM216.289 75.2179C216.154 75.5254 215.955 75.7954 215.689 76.0242C215.464 76.2192 215.187 76.3842 214.872 76.5117C214.725 76.5717 214.635 76.7142 214.647 76.8679L214.688 77.5767C214.695 77.6892 214.669 77.7867 214.609 77.8767C214.545 77.9742 214.478 77.9967 214.429 78.0079C214.358 78.0229 214.335 78.0042 214.317 77.9854C214.287 77.9592 214.249 77.9067 214.242 77.7829L214.219 77.1117C214.219 77.0104 214.17 76.9129 214.092 76.8492C214.024 76.7929 213.942 76.7629 213.855 76.7629C213.84 76.7629 213.825 76.7629 213.81 76.7629C213.495 76.8004 213.222 76.8042 212.989 76.7742C212.685 76.7329 212.434 76.6729 212.228 76.5942C212.164 76.5717 212.149 76.5454 212.138 76.5192C212.108 76.4479 212.097 76.3654 212.104 76.2754C212.112 76.1817 212.138 76.0992 212.187 76.0204C212.228 75.9529 212.273 75.9117 212.333 75.8817C212.363 75.8667 212.412 75.8704 212.464 75.8929C212.644 75.9642 212.884 76.0242 213.192 76.0692C213.51 76.1179 213.889 76.0992 214.32 76.0129C214.658 75.9454 214.928 75.8479 215.138 75.7129C215.363 75.5704 215.528 75.4017 215.629 75.2142C215.73 75.0192 215.775 74.8129 215.76 74.5954C215.749 74.4079 215.693 74.2392 215.595 74.1004C215.494 73.9504 215.337 73.8417 215.134 73.7704C214.969 73.7104 214.763 73.6804 214.515 73.6729L213.488 73.6279C213.012 73.6092 212.659 73.4929 212.445 73.2904C212.243 73.0954 212.142 72.8104 212.142 72.4167C212.142 72.1017 212.213 71.8167 212.359 71.5467C212.505 71.2767 212.708 71.0479 212.97 70.8492C213.18 70.6917 213.428 70.5642 213.713 70.4704C213.867 70.4179 213.968 70.2754 213.96 70.1142L213.942 69.5704C213.942 69.5179 213.957 69.4729 213.994 69.4279C214.032 69.3829 214.073 69.3567 214.129 69.3492C214.178 69.3417 214.189 69.3492 214.2 69.3567C214.212 69.3679 214.227 69.3754 214.227 69.4242L214.257 69.9454C214.268 70.1442 214.44 70.2979 214.639 70.2867C214.819 70.2754 214.973 70.2792 215.13 70.2979C215.359 70.3204 215.562 70.3804 215.753 70.4742C215.809 70.4967 215.82 70.5229 215.828 70.5342C215.847 70.5679 215.854 70.6017 215.847 70.6392C215.843 70.6917 215.824 70.7367 215.794 70.7817C215.779 70.8042 215.757 70.8267 215.708 70.8492C215.697 70.8529 215.652 70.8642 215.539 70.8304C215.355 70.7742 215.157 70.7367 214.943 70.7142C214.718 70.6917 214.455 70.7067 214.144 70.7629C213.728 70.8379 213.398 70.9954 213.162 71.2242C212.903 71.4754 212.772 71.7867 212.779 72.1204C212.79 72.4879 212.97 72.6942 213.117 72.7992C213.3 72.9304 213.559 72.9979 213.942 73.0167L214.95 73.0579C215.445 73.0804 215.813 73.1929 216.045 73.3879C216.27 73.5792 216.402 73.8679 216.435 74.2729C216.465 74.6179 216.417 74.9292 216.289 75.2254V75.2179Z" fill="white"/>
<path d="M262.141 35.2891C262.055 34.4827 261.692 33.8549 261.052 33.4055C260.418 32.9562 259.593 32.7315 258.577 32.7315C257.863 32.7315 257.251 32.8393 256.74 33.0547C256.229 33.2701 255.838 33.5625 255.567 33.9318C255.297 34.3011 255.158 34.7228 255.152 35.1967C255.152 35.5907 255.241 35.9323 255.42 36.2216C255.604 36.5109 255.854 36.7571 256.168 36.9602C256.482 37.1572 256.829 37.3234 257.211 37.4588C257.593 37.5942 257.977 37.7081 258.365 37.8004L260.138 38.2436C260.852 38.4098 261.538 38.6345 262.197 38.9176C262.862 39.2008 263.455 39.5578 263.979 39.9886C264.508 40.4195 264.927 40.9396 265.234 41.549C265.542 42.1584 265.696 42.8724 265.696 43.6911C265.696 44.799 265.413 45.7746 264.847 46.6179C264.28 47.455 263.462 48.1106 262.391 48.5845C261.326 49.0523 260.036 49.2862 258.522 49.2862C257.051 49.2862 255.774 49.0585 254.69 48.603C253.613 48.1475 252.77 47.4827 252.161 46.6087C251.557 45.7346 251.231 44.6697 251.182 43.4141H254.552C254.601 44.0727 254.804 44.6205 255.161 45.0575C255.518 45.4946 255.983 45.8208 256.555 46.0362C257.134 46.2517 257.78 46.3594 258.494 46.3594C259.239 46.3594 259.892 46.2486 260.452 46.027C261.018 45.7992 261.461 45.4853 261.781 45.0852C262.101 44.679 262.264 44.205 262.271 43.6634C262.264 43.1709 262.12 42.7647 261.837 42.4446C261.554 42.1184 261.156 41.8475 260.646 41.6321C260.141 41.4105 259.55 41.2135 258.873 41.0412L256.722 40.4872C255.164 40.0871 253.933 39.4808 253.028 38.6683C252.13 37.8497 251.68 36.7633 251.68 35.4091C251.68 34.295 251.982 33.3194 252.585 32.4822C253.195 31.6451 254.022 30.9957 255.069 30.5341C256.115 30.0663 257.3 29.8324 258.624 29.8324C259.965 29.8324 261.141 30.0663 262.151 30.5341C263.166 30.9957 263.963 31.639 264.542 32.4638C265.121 33.2824 265.419 34.2242 265.438 35.2891H262.141ZM272.683 49.2862C271.784 49.2862 270.975 49.1262 270.255 48.8061C269.541 48.4799 268.974 47.9998 268.556 47.3658C268.144 46.7318 267.937 45.95 267.937 45.0206C267.937 44.2204 268.085 43.5587 268.381 43.0355C268.676 42.5123 269.079 42.0938 269.59 41.7798C270.101 41.4659 270.676 41.2289 271.317 41.0689C271.963 40.9027 272.631 40.7827 273.32 40.7088C274.151 40.6226 274.825 40.5457 275.342 40.478C275.859 40.4041 276.235 40.2933 276.469 40.1456C276.709 39.9917 276.829 39.7547 276.829 39.4347V39.3793C276.829 38.6837 276.622 38.1451 276.21 37.7635C275.798 37.3819 275.204 37.1911 274.428 37.1911C273.609 37.1911 272.96 37.3696 272.48 37.7266C272.006 38.0836 271.686 38.5052 271.52 38.9915L268.399 38.5483C268.645 37.6866 269.051 36.9664 269.618 36.3878C270.184 35.803 270.876 35.366 271.695 35.0767C272.514 34.7812 273.419 34.6335 274.41 34.6335C275.093 34.6335 275.773 34.7135 276.45 34.8736C277.127 35.0336 277.746 35.2983 278.306 35.6676C278.866 36.0308 279.315 36.5263 279.654 37.1541C279.999 37.782 280.171 38.5668 280.171 39.5085V49H276.958V47.0518H276.847C276.644 47.4458 276.358 47.8151 275.988 48.1598C275.625 48.4983 275.167 48.7723 274.613 48.9815C274.065 49.1847 273.422 49.2862 272.683 49.2862ZM273.551 46.8303C274.222 46.8303 274.804 46.6979 275.296 46.4332C275.788 46.1624 276.167 45.8054 276.432 45.3622C276.702 44.919 276.838 44.4358 276.838 43.9126V42.2415C276.733 42.3277 276.555 42.4077 276.302 42.4815C276.056 42.5554 275.779 42.62 275.471 42.6754C275.164 42.7308 274.859 42.7801 274.557 42.8232C274.256 42.8662 273.994 42.9032 273.773 42.9339C273.274 43.0017 272.828 43.1125 272.434 43.2663C272.04 43.4202 271.729 43.6357 271.501 43.9126C271.273 44.1835 271.16 44.5343 271.16 44.9652C271.16 45.5807 271.384 46.0455 271.834 46.3594C272.283 46.6733 272.855 46.8303 273.551 46.8303ZM286.874 30.0909V49H283.532V30.0909H286.874ZM294.392 49.2862C293.493 49.2862 292.684 49.1262 291.964 48.8061C291.25 48.4799 290.683 47.9998 290.265 47.3658C289.853 46.7318 289.646 45.95 289.646 45.0206C289.646 44.2204 289.794 43.5587 290.089 43.0355C290.385 42.5123 290.788 42.0938 291.299 41.7798C291.81 41.4659 292.385 41.2289 293.026 41.0689C293.672 40.9027 294.34 40.7827 295.029 40.7088C295.86 40.6226 296.534 40.5457 297.051 40.478C297.568 40.4041 297.944 40.2933 298.178 40.1456C298.418 39.9917 298.538 39.7547 298.538 39.4347V39.3793C298.538 38.6837 298.331 38.1451 297.919 37.7635C297.507 37.3819 296.913 37.1911 296.137 37.1911C295.318 37.1911 294.669 37.3696 294.189 37.7266C293.715 38.0836 293.395 38.5052 293.229 38.9915L290.108 38.5483C290.354 37.6866 290.76 36.9664 291.327 36.3878C291.893 35.803 292.585 35.366 293.404 35.0767C294.223 34.7812 295.128 34.6335 296.119 34.6335C296.802 34.6335 297.482 34.7135 298.159 34.8736C298.836 35.0336 299.455 35.2983 300.015 35.6676C300.575 36.0308 301.024 36.5263 301.363 37.1541C301.708 37.782 301.88 38.5668 301.88 39.5085V49H298.667V47.0518H298.556C298.353 47.4458 298.067 47.8151 297.697 48.1598C297.334 48.4983 296.876 48.7723 296.322 48.9815C295.774 49.1847 295.131 49.2862 294.392 49.2862ZM295.26 46.8303C295.931 46.8303 296.513 46.6979 297.005 46.4332C297.497 46.1624 297.876 45.8054 298.141 45.3622C298.411 44.919 298.547 44.4358 298.547 43.9126V42.2415C298.442 42.3277 298.264 42.4077 298.011 42.4815C297.765 42.5554 297.488 42.62 297.18 42.6754C296.873 42.7308 296.568 42.7801 296.266 42.8232C295.965 42.8662 295.703 42.9032 295.482 42.9339C294.983 43.0017 294.537 43.1125 294.143 43.2663C293.749 43.4202 293.438 43.6357 293.21 43.9126C292.982 44.1835 292.869 44.5343 292.869 44.9652C292.869 45.5807 293.093 46.0455 293.543 46.3594C293.992 46.6733 294.564 46.8303 295.26 46.8303ZM316.953 49.2493C315.839 49.2493 314.842 48.9631 313.961 48.3906C313.081 47.8182 312.386 46.9872 311.875 45.8977C311.364 44.8082 311.108 43.4848 311.108 41.9276C311.108 40.3518 311.367 39.0223 311.884 37.9389C312.407 36.8494 313.112 36.0277 313.998 35.4737C314.885 34.9136 315.873 34.6335 316.962 34.6335C317.793 34.6335 318.476 34.7751 319.012 35.0582C319.547 35.3352 319.972 35.6707 320.286 36.0646C320.6 36.4524 320.843 36.8187 321.015 37.1634H321.154V30.0909H324.505V49H321.218V46.7656H321.015C320.843 47.1103 320.594 47.4766 320.267 47.8643C319.941 48.246 319.51 48.5722 318.975 48.843C318.439 49.1139 317.765 49.2493 316.953 49.2493ZM317.885 46.5071C318.593 46.5071 319.196 46.3163 319.695 45.9347C320.194 45.5469 320.572 45.0083 320.831 44.3189C321.089 43.6295 321.218 42.8262 321.218 41.9091C321.218 40.992 321.089 40.1948 320.831 39.5178C320.578 38.8407 320.203 38.3144 319.704 37.9389C319.212 37.5634 318.605 37.3757 317.885 37.3757C317.141 37.3757 316.519 37.5696 316.02 37.9574C315.522 38.3452 315.146 38.8807 314.894 39.5639C314.641 40.2472 314.515 41.0289 314.515 41.9091C314.515 42.7955 314.641 43.5864 314.894 44.282C315.152 44.9714 315.531 45.5161 316.029 45.9162C316.534 46.3101 317.153 46.5071 317.885 46.5071ZM334.345 49.277C332.923 49.277 331.695 48.9815 330.661 48.3906C329.633 47.7936 328.843 46.9503 328.289 45.8608C327.735 44.7652 327.458 43.4756 327.458 41.9922C327.458 40.5334 327.735 39.2531 328.289 38.1513C328.849 37.0433 329.63 36.1816 330.634 35.5661C331.637 34.9444 332.816 34.6335 334.17 34.6335C335.044 34.6335 335.869 34.7751 336.644 35.0582C337.426 35.3352 338.115 35.7661 338.713 36.3509C339.316 36.9356 339.79 37.6804 340.134 38.5852C340.479 39.4839 340.651 40.5549 340.651 41.7983V42.8232H329.027V40.5703H337.448C337.441 39.9302 337.303 39.3608 337.032 38.8622C336.761 38.3575 336.383 37.9605 335.896 37.6712C335.416 37.3819 334.856 37.2372 334.216 37.2372C333.533 37.2372 332.933 37.4034 332.416 37.7358C331.899 38.062 331.495 38.4929 331.206 39.0284C330.923 39.5578 330.778 40.1394 330.772 40.7734V42.7401C330.772 43.5649 330.923 44.2727 331.225 44.8636C331.526 45.4484 331.948 45.8977 332.49 46.2116C333.031 46.5194 333.665 46.6733 334.392 46.6733C334.878 46.6733 335.318 46.6056 335.712 46.4702C336.106 46.3286 336.447 46.1224 336.737 45.8516C337.026 45.5807 337.244 45.2453 337.392 44.8452L340.513 45.196C340.316 46.0208 339.941 46.741 339.387 47.3565C338.839 47.9659 338.137 48.4399 337.281 48.7784C336.426 49.1108 335.447 49.277 334.345 49.277ZM352.606 30.0909L357.527 44.9744H357.721L362.633 30.0909H366.4L359.734 49H355.505L348.848 30.0909H352.606ZM373.498 49.277C372.076 49.277 370.848 48.9815 369.814 48.3906C368.786 47.7936 367.995 46.9503 367.441 45.8608C366.887 44.7652 366.61 43.4756 366.61 41.9922C366.61 40.5334 366.887 39.2531 367.441 38.1513C368.001 37.0433 368.783 36.1816 369.786 35.5661C370.789 34.9444 371.968 34.6335 373.322 34.6335C374.196 34.6335 375.021 34.7751 375.797 35.0582C376.578 35.3352 377.268 35.7661 377.865 36.3509C378.468 36.9356 378.942 37.6804 379.287 38.5852C379.631 39.4839 379.804 40.5549 379.804 41.7983V42.8232H368.18V40.5703H376.6C376.594 39.9302 376.455 39.3608 376.184 38.8622C375.914 38.3575 375.535 37.9605 375.049 37.6712C374.569 37.3819 374.009 37.2372 373.368 37.2372C372.685 37.2372 372.085 37.4034 371.568 37.7358C371.051 38.062 370.648 38.4929 370.358 39.0284C370.075 39.5578 369.931 40.1394 369.925 40.7734V42.7401C369.925 43.5649 370.075 44.2727 370.377 44.8636C370.679 45.4484 371.1 45.8977 371.642 46.2116C372.184 46.5194 372.818 46.6733 373.544 46.6733C374.03 46.6733 374.47 46.6056 374.864 46.4702C375.258 46.3286 375.6 46.1224 375.889 45.8516C376.178 45.5807 376.397 45.2453 376.545 44.8452L379.665 45.196C379.468 46.0208 379.093 46.741 378.539 47.3565C377.991 47.9659 377.289 48.4399 376.434 48.7784C375.578 49.1108 374.599 49.277 373.498 49.277ZM385.974 40.6903V49H382.631V34.8182H385.826V37.228H385.992C386.318 36.4339 386.839 35.803 387.553 35.3352C388.273 34.8674 389.162 34.6335 390.221 34.6335C391.2 34.6335 392.052 34.8428 392.778 35.2614C393.511 35.6799 394.077 36.2862 394.477 37.0803C394.884 37.8743 395.084 38.8376 395.077 39.9702V49H391.735V40.4872C391.735 39.5393 391.489 38.7976 390.996 38.2621C390.51 37.7266 389.836 37.4588 388.974 37.4588C388.39 37.4588 387.87 37.5881 387.414 37.8466C386.965 38.099 386.611 38.4652 386.352 38.9453C386.1 39.4254 385.974 40.0071 385.974 40.6903ZM405.557 34.8182V37.4034H397.404V34.8182H405.557ZM399.417 31.4205H402.759V44.7344C402.759 45.1837 402.827 45.5284 402.962 45.7685C403.104 46.0024 403.289 46.1624 403.516 46.2486C403.744 46.3348 403.996 46.3778 404.273 46.3778C404.483 46.3778 404.674 46.3625 404.846 46.3317C405.024 46.3009 405.16 46.2732 405.252 46.2486L405.815 48.8615C405.637 48.9231 405.381 48.9908 405.049 49.0646C404.723 49.1385 404.323 49.1816 403.849 49.1939C403.012 49.2185 402.258 49.0923 401.587 48.8153C400.916 48.5322 400.383 48.0952 399.989 47.5043C399.602 46.9134 399.411 46.1747 399.417 45.2884V31.4205ZM412.433 49.2862C411.534 49.2862 410.725 49.1262 410.005 48.8061C409.291 48.4799 408.724 47.9998 408.306 47.3658C407.894 46.7318 407.687 45.95 407.687 45.0206C407.687 44.2204 407.835 43.5587 408.131 43.0355C408.426 42.5123 408.829 42.0938 409.34 41.7798C409.851 41.4659 410.426 41.2289 411.067 41.0689C411.713 40.9027 412.381 40.7827 413.07 40.7088C413.901 40.6226 414.575 40.5457 415.092 40.478C415.609 40.4041 415.985 40.2933 416.219 40.1456C416.459 39.9917 416.579 39.7547 416.579 39.4347V39.3793C416.579 38.6837 416.372 38.1451 415.96 37.7635C415.548 37.3819 414.954 37.1911 414.178 37.1911C413.359 37.1911 412.71 37.3696 412.23 37.7266C411.756 38.0836 411.436 38.5052 411.27 38.9915L408.149 38.5483C408.395 37.6866 408.801 36.9664 409.368 36.3878C409.934 35.803 410.626 35.366 411.445 35.0767C412.264 34.7812 413.169 34.6335 414.16 34.6335C414.843 34.6335 415.523 34.7135 416.2 34.8736C416.877 35.0336 417.496 35.2983 418.056 35.6676C418.616 36.0308 419.065 36.5263 419.404 37.1541C419.749 37.782 419.921 38.5668 419.921 39.5085V49H416.708V47.0518H416.597C416.394 47.4458 416.108 47.8151 415.738 48.1598C415.375 48.4983 414.917 48.7723 414.363 48.9815C413.815 49.1847 413.172 49.2862 412.433 49.2862ZM413.301 46.8303C413.972 46.8303 414.554 46.6979 415.046 46.4332C415.538 46.1624 415.917 45.8054 416.182 45.3622C416.452 44.919 416.588 44.4358 416.588 43.9126V42.2415C416.483 42.3277 416.305 42.4077 416.052 42.4815C415.806 42.5554 415.529 42.62 415.221 42.6754C414.914 42.7308 414.609 42.7801 414.307 42.8232C414.006 42.8662 413.744 42.9032 413.523 42.9339C413.024 43.0017 412.578 43.1125 412.184 43.2663C411.79 43.4202 411.479 43.6357 411.251 43.9126C411.023 44.1835 410.91 44.5343 410.91 44.9652C410.91 45.5807 411.134 46.0455 411.584 46.3594C412.033 46.6733 412.605 46.8303 413.301 46.8303ZM434.491 38.5668L431.444 38.8991C431.358 38.5914 431.207 38.3021 430.991 38.0312C430.782 37.7604 430.499 37.5419 430.142 37.3757C429.785 37.2095 429.348 37.1264 428.831 37.1264C428.135 37.1264 427.55 37.2772 427.077 37.5788C426.609 37.8804 426.378 38.2713 426.384 38.7514C426.378 39.1638 426.529 39.4993 426.836 39.7578C427.15 40.0163 427.667 40.2287 428.388 40.3949L430.807 40.9119C432.148 41.2012 433.146 41.6598 433.798 42.2876C434.457 42.9155 434.789 43.7372 434.795 44.7528C434.789 45.6454 434.528 46.4332 434.01 47.1165C433.5 47.7936 432.789 48.3229 431.878 48.7045C430.967 49.0862 429.92 49.277 428.738 49.277C427.003 49.277 425.605 48.9138 424.547 48.1875C423.488 47.455 422.857 46.4363 422.654 45.1314L425.913 44.8175C426.061 45.4576 426.375 45.9408 426.855 46.267C427.335 46.5933 427.96 46.7564 428.729 46.7564C429.523 46.7564 430.16 46.5933 430.64 46.267C431.127 45.9408 431.37 45.5376 431.37 45.0575C431.37 44.6513 431.213 44.3158 430.899 44.0511C430.591 43.7865 430.111 43.5833 429.459 43.4418L427.04 42.9339C425.679 42.6508 424.673 42.1738 424.02 41.5028C423.368 40.8258 423.045 39.9702 423.051 38.9361C423.045 38.062 423.282 37.3049 423.762 36.6648C424.248 36.0185 424.922 35.5199 425.784 35.169C426.652 34.812 427.652 34.6335 428.785 34.6335C430.447 34.6335 431.755 34.9875 432.709 35.6953C433.669 36.4032 434.263 37.3603 434.491 38.5668ZM254.293 80H250.637L257.294 61.0909H261.523L268.189 80H264.533L259.482 64.9688H259.335L254.293 80ZM254.413 72.5859H264.385V75.3374H254.413V72.5859ZM281.422 65.8182L276.372 80H272.678L267.628 65.8182H271.192L274.451 76.353H274.599L277.867 65.8182H281.422ZM284.905 80.2031C284.345 80.2031 283.865 80.0062 283.465 79.6122C283.065 79.2183 282.868 78.7382 282.874 78.1719C282.868 77.6179 283.065 77.1439 283.465 76.75C283.865 76.3561 284.345 76.1591 284.905 76.1591C285.447 76.1591 285.918 76.3561 286.318 76.75C286.724 77.1439 286.93 77.6179 286.936 78.1719C286.93 78.5473 286.832 78.889 286.641 79.1967C286.456 79.5045 286.21 79.7507 285.902 79.9354C285.601 80.1139 285.268 80.2031 284.905 80.2031ZM296.4 61.0909H300.592L306.206 74.7926H306.427L312.041 61.0909H316.233V80H312.946V67.0092H312.77L307.544 79.9446H305.088L299.863 66.9815H299.687V80H296.4V61.0909ZM323.896 80.2862C322.997 80.2862 322.188 80.1262 321.468 79.8061C320.754 79.4799 320.187 78.9998 319.769 78.3658C319.356 77.7318 319.15 76.95 319.15 76.0206C319.15 75.2204 319.298 74.5587 319.593 74.0355C319.889 73.5123 320.292 73.0938 320.803 72.7798C321.314 72.4659 321.889 72.2289 322.529 72.0689C323.176 71.9027 323.844 71.7827 324.533 71.7088C325.364 71.6226 326.038 71.5457 326.555 71.478C327.072 71.4041 327.448 71.2933 327.681 71.1456C327.922 70.9917 328.042 70.7547 328.042 70.4347V70.3793C328.042 69.6837 327.835 69.1451 327.423 68.7635C327.011 68.3819 326.417 68.1911 325.641 68.1911C324.822 68.1911 324.173 68.3696 323.693 68.7266C323.219 69.0836 322.899 69.5052 322.733 69.9915L319.612 69.5483C319.858 68.6866 320.264 67.9664 320.831 67.3878C321.397 66.803 322.089 66.366 322.908 66.0767C323.727 65.7812 324.632 65.6335 325.623 65.6335C326.306 65.6335 326.986 65.7135 327.663 65.8736C328.34 66.0336 328.959 66.2983 329.519 66.6676C330.079 67.0308 330.528 67.5263 330.867 68.1541C331.212 68.782 331.384 69.5668 331.384 70.5085V80H328.171V78.0518H328.06C327.857 78.4458 327.571 78.8151 327.201 79.1598C326.838 79.4983 326.38 79.7723 325.826 79.9815C325.278 80.1847 324.635 80.2862 323.896 80.2862ZM324.764 77.8303C325.435 77.8303 326.016 77.6979 326.509 77.4332C327.001 77.1624 327.38 76.8054 327.645 76.3622C327.915 75.919 328.051 75.4358 328.051 74.9126V73.2415C327.946 73.3277 327.768 73.4077 327.515 73.4815C327.269 73.5554 326.992 73.62 326.684 73.6754C326.377 73.7308 326.072 73.7801 325.77 73.8232C325.469 73.8662 325.207 73.9032 324.985 73.9339C324.487 74.0017 324.041 74.1125 323.647 74.2663C323.253 74.4202 322.942 74.6357 322.714 74.9126C322.486 75.1835 322.373 75.5343 322.373 75.9652C322.373 76.5807 322.597 77.0455 323.047 77.3594C323.496 77.6733 324.068 77.8303 324.764 77.8303ZM334.745 80V65.8182H337.985V68.1818H338.133C338.392 67.3632 338.835 66.7322 339.463 66.2891C340.097 65.8397 340.82 65.6151 341.632 65.6151C341.817 65.6151 342.023 65.6243 342.251 65.6428C342.485 65.6551 342.679 65.6766 342.833 65.7074V68.782C342.691 68.7327 342.467 68.6896 342.159 68.6527C341.857 68.6096 341.565 68.5881 341.282 68.5881C340.672 68.5881 340.124 68.7204 339.638 68.9851C339.158 69.2436 338.779 69.6037 338.502 70.0653C338.225 70.527 338.087 71.0594 338.087 71.6626V80H334.745ZM345.053 80V65.8182H348.396V80H345.053ZM346.734 63.8054C346.204 63.8054 345.749 63.63 345.367 63.2791C344.986 62.9221 344.795 62.4943 344.795 61.9957C344.795 61.491 344.986 61.0632 345.367 60.7124C345.749 60.3553 346.204 60.1768 346.734 60.1768C347.269 60.1768 347.725 60.3553 348.1 60.7124C348.482 61.0632 348.673 61.491 348.673 61.9957C348.673 62.4943 348.482 62.9221 348.1 63.2791C347.725 63.63 347.269 63.8054 346.734 63.8054ZM363.041 69.5668L359.994 69.8991C359.908 69.5914 359.758 69.3021 359.542 69.0312C359.333 68.7604 359.05 68.5419 358.693 68.3757C358.336 68.2095 357.899 68.1264 357.382 68.1264C356.686 68.1264 356.101 68.2772 355.627 68.5788C355.16 68.8804 354.929 69.2713 354.935 69.7514C354.929 70.1638 355.079 70.4993 355.387 70.7578C355.701 71.0163 356.218 71.2287 356.938 71.3949L359.357 71.9119C360.699 72.2012 361.696 72.6598 362.349 73.2876C363.008 73.9155 363.34 74.7372 363.346 75.7528C363.34 76.6454 363.078 77.4332 362.561 78.1165C362.05 78.7936 361.339 79.3229 360.428 79.7045C359.517 80.0862 358.471 80.277 357.289 80.277C355.553 80.277 354.156 79.9138 353.097 79.1875C352.039 78.455 351.408 77.4363 351.205 76.1314L354.464 75.8175C354.612 76.4576 354.926 76.9408 355.406 77.267C355.886 77.5933 356.511 77.7564 357.28 77.7564C358.074 77.7564 358.711 77.5933 359.191 77.267C359.677 76.9408 359.921 76.5376 359.921 76.0575C359.921 75.6513 359.764 75.3158 359.45 75.0511C359.142 74.7865 358.662 74.5833 358.009 74.4418L355.59 73.9339C354.23 73.6508 353.224 73.1738 352.571 72.5028C351.919 71.8258 351.596 70.9702 351.602 69.9361C351.596 69.062 351.833 68.3049 352.313 67.6648C352.799 67.0185 353.473 66.5199 354.335 66.169C355.203 65.812 356.203 65.6335 357.335 65.6335C358.997 65.6335 360.305 65.9875 361.259 66.6953C362.22 67.4032 362.814 68.3603 363.041 69.5668ZM372.288 80.277C370.872 80.277 369.657 79.9661 368.641 79.3445C367.632 78.7228 366.853 77.8641 366.305 76.7685C365.764 75.6667 365.493 74.3987 365.493 72.9645C365.493 71.5241 365.77 70.2531 366.324 69.1513C366.878 68.0433 367.659 67.1816 368.669 66.5661C369.684 65.9444 370.885 65.6335 372.27 65.6335C373.421 65.6335 374.439 65.8459 375.326 66.2706C376.218 66.6892 376.929 67.2831 377.459 68.0526C377.988 68.8158 378.29 69.7083 378.363 70.7301H375.169C375.04 70.0469 374.732 69.4775 374.246 69.022C373.765 68.5604 373.122 68.3295 372.316 68.3295C371.633 68.3295 371.032 68.5142 370.515 68.8835C369.998 69.2467 369.595 69.7699 369.306 70.4531C369.023 71.1364 368.881 71.955 368.881 72.9091C368.881 73.8755 369.023 74.7064 369.306 75.402C369.589 76.0914 369.986 76.6238 370.497 76.9993C371.014 77.3686 371.62 77.5533 372.316 77.5533C372.808 77.5533 373.248 77.4609 373.636 77.2763C374.03 77.0855 374.359 76.8116 374.624 76.4545C374.889 76.0975 375.07 75.6636 375.169 75.1527H378.363C378.283 76.156 377.988 77.0455 377.477 77.821C376.966 78.5904 376.271 79.1937 375.39 79.6307C374.51 80.0616 373.476 80.277 372.288 80.277ZM385.189 80.2862C384.29 80.2862 383.481 80.1262 382.761 79.8061C382.047 79.4799 381.48 78.9998 381.062 78.3658C380.649 77.7318 380.443 76.95 380.443 76.0206C380.443 75.2204 380.591 74.5587 380.886 74.0355C381.182 73.5123 381.585 73.0938 382.096 72.7798C382.607 72.4659 383.182 72.2289 383.822 72.0689C384.469 71.9027 385.137 71.7827 385.826 71.7088C386.657 71.6226 387.331 71.5457 387.848 71.478C388.365 71.4041 388.741 71.2933 388.974 71.1456C389.214 70.9917 389.335 70.7547 389.335 70.4347V70.3793C389.335 69.6837 389.128 69.1451 388.716 68.7635C388.304 68.3819 387.71 68.1911 386.934 68.1911C386.115 68.1911 385.466 68.3696 384.986 68.7266C384.512 69.0836 384.192 69.5052 384.026 69.9915L380.905 69.5483C381.151 68.6866 381.557 67.9664 382.124 67.3878C382.69 66.803 383.382 66.366 384.201 66.0767C385.02 65.7812 385.924 65.6335 386.915 65.6335C387.599 65.6335 388.279 65.7135 388.956 65.8736C389.633 66.0336 390.252 66.2983 390.812 66.6676C391.372 67.0308 391.821 67.5263 392.16 68.1541C392.504 68.782 392.677 69.5668 392.677 70.5085V80H389.464V78.0518H389.353C389.15 78.4458 388.864 78.8151 388.494 79.1598C388.131 79.4983 387.673 79.7723 387.119 79.9815C386.571 80.1847 385.928 80.2862 385.189 80.2862ZM386.057 77.8303C386.728 77.8303 387.309 77.6979 387.802 77.4332C388.294 77.1624 388.673 76.8054 388.938 76.3622C389.208 75.919 389.344 75.4358 389.344 74.9126V73.2415C389.239 73.3277 389.061 73.4077 388.808 73.4815C388.562 73.5554 388.285 73.62 387.977 73.6754C387.67 73.7308 387.365 73.7801 387.063 73.8232C386.762 73.8662 386.5 73.9032 386.278 73.9339C385.78 74.0017 385.334 74.1125 384.94 74.2663C384.546 74.4202 384.235 74.6357 384.007 74.9126C383.779 75.1835 383.665 75.5343 383.665 75.9652C383.665 76.5807 383.89 77.0455 384.339 77.3594C384.789 77.6733 385.361 77.8303 386.057 77.8303ZM399.38 61.0909V80H396.038V61.0909H399.38ZM409.414 80V61.0909H416.653C418.019 61.0909 419.155 61.3063 420.059 61.7372C420.97 62.1619 421.651 62.7436 422.1 63.4822C422.555 64.2209 422.783 65.058 422.783 65.9936C422.783 66.763 422.635 67.4216 422.34 67.9695C422.045 68.5111 421.648 68.9512 421.149 69.2898C420.65 69.6283 420.093 69.8714 419.478 70.0192V70.2038C420.149 70.2408 420.792 70.447 421.407 70.8224C422.029 71.1918 422.537 71.715 422.931 72.392C423.325 73.0691 423.522 73.8878 423.522 74.848C423.522 75.8267 423.285 76.7069 422.811 77.4886C422.337 78.2642 421.623 78.8767 420.669 79.326C419.715 79.7753 418.515 80 417.068 80H409.414ZM412.839 77.1378H416.523C417.767 77.1378 418.662 76.9008 419.21 76.4268C419.764 75.9467 420.041 75.3312 420.041 74.5803C420.041 74.0201 419.903 73.5154 419.626 73.0661C419.349 72.6106 418.955 72.2536 418.444 71.995C417.933 71.7304 417.323 71.598 416.616 71.598H412.839V77.1378ZM412.839 69.1328H416.228C416.819 69.1328 417.351 69.0251 417.825 68.8097C418.299 68.5881 418.671 68.2772 418.942 67.8771C419.219 67.4709 419.358 66.9908 419.358 66.4368C419.358 65.7043 419.099 65.1011 418.582 64.6271C418.071 64.1532 417.311 63.9162 416.302 63.9162H412.839V69.1328ZM432.632 80.277C431.211 80.277 429.983 79.9815 428.949 79.3906C427.921 78.7936 427.13 77.9503 426.576 76.8608C426.022 75.7652 425.745 74.4756 425.745 72.9922C425.745 71.5334 426.022 70.2531 426.576 69.1513C427.136 68.0433 427.917 67.1816 428.921 66.5661C429.924 65.9444 431.103 65.6335 432.457 65.6335C433.331 65.6335 434.156 65.7751 434.931 66.0582C435.713 66.3352 436.403 66.7661 437 67.3509C437.603 67.9356 438.077 68.6804 438.422 69.5852C438.766 70.4839 438.939 71.5549 438.939 72.7983V73.8232H427.314V71.5703H435.735C435.729 70.9302 435.59 70.3608 435.319 69.8622C435.048 69.3575 434.67 68.9605 434.184 68.6712C433.703 68.3819 433.143 68.2372 432.503 68.2372C431.82 68.2372 431.22 68.4034 430.703 68.7358C430.186 69.062 429.783 69.4929 429.493 70.0284C429.21 70.5578 429.065 71.1394 429.059 71.7734V73.7401C429.059 74.5649 429.21 75.2727 429.512 75.8636C429.813 76.4484 430.235 76.8977 430.777 77.2116C431.318 77.5194 431.952 77.6733 432.679 77.6733C433.165 77.6733 433.605 77.6056 433.999 77.4702C434.393 77.3286 434.734 77.1224 435.024 76.8516C435.313 76.5807 435.532 76.2453 435.679 75.8452L438.8 76.196C438.603 77.0208 438.228 77.741 437.674 78.3565C437.126 78.9659 436.424 79.4399 435.569 79.7784C434.713 80.1108 433.734 80.277 432.632 80.277ZM445.108 71.6903V80H441.766V65.8182H444.961V68.228H445.127C445.453 67.4339 445.973 66.803 446.687 66.3352C447.407 65.8674 448.297 65.6335 449.356 65.6335C450.334 65.6335 451.187 65.8428 451.913 66.2614C452.646 66.6799 453.212 67.2862 453.612 68.0803C454.018 68.8743 454.218 69.8376 454.212 70.9702V80H450.87V71.4872C450.87 70.5393 450.624 69.7976 450.131 69.2621C449.645 68.7266 448.971 68.4588 448.109 68.4588C447.524 68.4588 447.004 68.5881 446.549 68.8466C446.099 69.099 445.746 69.4652 445.487 69.9453C445.235 70.4254 445.108 71.0071 445.108 71.6903ZM461.691 80.2862C460.792 80.2862 459.983 80.1262 459.263 79.8061C458.549 79.4799 457.982 78.9998 457.564 78.3658C457.151 77.7318 456.945 76.95 456.945 76.0206C456.945 75.2204 457.093 74.5587 457.388 74.0355C457.684 73.5123 458.087 73.0938 458.598 72.7798C459.109 72.4659 459.684 72.2289 460.324 72.0689C460.971 71.9027 461.639 71.7827 462.328 71.7088C463.159 71.6226 463.833 71.5457 464.35 71.478C464.867 71.4041 465.242 71.2933 465.476 71.1456C465.716 70.9917 465.836 70.7547 465.836 70.4347V70.3793C465.836 69.6837 465.63 69.1451 465.218 68.7635C464.805 68.3819 464.211 68.1911 463.436 68.1911C462.617 68.1911 461.968 68.3696 461.488 68.7266C461.014 69.0836 460.694 69.5052 460.528 69.9915L457.407 69.5483C457.653 68.6866 458.059 67.9664 458.626 67.3878C459.192 66.803 459.884 66.366 460.703 66.0767C461.522 65.7812 462.426 65.6335 463.417 65.6335C464.101 65.6335 464.781 65.7135 465.458 65.8736C466.135 66.0336 466.754 66.2983 467.314 66.6676C467.874 67.0308 468.323 67.5263 468.662 68.1541C469.006 68.782 469.179 69.5668 469.179 70.5085V80H465.966V78.0518H465.855C465.652 78.4458 465.366 78.8151 464.996 79.1598C464.633 79.4983 464.175 79.7723 463.621 79.9815C463.073 80.1847 462.43 80.2862 461.691 80.2862ZM462.559 77.8303C463.23 77.8303 463.811 77.6979 464.304 77.4332C464.796 77.1624 465.175 76.8054 465.439 76.3622C465.71 75.919 465.846 75.4358 465.846 74.9126V73.2415C465.741 73.3277 465.563 73.4077 465.31 73.4815C465.064 73.5554 464.787 73.62 464.479 73.6754C464.171 73.7308 463.867 73.7801 463.565 73.8232C463.264 73.8662 463.002 73.9032 462.78 73.9339C462.282 74.0017 461.836 74.1125 461.442 74.2663C461.048 74.4202 460.737 74.6357 460.509 74.9126C460.281 75.1835 460.167 75.5343 460.167 75.9652C460.167 76.5807 460.392 77.0455 460.841 77.3594C461.291 77.6733 461.863 77.8303 462.559 77.8303ZM484.699 65.8182L479.649 80H475.956L470.905 65.8182H474.469L477.729 76.353H477.876L481.145 65.8182H484.699ZM487.012 80V65.8182H490.355V80H487.012ZM488.693 63.8054C488.163 63.8054 487.708 63.63 487.326 63.2791C486.945 62.9221 486.754 62.4943 486.754 61.9957C486.754 61.491 486.945 61.0632 487.326 60.7124C487.708 60.3553 488.163 60.1768 488.693 60.1768C489.228 60.1768 489.684 60.3553 490.059 60.7124C490.441 61.0632 490.632 61.491 490.632 61.9957C490.632 62.4943 490.441 62.9221 490.059 63.2791C489.684 63.63 489.228 63.8054 488.693 63.8054ZM499.054 80.2493C497.94 80.2493 496.943 79.9631 496.063 79.3906C495.183 78.8182 494.487 77.9872 493.976 76.8977C493.465 75.8082 493.21 74.4848 493.21 72.9276C493.21 71.3518 493.468 70.0223 493.985 68.9389C494.509 67.8494 495.213 67.0277 496.1 66.4737C496.986 65.9136 497.974 65.6335 499.064 65.6335C499.895 65.6335 500.578 65.7751 501.113 66.0582C501.649 66.3352 502.074 66.6707 502.387 67.0646C502.701 67.4524 502.944 67.8187 503.117 68.1634H503.255V61.0909H506.607V80H503.32V77.7656H503.117C502.944 78.1103 502.695 78.4766 502.369 78.8643C502.043 79.246 501.612 79.5722 501.076 79.843C500.541 80.1139 499.867 80.2493 499.054 80.2493ZM499.987 77.5071C500.695 77.5071 501.298 77.3163 501.797 76.9347C502.295 76.5469 502.674 76.0083 502.932 75.3189C503.191 74.6295 503.32 73.8262 503.32 72.9091C503.32 71.992 503.191 71.1948 502.932 70.5178C502.68 69.8407 502.304 69.3144 501.806 68.9389C501.313 68.5634 500.707 68.3757 499.987 68.3757C499.242 68.3757 498.62 68.5696 498.122 68.9574C497.623 69.3452 497.248 69.8807 496.995 70.5639C496.743 71.2472 496.617 72.0289 496.617 72.9091C496.617 73.7955 496.743 74.5864 496.995 75.282C497.254 75.9714 497.632 76.5161 498.131 76.9162C498.636 77.3101 499.254 77.5071 499.987 77.5071ZM516.447 80.277C515.025 80.277 513.797 79.9815 512.763 79.3906C511.735 78.7936 510.944 77.9503 510.39 76.8608C509.836 75.7652 509.559 74.4756 509.559 72.9922C509.559 71.5334 509.836 70.2531 510.39 69.1513C510.95 68.0433 511.732 67.1816 512.735 66.5661C513.739 65.9444 514.917 65.6335 516.271 65.6335C517.146 65.6335 517.97 65.7751 518.746 66.0582C519.528 66.3352 520.217 66.7661 520.814 67.3509C521.417 67.9356 521.891 68.6804 522.236 69.5852C522.581 70.4839 522.753 71.5549 522.753 72.7983V73.8232H511.129V71.5703H519.549C519.543 70.9302 519.405 70.3608 519.134 69.8622C518.863 69.3575 518.484 68.9605 517.998 68.6712C517.518 68.3819 516.958 68.2372 516.318 68.2372C515.634 68.2372 515.034 68.4034 514.517 68.7358C514 69.062 513.597 69.4929 513.308 70.0284C513.025 70.5578 512.88 71.1394 512.874 71.7734V73.7401C512.874 74.5649 513.025 75.2727 513.326 75.8636C513.628 76.4484 514.049 76.8977 514.591 77.2116C515.133 77.5194 515.767 77.6733 516.493 77.6733C516.979 77.6733 517.419 77.6056 517.813 77.4702C518.207 77.3286 518.549 77.1224 518.838 76.8516C519.128 76.5807 519.346 76.2453 519.494 75.8452L522.615 76.196C522.418 77.0208 522.042 77.741 521.488 78.3565C520.94 78.9659 520.239 79.4399 519.383 79.7784C518.527 80.1108 517.549 80.277 516.447 80.277ZM536.789 69.5668L533.743 69.8991C533.656 69.5914 533.506 69.3021 533.29 69.0312C533.081 68.7604 532.798 68.5419 532.441 68.3757C532.084 68.2095 531.647 68.1264 531.13 68.1264C530.434 68.1264 529.849 68.2772 529.375 68.5788C528.908 68.8804 528.677 69.2713 528.683 69.7514C528.677 70.1638 528.828 70.4993 529.135 70.7578C529.449 71.0163 529.966 71.2287 530.686 71.3949L533.105 71.9119C534.447 72.2012 535.444 72.6598 536.097 73.2876C536.756 73.9155 537.088 74.7372 537.094 75.7528C537.088 76.6454 536.826 77.4332 536.309 78.1165C535.798 78.7936 535.087 79.3229 534.176 79.7045C533.266 80.0862 532.219 80.277 531.037 80.277C529.301 80.277 527.904 79.9138 526.846 79.1875C525.787 78.455 525.156 77.4363 524.953 76.1314L528.212 75.8175C528.36 76.4576 528.674 76.9408 529.154 77.267C529.634 77.5933 530.259 77.7564 531.028 77.7564C531.822 77.7564 532.459 77.5933 532.939 77.267C533.426 76.9408 533.669 76.5376 533.669 76.0575C533.669 75.6513 533.512 75.3158 533.198 75.0511C532.89 74.7865 532.41 74.5833 531.757 74.4418L529.338 73.9339C527.978 73.6508 526.972 73.1738 526.319 72.5028C525.667 71.8258 525.344 70.9702 525.35 69.9361C525.344 69.062 525.581 68.3049 526.061 67.6648C526.547 67.0185 527.221 66.5199 528.083 66.169C528.951 65.812 529.951 65.6335 531.083 65.6335C532.745 65.6335 534.053 65.9875 535.007 66.6953C535.968 67.4032 536.562 68.3603 536.789 69.5668ZM252.548 101.545C252.548 99.2372 252.853 97.1167 253.462 95.1839C254.078 93.245 254.992 91.4538 256.205 89.8104H259.353C258.885 90.4197 258.448 91.1676 258.042 92.054C257.636 92.9342 257.282 93.9006 256.98 94.9531C256.685 95.9995 256.451 97.0859 256.278 98.2124C256.112 99.3388 256.029 100.45 256.029 101.545C256.029 103.004 256.174 104.482 256.463 105.977C256.759 107.473 257.156 108.861 257.654 110.141C258.159 111.415 258.725 112.459 259.353 113.271H256.205C254.992 111.628 254.078 109.84 253.462 107.907C252.853 105.968 252.548 103.848 252.548 101.545ZM264.526 111H260.869L267.526 92.0909H271.755L278.421 111H274.765L269.715 95.9688H269.567L264.526 111ZM264.646 103.586H274.617V106.337H264.646V103.586ZM284.107 92.0909V111H280.764V92.0909H284.107ZM294.625 96.8182V99.4034H286.472V96.8182H294.625ZM288.485 93.4205H291.828V106.734C291.828 107.184 291.895 107.528 292.031 107.768C292.172 108.002 292.357 108.162 292.585 108.249C292.812 108.335 293.065 108.378 293.342 108.378C293.551 108.378 293.742 108.362 293.914 108.332C294.093 108.301 294.228 108.273 294.32 108.249L294.884 110.862C294.705 110.923 294.45 110.991 294.117 111.065C293.791 111.138 293.391 111.182 292.917 111.194C292.08 111.219 291.326 111.092 290.655 110.815C289.984 110.532 289.452 110.095 289.058 109.504C288.67 108.913 288.479 108.175 288.485 107.288V93.4205ZM306.46 105.036V96.8182H309.802V111H306.561V108.479H306.413C306.093 109.273 305.567 109.923 304.835 110.428C304.108 110.932 303.213 111.185 302.148 111.185C301.218 111.185 300.397 110.978 299.683 110.566C298.975 110.147 298.421 109.541 298.021 108.747C297.621 107.947 297.42 106.981 297.42 105.848V96.8182H300.763V105.331C300.763 106.23 301.009 106.944 301.501 107.473C301.994 108.002 302.64 108.267 303.44 108.267C303.933 108.267 304.41 108.147 304.871 107.907C305.333 107.667 305.712 107.31 306.007 106.836C306.309 106.356 306.46 105.756 306.46 105.036ZM313.239 111V96.8182H316.48V99.1818H316.627C316.886 98.3632 317.329 97.7322 317.957 97.2891C318.591 96.8397 319.314 96.6151 320.127 96.6151C320.311 96.6151 320.517 96.6243 320.745 96.6428C320.979 96.6551 321.173 96.6766 321.327 96.7074V99.782C321.185 99.7327 320.961 99.6896 320.653 99.6527C320.351 99.6096 320.059 99.5881 319.776 99.5881C319.166 99.5881 318.619 99.7204 318.132 99.9851C317.652 100.244 317.274 100.604 316.997 101.065C316.72 101.527 316.581 102.059 316.581 102.663V111H313.239ZM327.374 111.286C326.476 111.286 325.666 111.126 324.946 110.806C324.232 110.48 323.666 110 323.247 109.366C322.835 108.732 322.629 107.95 322.629 107.021C322.629 106.22 322.776 105.559 323.072 105.036C323.367 104.512 323.771 104.094 324.281 103.78C324.792 103.466 325.368 103.229 326.008 103.069C326.654 102.903 327.322 102.783 328.012 102.709C328.843 102.623 329.517 102.546 330.034 102.478C330.551 102.404 330.926 102.293 331.16 102.146C331.4 101.992 331.52 101.755 331.52 101.435V101.379C331.52 100.684 331.314 100.145 330.901 99.7635C330.489 99.3819 329.895 99.1911 329.119 99.1911C328.301 99.1911 327.651 99.3696 327.171 99.7266C326.697 100.084 326.377 100.505 326.211 100.991L323.09 100.548C323.337 99.6866 323.743 98.9664 324.309 98.3878C324.875 97.803 325.568 97.366 326.387 97.0767C327.205 96.7812 328.11 96.6335 329.101 96.6335C329.784 96.6335 330.464 96.7135 331.142 96.8736C331.819 97.0336 332.437 97.2983 332.997 97.6676C333.557 98.0308 334.007 98.5263 334.345 99.1541C334.69 99.782 334.862 100.567 334.862 101.509V111H331.649V109.052H331.539C331.335 109.446 331.049 109.815 330.68 110.16C330.317 110.498 329.858 110.772 329.304 110.982C328.756 111.185 328.113 111.286 327.374 111.286ZM328.242 108.83C328.913 108.83 329.495 108.698 329.987 108.433C330.48 108.162 330.858 107.805 331.123 107.362C331.394 106.919 331.529 106.436 331.529 105.913V104.241C331.425 104.328 331.246 104.408 330.994 104.482C330.748 104.555 330.471 104.62 330.163 104.675C329.855 104.731 329.55 104.78 329.249 104.823C328.947 104.866 328.686 104.903 328.464 104.934C327.965 105.002 327.519 105.112 327.125 105.266C326.731 105.42 326.42 105.636 326.193 105.913C325.965 106.183 325.851 106.534 325.851 106.965C325.851 107.581 326.076 108.045 326.525 108.359C326.974 108.673 327.547 108.83 328.242 108.83ZM347.248 111H343.592L350.249 92.0909H354.478L361.144 111H357.488L352.437 95.9688H352.29L347.248 111ZM347.368 103.586H357.34V106.337H347.368V103.586ZM374.377 96.8182L369.327 111H365.634L360.583 96.8182H364.147L367.406 107.353H367.554L370.822 96.8182H374.377ZM377.86 111.203C377.3 111.203 376.82 111.006 376.42 110.612C376.02 110.218 375.823 109.738 375.829 109.172C375.823 108.618 376.02 108.144 376.42 107.75C376.82 107.356 377.3 107.159 377.86 107.159C378.402 107.159 378.873 107.356 379.273 107.75C379.679 108.144 379.885 108.618 379.892 109.172C379.885 109.547 379.787 109.889 379.596 110.197C379.411 110.504 379.165 110.751 378.857 110.935C378.556 111.114 378.223 111.203 377.86 111.203ZM389.355 111V92.0909H392.781V100.096H401.543V92.0909H404.977V111H401.543V102.967H392.781V111H389.355ZM417.594 105.036V96.8182H420.937V111H417.696V108.479H417.548C417.228 109.273 416.702 109.923 415.969 110.428C415.243 110.932 414.347 111.185 413.282 111.185C412.353 111.185 411.531 110.978 410.817 110.566C410.109 110.147 409.555 109.541 409.155 108.747C408.755 107.947 408.555 106.981 408.555 105.848V96.8182H411.898V105.331C411.898 106.23 412.144 106.944 412.636 107.473C413.129 108.002 413.775 108.267 414.575 108.267C415.068 108.267 415.545 108.147 416.006 107.907C416.468 107.667 416.846 107.31 417.142 106.836C417.443 106.356 417.594 105.756 417.594 105.036ZM428.455 111.286C427.556 111.286 426.746 111.126 426.026 110.806C425.312 110.48 424.746 110 424.327 109.366C423.915 108.732 423.709 107.95 423.709 107.021C423.709 106.22 423.857 105.559 424.152 105.036C424.447 104.512 424.851 104.094 425.362 103.78C425.872 103.466 426.448 103.229 427.088 103.069C427.734 102.903 428.402 102.783 429.092 102.709C429.923 102.623 430.597 102.546 431.114 102.478C431.631 102.404 432.006 102.293 432.24 102.146C432.48 101.992 432.6 101.755 432.6 101.435V101.379C432.6 100.684 432.394 100.145 431.982 99.7635C431.569 99.3819 430.975 99.1911 430.2 99.1911C429.381 99.1911 428.732 99.3696 428.251 99.7266C427.777 100.084 427.457 100.505 427.291 100.991L424.17 100.548C424.417 99.6866 424.823 98.9664 425.389 98.3878C425.955 97.803 426.648 97.366 427.467 97.0767C428.285 96.7812 429.19 96.6335 430.181 96.6335C430.864 96.6335 431.545 96.7135 432.222 96.8736C432.899 97.0336 433.517 97.2983 434.077 97.6676C434.638 98.0308 435.087 98.5263 435.425 99.1541C435.77 99.782 435.942 100.567 435.942 101.509V111H432.729V109.052H432.619C432.415 109.446 432.129 109.815 431.76 110.16C431.397 110.498 430.938 110.772 430.384 110.982C429.836 111.185 429.193 111.286 428.455 111.286ZM429.322 108.83C429.993 108.83 430.575 108.698 431.067 108.433C431.56 108.162 431.938 107.805 432.203 107.362C432.474 106.919 432.609 106.436 432.609 105.913V104.241C432.505 104.328 432.326 104.408 432.074 104.482C431.828 104.555 431.551 104.62 431.243 104.675C430.935 104.731 430.63 104.78 430.329 104.823C430.027 104.866 429.766 104.903 429.544 104.934C429.045 105.002 428.599 105.112 428.205 105.266C427.811 105.42 427.5 105.636 427.273 105.913C427.045 106.183 426.931 106.534 426.931 106.965C426.931 107.581 427.156 108.045 427.605 108.359C428.054 108.673 428.627 108.83 429.322 108.83ZM442.646 92.0909V111H439.303V92.0909H442.646ZM452.269 111.277C450.853 111.277 449.637 110.966 448.622 110.344C447.612 109.723 446.834 108.864 446.286 107.768C445.744 106.667 445.473 105.399 445.473 103.964C445.473 102.524 445.75 101.253 446.304 100.151C446.858 99.0433 447.64 98.1816 448.649 97.5661C449.665 96.9444 450.865 96.6335 452.25 96.6335C453.401 96.6335 454.42 96.8459 455.306 97.2706C456.199 97.6892 456.91 98.2831 457.439 99.0526C457.968 99.8158 458.27 100.708 458.344 101.73H455.149C455.02 101.047 454.712 100.478 454.226 100.022C453.746 99.5604 453.103 99.3295 452.296 99.3295C451.613 99.3295 451.013 99.5142 450.496 99.8835C449.979 100.247 449.576 100.77 449.286 101.453C449.003 102.136 448.862 102.955 448.862 103.909C448.862 104.875 449.003 105.706 449.286 106.402C449.57 107.091 449.967 107.624 450.477 107.999C450.994 108.369 451.601 108.553 452.296 108.553C452.789 108.553 453.229 108.461 453.617 108.276C454.011 108.085 454.34 107.812 454.605 107.455C454.869 107.098 455.051 106.664 455.149 106.153H458.344C458.264 107.156 457.968 108.045 457.458 108.821C456.947 109.59 456.251 110.194 455.371 110.631C454.491 111.062 453.457 111.277 452.269 111.277ZM465.169 111.286C464.271 111.286 463.461 111.126 462.741 110.806C462.027 110.48 461.461 110 461.042 109.366C460.63 108.732 460.424 107.95 460.424 107.021C460.424 106.22 460.571 105.559 460.867 105.036C461.162 104.512 461.565 104.094 462.076 103.78C462.587 103.466 463.163 103.229 463.803 103.069C464.449 102.903 465.117 102.783 465.806 102.709C466.637 102.623 467.311 102.546 467.828 102.478C468.346 102.404 468.721 102.293 468.955 102.146C469.195 101.992 469.315 101.755 469.315 101.435V101.379C469.315 100.684 469.109 100.145 468.696 99.7635C468.284 99.3819 467.69 99.1911 466.914 99.1911C466.096 99.1911 465.446 99.3696 464.966 99.7266C464.492 100.084 464.172 100.505 464.006 100.991L460.885 100.548C461.132 99.6866 461.538 98.9664 462.104 98.3878C462.67 97.803 463.363 97.366 464.181 97.0767C465 96.7812 465.905 96.6335 466.896 96.6335C467.579 96.6335 468.259 96.7135 468.936 96.8736C469.614 97.0336 470.232 97.2983 470.792 97.6676C471.352 98.0308 471.802 98.5263 472.14 99.1541C472.485 99.782 472.657 100.567 472.657 101.509V111H469.444V109.052H469.333C469.13 109.446 468.844 109.815 468.475 110.16C468.112 110.498 467.653 110.772 467.099 110.982C466.551 111.185 465.908 111.286 465.169 111.286ZM466.037 108.83C466.708 108.83 467.29 108.698 467.782 108.433C468.275 108.162 468.653 107.805 468.918 107.362C469.189 106.919 469.324 106.436 469.324 105.913V104.241C469.22 104.328 469.041 104.408 468.789 104.482C468.542 104.555 468.266 104.62 467.958 104.675C467.65 104.731 467.345 104.78 467.044 104.823C466.742 104.866 466.48 104.903 466.259 104.934C465.76 105.002 465.314 105.112 464.92 105.266C464.526 105.42 464.215 105.636 463.988 105.913C463.76 106.183 463.646 106.534 463.646 106.965C463.646 107.581 463.871 108.045 464.32 108.359C464.769 108.673 465.342 108.83 466.037 108.83ZM476.018 111V96.8182H479.259V99.1818H479.407C479.665 98.3632 480.108 97.7322 480.736 97.2891C481.37 96.8397 482.093 96.6151 482.906 96.6151C483.091 96.6151 483.297 96.6243 483.525 96.6428C483.758 96.6551 483.952 96.6766 484.106 96.7074V99.782C483.965 99.7327 483.74 99.6896 483.432 99.6527C483.131 99.6096 482.838 99.5881 482.555 99.5881C481.946 99.5881 481.398 99.7204 480.912 99.9851C480.431 100.244 480.053 100.604 479.776 101.065C479.499 101.527 479.36 102.059 479.36 102.663V111H476.018ZM490.154 111.286C489.255 111.286 488.446 111.126 487.725 110.806C487.011 110.48 486.445 110 486.027 109.366C485.614 108.732 485.408 107.95 485.408 107.021C485.408 106.22 485.556 105.559 485.851 105.036C486.147 104.512 486.55 104.094 487.061 103.78C487.572 103.466 488.147 103.229 488.787 103.069C489.434 102.903 490.101 102.783 490.791 102.709C491.622 102.623 492.296 102.546 492.813 102.478C493.33 102.404 493.705 102.293 493.939 102.146C494.179 101.992 494.299 101.755 494.299 101.435V101.379C494.299 100.684 494.093 100.145 493.681 99.7635C493.268 99.3819 492.674 99.1911 491.899 99.1911C491.08 99.1911 490.431 99.3696 489.951 99.7266C489.477 100.084 489.157 100.505 488.99 100.991L485.87 100.548C486.116 99.6866 486.522 98.9664 487.088 98.3878C487.655 97.803 488.347 97.366 489.166 97.0767C489.984 96.7812 490.889 96.6335 491.88 96.6335C492.564 96.6335 493.244 96.7135 493.921 96.8736C494.598 97.0336 495.217 97.2983 495.777 97.6676C496.337 98.0308 496.786 98.5263 497.125 99.1541C497.469 99.782 497.642 100.567 497.642 101.509V111H494.429V109.052H494.318C494.115 109.446 493.828 109.815 493.459 110.16C493.096 110.498 492.637 110.772 492.083 110.982C491.536 111.185 490.892 111.286 490.154 111.286ZM491.022 108.83C491.693 108.83 492.274 108.698 492.767 108.433C493.259 108.162 493.638 107.805 493.902 107.362C494.173 106.919 494.309 106.436 494.309 105.913V104.241C494.204 104.328 494.025 104.408 493.773 104.482C493.527 104.555 493.25 104.62 492.942 104.675C492.634 104.731 492.33 104.78 492.028 104.823C491.726 104.866 491.465 104.903 491.243 104.934C490.745 105.002 490.298 105.112 489.904 105.266C489.511 105.42 489.2 105.636 488.972 105.913C488.744 106.183 488.63 106.534 488.63 106.965C488.63 107.581 488.855 108.045 489.304 108.359C489.754 108.673 490.326 108.83 491.022 108.83ZM490.745 94.9531L492.813 90.7337H496.081L493.247 94.9531H490.745ZM506.967 103.29C506.967 105.593 506.659 107.713 506.044 109.652C505.434 111.585 504.523 113.373 503.311 115.016H500.162C500.636 114.407 501.073 113.662 501.473 112.782C501.88 111.902 502.23 110.935 502.526 109.883C502.828 108.83 503.061 107.741 503.228 106.614C503.4 105.488 503.486 104.38 503.486 103.29C503.486 101.832 503.338 100.354 503.043 98.8587C502.754 97.3629 502.357 95.9749 501.852 94.6946C501.353 93.4143 500.79 92.3679 500.162 91.5554H503.311C504.523 93.1989 505.434 94.9901 506.044 96.929C506.659 98.8617 506.967 100.982 506.967 103.29Z" fill="white"/>
</svg>
