<svg width="463" height="168" viewBox="0 0 463 168" fill="none" xmlns="http://www.w3.org/2000/svg">
<g clip-path="url(#clip0_171_33940)">
<path d="M69.282 98.2813L69.2349 114.223C66.4924 112.645 62.0584 112.645 59.3301 114.223L59.3772 98.2813C62.1008 96.7031 66.5396 96.7031 69.282 98.2813Z" fill="#A3A3A3"/>
<path d="M104.184 118.37L104.141 134.312L69.2344 114.223L69.2815 98.2812L104.184 118.37Z" fill="#ADADAD"/>
<path d="M106.252 121.25L106.205 137.192C106.21 136.149 105.517 135.107 104.137 134.313L104.184 118.371C105.564 119.165 106.252 120.208 106.252 121.25Z" fill="#BABABA"/>
<path d="M59.3773 98.2812L59.3302 114.223L13.7832 140.611L13.8256 124.669L59.3773 98.2812Z" fill="#BFBFBF"/>
<path d="M118 121.949L117.953 131.508C117.949 133.001 116.964 134.495 114.994 135.636L115.041 126.078C117.011 124.941 117.996 123.448 118 121.949Z" fill="#BABABA"/>
<path d="M11.748 143.449L11.7952 127.507C11.7999 126.478 12.4737 125.454 13.8308 124.67L13.7837 140.612C12.4313 141.396 11.7528 142.42 11.748 143.449Z" fill="#BABABA"/>
<path d="M1.65144e-05 136.361L0.0471374 126.803C0.0424253 128.315 1.0461 129.832 3.05345 130.992L3.00633 140.551C0.998978 139.395 -0.00469557 137.878 1.65144e-05 136.361Z" fill="#A3A3A3"/>
<path d="M115.04 126.084L114.993 135.642L62.1094 166.277L62.1518 156.718L115.04 126.084Z" fill="#BFBFBF"/>
<path d="M47.7518 156.718L47.7047 166.276L3.00586 140.551L3.05298 130.992L47.7518 156.718Z" fill="#ADADAD"/>
<path d="M114.994 117.765C118.985 120.062 119.004 123.786 115.041 126.083L62.1528 156.717C58.1899 159.014 51.7438 159.014 47.7527 156.717L3.05383 130.992C-0.937303 128.695 -0.956151 124.97 3.002 122.678L55.8904 92.039C59.8533 89.7422 66.3041 89.7422 70.2953 92.039L114.994 117.765ZM58.6658 150.475L104.218 124.087C106.941 122.509 106.927 119.949 104.185 118.371L69.2822 98.2814C66.5397 96.7032 62.1057 96.7032 59.3774 98.2814L13.8257 124.669C11.1021 126.248 11.1162 128.807 13.8586 130.386L48.761 150.475C51.5082 152.053 55.9423 152.053 58.6658 150.475Z" fill="#D6D6D6"/>
<path d="M62.1523 156.717L62.1052 166.275C58.1423 168.572 51.6962 168.572 47.7051 166.275L47.7522 156.717C51.7433 159.014 58.1895 159.014 62.1523 156.717Z" fill="#A3A3A3"/>
<path d="M97.3709 115.383L54.1234 140.574L23.2168 122.786L66.4643 97.5957L97.3709 115.383Z" fill="#724017"/>
<path d="M90.2794 117.051L54.3827 137.85L27.75 122.523L63.6467 101.725L90.2794 117.051Z" fill="#72A848"/>
<path d="M90.2663 117.061L87.9432 118.409L61.3105 103.082L63.6336 101.734L90.2663 117.061Z" fill="#669E3A"/>
<path d="M85.4733 119.836L83.1503 121.184L56.5176 105.858L58.8406 104.51L85.4733 119.836Z" fill="#669E3A"/>
<path d="M80.6823 122.614L78.3593 123.962L51.7266 108.63L54.0496 107.287L80.6823 122.614Z" fill="#669E3A"/>
<path d="M75.8894 125.389L73.5663 126.737L46.9336 111.411L49.2567 110.062L75.8894 125.389Z" fill="#669E3A"/>
<path d="M71.0964 128.164L68.7733 129.508L42.1406 114.181L44.4684 112.838L71.0964 128.164Z" fill="#669E3A"/>
<path d="M56.7253 136.492L54.3975 137.836L27.7695 122.509L30.0926 121.166L56.7253 136.492Z" fill="#669E3A"/>
<path d="M66.3054 130.94L63.9823 132.283L37.3496 116.957L39.6774 115.613L66.3054 130.94Z" fill="#669E3A"/>
<path d="M61.5183 133.717L59.1905 135.06L32.5625 119.734L34.8856 118.391L61.5183 133.717Z" fill="#669E3A"/>
<path d="M70.412 113.186C70.5298 113.251 70.5298 113.364 70.412 113.43C70.2989 113.496 70.1105 113.496 69.9926 113.43C69.8748 113.364 69.8748 113.251 69.9926 113.186C70.1057 113.115 70.2989 113.115 70.412 113.186Z" fill="#FCFCFC"/>
<path d="M70.2711 107.732L79.8555 113.247L79.7613 113.303L75.8832 115.548L66.2988 110.034L70.1769 107.789L70.2711 107.732ZM75.8832 115.44L79.6623 113.251L70.2664 107.845L66.4873 110.034L75.8832 115.44Z" fill="#FCFCFC"/>
<path d="M65.1104 113.006L70.7366 116.242L70.6 116.252C70.5906 116.252 70.5811 116.252 70.567 116.252C69.0686 116.345 67.5937 116.045 66.524 115.43C65.4544 114.814 64.9361 113.964 65.0916 113.1C65.0916 113.095 65.0916 113.086 65.0963 113.081L65.1104 113.006ZM66.623 115.378C67.6361 115.96 69.0214 116.252 70.4445 116.181L65.2188 113.175C65.0963 113.997 65.6099 114.795 66.623 115.378Z" fill="#FCFCFC"/>
<path d="M47.8466 113.302L55.5461 117.736C55.532 117.745 55.5131 117.755 55.499 117.764C55.4848 117.774 55.466 117.783 55.4519 117.792L47.7523 113.358L47.6816 113.316L47.7759 113.26L47.8466 113.302Z" fill="#FCFCFC"/>
<path d="M62.5753 121.78C62.5612 121.79 62.5423 121.799 62.5282 121.808C62.514 121.818 62.4952 121.827 62.4811 121.837C60.5538 122.926 57.4438 122.917 55.526 121.808C53.6035 120.7 53.5752 118.906 55.4553 117.792C55.4695 117.783 55.4883 117.774 55.5025 117.764C55.5166 117.755 55.5355 117.745 55.5496 117.736C57.4815 116.646 60.5868 116.656 62.5093 117.764C64.4272 118.868 64.4554 120.662 62.5753 121.78ZM62.3868 121.78C62.401 121.771 62.4198 121.761 62.4339 121.752C62.4481 121.743 62.4669 121.733 62.4811 121.724C64.3046 120.634 64.2811 118.892 62.4104 117.816C60.5397 116.74 57.5192 116.731 55.6438 117.788C55.6297 117.797 55.6108 117.807 55.5967 117.816C55.5826 117.825 55.5637 117.835 55.5496 117.844C53.726 118.929 53.7496 120.676 55.6203 121.752C57.4863 122.828 60.5114 122.837 62.3868 121.78Z" fill="#FCFCFC"/>
<path d="M86.3722 116.999L54.2829 135.59L31.6602 122.569L63.7494 103.979L67.6558 106.228L67.5615 106.285L63.7494 104.091L47.8462 113.302L47.6812 113.316L31.8486 122.569L35.6607 124.763L35.5665 124.819L50.3718 133.34L50.4708 133.283L54.2782 135.477L70.1814 126.266L70.3511 126.252L86.179 116.999L82.3669 114.805L82.4611 114.749L86.3722 116.999Z" fill="#FCFCFC"/>
<path d="M70.2762 126.209L70.3469 126.252L70.2526 126.308L70.182 126.266L62.4824 121.832C62.4966 121.822 62.5154 121.813 62.5295 121.804C62.5437 121.794 62.5625 121.785 62.5767 121.775L70.2762 126.209Z" fill="#FCFCFC"/>
<path d="M55.645 117.787L62.4823 121.723C62.4681 121.733 62.4493 121.742 62.4351 121.751C62.421 121.761 62.4021 121.77 62.388 121.78L55.5508 117.843C55.5649 117.834 55.5838 117.825 55.5979 117.815C55.612 117.806 55.6262 117.797 55.645 117.787Z" fill="#FCFCFC"/>
<path d="M48.039 126.145C48.1568 126.211 48.1568 126.324 48.039 126.389C47.9259 126.455 47.7374 126.455 47.6196 126.389C47.5018 126.324 47.5018 126.211 47.6196 126.145C47.7327 126.079 47.9212 126.079 48.039 126.145Z" fill="#FCFCFC"/>
<path d="M42.1492 124.021L51.7336 129.536L47.8603 131.781L47.766 131.837L38.1816 126.323L38.2759 126.267L42.1492 124.021ZM47.7613 131.729L51.5404 129.541L42.1492 124.13L38.3701 126.318L47.7613 131.729Z" fill="#FCFCFC"/>
<path d="M52.9356 126.469L57.6005 129.155L50.4665 133.289L50.3722 133.345L47.7617 131.842L47.856 131.786L50.3722 133.232L57.4121 129.155L52.9167 126.567L52.9356 126.488C52.9356 126.478 52.9356 126.473 52.9356 126.469Z" fill="#FCFCFC"/>
<path d="M35.7588 124.819L38.2751 126.265L38.1808 126.322L35.5703 124.819L35.6646 124.762L42.7987 120.629L47.4636 123.316C47.4542 123.316 47.4448 123.316 47.4306 123.316L47.2893 123.325L42.7939 120.742L35.7588 124.819Z" fill="#FCFCFC"/>
<path d="M52.9361 126.488L52.9172 126.567L47.291 123.331L47.4324 123.322C47.4418 123.322 47.4512 123.322 47.4654 123.322C48.9638 123.228 50.434 123.524 51.5083 124.144C52.578 124.759 53.0963 125.609 52.9408 126.473C52.9361 126.473 52.9361 126.478 52.9361 126.488ZM47.5879 123.388L52.8136 126.394C52.9314 125.572 52.4225 124.773 51.4094 124.191C50.3963 123.608 49.0109 123.317 47.5879 123.388Z" fill="#FCFCFC"/>
<path d="M65.1115 113.006L65.0974 113.086C65.0974 113.091 65.0974 113.1 65.0927 113.105L60.4277 110.418L67.5618 106.285L67.6561 106.229L70.2666 107.732L70.1723 107.788L67.6561 106.341L60.6162 110.418L65.1115 113.006Z" fill="#FCFCFC"/>
<path d="M79.8512 113.25L82.4617 114.753L82.3674 114.809L75.2333 118.943L70.5684 116.256C70.5778 116.256 70.5872 116.256 70.6013 116.256L70.738 116.247L75.2333 118.835L82.2732 114.758L79.7569 113.311L79.8512 113.25Z" fill="#FCFCFC"/>
<path d="M69.0001 86.3043L68.9577 101.814C66.2906 100.278 61.9744 100.278 59.3262 101.814L59.3686 86.3043C62.0168 84.7684 66.333 84.7684 69.0001 86.3043Z" fill="#A3A3A3"/>
<path d="M59.3677 86.3047L59.3206 101.814L15.0176 127.479L15.06 111.974L59.3677 86.3047Z" fill="#BFBFBF"/>
<path d="M102.955 105.844L102.908 121.354L68.957 101.814L68.9994 86.3047L102.955 105.844Z" fill="#ADADAD"/>
<path d="M104.963 108.649L104.92 124.159C104.925 123.144 104.251 122.13 102.908 121.359L102.951 105.85C104.298 106.62 104.967 107.634 104.963 108.649Z" fill="#BABABA"/>
<path d="M13.0391 130.24L13.0815 114.731C13.0862 113.73 13.7412 112.734 15.0605 111.969L15.0181 127.478C13.6988 128.244 13.0391 129.24 13.0391 130.24Z" fill="#BABABA"/>
<path d="M116.394 109.33L116.352 118.63C116.347 120.086 115.39 121.538 113.473 122.646L113.515 113.346C115.428 112.238 116.389 110.786 116.394 109.33Z" fill="#BABABA"/>
<path d="M1.60742 123.345L1.64983 114.045C1.64512 115.52 2.62052 116.995 4.57603 118.117L4.53363 127.417C2.58282 126.295 1.60742 124.82 1.60742 123.345Z" fill="#A3A3A3"/>
<path d="M113.514 113.346L113.467 122.646L62.0254 152.444L62.0678 143.148L113.514 113.346Z" fill="#BFBFBF"/>
<path d="M48.0587 143.149L48.0163 152.444L4.5332 127.423L4.58032 118.123L48.0587 143.149Z" fill="#ADADAD"/>
<path d="M62.069 143.148L62.0266 152.449C58.1721 154.68 51.9003 154.68 48.0176 152.449L48.06 143.148C51.9427 145.38 58.2145 145.38 62.069 143.148Z" fill="#A3A3A3"/>
<path d="M15.0602 118.711L59.3679 93.046C62.0209 91.51 66.3324 91.51 68.9994 93.046L102.95 112.586C103.473 112.886 103.888 113.224 104.208 113.581C105.528 112.102 105.108 110.232 102.95 108.992L68.9994 89.4527C66.3324 87.9168 62.0161 87.9168 59.3679 89.4527L15.0602 115.117C12.9256 116.353 12.5251 118.203 13.8351 119.683C14.1461 119.331 14.556 119.002 15.0602 118.711Z" fill="#D6D6D6"/>
<path d="M99.2611 116.038C100.237 115.432 101.188 114.793 102.14 114.14L69.0048 95.0699C66.3378 93.534 62.0215 93.534 59.3733 95.0699L15.0609 120.73C14.6886 120.946 14.3682 121.181 14.0996 121.434C14.1326 121.481 14.1703 121.524 14.2033 121.571C14.7357 122.35 15.3295 123.097 15.9703 123.797L59.3639 98.6585C62.0168 97.1225 66.3283 97.1225 68.9954 98.6585L99.214 116.052C99.2328 116.047 99.247 116.042 99.2611 116.038Z" fill="#D6D6D6"/>
<path d="M113.468 105.257C117.351 107.493 117.37 111.115 113.515 113.346L62.0688 143.148C58.2143 145.379 51.9425 145.379 48.0597 143.148L4.58133 118.123C0.698572 115.887 0.679723 112.265 4.53421 110.034L55.976 80.2315C59.8352 77.9957 66.107 77.9957 69.9851 80.2315L113.468 105.257ZM58.676 137.075L102.984 111.41C105.637 109.875 105.623 107.385 102.951 105.849L69.0002 86.3095C66.3332 84.7736 62.0169 84.7736 59.3687 86.3095L15.061 111.974C12.4081 113.51 12.4269 115.999 15.094 117.535L49.0446 137.075C51.7163 138.611 56.0279 138.611 58.676 137.075Z" fill="#D6D6D6"/>
<path d="M115.04 126.084L114.993 135.642L62.1094 166.277L62.1518 156.718L115.04 126.084Z" fill="#BFBFBF"/>
<path d="M74.2139 152.632C73.1537 153.243 72.2961 154.722 72.3008 155.939L72.3149 160.368L76.16 158.142L76.1459 153.727C76.1412 152.51 75.2788 152.022 74.2139 152.632Z" fill="#4F4F4F"/>
<path d="M91.6299 143.181C90.5697 143.792 89.7121 145.271 89.7168 146.488L89.7262 150.278L93.5713 148.052L93.5619 144.275C93.5572 143.059 92.6901 142.57 91.6299 143.181Z" fill="#4F4F4F"/>
<path d="M109.046 133.281C107.986 133.891 107.128 135.371 107.133 136.587L107.142 140.19L110.987 137.964L110.978 134.375C110.968 133.158 110.106 132.67 109.046 133.281Z" fill="#4F4F4F"/>
<path d="M31.0722 150.372C30.012 149.762 29.145 150.25 29.1403 151.467L29.1309 155.586L32.9759 157.798L32.9853 153.679C32.9948 152.463 32.1325 150.983 31.0722 150.372Z" fill="#4F4F4F"/>
<path d="M13.6601 140.921C12.5999 140.311 11.7329 140.799 11.7282 142.016L11.7188 145.567L15.5638 147.779L15.5732 144.228C15.5779 143.011 14.7203 141.532 13.6601 140.921Z" fill="#4F4F4F"/>
<path d="M68.0947 143.476C67.5858 143.767 67.1711 144.481 67.1758 145.063L67.1805 146.796L69.0277 145.725L69.023 144.002C69.023 143.414 68.6036 143.18 68.0947 143.476Z" fill="#4F4F4F"/>
<path d="M73.538 140.306C73.0291 140.597 72.6145 141.311 72.6192 141.893L72.6239 143.626L74.471 142.556L74.4663 140.832C74.4663 140.245 74.0517 140.01 73.538 140.306Z" fill="#4F4F4F"/>
<path d="M78.9833 137.136C78.4744 137.427 78.0598 138.141 78.0645 138.723L78.0692 140.457L79.9163 139.386L79.9116 137.662C79.9069 137.075 79.4923 136.84 78.9833 137.136Z" fill="#4F4F4F"/>
<path d="M84.4267 133.964C83.9178 134.255 83.5031 134.969 83.5079 135.551L83.5126 137.285L85.3597 136.214L85.355 134.49C85.3503 133.903 84.9356 133.668 84.4267 133.964Z" fill="#4F4F4F"/>
<path d="M89.8701 130.794C89.3612 131.085 88.9465 131.799 88.9512 132.382L88.9559 134.115L90.8031 133.044L90.7983 131.32C90.7983 130.733 90.379 130.498 89.8701 130.794Z" fill="#4F4F4F"/>
<path d="M95.3115 127.624C94.8026 127.915 94.3879 128.629 94.3926 129.212L94.3973 130.945L96.2445 129.874L96.2398 128.15C96.2398 127.563 95.8251 127.328 95.3115 127.624Z" fill="#4F4F4F"/>
<path d="M100.755 124.454C100.246 124.745 99.8313 125.459 99.836 126.042L99.8407 127.775L101.688 126.704L101.683 124.98C101.683 124.393 101.268 124.158 100.755 124.454Z" fill="#4F4F4F"/>
<path d="M106.202 121.277C105.693 121.569 105.279 122.282 105.283 122.865L105.288 124.598L107.135 123.527L107.13 121.803C107.126 121.221 106.711 120.986 106.202 121.277Z" fill="#4F4F4F"/>
<path d="M111.644 118.107C111.135 118.399 110.72 119.113 110.725 119.695L110.729 121.428L112.577 120.357L112.572 118.633C112.567 118.051 112.152 117.816 111.644 118.107Z" fill="#4F4F4F"/>
<path d="M45.3588 145.389C45.8677 145.68 46.2823 146.394 46.2776 146.976L46.2729 148.709L44.4258 147.639L44.4305 145.915C44.4352 145.332 44.8499 145.097 45.3588 145.389Z" fill="#4F4F4F"/>
<path d="M39.9174 142.217C40.4263 142.508 40.8409 143.222 40.8362 143.804L40.8315 145.538L38.9844 144.467L38.9891 142.743C38.9938 142.16 39.4085 141.926 39.9174 142.217Z" fill="#4F4F4F"/>
<path d="M34.474 139.047C34.9829 139.338 35.3976 140.052 35.3929 140.634L35.3882 142.368L33.541 141.297L33.5457 139.573C33.5457 138.99 33.9651 138.756 34.474 139.047Z" fill="#4F4F4F"/>
<path d="M29.0326 135.877C29.5415 136.168 29.9562 136.882 29.9515 137.465L29.9467 139.198L28.0996 138.127L28.1043 136.403C28.1043 135.821 28.519 135.586 29.0326 135.877Z" fill="#4F4F4F"/>
<path d="M23.5892 132.705C24.0981 132.996 24.5128 133.71 24.5081 134.293L24.5034 136.026L22.6562 134.955L22.661 133.231C22.661 132.649 23.0756 132.414 23.5892 132.705Z" fill="#4F4F4F"/>
<path d="M18.142 129.536C18.6509 129.827 19.0655 130.541 19.0608 131.124L19.0561 132.857L17.209 131.786L17.2137 130.062C17.2184 129.475 17.6331 129.245 18.142 129.536Z" fill="#4F4F4F"/>
<path d="M12.7006 126.364C13.2095 126.655 13.6241 127.369 13.6194 127.952L13.6147 129.685L11.7676 128.614L11.7723 126.89C11.777 126.303 12.1917 126.068 12.7006 126.364Z" fill="#4F4F4F"/>
<path d="M7.25721 123.194C7.76612 123.486 8.18078 124.199 8.17607 124.782L8.17136 126.515L6.32422 125.444L6.32893 123.72C6.32893 123.133 6.74831 122.898 7.25721 123.194Z" fill="#4F4F4F"/>
<path d="M78.1736 78.3848L78.1406 88.6008L94.1099 97.7929L94.1381 87.5722L78.1736 78.3848Z" fill="#A6A6A6"/>
<path d="M79.5645 87.7891L79.5833 80.8281L92.7206 88.3904L92.7017 95.3467L79.5645 87.7891Z" fill="#CECECE"/>
<path d="M94.1094 97.7934L94.7738 97.4083L94.8021 87.1875L94.1376 87.5727L94.1094 97.7934Z" fill="#727272"/>
<path d="M94.1384 87.5726L94.8028 87.1874L78.8382 78L78.1738 78.3852L94.1384 87.5726Z" fill="#B8B8B8"/>
<path d="M19.2244 113.975L19.1914 124.195L35.1607 133.383L35.1889 123.167L19.2244 113.975Z" fill="#A6A6A6"/>
<path d="M35.1602 133.382L35.8246 132.997L35.8528 122.781L35.1884 123.166L35.1602 133.382Z" fill="#727272"/>
<path d="M35.1891 123.167L35.8536 122.782L19.889 113.59L19.2246 113.975L35.1891 123.167Z" fill="#B8B8B8"/>
<path d="M23.203 120.142L23.1794 128.066L22.2559 127.535L22.2794 119.611L23.203 120.142Z" fill="#818181"/>
<path d="M23.2032 120.142L24.0656 119.645L24.042 127.564L23.1797 128.066L23.2032 120.142Z" fill="#BAB9B9"/>
<path d="M22.2793 119.611L23.1463 119.113L24.0652 119.644L23.2029 120.142L22.2793 119.611Z" fill="#D0CFCF"/>
<path d="M28.6963 123.359L28.6775 131.283L27.7539 130.752L27.7775 122.828L28.6963 123.359Z" fill="#818181"/>
<path d="M28.6966 123.36L29.5636 122.857L29.54 130.781L28.6777 131.284L28.6966 123.36Z" fill="#BAB9B9"/>
<path d="M27.7773 122.829L28.6397 122.326L29.5632 122.857L28.6962 123.36L27.7773 122.829Z" fill="#D0CFCF"/>
</g>
<rect x="130" width="333" height="72" rx="16" fill="#006DB7"/>
<rect x="145.048" y="15.0476" width="41.9048" height="41.9048" rx="20.9524" fill="#81C995"/>
<rect x="145.048" y="15.0476" width="41.9048" height="41.9048" rx="20.9524" stroke="white" stroke-width="2.09524"/>
<g clip-path="url(#clip1_171_33940)">
<path d="M153.99 43.313C153.99 38.4378 153.99 33.562 153.99 28.6862C154.003 28.6505 154.021 28.6154 154.03 28.5778C154.287 27.4987 155.081 26.8586 156.177 26.8586C162.723 26.8574 169.269 26.8567 175.815 26.8586C177.077 26.8592 177.992 27.7686 177.993 29.0281C177.996 33.676 177.995 38.3232 177.991 42.971C177.991 43.1714 177.967 43.3781 177.916 43.5723C177.661 44.543 176.836 45.1418 175.768 45.1418C170.542 45.1424 165.317 45.1418 160.091 45.1418C158.763 45.1418 157.436 45.1462 156.107 45.1399C155.181 45.1355 154.38 44.5531 154.097 43.6938C154.056 43.5685 154.025 43.4401 153.99 43.313ZM166.708 28.264C166.708 29.7121 166.708 31.1307 166.708 32.5461C168.54 32.9983 169.434 34.462 169.503 35.8211C169.541 36.567 169.357 37.261 168.95 37.8904C168.417 38.7165 167.656 39.2232 166.71 39.4468C166.71 40.8829 166.71 42.3009 166.71 43.7245C166.754 43.7288 166.784 43.7345 166.814 43.7345C169.83 43.7351 172.845 43.7364 175.861 43.7332C176.287 43.7326 176.581 43.4345 176.586 43.0086C176.592 42.4931 176.587 41.9771 176.588 41.4616C176.588 41.2856 176.588 41.109 176.588 40.9205C175.844 40.9205 175.134 40.9317 174.424 40.918C173.313 40.8967 172.385 39.9898 172.375 38.8843C172.359 36.9628 172.362 35.0407 172.374 33.1192C172.38 32.2029 173.024 31.3987 173.914 31.1651C174.137 31.1062 174.375 31.0843 174.607 31.0805C175.261 31.0693 175.915 31.0768 176.589 31.0768C176.589 30.4129 176.589 29.7747 176.589 29.1359C176.589 28.5196 176.336 28.264 175.726 28.264C172.812 28.264 169.898 28.264 166.984 28.264C166.898 28.264 166.813 28.264 166.708 28.264ZM165.281 39.4524C163.508 39.0209 162.571 37.6073 162.484 36.2219C162.437 35.4841 162.607 34.7946 162.997 34.1657C163.53 33.3083 164.304 32.7816 165.273 32.5524C165.273 31.1144 165.273 29.6964 165.273 28.2747C165.228 28.2703 165.197 28.2653 165.167 28.2653C162.152 28.2647 159.136 28.2634 156.12 28.2665C155.696 28.2672 155.401 28.5672 155.398 28.9937C155.393 29.6419 155.396 30.2908 155.398 30.939C155.398 30.9828 155.411 31.0261 155.42 31.0793C156.142 31.0793 156.853 31.0686 157.563 31.0818C158.666 31.1025 159.596 31.9981 159.608 33.0941C159.628 35.0313 159.626 36.9691 159.608 38.9063C159.599 39.8789 158.85 40.7551 157.887 40.8691C157.186 40.9524 156.469 40.9092 155.759 40.9223C155.644 40.9242 155.53 40.9223 155.397 40.9223C155.397 41.5956 155.397 42.2426 155.397 42.8896C155.398 43.4702 155.661 43.7351 156.238 43.7351C159.168 43.7351 162.097 43.7351 165.027 43.7351C165.11 43.7351 165.192 43.7351 165.281 43.7351C165.281 42.2915 165.281 40.8791 165.281 39.4524ZM176.579 32.4835C175.878 32.4835 175.2 32.481 174.521 32.4847C174.068 32.4872 173.776 32.7797 173.775 33.235C173.773 35.0776 173.773 36.9202 173.775 38.7622C173.776 39.2269 174.07 39.5132 174.543 39.515C175.16 39.5175 175.776 39.5163 176.393 39.515C176.453 39.515 176.513 39.5063 176.579 39.5006C176.579 37.162 176.579 34.8384 176.579 32.4835ZM155.406 39.5157C156.11 39.5157 156.789 39.5188 157.467 39.5144C157.917 39.5113 158.208 39.215 158.208 38.7585C158.21 36.9159 158.211 35.0739 158.208 33.2313C158.208 32.7772 157.913 32.4866 157.459 32.4841C156.826 32.481 156.194 32.4829 155.562 32.4841C155.51 32.4841 155.459 32.496 155.406 32.5023C155.406 34.8409 155.406 37.1645 155.406 39.5157ZM166.001 33.8908C164.845 33.887 163.892 34.8271 163.883 35.9789C163.874 37.1457 164.82 38.1046 165.983 38.109C167.139 38.1127 168.092 37.1733 168.1 36.0209C168.11 34.8522 167.165 33.8945 166.001 33.8908Z" fill="#40654A"/>
</g>
<path d="M203.722 30V12.5455H215.074V15.196H206.884V19.9347H214.486V22.5852H206.884V27.3494H215.142V30H203.722ZM228.51 20.3693L225.697 20.6761C225.618 20.392 225.479 20.125 225.28 19.875C225.087 19.625 224.825 19.4233 224.496 19.2699C224.166 19.1165 223.763 19.0398 223.286 19.0398C222.643 19.0398 222.104 19.179 221.666 19.4574C221.234 19.7358 221.021 20.0966 221.027 20.5398C221.021 20.9205 221.161 21.2301 221.445 21.4688C221.734 21.7074 222.212 21.9034 222.876 22.0568L225.109 22.5341C226.348 22.8011 227.268 23.2244 227.871 23.804C228.479 24.3835 228.786 25.142 228.791 26.0795C228.786 26.9034 228.544 27.6307 228.067 28.2614C227.595 28.8864 226.939 29.375 226.098 29.7273C225.257 30.0795 224.291 30.2557 223.2 30.2557C221.598 30.2557 220.308 29.9205 219.331 29.25C218.354 28.5739 217.771 27.6335 217.584 26.429L220.592 26.1392C220.729 26.7301 221.018 27.1761 221.462 27.4773C221.905 27.7784 222.482 27.929 223.192 27.929C223.925 27.929 224.513 27.7784 224.956 27.4773C225.405 27.1761 225.629 26.804 225.629 26.3608C225.629 25.9858 225.484 25.6761 225.195 25.4318C224.911 25.1875 224.467 25 223.865 24.8693L221.632 24.4006C220.376 24.1392 219.447 23.6989 218.845 23.0795C218.243 22.4545 217.945 21.6648 217.95 20.7102C217.945 19.9034 218.163 19.2045 218.607 18.6136C219.055 18.017 219.678 17.5568 220.473 17.233C221.274 16.9034 222.197 16.7386 223.243 16.7386C224.777 16.7386 225.984 17.0653 226.865 17.7188C227.751 18.3722 228.3 19.2557 228.51 20.3693ZM237.872 16.9091V19.2955H230.347V16.9091H237.872ZM232.205 13.7727H235.29V26.0625C235.29 26.4773 235.352 26.7955 235.477 27.017C235.608 27.233 235.778 27.3807 235.989 27.4602C236.199 27.5398 236.432 27.5795 236.688 27.5795C236.881 27.5795 237.057 27.5653 237.216 27.5369C237.381 27.5085 237.506 27.483 237.591 27.4602L238.111 29.8722C237.946 29.929 237.71 29.9915 237.403 30.0597C237.102 30.1278 236.733 30.1676 236.295 30.179C235.523 30.2017 234.827 30.0852 234.207 29.8295C233.588 29.5682 233.097 29.1648 232.733 28.6193C232.375 28.0739 232.199 27.392 232.205 26.5739V13.7727ZM244.219 30.2642C243.39 30.2642 242.643 30.1165 241.978 29.821C241.319 29.5199 240.796 29.0767 240.41 28.4915C240.029 27.9062 239.839 27.1847 239.839 26.3267C239.839 25.5881 239.975 24.9773 240.248 24.4943C240.521 24.0114 240.893 23.625 241.364 23.3352C241.836 23.0455 242.367 22.8267 242.958 22.679C243.555 22.5256 244.171 22.4148 244.808 22.3466C245.575 22.267 246.197 22.196 246.674 22.1335C247.151 22.0653 247.498 21.9631 247.714 21.8267C247.935 21.6847 248.046 21.4659 248.046 21.1705V21.1193C248.046 20.4773 247.856 19.9801 247.475 19.6278C247.094 19.2756 246.546 19.0994 245.83 19.0994C245.075 19.0994 244.475 19.2642 244.032 19.5938C243.594 19.9233 243.299 20.3125 243.146 20.7614L240.265 20.3523C240.492 19.5568 240.867 18.892 241.39 18.358C241.913 17.8182 242.552 17.4148 243.308 17.1477C244.063 16.875 244.898 16.7386 245.813 16.7386C246.444 16.7386 247.072 16.8125 247.697 16.9602C248.322 17.108 248.893 17.3523 249.41 17.6932C249.927 18.0284 250.342 18.4858 250.654 19.0653C250.972 19.6449 251.131 20.3693 251.131 21.2386V30H248.165V28.2017H248.063C247.876 28.5653 247.612 28.9062 247.271 29.2244C246.935 29.5369 246.512 29.7898 246.001 29.983C245.495 30.1705 244.901 30.2642 244.219 30.2642ZM245.021 27.9972C245.64 27.9972 246.177 27.875 246.631 27.6307C247.086 27.3807 247.435 27.0511 247.68 26.642C247.93 26.233 248.055 25.7869 248.055 25.304V23.7614C247.958 23.8409 247.793 23.9148 247.56 23.983C247.333 24.0511 247.077 24.1108 246.793 24.1619C246.509 24.2131 246.228 24.2585 245.95 24.2983C245.671 24.3381 245.43 24.3722 245.225 24.4006C244.765 24.4631 244.353 24.5653 243.989 24.7074C243.626 24.8494 243.339 25.0483 243.129 25.304C242.918 25.554 242.813 25.8778 242.813 26.2756C242.813 26.8438 243.021 27.2727 243.435 27.5625C243.85 27.8523 244.379 27.9972 245.021 27.9972ZM259.092 30.2301C258.063 30.2301 257.143 29.9659 256.33 29.4375C255.518 28.9091 254.876 28.142 254.404 27.1364C253.933 26.1307 253.697 24.9091 253.697 23.4716C253.697 22.017 253.935 20.7898 254.413 19.7898C254.896 18.7841 255.546 18.0256 256.364 17.5142C257.183 16.9972 258.094 16.7386 259.1 16.7386C259.867 16.7386 260.498 16.8693 260.992 17.1307C261.487 17.3864 261.879 17.696 262.168 18.0597C262.458 18.4176 262.683 18.7557 262.842 19.0739H262.969V12.5455H266.063V30H263.029V27.9375H262.842C262.683 28.2557 262.452 28.5937 262.151 28.9517C261.85 29.304 261.452 29.6051 260.958 29.8551C260.464 30.1051 259.842 30.2301 259.092 30.2301ZM259.952 27.6989C260.606 27.6989 261.163 27.5227 261.623 27.1705C262.083 26.8125 262.433 26.3153 262.671 25.679C262.91 25.0426 263.029 24.3011 263.029 23.4545C263.029 22.608 262.91 21.8722 262.671 21.2472C262.438 20.6222 262.092 20.1364 261.631 19.7898C261.177 19.4432 260.617 19.2699 259.952 19.2699C259.265 19.2699 258.691 19.4489 258.231 19.8068C257.771 20.1648 257.424 20.6591 257.191 21.2898C256.958 21.9205 256.842 22.642 256.842 23.4545C256.842 24.2727 256.958 25.0028 257.191 25.6449C257.43 26.2812 257.779 26.7841 258.239 27.1534C258.705 27.517 259.276 27.6989 259.952 27.6989ZM269.351 30V16.9091H272.436V30H269.351ZM270.902 15.0511C270.413 15.0511 269.993 14.8892 269.641 14.5653C269.288 14.2358 269.112 13.8409 269.112 13.3807C269.112 12.9148 269.288 12.5199 269.641 12.196C269.993 11.8665 270.413 11.7017 270.902 11.7017C271.396 11.7017 271.817 11.8665 272.163 12.196C272.516 12.5199 272.692 12.9148 272.692 13.3807C272.692 13.8409 272.516 14.2358 272.163 14.5653C271.817 14.8892 271.396 15.0511 270.902 15.0511ZM281.319 30.2557C280.04 30.2557 278.933 29.9744 277.995 29.4119C277.058 28.8494 276.33 28.0625 275.813 27.0511C275.302 26.0398 275.046 24.858 275.046 23.5057C275.046 22.1534 275.302 20.9687 275.813 19.9517C276.33 18.9347 277.058 18.1449 277.995 17.5824C278.933 17.0199 280.04 16.7386 281.319 16.7386C282.597 16.7386 283.705 17.0199 284.643 17.5824C285.58 18.1449 286.305 18.9347 286.816 19.9517C287.333 20.9687 287.592 22.1534 287.592 23.5057C287.592 24.858 287.333 26.0398 286.816 27.0511C286.305 28.0625 285.58 28.8494 284.643 29.4119C283.705 29.9744 282.597 30.2557 281.319 30.2557ZM281.336 27.7841C282.029 27.7841 282.609 27.5937 283.075 27.2131C283.54 26.8267 283.887 26.3097 284.114 25.6619C284.347 25.0142 284.464 24.2926 284.464 23.4972C284.464 22.696 284.347 21.9716 284.114 21.3239C283.887 20.6705 283.54 20.1506 283.075 19.7642C282.609 19.3778 282.029 19.1847 281.336 19.1847C280.626 19.1847 280.035 19.3778 279.563 19.7642C279.097 20.1506 278.748 20.6705 278.515 21.3239C278.288 21.9716 278.174 22.696 278.174 23.4972C278.174 24.2926 278.288 25.0142 278.515 25.6619C278.748 26.3097 279.097 26.8267 279.563 27.2131C280.035 27.5937 280.626 27.7841 281.336 27.7841ZM311.896 21.2727C311.896 23.1534 311.544 24.7642 310.839 26.1051C310.141 27.4403 309.186 28.4631 307.976 29.1733C306.771 29.8835 305.405 30.2386 303.876 30.2386C302.348 30.2386 300.979 29.8835 299.768 29.1733C298.564 28.4574 297.609 27.4318 296.905 26.0966C296.206 24.7557 295.857 23.1477 295.857 21.2727C295.857 19.392 296.206 17.7841 296.905 16.4489C297.609 15.108 298.564 14.0824 299.768 13.3722C300.979 12.6619 302.348 12.3068 303.876 12.3068C305.405 12.3068 306.771 12.6619 307.976 13.3722C309.186 14.0824 310.141 15.108 310.839 16.4489C311.544 17.7841 311.896 19.392 311.896 21.2727ZM308.717 21.2727C308.717 19.9489 308.51 18.8324 308.095 17.9233C307.686 17.0085 307.118 16.3182 306.391 15.8523C305.663 15.3807 304.825 15.1449 303.876 15.1449C302.928 15.1449 302.089 15.3807 301.362 15.8523C300.635 16.3182 300.064 17.0085 299.649 17.9233C299.24 18.8324 299.036 19.9489 299.036 21.2727C299.036 22.5966 299.24 23.7159 299.649 24.6307C300.064 25.5398 300.635 26.2301 301.362 26.7017C302.089 27.1676 302.928 27.4006 303.876 27.4006C304.825 27.4006 305.663 27.1676 306.391 26.7017C307.118 26.2301 307.686 25.5398 308.095 24.6307C308.51 23.7159 308.717 22.5966 308.717 21.2727ZM325.096 20.3693L322.283 20.6761C322.204 20.392 322.065 20.125 321.866 19.875C321.673 19.625 321.411 19.4233 321.082 19.2699C320.752 19.1165 320.349 19.0398 319.871 19.0398C319.229 19.0398 318.69 19.179 318.252 19.4574C317.82 19.7358 317.607 20.0966 317.613 20.5398C317.607 20.9205 317.746 21.2301 318.031 21.4688C318.32 21.7074 318.798 21.9034 319.462 22.0568L321.695 22.5341C322.934 22.8011 323.854 23.2244 324.457 23.804C325.065 24.3835 325.371 25.142 325.377 26.0795C325.371 26.9034 325.13 27.6307 324.653 28.2614C324.181 28.8864 323.525 29.375 322.684 29.7273C321.843 30.0795 320.877 30.2557 319.786 30.2557C318.184 30.2557 316.894 29.9205 315.917 29.25C314.94 28.5739 314.357 27.6335 314.17 26.429L317.178 26.1392C317.315 26.7301 317.604 27.1761 318.048 27.4773C318.491 27.7784 319.067 27.929 319.778 27.929C320.511 27.929 321.099 27.7784 321.542 27.4773C321.991 27.1761 322.215 26.804 322.215 26.3608C322.215 25.9858 322.07 25.6761 321.781 25.4318C321.496 25.1875 321.053 25 320.451 24.8693L318.218 24.4006C316.962 24.1392 316.033 23.6989 315.431 23.0795C314.829 22.4545 314.531 21.6648 314.536 20.7102C314.531 19.9034 314.749 19.2045 315.192 18.6136C315.641 18.017 316.263 17.5568 317.059 17.233C317.86 16.9034 318.783 16.7386 319.829 16.7386C321.363 16.7386 322.57 17.0653 323.451 17.7188C324.337 18.3722 324.886 19.2557 325.096 20.3693ZM333.631 30.2557C332.325 30.2557 331.202 29.9688 330.265 29.3949C329.333 28.821 328.614 28.0284 328.109 27.017C327.609 26 327.359 24.8295 327.359 23.5057C327.359 22.1761 327.614 21.0028 328.126 19.9858C328.637 18.9631 329.359 18.1676 330.29 17.5994C331.228 17.0256 332.336 16.7386 333.614 16.7386C334.677 16.7386 335.617 16.9347 336.435 17.3267C337.259 17.7131 337.915 18.2614 338.404 18.9716C338.893 19.6761 339.171 20.5 339.239 21.4432H336.29C336.171 20.8125 335.887 20.2869 335.438 19.8665C334.995 19.4403 334.401 19.2273 333.657 19.2273C333.026 19.2273 332.472 19.3977 331.995 19.7386C331.518 20.0739 331.146 20.5568 330.879 21.1875C330.617 21.8182 330.487 22.5739 330.487 23.4545C330.487 24.3466 330.617 25.1136 330.879 25.7557C331.14 26.392 331.506 26.8835 331.978 27.2301C332.455 27.571 333.015 27.7415 333.657 27.7415C334.112 27.7415 334.518 27.6562 334.876 27.4858C335.239 27.3097 335.543 27.0568 335.788 26.7273C336.032 26.3977 336.2 25.9972 336.29 25.5256H339.239C339.165 26.4517 338.893 27.2727 338.421 27.9886C337.95 28.6989 337.308 29.2557 336.495 29.6591C335.683 30.0568 334.728 30.2557 333.631 30.2557ZM345.54 30.2642C344.71 30.2642 343.963 30.1165 343.298 29.821C342.639 29.5199 342.116 29.0767 341.73 28.4915C341.349 27.9062 341.159 27.1847 341.159 26.3267C341.159 25.5881 341.295 24.9773 341.568 24.4943C341.841 24.0114 342.213 23.625 342.685 23.3352C343.156 23.0455 343.688 22.8267 344.278 22.679C344.875 22.5256 345.491 22.4148 346.128 22.3466C346.895 22.267 347.517 22.196 347.994 22.1335C348.472 22.0653 348.818 21.9631 349.034 21.8267C349.256 21.6847 349.366 21.4659 349.366 21.1705V21.1193C349.366 20.4773 349.176 19.9801 348.795 19.6278C348.415 19.2756 347.866 19.0994 347.151 19.0994C346.395 19.0994 345.795 19.2642 345.352 19.5938C344.915 19.9233 344.619 20.3125 344.466 20.7614L341.585 20.3523C341.813 19.5568 342.188 18.892 342.71 18.358C343.233 17.8182 343.872 17.4148 344.628 17.1477C345.384 16.875 346.219 16.7386 347.134 16.7386C347.764 16.7386 348.392 16.8125 349.017 16.9602C349.642 17.108 350.213 17.3523 350.73 17.6932C351.247 18.0284 351.662 18.4858 351.974 19.0653C352.293 19.6449 352.452 20.3693 352.452 21.2386V30H349.486V28.2017H349.384C349.196 28.5653 348.932 28.9062 348.591 29.2244C348.256 29.5369 347.832 29.7898 347.321 29.983C346.815 30.1705 346.222 30.2642 345.54 30.2642ZM346.341 27.9972C346.96 27.9972 347.497 27.875 347.952 27.6307C348.406 27.3807 348.756 27.0511 349 26.642C349.25 26.233 349.375 25.7869 349.375 25.304V23.7614C349.278 23.8409 349.114 23.9148 348.881 23.983C348.653 24.0511 348.398 24.1108 348.114 24.1619C347.83 24.2131 347.548 24.2585 347.27 24.2983C346.991 24.3381 346.75 24.3722 346.545 24.4006C346.085 24.4631 345.673 24.5653 345.31 24.7074C344.946 24.8494 344.659 25.0483 344.449 25.304C344.239 25.554 344.134 25.8778 344.134 26.2756C344.134 26.8438 344.341 27.2727 344.756 27.5625C345.17 27.8523 345.699 27.9972 346.341 27.9972ZM355.554 30V16.9091H358.545V19.0909H358.682C358.92 18.3352 359.33 17.7528 359.909 17.3438C360.494 16.929 361.162 16.7216 361.912 16.7216C362.082 16.7216 362.273 16.7301 362.483 16.7472C362.699 16.7585 362.878 16.7784 363.02 16.8068V19.6449C362.889 19.5994 362.682 19.5597 362.398 19.5256C362.119 19.4858 361.849 19.4659 361.588 19.4659C361.026 19.4659 360.52 19.5881 360.071 19.8324C359.628 20.071 359.278 20.4034 359.023 20.8295C358.767 21.2557 358.639 21.7472 358.639 22.304V30H355.554ZM371.159 30V12.5455H377.705C379.045 12.5455 380.17 12.7784 381.08 13.2443C381.994 13.7102 382.685 14.3636 383.151 15.2045C383.622 16.0398 383.858 17.0142 383.858 18.1278C383.858 19.2472 383.619 20.2187 383.142 21.0426C382.67 21.8608 381.974 22.4943 381.054 22.9432C380.134 23.3864 379.003 23.608 377.662 23.608H373V20.983H377.236C378.02 20.983 378.662 20.875 379.162 20.6591C379.662 20.4375 380.031 20.1165 380.27 19.696C380.514 19.2699 380.636 18.7472 380.636 18.1278C380.636 17.5085 380.514 16.9801 380.27 16.5426C380.026 16.0994 379.653 15.7642 379.153 15.5369C378.653 15.304 378.009 15.1875 377.219 15.1875H374.321V30H371.159ZM380.176 22.0909L384.497 30H380.969L376.724 22.0909H380.176ZM390.399 30.2642C389.57 30.2642 388.822 30.1165 388.158 29.821C387.499 29.5199 386.976 29.0767 386.589 28.4915C386.209 27.9062 386.018 27.1847 386.018 26.3267C386.018 25.5881 386.155 24.9773 386.428 24.4943C386.7 24.0114 387.072 23.625 387.544 23.3352C388.016 23.0455 388.547 22.8267 389.138 22.679C389.734 22.5256 390.351 22.4148 390.987 22.3466C391.754 22.267 392.376 22.196 392.854 22.1335C393.331 22.0653 393.678 21.9631 393.893 21.8267C394.115 21.6847 394.226 21.4659 394.226 21.1705V21.1193C394.226 20.4773 394.036 19.9801 393.655 19.6278C393.274 19.2756 392.726 19.0994 392.01 19.0994C391.254 19.0994 390.655 19.2642 390.212 19.5938C389.774 19.9233 389.479 20.3125 389.325 20.7614L386.445 20.3523C386.672 19.5568 387.047 18.892 387.57 18.358C388.092 17.8182 388.732 17.4148 389.487 17.1477C390.243 16.875 391.078 16.7386 391.993 16.7386C392.624 16.7386 393.251 16.8125 393.876 16.9602C394.501 17.108 395.072 17.3523 395.589 17.6932C396.107 18.0284 396.521 18.4858 396.834 19.0653C397.152 19.6449 397.311 20.3693 397.311 21.2386V30H394.345V28.2017H394.243C394.055 28.5653 393.791 28.9062 393.45 29.2244C393.115 29.5369 392.692 29.7898 392.18 29.983C391.675 30.1705 391.081 30.2642 390.399 30.2642ZM391.2 27.9972C391.82 27.9972 392.357 27.875 392.811 27.6307C393.266 27.3807 393.615 27.0511 393.859 26.642C394.109 26.233 394.234 25.7869 394.234 25.304V23.7614C394.138 23.8409 393.973 23.9148 393.74 23.983C393.513 24.0511 393.257 24.1108 392.973 24.1619C392.689 24.2131 392.408 24.2585 392.129 24.2983C391.851 24.3381 391.609 24.3722 391.405 24.4006C390.945 24.4631 390.533 24.5653 390.169 24.7074C389.805 24.8494 389.518 25.0483 389.308 25.304C389.098 25.554 388.993 25.8778 388.993 26.2756C388.993 26.8438 389.2 27.2727 389.615 27.5625C390.03 27.8523 390.558 27.9972 391.2 27.9972ZM400.413 30V16.9091H403.362V19.1335H403.516C403.788 18.3835 404.24 17.7983 404.871 17.3778C405.501 16.9517 406.254 16.7386 407.129 16.7386C408.016 16.7386 408.763 16.9545 409.371 17.3864C409.984 17.8125 410.416 18.3949 410.666 19.1335H410.803C411.092 18.4062 411.581 17.8267 412.268 17.3949C412.962 16.9574 413.783 16.7386 414.732 16.7386C415.936 16.7386 416.919 17.1193 417.68 17.8807C418.442 18.642 418.822 19.7528 418.822 21.2131V30H415.729V21.6903C415.729 20.8778 415.513 20.2841 415.081 19.9091C414.649 19.5284 414.121 19.3381 413.496 19.3381C412.751 19.3381 412.169 19.571 411.749 20.0369C411.334 20.4972 411.126 21.0966 411.126 21.8352V30H408.101V21.5625C408.101 20.8864 407.896 20.3466 407.487 19.9432C407.084 19.5398 406.555 19.3381 405.902 19.3381C405.459 19.3381 405.055 19.4517 404.692 19.679C404.328 19.9006 404.038 20.2159 403.822 20.625C403.607 21.0284 403.499 21.5 403.499 22.0398V30H400.413ZM427.663 30.2557C426.384 30.2557 425.276 29.9744 424.339 29.4119C423.401 28.8494 422.674 28.0625 422.157 27.0511C421.646 26.0398 421.39 24.858 421.39 23.5057C421.39 22.1534 421.646 20.9687 422.157 19.9517C422.674 18.9347 423.401 18.1449 424.339 17.5824C425.276 17.0199 426.384 16.7386 427.663 16.7386C428.941 16.7386 430.049 17.0199 430.987 17.5824C431.924 18.1449 432.648 18.9347 433.16 19.9517C433.677 20.9687 433.935 22.1534 433.935 23.5057C433.935 24.858 433.677 26.0398 433.16 27.0511C432.648 28.0625 431.924 28.8494 430.987 29.4119C430.049 29.9744 428.941 30.2557 427.663 30.2557ZM427.68 27.7841C428.373 27.7841 428.952 27.5937 429.418 27.2131C429.884 26.8267 430.231 26.3097 430.458 25.6619C430.691 25.0142 430.808 24.2926 430.808 23.4972C430.808 22.696 430.691 21.9716 430.458 21.3239C430.231 20.6705 429.884 20.1506 429.418 19.7642C428.952 19.3778 428.373 19.1847 427.68 19.1847C426.969 19.1847 426.379 19.3778 425.907 19.7642C425.441 20.1506 425.092 20.6705 424.859 21.3239C424.631 21.9716 424.518 22.696 424.518 23.4972C424.518 24.2926 424.631 25.0142 424.859 25.6619C425.092 26.3097 425.441 26.8267 425.907 27.2131C426.379 27.5937 426.969 27.7841 427.68 27.7841ZM446.901 20.3693L444.088 20.6761C444.009 20.392 443.869 20.125 443.67 19.875C443.477 19.625 443.216 19.4233 442.886 19.2699C442.557 19.1165 442.153 19.0398 441.676 19.0398C441.034 19.0398 440.494 19.179 440.057 19.4574C439.625 19.7358 439.412 20.0966 439.418 20.5398C439.412 20.9205 439.551 21.2301 439.835 21.4688C440.125 21.7074 440.602 21.9034 441.267 22.0568L443.5 22.5341C444.739 22.8011 445.659 23.2244 446.261 23.804C446.869 24.3835 447.176 25.142 447.182 26.0795C447.176 26.9034 446.935 27.6307 446.457 28.2614C445.986 28.8864 445.33 29.375 444.489 29.7273C443.648 30.0795 442.682 30.2557 441.591 30.2557C439.989 30.2557 438.699 29.9205 437.722 29.25C436.744 28.5739 436.162 27.6335 435.974 26.429L438.983 26.1392C439.119 26.7301 439.409 27.1761 439.852 27.4773C440.295 27.7784 440.872 27.929 441.582 27.929C442.315 27.929 442.903 27.7784 443.347 27.4773C443.795 27.1761 444.02 26.804 444.02 26.3608C444.02 25.9858 443.875 25.6761 443.585 25.4318C443.301 25.1875 442.858 25 442.256 24.8693L440.023 24.4006C438.767 24.1392 437.838 23.6989 437.236 23.0795C436.634 22.4545 436.335 21.6648 436.341 20.7102C436.335 19.9034 436.554 19.2045 436.997 18.6136C437.446 18.017 438.068 17.5568 438.864 17.233C439.665 16.9034 440.588 16.7386 441.634 16.7386C443.168 16.7386 444.375 17.0653 445.256 17.7188C446.142 18.3722 446.69 19.2557 446.901 20.3693ZM218.662 47.4347H215.474C215.384 46.9119 215.216 46.4489 214.972 46.0455C214.727 45.6364 214.423 45.2898 214.06 45.0057C213.696 44.7216 213.281 44.5085 212.815 44.3665C212.355 44.2188 211.858 44.1449 211.324 44.1449C210.375 44.1449 209.534 44.3835 208.801 44.8608C208.068 45.3324 207.494 46.0256 207.08 46.9403C206.665 47.8494 206.457 48.9602 206.457 50.2727C206.457 51.608 206.665 52.733 207.08 53.6477C207.5 54.5568 208.074 55.2443 208.801 55.7102C209.534 56.1705 210.372 56.4006 211.315 56.4006C211.838 56.4006 212.327 56.3324 212.781 56.196C213.241 56.054 213.653 55.8466 214.017 55.5739C214.386 55.3011 214.696 54.9659 214.946 54.5682C215.202 54.1705 215.378 53.7159 215.474 53.2045L218.662 53.2216C218.543 54.0511 218.284 54.8295 217.886 55.5568C217.494 56.2841 216.98 56.9261 216.344 57.483C215.707 58.0341 214.963 58.4659 214.111 58.7784C213.259 59.0852 212.313 59.2386 211.273 59.2386C209.739 59.2386 208.369 58.8835 207.165 58.1733C205.96 57.4631 205.011 56.4375 204.318 55.0966C203.625 53.7557 203.278 52.1477 203.278 50.2727C203.278 48.392 203.628 46.7841 204.327 45.4489C205.026 44.108 205.977 43.0824 207.182 42.3722C208.386 41.6619 209.75 41.3068 211.273 41.3068C212.244 41.3068 213.148 41.4432 213.983 41.7159C214.818 41.9886 215.563 42.3892 216.216 42.9176C216.869 43.4403 217.406 44.0824 217.827 44.8438C218.253 45.5994 218.531 46.4631 218.662 47.4347ZM225.188 59.2642C224.359 59.2642 223.612 59.1165 222.947 58.821C222.288 58.5199 221.765 58.0767 221.379 57.4915C220.998 56.9062 220.808 56.1847 220.808 55.3267C220.808 54.5881 220.944 53.9773 221.217 53.4943C221.489 53.0114 221.862 52.625 222.333 52.3352C222.805 52.0455 223.336 51.8267 223.927 51.679C224.523 51.5256 225.14 51.4148 225.776 51.3466C226.543 51.267 227.165 51.196 227.643 51.1335C228.12 51.0653 228.467 50.9631 228.683 50.8267C228.904 50.6847 229.015 50.4659 229.015 50.1705V50.1193C229.015 49.4773 228.825 48.9801 228.444 48.6278C228.063 48.2756 227.515 48.0994 226.799 48.0994C226.043 48.0994 225.444 48.2642 225.001 48.5938C224.563 48.9233 224.268 49.3125 224.114 49.7614L221.234 49.3523C221.461 48.5568 221.836 47.892 222.359 47.358C222.881 46.8182 223.521 46.4148 224.276 46.1477C225.032 45.875 225.867 45.7386 226.782 45.7386C227.413 45.7386 228.04 45.8125 228.665 45.9602C229.29 46.108 229.862 46.3523 230.379 46.6932C230.896 47.0284 231.31 47.4858 231.623 48.0653C231.941 48.6449 232.1 49.3693 232.1 50.2386V59H229.134V57.2017H229.032C228.844 57.5653 228.58 57.9062 228.239 58.2244C227.904 58.5369 227.481 58.7898 226.969 58.983C226.464 59.1705 225.87 59.2642 225.188 59.2642ZM225.989 56.9972C226.609 56.9972 227.146 56.875 227.6 56.6307C228.055 56.3807 228.404 56.0511 228.648 55.642C228.898 55.233 229.023 54.7869 229.023 54.304V52.7614C228.927 52.8409 228.762 52.9148 228.529 52.983C228.302 53.0511 228.046 53.1108 227.762 53.1619C227.478 53.2131 227.197 53.2585 226.918 53.2983C226.64 53.3381 226.398 53.3722 226.194 53.4006C225.734 53.4631 225.322 53.5653 224.958 53.7074C224.594 53.8494 224.308 54.0483 224.097 54.304C223.887 54.554 223.782 54.8778 223.782 55.2756C223.782 55.8438 223.989 56.2727 224.404 56.5625C224.819 56.8523 225.347 56.9972 225.989 56.9972ZM235.339 59V41.5455H238.424V48.0739H238.552C238.711 47.7557 238.935 47.4176 239.225 47.0597C239.515 46.696 239.907 46.3864 240.401 46.1307C240.896 45.8693 241.526 45.7386 242.293 45.7386C243.305 45.7386 244.217 45.9972 245.029 46.5142C245.847 47.0256 246.495 47.7841 246.972 48.7898C247.455 49.7898 247.697 51.017 247.697 52.4716C247.697 53.9091 247.461 55.1307 246.989 56.1364C246.518 57.142 245.876 57.9091 245.063 58.4375C244.251 58.9659 243.33 59.2301 242.302 59.2301C241.552 59.2301 240.93 59.1051 240.435 58.8551C239.941 58.6051 239.543 58.304 239.242 57.9517C238.947 57.5937 238.717 57.2557 238.552 56.9375H238.373V59H235.339ZM238.364 52.4545C238.364 53.3011 238.484 54.0426 238.722 54.679C238.967 55.3153 239.316 55.8125 239.771 56.1705C240.231 56.5227 240.788 56.6989 241.441 56.6989C242.123 56.6989 242.694 56.517 243.154 56.1534C243.614 55.7841 243.961 55.2812 244.194 54.6449C244.433 54.0028 244.552 53.2727 244.552 52.4545C244.552 51.642 244.435 50.9205 244.202 50.2898C243.969 49.6591 243.623 49.1648 243.163 48.8068C242.702 48.4489 242.129 48.2699 241.441 48.2699C240.782 48.2699 240.222 48.4432 239.762 48.7898C239.302 49.1364 238.952 49.6222 238.714 50.2472C238.481 50.8722 238.364 51.608 238.364 52.4545ZM253.405 41.5455V59H250.32V41.5455H253.405ZM262.373 59.2557C261.06 59.2557 259.927 58.983 258.972 58.4375C258.023 57.8864 257.293 57.108 256.782 56.1023C256.271 55.0909 256.015 53.9006 256.015 52.5312C256.015 51.1847 256.271 50.0028 256.782 48.9858C257.299 47.9631 258.021 47.1676 258.947 46.5994C259.873 46.0256 260.961 45.7386 262.211 45.7386C263.018 45.7386 263.779 45.8693 264.495 46.1307C265.217 46.3864 265.853 46.7841 266.404 47.3239C266.961 47.8636 267.398 48.5511 267.717 49.3864C268.035 50.2159 268.194 51.2045 268.194 52.3523V53.2983H257.464V51.2188H265.237C265.231 50.6278 265.103 50.1023 264.853 49.642C264.603 49.1761 264.254 48.8097 263.805 48.5426C263.362 48.2756 262.844 48.142 262.254 48.142C261.623 48.142 261.069 48.2955 260.592 48.6023C260.114 48.9034 259.742 49.3011 259.475 49.7955C259.214 50.2841 259.08 50.821 259.075 51.4062V53.2216C259.075 53.983 259.214 54.6364 259.492 55.1818C259.771 55.7216 260.16 56.1364 260.66 56.4261C261.16 56.7102 261.745 56.8523 262.415 56.8523C262.864 56.8523 263.271 56.7898 263.634 56.6648C263.998 56.5341 264.313 56.3438 264.58 56.0938C264.847 55.8438 265.049 55.5341 265.185 55.1648L268.066 55.4886C267.884 56.25 267.538 56.9148 267.026 57.483C266.521 58.0455 265.873 58.483 265.083 58.7955C264.293 59.1023 263.39 59.2557 262.373 59.2557ZM281.151 49.3693L278.338 49.6761C278.259 49.392 278.119 49.125 277.92 48.875C277.727 48.625 277.466 48.4233 277.136 48.2699C276.807 48.1165 276.403 48.0398 275.926 48.0398C275.284 48.0398 274.744 48.179 274.307 48.4574C273.875 48.7358 273.662 49.0966 273.668 49.5398C273.662 49.9205 273.801 50.2301 274.085 50.4688C274.375 50.7074 274.852 50.9034 275.517 51.0568L277.75 51.5341C278.989 51.8011 279.909 52.2244 280.511 52.804C281.119 53.3835 281.426 54.142 281.432 55.0795C281.426 55.9034 281.185 56.6307 280.707 57.2614C280.236 57.8864 279.58 58.375 278.739 58.7273C277.898 59.0795 276.932 59.2557 275.841 59.2557C274.239 59.2557 272.949 58.9205 271.972 58.25C270.994 57.5739 270.412 56.6335 270.224 55.429L273.233 55.1392C273.369 55.7301 273.659 56.1761 274.102 56.4773C274.545 56.7784 275.122 56.929 275.832 56.929C276.565 56.929 277.153 56.7784 277.597 56.4773C278.045 56.1761 278.27 55.804 278.27 55.3608C278.27 54.9858 278.125 54.6761 277.835 54.4318C277.551 54.1875 277.108 54 276.506 53.8693L274.273 53.4006C273.017 53.1392 272.088 52.6989 271.486 52.0795C270.884 51.4545 270.585 50.6648 270.591 49.7102C270.585 48.9034 270.804 48.2045 271.247 47.6136C271.696 47.017 272.318 46.5568 273.114 46.233C273.915 45.9034 274.838 45.7386 275.884 45.7386C277.418 45.7386 278.625 46.0653 279.506 46.7188C280.392 47.3722 280.94 48.2557 281.151 49.3693ZM289.771 59.2557C288.459 59.2557 287.325 58.983 286.371 58.4375C285.422 57.8864 284.692 57.108 284.18 56.1023C283.669 55.0909 283.413 53.9006 283.413 52.5312C283.413 51.1847 283.669 50.0028 284.18 48.9858C284.697 47.9631 285.419 47.1676 286.345 46.5994C287.271 46.0256 288.359 45.7386 289.609 45.7386C290.416 45.7386 291.178 45.8693 291.893 46.1307C292.615 46.3864 293.251 46.7841 293.803 47.3239C294.359 47.8636 294.797 48.5511 295.115 49.3864C295.433 50.2159 295.592 51.2045 295.592 52.3523V53.2983H284.862V51.2188H292.635C292.629 50.6278 292.501 50.1023 292.251 49.642C292.001 49.1761 291.652 48.8097 291.203 48.5426C290.76 48.2756 290.243 48.142 289.652 48.142C289.021 48.142 288.467 48.2955 287.99 48.6023C287.513 48.9034 287.141 49.3011 286.874 49.7955C286.612 50.2841 286.479 50.821 286.473 51.4062V53.2216C286.473 53.983 286.612 54.6364 286.891 55.1818C287.169 55.7216 287.558 56.1364 288.058 56.4261C288.558 56.7102 289.143 56.8523 289.814 56.8523C290.263 56.8523 290.669 56.7898 291.033 56.6648C291.396 56.5341 291.712 56.3438 291.979 56.0938C292.246 55.8438 292.447 55.5341 292.584 55.1648L295.464 55.4886C295.283 56.25 294.936 56.9148 294.425 57.483C293.919 58.0455 293.271 58.483 292.482 58.7955C291.692 59.1023 290.788 59.2557 289.771 59.2557ZM308.549 49.3693L305.737 49.6761C305.657 49.392 305.518 49.125 305.319 48.875C305.126 48.625 304.864 48.4233 304.535 48.2699C304.205 48.1165 303.802 48.0398 303.325 48.0398C302.683 48.0398 302.143 48.179 301.705 48.4574C301.273 48.7358 301.06 49.0966 301.066 49.5398C301.06 49.9205 301.2 50.2301 301.484 50.4688C301.773 50.7074 302.251 50.9034 302.915 51.0568L305.148 51.5341C306.387 51.8011 307.308 52.2244 307.91 52.804C308.518 53.3835 308.825 54.142 308.83 55.0795C308.825 55.9034 308.583 56.6307 308.106 57.2614C307.634 57.8864 306.978 58.375 306.137 58.7273C305.296 59.0795 304.33 59.2557 303.239 59.2557C301.637 59.2557 300.347 58.9205 299.37 58.25C298.393 57.5739 297.81 56.6335 297.623 55.429L300.631 55.1392C300.768 55.7301 301.058 56.1761 301.501 56.4773C301.944 56.7784 302.521 56.929 303.231 56.929C303.964 56.929 304.552 56.7784 304.995 56.4773C305.444 56.1761 305.668 55.804 305.668 55.3608C305.668 54.9858 305.523 54.6761 305.234 54.4318C304.95 54.1875 304.506 54 303.904 53.8693L301.671 53.4006C300.415 53.1392 299.487 52.6989 298.884 52.0795C298.282 51.4545 297.984 50.6648 297.989 49.7102C297.984 48.9034 298.202 48.2045 298.646 47.6136C299.094 47.017 299.717 46.5568 300.512 46.233C301.313 45.9034 302.237 45.7386 303.282 45.7386C304.816 45.7386 306.023 46.0653 306.904 46.7188C307.79 47.3722 308.339 48.2557 308.549 49.3693Z" fill="white"/>
<path d="M122.6 98.0061L148.5 53H192L125.498 100.63C123.75 101.882 121.528 99.8699 122.6 98.0061Z" fill="#006DB7"/>
<defs>
<clipPath id="clip0_171_33940">
<rect width="118" height="90" fill="white" transform="translate(0 78)"/>
</clipPath>
<clipPath id="clip1_171_33940">
<rect width="24.0039" height="18.2857" fill="white" transform="translate(153.998 26.8574)"/>
</clipPath>
</defs>
</svg>
