<svg width="512" height="150" viewBox="0 0 543 159" fill="none" xmlns="http://www.w3.org/2000/svg">
<path d="M3.03906 124.307L50.0886 97.8398L106.076 129.745L59.1548 156.803L3.03906 124.307Z" fill="#3B495C"/>
<path d="M106.076 129.746V131.944L59.1543 159.001V156.803L106.076 129.746Z" fill="#233143"/>
<path d="M3.03906 124.307V126.505L59.1548 159V156.802L3.03906 124.307Z" fill="#233143"/>
<path d="M50.6332 73.3633L10.4199 96.1934V123.15L50.6332 100.027V73.3633Z" fill="#C6C3C1"/>
<path d="M12.7361 96.6875L11.123 97.6014V124.563L12.7361 123.635V96.6875Z" fill="#FBAD32"/>
<path opacity="0.5" d="M23.3063 104.168L11.9277 110.712V113.609L25.8424 105.612L23.3063 104.168Z" fill="white"/>
<path opacity="0.5" d="M26.8843 106.201L11.9277 114.801V115.642L27.62 106.617L26.8843 106.201Z" fill="white"/>
<path opacity="0.5" d="M11.9277 97.7109V98.666L12.764 98.1862L11.9277 97.7109Z" fill="white"/>
<path opacity="0.5" d="M11.9277 124.096L30.1973 134.597V108.083L30.1105 108.033L11.9277 118.484V124.096Z" fill="white"/>
<path opacity="0.5" d="M28.141 106.914L11.9277 116.236V117.89L29.585 107.737L28.141 106.914Z" fill="white"/>
<path d="M41.8172 99.0491V98.4551L27.6191 106.617L28.1401 106.914L41.8172 99.0491Z" fill="white"/>
<path opacity="0.8" d="M27.62 106.617L11.9277 115.642V116.236L28.141 106.914L27.62 106.617Z" fill="white"/>
<path d="M41.9607 100.621L29.5859 107.736L30.1115 108.033L41.9607 101.215V100.621Z" fill="white"/>
<path opacity="0.8" d="M11.9277 117.89V118.484L30.1105 108.033L29.585 107.736L11.9277 117.89Z" fill="white"/>
<path d="M41.8174 97.6146V96.4219L25.8418 105.612L26.8837 106.201L41.8174 97.6146Z" fill="white"/>
<path opacity="0.8" d="M25.8424 105.611L11.9277 113.608V114.801L26.8843 106.201L25.8424 105.611Z" fill="white"/>
<path d="M35.6212 97.0848V85.0391L12.7637 98.1861L23.3059 104.168L35.6212 97.0848Z" fill="white"/>
<path opacity="0.8" d="M12.764 98.1855L11.9277 98.6654V110.711L23.3063 104.167L12.764 98.1855Z" fill="white"/>
<path d="M99.4047 102.445L59.1914 125.275V152.232L99.4047 129.109V102.445Z" fill="#FBAD32"/>
<path d="M40.5936 112.736L38.9805 113.655V140.611L40.5936 139.684V112.736Z" fill="#FBAD32"/>
<path d="M11.1511 97.999L9.69336 97.1719V123.767L11.1511 124.608V97.999Z" fill="#FBAD32"/>
<path d="M29.6621 108.51V135.252L38.9797 140.612V113.801L29.6621 108.51Z" fill="#FBAD32"/>
<path opacity="0.5" d="M53.5799 121.445L39.9531 129.282V130.119L54.3157 121.861L53.5799 121.445Z" fill="white"/>
<path opacity="0.5" d="M54.8366 122.158L39.9531 130.713V132.367L56.2852 122.976L54.8366 122.158Z" fill="white"/>
<path opacity="0.5" d="M50.0019 119.412L39.9531 125.188V128.09L52.538 120.852L50.0019 119.412Z" fill="white"/>
<path opacity="0.5" d="M39.9531 140.09L58.2182 150.591V124.078L56.8061 123.273L39.9531 132.966V140.09Z" fill="white"/>
<path opacity="0.8" d="M54.3157 121.861L39.9531 130.119V130.713L54.8366 122.158L54.3157 121.861Z" fill="white"/>
<path opacity="0.8" d="M39.9531 132.367V132.966L56.8061 123.274L56.2852 122.977L39.9531 132.367Z" fill="white"/>
<path opacity="0.8" d="M52.538 120.852L39.9531 128.09V129.283L53.5799 121.446L52.538 120.852Z" fill="white"/>
<path opacity="0.8" d="M39.9531 113.705V125.189L50.0019 119.413L39.9531 113.705Z" fill="white"/>
<path d="M49.1786 119.002L48.6074 118.678V145.059L49.1786 145.388V119.002Z" fill="#888D9A"/>
<path d="M57.2344 124.166V151.109L59.1902 152.233V125.276L57.2344 124.166Z" fill="#FBAD32"/>
<path d="M59.1906 125.889L56.1289 118.678L99.4038 93.8281V103.086L59.1906 125.889Z" fill="#BECCC6"/>
<path d="M99.4053 93.8271L53.4891 120.468L9.74805 95.687L55.5866 69L99.4053 93.8271Z" fill="white"/>
<path d="M93.9581 94.655L95.4707 93.7822L55.8241 70.8652L16.7441 93.5355L18.3618 94.4905L55.9292 72.6977L93.9581 94.655Z" fill="#7C8982"/>
<path d="M93.9569 94.6546L55.928 72.6973L23.4375 91.5427L61.4116 113.473L93.9569 94.6546Z" fill="#A2AAA6"/>
<path d="M56.3263 116.416L61.4123 113.473L23.4383 91.543L18.3613 94.4904L56.3263 116.416Z" fill="#8C9993"/>
<path d="M10.1502 88.498V89.1881L3.03516 93.2962V92.6062L10.1502 88.498Z" fill="#243954"/>
<path d="M10.1502 94.9648V95.6594L3.03516 99.7676V99.073L10.1502 94.9648Z" fill="#243954"/>
<path d="M8.7832 87.3145L58.2866 115.418V126.399L8.7832 97.9344V87.3145Z" fill="#243954"/>
<path d="M9.69257 86.8262L8.7832 87.3151L58.2866 115.419L59.1914 114.93L9.69257 86.8262Z" fill="#243954"/>
<path d="M58.2871 126.4L59.1919 125.911V114.93L58.2871 115.419V126.4Z" fill="#243954"/>
<path d="M31.8594 118.782L37.4572 122.012V120.152L31.8594 117.004V118.782Z" fill="white"/>
<path d="M54.2155 138.762L50.8613 136.842V130.879L54.2155 132.798V138.762Z" fill="#243954"/>
<path d="M53.8908 133.104L51.1855 131.555V131.92L53.8908 133.469V133.104Z" fill="white"/>
<path d="M53.8908 133.84L51.1855 132.291V132.661L53.8908 134.21V133.84Z" fill="white"/>
<path d="M51.3223 134.252C51.3223 133.731 51.5279 133.544 51.8112 133.708C52.0945 133.873 52.3002 134.298 52.3002 134.819C52.3002 135.344 52.0945 135.536 51.8112 135.372C51.5233 135.207 51.3223 134.778 51.3223 134.252ZM51.9894 134.641C51.9894 134.27 51.9072 134.097 51.8067 134.037C51.7061 133.978 51.6284 134.06 51.6284 134.43C51.6284 134.805 51.7107 134.983 51.8067 135.043C51.9072 135.097 51.9894 135.011 51.9894 134.641ZM51.8798 136.464L52.9399 134.362L53.1913 134.508L52.1357 136.615L51.8798 136.464ZM52.7663 136.139C52.7663 135.618 52.9765 135.431 53.2552 135.596C53.5386 135.76 53.7442 136.185 53.7442 136.706C53.7442 137.232 53.5386 137.423 53.2552 137.259C52.9719 137.094 52.7663 136.665 52.7663 136.139ZM53.438 136.528C53.438 136.153 53.3558 135.984 53.2598 135.925C53.1593 135.865 53.077 135.943 53.077 136.318C53.077 136.692 53.1593 136.871 53.2598 136.93C53.3558 136.985 53.438 136.903 53.438 136.528Z" fill="white"/>
<path d="M47.2188 130.316L45.2676 129.201V125.729L47.2188 126.844V130.316Z" fill="#243954"/>
<path d="M28.0859 127.395L21.1445 123.42V111.072L28.0859 115.048V127.395Z" fill="#243954"/>
<path d="M27.6697 117.278L21.7383 113.883V114.573L27.6697 117.968V117.278Z" fill="white"/>
<path d="M27.6697 116.04L21.7383 112.645V113.335L27.6697 116.73V116.04Z" fill="white"/>
<path d="M8.36203 87.2891L0.662109 91.6623V102.643L8.36203 98.2152V87.2891Z" fill="#243954"/>
<path d="M8.36203 92.123L0.662109 96.4962V97.1497L8.36203 92.7262V92.123Z" fill="white"/>
<path d="M8.36203 93.6035L0.662109 97.9721V98.6302L8.36203 94.2021V93.6035Z" fill="white"/>
<path d="M8.36203 95.0117L0.662109 99.3849V100.038L8.36203 95.6103V95.0117Z" fill="white"/>
<path d="M0 102.25L0.662605 102.643V91.6625L0 91.2695V102.25Z" fill="#243954"/>
<path d="M8.36253 87.2888L7.69992 86.9004L0 91.269L0.662605 91.662L8.36253 87.2888Z" fill="#243954"/>
<rect x="166" width="377" height="141" rx="18" fill="#006DB7"/>
<path d="M110 102L221.5 66.026L189.5 42L110 102Z" fill="#006DB7"/>
<rect x="191.048" y="49.5476" width="41.9048" height="41.9048" rx="20.9524" fill="#FFB600"/>
<rect x="191.048" y="49.5476" width="41.9048" height="41.9048" rx="20.9524" stroke="white" stroke-width="2.09524"/>
<path d="M200.375 78.8886C200.375 78.9261 200.379 78.9599 200.39 78.9936C200.39 79.0049 200.398 79.0161 200.401 79.0274C200.413 79.0574 200.431 79.0874 200.454 79.1136C200.458 79.1211 200.461 79.1249 200.465 79.1324C200.465 79.1324 200.469 79.1324 200.472 79.1361C200.499 79.1661 200.529 79.1924 200.566 79.2111C202.205 80.0699 206.255 81.5661 206.424 81.6261C206.439 81.6299 206.45 81.6299 206.465 81.6336C206.472 81.6336 206.48 81.6411 206.491 81.6449C206.589 81.6599 206.713 81.6674 206.855 81.6674C209.938 81.6674 222.789 78.0411 223.359 77.8799C223.531 77.8311 223.644 77.6624 223.621 77.4824C223.014 72.7236 221.375 64.9574 221.36 64.8786C221.36 64.8749 221.356 64.8711 221.356 64.8674C221.345 64.8299 221.33 64.7961 221.311 64.7624C221.308 64.7549 221.304 64.7474 221.3 64.7436C221.278 64.7099 221.244 64.6799 221.21 64.6574C221.195 64.6461 221.176 64.6386 221.157 64.6311C221.142 64.6236 221.128 64.6124 221.109 64.6086L217.625 63.5849C216.267 60.5474 214.318 59.0849 211.989 59.3586C211.501 59.4149 211.051 59.5499 210.642 59.7561C210.436 59.7186 210.222 59.6961 210.001 59.6924C208.899 59.6811 207.961 60.1161 207.226 60.9824C206.341 62.0136 205.786 63.6674 205.561 65.8911C203.615 66.2361 202.186 66.4799 202.164 66.4836C202.149 66.4836 202.141 66.4949 202.126 66.4986C202.119 66.4986 202.107 66.4986 202.1 66.4986C202.089 66.4986 202.081 66.5099 202.074 66.5174C202.044 66.5324 202.018 66.5474 201.995 66.5661C201.98 66.5774 201.969 66.5886 201.957 66.6036C201.935 66.6261 201.92 66.6524 201.905 66.6824C201.901 66.6936 201.89 66.7011 201.886 66.7124C201.159 68.6249 200.409 78.4461 200.379 78.8624V78.8661V78.8849L200.375 78.8886ZM206.533 66.4574C206.574 66.4499 206.615 66.4424 206.66 66.4349C207.151 66.3449 207.661 66.2549 208.182 66.1574C208.197 66.5436 208.227 66.9411 208.273 67.3536C206.499 67.6986 205.344 67.8899 204.837 67.9199L203.281 67.0274C204.054 66.8924 205.213 66.6936 206.536 66.4536L206.533 66.4574ZM208.16 65.4224C207.995 65.4524 207.83 65.4824 207.665 65.5124C207.823 64.3986 208.081 63.5099 208.422 62.8911C208.246 63.6261 208.156 64.4736 208.156 65.4224H208.16ZM203.416 76.9686L205.674 80.5724C204.504 80.1261 202.584 79.3761 201.38 78.8061L203.42 76.9724L203.416 76.9686ZM203.859 76.3049V68.2011L204.406 68.5161C204.552 69.9261 205.201 75.9861 205.749 79.3236L203.859 76.3086V76.3049ZM202.438 67.3874L203.131 67.7849V76.2486L201.17 78.0149C201.361 75.6749 201.905 69.4724 202.434 67.3874H202.438ZM206.806 80.9511C206.405 79.6761 205.606 73.0086 205.145 68.6286C205.76 68.5611 206.803 68.3849 208.351 68.0811C208.475 68.9549 208.621 69.6336 208.707 70.0049C208.831 70.4849 209.262 70.8224 209.757 70.8224C209.847 70.8224 209.938 70.8111 210.024 70.7886C210.597 70.6424 210.954 70.0574 210.811 69.4761C210.688 68.9774 210.568 68.3174 210.477 67.6499C212.142 67.3049 214.108 66.8849 216.331 66.3899C216.519 67.0536 216.68 67.7474 216.796 68.4111C216.796 68.4261 216.8 68.4374 216.804 68.4486C216.845 68.7336 216.995 68.9849 217.227 69.1574C217.46 69.3299 217.741 69.4049 218.03 69.3599C218.319 69.3186 218.57 69.1649 218.743 68.9324C218.915 68.6999 218.986 68.4149 218.945 68.1299C218.93 68.0211 218.791 67.1099 218.454 65.9099C219.481 65.6774 220.287 65.4936 220.722 65.3924C221.045 66.9449 222.305 73.1174 222.856 77.2649C218.761 78.4161 208.955 81.0261 206.802 80.9399L206.806 80.9511ZM211.805 61.6161C211.839 61.6049 211.869 61.5899 211.903 61.5824C212.007 61.5524 212.12 61.5261 212.236 61.5111C212.263 61.5111 212.292 61.5111 212.319 61.5074C212.911 62.1636 213.395 63.1049 213.755 64.3161C213.736 64.3199 213.714 64.3236 213.695 64.3311C213.523 64.3686 213.342 64.4061 213.159 64.4474C212.773 63.1799 212.236 62.2724 211.565 61.7286C211.58 61.7211 211.591 61.7136 211.602 61.7061C211.666 61.6724 211.734 61.6461 211.805 61.6199V61.6161ZM210.403 66.9261C210.365 66.5286 210.339 66.1349 210.331 65.7524C211.318 65.5611 212.199 65.3849 212.971 65.2236H212.979C213.069 65.2049 213.155 65.1861 213.245 65.1674C213.372 65.1411 213.492 65.1149 213.612 65.0886C213.627 65.0886 213.642 65.0811 213.657 65.0774C213.815 65.0436 213.969 65.0099 214.115 64.9761C214.171 64.9649 214.231 64.9499 214.287 64.9386C214.842 64.8149 215.319 64.7024 215.709 64.6011C215.851 64.9349 215.99 65.2986 216.118 65.6886C213.95 66.1724 212.03 66.5849 210.399 66.9224L210.403 66.9261ZM214.464 64.1586C214.171 63.1649 213.8 62.3286 213.35 61.6574C214.111 61.9724 214.801 62.7374 215.401 63.9336C215.127 64.0011 214.813 64.0761 214.46 64.1586H214.464ZM211.003 62.2424C211.003 62.2424 211.014 62.2311 211.017 62.2236C211.599 62.6474 212.086 63.4574 212.443 64.5936C211.805 64.7249 211.1 64.8636 210.328 65.0136C210.369 63.7799 210.597 62.8236 211.003 62.2424ZM218.24 65.2236C218.154 64.9611 218.068 64.7024 217.974 64.4511L219.575 64.9236C219.193 65.0099 218.743 65.1149 218.244 65.2274L218.24 65.2236ZM212.071 60.0861C212.229 60.0674 212.382 60.0599 212.536 60.0599C214.378 60.0599 215.885 61.3949 217.029 64.0386C217.257 64.5786 217.468 65.1599 217.651 65.7599C218.052 67.0874 218.21 68.1299 218.225 68.2461C218.24 68.3399 218.214 68.4336 218.157 68.5124C218.101 68.5874 218.019 68.6399 217.921 68.6511C217.827 68.6661 217.737 68.6399 217.659 68.5836C217.584 68.5274 217.535 68.4449 217.52 68.3474C217.52 68.3361 217.513 68.3061 217.513 68.2949C217.374 67.4886 217.175 66.6486 216.935 65.8574C216.721 65.1674 216.5 64.5711 216.249 64.0274C215.266 61.8674 214.01 60.7724 212.517 60.7724C212.499 60.7724 212.484 60.7724 212.465 60.7724C212.364 60.7649 212.255 60.7799 212.15 60.7911C211.554 60.8624 211.055 61.0986 210.68 61.4924C210.68 61.4924 210.68 61.4924 210.676 61.4961C210.579 61.5936 210.489 61.7061 210.403 61.8261C209.859 62.6099 209.585 63.8324 209.589 65.4561C209.589 66.0824 209.634 66.7386 209.712 67.4061C209.806 68.2049 209.953 69.0449 210.106 69.6486C210.151 69.8399 210.035 70.0311 209.847 70.0799C209.671 70.1249 209.461 70.0086 209.413 69.8099C209.341 69.4986 209.158 68.6624 209.023 67.6011C208.94 66.9374 208.895 66.3036 208.884 65.7149C208.85 64.0386 209.094 62.7111 209.604 61.7699C209.682 61.6236 209.746 61.5186 209.818 61.4174C209.889 61.3124 209.968 61.2149 210.046 61.1211C210.286 60.8436 210.564 60.6186 210.868 60.4499C211.227 60.2549 211.629 60.1274 212.071 60.0786V60.0861ZM207.774 61.4586C208.299 60.8399 208.944 60.4986 209.698 60.4349C209.653 60.4799 209.611 60.5286 209.566 60.5774C209.536 60.6111 209.506 60.6411 209.476 60.6749C209.386 60.7799 209.3 60.8924 209.217 61.0086C209.18 61.0611 209.142 61.1211 209.105 61.1811C209.094 61.1999 209.083 61.2186 209.071 61.2374C209.056 61.2636 209.041 61.2861 209.026 61.3124C208.715 61.4474 208.434 61.6611 208.182 61.9499C207.549 62.6924 207.121 63.9374 206.908 65.6549C206.758 65.6811 206.611 65.7074 206.461 65.7374C206.405 65.7486 206.349 65.7561 206.293 65.7674C206.51 63.8211 207.016 62.3399 207.77 61.4624L207.774 61.4586Z" fill="white"/>
<path d="M216.514 72.8254C216.158 72.5217 215.64 72.3567 214.984 72.3267L213.975 72.2854C213.645 72.2704 213.552 72.2104 213.54 72.2029C213.529 72.1954 213.507 72.1804 213.507 72.0979C213.507 72.0154 213.518 71.8879 213.668 71.7417C213.799 71.6142 214.005 71.5204 214.275 71.4717C214.515 71.4267 214.714 71.4117 214.868 71.4304C215.033 71.4492 215.19 71.4792 215.322 71.5204C215.558 71.5954 215.775 71.5992 215.967 71.5279C216.15 71.4604 216.297 71.3442 216.402 71.1867C216.499 71.0442 216.555 70.8867 216.574 70.7142C216.593 70.5304 216.559 70.3579 216.473 70.1967C216.383 70.0242 216.24 69.8967 216.072 69.8254C215.82 69.6979 215.532 69.6154 215.213 69.5817C215.13 69.5742 215.052 69.5667 214.969 69.5629L214.958 69.3904C214.943 69.1467 214.842 68.9404 214.658 68.7942C214.474 68.6479 214.249 68.5954 214.009 68.6367C213.777 68.6779 213.578 68.7942 213.432 68.9779C213.285 69.1617 213.21 69.3754 213.222 69.6042L213.233 69.8854C212.978 69.9904 212.745 70.1217 212.543 70.2754C212.198 70.5342 211.924 70.8454 211.729 71.2054C211.527 71.5804 211.425 71.9892 211.425 72.4204C211.425 73.0129 211.605 73.4854 211.954 73.8192C212.299 74.1492 212.809 74.3292 213.469 74.3592L214.5 74.4042C214.718 74.4117 214.838 74.4379 214.902 74.4642C214.984 74.4942 215.003 74.5204 215.007 74.5242C215.025 74.5542 215.04 74.5954 215.044 74.6517C215.052 74.7342 215.033 74.8092 214.995 74.8842C214.954 74.9592 214.875 75.0379 214.759 75.1092C214.624 75.1954 214.433 75.2629 214.185 75.3117C213.837 75.3829 213.54 75.3979 213.304 75.3642C213.057 75.3267 212.865 75.2817 212.734 75.2292C212.415 75.1092 212.172 75.1692 212.022 75.2404C211.834 75.3304 211.68 75.4692 211.568 75.6567C211.463 75.8329 211.399 76.0242 211.38 76.2267C211.362 76.4367 211.392 76.6354 211.47 76.8229C211.564 77.0442 211.74 77.2054 211.969 77.2879C212.22 77.3892 212.524 77.4604 212.892 77.5092C213.079 77.5354 213.282 77.5392 213.503 77.5317L213.514 77.8242C213.525 78.1092 213.627 78.3529 213.814 78.5292C213.972 78.6792 214.17 78.7579 214.384 78.7579C214.448 78.7579 214.512 78.7504 214.575 78.7392C214.842 78.6829 215.063 78.5292 215.217 78.2892C215.359 78.0679 215.427 77.8204 215.408 77.5542L215.382 77.0967C215.674 76.9579 215.937 76.7854 216.162 76.5904C216.51 76.2904 216.777 75.9304 216.953 75.5217C217.129 75.1167 217.197 74.6742 217.155 74.2129C217.103 73.6167 216.885 73.1554 216.51 72.8367L216.514 72.8254ZM216.289 75.2179C216.154 75.5254 215.955 75.7954 215.689 76.0242C215.464 76.2192 215.187 76.3842 214.872 76.5117C214.725 76.5717 214.635 76.7142 214.647 76.8679L214.688 77.5767C214.695 77.6892 214.669 77.7867 214.609 77.8767C214.545 77.9742 214.478 77.9967 214.429 78.0079C214.358 78.0229 214.335 78.0042 214.317 77.9854C214.287 77.9592 214.249 77.9067 214.242 77.7829L214.219 77.1117C214.219 77.0104 214.17 76.9129 214.092 76.8492C214.024 76.7929 213.942 76.7629 213.855 76.7629C213.84 76.7629 213.825 76.7629 213.81 76.7629C213.495 76.8004 213.222 76.8042 212.989 76.7742C212.685 76.7329 212.434 76.6729 212.228 76.5942C212.164 76.5717 212.149 76.5454 212.138 76.5192C212.108 76.4479 212.097 76.3654 212.104 76.2754C212.112 76.1817 212.138 76.0992 212.187 76.0204C212.228 75.9529 212.273 75.9117 212.333 75.8817C212.363 75.8667 212.412 75.8704 212.464 75.8929C212.644 75.9642 212.884 76.0242 213.192 76.0692C213.51 76.1179 213.889 76.0992 214.32 76.0129C214.658 75.9454 214.928 75.8479 215.138 75.7129C215.363 75.5704 215.528 75.4017 215.629 75.2142C215.73 75.0192 215.775 74.8129 215.76 74.5954C215.749 74.4079 215.693 74.2392 215.595 74.1004C215.494 73.9504 215.337 73.8417 215.134 73.7704C214.969 73.7104 214.763 73.6804 214.515 73.6729L213.488 73.6279C213.012 73.6092 212.659 73.4929 212.445 73.2904C212.243 73.0954 212.142 72.8104 212.142 72.4167C212.142 72.1017 212.213 71.8167 212.359 71.5467C212.505 71.2767 212.708 71.0479 212.97 70.8492C213.18 70.6917 213.428 70.5642 213.713 70.4704C213.867 70.4179 213.968 70.2754 213.96 70.1142L213.942 69.5704C213.942 69.5179 213.957 69.4729 213.994 69.4279C214.032 69.3829 214.073 69.3567 214.129 69.3492C214.178 69.3417 214.189 69.3492 214.2 69.3567C214.212 69.3679 214.227 69.3754 214.227 69.4242L214.257 69.9454C214.268 70.1442 214.44 70.2979 214.639 70.2867C214.819 70.2754 214.973 70.2792 215.13 70.2979C215.359 70.3204 215.562 70.3804 215.753 70.4742C215.809 70.4967 215.82 70.5229 215.828 70.5342C215.847 70.5679 215.854 70.6017 215.847 70.6392C215.843 70.6917 215.824 70.7367 215.794 70.7817C215.779 70.8042 215.757 70.8267 215.708 70.8492C215.697 70.8529 215.652 70.8642 215.539 70.8304C215.355 70.7742 215.157 70.7367 214.943 70.7142C214.718 70.6917 214.455 70.7067 214.144 70.7629C213.728 70.8379 213.398 70.9954 213.162 71.2242C212.903 71.4754 212.772 71.7867 212.779 72.1204C212.79 72.4879 212.97 72.6942 213.117 72.7992C213.3 72.9304 213.559 72.9979 213.942 73.0167L214.95 73.0579C215.445 73.0804 215.813 73.1929 216.045 73.3879C216.27 73.5792 216.402 73.8679 216.435 74.2729C216.465 74.6179 216.417 74.9292 216.289 75.2254V75.2179Z" fill="white"/>
<path d="M262.141 35.2891C262.055 34.4827 261.692 33.8549 261.052 33.4055C260.418 32.9562 259.593 32.7315 258.577 32.7315C257.863 32.7315 257.251 32.8393 256.74 33.0547C256.229 33.2701 255.838 33.5625 255.567 33.9318C255.297 34.3011 255.158 34.7228 255.152 35.1967C255.152 35.5907 255.241 35.9323 255.42 36.2216C255.604 36.5109 255.854 36.7571 256.168 36.9602C256.482 37.1572 256.829 37.3234 257.211 37.4588C257.593 37.5942 257.977 37.7081 258.365 37.8004L260.138 38.2436C260.852 38.4098 261.538 38.6345 262.197 38.9176C262.862 39.2008 263.455 39.5578 263.979 39.9886C264.508 40.4195 264.927 40.9396 265.234 41.549C265.542 42.1584 265.696 42.8724 265.696 43.6911C265.696 44.799 265.413 45.7746 264.847 46.6179C264.28 47.455 263.462 48.1106 262.391 48.5845C261.326 49.0523 260.036 49.2862 258.522 49.2862C257.051 49.2862 255.774 49.0585 254.69 48.603C253.613 48.1475 252.77 47.4827 252.161 46.6087C251.557 45.7346 251.231 44.6697 251.182 43.4141H254.552C254.601 44.0727 254.804 44.6205 255.161 45.0575C255.518 45.4946 255.983 45.8208 256.555 46.0362C257.134 46.2517 257.78 46.3594 258.494 46.3594C259.239 46.3594 259.892 46.2486 260.452 46.027C261.018 45.7992 261.461 45.4853 261.781 45.0852C262.101 44.679 262.264 44.205 262.271 43.6634C262.264 43.1709 262.12 42.7647 261.837 42.4446C261.554 42.1184 261.156 41.8475 260.646 41.6321C260.141 41.4105 259.55 41.2135 258.873 41.0412L256.722 40.4872C255.164 40.0871 253.933 39.4808 253.028 38.6683C252.13 37.8497 251.68 36.7633 251.68 35.4091C251.68 34.295 251.982 33.3194 252.585 32.4822C253.195 31.6451 254.022 30.9957 255.069 30.5341C256.115 30.0663 257.3 29.8324 258.624 29.8324C259.965 29.8324 261.141 30.0663 262.151 30.5341C263.166 30.9957 263.963 31.639 264.542 32.4638C265.121 33.2824 265.419 34.2242 265.438 35.2891H262.141ZM272.683 49.2862C271.784 49.2862 270.975 49.1262 270.255 48.8061C269.541 48.4799 268.974 47.9998 268.556 47.3658C268.144 46.7318 267.937 45.95 267.937 45.0206C267.937 44.2204 268.085 43.5587 268.381 43.0355C268.676 42.5123 269.079 42.0938 269.59 41.7798C270.101 41.4659 270.676 41.2289 271.317 41.0689C271.963 40.9027 272.631 40.7827 273.32 40.7088C274.151 40.6226 274.825 40.5457 275.342 40.478C275.859 40.4041 276.235 40.2933 276.469 40.1456C276.709 39.9917 276.829 39.7547 276.829 39.4347V39.3793C276.829 38.6837 276.622 38.1451 276.21 37.7635C275.798 37.3819 275.204 37.1911 274.428 37.1911C273.609 37.1911 272.96 37.3696 272.48 37.7266C272.006 38.0836 271.686 38.5052 271.52 38.9915L268.399 38.5483C268.645 37.6866 269.051 36.9664 269.618 36.3878C270.184 35.803 270.876 35.366 271.695 35.0767C272.514 34.7812 273.419 34.6335 274.41 34.6335C275.093 34.6335 275.773 34.7135 276.45 34.8736C277.127 35.0336 277.746 35.2983 278.306 35.6676C278.866 36.0308 279.315 36.5263 279.654 37.1541C279.999 37.782 280.171 38.5668 280.171 39.5085V49H276.958V47.0518H276.847C276.644 47.4458 276.358 47.8151 275.988 48.1598C275.625 48.4983 275.167 48.7723 274.613 48.9815C274.065 49.1847 273.422 49.2862 272.683 49.2862ZM273.551 46.8303C274.222 46.8303 274.804 46.6979 275.296 46.4332C275.788 46.1624 276.167 45.8054 276.432 45.3622C276.702 44.919 276.838 44.4358 276.838 43.9126V42.2415C276.733 42.3277 276.555 42.4077 276.302 42.4815C276.056 42.5554 275.779 42.62 275.471 42.6754C275.164 42.7308 274.859 42.7801 274.557 42.8232C274.256 42.8662 273.994 42.9032 273.773 42.9339C273.274 43.0017 272.828 43.1125 272.434 43.2663C272.04 43.4202 271.729 43.6357 271.501 43.9126C271.273 44.1835 271.16 44.5343 271.16 44.9652C271.16 45.5807 271.384 46.0455 271.834 46.3594C272.283 46.6733 272.855 46.8303 273.551 46.8303ZM286.874 30.0909V49H283.532V30.0909H286.874ZM294.392 49.2862C293.493 49.2862 292.684 49.1262 291.964 48.8061C291.25 48.4799 290.683 47.9998 290.265 47.3658C289.853 46.7318 289.646 45.95 289.646 45.0206C289.646 44.2204 289.794 43.5587 290.089 43.0355C290.385 42.5123 290.788 42.0938 291.299 41.7798C291.81 41.4659 292.385 41.2289 293.026 41.0689C293.672 40.9027 294.34 40.7827 295.029 40.7088C295.86 40.6226 296.534 40.5457 297.051 40.478C297.568 40.4041 297.944 40.2933 298.178 40.1456C298.418 39.9917 298.538 39.7547 298.538 39.4347V39.3793C298.538 38.6837 298.331 38.1451 297.919 37.7635C297.507 37.3819 296.913 37.1911 296.137 37.1911C295.318 37.1911 294.669 37.3696 294.189 37.7266C293.715 38.0836 293.395 38.5052 293.229 38.9915L290.108 38.5483C290.354 37.6866 290.76 36.9664 291.327 36.3878C291.893 35.803 292.585 35.366 293.404 35.0767C294.223 34.7812 295.128 34.6335 296.119 34.6335C296.802 34.6335 297.482 34.7135 298.159 34.8736C298.836 35.0336 299.455 35.2983 300.015 35.6676C300.575 36.0308 301.024 36.5263 301.363 37.1541C301.708 37.782 301.88 38.5668 301.88 39.5085V49H298.667V47.0518H298.556C298.353 47.4458 298.067 47.8151 297.697 48.1598C297.334 48.4983 296.876 48.7723 296.322 48.9815C295.774 49.1847 295.131 49.2862 294.392 49.2862ZM295.26 46.8303C295.931 46.8303 296.513 46.6979 297.005 46.4332C297.497 46.1624 297.876 45.8054 298.141 45.3622C298.411 44.919 298.547 44.4358 298.547 43.9126V42.2415C298.442 42.3277 298.264 42.4077 298.011 42.4815C297.765 42.5554 297.488 42.62 297.18 42.6754C296.873 42.7308 296.568 42.7801 296.266 42.8232C295.965 42.8662 295.703 42.9032 295.482 42.9339C294.983 43.0017 294.537 43.1125 294.143 43.2663C293.749 43.4202 293.438 43.6357 293.21 43.9126C292.982 44.1835 292.869 44.5343 292.869 44.9652C292.869 45.5807 293.093 46.0455 293.543 46.3594C293.992 46.6733 294.564 46.8303 295.26 46.8303ZM316.953 49.2493C315.839 49.2493 314.842 48.9631 313.961 48.3906C313.081 47.8182 312.386 46.9872 311.875 45.8977C311.364 44.8082 311.108 43.4848 311.108 41.9276C311.108 40.3518 311.367 39.0223 311.884 37.9389C312.407 36.8494 313.112 36.0277 313.998 35.4737C314.885 34.9136 315.873 34.6335 316.962 34.6335C317.793 34.6335 318.476 34.7751 319.012 35.0582C319.547 35.3352 319.972 35.6707 320.286 36.0646C320.6 36.4524 320.843 36.8187 321.015 37.1634H321.154V30.0909H324.505V49H321.218V46.7656H321.015C320.843 47.1103 320.594 47.4766 320.267 47.8643C319.941 48.246 319.51 48.5722 318.975 48.843C318.439 49.1139 317.765 49.2493 316.953 49.2493ZM317.885 46.5071C318.593 46.5071 319.196 46.3163 319.695 45.9347C320.194 45.5469 320.572 45.0083 320.831 44.3189C321.089 43.6295 321.218 42.8262 321.218 41.9091C321.218 40.992 321.089 40.1948 320.831 39.5178C320.578 38.8407 320.203 38.3144 319.704 37.9389C319.212 37.5634 318.605 37.3757 317.885 37.3757C317.141 37.3757 316.519 37.5696 316.02 37.9574C315.522 38.3452 315.146 38.8807 314.894 39.5639C314.641 40.2472 314.515 41.0289 314.515 41.9091C314.515 42.7955 314.641 43.5864 314.894 44.282C315.152 44.9714 315.531 45.5161 316.029 45.9162C316.534 46.3101 317.153 46.5071 317.885 46.5071ZM334.345 49.277C332.923 49.277 331.695 48.9815 330.661 48.3906C329.633 47.7936 328.843 46.9503 328.289 45.8608C327.735 44.7652 327.458 43.4756 327.458 41.9922C327.458 40.5334 327.735 39.2531 328.289 38.1513C328.849 37.0433 329.63 36.1816 330.634 35.5661C331.637 34.9444 332.816 34.6335 334.17 34.6335C335.044 34.6335 335.869 34.7751 336.644 35.0582C337.426 35.3352 338.115 35.7661 338.713 36.3509C339.316 36.9356 339.79 37.6804 340.134 38.5852C340.479 39.4839 340.651 40.5549 340.651 41.7983V42.8232H329.027V40.5703H337.448C337.441 39.9302 337.303 39.3608 337.032 38.8622C336.761 38.3575 336.383 37.9605 335.896 37.6712C335.416 37.3819 334.856 37.2372 334.216 37.2372C333.533 37.2372 332.933 37.4034 332.416 37.7358C331.899 38.062 331.495 38.4929 331.206 39.0284C330.923 39.5578 330.778 40.1394 330.772 40.7734V42.7401C330.772 43.5649 330.923 44.2727 331.225 44.8636C331.526 45.4484 331.948 45.8977 332.49 46.2116C333.031 46.5194 333.665 46.6733 334.392 46.6733C334.878 46.6733 335.318 46.6056 335.712 46.4702C336.106 46.3286 336.447 46.1224 336.737 45.8516C337.026 45.5807 337.244 45.2453 337.392 44.8452L340.513 45.196C340.316 46.0208 339.941 46.741 339.387 47.3565C338.839 47.9659 338.137 48.4399 337.281 48.7784C336.426 49.1108 335.447 49.277 334.345 49.277ZM352.606 30.0909L357.527 44.9744H357.721L362.633 30.0909H366.4L359.734 49H355.505L348.848 30.0909H352.606ZM373.498 49.277C372.076 49.277 370.848 48.9815 369.814 48.3906C368.786 47.7936 367.995 46.9503 367.441 45.8608C366.887 44.7652 366.61 43.4756 366.61 41.9922C366.61 40.5334 366.887 39.2531 367.441 38.1513C368.001 37.0433 368.783 36.1816 369.786 35.5661C370.789 34.9444 371.968 34.6335 373.322 34.6335C374.196 34.6335 375.021 34.7751 375.797 35.0582C376.578 35.3352 377.268 35.7661 377.865 36.3509C378.468 36.9356 378.942 37.6804 379.287 38.5852C379.631 39.4839 379.804 40.5549 379.804 41.7983V42.8232H368.18V40.5703H376.6C376.594 39.9302 376.455 39.3608 376.184 38.8622C375.914 38.3575 375.535 37.9605 375.049 37.6712C374.569 37.3819 374.009 37.2372 373.368 37.2372C372.685 37.2372 372.085 37.4034 371.568 37.7358C371.051 38.062 370.648 38.4929 370.358 39.0284C370.075 39.5578 369.931 40.1394 369.925 40.7734V42.7401C369.925 43.5649 370.075 44.2727 370.377 44.8636C370.679 45.4484 371.1 45.8977 371.642 46.2116C372.184 46.5194 372.818 46.6733 373.544 46.6733C374.03 46.6733 374.47 46.6056 374.864 46.4702C375.258 46.3286 375.6 46.1224 375.889 45.8516C376.178 45.5807 376.397 45.2453 376.545 44.8452L379.665 45.196C379.468 46.0208 379.093 46.741 378.539 47.3565C377.991 47.9659 377.289 48.4399 376.434 48.7784C375.578 49.1108 374.599 49.277 373.498 49.277ZM385.974 40.6903V49H382.631V34.8182H385.826V37.228H385.992C386.318 36.4339 386.839 35.803 387.553 35.3352C388.273 34.8674 389.162 34.6335 390.221 34.6335C391.2 34.6335 392.052 34.8428 392.778 35.2614C393.511 35.6799 394.077 36.2862 394.477 37.0803C394.884 37.8743 395.084 38.8376 395.077 39.9702V49H391.735V40.4872C391.735 39.5393 391.489 38.7976 390.996 38.2621C390.51 37.7266 389.836 37.4588 388.974 37.4588C388.39 37.4588 387.87 37.5881 387.414 37.8466C386.965 38.099 386.611 38.4652 386.352 38.9453C386.1 39.4254 385.974 40.0071 385.974 40.6903ZM405.557 34.8182V37.4034H397.404V34.8182H405.557ZM399.417 31.4205H402.759V44.7344C402.759 45.1837 402.827 45.5284 402.962 45.7685C403.104 46.0024 403.289 46.1624 403.516 46.2486C403.744 46.3348 403.996 46.3778 404.273 46.3778C404.483 46.3778 404.674 46.3625 404.846 46.3317C405.024 46.3009 405.16 46.2732 405.252 46.2486L405.815 48.8615C405.637 48.9231 405.381 48.9908 405.049 49.0646C404.723 49.1385 404.323 49.1816 403.849 49.1939C403.012 49.2185 402.258 49.0923 401.587 48.8153C400.916 48.5322 400.383 48.0952 399.989 47.5043C399.602 46.9134 399.411 46.1747 399.417 45.2884V31.4205ZM412.433 49.2862C411.534 49.2862 410.725 49.1262 410.005 48.8061C409.291 48.4799 408.724 47.9998 408.306 47.3658C407.894 46.7318 407.687 45.95 407.687 45.0206C407.687 44.2204 407.835 43.5587 408.131 43.0355C408.426 42.5123 408.829 42.0938 409.34 41.7798C409.851 41.4659 410.426 41.2289 411.067 41.0689C411.713 40.9027 412.381 40.7827 413.07 40.7088C413.901 40.6226 414.575 40.5457 415.092 40.478C415.609 40.4041 415.985 40.2933 416.219 40.1456C416.459 39.9917 416.579 39.7547 416.579 39.4347V39.3793C416.579 38.6837 416.372 38.1451 415.96 37.7635C415.548 37.3819 414.954 37.1911 414.178 37.1911C413.359 37.1911 412.71 37.3696 412.23 37.7266C411.756 38.0836 411.436 38.5052 411.27 38.9915L408.149 38.5483C408.395 37.6866 408.801 36.9664 409.368 36.3878C409.934 35.803 410.626 35.366 411.445 35.0767C412.264 34.7812 413.169 34.6335 414.16 34.6335C414.843 34.6335 415.523 34.7135 416.2 34.8736C416.877 35.0336 417.496 35.2983 418.056 35.6676C418.616 36.0308 419.065 36.5263 419.404 37.1541C419.749 37.782 419.921 38.5668 419.921 39.5085V49H416.708V47.0518H416.597C416.394 47.4458 416.108 47.8151 415.738 48.1598C415.375 48.4983 414.917 48.7723 414.363 48.9815C413.815 49.1847 413.172 49.2862 412.433 49.2862ZM413.301 46.8303C413.972 46.8303 414.554 46.6979 415.046 46.4332C415.538 46.1624 415.917 45.8054 416.182 45.3622C416.452 44.919 416.588 44.4358 416.588 43.9126V42.2415C416.483 42.3277 416.305 42.4077 416.052 42.4815C415.806 42.5554 415.529 42.62 415.221 42.6754C414.914 42.7308 414.609 42.7801 414.307 42.8232C414.006 42.8662 413.744 42.9032 413.523 42.9339C413.024 43.0017 412.578 43.1125 412.184 43.2663C411.79 43.4202 411.479 43.6357 411.251 43.9126C411.023 44.1835 410.91 44.5343 410.91 44.9652C410.91 45.5807 411.134 46.0455 411.584 46.3594C412.033 46.6733 412.605 46.8303 413.301 46.8303ZM434.491 38.5668L431.444 38.8991C431.358 38.5914 431.207 38.3021 430.991 38.0312C430.782 37.7604 430.499 37.5419 430.142 37.3757C429.785 37.2095 429.348 37.1264 428.831 37.1264C428.135 37.1264 427.55 37.2772 427.077 37.5788C426.609 37.8804 426.378 38.2713 426.384 38.7514C426.378 39.1638 426.529 39.4993 426.836 39.7578C427.15 40.0163 427.667 40.2287 428.388 40.3949L430.807 40.9119C432.148 41.2012 433.146 41.6598 433.798 42.2876C434.457 42.9155 434.789 43.7372 434.795 44.7528C434.789 45.6454 434.528 46.4332 434.01 47.1165C433.5 47.7936 432.789 48.3229 431.878 48.7045C430.967 49.0862 429.92 49.277 428.738 49.277C427.003 49.277 425.605 48.9138 424.547 48.1875C423.488 47.455 422.857 46.4363 422.654 45.1314L425.913 44.8175C426.061 45.4576 426.375 45.9408 426.855 46.267C427.335 46.5933 427.96 46.7564 428.729 46.7564C429.523 46.7564 430.16 46.5933 430.64 46.267C431.127 45.9408 431.37 45.5376 431.37 45.0575C431.37 44.6513 431.213 44.3158 430.899 44.0511C430.591 43.7865 430.111 43.5833 429.459 43.4418L427.04 42.9339C425.679 42.6508 424.673 42.1738 424.02 41.5028C423.368 40.8258 423.045 39.9702 423.051 38.9361C423.045 38.062 423.282 37.3049 423.762 36.6648C424.248 36.0185 424.922 35.5199 425.784 35.169C426.652 34.812 427.652 34.6335 428.785 34.6335C430.447 34.6335 431.755 34.9875 432.709 35.6953C433.669 36.4032 434.263 37.3603 434.491 38.5668ZM254.293 80H250.637L257.294 61.0909H261.523L268.189 80H264.533L259.482 64.9688H259.335L254.293 80ZM254.413 72.5859H264.385V75.3374H254.413V72.5859ZM281.422 65.8182L276.372 80H272.678L267.628 65.8182H271.192L274.451 76.353H274.599L277.867 65.8182H281.422ZM284.905 80.2031C284.345 80.2031 283.865 80.0062 283.465 79.6122C283.065 79.2183 282.868 78.7382 282.874 78.1719C282.868 77.6179 283.065 77.1439 283.465 76.75C283.865 76.3561 284.345 76.1591 284.905 76.1591C285.447 76.1591 285.918 76.3561 286.318 76.75C286.724 77.1439 286.93 77.6179 286.936 78.1719C286.93 78.5473 286.832 78.889 286.641 79.1967C286.456 79.5045 286.21 79.7507 285.902 79.9354C285.601 80.1139 285.268 80.2031 284.905 80.2031ZM298.828 80H295.172L301.829 61.0909H306.058L312.724 80H309.068L304.017 64.9688H303.87L298.828 80ZM298.949 72.5859H308.92V75.3374H298.949V72.5859ZM320.803 85.6136C319.603 85.6136 318.572 85.4505 317.71 85.1243C316.848 84.8042 316.156 84.3733 315.632 83.8317C315.109 83.29 314.746 82.6899 314.543 82.0312L317.553 81.3018C317.688 81.5788 317.885 81.8527 318.144 82.1236C318.402 82.4006 318.75 82.6283 319.187 82.8068C319.63 82.9915 320.187 83.0838 320.858 83.0838C321.806 83.0838 322.591 82.853 323.213 82.3913C323.834 81.9358 324.145 81.1849 324.145 80.1385V77.4517H323.979C323.807 77.7964 323.554 78.1503 323.222 78.5135C322.896 78.8767 322.462 79.1813 321.92 79.4276C321.385 79.6738 320.711 79.7969 319.898 79.7969C318.809 79.7969 317.821 79.5414 316.934 79.0305C316.054 78.5135 315.352 77.7441 314.829 76.7223C314.312 75.6944 314.054 74.4079 314.054 72.8629C314.054 71.3056 314.312 69.9915 314.829 68.9205C315.352 67.8433 316.057 67.0277 316.944 66.4737C317.83 65.9136 318.818 65.6335 319.907 65.6335C320.738 65.6335 321.422 65.7751 321.957 66.0582C322.499 66.3352 322.93 66.6707 323.25 67.0646C323.57 67.4524 323.813 67.8187 323.979 68.1634H324.164V65.8182H327.46V80.2308C327.46 81.4434 327.171 82.4467 326.592 83.2408C326.013 84.0348 325.222 84.6288 324.219 85.0227C323.216 85.4167 322.077 85.6136 320.803 85.6136ZM320.831 77.1747C321.538 77.1747 322.142 77.0024 322.64 76.6577C323.139 76.313 323.517 75.8175 323.776 75.1712C324.034 74.5249 324.164 73.7493 324.164 72.8445C324.164 71.9519 324.034 71.1702 323.776 70.4993C323.524 69.8284 323.148 69.3082 322.65 68.9389C322.157 68.5634 321.551 68.3757 320.831 68.3757C320.086 68.3757 319.464 68.5696 318.966 68.9574C318.467 69.3452 318.092 69.8776 317.839 70.5547C317.587 71.2256 317.461 71.9889 317.461 72.8445C317.461 73.7124 317.587 74.4725 317.839 75.125C318.098 75.7713 318.476 76.276 318.975 76.6392C319.48 76.9962 320.098 77.1747 320.831 77.1747ZM330.885 80V65.8182H334.126V68.1818H334.274C334.532 67.3632 334.975 66.7322 335.603 66.2891C336.237 65.8397 336.961 65.6151 337.773 65.6151C337.958 65.6151 338.164 65.6243 338.392 65.6428C338.626 65.6551 338.819 65.6766 338.973 65.7074V68.782C338.832 68.7327 338.607 68.6896 338.299 68.6527C337.998 68.6096 337.705 68.5881 337.422 68.5881C336.813 68.5881 336.265 68.7204 335.779 68.9851C335.299 69.2436 334.92 69.6037 334.643 70.0653C334.366 70.527 334.228 71.0594 334.228 71.6626V80H330.885ZM341.194 80V65.8182H344.536V80H341.194ZM342.874 63.8054C342.345 63.8054 341.889 63.63 341.508 63.2791C341.126 62.9221 340.935 62.4943 340.935 61.9957C340.935 61.491 341.126 61.0632 341.508 60.7124C341.889 60.3553 342.345 60.1768 342.874 60.1768C343.41 60.1768 343.865 60.3553 344.241 60.7124C344.622 61.0632 344.813 61.491 344.813 61.9957C344.813 62.4943 344.622 62.9221 344.241 63.2791C343.865 63.63 343.41 63.8054 342.874 63.8054ZM354.159 80.277C352.744 80.277 351.528 79.9661 350.512 79.3445C349.503 78.7228 348.724 77.8641 348.176 76.7685C347.635 75.6667 347.364 74.3987 347.364 72.9645C347.364 71.5241 347.641 70.2531 348.195 69.1513C348.749 68.0433 349.53 67.1816 350.54 66.5661C351.556 65.9444 352.756 65.6335 354.141 65.6335C355.292 65.6335 356.311 65.8459 357.197 66.2706C358.089 66.6892 358.8 67.2831 359.33 68.0526C359.859 68.8158 360.161 69.7083 360.235 70.7301H357.04C356.911 70.0469 356.603 69.4775 356.117 69.022C355.637 68.5604 354.993 68.3295 354.187 68.3295C353.504 68.3295 352.904 68.5142 352.387 68.8835C351.869 69.2467 351.466 69.7699 351.177 70.4531C350.894 71.1364 350.752 71.955 350.752 72.9091C350.752 73.8755 350.894 74.7064 351.177 75.402C351.46 76.0914 351.857 76.6238 352.368 76.9993C352.885 77.3686 353.491 77.5533 354.187 77.5533C354.679 77.5533 355.119 77.4609 355.507 77.2763C355.901 77.0855 356.231 76.8116 356.495 76.4545C356.76 76.0975 356.941 75.6636 357.04 75.1527H360.235C360.155 76.156 359.859 77.0455 359.348 77.821C358.837 78.5904 358.142 79.1937 357.262 79.6307C356.381 80.0616 355.347 80.277 354.159 80.277ZM372.018 74.0355V65.8182H375.36V80H372.12V77.4794H371.972C371.652 78.2734 371.126 78.9228 370.393 79.4276C369.667 79.9323 368.771 80.1847 367.706 80.1847C366.777 80.1847 365.955 79.9785 365.241 79.5661C364.533 79.1475 363.979 78.5412 363.579 77.7472C363.179 76.947 362.979 75.9806 362.979 74.848V65.8182H366.321V74.331C366.321 75.2296 366.568 75.9437 367.06 76.473C367.552 77.0024 368.199 77.267 368.999 77.267C369.491 77.267 369.968 77.147 370.43 76.907C370.892 76.6669 371.27 76.3099 371.566 75.8359C371.867 75.3558 372.018 74.7557 372.018 74.0355ZM382.14 61.0909V80H378.797V61.0909H382.14ZM392.658 65.8182V68.4034H384.506V65.8182H392.658ZM386.518 62.4205H389.861V75.7344C389.861 76.1837 389.929 76.5284 390.064 76.7685C390.205 77.0024 390.39 77.1624 390.618 77.2486C390.846 77.3348 391.098 77.3778 391.375 77.3778C391.584 77.3778 391.775 77.3625 391.947 77.3317C392.126 77.3009 392.261 77.2732 392.354 77.2486L392.917 79.8615C392.738 79.9231 392.483 79.9908 392.151 80.0646C391.824 80.1385 391.424 80.1816 390.95 80.1939C390.113 80.2185 389.359 80.0923 388.688 79.8153C388.017 79.5322 387.485 79.0952 387.091 78.5043C386.703 77.9134 386.512 77.1747 386.518 76.2884V62.4205ZM404.493 74.0355V65.8182H407.835V80H404.594V77.4794H404.447C404.126 78.2734 403.6 78.9228 402.868 79.4276C402.141 79.9323 401.246 80.1847 400.181 80.1847C399.251 80.1847 398.43 79.9785 397.716 79.5661C397.008 79.1475 396.454 78.5412 396.054 77.7472C395.654 76.947 395.454 75.9806 395.454 74.848V65.8182H398.796V74.331C398.796 75.2296 399.042 75.9437 399.535 76.473C400.027 77.0024 400.673 77.267 401.474 77.267C401.966 77.267 402.443 77.147 402.905 76.907C403.366 76.6669 403.745 76.3099 404.04 75.8359C404.342 75.3558 404.493 74.7557 404.493 74.0355ZM411.272 80V65.8182H414.513V68.1818H414.661C414.919 67.3632 415.362 66.7322 415.99 66.2891C416.624 65.8397 417.347 65.6151 418.16 65.6151C418.344 65.6151 418.551 65.6243 418.778 65.6428C419.012 65.6551 419.206 65.6766 419.36 65.7074V68.782C419.219 68.7327 418.994 68.6896 418.686 68.6527C418.384 68.6096 418.092 68.5881 417.809 68.5881C417.2 68.5881 416.652 68.7204 416.165 68.9851C415.685 69.2436 415.307 69.6037 415.03 70.0653C414.753 70.527 414.614 71.0594 414.614 71.6626V80H411.272ZM425.408 80.2862C424.509 80.2862 423.7 80.1262 422.979 79.8061C422.265 79.4799 421.699 78.9998 421.281 78.3658C420.868 77.7318 420.662 76.95 420.662 76.0206C420.662 75.2204 420.81 74.5587 421.105 74.0355C421.401 73.5123 421.804 73.0938 422.315 72.7798C422.826 72.4659 423.401 72.2289 424.041 72.0689C424.688 71.9027 425.355 71.7827 426.045 71.7088C426.876 71.6226 427.55 71.5457 428.067 71.478C428.584 71.4041 428.959 71.2933 429.193 71.1456C429.433 70.9917 429.553 70.7547 429.553 70.4347V70.3793C429.553 69.6837 429.347 69.1451 428.935 68.7635C428.522 68.3819 427.928 68.1911 427.153 68.1911C426.334 68.1911 425.685 68.3696 425.205 68.7266C424.731 69.0836 424.411 69.5052 424.244 69.9915L421.124 69.5483C421.37 68.6866 421.776 67.9664 422.342 67.3878C422.909 66.803 423.601 66.366 424.42 66.0767C425.238 65.7812 426.143 65.6335 427.134 65.6335C427.817 65.6335 428.498 65.7135 429.175 65.8736C429.852 66.0336 430.47 66.2983 431.031 66.6676C431.591 67.0308 432.04 67.5263 432.379 68.1541C432.723 68.782 432.896 69.5668 432.896 70.5085V80H429.683V78.0518H429.572C429.369 78.4458 429.082 78.8151 428.713 79.1598C428.35 79.4983 427.891 79.7723 427.337 79.9815C426.79 80.1847 426.146 80.2862 425.408 80.2862ZM426.276 77.8303C426.946 77.8303 427.528 77.6979 428.021 77.4332C428.513 77.1624 428.892 76.8054 429.156 76.3622C429.427 75.919 429.562 75.4358 429.562 74.9126V73.2415C429.458 73.3277 429.279 73.4077 429.027 73.4815C428.781 73.5554 428.504 73.62 428.196 73.6754C427.888 73.7308 427.584 73.7801 427.282 73.8232C426.98 73.8662 426.719 73.9032 426.497 73.9339C425.999 74.0017 425.552 74.1125 425.158 74.2663C424.764 74.4202 424.454 74.6357 424.226 74.9126C423.998 75.1835 423.884 75.5343 423.884 75.9652C423.884 76.5807 424.109 77.0455 424.558 77.3594C425.008 77.6733 425.58 77.8303 426.276 77.8303ZM448.892 80.277C447.476 80.277 446.26 79.9661 445.245 79.3445C444.235 78.7228 443.457 77.8641 442.909 76.7685C442.367 75.6667 442.096 74.3987 442.096 72.9645C442.096 71.5241 442.373 70.2531 442.927 69.1513C443.481 68.0433 444.263 67.1816 445.272 66.5661C446.288 65.9444 447.488 65.6335 448.873 65.6335C450.024 65.6335 451.043 65.8459 451.929 66.2706C452.822 66.6892 453.533 67.2831 454.062 68.0526C454.592 68.8158 454.893 69.7083 454.967 70.7301H451.772C451.643 70.0469 451.335 69.4775 450.849 69.022C450.369 68.5604 449.726 68.3295 448.919 68.3295C448.236 68.3295 447.636 68.5142 447.119 68.8835C446.602 69.2467 446.199 69.7699 445.909 70.4531C445.626 71.1364 445.485 71.955 445.485 72.9091C445.485 73.8755 445.626 74.7064 445.909 75.402C446.193 76.0914 446.59 76.6238 447.1 76.9993C447.618 77.3686 448.224 77.5533 448.919 77.5533C449.412 77.5533 449.852 77.4609 450.24 77.2763C450.634 77.0855 450.963 76.8116 451.228 76.4545C451.492 76.0975 451.674 75.6636 451.772 75.1527H454.967C454.887 76.156 454.592 77.0455 454.081 77.821C453.57 78.5904 452.874 79.1937 451.994 79.6307C451.114 80.0616 450.08 80.277 448.892 80.277ZM457.711 80V65.8182H460.952V68.1818H461.1C461.358 67.3632 461.802 66.7322 462.43 66.2891C463.064 65.8397 463.787 65.6151 464.599 65.6151C464.784 65.6151 464.99 65.6243 465.218 65.6428C465.452 65.6551 465.646 65.6766 465.8 65.7074V68.782C465.658 68.7327 465.433 68.6896 465.126 68.6527C464.824 68.6096 464.532 68.5881 464.248 68.5881C463.639 68.5881 463.091 68.7204 462.605 68.9851C462.125 69.2436 461.746 69.6037 461.469 70.0653C461.192 70.527 461.054 71.0594 461.054 71.6626V80H457.711ZM477.059 74.0355V65.8182H480.401V80H477.161V77.4794H477.013C476.693 78.2734 476.167 78.9228 475.434 79.4276C474.708 79.9323 473.812 80.1847 472.747 80.1847C471.818 80.1847 470.996 79.9785 470.282 79.5661C469.574 79.1475 469.02 78.5412 468.62 77.7472C468.22 76.947 468.02 75.9806 468.02 74.848V65.8182H471.362V74.331C471.362 75.2296 471.609 75.9437 472.101 76.473C472.593 77.0024 473.24 77.267 474.04 77.267C474.532 77.267 475.009 77.147 475.471 76.907C475.933 76.6669 476.311 76.3099 476.607 75.8359C476.908 75.3558 477.059 74.7557 477.059 74.0355ZM490.025 80.277C488.609 80.277 487.393 79.9661 486.377 79.3445C485.368 78.7228 484.589 77.8641 484.042 76.7685C483.5 75.6667 483.229 74.3987 483.229 72.9645C483.229 71.5241 483.506 70.2531 484.06 69.1513C484.614 68.0433 485.396 67.1816 486.405 66.5661C487.421 65.9444 488.621 65.6335 490.006 65.6335C491.157 65.6335 492.176 65.8459 493.062 66.2706C493.955 66.6892 494.666 67.2831 495.195 68.0526C495.724 68.8158 496.026 69.7083 496.1 70.7301H492.905C492.776 70.0469 492.468 69.4775 491.982 69.022C491.502 68.5604 490.859 68.3295 490.052 68.3295C489.369 68.3295 488.769 68.5142 488.252 68.8835C487.735 69.2467 487.332 69.7699 487.042 70.4531C486.759 71.1364 486.618 71.955 486.618 72.9091C486.618 73.8755 486.759 74.7064 487.042 75.402C487.325 76.0914 487.722 76.6238 488.233 76.9993C488.75 77.3686 489.357 77.5533 490.052 77.5533C490.545 77.5533 490.985 77.4609 491.373 77.2763C491.766 77.0855 492.096 76.8116 492.36 76.4545C492.625 76.0975 492.807 75.6636 492.905 75.1527H496.1C496.02 76.156 495.724 77.0455 495.213 77.821C494.703 78.5904 494.007 79.1937 493.127 79.6307C492.247 80.0616 491.212 80.277 490.025 80.277ZM505.123 80.277C503.701 80.277 502.473 79.9815 501.439 79.3906C500.411 78.7936 499.62 77.9503 499.066 76.8608C498.512 75.7652 498.235 74.4756 498.235 72.9922C498.235 71.5334 498.512 70.2531 499.066 69.1513C499.626 68.0433 500.408 67.1816 501.411 66.5661C502.414 65.9444 503.593 65.6335 504.947 65.6335C505.821 65.6335 506.646 65.7751 507.422 66.0582C508.203 66.3352 508.893 66.7661 509.49 67.3509C510.093 67.9356 510.567 68.6804 510.912 69.5852C511.256 70.4839 511.429 71.5549 511.429 72.7983V73.8232H499.805V71.5703H508.225C508.219 70.9302 508.08 70.3608 507.809 69.8622C507.539 69.3575 507.16 68.9605 506.674 68.6712C506.194 68.3819 505.634 68.2372 504.993 68.2372C504.31 68.2372 503.71 68.4034 503.193 68.7358C502.676 69.062 502.273 69.4929 501.983 70.0284C501.7 70.5578 501.556 71.1394 501.55 71.7734V73.7401C501.55 74.5649 501.7 75.2727 502.002 75.8636C502.304 76.4484 502.725 76.8977 503.267 77.2116C503.809 77.5194 504.443 77.6733 505.169 77.6733C505.655 77.6733 506.095 77.6056 506.489 77.4702C506.883 77.3286 507.225 77.1224 507.514 76.8516C507.803 76.5807 508.022 76.2453 508.17 75.8452L511.29 76.196C511.093 77.0208 510.718 77.741 510.164 78.3565C509.616 78.9659 508.914 79.4399 508.059 79.7784C507.203 80.1108 506.224 80.277 505.123 80.277ZM257.903 111.277C256.488 111.277 255.272 110.966 254.256 110.344C253.247 109.723 252.468 108.864 251.92 107.768C251.379 106.667 251.108 105.399 251.108 103.964C251.108 102.524 251.385 101.253 251.939 100.151C252.493 99.0433 253.275 98.1816 254.284 97.5661C255.3 96.9444 256.5 96.6335 257.885 96.6335C259.036 96.6335 260.055 96.8459 260.941 97.2706C261.834 97.6892 262.545 98.2831 263.074 99.0526C263.603 99.8158 263.905 100.708 263.979 101.73H260.784C260.655 101.047 260.347 100.478 259.861 100.022C259.381 99.5604 258.737 99.3295 257.931 99.3295C257.248 99.3295 256.648 99.5142 256.131 99.8835C255.614 100.247 255.21 100.77 254.921 101.453C254.638 102.136 254.496 102.955 254.496 103.909C254.496 104.875 254.638 105.706 254.921 106.402C255.204 107.091 255.601 107.624 256.112 107.999C256.629 108.369 257.236 108.553 257.931 108.553C258.424 108.553 258.864 108.461 259.251 108.276C259.645 108.085 259.975 107.812 260.239 107.455C260.504 107.098 260.686 106.664 260.784 106.153H263.979C263.899 107.156 263.603 108.045 263.092 108.821C262.581 109.59 261.886 110.194 261.006 110.631C260.125 111.062 259.091 111.277 257.903 111.277ZM272.909 111.277C271.524 111.277 270.324 110.972 269.308 110.363C268.293 109.754 267.505 108.901 266.945 107.805C266.391 106.71 266.114 105.429 266.114 103.964C266.114 102.5 266.391 101.216 266.945 100.114C267.505 99.0125 268.293 98.157 269.308 97.5476C270.324 96.9382 271.524 96.6335 272.909 96.6335C274.294 96.6335 275.494 96.9382 276.51 97.5476C277.526 98.157 278.311 99.0125 278.865 100.114C279.425 101.216 279.705 102.5 279.705 103.964C279.705 105.429 279.425 106.71 278.865 107.805C278.311 108.901 277.526 109.754 276.51 110.363C275.494 110.972 274.294 111.277 272.909 111.277ZM272.928 108.599C273.679 108.599 274.307 108.393 274.811 107.981C275.316 107.562 275.691 107.002 275.938 106.3C276.19 105.599 276.316 104.817 276.316 103.955C276.316 103.087 276.19 102.303 275.938 101.601C275.691 100.893 275.316 100.33 274.811 99.9112C274.307 99.4927 273.679 99.2834 272.928 99.2834C272.158 99.2834 271.518 99.4927 271.007 99.9112C270.503 100.33 270.124 100.893 269.872 101.601C269.625 102.303 269.502 103.087 269.502 103.955C269.502 104.817 269.625 105.599 269.872 106.3C270.124 107.002 270.503 107.562 271.007 107.981C271.518 108.393 272.158 108.599 272.928 108.599ZM285.884 102.69V111H282.542V96.8182H285.736V99.228H285.902C286.229 98.4339 286.749 97.803 287.463 97.3352C288.183 96.8674 289.072 96.6335 290.131 96.6335C291.11 96.6335 291.962 96.8428 292.689 97.2614C293.421 97.6799 293.987 98.2862 294.387 99.0803C294.794 99.8743 294.994 100.838 294.988 101.97V111H291.645V102.487C291.645 101.539 291.399 100.798 290.907 100.262C290.42 99.7266 289.746 99.4588 288.885 99.4588C288.3 99.4588 287.78 99.5881 287.324 99.8466C286.875 100.099 286.521 100.465 286.262 100.945C286.01 101.425 285.884 102.007 285.884 102.69ZM307.411 111H303.754L310.411 92.0909H314.64L321.306 111H317.65L312.599 95.9688H312.452L307.411 111ZM307.531 103.586H317.502V106.337H307.531V103.586ZM334.539 96.8182L329.489 111H325.796L320.745 96.8182H324.309L327.568 107.353H327.716L330.985 96.8182H334.539ZM338.022 111.203C337.462 111.203 336.982 111.006 336.582 110.612C336.182 110.218 335.985 109.738 335.991 109.172C335.985 108.618 336.182 108.144 336.582 107.75C336.982 107.356 337.462 107.159 338.022 107.159C338.564 107.159 339.035 107.356 339.435 107.75C339.841 108.144 340.047 108.618 340.054 109.172C340.047 109.547 339.949 109.889 339.758 110.197C339.574 110.504 339.327 110.751 339.02 110.935C338.718 111.114 338.386 111.203 338.022 111.203ZM365.703 98.4709H362.25C362.151 97.9046 361.97 97.4029 361.705 96.9659C361.44 96.5227 361.111 96.1473 360.717 95.8395C360.323 95.5317 359.874 95.3009 359.369 95.147C358.87 94.987 358.332 94.907 357.753 94.907C356.725 94.907 355.814 95.1655 355.02 95.6825C354.226 96.1934 353.605 96.9444 353.155 97.9354C352.706 98.9202 352.481 100.124 352.481 101.545C352.481 102.992 352.706 104.211 353.155 105.202C353.611 106.187 354.232 106.931 355.02 107.436C355.814 107.935 356.722 108.184 357.744 108.184C358.31 108.184 358.84 108.11 359.332 107.962C359.831 107.808 360.277 107.584 360.671 107.288C361.071 106.993 361.406 106.63 361.677 106.199C361.954 105.768 362.145 105.276 362.25 104.722L365.703 104.74C365.574 105.639 365.293 106.482 364.863 107.27C364.438 108.058 363.881 108.753 363.191 109.357C362.502 109.954 361.696 110.421 360.772 110.76C359.849 111.092 358.824 111.259 357.698 111.259C356.036 111.259 354.552 110.874 353.248 110.104C351.943 109.335 350.915 108.224 350.164 106.771C349.413 105.319 349.037 103.577 349.037 101.545C349.037 99.508 349.416 97.7661 350.173 96.3196C350.93 94.867 351.961 93.7559 353.266 92.9865C354.571 92.2171 356.048 91.8324 357.698 91.8324C358.75 91.8324 359.729 91.9801 360.634 92.2756C361.539 92.571 362.345 93.005 363.053 93.5774C363.761 94.1437 364.342 94.8393 364.798 95.6641C365.26 96.4827 365.561 97.4183 365.703 98.4709ZM372.034 102.69V111H368.692V92.0909H371.96V99.228H372.127C372.459 98.4278 372.973 97.7969 373.669 97.3352C374.37 96.8674 375.263 96.6335 376.346 96.6335C377.331 96.6335 378.19 96.8397 378.922 97.2521C379.655 97.6645 380.221 98.2678 380.621 99.0618C381.027 99.8558 381.23 100.825 381.23 101.97V111H377.888V102.487C377.888 101.533 377.642 100.791 377.149 100.262C376.663 99.7266 375.98 99.4588 375.1 99.4588C374.509 99.4588 373.979 99.5881 373.512 99.8466C373.05 100.099 372.687 100.465 372.422 100.945C372.164 101.425 372.034 102.007 372.034 102.69ZM384.637 111V96.8182H387.98V111H384.637ZM386.318 94.8054C385.788 94.8054 385.333 94.63 384.951 94.2791C384.57 93.9221 384.379 93.4943 384.379 92.9957C384.379 92.491 384.57 92.0632 384.951 91.7124C385.333 91.3553 385.788 91.1768 386.318 91.1768C386.853 91.1768 387.309 91.3553 387.684 91.7124C388.066 92.0632 388.257 92.491 388.257 92.9957C388.257 93.4943 388.066 93.9221 387.684 94.2791C387.309 94.63 386.853 94.8054 386.318 94.8054ZM397.603 111.277C396.187 111.277 394.971 110.966 393.956 110.344C392.946 109.723 392.167 108.864 391.62 107.768C391.078 106.667 390.807 105.399 390.807 103.964C390.807 102.524 391.084 101.253 391.638 100.151C392.192 99.0433 392.974 98.1816 393.983 97.5661C394.999 96.9444 396.199 96.6335 397.584 96.6335C398.735 96.6335 399.754 96.8459 400.64 97.2706C401.533 97.6892 402.244 98.2831 402.773 99.0526C403.302 99.8158 403.604 100.708 403.678 101.73H400.483C400.354 101.047 400.046 100.478 399.56 100.022C399.08 99.5604 398.437 99.3295 397.63 99.3295C396.947 99.3295 396.347 99.5142 395.83 99.8835C395.313 100.247 394.91 100.77 394.62 101.453C394.337 102.136 394.196 102.955 394.196 103.909C394.196 104.875 394.337 105.706 394.62 106.402C394.904 107.091 395.301 107.624 395.811 107.999C396.328 108.369 396.935 108.553 397.63 108.553C398.123 108.553 398.563 108.461 398.951 108.276C399.345 108.085 399.674 107.812 399.939 107.455C400.203 107.098 400.385 106.664 400.483 106.153H403.678C403.598 107.156 403.302 108.045 402.792 108.821C402.281 109.59 401.585 110.194 400.705 110.631C399.825 111.062 398.791 111.277 397.603 111.277ZM409.765 92.0909V111H406.422V92.0909H409.765ZM417.283 111.286C416.384 111.286 415.575 111.126 414.854 110.806C414.14 110.48 413.574 110 413.156 109.366C412.743 108.732 412.537 107.95 412.537 107.021C412.537 106.22 412.685 105.559 412.98 105.036C413.276 104.512 413.679 104.094 414.19 103.78C414.701 103.466 415.276 103.229 415.916 103.069C416.563 102.903 417.23 102.783 417.92 102.709C418.751 102.623 419.425 102.546 419.942 102.478C420.459 102.404 420.834 102.293 421.068 102.146C421.308 101.992 421.428 101.755 421.428 101.435V101.379C421.428 100.684 421.222 100.145 420.81 99.7635C420.397 99.3819 419.803 99.1911 419.028 99.1911C418.209 99.1911 417.56 99.3696 417.08 99.7266C416.606 100.084 416.286 100.505 416.119 100.991L412.999 100.548C413.245 99.6866 413.651 98.9664 414.217 98.3878C414.784 97.803 415.476 97.366 416.295 97.0767C417.113 96.7812 418.018 96.6335 419.009 96.6335C419.692 96.6335 420.373 96.7135 421.05 96.8736C421.727 97.0336 422.345 97.2983 422.906 97.6676C423.466 98.0308 423.915 98.5263 424.254 99.1541C424.598 99.782 424.771 100.567 424.771 101.509V111H421.558V109.052H421.447C421.244 109.446 420.957 109.815 420.588 110.16C420.225 110.498 419.766 110.772 419.212 110.982C418.665 111.185 418.021 111.286 417.283 111.286ZM418.151 108.83C418.821 108.83 419.403 108.698 419.896 108.433C420.388 108.162 420.767 107.805 421.031 107.362C421.302 106.919 421.438 106.436 421.438 105.913V104.241C421.333 104.328 421.154 104.408 420.902 104.482C420.656 104.555 420.379 104.62 420.071 104.675C419.763 104.731 419.459 104.78 419.157 104.823C418.855 104.866 418.594 104.903 418.372 104.934C417.874 105.002 417.427 105.112 417.033 105.266C416.639 105.42 416.329 105.636 416.101 105.913C415.873 106.183 415.759 106.534 415.759 106.965C415.759 107.581 415.984 108.045 416.433 108.359C416.883 108.673 417.455 108.83 418.151 108.83ZM429.701 116.318C429.246 116.318 428.824 116.281 428.436 116.207C428.054 116.14 427.75 116.06 427.522 115.967L428.298 113.364C428.784 113.505 429.218 113.573 429.599 113.567C429.981 113.561 430.317 113.441 430.606 113.207C430.901 112.979 431.151 112.597 431.354 112.062L431.64 111.295L426.497 96.8182H430.043L433.311 107.528H433.459L436.737 96.8182H440.291L434.613 112.717C434.348 113.468 433.997 114.112 433.56 114.647C433.123 115.189 432.588 115.601 431.954 115.884C431.326 116.174 430.575 116.318 429.701 116.318ZM448.308 111.277C446.923 111.277 445.722 110.972 444.707 110.363C443.691 109.754 442.903 108.901 442.343 107.805C441.789 106.71 441.512 105.429 441.512 103.964C441.512 102.5 441.789 101.216 442.343 100.114C442.903 99.0125 443.691 98.157 444.707 97.5476C445.722 96.9382 446.923 96.6335 448.308 96.6335C449.693 96.6335 450.893 96.9382 451.909 97.5476C452.924 98.157 453.709 99.0125 454.263 100.114C454.823 101.216 455.103 102.5 455.103 103.964C455.103 105.429 454.823 106.71 454.263 107.805C453.709 108.901 452.924 109.754 451.909 110.363C450.893 110.972 449.693 111.277 448.308 111.277ZM448.326 108.599C449.077 108.599 449.705 108.393 450.21 107.981C450.714 107.562 451.09 107.002 451.336 106.3C451.588 105.599 451.715 104.817 451.715 103.955C451.715 103.087 451.588 102.303 451.336 101.601C451.09 100.893 450.714 100.33 450.21 99.9112C449.705 99.4927 449.077 99.2834 448.326 99.2834C447.557 99.2834 446.917 99.4927 446.406 99.9112C445.901 100.33 445.522 100.893 445.27 101.601C445.024 102.303 444.901 103.087 444.901 103.955C444.901 104.817 445.024 105.599 445.27 106.3C445.522 107.002 445.901 107.562 446.406 107.981C446.917 108.393 447.557 108.599 448.326 108.599Z" fill="white"/>
</svg>
